solid OpenSCAD_Model
  facet normal 0 1 -0
    outer loop
      vertex 5 1.59999 0
      vertex 2 1.59999 2
      vertex 5 1.59999 2
    endloop
  endfacet
  facet normal 0 1 0
    outer loop
      vertex 2 1.59999 2
      vertex 5 1.59999 0
      vertex 2 1.59999 0
    endloop
  endfacet
  facet normal 0 0 -1
    outer loop
      vertex 2 1.59999 0
      vertex 5 1 0
      vertex 2 0 0
    endloop
  endfacet
  facet normal 0 0 -1
    outer loop
      vertex 5 1 0
      vertex 2 1.59999 0
      vertex 5 1.59999 0
    endloop
  endfacet
  facet normal -0 0 1
    outer loop
      vertex 2 1.59999 2
      vertex 5 1 2
      vertex 5 1.59999 2
    endloop
  endfacet
  facet normal 0 0 1
    outer loop
      vertex 5 1 2
      vertex 2 1.59999 2
      vertex 2 0 2
    endloop
  endfacet
  facet normal 1 -0 0
    outer loop
      vertex 5 1 2
      vertex 5 1.59999 0
      vertex 5 1.59999 2
    endloop
  endfacet
  facet normal 1 0 0
    outer loop
      vertex 5 1.59999 0
      vertex 5 1 2
      vertex 5 1 0
    endloop
  endfacet
  facet normal -1 0 0
    outer loop
      vertex 2 0 0
      vertex 2 1.59999 2
      vertex 2 1.59999 0
    endloop
  endfacet
  facet normal -1 -0 0
    outer loop
      vertex 2 1.59999 2
      vertex 2 0 0
      vertex 2 0 2
    endloop
  endfacet
  facet normal 0.316228 -0.948683 0
    outer loop
      vertex 2 0 0
      vertex 5 1 2
      vertex 2 0 2
    endloop
  endfacet
  facet normal 0.316228 -0.948683 0
    outer loop
      vertex 5 1 2
      vertex 2 0 0
      vertex 5 1 0
    endloop
  endfacet
  facet normal 0 1 -0
    outer loop
      vertex 3.61803 3.5021 0
      vertex 0.618033 3.5021 2
      vertex 3.61803 3.5021 2
    endloop
  endfacet
  facet normal 0 1 0
    outer loop
      vertex 0.618033 3.5021 2
      vertex 3.61803 3.5021 0
      vertex 0.618033 3.5021 0
    endloop
  endfacet
  facet normal 0 0 -1
    outer loop
      vertex -1.61803 2.77556 0
      vertex 0.618033 1.92093 0
      vertex -1.61803 1.17557 0
    endloop
  endfacet
  facet normal 0 0 -1
    outer loop
      vertex 0.618033 1.92093 0
      vertex -1.61803 2.77556 0
      vertex 0.618033 2.77556 0
    endloop
  endfacet
  facet normal 0 0 -1
    outer loop
      vertex 0.618033 1.92093 0
      vertex 3.61803 2.90211 0
      vertex 0.618033 1.90211 0
    endloop
  endfacet
  facet normal 0 0 -1
    outer loop
      vertex 0.618033 2.77556 0
      vertex 3.61803 2.90211 0
      vertex 0.618033 1.92093 0
    endloop
  endfacet
  facet normal 0 0 -1
    outer loop
      vertex 0.618033 3.5021 0
      vertex 3.61803 2.90211 0
      vertex 0.618033 2.77556 0
    endloop
  endfacet
  facet normal 0 0 -1
    outer loop
      vertex 3.61803 2.90211 0
      vertex 0.618033 3.5021 0
      vertex 3.61803 3.5021 0
    endloop
  endfacet
  facet normal -0 0 1
    outer loop
      vertex -1.61803 2.77556 2
      vertex 0.618033 1.92093 2
      vertex 0.618033 2.77556 2
    endloop
  endfacet
  facet normal 0 0 1
    outer loop
      vertex 0.618033 1.92093 2
      vertex -1.61803 2.77556 2
      vertex -1.61803 1.17557 2
    endloop
  endfacet
  facet normal -0 0 1
    outer loop
      vertex 0.618033 3.5021 2
      vertex 3.61803 2.90211 2
      vertex 3.61803 3.5021 2
    endloop
  endfacet
  facet normal 0 0 1
    outer loop
      vertex 0.618033 2.77556 2
      vertex 3.61803 2.90211 2
      vertex 0.618033 3.5021 2
    endloop
  endfacet
  facet normal 0 0 1
    outer loop
      vertex 0.618033 1.92093 2
      vertex 3.61803 2.90211 2
      vertex 0.618033 2.77556 2
    endloop
  endfacet
  facet normal 0 0 1
    outer loop
      vertex 3.61803 2.90211 2
      vertex 0.618033 1.92093 2
      vertex 0.618033 1.90211 2
    endloop
  endfacet
  facet normal 1 -0 0
    outer loop
      vertex 3.61803 2.90211 2
      vertex 3.61803 3.5021 0
      vertex 3.61803 3.5021 2
    endloop
  endfacet
  facet normal 1 0 0
    outer loop
      vertex 3.61803 3.5021 0
      vertex 3.61803 2.90211 2
      vertex 3.61803 2.90211 0
    endloop
  endfacet
  facet normal -1 0 0
    outer loop
      vertex 0.618033 1.90211 0
      vertex 0.618033 1.92093 2
      vertex 0.618033 1.92093 0
    endloop
  endfacet
  facet normal -1 -0 0
    outer loop
      vertex 0.618033 1.92093 2
      vertex 0.618033 1.90211 0
      vertex 0.618033 1.90211 2
    endloop
  endfacet
  facet normal -1 0 0
    outer loop
      vertex 0.618033 2.77556 0
      vertex 0.618033 3.5021 2
      vertex 0.618033 3.5021 0
    endloop
  endfacet
  facet normal -1 -0 0
    outer loop
      vertex 0.618033 3.5021 2
      vertex 0.618033 2.77556 0
      vertex 0.618033 2.77556 2
    endloop
  endfacet
  facet normal 0.316228 -0.948683 0
    outer loop
      vertex 0.618033 1.90211 0
      vertex 3.61803 2.90211 2
      vertex 0.618033 1.90211 2
    endloop
  endfacet
  facet normal 0.316228 -0.948683 0
    outer loop
      vertex 3.61803 2.90211 2
      vertex 0.618033 1.90211 0
      vertex 3.61803 2.90211 0
    endloop
  endfacet
  facet normal 0 1 -0
    outer loop
      vertex 0.618033 2.77556 0
      vertex -1.61803 2.77556 2
      vertex 0.618033 2.77556 2
    endloop
  endfacet
  facet normal 0 1 0
    outer loop
      vertex -1.61803 2.77556 2
      vertex 0.618033 2.77556 0
      vertex -1.61803 2.77556 0
    endloop
  endfacet
  facet normal -1 0 0
    outer loop
      vertex -1.61803 1.17557 0
      vertex -1.61803 2.77556 2
      vertex -1.61803 2.77556 0
    endloop
  endfacet
  facet normal -1 -0 0
    outer loop
      vertex -1.61803 2.77556 2
      vertex -1.61803 1.17557 0
      vertex -1.61803 1.17557 2
    endloop
  endfacet
  facet normal 0.31623 -0.948683 0
    outer loop
      vertex -1.61803 1.17557 0
      vertex 0.618033 1.92093 2
      vertex -1.61803 1.17557 2
    endloop
  endfacet
  facet normal 0.31623 -0.948683 0
    outer loop
      vertex 0.618033 1.92093 2
      vertex -1.61803 1.17557 0
      vertex 0.618033 1.92093 0
    endloop
  endfacet
  facet normal 0 1 -0
    outer loop
      vertex 1.38197 0.424419 0
      vertex -1.61803 0.424419 2
      vertex 1.38197 0.424419 2
    endloop
  endfacet
  facet normal 0 1 0
    outer loop
      vertex -1.61803 0.424419 2
      vertex 1.38197 0.424419 0
      vertex -1.61803 0.424419 0
    endloop
  endfacet
  facet normal 0 0 -1
    outer loop
      vertex 3.61803 -0.902113 0
      vertex 1.00231 -0.302122 0
      vertex 3.61803 -0.302122 0
    endloop
  endfacet
  facet normal 0 -0 -1
    outer loop
      vertex 1.00231 -0.302122 0
      vertex 3.61803 -0.902113 0
      vertex 0.618033 -1.90211 0
    endloop
  endfacet
  facet normal 0 0 -1
    outer loop
      vertex 1.00231 -0.302122 0
      vertex 1.38197 0.424419 0
      vertex 1.38197 -0.17557 0
    endloop
  endfacet
  facet normal 0 0 -1
    outer loop
      vertex 0.618033 -0.430215 0
      vertex 1.00231 -0.302122 0
      vertex 0.618033 -1.90211 0
    endloop
  endfacet
  facet normal 0 0 -1
    outer loop
      vertex 0.618033 -0.430215 0
      vertex 1.38197 0.424419 0
      vertex 1.00231 -0.302122 0
    endloop
  endfacet
  facet normal 0 0 -1
    outer loop
      vertex -1.61803 0.424419 0
      vertex 0.618033 -0.430215 0
      vertex -1.61803 -1.17557 0
    endloop
  endfacet
  facet normal 0 0 -1
    outer loop
      vertex 0.618033 -0.430215 0
      vertex -1.61803 0.424419 0
      vertex 1.38197 0.424419 0
    endloop
  endfacet
  facet normal 0 0 1
    outer loop
      vertex 1.38197 0.424419 2
      vertex 1.00231 -0.302122 2
      vertex 1.38197 -0.17557 2
    endloop
  endfacet
  facet normal 0 0 1
    outer loop
      vertex 1.38197 0.424419 2
      vertex 0.618033 -0.430215 2
      vertex 1.00231 -0.302122 2
    endloop
  endfacet
  facet normal -0 0 1
    outer loop
      vertex -1.61803 0.424419 2
      vertex 0.618033 -0.430215 2
      vertex 1.38197 0.424419 2
    endloop
  endfacet
  facet normal 0 0 1
    outer loop
      vertex 0.618033 -0.430215 2
      vertex -1.61803 0.424419 2
      vertex -1.61803 -1.17557 2
    endloop
  endfacet
  facet normal -0 0 1
    outer loop
      vertex 1.00231 -0.302122 2
      vertex 3.61803 -0.902113 2
      vertex 3.61803 -0.302122 2
    endloop
  endfacet
  facet normal 0 0 1
    outer loop
      vertex 0.618033 -1.90211 2
      vertex 1.00231 -0.302122 2
      vertex 0.618033 -0.430215 2
    endloop
  endfacet
  facet normal 0 0 1
    outer loop
      vertex 1.00231 -0.302122 2
      vertex 0.618033 -1.90211 2
      vertex 3.61803 -0.902113 2
    endloop
  endfacet
  facet normal 1 -0 0
    outer loop
      vertex 1.38197 -0.17557 2
      vertex 1.38197 0.424419 0
      vertex 1.38197 0.424419 2
    endloop
  endfacet
  facet normal 1 0 0
    outer loop
      vertex 1.38197 0.424419 0
      vertex 1.38197 -0.17557 2
      vertex 1.38197 -0.17557 0
    endloop
  endfacet
  facet normal -1 0 0
    outer loop
      vertex -1.61803 -1.17557 0
      vertex -1.61803 0.424419 2
      vertex -1.61803 0.424419 0
    endloop
  endfacet
  facet normal -1 -0 0
    outer loop
      vertex -1.61803 0.424419 2
      vertex -1.61803 -1.17557 0
      vertex -1.61803 -1.17557 2
    endloop
  endfacet
  facet normal 0.316228 -0.948683 0
    outer loop
      vertex -1.61803 -1.17557 0
      vertex 0.618033 -0.430215 2
      vertex -1.61803 -1.17557 2
    endloop
  endfacet
  facet normal 0.316228 -0.948683 0
    outer loop
      vertex 0.618033 -0.430215 2
      vertex -1.61803 -1.17557 0
      vertex 0.618033 -0.430215 0
    endloop
  endfacet
  facet normal 0.316225 -0.948684 0
    outer loop
      vertex 1.00231 -0.302122 0
      vertex 1.38197 -0.17557 2
      vertex 1.00231 -0.302122 2
    endloop
  endfacet
  facet normal 0.316225 -0.948684 0
    outer loop
      vertex 1.38197 -0.17557 2
      vertex 1.00231 -0.302122 0
      vertex 1.38197 -0.17557 0
    endloop
  endfacet
  facet normal 0 1 -0
    outer loop
      vertex 3.61803 -0.302122 0
      vertex 1.00231 -0.302122 2
      vertex 3.61803 -0.302122 2
    endloop
  endfacet
  facet normal 0 1 0
    outer loop
      vertex 1.00231 -0.302122 2
      vertex 3.61803 -0.302122 0
      vertex 1.00231 -0.302122 0
    endloop
  endfacet
  facet normal 1 -0 0
    outer loop
      vertex 3.61803 -0.902113 2
      vertex 3.61803 -0.302122 0
      vertex 3.61803 -0.302122 2
    endloop
  endfacet
  facet normal 1 0 0
    outer loop
      vertex 3.61803 -0.302122 0
      vertex 3.61803 -0.902113 2
      vertex 3.61803 -0.902113 0
    endloop
  endfacet
  facet normal -1 0 0
    outer loop
      vertex 0.618033 -1.90211 0
      vertex 0.618033 -0.430215 2
      vertex 0.618033 -0.430215 0
    endloop
  endfacet
  facet normal -1 -0 0
    outer loop
      vertex 0.618033 -0.430215 2
      vertex 0.618033 -1.90211 0
      vertex 0.618033 -1.90211 2
    endloop
  endfacet
  facet normal 0.316227 -0.948683 0
    outer loop
      vertex 0.618033 -1.90211 0
      vertex 3.61803 -0.902113 2
      vertex 0.618033 -1.90211 2
    endloop
  endfacet
  facet normal 0.316227 -0.948683 0
    outer loop
      vertex 3.61803 -0.902113 2
      vertex 0.618033 -1.90211 0
      vertex 3.61803 -0.902113 0
    endloop
  endfacet
endsolid OpenSCAD_Model
