solid OpenSCAD_Model
  facet normal 0.982287 0.187385 0
    outer loop
      vertex 24.8029 3.13333 20
      vertex 24.2146 6.21725 0
      vertex 24.2146 6.21725 20
    endloop
  endfacet
  facet normal 0.982287 0.187385 0
    outer loop
      vertex 24.2146 6.21725 0
      vertex 24.8029 3.13333 20
      vertex 24.8029 3.13333 0
    endloop
  endfacet
  facet normal 0.998027 0.0627802 0
    outer loop
      vertex 25 0 20
      vertex 24.8029 3.13333 0
      vertex 24.8029 3.13333 20
    endloop
  endfacet
  facet normal 0.998027 0.0627802 0
    outer loop
      vertex 24.8029 3.13333 0
      vertex 25 0 20
      vertex 25 0 0
    endloop
  endfacet
  facet normal -0.844321 -0.535838 0
    outer loop
      vertex -20.2254 -14.6946 0
      vertex -21.9077 -12.0438 20
      vertex -21.9077 -12.0438 0
    endloop
  endfacet
  facet normal -0.844321 -0.535838 0
    outer loop
      vertex -21.9077 -12.0438 20
      vertex -20.2254 -14.6946 0
      vertex -20.2254 -14.6946 20
    endloop
  endfacet
  facet normal -0.368112 0.929781 0
    outer loop
      vertex -7.72542 23.7764 0
      vertex -10.6445 22.6207 20
      vertex -7.72542 23.7764 20
    endloop
  endfacet
  facet normal -0.368112 0.929781 0
    outer loop
      vertex -10.6445 22.6207 20
      vertex -7.72542 23.7764 0
      vertex -10.6445 22.6207 0
    endloop
  endfacet
  facet normal 0.684541 -0.728975 0
    outer loop
      vertex 15.9356 -19.2628 0
      vertex 18.2242 -17.1137 20
      vertex 15.9356 -19.2628 20
    endloop
  endfacet
  facet normal 0.684541 -0.728975 0
    outer loop
      vertex 18.2242 -17.1137 20
      vertex 15.9356 -19.2628 0
      vertex 18.2242 -17.1137 0
    endloop
  endfacet
  facet normal -0.248699 0.968581 0
    outer loop
      vertex -4.68453 24.5572 0
      vertex -7.72542 23.7764 20
      vertex -4.68453 24.5572 20
    endloop
  endfacet
  facet normal -0.248699 0.968581 0
    outer loop
      vertex -7.72542 23.7764 20
      vertex -4.68453 24.5572 0
      vertex -7.72542 23.7764 0
    endloop
  endfacet
  facet normal -0.125337 -0.992114 0
    outer loop
      vertex -4.68453 -24.5572 0
      vertex -1.56976 -24.9507 20
      vertex -4.68453 -24.5572 20
    endloop
  endfacet
  facet normal -0.125337 -0.992114 -0
    outer loop
      vertex -1.56976 -24.9507 20
      vertex -4.68453 -24.5572 0
      vertex -1.56976 -24.9507 0
    endloop
  endfacet
  facet normal 0.844321 0.535838 0
    outer loop
      vertex 21.9077 12.0438 20
      vertex 20.2254 14.6946 0
      vertex 20.2254 14.6946 20
    endloop
  endfacet
  facet normal 0.844321 0.535838 0
    outer loop
      vertex 20.2254 14.6946 0
      vertex 21.9077 12.0438 20
      vertex 21.9077 12.0438 0
    endloop
  endfacet
  facet normal 0.248699 -0.968581 0
    outer loop
      vertex 4.68453 -24.5572 0
      vertex 7.72542 -23.7764 20
      vertex 4.68453 -24.5572 20
    endloop
  endfacet
  facet normal 0.248699 -0.968581 0
    outer loop
      vertex 7.72542 -23.7764 20
      vertex 4.68453 -24.5572 0
      vertex 7.72542 -23.7764 0
    endloop
  endfacet
  facet normal -0.368112 -0.929781 0
    outer loop
      vertex -10.6445 -22.6207 0
      vertex -7.72542 -23.7764 20
      vertex -10.6445 -22.6207 20
    endloop
  endfacet
  facet normal -0.368112 -0.929781 -0
    outer loop
      vertex -7.72542 -23.7764 20
      vertex -10.6445 -22.6207 0
      vertex -7.72542 -23.7764 0
    endloop
  endfacet
  facet normal 0.90483 0.425772 0
    outer loop
      vertex 23.2444 9.20311 20
      vertex 21.9077 12.0438 0
      vertex 21.9077 12.0438 20
    endloop
  endfacet
  facet normal 0.90483 0.425772 0
    outer loop
      vertex 21.9077 12.0438 0
      vertex 23.2444 9.20311 20
      vertex 23.2444 9.20311 0
    endloop
  endfacet
  facet normal 0.951053 -0.309027 0
    outer loop
      vertex 23.2444 -9.20311 20
      vertex 24.2146 -6.21725 0
      vertex 24.2146 -6.21725 20
    endloop
  endfacet
  facet normal 0.951053 -0.309027 0
    outer loop
      vertex 24.2146 -6.21725 0
      vertex 23.2444 -9.20311 20
      vertex 23.2444 -9.20311 0
    endloop
  endfacet
  facet normal 0.368112 -0.929781 0
    outer loop
      vertex 7.72542 -23.7764 0
      vertex 10.6445 -22.6207 20
      vertex 7.72542 -23.7764 20
    endloop
  endfacet
  facet normal 0.368112 -0.929781 0
    outer loop
      vertex 10.6445 -22.6207 20
      vertex 7.72542 -23.7764 0
      vertex 10.6445 -22.6207 0
    endloop
  endfacet
  facet normal 0.125337 0.992114 -0
    outer loop
      vertex 4.68453 24.5572 0
      vertex 1.56976 24.9507 20
      vertex 4.68453 24.5572 20
    endloop
  endfacet
  facet normal 0.125337 0.992114 0
    outer loop
      vertex 1.56976 24.9507 20
      vertex 4.68453 24.5572 0
      vertex 1.56976 24.9507 0
    endloop
  endfacet
  facet normal 0.368112 0.929781 -0
    outer loop
      vertex 10.6445 22.6207 0
      vertex 7.72542 23.7764 20
      vertex 10.6445 22.6207 20
    endloop
  endfacet
  facet normal 0.368112 0.929781 0
    outer loop
      vertex 7.72542 23.7764 20
      vertex 10.6445 22.6207 0
      vertex 7.72542 23.7764 0
    endloop
  endfacet
  facet normal -0.481757 0.876305 0
    outer loop
      vertex -10.6445 22.6207 0
      vertex -13.3957 21.1082 20
      vertex -10.6445 22.6207 20
    endloop
  endfacet
  facet normal -0.481757 0.876305 0
    outer loop
      vertex -13.3957 21.1082 20
      vertex -10.6445 22.6207 0
      vertex -13.3957 21.1082 0
    endloop
  endfacet
  facet normal 0.998027 -0.0627802 0
    outer loop
      vertex 24.8029 -3.13333 20
      vertex 25 0 0
      vertex 25 0 20
    endloop
  endfacet
  facet normal 0.998027 -0.0627802 0
    outer loop
      vertex 25 0 0
      vertex 24.8029 -3.13333 20
      vertex 24.8029 -3.13333 0
    endloop
  endfacet
  facet normal -0.982287 0.187385 0
    outer loop
      vertex -24.8029 3.13333 0
      vertex -24.2146 6.21725 20
      vertex -24.2146 6.21725 0
    endloop
  endfacet
  facet normal -0.982287 0.187385 0
    outer loop
      vertex -24.2146 6.21725 20
      vertex -24.8029 3.13333 0
      vertex -24.8029 3.13333 20
    endloop
  endfacet
  facet normal 0.481757 0.876305 -0
    outer loop
      vertex 13.3957 21.1082 0
      vertex 10.6445 22.6207 20
      vertex 13.3957 21.1082 20
    endloop
  endfacet
  facet normal 0.481757 0.876305 0
    outer loop
      vertex 10.6445 22.6207 20
      vertex 13.3957 21.1082 0
      vertex 10.6445 22.6207 0
    endloop
  endfacet
  facet normal 0.248699 0.968581 -0
    outer loop
      vertex 7.72542 23.7764 0
      vertex 4.68453 24.5572 20
      vertex 7.72542 23.7764 20
    endloop
  endfacet
  facet normal 0.248699 0.968581 0
    outer loop
      vertex 4.68453 24.5572 20
      vertex 7.72542 23.7764 0
      vertex 4.68453 24.5572 0
    endloop
  endfacet
  facet normal -0.770522 0.637414 0
    outer loop
      vertex -20.2254 14.6946 0
      vertex -18.2242 17.1137 20
      vertex -18.2242 17.1137 0
    endloop
  endfacet
  facet normal -0.770522 0.637414 0
    outer loop
      vertex -18.2242 17.1137 20
      vertex -20.2254 14.6946 0
      vertex -20.2254 14.6946 20
    endloop
  endfacet
  facet normal -0.951053 -0.309027 0
    outer loop
      vertex -23.2444 -9.20311 0
      vertex -24.2146 -6.21725 20
      vertex -24.2146 -6.21725 0
    endloop
  endfacet
  facet normal -0.951053 -0.309027 0
    outer loop
      vertex -24.2146 -6.21725 20
      vertex -23.2444 -9.20311 0
      vertex -23.2444 -9.20311 20
    endloop
  endfacet
  facet normal 0.684541 0.728975 -0
    outer loop
      vertex 18.2242 17.1137 0
      vertex 15.9356 19.2628 20
      vertex 18.2242 17.1137 20
    endloop
  endfacet
  facet normal 0.684541 0.728975 0
    outer loop
      vertex 15.9356 19.2628 20
      vertex 18.2242 17.1137 0
      vertex 15.9356 19.2628 0
    endloop
  endfacet
  facet normal -0.248699 -0.968581 0
    outer loop
      vertex -7.72542 -23.7764 0
      vertex -4.68453 -24.5572 20
      vertex -7.72542 -23.7764 20
    endloop
  endfacet
  facet normal -0.248699 -0.968581 -0
    outer loop
      vertex -4.68453 -24.5572 20
      vertex -7.72542 -23.7764 0
      vertex -4.68453 -24.5572 0
    endloop
  endfacet
  facet normal -0.770522 -0.637414 0
    outer loop
      vertex -18.2242 -17.1137 0
      vertex -20.2254 -14.6946 20
      vertex -20.2254 -14.6946 0
    endloop
  endfacet
  facet normal -0.770522 -0.637414 0
    outer loop
      vertex -20.2254 -14.6946 20
      vertex -18.2242 -17.1137 0
      vertex -18.2242 -17.1137 20
    endloop
  endfacet
  facet normal -0.684541 0.728975 0
    outer loop
      vertex -15.9356 19.2628 0
      vertex -18.2242 17.1137 20
      vertex -15.9356 19.2628 20
    endloop
  endfacet
  facet normal -0.684541 0.728975 0
    outer loop
      vertex -18.2242 17.1137 20
      vertex -15.9356 19.2628 0
      vertex -18.2242 17.1137 0
    endloop
  endfacet
  facet normal -0.998027 0.0627802 0
    outer loop
      vertex -25 0 0
      vertex -24.8029 3.13333 20
      vertex -24.8029 3.13333 0
    endloop
  endfacet
  facet normal -0.998027 0.0627802 0
    outer loop
      vertex -24.8029 3.13333 20
      vertex -25 0 0
      vertex -25 0 20
    endloop
  endfacet
  facet normal 0.90483 -0.425772 0
    outer loop
      vertex 21.9077 -12.0438 20
      vertex 23.2444 -9.20311 0
      vertex 23.2444 -9.20311 20
    endloop
  endfacet
  facet normal 0.90483 -0.425772 0
    outer loop
      vertex 23.2444 -9.20311 0
      vertex 21.9077 -12.0438 20
      vertex 21.9077 -12.0438 0
    endloop
  endfacet
  facet normal 0.125337 -0.992114 0
    outer loop
      vertex 1.56976 -24.9507 0
      vertex 4.68453 -24.5572 20
      vertex 1.56976 -24.9507 20
    endloop
  endfacet
  facet normal 0.125337 -0.992114 0
    outer loop
      vertex 4.68453 -24.5572 20
      vertex 1.56976 -24.9507 0
      vertex 4.68453 -24.5572 0
    endloop
  endfacet
  facet normal -0.844321 0.535838 0
    outer loop
      vertex -21.9077 12.0438 0
      vertex -20.2254 14.6946 20
      vertex -20.2254 14.6946 0
    endloop
  endfacet
  facet normal -0.844321 0.535838 0
    outer loop
      vertex -20.2254 14.6946 20
      vertex -21.9077 12.0438 0
      vertex -21.9077 12.0438 20
    endloop
  endfacet
  facet normal -0.951053 0.309027 0
    outer loop
      vertex -24.2146 6.21725 0
      vertex -23.2444 9.20311 20
      vertex -23.2444 9.20311 0
    endloop
  endfacet
  facet normal -0.951053 0.309027 0
    outer loop
      vertex -23.2444 9.20311 20
      vertex -24.2146 6.21725 0
      vertex -24.2146 6.21725 20
    endloop
  endfacet
  facet normal 0.587797 0.809009 -0
    outer loop
      vertex 15.9356 19.2628 0
      vertex 13.3957 21.1082 20
      vertex 15.9356 19.2628 20
    endloop
  endfacet
  facet normal 0.587797 0.809009 0
    outer loop
      vertex 13.3957 21.1082 20
      vertex 15.9356 19.2628 0
      vertex 13.3957 21.1082 0
    endloop
  endfacet
  facet normal -0.998027 -0.0627802 0
    outer loop
      vertex -24.8029 -3.13333 0
      vertex -25 0 20
      vertex -25 0 0
    endloop
  endfacet
  facet normal -0.998027 -0.0627802 0
    outer loop
      vertex -25 0 20
      vertex -24.8029 -3.13333 0
      vertex -24.8029 -3.13333 20
    endloop
  endfacet
  facet normal -0.125337 0.992114 0
    outer loop
      vertex -1.56976 24.9507 0
      vertex -4.68453 24.5572 20
      vertex -1.56976 24.9507 20
    endloop
  endfacet
  facet normal -0.125337 0.992114 0
    outer loop
      vertex -4.68453 24.5572 20
      vertex -1.56976 24.9507 0
      vertex -4.68453 24.5572 0
    endloop
  endfacet
  facet normal 0.982287 -0.187385 0
    outer loop
      vertex 24.2146 -6.21725 20
      vertex 24.8029 -3.13333 0
      vertex 24.8029 -3.13333 20
    endloop
  endfacet
  facet normal 0.982287 -0.187385 0
    outer loop
      vertex 24.8029 -3.13333 0
      vertex 24.2146 -6.21725 20
      vertex 24.2146 -6.21725 0
    endloop
  endfacet
  facet normal 0.844321 -0.535838 0
    outer loop
      vertex 20.2254 -14.6946 20
      vertex 21.9077 -12.0438 0
      vertex 21.9077 -12.0438 20
    endloop
  endfacet
  facet normal 0.844321 -0.535838 0
    outer loop
      vertex 21.9077 -12.0438 0
      vertex 20.2254 -14.6946 20
      vertex 20.2254 -14.6946 0
    endloop
  endfacet
  facet normal 0.770522 0.637414 0
    outer loop
      vertex 20.2254 14.6946 20
      vertex 18.2242 17.1137 0
      vertex 18.2242 17.1137 20
    endloop
  endfacet
  facet normal 0.770522 0.637414 0
    outer loop
      vertex 18.2242 17.1137 0
      vertex 20.2254 14.6946 20
      vertex 20.2254 14.6946 0
    endloop
  endfacet
  facet normal -0.90483 -0.425772 0
    outer loop
      vertex -21.9077 -12.0438 0
      vertex -23.2444 -9.20311 20
      vertex -23.2444 -9.20311 0
    endloop
  endfacet
  facet normal -0.90483 -0.425772 0
    outer loop
      vertex -23.2444 -9.20311 20
      vertex -21.9077 -12.0438 0
      vertex -21.9077 -12.0438 20
    endloop
  endfacet
  facet normal 0 1 -0
    outer loop
      vertex 1.56976 24.9507 0
      vertex -1.56976 24.9507 20
      vertex 1.56976 24.9507 20
    endloop
  endfacet
  facet normal 0 1 0
    outer loop
      vertex -1.56976 24.9507 20
      vertex 1.56976 24.9507 0
      vertex -1.56976 24.9507 0
    endloop
  endfacet
  facet normal 0.951053 0.309027 0
    outer loop
      vertex 24.2146 6.21725 20
      vertex 23.2444 9.20311 0
      vertex 23.2444 9.20311 20
    endloop
  endfacet
  facet normal 0.951053 0.309027 0
    outer loop
      vertex 23.2444 9.20311 0
      vertex 24.2146 6.21725 20
      vertex 24.2146 6.21725 0
    endloop
  endfacet
  facet normal 0 -1 0
    outer loop
      vertex -1.56976 -24.9507 0
      vertex 1.56976 -24.9507 20
      vertex -1.56976 -24.9507 20
    endloop
  endfacet
  facet normal 0 -1 -0
    outer loop
      vertex 1.56976 -24.9507 20
      vertex -1.56976 -24.9507 0
      vertex 1.56976 -24.9507 0
    endloop
  endfacet
  facet normal 0.587797 -0.809009 0
    outer loop
      vertex 13.3957 -21.1082 0
      vertex 15.9356 -19.2628 20
      vertex 13.3957 -21.1082 20
    endloop
  endfacet
  facet normal 0.587797 -0.809009 0
    outer loop
      vertex 15.9356 -19.2628 20
      vertex 13.3957 -21.1082 0
      vertex 15.9356 -19.2628 0
    endloop
  endfacet
  facet normal 0.770522 -0.637414 0
    outer loop
      vertex 18.2242 -17.1137 20
      vertex 20.2254 -14.6946 0
      vertex 20.2254 -14.6946 20
    endloop
  endfacet
  facet normal 0.770522 -0.637414 0
    outer loop
      vertex 20.2254 -14.6946 0
      vertex 18.2242 -17.1137 20
      vertex 18.2242 -17.1137 0
    endloop
  endfacet
  facet normal -0.587797 -0.809009 0
    outer loop
      vertex -15.9356 -19.2628 0
      vertex -13.3957 -21.1082 20
      vertex -15.9356 -19.2628 20
    endloop
  endfacet
  facet normal -0.587797 -0.809009 -0
    outer loop
      vertex -13.3957 -21.1082 20
      vertex -15.9356 -19.2628 0
      vertex -13.3957 -21.1082 0
    endloop
  endfacet
  facet normal -0.684541 -0.728975 0
    outer loop
      vertex -18.2242 -17.1137 0
      vertex -15.9356 -19.2628 20
      vertex -18.2242 -17.1137 20
    endloop
  endfacet
  facet normal -0.684541 -0.728975 -0
    outer loop
      vertex -15.9356 -19.2628 20
      vertex -18.2242 -17.1137 0
      vertex -15.9356 -19.2628 0
    endloop
  endfacet
  facet normal 0 0 -1
    outer loop
      vertex 12.5 0 0
      vertex 25 0 0
      vertex 24.8029 -3.13333 0
    endloop
  endfacet
  facet normal 0 0 -1
    outer loop
      vertex 12.4014 -1.56666 0
      vertex 24.8029 -3.13333 0
      vertex 24.2146 -6.21725 0
    endloop
  endfacet
  facet normal 0 0 -1
    outer loop
      vertex 25 0 0
      vertex 12.5 0 0
      vertex 24.8029 3.13333 0
    endloop
  endfacet
  facet normal 0 0 -1
    outer loop
      vertex 12.1073 -3.10862 0
      vertex 24.2146 -6.21725 0
      vertex 23.2444 -9.20311 0
    endloop
  endfacet
  facet normal 0 0 -1
    outer loop
      vertex 12.4014 1.56666 0
      vertex 24.8029 3.13333 0
      vertex 12.5 0 0
    endloop
  endfacet
  facet normal 0 0 -1
    outer loop
      vertex 11.6222 -4.60156 0
      vertex 23.2444 -9.20311 0
      vertex 21.9077 -12.0438 0
    endloop
  endfacet
  facet normal -0 0 -1
    outer loop
      vertex 24.8029 3.13333 0
      vertex 12.4014 1.56666 0
      vertex 24.2146 6.21725 0
    endloop
  endfacet
  facet normal 0 0 -1
    outer loop
      vertex 10.9538 -6.02192 0
      vertex 21.9077 -12.0438 0
      vertex 20.2254 -14.6946 0
    endloop
  endfacet
  facet normal 0 0 -1
    outer loop
      vertex 12.1073 3.10862 0
      vertex 24.2146 6.21725 0
      vertex 12.4014 1.56666 0
    endloop
  endfacet
  facet normal 0 0 -1
    outer loop
      vertex 10.1127 -7.34731 0
      vertex 20.2254 -14.6946 0
      vertex 18.2242 -17.1137 0
    endloop
  endfacet
  facet normal -0 0 -1
    outer loop
      vertex 24.2146 6.21725 0
      vertex 12.1073 3.10862 0
      vertex 23.2444 9.20311 0
    endloop
  endfacet
  facet normal 0 0 -1
    outer loop
      vertex 9.11211 -8.55684 0
      vertex 18.2242 -17.1137 0
      vertex 15.9356 -19.2628 0
    endloop
  endfacet
  facet normal 0 0 -1
    outer loop
      vertex 11.6222 4.60156 0
      vertex 23.2444 9.20311 0
      vertex 12.1073 3.10862 0
    endloop
  endfacet
  facet normal 0 0 -1
    outer loop
      vertex 7.9678 -9.63142 0
      vertex 15.9356 -19.2628 0
      vertex 13.3957 -21.1082 0
    endloop
  endfacet
  facet normal -0 0 -1
    outer loop
      vertex 23.2444 9.20311 0
      vertex 11.6222 4.60156 0
      vertex 21.9077 12.0438 0
    endloop
  endfacet
  facet normal 0 0 -1
    outer loop
      vertex 10.9538 6.02192 0
      vertex 21.9077 12.0438 0
      vertex 11.6222 4.60156 0
    endloop
  endfacet
  facet normal 0 0 -1
    outer loop
      vertex 24.8029 -3.13333 0
      vertex 12.4014 -1.56666 0
      vertex 12.5 0 0
    endloop
  endfacet
  facet normal 0 0 -1
    outer loop
      vertex 24.2146 -6.21725 0
      vertex 12.1073 -3.10862 0
      vertex 12.4014 -1.56666 0
    endloop
  endfacet
  facet normal 0 0 -1
    outer loop
      vertex 23.2444 -9.20311 0
      vertex 11.6222 -4.60156 0
      vertex 12.1073 -3.10862 0
    endloop
  endfacet
  facet normal 0 0 -1
    outer loop
      vertex 21.9077 -12.0438 0
      vertex 10.9538 -6.02192 0
      vertex 11.6222 -4.60156 0
    endloop
  endfacet
  facet normal 0 0 -1
    outer loop
      vertex 6.69783 -10.5541 0
      vertex 13.3957 -21.1082 0
      vertex 10.6445 -22.6207 0
    endloop
  endfacet
  facet normal 0 0 -1
    outer loop
      vertex 20.2254 -14.6946 0
      vertex 10.1127 -7.34731 0
      vertex 10.9538 -6.02192 0
    endloop
  endfacet
  facet normal 0 0 -1
    outer loop
      vertex 18.2242 -17.1137 0
      vertex 9.11211 -8.55684 0
      vertex 10.1127 -7.34731 0
    endloop
  endfacet
  facet normal 0 0 -1
    outer loop
      vertex 15.9356 -19.2628 0
      vertex 7.9678 -9.63142 0
      vertex 9.11211 -8.55684 0
    endloop
  endfacet
  facet normal 0 0 -1
    outer loop
      vertex 5.32224 -11.3103 0
      vertex 10.6445 -22.6207 0
      vertex 7.72542 -23.7764 0
    endloop
  endfacet
  facet normal 0 0 -1
    outer loop
      vertex 13.3957 -21.1082 0
      vertex 6.69783 -10.5541 0
      vertex 7.9678 -9.63142 0
    endloop
  endfacet
  facet normal 0 0 -1
    outer loop
      vertex 10.6445 -22.6207 0
      vertex 5.32224 -11.3103 0
      vertex 6.69783 -10.5541 0
    endloop
  endfacet
  facet normal 0 0 -1
    outer loop
      vertex 3.86271 -11.8882 0
      vertex 7.72542 -23.7764 0
      vertex 4.68453 -24.5572 0
    endloop
  endfacet
  facet normal 0 0 -1
    outer loop
      vertex 7.72542 -23.7764 0
      vertex 3.86271 -11.8882 0
      vertex 5.32224 -11.3103 0
    endloop
  endfacet
  facet normal 0 0 -1
    outer loop
      vertex 4.68453 -24.5572 0
      vertex 2.34227 -12.2786 0
      vertex 3.86271 -11.8882 0
    endloop
  endfacet
  facet normal 0 0 -1
    outer loop
      vertex 1.56976 -24.9507 0
      vertex 2.34227 -12.2786 0
      vertex 4.68453 -24.5572 0
    endloop
  endfacet
  facet normal 0 0 -1
    outer loop
      vertex 1.56976 -24.9507 0
      vertex 0.784881 -12.4753 0
      vertex 2.34227 -12.2786 0
    endloop
  endfacet
  facet normal 0 0 -1
    outer loop
      vertex 1.56976 -24.9507 0
      vertex -0.784881 -12.4753 0
      vertex 0.784881 -12.4753 0
    endloop
  endfacet
  facet normal 0 0 -1
    outer loop
      vertex -1.56976 -24.9507 0
      vertex -0.784881 -12.4753 0
      vertex 1.56976 -24.9507 0
    endloop
  endfacet
  facet normal 0 0 -1
    outer loop
      vertex -1.56976 -24.9507 0
      vertex -2.34227 -12.2786 0
      vertex -0.784881 -12.4753 0
    endloop
  endfacet
  facet normal 0 0 -1
    outer loop
      vertex -4.68453 -24.5572 0
      vertex -2.34227 -12.2786 0
      vertex -1.56976 -24.9507 0
    endloop
  endfacet
  facet normal -0 0 -1
    outer loop
      vertex -2.34227 -12.2786 0
      vertex -4.68453 -24.5572 0
      vertex -3.86271 -11.8882 0
    endloop
  endfacet
  facet normal 0 0 -1
    outer loop
      vertex -7.72542 -23.7764 0
      vertex -3.86271 -11.8882 0
      vertex -4.68453 -24.5572 0
    endloop
  endfacet
  facet normal -0 0 -1
    outer loop
      vertex -3.86271 -11.8882 0
      vertex -7.72542 -23.7764 0
      vertex -5.32224 -11.3103 0
    endloop
  endfacet
  facet normal 0 0 -1
    outer loop
      vertex -10.6445 -22.6207 0
      vertex -5.32224 -11.3103 0
      vertex -7.72542 -23.7764 0
    endloop
  endfacet
  facet normal -0 0 -1
    outer loop
      vertex -5.32224 -11.3103 0
      vertex -10.6445 -22.6207 0
      vertex -6.69783 -10.5541 0
    endloop
  endfacet
  facet normal 0 0 -1
    outer loop
      vertex -13.3957 -21.1082 0
      vertex -6.69783 -10.5541 0
      vertex -10.6445 -22.6207 0
    endloop
  endfacet
  facet normal -0 0 -1
    outer loop
      vertex -6.69783 -10.5541 0
      vertex -13.3957 -21.1082 0
      vertex -7.9678 -9.63142 0
    endloop
  endfacet
  facet normal 0 0 -1
    outer loop
      vertex -15.9356 -19.2628 0
      vertex -7.9678 -9.63142 0
      vertex -13.3957 -21.1082 0
    endloop
  endfacet
  facet normal -0 0 -1
    outer loop
      vertex -7.9678 -9.63142 0
      vertex -15.9356 -19.2628 0
      vertex -9.11211 -8.55684 0
    endloop
  endfacet
  facet normal 0 0 -1
    outer loop
      vertex -18.2242 -17.1137 0
      vertex -9.11211 -8.55684 0
      vertex -15.9356 -19.2628 0
    endloop
  endfacet
  facet normal -0 0 -1
    outer loop
      vertex -9.11211 -8.55684 0
      vertex -18.2242 -17.1137 0
      vertex -10.1127 -7.34731 0
    endloop
  endfacet
  facet normal 0 0 -1
    outer loop
      vertex -20.2254 -14.6946 0
      vertex -10.1127 -7.34731 0
      vertex -18.2242 -17.1137 0
    endloop
  endfacet
  facet normal 0 0 -1
    outer loop
      vertex -21.9077 -12.0438 0
      vertex -10.9538 -6.02192 0
      vertex -20.2254 -14.6946 0
    endloop
  endfacet
  facet normal -0 0 -1
    outer loop
      vertex -10.1127 -7.34731 0
      vertex -20.2254 -14.6946 0
      vertex -10.9538 -6.02192 0
    endloop
  endfacet
  facet normal -0 0 -1
    outer loop
      vertex 21.9077 12.0438 0
      vertex 10.9538 6.02192 0
      vertex 20.2254 14.6946 0
    endloop
  endfacet
  facet normal 0 0 -1
    outer loop
      vertex 10.1127 7.34731 0
      vertex 20.2254 14.6946 0
      vertex 10.9538 6.02192 0
    endloop
  endfacet
  facet normal -0 0 -1
    outer loop
      vertex 20.2254 14.6946 0
      vertex 10.1127 7.34731 0
      vertex 18.2242 17.1137 0
    endloop
  endfacet
  facet normal 0 0 -1
    outer loop
      vertex 9.11211 8.55684 0
      vertex 18.2242 17.1137 0
      vertex 10.1127 7.34731 0
    endloop
  endfacet
  facet normal -0 0 -1
    outer loop
      vertex 18.2242 17.1137 0
      vertex 9.11211 8.55684 0
      vertex 15.9356 19.2628 0
    endloop
  endfacet
  facet normal 0 0 -1
    outer loop
      vertex 7.9678 9.63142 0
      vertex 15.9356 19.2628 0
      vertex 9.11211 8.55684 0
    endloop
  endfacet
  facet normal -0 0 -1
    outer loop
      vertex 15.9356 19.2628 0
      vertex 7.9678 9.63142 0
      vertex 13.3957 21.1082 0
    endloop
  endfacet
  facet normal 0 0 -1
    outer loop
      vertex 6.69783 10.5541 0
      vertex 13.3957 21.1082 0
      vertex 7.9678 9.63142 0
    endloop
  endfacet
  facet normal -0 0 -1
    outer loop
      vertex 13.3957 21.1082 0
      vertex 6.69783 10.5541 0
      vertex 10.6445 22.6207 0
    endloop
  endfacet
  facet normal 0 0 -1
    outer loop
      vertex 5.32224 11.3103 0
      vertex 10.6445 22.6207 0
      vertex 6.69783 10.5541 0
    endloop
  endfacet
  facet normal -0 0 -1
    outer loop
      vertex 10.6445 22.6207 0
      vertex 5.32224 11.3103 0
      vertex 7.72542 23.7764 0
    endloop
  endfacet
  facet normal 0 0 -1
    outer loop
      vertex 3.86271 11.8882 0
      vertex 7.72542 23.7764 0
      vertex 5.32224 11.3103 0
    endloop
  endfacet
  facet normal -0 0 -1
    outer loop
      vertex 7.72542 23.7764 0
      vertex 3.86271 11.8882 0
      vertex 4.68453 24.5572 0
    endloop
  endfacet
  facet normal 0 0 -1
    outer loop
      vertex 2.34227 12.2786 0
      vertex 4.68453 24.5572 0
      vertex 3.86271 11.8882 0
    endloop
  endfacet
  facet normal 0 0 -1
    outer loop
      vertex 2.34227 12.2786 0
      vertex 1.56976 24.9507 0
      vertex 4.68453 24.5572 0
    endloop
  endfacet
  facet normal 0 0 -1
    outer loop
      vertex 0.784881 12.4753 0
      vertex 1.56976 24.9507 0
      vertex 2.34227 12.2786 0
    endloop
  endfacet
  facet normal 0 0 -1
    outer loop
      vertex -0.784881 12.4753 0
      vertex 1.56976 24.9507 0
      vertex 0.784881 12.4753 0
    endloop
  endfacet
  facet normal 0 0 -1
    outer loop
      vertex -0.784881 12.4753 0
      vertex -1.56976 24.9507 0
      vertex 1.56976 24.9507 0
    endloop
  endfacet
  facet normal 0 0 -1
    outer loop
      vertex -2.34227 12.2786 0
      vertex -1.56976 24.9507 0
      vertex -0.784881 12.4753 0
    endloop
  endfacet
  facet normal 0 0 -1
    outer loop
      vertex -4.68453 24.5572 0
      vertex -2.34227 12.2786 0
      vertex -3.86271 11.8882 0
    endloop
  endfacet
  facet normal 0 0 -1
    outer loop
      vertex -2.34227 12.2786 0
      vertex -4.68453 24.5572 0
      vertex -1.56976 24.9507 0
    endloop
  endfacet
  facet normal 0 0 -1
    outer loop
      vertex -7.72542 23.7764 0
      vertex -3.86271 11.8882 0
      vertex -5.32224 11.3103 0
    endloop
  endfacet
  facet normal 0 0 -1
    outer loop
      vertex -10.6445 22.6207 0
      vertex -5.32224 11.3103 0
      vertex -6.69783 10.5541 0
    endloop
  endfacet
  facet normal 0 0 -1
    outer loop
      vertex -3.86271 11.8882 0
      vertex -7.72542 23.7764 0
      vertex -4.68453 24.5572 0
    endloop
  endfacet
  facet normal 0 0 -1
    outer loop
      vertex -13.3957 21.1082 0
      vertex -6.69783 10.5541 0
      vertex -7.9678 9.63142 0
    endloop
  endfacet
  facet normal 0 0 -1
    outer loop
      vertex -15.9356 19.2628 0
      vertex -7.9678 9.63142 0
      vertex -9.11211 8.55684 0
    endloop
  endfacet
  facet normal 0 0 -1
    outer loop
      vertex -18.2242 17.1137 0
      vertex -9.11211 8.55684 0
      vertex -10.1127 7.34731 0
    endloop
  endfacet
  facet normal 0 0 -1
    outer loop
      vertex -5.32224 11.3103 0
      vertex -10.6445 22.6207 0
      vertex -7.72542 23.7764 0
    endloop
  endfacet
  facet normal 0 0 -1
    outer loop
      vertex -20.2254 14.6946 0
      vertex -10.1127 7.34731 0
      vertex -10.9538 6.02192 0
    endloop
  endfacet
  facet normal 0 0 -1
    outer loop
      vertex -21.9077 12.0438 0
      vertex -10.9538 6.02192 0
      vertex -11.6222 4.60156 0
    endloop
  endfacet
  facet normal 0 0 -1
    outer loop
      vertex -23.2444 9.20311 0
      vertex -11.6222 4.60156 0
      vertex -12.1073 3.10862 0
    endloop
  endfacet
  facet normal 0 0 -1
    outer loop
      vertex -24.2146 6.21725 0
      vertex -12.1073 3.10862 0
      vertex -12.4014 1.56666 0
    endloop
  endfacet
  facet normal 0 0 -1
    outer loop
      vertex -6.69783 10.5541 0
      vertex -13.3957 21.1082 0
      vertex -10.6445 22.6207 0
    endloop
  endfacet
  facet normal 0 0 -1
    outer loop
      vertex -24.8029 3.13333 0
      vertex -12.4014 1.56666 0
      vertex -12.5 0 0
    endloop
  endfacet
  facet normal -0 0 -1
    outer loop
      vertex -10.9538 -6.02192 0
      vertex -21.9077 -12.0438 0
      vertex -11.6222 -4.60156 0
    endloop
  endfacet
  facet normal 0 0 -1
    outer loop
      vertex -23.2444 -9.20311 0
      vertex -11.6222 -4.60156 0
      vertex -21.9077 -12.0438 0
    endloop
  endfacet
  facet normal 0 0 -1
    outer loop
      vertex -7.9678 9.63142 0
      vertex -15.9356 19.2628 0
      vertex -13.3957 21.1082 0
    endloop
  endfacet
  facet normal -0 0 -1
    outer loop
      vertex -11.6222 -4.60156 0
      vertex -23.2444 -9.20311 0
      vertex -12.1073 -3.10862 0
    endloop
  endfacet
  facet normal 0 0 -1
    outer loop
      vertex -9.11211 8.55684 0
      vertex -18.2242 17.1137 0
      vertex -15.9356 19.2628 0
    endloop
  endfacet
  facet normal 0 0 -1
    outer loop
      vertex -24.2146 -6.21725 0
      vertex -12.1073 -3.10862 0
      vertex -23.2444 -9.20311 0
    endloop
  endfacet
  facet normal 0 0 -1
    outer loop
      vertex -10.1127 7.34731 0
      vertex -20.2254 14.6946 0
      vertex -18.2242 17.1137 0
    endloop
  endfacet
  facet normal -0 0 -1
    outer loop
      vertex -12.1073 -3.10862 0
      vertex -24.2146 -6.21725 0
      vertex -12.4014 -1.56666 0
    endloop
  endfacet
  facet normal 0 0 -1
    outer loop
      vertex -10.9538 6.02192 0
      vertex -21.9077 12.0438 0
      vertex -20.2254 14.6946 0
    endloop
  endfacet
  facet normal 0 0 -1
    outer loop
      vertex -24.8029 -3.13333 0
      vertex -12.4014 -1.56666 0
      vertex -24.2146 -6.21725 0
    endloop
  endfacet
  facet normal 0 0 -1
    outer loop
      vertex -11.6222 4.60156 0
      vertex -23.2444 9.20311 0
      vertex -21.9077 12.0438 0
    endloop
  endfacet
  facet normal -0 0 -1
    outer loop
      vertex -12.4014 -1.56666 0
      vertex -24.8029 -3.13333 0
      vertex -12.5 0 0
    endloop
  endfacet
  facet normal 0 0 -1
    outer loop
      vertex -12.1073 3.10862 0
      vertex -24.2146 6.21725 0
      vertex -23.2444 9.20311 0
    endloop
  endfacet
  facet normal 0 0 -1
    outer loop
      vertex -25 0 0
      vertex -12.5 0 0
      vertex -24.8029 -3.13333 0
    endloop
  endfacet
  facet normal 0 0 -1
    outer loop
      vertex -12.4014 1.56666 0
      vertex -24.8029 3.13333 0
      vertex -24.2146 6.21725 0
    endloop
  endfacet
  facet normal 0 0 -1
    outer loop
      vertex -12.5 0 0
      vertex -25 0 0
      vertex -24.8029 3.13333 0
    endloop
  endfacet
  facet normal -0.587797 0.809009 0
    outer loop
      vertex -13.3957 21.1082 0
      vertex -15.9356 19.2628 20
      vertex -13.3957 21.1082 20
    endloop
  endfacet
  facet normal -0.587797 0.809009 0
    outer loop
      vertex -15.9356 19.2628 20
      vertex -13.3957 21.1082 0
      vertex -15.9356 19.2628 0
    endloop
  endfacet
  facet normal -0.982287 -0.187385 0
    outer loop
      vertex -24.2146 -6.21725 0
      vertex -24.8029 -3.13333 20
      vertex -24.8029 -3.13333 0
    endloop
  endfacet
  facet normal -0.982287 -0.187385 0
    outer loop
      vertex -24.8029 -3.13333 20
      vertex -24.2146 -6.21725 0
      vertex -24.2146 -6.21725 20
    endloop
  endfacet
  facet normal 0.481757 -0.876305 0
    outer loop
      vertex 10.6445 -22.6207 0
      vertex 13.3957 -21.1082 20
      vertex 10.6445 -22.6207 20
    endloop
  endfacet
  facet normal 0.481757 -0.876305 0
    outer loop
      vertex 13.3957 -21.1082 20
      vertex 10.6445 -22.6207 0
      vertex 13.3957 -21.1082 0
    endloop
  endfacet
  facet normal -0.481757 -0.876305 0
    outer loop
      vertex -13.3957 -21.1082 0
      vertex -10.6445 -22.6207 20
      vertex -13.3957 -21.1082 20
    endloop
  endfacet
  facet normal -0.481757 -0.876305 -0
    outer loop
      vertex -10.6445 -22.6207 20
      vertex -13.3957 -21.1082 0
      vertex -10.6445 -22.6207 0
    endloop
  endfacet
  facet normal -0.90483 0.425772 0
    outer loop
      vertex -23.2444 9.20311 0
      vertex -21.9077 12.0438 20
      vertex -21.9077 12.0438 0
    endloop
  endfacet
  facet normal -0.90483 0.425772 0
    outer loop
      vertex -21.9077 12.0438 20
      vertex -23.2444 9.20311 0
      vertex -23.2444 9.20311 20
    endloop
  endfacet
  facet normal 0 0 1
    outer loop
      vertex 24.8029 3.13333 20
      vertex 24.8029 -3.13333 20
      vertex 25 0 20
    endloop
  endfacet
  facet normal 0 0 1
    outer loop
      vertex 24.2146 6.21725 20
      vertex 24.8029 -3.13333 20
      vertex 24.8029 3.13333 20
    endloop
  endfacet
  facet normal 0 0 1
    outer loop
      vertex 24.2146 6.21725 20
      vertex 24.2146 -6.21725 20
      vertex 24.8029 -3.13333 20
    endloop
  endfacet
  facet normal 0 0 1
    outer loop
      vertex 23.2444 9.20311 20
      vertex 24.2146 -6.21725 20
      vertex 24.2146 6.21725 20
    endloop
  endfacet
  facet normal 0 0 1
    outer loop
      vertex 23.2444 9.20311 20
      vertex 23.2444 -9.20311 20
      vertex 24.2146 -6.21725 20
    endloop
  endfacet
  facet normal 0 0 1
    outer loop
      vertex 21.9077 12.0438 20
      vertex 23.2444 -9.20311 20
      vertex 23.2444 9.20311 20
    endloop
  endfacet
  facet normal 0 0 1
    outer loop
      vertex 21.9077 12.0438 20
      vertex 21.9077 -12.0438 20
      vertex 23.2444 -9.20311 20
    endloop
  endfacet
  facet normal 0 0 1
    outer loop
      vertex 20.2254 14.6946 20
      vertex 21.9077 -12.0438 20
      vertex 21.9077 12.0438 20
    endloop
  endfacet
  facet normal 0 0 1
    outer loop
      vertex 20.2254 14.6946 20
      vertex 20.2254 -14.6946 20
      vertex 21.9077 -12.0438 20
    endloop
  endfacet
  facet normal 0 0 1
    outer loop
      vertex 18.2242 17.1137 20
      vertex 20.2254 -14.6946 20
      vertex 20.2254 14.6946 20
    endloop
  endfacet
  facet normal 0 0 1
    outer loop
      vertex 18.2242 17.1137 20
      vertex 18.2242 -17.1137 20
      vertex 20.2254 -14.6946 20
    endloop
  endfacet
  facet normal 0 0 1
    outer loop
      vertex 15.9356 19.2628 20
      vertex 18.2242 -17.1137 20
      vertex 18.2242 17.1137 20
    endloop
  endfacet
  facet normal 0 0 1
    outer loop
      vertex 15.9356 19.2628 20
      vertex 15.9356 -19.2628 20
      vertex 18.2242 -17.1137 20
    endloop
  endfacet
  facet normal 0 0 1
    outer loop
      vertex 13.3957 21.1082 20
      vertex 15.9356 -19.2628 20
      vertex 15.9356 19.2628 20
    endloop
  endfacet
  facet normal 0 0 1
    outer loop
      vertex 13.3957 21.1082 20
      vertex 13.3957 -21.1082 20
      vertex 15.9356 -19.2628 20
    endloop
  endfacet
  facet normal 0 0 1
    outer loop
      vertex 10.6445 22.6207 20
      vertex 13.3957 -21.1082 20
      vertex 13.3957 21.1082 20
    endloop
  endfacet
  facet normal 0 0 1
    outer loop
      vertex 10.6445 22.6207 20
      vertex 10.6445 -22.6207 20
      vertex 13.3957 -21.1082 20
    endloop
  endfacet
  facet normal 0 0 1
    outer loop
      vertex 7.72542 23.7764 20
      vertex 10.6445 -22.6207 20
      vertex 10.6445 22.6207 20
    endloop
  endfacet
  facet normal 0 0 1
    outer loop
      vertex 7.72542 23.7764 20
      vertex 7.72542 -23.7764 20
      vertex 10.6445 -22.6207 20
    endloop
  endfacet
  facet normal 0 0 1
    outer loop
      vertex 4.68453 24.5572 20
      vertex 7.72542 -23.7764 20
      vertex 7.72542 23.7764 20
    endloop
  endfacet
  facet normal 0 0 1
    outer loop
      vertex 4.68453 24.5572 20
      vertex 4.68453 -24.5572 20
      vertex 7.72542 -23.7764 20
    endloop
  endfacet
  facet normal 0 0 1
    outer loop
      vertex 1.56976 24.9507 20
      vertex 4.68453 -24.5572 20
      vertex 4.68453 24.5572 20
    endloop
  endfacet
  facet normal 0 0 1
    outer loop
      vertex 1.56976 24.9507 20
      vertex 1.56976 -24.9507 20
      vertex 4.68453 -24.5572 20
    endloop
  endfacet
  facet normal -0 0 1
    outer loop
      vertex -1.56976 24.9507 20
      vertex 1.56976 -24.9507 20
      vertex 1.56976 24.9507 20
    endloop
  endfacet
  facet normal 0 0 1
    outer loop
      vertex -1.56976 24.9507 20
      vertex -1.56976 -24.9507 20
      vertex 1.56976 -24.9507 20
    endloop
  endfacet
  facet normal -0 0 1
    outer loop
      vertex -4.68453 24.5572 20
      vertex -1.56976 -24.9507 20
      vertex -1.56976 24.9507 20
    endloop
  endfacet
  facet normal 0 0 1
    outer loop
      vertex -4.68453 24.5572 20
      vertex -4.68453 -24.5572 20
      vertex -1.56976 -24.9507 20
    endloop
  endfacet
  facet normal -0 0 1
    outer loop
      vertex -7.72542 23.7764 20
      vertex -4.68453 -24.5572 20
      vertex -4.68453 24.5572 20
    endloop
  endfacet
  facet normal 0 0 1
    outer loop
      vertex -7.72542 23.7764 20
      vertex -7.72542 -23.7764 20
      vertex -4.68453 -24.5572 20
    endloop
  endfacet
  facet normal -0 0 1
    outer loop
      vertex -10.6445 22.6207 20
      vertex -7.72542 -23.7764 20
      vertex -7.72542 23.7764 20
    endloop
  endfacet
  facet normal 0 0 1
    outer loop
      vertex -10.6445 22.6207 20
      vertex -10.6445 -22.6207 20
      vertex -7.72542 -23.7764 20
    endloop
  endfacet
  facet normal -0 0 1
    outer loop
      vertex -13.3957 21.1082 20
      vertex -10.6445 -22.6207 20
      vertex -10.6445 22.6207 20
    endloop
  endfacet
  facet normal 0 0 1
    outer loop
      vertex -13.3957 21.1082 20
      vertex -13.3957 -21.1082 20
      vertex -10.6445 -22.6207 20
    endloop
  endfacet
  facet normal -0 0 1
    outer loop
      vertex -15.9356 19.2628 20
      vertex -13.3957 -21.1082 20
      vertex -13.3957 21.1082 20
    endloop
  endfacet
  facet normal 0 0 1
    outer loop
      vertex -15.9356 19.2628 20
      vertex -15.9356 -19.2628 20
      vertex -13.3957 -21.1082 20
    endloop
  endfacet
  facet normal -0 0 1
    outer loop
      vertex -18.2242 17.1137 20
      vertex -15.9356 -19.2628 20
      vertex -15.9356 19.2628 20
    endloop
  endfacet
  facet normal 0 0 1
    outer loop
      vertex -18.2242 17.1137 20
      vertex -18.2242 -17.1137 20
      vertex -15.9356 -19.2628 20
    endloop
  endfacet
  facet normal -0 0 1
    outer loop
      vertex -20.2254 14.6946 20
      vertex -18.2242 -17.1137 20
      vertex -18.2242 17.1137 20
    endloop
  endfacet
  facet normal 0 0 1
    outer loop
      vertex -20.2254 14.6946 20
      vertex -20.2254 -14.6946 20
      vertex -18.2242 -17.1137 20
    endloop
  endfacet
  facet normal -0 0 1
    outer loop
      vertex -21.9077 12.0438 20
      vertex -20.2254 -14.6946 20
      vertex -20.2254 14.6946 20
    endloop
  endfacet
  facet normal 0 0 1
    outer loop
      vertex -21.9077 12.0438 20
      vertex -21.9077 -12.0438 20
      vertex -20.2254 -14.6946 20
    endloop
  endfacet
  facet normal -0 0 1
    outer loop
      vertex -23.2444 9.20311 20
      vertex -21.9077 -12.0438 20
      vertex -21.9077 12.0438 20
    endloop
  endfacet
  facet normal 0 0 1
    outer loop
      vertex -23.2444 9.20311 20
      vertex -23.2444 -9.20311 20
      vertex -21.9077 -12.0438 20
    endloop
  endfacet
  facet normal -0 0 1
    outer loop
      vertex -24.2146 6.21725 20
      vertex -23.2444 -9.20311 20
      vertex -23.2444 9.20311 20
    endloop
  endfacet
  facet normal 0 0 1
    outer loop
      vertex -24.2146 6.21725 20
      vertex -24.2146 -6.21725 20
      vertex -23.2444 -9.20311 20
    endloop
  endfacet
  facet normal -0 0 1
    outer loop
      vertex -24.8029 3.13333 20
      vertex -24.2146 -6.21725 20
      vertex -24.2146 6.21725 20
    endloop
  endfacet
  facet normal 0 0 1
    outer loop
      vertex -24.8029 3.13333 20
      vertex -24.8029 -3.13333 20
      vertex -24.2146 -6.21725 20
    endloop
  endfacet
  facet normal 0 -0 1
    outer loop
      vertex -24.8029 -3.13333 20
      vertex -24.8029 3.13333 20
      vertex -25 0 20
    endloop
  endfacet
  facet normal -0.982292 -0.187354 0
    outer loop
      vertex 12.4014 1.56666 0
      vertex 12.1073 3.10862 10.5
      vertex 12.1073 3.10862 0
    endloop
  endfacet
  facet normal -0.982292 -0.187354 0
    outer loop
      vertex 12.1073 3.10862 10.5
      vertex 12.4014 1.56666 0
      vertex 12.4014 1.56666 10.5
    endloop
  endfacet
  facet normal -0.998025 -0.0628122 0
    outer loop
      vertex 12.5 0 0
      vertex 12.4014 1.56666 10.5
      vertex 12.4014 1.56666 0
    endloop
  endfacet
  facet normal -0.998025 -0.0628122 0
    outer loop
      vertex 12.4014 1.56666 10.5
      vertex 12.5 0 0
      vertex 12.5 0 10.5
    endloop
  endfacet
  facet normal 0.368142 -0.92977 0
    outer loop
      vertex -5.32224 11.3103 0
      vertex -3.86271 11.8882 10.5
      vertex -5.32224 11.3103 10.5
    endloop
  endfacet
  facet normal 0.368142 -0.92977 0
    outer loop
      vertex -3.86271 11.8882 10.5
      vertex -5.32224 11.3103 0
      vertex -3.86271 11.8882 0
    endloop
  endfacet
  facet normal -0.77052 0.637416 0
    outer loop
      vertex 9.11211 -8.55684 0
      vertex 10.1127 -7.34731 10.5
      vertex 10.1127 -7.34731 0
    endloop
  endfacet
  facet normal -0.77052 0.637416 0
    outer loop
      vertex 10.1127 -7.34731 10.5
      vertex 9.11211 -8.55684 0
      vertex 9.11211 -8.55684 10.5
    endloop
  endfacet
  facet normal 0 1 -0
    outer loop
      vertex 0.784881 -12.4753 0
      vertex -0.784881 -12.4753 10.5
      vertex 0.784881 -12.4753 10.5
    endloop
  endfacet
  facet normal 0 1 0
    outer loop
      vertex -0.784881 -12.4753 10.5
      vertex 0.784881 -12.4753 0
      vertex -0.784881 -12.4753 0
    endloop
  endfacet
  facet normal -0.90482 0.425795 0
    outer loop
      vertex 10.9538 -6.02192 0
      vertex 11.6222 -4.60156 10.5
      vertex 11.6222 -4.60156 0
    endloop
  endfacet
  facet normal -0.90482 0.425795 0
    outer loop
      vertex 11.6222 -4.60156 10.5
      vertex 10.9538 -6.02192 0
      vertex 10.9538 -6.02192 10.5
    endloop
  endfacet
  facet normal 0.125306 0.992118 -0
    outer loop
      vertex -0.784881 -12.4753 0
      vertex -2.34227 -12.2786 10.5
      vertex -0.784881 -12.4753 10.5
    endloop
  endfacet
  facet normal 0.125306 0.992118 0
    outer loop
      vertex -2.34227 -12.2786 10.5
      vertex -0.784881 -12.4753 0
      vertex -2.34227 -12.2786 0
    endloop
  endfacet
  facet normal -0.844333 -0.535819 0
    outer loop
      vertex 10.9538 6.02192 0
      vertex 10.1127 7.34731 10.5
      vertex 10.1127 7.34731 0
    endloop
  endfacet
  facet normal -0.844333 -0.535819 0
    outer loop
      vertex 10.1127 7.34731 10.5
      vertex 10.9538 6.02192 0
      vertex 10.9538 6.02192 10.5
    endloop
  endfacet
  facet normal 0.2487 -0.96858 0
    outer loop
      vertex -3.86271 11.8882 0
      vertex -2.34227 12.2786 10.5
      vertex -3.86271 11.8882 10.5
    endloop
  endfacet
  facet normal 0.2487 -0.96858 0
    outer loop
      vertex -2.34227 12.2786 10.5
      vertex -3.86271 11.8882 0
      vertex -2.34227 12.2786 0
    endloop
  endfacet
  facet normal -0.844333 0.535819 0
    outer loop
      vertex 10.1127 -7.34731 0
      vertex 10.9538 -6.02192 10.5
      vertex 10.9538 -6.02192 0
    endloop
  endfacet
  facet normal -0.844333 0.535819 0
    outer loop
      vertex 10.9538 -6.02192 10.5
      vertex 10.1127 -7.34731 0
      vertex 10.1127 -7.34731 10.5
    endloop
  endfacet
  facet normal 0 -1 0
    outer loop
      vertex -0.784881 12.4753 0
      vertex 0.784881 12.4753 10.5
      vertex -0.784881 12.4753 10.5
    endloop
  endfacet
  facet normal 0 -1 -0
    outer loop
      vertex 0.784881 12.4753 10.5
      vertex -0.784881 12.4753 0
      vertex 0.784881 12.4753 0
    endloop
  endfacet
  facet normal -0.368142 0.92977 0
    outer loop
      vertex 5.32224 -11.3103 0
      vertex 3.86271 -11.8882 10.5
      vertex 5.32224 -11.3103 10.5
    endloop
  endfacet
  facet normal -0.368142 0.92977 0
    outer loop
      vertex 3.86271 -11.8882 10.5
      vertex 5.32224 -11.3103 0
      vertex 3.86271 -11.8882 0
    endloop
  endfacet
  facet normal -0.684548 0.728968 0
    outer loop
      vertex 9.11211 -8.55684 0
      vertex 7.9678 -9.63142 10.5
      vertex 9.11211 -8.55684 10.5
    endloop
  endfacet
  facet normal -0.684548 0.728968 0
    outer loop
      vertex 7.9678 -9.63142 10.5
      vertex 9.11211 -8.55684 0
      vertex 7.9678 -9.63142 0
    endloop
  endfacet
  facet normal -0.368142 -0.92977 0
    outer loop
      vertex 3.86271 11.8882 0
      vertex 5.32224 11.3103 10.5
      vertex 3.86271 11.8882 10.5
    endloop
  endfacet
  facet normal -0.368142 -0.92977 -0
    outer loop
      vertex 5.32224 11.3103 10.5
      vertex 3.86271 11.8882 0
      vertex 5.32224 11.3103 0
    endloop
  endfacet
  facet normal 0.587782 0.809019 -0
    outer loop
      vertex -6.69783 -10.5541 0
      vertex -7.9678 -9.63142 10.5
      vertex -6.69783 -10.5541 10.5
    endloop
  endfacet
  facet normal 0.587782 0.809019 0
    outer loop
      vertex -7.9678 -9.63142 10.5
      vertex -6.69783 -10.5541 0
      vertex -7.9678 -9.63142 0
    endloop
  endfacet
  facet normal -0.684548 -0.728968 0
    outer loop
      vertex 7.9678 9.63142 0
      vertex 9.11211 8.55684 10.5
      vertex 7.9678 9.63142 10.5
    endloop
  endfacet
  facet normal -0.684548 -0.728968 -0
    outer loop
      vertex 9.11211 8.55684 10.5
      vertex 7.9678 9.63142 0
      vertex 9.11211 8.55684 0
    endloop
  endfacet
  facet normal -0.125306 -0.992118 0
    outer loop
      vertex 0.784881 12.4753 0
      vertex 2.34227 12.2786 10.5
      vertex 0.784881 12.4753 10.5
    endloop
  endfacet
  facet normal -0.125306 -0.992118 -0
    outer loop
      vertex 2.34227 12.2786 10.5
      vertex 0.784881 12.4753 0
      vertex 2.34227 12.2786 0
    endloop
  endfacet
  facet normal -0.90482 -0.425795 0
    outer loop
      vertex 11.6222 4.60156 0
      vertex 10.9538 6.02192 10.5
      vertex 10.9538 6.02192 0
    endloop
  endfacet
  facet normal -0.90482 -0.425795 0
    outer loop
      vertex 10.9538 6.02192 10.5
      vertex 11.6222 4.60156 0
      vertex 11.6222 4.60156 10.5
    endloop
  endfacet
  facet normal 0.684548 0.728968 -0
    outer loop
      vertex -7.9678 -9.63142 0
      vertex -9.11211 -8.55684 10.5
      vertex -7.9678 -9.63142 10.5
    endloop
  endfacet
  facet normal 0.684548 0.728968 0
    outer loop
      vertex -9.11211 -8.55684 10.5
      vertex -7.9678 -9.63142 0
      vertex -9.11211 -8.55684 0
    endloop
  endfacet
  facet normal 0.951054 -0.309025 0
    outer loop
      vertex -12.1073 3.10862 10.5
      vertex -11.6222 4.60156 0
      vertex -11.6222 4.60156 10.5
    endloop
  endfacet
  facet normal 0.951054 -0.309025 0
    outer loop
      vertex -11.6222 4.60156 0
      vertex -12.1073 3.10862 10.5
      vertex -12.1073 3.10862 0
    endloop
  endfacet
  facet normal 0.2487 0.96858 -0
    outer loop
      vertex -2.34227 -12.2786 0
      vertex -3.86271 -11.8882 10.5
      vertex -2.34227 -12.2786 10.5
    endloop
  endfacet
  facet normal 0.2487 0.96858 0
    outer loop
      vertex -3.86271 -11.8882 10.5
      vertex -2.34227 -12.2786 0
      vertex -3.86271 -11.8882 0
    endloop
  endfacet
  facet normal -0.587782 0.809019 0
    outer loop
      vertex 7.9678 -9.63142 0
      vertex 6.69783 -10.5541 10.5
      vertex 7.9678 -9.63142 10.5
    endloop
  endfacet
  facet normal -0.587782 0.809019 0
    outer loop
      vertex 6.69783 -10.5541 10.5
      vertex 7.9678 -9.63142 0
      vertex 6.69783 -10.5541 0
    endloop
  endfacet
  facet normal 0.368142 0.92977 -0
    outer loop
      vertex -3.86271 -11.8882 0
      vertex -5.32224 -11.3103 10.5
      vertex -3.86271 -11.8882 10.5
    endloop
  endfacet
  facet normal 0.368142 0.92977 0
    outer loop
      vertex -5.32224 -11.3103 10.5
      vertex -3.86271 -11.8882 0
      vertex -5.32224 -11.3103 0
    endloop
  endfacet
  facet normal 0.77052 0.637416 0
    outer loop
      vertex -9.11211 -8.55684 10.5
      vertex -10.1127 -7.34731 0
      vertex -10.1127 -7.34731 10.5
    endloop
  endfacet
  facet normal 0.77052 0.637416 0
    outer loop
      vertex -10.1127 -7.34731 0
      vertex -9.11211 -8.55684 10.5
      vertex -9.11211 -8.55684 0
    endloop
  endfacet
  facet normal 0.998025 -0.0628122 0
    outer loop
      vertex -12.5 0 10.5
      vertex -12.4014 1.56666 0
      vertex -12.4014 1.56666 10.5
    endloop
  endfacet
  facet normal 0.998025 -0.0628122 0
    outer loop
      vertex -12.4014 1.56666 0
      vertex -12.5 0 10.5
      vertex -12.5 0 0
    endloop
  endfacet
  facet normal 0.684548 -0.728968 0
    outer loop
      vertex -9.11211 8.55684 0
      vertex -7.9678 9.63142 10.5
      vertex -9.11211 8.55684 10.5
    endloop
  endfacet
  facet normal 0.684548 -0.728968 0
    outer loop
      vertex -7.9678 9.63142 10.5
      vertex -9.11211 8.55684 0
      vertex -7.9678 9.63142 0
    endloop
  endfacet
  facet normal -0.982292 0.187354 0
    outer loop
      vertex 12.1073 -3.10862 0
      vertex 12.4014 -1.56666 10.5
      vertex 12.4014 -1.56666 0
    endloop
  endfacet
  facet normal -0.982292 0.187354 0
    outer loop
      vertex 12.4014 -1.56666 10.5
      vertex 12.1073 -3.10862 0
      vertex 12.1073 -3.10862 10.5
    endloop
  endfacet
  facet normal -0.481736 -0.876317 0
    outer loop
      vertex 5.32224 11.3103 0
      vertex 6.69783 10.5541 10.5
      vertex 5.32224 11.3103 10.5
    endloop
  endfacet
  facet normal -0.481736 -0.876317 -0
    outer loop
      vertex 6.69783 10.5541 10.5
      vertex 5.32224 11.3103 0
      vertex 6.69783 10.5541 0
    endloop
  endfacet
  facet normal -0.2487 0.96858 0
    outer loop
      vertex 3.86271 -11.8882 0
      vertex 2.34227 -12.2786 10.5
      vertex 3.86271 -11.8882 10.5
    endloop
  endfacet
  facet normal -0.2487 0.96858 0
    outer loop
      vertex 2.34227 -12.2786 10.5
      vertex 3.86271 -11.8882 0
      vertex 2.34227 -12.2786 0
    endloop
  endfacet
  facet normal 0.998025 0.0628122 0
    outer loop
      vertex -12.4014 -1.56666 10.5
      vertex -12.5 0 0
      vertex -12.5 0 10.5
    endloop
  endfacet
  facet normal 0.998025 0.0628122 0
    outer loop
      vertex -12.5 0 0
      vertex -12.4014 -1.56666 10.5
      vertex -12.4014 -1.56666 0
    endloop
  endfacet
  facet normal -0.2487 -0.96858 0
    outer loop
      vertex 2.34227 12.2786 0
      vertex 3.86271 11.8882 10.5
      vertex 2.34227 12.2786 10.5
    endloop
  endfacet
  facet normal -0.2487 -0.96858 -0
    outer loop
      vertex 3.86271 11.8882 10.5
      vertex 2.34227 12.2786 0
      vertex 3.86271 11.8882 0
    endloop
  endfacet
  facet normal 0.844333 0.535819 0
    outer loop
      vertex -10.1127 -7.34731 10.5
      vertex -10.9538 -6.02192 0
      vertex -10.9538 -6.02192 10.5
    endloop
  endfacet
  facet normal 0.844333 0.535819 0
    outer loop
      vertex -10.9538 -6.02192 0
      vertex -10.1127 -7.34731 10.5
      vertex -10.1127 -7.34731 0
    endloop
  endfacet
  facet normal 0.481736 -0.876317 0
    outer loop
      vertex -6.69783 10.5541 0
      vertex -5.32224 11.3103 10.5
      vertex -6.69783 10.5541 10.5
    endloop
  endfacet
  facet normal 0.481736 -0.876317 0
    outer loop
      vertex -5.32224 11.3103 10.5
      vertex -6.69783 10.5541 0
      vertex -5.32224 11.3103 0
    endloop
  endfacet
  facet normal -0.998025 0.0628122 0
    outer loop
      vertex 12.4014 -1.56666 0
      vertex 12.5 0 10.5
      vertex 12.5 0 0
    endloop
  endfacet
  facet normal -0.998025 0.0628122 0
    outer loop
      vertex 12.5 0 10.5
      vertex 12.4014 -1.56666 0
      vertex 12.4014 -1.56666 10.5
    endloop
  endfacet
  facet normal 0.982292 -0.187354 0
    outer loop
      vertex -12.4014 1.56666 10.5
      vertex -12.1073 3.10862 0
      vertex -12.1073 3.10862 10.5
    endloop
  endfacet
  facet normal 0.982292 -0.187354 0
    outer loop
      vertex -12.1073 3.10862 0
      vertex -12.4014 1.56666 10.5
      vertex -12.4014 1.56666 0
    endloop
  endfacet
  facet normal -0.481736 0.876317 0
    outer loop
      vertex 6.69783 -10.5541 0
      vertex 5.32224 -11.3103 10.5
      vertex 6.69783 -10.5541 10.5
    endloop
  endfacet
  facet normal -0.481736 0.876317 0
    outer loop
      vertex 5.32224 -11.3103 10.5
      vertex 6.69783 -10.5541 0
      vertex 5.32224 -11.3103 0
    endloop
  endfacet
  facet normal 0.125306 -0.992118 0
    outer loop
      vertex -2.34227 12.2786 0
      vertex -0.784881 12.4753 10.5
      vertex -2.34227 12.2786 10.5
    endloop
  endfacet
  facet normal 0.125306 -0.992118 0
    outer loop
      vertex -0.784881 12.4753 10.5
      vertex -2.34227 12.2786 0
      vertex -0.784881 12.4753 0
    endloop
  endfacet
  facet normal 0.982292 0.187354 0
    outer loop
      vertex -12.1073 -3.10862 10.5
      vertex -12.4014 -1.56666 0
      vertex -12.4014 -1.56666 10.5
    endloop
  endfacet
  facet normal 0.982292 0.187354 0
    outer loop
      vertex -12.4014 -1.56666 0
      vertex -12.1073 -3.10862 10.5
      vertex -12.1073 -3.10862 0
    endloop
  endfacet
  facet normal -0.587782 -0.809019 0
    outer loop
      vertex 6.69783 10.5541 0
      vertex 7.9678 9.63142 10.5
      vertex 6.69783 10.5541 10.5
    endloop
  endfacet
  facet normal -0.587782 -0.809019 -0
    outer loop
      vertex 7.9678 9.63142 10.5
      vertex 6.69783 10.5541 0
      vertex 7.9678 9.63142 0
    endloop
  endfacet
  facet normal 0.90482 0.425795 0
    outer loop
      vertex -10.9538 -6.02192 10.5
      vertex -11.6222 -4.60156 0
      vertex -11.6222 -4.60156 10.5
    endloop
  endfacet
  facet normal 0.90482 0.425795 0
    outer loop
      vertex -11.6222 -4.60156 0
      vertex -10.9538 -6.02192 10.5
      vertex -10.9538 -6.02192 0
    endloop
  endfacet
  facet normal -0.125306 0.992118 0
    outer loop
      vertex 2.34227 -12.2786 0
      vertex 0.784881 -12.4753 10.5
      vertex 2.34227 -12.2786 10.5
    endloop
  endfacet
  facet normal -0.125306 0.992118 0
    outer loop
      vertex 0.784881 -12.4753 10.5
      vertex 2.34227 -12.2786 0
      vertex 0.784881 -12.4753 0
    endloop
  endfacet
  facet normal 0.844333 -0.535819 0
    outer loop
      vertex -10.9538 6.02192 10.5
      vertex -10.1127 7.34731 0
      vertex -10.1127 7.34731 10.5
    endloop
  endfacet
  facet normal 0.844333 -0.535819 0
    outer loop
      vertex -10.1127 7.34731 0
      vertex -10.9538 6.02192 10.5
      vertex -10.9538 6.02192 0
    endloop
  endfacet
  facet normal -0.77052 -0.637416 0
    outer loop
      vertex 10.1127 7.34731 0
      vertex 9.11211 8.55684 10.5
      vertex 9.11211 8.55684 0
    endloop
  endfacet
  facet normal -0.77052 -0.637416 0
    outer loop
      vertex 9.11211 8.55684 10.5
      vertex 10.1127 7.34731 0
      vertex 10.1127 7.34731 10.5
    endloop
  endfacet
  facet normal -0.951054 -0.309025 0
    outer loop
      vertex 12.1073 3.10862 0
      vertex 11.6222 4.60156 10.5
      vertex 11.6222 4.60156 0
    endloop
  endfacet
  facet normal -0.951054 -0.309025 0
    outer loop
      vertex 11.6222 4.60156 10.5
      vertex 12.1073 3.10862 0
      vertex 12.1073 3.10862 10.5
    endloop
  endfacet
  facet normal 0.951054 0.309025 0
    outer loop
      vertex -11.6222 -4.60156 10.5
      vertex -12.1073 -3.10862 0
      vertex -12.1073 -3.10862 10.5
    endloop
  endfacet
  facet normal 0.951054 0.309025 0
    outer loop
      vertex -12.1073 -3.10862 0
      vertex -11.6222 -4.60156 10.5
      vertex -11.6222 -4.60156 0
    endloop
  endfacet
  facet normal -0.951054 0.309025 0
    outer loop
      vertex 11.6222 -4.60156 0
      vertex 12.1073 -3.10862 10.5
      vertex 12.1073 -3.10862 0
    endloop
  endfacet
  facet normal -0.951054 0.309025 0
    outer loop
      vertex 12.1073 -3.10862 10.5
      vertex 11.6222 -4.60156 0
      vertex 11.6222 -4.60156 10.5
    endloop
  endfacet
  facet normal 0.587782 -0.809019 0
    outer loop
      vertex -7.9678 9.63142 0
      vertex -6.69783 10.5541 10.5
      vertex -7.9678 9.63142 10.5
    endloop
  endfacet
  facet normal 0.587782 -0.809019 0
    outer loop
      vertex -6.69783 10.5541 10.5
      vertex -7.9678 9.63142 0
      vertex -6.69783 10.5541 0
    endloop
  endfacet
  facet normal 0.77052 -0.637416 0
    outer loop
      vertex -10.1127 7.34731 10.5
      vertex -9.11211 8.55684 0
      vertex -9.11211 8.55684 10.5
    endloop
  endfacet
  facet normal 0.77052 -0.637416 0
    outer loop
      vertex -9.11211 8.55684 0
      vertex -10.1127 7.34731 10.5
      vertex -10.1127 7.34731 0
    endloop
  endfacet
  facet normal 0.481736 0.876317 -0
    outer loop
      vertex -5.32224 -11.3103 0
      vertex -6.69783 -10.5541 10.5
      vertex -5.32224 -11.3103 10.5
    endloop
  endfacet
  facet normal 0.481736 0.876317 0
    outer loop
      vertex -6.69783 -10.5541 10.5
      vertex -5.32224 -11.3103 0
      vertex -6.69783 -10.5541 0
    endloop
  endfacet
  facet normal 0.90482 -0.425795 0
    outer loop
      vertex -11.6222 4.60156 10.5
      vertex -10.9538 6.02192 0
      vertex -10.9538 6.02192 10.5
    endloop
  endfacet
  facet normal 0.90482 -0.425795 0
    outer loop
      vertex -10.9538 6.02192 0
      vertex -11.6222 4.60156 10.5
      vertex -11.6222 4.60156 0
    endloop
  endfacet
  facet normal 0 0 -1
    outer loop
      vertex 12.4014 -1.56666 10.5
      vertex 12.4014 1.56666 10.5
      vertex 12.5 0 10.5
    endloop
  endfacet
  facet normal 0 0 -1
    outer loop
      vertex 12.1073 -3.10862 10.5
      vertex 12.4014 1.56666 10.5
      vertex 12.4014 -1.56666 10.5
    endloop
  endfacet
  facet normal 0 0 -1
    outer loop
      vertex 12.1073 -3.10862 10.5
      vertex 12.1073 3.10862 10.5
      vertex 12.4014 1.56666 10.5
    endloop
  endfacet
  facet normal 0 0 -1
    outer loop
      vertex 11.6222 -4.60156 10.5
      vertex 12.1073 3.10862 10.5
      vertex 12.1073 -3.10862 10.5
    endloop
  endfacet
  facet normal 0 0 -1
    outer loop
      vertex 11.6222 -4.60156 10.5
      vertex 11.6222 4.60156 10.5
      vertex 12.1073 3.10862 10.5
    endloop
  endfacet
  facet normal 0 0 -1
    outer loop
      vertex 10.9538 -6.02192 10.5
      vertex 11.6222 4.60156 10.5
      vertex 11.6222 -4.60156 10.5
    endloop
  endfacet
  facet normal 0 0 -1
    outer loop
      vertex 10.9538 -6.02192 10.5
      vertex 10.9538 6.02192 10.5
      vertex 11.6222 4.60156 10.5
    endloop
  endfacet
  facet normal 0 0 -1
    outer loop
      vertex 10.1127 -7.34731 10.5
      vertex 10.9538 6.02192 10.5
      vertex 10.9538 -6.02192 10.5
    endloop
  endfacet
  facet normal 0 0 -1
    outer loop
      vertex 10.1127 -7.34731 10.5
      vertex 10.1127 7.34731 10.5
      vertex 10.9538 6.02192 10.5
    endloop
  endfacet
  facet normal 0 0 -1
    outer loop
      vertex 9.11211 -8.55684 10.5
      vertex 10.1127 7.34731 10.5
      vertex 10.1127 -7.34731 10.5
    endloop
  endfacet
  facet normal 0 0 -1
    outer loop
      vertex 9.11211 -8.55684 10.5
      vertex 9.11211 8.55684 10.5
      vertex 10.1127 7.34731 10.5
    endloop
  endfacet
  facet normal 0 0 -1
    outer loop
      vertex 7.9678 -9.63142 10.5
      vertex 9.11211 8.55684 10.5
      vertex 9.11211 -8.55684 10.5
    endloop
  endfacet
  facet normal 0 0 -1
    outer loop
      vertex 7.9678 -9.63142 10.5
      vertex 7.9678 9.63142 10.5
      vertex 9.11211 8.55684 10.5
    endloop
  endfacet
  facet normal 0 0 -1
    outer loop
      vertex 6.69783 -10.5541 10.5
      vertex 7.9678 9.63142 10.5
      vertex 7.9678 -9.63142 10.5
    endloop
  endfacet
  facet normal 0 0 -1
    outer loop
      vertex 6.69783 -10.5541 10.5
      vertex 6.69783 10.5541 10.5
      vertex 7.9678 9.63142 10.5
    endloop
  endfacet
  facet normal 0 0 -1
    outer loop
      vertex 5.32224 -11.3103 10.5
      vertex 6.69783 10.5541 10.5
      vertex 6.69783 -10.5541 10.5
    endloop
  endfacet
  facet normal 0 0 -1
    outer loop
      vertex 5.32224 -11.3103 10.5
      vertex 5.32224 11.3103 10.5
      vertex 6.69783 10.5541 10.5
    endloop
  endfacet
  facet normal 0 0 -1
    outer loop
      vertex 3.86271 -11.8882 10.5
      vertex 5.32224 11.3103 10.5
      vertex 5.32224 -11.3103 10.5
    endloop
  endfacet
  facet normal 0 0 -1
    outer loop
      vertex 3.86271 -11.8882 10.5
      vertex 3.86271 11.8882 10.5
      vertex 5.32224 11.3103 10.5
    endloop
  endfacet
  facet normal 0 0 -1
    outer loop
      vertex 2.34227 -12.2786 10.5
      vertex 3.86271 11.8882 10.5
      vertex 3.86271 -11.8882 10.5
    endloop
  endfacet
  facet normal 0 0 -1
    outer loop
      vertex 2.34227 -12.2786 10.5
      vertex 2.34227 12.2786 10.5
      vertex 3.86271 11.8882 10.5
    endloop
  endfacet
  facet normal 0 0 -1
    outer loop
      vertex 0.784881 -12.4753 10.5
      vertex 2.34227 12.2786 10.5
      vertex 2.34227 -12.2786 10.5
    endloop
  endfacet
  facet normal 0 0 -1
    outer loop
      vertex 0.784881 -12.4753 10.5
      vertex 0.784881 12.4753 10.5
      vertex 2.34227 12.2786 10.5
    endloop
  endfacet
  facet normal 0 0 -1
    outer loop
      vertex -0.784881 -12.4753 10.5
      vertex 0.784881 12.4753 10.5
      vertex 0.784881 -12.4753 10.5
    endloop
  endfacet
  facet normal 0 0 -1
    outer loop
      vertex -0.784881 -12.4753 10.5
      vertex -0.784881 12.4753 10.5
      vertex 0.784881 12.4753 10.5
    endloop
  endfacet
  facet normal 0 0 -1
    outer loop
      vertex -2.34227 -12.2786 10.5
      vertex -0.784881 12.4753 10.5
      vertex -0.784881 -12.4753 10.5
    endloop
  endfacet
  facet normal 0 0 -1
    outer loop
      vertex -2.34227 -12.2786 10.5
      vertex -2.34227 12.2786 10.5
      vertex -0.784881 12.4753 10.5
    endloop
  endfacet
  facet normal 0 0 -1
    outer loop
      vertex -3.86271 -11.8882 10.5
      vertex -2.34227 12.2786 10.5
      vertex -2.34227 -12.2786 10.5
    endloop
  endfacet
  facet normal 0 0 -1
    outer loop
      vertex -3.86271 -11.8882 10.5
      vertex -3.86271 11.8882 10.5
      vertex -2.34227 12.2786 10.5
    endloop
  endfacet
  facet normal 0 0 -1
    outer loop
      vertex -5.32224 -11.3103 10.5
      vertex -3.86271 11.8882 10.5
      vertex -3.86271 -11.8882 10.5
    endloop
  endfacet
  facet normal 0 0 -1
    outer loop
      vertex -5.32224 -11.3103 10.5
      vertex -5.32224 11.3103 10.5
      vertex -3.86271 11.8882 10.5
    endloop
  endfacet
  facet normal 0 0 -1
    outer loop
      vertex -6.69783 -10.5541 10.5
      vertex -5.32224 11.3103 10.5
      vertex -5.32224 -11.3103 10.5
    endloop
  endfacet
  facet normal 0 0 -1
    outer loop
      vertex -6.69783 -10.5541 10.5
      vertex -6.69783 10.5541 10.5
      vertex -5.32224 11.3103 10.5
    endloop
  endfacet
  facet normal 0 0 -1
    outer loop
      vertex -7.9678 -9.63142 10.5
      vertex -6.69783 10.5541 10.5
      vertex -6.69783 -10.5541 10.5
    endloop
  endfacet
  facet normal 0 0 -1
    outer loop
      vertex -7.9678 -9.63142 10.5
      vertex -7.9678 9.63142 10.5
      vertex -6.69783 10.5541 10.5
    endloop
  endfacet
  facet normal 0 0 -1
    outer loop
      vertex -9.11211 -8.55684 10.5
      vertex -7.9678 9.63142 10.5
      vertex -7.9678 -9.63142 10.5
    endloop
  endfacet
  facet normal 0 0 -1
    outer loop
      vertex -9.11211 -8.55684 10.5
      vertex -9.11211 8.55684 10.5
      vertex -7.9678 9.63142 10.5
    endloop
  endfacet
  facet normal 0 0 -1
    outer loop
      vertex -10.1127 -7.34731 10.5
      vertex -9.11211 8.55684 10.5
      vertex -9.11211 -8.55684 10.5
    endloop
  endfacet
  facet normal 0 0 -1
    outer loop
      vertex -10.1127 -7.34731 10.5
      vertex -10.1127 7.34731 10.5
      vertex -9.11211 8.55684 10.5
    endloop
  endfacet
  facet normal 0 0 -1
    outer loop
      vertex -10.9538 -6.02192 10.5
      vertex -10.1127 7.34731 10.5
      vertex -10.1127 -7.34731 10.5
    endloop
  endfacet
  facet normal 0 0 -1
    outer loop
      vertex -10.9538 -6.02192 10.5
      vertex -10.9538 6.02192 10.5
      vertex -10.1127 7.34731 10.5
    endloop
  endfacet
  facet normal 0 0 -1
    outer loop
      vertex -11.6222 -4.60156 10.5
      vertex -10.9538 6.02192 10.5
      vertex -10.9538 -6.02192 10.5
    endloop
  endfacet
  facet normal 0 0 -1
    outer loop
      vertex -11.6222 -4.60156 10.5
      vertex -11.6222 4.60156 10.5
      vertex -10.9538 6.02192 10.5
    endloop
  endfacet
  facet normal 0 0 -1
    outer loop
      vertex -12.1073 -3.10862 10.5
      vertex -11.6222 4.60156 10.5
      vertex -11.6222 -4.60156 10.5
    endloop
  endfacet
  facet normal 0 0 -1
    outer loop
      vertex -12.1073 -3.10862 10.5
      vertex -12.1073 3.10862 10.5
      vertex -11.6222 4.60156 10.5
    endloop
  endfacet
  facet normal 0 0 -1
    outer loop
      vertex -12.4014 -1.56666 10.5
      vertex -12.1073 3.10862 10.5
      vertex -12.1073 -3.10862 10.5
    endloop
  endfacet
  facet normal 0 0 -1
    outer loop
      vertex -12.4014 -1.56666 10.5
      vertex -12.4014 1.56666 10.5
      vertex -12.1073 3.10862 10.5
    endloop
  endfacet
  facet normal 0 -0 -1
    outer loop
      vertex -12.4014 1.56666 10.5
      vertex -12.4014 -1.56666 10.5
      vertex -12.5 0 10.5
    endloop
  endfacet
endsolid OpenSCAD_Model
