solid OpenSCAD_Model
  facet normal 0 0 -1
    outer loop
      vertex 0 0 0
      vertex 5 0 0
      vertex 2.5 -2 0
    endloop
  endfacet
  facet normal 0 -0 1
    outer loop
      vertex 2.5 -2 10
      vertex 5 0 10
      vertex 0 0 10
    endloop
  endfacet
  facet normal 0 1 0
    outer loop
      vertex 0 0 0
      vertex 5 0 10
      vertex 5 0 0
    endloop
  endfacet
  facet normal 0 1 0
    outer loop
      vertex 0 0 0
      vertex 0 0 10
      vertex 5 0 10
    endloop
  endfacet
  facet normal -0.624695 -0.780869 0
    outer loop
      vertex 2.5 -2 0
      vertex 0 0 10
      vertex 0 0 0
    endloop
  endfacet
  facet normal -0.624695 -0.780869 0
    outer loop
      vertex 2.5 -2 0
      vertex 2.5 -2 10
      vertex 0 0 10
    endloop
  endfacet
  facet normal 0.624695 -0.780869 0
    outer loop
      vertex 5 0 0
      vertex 2.5 -2 10
      vertex 2.5 -2 0
    endloop
  endfacet
  facet normal 0.624695 -0.780869 0
    outer loop
      vertex 5 0 0
      vertex 5 0 10
      vertex 2.5 -2 10
    endloop
  endfacet
endsolid OpenSCAD_Model
