solid OpenSCAD_Model
  facet normal -0.727294 -0.686326 0
    outer loop
      vertex -57.8105 -52.5908 0
      vertex -67.7062 -42.1044 20
      vertex -67.7062 -42.1044 0
    endloop
  endfacet
  facet normal -0.727294 -0.686326 0
    outer loop
      vertex -67.7062 -42.1044 20
      vertex -57.8105 -52.5908 0
      vertex -57.8105 -52.5908 20
    endloop
  endfacet
  facet normal 0.121359 -0.992609 0
    outer loop
      vertex -0.984871 -71.5327 0
      vertex 14.7918 -69.6038 20
      vertex -0.984871 -71.5327 20
    endloop
  endfacet
  facet normal 0.121359 -0.992609 0
    outer loop
      vertex 14.7918 -69.6038 20
      vertex -0.984871 -71.5327 0
      vertex 14.7918 -69.6038 0
    endloop
  endfacet
  facet normal 0.450971 -0.892538 0
    outer loop
      vertex 30 -65 0
      vertex 44.0553 -57.8983 20
      vertex 30 -65 20
    endloop
  endfacet
  facet normal 0.450971 -0.892538 0
    outer loop
      vertex 44.0553 -57.8983 20
      vertex 30 -65 0
      vertex 44.0553 -57.8983 0
    endloop
  endfacet
  facet normal -0.289734 0.957107 0
    outer loop
      vertex -14.7918 69.6038 0
      vertex -30 65 20
      vertex -14.7918 69.6038 20
    endloop
  endfacet
  facet normal -0.289734 0.957107 0
    outer loop
      vertex -30 65 20
      vertex -14.7918 69.6038 0
      vertex -30 65 0
    endloop
  endfacet
  facet normal -0.403548 -0.914959 0
    outer loop
      vertex -45.6931 -61.0562 0
      vertex -31.8198 -67.1751 20
      vertex -45.6931 -61.0562 20
    endloop
  endfacet
  facet normal -0.403548 -0.914959 -0
    outer loop
      vertex -31.8198 -67.1751 20
      vertex -45.6931 -61.0562 0
      vertex -31.8198 -67.1751 0
    endloop
  endfacet
  facet normal -0.856519 -0.516116 0
    outer loop
      vertex -67.7062 -42.1044 0
      vertex -75 -30 20
      vertex -75 -30 0
    endloop
  endfacet
  facet normal -0.856519 -0.516116 0
    outer loop
      vertex -75 -30 20
      vertex -67.7062 -42.1044 0
      vertex -67.7062 -42.1044 20
    endloop
  endfacet
  facet normal 0.289734 -0.957107 0
    outer loop
      vertex 14.7918 -69.6038 0
      vertex 30 -65 20
      vertex 14.7918 -69.6038 20
    endloop
  endfacet
  facet normal 0.289734 -0.957107 0
    outer loop
      vertex 30 -65 20
      vertex 14.7918 -69.6038 0
      vertex 30 -65 0
    endloop
  endfacet
  facet normal -0.121359 0.992609 0
    outer loop
      vertex 0.984871 71.5327 0
      vertex -14.7918 69.6038 20
      vertex 0.984871 71.5327 20
    endloop
  endfacet
  facet normal -0.121359 0.992609 0
    outer loop
      vertex -14.7918 69.6038 20
      vertex 0.984871 71.5327 0
      vertex -14.7918 69.6038 0
    endloop
  endfacet
  facet normal 0.856519 0.516116 0
    outer loop
      vertex 75 30 20
      vertex 67.7062 42.1044 0
      vertex 67.7062 42.1044 20
    endloop
  endfacet
  facet normal 0.856519 0.516116 0
    outer loop
      vertex 67.7062 42.1044 0
      vertex 75 30 20
      vertex 75 30 0
    endloop
  endfacet
  facet normal 0.8558 -0.517307 0
    outer loop
      vertex 66.6119 -37.3784 20
      vertex 74.2462 -24.7487 0
      vertex 74.2462 -24.7487 20
    endloop
  endfacet
  facet normal 0.8558 -0.517307 0
    outer loop
      vertex 74.2462 -24.7487 0
      vertex 66.6119 -37.3784 20
      vertex 66.6119 -37.3784 0
    endloop
  endfacet
  facet normal 0.602265 -0.798296 0
    outer loop
      vertex 44.0553 -57.8983 0
      vertex 56.4176 -48.5717 20
      vertex 44.0553 -57.8983 20
    endloop
  endfacet
  facet normal 0.602265 -0.798296 0
    outer loop
      vertex 56.4176 -48.5717 20
      vertex 44.0553 -57.8983 0
      vertex 56.4176 -48.5717 0
    endloop
  endfacet
  facet normal 0.948844 0.315745 0
    outer loop
      vertex 79.4116 16.7427 20
      vertex 75 30 0
      vertex 75 30 20
    endloop
  endfacet
  facet normal 0.948844 0.315745 0
    outer loop
      vertex 75 30 0
      vertex 79.4116 16.7427 20
      vertex 79.4116 16.7427 0
    endloop
  endfacet
  facet normal 0.992339 -0.123543 0
    outer loop
      vertex 79.0273 -11.168 20
      vertex 80.7715 2.84196 0
      vertex 80.7715 2.84196 20
    endloop
  endfacet
  facet normal 0.992339 -0.123543 0
    outer loop
      vertex 80.7715 2.84196 0
      vertex 79.0273 -11.168 20
      vertex 79.0273 -11.168 0
    endloop
  endfacet
  facet normal -0.992339 0.123543 0
    outer loop
      vertex -80.7715 -2.84196 0
      vertex -79.0273 11.168 20
      vertex -79.0273 11.168 0
    endloop
  endfacet
  facet normal -0.992339 0.123543 0
    outer loop
      vertex -79.0273 11.168 20
      vertex -80.7715 -2.84196 0
      vertex -80.7715 -2.84196 20
    endloop
  endfacet
  facet normal -0.5727 -0.819765 0
    outer loop
      vertex -57.8105 -52.5908 0
      vertex -45.6931 -61.0562 20
      vertex -57.8105 -52.5908 20
    endloop
  endfacet
  facet normal -0.5727 -0.819765 -0
    outer loop
      vertex -45.6931 -61.0562 20
      vertex -57.8105 -52.5908 0
      vertex -45.6931 -61.0562 0
    endloop
  endfacet
  facet normal 0 0 -1
    outer loop
      vertex 14.7918 -69.6038 0
      vertex 25 -15 0
      vertex 30 -65 0
    endloop
  endfacet
  facet normal 0 0 -1
    outer loop
      vertex -0.984871 -71.5327 0
      vertex 25 -15 0
      vertex 14.7918 -69.6038 0
    endloop
  endfacet
  facet normal 0 0 -1
    outer loop
      vertex -25 -15 0
      vertex -0.984871 -71.5327 0
      vertex -16.7237 -70.7126 0
    endloop
  endfacet
  facet normal 0 0 -1
    outer loop
      vertex -0.984871 -71.5327 0
      vertex -25 -15 0
      vertex 25 -15 0
    endloop
  endfacet
  facet normal 0 0 -1
    outer loop
      vertex -80.7715 -2.84196 0
      vertex -25 15 0
      vertex -25 -15 0
    endloop
  endfacet
  facet normal 0 0 -1
    outer loop
      vertex -31.8198 -67.1751 0
      vertex -25 -15 0
      vertex -16.7237 -70.7126 0
    endloop
  endfacet
  facet normal 0 0 -1
    outer loop
      vertex -45.6931 -61.0562 0
      vertex -25 -15 0
      vertex -31.8198 -67.1751 0
    endloop
  endfacet
  facet normal 0 0 -1
    outer loop
      vertex -25 15 0
      vertex -44.0553 57.8983 0
      vertex -30 65 0
    endloop
  endfacet
  facet normal 0 0 -1
    outer loop
      vertex -57.8105 -52.5908 0
      vertex -25 -15 0
      vertex -45.6931 -61.0562 0
    endloop
  endfacet
  facet normal 0 0 -1
    outer loop
      vertex -25 15 0
      vertex -56.4176 48.5717 0
      vertex -44.0553 57.8983 0
    endloop
  endfacet
  facet normal 0 0 -1
    outer loop
      vertex -67.7062 -42.1044 0
      vertex -25 -15 0
      vertex -57.8105 -52.5908 0
    endloop
  endfacet
  facet normal 0 0 -1
    outer loop
      vertex -25 15 0
      vertex -66.6119 37.3784 0
      vertex -56.4176 48.5717 0
    endloop
  endfacet
  facet normal 0 0 -1
    outer loop
      vertex -75 -30 0
      vertex -25 -15 0
      vertex -67.7062 -42.1044 0
    endloop
  endfacet
  facet normal 0 0 -1
    outer loop
      vertex -25 15 0
      vertex -74.2462 24.7487 0
      vertex -66.6119 37.3784 0
    endloop
  endfacet
  facet normal 0 0 -1
    outer loop
      vertex -79.4116 -16.7427 0
      vertex -25 -15 0
      vertex -75 -30 0
    endloop
  endfacet
  facet normal -0 0 -1
    outer loop
      vertex -25 15 0
      vertex -79.0273 11.168 0
      vertex -74.2462 24.7487 0
    endloop
  endfacet
  facet normal 0 0 -1
    outer loop
      vertex -80.7715 -2.84196 0
      vertex -25 -15 0
      vertex -79.4116 -16.7427 0
    endloop
  endfacet
  facet normal 0 0 -1
    outer loop
      vertex -25 15 0
      vertex -80.7715 -2.84196 0
      vertex -79.0273 11.168 0
    endloop
  endfacet
  facet normal 0 0 -1
    outer loop
      vertex 25 -15 0
      vertex 80.7715 2.84196 0
      vertex 79.0273 -11.168 0
    endloop
  endfacet
  facet normal 0 0 -1
    outer loop
      vertex 80.7715 2.84196 0
      vertex 25 15 0
      vertex 79.4116 16.7427 0
    endloop
  endfacet
  facet normal 0 0 -1
    outer loop
      vertex 25 -15 0
      vertex 79.0273 -11.168 0
      vertex 74.2462 -24.7487 0
    endloop
  endfacet
  facet normal -0 0 -1
    outer loop
      vertex 79.4116 16.7427 0
      vertex 25 15 0
      vertex 75 30 0
    endloop
  endfacet
  facet normal 0 0 -1
    outer loop
      vertex 25 -15 0
      vertex 74.2462 -24.7487 0
      vertex 66.6119 -37.3784 0
    endloop
  endfacet
  facet normal -0 0 -1
    outer loop
      vertex 75 30 0
      vertex 25 15 0
      vertex 67.7062 42.1044 0
    endloop
  endfacet
  facet normal 0 0 -1
    outer loop
      vertex 25 -15 0
      vertex 66.6119 -37.3784 0
      vertex 56.4176 -48.5717 0
    endloop
  endfacet
  facet normal -0 0 -1
    outer loop
      vertex 67.7062 42.1044 0
      vertex 25 15 0
      vertex 57.8105 52.5908 0
    endloop
  endfacet
  facet normal 0 0 -1
    outer loop
      vertex 25 -15 0
      vertex 56.4176 -48.5717 0
      vertex 44.0553 -57.8983 0
    endloop
  endfacet
  facet normal -0 0 -1
    outer loop
      vertex 57.8105 52.5908 0
      vertex 25 15 0
      vertex 45.6931 61.0562 0
    endloop
  endfacet
  facet normal 0 0 -1
    outer loop
      vertex 25 -15 0
      vertex 44.0553 -57.8983 0
      vertex 30 -65 0
    endloop
  endfacet
  facet normal -0 0 -1
    outer loop
      vertex 80.7715 2.84196 0
      vertex 25 -15 0
      vertex 25 15 0
    endloop
  endfacet
  facet normal -0 0 -1
    outer loop
      vertex 45.6931 61.0562 0
      vertex 25 15 0
      vertex 31.8198 67.1751 0
    endloop
  endfacet
  facet normal 0 0 -1
    outer loop
      vertex 25 15 0
      vertex 16.7237 70.7126 0
      vertex 31.8198 67.1751 0
    endloop
  endfacet
  facet normal 0 0 -1
    outer loop
      vertex 25 15 0
      vertex 0.984871 71.5327 0
      vertex 16.7237 70.7126 0
    endloop
  endfacet
  facet normal 0 0 -1
    outer loop
      vertex -25 15 0
      vertex 0.984871 71.5327 0
      vertex 25 15 0
    endloop
  endfacet
  facet normal 0 0 -1
    outer loop
      vertex 0.984871 71.5327 0
      vertex -25 15 0
      vertex -14.7918 69.6038 0
    endloop
  endfacet
  facet normal 0 0 -1
    outer loop
      vertex -14.7918 69.6038 0
      vertex -25 15 0
      vertex -30 65 0
    endloop
  endfacet
  facet normal -0.450971 0.892538 0
    outer loop
      vertex -30 65 0
      vertex -44.0553 57.8983 20
      vertex -30 65 20
    endloop
  endfacet
  facet normal -0.450971 0.892538 0
    outer loop
      vertex -44.0553 57.8983 20
      vertex -30 65 0
      vertex -44.0553 57.8983 0
    endloop
  endfacet
  facet normal 0.739329 -0.673344 0
    outer loop
      vertex 56.4176 -48.5717 20
      vertex 66.6119 -37.3784 0
      vertex 66.6119 -37.3784 20
    endloop
  endfacet
  facet normal 0.739329 -0.673344 0
    outer loop
      vertex 66.6119 -37.3784 0
      vertex 56.4176 -48.5717 20
      vertex 56.4176 -48.5717 0
    endloop
  endfacet
  facet normal 0.727294 0.686326 0
    outer loop
      vertex 67.7062 42.1044 20
      vertex 57.8105 52.5908 0
      vertex 57.8105 52.5908 20
    endloop
  endfacet
  facet normal 0.727294 0.686326 0
    outer loop
      vertex 57.8105 52.5908 0
      vertex 67.7062 42.1044 20
      vertex 67.7062 42.1044 0
    endloop
  endfacet
  facet normal -0.943254 0.332073 0
    outer loop
      vertex -79.0273 11.168 0
      vertex -74.2462 24.7487 20
      vertex -74.2462 24.7487 0
    endloop
  endfacet
  facet normal -0.943254 0.332073 0
    outer loop
      vertex -74.2462 24.7487 20
      vertex -79.0273 11.168 0
      vertex -79.0273 11.168 20
    endloop
  endfacet
  facet normal 0.995249 0.0973645 0
    outer loop
      vertex 80.7715 2.84196 20
      vertex 79.4116 16.7427 0
      vertex 79.4116 16.7427 20
    endloop
  endfacet
  facet normal 0.995249 0.0973645 0
    outer loop
      vertex 79.4116 16.7427 0
      vertex 80.7715 2.84196 20
      vertex 80.7715 2.84196 0
    endloop
  endfacet
  facet normal -0.228152 -0.973626 0
    outer loop
      vertex -31.8198 -67.1751 0
      vertex -16.7237 -70.7126 20
      vertex -31.8198 -67.1751 20
    endloop
  endfacet
  facet normal -0.228152 -0.973626 -0
    outer loop
      vertex -16.7237 -70.7126 20
      vertex -31.8198 -67.1751 0
      vertex -16.7237 -70.7126 0
    endloop
  endfacet
  facet normal 0.943254 -0.332073 0
    outer loop
      vertex 74.2462 -24.7487 20
      vertex 79.0273 -11.168 0
      vertex 79.0273 -11.168 20
    endloop
  endfacet
  facet normal 0.943254 -0.332073 0
    outer loop
      vertex 79.0273 -11.168 0
      vertex 74.2462 -24.7487 20
      vertex 74.2462 -24.7487 0
    endloop
  endfacet
  facet normal 0.228152 0.973626 -0
    outer loop
      vertex 31.8198 67.1751 0
      vertex 16.7237 70.7126 20
      vertex 31.8198 67.1751 20
    endloop
  endfacet
  facet normal 0.228152 0.973626 0
    outer loop
      vertex 16.7237 70.7126 20
      vertex 31.8198 67.1751 0
      vertex 16.7237 70.7126 0
    endloop
  endfacet
  facet normal 0.0520362 0.998645 -0
    outer loop
      vertex 16.7237 70.7126 0
      vertex 0.984871 71.5327 20
      vertex 16.7237 70.7126 20
    endloop
  endfacet
  facet normal 0.0520362 0.998645 0
    outer loop
      vertex 0.984871 71.5327 20
      vertex 16.7237 70.7126 0
      vertex 0.984871 71.5327 0
    endloop
  endfacet
  facet normal -0.0520362 -0.998645 0
    outer loop
      vertex -16.7237 -70.7126 0
      vertex -0.984871 -71.5327 20
      vertex -16.7237 -70.7126 20
    endloop
  endfacet
  facet normal -0.0520362 -0.998645 -0
    outer loop
      vertex -0.984871 -71.5327 20
      vertex -16.7237 -70.7126 0
      vertex -0.984871 -71.5327 0
    endloop
  endfacet
  facet normal -0.948844 -0.315745 0
    outer loop
      vertex -75 -30 0
      vertex -79.4116 -16.7427 20
      vertex -79.4116 -16.7427 0
    endloop
  endfacet
  facet normal -0.948844 -0.315745 0
    outer loop
      vertex -79.4116 -16.7427 20
      vertex -75 -30 0
      vertex -75 -30 20
    endloop
  endfacet
  facet normal -0.995249 -0.0973645 0
    outer loop
      vertex -79.4116 -16.7427 0
      vertex -80.7715 -2.84196 20
      vertex -80.7715 -2.84196 0
    endloop
  endfacet
  facet normal -0.995249 -0.0973645 0
    outer loop
      vertex -80.7715 -2.84196 20
      vertex -79.4116 -16.7427 0
      vertex -79.4116 -16.7427 20
    endloop
  endfacet
  facet normal -0.8558 0.517307 0
    outer loop
      vertex -74.2462 24.7487 0
      vertex -66.6119 37.3784 20
      vertex -66.6119 37.3784 0
    endloop
  endfacet
  facet normal -0.8558 0.517307 0
    outer loop
      vertex -66.6119 37.3784 20
      vertex -74.2462 24.7487 0
      vertex -74.2462 24.7487 20
    endloop
  endfacet
  facet normal 0 0 1
    outer loop
      vertex 79.4116 16.7427 20
      vertex 79.0273 -11.168 20
      vertex 80.7715 2.84196 20
    endloop
  endfacet
  facet normal 0 0 1
    outer loop
      vertex 75 30 20
      vertex 79.0273 -11.168 20
      vertex 79.4116 16.7427 20
    endloop
  endfacet
  facet normal 0 0 1
    outer loop
      vertex 75 30 20
      vertex 74.2462 -24.7487 20
      vertex 79.0273 -11.168 20
    endloop
  endfacet
  facet normal 0 0 1
    outer loop
      vertex 67.7062 42.1044 20
      vertex 74.2462 -24.7487 20
      vertex 75 30 20
    endloop
  endfacet
  facet normal 0 0 1
    outer loop
      vertex 57.8105 52.5908 20
      vertex 74.2462 -24.7487 20
      vertex 67.7062 42.1044 20
    endloop
  endfacet
  facet normal 0 0 1
    outer loop
      vertex 74.2462 -24.7487 20
      vertex 57.8105 52.5908 20
      vertex 66.6119 -37.3784 20
    endloop
  endfacet
  facet normal 0 0 1
    outer loop
      vertex 45.6931 61.0562 20
      vertex 66.6119 -37.3784 20
      vertex 57.8105 52.5908 20
    endloop
  endfacet
  facet normal 0 0 1
    outer loop
      vertex 66.6119 -37.3784 20
      vertex 45.6931 61.0562 20
      vertex 56.4176 -48.5717 20
    endloop
  endfacet
  facet normal 0 0 1
    outer loop
      vertex 31.8198 67.1751 20
      vertex 56.4176 -48.5717 20
      vertex 45.6931 61.0562 20
    endloop
  endfacet
  facet normal 0 0 1
    outer loop
      vertex 56.4176 -48.5717 20
      vertex 31.8198 67.1751 20
      vertex 44.0553 -57.8983 20
    endloop
  endfacet
  facet normal 0 0 1
    outer loop
      vertex 16.7237 70.7126 20
      vertex 44.0553 -57.8983 20
      vertex 31.8198 67.1751 20
    endloop
  endfacet
  facet normal 0 0 1
    outer loop
      vertex 44.0553 -57.8983 20
      vertex 16.7237 70.7126 20
      vertex 30 -65 20
    endloop
  endfacet
  facet normal 0 0 1
    outer loop
      vertex 0.984871 71.5327 20
      vertex 30 -65 20
      vertex 16.7237 70.7126 20
    endloop
  endfacet
  facet normal 0 0 1
    outer loop
      vertex 30 -65 20
      vertex 0.984871 71.5327 20
      vertex 14.7918 -69.6038 20
    endloop
  endfacet
  facet normal -0 0 1
    outer loop
      vertex -14.7918 69.6038 20
      vertex 14.7918 -69.6038 20
      vertex 0.984871 71.5327 20
    endloop
  endfacet
  facet normal 0 0 1
    outer loop
      vertex 14.7918 -69.6038 20
      vertex -14.7918 69.6038 20
      vertex -0.984871 -71.5327 20
    endloop
  endfacet
  facet normal -0 0 1
    outer loop
      vertex -30 65 20
      vertex -0.984871 -71.5327 20
      vertex -14.7918 69.6038 20
    endloop
  endfacet
  facet normal 0 0 1
    outer loop
      vertex -0.984871 -71.5327 20
      vertex -30 65 20
      vertex -16.7237 -70.7126 20
    endloop
  endfacet
  facet normal -0 0 1
    outer loop
      vertex -44.0553 57.8983 20
      vertex -16.7237 -70.7126 20
      vertex -30 65 20
    endloop
  endfacet
  facet normal 0 0 1
    outer loop
      vertex -16.7237 -70.7126 20
      vertex -44.0553 57.8983 20
      vertex -31.8198 -67.1751 20
    endloop
  endfacet
  facet normal -0 0 1
    outer loop
      vertex -56.4176 48.5717 20
      vertex -31.8198 -67.1751 20
      vertex -44.0553 57.8983 20
    endloop
  endfacet
  facet normal 0 0 1
    outer loop
      vertex -31.8198 -67.1751 20
      vertex -56.4176 48.5717 20
      vertex -45.6931 -61.0562 20
    endloop
  endfacet
  facet normal -0 0 1
    outer loop
      vertex -66.6119 37.3784 20
      vertex -45.6931 -61.0562 20
      vertex -56.4176 48.5717 20
    endloop
  endfacet
  facet normal 0 0 1
    outer loop
      vertex -45.6931 -61.0562 20
      vertex -66.6119 37.3784 20
      vertex -57.8105 -52.5908 20
    endloop
  endfacet
  facet normal -0 0 1
    outer loop
      vertex -74.2462 24.7487 20
      vertex -57.8105 -52.5908 20
      vertex -66.6119 37.3784 20
    endloop
  endfacet
  facet normal 0 0 1
    outer loop
      vertex -57.8105 -52.5908 20
      vertex -74.2462 24.7487 20
      vertex -67.7062 -42.1044 20
    endloop
  endfacet
  facet normal 0 0 1
    outer loop
      vertex -74.2462 24.7487 20
      vertex -75 -30 20
      vertex -67.7062 -42.1044 20
    endloop
  endfacet
  facet normal -0 0 1
    outer loop
      vertex -79.0273 11.168 20
      vertex -75 -30 20
      vertex -74.2462 24.7487 20
    endloop
  endfacet
  facet normal 0 0 1
    outer loop
      vertex -79.0273 11.168 20
      vertex -79.4116 -16.7427 20
      vertex -75 -30 20
    endloop
  endfacet
  facet normal 0 -0 1
    outer loop
      vertex -79.4116 -16.7427 20
      vertex -79.0273 11.168 20
      vertex -80.7715 -2.84196 20
    endloop
  endfacet
  facet normal -0.739329 0.673344 0
    outer loop
      vertex -66.6119 37.3784 0
      vertex -56.4176 48.5717 20
      vertex -56.4176 48.5717 0
    endloop
  endfacet
  facet normal -0.739329 0.673344 0
    outer loop
      vertex -56.4176 48.5717 20
      vertex -66.6119 37.3784 0
      vertex -66.6119 37.3784 20
    endloop
  endfacet
  facet normal 0.5727 0.819765 -0
    outer loop
      vertex 57.8105 52.5908 0
      vertex 45.6931 61.0562 20
      vertex 57.8105 52.5908 20
    endloop
  endfacet
  facet normal 0.5727 0.819765 0
    outer loop
      vertex 45.6931 61.0562 20
      vertex 57.8105 52.5908 0
      vertex 45.6931 61.0562 0
    endloop
  endfacet
  facet normal 0.403548 0.914959 -0
    outer loop
      vertex 45.6931 61.0562 0
      vertex 31.8198 67.1751 20
      vertex 45.6931 61.0562 20
    endloop
  endfacet
  facet normal 0.403548 0.914959 0
    outer loop
      vertex 31.8198 67.1751 20
      vertex 45.6931 61.0562 0
      vertex 31.8198 67.1751 0
    endloop
  endfacet
  facet normal -0.602265 0.798296 0
    outer loop
      vertex -44.0553 57.8983 0
      vertex -56.4176 48.5717 20
      vertex -44.0553 57.8983 20
    endloop
  endfacet
  facet normal -0.602265 0.798296 0
    outer loop
      vertex -56.4176 48.5717 20
      vertex -44.0553 57.8983 0
      vertex -56.4176 48.5717 0
    endloop
  endfacet
  facet normal -1 0 0
    outer loop
      vertex 25 -15 0
      vertex 25 15 10
      vertex 25 15 0
    endloop
  endfacet
  facet normal -1 -0 0
    outer loop
      vertex 25 15 10
      vertex 25 -15 0
      vertex 25 -15 10
    endloop
  endfacet
  facet normal 0 0 -1
    outer loop
      vertex -25 -15 10
      vertex 25 15 10
      vertex 25 -15 10
    endloop
  endfacet
  facet normal -0 0 -1
    outer loop
      vertex 25 15 10
      vertex -25 -15 10
      vertex -25 15 10
    endloop
  endfacet
  facet normal 1 -0 0
    outer loop
      vertex -25 -15 10
      vertex -25 15 0
      vertex -25 15 10
    endloop
  endfacet
  facet normal 1 0 0
    outer loop
      vertex -25 15 0
      vertex -25 -15 10
      vertex -25 -15 0
    endloop
  endfacet
  facet normal 0 -1 0
    outer loop
      vertex -25 15 0
      vertex 25 15 10
      vertex -25 15 10
    endloop
  endfacet
  facet normal 0 -1 -0
    outer loop
      vertex 25 15 10
      vertex -25 15 0
      vertex 25 15 0
    endloop
  endfacet
  facet normal 0 1 -0
    outer loop
      vertex 25 -15 0
      vertex -25 -15 10
      vertex 25 -15 10
    endloop
  endfacet
  facet normal 0 1 0
    outer loop
      vertex -25 -15 10
      vertex 25 -15 0
      vertex -25 -15 0
    endloop
  endfacet
endsolid OpenSCAD_Model
