solid OpenSCAD_Model
  facet normal 1 -0 0
    outer loop
      vertex 15 0 20
      vertex 15 10 0
      vertex 15 10 20
    endloop
  endfacet
  facet normal 1 0 0
    outer loop
      vertex 15 10 0
      vertex 15 0 20
      vertex 15 0 0
    endloop
  endfacet
  facet normal -0 0 1
    outer loop
      vertex 6.38582 2.57402 20
      vertex 15 0 20
      vertex 15 10 20
    endloop
  endfacet
  facet normal 0 0 1
    outer loop
      vertex 15 0 20
      vertex 6.47118 2.29263 20
      vertex 6.5 2 20
    endloop
  endfacet
  facet normal 0 0 1
    outer loop
      vertex 15 0 20
      vertex 6.38582 2.57402 20
      vertex 6.47118 2.29263 20
    endloop
  endfacet
  facet normal 0 0 1
    outer loop
      vertex 15 10 20
      vertex 6.2472 2.83335 20
      vertex 6.38582 2.57402 20
    endloop
  endfacet
  facet normal 0 0 1
    outer loop
      vertex 15 10 20
      vertex 6.06066 3.06066 20
      vertex 6.2472 2.83335 20
    endloop
  endfacet
  facet normal 0 0 1
    outer loop
      vertex 15 10 20
      vertex 5.83335 3.2472 20
      vertex 6.06066 3.06066 20
    endloop
  endfacet
  facet normal 0 0 1
    outer loop
      vertex 15 10 20
      vertex 5.57402 3.38582 20
      vertex 5.83335 3.2472 20
    endloop
  endfacet
  facet normal 0 0 1
    outer loop
      vertex 15 10 20
      vertex 5.29263 3.47118 20
      vertex 5.57402 3.38582 20
    endloop
  endfacet
  facet normal -0 0 1
    outer loop
      vertex 0 10 20
      vertex 5.29263 3.47118 20
      vertex 15 10 20
    endloop
  endfacet
  facet normal 0 0 1
    outer loop
      vertex 5.29263 3.47118 20
      vertex 0 10 20
      vertex 5 3.5 20
    endloop
  endfacet
  facet normal 0 0 1
    outer loop
      vertex 5 3.5 20
      vertex 0 10 20
      vertex 4.70736 3.47118 20
    endloop
  endfacet
  facet normal 0 0 1
    outer loop
      vertex 4.70736 3.47118 20
      vertex 0 10 20
      vertex 4.42597 3.38582 20
    endloop
  endfacet
  facet normal 0 0 1
    outer loop
      vertex 3.61418 2.57402 20
      vertex 0 0 20
      vertex 3.52882 2.29263 20
    endloop
  endfacet
  facet normal 0 0 1
    outer loop
      vertex 0 0 20
      vertex 3.61418 2.57402 20
      vertex 0 10 20
    endloop
  endfacet
  facet normal 0 0 1
    outer loop
      vertex 3.7528 2.83335 20
      vertex 0 10 20
      vertex 3.61418 2.57402 20
    endloop
  endfacet
  facet normal 0 0 1
    outer loop
      vertex 3.93934 3.06066 20
      vertex 0 10 20
      vertex 3.7528 2.83335 20
    endloop
  endfacet
  facet normal 0 0 1
    outer loop
      vertex 4.16664 3.2472 20
      vertex 0 10 20
      vertex 3.93934 3.06066 20
    endloop
  endfacet
  facet normal 0 0 1
    outer loop
      vertex 4.42597 3.38582 20
      vertex 0 10 20
      vertex 4.16664 3.2472 20
    endloop
  endfacet
  facet normal -0 0 1
    outer loop
      vertex 6.47118 1.70736 20
      vertex 15 0 20
      vertex 6.5 2 20
    endloop
  endfacet
  facet normal -0 0 1
    outer loop
      vertex 6.38582 1.42597 20
      vertex 15 0 20
      vertex 6.47118 1.70736 20
    endloop
  endfacet
  facet normal -0 0 1
    outer loop
      vertex 6.2472 1.16664 20
      vertex 15 0 20
      vertex 6.38582 1.42597 20
    endloop
  endfacet
  facet normal -0 0 1
    outer loop
      vertex 6.06066 0.93934 20
      vertex 15 0 20
      vertex 6.2472 1.16664 20
    endloop
  endfacet
  facet normal -0 0 1
    outer loop
      vertex 5.83335 0.752795 20
      vertex 15 0 20
      vertex 6.06066 0.93934 20
    endloop
  endfacet
  facet normal -0 0 1
    outer loop
      vertex 5.57402 0.614181 20
      vertex 15 0 20
      vertex 5.83335 0.752795 20
    endloop
  endfacet
  facet normal -0 0 1
    outer loop
      vertex 5.29263 0.528822 20
      vertex 15 0 20
      vertex 5.57402 0.614181 20
    endloop
  endfacet
  facet normal -0 0 1
    outer loop
      vertex 5 0.5 20
      vertex 15 0 20
      vertex 5.29263 0.528822 20
    endloop
  endfacet
  facet normal 0 0 1
    outer loop
      vertex 3.52882 2.29263 20
      vertex 0 0 20
      vertex 3.5 2 20
    endloop
  endfacet
  facet normal 0 0 1
    outer loop
      vertex 3.5 2 20
      vertex 0 0 20
      vertex 3.52882 1.70736 20
    endloop
  endfacet
  facet normal 0 0 1
    outer loop
      vertex 5 0.5 20
      vertex 0 0 20
      vertex 15 0 20
    endloop
  endfacet
  facet normal 0 0 1
    outer loop
      vertex 4.70736 0.528822 20
      vertex 0 0 20
      vertex 5 0.5 20
    endloop
  endfacet
  facet normal 0 0 1
    outer loop
      vertex 4.42597 0.614181 20
      vertex 0 0 20
      vertex 4.70736 0.528822 20
    endloop
  endfacet
  facet normal 0 0 1
    outer loop
      vertex 4.16664 0.752795 20
      vertex 0 0 20
      vertex 4.42597 0.614181 20
    endloop
  endfacet
  facet normal 0 0 1
    outer loop
      vertex 3.93934 0.93934 20
      vertex 0 0 20
      vertex 4.16664 0.752795 20
    endloop
  endfacet
  facet normal 0 0 1
    outer loop
      vertex 3.7528 1.16664 20
      vertex 0 0 20
      vertex 3.93934 0.93934 20
    endloop
  endfacet
  facet normal 0 0 1
    outer loop
      vertex 3.61418 1.42597 20
      vertex 0 0 20
      vertex 3.7528 1.16664 20
    endloop
  endfacet
  facet normal 0 0 1
    outer loop
      vertex 3.52882 1.70736 20
      vertex 0 0 20
      vertex 3.61418 1.42597 20
    endloop
  endfacet
  facet normal 0 0 -1
    outer loop
      vertex 0 0 0
      vertex 15 10 0
      vertex 15 0 0
    endloop
  endfacet
  facet normal -0 0 -1
    outer loop
      vertex 15 10 0
      vertex 0 0 0
      vertex 0 10 0
    endloop
  endfacet
  facet normal -1 0 0
    outer loop
      vertex 0 0 0
      vertex 0 10 20
      vertex 0 10 0
    endloop
  endfacet
  facet normal -1 -0 0
    outer loop
      vertex 0 10 20
      vertex 0 0 0
      vertex 0 0 20
    endloop
  endfacet
  facet normal 0 1 -0
    outer loop
      vertex 15 10 0
      vertex 0 10 20
      vertex 15 10 20
    endloop
  endfacet
  facet normal 0 1 0
    outer loop
      vertex 0 10 20
      vertex 15 10 0
      vertex 0 10 0
    endloop
  endfacet
  facet normal 0 -1 0
    outer loop
      vertex 0 0 0
      vertex 15 0 20
      vertex 0 0 20
    endloop
  endfacet
  facet normal 0 -1 -0
    outer loop
      vertex 15 0 20
      vertex 0 0 0
      vertex 15 0 0
    endloop
  endfacet
  facet normal -0.290286 0.95694 0
    outer loop
      vertex 5.57402 0.614181 18.5
      vertex 5.29263 0.528822 20
      vertex 5.57402 0.614181 20
    endloop
  endfacet
  facet normal -0.290286 0.95694 0
    outer loop
      vertex 5.29263 0.528822 20
      vertex 5.57402 0.614181 18.5
      vertex 5.29263 0.528822 18.5
    endloop
  endfacet
  facet normal -0.956939 -0.290289 0
    outer loop
      vertex 6.47118 2.29263 18.5
      vertex 6.38582 2.57402 20
      vertex 6.38582 2.57402 18.5
    endloop
  endfacet
  facet normal -0.956939 -0.290289 0
    outer loop
      vertex 6.38582 2.57402 20
      vertex 6.47118 2.29263 18.5
      vertex 6.47118 2.29263 20
    endloop
  endfacet
  facet normal -0.995185 -0.098012 0
    outer loop
      vertex 6.5 2 18.5
      vertex 6.47118 2.29263 20
      vertex 6.47118 2.29263 18.5
    endloop
  endfacet
  facet normal -0.995185 -0.098012 0
    outer loop
      vertex 6.47118 2.29263 20
      vertex 6.5 2 18.5
      vertex 6.5 2 20
    endloop
  endfacet
  facet normal -0.881914 -0.471411 0
    outer loop
      vertex 6.38582 2.57402 18.5
      vertex 6.2472 2.83335 20
      vertex 6.2472 2.83335 18.5
    endloop
  endfacet
  facet normal -0.881914 -0.471411 0
    outer loop
      vertex 6.2472 2.83335 20
      vertex 6.38582 2.57402 18.5
      vertex 6.38582 2.57402 20
    endloop
  endfacet
  facet normal 0 0 1
    outer loop
      vertex 6.47118 2.29263 18.5
      vertex 6.47118 1.70736 18.5
      vertex 6.5 2 18.5
    endloop
  endfacet
  facet normal 0 0 1
    outer loop
      vertex 6.38582 2.57402 18.5
      vertex 6.47118 1.70736 18.5
      vertex 6.47118 2.29263 18.5
    endloop
  endfacet
  facet normal 0 0 1
    outer loop
      vertex 6.38582 2.57402 18.5
      vertex 6.38582 1.42597 18.5
      vertex 6.47118 1.70736 18.5
    endloop
  endfacet
  facet normal 0 0 1
    outer loop
      vertex 6.2472 2.83335 18.5
      vertex 6.38582 1.42597 18.5
      vertex 6.38582 2.57402 18.5
    endloop
  endfacet
  facet normal 0 0 1
    outer loop
      vertex 6.2472 2.83335 18.5
      vertex 6.2472 1.16664 18.5
      vertex 6.38582 1.42597 18.5
    endloop
  endfacet
  facet normal 0 0 1
    outer loop
      vertex 6.06066 3.06066 18.5
      vertex 6.2472 1.16664 18.5
      vertex 6.2472 2.83335 18.5
    endloop
  endfacet
  facet normal 0 0 1
    outer loop
      vertex 6.06066 3.06066 18.5
      vertex 6.06066 0.93934 18.5
      vertex 6.2472 1.16664 18.5
    endloop
  endfacet
  facet normal 0 0 1
    outer loop
      vertex 5.83335 3.2472 18.5
      vertex 6.06066 0.93934 18.5
      vertex 6.06066 3.06066 18.5
    endloop
  endfacet
  facet normal 0 0 1
    outer loop
      vertex 5.83335 3.2472 18.5
      vertex 5.83335 0.752795 18.5
      vertex 6.06066 0.93934 18.5
    endloop
  endfacet
  facet normal 0 0 1
    outer loop
      vertex 5.57402 3.38582 18.5
      vertex 5.83335 0.752795 18.5
      vertex 5.83335 3.2472 18.5
    endloop
  endfacet
  facet normal 0 0 1
    outer loop
      vertex 5.57402 3.38582 18.5
      vertex 5.57402 0.614181 18.5
      vertex 5.83335 0.752795 18.5
    endloop
  endfacet
  facet normal 0 0 1
    outer loop
      vertex 5.29263 3.47118 18.5
      vertex 5.57402 0.614181 18.5
      vertex 5.57402 3.38582 18.5
    endloop
  endfacet
  facet normal 0 0 1
    outer loop
      vertex 5.29263 3.47118 18.5
      vertex 5.29263 0.528822 18.5
      vertex 5.57402 0.614181 18.5
    endloop
  endfacet
  facet normal 0 0 1
    outer loop
      vertex 5 3.5 18.5
      vertex 5.29263 0.528822 18.5
      vertex 5.29263 3.47118 18.5
    endloop
  endfacet
  facet normal 0 0 1
    outer loop
      vertex 5 3.5 18.5
      vertex 5 0.5 18.5
      vertex 5.29263 0.528822 18.5
    endloop
  endfacet
  facet normal -0 0 1
    outer loop
      vertex 4.70736 3.47118 18.5
      vertex 5 0.5 18.5
      vertex 5 3.5 18.5
    endloop
  endfacet
  facet normal 0 0 1
    outer loop
      vertex 4.70736 3.47118 18.5
      vertex 4.70736 0.528822 18.5
      vertex 5 0.5 18.5
    endloop
  endfacet
  facet normal -0 0 1
    outer loop
      vertex 4.42597 3.38582 18.5
      vertex 4.70736 0.528822 18.5
      vertex 4.70736 3.47118 18.5
    endloop
  endfacet
  facet normal 0 0 1
    outer loop
      vertex 4.42597 3.38582 18.5
      vertex 4.42597 0.614181 18.5
      vertex 4.70736 0.528822 18.5
    endloop
  endfacet
  facet normal -0 0 1
    outer loop
      vertex 4.16664 3.2472 18.5
      vertex 4.42597 0.614181 18.5
      vertex 4.42597 3.38582 18.5
    endloop
  endfacet
  facet normal 0 0 1
    outer loop
      vertex 4.16664 3.2472 18.5
      vertex 4.16664 0.752795 18.5
      vertex 4.42597 0.614181 18.5
    endloop
  endfacet
  facet normal -0 0 1
    outer loop
      vertex 3.93934 3.06066 18.5
      vertex 4.16664 0.752795 18.5
      vertex 4.16664 3.2472 18.5
    endloop
  endfacet
  facet normal 0 0 1
    outer loop
      vertex 3.93934 3.06066 18.5
      vertex 3.93934 0.93934 18.5
      vertex 4.16664 0.752795 18.5
    endloop
  endfacet
  facet normal -0 0 1
    outer loop
      vertex 3.7528 2.83335 18.5
      vertex 3.93934 0.93934 18.5
      vertex 3.93934 3.06066 18.5
    endloop
  endfacet
  facet normal 0 0 1
    outer loop
      vertex 3.7528 2.83335 18.5
      vertex 3.7528 1.16664 18.5
      vertex 3.93934 0.93934 18.5
    endloop
  endfacet
  facet normal -0 0 1
    outer loop
      vertex 3.61418 2.57402 18.5
      vertex 3.7528 1.16664 18.5
      vertex 3.7528 2.83335 18.5
    endloop
  endfacet
  facet normal 0 0 1
    outer loop
      vertex 3.61418 2.57402 18.5
      vertex 3.61418 1.42597 18.5
      vertex 3.7528 1.16664 18.5
    endloop
  endfacet
  facet normal -0 0 1
    outer loop
      vertex 3.52882 2.29263 18.5
      vertex 3.61418 1.42597 18.5
      vertex 3.61418 2.57402 18.5
    endloop
  endfacet
  facet normal 0 0 1
    outer loop
      vertex 3.52882 2.29263 18.5
      vertex 3.52882 1.70736 18.5
      vertex 3.61418 1.42597 18.5
    endloop
  endfacet
  facet normal 0 -0 1
    outer loop
      vertex 3.52882 1.70736 18.5
      vertex 3.52882 2.29263 18.5
      vertex 3.5 2 18.5
    endloop
  endfacet
  facet normal 0.881914 0.471411 0
    outer loop
      vertex 3.7528 1.16664 20
      vertex 3.61418 1.42597 18.5
      vertex 3.61418 1.42597 20
    endloop
  endfacet
  facet normal 0.881914 0.471411 0
    outer loop
      vertex 3.61418 1.42597 18.5
      vertex 3.7528 1.16664 20
      vertex 3.7528 1.16664 18.5
    endloop
  endfacet
  facet normal -0.290289 -0.956939 0
    outer loop
      vertex 5.29263 3.47118 18.5
      vertex 5.57402 3.38582 20
      vertex 5.29263 3.47118 20
    endloop
  endfacet
  facet normal -0.290289 -0.956939 -0
    outer loop
      vertex 5.57402 3.38582 20
      vertex 5.29263 3.47118 18.5
      vertex 5.57402 3.38582 18.5
    endloop
  endfacet
  facet normal 0.0980086 -0.995186 0
    outer loop
      vertex 4.70736 3.47118 18.5
      vertex 5 3.5 20
      vertex 4.70736 3.47118 20
    endloop
  endfacet
  facet normal 0.0980086 -0.995186 0
    outer loop
      vertex 5 3.5 20
      vertex 4.70736 3.47118 18.5
      vertex 5 3.5 18.5
    endloop
  endfacet
  facet normal 0.471395 0.881922 -0
    outer loop
      vertex 4.42597 0.614181 18.5
      vertex 4.16664 0.752795 20
      vertex 4.42597 0.614181 20
    endloop
  endfacet
  facet normal 0.471395 0.881922 0
    outer loop
      vertex 4.16664 0.752795 20
      vertex 4.42597 0.614181 18.5
      vertex 4.16664 0.752795 18.5
    endloop
  endfacet
  facet normal 0.471411 -0.881914 0
    outer loop
      vertex 4.16664 3.2472 18.5
      vertex 4.42597 3.38582 20
      vertex 4.16664 3.2472 20
    endloop
  endfacet
  facet normal 0.471411 -0.881914 0
    outer loop
      vertex 4.42597 3.38582 20
      vertex 4.16664 3.2472 18.5
      vertex 4.42597 3.38582 18.5
    endloop
  endfacet
  facet normal -0.471395 0.881922 0
    outer loop
      vertex 5.83335 0.752795 18.5
      vertex 5.57402 0.614181 20
      vertex 5.83335 0.752795 20
    endloop
  endfacet
  facet normal -0.471395 0.881922 0
    outer loop
      vertex 5.57402 0.614181 20
      vertex 5.83335 0.752795 18.5
      vertex 5.57402 0.614181 18.5
    endloop
  endfacet
  facet normal 0.773025 -0.634376 0
    outer loop
      vertex 3.7528 2.83335 20
      vertex 3.93934 3.06066 18.5
      vertex 3.93934 3.06066 20
    endloop
  endfacet
  facet normal 0.773025 -0.634376 0
    outer loop
      vertex 3.93934 3.06066 18.5
      vertex 3.7528 2.83335 20
      vertex 3.7528 2.83335 18.5
    endloop
  endfacet
  facet normal -0.773025 -0.634376 0
    outer loop
      vertex 6.2472 2.83335 18.5
      vertex 6.06066 3.06066 20
      vertex 6.06066 3.06066 18.5
    endloop
  endfacet
  facet normal -0.773025 -0.634376 0
    outer loop
      vertex 6.06066 3.06066 20
      vertex 6.2472 2.83335 18.5
      vertex 6.2472 2.83335 20
    endloop
  endfacet
  facet normal -0.773011 0.634393 0
    outer loop
      vertex 6.06066 0.93934 18.5
      vertex 6.2472 1.16664 20
      vertex 6.2472 1.16664 18.5
    endloop
  endfacet
  facet normal -0.773011 0.634393 0
    outer loop
      vertex 6.2472 1.16664 20
      vertex 6.06066 0.93934 18.5
      vertex 6.06066 0.93934 20
    endloop
  endfacet
  facet normal 0.0980154 0.995185 -0
    outer loop
      vertex 5 0.5 18.5
      vertex 4.70736 0.528822 20
      vertex 5 0.5 20
    endloop
  endfacet
  facet normal 0.0980154 0.995185 0
    outer loop
      vertex 4.70736 0.528822 20
      vertex 5 0.5 18.5
      vertex 4.70736 0.528822 18.5
    endloop
  endfacet
  facet normal 0.290289 -0.956939 0
    outer loop
      vertex 4.42597 3.38582 18.5
      vertex 4.70736 3.47118 20
      vertex 4.42597 3.38582 20
    endloop
  endfacet
  facet normal 0.290289 -0.956939 0
    outer loop
      vertex 4.70736 3.47118 20
      vertex 4.42597 3.38582 18.5
      vertex 4.70736 3.47118 18.5
    endloop
  endfacet
  facet normal -0.634386 0.773016 0
    outer loop
      vertex 6.06066 0.93934 18.5
      vertex 5.83335 0.752795 20
      vertex 6.06066 0.93934 20
    endloop
  endfacet
  facet normal -0.634386 0.773016 0
    outer loop
      vertex 5.83335 0.752795 20
      vertex 6.06066 0.93934 18.5
      vertex 5.83335 0.752795 18.5
    endloop
  endfacet
  facet normal -0.995186 0.0980086 0
    outer loop
      vertex 6.47118 1.70736 18.5
      vertex 6.5 2 20
      vertex 6.5 2 18.5
    endloop
  endfacet
  facet normal -0.995186 0.0980086 0
    outer loop
      vertex 6.5 2 20
      vertex 6.47118 1.70736 18.5
      vertex 6.47118 1.70736 20
    endloop
  endfacet
  facet normal 0.290286 0.95694 -0
    outer loop
      vertex 4.70736 0.528822 18.5
      vertex 4.42597 0.614181 20
      vertex 4.70736 0.528822 20
    endloop
  endfacet
  facet normal 0.290286 0.95694 0
    outer loop
      vertex 4.42597 0.614181 20
      vertex 4.70736 0.528822 18.5
      vertex 4.42597 0.614181 18.5
    endloop
  endfacet
  facet normal -0.956939 0.290289 0
    outer loop
      vertex 6.38582 1.42597 18.5
      vertex 6.47118 1.70736 20
      vertex 6.47118 1.70736 18.5
    endloop
  endfacet
  facet normal -0.956939 0.290289 0
    outer loop
      vertex 6.47118 1.70736 20
      vertex 6.38582 1.42597 18.5
      vertex 6.38582 1.42597 20
    endloop
  endfacet
  facet normal 0.956939 0.290289 0
    outer loop
      vertex 3.61418 1.42597 20
      vertex 3.52882 1.70736 18.5
      vertex 3.52882 1.70736 20
    endloop
  endfacet
  facet normal 0.956939 0.290289 0
    outer loop
      vertex 3.52882 1.70736 18.5
      vertex 3.61418 1.42597 20
      vertex 3.61418 1.42597 18.5
    endloop
  endfacet
  facet normal -0.881914 0.471411 0
    outer loop
      vertex 6.2472 1.16664 18.5
      vertex 6.38582 1.42597 20
      vertex 6.38582 1.42597 18.5
    endloop
  endfacet
  facet normal -0.881914 0.471411 0
    outer loop
      vertex 6.38582 1.42597 20
      vertex 6.2472 1.16664 18.5
      vertex 6.2472 1.16664 20
    endloop
  endfacet
  facet normal 0.995185 -0.098012 0
    outer loop
      vertex 3.5 2 20
      vertex 3.52882 2.29263 18.5
      vertex 3.52882 2.29263 20
    endloop
  endfacet
  facet normal 0.995185 -0.098012 0
    outer loop
      vertex 3.52882 2.29263 18.5
      vertex 3.5 2 20
      vertex 3.5 2 18.5
    endloop
  endfacet
  facet normal -0.098012 -0.995185 0
    outer loop
      vertex 5 3.5 18.5
      vertex 5.29263 3.47118 20
      vertex 5 3.5 20
    endloop
  endfacet
  facet normal -0.098012 -0.995185 -0
    outer loop
      vertex 5.29263 3.47118 20
      vertex 5 3.5 18.5
      vertex 5.29263 3.47118 18.5
    endloop
  endfacet
  facet normal 0.634393 -0.773011 0
    outer loop
      vertex 3.93934 3.06066 18.5
      vertex 4.16664 3.2472 20
      vertex 3.93934 3.06066 20
    endloop
  endfacet
  facet normal 0.634393 -0.773011 0
    outer loop
      vertex 4.16664 3.2472 20
      vertex 3.93934 3.06066 18.5
      vertex 4.16664 3.2472 18.5
    endloop
  endfacet
  facet normal -0.634376 -0.773025 0
    outer loop
      vertex 5.83335 3.2472 18.5
      vertex 6.06066 3.06066 20
      vertex 5.83335 3.2472 20
    endloop
  endfacet
  facet normal -0.634376 -0.773025 -0
    outer loop
      vertex 6.06066 3.06066 20
      vertex 5.83335 3.2472 18.5
      vertex 6.06066 3.06066 18.5
    endloop
  endfacet
  facet normal -0.0980187 0.995185 0
    outer loop
      vertex 5.29263 0.528822 18.5
      vertex 5 0.5 20
      vertex 5.29263 0.528822 20
    endloop
  endfacet
  facet normal -0.0980187 0.995185 0
    outer loop
      vertex 5 0.5 20
      vertex 5.29263 0.528822 18.5
      vertex 5 0.5 18.5
    endloop
  endfacet
  facet normal -0.471411 -0.881914 0
    outer loop
      vertex 5.57402 3.38582 18.5
      vertex 5.83335 3.2472 20
      vertex 5.57402 3.38582 20
    endloop
  endfacet
  facet normal -0.471411 -0.881914 -0
    outer loop
      vertex 5.83335 3.2472 20
      vertex 5.57402 3.38582 18.5
      vertex 5.83335 3.2472 18.5
    endloop
  endfacet
  facet normal 0.773011 0.634393 0
    outer loop
      vertex 3.93934 0.93934 20
      vertex 3.7528 1.16664 18.5
      vertex 3.7528 1.16664 20
    endloop
  endfacet
  facet normal 0.773011 0.634393 0
    outer loop
      vertex 3.7528 1.16664 18.5
      vertex 3.93934 0.93934 20
      vertex 3.93934 0.93934 18.5
    endloop
  endfacet
  facet normal 0.634403 0.773003 -0
    outer loop
      vertex 4.16664 0.752795 18.5
      vertex 3.93934 0.93934 20
      vertex 4.16664 0.752795 20
    endloop
  endfacet
  facet normal 0.634403 0.773003 0
    outer loop
      vertex 3.93934 0.93934 20
      vertex 4.16664 0.752795 18.5
      vertex 3.93934 0.93934 18.5
    endloop
  endfacet
  facet normal 0.956939 -0.290289 0
    outer loop
      vertex 3.52882 2.29263 20
      vertex 3.61418 2.57402 18.5
      vertex 3.61418 2.57402 20
    endloop
  endfacet
  facet normal 0.956939 -0.290289 0
    outer loop
      vertex 3.61418 2.57402 18.5
      vertex 3.52882 2.29263 20
      vertex 3.52882 2.29263 18.5
    endloop
  endfacet
  facet normal 0.881914 -0.471411 0
    outer loop
      vertex 3.61418 2.57402 20
      vertex 3.7528 2.83335 18.5
      vertex 3.7528 2.83335 20
    endloop
  endfacet
  facet normal 0.881914 -0.471411 0
    outer loop
      vertex 3.7528 2.83335 18.5
      vertex 3.61418 2.57402 20
      vertex 3.61418 2.57402 18.5
    endloop
  endfacet
  facet normal 0.995186 0.0980086 0
    outer loop
      vertex 3.52882 1.70736 20
      vertex 3.5 2 18.5
      vertex 3.5 2 20
    endloop
  endfacet
  facet normal 0.995186 0.0980086 0
    outer loop
      vertex 3.5 2 18.5
      vertex 3.52882 1.70736 20
      vertex 3.52882 1.70736 18.5
    endloop
  endfacet
endsolid OpenSCAD_Model
