solid OpenSCAD_Model
  facet normal -0.568064 0.822984 0
    outer loop
      vertex -1.41842 3.74006 0
      vertex -2.99404 2.65249 50
      vertex -1.41842 3.74006 50
    endloop
  endfacet
  facet normal -0.568064 0.822984 0
    outer loop
      vertex -2.99404 2.65249 50
      vertex -1.41842 3.74006 0
      vertex -2.99404 2.65249 0
    endloop
  endfacet
  facet normal 0.748511 0.663122 0
    outer loop
      vertex 3.54182 1.85889 50
      vertex 2.27226 3.29193 0
      vertex 2.27226 3.29193 50
    endloop
  endfacet
  facet normal 0.748511 0.663122 0
    outer loop
      vertex 2.27226 3.29193 0
      vertex 3.54182 1.85889 50
      vertex 3.54182 1.85889 0
    endloop
  endfacet
  facet normal 0.970941 0.239318 0
    outer loop
      vertex 4 0 50
      vertex 3.54182 1.85889 0
      vertex 3.54182 1.85889 50
    endloop
  endfacet
  facet normal 0.970941 0.239318 0
    outer loop
      vertex 3.54182 1.85889 0
      vertex 4 0 50
      vertex 4 0 0
    endloop
  endfacet
  facet normal -1 0 0
    outer loop
      vertex -3.88377 -0.957262 0
      vertex -3.88377 0.957262 50
      vertex -3.88377 0.957262 0
    endloop
  endfacet
  facet normal -1 -0 0
    outer loop
      vertex -3.88377 0.957262 50
      vertex -3.88377 -0.957262 0
      vertex -3.88377 -0.957262 50
    endloop
  endfacet
  facet normal -0.885455 0.464726 0
    outer loop
      vertex -3.88377 0.957262 0
      vertex -2.99404 2.65249 50
      vertex -2.99404 2.65249 0
    endloop
  endfacet
  facet normal -0.885455 0.464726 0
    outer loop
      vertex -2.99404 2.65249 50
      vertex -3.88377 0.957262 0
      vertex -3.88377 0.957262 50
    endloop
  endfacet
  facet normal 0.354605 0.935016 -0
    outer loop
      vertex 2.27226 3.29193 0
      vertex 0.482146 3.97083 50
      vertex 2.27226 3.29193 50
    endloop
  endfacet
  facet normal 0.354605 0.935016 0
    outer loop
      vertex 0.482146 3.97083 50
      vertex 2.27226 3.29193 0
      vertex 0.482146 3.97083 0
    endloop
  endfacet
  facet normal 0.970941 -0.239318 0
    outer loop
      vertex 3.54182 -1.85889 50
      vertex 4 0 0
      vertex 4 0 50
    endloop
  endfacet
  facet normal 0.970941 -0.239318 0
    outer loop
      vertex 4 0 0
      vertex 3.54182 -1.85889 50
      vertex 3.54182 -1.85889 0
    endloop
  endfacet
  facet normal 0 0 1
    outer loop
      vertex 1 0 50
      vertex 4 0 50
      vertex 3.54182 1.85889 50
    endloop
  endfacet
  facet normal 0 0 1
    outer loop
      vertex 0.309016 0.951056 50
      vertex 3.54182 1.85889 50
      vertex 2.27226 3.29193 50
    endloop
  endfacet
  facet normal 0 0 1
    outer loop
      vertex 4 0 50
      vertex 1 0 50
      vertex 3.54182 -1.85889 50
    endloop
  endfacet
  facet normal -0 0 1
    outer loop
      vertex 0.309016 -0.951056 50
      vertex 3.54182 -1.85889 50
      vertex 1 0 50
    endloop
  endfacet
  facet normal 0 0 1
    outer loop
      vertex 0.309016 0.951056 50
      vertex 2.27226 3.29193 50
      vertex 0.482146 3.97083 50
    endloop
  endfacet
  facet normal 0 0 1
    outer loop
      vertex 3.54182 1.85889 50
      vertex 0.309016 0.951056 50
      vertex 1 0 50
    endloop
  endfacet
  facet normal -0 0 1
    outer loop
      vertex -1.41842 3.74006 50
      vertex 0.309016 0.951056 50
      vertex 0.482146 3.97083 50
    endloop
  endfacet
  facet normal -0 0 1
    outer loop
      vertex -2.99404 2.65249 50
      vertex -0.809016 0.587785 50
      vertex -1.41842 3.74006 50
    endloop
  endfacet
  facet normal 0 0 1
    outer loop
      vertex 0.309016 0.951056 50
      vertex -1.41842 3.74006 50
      vertex -0.809016 0.587785 50
    endloop
  endfacet
  facet normal 0 0 1
    outer loop
      vertex 3.54182 -1.85889 50
      vertex 0.309016 -0.951056 50
      vertex 2.27226 -3.29193 50
    endloop
  endfacet
  facet normal 0 0 1
    outer loop
      vertex 2.27226 -3.29193 50
      vertex 0.309016 -0.951056 50
      vertex 0.482146 -3.97083 50
    endloop
  endfacet
  facet normal 0 0 1
    outer loop
      vertex -1.41842 -3.74006 50
      vertex 0.309016 -0.951056 50
      vertex -0.809016 -0.587785 50
    endloop
  endfacet
  facet normal 0 0 1
    outer loop
      vertex 0.309016 -0.951056 50
      vertex -1.41842 -3.74006 50
      vertex 0.482146 -3.97083 50
    endloop
  endfacet
  facet normal -0 0 1
    outer loop
      vertex -3.88377 0.957262 50
      vertex -0.809016 0.587785 50
      vertex -2.99404 2.65249 50
    endloop
  endfacet
  facet normal 0 0 1
    outer loop
      vertex -0.809016 0.587785 50
      vertex -3.88377 0.957262 50
      vertex -0.809016 -0.587785 50
    endloop
  endfacet
  facet normal 0 0 1
    outer loop
      vertex -0.809016 -0.587785 50
      vertex -2.99404 -2.65249 50
      vertex -1.41842 -3.74006 50
    endloop
  endfacet
  facet normal 0 0 1
    outer loop
      vertex -3.88377 -0.957262 50
      vertex -0.809016 -0.587785 50
      vertex -3.88377 0.957262 50
    endloop
  endfacet
  facet normal 0 0 1
    outer loop
      vertex -0.809016 -0.587785 50
      vertex -3.88377 -0.957262 50
      vertex -2.99404 -2.65249 50
    endloop
  endfacet
  facet normal -0.120536 -0.992709 0
    outer loop
      vertex -1.41842 -3.74006 0
      vertex 0.482146 -3.97083 50
      vertex -1.41842 -3.74006 50
    endloop
  endfacet
  facet normal -0.120536 -0.992709 -0
    outer loop
      vertex 0.482146 -3.97083 50
      vertex -1.41842 -3.74006 0
      vertex 0.482146 -3.97083 0
    endloop
  endfacet
  facet normal 0.748511 -0.663122 0
    outer loop
      vertex 2.27226 -3.29193 50
      vertex 3.54182 -1.85889 0
      vertex 3.54182 -1.85889 50
    endloop
  endfacet
  facet normal 0.748511 -0.663122 0
    outer loop
      vertex 3.54182 -1.85889 0
      vertex 2.27226 -3.29193 50
      vertex 2.27226 -3.29193 0
    endloop
  endfacet
  facet normal 0.354605 -0.935016 0
    outer loop
      vertex 0.482146 -3.97083 0
      vertex 2.27226 -3.29193 50
      vertex 0.482146 -3.97083 50
    endloop
  endfacet
  facet normal 0.354605 -0.935016 0
    outer loop
      vertex 2.27226 -3.29193 50
      vertex 0.482146 -3.97083 0
      vertex 2.27226 -3.29193 0
    endloop
  endfacet
  facet normal -0.120536 0.992709 0
    outer loop
      vertex 0.482146 3.97083 0
      vertex -1.41842 3.74006 50
      vertex 0.482146 3.97083 50
    endloop
  endfacet
  facet normal -0.120536 0.992709 0
    outer loop
      vertex -1.41842 3.74006 50
      vertex 0.482146 3.97083 0
      vertex -1.41842 3.74006 0
    endloop
  endfacet
  facet normal -0.568064 -0.822984 0
    outer loop
      vertex -2.99404 -2.65249 0
      vertex -1.41842 -3.74006 50
      vertex -2.99404 -2.65249 50
    endloop
  endfacet
  facet normal -0.568064 -0.822984 -0
    outer loop
      vertex -1.41842 -3.74006 50
      vertex -2.99404 -2.65249 0
      vertex -1.41842 -3.74006 0
    endloop
  endfacet
  facet normal -0.885455 -0.464726 0
    outer loop
      vertex -2.99404 -2.65249 0
      vertex -3.88377 -0.957262 50
      vertex -3.88377 -0.957262 0
    endloop
  endfacet
  facet normal -0.885455 -0.464726 0
    outer loop
      vertex -3.88377 -0.957262 50
      vertex -2.99404 -2.65249 0
      vertex -2.99404 -2.65249 50
    endloop
  endfacet
  facet normal 0 0 -1
    outer loop
      vertex 1 0 0
      vertex 4 0 0
      vertex 3.54182 -1.85889 0
    endloop
  endfacet
  facet normal 0 0 -1
    outer loop
      vertex 0.309016 -0.951056 0
      vertex 3.54182 -1.85889 0
      vertex 2.27226 -3.29193 0
    endloop
  endfacet
  facet normal 0 0 -1
    outer loop
      vertex 4 0 0
      vertex 1 0 0
      vertex 3.54182 1.85889 0
    endloop
  endfacet
  facet normal 0 0 -1
    outer loop
      vertex 0.309016 0.951056 0
      vertex 3.54182 1.85889 0
      vertex 1 0 0
    endloop
  endfacet
  facet normal 0 0 -1
    outer loop
      vertex 0.309016 -0.951056 0
      vertex 2.27226 -3.29193 0
      vertex 0.482146 -3.97083 0
    endloop
  endfacet
  facet normal 0 0 -1
    outer loop
      vertex 3.54182 -1.85889 0
      vertex 0.309016 -0.951056 0
      vertex 1 0 0
    endloop
  endfacet
  facet normal 0 0 -1
    outer loop
      vertex -1.41842 -3.74006 0
      vertex 0.309016 -0.951056 0
      vertex 0.482146 -3.97083 0
    endloop
  endfacet
  facet normal 0 0 -1
    outer loop
      vertex -2.99404 -2.65249 0
      vertex -0.809016 -0.587785 0
      vertex -1.41842 -3.74006 0
    endloop
  endfacet
  facet normal -0 0 -1
    outer loop
      vertex 0.309016 -0.951056 0
      vertex -1.41842 -3.74006 0
      vertex -0.809016 -0.587785 0
    endloop
  endfacet
  facet normal -0 0 -1
    outer loop
      vertex 3.54182 1.85889 0
      vertex 0.309016 0.951056 0
      vertex 2.27226 3.29193 0
    endloop
  endfacet
  facet normal -0 0 -1
    outer loop
      vertex 2.27226 3.29193 0
      vertex 0.309016 0.951056 0
      vertex 0.482146 3.97083 0
    endloop
  endfacet
  facet normal 0 0 -1
    outer loop
      vertex -1.41842 3.74006 0
      vertex 0.309016 0.951056 0
      vertex -0.809016 0.587785 0
    endloop
  endfacet
  facet normal 0 0 -1
    outer loop
      vertex 0.309016 0.951056 0
      vertex -1.41842 3.74006 0
      vertex 0.482146 3.97083 0
    endloop
  endfacet
  facet normal 0 0 -1
    outer loop
      vertex -3.88377 -0.957262 0
      vertex -0.809016 -0.587785 0
      vertex -2.99404 -2.65249 0
    endloop
  endfacet
  facet normal -0 0 -1
    outer loop
      vertex -0.809016 -0.587785 0
      vertex -3.88377 -0.957262 0
      vertex -0.809016 0.587785 0
    endloop
  endfacet
  facet normal 0 0 -1
    outer loop
      vertex -0.809016 0.587785 0
      vertex -2.99404 2.65249 0
      vertex -1.41842 3.74006 0
    endloop
  endfacet
  facet normal 0 0 -1
    outer loop
      vertex -3.88377 0.957262 0
      vertex -0.809016 0.587785 0
      vertex -3.88377 -0.957262 0
    endloop
  endfacet
  facet normal 0 0 -1
    outer loop
      vertex -0.809016 0.587785 0
      vertex -3.88377 0.957262 0
      vertex -2.99404 2.65249 0
    endloop
  endfacet
  facet normal 0.309017 0.951056 -0
    outer loop
      vertex 0.309016 -0.951056 0
      vertex -0.809016 -0.587785 50
      vertex 0.309016 -0.951056 50
    endloop
  endfacet
  facet normal 0.309017 0.951056 0
    outer loop
      vertex -0.809016 -0.587785 50
      vertex 0.309016 -0.951056 0
      vertex -0.809016 -0.587785 0
    endloop
  endfacet
  facet normal 0.309017 -0.951056 0
    outer loop
      vertex -0.809016 0.587785 0
      vertex 0.309016 0.951056 50
      vertex -0.809016 0.587785 50
    endloop
  endfacet
  facet normal 0.309017 -0.951056 0
    outer loop
      vertex 0.309016 0.951056 50
      vertex -0.809016 0.587785 0
      vertex 0.309016 0.951056 0
    endloop
  endfacet
  facet normal -0.809016 -0.587786 0
    outer loop
      vertex 1 0 0
      vertex 0.309016 0.951056 50
      vertex 0.309016 0.951056 0
    endloop
  endfacet
  facet normal -0.809016 -0.587786 0
    outer loop
      vertex 0.309016 0.951056 50
      vertex 1 0 0
      vertex 1 0 50
    endloop
  endfacet
  facet normal 1 -0 0
    outer loop
      vertex -0.809016 -0.587785 50
      vertex -0.809016 0.587785 0
      vertex -0.809016 0.587785 50
    endloop
  endfacet
  facet normal 1 0 0
    outer loop
      vertex -0.809016 0.587785 0
      vertex -0.809016 -0.587785 50
      vertex -0.809016 -0.587785 0
    endloop
  endfacet
  facet normal -0.809016 0.587786 0
    outer loop
      vertex 0.309016 -0.951056 0
      vertex 1 0 50
      vertex 1 0 0
    endloop
  endfacet
  facet normal -0.809016 0.587786 0
    outer loop
      vertex 1 0 50
      vertex 0.309016 -0.951056 0
      vertex 0.309016 -0.951056 50
    endloop
  endfacet
endsolid OpenSCAD_Model
