solid OpenSCAD_Model
  facet normal 0 0 -1
    outer loop
      vertex 0.927048 -2.85316 0
      vertex 0.484589 -2.7094 0
      vertex 1.2005 -2.47678 0
    endloop
  endfacet
  facet normal 0 -0 -1
    outer loop
      vertex 2.55753 -1.09229 0
      vertex 2.61803 -1.17557 0
      vertex 1.82916 -2.09482 0
    endloop
  endfacet
  facet normal 0 0 -1
    outer loop
      vertex 1.48457 -2.56908 0
      vertex 1.2005 -2.47678 0
      vertex 1.82916 -2.09482 0
    endloop
  endfacet
  facet normal 0 0 -1
    outer loop
      vertex 1.18617 0 0
      vertex 1.09309 -0.495483 0
      vertex 1.09309 -0.0302429 0
    endloop
  endfacet
  facet normal 0 0 -1
    outer loop
      vertex 1.92705 -2.12662 0
      vertex 1.82916 -2.09482 0
      vertex 2.61803 -1.17557 0
    endloop
  endfacet
  facet normal 0 0 -1
    outer loop
      vertex 1.18617 0 0
      vertex 1.09309 0.0302429 0
      vertex 1.09309 0.495483 0
    endloop
  endfacet
  facet normal 0 0 -1
    outer loop
      vertex 2.55753 -1.09229 0
      vertex 2.72653 -0.376389 0
      vertex 2.9021 -0.618027 0
    endloop
  endfacet
  facet normal 0 -0 -1
    outer loop
      vertex 0.484589 2.7094 0
      vertex 1.2005 2.47678 0
      vertex 0.366547 1.12813 0
    endloop
  endfacet
  facet normal 0 0 -1
    outer loop
      vertex 2.72653 -0.376389 0
      vertex 2.72653 0.376389 0
      vertex 3 0 0
    endloop
  endfacet
  facet normal 0 0 -1
    outer loop
      vertex 1.09309 0.495483 0
      vertex 0.809006 0.886475 0
      vertex 1.82916 2.09482 0
    endloop
  endfacet
  facet normal 0 0 -1
    outer loop
      vertex 1.82916 2.09482 0
      vertex 2.61803 1.17557 0
      vertex 2.55753 1.09229 0
    endloop
  endfacet
  facet normal -0 0 -1
    outer loop
      vertex 2.9021 0.618027 0
      vertex 2.72653 0.376389 0
      vertex 2.55753 1.09229 0
    endloop
  endfacet
  facet normal 0 0 -1
    outer loop
      vertex -0.133438 1.1927 0
      vertex 0.484589 2.7094 0
      vertex 0.366547 1.12813 0
    endloop
  endfacet
  facet normal 0 0 -1
    outer loop
      vertex 2.61803 1.17557 0
      vertex 1.82916 2.09482 0
      vertex 1.92705 2.12662 0
    endloop
  endfacet
  facet normal 0 0 -1
    outer loop
      vertex 1.2005 2.47678 0
      vertex 1.48457 2.56908 0
      vertex 1.82916 2.09482 0
    endloop
  endfacet
  facet normal 0 0 -1
    outer loop
      vertex -1.98457 1.90712 0
      vertex -0.593094 1.04335 0
      vertex -0.959641 0.69722 0
    endloop
  endfacet
  facet normal 0 0 -1
    outer loop
      vertex 0.484589 2.7094 0
      vertex 0.927048 2.85316 0
      vertex 1.2005 2.47678 0
    endloop
  endfacet
  facet normal 0 0 -1
    outer loop
      vertex -0.133438 1.1927 0
      vertex -1.42705 2.38696 0
      vertex -0.24852 2.7699 0
    endloop
  endfacet
  facet normal 0 0 -1
    outer loop
      vertex -0.24852 2.7699 0
      vertex 0.309006 2.95105 0
      vertex 0.484589 2.7094 0
    endloop
  endfacet
  facet normal 0 0 -1
    outer loop
      vertex -1.17557 0.241653 0
      vertex -2.42705 1.29811 0
      vertex -0.959641 0.69722 0
    endloop
  endfacet
  facet normal 0 0 -1
    outer loop
      vertex -1.42705 2.38696 0
      vertex -1.42705 2.48988 0
      vertex -0.24852 2.7699 0
    endloop
  endfacet
  facet normal -0 0 -1
    outer loop
      vertex -0.24852 2.7699 0
      vertex -1.42705 2.48988 0
      vertex -0.309006 2.85316 0
    endloop
  endfacet
  facet normal 0 0 -1
    outer loop
      vertex -1.98457 1.90712 0
      vertex -1.98457 2.20581 0
      vertex -1.42705 2.38696 0
    endloop
  endfacet
  facet normal 0 0 -1
    outer loop
      vertex -1.42705 -2.38696 0
      vertex -0.593094 -1.04335 0
      vertex -0.133438 -1.1927 0
    endloop
  endfacet
  facet normal 0 0 -1
    outer loop
      vertex -2.42705 1.29811 0
      vertex -2.42705 1.76335 0
      vertex -1.98457 1.90712 0
    endloop
  endfacet
  facet normal 0 0 -1
    outer loop
      vertex -2.42705 -1.29811 0
      vertex -1.17557 -0.241653 0
      vertex -0.959641 -0.69722 0
    endloop
  endfacet
  facet normal 0 0 -1
    outer loop
      vertex -1.42705 -2.38696 0
      vertex -1.98457 -1.90712 0
      vertex -0.593094 -1.04335 0
    endloop
  endfacet
  facet normal 0 0 -1
    outer loop
      vertex -2.42705 1.29811 0
      vertex -2.71112 0.619583 0
      vertex -2.71112 1.20581 0
    endloop
  endfacet
  facet normal 0 0 -1
    outer loop
      vertex -2.71112 -0.619583 0
      vertex -2.80901 -0.587784 0
      vertex -2.80901 0.587784 0
    endloop
  endfacet
  facet normal 0 0 -1
    outer loop
      vertex -1.98457 -1.90712 0
      vertex -2.42705 -1.76335 0
      vertex -2.42705 -1.29811 0
    endloop
  endfacet
  facet normal -0 0 -1
    outer loop
      vertex -0.593094 -1.04335 0
      vertex -1.98457 -1.90712 0
      vertex -0.959641 -0.69722 0
    endloop
  endfacet
  facet normal 0 0 -1
    outer loop
      vertex -2.71112 -0.619583 0
      vertex -2.80901 0.587784 0
      vertex -2.71112 0.619583 0
    endloop
  endfacet
  facet normal 0 0 -1
    outer loop
      vertex -0.24852 -2.7699 0
      vertex -1.42705 -2.38696 0
      vertex -0.133438 -1.1927 0
    endloop
  endfacet
  facet normal -0 -0 -1
    outer loop
      vertex -1.17557 0.241653 0
      vertex -1.17557 -0.241653 0
      vertex -2.71112 0.619583 0
    endloop
  endfacet
  facet normal 0 0 -1
    outer loop
      vertex -2.42705 -1.29811 0
      vertex -2.71112 -1.20581 0
      vertex -2.71112 -0.619583 0
    endloop
  endfacet
  facet normal 0 0 -1
    outer loop
      vertex 0.366547 -1.12813 0
      vertex 0.809006 -0.886475 0
      vertex 1.2005 -2.47678 0
    endloop
  endfacet
  facet normal -0 0 -1
    outer loop
      vertex -0.24852 -2.7699 0
      vertex -0.309006 -2.85316 0
      vertex -1.42705 -2.48988 0
    endloop
  endfacet
  facet normal 0 0 -1
    outer loop
      vertex -1.98457 -1.90712 0
      vertex -1.42705 -2.38696 0
      vertex -1.98457 -2.20581 0
    endloop
  endfacet
  facet normal 0 0 -1
    outer loop
      vertex 0.484589 -2.7094 0
      vertex 0.309006 -2.95105 0
      vertex -0.24852 -2.7699 0
    endloop
  endfacet
  facet normal -0 0 -1
    outer loop
      vertex 0.484589 -2.7094 0
      vertex -0.24852 -2.7699 0
      vertex -0.133438 -1.1927 0
    endloop
  endfacet
  facet normal 0 0 -1
    outer loop
      vertex -0.24852 -2.7699 0
      vertex -1.42705 -2.48988 0
      vertex -1.42705 -2.38696 0
    endloop
  endfacet
  facet normal 0 -0 -1
    outer loop
      vertex -0.309006 -0.95105 0
      vertex -0.133438 -1.1927 0
      vertex -0.593094 -1.04335 0
    endloop
  endfacet
  facet normal 0 0 -1
    outer loop
      vertex 1.09309 -0.495483 0
      vertex 0.809006 -0.886475 0
      vertex 0.809006 -0.587784 0
    endloop
  endfacet
  facet normal 0 0 -1
    outer loop
      vertex -0.959641 -0.69722 0
      vertex -1.17557 -0.241653 0
      vertex -0.9021 -0.618027 0
    endloop
  endfacet
  facet normal 0 0 -1
    outer loop
      vertex 1.18617 0 0
      vertex 1.09309 0.495483 0
      vertex 2.72653 0.376389 0
    endloop
  endfacet
  facet normal 0 0 -1
    outer loop
      vertex -0.593094 -1.04335 0
      vertex -0.959641 -0.69722 0
      vertex -0.866547 -0.666977 0
    endloop
  endfacet
  facet normal 0 0 -1
    outer loop
      vertex -2.71112 -0.619583 0
      vertex -1.17557 -0.241653 0
      vertex -2.42705 -1.29811 0
    endloop
  endfacet
  facet normal 0 0 -1
    outer loop
      vertex -2.42705 -1.29811 0
      vertex -0.959641 -0.69722 0
      vertex -1.98457 -1.90712 0
    endloop
  endfacet
  facet normal -0 0 -1
    outer loop
      vertex -1.17557 -0.241653 0
      vertex -2.71112 -0.619583 0
      vertex -2.71112 0.619583 0
    endloop
  endfacet
  facet normal -0 0 -1
    outer loop
      vertex -1 0 0
      vertex -1.17557 -0.241653 0
      vertex -1.17557 0.241653 0
    endloop
  endfacet
  facet normal 0 0 -1
    outer loop
      vertex -0.959641 0.69722 0
      vertex -0.593094 1.04335 0
      vertex -0.866547 0.666977 0
    endloop
  endfacet
  facet normal -0 0 -1
    outer loop
      vertex -0.9021 0.618027 0
      vertex -1.17557 0.241653 0
      vertex -0.959641 0.69722 0
    endloop
  endfacet
  facet normal 0 0 -1
    outer loop
      vertex -1.17557 0.241653 0
      vertex -2.71112 0.619583 0
      vertex -2.42705 1.29811 0
    endloop
  endfacet
  facet normal 0 0 -1
    outer loop
      vertex -1.98457 1.90712 0
      vertex -1.42705 2.38696 0
      vertex -0.593094 1.04335 0
    endloop
  endfacet
  facet normal 0 -0 -1
    outer loop
      vertex -1.98457 1.90712 0
      vertex -0.959641 0.69722 0
      vertex -2.42705 1.29811 0
    endloop
  endfacet
  facet normal 0 0 -1
    outer loop
      vertex -0.593094 1.04335 0
      vertex -1.42705 2.38696 0
      vertex -0.133438 1.1927 0
    endloop
  endfacet
  facet normal 0 0 -1
    outer loop
      vertex -0.309006 0.95105 0
      vertex -0.593094 1.04335 0
      vertex -0.133438 1.1927 0
    endloop
  endfacet
  facet normal -0 0 -1
    outer loop
      vertex 1.82916 -2.09482 0
      vertex 1.2005 -2.47678 0
      vertex 0.809006 -0.886475 0
    endloop
  endfacet
  facet normal 0 0 -1
    outer loop
      vertex 0.809006 0.886475 0
      vertex 0.366547 1.03024 0
      vertex 0.366547 1.12813 0
    endloop
  endfacet
  facet normal 0 0 -1
    outer loop
      vertex 0.309006 1.04893 0
      vertex -0.133438 1.1927 0
      vertex 0.366547 1.12813 0
    endloop
  endfacet
  facet normal 0 0 -1
    outer loop
      vertex -0.133438 1.1927 0
      vertex -0.24852 2.7699 0
      vertex 0.484589 2.7094 0
    endloop
  endfacet
  facet normal 0 -0 -1
    outer loop
      vertex 1.2005 2.47678 0
      vertex 1.82916 2.09482 0
      vertex 0.809006 0.886475 0
    endloop
  endfacet
  facet normal 0 0 -1
    outer loop
      vertex 0.366547 1.12813 0
      vertex 1.2005 2.47678 0
      vertex 0.809006 0.886475 0
    endloop
  endfacet
  facet normal 0 0 -1
    outer loop
      vertex 1.09309 0.495483 0
      vertex 0.809006 0.587784 0
      vertex 0.809006 0.886475 0
    endloop
  endfacet
  facet normal -0 0 -1
    outer loop
      vertex 2.55753 1.09229 0
      vertex 1.09309 0.495483 0
      vertex 1.82916 2.09482 0
    endloop
  endfacet
  facet normal -0 0 -1
    outer loop
      vertex 2.72653 -0.376389 0
      vertex 1.09309 -0.495483 0
      vertex 1.18617 0 0
    endloop
  endfacet
  facet normal 0 0 -1
    outer loop
      vertex 2.72653 0.376389 0
      vertex 1.09309 0.495483 0
      vertex 2.55753 1.09229 0
    endloop
  endfacet
  facet normal 0 0 -1
    outer loop
      vertex 2.55753 -1.09229 0
      vertex 1.09309 -0.495483 0
      vertex 2.72653 -0.376389 0
    endloop
  endfacet
  facet normal 0 0 -1
    outer loop
      vertex 2.72653 -0.376389 0
      vertex 1.18617 0 0
      vertex 2.72653 0.376389 0
    endloop
  endfacet
  facet normal 0 0 -1
    outer loop
      vertex 0.809006 -0.886475 0
      vertex 1.09309 -0.495483 0
      vertex 1.82916 -2.09482 0
    endloop
  endfacet
  facet normal 0 0 -1
    outer loop
      vertex 1.82916 -2.09482 0
      vertex 1.09309 -0.495483 0
      vertex 2.55753 -1.09229 0
    endloop
  endfacet
  facet normal 0 0 -1
    outer loop
      vertex 0.809006 -0.886475 0
      vertex 0.366547 -1.12813 0
      vertex 0.366547 -1.03024 0
    endloop
  endfacet
  facet normal 0 0 -1
    outer loop
      vertex -0.133438 -1.1927 0
      vertex 0.366547 -1.12813 0
      vertex 0.484589 -2.7094 0
    endloop
  endfacet
  facet normal 0 0 -1
    outer loop
      vertex 0.366547 -1.12813 0
      vertex 1.2005 -2.47678 0
      vertex 0.484589 -2.7094 0
    endloop
  endfacet
  facet normal 0 0 -1
    outer loop
      vertex -0.133438 -1.1927 0
      vertex 0.309006 -1.04893 0
      vertex 0.366547 -1.12813 0
    endloop
  endfacet
  facet normal 0 0 1
    outer loop
      vertex 1.2005 -2.47678 1
      vertex 0.484589 -2.7094 1
      vertex 0.927048 -2.85316 1
    endloop
  endfacet
  facet normal 0 0 1
    outer loop
      vertex 1.82916 -2.09482 1
      vertex 2.61803 -1.17557 1
      vertex 2.55753 -1.09229 1
    endloop
  endfacet
  facet normal 0 0 1
    outer loop
      vertex 1.82916 -2.09482 1
      vertex 1.2005 -2.47678 1
      vertex 1.48457 -2.56908 1
    endloop
  endfacet
  facet normal -0 0 1
    outer loop
      vertex 1.09309 -0.0302429 1
      vertex 1.09309 -0.495483 1
      vertex 1.18617 0 1
    endloop
  endfacet
  facet normal 0 0 1
    outer loop
      vertex 2.61803 -1.17557 1
      vertex 1.82916 -2.09482 1
      vertex 1.92705 -2.12662 1
    endloop
  endfacet
  facet normal 0 0 1
    outer loop
      vertex 1.09309 0.495483 1
      vertex 1.09309 0.0302429 1
      vertex 1.18617 0 1
    endloop
  endfacet
  facet normal 0 0 1
    outer loop
      vertex 2.9021 -0.618027 1
      vertex 2.72653 -0.376389 1
      vertex 2.55753 -1.09229 1
    endloop
  endfacet
  facet normal 0 0 1
    outer loop
      vertex 0.366547 1.12813 1
      vertex 1.2005 2.47678 1
      vertex 0.484589 2.7094 1
    endloop
  endfacet
  facet normal 0 0 1
    outer loop
      vertex 3 0 1
      vertex 2.72653 0.376389 1
      vertex 2.72653 -0.376389 1
    endloop
  endfacet
  facet normal 0 0 1
    outer loop
      vertex 1.82916 2.09482 1
      vertex 0.809006 0.886475 1
      vertex 1.09309 0.495483 1
    endloop
  endfacet
  facet normal 0 -0 1
    outer loop
      vertex 2.55753 1.09229 1
      vertex 2.61803 1.17557 1
      vertex 1.82916 2.09482 1
    endloop
  endfacet
  facet normal 0 0 1
    outer loop
      vertex 2.55753 1.09229 1
      vertex 2.72653 0.376389 1
      vertex 2.9021 0.618027 1
    endloop
  endfacet
  facet normal 0 -0 1
    outer loop
      vertex 0.366547 1.12813 1
      vertex 0.484589 2.7094 1
      vertex -0.133438 1.1927 1
    endloop
  endfacet
  facet normal 0 0 1
    outer loop
      vertex 1.92705 2.12662 1
      vertex 1.82916 2.09482 1
      vertex 2.61803 1.17557 1
    endloop
  endfacet
  facet normal 0 0 1
    outer loop
      vertex 1.82916 2.09482 1
      vertex 1.48457 2.56908 1
      vertex 1.2005 2.47678 1
    endloop
  endfacet
  facet normal 0 -0 1
    outer loop
      vertex -0.959641 0.69722 1
      vertex -0.593094 1.04335 1
      vertex -1.98457 1.90712 1
    endloop
  endfacet
  facet normal 0 0 1
    outer loop
      vertex 1.2005 2.47678 1
      vertex 0.927048 2.85316 1
      vertex 0.484589 2.7094 1
    endloop
  endfacet
  facet normal 0 0 1
    outer loop
      vertex -0.24852 2.7699 1
      vertex -1.42705 2.38696 1
      vertex -0.133438 1.1927 1
    endloop
  endfacet
  facet normal 0 0 1
    outer loop
      vertex 0.484589 2.7094 1
      vertex 0.309006 2.95105 1
      vertex -0.24852 2.7699 1
    endloop
  endfacet
  facet normal 0 0 1
    outer loop
      vertex -0.959641 0.69722 1
      vertex -2.42705 1.29811 1
      vertex -1.17557 0.241653 1
    endloop
  endfacet
  facet normal 0 0 1
    outer loop
      vertex -0.24852 2.7699 1
      vertex -1.42705 2.48988 1
      vertex -1.42705 2.38696 1
    endloop
  endfacet
  facet normal 0 0 1
    outer loop
      vertex -0.309006 2.85316 1
      vertex -1.42705 2.48988 1
      vertex -0.24852 2.7699 1
    endloop
  endfacet
  facet normal 0 0 1
    outer loop
      vertex -1.42705 2.38696 1
      vertex -1.98457 2.20581 1
      vertex -1.98457 1.90712 1
    endloop
  endfacet
  facet normal 0 0 1
    outer loop
      vertex -0.133438 -1.1927 1
      vertex -0.593094 -1.04335 1
      vertex -1.42705 -2.38696 1
    endloop
  endfacet
  facet normal 0 0 1
    outer loop
      vertex -1.98457 1.90712 1
      vertex -2.42705 1.76335 1
      vertex -2.42705 1.29811 1
    endloop
  endfacet
  facet normal 0 0 1
    outer loop
      vertex -0.959641 -0.69722 1
      vertex -1.17557 -0.241653 1
      vertex -2.42705 -1.29811 1
    endloop
  endfacet
  facet normal 0 0 1
    outer loop
      vertex -0.593094 -1.04335 1
      vertex -1.98457 -1.90712 1
      vertex -1.42705 -2.38696 1
    endloop
  endfacet
  facet normal -0 0 1
    outer loop
      vertex -2.71112 1.20581 1
      vertex -2.71112 0.619583 1
      vertex -2.42705 1.29811 1
    endloop
  endfacet
  facet normal 0 0 1
    outer loop
      vertex -2.80901 0.587784 1
      vertex -2.80901 -0.587784 1
      vertex -2.71112 -0.619583 1
    endloop
  endfacet
  facet normal 0 0 1
    outer loop
      vertex -2.42705 -1.29811 1
      vertex -2.42705 -1.76335 1
      vertex -1.98457 -1.90712 1
    endloop
  endfacet
  facet normal 0 0 1
    outer loop
      vertex -0.959641 -0.69722 1
      vertex -1.98457 -1.90712 1
      vertex -0.593094 -1.04335 1
    endloop
  endfacet
  facet normal 0 0 1
    outer loop
      vertex -2.71112 0.619583 1
      vertex -2.80901 0.587784 1
      vertex -2.71112 -0.619583 1
    endloop
  endfacet
  facet normal 0 0 1
    outer loop
      vertex -0.133438 -1.1927 1
      vertex -1.42705 -2.38696 1
      vertex -0.24852 -2.7699 1
    endloop
  endfacet
  facet normal 0 0 1
    outer loop
      vertex -2.71112 0.619583 1
      vertex -1.17557 -0.241653 1
      vertex -1.17557 0.241653 1
    endloop
  endfacet
  facet normal 0 0 1
    outer loop
      vertex -2.71112 -0.619583 1
      vertex -2.71112 -1.20581 1
      vertex -2.42705 -1.29811 1
    endloop
  endfacet
  facet normal 0 0 1
    outer loop
      vertex 1.2005 -2.47678 1
      vertex 0.809006 -0.886475 1
      vertex 0.366547 -1.12813 1
    endloop
  endfacet
  facet normal 0 0 1
    outer loop
      vertex -1.42705 -2.48988 1
      vertex -0.309006 -2.85316 1
      vertex -0.24852 -2.7699 1
    endloop
  endfacet
  facet normal -0 0 1
    outer loop
      vertex -1.98457 -2.20581 1
      vertex -1.42705 -2.38696 1
      vertex -1.98457 -1.90712 1
    endloop
  endfacet
  facet normal -0 0 1
    outer loop
      vertex -0.24852 -2.7699 1
      vertex 0.309006 -2.95105 1
      vertex 0.484589 -2.7094 1
    endloop
  endfacet
  facet normal 0 0 1
    outer loop
      vertex -0.133438 -1.1927 1
      vertex -0.24852 -2.7699 1
      vertex 0.484589 -2.7094 1
    endloop
  endfacet
  facet normal 0 0 1
    outer loop
      vertex -1.42705 -2.38696 1
      vertex -1.42705 -2.48988 1
      vertex -0.24852 -2.7699 1
    endloop
  endfacet
  facet normal -0 0 1
    outer loop
      vertex -0.593094 -1.04335 1
      vertex -0.133438 -1.1927 1
      vertex -0.309006 -0.95105 1
    endloop
  endfacet
  facet normal -0 0 1
    outer loop
      vertex 0.809006 -0.587784 1
      vertex 0.809006 -0.886475 1
      vertex 1.09309 -0.495483 1
    endloop
  endfacet
  facet normal 0 0 1
    outer loop
      vertex -0.9021 -0.618027 1
      vertex -1.17557 -0.241653 1
      vertex -0.959641 -0.69722 1
    endloop
  endfacet
  facet normal 0 0 1
    outer loop
      vertex 2.72653 0.376389 1
      vertex 1.09309 0.495483 1
      vertex 1.18617 0 1
    endloop
  endfacet
  facet normal 0 0 1
    outer loop
      vertex -0.866547 -0.666977 1
      vertex -0.959641 -0.69722 1
      vertex -0.593094 -1.04335 1
    endloop
  endfacet
  facet normal 0 -0 1
    outer loop
      vertex -2.42705 -1.29811 1
      vertex -1.17557 -0.241653 1
      vertex -2.71112 -0.619583 1
    endloop
  endfacet
  facet normal 0 -0 1
    outer loop
      vertex -1.98457 -1.90712 1
      vertex -0.959641 -0.69722 1
      vertex -2.42705 -1.29811 1
    endloop
  endfacet
  facet normal 0 0 1
    outer loop
      vertex -2.71112 0.619583 1
      vertex -2.71112 -0.619583 1
      vertex -1.17557 -0.241653 1
    endloop
  endfacet
  facet normal 0 0 1
    outer loop
      vertex -1.17557 0.241653 1
      vertex -1.17557 -0.241653 1
      vertex -1 0 1
    endloop
  endfacet
  facet normal 0 -0 1
    outer loop
      vertex -0.866547 0.666977 1
      vertex -0.593094 1.04335 1
      vertex -0.959641 0.69722 1
    endloop
  endfacet
  facet normal 0 0 1
    outer loop
      vertex -0.959641 0.69722 1
      vertex -1.17557 0.241653 1
      vertex -0.9021 0.618027 1
    endloop
  endfacet
  facet normal 0 0 1
    outer loop
      vertex -2.42705 1.29811 1
      vertex -2.71112 0.619583 1
      vertex -1.17557 0.241653 1
    endloop
  endfacet
  facet normal 0 0 1
    outer loop
      vertex -0.593094 1.04335 1
      vertex -1.42705 2.38696 1
      vertex -1.98457 1.90712 1
    endloop
  endfacet
  facet normal -0 0 1
    outer loop
      vertex -2.42705 1.29811 1
      vertex -0.959641 0.69722 1
      vertex -1.98457 1.90712 1
    endloop
  endfacet
  facet normal 0 0 1
    outer loop
      vertex -0.133438 1.1927 1
      vertex -1.42705 2.38696 1
      vertex -0.593094 1.04335 1
    endloop
  endfacet
  facet normal 0 0 1
    outer loop
      vertex -0.133438 1.1927 1
      vertex -0.593094 1.04335 1
      vertex -0.309006 0.95105 1
    endloop
  endfacet
  facet normal 0 0 1
    outer loop
      vertex 0.809006 -0.886475 1
      vertex 1.2005 -2.47678 1
      vertex 1.82916 -2.09482 1
    endloop
  endfacet
  facet normal 0 0 1
    outer loop
      vertex 0.366547 1.12813 1
      vertex 0.366547 1.03024 1
      vertex 0.809006 0.886475 1
    endloop
  endfacet
  facet normal 0 0 1
    outer loop
      vertex 0.366547 1.12813 1
      vertex -0.133438 1.1927 1
      vertex 0.309006 1.04893 1
    endloop
  endfacet
  facet normal 0 0 1
    outer loop
      vertex 0.484589 2.7094 1
      vertex -0.24852 2.7699 1
      vertex -0.133438 1.1927 1
    endloop
  endfacet
  facet normal 0 0 1
    outer loop
      vertex 0.809006 0.886475 1
      vertex 1.82916 2.09482 1
      vertex 1.2005 2.47678 1
    endloop
  endfacet
  facet normal 0 -0 1
    outer loop
      vertex 0.809006 0.886475 1
      vertex 1.2005 2.47678 1
      vertex 0.366547 1.12813 1
    endloop
  endfacet
  facet normal 0 0 1
    outer loop
      vertex 0.809006 0.886475 1
      vertex 0.809006 0.587784 1
      vertex 1.09309 0.495483 1
    endloop
  endfacet
  facet normal 0 0 1
    outer loop
      vertex 1.82916 2.09482 1
      vertex 1.09309 0.495483 1
      vertex 2.55753 1.09229 1
    endloop
  endfacet
  facet normal 0 0 1
    outer loop
      vertex 1.18617 0 1
      vertex 1.09309 -0.495483 1
      vertex 2.72653 -0.376389 1
    endloop
  endfacet
  facet normal 0 0 1
    outer loop
      vertex 2.55753 1.09229 1
      vertex 1.09309 0.495483 1
      vertex 2.72653 0.376389 1
    endloop
  endfacet
  facet normal 0 0 1
    outer loop
      vertex 2.72653 -0.376389 1
      vertex 1.09309 -0.495483 1
      vertex 2.55753 -1.09229 1
    endloop
  endfacet
  facet normal 0 0 1
    outer loop
      vertex 2.72653 0.376389 1
      vertex 1.18617 0 1
      vertex 2.72653 -0.376389 1
    endloop
  endfacet
  facet normal 0 0 1
    outer loop
      vertex 1.82916 -2.09482 1
      vertex 1.09309 -0.495483 1
      vertex 0.809006 -0.886475 1
    endloop
  endfacet
  facet normal 0 0 1
    outer loop
      vertex 2.55753 -1.09229 1
      vertex 1.09309 -0.495483 1
      vertex 1.82916 -2.09482 1
    endloop
  endfacet
  facet normal -0 0 1
    outer loop
      vertex 0.366547 -1.03024 1
      vertex 0.366547 -1.12813 1
      vertex 0.809006 -0.886475 1
    endloop
  endfacet
  facet normal 0 0 1
    outer loop
      vertex 0.484589 -2.7094 1
      vertex 0.366547 -1.12813 1
      vertex -0.133438 -1.1927 1
    endloop
  endfacet
  facet normal 0 -0 1
    outer loop
      vertex 0.484589 -2.7094 1
      vertex 1.2005 -2.47678 1
      vertex 0.366547 -1.12813 1
    endloop
  endfacet
  facet normal 0 0 1
    outer loop
      vertex 0.366547 -1.12813 1
      vertex 0.309006 -1.04893 1
      vertex -0.133438 -1.1927 1
    endloop
  endfacet
  facet normal -0.30901 -0.951059 0
    outer loop
      vertex 0.927048 -2.85316 0
      vertex 0.484589 -2.7094 1
      vertex 0.484589 -2.7094 0
    endloop
  endfacet
  facet normal -0.30901 -0.951059 0
    outer loop
      vertex 0.927048 -2.85316 0
      vertex 0.927048 -2.85316 1
      vertex 0.484589 -2.7094 1
    endloop
  endfacet
  facet normal 0.809021 -0.58778 0
    outer loop
      vertex 1.2005 -2.47678 0
      vertex 0.927048 -2.85316 1
      vertex 0.927048 -2.85316 0
    endloop
  endfacet
  facet normal 0.809021 -0.58778 0
    outer loop
      vertex 1.2005 -2.47678 0
      vertex 1.2005 -2.47678 1
      vertex 0.927048 -2.85316 1
    endloop
  endfacet
  facet normal -0.309017 -0.951056 0
    outer loop
      vertex 1.48457 -2.56908 0
      vertex 1.2005 -2.47678 1
      vertex 1.2005 -2.47678 0
    endloop
  endfacet
  facet normal -0.309017 -0.951056 0
    outer loop
      vertex 1.48457 -2.56908 0
      vertex 1.48457 -2.56908 1
      vertex 1.2005 -2.47678 1
    endloop
  endfacet
  facet normal 0.809001 -0.587808 0
    outer loop
      vertex 1.82916 -2.09482 0
      vertex 1.48457 -2.56908 1
      vertex 1.48457 -2.56908 0
    endloop
  endfacet
  facet normal 0.809001 -0.587808 0
    outer loop
      vertex 1.82916 -2.09482 0
      vertex 1.82916 -2.09482 1
      vertex 1.48457 -2.56908 1
    endloop
  endfacet
  facet normal -0.308961 -0.951075 0
    outer loop
      vertex 1.92705 -2.12662 0
      vertex 1.82916 -2.09482 1
      vertex 1.82916 -2.09482 0
    endloop
  endfacet
  facet normal -0.308961 -0.951075 0
    outer loop
      vertex 1.92705 -2.12662 0
      vertex 1.92705 -2.12662 1
      vertex 1.82916 -2.09482 1
    endloop
  endfacet
  facet normal 0.809016 -0.587786 0
    outer loop
      vertex 2.61803 -1.17557 0
      vertex 1.92705 -2.12662 1
      vertex 1.92705 -2.12662 0
    endloop
  endfacet
  facet normal 0.809016 -0.587786 0
    outer loop
      vertex 2.61803 -1.17557 0
      vertex 2.61803 -1.17557 1
      vertex 1.92705 -2.12662 1
    endloop
  endfacet
  facet normal 0.809047 0.587744 0
    outer loop
      vertex 2.55753 -1.09229 0
      vertex 2.61803 -1.17557 1
      vertex 2.61803 -1.17557 0
    endloop
  endfacet
  facet normal 0.809047 0.587744 -0
    outer loop
      vertex 2.55753 -1.09229 0
      vertex 2.55753 -1.09229 1
      vertex 2.61803 -1.17557 1
    endloop
  endfacet
  facet normal 0.809019 -0.587783 0
    outer loop
      vertex 2.9021 -0.618027 0
      vertex 2.55753 -1.09229 1
      vertex 2.55753 -1.09229 0
    endloop
  endfacet
  facet normal 0.809019 -0.587783 0
    outer loop
      vertex 2.9021 -0.618027 0
      vertex 2.9021 -0.618027 1
      vertex 2.55753 -1.09229 1
    endloop
  endfacet
  facet normal 0.809002 0.587807 0
    outer loop
      vertex 2.72653 -0.376389 0
      vertex 2.9021 -0.618027 1
      vertex 2.9021 -0.618027 0
    endloop
  endfacet
  facet normal 0.809002 0.587807 -0
    outer loop
      vertex 2.72653 -0.376389 0
      vertex 2.72653 -0.376389 1
      vertex 2.9021 -0.618027 1
    endloop
  endfacet
  facet normal 0.809009 -0.587796 0
    outer loop
      vertex 3 0 0
      vertex 2.72653 -0.376389 1
      vertex 2.72653 -0.376389 0
    endloop
  endfacet
  facet normal 0.809009 -0.587796 0
    outer loop
      vertex 3 0 0
      vertex 3 0 1
      vertex 2.72653 -0.376389 1
    endloop
  endfacet
  facet normal 0.809009 0.587796 0
    outer loop
      vertex 2.72653 0.376389 0
      vertex 3 0 1
      vertex 3 0 0
    endloop
  endfacet
  facet normal 0.809009 0.587796 -0
    outer loop
      vertex 2.72653 0.376389 0
      vertex 2.72653 0.376389 1
      vertex 3 0 1
    endloop
  endfacet
  facet normal 0.809002 -0.587807 0
    outer loop
      vertex 2.9021 0.618027 0
      vertex 2.72653 0.376389 1
      vertex 2.72653 0.376389 0
    endloop
  endfacet
  facet normal 0.809002 -0.587807 0
    outer loop
      vertex 2.9021 0.618027 0
      vertex 2.9021 0.618027 1
      vertex 2.72653 0.376389 1
    endloop
  endfacet
  facet normal 0.809019 0.587783 0
    outer loop
      vertex 2.55753 1.09229 0
      vertex 2.9021 0.618027 1
      vertex 2.9021 0.618027 0
    endloop
  endfacet
  facet normal 0.809019 0.587783 -0
    outer loop
      vertex 2.55753 1.09229 0
      vertex 2.55753 1.09229 1
      vertex 2.9021 0.618027 1
    endloop
  endfacet
  facet normal 0.809047 -0.587744 0
    outer loop
      vertex 2.61803 1.17557 0
      vertex 2.55753 1.09229 1
      vertex 2.55753 1.09229 0
    endloop
  endfacet
  facet normal 0.809047 -0.587744 0
    outer loop
      vertex 2.61803 1.17557 0
      vertex 2.61803 1.17557 1
      vertex 2.55753 1.09229 1
    endloop
  endfacet
  facet normal 0.809016 0.587786 0
    outer loop
      vertex 1.92705 2.12662 0
      vertex 2.61803 1.17557 1
      vertex 2.61803 1.17557 0
    endloop
  endfacet
  facet normal 0.809016 0.587786 -0
    outer loop
      vertex 1.92705 2.12662 0
      vertex 1.92705 2.12662 1
      vertex 2.61803 1.17557 1
    endloop
  endfacet
  facet normal -0.308961 0.951075 0
    outer loop
      vertex 1.82916 2.09482 0
      vertex 1.92705 2.12662 1
      vertex 1.92705 2.12662 0
    endloop
  endfacet
  facet normal -0.308961 0.951075 0
    outer loop
      vertex 1.82916 2.09482 0
      vertex 1.82916 2.09482 1
      vertex 1.92705 2.12662 1
    endloop
  endfacet
  facet normal 0.809001 0.587808 0
    outer loop
      vertex 1.48457 2.56908 0
      vertex 1.82916 2.09482 1
      vertex 1.82916 2.09482 0
    endloop
  endfacet
  facet normal 0.809001 0.587808 -0
    outer loop
      vertex 1.48457 2.56908 0
      vertex 1.48457 2.56908 1
      vertex 1.82916 2.09482 1
    endloop
  endfacet
  facet normal -0.309017 0.951056 0
    outer loop
      vertex 1.2005 2.47678 0
      vertex 1.48457 2.56908 1
      vertex 1.48457 2.56908 0
    endloop
  endfacet
  facet normal -0.309017 0.951056 0
    outer loop
      vertex 1.2005 2.47678 0
      vertex 1.2005 2.47678 1
      vertex 1.48457 2.56908 1
    endloop
  endfacet
  facet normal 0.809021 0.58778 0
    outer loop
      vertex 0.927048 2.85316 0
      vertex 1.2005 2.47678 1
      vertex 1.2005 2.47678 0
    endloop
  endfacet
  facet normal 0.809021 0.58778 -0
    outer loop
      vertex 0.927048 2.85316 0
      vertex 0.927048 2.85316 1
      vertex 1.2005 2.47678 1
    endloop
  endfacet
  facet normal -0.30901 0.951059 0
    outer loop
      vertex 0.484589 2.7094 0
      vertex 0.927048 2.85316 1
      vertex 0.927048 2.85316 0
    endloop
  endfacet
  facet normal -0.30901 0.951059 0
    outer loop
      vertex 0.484589 2.7094 0
      vertex 0.484589 2.7094 1
      vertex 0.927048 2.85316 1
    endloop
  endfacet
  facet normal 0.808995 0.587816 0
    outer loop
      vertex 0.309006 2.95105 0
      vertex 0.484589 2.7094 1
      vertex 0.484589 2.7094 0
    endloop
  endfacet
  facet normal 0.808995 0.587816 -0
    outer loop
      vertex 0.309006 2.95105 0
      vertex 0.309006 2.95105 1
      vertex 0.484589 2.7094 1
    endloop
  endfacet
  facet normal -0.309015 0.951057 0
    outer loop
      vertex -0.24852 2.7699 0
      vertex 0.309006 2.95105 1
      vertex 0.309006 2.95105 0
    endloop
  endfacet
  facet normal -0.309015 0.951057 0
    outer loop
      vertex -0.24852 2.7699 0
      vertex -0.24852 2.7699 1
      vertex 0.309006 2.95105 1
    endloop
  endfacet
  facet normal 0.809044 0.587748 0
    outer loop
      vertex -0.309006 2.85316 0
      vertex -0.24852 2.7699 1
      vertex -0.24852 2.7699 0
    endloop
  endfacet
  facet normal 0.809044 0.587748 -0
    outer loop
      vertex -0.309006 2.85316 0
      vertex -0.309006 2.85316 1
      vertex -0.24852 2.7699 1
    endloop
  endfacet
  facet normal -0.309021 0.951055 0
    outer loop
      vertex -1.42705 2.48988 0
      vertex -0.309006 2.85316 1
      vertex -0.309006 2.85316 0
    endloop
  endfacet
  facet normal -0.309021 0.951055 0
    outer loop
      vertex -1.42705 2.48988 0
      vertex -1.42705 2.48988 1
      vertex -0.309006 2.85316 1
    endloop
  endfacet
  facet normal -1 0 0
    outer loop
      vertex -1.42705 2.38696 0
      vertex -1.42705 2.48988 1
      vertex -1.42705 2.48988 0
    endloop
  endfacet
  facet normal -1 0 0
    outer loop
      vertex -1.42705 2.38696 0
      vertex -1.42705 2.38696 1
      vertex -1.42705 2.48988 1
    endloop
  endfacet
  facet normal -0.309018 0.951056 0
    outer loop
      vertex -1.98457 2.20581 0
      vertex -1.42705 2.38696 1
      vertex -1.42705 2.38696 0
    endloop
  endfacet
  facet normal -0.309018 0.951056 0
    outer loop
      vertex -1.98457 2.20581 0
      vertex -1.98457 2.20581 1
      vertex -1.42705 2.38696 1
    endloop
  endfacet
  facet normal -1 0 0
    outer loop
      vertex -1.98457 1.90712 0
      vertex -1.98457 2.20581 1
      vertex -1.98457 2.20581 0
    endloop
  endfacet
  facet normal -1 0 0
    outer loop
      vertex -1.98457 1.90712 0
      vertex -1.98457 1.90712 1
      vertex -1.98457 2.20581 1
    endloop
  endfacet
  facet normal -0.309016 0.951057 0
    outer loop
      vertex -2.42705 1.76335 0
      vertex -1.98457 1.90712 1
      vertex -1.98457 1.90712 0
    endloop
  endfacet
  facet normal -0.309016 0.951057 0
    outer loop
      vertex -2.42705 1.76335 0
      vertex -2.42705 1.76335 1
      vertex -1.98457 1.90712 1
    endloop
  endfacet
  facet normal -1 0 0
    outer loop
      vertex -2.42705 1.29811 0
      vertex -2.42705 1.76335 1
      vertex -2.42705 1.76335 0
    endloop
  endfacet
  facet normal -1 0 0
    outer loop
      vertex -2.42705 1.29811 0
      vertex -2.42705 1.29811 1
      vertex -2.42705 1.76335 1
    endloop
  endfacet
  facet normal -0.309017 0.951056 0
    outer loop
      vertex -2.71112 1.20581 0
      vertex -2.42705 1.29811 1
      vertex -2.42705 1.29811 0
    endloop
  endfacet
  facet normal -0.309017 0.951056 0
    outer loop
      vertex -2.71112 1.20581 0
      vertex -2.71112 1.20581 1
      vertex -2.42705 1.29811 1
    endloop
  endfacet
  facet normal -1 0 0
    outer loop
      vertex -2.71112 0.619583 0
      vertex -2.71112 1.20581 1
      vertex -2.71112 1.20581 0
    endloop
  endfacet
  facet normal -1 0 0
    outer loop
      vertex -2.71112 0.619583 0
      vertex -2.71112 0.619583 1
      vertex -2.71112 1.20581 1
    endloop
  endfacet
  facet normal -0.308952 0.951078 0
    outer loop
      vertex -2.80901 0.587784 0
      vertex -2.71112 0.619583 1
      vertex -2.71112 0.619583 0
    endloop
  endfacet
  facet normal -0.308952 0.951078 0
    outer loop
      vertex -2.80901 0.587784 0
      vertex -2.80901 0.587784 1
      vertex -2.71112 0.619583 1
    endloop
  endfacet
  facet normal -1 0 0
    outer loop
      vertex -2.80901 -0.587784 0
      vertex -2.80901 0.587784 1
      vertex -2.80901 0.587784 0
    endloop
  endfacet
  facet normal -1 0 0
    outer loop
      vertex -2.80901 -0.587784 0
      vertex -2.80901 -0.587784 1
      vertex -2.80901 0.587784 1
    endloop
  endfacet
  facet normal -0.308952 -0.951078 0
    outer loop
      vertex -2.71112 -0.619583 0
      vertex -2.80901 -0.587784 1
      vertex -2.80901 -0.587784 0
    endloop
  endfacet
  facet normal -0.308952 -0.951078 0
    outer loop
      vertex -2.71112 -0.619583 0
      vertex -2.71112 -0.619583 1
      vertex -2.80901 -0.587784 1
    endloop
  endfacet
  facet normal -1 0 0
    outer loop
      vertex -2.71112 -1.20581 0
      vertex -2.71112 -0.619583 1
      vertex -2.71112 -0.619583 0
    endloop
  endfacet
  facet normal -1 0 0
    outer loop
      vertex -2.71112 -1.20581 0
      vertex -2.71112 -1.20581 1
      vertex -2.71112 -0.619583 1
    endloop
  endfacet
  facet normal -0.309017 -0.951056 0
    outer loop
      vertex -2.42705 -1.29811 0
      vertex -2.71112 -1.20581 1
      vertex -2.71112 -1.20581 0
    endloop
  endfacet
  facet normal -0.309017 -0.951056 0
    outer loop
      vertex -2.42705 -1.29811 0
      vertex -2.42705 -1.29811 1
      vertex -2.71112 -1.20581 1
    endloop
  endfacet
  facet normal -1 0 0
    outer loop
      vertex -2.42705 -1.76335 0
      vertex -2.42705 -1.29811 1
      vertex -2.42705 -1.29811 0
    endloop
  endfacet
  facet normal -1 0 0
    outer loop
      vertex -2.42705 -1.76335 0
      vertex -2.42705 -1.76335 1
      vertex -2.42705 -1.29811 1
    endloop
  endfacet
  facet normal -0.309016 -0.951057 0
    outer loop
      vertex -1.98457 -1.90712 0
      vertex -2.42705 -1.76335 1
      vertex -2.42705 -1.76335 0
    endloop
  endfacet
  facet normal -0.309016 -0.951057 0
    outer loop
      vertex -1.98457 -1.90712 0
      vertex -1.98457 -1.90712 1
      vertex -2.42705 -1.76335 1
    endloop
  endfacet
  facet normal -1 0 0
    outer loop
      vertex -1.98457 -2.20581 0
      vertex -1.98457 -1.90712 1
      vertex -1.98457 -1.90712 0
    endloop
  endfacet
  facet normal -1 0 0
    outer loop
      vertex -1.98457 -2.20581 0
      vertex -1.98457 -2.20581 1
      vertex -1.98457 -1.90712 1
    endloop
  endfacet
  facet normal -0.309018 -0.951056 0
    outer loop
      vertex -1.42705 -2.38696 0
      vertex -1.98457 -2.20581 1
      vertex -1.98457 -2.20581 0
    endloop
  endfacet
  facet normal -0.309018 -0.951056 0
    outer loop
      vertex -1.42705 -2.38696 0
      vertex -1.42705 -2.38696 1
      vertex -1.98457 -2.20581 1
    endloop
  endfacet
  facet normal -1 0 0
    outer loop
      vertex -1.42705 -2.48988 0
      vertex -1.42705 -2.38696 1
      vertex -1.42705 -2.38696 0
    endloop
  endfacet
  facet normal -1 0 0
    outer loop
      vertex -1.42705 -2.48988 0
      vertex -1.42705 -2.48988 1
      vertex -1.42705 -2.38696 1
    endloop
  endfacet
  facet normal -0.309021 -0.951055 0
    outer loop
      vertex -0.309006 -2.85316 0
      vertex -1.42705 -2.48988 1
      vertex -1.42705 -2.48988 0
    endloop
  endfacet
  facet normal -0.309021 -0.951055 0
    outer loop
      vertex -0.309006 -2.85316 0
      vertex -0.309006 -2.85316 1
      vertex -1.42705 -2.48988 1
    endloop
  endfacet
  facet normal 0.809044 -0.587748 0
    outer loop
      vertex -0.24852 -2.7699 0
      vertex -0.309006 -2.85316 1
      vertex -0.309006 -2.85316 0
    endloop
  endfacet
  facet normal 0.809044 -0.587748 0
    outer loop
      vertex -0.24852 -2.7699 0
      vertex -0.24852 -2.7699 1
      vertex -0.309006 -2.85316 1
    endloop
  endfacet
  facet normal -0.309015 -0.951057 0
    outer loop
      vertex 0.309006 -2.95105 0
      vertex -0.24852 -2.7699 1
      vertex -0.24852 -2.7699 0
    endloop
  endfacet
  facet normal -0.309015 -0.951057 0
    outer loop
      vertex 0.309006 -2.95105 0
      vertex 0.309006 -2.95105 1
      vertex -0.24852 -2.7699 1
    endloop
  endfacet
  facet normal 0.808995 -0.587816 0
    outer loop
      vertex 0.484589 -2.7094 0
      vertex 0.309006 -2.95105 1
      vertex 0.309006 -2.95105 0
    endloop
  endfacet
  facet normal 0.808995 -0.587816 0
    outer loop
      vertex 0.484589 -2.7094 0
      vertex 0.484589 -2.7094 1
      vertex 0.309006 -2.95105 1
    endloop
  endfacet
  facet normal -0.308999 0.951062 0
    outer loop
      vertex -0.593094 -1.04335 0
      vertex -0.593094 -1.04335 1
      vertex -0.309006 -0.95105 0
    endloop
  endfacet
  facet normal -0.308999 0.951062 0
    outer loop
      vertex -0.309006 -0.95105 1
      vertex -0.309006 -0.95105 0
      vertex -0.593094 -1.04335 1
    endloop
  endfacet
  facet normal 0.809015 0.587788 -0
    outer loop
      vertex -0.866547 -0.666977 0
      vertex -0.866547 -0.666977 1
      vertex -0.593094 -1.04335 0
    endloop
  endfacet
  facet normal 0.809015 0.587788 0
    outer loop
      vertex -0.593094 -1.04335 1
      vertex -0.593094 -1.04335 0
      vertex -0.866547 -0.666977 1
    endloop
  endfacet
  facet normal -0.30897 0.951072 0
    outer loop
      vertex -0.959641 -0.69722 0
      vertex -0.959641 -0.69722 1
      vertex -0.866547 -0.666977 0
    endloop
  endfacet
  facet normal -0.30897 0.951072 0
    outer loop
      vertex -0.866547 -0.666977 1
      vertex -0.866547 -0.666977 0
      vertex -0.959641 -0.69722 1
    endloop
  endfacet
  facet normal 0.808998 -0.587811 0
    outer loop
      vertex -0.9021 -0.618027 0
      vertex -0.9021 -0.618027 1
      vertex -0.959641 -0.69722 0
    endloop
  endfacet
  facet normal 0.808998 -0.587811 0
    outer loop
      vertex -0.959641 -0.69722 1
      vertex -0.959641 -0.69722 0
      vertex -0.9021 -0.618027 1
    endloop
  endfacet
  facet normal 0.808998 0.587811 -0
    outer loop
      vertex -1.17557 -0.241653 0
      vertex -1.17557 -0.241653 1
      vertex -0.9021 -0.618027 0
    endloop
  endfacet
  facet normal 0.808998 0.587811 0
    outer loop
      vertex -0.9021 -0.618027 1
      vertex -0.9021 -0.618027 0
      vertex -1.17557 -0.241653 1
    endloop
  endfacet
  facet normal 0.809019 -0.587783 0
    outer loop
      vertex -1 0 0
      vertex -1 0 1
      vertex -1.17557 -0.241653 0
    endloop
  endfacet
  facet normal 0.809019 -0.587783 0
    outer loop
      vertex -1.17557 -0.241653 1
      vertex -1.17557 -0.241653 0
      vertex -1 0 1
    endloop
  endfacet
  facet normal 0.809019 0.587783 -0
    outer loop
      vertex -1.17557 0.241653 0
      vertex -1.17557 0.241653 1
      vertex -1 0 0
    endloop
  endfacet
  facet normal 0.809019 0.587783 0
    outer loop
      vertex -1 0 1
      vertex -1 0 0
      vertex -1.17557 0.241653 1
    endloop
  endfacet
  facet normal 0.808998 -0.587811 0
    outer loop
      vertex -0.9021 0.618027 0
      vertex -0.9021 0.618027 1
      vertex -1.17557 0.241653 0
    endloop
  endfacet
  facet normal 0.808998 -0.587811 0
    outer loop
      vertex -1.17557 0.241653 1
      vertex -1.17557 0.241653 0
      vertex -0.9021 0.618027 1
    endloop
  endfacet
  facet normal 0.808998 0.587811 -0
    outer loop
      vertex -0.959641 0.69722 0
      vertex -0.959641 0.69722 1
      vertex -0.9021 0.618027 0
    endloop
  endfacet
  facet normal 0.808998 0.587811 0
    outer loop
      vertex -0.9021 0.618027 1
      vertex -0.9021 0.618027 0
      vertex -0.959641 0.69722 1
    endloop
  endfacet
  facet normal -0.30897 -0.951072 0
    outer loop
      vertex -0.866547 0.666977 0
      vertex -0.866547 0.666977 1
      vertex -0.959641 0.69722 0
    endloop
  endfacet
  facet normal -0.30897 -0.951072 -0
    outer loop
      vertex -0.959641 0.69722 1
      vertex -0.959641 0.69722 0
      vertex -0.866547 0.666977 1
    endloop
  endfacet
  facet normal 0.809015 -0.587788 0
    outer loop
      vertex -0.593094 1.04335 0
      vertex -0.593094 1.04335 1
      vertex -0.866547 0.666977 0
    endloop
  endfacet
  facet normal 0.809015 -0.587788 0
    outer loop
      vertex -0.866547 0.666977 1
      vertex -0.866547 0.666977 0
      vertex -0.593094 1.04335 1
    endloop
  endfacet
  facet normal -0.308999 -0.951062 0
    outer loop
      vertex -0.309006 0.95105 0
      vertex -0.309006 0.95105 1
      vertex -0.593094 1.04335 0
    endloop
  endfacet
  facet normal -0.308999 -0.951062 -0
    outer loop
      vertex -0.593094 1.04335 1
      vertex -0.593094 1.04335 0
      vertex -0.309006 0.95105 1
    endloop
  endfacet
  facet normal 0.809019 -0.587783 0
    outer loop
      vertex -0.133438 1.1927 0
      vertex -0.133438 1.1927 1
      vertex -0.309006 0.95105 0
    endloop
  endfacet
  facet normal 0.809019 -0.587783 0
    outer loop
      vertex -0.309006 0.95105 1
      vertex -0.309006 0.95105 0
      vertex -0.133438 1.1927 1
    endloop
  endfacet
  facet normal -0.309039 -0.951049 0
    outer loop
      vertex 0.309006 1.04893 0
      vertex 0.309006 1.04893 1
      vertex -0.133438 1.1927 0
    endloop
  endfacet
  facet normal -0.309039 -0.951049 -0
    outer loop
      vertex -0.133438 1.1927 1
      vertex -0.133438 1.1927 0
      vertex 0.309006 1.04893 1
    endloop
  endfacet
  facet normal 0.809023 -0.587777 0
    outer loop
      vertex 0.366547 1.12813 0
      vertex 0.366547 1.12813 1
      vertex 0.309006 1.04893 0
    endloop
  endfacet
  facet normal 0.809023 -0.587777 0
    outer loop
      vertex 0.309006 1.04893 1
      vertex 0.309006 1.04893 0
      vertex 0.366547 1.12813 1
    endloop
  endfacet
  facet normal -1 0 0
    outer loop
      vertex 0.366547 1.03024 0
      vertex 0.366547 1.03024 1
      vertex 0.366547 1.12813 0
    endloop
  endfacet
  facet normal -1 -0 -0
    outer loop
      vertex 0.366547 1.12813 1
      vertex 0.366547 1.12813 0
      vertex 0.366547 1.03024 1
    endloop
  endfacet
  facet normal -0.30902 -0.951056 0
    outer loop
      vertex 0.809006 0.886475 0
      vertex 0.809006 0.886475 1
      vertex 0.366547 1.03024 0
    endloop
  endfacet
  facet normal -0.30902 -0.951056 -0
    outer loop
      vertex 0.366547 1.03024 1
      vertex 0.366547 1.03024 0
      vertex 0.809006 0.886475 1
    endloop
  endfacet
  facet normal -1 0 0
    outer loop
      vertex 0.809006 0.587784 0
      vertex 0.809006 0.587784 1
      vertex 0.809006 0.886475 0
    endloop
  endfacet
  facet normal -1 -0 -0
    outer loop
      vertex 0.809006 0.886475 1
      vertex 0.809006 0.886475 0
      vertex 0.809006 0.587784 1
    endloop
  endfacet
  facet normal -0.309006 -0.95106 0
    outer loop
      vertex 1.09309 0.495483 0
      vertex 1.09309 0.495483 1
      vertex 0.809006 0.587784 0
    endloop
  endfacet
  facet normal -0.309006 -0.95106 -0
    outer loop
      vertex 0.809006 0.587784 1
      vertex 0.809006 0.587784 0
      vertex 1.09309 0.495483 1
    endloop
  endfacet
  facet normal -1 0 0
    outer loop
      vertex 1.09309 0.0302429 0
      vertex 1.09309 0.0302429 1
      vertex 1.09309 0.495483 0
    endloop
  endfacet
  facet normal -1 -0 -0
    outer loop
      vertex 1.09309 0.495483 1
      vertex 1.09309 0.495483 0
      vertex 1.09309 0.0302429 1
    endloop
  endfacet
  facet normal -0.309011 -0.951058 0
    outer loop
      vertex 1.18617 0 0
      vertex 1.18617 0 1
      vertex 1.09309 0.0302429 0
    endloop
  endfacet
  facet normal -0.309011 -0.951058 -0
    outer loop
      vertex 1.09309 0.0302429 1
      vertex 1.09309 0.0302429 0
      vertex 1.18617 0 1
    endloop
  endfacet
  facet normal -0.309011 0.951058 0
    outer loop
      vertex 1.09309 -0.0302429 0
      vertex 1.09309 -0.0302429 1
      vertex 1.18617 0 0
    endloop
  endfacet
  facet normal -0.309011 0.951058 0
    outer loop
      vertex 1.18617 0 1
      vertex 1.18617 0 0
      vertex 1.09309 -0.0302429 1
    endloop
  endfacet
  facet normal -1 0 0
    outer loop
      vertex 1.09309 -0.495483 0
      vertex 1.09309 -0.495483 1
      vertex 1.09309 -0.0302429 0
    endloop
  endfacet
  facet normal -1 -0 -0
    outer loop
      vertex 1.09309 -0.0302429 1
      vertex 1.09309 -0.0302429 0
      vertex 1.09309 -0.495483 1
    endloop
  endfacet
  facet normal -0.309006 0.95106 0
    outer loop
      vertex 0.809006 -0.587784 0
      vertex 0.809006 -0.587784 1
      vertex 1.09309 -0.495483 0
    endloop
  endfacet
  facet normal -0.309006 0.95106 0
    outer loop
      vertex 1.09309 -0.495483 1
      vertex 1.09309 -0.495483 0
      vertex 0.809006 -0.587784 1
    endloop
  endfacet
  facet normal -1 0 0
    outer loop
      vertex 0.809006 -0.886475 0
      vertex 0.809006 -0.886475 1
      vertex 0.809006 -0.587784 0
    endloop
  endfacet
  facet normal -1 -0 -0
    outer loop
      vertex 0.809006 -0.587784 1
      vertex 0.809006 -0.587784 0
      vertex 0.809006 -0.886475 1
    endloop
  endfacet
  facet normal -0.30902 0.951056 0
    outer loop
      vertex 0.366547 -1.03024 0
      vertex 0.366547 -1.03024 1
      vertex 0.809006 -0.886475 0
    endloop
  endfacet
  facet normal -0.30902 0.951056 0
    outer loop
      vertex 0.809006 -0.886475 1
      vertex 0.809006 -0.886475 0
      vertex 0.366547 -1.03024 1
    endloop
  endfacet
  facet normal -1 0 0
    outer loop
      vertex 0.366547 -1.12813 0
      vertex 0.366547 -1.12813 1
      vertex 0.366547 -1.03024 0
    endloop
  endfacet
  facet normal -1 -0 -0
    outer loop
      vertex 0.366547 -1.03024 1
      vertex 0.366547 -1.03024 0
      vertex 0.366547 -1.12813 1
    endloop
  endfacet
  facet normal 0.809023 0.587777 -0
    outer loop
      vertex 0.309006 -1.04893 0
      vertex 0.309006 -1.04893 1
      vertex 0.366547 -1.12813 0
    endloop
  endfacet
  facet normal 0.809023 0.587777 0
    outer loop
      vertex 0.366547 -1.12813 1
      vertex 0.366547 -1.12813 0
      vertex 0.309006 -1.04893 1
    endloop
  endfacet
  facet normal -0.309039 0.951049 0
    outer loop
      vertex -0.133438 -1.1927 0
      vertex -0.133438 -1.1927 1
      vertex 0.309006 -1.04893 0
    endloop
  endfacet
  facet normal -0.309039 0.951049 0
    outer loop
      vertex 0.309006 -1.04893 1
      vertex 0.309006 -1.04893 0
      vertex -0.133438 -1.1927 1
    endloop
  endfacet
  facet normal 0.809019 0.587783 -0
    outer loop
      vertex -0.309006 -0.95105 0
      vertex -0.309006 -0.95105 1
      vertex -0.133438 -1.1927 0
    endloop
  endfacet
  facet normal 0.809019 0.587783 0
    outer loop
      vertex -0.133438 -1.1927 1
      vertex -0.133438 -1.1927 0
      vertex -0.309006 -0.95105 1
    endloop
  endfacet
endsolid OpenSCAD_Model
