solid OpenSCAD_Model
  facet normal 0 0 -1
    outer loop
      vertex 10 7.5 0
      vertex 18.7939 -0.659596 0
      vertex 10 -3.8603 0
    endloop
  endfacet
  facet normal 0 0 -1
    outer loop
      vertex 5.18222 36.738 0
      vertex 32.4747 53.2473 0
      vertex 18.7939 15.6596 0
    endloop
  endfacet
  facet normal 0 0 -1
    outer loop
      vertex 5.18222 36.738 0
      vertex 18.7939 15.6596 0
      vertex 11.9471 18.1516 0
    endloop
  endfacet
  facet normal 0 0 -1
    outer loop
      vertex 18.7939 -0.659596 0
      vertex 10 7.5 0
      vertex 11.9471 18.1516 0
    endloop
  endfacet
  facet normal 0 0 -1
    outer loop
      vertex -5.45955 7.5 0
      vertex 11.9471 18.1516 0
      vertex 10 7.5 0
    endloop
  endfacet
  facet normal -0 0 -1
    outer loop
      vertex 32.4747 53.2473 0
      vertex 5.18222 36.738 0
      vertex 13.6808 60.0877 0
    endloop
  endfacet
  facet normal 0 0 -1
    outer loop
      vertex -13.6808 30.0877 0
      vertex 11.9471 18.1516 0
      vertex -5.45955 7.5 0
    endloop
  endfacet
  facet normal 0 0 -1
    outer loop
      vertex 11.9471 18.1516 0
      vertex -13.6808 30.0877 0
      vertex 5.18222 36.738 0
    endloop
  endfacet
  facet normal -0 0 -1
    outer loop
      vertex 5.18222 36.738 0
      vertex -13.6808 30.0877 0
      vertex 5.11305 36.9281 0
    endloop
  endfacet
  facet normal 0.939693 -0.34202 0
    outer loop
      vertex 18.7939 15.6596 30
      vertex 32.4747 53.2473 0
      vertex 32.4747 53.2473 30
    endloop
  endfacet
  facet normal 0.939693 -0.34202 0
    outer loop
      vertex 32.4747 53.2473 0
      vertex 18.7939 15.6596 30
      vertex 18.7939 15.6596 0
    endloop
  endfacet
  facet normal 0 0 1
    outer loop
      vertex 5.18222 36.738 30
      vertex 32.4747 53.2473 30
      vertex 13.6808 60.0877 30
    endloop
  endfacet
  facet normal 0 0 1
    outer loop
      vertex 32.4747 53.2473 30
      vertex 5.18222 36.738 30
      vertex 18.7939 15.6596 30
    endloop
  endfacet
  facet normal 0 0 1
    outer loop
      vertex 18.7939 15.6596 30
      vertex 5.18222 36.738 30
      vertex 11.9471 18.1516 30
    endloop
  endfacet
  facet normal -0 0 1
    outer loop
      vertex -13.6808 30.0877 30
      vertex 11.9471 18.1516 30
      vertex 5.18222 36.738 30
    endloop
  endfacet
  facet normal 0 0 1
    outer loop
      vertex 11.9471 18.1516 30
      vertex 0 -7.5 30
      vertex 18.7939 -0.659596 30
    endloop
  endfacet
  facet normal 0 0 1
    outer loop
      vertex -13.6808 30.0877 30
      vertex 5.18222 36.738 30
      vertex 5.11305 36.9281 30
    endloop
  endfacet
  facet normal 0 0 1
    outer loop
      vertex 11.9471 18.1516 30
      vertex -13.6808 30.0877 30
      vertex 0 -7.5 30
    endloop
  endfacet
  facet normal -0.939693 0.34202 0
    outer loop
      vertex 5.18222 36.738 0
      vertex 13.6808 60.0877 30
      vertex 13.6808 60.0877 0
    endloop
  endfacet
  facet normal -0.939693 0.34202 0
    outer loop
      vertex 13.6808 60.0877 30
      vertex 5.18222 36.738 0
      vertex 5.18222 36.738 30
    endloop
  endfacet
  facet normal 0.342019 0.939693 -0
    outer loop
      vertex 32.4747 53.2473 0
      vertex 13.6808 60.0877 30
      vertex 32.4747 53.2473 30
    endloop
  endfacet
  facet normal 0.342019 0.939693 0
    outer loop
      vertex 13.6808 60.0877 30
      vertex 32.4747 53.2473 0
      vertex 13.6808 60.0877 0
    endloop
  endfacet
  facet normal -0.342016 -0.939694 0
    outer loop
      vertex 11.9471 18.1516 0
      vertex 18.7939 15.6596 30
      vertex 11.9471 18.1516 30
    endloop
  endfacet
  facet normal -0.342016 -0.939694 -0
    outer loop
      vertex 18.7939 15.6596 30
      vertex 11.9471 18.1516 0
      vertex 18.7939 15.6596 0
    endloop
  endfacet
  facet normal -0.939693 -0.34202 -0
    outer loop
      vertex -5.45955 7.5 12.4
      vertex -13.6808 30.0877 0
      vertex -5.45955 7.5 0
    endloop
  endfacet
  facet normal -0.939693 -0.34202 0
    outer loop
      vertex -13.6808 30.0877 0
      vertex -5.45955 7.5 12.4
      vertex -13.6808 30.0877 30
    endloop
  endfacet
  facet normal -0.939693 -0.34202 -0
    outer loop
      vertex 0 -7.5 30
      vertex -5.45955 7.5 12.4
      vertex 0 -7.5 12.4
    endloop
  endfacet
  facet normal -0.939693 -0.34202 -1.02933e-07
    outer loop
      vertex -5.45955 7.5 12.4
      vertex 0 -7.5 30
      vertex -13.6808 30.0877 30
    endloop
  endfacet
  facet normal -0.34202 0.939693 0
    outer loop
      vertex 5.11305 36.9281 0
      vertex -13.6808 30.0877 30
      vertex 5.11305 36.9281 30
    endloop
  endfacet
  facet normal -0.34202 0.939693 0
    outer loop
      vertex -13.6808 30.0877 30
      vertex 5.11305 36.9281 0
      vertex -13.6808 30.0877 0
    endloop
  endfacet
  facet normal 0.34202 -0.939693 0
    outer loop
      vertex 10 -3.8603 12.4
      vertex 0 -7.5 30
      vertex 0 -7.5 12.4
    endloop
  endfacet
  facet normal 0.342019 -0.939693 -3.34744e-07
    outer loop
      vertex 0 -7.5 30
      vertex 10 -3.8603 12.4
      vertex 18.7939 -0.659596 30
    endloop
  endfacet
  facet normal 0.342019 -0.939693 0
    outer loop
      vertex 18.7939 -0.659596 0
      vertex 10 -3.8603 12.4
      vertex 10 -3.8603 0
    endloop
  endfacet
  facet normal 0.342019 -0.939693 0
    outer loop
      vertex 10 -3.8603 12.4
      vertex 18.7939 -0.659596 0
      vertex 18.7939 -0.659596 30
    endloop
  endfacet
  facet normal 0.939726 0.34193 0
    outer loop
      vertex 5.18222 36.738 30
      vertex 5.11305 36.9281 0
      vertex 5.11305 36.9281 30
    endloop
  endfacet
  facet normal 0.939726 0.34193 0
    outer loop
      vertex 5.11305 36.9281 0
      vertex 5.18222 36.738 30
      vertex 5.18222 36.738 0
    endloop
  endfacet
  facet normal 0.939691 0.342024 0
    outer loop
      vertex 18.7939 -0.659596 30
      vertex 11.9471 18.1516 0
      vertex 11.9471 18.1516 30
    endloop
  endfacet
  facet normal 0.939691 0.342024 0
    outer loop
      vertex 11.9471 18.1516 0
      vertex 18.7939 -0.659596 30
      vertex 18.7939 -0.659596 0
    endloop
  endfacet
  facet normal -1 0 0
    outer loop
      vertex 10 -3.8603 0
      vertex 10 7.5 12.4
      vertex 10 7.5 0
    endloop
  endfacet
  facet normal -1 -0 0
    outer loop
      vertex 10 7.5 12.4
      vertex 10 -3.8603 0
      vertex 10 -3.8603 12.4
    endloop
  endfacet
  facet normal 0 0 -1
    outer loop
      vertex 0 -7.5 12.4
      vertex 10 7.5 12.4
      vertex 10 -3.8603 12.4
    endloop
  endfacet
  facet normal -0 0 -1
    outer loop
      vertex 10 7.5 12.4
      vertex 0 -7.5 12.4
      vertex -5.45955 7.5 12.4
    endloop
  endfacet
  facet normal 0 -1 0
    outer loop
      vertex -5.45955 7.5 0
      vertex 10 7.5 12.4
      vertex -5.45955 7.5 12.4
    endloop
  endfacet
  facet normal 0 -1 -0
    outer loop
      vertex 10 7.5 12.4
      vertex -5.45955 7.5 0
      vertex 10 7.5 0
    endloop
  endfacet
endsolid OpenSCAD_Model
