solid OpenSCAD_Model
  facet normal -0.743138 -0.669138 0
    outer loop
      vertex -20.0739 -22.2943 0
      vertex -24.2705 -17.6336 100
      vertex -24.2705 -17.6336 0
    endloop
  endfacet
  facet normal -0.743138 -0.669138 0
    outer loop
      vertex -24.2705 -17.6336 100
      vertex -20.0739 -22.2943 0
      vertex -20.0739 -22.2943 100
    endloop
  endfacet
  facet normal 0.95106 0.309008 0
    outer loop
      vertex 29.3444 6.23735 100
      vertex 27.4064 12.2021 0
      vertex 27.4064 12.2021 100
    endloop
  endfacet
  facet normal 0.95106 0.309008 0
    outer loop
      vertex 27.4064 12.2021 0
      vertex 29.3444 6.23735 100
      vertex 29.3444 6.23735 0
    endloop
  endfacet
  facet normal 0.994521 0.104533 0
    outer loop
      vertex 30 0 100
      vertex 29.3444 6.23735 0
      vertex 29.3444 6.23735 100
    endloop
  endfacet
  facet normal 0.994521 0.104533 0
    outer loop
      vertex 29.3444 6.23735 0
      vertex 30 0 100
      vertex 30 0 0
    endloop
  endfacet
  facet normal 0.866024 0.500003 0
    outer loop
      vertex 27.4064 12.2021 100
      vertex 24.2705 17.6336 0
      vertex 24.2705 17.6336 100
    endloop
  endfacet
  facet normal 0.866024 0.500003 0
    outer loop
      vertex 24.2705 17.6336 0
      vertex 27.4064 12.2021 100
      vertex 27.4064 12.2021 0
    endloop
  endfacet
  facet normal 0.95106 -0.309008 0
    outer loop
      vertex 27.4064 -12.2021 100
      vertex 29.3444 -6.23735 0
      vertex 29.3444 -6.23735 100
    endloop
  endfacet
  facet normal 0.95106 -0.309008 0
    outer loop
      vertex 29.3444 -6.23735 0
      vertex 27.4064 -12.2021 100
      vertex 27.4064 -12.2021 0
    endloop
  endfacet
  facet normal 0.587795 -0.80901 0
    outer loop
      vertex 15 -25.9808 0
      vertex 20.0739 -22.2943 100
      vertex 15 -25.9808 100
    endloop
  endfacet
  facet normal 0.587795 -0.80901 0
    outer loop
      vertex 20.0739 -22.2943 100
      vertex 15 -25.9808 0
      vertex 20.0739 -22.2943 0
    endloop
  endfacet
  facet normal 0.743138 -0.669138 0
    outer loop
      vertex 20.0739 -22.2943 100
      vertex 24.2705 -17.6336 0
      vertex 24.2705 -17.6336 100
    endloop
  endfacet
  facet normal 0.743138 -0.669138 0
    outer loop
      vertex 24.2705 -17.6336 0
      vertex 20.0739 -22.2943 100
      vertex 20.0739 -22.2943 0
    endloop
  endfacet
  facet normal 0.994521 -0.104533 0
    outer loop
      vertex 29.3444 -6.23735 100
      vertex 30 0 0
      vertex 30 0 100
    endloop
  endfacet
  facet normal 0.994521 -0.104533 0
    outer loop
      vertex 30 0 0
      vertex 29.3444 -6.23735 100
      vertex 29.3444 -6.23735 0
    endloop
  endfacet
  facet normal -0.406732 -0.913547 0
    outer loop
      vertex -15 -25.9808 0
      vertex -9.27051 -28.5317 100
      vertex -15 -25.9808 100
    endloop
  endfacet
  facet normal -0.406732 -0.913547 -0
    outer loop
      vertex -9.27051 -28.5317 100
      vertex -15 -25.9808 0
      vertex -9.27051 -28.5317 0
    endloop
  endfacet
  facet normal 0.406732 0.913547 -0
    outer loop
      vertex 15 25.9808 0
      vertex 9.27051 28.5317 100
      vertex 15 25.9808 100
    endloop
  endfacet
  facet normal 0.406732 0.913547 0
    outer loop
      vertex 9.27051 28.5317 100
      vertex 15 25.9808 0
      vertex 9.27051 28.5317 0
    endloop
  endfacet
  facet normal 0.743138 0.669138 0
    outer loop
      vertex 24.2705 17.6336 100
      vertex 20.0739 22.2943 0
      vertex 20.0739 22.2943 100
    endloop
  endfacet
  facet normal 0.743138 0.669138 0
    outer loop
      vertex 20.0739 22.2943 0
      vertex 24.2705 17.6336 100
      vertex 24.2705 17.6336 0
    endloop
  endfacet
  facet normal -0.587795 -0.80901 0
    outer loop
      vertex -20.0739 -22.2943 0
      vertex -15 -25.9808 100
      vertex -20.0739 -22.2943 100
    endloop
  endfacet
  facet normal -0.587795 -0.80901 -0
    outer loop
      vertex -15 -25.9808 100
      vertex -20.0739 -22.2943 0
      vertex -15 -25.9808 0
    endloop
  endfacet
  facet normal -0.743138 0.669138 0
    outer loop
      vertex -24.2705 17.6336 0
      vertex -20.0739 22.2943 100
      vertex -20.0739 22.2943 0
    endloop
  endfacet
  facet normal -0.743138 0.669138 0
    outer loop
      vertex -20.0739 22.2943 100
      vertex -24.2705 17.6336 0
      vertex -24.2705 17.6336 100
    endloop
  endfacet
  facet normal 0 1 -0
    outer loop
      vertex 3.13585 29.8357 0
      vertex -3.13585 29.8357 100
      vertex 3.13585 29.8357 100
    endloop
  endfacet
  facet normal 0 1 0
    outer loop
      vertex -3.13585 29.8357 100
      vertex 3.13585 29.8357 0
      vertex -3.13585 29.8357 0
    endloop
  endfacet
  facet normal 0.406732 -0.913547 0
    outer loop
      vertex 9.27051 -28.5317 0
      vertex 15 -25.9808 100
      vertex 9.27051 -28.5317 100
    endloop
  endfacet
  facet normal 0.406732 -0.913547 0
    outer loop
      vertex 15 -25.9808 100
      vertex 9.27051 -28.5317 0
      vertex 15 -25.9808 0
    endloop
  endfacet
  facet normal 0.207917 -0.978146 0
    outer loop
      vertex 3.13585 -29.8357 0
      vertex 9.27051 -28.5317 100
      vertex 3.13585 -29.8357 100
    endloop
  endfacet
  facet normal 0.207917 -0.978146 0
    outer loop
      vertex 9.27051 -28.5317 100
      vertex 3.13585 -29.8357 0
      vertex 9.27051 -28.5317 0
    endloop
  endfacet
  facet normal -0.95106 0.309008 0
    outer loop
      vertex -29.3444 6.23735 0
      vertex -27.4064 12.2021 100
      vertex -27.4064 12.2021 0
    endloop
  endfacet
  facet normal -0.95106 0.309008 0
    outer loop
      vertex -27.4064 12.2021 100
      vertex -29.3444 6.23735 0
      vertex -29.3444 6.23735 100
    endloop
  endfacet
  facet normal 0 0 -1
    outer loop
      vertex 29.3444 -6.23735 0
      vertex 29.3444 6.23735 0
      vertex 30 0 0
    endloop
  endfacet
  facet normal 0 0 -1
    outer loop
      vertex 27.4064 -12.2021 0
      vertex 29.3444 6.23735 0
      vertex 29.3444 -6.23735 0
    endloop
  endfacet
  facet normal 0 0 -1
    outer loop
      vertex 27.4064 -12.2021 0
      vertex 27.4064 12.2021 0
      vertex 29.3444 6.23735 0
    endloop
  endfacet
  facet normal 0 0 -1
    outer loop
      vertex 24.2705 -17.6336 0
      vertex 27.4064 12.2021 0
      vertex 27.4064 -12.2021 0
    endloop
  endfacet
  facet normal 0 0 -1
    outer loop
      vertex 24.2705 -17.6336 0
      vertex 24.2705 17.6336 0
      vertex 27.4064 12.2021 0
    endloop
  endfacet
  facet normal 0 0 -1
    outer loop
      vertex 20.0739 -22.2943 0
      vertex 24.2705 17.6336 0
      vertex 24.2705 -17.6336 0
    endloop
  endfacet
  facet normal 0 0 -1
    outer loop
      vertex 20.0739 -22.2943 0
      vertex 20.0739 22.2943 0
      vertex 24.2705 17.6336 0
    endloop
  endfacet
  facet normal 0 0 -1
    outer loop
      vertex 15 -25.9808 0
      vertex 20.0739 22.2943 0
      vertex 20.0739 -22.2943 0
    endloop
  endfacet
  facet normal 0 0 -1
    outer loop
      vertex 15 -25.9808 0
      vertex 15 25.9808 0
      vertex 20.0739 22.2943 0
    endloop
  endfacet
  facet normal 0 0 -1
    outer loop
      vertex 9.27051 -28.5317 0
      vertex 15 25.9808 0
      vertex 15 -25.9808 0
    endloop
  endfacet
  facet normal 0 0 -1
    outer loop
      vertex 9.27051 -28.5317 0
      vertex 9.27051 28.5317 0
      vertex 15 25.9808 0
    endloop
  endfacet
  facet normal 0 0 -1
    outer loop
      vertex 3.13585 -29.8357 0
      vertex 9.27051 28.5317 0
      vertex 9.27051 -28.5317 0
    endloop
  endfacet
  facet normal 0 0 -1
    outer loop
      vertex 3.13585 -29.8357 0
      vertex 3.13585 29.8357 0
      vertex 9.27051 28.5317 0
    endloop
  endfacet
  facet normal 0 0 -1
    outer loop
      vertex -3.13585 -29.8357 0
      vertex 3.13585 29.8357 0
      vertex 3.13585 -29.8357 0
    endloop
  endfacet
  facet normal 0 0 -1
    outer loop
      vertex -3.13585 -29.8357 0
      vertex -3.13585 29.8357 0
      vertex 3.13585 29.8357 0
    endloop
  endfacet
  facet normal 0 0 -1
    outer loop
      vertex -9.27051 -28.5317 0
      vertex -3.13585 29.8357 0
      vertex -3.13585 -29.8357 0
    endloop
  endfacet
  facet normal 0 0 -1
    outer loop
      vertex -9.27051 -28.5317 0
      vertex -9.27051 28.5317 0
      vertex -3.13585 29.8357 0
    endloop
  endfacet
  facet normal 0 0 -1
    outer loop
      vertex -15 -25.9808 0
      vertex -9.27051 28.5317 0
      vertex -9.27051 -28.5317 0
    endloop
  endfacet
  facet normal 0 0 -1
    outer loop
      vertex -15 -25.9808 0
      vertex -15 25.9808 0
      vertex -9.27051 28.5317 0
    endloop
  endfacet
  facet normal 0 0 -1
    outer loop
      vertex -20.0739 -22.2943 0
      vertex -15 25.9808 0
      vertex -15 -25.9808 0
    endloop
  endfacet
  facet normal 0 0 -1
    outer loop
      vertex -20.0739 -22.2943 0
      vertex -20.0739 22.2943 0
      vertex -15 25.9808 0
    endloop
  endfacet
  facet normal 0 0 -1
    outer loop
      vertex -24.2705 -17.6336 0
      vertex -20.0739 22.2943 0
      vertex -20.0739 -22.2943 0
    endloop
  endfacet
  facet normal 0 0 -1
    outer loop
      vertex -24.2705 -17.6336 0
      vertex -24.2705 17.6336 0
      vertex -20.0739 22.2943 0
    endloop
  endfacet
  facet normal 0 0 -1
    outer loop
      vertex -27.4064 -12.2021 0
      vertex -24.2705 17.6336 0
      vertex -24.2705 -17.6336 0
    endloop
  endfacet
  facet normal 0 0 -1
    outer loop
      vertex -27.4064 -12.2021 0
      vertex -27.4064 12.2021 0
      vertex -24.2705 17.6336 0
    endloop
  endfacet
  facet normal 0 0 -1
    outer loop
      vertex -29.3444 -6.23735 0
      vertex -27.4064 12.2021 0
      vertex -27.4064 -12.2021 0
    endloop
  endfacet
  facet normal 0 0 -1
    outer loop
      vertex -29.3444 -6.23735 0
      vertex -29.3444 6.23735 0
      vertex -27.4064 12.2021 0
    endloop
  endfacet
  facet normal 0 -0 -1
    outer loop
      vertex -29.3444 6.23735 0
      vertex -29.3444 -6.23735 0
      vertex -30 0 0
    endloop
  endfacet
  facet normal -0.95106 -0.309008 0
    outer loop
      vertex -27.4064 -12.2021 0
      vertex -29.3444 -6.23735 100
      vertex -29.3444 -6.23735 0
    endloop
  endfacet
  facet normal -0.95106 -0.309008 0
    outer loop
      vertex -29.3444 -6.23735 100
      vertex -27.4064 -12.2021 0
      vertex -27.4064 -12.2021 100
    endloop
  endfacet
  facet normal -0.406732 0.913547 0
    outer loop
      vertex -9.27051 28.5317 0
      vertex -15 25.9808 100
      vertex -9.27051 28.5317 100
    endloop
  endfacet
  facet normal -0.406732 0.913547 0
    outer loop
      vertex -15 25.9808 100
      vertex -9.27051 28.5317 0
      vertex -15 25.9808 0
    endloop
  endfacet
  facet normal 0 0 1
    outer loop
      vertex 29.3444 6.23735 100
      vertex 29.3444 -6.23735 100
      vertex 30 0 100
    endloop
  endfacet
  facet normal 0 0 1
    outer loop
      vertex 27.4064 12.2021 100
      vertex 29.3444 -6.23735 100
      vertex 29.3444 6.23735 100
    endloop
  endfacet
  facet normal 0 0 1
    outer loop
      vertex 27.4064 12.2021 100
      vertex 27.4064 -12.2021 100
      vertex 29.3444 -6.23735 100
    endloop
  endfacet
  facet normal 0 0 1
    outer loop
      vertex 24.2705 17.6336 100
      vertex 27.4064 -12.2021 100
      vertex 27.4064 12.2021 100
    endloop
  endfacet
  facet normal 0 0 1
    outer loop
      vertex 24.2705 17.6336 100
      vertex 24.2705 -17.6336 100
      vertex 27.4064 -12.2021 100
    endloop
  endfacet
  facet normal 0 0 1
    outer loop
      vertex 20.0739 22.2943 100
      vertex 24.2705 -17.6336 100
      vertex 24.2705 17.6336 100
    endloop
  endfacet
  facet normal 0 0 1
    outer loop
      vertex 20.0739 22.2943 100
      vertex 20.0739 -22.2943 100
      vertex 24.2705 -17.6336 100
    endloop
  endfacet
  facet normal 0 0 1
    outer loop
      vertex 15 25.9808 100
      vertex 20.0739 -22.2943 100
      vertex 20.0739 22.2943 100
    endloop
  endfacet
  facet normal 0 0 1
    outer loop
      vertex 15 25.9808 100
      vertex 15 -25.9808 100
      vertex 20.0739 -22.2943 100
    endloop
  endfacet
  facet normal 0 0 1
    outer loop
      vertex 9.27051 28.5317 100
      vertex 15 -25.9808 100
      vertex 15 25.9808 100
    endloop
  endfacet
  facet normal 0 0 1
    outer loop
      vertex 9.27051 28.5317 100
      vertex 9.27051 -28.5317 100
      vertex 15 -25.9808 100
    endloop
  endfacet
  facet normal 0 0 1
    outer loop
      vertex 3.13585 29.8357 100
      vertex 9.27051 -28.5317 100
      vertex 9.27051 28.5317 100
    endloop
  endfacet
  facet normal 0 0 1
    outer loop
      vertex 3.13585 29.8357 100
      vertex 3.13585 -29.8357 100
      vertex 9.27051 -28.5317 100
    endloop
  endfacet
  facet normal -0 0 1
    outer loop
      vertex -3.13585 29.8357 100
      vertex 3.13585 -29.8357 100
      vertex 3.13585 29.8357 100
    endloop
  endfacet
  facet normal 0 0 1
    outer loop
      vertex -3.13585 29.8357 100
      vertex -3.13585 -29.8357 100
      vertex 3.13585 -29.8357 100
    endloop
  endfacet
  facet normal -0 0 1
    outer loop
      vertex -9.27051 28.5317 100
      vertex -3.13585 -29.8357 100
      vertex -3.13585 29.8357 100
    endloop
  endfacet
  facet normal 0 0 1
    outer loop
      vertex -9.27051 28.5317 100
      vertex -9.27051 -28.5317 100
      vertex -3.13585 -29.8357 100
    endloop
  endfacet
  facet normal -0 0 1
    outer loop
      vertex -15 25.9808 100
      vertex -9.27051 -28.5317 100
      vertex -9.27051 28.5317 100
    endloop
  endfacet
  facet normal 0 0 1
    outer loop
      vertex -15 25.9808 100
      vertex -15 -25.9808 100
      vertex -9.27051 -28.5317 100
    endloop
  endfacet
  facet normal -0 0 1
    outer loop
      vertex -20.0739 22.2943 100
      vertex -15 -25.9808 100
      vertex -15 25.9808 100
    endloop
  endfacet
  facet normal 0 0 1
    outer loop
      vertex -20.0739 22.2943 100
      vertex -20.0739 -22.2943 100
      vertex -15 -25.9808 100
    endloop
  endfacet
  facet normal -0 0 1
    outer loop
      vertex -24.2705 17.6336 100
      vertex -20.0739 -22.2943 100
      vertex -20.0739 22.2943 100
    endloop
  endfacet
  facet normal 0 0 1
    outer loop
      vertex -24.2705 17.6336 100
      vertex -24.2705 -17.6336 100
      vertex -20.0739 -22.2943 100
    endloop
  endfacet
  facet normal -0 0 1
    outer loop
      vertex -27.4064 12.2021 100
      vertex -24.2705 -17.6336 100
      vertex -24.2705 17.6336 100
    endloop
  endfacet
  facet normal 0 0 1
    outer loop
      vertex -27.4064 12.2021 100
      vertex -27.4064 -12.2021 100
      vertex -24.2705 -17.6336 100
    endloop
  endfacet
  facet normal -0 0 1
    outer loop
      vertex -29.3444 6.23735 100
      vertex -27.4064 -12.2021 100
      vertex -27.4064 12.2021 100
    endloop
  endfacet
  facet normal 0 0 1
    outer loop
      vertex -29.3444 6.23735 100
      vertex -29.3444 -6.23735 100
      vertex -27.4064 -12.2021 100
    endloop
  endfacet
  facet normal 0 -0 1
    outer loop
      vertex -29.3444 -6.23735 100
      vertex -29.3444 6.23735 100
      vertex -30 0 100
    endloop
  endfacet
  facet normal -0.207917 -0.978146 0
    outer loop
      vertex -9.27051 -28.5317 0
      vertex -3.13585 -29.8357 100
      vertex -9.27051 -28.5317 100
    endloop
  endfacet
  facet normal -0.207917 -0.978146 -0
    outer loop
      vertex -3.13585 -29.8357 100
      vertex -9.27051 -28.5317 0
      vertex -3.13585 -29.8357 0
    endloop
  endfacet
  facet normal 0.207917 0.978146 -0
    outer loop
      vertex 9.27051 28.5317 0
      vertex 3.13585 29.8357 100
      vertex 9.27051 28.5317 100
    endloop
  endfacet
  facet normal 0.207917 0.978146 0
    outer loop
      vertex 3.13585 29.8357 100
      vertex 9.27051 28.5317 0
      vertex 3.13585 29.8357 0
    endloop
  endfacet
  facet normal -0.994521 -0.104533 0
    outer loop
      vertex -29.3444 -6.23735 0
      vertex -30 0 100
      vertex -30 0 0
    endloop
  endfacet
  facet normal -0.994521 -0.104533 0
    outer loop
      vertex -30 0 100
      vertex -29.3444 -6.23735 0
      vertex -29.3444 -6.23735 100
    endloop
  endfacet
  facet normal -0.994521 0.104533 0
    outer loop
      vertex -30 0 0
      vertex -29.3444 6.23735 100
      vertex -29.3444 6.23735 0
    endloop
  endfacet
  facet normal -0.994521 0.104533 0
    outer loop
      vertex -29.3444 6.23735 100
      vertex -30 0 0
      vertex -30 0 100
    endloop
  endfacet
  facet normal -0.866024 -0.500003 0
    outer loop
      vertex -24.2705 -17.6336 0
      vertex -27.4064 -12.2021 100
      vertex -27.4064 -12.2021 0
    endloop
  endfacet
  facet normal -0.866024 -0.500003 0
    outer loop
      vertex -27.4064 -12.2021 100
      vertex -24.2705 -17.6336 0
      vertex -24.2705 -17.6336 100
    endloop
  endfacet
  facet normal -0.866024 0.500003 0
    outer loop
      vertex -27.4064 12.2021 0
      vertex -24.2705 17.6336 100
      vertex -24.2705 17.6336 0
    endloop
  endfacet
  facet normal -0.866024 0.500003 0
    outer loop
      vertex -24.2705 17.6336 100
      vertex -27.4064 12.2021 0
      vertex -27.4064 12.2021 100
    endloop
  endfacet
  facet normal 0.866024 -0.500003 0
    outer loop
      vertex 24.2705 -17.6336 100
      vertex 27.4064 -12.2021 0
      vertex 27.4064 -12.2021 100
    endloop
  endfacet
  facet normal 0.866024 -0.500003 0
    outer loop
      vertex 27.4064 -12.2021 0
      vertex 24.2705 -17.6336 100
      vertex 24.2705 -17.6336 0
    endloop
  endfacet
  facet normal 0.587795 0.80901 -0
    outer loop
      vertex 20.0739 22.2943 0
      vertex 15 25.9808 100
      vertex 20.0739 22.2943 100
    endloop
  endfacet
  facet normal 0.587795 0.80901 0
    outer loop
      vertex 15 25.9808 100
      vertex 20.0739 22.2943 0
      vertex 15 25.9808 0
    endloop
  endfacet
  facet normal -0.587795 0.80901 0
    outer loop
      vertex -15 25.9808 0
      vertex -20.0739 22.2943 100
      vertex -15 25.9808 100
    endloop
  endfacet
  facet normal -0.587795 0.80901 0
    outer loop
      vertex -20.0739 22.2943 100
      vertex -15 25.9808 0
      vertex -20.0739 22.2943 0
    endloop
  endfacet
  facet normal -0.207917 0.978146 0
    outer loop
      vertex -3.13585 29.8357 0
      vertex -9.27051 28.5317 100
      vertex -3.13585 29.8357 100
    endloop
  endfacet
  facet normal -0.207917 0.978146 0
    outer loop
      vertex -9.27051 28.5317 100
      vertex -3.13585 29.8357 0
      vertex -9.27051 28.5317 0
    endloop
  endfacet
  facet normal 0 -1 0
    outer loop
      vertex -3.13585 -29.8357 0
      vertex 3.13585 -29.8357 100
      vertex -3.13585 -29.8357 100
    endloop
  endfacet
  facet normal 0 -1 -0
    outer loop
      vertex 3.13585 -29.8357 100
      vertex -3.13585 -29.8357 0
      vertex 3.13585 -29.8357 0
    endloop
  endfacet
  facet normal 0.743138 -0.669138 0
    outer loop
      vertex -21.8435 15.8702 75
      vertex -18.0665 20.0649 50
      vertex -18.0665 20.0649 75
    endloop
  endfacet
  facet normal 0.743138 -0.669138 0
    outer loop
      vertex -18.0665 20.0649 50
      vertex -21.8435 15.8702 75
      vertex -21.8435 15.8702 50
    endloop
  endfacet
  facet normal -0.951054 -0.309023 0
    outer loop
      vertex 26.41 5.61362 50
      vertex 24.6657 10.9819 75
      vertex 24.6657 10.9819 50
    endloop
  endfacet
  facet normal -0.951054 -0.309023 0
    outer loop
      vertex 24.6657 10.9819 75
      vertex 26.41 5.61362 50
      vertex 26.41 5.61362 75
    endloop
  endfacet
  facet normal -0.994522 -0.104526 0
    outer loop
      vertex 27 0 50
      vertex 26.41 5.61362 75
      vertex 26.41 5.61362 50
    endloop
  endfacet
  facet normal -0.994522 -0.104526 0
    outer loop
      vertex 26.41 5.61362 75
      vertex 27 0 50
      vertex 27 0 75
    endloop
  endfacet
  facet normal -0.86603 -0.499992 0
    outer loop
      vertex 24.6657 10.9819 50
      vertex 21.8435 15.8702 75
      vertex 21.8435 15.8702 50
    endloop
  endfacet
  facet normal -0.86603 -0.499992 0
    outer loop
      vertex 21.8435 15.8702 75
      vertex 24.6657 10.9819 50
      vertex 24.6657 10.9819 75
    endloop
  endfacet
  facet normal -0.951054 0.309023 0
    outer loop
      vertex 24.6657 -10.9819 50
      vertex 26.41 -5.61362 75
      vertex 26.41 -5.61362 50
    endloop
  endfacet
  facet normal -0.951054 0.309023 0
    outer loop
      vertex 26.41 -5.61362 75
      vertex 24.6657 -10.9819 50
      vertex 24.6657 -10.9819 75
    endloop
  endfacet
  facet normal 0.86603 0.499992 0
    outer loop
      vertex -21.8435 -15.8702 75
      vertex -24.6657 -10.9819 50
      vertex -24.6657 -10.9819 75
    endloop
  endfacet
  facet normal 0.86603 0.499992 0
    outer loop
      vertex -24.6657 -10.9819 50
      vertex -21.8435 -15.8702 75
      vertex -21.8435 -15.8702 50
    endloop
  endfacet
  facet normal -0.994522 0.104526 0
    outer loop
      vertex 26.41 -5.61362 50
      vertex 27 0 75
      vertex 27 0 50
    endloop
  endfacet
  facet normal -0.994522 0.104526 0
    outer loop
      vertex 27 0 75
      vertex 26.41 -5.61362 50
      vertex 26.41 -5.61362 75
    endloop
  endfacet
  facet normal 0.58779 -0.809013 0
    outer loop
      vertex -18.0665 20.0649 50
      vertex -13.5 23.3827 75
      vertex -18.0665 20.0649 75
    endloop
  endfacet
  facet normal 0.58779 -0.809013 0
    outer loop
      vertex -13.5 23.3827 75
      vertex -18.0665 20.0649 50
      vertex -13.5 23.3827 50
    endloop
  endfacet
  facet normal -0.743138 -0.669138 0
    outer loop
      vertex 21.8435 15.8702 50
      vertex 18.0665 20.0649 75
      vertex 18.0665 20.0649 50
    endloop
  endfacet
  facet normal -0.743138 -0.669138 0
    outer loop
      vertex 18.0665 20.0649 75
      vertex 21.8435 15.8702 50
      vertex 21.8435 15.8702 75
    endloop
  endfacet
  facet normal -0.406731 -0.913548 0
    outer loop
      vertex 8.34346 25.6785 50
      vertex 13.5 23.3827 75
      vertex 8.34346 25.6785 75
    endloop
  endfacet
  facet normal -0.406731 -0.913548 -0
    outer loop
      vertex 13.5 23.3827 75
      vertex 8.34346 25.6785 50
      vertex 13.5 23.3827 50
    endloop
  endfacet
  facet normal -0.743138 0.669138 0
    outer loop
      vertex 18.0665 -20.0649 50
      vertex 21.8435 -15.8702 75
      vertex 21.8435 -15.8702 50
    endloop
  endfacet
  facet normal -0.743138 0.669138 0
    outer loop
      vertex 21.8435 -15.8702 75
      vertex 18.0665 -20.0649 50
      vertex 18.0665 -20.0649 75
    endloop
  endfacet
  facet normal 0.207918 0.978146 -0
    outer loop
      vertex -2.82227 -26.8521 50
      vertex -8.34346 -25.6785 75
      vertex -2.82227 -26.8521 75
    endloop
  endfacet
  facet normal 0.207918 0.978146 0
    outer loop
      vertex -8.34346 -25.6785 75
      vertex -2.82227 -26.8521 50
      vertex -8.34346 -25.6785 50
    endloop
  endfacet
  facet normal -0.86603 0.499992 0
    outer loop
      vertex 21.8435 -15.8702 50
      vertex 24.6657 -10.9819 75
      vertex 24.6657 -10.9819 50
    endloop
  endfacet
  facet normal -0.86603 0.499992 0
    outer loop
      vertex 24.6657 -10.9819 75
      vertex 21.8435 -15.8702 50
      vertex 21.8435 -15.8702 75
    endloop
  endfacet
  facet normal 0.406731 0.913548 -0
    outer loop
      vertex -8.34346 -25.6785 50
      vertex -13.5 -23.3827 75
      vertex -8.34346 -25.6785 75
    endloop
  endfacet
  facet normal 0.406731 0.913548 0
    outer loop
      vertex -13.5 -23.3827 75
      vertex -8.34346 -25.6785 50
      vertex -13.5 -23.3827 50
    endloop
  endfacet
  facet normal 0.406731 -0.913548 0
    outer loop
      vertex -13.5 23.3827 50
      vertex -8.34346 25.6785 75
      vertex -13.5 23.3827 75
    endloop
  endfacet
  facet normal 0.406731 -0.913548 0
    outer loop
      vertex -8.34346 25.6785 75
      vertex -13.5 23.3827 50
      vertex -8.34346 25.6785 50
    endloop
  endfacet
  facet normal 0.951054 -0.309023 0
    outer loop
      vertex -26.41 5.61362 75
      vertex -24.6657 10.9819 50
      vertex -24.6657 10.9819 75
    endloop
  endfacet
  facet normal 0.951054 -0.309023 0
    outer loop
      vertex -24.6657 10.9819 50
      vertex -26.41 5.61362 75
      vertex -26.41 5.61362 50
    endloop
  endfacet
  facet normal -0.207918 0.978146 0
    outer loop
      vertex 8.34346 -25.6785 50
      vertex 2.82227 -26.8521 75
      vertex 8.34346 -25.6785 75
    endloop
  endfacet
  facet normal -0.207918 0.978146 0
    outer loop
      vertex 2.82227 -26.8521 75
      vertex 8.34346 -25.6785 50
      vertex 2.82227 -26.8521 50
    endloop
  endfacet
  facet normal -0.207918 -0.978146 0
    outer loop
      vertex 2.82227 26.8521 50
      vertex 8.34346 25.6785 75
      vertex 2.82227 26.8521 75
    endloop
  endfacet
  facet normal -0.207918 -0.978146 -0
    outer loop
      vertex 8.34346 25.6785 75
      vertex 2.82227 26.8521 50
      vertex 8.34346 25.6785 50
    endloop
  endfacet
  facet normal -0.406731 0.913548 0
    outer loop
      vertex 13.5 -23.3827 50
      vertex 8.34346 -25.6785 75
      vertex 13.5 -23.3827 75
    endloop
  endfacet
  facet normal -0.406731 0.913548 0
    outer loop
      vertex 8.34346 -25.6785 75
      vertex 13.5 -23.3827 50
      vertex 8.34346 -25.6785 50
    endloop
  endfacet
  facet normal 0.951054 0.309023 0
    outer loop
      vertex -24.6657 -10.9819 75
      vertex -26.41 -5.61362 50
      vertex -26.41 -5.61362 75
    endloop
  endfacet
  facet normal 0.951054 0.309023 0
    outer loop
      vertex -26.41 -5.61362 50
      vertex -24.6657 -10.9819 75
      vertex -24.6657 -10.9819 50
    endloop
  endfacet
  facet normal 0.994522 -0.104526 0
    outer loop
      vertex -27 0 75
      vertex -26.41 5.61362 50
      vertex -26.41 5.61362 75
    endloop
  endfacet
  facet normal 0.994522 -0.104526 0
    outer loop
      vertex -26.41 5.61362 50
      vertex -27 0 75
      vertex -27 0 50
    endloop
  endfacet
  facet normal 0.207918 -0.978146 0
    outer loop
      vertex -8.34346 25.6785 50
      vertex -2.82227 26.8521 75
      vertex -8.34346 25.6785 75
    endloop
  endfacet
  facet normal 0.207918 -0.978146 0
    outer loop
      vertex -2.82227 26.8521 75
      vertex -8.34346 25.6785 50
      vertex -2.82227 26.8521 50
    endloop
  endfacet
  facet normal -0.58779 -0.809013 0
    outer loop
      vertex 13.5 23.3827 50
      vertex 18.0665 20.0649 75
      vertex 13.5 23.3827 75
    endloop
  endfacet
  facet normal -0.58779 -0.809013 -0
    outer loop
      vertex 18.0665 20.0649 75
      vertex 13.5 23.3827 50
      vertex 18.0665 20.0649 50
    endloop
  endfacet
  facet normal 0 0 -1
    outer loop
      vertex 26.41 -5.61362 75
      vertex 26.41 5.61362 75
      vertex 27 0 75
    endloop
  endfacet
  facet normal 0 0 -1
    outer loop
      vertex 24.6657 -10.9819 75
      vertex 26.41 5.61362 75
      vertex 26.41 -5.61362 75
    endloop
  endfacet
  facet normal 0 0 -1
    outer loop
      vertex 24.6657 -10.9819 75
      vertex 24.6657 10.9819 75
      vertex 26.41 5.61362 75
    endloop
  endfacet
  facet normal 0 0 -1
    outer loop
      vertex 21.8435 -15.8702 75
      vertex 24.6657 10.9819 75
      vertex 24.6657 -10.9819 75
    endloop
  endfacet
  facet normal 0 0 -1
    outer loop
      vertex 21.8435 -15.8702 75
      vertex 21.8435 15.8702 75
      vertex 24.6657 10.9819 75
    endloop
  endfacet
  facet normal 0 0 -1
    outer loop
      vertex 18.0665 -20.0649 75
      vertex 21.8435 15.8702 75
      vertex 21.8435 -15.8702 75
    endloop
  endfacet
  facet normal 0 0 -1
    outer loop
      vertex 18.0665 -20.0649 75
      vertex 18.0665 20.0649 75
      vertex 21.8435 15.8702 75
    endloop
  endfacet
  facet normal 0 0 -1
    outer loop
      vertex 13.5 -23.3827 75
      vertex 18.0665 20.0649 75
      vertex 18.0665 -20.0649 75
    endloop
  endfacet
  facet normal 0 0 -1
    outer loop
      vertex 13.5 -23.3827 75
      vertex 13.5 23.3827 75
      vertex 18.0665 20.0649 75
    endloop
  endfacet
  facet normal 0 0 -1
    outer loop
      vertex 8.34346 -25.6785 75
      vertex 13.5 23.3827 75
      vertex 13.5 -23.3827 75
    endloop
  endfacet
  facet normal 0 0 -1
    outer loop
      vertex 8.34346 -25.6785 75
      vertex 8.34346 25.6785 75
      vertex 13.5 23.3827 75
    endloop
  endfacet
  facet normal 0 0 -1
    outer loop
      vertex 2.82227 -26.8521 75
      vertex 8.34346 25.6785 75
      vertex 8.34346 -25.6785 75
    endloop
  endfacet
  facet normal 0 0 -1
    outer loop
      vertex 2.82227 -26.8521 75
      vertex 2.82227 26.8521 75
      vertex 8.34346 25.6785 75
    endloop
  endfacet
  facet normal 0 0 -1
    outer loop
      vertex -2.82227 -26.8521 75
      vertex 2.82227 26.8521 75
      vertex 2.82227 -26.8521 75
    endloop
  endfacet
  facet normal 0 0 -1
    outer loop
      vertex -2.82227 -26.8521 75
      vertex -2.82227 26.8521 75
      vertex 2.82227 26.8521 75
    endloop
  endfacet
  facet normal 0 0 -1
    outer loop
      vertex -8.34346 -25.6785 75
      vertex -2.82227 26.8521 75
      vertex -2.82227 -26.8521 75
    endloop
  endfacet
  facet normal 0 0 -1
    outer loop
      vertex -8.34346 -25.6785 75
      vertex -8.34346 25.6785 75
      vertex -2.82227 26.8521 75
    endloop
  endfacet
  facet normal 0 0 -1
    outer loop
      vertex -13.5 -23.3827 75
      vertex -8.34346 25.6785 75
      vertex -8.34346 -25.6785 75
    endloop
  endfacet
  facet normal 0 0 -1
    outer loop
      vertex -13.5 -23.3827 75
      vertex -13.5 23.3827 75
      vertex -8.34346 25.6785 75
    endloop
  endfacet
  facet normal 0 0 -1
    outer loop
      vertex -18.0665 -20.0649 75
      vertex -13.5 23.3827 75
      vertex -13.5 -23.3827 75
    endloop
  endfacet
  facet normal 0 0 -1
    outer loop
      vertex -18.0665 -20.0649 75
      vertex -18.0665 20.0649 75
      vertex -13.5 23.3827 75
    endloop
  endfacet
  facet normal 0 0 -1
    outer loop
      vertex -21.8435 -15.8702 75
      vertex -18.0665 20.0649 75
      vertex -18.0665 -20.0649 75
    endloop
  endfacet
  facet normal 0 0 -1
    outer loop
      vertex -21.8435 -15.8702 75
      vertex -21.8435 15.8702 75
      vertex -18.0665 20.0649 75
    endloop
  endfacet
  facet normal 0 0 -1
    outer loop
      vertex -24.6657 -10.9819 75
      vertex -21.8435 15.8702 75
      vertex -21.8435 -15.8702 75
    endloop
  endfacet
  facet normal 0 0 -1
    outer loop
      vertex -24.6657 -10.9819 75
      vertex -24.6657 10.9819 75
      vertex -21.8435 15.8702 75
    endloop
  endfacet
  facet normal 0 0 -1
    outer loop
      vertex -26.41 -5.61362 75
      vertex -24.6657 10.9819 75
      vertex -24.6657 -10.9819 75
    endloop
  endfacet
  facet normal 0 0 -1
    outer loop
      vertex -26.41 -5.61362 75
      vertex -26.41 5.61362 75
      vertex -24.6657 10.9819 75
    endloop
  endfacet
  facet normal 0 -0 -1
    outer loop
      vertex -26.41 5.61362 75
      vertex -26.41 -5.61362 75
      vertex -27 0 75
    endloop
  endfacet
  facet normal -0.58779 0.809013 0
    outer loop
      vertex 18.0665 -20.0649 50
      vertex 13.5 -23.3827 75
      vertex 18.0665 -20.0649 75
    endloop
  endfacet
  facet normal -0.58779 0.809013 0
    outer loop
      vertex 13.5 -23.3827 75
      vertex 18.0665 -20.0649 50
      vertex 13.5 -23.3827 50
    endloop
  endfacet
  facet normal 0.994522 0.104526 0
    outer loop
      vertex -26.41 -5.61362 75
      vertex -27 0 50
      vertex -27 0 75
    endloop
  endfacet
  facet normal 0.994522 0.104526 0
    outer loop
      vertex -27 0 50
      vertex -26.41 -5.61362 75
      vertex -26.41 -5.61362 50
    endloop
  endfacet
  facet normal 0 1 -0
    outer loop
      vertex 2.82227 -26.8521 50
      vertex -2.82227 -26.8521 75
      vertex 2.82227 -26.8521 75
    endloop
  endfacet
  facet normal 0 1 0
    outer loop
      vertex -2.82227 -26.8521 75
      vertex 2.82227 -26.8521 50
      vertex -2.82227 -26.8521 50
    endloop
  endfacet
  facet normal 0 0 1
    outer loop
      vertex 7.24444 1.94114 50
      vertex 7.24444 -1.94114 50
      vertex 7.5 0 50
    endloop
  endfacet
  facet normal 0 0 1
    outer loop
      vertex 6.49519 3.75 50
      vertex 7.24444 -1.94114 50
      vertex 7.24444 1.94114 50
    endloop
  endfacet
  facet normal 0 0 1
    outer loop
      vertex 6.49519 3.75 50
      vertex 6.49519 -3.75 50
      vertex 7.24444 -1.94114 50
    endloop
  endfacet
  facet normal 0 0 1
    outer loop
      vertex 5.3033 5.3033 50
      vertex 6.49519 -3.75 50
      vertex 6.49519 3.75 50
    endloop
  endfacet
  facet normal 0 0 1
    outer loop
      vertex 5.3033 5.3033 50
      vertex 5.3033 -5.3033 50
      vertex 6.49519 -3.75 50
    endloop
  endfacet
  facet normal 0 0 1
    outer loop
      vertex 3.75 6.49519 50
      vertex 5.3033 -5.3033 50
      vertex 5.3033 5.3033 50
    endloop
  endfacet
  facet normal 0 0 1
    outer loop
      vertex 3.75 6.49519 50
      vertex 3.75 -6.49519 50
      vertex 5.3033 -5.3033 50
    endloop
  endfacet
  facet normal 0 0 1
    outer loop
      vertex 1.94114 7.24444 50
      vertex 3.75 -6.49519 50
      vertex 3.75 6.49519 50
    endloop
  endfacet
  facet normal 0 0 1
    outer loop
      vertex 1.94114 7.24444 50
      vertex 1.94114 -7.24444 50
      vertex 3.75 -6.49519 50
    endloop
  endfacet
  facet normal 0 0 1
    outer loop
      vertex 0 7.5 50
      vertex 1.94114 -7.24444 50
      vertex 1.94114 7.24444 50
    endloop
  endfacet
  facet normal 0 0 1
    outer loop
      vertex 0 7.5 50
      vertex 0 -7.5 50
      vertex 1.94114 -7.24444 50
    endloop
  endfacet
  facet normal -0 0 1
    outer loop
      vertex -1.94114 7.24444 50
      vertex 0 -7.5 50
      vertex 0 7.5 50
    endloop
  endfacet
  facet normal 0 0 1
    outer loop
      vertex -1.94114 7.24444 50
      vertex -1.94114 -7.24444 50
      vertex 0 -7.5 50
    endloop
  endfacet
  facet normal -0 0 1
    outer loop
      vertex -3.75 6.49519 50
      vertex -1.94114 -7.24444 50
      vertex -1.94114 7.24444 50
    endloop
  endfacet
  facet normal 0 0 1
    outer loop
      vertex -3.75 6.49519 50
      vertex -3.75 -6.49519 50
      vertex -1.94114 -7.24444 50
    endloop
  endfacet
  facet normal -0 0 1
    outer loop
      vertex -5.3033 5.3033 50
      vertex -3.75 -6.49519 50
      vertex -3.75 6.49519 50
    endloop
  endfacet
  facet normal 0 0 1
    outer loop
      vertex -5.3033 5.3033 50
      vertex -5.3033 -5.3033 50
      vertex -3.75 -6.49519 50
    endloop
  endfacet
  facet normal -0 0 1
    outer loop
      vertex -6.49519 3.75 50
      vertex -5.3033 -5.3033 50
      vertex -5.3033 5.3033 50
    endloop
  endfacet
  facet normal 0 0 1
    outer loop
      vertex -6.49519 3.75 50
      vertex -6.49519 -3.75 50
      vertex -5.3033 -5.3033 50
    endloop
  endfacet
  facet normal -0 0 1
    outer loop
      vertex -7.24444 1.94114 50
      vertex -6.49519 -3.75 50
      vertex -6.49519 3.75 50
    endloop
  endfacet
  facet normal 0 0 1
    outer loop
      vertex -7.24444 1.94114 50
      vertex -7.24444 -1.94114 50
      vertex -6.49519 -3.75 50
    endloop
  endfacet
  facet normal 0 -0 1
    outer loop
      vertex -7.24444 -1.94114 50
      vertex -7.24444 1.94114 50
      vertex -7.5 0 50
    endloop
  endfacet
  facet normal 0 0 1
    outer loop
      vertex 7.5 0 50
      vertex 27 0 50
      vertex 26.41 5.61362 50
    endloop
  endfacet
  facet normal 0 0 1
    outer loop
      vertex 7.24444 1.94114 50
      vertex 26.41 5.61362 50
      vertex 24.6657 10.9819 50
    endloop
  endfacet
  facet normal 0 0 1
    outer loop
      vertex 27 0 50
      vertex 7.5 0 50
      vertex 26.41 -5.61362 50
    endloop
  endfacet
  facet normal 0 0 1
    outer loop
      vertex 6.49519 3.75 50
      vertex 24.6657 10.9819 50
      vertex 21.8435 15.8702 50
    endloop
  endfacet
  facet normal -0 0 1
    outer loop
      vertex 7.24444 -1.94114 50
      vertex 26.41 -5.61362 50
      vertex 7.5 0 50
    endloop
  endfacet
  facet normal 0 0 1
    outer loop
      vertex 5.3033 5.3033 50
      vertex 21.8435 15.8702 50
      vertex 18.0665 20.0649 50
    endloop
  endfacet
  facet normal 0 0 1
    outer loop
      vertex 26.41 -5.61362 50
      vertex 7.24444 -1.94114 50
      vertex 24.6657 -10.9819 50
    endloop
  endfacet
  facet normal 0 0 1
    outer loop
      vertex 3.75 6.49519 50
      vertex 18.0665 20.0649 50
      vertex 13.5 23.3827 50
    endloop
  endfacet
  facet normal -0 0 1
    outer loop
      vertex 6.49519 -3.75 50
      vertex 24.6657 -10.9819 50
      vertex 7.24444 -1.94114 50
    endloop
  endfacet
  facet normal 0 0 1
    outer loop
      vertex 3.75 6.49519 50
      vertex 13.5 23.3827 50
      vertex 8.34346 25.6785 50
    endloop
  endfacet
  facet normal 0 0 1
    outer loop
      vertex 24.6657 -10.9819 50
      vertex 6.49519 -3.75 50
      vertex 21.8435 -15.8702 50
    endloop
  endfacet
  facet normal -0 0 1
    outer loop
      vertex 5.3033 -5.3033 50
      vertex 21.8435 -15.8702 50
      vertex 6.49519 -3.75 50
    endloop
  endfacet
  facet normal 0 0 1
    outer loop
      vertex 26.41 5.61362 50
      vertex 7.24444 1.94114 50
      vertex 7.5 0 50
    endloop
  endfacet
  facet normal 0 0 1
    outer loop
      vertex 24.6657 10.9819 50
      vertex 6.49519 3.75 50
      vertex 7.24444 1.94114 50
    endloop
  endfacet
  facet normal 0 0 1
    outer loop
      vertex 21.8435 15.8702 50
      vertex 5.3033 5.3033 50
      vertex 6.49519 3.75 50
    endloop
  endfacet
  facet normal 0 0 1
    outer loop
      vertex 18.0665 20.0649 50
      vertex 3.75 6.49519 50
      vertex 5.3033 5.3033 50
    endloop
  endfacet
  facet normal 0 0 1
    outer loop
      vertex 1.94114 7.24444 50
      vertex 8.34346 25.6785 50
      vertex 2.82227 26.8521 50
    endloop
  endfacet
  facet normal 0 0 1
    outer loop
      vertex 8.34346 25.6785 50
      vertex 1.94114 7.24444 50
      vertex 3.75 6.49519 50
    endloop
  endfacet
  facet normal 0 0 1
    outer loop
      vertex 2.82227 26.8521 50
      vertex 0 7.5 50
      vertex 1.94114 7.24444 50
    endloop
  endfacet
  facet normal -0 0 1
    outer loop
      vertex -2.82227 26.8521 50
      vertex 0 7.5 50
      vertex 2.82227 26.8521 50
    endloop
  endfacet
  facet normal 0 0 1
    outer loop
      vertex 0 7.5 50
      vertex -2.82227 26.8521 50
      vertex -1.94114 7.24444 50
    endloop
  endfacet
  facet normal -0 0 1
    outer loop
      vertex -8.34346 25.6785 50
      vertex -1.94114 7.24444 50
      vertex -2.82227 26.8521 50
    endloop
  endfacet
  facet normal 0 0 1
    outer loop
      vertex -1.94114 7.24444 50
      vertex -8.34346 25.6785 50
      vertex -3.75 6.49519 50
    endloop
  endfacet
  facet normal -0 0 1
    outer loop
      vertex -13.5 23.3827 50
      vertex -3.75 6.49519 50
      vertex -8.34346 25.6785 50
    endloop
  endfacet
  facet normal -0 0 1
    outer loop
      vertex -18.0665 20.0649 50
      vertex -3.75 6.49519 50
      vertex -13.5 23.3827 50
    endloop
  endfacet
  facet normal -0 0 1
    outer loop
      vertex -21.8435 15.8702 50
      vertex -5.3033 5.3033 50
      vertex -18.0665 20.0649 50
    endloop
  endfacet
  facet normal 0 0 1
    outer loop
      vertex -3.75 6.49519 50
      vertex -18.0665 20.0649 50
      vertex -5.3033 5.3033 50
    endloop
  endfacet
  facet normal 0 0 1
    outer loop
      vertex 21.8435 -15.8702 50
      vertex 5.3033 -5.3033 50
      vertex 18.0665 -20.0649 50
    endloop
  endfacet
  facet normal -0 0 1
    outer loop
      vertex 3.75 -6.49519 50
      vertex 18.0665 -20.0649 50
      vertex 5.3033 -5.3033 50
    endloop
  endfacet
  facet normal 0 0 1
    outer loop
      vertex 18.0665 -20.0649 50
      vertex 3.75 -6.49519 50
      vertex 13.5 -23.3827 50
    endloop
  endfacet
  facet normal 0 0 1
    outer loop
      vertex 13.5 -23.3827 50
      vertex 3.75 -6.49519 50
      vertex 8.34346 -25.6785 50
    endloop
  endfacet
  facet normal -0 0 1
    outer loop
      vertex 1.94114 -7.24444 50
      vertex 8.34346 -25.6785 50
      vertex 3.75 -6.49519 50
    endloop
  endfacet
  facet normal 0 0 1
    outer loop
      vertex 8.34346 -25.6785 50
      vertex 1.94114 -7.24444 50
      vertex 2.82227 -26.8521 50
    endloop
  endfacet
  facet normal -0 0 1
    outer loop
      vertex 0 -7.5 50
      vertex 2.82227 -26.8521 50
      vertex 1.94114 -7.24444 50
    endloop
  endfacet
  facet normal 0 0 1
    outer loop
      vertex -2.82227 -26.8521 50
      vertex 0 -7.5 50
      vertex -1.94114 -7.24444 50
    endloop
  endfacet
  facet normal 0 0 1
    outer loop
      vertex 0 -7.5 50
      vertex -2.82227 -26.8521 50
      vertex 2.82227 -26.8521 50
    endloop
  endfacet
  facet normal 0 0 1
    outer loop
      vertex -8.34346 -25.6785 50
      vertex -1.94114 -7.24444 50
      vertex -3.75 -6.49519 50
    endloop
  endfacet
  facet normal 0 0 1
    outer loop
      vertex -18.0665 -20.0649 50
      vertex -3.75 -6.49519 50
      vertex -5.3033 -5.3033 50
    endloop
  endfacet
  facet normal 0 0 1
    outer loop
      vertex -21.8435 -15.8702 50
      vertex -5.3033 -5.3033 50
      vertex -6.49519 -3.75 50
    endloop
  endfacet
  facet normal 0 0 1
    outer loop
      vertex -24.6657 -10.9819 50
      vertex -6.49519 -3.75 50
      vertex -7.24444 -1.94114 50
    endloop
  endfacet
  facet normal 0 0 1
    outer loop
      vertex -1.94114 -7.24444 50
      vertex -8.34346 -25.6785 50
      vertex -2.82227 -26.8521 50
    endloop
  endfacet
  facet normal 0 0 1
    outer loop
      vertex -26.41 -5.61362 50
      vertex -7.24444 -1.94114 50
      vertex -7.5 0 50
    endloop
  endfacet
  facet normal 0 0 1
    outer loop
      vertex -5.3033 5.3033 50
      vertex -21.8435 15.8702 50
      vertex -6.49519 3.75 50
    endloop
  endfacet
  facet normal -0 0 1
    outer loop
      vertex -24.6657 10.9819 50
      vertex -6.49519 3.75 50
      vertex -21.8435 15.8702 50
    endloop
  endfacet
  facet normal 0 0 1
    outer loop
      vertex -3.75 -6.49519 50
      vertex -13.5 -23.3827 50
      vertex -8.34346 -25.6785 50
    endloop
  endfacet
  facet normal 0 0 1
    outer loop
      vertex -6.49519 3.75 50
      vertex -24.6657 10.9819 50
      vertex -7.24444 1.94114 50
    endloop
  endfacet
  facet normal 0 0 1
    outer loop
      vertex -3.75 -6.49519 50
      vertex -18.0665 -20.0649 50
      vertex -13.5 -23.3827 50
    endloop
  endfacet
  facet normal -0 0 1
    outer loop
      vertex -26.41 5.61362 50
      vertex -7.24444 1.94114 50
      vertex -24.6657 10.9819 50
    endloop
  endfacet
  facet normal 0 0 1
    outer loop
      vertex -5.3033 -5.3033 50
      vertex -21.8435 -15.8702 50
      vertex -18.0665 -20.0649 50
    endloop
  endfacet
  facet normal 0 0 1
    outer loop
      vertex -7.24444 1.94114 50
      vertex -26.41 5.61362 50
      vertex -7.5 0 50
    endloop
  endfacet
  facet normal 0 0 1
    outer loop
      vertex -6.49519 -3.75 50
      vertex -24.6657 -10.9819 50
      vertex -21.8435 -15.8702 50
    endloop
  endfacet
  facet normal 0 0 1
    outer loop
      vertex -27 0 50
      vertex -7.5 0 50
      vertex -26.41 5.61362 50
    endloop
  endfacet
  facet normal 0 0 1
    outer loop
      vertex -7.24444 -1.94114 50
      vertex -26.41 -5.61362 50
      vertex -24.6657 -10.9819 50
    endloop
  endfacet
  facet normal 0 0 1
    outer loop
      vertex -7.5 0 50
      vertex -27 0 50
      vertex -26.41 -5.61362 50
    endloop
  endfacet
  facet normal 0 -1 0
    outer loop
      vertex -2.82227 26.8521 50
      vertex 2.82227 26.8521 75
      vertex -2.82227 26.8521 75
    endloop
  endfacet
  facet normal 0 -1 -0
    outer loop
      vertex 2.82227 26.8521 75
      vertex -2.82227 26.8521 50
      vertex 2.82227 26.8521 50
    endloop
  endfacet
  facet normal 0.743138 0.669138 0
    outer loop
      vertex -18.0665 -20.0649 75
      vertex -21.8435 -15.8702 50
      vertex -21.8435 -15.8702 75
    endloop
  endfacet
  facet normal 0.743138 0.669138 0
    outer loop
      vertex -21.8435 -15.8702 50
      vertex -18.0665 -20.0649 75
      vertex -18.0665 -20.0649 50
    endloop
  endfacet
  facet normal 0.58779 0.809013 -0
    outer loop
      vertex -13.5 -23.3827 50
      vertex -18.0665 -20.0649 75
      vertex -13.5 -23.3827 75
    endloop
  endfacet
  facet normal 0.58779 0.809013 0
    outer loop
      vertex -18.0665 -20.0649 75
      vertex -13.5 -23.3827 50
      vertex -18.0665 -20.0649 50
    endloop
  endfacet
  facet normal 0.86603 -0.499992 0
    outer loop
      vertex -24.6657 10.9819 75
      vertex -21.8435 15.8702 50
      vertex -21.8435 15.8702 75
    endloop
  endfacet
  facet normal 0.86603 -0.499992 0
    outer loop
      vertex -21.8435 15.8702 50
      vertex -24.6657 10.9819 75
      vertex -24.6657 10.9819 50
    endloop
  endfacet
endsolid OpenSCAD_Model
