solid OpenSCAD_Model
  facet normal -0.453988 0.891008 0
    outer loop
      vertex -20.3368 45.6773 0
      vertex -25 43.3013 20
      vertex -20.3368 45.6773 20
    endloop
  endfacet
  facet normal -0.453988 0.891008 0
    outer loop
      vertex -25 43.3013 20
      vertex -20.3368 45.6773 0
      vertex -25 43.3013 0
    endloop
  endfacet
  facet normal 0.987689 0.156431 0
    outer loop
      vertex 49.7261 5.22642 20
      vertex 48.9074 10.3956 0
      vertex 48.9074 10.3956 20
    endloop
  endfacet
  facet normal 0.987689 0.156431 0
    outer loop
      vertex 48.9074 10.3956 0
      vertex 49.7261 5.22642 20
      vertex 49.7261 5.22642 0
    endloop
  endfacet
  facet normal 0.99863 0.052335 0
    outer loop
      vertex 50 0 20
      vertex 49.7261 5.22642 0
      vertex 49.7261 5.22642 20
    endloop
  endfacet
  facet normal 0.99863 0.052335 0
    outer loop
      vertex 49.7261 5.22642 0
      vertex 50 0 20
      vertex 50 0 0
    endloop
  endfacet
  facet normal 0.156431 -0.987689 0
    outer loop
      vertex 5.22642 -49.7261 0
      vertex 10.3956 -48.9074 20
      vertex 5.22642 -49.7261 20
    endloop
  endfacet
  facet normal 0.156431 -0.987689 0
    outer loop
      vertex 10.3956 -48.9074 20
      vertex 5.22642 -49.7261 0
      vertex 10.3956 -48.9074 0
    endloop
  endfacet
  facet normal 0.99863 -0.052335 0
    outer loop
      vertex 49.7261 -5.22642 20
      vertex 50 0 0
      vertex 50 0 20
    endloop
  endfacet
  facet normal 0.99863 -0.052335 0
    outer loop
      vertex 50 0 0
      vertex 49.7261 -5.22642 20
      vertex 49.7261 -5.22642 0
    endloop
  endfacet
  facet normal -0.933584 -0.358358 0
    outer loop
      vertex -45.6773 -20.3368 0
      vertex -47.5528 -15.4508 20
      vertex -47.5528 -15.4508 0
    endloop
  endfacet
  facet normal -0.933584 -0.358358 0
    outer loop
      vertex -47.5528 -15.4508 20
      vertex -45.6773 -20.3368 0
      vertex -45.6773 -20.3368 20
    endloop
  endfacet
  facet normal 0.052335 0.99863 -0
    outer loop
      vertex 5.22642 49.7261 0
      vertex 0 50 20
      vertex 5.22642 49.7261 20
    endloop
  endfacet
  facet normal 0.052335 0.99863 0
    outer loop
      vertex 0 50 20
      vertex 5.22642 49.7261 0
      vertex 0 50 0
    endloop
  endfacet
  facet normal 0.156431 0.987689 -0
    outer loop
      vertex 10.3956 48.9074 0
      vertex 5.22642 49.7261 20
      vertex 10.3956 48.9074 20
    endloop
  endfacet
  facet normal 0.156431 0.987689 0
    outer loop
      vertex 5.22642 49.7261 20
      vertex 10.3956 48.9074 0
      vertex 5.22642 49.7261 0
    endloop
  endfacet
  facet normal -0.838674 -0.544633 0
    outer loop
      vertex -40.4509 -29.3893 0
      vertex -43.3013 -25 20
      vertex -43.3013 -25 0
    endloop
  endfacet
  facet normal -0.838674 -0.544633 0
    outer loop
      vertex -43.3013 -25 20
      vertex -40.4509 -29.3893 0
      vertex -40.4509 -29.3893 20
    endloop
  endfacet
  facet normal 0.25883 -0.965923 0
    outer loop
      vertex 10.3956 -48.9074 0
      vertex 15.4508 -47.5528 20
      vertex 10.3956 -48.9074 20
    endloop
  endfacet
  facet normal 0.25883 -0.965923 0
    outer loop
      vertex 15.4508 -47.5528 20
      vertex 10.3956 -48.9074 0
      vertex 15.4508 -47.5528 0
    endloop
  endfacet
  facet normal 0.052335 -0.99863 0
    outer loop
      vertex 0 -50 0
      vertex 5.22642 -49.7261 20
      vertex 0 -50 20
    endloop
  endfacet
  facet normal 0.052335 -0.99863 0
    outer loop
      vertex 5.22642 -49.7261 20
      vertex 0 -50 0
      vertex 5.22642 -49.7261 0
    endloop
  endfacet
  facet normal 0.453988 0.891008 -0
    outer loop
      vertex 25 43.3013 0
      vertex 20.3368 45.6773 20
      vertex 25 43.3013 20
    endloop
  endfacet
  facet normal 0.453988 0.891008 0
    outer loop
      vertex 20.3368 45.6773 20
      vertex 25 43.3013 0
      vertex 20.3368 45.6773 0
    endloop
  endfacet
  facet normal -0.358358 0.933584 0
    outer loop
      vertex -15.4508 47.5528 0
      vertex -20.3368 45.6773 20
      vertex -15.4508 47.5528 20
    endloop
  endfacet
  facet normal -0.358358 0.933584 0
    outer loop
      vertex -20.3368 45.6773 20
      vertex -15.4508 47.5528 0
      vertex -20.3368 45.6773 0
    endloop
  endfacet
  facet normal -0.629337 0.777132 0
    outer loop
      vertex -29.3893 40.4509 0
      vertex -33.4565 37.1572 20
      vertex -29.3893 40.4509 20
    endloop
  endfacet
  facet normal -0.629337 0.777132 0
    outer loop
      vertex -33.4565 37.1572 20
      vertex -29.3893 40.4509 0
      vertex -33.4565 37.1572 0
    endloop
  endfacet
  facet normal 0.544633 0.838674 -0
    outer loop
      vertex 29.3893 40.4509 0
      vertex 25 43.3013 20
      vertex 29.3893 40.4509 20
    endloop
  endfacet
  facet normal 0.544633 0.838674 0
    outer loop
      vertex 25 43.3013 20
      vertex 29.3893 40.4509 0
      vertex 25 43.3013 0
    endloop
  endfacet
  facet normal 0.838674 -0.544633 0
    outer loop
      vertex 40.4509 -29.3893 20
      vertex 43.3013 -25 0
      vertex 43.3013 -25 20
    endloop
  endfacet
  facet normal 0.838674 -0.544633 0
    outer loop
      vertex 43.3013 -25 0
      vertex 40.4509 -29.3893 20
      vertex 40.4509 -29.3893 0
    endloop
  endfacet
  facet normal -0.453988 -0.891008 0
    outer loop
      vertex -25 -43.3013 0
      vertex -20.3368 -45.6773 20
      vertex -25 -43.3013 20
    endloop
  endfacet
  facet normal -0.453988 -0.891008 -0
    outer loop
      vertex -20.3368 -45.6773 20
      vertex -25 -43.3013 0
      vertex -20.3368 -45.6773 0
    endloop
  endfacet
  facet normal -0.777132 -0.629337 0
    outer loop
      vertex -37.1572 -33.4565 0
      vertex -40.4509 -29.3893 20
      vertex -40.4509 -29.3893 0
    endloop
  endfacet
  facet normal -0.777132 -0.629337 0
    outer loop
      vertex -40.4509 -29.3893 20
      vertex -37.1572 -33.4565 0
      vertex -37.1572 -33.4565 20
    endloop
  endfacet
  facet normal 0.453988 -0.891008 0
    outer loop
      vertex 20.3368 -45.6773 0
      vertex 25 -43.3013 20
      vertex 20.3368 -45.6773 20
    endloop
  endfacet
  facet normal 0.453988 -0.891008 0
    outer loop
      vertex 25 -43.3013 20
      vertex 20.3368 -45.6773 0
      vertex 25 -43.3013 0
    endloop
  endfacet
  facet normal -0.25883 0.965923 0
    outer loop
      vertex -10.3956 48.9074 0
      vertex -15.4508 47.5528 20
      vertex -10.3956 48.9074 20
    endloop
  endfacet
  facet normal -0.25883 0.965923 0
    outer loop
      vertex -15.4508 47.5528 20
      vertex -10.3956 48.9074 0
      vertex -15.4508 47.5528 0
    endloop
  endfacet
  facet normal -0.707107 0.707107 0
    outer loop
      vertex -37.1572 33.4565 0
      vertex -33.4565 37.1572 20
      vertex -33.4565 37.1572 0
    endloop
  endfacet
  facet normal -0.707107 0.707107 0
    outer loop
      vertex -33.4565 37.1572 20
      vertex -37.1572 33.4565 0
      vertex -37.1572 33.4565 20
    endloop
  endfacet
  facet normal 0.777132 0.629337 0
    outer loop
      vertex 40.4509 29.3893 20
      vertex 37.1572 33.4565 0
      vertex 37.1572 33.4565 20
    endloop
  endfacet
  facet normal 0.777132 0.629337 0
    outer loop
      vertex 37.1572 33.4565 0
      vertex 40.4509 29.3893 20
      vertex 40.4509 29.3893 0
    endloop
  endfacet
  facet normal 0.544633 -0.838674 0
    outer loop
      vertex 25 -43.3013 0
      vertex 29.3893 -40.4509 20
      vertex 25 -43.3013 20
    endloop
  endfacet
  facet normal 0.544633 -0.838674 0
    outer loop
      vertex 29.3893 -40.4509 20
      vertex 25 -43.3013 0
      vertex 29.3893 -40.4509 0
    endloop
  endfacet
  facet normal 0.965923 -0.25883 0
    outer loop
      vertex 47.5528 -15.4508 20
      vertex 48.9074 -10.3956 0
      vertex 48.9074 -10.3956 20
    endloop
  endfacet
  facet normal 0.965923 -0.25883 0
    outer loop
      vertex 48.9074 -10.3956 0
      vertex 47.5528 -15.4508 20
      vertex 47.5528 -15.4508 0
    endloop
  endfacet
  facet normal -0.156431 0.987689 0
    outer loop
      vertex -5.22642 49.7261 0
      vertex -10.3956 48.9074 20
      vertex -5.22642 49.7261 20
    endloop
  endfacet
  facet normal -0.156431 0.987689 0
    outer loop
      vertex -10.3956 48.9074 20
      vertex -5.22642 49.7261 0
      vertex -10.3956 48.9074 0
    endloop
  endfacet
  facet normal 0.838674 0.544633 0
    outer loop
      vertex 43.3013 25 20
      vertex 40.4509 29.3893 0
      vertex 40.4509 29.3893 20
    endloop
  endfacet
  facet normal 0.838674 0.544633 0
    outer loop
      vertex 40.4509 29.3893 0
      vertex 43.3013 25 20
      vertex 43.3013 25 0
    endloop
  endfacet
  facet normal 0.629337 0.777132 -0
    outer loop
      vertex 33.4565 37.1572 0
      vertex 29.3893 40.4509 20
      vertex 33.4565 37.1572 20
    endloop
  endfacet
  facet normal 0.629337 0.777132 0
    outer loop
      vertex 29.3893 40.4509 20
      vertex 33.4565 37.1572 0
      vertex 29.3893 40.4509 0
    endloop
  endfacet
  facet normal 0.25883 0.965923 -0
    outer loop
      vertex 15.4508 47.5528 0
      vertex 10.3956 48.9074 20
      vertex 15.4508 47.5528 20
    endloop
  endfacet
  facet normal 0.25883 0.965923 0
    outer loop
      vertex 10.3956 48.9074 20
      vertex 15.4508 47.5528 0
      vertex 10.3956 48.9074 0
    endloop
  endfacet
  facet normal 0.707107 0.707107 0
    outer loop
      vertex 37.1572 33.4565 20
      vertex 33.4565 37.1572 0
      vertex 33.4565 37.1572 20
    endloop
  endfacet
  facet normal 0.707107 0.707107 0
    outer loop
      vertex 33.4565 37.1572 0
      vertex 37.1572 33.4565 20
      vertex 37.1572 33.4565 0
    endloop
  endfacet
  facet normal -0.052335 0.99863 0
    outer loop
      vertex 0 50 0
      vertex -5.22642 49.7261 20
      vertex 0 50 20
    endloop
  endfacet
  facet normal -0.052335 0.99863 0
    outer loop
      vertex -5.22642 49.7261 20
      vertex 0 50 0
      vertex -5.22642 49.7261 0
    endloop
  endfacet
  facet normal 0.891008 0.453988 0
    outer loop
      vertex 45.6773 20.3368 20
      vertex 43.3013 25 0
      vertex 43.3013 25 20
    endloop
  endfacet
  facet normal 0.891008 0.453988 0
    outer loop
      vertex 43.3013 25 0
      vertex 45.6773 20.3368 20
      vertex 45.6773 20.3368 0
    endloop
  endfacet
  facet normal -0.25883 -0.965923 0
    outer loop
      vertex -15.4508 -47.5528 0
      vertex -10.3956 -48.9074 20
      vertex -15.4508 -47.5528 20
    endloop
  endfacet
  facet normal -0.25883 -0.965923 -0
    outer loop
      vertex -10.3956 -48.9074 20
      vertex -15.4508 -47.5528 0
      vertex -10.3956 -48.9074 0
    endloop
  endfacet
  facet normal 0.777132 -0.629337 0
    outer loop
      vertex 37.1572 -33.4565 20
      vertex 40.4509 -29.3893 0
      vertex 40.4509 -29.3893 20
    endloop
  endfacet
  facet normal 0.777132 -0.629337 0
    outer loop
      vertex 40.4509 -29.3893 0
      vertex 37.1572 -33.4565 20
      vertex 37.1572 -33.4565 0
    endloop
  endfacet
  facet normal -0.707107 -0.707107 0
    outer loop
      vertex -33.4565 -37.1572 0
      vertex -37.1572 -33.4565 20
      vertex -37.1572 -33.4565 0
    endloop
  endfacet
  facet normal -0.707107 -0.707107 0
    outer loop
      vertex -37.1572 -33.4565 20
      vertex -33.4565 -37.1572 0
      vertex -33.4565 -37.1572 20
    endloop
  endfacet
  facet normal 0.358358 0.933584 -0
    outer loop
      vertex 20.3368 45.6773 0
      vertex 15.4508 47.5528 20
      vertex 20.3368 45.6773 20
    endloop
  endfacet
  facet normal 0.358358 0.933584 0
    outer loop
      vertex 15.4508 47.5528 20
      vertex 20.3368 45.6773 0
      vertex 15.4508 47.5528 0
    endloop
  endfacet
  facet normal 0.891008 -0.453988 0
    outer loop
      vertex 43.3013 -25 20
      vertex 45.6773 -20.3368 0
      vertex 45.6773 -20.3368 20
    endloop
  endfacet
  facet normal 0.891008 -0.453988 0
    outer loop
      vertex 45.6773 -20.3368 0
      vertex 43.3013 -25 20
      vertex 43.3013 -25 0
    endloop
  endfacet
  facet normal -0.891008 -0.453988 0
    outer loop
      vertex -43.3013 -25 0
      vertex -45.6773 -20.3368 20
      vertex -45.6773 -20.3368 0
    endloop
  endfacet
  facet normal -0.891008 -0.453988 0
    outer loop
      vertex -45.6773 -20.3368 20
      vertex -43.3013 -25 0
      vertex -43.3013 -25 20
    endloop
  endfacet
  facet normal -0.777132 0.629337 0
    outer loop
      vertex -40.4509 29.3893 0
      vertex -37.1572 33.4565 20
      vertex -37.1572 33.4565 0
    endloop
  endfacet
  facet normal -0.777132 0.629337 0
    outer loop
      vertex -37.1572 33.4565 20
      vertex -40.4509 29.3893 0
      vertex -40.4509 29.3893 20
    endloop
  endfacet
  facet normal 0.933584 0.358358 0
    outer loop
      vertex 47.5528 15.4508 20
      vertex 45.6773 20.3368 0
      vertex 45.6773 20.3368 20
    endloop
  endfacet
  facet normal 0.933584 0.358358 0
    outer loop
      vertex 45.6773 20.3368 0
      vertex 47.5528 15.4508 20
      vertex 47.5528 15.4508 0
    endloop
  endfacet
  facet normal 0 0 -1
    outer loop
      vertex 49.7261 -5.22642 0
      vertex 49.7261 5.22642 0
      vertex 50 0 0
    endloop
  endfacet
  facet normal 0 0 -1
    outer loop
      vertex 48.9074 -10.3956 0
      vertex 49.7261 5.22642 0
      vertex 49.7261 -5.22642 0
    endloop
  endfacet
  facet normal 0 0 -1
    outer loop
      vertex 48.9074 -10.3956 0
      vertex 48.9074 10.3956 0
      vertex 49.7261 5.22642 0
    endloop
  endfacet
  facet normal 0 0 -1
    outer loop
      vertex 47.5528 -15.4508 0
      vertex 48.9074 10.3956 0
      vertex 48.9074 -10.3956 0
    endloop
  endfacet
  facet normal 0 0 -1
    outer loop
      vertex 47.5528 -15.4508 0
      vertex 47.5528 15.4508 0
      vertex 48.9074 10.3956 0
    endloop
  endfacet
  facet normal 0 0 -1
    outer loop
      vertex 45.6773 -20.3368 0
      vertex 47.5528 15.4508 0
      vertex 47.5528 -15.4508 0
    endloop
  endfacet
  facet normal 0 0 -1
    outer loop
      vertex 45.6773 -20.3368 0
      vertex 45.6773 20.3368 0
      vertex 47.5528 15.4508 0
    endloop
  endfacet
  facet normal 0 0 -1
    outer loop
      vertex 43.3013 -25 0
      vertex 45.6773 20.3368 0
      vertex 45.6773 -20.3368 0
    endloop
  endfacet
  facet normal 0 0 -1
    outer loop
      vertex 43.3013 -25 0
      vertex 43.3013 25 0
      vertex 45.6773 20.3368 0
    endloop
  endfacet
  facet normal 0 0 -1
    outer loop
      vertex 40.4509 -29.3893 0
      vertex 43.3013 25 0
      vertex 43.3013 -25 0
    endloop
  endfacet
  facet normal 0 0 -1
    outer loop
      vertex 40.4509 -29.3893 0
      vertex 40.4509 29.3893 0
      vertex 43.3013 25 0
    endloop
  endfacet
  facet normal 0 0 -1
    outer loop
      vertex 37.1572 -33.4565 0
      vertex 40.4509 29.3893 0
      vertex 40.4509 -29.3893 0
    endloop
  endfacet
  facet normal 0 0 -1
    outer loop
      vertex 37.1572 -33.4565 0
      vertex 37.1572 33.4565 0
      vertex 40.4509 29.3893 0
    endloop
  endfacet
  facet normal 0 0 -1
    outer loop
      vertex 33.4565 -37.1572 0
      vertex 37.1572 33.4565 0
      vertex 37.1572 -33.4565 0
    endloop
  endfacet
  facet normal 0 0 -1
    outer loop
      vertex 33.4565 -37.1572 0
      vertex 33.4565 37.1572 0
      vertex 37.1572 33.4565 0
    endloop
  endfacet
  facet normal 0 0 -1
    outer loop
      vertex 29.3893 -40.4509 0
      vertex 33.4565 37.1572 0
      vertex 33.4565 -37.1572 0
    endloop
  endfacet
  facet normal 0 0 -1
    outer loop
      vertex 29.3893 -40.4509 0
      vertex 29.3893 40.4509 0
      vertex 33.4565 37.1572 0
    endloop
  endfacet
  facet normal 0 0 -1
    outer loop
      vertex 25 -43.3013 0
      vertex 29.3893 40.4509 0
      vertex 29.3893 -40.4509 0
    endloop
  endfacet
  facet normal 0 0 -1
    outer loop
      vertex 25 -43.3013 0
      vertex 25 43.3013 0
      vertex 29.3893 40.4509 0
    endloop
  endfacet
  facet normal 0 0 -1
    outer loop
      vertex 20.3368 -45.6773 0
      vertex 25 43.3013 0
      vertex 25 -43.3013 0
    endloop
  endfacet
  facet normal 0 0 -1
    outer loop
      vertex 20.3368 -45.6773 0
      vertex 20.3368 45.6773 0
      vertex 25 43.3013 0
    endloop
  endfacet
  facet normal 0 0 -1
    outer loop
      vertex 15.4508 -47.5528 0
      vertex 20.3368 45.6773 0
      vertex 20.3368 -45.6773 0
    endloop
  endfacet
  facet normal 0 0 -1
    outer loop
      vertex 15.4508 -47.5528 0
      vertex 15.4508 47.5528 0
      vertex 20.3368 45.6773 0
    endloop
  endfacet
  facet normal 0 0 -1
    outer loop
      vertex 10.3956 -48.9074 0
      vertex 15.4508 47.5528 0
      vertex 15.4508 -47.5528 0
    endloop
  endfacet
  facet normal 0 0 -1
    outer loop
      vertex 10.3956 -48.9074 0
      vertex 10.3956 48.9074 0
      vertex 15.4508 47.5528 0
    endloop
  endfacet
  facet normal 0 0 -1
    outer loop
      vertex 5.22642 -49.7261 0
      vertex 10.3956 48.9074 0
      vertex 10.3956 -48.9074 0
    endloop
  endfacet
  facet normal 0 0 -1
    outer loop
      vertex 5.22642 -49.7261 0
      vertex 5.22642 49.7261 0
      vertex 10.3956 48.9074 0
    endloop
  endfacet
  facet normal 0 0 -1
    outer loop
      vertex 0 -50 0
      vertex 5.22642 49.7261 0
      vertex 5.22642 -49.7261 0
    endloop
  endfacet
  facet normal 0 0 -1
    outer loop
      vertex 0 -50 0
      vertex 0 50 0
      vertex 5.22642 49.7261 0
    endloop
  endfacet
  facet normal 0 0 -1
    outer loop
      vertex -5.22642 -49.7261 0
      vertex 0 50 0
      vertex 0 -50 0
    endloop
  endfacet
  facet normal 0 0 -1
    outer loop
      vertex -5.22642 -49.7261 0
      vertex -5.22642 49.7261 0
      vertex 0 50 0
    endloop
  endfacet
  facet normal 0 0 -1
    outer loop
      vertex -10.3956 -48.9074 0
      vertex -5.22642 49.7261 0
      vertex -5.22642 -49.7261 0
    endloop
  endfacet
  facet normal 0 0 -1
    outer loop
      vertex -10.3956 -48.9074 0
      vertex -10.3956 48.9074 0
      vertex -5.22642 49.7261 0
    endloop
  endfacet
  facet normal 0 0 -1
    outer loop
      vertex -15.4508 -47.5528 0
      vertex -10.3956 48.9074 0
      vertex -10.3956 -48.9074 0
    endloop
  endfacet
  facet normal 0 0 -1
    outer loop
      vertex -15.4508 -47.5528 0
      vertex -15.4508 47.5528 0
      vertex -10.3956 48.9074 0
    endloop
  endfacet
  facet normal 0 0 -1
    outer loop
      vertex -20.3368 -45.6773 0
      vertex -15.4508 47.5528 0
      vertex -15.4508 -47.5528 0
    endloop
  endfacet
  facet normal 0 0 -1
    outer loop
      vertex -20.3368 -45.6773 0
      vertex -20.3368 45.6773 0
      vertex -15.4508 47.5528 0
    endloop
  endfacet
  facet normal 0 0 -1
    outer loop
      vertex -25 -43.3013 0
      vertex -20.3368 45.6773 0
      vertex -20.3368 -45.6773 0
    endloop
  endfacet
  facet normal 0 0 -1
    outer loop
      vertex -25 -43.3013 0
      vertex -25 43.3013 0
      vertex -20.3368 45.6773 0
    endloop
  endfacet
  facet normal 0 0 -1
    outer loop
      vertex -29.3893 -40.4509 0
      vertex -25 43.3013 0
      vertex -25 -43.3013 0
    endloop
  endfacet
  facet normal 0 0 -1
    outer loop
      vertex -29.3893 -40.4509 0
      vertex -29.3893 40.4509 0
      vertex -25 43.3013 0
    endloop
  endfacet
  facet normal 0 0 -1
    outer loop
      vertex -33.4565 -37.1572 0
      vertex -29.3893 40.4509 0
      vertex -29.3893 -40.4509 0
    endloop
  endfacet
  facet normal 0 0 -1
    outer loop
      vertex -33.4565 -37.1572 0
      vertex -33.4565 37.1572 0
      vertex -29.3893 40.4509 0
    endloop
  endfacet
  facet normal 0 0 -1
    outer loop
      vertex -37.1572 -33.4565 0
      vertex -33.4565 37.1572 0
      vertex -33.4565 -37.1572 0
    endloop
  endfacet
  facet normal 0 0 -1
    outer loop
      vertex -37.1572 -33.4565 0
      vertex -37.1572 33.4565 0
      vertex -33.4565 37.1572 0
    endloop
  endfacet
  facet normal 0 0 -1
    outer loop
      vertex -40.4509 -29.3893 0
      vertex -37.1572 33.4565 0
      vertex -37.1572 -33.4565 0
    endloop
  endfacet
  facet normal 0 0 -1
    outer loop
      vertex -40.4509 -29.3893 0
      vertex -40.4509 29.3893 0
      vertex -37.1572 33.4565 0
    endloop
  endfacet
  facet normal 0 0 -1
    outer loop
      vertex -43.3013 -25 0
      vertex -40.4509 29.3893 0
      vertex -40.4509 -29.3893 0
    endloop
  endfacet
  facet normal 0 0 -1
    outer loop
      vertex -43.3013 -25 0
      vertex -43.3013 25 0
      vertex -40.4509 29.3893 0
    endloop
  endfacet
  facet normal 0 0 -1
    outer loop
      vertex -45.6773 -20.3368 0
      vertex -43.3013 25 0
      vertex -43.3013 -25 0
    endloop
  endfacet
  facet normal 0 0 -1
    outer loop
      vertex -45.6773 -20.3368 0
      vertex -45.6773 20.3368 0
      vertex -43.3013 25 0
    endloop
  endfacet
  facet normal 0 0 -1
    outer loop
      vertex -47.5528 -15.4508 0
      vertex -45.6773 20.3368 0
      vertex -45.6773 -20.3368 0
    endloop
  endfacet
  facet normal 0 0 -1
    outer loop
      vertex -47.5528 -15.4508 0
      vertex -47.5528 15.4508 0
      vertex -45.6773 20.3368 0
    endloop
  endfacet
  facet normal 0 0 -1
    outer loop
      vertex -48.9074 -10.3956 0
      vertex -47.5528 15.4508 0
      vertex -47.5528 -15.4508 0
    endloop
  endfacet
  facet normal 0 0 -1
    outer loop
      vertex -48.9074 -10.3956 0
      vertex -48.9074 10.3956 0
      vertex -47.5528 15.4508 0
    endloop
  endfacet
  facet normal 0 0 -1
    outer loop
      vertex -49.7261 -5.22642 0
      vertex -48.9074 10.3956 0
      vertex -48.9074 -10.3956 0
    endloop
  endfacet
  facet normal 0 0 -1
    outer loop
      vertex -49.7261 -5.22642 0
      vertex -49.7261 5.22642 0
      vertex -48.9074 10.3956 0
    endloop
  endfacet
  facet normal 0 -0 -1
    outer loop
      vertex -49.7261 5.22642 0
      vertex -49.7261 -5.22642 0
      vertex -50 0 0
    endloop
  endfacet
  facet normal 0.987689 -0.156431 0
    outer loop
      vertex 48.9074 -10.3956 20
      vertex 49.7261 -5.22642 0
      vertex 49.7261 -5.22642 20
    endloop
  endfacet
  facet normal 0.987689 -0.156431 0
    outer loop
      vertex 49.7261 -5.22642 0
      vertex 48.9074 -10.3956 20
      vertex 48.9074 -10.3956 0
    endloop
  endfacet
  facet normal -0.838674 0.544633 0
    outer loop
      vertex -43.3013 25 0
      vertex -40.4509 29.3893 20
      vertex -40.4509 29.3893 0
    endloop
  endfacet
  facet normal -0.838674 0.544633 0
    outer loop
      vertex -40.4509 29.3893 20
      vertex -43.3013 25 0
      vertex -43.3013 25 20
    endloop
  endfacet
  facet normal 0.358358 -0.933584 0
    outer loop
      vertex 15.4508 -47.5528 0
      vertex 20.3368 -45.6773 20
      vertex 15.4508 -47.5528 20
    endloop
  endfacet
  facet normal 0.358358 -0.933584 0
    outer loop
      vertex 20.3368 -45.6773 20
      vertex 15.4508 -47.5528 0
      vertex 20.3368 -45.6773 0
    endloop
  endfacet
  facet normal -0.987689 0.156431 0
    outer loop
      vertex -49.7261 5.22642 0
      vertex -48.9074 10.3956 20
      vertex -48.9074 10.3956 0
    endloop
  endfacet
  facet normal -0.987689 0.156431 0
    outer loop
      vertex -48.9074 10.3956 20
      vertex -49.7261 5.22642 0
      vertex -49.7261 5.22642 20
    endloop
  endfacet
  facet normal 0.965923 0.25883 0
    outer loop
      vertex 48.9074 10.3956 20
      vertex 47.5528 15.4508 0
      vertex 47.5528 15.4508 20
    endloop
  endfacet
  facet normal 0.965923 0.25883 0
    outer loop
      vertex 47.5528 15.4508 0
      vertex 48.9074 10.3956 20
      vertex 48.9074 10.3956 0
    endloop
  endfacet
  facet normal -0.933584 0.358358 0
    outer loop
      vertex -47.5528 15.4508 0
      vertex -45.6773 20.3368 20
      vertex -45.6773 20.3368 0
    endloop
  endfacet
  facet normal -0.933584 0.358358 0
    outer loop
      vertex -45.6773 20.3368 20
      vertex -47.5528 15.4508 0
      vertex -47.5528 15.4508 20
    endloop
  endfacet
  facet normal -0.891008 0.453988 0
    outer loop
      vertex -45.6773 20.3368 0
      vertex -43.3013 25 20
      vertex -43.3013 25 0
    endloop
  endfacet
  facet normal -0.891008 0.453988 0
    outer loop
      vertex -43.3013 25 20
      vertex -45.6773 20.3368 0
      vertex -45.6773 20.3368 20
    endloop
  endfacet
  facet normal -0.965923 -0.25883 0
    outer loop
      vertex -47.5528 -15.4508 0
      vertex -48.9074 -10.3956 20
      vertex -48.9074 -10.3956 0
    endloop
  endfacet
  facet normal -0.965923 -0.25883 0
    outer loop
      vertex -48.9074 -10.3956 20
      vertex -47.5528 -15.4508 0
      vertex -47.5528 -15.4508 20
    endloop
  endfacet
  facet normal -0.987689 -0.156431 0
    outer loop
      vertex -48.9074 -10.3956 0
      vertex -49.7261 -5.22642 20
      vertex -49.7261 -5.22642 0
    endloop
  endfacet
  facet normal -0.987689 -0.156431 0
    outer loop
      vertex -49.7261 -5.22642 20
      vertex -48.9074 -10.3956 0
      vertex -48.9074 -10.3956 20
    endloop
  endfacet
  facet normal -0.99863 -0.052335 0
    outer loop
      vertex -49.7261 -5.22642 0
      vertex -50 0 20
      vertex -50 0 0
    endloop
  endfacet
  facet normal -0.99863 -0.052335 0
    outer loop
      vertex -50 0 20
      vertex -49.7261 -5.22642 0
      vertex -49.7261 -5.22642 20
    endloop
  endfacet
  facet normal -0.965923 0.25883 0
    outer loop
      vertex -48.9074 10.3956 0
      vertex -47.5528 15.4508 20
      vertex -47.5528 15.4508 0
    endloop
  endfacet
  facet normal -0.965923 0.25883 0
    outer loop
      vertex -47.5528 15.4508 20
      vertex -48.9074 10.3956 0
      vertex -48.9074 10.3956 20
    endloop
  endfacet
  facet normal 0 0 1
    outer loop
      vertex 35 0 20
      vertex 50 0 20
      vertex 49.7261 5.22642 20
    endloop
  endfacet
  facet normal 0 0 1
    outer loop
      vertex 34.8083 3.6585 20
      vertex 49.7261 5.22642 20
      vertex 48.9074 10.3956 20
    endloop
  endfacet
  facet normal 0 0 1
    outer loop
      vertex 50 0 20
      vertex 35 0 20
      vertex 49.7261 -5.22642 20
    endloop
  endfacet
  facet normal 0 0 1
    outer loop
      vertex 34.2352 7.27691 20
      vertex 48.9074 10.3956 20
      vertex 47.5528 15.4508 20
    endloop
  endfacet
  facet normal -0 0 1
    outer loop
      vertex 34.8083 -3.6585 20
      vertex 49.7261 -5.22642 20
      vertex 35 0 20
    endloop
  endfacet
  facet normal 0 0 1
    outer loop
      vertex 33.287 10.8156 20
      vertex 47.5528 15.4508 20
      vertex 45.6773 20.3368 20
    endloop
  endfacet
  facet normal 0 0 1
    outer loop
      vertex 49.7261 -5.22642 20
      vertex 34.8083 -3.6585 20
      vertex 48.9074 -10.3956 20
    endloop
  endfacet
  facet normal 0 0 1
    outer loop
      vertex 31.9741 14.2358 20
      vertex 45.6773 20.3368 20
      vertex 43.3013 25 20
    endloop
  endfacet
  facet normal -0 0 1
    outer loop
      vertex 34.2352 -7.27691 20
      vertex 48.9074 -10.3956 20
      vertex 34.8083 -3.6585 20
    endloop
  endfacet
  facet normal 0 0 1
    outer loop
      vertex 30.3109 17.5 20
      vertex 43.3013 25 20
      vertex 40.4509 29.3893 20
    endloop
  endfacet
  facet normal 0 0 1
    outer loop
      vertex 48.9074 -10.3956 20
      vertex 34.2352 -7.27691 20
      vertex 47.5528 -15.4508 20
    endloop
  endfacet
  facet normal 0 0 1
    outer loop
      vertex 28.3156 20.5725 20
      vertex 40.4509 29.3893 20
      vertex 37.1572 33.4565 20
    endloop
  endfacet
  facet normal -0 0 1
    outer loop
      vertex 33.287 -10.8156 20
      vertex 47.5528 -15.4508 20
      vertex 34.2352 -7.27691 20
    endloop
  endfacet
  facet normal 0 0 1
    outer loop
      vertex 47.5528 -15.4508 20
      vertex 33.287 -10.8156 20
      vertex 45.6773 -20.3368 20
    endloop
  endfacet
  facet normal 0 0 1
    outer loop
      vertex 49.7261 5.22642 20
      vertex 34.8083 3.6585 20
      vertex 35 0 20
    endloop
  endfacet
  facet normal 0 0 1
    outer loop
      vertex 48.9074 10.3956 20
      vertex 34.2352 7.27691 20
      vertex 34.8083 3.6585 20
    endloop
  endfacet
  facet normal 0 0 1
    outer loop
      vertex 26.0101 23.4196 20
      vertex 37.1572 33.4565 20
      vertex 33.4565 37.1572 20
    endloop
  endfacet
  facet normal 0 0 1
    outer loop
      vertex 47.5528 15.4508 20
      vertex 33.287 10.8156 20
      vertex 34.2352 7.27691 20
    endloop
  endfacet
  facet normal 0 0 1
    outer loop
      vertex 45.6773 20.3368 20
      vertex 31.9741 14.2358 20
      vertex 33.287 10.8156 20
    endloop
  endfacet
  facet normal 0 0 1
    outer loop
      vertex 43.3013 25 20
      vertex 30.3109 17.5 20
      vertex 31.9741 14.2358 20
    endloop
  endfacet
  facet normal 0 0 1
    outer loop
      vertex 23.4196 26.0101 20
      vertex 33.4565 37.1572 20
      vertex 29.3893 40.4509 20
    endloop
  endfacet
  facet normal 0 0 1
    outer loop
      vertex 40.4509 29.3893 20
      vertex 28.3156 20.5725 20
      vertex 30.3109 17.5 20
    endloop
  endfacet
  facet normal 0 0 1
    outer loop
      vertex 37.1572 33.4565 20
      vertex 26.0101 23.4196 20
      vertex 28.3156 20.5725 20
    endloop
  endfacet
  facet normal 0 0 1
    outer loop
      vertex 20.5725 28.3156 20
      vertex 29.3893 40.4509 20
      vertex 25 43.3013 20
    endloop
  endfacet
  facet normal 0 0 1
    outer loop
      vertex 33.4565 37.1572 20
      vertex 23.4196 26.0101 20
      vertex 26.0101 23.4196 20
    endloop
  endfacet
  facet normal 0 0 1
    outer loop
      vertex 29.3893 40.4509 20
      vertex 20.5725 28.3156 20
      vertex 23.4196 26.0101 20
    endloop
  endfacet
  facet normal 0 0 1
    outer loop
      vertex 17.5 30.3109 20
      vertex 25 43.3013 20
      vertex 20.3368 45.6773 20
    endloop
  endfacet
  facet normal 0 0 1
    outer loop
      vertex 25 43.3013 20
      vertex 17.5 30.3109 20
      vertex 20.5725 28.3156 20
    endloop
  endfacet
  facet normal 0 0 1
    outer loop
      vertex 14.2358 31.9741 20
      vertex 20.3368 45.6773 20
      vertex 15.4508 47.5528 20
    endloop
  endfacet
  facet normal 0 0 1
    outer loop
      vertex 20.3368 45.6773 20
      vertex 14.2358 31.9741 20
      vertex 17.5 30.3109 20
    endloop
  endfacet
  facet normal 0 0 1
    outer loop
      vertex 15.4508 47.5528 20
      vertex 10.8156 33.287 20
      vertex 14.2358 31.9741 20
    endloop
  endfacet
  facet normal 0 0 1
    outer loop
      vertex 10.3956 48.9074 20
      vertex 10.8156 33.287 20
      vertex 15.4508 47.5528 20
    endloop
  endfacet
  facet normal 0 0 1
    outer loop
      vertex 10.3956 48.9074 20
      vertex 7.27691 34.2352 20
      vertex 10.8156 33.287 20
    endloop
  endfacet
  facet normal 0 0 1
    outer loop
      vertex 5.22642 49.7261 20
      vertex 7.27691 34.2352 20
      vertex 10.3956 48.9074 20
    endloop
  endfacet
  facet normal 0 0 1
    outer loop
      vertex 5.22642 49.7261 20
      vertex 3.6585 34.8083 20
      vertex 7.27691 34.2352 20
    endloop
  endfacet
  facet normal 0 0 1
    outer loop
      vertex 0 50 20
      vertex 3.6585 34.8083 20
      vertex 5.22642 49.7261 20
    endloop
  endfacet
  facet normal 0 0 1
    outer loop
      vertex 0 50 20
      vertex 0 35 20
      vertex 3.6585 34.8083 20
    endloop
  endfacet
  facet normal 0 0 1
    outer loop
      vertex 0 50 20
      vertex -3.6585 34.8083 20
      vertex 0 35 20
    endloop
  endfacet
  facet normal -0 0 1
    outer loop
      vertex -5.22642 49.7261 20
      vertex -3.6585 34.8083 20
      vertex 0 50 20
    endloop
  endfacet
  facet normal 0 0 1
    outer loop
      vertex -5.22642 49.7261 20
      vertex -7.27691 34.2352 20
      vertex -3.6585 34.8083 20
    endloop
  endfacet
  facet normal -0 0 1
    outer loop
      vertex -10.3956 48.9074 20
      vertex -7.27691 34.2352 20
      vertex -5.22642 49.7261 20
    endloop
  endfacet
  facet normal 0 0 1
    outer loop
      vertex -10.3956 48.9074 20
      vertex -10.8156 33.287 20
      vertex -7.27691 34.2352 20
    endloop
  endfacet
  facet normal -0 0 1
    outer loop
      vertex -15.4508 47.5528 20
      vertex -10.8156 33.287 20
      vertex -10.3956 48.9074 20
    endloop
  endfacet
  facet normal 0 0 1
    outer loop
      vertex -10.8156 33.287 20
      vertex -15.4508 47.5528 20
      vertex -14.2358 31.9741 20
    endloop
  endfacet
  facet normal -0 0 1
    outer loop
      vertex -20.3368 45.6773 20
      vertex -14.2358 31.9741 20
      vertex -15.4508 47.5528 20
    endloop
  endfacet
  facet normal 0 0 1
    outer loop
      vertex -14.2358 31.9741 20
      vertex -20.3368 45.6773 20
      vertex -17.5 30.3109 20
    endloop
  endfacet
  facet normal -0 0 1
    outer loop
      vertex -25 43.3013 20
      vertex -17.5 30.3109 20
      vertex -20.3368 45.6773 20
    endloop
  endfacet
  facet normal 0 0 1
    outer loop
      vertex -17.5 30.3109 20
      vertex -25 43.3013 20
      vertex -20.5725 28.3156 20
    endloop
  endfacet
  facet normal -0 0 1
    outer loop
      vertex -29.3893 40.4509 20
      vertex -20.5725 28.3156 20
      vertex -25 43.3013 20
    endloop
  endfacet
  facet normal 0 0 1
    outer loop
      vertex -20.5725 28.3156 20
      vertex -29.3893 40.4509 20
      vertex -23.4196 26.0101 20
    endloop
  endfacet
  facet normal -0 0 1
    outer loop
      vertex -33.4565 37.1572 20
      vertex -23.4196 26.0101 20
      vertex -29.3893 40.4509 20
    endloop
  endfacet
  facet normal 0 0 1
    outer loop
      vertex -23.4196 26.0101 20
      vertex -33.4565 37.1572 20
      vertex -26.0101 23.4196 20
    endloop
  endfacet
  facet normal -0 0 1
    outer loop
      vertex -37.1572 33.4565 20
      vertex -26.0101 23.4196 20
      vertex -33.4565 37.1572 20
    endloop
  endfacet
  facet normal 0 0 1
    outer loop
      vertex -26.0101 23.4196 20
      vertex -37.1572 33.4565 20
      vertex -28.3156 20.5725 20
    endloop
  endfacet
  facet normal -0 0 1
    outer loop
      vertex -40.4509 29.3893 20
      vertex -28.3156 20.5725 20
      vertex -37.1572 33.4565 20
    endloop
  endfacet
  facet normal 0 0 1
    outer loop
      vertex -28.3156 20.5725 20
      vertex -40.4509 29.3893 20
      vertex -30.3109 17.5 20
    endloop
  endfacet
  facet normal -0 0 1
    outer loop
      vertex -43.3013 25 20
      vertex -30.3109 17.5 20
      vertex -40.4509 29.3893 20
    endloop
  endfacet
  facet normal 0 0 1
    outer loop
      vertex -30.3109 17.5 20
      vertex -43.3013 25 20
      vertex -31.9741 14.2358 20
    endloop
  endfacet
  facet normal -0 0 1
    outer loop
      vertex -45.6773 20.3368 20
      vertex -31.9741 14.2358 20
      vertex -43.3013 25 20
    endloop
  endfacet
  facet normal 0 0 1
    outer loop
      vertex -31.9741 14.2358 20
      vertex -45.6773 20.3368 20
      vertex -33.287 10.8156 20
    endloop
  endfacet
  facet normal -0 0 1
    outer loop
      vertex 31.9741 -14.2358 20
      vertex 45.6773 -20.3368 20
      vertex 33.287 -10.8156 20
    endloop
  endfacet
  facet normal 0 0 1
    outer loop
      vertex 45.6773 -20.3368 20
      vertex 31.9741 -14.2358 20
      vertex 43.3013 -25 20
    endloop
  endfacet
  facet normal -0 0 1
    outer loop
      vertex 30.3109 -17.5 20
      vertex 43.3013 -25 20
      vertex 31.9741 -14.2358 20
    endloop
  endfacet
  facet normal 0 0 1
    outer loop
      vertex 43.3013 -25 20
      vertex 30.3109 -17.5 20
      vertex 40.4509 -29.3893 20
    endloop
  endfacet
  facet normal -0 0 1
    outer loop
      vertex 28.3156 -20.5725 20
      vertex 40.4509 -29.3893 20
      vertex 30.3109 -17.5 20
    endloop
  endfacet
  facet normal 0 0 1
    outer loop
      vertex 40.4509 -29.3893 20
      vertex 28.3156 -20.5725 20
      vertex 37.1572 -33.4565 20
    endloop
  endfacet
  facet normal -0 0 1
    outer loop
      vertex 26.0101 -23.4196 20
      vertex 37.1572 -33.4565 20
      vertex 28.3156 -20.5725 20
    endloop
  endfacet
  facet normal 0 0 1
    outer loop
      vertex 37.1572 -33.4565 20
      vertex 26.0101 -23.4196 20
      vertex 33.4565 -37.1572 20
    endloop
  endfacet
  facet normal -0 0 1
    outer loop
      vertex 23.4196 -26.0101 20
      vertex 33.4565 -37.1572 20
      vertex 26.0101 -23.4196 20
    endloop
  endfacet
  facet normal 0 0 1
    outer loop
      vertex 33.4565 -37.1572 20
      vertex 23.4196 -26.0101 20
      vertex 29.3893 -40.4509 20
    endloop
  endfacet
  facet normal -0 0 1
    outer loop
      vertex 20.5725 -28.3156 20
      vertex 29.3893 -40.4509 20
      vertex 23.4196 -26.0101 20
    endloop
  endfacet
  facet normal 0 0 1
    outer loop
      vertex 29.3893 -40.4509 20
      vertex 20.5725 -28.3156 20
      vertex 25 -43.3013 20
    endloop
  endfacet
  facet normal -0 0 1
    outer loop
      vertex 17.5 -30.3109 20
      vertex 25 -43.3013 20
      vertex 20.5725 -28.3156 20
    endloop
  endfacet
  facet normal 0 0 1
    outer loop
      vertex 25 -43.3013 20
      vertex 17.5 -30.3109 20
      vertex 20.3368 -45.6773 20
    endloop
  endfacet
  facet normal -0 0 1
    outer loop
      vertex 14.2358 -31.9741 20
      vertex 20.3368 -45.6773 20
      vertex 17.5 -30.3109 20
    endloop
  endfacet
  facet normal 0 0 1
    outer loop
      vertex 20.3368 -45.6773 20
      vertex 14.2358 -31.9741 20
      vertex 15.4508 -47.5528 20
    endloop
  endfacet
  facet normal -0 0 1
    outer loop
      vertex 10.8156 -33.287 20
      vertex 15.4508 -47.5528 20
      vertex 14.2358 -31.9741 20
    endloop
  endfacet
  facet normal 0 0 1
    outer loop
      vertex 10.8156 -33.287 20
      vertex 10.3956 -48.9074 20
      vertex 15.4508 -47.5528 20
    endloop
  endfacet
  facet normal -0 0 1
    outer loop
      vertex 7.27691 -34.2352 20
      vertex 10.3956 -48.9074 20
      vertex 10.8156 -33.287 20
    endloop
  endfacet
  facet normal 0 0 1
    outer loop
      vertex 7.27691 -34.2352 20
      vertex 5.22642 -49.7261 20
      vertex 10.3956 -48.9074 20
    endloop
  endfacet
  facet normal -0 0 1
    outer loop
      vertex 3.6585 -34.8083 20
      vertex 5.22642 -49.7261 20
      vertex 7.27691 -34.2352 20
    endloop
  endfacet
  facet normal -0 0 1
    outer loop
      vertex 0 -35 20
      vertex 5.22642 -49.7261 20
      vertex 3.6585 -34.8083 20
    endloop
  endfacet
  facet normal 0 0 1
    outer loop
      vertex 0 -35 20
      vertex 0 -50 20
      vertex 5.22642 -49.7261 20
    endloop
  endfacet
  facet normal 0 0 1
    outer loop
      vertex -3.6585 -34.8083 20
      vertex 0 -50 20
      vertex 0 -35 20
    endloop
  endfacet
  facet normal 0 0 1
    outer loop
      vertex -3.6585 -34.8083 20
      vertex -5.22642 -49.7261 20
      vertex 0 -50 20
    endloop
  endfacet
  facet normal 0 0 1
    outer loop
      vertex -7.27691 -34.2352 20
      vertex -5.22642 -49.7261 20
      vertex -3.6585 -34.8083 20
    endloop
  endfacet
  facet normal 0 0 1
    outer loop
      vertex -7.27691 -34.2352 20
      vertex -10.3956 -48.9074 20
      vertex -5.22642 -49.7261 20
    endloop
  endfacet
  facet normal 0 0 1
    outer loop
      vertex -10.8156 -33.287 20
      vertex -10.3956 -48.9074 20
      vertex -7.27691 -34.2352 20
    endloop
  endfacet
  facet normal 0 0 1
    outer loop
      vertex -15.4508 -47.5528 20
      vertex -10.8156 -33.287 20
      vertex -14.2358 -31.9741 20
    endloop
  endfacet
  facet normal 0 0 1
    outer loop
      vertex -10.8156 -33.287 20
      vertex -15.4508 -47.5528 20
      vertex -10.3956 -48.9074 20
    endloop
  endfacet
  facet normal 0 0 1
    outer loop
      vertex -20.3368 -45.6773 20
      vertex -14.2358 -31.9741 20
      vertex -17.5 -30.3109 20
    endloop
  endfacet
  facet normal 0 0 1
    outer loop
      vertex -14.2358 -31.9741 20
      vertex -20.3368 -45.6773 20
      vertex -15.4508 -47.5528 20
    endloop
  endfacet
  facet normal 0 0 1
    outer loop
      vertex -25 -43.3013 20
      vertex -17.5 -30.3109 20
      vertex -20.5725 -28.3156 20
    endloop
  endfacet
  facet normal 0 0 1
    outer loop
      vertex -29.3893 -40.4509 20
      vertex -20.5725 -28.3156 20
      vertex -23.4196 -26.0101 20
    endloop
  endfacet
  facet normal 0 0 1
    outer loop
      vertex -17.5 -30.3109 20
      vertex -25 -43.3013 20
      vertex -20.3368 -45.6773 20
    endloop
  endfacet
  facet normal 0 0 1
    outer loop
      vertex -33.4565 -37.1572 20
      vertex -23.4196 -26.0101 20
      vertex -26.0101 -23.4196 20
    endloop
  endfacet
  facet normal 0 0 1
    outer loop
      vertex -37.1572 -33.4565 20
      vertex -26.0101 -23.4196 20
      vertex -28.3156 -20.5725 20
    endloop
  endfacet
  facet normal 0 0 1
    outer loop
      vertex -20.5725 -28.3156 20
      vertex -29.3893 -40.4509 20
      vertex -25 -43.3013 20
    endloop
  endfacet
  facet normal 0 0 1
    outer loop
      vertex -40.4509 -29.3893 20
      vertex -28.3156 -20.5725 20
      vertex -30.3109 -17.5 20
    endloop
  endfacet
  facet normal 0 0 1
    outer loop
      vertex -43.3013 -25 20
      vertex -30.3109 -17.5 20
      vertex -31.9741 -14.2358 20
    endloop
  endfacet
  facet normal 0 0 1
    outer loop
      vertex -45.6773 -20.3368 20
      vertex -31.9741 -14.2358 20
      vertex -33.287 -10.8156 20
    endloop
  endfacet
  facet normal 0 0 1
    outer loop
      vertex -23.4196 -26.0101 20
      vertex -33.4565 -37.1572 20
      vertex -29.3893 -40.4509 20
    endloop
  endfacet
  facet normal 0 0 1
    outer loop
      vertex -47.5528 -15.4508 20
      vertex -33.287 -10.8156 20
      vertex -34.2352 -7.27691 20
    endloop
  endfacet
  facet normal 0 0 1
    outer loop
      vertex -48.9074 -10.3956 20
      vertex -34.2352 -7.27691 20
      vertex -34.8083 -3.6585 20
    endloop
  endfacet
  facet normal 0 0 1
    outer loop
      vertex -49.7261 -5.22642 20
      vertex -34.8083 -3.6585 20
      vertex -35 0 20
    endloop
  endfacet
  facet normal -0 0 1
    outer loop
      vertex -47.5528 15.4508 20
      vertex -33.287 10.8156 20
      vertex -45.6773 20.3368 20
    endloop
  endfacet
  facet normal 0 0 1
    outer loop
      vertex -26.0101 -23.4196 20
      vertex -37.1572 -33.4565 20
      vertex -33.4565 -37.1572 20
    endloop
  endfacet
  facet normal 0 0 1
    outer loop
      vertex -33.287 10.8156 20
      vertex -47.5528 15.4508 20
      vertex -34.2352 7.27691 20
    endloop
  endfacet
  facet normal 0 0 1
    outer loop
      vertex -28.3156 -20.5725 20
      vertex -40.4509 -29.3893 20
      vertex -37.1572 -33.4565 20
    endloop
  endfacet
  facet normal -0 0 1
    outer loop
      vertex -48.9074 10.3956 20
      vertex -34.2352 7.27691 20
      vertex -47.5528 15.4508 20
    endloop
  endfacet
  facet normal 0 0 1
    outer loop
      vertex -30.3109 -17.5 20
      vertex -43.3013 -25 20
      vertex -40.4509 -29.3893 20
    endloop
  endfacet
  facet normal 0 0 1
    outer loop
      vertex -34.2352 7.27691 20
      vertex -48.9074 10.3956 20
      vertex -34.8083 3.6585 20
    endloop
  endfacet
  facet normal 0 0 1
    outer loop
      vertex -31.9741 -14.2358 20
      vertex -45.6773 -20.3368 20
      vertex -43.3013 -25 20
    endloop
  endfacet
  facet normal -0 0 1
    outer loop
      vertex -49.7261 5.22642 20
      vertex -34.8083 3.6585 20
      vertex -48.9074 10.3956 20
    endloop
  endfacet
  facet normal 0 0 1
    outer loop
      vertex -33.287 -10.8156 20
      vertex -47.5528 -15.4508 20
      vertex -45.6773 -20.3368 20
    endloop
  endfacet
  facet normal 0 0 1
    outer loop
      vertex -34.8083 3.6585 20
      vertex -49.7261 5.22642 20
      vertex -35 0 20
    endloop
  endfacet
  facet normal 0 0 1
    outer loop
      vertex -34.2352 -7.27691 20
      vertex -48.9074 -10.3956 20
      vertex -47.5528 -15.4508 20
    endloop
  endfacet
  facet normal 0 0 1
    outer loop
      vertex -50 0 20
      vertex -35 0 20
      vertex -49.7261 5.22642 20
    endloop
  endfacet
  facet normal 0 0 1
    outer loop
      vertex -34.8083 -3.6585 20
      vertex -49.7261 -5.22642 20
      vertex -48.9074 -10.3956 20
    endloop
  endfacet
  facet normal 0 0 1
    outer loop
      vertex -35 0 20
      vertex -50 0 20
      vertex -49.7261 -5.22642 20
    endloop
  endfacet
  facet normal 0 0 1
    outer loop
      vertex 34.8083 3.6585 20
      vertex 34.8083 -3.6585 20
      vertex 35 0 20
    endloop
  endfacet
  facet normal 0 0 1
    outer loop
      vertex 34.2352 7.27691 20
      vertex 34.8083 -3.6585 20
      vertex 34.8083 3.6585 20
    endloop
  endfacet
  facet normal 0 0 1
    outer loop
      vertex 34.2352 7.27691 20
      vertex 34.2352 -7.27691 20
      vertex 34.8083 -3.6585 20
    endloop
  endfacet
  facet normal 0 0 1
    outer loop
      vertex 33.287 10.8156 20
      vertex 34.2352 -7.27691 20
      vertex 34.2352 7.27691 20
    endloop
  endfacet
  facet normal 0 0 1
    outer loop
      vertex 33.287 10.8156 20
      vertex 33.287 -10.8156 20
      vertex 34.2352 -7.27691 20
    endloop
  endfacet
  facet normal 0 0 1
    outer loop
      vertex 31.9741 14.2358 20
      vertex 33.287 -10.8156 20
      vertex 33.287 10.8156 20
    endloop
  endfacet
  facet normal 0 0 1
    outer loop
      vertex 31.9741 14.2358 20
      vertex 31.9741 -14.2358 20
      vertex 33.287 -10.8156 20
    endloop
  endfacet
  facet normal 0 0 1
    outer loop
      vertex 30.3109 17.5 20
      vertex 31.9741 -14.2358 20
      vertex 31.9741 14.2358 20
    endloop
  endfacet
  facet normal 0 0 1
    outer loop
      vertex 30.3109 17.5 20
      vertex 30.3109 -17.5 20
      vertex 31.9741 -14.2358 20
    endloop
  endfacet
  facet normal 0 0 1
    outer loop
      vertex 28.3156 20.5725 20
      vertex 30.3109 -17.5 20
      vertex 30.3109 17.5 20
    endloop
  endfacet
  facet normal 0 0 1
    outer loop
      vertex 28.3156 20.5725 20
      vertex 28.3156 -20.5725 20
      vertex 30.3109 -17.5 20
    endloop
  endfacet
  facet normal 0 0 1
    outer loop
      vertex 26.0101 23.4196 20
      vertex 28.3156 -20.5725 20
      vertex 28.3156 20.5725 20
    endloop
  endfacet
  facet normal 0 0 1
    outer loop
      vertex 26.0101 23.4196 20
      vertex 26.0101 -23.4196 20
      vertex 28.3156 -20.5725 20
    endloop
  endfacet
  facet normal 0 0 1
    outer loop
      vertex 23.4196 26.0101 20
      vertex 26.0101 -23.4196 20
      vertex 26.0101 23.4196 20
    endloop
  endfacet
  facet normal 0 0 1
    outer loop
      vertex 23.4196 26.0101 20
      vertex 23.4196 -26.0101 20
      vertex 26.0101 -23.4196 20
    endloop
  endfacet
  facet normal 0 0 1
    outer loop
      vertex 20.5725 28.3156 20
      vertex 23.4196 -26.0101 20
      vertex 23.4196 26.0101 20
    endloop
  endfacet
  facet normal 0 0 1
    outer loop
      vertex 20.5725 28.3156 20
      vertex 20.5725 -28.3156 20
      vertex 23.4196 -26.0101 20
    endloop
  endfacet
  facet normal 0 0 1
    outer loop
      vertex 17.5 30.3109 20
      vertex 20.5725 -28.3156 20
      vertex 20.5725 28.3156 20
    endloop
  endfacet
  facet normal 0 0 1
    outer loop
      vertex 17.5 30.3109 20
      vertex 17.5 -30.3109 20
      vertex 20.5725 -28.3156 20
    endloop
  endfacet
  facet normal 0 0 1
    outer loop
      vertex 14.2358 31.9741 20
      vertex 17.5 -30.3109 20
      vertex 17.5 30.3109 20
    endloop
  endfacet
  facet normal 0 0 1
    outer loop
      vertex 14.2358 31.9741 20
      vertex 14.2358 -31.9741 20
      vertex 17.5 -30.3109 20
    endloop
  endfacet
  facet normal 0 0 1
    outer loop
      vertex 10.8156 33.287 20
      vertex 14.2358 -31.9741 20
      vertex 14.2358 31.9741 20
    endloop
  endfacet
  facet normal 0 0 1
    outer loop
      vertex 10.8156 33.287 20
      vertex 10.8156 -33.287 20
      vertex 14.2358 -31.9741 20
    endloop
  endfacet
  facet normal 0 0 1
    outer loop
      vertex 7.27691 34.2352 20
      vertex 10.8156 -33.287 20
      vertex 10.8156 33.287 20
    endloop
  endfacet
  facet normal 0 0 1
    outer loop
      vertex 7.27691 34.2352 20
      vertex 7.27691 -34.2352 20
      vertex 10.8156 -33.287 20
    endloop
  endfacet
  facet normal 0 0 1
    outer loop
      vertex 3.6585 34.8083 20
      vertex 7.27691 -34.2352 20
      vertex 7.27691 34.2352 20
    endloop
  endfacet
  facet normal 0 0 1
    outer loop
      vertex 3.6585 34.8083 20
      vertex 3.6585 -34.8083 20
      vertex 7.27691 -34.2352 20
    endloop
  endfacet
  facet normal 0 0 1
    outer loop
      vertex 0 35 20
      vertex 3.6585 -34.8083 20
      vertex 3.6585 34.8083 20
    endloop
  endfacet
  facet normal 0 0 1
    outer loop
      vertex 0 35 20
      vertex 0 -35 20
      vertex 3.6585 -34.8083 20
    endloop
  endfacet
  facet normal -0 0 1
    outer loop
      vertex -3.6585 34.8083 20
      vertex 0 -35 20
      vertex 0 35 20
    endloop
  endfacet
  facet normal 0 0 1
    outer loop
      vertex -3.6585 34.8083 20
      vertex -3.6585 -34.8083 20
      vertex 0 -35 20
    endloop
  endfacet
  facet normal -0 0 1
    outer loop
      vertex -7.27691 34.2352 20
      vertex -3.6585 -34.8083 20
      vertex -3.6585 34.8083 20
    endloop
  endfacet
  facet normal 0 0 1
    outer loop
      vertex -7.27691 34.2352 20
      vertex -7.27691 -34.2352 20
      vertex -3.6585 -34.8083 20
    endloop
  endfacet
  facet normal -0 0 1
    outer loop
      vertex -10.8156 33.287 20
      vertex -7.27691 -34.2352 20
      vertex -7.27691 34.2352 20
    endloop
  endfacet
  facet normal 0 0 1
    outer loop
      vertex -10.8156 33.287 20
      vertex -10.8156 -33.287 20
      vertex -7.27691 -34.2352 20
    endloop
  endfacet
  facet normal -0 0 1
    outer loop
      vertex -14.2358 31.9741 20
      vertex -10.8156 -33.287 20
      vertex -10.8156 33.287 20
    endloop
  endfacet
  facet normal 0 0 1
    outer loop
      vertex -14.2358 31.9741 20
      vertex -14.2358 -31.9741 20
      vertex -10.8156 -33.287 20
    endloop
  endfacet
  facet normal -0 0 1
    outer loop
      vertex -17.5 30.3109 20
      vertex -14.2358 -31.9741 20
      vertex -14.2358 31.9741 20
    endloop
  endfacet
  facet normal 0 0 1
    outer loop
      vertex -17.5 30.3109 20
      vertex -17.5 -30.3109 20
      vertex -14.2358 -31.9741 20
    endloop
  endfacet
  facet normal -0 0 1
    outer loop
      vertex -20.5725 28.3156 20
      vertex -17.5 -30.3109 20
      vertex -17.5 30.3109 20
    endloop
  endfacet
  facet normal 0 0 1
    outer loop
      vertex -20.5725 28.3156 20
      vertex -20.5725 -28.3156 20
      vertex -17.5 -30.3109 20
    endloop
  endfacet
  facet normal -0 0 1
    outer loop
      vertex -23.4196 26.0101 20
      vertex -20.5725 -28.3156 20
      vertex -20.5725 28.3156 20
    endloop
  endfacet
  facet normal 0 0 1
    outer loop
      vertex -23.4196 26.0101 20
      vertex -23.4196 -26.0101 20
      vertex -20.5725 -28.3156 20
    endloop
  endfacet
  facet normal -0 0 1
    outer loop
      vertex -26.0101 23.4196 20
      vertex -23.4196 -26.0101 20
      vertex -23.4196 26.0101 20
    endloop
  endfacet
  facet normal 0 0 1
    outer loop
      vertex -26.0101 23.4196 20
      vertex -26.0101 -23.4196 20
      vertex -23.4196 -26.0101 20
    endloop
  endfacet
  facet normal -0 0 1
    outer loop
      vertex -28.3156 20.5725 20
      vertex -26.0101 -23.4196 20
      vertex -26.0101 23.4196 20
    endloop
  endfacet
  facet normal 0 0 1
    outer loop
      vertex -28.3156 20.5725 20
      vertex -28.3156 -20.5725 20
      vertex -26.0101 -23.4196 20
    endloop
  endfacet
  facet normal -0 0 1
    outer loop
      vertex -30.3109 17.5 20
      vertex -28.3156 -20.5725 20
      vertex -28.3156 20.5725 20
    endloop
  endfacet
  facet normal 0 0 1
    outer loop
      vertex -30.3109 17.5 20
      vertex -30.3109 -17.5 20
      vertex -28.3156 -20.5725 20
    endloop
  endfacet
  facet normal -0 0 1
    outer loop
      vertex -31.9741 14.2358 20
      vertex -30.3109 -17.5 20
      vertex -30.3109 17.5 20
    endloop
  endfacet
  facet normal 0 0 1
    outer loop
      vertex -31.9741 14.2358 20
      vertex -31.9741 -14.2358 20
      vertex -30.3109 -17.5 20
    endloop
  endfacet
  facet normal -0 0 1
    outer loop
      vertex -33.287 10.8156 20
      vertex -31.9741 -14.2358 20
      vertex -31.9741 14.2358 20
    endloop
  endfacet
  facet normal 0 0 1
    outer loop
      vertex -33.287 10.8156 20
      vertex -33.287 -10.8156 20
      vertex -31.9741 -14.2358 20
    endloop
  endfacet
  facet normal -0 0 1
    outer loop
      vertex -34.2352 7.27691 20
      vertex -33.287 -10.8156 20
      vertex -33.287 10.8156 20
    endloop
  endfacet
  facet normal 0 0 1
    outer loop
      vertex -34.2352 7.27691 20
      vertex -34.2352 -7.27691 20
      vertex -33.287 -10.8156 20
    endloop
  endfacet
  facet normal -0 0 1
    outer loop
      vertex -34.8083 3.6585 20
      vertex -34.2352 -7.27691 20
      vertex -34.2352 7.27691 20
    endloop
  endfacet
  facet normal 0 0 1
    outer loop
      vertex -34.8083 3.6585 20
      vertex -34.8083 -3.6585 20
      vertex -34.2352 -7.27691 20
    endloop
  endfacet
  facet normal 0 -0 1
    outer loop
      vertex -34.8083 -3.6585 20
      vertex -34.8083 3.6585 20
      vertex -35 0 20
    endloop
  endfacet
  facet normal -0.629337 -0.777132 0
    outer loop
      vertex -33.4565 -37.1572 0
      vertex -29.3893 -40.4509 20
      vertex -33.4565 -37.1572 20
    endloop
  endfacet
  facet normal -0.629337 -0.777132 -0
    outer loop
      vertex -29.3893 -40.4509 20
      vertex -33.4565 -37.1572 0
      vertex -29.3893 -40.4509 0
    endloop
  endfacet
  facet normal 0.933584 -0.358358 0
    outer loop
      vertex 45.6773 -20.3368 20
      vertex 47.5528 -15.4508 0
      vertex 47.5528 -15.4508 20
    endloop
  endfacet
  facet normal 0.933584 -0.358358 0
    outer loop
      vertex 47.5528 -15.4508 0
      vertex 45.6773 -20.3368 20
      vertex 45.6773 -20.3368 0
    endloop
  endfacet
  facet normal -0.544633 -0.838674 0
    outer loop
      vertex -29.3893 -40.4509 0
      vertex -25 -43.3013 20
      vertex -29.3893 -40.4509 20
    endloop
  endfacet
  facet normal -0.544633 -0.838674 -0
    outer loop
      vertex -25 -43.3013 20
      vertex -29.3893 -40.4509 0
      vertex -25 -43.3013 0
    endloop
  endfacet
  facet normal -0.052335 -0.99863 0
    outer loop
      vertex -5.22642 -49.7261 0
      vertex 0 -50 20
      vertex -5.22642 -49.7261 20
    endloop
  endfacet
  facet normal -0.052335 -0.99863 -0
    outer loop
      vertex 0 -50 20
      vertex -5.22642 -49.7261 0
      vertex 0 -50 0
    endloop
  endfacet
  facet normal -0.544633 0.838674 0
    outer loop
      vertex -25 43.3013 0
      vertex -29.3893 40.4509 20
      vertex -25 43.3013 20
    endloop
  endfacet
  facet normal -0.544633 0.838674 0
    outer loop
      vertex -29.3893 40.4509 20
      vertex -25 43.3013 0
      vertex -29.3893 40.4509 0
    endloop
  endfacet
  facet normal -0.99863 0.052335 0
    outer loop
      vertex -50 0 0
      vertex -49.7261 5.22642 20
      vertex -49.7261 5.22642 0
    endloop
  endfacet
  facet normal -0.99863 0.052335 0
    outer loop
      vertex -49.7261 5.22642 20
      vertex -50 0 0
      vertex -50 0 20
    endloop
  endfacet
  facet normal -0.358358 -0.933584 0
    outer loop
      vertex -20.3368 -45.6773 0
      vertex -15.4508 -47.5528 20
      vertex -20.3368 -45.6773 20
    endloop
  endfacet
  facet normal -0.358358 -0.933584 -0
    outer loop
      vertex -15.4508 -47.5528 20
      vertex -20.3368 -45.6773 0
      vertex -15.4508 -47.5528 0
    endloop
  endfacet
  facet normal -0.156431 -0.987689 0
    outer loop
      vertex -10.3956 -48.9074 0
      vertex -5.22642 -49.7261 20
      vertex -10.3956 -48.9074 20
    endloop
  endfacet
  facet normal -0.156431 -0.987689 -0
    outer loop
      vertex -5.22642 -49.7261 20
      vertex -10.3956 -48.9074 0
      vertex -5.22642 -49.7261 0
    endloop
  endfacet
  facet normal 0.707107 -0.707107 0
    outer loop
      vertex 33.4565 -37.1572 20
      vertex 37.1572 -33.4565 0
      vertex 37.1572 -33.4565 20
    endloop
  endfacet
  facet normal 0.707107 -0.707107 0
    outer loop
      vertex 37.1572 -33.4565 0
      vertex 33.4565 -37.1572 20
      vertex 33.4565 -37.1572 0
    endloop
  endfacet
  facet normal 0.629337 -0.777132 0
    outer loop
      vertex 29.3893 -40.4509 0
      vertex 33.4565 -37.1572 20
      vertex 29.3893 -40.4509 20
    endloop
  endfacet
  facet normal 0.629337 -0.777132 0
    outer loop
      vertex 33.4565 -37.1572 20
      vertex 29.3893 -40.4509 0
      vertex 33.4565 -37.1572 0
    endloop
  endfacet
endsolid OpenSCAD_Model
