solid OpenSCAD_Model
  facet normal -0.982332 -0.187149 0
    outer loop
      vertex 26.9842 15.2507 10
      vertex 26.9372 15.4974 11
      vertex 26.9372 15.4974 10
    endloop
  endfacet
  facet normal -0.982332 -0.187149 0
    outer loop
      vertex 26.9372 15.4974 11
      vertex 26.9842 15.2507 10
      vertex 26.9842 15.2507 11
    endloop
  endfacet
  facet normal -0.99802 -0.0628987 0
    outer loop
      vertex 27 15 10
      vertex 26.9842 15.2507 11
      vertex 26.9842 15.2507 10
    endloop
  endfacet
  facet normal -0.99802 -0.0628987 0
    outer loop
      vertex 26.9842 15.2507 11
      vertex 27 15 10
      vertex 27 15 11
    endloop
  endfacet
  facet normal -0.481751 0.876308 0
    outer loop
      vertex 26.0717 13.3113 10
      vertex 25.8516 13.1903 11
      vertex 26.0717 13.3113 11
    endloop
  endfacet
  facet normal -0.481751 0.876308 0
    outer loop
      vertex 25.8516 13.1903 11
      vertex 26.0717 13.3113 10
      vertex 25.8516 13.1903 10
    endloop
  endfacet
  facet normal -0.684458 -0.729053 0
    outer loop
      vertex 26.2748 16.541 10
      vertex 26.4579 16.3691 11
      vertex 26.2748 16.541 11
    endloop
  endfacet
  facet normal -0.684458 -0.729053 -0
    outer loop
      vertex 26.4579 16.3691 11
      vertex 26.2748 16.541 10
      vertex 26.4579 16.3691 10
    endloop
  endfacet
  facet normal -0.951046 0.30905 0
    outer loop
      vertex 26.8596 14.2638 10
      vertex 26.9372 14.5026 11
      vertex 26.9372 14.5026 10
    endloop
  endfacet
  facet normal -0.951046 0.30905 0
    outer loop
      vertex 26.9372 14.5026 11
      vertex 26.8596 14.2638 10
      vertex 26.8596 14.2638 11
    endloop
  endfacet
  facet normal 0 0 1
    outer loop
      vertex 26.9842 15.2507 10
      vertex 26.9842 14.7493 10
      vertex 27 15 10
    endloop
  endfacet
  facet normal 0 0 1
    outer loop
      vertex 26.9372 15.4974 10
      vertex 26.9842 14.7493 10
      vertex 26.9842 15.2507 10
    endloop
  endfacet
  facet normal 0 0 1
    outer loop
      vertex 26.9372 15.4974 10
      vertex 26.9372 14.5026 10
      vertex 26.9842 14.7493 10
    endloop
  endfacet
  facet normal 0 0 1
    outer loop
      vertex 26.8596 15.7362 10
      vertex 26.9372 14.5026 10
      vertex 26.9372 15.4974 10
    endloop
  endfacet
  facet normal 0 0 1
    outer loop
      vertex 26.8596 15.7362 10
      vertex 26.8596 14.2638 10
      vertex 26.9372 14.5026 10
    endloop
  endfacet
  facet normal 0 0 1
    outer loop
      vertex 26.7526 15.9635 10
      vertex 26.8596 14.2638 10
      vertex 26.8596 15.7362 10
    endloop
  endfacet
  facet normal 0 0 1
    outer loop
      vertex 26.7526 15.9635 10
      vertex 26.7526 14.0365 10
      vertex 26.8596 14.2638 10
    endloop
  endfacet
  facet normal 0 0 1
    outer loop
      vertex 26.618 16.1756 10
      vertex 26.7526 14.0365 10
      vertex 26.7526 15.9635 10
    endloop
  endfacet
  facet normal 0 0 1
    outer loop
      vertex 26.618 16.1756 10
      vertex 26.618 13.8244 10
      vertex 26.7526 14.0365 10
    endloop
  endfacet
  facet normal 0 0 1
    outer loop
      vertex 26.4579 16.3691 10
      vertex 26.618 13.8244 10
      vertex 26.618 16.1756 10
    endloop
  endfacet
  facet normal 0 0 1
    outer loop
      vertex 26.4579 16.3691 10
      vertex 26.4579 13.6309 10
      vertex 26.618 13.8244 10
    endloop
  endfacet
  facet normal 0 0 1
    outer loop
      vertex 26.2748 16.541 10
      vertex 26.4579 13.6309 10
      vertex 26.4579 16.3691 10
    endloop
  endfacet
  facet normal 0 0 1
    outer loop
      vertex 26.2748 16.541 10
      vertex 26.2748 13.459 10
      vertex 26.4579 13.6309 10
    endloop
  endfacet
  facet normal 0 0 1
    outer loop
      vertex 26.0717 16.6887 10
      vertex 26.2748 13.459 10
      vertex 26.2748 16.541 10
    endloop
  endfacet
  facet normal 0 0 1
    outer loop
      vertex 26.0717 16.6887 10
      vertex 26.0717 13.3113 10
      vertex 26.2748 13.459 10
    endloop
  endfacet
  facet normal 0 0 1
    outer loop
      vertex 25.8516 16.8097 10
      vertex 26.0717 13.3113 10
      vertex 26.0717 16.6887 10
    endloop
  endfacet
  facet normal 0 0 1
    outer loop
      vertex 25.8516 16.8097 10
      vertex 25.8516 13.1903 10
      vertex 26.0717 13.3113 10
    endloop
  endfacet
  facet normal 0 0 1
    outer loop
      vertex 25.618 16.9021 10
      vertex 25.8516 13.1903 10
      vertex 25.8516 16.8097 10
    endloop
  endfacet
  facet normal 0 0 1
    outer loop
      vertex 25.618 16.9021 10
      vertex 25.618 13.0979 10
      vertex 25.8516 13.1903 10
    endloop
  endfacet
  facet normal 0 0 1
    outer loop
      vertex 25.3748 16.9646 10
      vertex 25.618 13.0979 10
      vertex 25.618 16.9021 10
    endloop
  endfacet
  facet normal 0 0 1
    outer loop
      vertex 25.3748 16.9646 10
      vertex 25.3748 13.0354 10
      vertex 25.618 13.0979 10
    endloop
  endfacet
  facet normal 0 0 1
    outer loop
      vertex 25.1256 16.9961 10
      vertex 25.3748 13.0354 10
      vertex 25.3748 16.9646 10
    endloop
  endfacet
  facet normal 0 0 1
    outer loop
      vertex 25.1256 16.9961 10
      vertex 25.1256 13.0039 10
      vertex 25.3748 13.0354 10
    endloop
  endfacet
  facet normal -0 0 1
    outer loop
      vertex 24.8744 16.9961 10
      vertex 25.1256 13.0039 10
      vertex 25.1256 16.9961 10
    endloop
  endfacet
  facet normal 0 0 1
    outer loop
      vertex 24.8744 16.9961 10
      vertex 24.8744 13.0039 10
      vertex 25.1256 13.0039 10
    endloop
  endfacet
  facet normal -0 0 1
    outer loop
      vertex 24.6252 16.9646 10
      vertex 24.8744 13.0039 10
      vertex 24.8744 16.9961 10
    endloop
  endfacet
  facet normal 0 0 1
    outer loop
      vertex 24.6252 16.9646 10
      vertex 24.6252 13.0354 10
      vertex 24.8744 13.0039 10
    endloop
  endfacet
  facet normal -0 0 1
    outer loop
      vertex 24.382 16.9021 10
      vertex 24.6252 13.0354 10
      vertex 24.6252 16.9646 10
    endloop
  endfacet
  facet normal 0 0 1
    outer loop
      vertex 24.382 16.9021 10
      vertex 24.382 13.0979 10
      vertex 24.6252 13.0354 10
    endloop
  endfacet
  facet normal 0 0 1
    outer loop
      vertex 24 16.728 10
      vertex 24.382 16.9021 10
      vertex 24.1484 16.8097 10
    endloop
  endfacet
  facet normal 0 0 1
    outer loop
      vertex 24.382 16.9021 10
      vertex 24 16.728 10
      vertex 24.382 13.0979 10
    endloop
  endfacet
  facet normal -0 0 1
    outer loop
      vertex 24 13.272 10
      vertex 24.382 13.0979 10
      vertex 24 16.728 10
    endloop
  endfacet
  facet normal 0 0 1
    outer loop
      vertex 24.382 13.0979 10
      vertex 24 13.272 10
      vertex 24.1484 13.1903 10
    endloop
  endfacet
  facet normal 0 0 1
    outer loop
      vertex 23.618 16.9021 10
      vertex 24 16.728 10
      vertex 23.8516 16.8097 10
    endloop
  endfacet
  facet normal 0 0 1
    outer loop
      vertex 24 16.728 10
      vertex 23.618 16.9021 10
      vertex 24 13.272 10
    endloop
  endfacet
  facet normal 0 0 1
    outer loop
      vertex 23.618 13.0979 10
      vertex 24 13.272 10
      vertex 23.618 16.9021 10
    endloop
  endfacet
  facet normal 0 0 1
    outer loop
      vertex 24 13.272 10
      vertex 23.618 13.0979 10
      vertex 23.8516 13.1903 10
    endloop
  endfacet
  facet normal 0 0 1
    outer loop
      vertex 23.3748 16.9646 10
      vertex 23.618 13.0979 10
      vertex 23.618 16.9021 10
    endloop
  endfacet
  facet normal 0 0 1
    outer loop
      vertex 23.3748 16.9646 10
      vertex 23.3748 13.0354 10
      vertex 23.618 13.0979 10
    endloop
  endfacet
  facet normal 0 0 1
    outer loop
      vertex 23.1256 16.9961 10
      vertex 23.3748 13.0354 10
      vertex 23.3748 16.9646 10
    endloop
  endfacet
  facet normal 0 0 1
    outer loop
      vertex 23.1256 16.9961 10
      vertex 23.1256 13.0039 10
      vertex 23.3748 13.0354 10
    endloop
  endfacet
  facet normal -0 0 1
    outer loop
      vertex 22.8744 16.9961 10
      vertex 23.1256 13.0039 10
      vertex 23.1256 16.9961 10
    endloop
  endfacet
  facet normal 0 0 1
    outer loop
      vertex 22.8744 16.9961 10
      vertex 22.8744 13.0039 10
      vertex 23.1256 13.0039 10
    endloop
  endfacet
  facet normal -0 0 1
    outer loop
      vertex 22.6252 16.9646 10
      vertex 22.8744 13.0039 10
      vertex 22.8744 16.9961 10
    endloop
  endfacet
  facet normal 0 0 1
    outer loop
      vertex 22.6252 16.9646 10
      vertex 22.6252 13.0354 10
      vertex 22.8744 13.0039 10
    endloop
  endfacet
  facet normal -0 0 1
    outer loop
      vertex 22.382 16.9021 10
      vertex 22.6252 13.0354 10
      vertex 22.6252 16.9646 10
    endloop
  endfacet
  facet normal 0 0 1
    outer loop
      vertex 22.382 16.9021 10
      vertex 22.382 13.0979 10
      vertex 22.6252 13.0354 10
    endloop
  endfacet
  facet normal -0 0 1
    outer loop
      vertex 22.1484 16.8097 10
      vertex 22.382 13.0979 10
      vertex 22.382 16.9021 10
    endloop
  endfacet
  facet normal 0 0 1
    outer loop
      vertex 22.1484 16.8097 10
      vertex 22.1484 13.1903 10
      vertex 22.382 13.0979 10
    endloop
  endfacet
  facet normal -0 0 1
    outer loop
      vertex 21.9283 16.6887 10
      vertex 22.1484 13.1903 10
      vertex 22.1484 16.8097 10
    endloop
  endfacet
  facet normal 0 0 1
    outer loop
      vertex 21.9283 16.6887 10
      vertex 21.9283 13.3113 10
      vertex 22.1484 13.1903 10
    endloop
  endfacet
  facet normal -0 0 1
    outer loop
      vertex 21.7252 16.541 10
      vertex 21.9283 13.3113 10
      vertex 21.9283 16.6887 10
    endloop
  endfacet
  facet normal 0 0 1
    outer loop
      vertex 21.7252 16.541 10
      vertex 21.7252 13.459 10
      vertex 21.9283 13.3113 10
    endloop
  endfacet
  facet normal -0 0 1
    outer loop
      vertex 21.5421 16.3691 10
      vertex 21.7252 13.459 10
      vertex 21.7252 16.541 10
    endloop
  endfacet
  facet normal 0 0 1
    outer loop
      vertex 21.5421 16.3691 10
      vertex 21.5421 13.6309 10
      vertex 21.7252 13.459 10
    endloop
  endfacet
  facet normal -0 0 1
    outer loop
      vertex 21.382 16.1756 10
      vertex 21.5421 13.6309 10
      vertex 21.5421 16.3691 10
    endloop
  endfacet
  facet normal 0 0 1
    outer loop
      vertex 21.382 16.1756 10
      vertex 21.382 13.8244 10
      vertex 21.5421 13.6309 10
    endloop
  endfacet
  facet normal -0 0 1
    outer loop
      vertex 21.2474 15.9635 10
      vertex 21.382 13.8244 10
      vertex 21.382 16.1756 10
    endloop
  endfacet
  facet normal 0 0 1
    outer loop
      vertex 21.2474 15.9635 10
      vertex 21.2474 14.0365 10
      vertex 21.382 13.8244 10
    endloop
  endfacet
  facet normal -0 0 1
    outer loop
      vertex 21.1404 15.7362 10
      vertex 21.2474 14.0365 10
      vertex 21.2474 15.9635 10
    endloop
  endfacet
  facet normal 0 0 1
    outer loop
      vertex 21.1404 15.7362 10
      vertex 21.1404 14.2638 10
      vertex 21.2474 14.0365 10
    endloop
  endfacet
  facet normal -0 0 1
    outer loop
      vertex 21.0628 15.4974 10
      vertex 21.1404 14.2638 10
      vertex 21.1404 15.7362 10
    endloop
  endfacet
  facet normal 0 0 1
    outer loop
      vertex 21.0628 15.4974 10
      vertex 21.0628 14.5026 10
      vertex 21.1404 14.2638 10
    endloop
  endfacet
  facet normal -0 0 1
    outer loop
      vertex 21.0158 15.2507 10
      vertex 21.0628 14.5026 10
      vertex 21.0628 15.4974 10
    endloop
  endfacet
  facet normal 0 0 1
    outer loop
      vertex 21.0158 15.2507 10
      vertex 21.0158 14.7493 10
      vertex 21.0628 14.5026 10
    endloop
  endfacet
  facet normal 0 -0 1
    outer loop
      vertex 21.0158 14.7493 10
      vertex 21.0158 15.2507 10
      vertex 21 15 10
    endloop
  endfacet
  facet normal 0.125407 0.992105 -0
    outer loop
      vertex 24.8744 13.0039 10
      vertex 24.6252 13.0354 11
      vertex 24.8744 13.0039 11
    endloop
  endfacet
  facet normal 0.125407 0.992105 0
    outer loop
      vertex 24.6252 13.0354 11
      vertex 24.8744 13.0039 10
      vertex 24.6252 13.0354 10
    endloop
  endfacet
  facet normal -0.248902 -0.968529 0
    outer loop
      vertex 25.3748 16.9646 10
      vertex 25.618 16.9021 11
      vertex 25.3748 16.9646 11
    endloop
  endfacet
  facet normal -0.248902 -0.968529 -0
    outer loop
      vertex 25.618 16.9021 11
      vertex 25.3748 16.9646 10
      vertex 25.618 16.9021 10
    endloop
  endfacet
  facet normal 0.367819 -0.929897 0
    outer loop
      vertex 24.1484 16.8097 10
      vertex 24.382 16.9021 11
      vertex 24.1484 16.8097 11
    endloop
  endfacet
  facet normal 0.367819 -0.929897 0
    outer loop
      vertex 24.382 16.9021 11
      vertex 24.1484 16.8097 10
      vertex 24.382 16.9021 10
    endloop
  endfacet
  facet normal -0.684458 0.729053 0
    outer loop
      vertex 26.4579 13.6309 10
      vertex 26.2748 13.459 11
      vertex 26.4579 13.6309 11
    endloop
  endfacet
  facet normal -0.684458 0.729053 0
    outer loop
      vertex 26.2748 13.459 11
      vertex 26.4579 13.6309 10
      vertex 26.2748 13.459 10
    endloop
  endfacet
  facet normal -0.588148 0.808753 0
    outer loop
      vertex 26.2748 13.459 10
      vertex 26.0717 13.3113 11
      vertex 26.2748 13.459 11
    endloop
  endfacet
  facet normal -0.588148 0.808753 0
    outer loop
      vertex 26.0717 13.3113 11
      vertex 26.2748 13.459 10
      vertex 26.0717 13.3113 10
    endloop
  endfacet
  facet normal -0.844333 0.535819 0
    outer loop
      vertex 26.618 13.8244 10
      vertex 26.7526 14.0365 11
      vertex 26.7526 14.0365 10
    endloop
  endfacet
  facet normal -0.844333 0.535819 0
    outer loop
      vertex 26.7526 14.0365 11
      vertex 26.618 13.8244 10
      vertex 26.618 13.8244 11
    endloop
  endfacet
  facet normal -0.367819 0.929897 0
    outer loop
      vertex 25.8516 13.1903 10
      vertex 25.618 13.0979 11
      vertex 25.8516 13.1903 11
    endloop
  endfacet
  facet normal -0.367819 0.929897 0
    outer loop
      vertex 25.618 13.0979 11
      vertex 25.8516 13.1903 10
      vertex 25.618 13.0979 10
    endloop
  endfacet
  facet normal -0.844333 -0.535819 0
    outer loop
      vertex 26.7526 15.9635 10
      vertex 26.618 16.1756 11
      vertex 26.618 16.1756 10
    endloop
  endfacet
  facet normal -0.844333 -0.535819 0
    outer loop
      vertex 26.618 16.1756 11
      vertex 26.7526 15.9635 10
      vertex 26.7526 15.9635 11
    endloop
  endfacet
  facet normal -0.904765 0.425912 0
    outer loop
      vertex 26.7526 14.0365 10
      vertex 26.8596 14.2638 11
      vertex 26.8596 14.2638 10
    endloop
  endfacet
  facet normal -0.904765 0.425912 0
    outer loop
      vertex 26.8596 14.2638 11
      vertex 26.7526 14.0365 10
      vertex 26.7526 14.0365 11
    endloop
  endfacet
  facet normal -0.982332 0.187149 0
    outer loop
      vertex 26.9372 14.5026 10
      vertex 26.9842 14.7493 11
      vertex 26.9842 14.7493 10
    endloop
  endfacet
  facet normal -0.982332 0.187149 0
    outer loop
      vertex 26.9842 14.7493 11
      vertex 26.9372 14.5026 10
      vertex 26.9372 14.5026 11
    endloop
  endfacet
  facet normal -0.125407 0.992105 0
    outer loop
      vertex 25.3748 13.0354 10
      vertex 25.1256 13.0039 11
      vertex 25.3748 13.0354 11
    endloop
  endfacet
  facet normal -0.125407 0.992105 0
    outer loop
      vertex 25.1256 13.0039 11
      vertex 25.3748 13.0354 10
      vertex 25.1256 13.0039 10
    endloop
  endfacet
  facet normal -0.125407 -0.992105 0
    outer loop
      vertex 25.1256 16.9961 10
      vertex 25.3748 16.9646 11
      vertex 25.1256 16.9961 11
    endloop
  endfacet
  facet normal -0.125407 -0.992105 -0
    outer loop
      vertex 25.3748 16.9646 11
      vertex 25.1256 16.9961 10
      vertex 25.3748 16.9646 10
    endloop
  endfacet
  facet normal -0.588148 -0.808753 0
    outer loop
      vertex 26.0717 16.6887 10
      vertex 26.2748 16.541 11
      vertex 26.0717 16.6887 11
    endloop
  endfacet
  facet normal -0.588148 -0.808753 -0
    outer loop
      vertex 26.2748 16.541 11
      vertex 26.0717 16.6887 10
      vertex 26.2748 16.541 10
    endloop
  endfacet
  facet normal 0 1 -0
    outer loop
      vertex 25.1256 13.0039 10
      vertex 24.8744 13.0039 11
      vertex 25.1256 13.0039 11
    endloop
  endfacet
  facet normal 0 1 0
    outer loop
      vertex 24.8744 13.0039 11
      vertex 25.1256 13.0039 10
      vertex 24.8744 13.0039 10
    endloop
  endfacet
  facet normal -0.481751 -0.876308 0
    outer loop
      vertex 25.8516 16.8097 10
      vertex 26.0717 16.6887 11
      vertex 25.8516 16.8097 11
    endloop
  endfacet
  facet normal -0.481751 -0.876308 -0
    outer loop
      vertex 26.0717 16.6887 11
      vertex 25.8516 16.8097 10
      vertex 26.0717 16.6887 10
    endloop
  endfacet
  facet normal 0.248902 -0.968529 0
    outer loop
      vertex 24.382 16.9021 10
      vertex 24.6252 16.9646 11
      vertex 24.382 16.9021 11
    endloop
  endfacet
  facet normal 0.248902 -0.968529 0
    outer loop
      vertex 24.6252 16.9646 11
      vertex 24.382 16.9021 10
      vertex 24.6252 16.9646 10
    endloop
  endfacet
  facet normal -0.99802 0.0628987 0
    outer loop
      vertex 26.9842 14.7493 10
      vertex 27 15 11
      vertex 27 15 10
    endloop
  endfacet
  facet normal -0.99802 0.0628987 0
    outer loop
      vertex 27 15 11
      vertex 26.9842 14.7493 10
      vertex 26.9842 14.7493 11
    endloop
  endfacet
  facet normal 0 -1 0
    outer loop
      vertex 24.8744 16.9961 10
      vertex 25.1256 16.9961 11
      vertex 24.8744 16.9961 11
    endloop
  endfacet
  facet normal 0 -1 -0
    outer loop
      vertex 25.1256 16.9961 11
      vertex 24.8744 16.9961 10
      vertex 25.1256 16.9961 10
    endloop
  endfacet
  facet normal -0.904765 -0.425912 0
    outer loop
      vertex 26.8596 15.7362 10
      vertex 26.7526 15.9635 11
      vertex 26.7526 15.9635 10
    endloop
  endfacet
  facet normal -0.904765 -0.425912 0
    outer loop
      vertex 26.7526 15.9635 11
      vertex 26.8596 15.7362 10
      vertex 26.8596 15.7362 11
    endloop
  endfacet
  facet normal -0.367819 -0.929897 0
    outer loop
      vertex 25.618 16.9021 10
      vertex 25.8516 16.8097 11
      vertex 25.618 16.9021 11
    endloop
  endfacet
  facet normal -0.367819 -0.929897 -0
    outer loop
      vertex 25.8516 16.8097 11
      vertex 25.618 16.9021 10
      vertex 25.8516 16.8097 10
    endloop
  endfacet
  facet normal 0.248902 0.968529 -0
    outer loop
      vertex 24.6252 13.0354 10
      vertex 24.382 13.0979 11
      vertex 24.6252 13.0354 11
    endloop
  endfacet
  facet normal 0.248902 0.968529 0
    outer loop
      vertex 24.382 13.0979 11
      vertex 24.6252 13.0354 10
      vertex 24.382 13.0979 10
    endloop
  endfacet
  facet normal -0.248902 0.968529 0
    outer loop
      vertex 25.618 13.0979 10
      vertex 25.3748 13.0354 11
      vertex 25.618 13.0979 11
    endloop
  endfacet
  facet normal -0.248902 0.968529 0
    outer loop
      vertex 25.3748 13.0354 11
      vertex 25.618 13.0979 10
      vertex 25.3748 13.0354 10
    endloop
  endfacet
  facet normal 0.367819 0.929897 -0
    outer loop
      vertex 24.382 13.0979 10
      vertex 24.1484 13.1903 11
      vertex 24.382 13.0979 11
    endloop
  endfacet
  facet normal 0.367819 0.929897 0
    outer loop
      vertex 24.1484 13.1903 11
      vertex 24.382 13.0979 10
      vertex 24.1484 13.1903 10
    endloop
  endfacet
  facet normal -0.770468 -0.637478 0
    outer loop
      vertex 26.618 16.1756 10
      vertex 26.4579 16.3691 11
      vertex 26.4579 16.3691 10
    endloop
  endfacet
  facet normal -0.770468 -0.637478 0
    outer loop
      vertex 26.4579 16.3691 11
      vertex 26.618 16.1756 10
      vertex 26.618 16.1756 11
    endloop
  endfacet
  facet normal -0.951046 -0.30905 0
    outer loop
      vertex 26.9372 15.4974 10
      vertex 26.8596 15.7362 11
      vertex 26.8596 15.7362 10
    endloop
  endfacet
  facet normal -0.951046 -0.30905 0
    outer loop
      vertex 26.8596 15.7362 11
      vertex 26.9372 15.4974 10
      vertex 26.9372 15.4974 11
    endloop
  endfacet
  facet normal 0.482281 -0.876016 0
    outer loop
      vertex 24 16.728 10
      vertex 24.1484 16.8097 11
      vertex 24 16.728 11
    endloop
  endfacet
  facet normal 0.482281 -0.876016 0
    outer loop
      vertex 24.1484 16.8097 11
      vertex 24 16.728 10
      vertex 24.1484 16.8097 10
    endloop
  endfacet
  facet normal 0.482281 0.876016 -0
    outer loop
      vertex 24.1484 13.1903 10
      vertex 24 13.272 11
      vertex 24.1484 13.1903 11
    endloop
  endfacet
  facet normal 0.482281 0.876016 0
    outer loop
      vertex 24 13.272 11
      vertex 24.1484 13.1903 10
      vertex 24 13.272 10
    endloop
  endfacet
  facet normal -0.770468 0.637478 0
    outer loop
      vertex 26.4579 13.6309 10
      vertex 26.618 13.8244 11
      vertex 26.618 13.8244 10
    endloop
  endfacet
  facet normal -0.770468 0.637478 0
    outer loop
      vertex 26.618 13.8244 11
      vertex 26.4579 13.6309 10
      vertex 26.4579 13.6309 11
    endloop
  endfacet
  facet normal 0.125407 -0.992105 0
    outer loop
      vertex 24.6252 16.9646 10
      vertex 24.8744 16.9961 11
      vertex 24.6252 16.9646 11
    endloop
  endfacet
  facet normal 0.125407 -0.992105 0
    outer loop
      vertex 24.8744 16.9961 11
      vertex 24.6252 16.9646 10
      vertex 24.8744 16.9961 10
    endloop
  endfacet
  facet normal 0 0 -1
    outer loop
      vertex 26.9842 14.7493 11
      vertex 26.9842 15.2507 11
      vertex 27 15 11
    endloop
  endfacet
  facet normal 0 0 -1
    outer loop
      vertex 26.9372 14.5026 11
      vertex 26.9842 15.2507 11
      vertex 26.9842 14.7493 11
    endloop
  endfacet
  facet normal 0 0 -1
    outer loop
      vertex 26.9372 14.5026 11
      vertex 26.9372 15.4974 11
      vertex 26.9842 15.2507 11
    endloop
  endfacet
  facet normal 0 0 -1
    outer loop
      vertex 26.8596 14.2638 11
      vertex 26.9372 15.4974 11
      vertex 26.9372 14.5026 11
    endloop
  endfacet
  facet normal 0 0 -1
    outer loop
      vertex 26.8596 14.2638 11
      vertex 26.8596 15.7362 11
      vertex 26.9372 15.4974 11
    endloop
  endfacet
  facet normal 0 0 -1
    outer loop
      vertex 26.7526 14.0365 11
      vertex 26.8596 15.7362 11
      vertex 26.8596 14.2638 11
    endloop
  endfacet
  facet normal 0 0 -1
    outer loop
      vertex 26.7526 14.0365 11
      vertex 26.7526 15.9635 11
      vertex 26.8596 15.7362 11
    endloop
  endfacet
  facet normal 0 0 -1
    outer loop
      vertex 26.618 13.8244 11
      vertex 26.7526 15.9635 11
      vertex 26.7526 14.0365 11
    endloop
  endfacet
  facet normal 0 0 -1
    outer loop
      vertex 26.618 13.8244 11
      vertex 26.618 16.1756 11
      vertex 26.7526 15.9635 11
    endloop
  endfacet
  facet normal 0 0 -1
    outer loop
      vertex 26.4579 13.6309 11
      vertex 26.618 16.1756 11
      vertex 26.618 13.8244 11
    endloop
  endfacet
  facet normal 0 0 -1
    outer loop
      vertex 26.4579 13.6309 11
      vertex 26.4579 16.3691 11
      vertex 26.618 16.1756 11
    endloop
  endfacet
  facet normal 0 0 -1
    outer loop
      vertex 26.2748 13.459 11
      vertex 26.4579 16.3691 11
      vertex 26.4579 13.6309 11
    endloop
  endfacet
  facet normal 0 0 -1
    outer loop
      vertex 26.2748 13.459 11
      vertex 26.2748 16.541 11
      vertex 26.4579 16.3691 11
    endloop
  endfacet
  facet normal 0 0 -1
    outer loop
      vertex 26.0717 13.3113 11
      vertex 26.2748 16.541 11
      vertex 26.2748 13.459 11
    endloop
  endfacet
  facet normal 0 0 -1
    outer loop
      vertex 26.0717 13.3113 11
      vertex 26.0717 16.6887 11
      vertex 26.2748 16.541 11
    endloop
  endfacet
  facet normal 0 0 -1
    outer loop
      vertex 25.8516 13.1903 11
      vertex 26.0717 16.6887 11
      vertex 26.0717 13.3113 11
    endloop
  endfacet
  facet normal 0 0 -1
    outer loop
      vertex 25.8516 13.1903 11
      vertex 25.8516 16.8097 11
      vertex 26.0717 16.6887 11
    endloop
  endfacet
  facet normal 0 0 -1
    outer loop
      vertex 25.618 13.0979 11
      vertex 25.8516 16.8097 11
      vertex 25.8516 13.1903 11
    endloop
  endfacet
  facet normal 0 0 -1
    outer loop
      vertex 25.618 13.0979 11
      vertex 25.618 16.9021 11
      vertex 25.8516 16.8097 11
    endloop
  endfacet
  facet normal 0 0 -1
    outer loop
      vertex 25.3748 13.0354 11
      vertex 25.618 16.9021 11
      vertex 25.618 13.0979 11
    endloop
  endfacet
  facet normal 0 0 -1
    outer loop
      vertex 25.3748 13.0354 11
      vertex 25.3748 16.9646 11
      vertex 25.618 16.9021 11
    endloop
  endfacet
  facet normal 0 0 -1
    outer loop
      vertex 25.1256 13.0039 11
      vertex 25.3748 16.9646 11
      vertex 25.3748 13.0354 11
    endloop
  endfacet
  facet normal 0 0 -1
    outer loop
      vertex 25.1256 13.0039 11
      vertex 25.1256 16.9961 11
      vertex 25.3748 16.9646 11
    endloop
  endfacet
  facet normal 0 0 -1
    outer loop
      vertex 24.8744 13.0039 11
      vertex 25.1256 16.9961 11
      vertex 25.1256 13.0039 11
    endloop
  endfacet
  facet normal 0 0 -1
    outer loop
      vertex 24.8744 13.0039 11
      vertex 24.8744 16.9961 11
      vertex 25.1256 16.9961 11
    endloop
  endfacet
  facet normal 0 0 -1
    outer loop
      vertex 24.6252 13.0354 11
      vertex 24.8744 16.9961 11
      vertex 24.8744 13.0039 11
    endloop
  endfacet
  facet normal 0 0 -1
    outer loop
      vertex 24.6252 13.0354 11
      vertex 24.6252 16.9646 11
      vertex 24.8744 16.9961 11
    endloop
  endfacet
  facet normal 0 0 -1
    outer loop
      vertex 24.382 13.0979 11
      vertex 24.6252 16.9646 11
      vertex 24.6252 13.0354 11
    endloop
  endfacet
  facet normal 0 0 -1
    outer loop
      vertex 24.382 13.0979 11
      vertex 24.382 16.9021 11
      vertex 24.6252 16.9646 11
    endloop
  endfacet
  facet normal 0 0 -1
    outer loop
      vertex 24 13.272 11
      vertex 24.382 13.0979 11
      vertex 24.1484 13.1903 11
    endloop
  endfacet
  facet normal 0 0 -1
    outer loop
      vertex 24.382 13.0979 11
      vertex 24 13.272 11
      vertex 24.382 16.9021 11
    endloop
  endfacet
  facet normal 0 0 -1
    outer loop
      vertex 24 16.728 11
      vertex 24.382 16.9021 11
      vertex 24 13.272 11
    endloop
  endfacet
  facet normal 0 0 -1
    outer loop
      vertex 24.382 16.9021 11
      vertex 24 16.728 11
      vertex 24.1484 16.8097 11
    endloop
  endfacet
  facet normal 0 0 -1
    outer loop
      vertex 23.618 13.0979 11
      vertex 24 13.272 11
      vertex 23.8516 13.1903 11
    endloop
  endfacet
  facet normal -0 0 -1
    outer loop
      vertex 24 13.272 11
      vertex 23.618 13.0979 11
      vertex 24 16.728 11
    endloop
  endfacet
  facet normal 0 0 -1
    outer loop
      vertex 23.618 16.9021 11
      vertex 24 16.728 11
      vertex 23.618 13.0979 11
    endloop
  endfacet
  facet normal 0 0 -1
    outer loop
      vertex 24 16.728 11
      vertex 23.618 16.9021 11
      vertex 23.8516 16.8097 11
    endloop
  endfacet
  facet normal 0 0 -1
    outer loop
      vertex 23.3748 13.0354 11
      vertex 23.618 16.9021 11
      vertex 23.618 13.0979 11
    endloop
  endfacet
  facet normal 0 0 -1
    outer loop
      vertex 23.3748 13.0354 11
      vertex 23.3748 16.9646 11
      vertex 23.618 16.9021 11
    endloop
  endfacet
  facet normal 0 0 -1
    outer loop
      vertex 23.1256 13.0039 11
      vertex 23.3748 16.9646 11
      vertex 23.3748 13.0354 11
    endloop
  endfacet
  facet normal 0 0 -1
    outer loop
      vertex 23.1256 13.0039 11
      vertex 23.1256 16.9961 11
      vertex 23.3748 16.9646 11
    endloop
  endfacet
  facet normal 0 0 -1
    outer loop
      vertex 22.8744 13.0039 11
      vertex 23.1256 16.9961 11
      vertex 23.1256 13.0039 11
    endloop
  endfacet
  facet normal 0 0 -1
    outer loop
      vertex 22.8744 13.0039 11
      vertex 22.8744 16.9961 11
      vertex 23.1256 16.9961 11
    endloop
  endfacet
  facet normal 0 0 -1
    outer loop
      vertex 22.6252 13.0354 11
      vertex 22.8744 16.9961 11
      vertex 22.8744 13.0039 11
    endloop
  endfacet
  facet normal 0 0 -1
    outer loop
      vertex 22.6252 13.0354 11
      vertex 22.6252 16.9646 11
      vertex 22.8744 16.9961 11
    endloop
  endfacet
  facet normal 0 0 -1
    outer loop
      vertex 22.382 13.0979 11
      vertex 22.6252 16.9646 11
      vertex 22.6252 13.0354 11
    endloop
  endfacet
  facet normal 0 0 -1
    outer loop
      vertex 22.382 13.0979 11
      vertex 22.382 16.9021 11
      vertex 22.6252 16.9646 11
    endloop
  endfacet
  facet normal 0 0 -1
    outer loop
      vertex 22.1484 13.1903 11
      vertex 22.382 16.9021 11
      vertex 22.382 13.0979 11
    endloop
  endfacet
  facet normal 0 0 -1
    outer loop
      vertex 22.1484 13.1903 11
      vertex 22.1484 16.8097 11
      vertex 22.382 16.9021 11
    endloop
  endfacet
  facet normal 0 0 -1
    outer loop
      vertex 21.9283 13.3113 11
      vertex 22.1484 16.8097 11
      vertex 22.1484 13.1903 11
    endloop
  endfacet
  facet normal 0 0 -1
    outer loop
      vertex 21.9283 13.3113 11
      vertex 21.9283 16.6887 11
      vertex 22.1484 16.8097 11
    endloop
  endfacet
  facet normal 0 0 -1
    outer loop
      vertex 21.7252 13.459 11
      vertex 21.9283 16.6887 11
      vertex 21.9283 13.3113 11
    endloop
  endfacet
  facet normal 0 0 -1
    outer loop
      vertex 21.7252 13.459 11
      vertex 21.7252 16.541 11
      vertex 21.9283 16.6887 11
    endloop
  endfacet
  facet normal 0 0 -1
    outer loop
      vertex 21.5421 13.6309 11
      vertex 21.7252 16.541 11
      vertex 21.7252 13.459 11
    endloop
  endfacet
  facet normal 0 0 -1
    outer loop
      vertex 21.5421 13.6309 11
      vertex 21.5421 16.3691 11
      vertex 21.7252 16.541 11
    endloop
  endfacet
  facet normal 0 0 -1
    outer loop
      vertex 21.382 13.8244 11
      vertex 21.5421 16.3691 11
      vertex 21.5421 13.6309 11
    endloop
  endfacet
  facet normal 0 0 -1
    outer loop
      vertex 21.382 13.8244 11
      vertex 21.382 16.1756 11
      vertex 21.5421 16.3691 11
    endloop
  endfacet
  facet normal 0 0 -1
    outer loop
      vertex 21.2474 14.0365 11
      vertex 21.382 16.1756 11
      vertex 21.382 13.8244 11
    endloop
  endfacet
  facet normal 0 0 -1
    outer loop
      vertex 21.2474 14.0365 11
      vertex 21.2474 15.9635 11
      vertex 21.382 16.1756 11
    endloop
  endfacet
  facet normal 0 0 -1
    outer loop
      vertex 21.1404 14.2638 11
      vertex 21.2474 15.9635 11
      vertex 21.2474 14.0365 11
    endloop
  endfacet
  facet normal 0 0 -1
    outer loop
      vertex 21.1404 14.2638 11
      vertex 21.1404 15.7362 11
      vertex 21.2474 15.9635 11
    endloop
  endfacet
  facet normal 0 0 -1
    outer loop
      vertex 21.0628 14.5026 11
      vertex 21.1404 15.7362 11
      vertex 21.1404 14.2638 11
    endloop
  endfacet
  facet normal 0 0 -1
    outer loop
      vertex 21.0628 14.5026 11
      vertex 21.0628 15.4974 11
      vertex 21.1404 15.7362 11
    endloop
  endfacet
  facet normal 0 0 -1
    outer loop
      vertex 21.0158 14.7493 11
      vertex 21.0628 15.4974 11
      vertex 21.0628 14.5026 11
    endloop
  endfacet
  facet normal 0 0 -1
    outer loop
      vertex 21.0158 14.7493 11
      vertex 21.0158 15.2507 11
      vertex 21.0628 15.4974 11
    endloop
  endfacet
  facet normal 0 -0 -1
    outer loop
      vertex 21.0158 15.2507 11
      vertex 21.0158 14.7493 11
      vertex 21 15 11
    endloop
  endfacet
  facet normal -0.982332 -0.187149 0
    outer loop
      vertex 26.9842 13.2507 8
      vertex 26.9372 13.4974 9
      vertex 26.9372 13.4974 8
    endloop
  endfacet
  facet normal -0.982332 -0.187149 0
    outer loop
      vertex 26.9372 13.4974 9
      vertex 26.9842 13.2507 8
      vertex 26.9842 13.2507 9
    endloop
  endfacet
  facet normal -0.99802 -0.0628987 0
    outer loop
      vertex 27 13 8
      vertex 26.9842 13.2507 9
      vertex 26.9842 13.2507 8
    endloop
  endfacet
  facet normal -0.99802 -0.0628987 0
    outer loop
      vertex 26.9842 13.2507 9
      vertex 27 13 8
      vertex 27 13 9
    endloop
  endfacet
  facet normal -0.481751 0.876308 0
    outer loop
      vertex 26.0717 11.3113 8
      vertex 25.8516 11.1903 9
      vertex 26.0717 11.3113 9
    endloop
  endfacet
  facet normal -0.481751 0.876308 0
    outer loop
      vertex 25.8516 11.1903 9
      vertex 26.0717 11.3113 8
      vertex 25.8516 11.1903 8
    endloop
  endfacet
  facet normal -0.684458 -0.729053 0
    outer loop
      vertex 26.2748 14.541 8
      vertex 26.4579 14.3691 9
      vertex 26.2748 14.541 9
    endloop
  endfacet
  facet normal -0.684458 -0.729053 -0
    outer loop
      vertex 26.4579 14.3691 9
      vertex 26.2748 14.541 8
      vertex 26.4579 14.3691 8
    endloop
  endfacet
  facet normal -0.951046 0.30905 0
    outer loop
      vertex 26.8596 12.2638 8
      vertex 26.9372 12.5026 9
      vertex 26.9372 12.5026 8
    endloop
  endfacet
  facet normal -0.951046 0.30905 0
    outer loop
      vertex 26.9372 12.5026 9
      vertex 26.8596 12.2638 8
      vertex 26.8596 12.2638 9
    endloop
  endfacet
  facet normal 0 0 1
    outer loop
      vertex 26.9842 13.2507 8
      vertex 26.9842 12.7493 8
      vertex 27 13 8
    endloop
  endfacet
  facet normal 0 0 1
    outer loop
      vertex 26.9372 13.4974 8
      vertex 26.9842 12.7493 8
      vertex 26.9842 13.2507 8
    endloop
  endfacet
  facet normal 0 0 1
    outer loop
      vertex 26.9372 13.4974 8
      vertex 26.9372 12.5026 8
      vertex 26.9842 12.7493 8
    endloop
  endfacet
  facet normal 0 0 1
    outer loop
      vertex 26.8596 13.7362 8
      vertex 26.9372 12.5026 8
      vertex 26.9372 13.4974 8
    endloop
  endfacet
  facet normal 0 0 1
    outer loop
      vertex 26.8596 13.7362 8
      vertex 26.8596 12.2638 8
      vertex 26.9372 12.5026 8
    endloop
  endfacet
  facet normal 0 0 1
    outer loop
      vertex 26.7526 13.9635 8
      vertex 26.8596 12.2638 8
      vertex 26.8596 13.7362 8
    endloop
  endfacet
  facet normal 0 0 1
    outer loop
      vertex 26.7526 13.9635 8
      vertex 26.7526 12.0365 8
      vertex 26.8596 12.2638 8
    endloop
  endfacet
  facet normal 0 0 1
    outer loop
      vertex 26.618 14.1756 8
      vertex 26.7526 12.0365 8
      vertex 26.7526 13.9635 8
    endloop
  endfacet
  facet normal 0 0 1
    outer loop
      vertex 26.618 14.1756 8
      vertex 26.618 11.8244 8
      vertex 26.7526 12.0365 8
    endloop
  endfacet
  facet normal 0 0 1
    outer loop
      vertex 26.4579 14.3691 8
      vertex 26.618 11.8244 8
      vertex 26.618 14.1756 8
    endloop
  endfacet
  facet normal 0 0 1
    outer loop
      vertex 26.4579 14.3691 8
      vertex 26.4579 11.6309 8
      vertex 26.618 11.8244 8
    endloop
  endfacet
  facet normal 0 0 1
    outer loop
      vertex 26.2748 14.541 8
      vertex 26.4579 11.6309 8
      vertex 26.4579 14.3691 8
    endloop
  endfacet
  facet normal 0 0 1
    outer loop
      vertex 26.2748 14.541 8
      vertex 26.2748 11.459 8
      vertex 26.4579 11.6309 8
    endloop
  endfacet
  facet normal 0 0 1
    outer loop
      vertex 26.0717 14.6887 8
      vertex 26.2748 11.459 8
      vertex 26.2748 14.541 8
    endloop
  endfacet
  facet normal 0 0 1
    outer loop
      vertex 26.0717 14.6887 8
      vertex 26.0717 11.3113 8
      vertex 26.2748 11.459 8
    endloop
  endfacet
  facet normal 0 0 1
    outer loop
      vertex 25.8516 14.8097 8
      vertex 26.0717 11.3113 8
      vertex 26.0717 14.6887 8
    endloop
  endfacet
  facet normal 0 0 1
    outer loop
      vertex 25.8516 14.8097 8
      vertex 25.8516 11.1903 8
      vertex 26.0717 11.3113 8
    endloop
  endfacet
  facet normal 0 0 1
    outer loop
      vertex 25.618 14.9021 8
      vertex 25.8516 11.1903 8
      vertex 25.8516 14.8097 8
    endloop
  endfacet
  facet normal 0 0 1
    outer loop
      vertex 25.618 14.9021 8
      vertex 25.618 11.0979 8
      vertex 25.8516 11.1903 8
    endloop
  endfacet
  facet normal 0 0 1
    outer loop
      vertex 25.3748 14.9646 8
      vertex 25.618 11.0979 8
      vertex 25.618 14.9021 8
    endloop
  endfacet
  facet normal 0 0 1
    outer loop
      vertex 25.3748 14.9646 8
      vertex 25.3748 11.0354 8
      vertex 25.618 11.0979 8
    endloop
  endfacet
  facet normal 0 0 1
    outer loop
      vertex 25.1256 14.9961 8
      vertex 25.3748 11.0354 8
      vertex 25.3748 14.9646 8
    endloop
  endfacet
  facet normal 0 0 1
    outer loop
      vertex 25.1256 14.9961 8
      vertex 25.1256 11.0039 8
      vertex 25.3748 11.0354 8
    endloop
  endfacet
  facet normal -0 0 1
    outer loop
      vertex 24.8744 14.9961 8
      vertex 25.1256 11.0039 8
      vertex 25.1256 14.9961 8
    endloop
  endfacet
  facet normal 0 0 1
    outer loop
      vertex 24.8744 14.9961 8
      vertex 24.8744 11.0039 8
      vertex 25.1256 11.0039 8
    endloop
  endfacet
  facet normal -0 0 1
    outer loop
      vertex 24.6252 14.9646 8
      vertex 24.8744 11.0039 8
      vertex 24.8744 14.9961 8
    endloop
  endfacet
  facet normal 0 0 1
    outer loop
      vertex 24.6252 14.9646 8
      vertex 24.6252 11.0354 8
      vertex 24.8744 11.0039 8
    endloop
  endfacet
  facet normal -0 0 1
    outer loop
      vertex 24.382 14.9021 8
      vertex 24.6252 11.0354 8
      vertex 24.6252 14.9646 8
    endloop
  endfacet
  facet normal 0 0 1
    outer loop
      vertex 24.382 14.9021 8
      vertex 24.382 11.0979 8
      vertex 24.6252 11.0354 8
    endloop
  endfacet
  facet normal 0 0 1
    outer loop
      vertex 24 14.728 8
      vertex 24.382 14.9021 8
      vertex 24.1484 14.8097 8
    endloop
  endfacet
  facet normal 0 0 1
    outer loop
      vertex 24.382 14.9021 8
      vertex 24 14.728 8
      vertex 24.382 11.0979 8
    endloop
  endfacet
  facet normal -0 0 1
    outer loop
      vertex 24 11.272 8
      vertex 24.382 11.0979 8
      vertex 24 14.728 8
    endloop
  endfacet
  facet normal 0 0 1
    outer loop
      vertex 24.382 11.0979 8
      vertex 24 11.272 8
      vertex 24.1484 11.1903 8
    endloop
  endfacet
  facet normal 0 0 1
    outer loop
      vertex 23.618 14.9021 8
      vertex 24 14.728 8
      vertex 23.8516 14.8097 8
    endloop
  endfacet
  facet normal 0 0 1
    outer loop
      vertex 24 14.728 8
      vertex 23.618 14.9021 8
      vertex 24 11.272 8
    endloop
  endfacet
  facet normal 0 0 1
    outer loop
      vertex 23.618 11.0979 8
      vertex 24 11.272 8
      vertex 23.618 14.9021 8
    endloop
  endfacet
  facet normal 0 0 1
    outer loop
      vertex 24 11.272 8
      vertex 23.618 11.0979 8
      vertex 23.8516 11.1903 8
    endloop
  endfacet
  facet normal 0 0 1
    outer loop
      vertex 23.3748 14.9646 8
      vertex 23.618 11.0979 8
      vertex 23.618 14.9021 8
    endloop
  endfacet
  facet normal 0 0 1
    outer loop
      vertex 23.3748 14.9646 8
      vertex 23.3748 11.0354 8
      vertex 23.618 11.0979 8
    endloop
  endfacet
  facet normal 0 0 1
    outer loop
      vertex 23.1256 14.9961 8
      vertex 23.3748 11.0354 8
      vertex 23.3748 14.9646 8
    endloop
  endfacet
  facet normal 0 0 1
    outer loop
      vertex 23.1256 14.9961 8
      vertex 23.1256 11.0039 8
      vertex 23.3748 11.0354 8
    endloop
  endfacet
  facet normal -0 0 1
    outer loop
      vertex 22.8744 14.9961 8
      vertex 23.1256 11.0039 8
      vertex 23.1256 14.9961 8
    endloop
  endfacet
  facet normal 0 0 1
    outer loop
      vertex 22.8744 14.9961 8
      vertex 22.8744 11.0039 8
      vertex 23.1256 11.0039 8
    endloop
  endfacet
  facet normal -0 0 1
    outer loop
      vertex 22.6252 14.9646 8
      vertex 22.8744 11.0039 8
      vertex 22.8744 14.9961 8
    endloop
  endfacet
  facet normal 0 0 1
    outer loop
      vertex 22.6252 14.9646 8
      vertex 22.6252 11.0354 8
      vertex 22.8744 11.0039 8
    endloop
  endfacet
  facet normal -0 0 1
    outer loop
      vertex 22.382 14.9021 8
      vertex 22.6252 11.0354 8
      vertex 22.6252 14.9646 8
    endloop
  endfacet
  facet normal 0 0 1
    outer loop
      vertex 22.382 14.9021 8
      vertex 22.382 11.0979 8
      vertex 22.6252 11.0354 8
    endloop
  endfacet
  facet normal -0 0 1
    outer loop
      vertex 22.1484 14.8097 8
      vertex 22.382 11.0979 8
      vertex 22.382 14.9021 8
    endloop
  endfacet
  facet normal 0 0 1
    outer loop
      vertex 22.1484 14.8097 8
      vertex 22.1484 11.1903 8
      vertex 22.382 11.0979 8
    endloop
  endfacet
  facet normal -0 0 1
    outer loop
      vertex 21.9283 14.6887 8
      vertex 22.1484 11.1903 8
      vertex 22.1484 14.8097 8
    endloop
  endfacet
  facet normal 0 0 1
    outer loop
      vertex 21.9283 14.6887 8
      vertex 21.9283 11.3113 8
      vertex 22.1484 11.1903 8
    endloop
  endfacet
  facet normal -0 0 1
    outer loop
      vertex 21.7252 14.541 8
      vertex 21.9283 11.3113 8
      vertex 21.9283 14.6887 8
    endloop
  endfacet
  facet normal 0 0 1
    outer loop
      vertex 21.7252 14.541 8
      vertex 21.7252 11.459 8
      vertex 21.9283 11.3113 8
    endloop
  endfacet
  facet normal -0 0 1
    outer loop
      vertex 21.5421 14.3691 8
      vertex 21.7252 11.459 8
      vertex 21.7252 14.541 8
    endloop
  endfacet
  facet normal 0 0 1
    outer loop
      vertex 21.5421 14.3691 8
      vertex 21.5421 11.6309 8
      vertex 21.7252 11.459 8
    endloop
  endfacet
  facet normal -0 0 1
    outer loop
      vertex 21.382 14.1756 8
      vertex 21.5421 11.6309 8
      vertex 21.5421 14.3691 8
    endloop
  endfacet
  facet normal 0 0 1
    outer loop
      vertex 21.382 14.1756 8
      vertex 21.382 11.8244 8
      vertex 21.5421 11.6309 8
    endloop
  endfacet
  facet normal -0 0 1
    outer loop
      vertex 21.2474 13.9635 8
      vertex 21.382 11.8244 8
      vertex 21.382 14.1756 8
    endloop
  endfacet
  facet normal 0 0 1
    outer loop
      vertex 21.2474 13.9635 8
      vertex 21.2474 12.0365 8
      vertex 21.382 11.8244 8
    endloop
  endfacet
  facet normal -0 0 1
    outer loop
      vertex 21.1404 13.7362 8
      vertex 21.2474 12.0365 8
      vertex 21.2474 13.9635 8
    endloop
  endfacet
  facet normal 0 0 1
    outer loop
      vertex 21.1404 13.7362 8
      vertex 21.1404 12.2638 8
      vertex 21.2474 12.0365 8
    endloop
  endfacet
  facet normal -0 0 1
    outer loop
      vertex 21.0628 13.4974 8
      vertex 21.1404 12.2638 8
      vertex 21.1404 13.7362 8
    endloop
  endfacet
  facet normal 0 0 1
    outer loop
      vertex 21.0628 13.4974 8
      vertex 21.0628 12.5026 8
      vertex 21.1404 12.2638 8
    endloop
  endfacet
  facet normal -0 0 1
    outer loop
      vertex 21.0158 13.2507 8
      vertex 21.0628 12.5026 8
      vertex 21.0628 13.4974 8
    endloop
  endfacet
  facet normal 0 0 1
    outer loop
      vertex 21.0158 13.2507 8
      vertex 21.0158 12.7493 8
      vertex 21.0628 12.5026 8
    endloop
  endfacet
  facet normal 0 -0 1
    outer loop
      vertex 21.0158 12.7493 8
      vertex 21.0158 13.2507 8
      vertex 21 13 8
    endloop
  endfacet
  facet normal 0.125407 0.992105 -0
    outer loop
      vertex 24.8744 11.0039 8
      vertex 24.6252 11.0354 9
      vertex 24.8744 11.0039 9
    endloop
  endfacet
  facet normal 0.125407 0.992105 0
    outer loop
      vertex 24.6252 11.0354 9
      vertex 24.8744 11.0039 8
      vertex 24.6252 11.0354 8
    endloop
  endfacet
  facet normal -0.248902 -0.968529 0
    outer loop
      vertex 25.3748 14.9646 8
      vertex 25.618 14.9021 9
      vertex 25.3748 14.9646 9
    endloop
  endfacet
  facet normal -0.248902 -0.968529 -0
    outer loop
      vertex 25.618 14.9021 9
      vertex 25.3748 14.9646 8
      vertex 25.618 14.9021 8
    endloop
  endfacet
  facet normal 0.367819 -0.929897 0
    outer loop
      vertex 24.1484 14.8097 8
      vertex 24.382 14.9021 9
      vertex 24.1484 14.8097 9
    endloop
  endfacet
  facet normal 0.367819 -0.929897 0
    outer loop
      vertex 24.382 14.9021 9
      vertex 24.1484 14.8097 8
      vertex 24.382 14.9021 8
    endloop
  endfacet
  facet normal -0.684458 0.729053 0
    outer loop
      vertex 26.4579 11.6309 8
      vertex 26.2748 11.459 9
      vertex 26.4579 11.6309 9
    endloop
  endfacet
  facet normal -0.684458 0.729053 0
    outer loop
      vertex 26.2748 11.459 9
      vertex 26.4579 11.6309 8
      vertex 26.2748 11.459 8
    endloop
  endfacet
  facet normal -0.588148 0.808753 0
    outer loop
      vertex 26.2748 11.459 8
      vertex 26.0717 11.3113 9
      vertex 26.2748 11.459 9
    endloop
  endfacet
  facet normal -0.588148 0.808753 0
    outer loop
      vertex 26.0717 11.3113 9
      vertex 26.2748 11.459 8
      vertex 26.0717 11.3113 8
    endloop
  endfacet
  facet normal -0.844333 0.535819 0
    outer loop
      vertex 26.618 11.8244 8
      vertex 26.7526 12.0365 9
      vertex 26.7526 12.0365 8
    endloop
  endfacet
  facet normal -0.844333 0.535819 0
    outer loop
      vertex 26.7526 12.0365 9
      vertex 26.618 11.8244 8
      vertex 26.618 11.8244 9
    endloop
  endfacet
  facet normal -0.367819 0.929897 0
    outer loop
      vertex 25.8516 11.1903 8
      vertex 25.618 11.0979 9
      vertex 25.8516 11.1903 9
    endloop
  endfacet
  facet normal -0.367819 0.929897 0
    outer loop
      vertex 25.618 11.0979 9
      vertex 25.8516 11.1903 8
      vertex 25.618 11.0979 8
    endloop
  endfacet
  facet normal -0.844333 -0.535819 0
    outer loop
      vertex 26.7526 13.9635 8
      vertex 26.618 14.1756 9
      vertex 26.618 14.1756 8
    endloop
  endfacet
  facet normal -0.844333 -0.535819 0
    outer loop
      vertex 26.618 14.1756 9
      vertex 26.7526 13.9635 8
      vertex 26.7526 13.9635 9
    endloop
  endfacet
  facet normal -0.904765 0.425912 0
    outer loop
      vertex 26.7526 12.0365 8
      vertex 26.8596 12.2638 9
      vertex 26.8596 12.2638 8
    endloop
  endfacet
  facet normal -0.904765 0.425912 0
    outer loop
      vertex 26.8596 12.2638 9
      vertex 26.7526 12.0365 8
      vertex 26.7526 12.0365 9
    endloop
  endfacet
  facet normal -0.982332 0.187149 0
    outer loop
      vertex 26.9372 12.5026 8
      vertex 26.9842 12.7493 9
      vertex 26.9842 12.7493 8
    endloop
  endfacet
  facet normal -0.982332 0.187149 0
    outer loop
      vertex 26.9842 12.7493 9
      vertex 26.9372 12.5026 8
      vertex 26.9372 12.5026 9
    endloop
  endfacet
  facet normal -0.125407 0.992105 0
    outer loop
      vertex 25.3748 11.0354 8
      vertex 25.1256 11.0039 9
      vertex 25.3748 11.0354 9
    endloop
  endfacet
  facet normal -0.125407 0.992105 0
    outer loop
      vertex 25.1256 11.0039 9
      vertex 25.3748 11.0354 8
      vertex 25.1256 11.0039 8
    endloop
  endfacet
  facet normal -0.125407 -0.992105 0
    outer loop
      vertex 25.1256 14.9961 8
      vertex 25.3748 14.9646 9
      vertex 25.1256 14.9961 9
    endloop
  endfacet
  facet normal -0.125407 -0.992105 -0
    outer loop
      vertex 25.3748 14.9646 9
      vertex 25.1256 14.9961 8
      vertex 25.3748 14.9646 8
    endloop
  endfacet
  facet normal -0.588148 -0.808753 0
    outer loop
      vertex 26.0717 14.6887 8
      vertex 26.2748 14.541 9
      vertex 26.0717 14.6887 9
    endloop
  endfacet
  facet normal -0.588148 -0.808753 -0
    outer loop
      vertex 26.2748 14.541 9
      vertex 26.0717 14.6887 8
      vertex 26.2748 14.541 8
    endloop
  endfacet
  facet normal 0 1 -0
    outer loop
      vertex 25.1256 11.0039 8
      vertex 24.8744 11.0039 9
      vertex 25.1256 11.0039 9
    endloop
  endfacet
  facet normal 0 1 0
    outer loop
      vertex 24.8744 11.0039 9
      vertex 25.1256 11.0039 8
      vertex 24.8744 11.0039 8
    endloop
  endfacet
  facet normal -0.481751 -0.876308 0
    outer loop
      vertex 25.8516 14.8097 8
      vertex 26.0717 14.6887 9
      vertex 25.8516 14.8097 9
    endloop
  endfacet
  facet normal -0.481751 -0.876308 -0
    outer loop
      vertex 26.0717 14.6887 9
      vertex 25.8516 14.8097 8
      vertex 26.0717 14.6887 8
    endloop
  endfacet
  facet normal 0.248902 -0.968529 0
    outer loop
      vertex 24.382 14.9021 8
      vertex 24.6252 14.9646 9
      vertex 24.382 14.9021 9
    endloop
  endfacet
  facet normal 0.248902 -0.968529 0
    outer loop
      vertex 24.6252 14.9646 9
      vertex 24.382 14.9021 8
      vertex 24.6252 14.9646 8
    endloop
  endfacet
  facet normal -0.99802 0.0628987 0
    outer loop
      vertex 26.9842 12.7493 8
      vertex 27 13 9
      vertex 27 13 8
    endloop
  endfacet
  facet normal -0.99802 0.0628987 0
    outer loop
      vertex 27 13 9
      vertex 26.9842 12.7493 8
      vertex 26.9842 12.7493 9
    endloop
  endfacet
  facet normal 0 -1 0
    outer loop
      vertex 24.8744 14.9961 8
      vertex 25.1256 14.9961 9
      vertex 24.8744 14.9961 9
    endloop
  endfacet
  facet normal 0 -1 -0
    outer loop
      vertex 25.1256 14.9961 9
      vertex 24.8744 14.9961 8
      vertex 25.1256 14.9961 8
    endloop
  endfacet
  facet normal -0.904765 -0.425912 0
    outer loop
      vertex 26.8596 13.7362 8
      vertex 26.7526 13.9635 9
      vertex 26.7526 13.9635 8
    endloop
  endfacet
  facet normal -0.904765 -0.425912 0
    outer loop
      vertex 26.7526 13.9635 9
      vertex 26.8596 13.7362 8
      vertex 26.8596 13.7362 9
    endloop
  endfacet
  facet normal -0.367819 -0.929897 0
    outer loop
      vertex 25.618 14.9021 8
      vertex 25.8516 14.8097 9
      vertex 25.618 14.9021 9
    endloop
  endfacet
  facet normal -0.367819 -0.929897 -0
    outer loop
      vertex 25.8516 14.8097 9
      vertex 25.618 14.9021 8
      vertex 25.8516 14.8097 8
    endloop
  endfacet
  facet normal 0.248902 0.968529 -0
    outer loop
      vertex 24.6252 11.0354 8
      vertex 24.382 11.0979 9
      vertex 24.6252 11.0354 9
    endloop
  endfacet
  facet normal 0.248902 0.968529 0
    outer loop
      vertex 24.382 11.0979 9
      vertex 24.6252 11.0354 8
      vertex 24.382 11.0979 8
    endloop
  endfacet
  facet normal -0.248902 0.968529 0
    outer loop
      vertex 25.618 11.0979 8
      vertex 25.3748 11.0354 9
      vertex 25.618 11.0979 9
    endloop
  endfacet
  facet normal -0.248902 0.968529 0
    outer loop
      vertex 25.3748 11.0354 9
      vertex 25.618 11.0979 8
      vertex 25.3748 11.0354 8
    endloop
  endfacet
  facet normal 0.367819 0.929897 -0
    outer loop
      vertex 24.382 11.0979 8
      vertex 24.1484 11.1903 9
      vertex 24.382 11.0979 9
    endloop
  endfacet
  facet normal 0.367819 0.929897 0
    outer loop
      vertex 24.1484 11.1903 9
      vertex 24.382 11.0979 8
      vertex 24.1484 11.1903 8
    endloop
  endfacet
  facet normal -0.770468 -0.637478 0
    outer loop
      vertex 26.618 14.1756 8
      vertex 26.4579 14.3691 9
      vertex 26.4579 14.3691 8
    endloop
  endfacet
  facet normal -0.770468 -0.637478 0
    outer loop
      vertex 26.4579 14.3691 9
      vertex 26.618 14.1756 8
      vertex 26.618 14.1756 9
    endloop
  endfacet
  facet normal -0.951046 -0.30905 0
    outer loop
      vertex 26.9372 13.4974 8
      vertex 26.8596 13.7362 9
      vertex 26.8596 13.7362 8
    endloop
  endfacet
  facet normal -0.951046 -0.30905 0
    outer loop
      vertex 26.8596 13.7362 9
      vertex 26.9372 13.4974 8
      vertex 26.9372 13.4974 9
    endloop
  endfacet
  facet normal 0.482281 -0.876016 0
    outer loop
      vertex 24 14.728 8
      vertex 24.1484 14.8097 9
      vertex 24 14.728 9
    endloop
  endfacet
  facet normal 0.482281 -0.876016 0
    outer loop
      vertex 24.1484 14.8097 9
      vertex 24 14.728 8
      vertex 24.1484 14.8097 8
    endloop
  endfacet
  facet normal 0.482281 0.876016 -0
    outer loop
      vertex 24.1484 11.1903 8
      vertex 24 11.272 9
      vertex 24.1484 11.1903 9
    endloop
  endfacet
  facet normal 0.482281 0.876016 0
    outer loop
      vertex 24 11.272 9
      vertex 24.1484 11.1903 8
      vertex 24 11.272 8
    endloop
  endfacet
  facet normal -0.770468 0.637478 0
    outer loop
      vertex 26.4579 11.6309 8
      vertex 26.618 11.8244 9
      vertex 26.618 11.8244 8
    endloop
  endfacet
  facet normal -0.770468 0.637478 0
    outer loop
      vertex 26.618 11.8244 9
      vertex 26.4579 11.6309 8
      vertex 26.4579 11.6309 9
    endloop
  endfacet
  facet normal 0.125407 -0.992105 0
    outer loop
      vertex 24.6252 14.9646 8
      vertex 24.8744 14.9961 9
      vertex 24.6252 14.9646 9
    endloop
  endfacet
  facet normal 0.125407 -0.992105 0
    outer loop
      vertex 24.8744 14.9961 9
      vertex 24.6252 14.9646 8
      vertex 24.8744 14.9961 8
    endloop
  endfacet
  facet normal 0 0 -1
    outer loop
      vertex 26.9842 12.7493 9
      vertex 26.9842 13.2507 9
      vertex 27 13 9
    endloop
  endfacet
  facet normal 0 0 -1
    outer loop
      vertex 26.9372 12.5026 9
      vertex 26.9842 13.2507 9
      vertex 26.9842 12.7493 9
    endloop
  endfacet
  facet normal 0 0 -1
    outer loop
      vertex 26.9372 12.5026 9
      vertex 26.9372 13.4974 9
      vertex 26.9842 13.2507 9
    endloop
  endfacet
  facet normal 0 0 -1
    outer loop
      vertex 26.8596 12.2638 9
      vertex 26.9372 13.4974 9
      vertex 26.9372 12.5026 9
    endloop
  endfacet
  facet normal 0 0 -1
    outer loop
      vertex 26.8596 12.2638 9
      vertex 26.8596 13.7362 9
      vertex 26.9372 13.4974 9
    endloop
  endfacet
  facet normal 0 0 -1
    outer loop
      vertex 26.7526 12.0365 9
      vertex 26.8596 13.7362 9
      vertex 26.8596 12.2638 9
    endloop
  endfacet
  facet normal 0 0 -1
    outer loop
      vertex 26.7526 12.0365 9
      vertex 26.7526 13.9635 9
      vertex 26.8596 13.7362 9
    endloop
  endfacet
  facet normal 0 0 -1
    outer loop
      vertex 26.618 11.8244 9
      vertex 26.7526 13.9635 9
      vertex 26.7526 12.0365 9
    endloop
  endfacet
  facet normal 0 0 -1
    outer loop
      vertex 26.618 11.8244 9
      vertex 26.618 14.1756 9
      vertex 26.7526 13.9635 9
    endloop
  endfacet
  facet normal 0 0 -1
    outer loop
      vertex 26.4579 11.6309 9
      vertex 26.618 14.1756 9
      vertex 26.618 11.8244 9
    endloop
  endfacet
  facet normal 0 0 -1
    outer loop
      vertex 26.4579 11.6309 9
      vertex 26.4579 14.3691 9
      vertex 26.618 14.1756 9
    endloop
  endfacet
  facet normal 0 0 -1
    outer loop
      vertex 26.2748 11.459 9
      vertex 26.4579 14.3691 9
      vertex 26.4579 11.6309 9
    endloop
  endfacet
  facet normal 0 0 -1
    outer loop
      vertex 26.2748 11.459 9
      vertex 26.2748 14.541 9
      vertex 26.4579 14.3691 9
    endloop
  endfacet
  facet normal 0 0 -1
    outer loop
      vertex 26.0717 11.3113 9
      vertex 26.2748 14.541 9
      vertex 26.2748 11.459 9
    endloop
  endfacet
  facet normal 0 0 -1
    outer loop
      vertex 26.0717 11.3113 9
      vertex 26.0717 14.6887 9
      vertex 26.2748 14.541 9
    endloop
  endfacet
  facet normal 0 0 -1
    outer loop
      vertex 25.8516 11.1903 9
      vertex 26.0717 14.6887 9
      vertex 26.0717 11.3113 9
    endloop
  endfacet
  facet normal 0 0 -1
    outer loop
      vertex 25.8516 11.1903 9
      vertex 25.8516 14.8097 9
      vertex 26.0717 14.6887 9
    endloop
  endfacet
  facet normal 0 0 -1
    outer loop
      vertex 25.618 11.0979 9
      vertex 25.8516 14.8097 9
      vertex 25.8516 11.1903 9
    endloop
  endfacet
  facet normal 0 0 -1
    outer loop
      vertex 25.618 11.0979 9
      vertex 25.618 14.9021 9
      vertex 25.8516 14.8097 9
    endloop
  endfacet
  facet normal 0 0 -1
    outer loop
      vertex 25.3748 11.0354 9
      vertex 25.618 14.9021 9
      vertex 25.618 11.0979 9
    endloop
  endfacet
  facet normal 0 0 -1
    outer loop
      vertex 25.3748 11.0354 9
      vertex 25.3748 14.9646 9
      vertex 25.618 14.9021 9
    endloop
  endfacet
  facet normal 0 0 -1
    outer loop
      vertex 25.1256 11.0039 9
      vertex 25.3748 14.9646 9
      vertex 25.3748 11.0354 9
    endloop
  endfacet
  facet normal 0 0 -1
    outer loop
      vertex 25.1256 11.0039 9
      vertex 25.1256 14.9961 9
      vertex 25.3748 14.9646 9
    endloop
  endfacet
  facet normal 0 0 -1
    outer loop
      vertex 24.8744 11.0039 9
      vertex 25.1256 14.9961 9
      vertex 25.1256 11.0039 9
    endloop
  endfacet
  facet normal 0 0 -1
    outer loop
      vertex 24.8744 11.0039 9
      vertex 24.8744 14.9961 9
      vertex 25.1256 14.9961 9
    endloop
  endfacet
  facet normal 0 0 -1
    outer loop
      vertex 24.6252 11.0354 9
      vertex 24.8744 14.9961 9
      vertex 24.8744 11.0039 9
    endloop
  endfacet
  facet normal 0 0 -1
    outer loop
      vertex 24.6252 11.0354 9
      vertex 24.6252 14.9646 9
      vertex 24.8744 14.9961 9
    endloop
  endfacet
  facet normal 0 0 -1
    outer loop
      vertex 24.382 11.0979 9
      vertex 24.6252 14.9646 9
      vertex 24.6252 11.0354 9
    endloop
  endfacet
  facet normal 0 0 -1
    outer loop
      vertex 24.382 11.0979 9
      vertex 24.382 14.9021 9
      vertex 24.6252 14.9646 9
    endloop
  endfacet
  facet normal 0 0 -1
    outer loop
      vertex 24 11.272 9
      vertex 24.382 11.0979 9
      vertex 24.1484 11.1903 9
    endloop
  endfacet
  facet normal 0 0 -1
    outer loop
      vertex 24.382 11.0979 9
      vertex 24 11.272 9
      vertex 24.382 14.9021 9
    endloop
  endfacet
  facet normal 0 0 -1
    outer loop
      vertex 24 14.728 9
      vertex 24.382 14.9021 9
      vertex 24 11.272 9
    endloop
  endfacet
  facet normal 0 0 -1
    outer loop
      vertex 24.382 14.9021 9
      vertex 24 14.728 9
      vertex 24.1484 14.8097 9
    endloop
  endfacet
  facet normal 0 0 -1
    outer loop
      vertex 23.618 11.0979 9
      vertex 24 11.272 9
      vertex 23.8516 11.1903 9
    endloop
  endfacet
  facet normal -0 0 -1
    outer loop
      vertex 24 11.272 9
      vertex 23.618 11.0979 9
      vertex 24 14.728 9
    endloop
  endfacet
  facet normal 0 0 -1
    outer loop
      vertex 23.618 14.9021 9
      vertex 24 14.728 9
      vertex 23.618 11.0979 9
    endloop
  endfacet
  facet normal 0 0 -1
    outer loop
      vertex 24 14.728 9
      vertex 23.618 14.9021 9
      vertex 23.8516 14.8097 9
    endloop
  endfacet
  facet normal 0 0 -1
    outer loop
      vertex 23.3748 11.0354 9
      vertex 23.618 14.9021 9
      vertex 23.618 11.0979 9
    endloop
  endfacet
  facet normal 0 0 -1
    outer loop
      vertex 23.3748 11.0354 9
      vertex 23.3748 14.9646 9
      vertex 23.618 14.9021 9
    endloop
  endfacet
  facet normal 0 0 -1
    outer loop
      vertex 23.1256 11.0039 9
      vertex 23.3748 14.9646 9
      vertex 23.3748 11.0354 9
    endloop
  endfacet
  facet normal 0 0 -1
    outer loop
      vertex 23.1256 11.0039 9
      vertex 23.1256 14.9961 9
      vertex 23.3748 14.9646 9
    endloop
  endfacet
  facet normal 0 0 -1
    outer loop
      vertex 22.8744 11.0039 9
      vertex 23.1256 14.9961 9
      vertex 23.1256 11.0039 9
    endloop
  endfacet
  facet normal 0 0 -1
    outer loop
      vertex 22.8744 11.0039 9
      vertex 22.8744 14.9961 9
      vertex 23.1256 14.9961 9
    endloop
  endfacet
  facet normal 0 0 -1
    outer loop
      vertex 22.6252 11.0354 9
      vertex 22.8744 14.9961 9
      vertex 22.8744 11.0039 9
    endloop
  endfacet
  facet normal 0 0 -1
    outer loop
      vertex 22.6252 11.0354 9
      vertex 22.6252 14.9646 9
      vertex 22.8744 14.9961 9
    endloop
  endfacet
  facet normal 0 0 -1
    outer loop
      vertex 22.382 11.0979 9
      vertex 22.6252 14.9646 9
      vertex 22.6252 11.0354 9
    endloop
  endfacet
  facet normal 0 0 -1
    outer loop
      vertex 22.382 11.0979 9
      vertex 22.382 14.9021 9
      vertex 22.6252 14.9646 9
    endloop
  endfacet
  facet normal 0 0 -1
    outer loop
      vertex 22.1484 11.1903 9
      vertex 22.382 14.9021 9
      vertex 22.382 11.0979 9
    endloop
  endfacet
  facet normal 0 0 -1
    outer loop
      vertex 22.1484 11.1903 9
      vertex 22.1484 14.8097 9
      vertex 22.382 14.9021 9
    endloop
  endfacet
  facet normal 0 0 -1
    outer loop
      vertex 21.9283 11.3113 9
      vertex 22.1484 14.8097 9
      vertex 22.1484 11.1903 9
    endloop
  endfacet
  facet normal 0 0 -1
    outer loop
      vertex 21.9283 11.3113 9
      vertex 21.9283 14.6887 9
      vertex 22.1484 14.8097 9
    endloop
  endfacet
  facet normal 0 0 -1
    outer loop
      vertex 21.7252 11.459 9
      vertex 21.9283 14.6887 9
      vertex 21.9283 11.3113 9
    endloop
  endfacet
  facet normal 0 0 -1
    outer loop
      vertex 21.7252 11.459 9
      vertex 21.7252 14.541 9
      vertex 21.9283 14.6887 9
    endloop
  endfacet
  facet normal 0 0 -1
    outer loop
      vertex 21.5421 11.6309 9
      vertex 21.7252 14.541 9
      vertex 21.7252 11.459 9
    endloop
  endfacet
  facet normal 0 0 -1
    outer loop
      vertex 21.5421 11.6309 9
      vertex 21.5421 14.3691 9
      vertex 21.7252 14.541 9
    endloop
  endfacet
  facet normal 0 0 -1
    outer loop
      vertex 21.382 11.8244 9
      vertex 21.5421 14.3691 9
      vertex 21.5421 11.6309 9
    endloop
  endfacet
  facet normal 0 0 -1
    outer loop
      vertex 21.382 11.8244 9
      vertex 21.382 14.1756 9
      vertex 21.5421 14.3691 9
    endloop
  endfacet
  facet normal 0 0 -1
    outer loop
      vertex 21.2474 12.0365 9
      vertex 21.382 14.1756 9
      vertex 21.382 11.8244 9
    endloop
  endfacet
  facet normal 0 0 -1
    outer loop
      vertex 21.2474 12.0365 9
      vertex 21.2474 13.9635 9
      vertex 21.382 14.1756 9
    endloop
  endfacet
  facet normal 0 0 -1
    outer loop
      vertex 21.1404 12.2638 9
      vertex 21.2474 13.9635 9
      vertex 21.2474 12.0365 9
    endloop
  endfacet
  facet normal 0 0 -1
    outer loop
      vertex 21.1404 12.2638 9
      vertex 21.1404 13.7362 9
      vertex 21.2474 13.9635 9
    endloop
  endfacet
  facet normal 0 0 -1
    outer loop
      vertex 21.0628 12.5026 9
      vertex 21.1404 13.7362 9
      vertex 21.1404 12.2638 9
    endloop
  endfacet
  facet normal 0 0 -1
    outer loop
      vertex 21.0628 12.5026 9
      vertex 21.0628 13.4974 9
      vertex 21.1404 13.7362 9
    endloop
  endfacet
  facet normal 0 0 -1
    outer loop
      vertex 21.0158 12.7493 9
      vertex 21.0628 13.4974 9
      vertex 21.0628 12.5026 9
    endloop
  endfacet
  facet normal 0 0 -1
    outer loop
      vertex 21.0158 12.7493 9
      vertex 21.0158 13.2507 9
      vertex 21.0628 13.4974 9
    endloop
  endfacet
  facet normal 0 -0 -1
    outer loop
      vertex 21.0158 13.2507 9
      vertex 21.0158 12.7493 9
      vertex 21 13 9
    endloop
  endfacet
  facet normal -0.482281 0.876016 0
    outer loop
      vertex 24 13.272 10
      vertex 23.8516 13.1903 11
      vertex 24 13.272 11
    endloop
  endfacet
  facet normal -0.482281 0.876016 0
    outer loop
      vertex 23.8516 13.1903 11
      vertex 24 13.272 10
      vertex 23.8516 13.1903 10
    endloop
  endfacet
  facet normal 0.125407 0.992105 -0
    outer loop
      vertex 22.8744 13.0039 10
      vertex 22.6252 13.0354 11
      vertex 22.8744 13.0039 11
    endloop
  endfacet
  facet normal 0.125407 0.992105 0
    outer loop
      vertex 22.6252 13.0354 11
      vertex 22.8744 13.0039 10
      vertex 22.6252 13.0354 10
    endloop
  endfacet
  facet normal -0.248902 -0.968529 0
    outer loop
      vertex 23.3748 16.9646 10
      vertex 23.618 16.9021 11
      vertex 23.3748 16.9646 11
    endloop
  endfacet
  facet normal -0.248902 -0.968529 -0
    outer loop
      vertex 23.618 16.9021 11
      vertex 23.3748 16.9646 10
      vertex 23.618 16.9021 10
    endloop
  endfacet
  facet normal 0.588148 -0.808753 0
    outer loop
      vertex 21.7252 16.541 10
      vertex 21.9283 16.6887 11
      vertex 21.7252 16.541 11
    endloop
  endfacet
  facet normal 0.588148 -0.808753 0
    outer loop
      vertex 21.9283 16.6887 11
      vertex 21.7252 16.541 10
      vertex 21.9283 16.6887 10
    endloop
  endfacet
  facet normal 0.367819 -0.929897 0
    outer loop
      vertex 22.1484 16.8097 10
      vertex 22.382 16.9021 11
      vertex 22.1484 16.8097 11
    endloop
  endfacet
  facet normal 0.367819 -0.929897 0
    outer loop
      vertex 22.382 16.9021 11
      vertex 22.1484 16.8097 10
      vertex 22.382 16.9021 10
    endloop
  endfacet
  facet normal 0.684458 -0.729053 0
    outer loop
      vertex 21.5421 16.3691 10
      vertex 21.7252 16.541 11
      vertex 21.5421 16.3691 11
    endloop
  endfacet
  facet normal 0.684458 -0.729053 0
    outer loop
      vertex 21.7252 16.541 11
      vertex 21.5421 16.3691 10
      vertex 21.7252 16.541 10
    endloop
  endfacet
  facet normal -0.367819 0.929897 0
    outer loop
      vertex 23.8516 13.1903 10
      vertex 23.618 13.0979 11
      vertex 23.8516 13.1903 11
    endloop
  endfacet
  facet normal -0.367819 0.929897 0
    outer loop
      vertex 23.618 13.0979 11
      vertex 23.8516 13.1903 10
      vertex 23.618 13.0979 10
    endloop
  endfacet
  facet normal 0.770468 -0.637478 0
    outer loop
      vertex 21.382 16.1756 11
      vertex 21.5421 16.3691 10
      vertex 21.5421 16.3691 11
    endloop
  endfacet
  facet normal 0.770468 -0.637478 0
    outer loop
      vertex 21.5421 16.3691 10
      vertex 21.382 16.1756 11
      vertex 21.382 16.1756 10
    endloop
  endfacet
  facet normal -0.125407 0.992105 0
    outer loop
      vertex 23.3748 13.0354 10
      vertex 23.1256 13.0039 11
      vertex 23.3748 13.0354 11
    endloop
  endfacet
  facet normal -0.125407 0.992105 0
    outer loop
      vertex 23.1256 13.0039 11
      vertex 23.3748 13.0354 10
      vertex 23.1256 13.0039 10
    endloop
  endfacet
  facet normal -0.125407 -0.992105 0
    outer loop
      vertex 23.1256 16.9961 10
      vertex 23.3748 16.9646 11
      vertex 23.1256 16.9961 11
    endloop
  endfacet
  facet normal -0.125407 -0.992105 -0
    outer loop
      vertex 23.3748 16.9646 11
      vertex 23.1256 16.9961 10
      vertex 23.3748 16.9646 10
    endloop
  endfacet
  facet normal 0 1 -0
    outer loop
      vertex 23.1256 13.0039 10
      vertex 22.8744 13.0039 11
      vertex 23.1256 13.0039 11
    endloop
  endfacet
  facet normal 0 1 0
    outer loop
      vertex 22.8744 13.0039 11
      vertex 23.1256 13.0039 10
      vertex 22.8744 13.0039 10
    endloop
  endfacet
  facet normal 0.904765 0.425912 0
    outer loop
      vertex 21.2474 14.0365 11
      vertex 21.1404 14.2638 10
      vertex 21.1404 14.2638 11
    endloop
  endfacet
  facet normal 0.904765 0.425912 0
    outer loop
      vertex 21.1404 14.2638 10
      vertex 21.2474 14.0365 11
      vertex 21.2474 14.0365 10
    endloop
  endfacet
  facet normal 0.588148 0.808753 -0
    outer loop
      vertex 21.9283 13.3113 10
      vertex 21.7252 13.459 11
      vertex 21.9283 13.3113 11
    endloop
  endfacet
  facet normal 0.588148 0.808753 0
    outer loop
      vertex 21.7252 13.459 11
      vertex 21.9283 13.3113 10
      vertex 21.7252 13.459 10
    endloop
  endfacet
  facet normal -0.482281 -0.876016 0
    outer loop
      vertex 23.8516 16.8097 10
      vertex 24 16.728 11
      vertex 23.8516 16.8097 11
    endloop
  endfacet
  facet normal -0.482281 -0.876016 -0
    outer loop
      vertex 24 16.728 11
      vertex 23.8516 16.8097 10
      vertex 24 16.728 10
    endloop
  endfacet
  facet normal 0.248902 -0.968529 0
    outer loop
      vertex 22.382 16.9021 10
      vertex 22.6252 16.9646 11
      vertex 22.382 16.9021 11
    endloop
  endfacet
  facet normal 0.248902 -0.968529 0
    outer loop
      vertex 22.6252 16.9646 11
      vertex 22.382 16.9021 10
      vertex 22.6252 16.9646 10
    endloop
  endfacet
  facet normal 0 -1 0
    outer loop
      vertex 22.8744 16.9961 10
      vertex 23.1256 16.9961 11
      vertex 22.8744 16.9961 11
    endloop
  endfacet
  facet normal 0 -1 -0
    outer loop
      vertex 23.1256 16.9961 11
      vertex 22.8744 16.9961 10
      vertex 23.1256 16.9961 10
    endloop
  endfacet
  facet normal -0.367819 -0.929897 0
    outer loop
      vertex 23.618 16.9021 10
      vertex 23.8516 16.8097 11
      vertex 23.618 16.9021 11
    endloop
  endfacet
  facet normal -0.367819 -0.929897 -0
    outer loop
      vertex 23.8516 16.8097 11
      vertex 23.618 16.9021 10
      vertex 23.8516 16.8097 10
    endloop
  endfacet
  facet normal 0.248902 0.968529 -0
    outer loop
      vertex 22.6252 13.0354 10
      vertex 22.382 13.0979 11
      vertex 22.6252 13.0354 11
    endloop
  endfacet
  facet normal 0.248902 0.968529 0
    outer loop
      vertex 22.382 13.0979 11
      vertex 22.6252 13.0354 10
      vertex 22.382 13.0979 10
    endloop
  endfacet
  facet normal -0.248902 0.968529 0
    outer loop
      vertex 23.618 13.0979 10
      vertex 23.3748 13.0354 11
      vertex 23.618 13.0979 11
    endloop
  endfacet
  facet normal -0.248902 0.968529 0
    outer loop
      vertex 23.3748 13.0354 11
      vertex 23.618 13.0979 10
      vertex 23.3748 13.0354 10
    endloop
  endfacet
  facet normal 0.844333 -0.535819 0
    outer loop
      vertex 21.2474 15.9635 11
      vertex 21.382 16.1756 10
      vertex 21.382 16.1756 11
    endloop
  endfacet
  facet normal 0.844333 -0.535819 0
    outer loop
      vertex 21.382 16.1756 10
      vertex 21.2474 15.9635 11
      vertex 21.2474 15.9635 10
    endloop
  endfacet
  facet normal 0.684458 0.729053 -0
    outer loop
      vertex 21.7252 13.459 10
      vertex 21.5421 13.6309 11
      vertex 21.7252 13.459 11
    endloop
  endfacet
  facet normal 0.684458 0.729053 0
    outer loop
      vertex 21.5421 13.6309 11
      vertex 21.7252 13.459 10
      vertex 21.5421 13.6309 10
    endloop
  endfacet
  facet normal 0.982332 -0.187149 0
    outer loop
      vertex 21.0158 15.2507 11
      vertex 21.0628 15.4974 10
      vertex 21.0628 15.4974 11
    endloop
  endfacet
  facet normal 0.982332 -0.187149 0
    outer loop
      vertex 21.0628 15.4974 10
      vertex 21.0158 15.2507 11
      vertex 21.0158 15.2507 10
    endloop
  endfacet
  facet normal 0.99802 0.0628987 0
    outer loop
      vertex 21.0158 14.7493 11
      vertex 21 15 10
      vertex 21 15 11
    endloop
  endfacet
  facet normal 0.99802 0.0628987 0
    outer loop
      vertex 21 15 10
      vertex 21.0158 14.7493 11
      vertex 21.0158 14.7493 10
    endloop
  endfacet
  facet normal 0.982332 0.187149 0
    outer loop
      vertex 21.0628 14.5026 11
      vertex 21.0158 14.7493 10
      vertex 21.0158 14.7493 11
    endloop
  endfacet
  facet normal 0.982332 0.187149 0
    outer loop
      vertex 21.0158 14.7493 10
      vertex 21.0628 14.5026 11
      vertex 21.0628 14.5026 10
    endloop
  endfacet
  facet normal 0.770468 0.637478 0
    outer loop
      vertex 21.5421 13.6309 11
      vertex 21.382 13.8244 10
      vertex 21.382 13.8244 11
    endloop
  endfacet
  facet normal 0.770468 0.637478 0
    outer loop
      vertex 21.382 13.8244 10
      vertex 21.5421 13.6309 11
      vertex 21.5421 13.6309 10
    endloop
  endfacet
  facet normal 0.367819 0.929897 -0
    outer loop
      vertex 22.382 13.0979 10
      vertex 22.1484 13.1903 11
      vertex 22.382 13.0979 11
    endloop
  endfacet
  facet normal 0.367819 0.929897 0
    outer loop
      vertex 22.1484 13.1903 11
      vertex 22.382 13.0979 10
      vertex 22.1484 13.1903 10
    endloop
  endfacet
  facet normal 0.904765 -0.425912 0
    outer loop
      vertex 21.1404 15.7362 11
      vertex 21.2474 15.9635 10
      vertex 21.2474 15.9635 11
    endloop
  endfacet
  facet normal 0.904765 -0.425912 0
    outer loop
      vertex 21.2474 15.9635 10
      vertex 21.1404 15.7362 11
      vertex 21.1404 15.7362 10
    endloop
  endfacet
  facet normal 0.481751 -0.876308 0
    outer loop
      vertex 21.9283 16.6887 10
      vertex 22.1484 16.8097 11
      vertex 21.9283 16.6887 11
    endloop
  endfacet
  facet normal 0.481751 -0.876308 0
    outer loop
      vertex 22.1484 16.8097 11
      vertex 21.9283 16.6887 10
      vertex 22.1484 16.8097 10
    endloop
  endfacet
  facet normal 0.481751 0.876308 -0
    outer loop
      vertex 22.1484 13.1903 10
      vertex 21.9283 13.3113 11
      vertex 22.1484 13.1903 11
    endloop
  endfacet
  facet normal 0.481751 0.876308 0
    outer loop
      vertex 21.9283 13.3113 11
      vertex 22.1484 13.1903 10
      vertex 21.9283 13.3113 10
    endloop
  endfacet
  facet normal 0.951046 -0.30905 0
    outer loop
      vertex 21.0628 15.4974 11
      vertex 21.1404 15.7362 10
      vertex 21.1404 15.7362 11
    endloop
  endfacet
  facet normal 0.951046 -0.30905 0
    outer loop
      vertex 21.1404 15.7362 10
      vertex 21.0628 15.4974 11
      vertex 21.0628 15.4974 10
    endloop
  endfacet
  facet normal 0.951046 0.30905 0
    outer loop
      vertex 21.1404 14.2638 11
      vertex 21.0628 14.5026 10
      vertex 21.0628 14.5026 11
    endloop
  endfacet
  facet normal 0.951046 0.30905 0
    outer loop
      vertex 21.0628 14.5026 10
      vertex 21.1404 14.2638 11
      vertex 21.1404 14.2638 10
    endloop
  endfacet
  facet normal 0.844333 0.535819 0
    outer loop
      vertex 21.382 13.8244 11
      vertex 21.2474 14.0365 10
      vertex 21.2474 14.0365 11
    endloop
  endfacet
  facet normal 0.844333 0.535819 0
    outer loop
      vertex 21.2474 14.0365 10
      vertex 21.382 13.8244 11
      vertex 21.382 13.8244 10
    endloop
  endfacet
  facet normal 0.125407 -0.992105 0
    outer loop
      vertex 22.6252 16.9646 10
      vertex 22.8744 16.9961 11
      vertex 22.6252 16.9646 11
    endloop
  endfacet
  facet normal 0.125407 -0.992105 0
    outer loop
      vertex 22.8744 16.9961 11
      vertex 22.6252 16.9646 10
      vertex 22.8744 16.9961 10
    endloop
  endfacet
  facet normal 0.99802 -0.0628987 0
    outer loop
      vertex 21 15 11
      vertex 21.0158 15.2507 10
      vertex 21.0158 15.2507 11
    endloop
  endfacet
  facet normal 0.99802 -0.0628987 0
    outer loop
      vertex 21.0158 15.2507 10
      vertex 21 15 11
      vertex 21 15 10
    endloop
  endfacet
  facet normal -0.482281 0.876016 0
    outer loop
      vertex 24 11.272 8
      vertex 23.8516 11.1903 9
      vertex 24 11.272 9
    endloop
  endfacet
  facet normal -0.482281 0.876016 0
    outer loop
      vertex 23.8516 11.1903 9
      vertex 24 11.272 8
      vertex 23.8516 11.1903 8
    endloop
  endfacet
  facet normal 0.125407 0.992105 -0
    outer loop
      vertex 22.8744 11.0039 8
      vertex 22.6252 11.0354 9
      vertex 22.8744 11.0039 9
    endloop
  endfacet
  facet normal 0.125407 0.992105 0
    outer loop
      vertex 22.6252 11.0354 9
      vertex 22.8744 11.0039 8
      vertex 22.6252 11.0354 8
    endloop
  endfacet
  facet normal -0.248902 -0.968529 0
    outer loop
      vertex 23.3748 14.9646 8
      vertex 23.618 14.9021 9
      vertex 23.3748 14.9646 9
    endloop
  endfacet
  facet normal -0.248902 -0.968529 -0
    outer loop
      vertex 23.618 14.9021 9
      vertex 23.3748 14.9646 8
      vertex 23.618 14.9021 8
    endloop
  endfacet
  facet normal 0.588148 -0.808753 0
    outer loop
      vertex 21.7252 14.541 8
      vertex 21.9283 14.6887 9
      vertex 21.7252 14.541 9
    endloop
  endfacet
  facet normal 0.588148 -0.808753 0
    outer loop
      vertex 21.9283 14.6887 9
      vertex 21.7252 14.541 8
      vertex 21.9283 14.6887 8
    endloop
  endfacet
  facet normal 0.367819 -0.929897 0
    outer loop
      vertex 22.1484 14.8097 8
      vertex 22.382 14.9021 9
      vertex 22.1484 14.8097 9
    endloop
  endfacet
  facet normal 0.367819 -0.929897 0
    outer loop
      vertex 22.382 14.9021 9
      vertex 22.1484 14.8097 8
      vertex 22.382 14.9021 8
    endloop
  endfacet
  facet normal 0.684458 -0.729053 0
    outer loop
      vertex 21.5421 14.3691 8
      vertex 21.7252 14.541 9
      vertex 21.5421 14.3691 9
    endloop
  endfacet
  facet normal 0.684458 -0.729053 0
    outer loop
      vertex 21.7252 14.541 9
      vertex 21.5421 14.3691 8
      vertex 21.7252 14.541 8
    endloop
  endfacet
  facet normal -0.367819 0.929897 0
    outer loop
      vertex 23.8516 11.1903 8
      vertex 23.618 11.0979 9
      vertex 23.8516 11.1903 9
    endloop
  endfacet
  facet normal -0.367819 0.929897 0
    outer loop
      vertex 23.618 11.0979 9
      vertex 23.8516 11.1903 8
      vertex 23.618 11.0979 8
    endloop
  endfacet
  facet normal 0.770468 -0.637478 0
    outer loop
      vertex 21.382 14.1756 9
      vertex 21.5421 14.3691 8
      vertex 21.5421 14.3691 9
    endloop
  endfacet
  facet normal 0.770468 -0.637478 0
    outer loop
      vertex 21.5421 14.3691 8
      vertex 21.382 14.1756 9
      vertex 21.382 14.1756 8
    endloop
  endfacet
  facet normal -0.125407 0.992105 0
    outer loop
      vertex 23.3748 11.0354 8
      vertex 23.1256 11.0039 9
      vertex 23.3748 11.0354 9
    endloop
  endfacet
  facet normal -0.125407 0.992105 0
    outer loop
      vertex 23.1256 11.0039 9
      vertex 23.3748 11.0354 8
      vertex 23.1256 11.0039 8
    endloop
  endfacet
  facet normal -0.125407 -0.992105 0
    outer loop
      vertex 23.1256 14.9961 8
      vertex 23.3748 14.9646 9
      vertex 23.1256 14.9961 9
    endloop
  endfacet
  facet normal -0.125407 -0.992105 -0
    outer loop
      vertex 23.3748 14.9646 9
      vertex 23.1256 14.9961 8
      vertex 23.3748 14.9646 8
    endloop
  endfacet
  facet normal 0 1 -0
    outer loop
      vertex 23.1256 11.0039 8
      vertex 22.8744 11.0039 9
      vertex 23.1256 11.0039 9
    endloop
  endfacet
  facet normal 0 1 0
    outer loop
      vertex 22.8744 11.0039 9
      vertex 23.1256 11.0039 8
      vertex 22.8744 11.0039 8
    endloop
  endfacet
  facet normal 0.904765 0.425912 0
    outer loop
      vertex 21.2474 12.0365 9
      vertex 21.1404 12.2638 8
      vertex 21.1404 12.2638 9
    endloop
  endfacet
  facet normal 0.904765 0.425912 0
    outer loop
      vertex 21.1404 12.2638 8
      vertex 21.2474 12.0365 9
      vertex 21.2474 12.0365 8
    endloop
  endfacet
  facet normal 0.588148 0.808753 -0
    outer loop
      vertex 21.9283 11.3113 8
      vertex 21.7252 11.459 9
      vertex 21.9283 11.3113 9
    endloop
  endfacet
  facet normal 0.588148 0.808753 0
    outer loop
      vertex 21.7252 11.459 9
      vertex 21.9283 11.3113 8
      vertex 21.7252 11.459 8
    endloop
  endfacet
  facet normal -0.482281 -0.876016 0
    outer loop
      vertex 23.8516 14.8097 8
      vertex 24 14.728 9
      vertex 23.8516 14.8097 9
    endloop
  endfacet
  facet normal -0.482281 -0.876016 -0
    outer loop
      vertex 24 14.728 9
      vertex 23.8516 14.8097 8
      vertex 24 14.728 8
    endloop
  endfacet
  facet normal 0.248902 -0.968529 0
    outer loop
      vertex 22.382 14.9021 8
      vertex 22.6252 14.9646 9
      vertex 22.382 14.9021 9
    endloop
  endfacet
  facet normal 0.248902 -0.968529 0
    outer loop
      vertex 22.6252 14.9646 9
      vertex 22.382 14.9021 8
      vertex 22.6252 14.9646 8
    endloop
  endfacet
  facet normal 0 -1 0
    outer loop
      vertex 22.8744 14.9961 8
      vertex 23.1256 14.9961 9
      vertex 22.8744 14.9961 9
    endloop
  endfacet
  facet normal 0 -1 -0
    outer loop
      vertex 23.1256 14.9961 9
      vertex 22.8744 14.9961 8
      vertex 23.1256 14.9961 8
    endloop
  endfacet
  facet normal -0.367819 -0.929897 0
    outer loop
      vertex 23.618 14.9021 8
      vertex 23.8516 14.8097 9
      vertex 23.618 14.9021 9
    endloop
  endfacet
  facet normal -0.367819 -0.929897 -0
    outer loop
      vertex 23.8516 14.8097 9
      vertex 23.618 14.9021 8
      vertex 23.8516 14.8097 8
    endloop
  endfacet
  facet normal 0.248902 0.968529 -0
    outer loop
      vertex 22.6252 11.0354 8
      vertex 22.382 11.0979 9
      vertex 22.6252 11.0354 9
    endloop
  endfacet
  facet normal 0.248902 0.968529 0
    outer loop
      vertex 22.382 11.0979 9
      vertex 22.6252 11.0354 8
      vertex 22.382 11.0979 8
    endloop
  endfacet
  facet normal -0.248902 0.968529 0
    outer loop
      vertex 23.618 11.0979 8
      vertex 23.3748 11.0354 9
      vertex 23.618 11.0979 9
    endloop
  endfacet
  facet normal -0.248902 0.968529 0
    outer loop
      vertex 23.3748 11.0354 9
      vertex 23.618 11.0979 8
      vertex 23.3748 11.0354 8
    endloop
  endfacet
  facet normal 0.844333 -0.535819 0
    outer loop
      vertex 21.2474 13.9635 9
      vertex 21.382 14.1756 8
      vertex 21.382 14.1756 9
    endloop
  endfacet
  facet normal 0.844333 -0.535819 0
    outer loop
      vertex 21.382 14.1756 8
      vertex 21.2474 13.9635 9
      vertex 21.2474 13.9635 8
    endloop
  endfacet
  facet normal 0.684458 0.729053 -0
    outer loop
      vertex 21.7252 11.459 8
      vertex 21.5421 11.6309 9
      vertex 21.7252 11.459 9
    endloop
  endfacet
  facet normal 0.684458 0.729053 0
    outer loop
      vertex 21.5421 11.6309 9
      vertex 21.7252 11.459 8
      vertex 21.5421 11.6309 8
    endloop
  endfacet
  facet normal 0.982332 -0.187149 0
    outer loop
      vertex 21.0158 13.2507 9
      vertex 21.0628 13.4974 8
      vertex 21.0628 13.4974 9
    endloop
  endfacet
  facet normal 0.982332 -0.187149 0
    outer loop
      vertex 21.0628 13.4974 8
      vertex 21.0158 13.2507 9
      vertex 21.0158 13.2507 8
    endloop
  endfacet
  facet normal 0.99802 0.0628987 0
    outer loop
      vertex 21.0158 12.7493 9
      vertex 21 13 8
      vertex 21 13 9
    endloop
  endfacet
  facet normal 0.99802 0.0628987 0
    outer loop
      vertex 21 13 8
      vertex 21.0158 12.7493 9
      vertex 21.0158 12.7493 8
    endloop
  endfacet
  facet normal 0.982332 0.187149 0
    outer loop
      vertex 21.0628 12.5026 9
      vertex 21.0158 12.7493 8
      vertex 21.0158 12.7493 9
    endloop
  endfacet
  facet normal 0.982332 0.187149 0
    outer loop
      vertex 21.0158 12.7493 8
      vertex 21.0628 12.5026 9
      vertex 21.0628 12.5026 8
    endloop
  endfacet
  facet normal 0.770468 0.637478 0
    outer loop
      vertex 21.5421 11.6309 9
      vertex 21.382 11.8244 8
      vertex 21.382 11.8244 9
    endloop
  endfacet
  facet normal 0.770468 0.637478 0
    outer loop
      vertex 21.382 11.8244 8
      vertex 21.5421 11.6309 9
      vertex 21.5421 11.6309 8
    endloop
  endfacet
  facet normal 0.367819 0.929897 -0
    outer loop
      vertex 22.382 11.0979 8
      vertex 22.1484 11.1903 9
      vertex 22.382 11.0979 9
    endloop
  endfacet
  facet normal 0.367819 0.929897 0
    outer loop
      vertex 22.1484 11.1903 9
      vertex 22.382 11.0979 8
      vertex 22.1484 11.1903 8
    endloop
  endfacet
  facet normal 0.904765 -0.425912 0
    outer loop
      vertex 21.1404 13.7362 9
      vertex 21.2474 13.9635 8
      vertex 21.2474 13.9635 9
    endloop
  endfacet
  facet normal 0.904765 -0.425912 0
    outer loop
      vertex 21.2474 13.9635 8
      vertex 21.1404 13.7362 9
      vertex 21.1404 13.7362 8
    endloop
  endfacet
  facet normal 0.481751 -0.876308 0
    outer loop
      vertex 21.9283 14.6887 8
      vertex 22.1484 14.8097 9
      vertex 21.9283 14.6887 9
    endloop
  endfacet
  facet normal 0.481751 -0.876308 0
    outer loop
      vertex 22.1484 14.8097 9
      vertex 21.9283 14.6887 8
      vertex 22.1484 14.8097 8
    endloop
  endfacet
  facet normal 0.481751 0.876308 -0
    outer loop
      vertex 22.1484 11.1903 8
      vertex 21.9283 11.3113 9
      vertex 22.1484 11.1903 9
    endloop
  endfacet
  facet normal 0.481751 0.876308 0
    outer loop
      vertex 21.9283 11.3113 9
      vertex 22.1484 11.1903 8
      vertex 21.9283 11.3113 8
    endloop
  endfacet
  facet normal 0.951046 -0.30905 0
    outer loop
      vertex 21.0628 13.4974 9
      vertex 21.1404 13.7362 8
      vertex 21.1404 13.7362 9
    endloop
  endfacet
  facet normal 0.951046 -0.30905 0
    outer loop
      vertex 21.1404 13.7362 8
      vertex 21.0628 13.4974 9
      vertex 21.0628 13.4974 8
    endloop
  endfacet
  facet normal 0.951046 0.30905 0
    outer loop
      vertex 21.1404 12.2638 9
      vertex 21.0628 12.5026 8
      vertex 21.0628 12.5026 9
    endloop
  endfacet
  facet normal 0.951046 0.30905 0
    outer loop
      vertex 21.0628 12.5026 8
      vertex 21.1404 12.2638 9
      vertex 21.1404 12.2638 8
    endloop
  endfacet
  facet normal 0.844333 0.535819 0
    outer loop
      vertex 21.382 11.8244 9
      vertex 21.2474 12.0365 8
      vertex 21.2474 12.0365 9
    endloop
  endfacet
  facet normal 0.844333 0.535819 0
    outer loop
      vertex 21.2474 12.0365 8
      vertex 21.382 11.8244 9
      vertex 21.382 11.8244 8
    endloop
  endfacet
  facet normal 0.125407 -0.992105 0
    outer loop
      vertex 22.6252 14.9646 8
      vertex 22.8744 14.9961 9
      vertex 22.6252 14.9646 9
    endloop
  endfacet
  facet normal 0.125407 -0.992105 0
    outer loop
      vertex 22.8744 14.9961 9
      vertex 22.6252 14.9646 8
      vertex 22.8744 14.9961 8
    endloop
  endfacet
  facet normal 0.99802 -0.0628987 0
    outer loop
      vertex 21 13 9
      vertex 21.0158 13.2507 8
      vertex 21.0158 13.2507 9
    endloop
  endfacet
  facet normal 0.99802 -0.0628987 0
    outer loop
      vertex 21.0158 13.2507 8
      vertex 21 13 9
      vertex 21 13 8
    endloop
  endfacet
  facet normal 1 -0 0
    outer loop
      vertex 50 0 20
      vertex 50 30 0
      vertex 50 30 20
    endloop
  endfacet
  facet normal 1 0 0
    outer loop
      vertex 50 30 0
      vertex 50 0 20
      vertex 50 0 0
    endloop
  endfacet
  facet normal -0 0 1
    outer loop
      vertex 0 30 20
      vertex 50 0 20
      vertex 50 30 20
    endloop
  endfacet
  facet normal 0 0 1
    outer loop
      vertex 50 0 20
      vertex 0 30 20
      vertex 0 0 20
    endloop
  endfacet
  facet normal 0 0 -1
    outer loop
      vertex 0 0 0
      vertex 50 30 0
      vertex 50 0 0
    endloop
  endfacet
  facet normal -0 0 -1
    outer loop
      vertex 50 30 0
      vertex 0 0 0
      vertex 0 30 0
    endloop
  endfacet
  facet normal -1 0 0
    outer loop
      vertex 0 0 0
      vertex 0 30 20
      vertex 0 30 0
    endloop
  endfacet
  facet normal -1 -0 0
    outer loop
      vertex 0 30 20
      vertex 0 0 0
      vertex 0 0 20
    endloop
  endfacet
  facet normal 0 1 -0
    outer loop
      vertex 50 30 0
      vertex 0 30 20
      vertex 50 30 20
    endloop
  endfacet
  facet normal 0 1 0
    outer loop
      vertex 0 30 20
      vertex 50 30 0
      vertex 0 30 0
    endloop
  endfacet
  facet normal 0 -1 0
    outer loop
      vertex 0 0 0
      vertex 50 0 20
      vertex 0 0 20
    endloop
  endfacet
  facet normal 0 -1 -0
    outer loop
      vertex 50 0 20
      vertex 0 0 0
      vertex 50 0 0
    endloop
  endfacet
endsolid OpenSCAD_Model
