solid OpenSCAD_Model
  facet normal 1 -0 0
    outer loop
      vertex 50 0 5
      vertex 50 20 0
      vertex 50 20 5
    endloop
  endfacet
  facet normal 1 0 0
    outer loop
      vertex 50 20 0
      vertex 50 0 5
      vertex 50 0 0
    endloop
  endfacet
  facet normal 0 0 1
    outer loop
      vertex 50 20 5
      vertex 37 10 5
      vertex 50 0 5
    endloop
  endfacet
  facet normal 0 0 1
    outer loop
      vertex 50 20 5
      vertex 36.9842 10.2507 5
      vertex 37 10 5
    endloop
  endfacet
  facet normal 0 0 1
    outer loop
      vertex 50 20 5
      vertex 36.9372 10.4974 5
      vertex 36.9842 10.2507 5
    endloop
  endfacet
  facet normal 0 0 1
    outer loop
      vertex 50 20 5
      vertex 36.8596 10.7362 5
      vertex 36.9372 10.4974 5
    endloop
  endfacet
  facet normal 0 0 1
    outer loop
      vertex 50 20 5
      vertex 36.7526 10.9635 5
      vertex 36.8596 10.7362 5
    endloop
  endfacet
  facet normal 0 0 1
    outer loop
      vertex 50 20 5
      vertex 36.618 11.1756 5
      vertex 36.7526 10.9635 5
    endloop
  endfacet
  facet normal 0 0 1
    outer loop
      vertex 50 20 5
      vertex 36.4579 11.3691 5
      vertex 36.618 11.1756 5
    endloop
  endfacet
  facet normal 0 0 1
    outer loop
      vertex 50 20 5
      vertex 36.2748 11.541 5
      vertex 36.4579 11.3691 5
    endloop
  endfacet
  facet normal 0 0 1
    outer loop
      vertex 50 20 5
      vertex 36.0717 11.6887 5
      vertex 36.2748 11.541 5
    endloop
  endfacet
  facet normal 0 0 1
    outer loop
      vertex 50 20 5
      vertex 35.8516 11.8097 5
      vertex 36.0717 11.6887 5
    endloop
  endfacet
  facet normal 0 0 1
    outer loop
      vertex 50 20 5
      vertex 35.618 11.9021 5
      vertex 35.8516 11.8097 5
    endloop
  endfacet
  facet normal 0 0 1
    outer loop
      vertex 50 20 5
      vertex 35.3748 11.9646 5
      vertex 35.618 11.9021 5
    endloop
  endfacet
  facet normal 0 0 1
    outer loop
      vertex 50 20 5
      vertex 35.1256 11.9961 5
      vertex 35.3748 11.9646 5
    endloop
  endfacet
  facet normal 0 0 1
    outer loop
      vertex 50 20 5
      vertex 34.8744 11.9961 5
      vertex 35.1256 11.9961 5
    endloop
  endfacet
  facet normal 0 0 1
    outer loop
      vertex 50 20 5
      vertex 34.6252 11.9646 5
      vertex 34.8744 11.9961 5
    endloop
  endfacet
  facet normal 0 0 1
    outer loop
      vertex 50 20 5
      vertex 34.382 11.9021 5
      vertex 34.6252 11.9646 5
    endloop
  endfacet
  facet normal 0 0 1
    outer loop
      vertex 15.618 11.9021 5
      vertex 34.382 11.9021 5
      vertex 50 20 5
    endloop
  endfacet
  facet normal 0 0 1
    outer loop
      vertex 33.0158 10.2507 5
      vertex 17 10 5
      vertex 33 10 5
    endloop
  endfacet
  facet normal 0 0 1
    outer loop
      vertex 16.9842 10.2507 5
      vertex 33.0158 10.2507 5
      vertex 33.0628 10.4974 5
    endloop
  endfacet
  facet normal 0 0 1
    outer loop
      vertex 16.9372 10.4974 5
      vertex 33.0628 10.4974 5
      vertex 33.1404 10.7362 5
    endloop
  endfacet
  facet normal 0 0 1
    outer loop
      vertex 16.8596 10.7362 5
      vertex 33.1404 10.7362 5
      vertex 33.2474 10.9635 5
    endloop
  endfacet
  facet normal 0 0 1
    outer loop
      vertex 16.7526 10.9635 5
      vertex 33.2474 10.9635 5
      vertex 33.382 11.1756 5
    endloop
  endfacet
  facet normal 0 0 1
    outer loop
      vertex 16.618 11.1756 5
      vertex 33.382 11.1756 5
      vertex 33.5421 11.3691 5
    endloop
  endfacet
  facet normal 0 0 1
    outer loop
      vertex 16.4579 11.3691 5
      vertex 33.5421 11.3691 5
      vertex 33.7252 11.541 5
    endloop
  endfacet
  facet normal 0 0 1
    outer loop
      vertex 16.2748 11.541 5
      vertex 33.7252 11.541 5
      vertex 33.9283 11.6887 5
    endloop
  endfacet
  facet normal 0 0 1
    outer loop
      vertex 16.0717 11.6887 5
      vertex 33.9283 11.6887 5
      vertex 34.1484 11.8097 5
    endloop
  endfacet
  facet normal 0 0 1
    outer loop
      vertex 34.382 11.9021 5
      vertex 15.618 11.9021 5
      vertex 34.1484 11.8097 5
    endloop
  endfacet
  facet normal 0 0 1
    outer loop
      vertex 33.0158 10.2507 5
      vertex 16.9842 10.2507 5
      vertex 17 10 5
    endloop
  endfacet
  facet normal 0 0 1
    outer loop
      vertex 33.0628 10.4974 5
      vertex 16.9372 10.4974 5
      vertex 16.9842 10.2507 5
    endloop
  endfacet
  facet normal 0 0 1
    outer loop
      vertex 33.1404 10.7362 5
      vertex 16.8596 10.7362 5
      vertex 16.9372 10.4974 5
    endloop
  endfacet
  facet normal 0 0 1
    outer loop
      vertex 33.2474 10.9635 5
      vertex 16.7526 10.9635 5
      vertex 16.8596 10.7362 5
    endloop
  endfacet
  facet normal 0 0 1
    outer loop
      vertex 33.382 11.1756 5
      vertex 16.618 11.1756 5
      vertex 16.7526 10.9635 5
    endloop
  endfacet
  facet normal 0 0 1
    outer loop
      vertex 33.5421 11.3691 5
      vertex 16.4579 11.3691 5
      vertex 16.618 11.1756 5
    endloop
  endfacet
  facet normal 0 0 1
    outer loop
      vertex 33.7252 11.541 5
      vertex 16.2748 11.541 5
      vertex 16.4579 11.3691 5
    endloop
  endfacet
  facet normal 0 0 1
    outer loop
      vertex 33.9283 11.6887 5
      vertex 16.0717 11.6887 5
      vertex 16.2748 11.541 5
    endloop
  endfacet
  facet normal 0 0 1
    outer loop
      vertex 34.1484 11.8097 5
      vertex 15.8516 11.8097 5
      vertex 16.0717 11.6887 5
    endloop
  endfacet
  facet normal 0 0 1
    outer loop
      vertex 34.1484 11.8097 5
      vertex 15.618 11.9021 5
      vertex 15.8516 11.8097 5
    endloop
  endfacet
  facet normal 0 0 1
    outer loop
      vertex 50 20 5
      vertex 15.3748 11.9646 5
      vertex 15.618 11.9021 5
    endloop
  endfacet
  facet normal -0 0 1
    outer loop
      vertex 0 20 5
      vertex 15.3748 11.9646 5
      vertex 50 20 5
    endloop
  endfacet
  facet normal 0 0 1
    outer loop
      vertex 15.3748 11.9646 5
      vertex 0 20 5
      vertex 15.1256 11.9961 5
    endloop
  endfacet
  facet normal 0 0 1
    outer loop
      vertex 15.1256 11.9961 5
      vertex 0 20 5
      vertex 14.8744 11.9961 5
    endloop
  endfacet
  facet normal 0 0 1
    outer loop
      vertex 13.0158 10.2507 5
      vertex 0 20 5
      vertex 13 10 5
    endloop
  endfacet
  facet normal 0 0 1
    outer loop
      vertex 13.0628 10.4974 5
      vertex 0 20 5
      vertex 13.0158 10.2507 5
    endloop
  endfacet
  facet normal 0 0 1
    outer loop
      vertex 13.1404 10.7362 5
      vertex 0 20 5
      vertex 13.0628 10.4974 5
    endloop
  endfacet
  facet normal 0 0 1
    outer loop
      vertex 13.2474 10.9635 5
      vertex 0 20 5
      vertex 13.1404 10.7362 5
    endloop
  endfacet
  facet normal 0 0 1
    outer loop
      vertex 13.382 11.1756 5
      vertex 0 20 5
      vertex 13.2474 10.9635 5
    endloop
  endfacet
  facet normal 0 0 1
    outer loop
      vertex 13.5421 11.3691 5
      vertex 0 20 5
      vertex 13.382 11.1756 5
    endloop
  endfacet
  facet normal 0 0 1
    outer loop
      vertex 13.7252 11.541 5
      vertex 0 20 5
      vertex 13.5421 11.3691 5
    endloop
  endfacet
  facet normal 0 0 1
    outer loop
      vertex 13.9283 11.6887 5
      vertex 0 20 5
      vertex 13.7252 11.541 5
    endloop
  endfacet
  facet normal 0 0 1
    outer loop
      vertex 14.1484 11.8097 5
      vertex 0 20 5
      vertex 13.9283 11.6887 5
    endloop
  endfacet
  facet normal 0 0 1
    outer loop
      vertex 14.382 11.9021 5
      vertex 0 20 5
      vertex 14.1484 11.8097 5
    endloop
  endfacet
  facet normal 0 0 1
    outer loop
      vertex 14.6252 11.9646 5
      vertex 0 20 5
      vertex 14.382 11.9021 5
    endloop
  endfacet
  facet normal 0 0 1
    outer loop
      vertex 14.8744 11.9961 5
      vertex 0 20 5
      vertex 14.6252 11.9646 5
    endloop
  endfacet
  facet normal -0 0 1
    outer loop
      vertex 36.9842 9.74933 5
      vertex 50 0 5
      vertex 37 10 5
    endloop
  endfacet
  facet normal -0 0 1
    outer loop
      vertex 36.9372 9.50262 5
      vertex 50 0 5
      vertex 36.9842 9.74933 5
    endloop
  endfacet
  facet normal -0 0 1
    outer loop
      vertex 36.8596 9.26375 5
      vertex 50 0 5
      vertex 36.9372 9.50262 5
    endloop
  endfacet
  facet normal -0 0 1
    outer loop
      vertex 36.7526 9.03649 5
      vertex 50 0 5
      vertex 36.8596 9.26375 5
    endloop
  endfacet
  facet normal -0 0 1
    outer loop
      vertex 36.618 8.82443 5
      vertex 50 0 5
      vertex 36.7526 9.03649 5
    endloop
  endfacet
  facet normal -0 0 1
    outer loop
      vertex 36.4579 8.63091 5
      vertex 50 0 5
      vertex 36.618 8.82443 5
    endloop
  endfacet
  facet normal -0 0 1
    outer loop
      vertex 36.2748 8.45897 5
      vertex 50 0 5
      vertex 36.4579 8.63091 5
    endloop
  endfacet
  facet normal -0 0 1
    outer loop
      vertex 36.0717 8.31134 5
      vertex 50 0 5
      vertex 36.2748 8.45897 5
    endloop
  endfacet
  facet normal -0 0 1
    outer loop
      vertex 35.8516 8.19035 5
      vertex 50 0 5
      vertex 36.0717 8.31134 5
    endloop
  endfacet
  facet normal -0 0 1
    outer loop
      vertex 35.618 8.09789 5
      vertex 50 0 5
      vertex 35.8516 8.19035 5
    endloop
  endfacet
  facet normal -0 0 1
    outer loop
      vertex 35.3748 8.03543 5
      vertex 50 0 5
      vertex 35.618 8.09789 5
    endloop
  endfacet
  facet normal -0 0 1
    outer loop
      vertex 35.1256 8.00395 5
      vertex 50 0 5
      vertex 35.3748 8.03543 5
    endloop
  endfacet
  facet normal -0 0 1
    outer loop
      vertex 34.8744 8.00395 5
      vertex 50 0 5
      vertex 35.1256 8.00395 5
    endloop
  endfacet
  facet normal 0 0 1
    outer loop
      vertex 34.6252 8.03543 5
      vertex 50 0 5
      vertex 34.8744 8.00395 5
    endloop
  endfacet
  facet normal 0 0 1
    outer loop
      vertex 34.382 8.09789 5
      vertex 50 0 5
      vertex 34.6252 8.03543 5
    endloop
  endfacet
  facet normal 0 0 1
    outer loop
      vertex 15.618 8.09789 5
      vertex 34.382 8.09789 5
      vertex 34.1484 8.19035 5
    endloop
  endfacet
  facet normal -0 0 1
    outer loop
      vertex 17 10 5
      vertex 33.0158 9.74933 5
      vertex 33 10 5
    endloop
  endfacet
  facet normal 0 0 1
    outer loop
      vertex 16.9842 9.74933 5
      vertex 33.0158 9.74933 5
      vertex 17 10 5
    endloop
  endfacet
  facet normal 0 0 1
    outer loop
      vertex 33.0158 9.74933 5
      vertex 16.9842 9.74933 5
      vertex 33.0628 9.50262 5
    endloop
  endfacet
  facet normal 0 0 1
    outer loop
      vertex 16.9372 9.50262 5
      vertex 33.0628 9.50262 5
      vertex 16.9842 9.74933 5
    endloop
  endfacet
  facet normal 0 0 1
    outer loop
      vertex 33.0628 9.50262 5
      vertex 16.9372 9.50262 5
      vertex 33.1404 9.26375 5
    endloop
  endfacet
  facet normal 0 0 1
    outer loop
      vertex 16.8596 9.26375 5
      vertex 33.1404 9.26375 5
      vertex 16.9372 9.50262 5
    endloop
  endfacet
  facet normal 0 0 1
    outer loop
      vertex 33.1404 9.26375 5
      vertex 16.8596 9.26375 5
      vertex 33.2474 9.03649 5
    endloop
  endfacet
  facet normal 0 0 1
    outer loop
      vertex 16.7526 9.03649 5
      vertex 33.2474 9.03649 5
      vertex 16.8596 9.26375 5
    endloop
  endfacet
  facet normal 0 0 1
    outer loop
      vertex 33.2474 9.03649 5
      vertex 16.7526 9.03649 5
      vertex 33.382 8.82443 5
    endloop
  endfacet
  facet normal 0 0 1
    outer loop
      vertex 16.618 8.82443 5
      vertex 33.382 8.82443 5
      vertex 16.7526 9.03649 5
    endloop
  endfacet
  facet normal 0 0 1
    outer loop
      vertex 33.382 8.82443 5
      vertex 16.618 8.82443 5
      vertex 33.5421 8.63091 5
    endloop
  endfacet
  facet normal 0 0 1
    outer loop
      vertex 16.4579 8.63091 5
      vertex 33.5421 8.63091 5
      vertex 16.618 8.82443 5
    endloop
  endfacet
  facet normal 0 0 1
    outer loop
      vertex 33.5421 8.63091 5
      vertex 16.4579 8.63091 5
      vertex 33.7252 8.45897 5
    endloop
  endfacet
  facet normal 0 0 1
    outer loop
      vertex 16.2748 8.45897 5
      vertex 33.7252 8.45897 5
      vertex 16.4579 8.63091 5
    endloop
  endfacet
  facet normal 0 0 1
    outer loop
      vertex 33.7252 8.45897 5
      vertex 16.2748 8.45897 5
      vertex 33.9283 8.31134 5
    endloop
  endfacet
  facet normal 0 0 1
    outer loop
      vertex 16.0717 8.31134 5
      vertex 33.9283 8.31134 5
      vertex 16.2748 8.45897 5
    endloop
  endfacet
  facet normal 0 0 1
    outer loop
      vertex 33.9283 8.31134 5
      vertex 16.0717 8.31134 5
      vertex 34.1484 8.19035 5
    endloop
  endfacet
  facet normal 0 0 1
    outer loop
      vertex 15.8516 8.19035 5
      vertex 34.1484 8.19035 5
      vertex 16.0717 8.31134 5
    endloop
  endfacet
  facet normal 0 0 1
    outer loop
      vertex 15.618 8.09789 5
      vertex 34.1484 8.19035 5
      vertex 15.8516 8.19035 5
    endloop
  endfacet
  facet normal 0 0 1
    outer loop
      vertex 34.382 8.09789 5
      vertex 15.618 8.09789 5
      vertex 50 0 5
    endloop
  endfacet
  facet normal -0 0 1
    outer loop
      vertex 15.3748 8.03543 5
      vertex 50 0 5
      vertex 15.618 8.09789 5
    endloop
  endfacet
  facet normal 0 0 1
    outer loop
      vertex 0 0 5
      vertex 15.3748 8.03543 5
      vertex 15.1256 8.00395 5
    endloop
  endfacet
  facet normal 0 0 1
    outer loop
      vertex 0 0 5
      vertex 15.1256 8.00395 5
      vertex 14.8744 8.00395 5
    endloop
  endfacet
  facet normal 0 0 1
    outer loop
      vertex 0 0 5
      vertex 14.8744 8.00395 5
      vertex 14.6252 8.03543 5
    endloop
  endfacet
  facet normal 0 0 1
    outer loop
      vertex 0 0 5
      vertex 13 10 5
      vertex 0 20 5
    endloop
  endfacet
  facet normal 0 0 1
    outer loop
      vertex 13 10 5
      vertex 0 0 5
      vertex 13.0158 9.74933 5
    endloop
  endfacet
  facet normal 0 0 1
    outer loop
      vertex 13.0158 9.74933 5
      vertex 0 0 5
      vertex 13.0628 9.50262 5
    endloop
  endfacet
  facet normal 0 0 1
    outer loop
      vertex 13.0628 9.50262 5
      vertex 0 0 5
      vertex 13.1404 9.26375 5
    endloop
  endfacet
  facet normal 0 0 1
    outer loop
      vertex 13.1404 9.26375 5
      vertex 0 0 5
      vertex 13.2474 9.03649 5
    endloop
  endfacet
  facet normal 0 0 1
    outer loop
      vertex 13.2474 9.03649 5
      vertex 0 0 5
      vertex 13.382 8.82443 5
    endloop
  endfacet
  facet normal 0 0 1
    outer loop
      vertex 13.382 8.82443 5
      vertex 0 0 5
      vertex 13.5421 8.63091 5
    endloop
  endfacet
  facet normal 0 0 1
    outer loop
      vertex 15.3748 8.03543 5
      vertex 0 0 5
      vertex 50 0 5
    endloop
  endfacet
  facet normal 0 0 1
    outer loop
      vertex 14.382 8.09789 5
      vertex 0 0 5
      vertex 14.6252 8.03543 5
    endloop
  endfacet
  facet normal 0 0 1
    outer loop
      vertex 14.1484 8.19035 5
      vertex 0 0 5
      vertex 14.382 8.09789 5
    endloop
  endfacet
  facet normal 0 0 1
    outer loop
      vertex 13.9283 8.31134 5
      vertex 0 0 5
      vertex 14.1484 8.19035 5
    endloop
  endfacet
  facet normal 0 0 1
    outer loop
      vertex 13.7252 8.45897 5
      vertex 0 0 5
      vertex 13.9283 8.31134 5
    endloop
  endfacet
  facet normal 0 0 1
    outer loop
      vertex 13.5421 8.63091 5
      vertex 0 0 5
      vertex 13.7252 8.45897 5
    endloop
  endfacet
  facet normal 0 0 -1
    outer loop
      vertex 50 0 0
      vertex 37 10 0
      vertex 50 20 0
    endloop
  endfacet
  facet normal 0 0 -1
    outer loop
      vertex 50 0 0
      vertex 36.9842 9.74933 0
      vertex 37 10 0
    endloop
  endfacet
  facet normal 0 0 -1
    outer loop
      vertex 50 0 0
      vertex 36.9372 9.50262 0
      vertex 36.9842 9.74933 0
    endloop
  endfacet
  facet normal 0 0 -1
    outer loop
      vertex 50 0 0
      vertex 36.8596 9.26375 0
      vertex 36.9372 9.50262 0
    endloop
  endfacet
  facet normal 0 0 -1
    outer loop
      vertex 50 0 0
      vertex 36.7526 9.03649 0
      vertex 36.8596 9.26375 0
    endloop
  endfacet
  facet normal 0 0 -1
    outer loop
      vertex 50 0 0
      vertex 36.618 8.82443 0
      vertex 36.7526 9.03649 0
    endloop
  endfacet
  facet normal 0 0 -1
    outer loop
      vertex 50 0 0
      vertex 36.4579 8.63091 0
      vertex 36.618 8.82443 0
    endloop
  endfacet
  facet normal 0 0 -1
    outer loop
      vertex 50 0 0
      vertex 36.2748 8.45897 0
      vertex 36.4579 8.63091 0
    endloop
  endfacet
  facet normal 0 0 -1
    outer loop
      vertex 50 0 0
      vertex 36.0717 8.31134 0
      vertex 36.2748 8.45897 0
    endloop
  endfacet
  facet normal 0 0 -1
    outer loop
      vertex 50 0 0
      vertex 35.8516 8.19035 0
      vertex 36.0717 8.31134 0
    endloop
  endfacet
  facet normal 0 0 -1
    outer loop
      vertex 50 0 0
      vertex 35.618 8.09789 0
      vertex 35.8516 8.19035 0
    endloop
  endfacet
  facet normal 0 0 -1
    outer loop
      vertex 50 0 0
      vertex 35.3748 8.03543 0
      vertex 35.618 8.09789 0
    endloop
  endfacet
  facet normal 0 0 -1
    outer loop
      vertex 50 0 0
      vertex 35.1256 8.00395 0
      vertex 35.3748 8.03543 0
    endloop
  endfacet
  facet normal 0 0 -1
    outer loop
      vertex 50 0 0
      vertex 34.8744 8.00395 0
      vertex 35.1256 8.00395 0
    endloop
  endfacet
  facet normal 0 0 -1
    outer loop
      vertex 50 0 0
      vertex 34.6252 8.03543 0
      vertex 34.8744 8.00395 0
    endloop
  endfacet
  facet normal 0 0 -1
    outer loop
      vertex 50 0 0
      vertex 34.382 8.09789 0
      vertex 34.6252 8.03543 0
    endloop
  endfacet
  facet normal 0 0 -1
    outer loop
      vertex 15.618 8.09789 0
      vertex 34.382 8.09789 0
      vertex 50 0 0
    endloop
  endfacet
  facet normal 0 0 -1
    outer loop
      vertex 33.0158 9.74933 0
      vertex 17 10 0
      vertex 33 10 0
    endloop
  endfacet
  facet normal 0 0 -1
    outer loop
      vertex 16.9842 9.74933 0
      vertex 33.0158 9.74933 0
      vertex 33.0628 9.50262 0
    endloop
  endfacet
  facet normal 0 0 -1
    outer loop
      vertex 16.9372 9.50262 0
      vertex 33.0628 9.50262 0
      vertex 33.1404 9.26375 0
    endloop
  endfacet
  facet normal 0 0 -1
    outer loop
      vertex 16.8596 9.26375 0
      vertex 33.1404 9.26375 0
      vertex 33.2474 9.03649 0
    endloop
  endfacet
  facet normal 0 0 -1
    outer loop
      vertex 16.7526 9.03649 0
      vertex 33.2474 9.03649 0
      vertex 33.382 8.82443 0
    endloop
  endfacet
  facet normal 0 0 -1
    outer loop
      vertex 16.618 8.82443 0
      vertex 33.382 8.82443 0
      vertex 33.5421 8.63091 0
    endloop
  endfacet
  facet normal 0 0 -1
    outer loop
      vertex 16.4579 8.63091 0
      vertex 33.5421 8.63091 0
      vertex 33.7252 8.45897 0
    endloop
  endfacet
  facet normal 0 0 -1
    outer loop
      vertex 16.2748 8.45897 0
      vertex 33.7252 8.45897 0
      vertex 33.9283 8.31134 0
    endloop
  endfacet
  facet normal 0 0 -1
    outer loop
      vertex 16.0717 8.31134 0
      vertex 33.9283 8.31134 0
      vertex 34.1484 8.19035 0
    endloop
  endfacet
  facet normal 0 0 -1
    outer loop
      vertex 34.382 8.09789 0
      vertex 15.618 8.09789 0
      vertex 34.1484 8.19035 0
    endloop
  endfacet
  facet normal 0 0 -1
    outer loop
      vertex 33.0158 9.74933 0
      vertex 16.9842 9.74933 0
      vertex 17 10 0
    endloop
  endfacet
  facet normal 0 0 -1
    outer loop
      vertex 33.0628 9.50262 0
      vertex 16.9372 9.50262 0
      vertex 16.9842 9.74933 0
    endloop
  endfacet
  facet normal 0 0 -1
    outer loop
      vertex 33.1404 9.26375 0
      vertex 16.8596 9.26375 0
      vertex 16.9372 9.50262 0
    endloop
  endfacet
  facet normal 0 0 -1
    outer loop
      vertex 33.2474 9.03649 0
      vertex 16.7526 9.03649 0
      vertex 16.8596 9.26375 0
    endloop
  endfacet
  facet normal 0 0 -1
    outer loop
      vertex 33.382 8.82443 0
      vertex 16.618 8.82443 0
      vertex 16.7526 9.03649 0
    endloop
  endfacet
  facet normal 0 0 -1
    outer loop
      vertex 33.5421 8.63091 0
      vertex 16.4579 8.63091 0
      vertex 16.618 8.82443 0
    endloop
  endfacet
  facet normal 0 0 -1
    outer loop
      vertex 33.7252 8.45897 0
      vertex 16.2748 8.45897 0
      vertex 16.4579 8.63091 0
    endloop
  endfacet
  facet normal 0 0 -1
    outer loop
      vertex 33.9283 8.31134 0
      vertex 16.0717 8.31134 0
      vertex 16.2748 8.45897 0
    endloop
  endfacet
  facet normal 0 0 -1
    outer loop
      vertex 34.1484 8.19035 0
      vertex 15.8516 8.19035 0
      vertex 16.0717 8.31134 0
    endloop
  endfacet
  facet normal -0 0 -1
    outer loop
      vertex 34.1484 8.19035 0
      vertex 15.618 8.09789 0
      vertex 15.8516 8.19035 0
    endloop
  endfacet
  facet normal 0 0 -1
    outer loop
      vertex 50 0 0
      vertex 15.3748 8.03543 0
      vertex 15.618 8.09789 0
    endloop
  endfacet
  facet normal 0 0 -1
    outer loop
      vertex 0 0 0
      vertex 15.3748 8.03543 0
      vertex 50 0 0
    endloop
  endfacet
  facet normal 0 0 -1
    outer loop
      vertex 15.3748 8.03543 0
      vertex 0 0 0
      vertex 15.1256 8.00395 0
    endloop
  endfacet
  facet normal -0 0 -1
    outer loop
      vertex 15.1256 8.00395 0
      vertex 0 0 0
      vertex 14.8744 8.00395 0
    endloop
  endfacet
  facet normal -0 0 -1
    outer loop
      vertex 13.0158 9.74933 0
      vertex 0 0 0
      vertex 13 10 0
    endloop
  endfacet
  facet normal -0 0 -1
    outer loop
      vertex 13.0628 9.50262 0
      vertex 0 0 0
      vertex 13.0158 9.74933 0
    endloop
  endfacet
  facet normal -0 0 -1
    outer loop
      vertex 13.1404 9.26375 0
      vertex 0 0 0
      vertex 13.0628 9.50262 0
    endloop
  endfacet
  facet normal -0 0 -1
    outer loop
      vertex 13.2474 9.03649 0
      vertex 0 0 0
      vertex 13.1404 9.26375 0
    endloop
  endfacet
  facet normal -0 0 -1
    outer loop
      vertex 13.382 8.82443 0
      vertex 0 0 0
      vertex 13.2474 9.03649 0
    endloop
  endfacet
  facet normal -0 0 -1
    outer loop
      vertex 13.5421 8.63091 0
      vertex 0 0 0
      vertex 13.382 8.82443 0
    endloop
  endfacet
  facet normal -0 0 -1
    outer loop
      vertex 13.7252 8.45897 0
      vertex 0 0 0
      vertex 13.5421 8.63091 0
    endloop
  endfacet
  facet normal -0 0 -1
    outer loop
      vertex 13.9283 8.31134 0
      vertex 0 0 0
      vertex 13.7252 8.45897 0
    endloop
  endfacet
  facet normal -0 0 -1
    outer loop
      vertex 14.1484 8.19035 0
      vertex 0 0 0
      vertex 13.9283 8.31134 0
    endloop
  endfacet
  facet normal -0 0 -1
    outer loop
      vertex 14.382 8.09789 0
      vertex 0 0 0
      vertex 14.1484 8.19035 0
    endloop
  endfacet
  facet normal -0 0 -1
    outer loop
      vertex 14.6252 8.03543 0
      vertex 0 0 0
      vertex 14.382 8.09789 0
    endloop
  endfacet
  facet normal -0 0 -1
    outer loop
      vertex 14.8744 8.00395 0
      vertex 0 0 0
      vertex 14.6252 8.03543 0
    endloop
  endfacet
  facet normal 0 0 -1
    outer loop
      vertex 36.9842 10.2507 0
      vertex 50 20 0
      vertex 37 10 0
    endloop
  endfacet
  facet normal 0 0 -1
    outer loop
      vertex 36.9372 10.4974 0
      vertex 50 20 0
      vertex 36.9842 10.2507 0
    endloop
  endfacet
  facet normal 0 0 -1
    outer loop
      vertex 36.8596 10.7362 0
      vertex 50 20 0
      vertex 36.9372 10.4974 0
    endloop
  endfacet
  facet normal 0 0 -1
    outer loop
      vertex 36.7526 10.9635 0
      vertex 50 20 0
      vertex 36.8596 10.7362 0
    endloop
  endfacet
  facet normal 0 0 -1
    outer loop
      vertex 36.618 11.1756 0
      vertex 50 20 0
      vertex 36.7526 10.9635 0
    endloop
  endfacet
  facet normal 0 0 -1
    outer loop
      vertex 36.4579 11.3691 0
      vertex 50 20 0
      vertex 36.618 11.1756 0
    endloop
  endfacet
  facet normal 0 0 -1
    outer loop
      vertex 36.2748 11.541 0
      vertex 50 20 0
      vertex 36.4579 11.3691 0
    endloop
  endfacet
  facet normal 0 0 -1
    outer loop
      vertex 36.0717 11.6887 0
      vertex 50 20 0
      vertex 36.2748 11.541 0
    endloop
  endfacet
  facet normal 0 0 -1
    outer loop
      vertex 35.8516 11.8097 0
      vertex 50 20 0
      vertex 36.0717 11.6887 0
    endloop
  endfacet
  facet normal 0 0 -1
    outer loop
      vertex 35.618 11.9021 0
      vertex 50 20 0
      vertex 35.8516 11.8097 0
    endloop
  endfacet
  facet normal 0 0 -1
    outer loop
      vertex 35.3748 11.9646 0
      vertex 50 20 0
      vertex 35.618 11.9021 0
    endloop
  endfacet
  facet normal 0 0 -1
    outer loop
      vertex 35.1256 11.9961 0
      vertex 50 20 0
      vertex 35.3748 11.9646 0
    endloop
  endfacet
  facet normal 0 0 -1
    outer loop
      vertex 34.8744 11.9961 0
      vertex 50 20 0
      vertex 35.1256 11.9961 0
    endloop
  endfacet
  facet normal 0 0 -1
    outer loop
      vertex 34.6252 11.9646 0
      vertex 50 20 0
      vertex 34.8744 11.9961 0
    endloop
  endfacet
  facet normal 0 0 -1
    outer loop
      vertex 34.382 11.9021 0
      vertex 50 20 0
      vertex 34.6252 11.9646 0
    endloop
  endfacet
  facet normal 0 0 -1
    outer loop
      vertex 15.618 11.9021 0
      vertex 34.382 11.9021 0
      vertex 34.1484 11.8097 0
    endloop
  endfacet
  facet normal 0 0 -1
    outer loop
      vertex 17 10 0
      vertex 33.0158 10.2507 0
      vertex 33 10 0
    endloop
  endfacet
  facet normal 0 0 -1
    outer loop
      vertex 16.9842 10.2507 0
      vertex 33.0158 10.2507 0
      vertex 17 10 0
    endloop
  endfacet
  facet normal 0 0 -1
    outer loop
      vertex 33.0158 10.2507 0
      vertex 16.9842 10.2507 0
      vertex 33.0628 10.4974 0
    endloop
  endfacet
  facet normal 0 0 -1
    outer loop
      vertex 16.9372 10.4974 0
      vertex 33.0628 10.4974 0
      vertex 16.9842 10.2507 0
    endloop
  endfacet
  facet normal 0 0 -1
    outer loop
      vertex 33.0628 10.4974 0
      vertex 16.9372 10.4974 0
      vertex 33.1404 10.7362 0
    endloop
  endfacet
  facet normal 0 0 -1
    outer loop
      vertex 16.8596 10.7362 0
      vertex 33.1404 10.7362 0
      vertex 16.9372 10.4974 0
    endloop
  endfacet
  facet normal 0 0 -1
    outer loop
      vertex 33.1404 10.7362 0
      vertex 16.8596 10.7362 0
      vertex 33.2474 10.9635 0
    endloop
  endfacet
  facet normal 0 0 -1
    outer loop
      vertex 16.7526 10.9635 0
      vertex 33.2474 10.9635 0
      vertex 16.8596 10.7362 0
    endloop
  endfacet
  facet normal 0 0 -1
    outer loop
      vertex 33.2474 10.9635 0
      vertex 16.7526 10.9635 0
      vertex 33.382 11.1756 0
    endloop
  endfacet
  facet normal 0 0 -1
    outer loop
      vertex 16.618 11.1756 0
      vertex 33.382 11.1756 0
      vertex 16.7526 10.9635 0
    endloop
  endfacet
  facet normal 0 0 -1
    outer loop
      vertex 33.382 11.1756 0
      vertex 16.618 11.1756 0
      vertex 33.5421 11.3691 0
    endloop
  endfacet
  facet normal 0 0 -1
    outer loop
      vertex 16.4579 11.3691 0
      vertex 33.5421 11.3691 0
      vertex 16.618 11.1756 0
    endloop
  endfacet
  facet normal 0 0 -1
    outer loop
      vertex 33.5421 11.3691 0
      vertex 16.4579 11.3691 0
      vertex 33.7252 11.541 0
    endloop
  endfacet
  facet normal 0 0 -1
    outer loop
      vertex 16.2748 11.541 0
      vertex 33.7252 11.541 0
      vertex 16.4579 11.3691 0
    endloop
  endfacet
  facet normal 0 0 -1
    outer loop
      vertex 33.7252 11.541 0
      vertex 16.2748 11.541 0
      vertex 33.9283 11.6887 0
    endloop
  endfacet
  facet normal 0 0 -1
    outer loop
      vertex 16.0717 11.6887 0
      vertex 33.9283 11.6887 0
      vertex 16.2748 11.541 0
    endloop
  endfacet
  facet normal 0 0 -1
    outer loop
      vertex 33.9283 11.6887 0
      vertex 16.0717 11.6887 0
      vertex 34.1484 11.8097 0
    endloop
  endfacet
  facet normal 0 0 -1
    outer loop
      vertex 15.8516 11.8097 0
      vertex 34.1484 11.8097 0
      vertex 16.0717 11.6887 0
    endloop
  endfacet
  facet normal 0 0 -1
    outer loop
      vertex 15.618 11.9021 0
      vertex 34.1484 11.8097 0
      vertex 15.8516 11.8097 0
    endloop
  endfacet
  facet normal 0 0 -1
    outer loop
      vertex 34.382 11.9021 0
      vertex 15.618 11.9021 0
      vertex 50 20 0
    endloop
  endfacet
  facet normal 0 0 -1
    outer loop
      vertex 15.3748 11.9646 0
      vertex 50 20 0
      vertex 15.618 11.9021 0
    endloop
  endfacet
  facet normal 0 0 -1
    outer loop
      vertex 0 20 0
      vertex 15.3748 11.9646 0
      vertex 15.1256 11.9961 0
    endloop
  endfacet
  facet normal 0 0 -1
    outer loop
      vertex 0 20 0
      vertex 15.1256 11.9961 0
      vertex 14.8744 11.9961 0
    endloop
  endfacet
  facet normal 0 0 -1
    outer loop
      vertex 0 20 0
      vertex 14.8744 11.9961 0
      vertex 14.6252 11.9646 0
    endloop
  endfacet
  facet normal 0 0 -1
    outer loop
      vertex 0 20 0
      vertex 13 10 0
      vertex 0 0 0
    endloop
  endfacet
  facet normal 0 0 -1
    outer loop
      vertex 13 10 0
      vertex 0 20 0
      vertex 13.0158 10.2507 0
    endloop
  endfacet
  facet normal 0 0 -1
    outer loop
      vertex 13.0158 10.2507 0
      vertex 0 20 0
      vertex 13.0628 10.4974 0
    endloop
  endfacet
  facet normal 0 0 -1
    outer loop
      vertex 13.0628 10.4974 0
      vertex 0 20 0
      vertex 13.1404 10.7362 0
    endloop
  endfacet
  facet normal 0 0 -1
    outer loop
      vertex 13.1404 10.7362 0
      vertex 0 20 0
      vertex 13.2474 10.9635 0
    endloop
  endfacet
  facet normal 0 0 -1
    outer loop
      vertex 13.2474 10.9635 0
      vertex 0 20 0
      vertex 13.382 11.1756 0
    endloop
  endfacet
  facet normal 0 0 -1
    outer loop
      vertex 13.382 11.1756 0
      vertex 0 20 0
      vertex 13.5421 11.3691 0
    endloop
  endfacet
  facet normal 0 0 -1
    outer loop
      vertex 15.3748 11.9646 0
      vertex 0 20 0
      vertex 50 20 0
    endloop
  endfacet
  facet normal 0 0 -1
    outer loop
      vertex 14.382 11.9021 0
      vertex 0 20 0
      vertex 14.6252 11.9646 0
    endloop
  endfacet
  facet normal 0 0 -1
    outer loop
      vertex 14.1484 11.8097 0
      vertex 0 20 0
      vertex 14.382 11.9021 0
    endloop
  endfacet
  facet normal 0 0 -1
    outer loop
      vertex 13.9283 11.6887 0
      vertex 0 20 0
      vertex 14.1484 11.8097 0
    endloop
  endfacet
  facet normal 0 0 -1
    outer loop
      vertex 13.7252 11.541 0
      vertex 0 20 0
      vertex 13.9283 11.6887 0
    endloop
  endfacet
  facet normal 0 0 -1
    outer loop
      vertex 13.5421 11.3691 0
      vertex 0 20 0
      vertex 13.7252 11.541 0
    endloop
  endfacet
  facet normal -1 0 0
    outer loop
      vertex 0 0 0
      vertex 0 20 5
      vertex 0 20 0
    endloop
  endfacet
  facet normal -1 -0 0
    outer loop
      vertex 0 20 5
      vertex 0 0 0
      vertex 0 0 5
    endloop
  endfacet
  facet normal 0 1 -0
    outer loop
      vertex 50 20 0
      vertex 0 20 5
      vertex 50 20 5
    endloop
  endfacet
  facet normal 0 1 0
    outer loop
      vertex 0 20 5
      vertex 50 20 0
      vertex 0 20 0
    endloop
  endfacet
  facet normal 0 -1 0
    outer loop
      vertex 0 0 0
      vertex 50 0 5
      vertex 0 0 5
    endloop
  endfacet
  facet normal 0 -1 -0
    outer loop
      vertex 50 0 5
      vertex 0 0 0
      vertex 50 0 0
    endloop
  endfacet
  facet normal -0.982332 -0.187149 0
    outer loop
      vertex 16.9842 10.2507 0
      vertex 16.9372 10.4974 5
      vertex 16.9372 10.4974 0
    endloop
  endfacet
  facet normal -0.982332 -0.187149 0
    outer loop
      vertex 16.9372 10.4974 5
      vertex 16.9842 10.2507 0
      vertex 16.9842 10.2507 5
    endloop
  endfacet
  facet normal -0.99802 -0.0628987 0
    outer loop
      vertex 17 10 0
      vertex 16.9842 10.2507 5
      vertex 16.9842 10.2507 0
    endloop
  endfacet
  facet normal -0.99802 -0.0628987 0
    outer loop
      vertex 16.9842 10.2507 5
      vertex 17 10 0
      vertex 17 10 5
    endloop
  endfacet
  facet normal -0.48172 0.876325 0
    outer loop
      vertex 16.0717 8.31134 0
      vertex 15.8516 8.19035 5
      vertex 16.0717 8.31134 5
    endloop
  endfacet
  facet normal -0.48172 0.876325 0
    outer loop
      vertex 15.8516 8.19035 5
      vertex 16.0717 8.31134 0
      vertex 15.8516 8.19035 0
    endloop
  endfacet
  facet normal -0.684458 -0.729053 0
    outer loop
      vertex 16.2748 11.541 0
      vertex 16.4579 11.3691 5
      vertex 16.2748 11.541 5
    endloop
  endfacet
  facet normal -0.684458 -0.729053 -0
    outer loop
      vertex 16.4579 11.3691 5
      vertex 16.2748 11.541 0
      vertex 16.4579 11.3691 0
    endloop
  endfacet
  facet normal -0.951072 0.308968 0
    outer loop
      vertex 16.8596 9.26375 0
      vertex 16.9372 9.50262 5
      vertex 16.9372 9.50262 0
    endloop
  endfacet
  facet normal -0.951072 0.308968 0
    outer loop
      vertex 16.9372 9.50262 5
      vertex 16.8596 9.26375 0
      vertex 16.8596 9.26375 5
    endloop
  endfacet
  facet normal 0.125328 0.992115 -0
    outer loop
      vertex 14.8744 8.00395 0
      vertex 14.6252 8.03543 5
      vertex 14.8744 8.00395 5
    endloop
  endfacet
  facet normal 0.125328 0.992115 0
    outer loop
      vertex 14.6252 8.03543 5
      vertex 14.8744 8.00395 0
      vertex 14.6252 8.03543 0
    endloop
  endfacet
  facet normal -0.248902 -0.968529 0
    outer loop
      vertex 15.3748 11.9646 0
      vertex 15.618 11.9021 5
      vertex 15.3748 11.9646 5
    endloop
  endfacet
  facet normal -0.248902 -0.968529 -0
    outer loop
      vertex 15.618 11.9021 5
      vertex 15.3748 11.9646 0
      vertex 15.618 11.9021 0
    endloop
  endfacet
  facet normal 0.588148 -0.808753 0
    outer loop
      vertex 13.7252 11.541 0
      vertex 13.9283 11.6887 5
      vertex 13.7252 11.541 5
    endloop
  endfacet
  facet normal 0.588148 -0.808753 0
    outer loop
      vertex 13.9283 11.6887 5
      vertex 13.7252 11.541 0
      vertex 13.9283 11.6887 0
    endloop
  endfacet
  facet normal 0.367819 -0.929897 0
    outer loop
      vertex 14.1484 11.8097 0
      vertex 14.382 11.9021 5
      vertex 14.1484 11.8097 5
    endloop
  endfacet
  facet normal 0.367819 -0.929897 0
    outer loop
      vertex 14.382 11.9021 5
      vertex 14.1484 11.8097 0
      vertex 14.382 11.9021 0
    endloop
  endfacet
  facet normal -0.684542 0.728973 0
    outer loop
      vertex 16.4579 8.63091 0
      vertex 16.2748 8.45897 5
      vertex 16.4579 8.63091 5
    endloop
  endfacet
  facet normal -0.684542 0.728973 0
    outer loop
      vertex 16.2748 8.45897 5
      vertex 16.4579 8.63091 0
      vertex 16.2748 8.45897 0
    endloop
  endfacet
  facet normal -0.587966 0.808886 0
    outer loop
      vertex 16.2748 8.45897 0
      vertex 16.0717 8.31134 5
      vertex 16.2748 8.45897 5
    endloop
  endfacet
  facet normal -0.587966 0.808886 0
    outer loop
      vertex 16.0717 8.31134 5
      vertex 16.2748 8.45897 0
      vertex 16.0717 8.31134 0
    endloop
  endfacet
  facet normal 0.684458 -0.729053 0
    outer loop
      vertex 13.5421 11.3691 0
      vertex 13.7252 11.541 5
      vertex 13.5421 11.3691 5
    endloop
  endfacet
  facet normal 0.684458 -0.729053 0
    outer loop
      vertex 13.7252 11.541 5
      vertex 13.5421 11.3691 0
      vertex 13.7252 11.541 0
    endloop
  endfacet
  facet normal -0.844287 0.535891 0
    outer loop
      vertex 16.618 8.82443 0
      vertex 16.7526 9.03649 5
      vertex 16.7526 9.03649 0
    endloop
  endfacet
  facet normal -0.844287 0.535891 0
    outer loop
      vertex 16.7526 9.03649 5
      vertex 16.618 8.82443 0
      vertex 16.618 8.82443 5
    endloop
  endfacet
  facet normal -0.368026 0.929816 0
    outer loop
      vertex 15.8516 8.19035 0
      vertex 15.618 8.09789 5
      vertex 15.8516 8.19035 5
    endloop
  endfacet
  facet normal -0.368026 0.929816 0
    outer loop
      vertex 15.618 8.09789 5
      vertex 15.8516 8.19035 0
      vertex 15.618 8.09789 0
    endloop
  endfacet
  facet normal -0.844333 -0.535819 0
    outer loop
      vertex 16.7526 10.9635 0
      vertex 16.618 11.1756 5
      vertex 16.618 11.1756 0
    endloop
  endfacet
  facet normal -0.844333 -0.535819 0
    outer loop
      vertex 16.618 11.1756 5
      vertex 16.7526 10.9635 0
      vertex 16.7526 10.9635 5
    endloop
  endfacet
  facet normal 0.770468 -0.637478 0
    outer loop
      vertex 13.382 11.1756 5
      vertex 13.5421 11.3691 0
      vertex 13.5421 11.3691 5
    endloop
  endfacet
  facet normal 0.770468 -0.637478 0
    outer loop
      vertex 13.5421 11.3691 0
      vertex 13.382 11.1756 5
      vertex 13.382 11.1756 0
    endloop
  endfacet
  facet normal -0.904736 0.425973 0
    outer loop
      vertex 16.7526 9.03649 0
      vertex 16.8596 9.26375 5
      vertex 16.8596 9.26375 0
    endloop
  endfacet
  facet normal -0.904736 0.425973 0
    outer loop
      vertex 16.8596 9.26375 5
      vertex 16.7526 9.03649 0
      vertex 16.7526 9.03649 5
    endloop
  endfacet
  facet normal -0.982333 0.187141 0
    outer loop
      vertex 16.9372 9.50262 0
      vertex 16.9842 9.74933 5
      vertex 16.9842 9.74933 0
    endloop
  endfacet
  facet normal -0.982333 0.187141 0
    outer loop
      vertex 16.9842 9.74933 5
      vertex 16.9372 9.50262 0
      vertex 16.9372 9.50262 5
    endloop
  endfacet
  facet normal -0.125328 0.992115 0
    outer loop
      vertex 15.3748 8.03543 0
      vertex 15.1256 8.00395 5
      vertex 15.3748 8.03543 5
    endloop
  endfacet
  facet normal -0.125328 0.992115 0
    outer loop
      vertex 15.1256 8.00395 5
      vertex 15.3748 8.03543 0
      vertex 15.1256 8.00395 0
    endloop
  endfacet
  facet normal -0.125407 -0.992105 0
    outer loop
      vertex 15.1256 11.9961 0
      vertex 15.3748 11.9646 5
      vertex 15.1256 11.9961 5
    endloop
  endfacet
  facet normal -0.125407 -0.992105 -0
    outer loop
      vertex 15.3748 11.9646 5
      vertex 15.1256 11.9961 0
      vertex 15.3748 11.9646 0
    endloop
  endfacet
  facet normal -0.588148 -0.808753 0
    outer loop
      vertex 16.0717 11.6887 0
      vertex 16.2748 11.541 5
      vertex 16.0717 11.6887 5
    endloop
  endfacet
  facet normal -0.588148 -0.808753 -0
    outer loop
      vertex 16.2748 11.541 5
      vertex 16.0717 11.6887 0
      vertex 16.2748 11.541 0
    endloop
  endfacet
  facet normal 0 1 -0
    outer loop
      vertex 15.1256 8.00395 0
      vertex 14.8744 8.00395 5
      vertex 15.1256 8.00395 5
    endloop
  endfacet
  facet normal 0 1 0
    outer loop
      vertex 14.8744 8.00395 5
      vertex 15.1256 8.00395 0
      vertex 14.8744 8.00395 0
    endloop
  endfacet
  facet normal 0.904736 0.425973 0
    outer loop
      vertex 13.2474 9.03649 5
      vertex 13.1404 9.26375 0
      vertex 13.1404 9.26375 5
    endloop
  endfacet
  facet normal 0.904736 0.425973 0
    outer loop
      vertex 13.1404 9.26375 0
      vertex 13.2474 9.03649 5
      vertex 13.2474 9.03649 0
    endloop
  endfacet
  facet normal 0.587966 0.808886 -0
    outer loop
      vertex 13.9283 8.31134 0
      vertex 13.7252 8.45897 5
      vertex 13.9283 8.31134 5
    endloop
  endfacet
  facet normal 0.587966 0.808886 0
    outer loop
      vertex 13.7252 8.45897 5
      vertex 13.9283 8.31134 0
      vertex 13.7252 8.45897 0
    endloop
  endfacet
  facet normal -0.481751 -0.876308 0
    outer loop
      vertex 15.8516 11.8097 0
      vertex 16.0717 11.6887 5
      vertex 15.8516 11.8097 5
    endloop
  endfacet
  facet normal -0.481751 -0.876308 -0
    outer loop
      vertex 16.0717 11.6887 5
      vertex 15.8516 11.8097 0
      vertex 16.0717 11.6887 0
    endloop
  endfacet
  facet normal 0.248902 -0.968529 0
    outer loop
      vertex 14.382 11.9021 0
      vertex 14.6252 11.9646 5
      vertex 14.382 11.9021 5
    endloop
  endfacet
  facet normal 0.248902 -0.968529 0
    outer loop
      vertex 14.6252 11.9646 5
      vertex 14.382 11.9021 0
      vertex 14.6252 11.9646 0
    endloop
  endfacet
  facet normal -0.998019 0.0629062 0
    outer loop
      vertex 16.9842 9.74933 0
      vertex 17 10 5
      vertex 17 10 0
    endloop
  endfacet
  facet normal -0.998019 0.0629062 0
    outer loop
      vertex 17 10 5
      vertex 16.9842 9.74933 0
      vertex 16.9842 9.74933 5
    endloop
  endfacet
  facet normal 0 -1 0
    outer loop
      vertex 14.8744 11.9961 0
      vertex 15.1256 11.9961 5
      vertex 14.8744 11.9961 5
    endloop
  endfacet
  facet normal 0 -1 -0
    outer loop
      vertex 15.1256 11.9961 5
      vertex 14.8744 11.9961 0
      vertex 15.1256 11.9961 0
    endloop
  endfacet
  facet normal -0.904765 -0.425912 0
    outer loop
      vertex 16.8596 10.7362 0
      vertex 16.7526 10.9635 5
      vertex 16.7526 10.9635 0
    endloop
  endfacet
  facet normal -0.904765 -0.425912 0
    outer loop
      vertex 16.7526 10.9635 5
      vertex 16.8596 10.7362 0
      vertex 16.8596 10.7362 5
    endloop
  endfacet
  facet normal -0.367819 -0.929897 0
    outer loop
      vertex 15.618 11.9021 0
      vertex 15.8516 11.8097 5
      vertex 15.618 11.9021 5
    endloop
  endfacet
  facet normal -0.367819 -0.929897 -0
    outer loop
      vertex 15.8516 11.8097 5
      vertex 15.618 11.9021 0
      vertex 15.8516 11.8097 0
    endloop
  endfacet
  facet normal 0.248753 0.968567 -0
    outer loop
      vertex 14.6252 8.03543 0
      vertex 14.382 8.09789 5
      vertex 14.6252 8.03543 5
    endloop
  endfacet
  facet normal 0.248753 0.968567 0
    outer loop
      vertex 14.382 8.09789 5
      vertex 14.6252 8.03543 0
      vertex 14.382 8.09789 0
    endloop
  endfacet
  facet normal -0.248753 0.968567 0
    outer loop
      vertex 15.618 8.09789 0
      vertex 15.3748 8.03543 5
      vertex 15.618 8.09789 5
    endloop
  endfacet
  facet normal -0.248753 0.968567 0
    outer loop
      vertex 15.3748 8.03543 5
      vertex 15.618 8.09789 0
      vertex 15.3748 8.03543 0
    endloop
  endfacet
  facet normal 0.844333 -0.535819 0
    outer loop
      vertex 13.2474 10.9635 5
      vertex 13.382 11.1756 0
      vertex 13.382 11.1756 5
    endloop
  endfacet
  facet normal 0.844333 -0.535819 0
    outer loop
      vertex 13.382 11.1756 0
      vertex 13.2474 10.9635 5
      vertex 13.2474 10.9635 0
    endloop
  endfacet
  facet normal 0.684542 0.728973 -0
    outer loop
      vertex 13.7252 8.45897 0
      vertex 13.5421 8.63091 5
      vertex 13.7252 8.45897 5
    endloop
  endfacet
  facet normal 0.684542 0.728973 0
    outer loop
      vertex 13.5421 8.63091 5
      vertex 13.7252 8.45897 0
      vertex 13.5421 8.63091 0
    endloop
  endfacet
  facet normal 0.982332 -0.187149 0
    outer loop
      vertex 13.0158 10.2507 5
      vertex 13.0628 10.4974 0
      vertex 13.0628 10.4974 5
    endloop
  endfacet
  facet normal 0.982332 -0.187149 0
    outer loop
      vertex 13.0628 10.4974 0
      vertex 13.0158 10.2507 5
      vertex 13.0158 10.2507 0
    endloop
  endfacet
  facet normal 0.998019 0.0629062 0
    outer loop
      vertex 13.0158 9.74933 5
      vertex 13 10 0
      vertex 13 10 5
    endloop
  endfacet
  facet normal 0.998019 0.0629062 0
    outer loop
      vertex 13 10 0
      vertex 13.0158 9.74933 5
      vertex 13.0158 9.74933 0
    endloop
  endfacet
  facet normal 0.982333 0.187141 0
    outer loop
      vertex 13.0628 9.50262 5
      vertex 13.0158 9.74933 0
      vertex 13.0158 9.74933 5
    endloop
  endfacet
  facet normal 0.982333 0.187141 0
    outer loop
      vertex 13.0158 9.74933 0
      vertex 13.0628 9.50262 5
      vertex 13.0628 9.50262 0
    endloop
  endfacet
  facet normal 0.770501 0.637439 0
    outer loop
      vertex 13.5421 8.63091 5
      vertex 13.382 8.82443 0
      vertex 13.382 8.82443 5
    endloop
  endfacet
  facet normal 0.770501 0.637439 0
    outer loop
      vertex 13.382 8.82443 0
      vertex 13.5421 8.63091 5
      vertex 13.5421 8.63091 0
    endloop
  endfacet
  facet normal 0.368026 0.929816 -0
    outer loop
      vertex 14.382 8.09789 0
      vertex 14.1484 8.19035 5
      vertex 14.382 8.09789 5
    endloop
  endfacet
  facet normal 0.368026 0.929816 0
    outer loop
      vertex 14.1484 8.19035 5
      vertex 14.382 8.09789 0
      vertex 14.1484 8.19035 0
    endloop
  endfacet
  facet normal -0.770468 -0.637478 0
    outer loop
      vertex 16.618 11.1756 0
      vertex 16.4579 11.3691 5
      vertex 16.4579 11.3691 0
    endloop
  endfacet
  facet normal -0.770468 -0.637478 0
    outer loop
      vertex 16.4579 11.3691 5
      vertex 16.618 11.1756 0
      vertex 16.618 11.1756 5
    endloop
  endfacet
  facet normal 0.904765 -0.425912 0
    outer loop
      vertex 13.1404 10.7362 5
      vertex 13.2474 10.9635 0
      vertex 13.2474 10.9635 5
    endloop
  endfacet
  facet normal 0.904765 -0.425912 0
    outer loop
      vertex 13.2474 10.9635 0
      vertex 13.1404 10.7362 5
      vertex 13.1404 10.7362 0
    endloop
  endfacet
  facet normal -0.951046 -0.30905 0
    outer loop
      vertex 16.9372 10.4974 0
      vertex 16.8596 10.7362 5
      vertex 16.8596 10.7362 0
    endloop
  endfacet
  facet normal -0.951046 -0.30905 0
    outer loop
      vertex 16.8596 10.7362 5
      vertex 16.9372 10.4974 0
      vertex 16.9372 10.4974 5
    endloop
  endfacet
  facet normal 0.481751 -0.876308 0
    outer loop
      vertex 13.9283 11.6887 0
      vertex 14.1484 11.8097 5
      vertex 13.9283 11.6887 5
    endloop
  endfacet
  facet normal 0.481751 -0.876308 0
    outer loop
      vertex 14.1484 11.8097 5
      vertex 13.9283 11.6887 0
      vertex 14.1484 11.8097 0
    endloop
  endfacet
  facet normal 0.48172 0.876325 -0
    outer loop
      vertex 14.1484 8.19035 0
      vertex 13.9283 8.31134 5
      vertex 14.1484 8.19035 5
    endloop
  endfacet
  facet normal 0.48172 0.876325 0
    outer loop
      vertex 13.9283 8.31134 5
      vertex 14.1484 8.19035 0
      vertex 13.9283 8.31134 0
    endloop
  endfacet
  facet normal -0.770501 0.637439 0
    outer loop
      vertex 16.4579 8.63091 0
      vertex 16.618 8.82443 5
      vertex 16.618 8.82443 0
    endloop
  endfacet
  facet normal -0.770501 0.637439 0
    outer loop
      vertex 16.618 8.82443 5
      vertex 16.4579 8.63091 0
      vertex 16.4579 8.63091 5
    endloop
  endfacet
  facet normal 0.951046 -0.30905 0
    outer loop
      vertex 13.0628 10.4974 5
      vertex 13.1404 10.7362 0
      vertex 13.1404 10.7362 5
    endloop
  endfacet
  facet normal 0.951046 -0.30905 0
    outer loop
      vertex 13.1404 10.7362 0
      vertex 13.0628 10.4974 5
      vertex 13.0628 10.4974 0
    endloop
  endfacet
  facet normal 0.951072 0.308968 0
    outer loop
      vertex 13.1404 9.26375 5
      vertex 13.0628 9.50262 0
      vertex 13.0628 9.50262 5
    endloop
  endfacet
  facet normal 0.951072 0.308968 0
    outer loop
      vertex 13.0628 9.50262 0
      vertex 13.1404 9.26375 5
      vertex 13.1404 9.26375 0
    endloop
  endfacet
  facet normal 0.844287 0.535891 0
    outer loop
      vertex 13.382 8.82443 5
      vertex 13.2474 9.03649 0
      vertex 13.2474 9.03649 5
    endloop
  endfacet
  facet normal 0.844287 0.535891 0
    outer loop
      vertex 13.2474 9.03649 0
      vertex 13.382 8.82443 5
      vertex 13.382 8.82443 0
    endloop
  endfacet
  facet normal 0.125407 -0.992105 0
    outer loop
      vertex 14.6252 11.9646 0
      vertex 14.8744 11.9961 5
      vertex 14.6252 11.9646 5
    endloop
  endfacet
  facet normal 0.125407 -0.992105 0
    outer loop
      vertex 14.8744 11.9961 5
      vertex 14.6252 11.9646 0
      vertex 14.8744 11.9961 0
    endloop
  endfacet
  facet normal 0.99802 -0.0628987 0
    outer loop
      vertex 13 10 5
      vertex 13.0158 10.2507 0
      vertex 13.0158 10.2507 5
    endloop
  endfacet
  facet normal 0.99802 -0.0628987 0
    outer loop
      vertex 13.0158 10.2507 0
      vertex 13 10 5
      vertex 13 10 0
    endloop
  endfacet
  facet normal -0.770468 -0.637478 0
    outer loop
      vertex 36.618 11.1756 0
      vertex 36.4579 11.3691 5
      vertex 36.4579 11.3691 0
    endloop
  endfacet
  facet normal -0.770468 -0.637478 0
    outer loop
      vertex 36.4579 11.3691 5
      vertex 36.618 11.1756 0
      vertex 36.618 11.1756 5
    endloop
  endfacet
  facet normal -0.684458 -0.729053 0
    outer loop
      vertex 36.2748 11.541 0
      vertex 36.4579 11.3691 5
      vertex 36.2748 11.541 5
    endloop
  endfacet
  facet normal -0.684458 -0.729053 -0
    outer loop
      vertex 36.4579 11.3691 5
      vertex 36.2748 11.541 0
      vertex 36.4579 11.3691 0
    endloop
  endfacet
  facet normal -0.951072 0.308968 0
    outer loop
      vertex 36.8596 9.26375 0
      vertex 36.9372 9.50262 5
      vertex 36.9372 9.50262 0
    endloop
  endfacet
  facet normal -0.951072 0.308968 0
    outer loop
      vertex 36.9372 9.50262 5
      vertex 36.8596 9.26375 0
      vertex 36.8596 9.26375 5
    endloop
  endfacet
  facet normal -0.684542 0.728973 0
    outer loop
      vertex 36.4579 8.63091 0
      vertex 36.2748 8.45897 5
      vertex 36.4579 8.63091 5
    endloop
  endfacet
  facet normal -0.684542 0.728973 0
    outer loop
      vertex 36.2748 8.45897 5
      vertex 36.4579 8.63091 0
      vertex 36.2748 8.45897 0
    endloop
  endfacet
  facet normal -0.248753 0.968567 0
    outer loop
      vertex 35.618 8.09789 0
      vertex 35.3748 8.03543 5
      vertex 35.618 8.09789 5
    endloop
  endfacet
  facet normal -0.248753 0.968567 0
    outer loop
      vertex 35.3748 8.03543 5
      vertex 35.618 8.09789 0
      vertex 35.3748 8.03543 0
    endloop
  endfacet
  facet normal -0.998019 0.0629062 0
    outer loop
      vertex 36.9842 9.74933 0
      vertex 37 10 5
      vertex 37 10 0
    endloop
  endfacet
  facet normal -0.998019 0.0629062 0
    outer loop
      vertex 37 10 5
      vertex 36.9842 9.74933 0
      vertex 36.9842 9.74933 5
    endloop
  endfacet
  facet normal 0.684542 0.728973 -0
    outer loop
      vertex 33.7252 8.45897 0
      vertex 33.5421 8.63091 5
      vertex 33.7252 8.45897 5
    endloop
  endfacet
  facet normal 0.684542 0.728973 0
    outer loop
      vertex 33.5421 8.63091 5
      vertex 33.7252 8.45897 0
      vertex 33.5421 8.63091 0
    endloop
  endfacet
  facet normal -0.844333 -0.535819 0
    outer loop
      vertex 36.7526 10.9635 0
      vertex 36.618 11.1756 5
      vertex 36.618 11.1756 0
    endloop
  endfacet
  facet normal -0.844333 -0.535819 0
    outer loop
      vertex 36.618 11.1756 5
      vertex 36.7526 10.9635 0
      vertex 36.7526 10.9635 5
    endloop
  endfacet
  facet normal 0.367819 -0.929897 0
    outer loop
      vertex 34.1484 11.8097 0
      vertex 34.382 11.9021 5
      vertex 34.1484 11.8097 5
    endloop
  endfacet
  facet normal 0.367819 -0.929897 0
    outer loop
      vertex 34.382 11.9021 5
      vertex 34.1484 11.8097 0
      vertex 34.382 11.9021 0
    endloop
  endfacet
  facet normal -0.99802 -0.0628987 0
    outer loop
      vertex 37 10 0
      vertex 36.9842 10.2507 5
      vertex 36.9842 10.2507 0
    endloop
  endfacet
  facet normal -0.99802 -0.0628987 0
    outer loop
      vertex 36.9842 10.2507 5
      vertex 37 10 0
      vertex 37 10 5
    endloop
  endfacet
  facet normal 0.770468 -0.637478 0
    outer loop
      vertex 33.382 11.1756 5
      vertex 33.5421 11.3691 0
      vertex 33.5421 11.3691 5
    endloop
  endfacet
  facet normal 0.770468 -0.637478 0
    outer loop
      vertex 33.5421 11.3691 0
      vertex 33.382 11.1756 5
      vertex 33.382 11.1756 0
    endloop
  endfacet
  facet normal 0.481751 -0.876308 0
    outer loop
      vertex 33.9283 11.6887 0
      vertex 34.1484 11.8097 5
      vertex 33.9283 11.6887 5
    endloop
  endfacet
  facet normal 0.481751 -0.876308 0
    outer loop
      vertex 34.1484 11.8097 5
      vertex 33.9283 11.6887 0
      vertex 34.1484 11.8097 0
    endloop
  endfacet
  facet normal 0.844333 -0.535819 0
    outer loop
      vertex 33.2474 10.9635 5
      vertex 33.382 11.1756 0
      vertex 33.382 11.1756 5
    endloop
  endfacet
  facet normal 0.844333 -0.535819 0
    outer loop
      vertex 33.382 11.1756 0
      vertex 33.2474 10.9635 5
      vertex 33.2474 10.9635 0
    endloop
  endfacet
  facet normal 0.248902 -0.968529 0
    outer loop
      vertex 34.382 11.9021 0
      vertex 34.6252 11.9646 5
      vertex 34.382 11.9021 5
    endloop
  endfacet
  facet normal 0.248902 -0.968529 0
    outer loop
      vertex 34.6252 11.9646 5
      vertex 34.382 11.9021 0
      vertex 34.6252 11.9646 0
    endloop
  endfacet
  facet normal -0.982332 -0.187149 0
    outer loop
      vertex 36.9842 10.2507 0
      vertex 36.9372 10.4974 5
      vertex 36.9372 10.4974 0
    endloop
  endfacet
  facet normal -0.982332 -0.187149 0
    outer loop
      vertex 36.9372 10.4974 5
      vertex 36.9842 10.2507 0
      vertex 36.9842 10.2507 5
    endloop
  endfacet
  facet normal -0.588148 -0.808753 0
    outer loop
      vertex 36.0717 11.6887 0
      vertex 36.2748 11.541 5
      vertex 36.0717 11.6887 5
    endloop
  endfacet
  facet normal -0.588148 -0.808753 -0
    outer loop
      vertex 36.2748 11.541 5
      vertex 36.0717 11.6887 0
      vertex 36.2748 11.541 0
    endloop
  endfacet
  facet normal 0.125407 -0.992105 0
    outer loop
      vertex 34.6252 11.9646 0
      vertex 34.8744 11.9961 5
      vertex 34.6252 11.9646 5
    endloop
  endfacet
  facet normal 0.125407 -0.992105 0
    outer loop
      vertex 34.8744 11.9961 5
      vertex 34.6252 11.9646 0
      vertex 34.8744 11.9961 0
    endloop
  endfacet
  facet normal 0.684458 -0.729053 0
    outer loop
      vertex 33.5421 11.3691 0
      vertex 33.7252 11.541 5
      vertex 33.5421 11.3691 5
    endloop
  endfacet
  facet normal 0.684458 -0.729053 0
    outer loop
      vertex 33.7252 11.541 5
      vertex 33.5421 11.3691 0
      vertex 33.7252 11.541 0
    endloop
  endfacet
  facet normal 0.48172 0.876325 -0
    outer loop
      vertex 34.1484 8.19035 0
      vertex 33.9283 8.31134 5
      vertex 34.1484 8.19035 5
    endloop
  endfacet
  facet normal 0.48172 0.876325 0
    outer loop
      vertex 33.9283 8.31134 5
      vertex 34.1484 8.19035 0
      vertex 33.9283 8.31134 0
    endloop
  endfacet
  facet normal -0.367819 -0.929897 0
    outer loop
      vertex 35.618 11.9021 0
      vertex 35.8516 11.8097 5
      vertex 35.618 11.9021 5
    endloop
  endfacet
  facet normal -0.367819 -0.929897 -0
    outer loop
      vertex 35.8516 11.8097 5
      vertex 35.618 11.9021 0
      vertex 35.8516 11.8097 0
    endloop
  endfacet
  facet normal 0.951046 -0.30905 0
    outer loop
      vertex 33.0628 10.4974 5
      vertex 33.1404 10.7362 0
      vertex 33.1404 10.7362 5
    endloop
  endfacet
  facet normal 0.951046 -0.30905 0
    outer loop
      vertex 33.1404 10.7362 0
      vertex 33.0628 10.4974 5
      vertex 33.0628 10.4974 0
    endloop
  endfacet
  facet normal 0.982332 -0.187149 0
    outer loop
      vertex 33.0158 10.2507 5
      vertex 33.0628 10.4974 0
      vertex 33.0628 10.4974 5
    endloop
  endfacet
  facet normal 0.982332 -0.187149 0
    outer loop
      vertex 33.0628 10.4974 0
      vertex 33.0158 10.2507 5
      vertex 33.0158 10.2507 0
    endloop
  endfacet
  facet normal -0.48172 0.876325 0
    outer loop
      vertex 36.0717 8.31134 0
      vertex 35.8516 8.19035 5
      vertex 36.0717 8.31134 5
    endloop
  endfacet
  facet normal -0.48172 0.876325 0
    outer loop
      vertex 35.8516 8.19035 5
      vertex 36.0717 8.31134 0
      vertex 35.8516 8.19035 0
    endloop
  endfacet
  facet normal 0.248753 0.968567 -0
    outer loop
      vertex 34.6252 8.03543 0
      vertex 34.382 8.09789 5
      vertex 34.6252 8.03543 5
    endloop
  endfacet
  facet normal 0.248753 0.968567 0
    outer loop
      vertex 34.382 8.09789 5
      vertex 34.6252 8.03543 0
      vertex 34.382 8.09789 0
    endloop
  endfacet
  facet normal -0.125328 0.992115 0
    outer loop
      vertex 35.3748 8.03543 0
      vertex 35.1256 8.00395 5
      vertex 35.3748 8.03543 5
    endloop
  endfacet
  facet normal -0.125328 0.992115 0
    outer loop
      vertex 35.1256 8.00395 5
      vertex 35.3748 8.03543 0
      vertex 35.1256 8.00395 0
    endloop
  endfacet
  facet normal -0.248902 -0.968529 0
    outer loop
      vertex 35.3748 11.9646 0
      vertex 35.618 11.9021 5
      vertex 35.3748 11.9646 5
    endloop
  endfacet
  facet normal -0.248902 -0.968529 -0
    outer loop
      vertex 35.618 11.9021 5
      vertex 35.3748 11.9646 0
      vertex 35.618 11.9021 0
    endloop
  endfacet
  facet normal 0.99802 -0.0628987 0
    outer loop
      vertex 33 10 5
      vertex 33.0158 10.2507 0
      vertex 33.0158 10.2507 5
    endloop
  endfacet
  facet normal 0.99802 -0.0628987 0
    outer loop
      vertex 33.0158 10.2507 0
      vertex 33 10 5
      vertex 33 10 0
    endloop
  endfacet
  facet normal 0 1 -0
    outer loop
      vertex 35.1256 8.00395 0
      vertex 34.8744 8.00395 5
      vertex 35.1256 8.00395 5
    endloop
  endfacet
  facet normal 0 1 0
    outer loop
      vertex 34.8744 8.00395 5
      vertex 35.1256 8.00395 0
      vertex 34.8744 8.00395 0
    endloop
  endfacet
  facet normal -0.587966 0.808886 0
    outer loop
      vertex 36.2748 8.45897 0
      vertex 36.0717 8.31134 5
      vertex 36.2748 8.45897 5
    endloop
  endfacet
  facet normal -0.587966 0.808886 0
    outer loop
      vertex 36.0717 8.31134 5
      vertex 36.2748 8.45897 0
      vertex 36.0717 8.31134 0
    endloop
  endfacet
  facet normal -0.368026 0.929816 0
    outer loop
      vertex 35.8516 8.19035 0
      vertex 35.618 8.09789 5
      vertex 35.8516 8.19035 5
    endloop
  endfacet
  facet normal -0.368026 0.929816 0
    outer loop
      vertex 35.618 8.09789 5
      vertex 35.8516 8.19035 0
      vertex 35.618 8.09789 0
    endloop
  endfacet
  facet normal -0.481751 -0.876308 0
    outer loop
      vertex 35.8516 11.8097 0
      vertex 36.0717 11.6887 5
      vertex 35.8516 11.8097 5
    endloop
  endfacet
  facet normal -0.481751 -0.876308 -0
    outer loop
      vertex 36.0717 11.6887 5
      vertex 35.8516 11.8097 0
      vertex 36.0717 11.6887 0
    endloop
  endfacet
  facet normal -0.844287 0.535891 0
    outer loop
      vertex 36.618 8.82443 0
      vertex 36.7526 9.03649 5
      vertex 36.7526 9.03649 0
    endloop
  endfacet
  facet normal -0.844287 0.535891 0
    outer loop
      vertex 36.7526 9.03649 5
      vertex 36.618 8.82443 0
      vertex 36.618 8.82443 5
    endloop
  endfacet
  facet normal 0.368026 0.929816 -0
    outer loop
      vertex 34.382 8.09789 0
      vertex 34.1484 8.19035 5
      vertex 34.382 8.09789 5
    endloop
  endfacet
  facet normal 0.368026 0.929816 0
    outer loop
      vertex 34.1484 8.19035 5
      vertex 34.382 8.09789 0
      vertex 34.1484 8.19035 0
    endloop
  endfacet
  facet normal 0.982333 0.187141 0
    outer loop
      vertex 33.0628 9.50262 5
      vertex 33.0158 9.74933 0
      vertex 33.0158 9.74933 5
    endloop
  endfacet
  facet normal 0.982333 0.187141 0
    outer loop
      vertex 33.0158 9.74933 0
      vertex 33.0628 9.50262 5
      vertex 33.0628 9.50262 0
    endloop
  endfacet
  facet normal -0.904736 0.425973 0
    outer loop
      vertex 36.7526 9.03649 0
      vertex 36.8596 9.26375 5
      vertex 36.8596 9.26375 0
    endloop
  endfacet
  facet normal -0.904736 0.425973 0
    outer loop
      vertex 36.8596 9.26375 5
      vertex 36.7526 9.03649 0
      vertex 36.7526 9.03649 5
    endloop
  endfacet
  facet normal 0 -1 0
    outer loop
      vertex 34.8744 11.9961 0
      vertex 35.1256 11.9961 5
      vertex 34.8744 11.9961 5
    endloop
  endfacet
  facet normal 0 -1 -0
    outer loop
      vertex 35.1256 11.9961 5
      vertex 34.8744 11.9961 0
      vertex 35.1256 11.9961 0
    endloop
  endfacet
  facet normal -0.982333 0.187141 0
    outer loop
      vertex 36.9372 9.50262 0
      vertex 36.9842 9.74933 5
      vertex 36.9842 9.74933 0
    endloop
  endfacet
  facet normal -0.982333 0.187141 0
    outer loop
      vertex 36.9842 9.74933 5
      vertex 36.9372 9.50262 0
      vertex 36.9372 9.50262 5
    endloop
  endfacet
  facet normal 0.588148 -0.808753 0
    outer loop
      vertex 33.7252 11.541 0
      vertex 33.9283 11.6887 5
      vertex 33.7252 11.541 5
    endloop
  endfacet
  facet normal 0.588148 -0.808753 0
    outer loop
      vertex 33.9283 11.6887 5
      vertex 33.7252 11.541 0
      vertex 33.9283 11.6887 0
    endloop
  endfacet
  facet normal 0.951072 0.308968 0
    outer loop
      vertex 33.1404 9.26375 5
      vertex 33.0628 9.50262 0
      vertex 33.0628 9.50262 5
    endloop
  endfacet
  facet normal 0.951072 0.308968 0
    outer loop
      vertex 33.0628 9.50262 0
      vertex 33.1404 9.26375 5
      vertex 33.1404 9.26375 0
    endloop
  endfacet
  facet normal -0.125407 -0.992105 0
    outer loop
      vertex 35.1256 11.9961 0
      vertex 35.3748 11.9646 5
      vertex 35.1256 11.9961 5
    endloop
  endfacet
  facet normal -0.125407 -0.992105 -0
    outer loop
      vertex 35.3748 11.9646 5
      vertex 35.1256 11.9961 0
      vertex 35.3748 11.9646 0
    endloop
  endfacet
  facet normal -0.951046 -0.30905 0
    outer loop
      vertex 36.9372 10.4974 0
      vertex 36.8596 10.7362 5
      vertex 36.8596 10.7362 0
    endloop
  endfacet
  facet normal -0.951046 -0.30905 0
    outer loop
      vertex 36.8596 10.7362 5
      vertex 36.9372 10.4974 0
      vertex 36.9372 10.4974 5
    endloop
  endfacet
  facet normal -0.770501 0.637439 0
    outer loop
      vertex 36.4579 8.63091 0
      vertex 36.618 8.82443 5
      vertex 36.618 8.82443 0
    endloop
  endfacet
  facet normal -0.770501 0.637439 0
    outer loop
      vertex 36.618 8.82443 5
      vertex 36.4579 8.63091 0
      vertex 36.4579 8.63091 5
    endloop
  endfacet
  facet normal -0.904765 -0.425912 0
    outer loop
      vertex 36.8596 10.7362 0
      vertex 36.7526 10.9635 5
      vertex 36.7526 10.9635 0
    endloop
  endfacet
  facet normal -0.904765 -0.425912 0
    outer loop
      vertex 36.7526 10.9635 5
      vertex 36.8596 10.7362 0
      vertex 36.8596 10.7362 5
    endloop
  endfacet
  facet normal 0.587966 0.808886 -0
    outer loop
      vertex 33.9283 8.31134 0
      vertex 33.7252 8.45897 5
      vertex 33.9283 8.31134 5
    endloop
  endfacet
  facet normal 0.587966 0.808886 0
    outer loop
      vertex 33.7252 8.45897 5
      vertex 33.9283 8.31134 0
      vertex 33.7252 8.45897 0
    endloop
  endfacet
  facet normal 0.844287 0.535891 0
    outer loop
      vertex 33.382 8.82443 5
      vertex 33.2474 9.03649 0
      vertex 33.2474 9.03649 5
    endloop
  endfacet
  facet normal 0.844287 0.535891 0
    outer loop
      vertex 33.2474 9.03649 0
      vertex 33.382 8.82443 5
      vertex 33.382 8.82443 0
    endloop
  endfacet
  facet normal 0.770501 0.637439 0
    outer loop
      vertex 33.5421 8.63091 5
      vertex 33.382 8.82443 0
      vertex 33.382 8.82443 5
    endloop
  endfacet
  facet normal 0.770501 0.637439 0
    outer loop
      vertex 33.382 8.82443 0
      vertex 33.5421 8.63091 5
      vertex 33.5421 8.63091 0
    endloop
  endfacet
  facet normal 0.998019 0.0629062 0
    outer loop
      vertex 33.0158 9.74933 5
      vertex 33 10 0
      vertex 33 10 5
    endloop
  endfacet
  facet normal 0.998019 0.0629062 0
    outer loop
      vertex 33 10 0
      vertex 33.0158 9.74933 5
      vertex 33.0158 9.74933 0
    endloop
  endfacet
  facet normal 0.904736 0.425973 0
    outer loop
      vertex 33.2474 9.03649 5
      vertex 33.1404 9.26375 0
      vertex 33.1404 9.26375 5
    endloop
  endfacet
  facet normal 0.904736 0.425973 0
    outer loop
      vertex 33.1404 9.26375 0
      vertex 33.2474 9.03649 5
      vertex 33.2474 9.03649 0
    endloop
  endfacet
  facet normal 0.904765 -0.425912 0
    outer loop
      vertex 33.1404 10.7362 5
      vertex 33.2474 10.9635 0
      vertex 33.2474 10.9635 5
    endloop
  endfacet
  facet normal 0.904765 -0.425912 0
    outer loop
      vertex 33.2474 10.9635 0
      vertex 33.1404 10.7362 5
      vertex 33.1404 10.7362 0
    endloop
  endfacet
  facet normal 0.125328 0.992115 -0
    outer loop
      vertex 34.8744 8.00395 0
      vertex 34.6252 8.03543 5
      vertex 34.8744 8.00395 5
    endloop
  endfacet
  facet normal 0.125328 0.992115 0
    outer loop
      vertex 34.6252 8.03543 5
      vertex 34.8744 8.00395 0
      vertex 34.6252 8.03543 0
    endloop
  endfacet
endsolid OpenSCAD_Model
