solid OpenSCAD_Model
  facet normal 0.995185 0.0980187 0
    outer loop
      vertex 10 0 100
      vertex 9.80785 1.9509 0
      vertex 9.80785 1.9509 100
    endloop
  endfacet
  facet normal 0.995185 0.0980187 0
    outer loop
      vertex 9.80785 1.9509 0
      vertex 10 0 100
      vertex 10 0 0
    endloop
  endfacet
  facet normal 0.956941 0.290281 0
    outer loop
      vertex 9.80785 1.9509 100
      vertex 9.2388 3.82683 0
      vertex 9.2388 3.82683 100
    endloop
  endfacet
  facet normal 0.956941 0.290281 0
    outer loop
      vertex 9.2388 3.82683 0
      vertex 9.80785 1.9509 100
      vertex 9.80785 1.9509 0
    endloop
  endfacet
  facet normal 0.881921 0.471397 0
    outer loop
      vertex 9.2388 3.82683 100
      vertex 8.3147 5.5557 0
      vertex 8.3147 5.5557 100
    endloop
  endfacet
  facet normal 0.881921 0.471397 0
    outer loop
      vertex 8.3147 5.5557 0
      vertex 9.2388 3.82683 100
      vertex 9.2388 3.82683 0
    endloop
  endfacet
  facet normal 0.773011 0.634393 0
    outer loop
      vertex 8.3147 5.5557 100
      vertex 7.07107 7.07107 0
      vertex 7.07107 7.07107 100
    endloop
  endfacet
  facet normal 0.773011 0.634393 0
    outer loop
      vertex 7.07107 7.07107 0
      vertex 8.3147 5.5557 100
      vertex 8.3147 5.5557 0
    endloop
  endfacet
  facet normal 0.634393 0.773011 -0
    outer loop
      vertex 7.07107 7.07107 0
      vertex 5.5557 8.3147 100
      vertex 7.07107 7.07107 100
    endloop
  endfacet
  facet normal 0.634393 0.773011 0
    outer loop
      vertex 5.5557 8.3147 100
      vertex 7.07107 7.07107 0
      vertex 5.5557 8.3147 0
    endloop
  endfacet
  facet normal 0.471397 0.881921 -0
    outer loop
      vertex 5.5557 8.3147 0
      vertex 3.82683 9.2388 100
      vertex 5.5557 8.3147 100
    endloop
  endfacet
  facet normal 0.471397 0.881921 0
    outer loop
      vertex 3.82683 9.2388 100
      vertex 5.5557 8.3147 0
      vertex 3.82683 9.2388 0
    endloop
  endfacet
  facet normal 0.290281 0.956941 -0
    outer loop
      vertex 3.82683 9.2388 0
      vertex 1.9509 9.80785 100
      vertex 3.82683 9.2388 100
    endloop
  endfacet
  facet normal 0.290281 0.956941 0
    outer loop
      vertex 1.9509 9.80785 100
      vertex 3.82683 9.2388 0
      vertex 1.9509 9.80785 0
    endloop
  endfacet
  facet normal 0.0980187 0.995185 -0
    outer loop
      vertex 1.9509 9.80785 0
      vertex 0 10 100
      vertex 1.9509 9.80785 100
    endloop
  endfacet
  facet normal 0.0980187 0.995185 0
    outer loop
      vertex 0 10 100
      vertex 1.9509 9.80785 0
      vertex 0 10 0
    endloop
  endfacet
  facet normal -0.0980187 0.995185 0
    outer loop
      vertex 0 10 0
      vertex -1.9509 9.80785 100
      vertex 0 10 100
    endloop
  endfacet
  facet normal -0.0980187 0.995185 0
    outer loop
      vertex -1.9509 9.80785 100
      vertex 0 10 0
      vertex -1.9509 9.80785 0
    endloop
  endfacet
  facet normal -0.290281 0.956941 0
    outer loop
      vertex -1.9509 9.80785 0
      vertex -3.82683 9.2388 100
      vertex -1.9509 9.80785 100
    endloop
  endfacet
  facet normal -0.290281 0.956941 0
    outer loop
      vertex -3.82683 9.2388 100
      vertex -1.9509 9.80785 0
      vertex -3.82683 9.2388 0
    endloop
  endfacet
  facet normal -0.471397 0.881921 0
    outer loop
      vertex -3.82683 9.2388 0
      vertex -5.5557 8.3147 100
      vertex -3.82683 9.2388 100
    endloop
  endfacet
  facet normal -0.471397 0.881921 0
    outer loop
      vertex -5.5557 8.3147 100
      vertex -3.82683 9.2388 0
      vertex -5.5557 8.3147 0
    endloop
  endfacet
  facet normal -0.634393 0.773011 0
    outer loop
      vertex -5.5557 8.3147 0
      vertex -7.07107 7.07107 100
      vertex -5.5557 8.3147 100
    endloop
  endfacet
  facet normal -0.634393 0.773011 0
    outer loop
      vertex -7.07107 7.07107 100
      vertex -5.5557 8.3147 0
      vertex -7.07107 7.07107 0
    endloop
  endfacet
  facet normal -0.773011 0.634393 0
    outer loop
      vertex -8.3147 5.5557 0
      vertex -7.07107 7.07107 100
      vertex -7.07107 7.07107 0
    endloop
  endfacet
  facet normal -0.773011 0.634393 0
    outer loop
      vertex -7.07107 7.07107 100
      vertex -8.3147 5.5557 0
      vertex -8.3147 5.5557 100
    endloop
  endfacet
  facet normal -0.881921 0.471397 0
    outer loop
      vertex -9.2388 3.82683 0
      vertex -8.3147 5.5557 100
      vertex -8.3147 5.5557 0
    endloop
  endfacet
  facet normal -0.881921 0.471397 0
    outer loop
      vertex -8.3147 5.5557 100
      vertex -9.2388 3.82683 0
      vertex -9.2388 3.82683 100
    endloop
  endfacet
  facet normal -0.956941 0.290281 0
    outer loop
      vertex -9.80785 1.9509 0
      vertex -9.2388 3.82683 100
      vertex -9.2388 3.82683 0
    endloop
  endfacet
  facet normal -0.956941 0.290281 0
    outer loop
      vertex -9.2388 3.82683 100
      vertex -9.80785 1.9509 0
      vertex -9.80785 1.9509 100
    endloop
  endfacet
  facet normal -0.995185 0.0980187 0
    outer loop
      vertex -10 -0 0
      vertex -9.80785 1.9509 100
      vertex -9.80785 1.9509 0
    endloop
  endfacet
  facet normal -0.995185 0.0980187 0
    outer loop
      vertex -9.80785 1.9509 100
      vertex -10 -0 0
      vertex -10 -0 100
    endloop
  endfacet
  facet normal -0.995185 -0.0980187 0
    outer loop
      vertex -9.80785 -1.9509 0
      vertex -10 -0 100
      vertex -10 -0 0
    endloop
  endfacet
  facet normal -0.995185 -0.0980187 0
    outer loop
      vertex -10 -0 100
      vertex -9.80785 -1.9509 0
      vertex -9.80785 -1.9509 100
    endloop
  endfacet
  facet normal -0.956941 -0.290281 0
    outer loop
      vertex -9.2388 -3.82683 0
      vertex -9.80785 -1.9509 100
      vertex -9.80785 -1.9509 0
    endloop
  endfacet
  facet normal -0.956941 -0.290281 0
    outer loop
      vertex -9.80785 -1.9509 100
      vertex -9.2388 -3.82683 0
      vertex -9.2388 -3.82683 100
    endloop
  endfacet
  facet normal -0.881921 -0.471397 0
    outer loop
      vertex -8.3147 -5.5557 0
      vertex -9.2388 -3.82683 100
      vertex -9.2388 -3.82683 0
    endloop
  endfacet
  facet normal -0.881921 -0.471397 0
    outer loop
      vertex -9.2388 -3.82683 100
      vertex -8.3147 -5.5557 0
      vertex -8.3147 -5.5557 100
    endloop
  endfacet
  facet normal -0.773011 -0.634393 0
    outer loop
      vertex -7.07107 -7.07107 0
      vertex -8.3147 -5.5557 100
      vertex -8.3147 -5.5557 0
    endloop
  endfacet
  facet normal -0.773011 -0.634393 0
    outer loop
      vertex -8.3147 -5.5557 100
      vertex -7.07107 -7.07107 0
      vertex -7.07107 -7.07107 100
    endloop
  endfacet
  facet normal -0.634393 -0.773011 0
    outer loop
      vertex -7.07107 -7.07107 0
      vertex -5.5557 -8.3147 100
      vertex -7.07107 -7.07107 100
    endloop
  endfacet
  facet normal -0.634393 -0.773011 -0
    outer loop
      vertex -5.5557 -8.3147 100
      vertex -7.07107 -7.07107 0
      vertex -5.5557 -8.3147 0
    endloop
  endfacet
  facet normal -0.471397 -0.881921 0
    outer loop
      vertex -5.5557 -8.3147 0
      vertex -3.82683 -9.2388 100
      vertex -5.5557 -8.3147 100
    endloop
  endfacet
  facet normal -0.471397 -0.881921 -0
    outer loop
      vertex -3.82683 -9.2388 100
      vertex -5.5557 -8.3147 0
      vertex -3.82683 -9.2388 0
    endloop
  endfacet
  facet normal -0.290281 -0.956941 0
    outer loop
      vertex -3.82683 -9.2388 0
      vertex -1.9509 -9.80785 100
      vertex -3.82683 -9.2388 100
    endloop
  endfacet
  facet normal -0.290281 -0.956941 -0
    outer loop
      vertex -1.9509 -9.80785 100
      vertex -3.82683 -9.2388 0
      vertex -1.9509 -9.80785 0
    endloop
  endfacet
  facet normal -0.0980187 -0.995185 0
    outer loop
      vertex -1.9509 -9.80785 0
      vertex -0 -10 100
      vertex -1.9509 -9.80785 100
    endloop
  endfacet
  facet normal -0.0980187 -0.995185 -0
    outer loop
      vertex -0 -10 100
      vertex -1.9509 -9.80785 0
      vertex -0 -10 0
    endloop
  endfacet
  facet normal 0.0980187 -0.995185 0
    outer loop
      vertex -0 -10 0
      vertex 1.9509 -9.80785 100
      vertex -0 -10 100
    endloop
  endfacet
  facet normal 0.0980187 -0.995185 0
    outer loop
      vertex 1.9509 -9.80785 100
      vertex -0 -10 0
      vertex 1.9509 -9.80785 0
    endloop
  endfacet
  facet normal 0.290281 -0.956941 0
    outer loop
      vertex 1.9509 -9.80785 0
      vertex 3.82683 -9.2388 100
      vertex 1.9509 -9.80785 100
    endloop
  endfacet
  facet normal 0.290281 -0.956941 0
    outer loop
      vertex 3.82683 -9.2388 100
      vertex 1.9509 -9.80785 0
      vertex 3.82683 -9.2388 0
    endloop
  endfacet
  facet normal 0.471397 -0.881921 0
    outer loop
      vertex 3.82683 -9.2388 0
      vertex 5.5557 -8.3147 100
      vertex 3.82683 -9.2388 100
    endloop
  endfacet
  facet normal 0.471397 -0.881921 0
    outer loop
      vertex 5.5557 -8.3147 100
      vertex 3.82683 -9.2388 0
      vertex 5.5557 -8.3147 0
    endloop
  endfacet
  facet normal 0.634393 -0.773011 0
    outer loop
      vertex 5.5557 -8.3147 0
      vertex 7.07107 -7.07107 100
      vertex 5.5557 -8.3147 100
    endloop
  endfacet
  facet normal 0.634393 -0.773011 0
    outer loop
      vertex 7.07107 -7.07107 100
      vertex 5.5557 -8.3147 0
      vertex 7.07107 -7.07107 0
    endloop
  endfacet
  facet normal 0.773011 -0.634393 0
    outer loop
      vertex 7.07107 -7.07107 100
      vertex 8.3147 -5.5557 0
      vertex 8.3147 -5.5557 100
    endloop
  endfacet
  facet normal 0.773011 -0.634393 0
    outer loop
      vertex 8.3147 -5.5557 0
      vertex 7.07107 -7.07107 100
      vertex 7.07107 -7.07107 0
    endloop
  endfacet
  facet normal 0.881921 -0.471397 0
    outer loop
      vertex 8.3147 -5.5557 100
      vertex 9.2388 -3.82683 0
      vertex 9.2388 -3.82683 100
    endloop
  endfacet
  facet normal 0.881921 -0.471397 0
    outer loop
      vertex 9.2388 -3.82683 0
      vertex 8.3147 -5.5557 100
      vertex 8.3147 -5.5557 0
    endloop
  endfacet
  facet normal 0.956941 -0.290281 0
    outer loop
      vertex 9.2388 -3.82683 100
      vertex 9.80785 -1.9509 0
      vertex 9.80785 -1.9509 100
    endloop
  endfacet
  facet normal 0.956941 -0.290281 0
    outer loop
      vertex 9.80785 -1.9509 0
      vertex 9.2388 -3.82683 100
      vertex 9.2388 -3.82683 0
    endloop
  endfacet
  facet normal 0.995185 -0.0980187 0
    outer loop
      vertex 9.80785 -1.9509 100
      vertex 10 0 0
      vertex 10 0 100
    endloop
  endfacet
  facet normal 0.995185 -0.0980187 0
    outer loop
      vertex 10 0 0
      vertex 9.80785 -1.9509 100
      vertex 9.80785 -1.9509 0
    endloop
  endfacet
  facet normal 0 0 -1
    outer loop
      vertex 9.80785 -1.9509 0
      vertex 9.80785 1.9509 0
      vertex 10 0 0
    endloop
  endfacet
  facet normal 0 0 -1
    outer loop
      vertex 9.2388 -3.82683 0
      vertex 9.80785 1.9509 0
      vertex 9.80785 -1.9509 0
    endloop
  endfacet
  facet normal 0 0 -1
    outer loop
      vertex 9.2388 -3.82683 0
      vertex 9.2388 3.82683 0
      vertex 9.80785 1.9509 0
    endloop
  endfacet
  facet normal 0 0 -1
    outer loop
      vertex 8.3147 -5.5557 0
      vertex 9.2388 3.82683 0
      vertex 9.2388 -3.82683 0
    endloop
  endfacet
  facet normal 0 0 -1
    outer loop
      vertex 8.3147 -5.5557 0
      vertex 8.3147 5.5557 0
      vertex 9.2388 3.82683 0
    endloop
  endfacet
  facet normal 0 0 -1
    outer loop
      vertex 7.07107 -7.07107 0
      vertex 8.3147 5.5557 0
      vertex 8.3147 -5.5557 0
    endloop
  endfacet
  facet normal 0 0 -1
    outer loop
      vertex 7.07107 -7.07107 0
      vertex 7.07107 7.07107 0
      vertex 8.3147 5.5557 0
    endloop
  endfacet
  facet normal 0 0 -1
    outer loop
      vertex 5.5557 -8.3147 0
      vertex 7.07107 7.07107 0
      vertex 7.07107 -7.07107 0
    endloop
  endfacet
  facet normal 0 0 -1
    outer loop
      vertex 5.5557 -8.3147 0
      vertex 5.5557 8.3147 0
      vertex 7.07107 7.07107 0
    endloop
  endfacet
  facet normal 0 0 -1
    outer loop
      vertex 3.82683 -9.2388 0
      vertex 5.5557 8.3147 0
      vertex 5.5557 -8.3147 0
    endloop
  endfacet
  facet normal 0 0 -1
    outer loop
      vertex 3.82683 -9.2388 0
      vertex 3.82683 9.2388 0
      vertex 5.5557 8.3147 0
    endloop
  endfacet
  facet normal 0 0 -1
    outer loop
      vertex 1.9509 -9.80785 0
      vertex 3.82683 9.2388 0
      vertex 3.82683 -9.2388 0
    endloop
  endfacet
  facet normal 0 0 -1
    outer loop
      vertex 1.9509 -9.80785 0
      vertex 1.9509 9.80785 0
      vertex 3.82683 9.2388 0
    endloop
  endfacet
  facet normal 0 0 -1
    outer loop
      vertex -0 -10 0
      vertex 1.9509 9.80785 0
      vertex 1.9509 -9.80785 0
    endloop
  endfacet
  facet normal 0 0 -1
    outer loop
      vertex -0 -10 0
      vertex 0 10 0
      vertex 1.9509 9.80785 0
    endloop
  endfacet
  facet normal 0 0 -1
    outer loop
      vertex -1.9509 -9.80785 0
      vertex 0 10 0
      vertex -0 -10 0
    endloop
  endfacet
  facet normal 0 0 -1
    outer loop
      vertex -1.9509 -9.80785 0
      vertex -1.9509 9.80785 0
      vertex 0 10 0
    endloop
  endfacet
  facet normal 0 0 -1
    outer loop
      vertex -3.82683 -9.2388 0
      vertex -1.9509 9.80785 0
      vertex -1.9509 -9.80785 0
    endloop
  endfacet
  facet normal 0 0 -1
    outer loop
      vertex -3.82683 -9.2388 0
      vertex -3.82683 9.2388 0
      vertex -1.9509 9.80785 0
    endloop
  endfacet
  facet normal 0 0 -1
    outer loop
      vertex -5.5557 -8.3147 0
      vertex -3.82683 9.2388 0
      vertex -3.82683 -9.2388 0
    endloop
  endfacet
  facet normal 0 0 -1
    outer loop
      vertex -5.5557 -8.3147 0
      vertex -5.5557 8.3147 0
      vertex -3.82683 9.2388 0
    endloop
  endfacet
  facet normal 0 0 -1
    outer loop
      vertex -7.07107 -7.07107 0
      vertex -5.5557 8.3147 0
      vertex -5.5557 -8.3147 0
    endloop
  endfacet
  facet normal 0 0 -1
    outer loop
      vertex -7.07107 -7.07107 0
      vertex -7.07107 7.07107 0
      vertex -5.5557 8.3147 0
    endloop
  endfacet
  facet normal 0 0 -1
    outer loop
      vertex -8.3147 -5.5557 0
      vertex -7.07107 7.07107 0
      vertex -7.07107 -7.07107 0
    endloop
  endfacet
  facet normal 0 0 -1
    outer loop
      vertex -8.3147 -5.5557 0
      vertex -8.3147 5.5557 0
      vertex -7.07107 7.07107 0
    endloop
  endfacet
  facet normal 0 0 -1
    outer loop
      vertex -9.2388 -3.82683 0
      vertex -8.3147 5.5557 0
      vertex -8.3147 -5.5557 0
    endloop
  endfacet
  facet normal 0 0 -1
    outer loop
      vertex -9.2388 -3.82683 0
      vertex -9.2388 3.82683 0
      vertex -8.3147 5.5557 0
    endloop
  endfacet
  facet normal 0 0 -1
    outer loop
      vertex -9.80785 -1.9509 0
      vertex -9.2388 3.82683 0
      vertex -9.2388 -3.82683 0
    endloop
  endfacet
  facet normal 0 0 -1
    outer loop
      vertex -9.80785 -1.9509 0
      vertex -9.80785 1.9509 0
      vertex -9.2388 3.82683 0
    endloop
  endfacet
  facet normal 0 -0 -1
    outer loop
      vertex -9.80785 1.9509 0
      vertex -9.80785 -1.9509 0
      vertex -10 -0 0
    endloop
  endfacet
  facet normal 0 0 1
    outer loop
      vertex 9.80785 1.9509 100
      vertex 9.80785 -1.9509 100
      vertex 10 0 100
    endloop
  endfacet
  facet normal 0 0 1
    outer loop
      vertex 9.2388 3.82683 100
      vertex 9.80785 -1.9509 100
      vertex 9.80785 1.9509 100
    endloop
  endfacet
  facet normal 0 0 1
    outer loop
      vertex 9.2388 3.82683 100
      vertex 9.2388 -3.82683 100
      vertex 9.80785 -1.9509 100
    endloop
  endfacet
  facet normal 0 0 1
    outer loop
      vertex 8.3147 5.5557 100
      vertex 9.2388 -3.82683 100
      vertex 9.2388 3.82683 100
    endloop
  endfacet
  facet normal 0 0 1
    outer loop
      vertex 8.3147 5.5557 100
      vertex 8.3147 -5.5557 100
      vertex 9.2388 -3.82683 100
    endloop
  endfacet
  facet normal 0 0 1
    outer loop
      vertex 7.07107 7.07107 100
      vertex 8.3147 -5.5557 100
      vertex 8.3147 5.5557 100
    endloop
  endfacet
  facet normal 0 0 1
    outer loop
      vertex 7.07107 7.07107 100
      vertex 7.07107 -7.07107 100
      vertex 8.3147 -5.5557 100
    endloop
  endfacet
  facet normal 0 0 1
    outer loop
      vertex 5.5557 8.3147 100
      vertex 7.07107 -7.07107 100
      vertex 7.07107 7.07107 100
    endloop
  endfacet
  facet normal 0 0 1
    outer loop
      vertex 5.5557 8.3147 100
      vertex 5.5557 -8.3147 100
      vertex 7.07107 -7.07107 100
    endloop
  endfacet
  facet normal 0 0 1
    outer loop
      vertex 3.82683 9.2388 100
      vertex 5.5557 -8.3147 100
      vertex 5.5557 8.3147 100
    endloop
  endfacet
  facet normal 0 0 1
    outer loop
      vertex 3.82683 9.2388 100
      vertex 3.82683 -9.2388 100
      vertex 5.5557 -8.3147 100
    endloop
  endfacet
  facet normal 0 0 1
    outer loop
      vertex 1.9509 9.80785 100
      vertex 3.82683 -9.2388 100
      vertex 3.82683 9.2388 100
    endloop
  endfacet
  facet normal 0 0 1
    outer loop
      vertex 1.9509 9.80785 100
      vertex 1.9509 -9.80785 100
      vertex 3.82683 -9.2388 100
    endloop
  endfacet
  facet normal 0 0 1
    outer loop
      vertex 0 10 100
      vertex 1.9509 -9.80785 100
      vertex 1.9509 9.80785 100
    endloop
  endfacet
  facet normal 0 0 1
    outer loop
      vertex 0 10 100
      vertex -0 -10 100
      vertex 1.9509 -9.80785 100
    endloop
  endfacet
  facet normal -0 0 1
    outer loop
      vertex -1.9509 9.80785 100
      vertex -0 -10 100
      vertex 0 10 100
    endloop
  endfacet
  facet normal 0 0 1
    outer loop
      vertex -1.9509 9.80785 100
      vertex -1.9509 -9.80785 100
      vertex -0 -10 100
    endloop
  endfacet
  facet normal -0 0 1
    outer loop
      vertex -3.82683 9.2388 100
      vertex -1.9509 -9.80785 100
      vertex -1.9509 9.80785 100
    endloop
  endfacet
  facet normal 0 0 1
    outer loop
      vertex -3.82683 9.2388 100
      vertex -3.82683 -9.2388 100
      vertex -1.9509 -9.80785 100
    endloop
  endfacet
  facet normal -0 0 1
    outer loop
      vertex -5.5557 8.3147 100
      vertex -3.82683 -9.2388 100
      vertex -3.82683 9.2388 100
    endloop
  endfacet
  facet normal 0 0 1
    outer loop
      vertex -5.5557 8.3147 100
      vertex -5.5557 -8.3147 100
      vertex -3.82683 -9.2388 100
    endloop
  endfacet
  facet normal -0 0 1
    outer loop
      vertex -7.07107 7.07107 100
      vertex -5.5557 -8.3147 100
      vertex -5.5557 8.3147 100
    endloop
  endfacet
  facet normal 0 0 1
    outer loop
      vertex -7.07107 7.07107 100
      vertex -7.07107 -7.07107 100
      vertex -5.5557 -8.3147 100
    endloop
  endfacet
  facet normal -0 0 1
    outer loop
      vertex -8.3147 5.5557 100
      vertex -7.07107 -7.07107 100
      vertex -7.07107 7.07107 100
    endloop
  endfacet
  facet normal 0 0 1
    outer loop
      vertex -8.3147 5.5557 100
      vertex -8.3147 -5.5557 100
      vertex -7.07107 -7.07107 100
    endloop
  endfacet
  facet normal -0 0 1
    outer loop
      vertex -9.2388 3.82683 100
      vertex -8.3147 -5.5557 100
      vertex -8.3147 5.5557 100
    endloop
  endfacet
  facet normal 0 0 1
    outer loop
      vertex -9.2388 3.82683 100
      vertex -9.2388 -3.82683 100
      vertex -8.3147 -5.5557 100
    endloop
  endfacet
  facet normal -0 0 1
    outer loop
      vertex -9.80785 1.9509 100
      vertex -9.2388 -3.82683 100
      vertex -9.2388 3.82683 100
    endloop
  endfacet
  facet normal 0 0 1
    outer loop
      vertex -9.80785 1.9509 100
      vertex -9.80785 -1.9509 100
      vertex -9.2388 -3.82683 100
    endloop
  endfacet
  facet normal 0 -0 1
    outer loop
      vertex -9.80785 -1.9509 100
      vertex -9.80785 1.9509 100
      vertex -10 -0 100
    endloop
  endfacet
endsolid OpenSCAD_Model
