solid OpenSCAD_Model
  facet normal -0.95694 -0.290286 0
    outer loop
      vertex 24.0292 4.77971 0
      vertex 22.635 9.37574 10
      vertex 22.635 9.37574 0
    endloop
  endfacet
  facet normal -0.95694 -0.290286 0
    outer loop
      vertex 22.635 9.37574 10
      vertex 24.0292 4.77971 0
      vertex 24.0292 4.77971 10
    endloop
  endfacet
  facet normal -0.995184 -0.0980253 0
    outer loop
      vertex 24.5 0 0
      vertex 24.0292 4.77971 10
      vertex 24.0292 4.77971 0
    endloop
  endfacet
  facet normal -0.995184 -0.0980253 0
    outer loop
      vertex 24.0292 4.77971 10
      vertex 24.5 0 0
      vertex 24.5 0 10
    endloop
  endfacet
  facet normal -0.881927 -0.471387 0
    outer loop
      vertex 22.635 9.37574 0
      vertex 20.371 13.6115 10
      vertex 20.371 13.6115 0
    endloop
  endfacet
  facet normal -0.881927 -0.471387 0
    outer loop
      vertex 20.371 13.6115 10
      vertex 22.635 9.37574 0
      vertex 22.635 9.37574 10
    endloop
  endfacet
  facet normal -0.634399 -0.773006 0
    outer loop
      vertex 13.6115 20.371 0
      vertex 17.3241 17.3241 10
      vertex 13.6115 20.371 10
    endloop
  endfacet
  facet normal -0.634399 -0.773006 -0
    outer loop
      vertex 17.3241 17.3241 10
      vertex 13.6115 20.371 0
      vertex 17.3241 17.3241 0
    endloop
  endfacet
  facet normal -0.290286 -0.95694 0
    outer loop
      vertex 4.77971 24.0292 0
      vertex 9.37574 22.635 10
      vertex 4.77971 24.0292 10
    endloop
  endfacet
  facet normal -0.290286 -0.95694 -0
    outer loop
      vertex 9.37574 22.635 10
      vertex 4.77971 24.0292 0
      vertex 9.37574 22.635 0
    endloop
  endfacet
  facet normal -0.773006 -0.634399 0
    outer loop
      vertex 20.371 13.6115 0
      vertex 17.3241 17.3241 10
      vertex 17.3241 17.3241 0
    endloop
  endfacet
  facet normal -0.773006 -0.634399 0
    outer loop
      vertex 17.3241 17.3241 10
      vertex 20.371 13.6115 0
      vertex 20.371 13.6115 10
    endloop
  endfacet
  facet normal -0.0980253 -0.995184 0
    outer loop
      vertex 0 24.5 0
      vertex 4.77971 24.0292 10
      vertex 0 24.5 10
    endloop
  endfacet
  facet normal -0.0980253 -0.995184 -0
    outer loop
      vertex 4.77971 24.0292 10
      vertex 0 24.5 0
      vertex 4.77971 24.0292 0
    endloop
  endfacet
  facet normal -0 0 1
    outer loop
      vertex 22.635 9.37574 10
      vertex 50 0 10
      vertex 50 30 10
    endloop
  endfacet
  facet normal 0 0 1
    outer loop
      vertex 50 0 10
      vertex 24.0292 4.77971 10
      vertex 24.5 0 10
    endloop
  endfacet
  facet normal 0 0 1
    outer loop
      vertex 50 0 10
      vertex 22.635 9.37574 10
      vertex 24.0292 4.77971 10
    endloop
  endfacet
  facet normal 0 0 1
    outer loop
      vertex 50 30 10
      vertex 20.371 13.6115 10
      vertex 22.635 9.37574 10
    endloop
  endfacet
  facet normal 0 0 1
    outer loop
      vertex 50 30 10
      vertex 17.3241 17.3241 10
      vertex 20.371 13.6115 10
    endloop
  endfacet
  facet normal 0 0 1
    outer loop
      vertex 50 30 10
      vertex 13.6115 20.371 10
      vertex 17.3241 17.3241 10
    endloop
  endfacet
  facet normal 0 0 1
    outer loop
      vertex 50 30 10
      vertex 9.37574 22.635 10
      vertex 13.6115 20.371 10
    endloop
  endfacet
  facet normal -0 0 1
    outer loop
      vertex 0 30 10
      vertex 9.37574 22.635 10
      vertex 50 30 10
    endloop
  endfacet
  facet normal 0 0 1
    outer loop
      vertex 9.37574 22.635 10
      vertex 0 30 10
      vertex 4.77971 24.0292 10
    endloop
  endfacet
  facet normal 0 0 1
    outer loop
      vertex 4.77971 24.0292 10
      vertex 0 30 10
      vertex 0 24.5 10
    endloop
  endfacet
  facet normal -0.471387 -0.881927 0
    outer loop
      vertex 9.37574 22.635 0
      vertex 13.6115 20.371 10
      vertex 9.37574 22.635 10
    endloop
  endfacet
  facet normal -0.471387 -0.881927 -0
    outer loop
      vertex 13.6115 20.371 10
      vertex 9.37574 22.635 0
      vertex 13.6115 20.371 0
    endloop
  endfacet
  facet normal 0 0 -1
    outer loop
      vertex 24.0292 4.77971 0
      vertex 50 0 0
      vertex 24.5 0 0
    endloop
  endfacet
  facet normal 0 0 -1
    outer loop
      vertex 22.635 9.37574 0
      vertex 50 0 0
      vertex 24.0292 4.77971 0
    endloop
  endfacet
  facet normal 0 0 -1
    outer loop
      vertex 50 0 0
      vertex 22.635 9.37574 0
      vertex 50 30 0
    endloop
  endfacet
  facet normal 0 0 -1
    outer loop
      vertex 20.371 13.6115 0
      vertex 50 30 0
      vertex 22.635 9.37574 0
    endloop
  endfacet
  facet normal 0 0 -1
    outer loop
      vertex 17.3241 17.3241 0
      vertex 50 30 0
      vertex 20.371 13.6115 0
    endloop
  endfacet
  facet normal 0 0 -1
    outer loop
      vertex 13.6115 20.371 0
      vertex 50 30 0
      vertex 17.3241 17.3241 0
    endloop
  endfacet
  facet normal 0 0 -1
    outer loop
      vertex 9.37574 22.635 0
      vertex 50 30 0
      vertex 13.6115 20.371 0
    endloop
  endfacet
  facet normal 0 0 -1
    outer loop
      vertex 0 30 0
      vertex 9.37574 22.635 0
      vertex 4.77971 24.0292 0
    endloop
  endfacet
  facet normal 0 0 -1
    outer loop
      vertex 0 30 0
      vertex 4.77971 24.0292 0
      vertex 0 24.5 0
    endloop
  endfacet
  facet normal 0 0 -1
    outer loop
      vertex 9.37574 22.635 0
      vertex 0 30 0
      vertex 50 30 0
    endloop
  endfacet
  facet normal 1 -0 0
    outer loop
      vertex 50 0 10
      vertex 50 30 0
      vertex 50 30 10
    endloop
  endfacet
  facet normal 1 0 0
    outer loop
      vertex 50 30 0
      vertex 50 0 10
      vertex 50 0 0
    endloop
  endfacet
  facet normal -1 0 0
    outer loop
      vertex 0 24.5 0
      vertex 0 30 10
      vertex 0 30 0
    endloop
  endfacet
  facet normal -1 -0 0
    outer loop
      vertex 0 30 10
      vertex 0 24.5 0
      vertex 0 24.5 10
    endloop
  endfacet
  facet normal 0 1 -0
    outer loop
      vertex 50 30 0
      vertex 0 30 10
      vertex 50 30 10
    endloop
  endfacet
  facet normal 0 1 0
    outer loop
      vertex 0 30 10
      vertex 50 30 0
      vertex 0 30 0
    endloop
  endfacet
  facet normal 0 -1 0
    outer loop
      vertex 24.5 0 0
      vertex 50 0 10
      vertex 24.5 0 10
    endloop
  endfacet
  facet normal 0 -1 -0
    outer loop
      vertex 50 0 10
      vertex 24.5 0 0
      vertex 50 0 0
    endloop
  endfacet
endsolid OpenSCAD_Model
