solid OpenSCAD_Model
  facet normal 1 -0 0
    outer loop
      vertex 50 0 10
      vertex 50 30 0
      vertex 50 30 10
    endloop
  endfacet
  facet normal 1 0 0
    outer loop
      vertex 50 30 0
      vertex 50 0 10
      vertex 50 0 0
    endloop
  endfacet
  facet normal 0 0 1
    outer loop
      vertex 50 30 10
      vertex 48 28 10
      vertex 50 0 10
    endloop
  endfacet
  facet normal 0 0 1
    outer loop
      vertex 50 30 10
      vertex 2 28 10
      vertex 48 28 10
    endloop
  endfacet
  facet normal 0 0 1
    outer loop
      vertex 2 28 10
      vertex 0 30 10
      vertex 2 2 10
    endloop
  endfacet
  facet normal -0 0 1
    outer loop
      vertex 0 30 10
      vertex 2 28 10
      vertex 50 30 10
    endloop
  endfacet
  facet normal -0 0 1
    outer loop
      vertex 48 2 10
      vertex 50 0 10
      vertex 48 28 10
    endloop
  endfacet
  facet normal -0 0 1
    outer loop
      vertex 2 2 10
      vertex 50 0 10
      vertex 48 2 10
    endloop
  endfacet
  facet normal 0 0 1
    outer loop
      vertex 2 2 10
      vertex 0 0 10
      vertex 50 0 10
    endloop
  endfacet
  facet normal 0 0 1
    outer loop
      vertex 0 0 10
      vertex 2 2 10
      vertex 0 30 10
    endloop
  endfacet
  facet normal 0 0 -1
    outer loop
      vertex 50 0 0
      vertex 48 2 0
      vertex 50 30 0
    endloop
  endfacet
  facet normal 0 0 -1
    outer loop
      vertex 50 0 0
      vertex 2 2 0
      vertex 48 2 0
    endloop
  endfacet
  facet normal -0 0 -1
    outer loop
      vertex 2 2 0
      vertex 0 0 0
      vertex 2 28 0
    endloop
  endfacet
  facet normal 0 0 -1
    outer loop
      vertex 0 0 0
      vertex 2 2 0
      vertex 50 0 0
    endloop
  endfacet
  facet normal 0 0 -1
    outer loop
      vertex 48 28 0
      vertex 50 30 0
      vertex 48 2 0
    endloop
  endfacet
  facet normal 0 0 -1
    outer loop
      vertex 2 28 0
      vertex 50 30 0
      vertex 48 28 0
    endloop
  endfacet
  facet normal 0 0 -1
    outer loop
      vertex 2 28 0
      vertex 0 30 0
      vertex 50 30 0
    endloop
  endfacet
  facet normal 0 0 -1
    outer loop
      vertex 0 30 0
      vertex 2 28 0
      vertex 0 0 0
    endloop
  endfacet
  facet normal -1 0 0
    outer loop
      vertex 0 0 0
      vertex 0 30 10
      vertex 0 30 0
    endloop
  endfacet
  facet normal -1 -0 0
    outer loop
      vertex 0 30 10
      vertex 0 0 0
      vertex 0 0 10
    endloop
  endfacet
  facet normal 0 1 -0
    outer loop
      vertex 50 30 0
      vertex 0 30 10
      vertex 50 30 10
    endloop
  endfacet
  facet normal 0 1 0
    outer loop
      vertex 0 30 10
      vertex 50 30 0
      vertex 0 30 0
    endloop
  endfacet
  facet normal 0 -1 0
    outer loop
      vertex 0 0 0
      vertex 50 0 10
      vertex 0 0 10
    endloop
  endfacet
  facet normal 0 -1 -0
    outer loop
      vertex 50 0 10
      vertex 0 0 0
      vertex 50 0 0
    endloop
  endfacet
  facet normal -1 0 0
    outer loop
      vertex 48 2 0
      vertex 48 28 10
      vertex 48 28 0
    endloop
  endfacet
  facet normal -1 -0 0
    outer loop
      vertex 48 28 10
      vertex 48 2 0
      vertex 48 2 10
    endloop
  endfacet
  facet normal 1 -0 0
    outer loop
      vertex 2 2 10
      vertex 2 28 0
      vertex 2 28 10
    endloop
  endfacet
  facet normal 1 0 0
    outer loop
      vertex 2 28 0
      vertex 2 2 10
      vertex 2 2 0
    endloop
  endfacet
  facet normal 0 -1 0
    outer loop
      vertex 2 28 0
      vertex 48 28 10
      vertex 2 28 10
    endloop
  endfacet
  facet normal 0 -1 -0
    outer loop
      vertex 48 28 10
      vertex 2 28 0
      vertex 48 28 0
    endloop
  endfacet
  facet normal 0 1 -0
    outer loop
      vertex 48 2 0
      vertex 2 2 10
      vertex 48 2 10
    endloop
  endfacet
  facet normal 0 1 0
    outer loop
      vertex 2 2 10
      vertex 48 2 0
      vertex 2 2 0
    endloop
  endfacet
endsolid OpenSCAD_Model
