solid OpenSCAD_Model
  facet normal 1 -0 0
    outer loop
      vertex 50 0 30
      vertex 50 40 0
      vertex 50 40 30
    endloop
  endfacet
  facet normal 1 0 0
    outer loop
      vertex 50 40 0
      vertex 50 0 30
      vertex 50 0 0
    endloop
  endfacet
  facet normal -0 0 1
    outer loop
      vertex 0 40 30
      vertex 50 0 30
      vertex 50 40 30
    endloop
  endfacet
  facet normal 0 0 1
    outer loop
      vertex 50 0 30
      vertex 0 40 30
      vertex 0 0 30
    endloop
  endfacet
  facet normal 0 0 -1
    outer loop
      vertex 0 0 0
      vertex 50 40 0
      vertex 50 0 0
    endloop
  endfacet
  facet normal -0 0 -1
    outer loop
      vertex 50 40 0
      vertex 0 0 0
      vertex 0 40 0
    endloop
  endfacet
  facet normal -1 0 0
    outer loop
      vertex 0 0 0
      vertex 0 40 30
      vertex 0 40 0
    endloop
  endfacet
  facet normal -1 -0 0
    outer loop
      vertex 0 40 30
      vertex 0 0 0
      vertex 0 0 30
    endloop
  endfacet
  facet normal 0 1 -0
    outer loop
      vertex 50 40 0
      vertex 0 40 30
      vertex 50 40 30
    endloop
  endfacet
  facet normal 0 1 0
    outer loop
      vertex 0 40 30
      vertex 50 40 0
      vertex 0 40 0
    endloop
  endfacet
  facet normal 0 -1 0
    outer loop
      vertex 0 0 0
      vertex 50 0 30
      vertex 0 0 30
    endloop
  endfacet
  facet normal 0 -1 -0
    outer loop
      vertex 50 0 30
      vertex 0 0 0
      vertex 50 0 0
    endloop
  endfacet
  facet normal 0.336879 0.941548 -0
    outer loop
      vertex 11.3389 6.17224 7.5
      vertex 10.9693 6.30448 12.5
      vertex 11.3389 6.17224 12.5
    endloop
  endfacet
  facet normal 0.336879 0.941548 0
    outer loop
      vertex 10.9693 6.30448 12.5
      vertex 11.3389 6.17224 7.5
      vertex 10.9693 6.30448 7.5
    endloop
  endfacet
  facet normal -0.989176 -0.146733 0
    outer loop
      vertex 16.4807 10.3921 7.5
      vertex 16.4231 10.7804 12.5
      vertex 16.4231 10.7804 7.5
    endloop
  endfacet
  facet normal -0.989176 -0.146733 0
    outer loop
      vertex 16.4231 10.7804 12.5
      vertex 16.4807 10.3921 7.5
      vertex 16.4807 10.3921 12.5
    endloop
  endfacet
  facet normal -0.998791 -0.0491626 0
    outer loop
      vertex 16.5 10 7.5
      vertex 16.4807 10.3921 12.5
      vertex 16.4807 10.3921 7.5
    endloop
  endfacet
  facet normal -0.998791 -0.0491626 0
    outer loop
      vertex 16.4807 10.3921 12.5
      vertex 16.5 10 7.5
      vertex 16.5 10 12.5
    endloop
  endfacet
  facet normal -0.970068 -0.242835 0
    outer loop
      vertex 16.4231 10.7804 7.5
      vertex 16.3278 11.1611 12.5
      vertex 16.3278 11.1611 7.5
    endloop
  endfacet
  facet normal -0.970068 -0.242835 0
    outer loop
      vertex 16.3278 11.1611 12.5
      vertex 16.4231 10.7804 7.5
      vertex 16.4231 10.7804 12.5
    endloop
  endfacet
  facet normal 0.989176 -0.146733 0
    outer loop
      vertex 8.51926 10.3921 12.5
      vertex 8.57686 10.7804 7.5
      vertex 8.57686 10.7804 12.5
    endloop
  endfacet
  facet normal 0.989176 -0.146733 0
    outer loop
      vertex 8.57686 10.7804 7.5
      vertex 8.51926 10.3921 12.5
      vertex 8.51926 10.3921 7.5
    endloop
  endfacet
  facet normal 0.243027 0.970019 -0
    outer loop
      vertex 11.7196 6.07686 7.5
      vertex 11.3389 6.17224 12.5
      vertex 11.7196 6.07686 12.5
    endloop
  endfacet
  facet normal 0.243027 0.970019 0
    outer loop
      vertex 11.3389 6.17224 12.5
      vertex 11.7196 6.07686 7.5
      vertex 11.3389 6.17224 7.5
    endloop
  endfacet
  facet normal -0.337014 -0.9415 0
    outer loop
      vertex 13.6611 13.8278 7.5
      vertex 14.0307 13.6955 12.5
      vertex 13.6611 13.8278 12.5
    endloop
  endfacet
  facet normal -0.337014 -0.9415 -0
    outer loop
      vertex 14.0307 13.6955 12.5
      vertex 13.6611 13.8278 7.5
      vertex 14.0307 13.6955 7.5
    endloop
  endfacet
  facet normal 0.514084 -0.85774 0
    outer loop
      vertex 10.2777 13.3259 7.5
      vertex 10.6144 13.5277 12.5
      vertex 10.2777 13.3259 12.5
    endloop
  endfacet
  facet normal 0.514084 -0.85774 0
    outer loop
      vertex 10.6144 13.5277 12.5
      vertex 10.2777 13.3259 7.5
      vertex 10.6144 13.5277 7.5
    endloop
  endfacet
  facet normal 0.903995 0.427542 0
    outer loop
      vertex 8.97231 8.11441 12.5
      vertex 8.80448 8.46927 7.5
      vertex 8.80448 8.46927 12.5
    endloop
  endfacet
  facet normal 0.903995 0.427542 0
    outer loop
      vertex 8.80448 8.46927 7.5
      vertex 8.97231 8.11441 12.5
      vertex 8.97231 8.11441 7.5
    endloop
  endfacet
  facet normal 0.242835 -0.970068 0
    outer loop
      vertex 11.3389 13.8278 7.5
      vertex 11.7196 13.9231 12.5
      vertex 11.3389 13.8278 12.5
    endloop
  endfacet
  facet normal 0.242835 -0.970068 0
    outer loop
      vertex 11.7196 13.9231 12.5
      vertex 11.3389 13.8278 7.5
      vertex 11.7196 13.9231 7.5
    endloop
  endfacet
  facet normal 0.857722 0.514114 0
    outer loop
      vertex 9.17412 7.77772 12.5
      vertex 8.97231 8.11441 7.5
      vertex 8.97231 8.11441 12.5
    endloop
  endfacet
  facet normal 0.857722 0.514114 0
    outer loop
      vertex 8.97231 8.11441 7.5
      vertex 9.17412 7.77772 12.5
      vertex 9.17412 7.77772 7.5
    endloop
  endfacet
  facet normal -0.243027 0.970019 0
    outer loop
      vertex 13.6611 6.17224 7.5
      vertex 13.2804 6.07686 12.5
      vertex 13.6611 6.17224 12.5
    endloop
  endfacet
  facet normal -0.243027 0.970019 0
    outer loop
      vertex 13.2804 6.07686 12.5
      vertex 13.6611 6.17224 7.5
      vertex 13.2804 6.07686 7.5
    endloop
  endfacet
  facet normal 0.595732 0.803183 -0
    outer loop
      vertex 10.2777 6.67412 7.5
      vertex 9.96243 6.90796 12.5
      vertex 10.2777 6.67412 12.5
    endloop
  endfacet
  facet normal 0.595732 0.803183 0
    outer loop
      vertex 9.96243 6.90796 12.5
      vertex 10.2777 6.67412 7.5
      vertex 9.96243 6.90796 7.5
    endloop
  endfacet
  facet normal -0.514102 0.857729 0
    outer loop
      vertex 14.7223 6.67412 7.5
      vertex 14.3856 6.47231 12.5
      vertex 14.7223 6.67412 12.5
    endloop
  endfacet
  facet normal -0.514102 0.857729 0
    outer loop
      vertex 14.3856 6.47231 12.5
      vertex 14.7223 6.67412 7.5
      vertex 14.3856 6.47231 7.5
    endloop
  endfacet
  facet normal -0.803128 0.595806 0
    outer loop
      vertex 15.592 7.46243 7.5
      vertex 15.8259 7.77772 12.5
      vertex 15.8259 7.77772 7.5
    endloop
  endfacet
  facet normal -0.803128 0.595806 0
    outer loop
      vertex 15.8259 7.77772 12.5
      vertex 15.592 7.46243 7.5
      vertex 15.592 7.46243 12.5
    endloop
  endfacet
  facet normal -0.146733 -0.989176 0
    outer loop
      vertex 12.8921 13.9807 7.5
      vertex 13.2804 13.9231 12.5
      vertex 12.8921 13.9807 12.5
    endloop
  endfacet
  facet normal -0.146733 -0.989176 -0
    outer loop
      vertex 13.2804 13.9231 12.5
      vertex 12.8921 13.9807 7.5
      vertex 13.2804 13.9231 7.5
    endloop
  endfacet
  facet normal 0.59583 -0.80311 0
    outer loop
      vertex 9.96243 13.092 7.5
      vertex 10.2777 13.3259 12.5
      vertex 9.96243 13.092 12.5
    endloop
  endfacet
  facet normal 0.59583 -0.80311 0
    outer loop
      vertex 10.2777 13.3259 12.5
      vertex 9.96243 13.092 7.5
      vertex 10.2777 13.3259 7.5
    endloop
  endfacet
  facet normal -0.427503 0.904014 0
    outer loop
      vertex 14.3856 6.47231 7.5
      vertex 14.0307 6.30448 12.5
      vertex 14.3856 6.47231 12.5
    endloop
  endfacet
  facet normal -0.427503 0.904014 0
    outer loop
      vertex 14.0307 6.30448 12.5
      vertex 14.3856 6.47231 7.5
      vertex 14.0307 6.30448 7.5
    endloop
  endfacet
  facet normal 0.80321 -0.595695 0
    outer loop
      vertex 9.17412 12.2223 12.5
      vertex 9.40796 12.5376 7.5
      vertex 9.40796 12.5376 12.5
    endloop
  endfacet
  facet normal 0.80321 -0.595695 0
    outer loop
      vertex 9.40796 12.5376 7.5
      vertex 9.17412 12.2223 12.5
      vertex 9.17412 12.2223 7.5
    endloop
  endfacet
  facet normal -0.989176 0.146737 0
    outer loop
      vertex 16.4231 9.21964 7.5
      vertex 16.4807 9.60793 12.5
      vertex 16.4807 9.60793 7.5
    endloop
  endfacet
  facet normal -0.989176 0.146737 0
    outer loop
      vertex 16.4807 9.60793 12.5
      vertex 16.4231 9.21964 7.5
      vertex 16.4231 9.21964 12.5
    endloop
  endfacet
  facet normal 0.941548 -0.336879 0
    outer loop
      vertex 8.67224 11.1611 12.5
      vertex 8.80448 11.5307 7.5
      vertex 8.80448 11.5307 12.5
    endloop
  endfacet
  facet normal 0.941548 -0.336879 0
    outer loop
      vertex 8.80448 11.5307 7.5
      vertex 8.67224 11.1611 12.5
      vertex 8.67224 11.1611 7.5
    endloop
  endfacet
  facet normal -0.42744 -0.904044 0
    outer loop
      vertex 14.0307 13.6955 7.5
      vertex 14.3856 13.5277 12.5
      vertex 14.0307 13.6955 12.5
    endloop
  endfacet
  facet normal -0.42744 -0.904044 -0
    outer loop
      vertex 14.3856 13.5277 12.5
      vertex 14.0307 13.6955 7.5
      vertex 14.3856 13.5277 7.5
    endloop
  endfacet
  facet normal 0.941545 0.336887 0
    outer loop
      vertex 8.80448 8.46927 12.5
      vertex 8.67224 8.83886 7.5
      vertex 8.67224 8.83886 12.5
    endloop
  endfacet
  facet normal 0.941545 0.336887 0
    outer loop
      vertex 8.67224 8.83886 7.5
      vertex 8.80448 8.46927 12.5
      vertex 8.80448 8.46927 7.5
    endloop
  endfacet
  facet normal -0.97008 0.242787 0
    outer loop
      vertex 16.3278 8.83886 7.5
      vertex 16.4231 9.21964 12.5
      vertex 16.4231 9.21964 7.5
    endloop
  endfacet
  facet normal -0.97008 0.242787 0
    outer loop
      vertex 16.4231 9.21964 12.5
      vertex 16.3278 8.83886 7.5
      vertex 16.3278 8.83886 12.5
    endloop
  endfacet
  facet normal 0.0491626 -0.998791 0
    outer loop
      vertex 12.1079 13.9807 7.5
      vertex 12.5 14 12.5
      vertex 12.1079 13.9807 12.5
    endloop
  endfacet
  facet normal 0.0491626 -0.998791 0
    outer loop
      vertex 12.5 14 12.5
      vertex 12.1079 13.9807 7.5
      vertex 12.5 14 7.5
    endloop
  endfacet
  facet normal -0.671607 -0.740908 0
    outer loop
      vertex 15.0376 13.092 7.5
      vertex 15.3284 12.8284 12.5
      vertex 15.0376 13.092 12.5
    endloop
  endfacet
  facet normal -0.671607 -0.740908 -0
    outer loop
      vertex 15.3284 12.8284 12.5
      vertex 15.0376 13.092 7.5
      vertex 15.3284 12.8284 7.5
    endloop
  endfacet
  facet normal 0.42744 -0.904044 0
    outer loop
      vertex 10.6144 13.5277 7.5
      vertex 10.9693 13.6955 12.5
      vertex 10.6144 13.5277 12.5
    endloop
  endfacet
  facet normal 0.42744 -0.904044 0
    outer loop
      vertex 10.9693 13.6955 12.5
      vertex 10.6144 13.5277 7.5
      vertex 10.9693 13.6955 7.5
    endloop
  endfacet
  facet normal 0.671531 -0.740977 0
    outer loop
      vertex 9.67157 12.8284 7.5
      vertex 9.96243 13.092 12.5
      vertex 9.67157 12.8284 12.5
    endloop
  endfacet
  facet normal 0.671531 -0.740977 0
    outer loop
      vertex 9.96243 13.092 12.5
      vertex 9.67157 12.8284 7.5
      vertex 9.96243 13.092 7.5
    endloop
  endfacet
  facet normal -0.336879 0.941548 0
    outer loop
      vertex 14.0307 6.30448 7.5
      vertex 13.6611 6.17224 12.5
      vertex 14.0307 6.30448 12.5
    endloop
  endfacet
  facet normal -0.336879 0.941548 0
    outer loop
      vertex 13.6611 6.17224 12.5
      vertex 14.0307 6.30448 7.5
      vertex 13.6611 6.17224 7.5
    endloop
  endfacet
  facet normal 0.337014 -0.9415 0
    outer loop
      vertex 10.9693 13.6955 7.5
      vertex 11.3389 13.8278 12.5
      vertex 10.9693 13.6955 12.5
    endloop
  endfacet
  facet normal 0.337014 -0.9415 0
    outer loop
      vertex 11.3389 13.8278 12.5
      vertex 10.9693 13.6955 7.5
      vertex 11.3389 13.8278 7.5
    endloop
  endfacet
  facet normal -0.803137 -0.595794 0
    outer loop
      vertex 15.8259 12.2223 7.5
      vertex 15.592 12.5376 12.5
      vertex 15.592 12.5376 7.5
    endloop
  endfacet
  facet normal -0.803137 -0.595794 0
    outer loop
      vertex 15.592 12.5376 12.5
      vertex 15.8259 12.2223 7.5
      vertex 15.8259 12.2223 12.5
    endloop
  endfacet
  facet normal 0.857729 -0.514102 0
    outer loop
      vertex 8.97231 11.8856 12.5
      vertex 9.17412 12.2223 7.5
      vertex 9.17412 12.2223 12.5
    endloop
  endfacet
  facet normal 0.857729 -0.514102 0
    outer loop
      vertex 9.17412 12.2223 7.5
      vertex 8.97231 11.8856 12.5
      vertex 8.97231 11.8856 7.5
    endloop
  endfacet
  facet normal -0.998791 0.0491664 0
    outer loop
      vertex 16.4807 9.60793 7.5
      vertex 16.5 10 12.5
      vertex 16.5 10 7.5
    endloop
  endfacet
  facet normal -0.998791 0.0491664 0
    outer loop
      vertex 16.5 10 12.5
      vertex 16.4807 9.60793 7.5
      vertex 16.4807 9.60793 12.5
    endloop
  endfacet
  facet normal -0.904025 0.42748 0
    outer loop
      vertex 16.0277 8.11441 7.5
      vertex 16.1955 8.46927 12.5
      vertex 16.1955 8.46927 7.5
    endloop
  endfacet
  facet normal -0.904025 0.42748 0
    outer loop
      vertex 16.1955 8.46927 12.5
      vertex 16.0277 8.11441 7.5
      vertex 16.0277 8.11441 12.5
    endloop
  endfacet
  facet normal -0.85774 -0.514084 0
    outer loop
      vertex 16.0277 11.8856 7.5
      vertex 15.8259 12.2223 12.5
      vertex 15.8259 12.2223 7.5
    endloop
  endfacet
  facet normal -0.85774 -0.514084 0
    outer loop
      vertex 15.8259 12.2223 12.5
      vertex 16.0277 11.8856 7.5
      vertex 16.0277 11.8856 12.5
    endloop
  endfacet
  facet normal 0 0 -1
    outer loop
      vertex 16.4807 9.60793 12.5
      vertex 16.4807 10.3921 12.5
      vertex 16.5 10 12.5
    endloop
  endfacet
  facet normal 0 0 -1
    outer loop
      vertex 16.4231 9.21964 12.5
      vertex 16.4807 10.3921 12.5
      vertex 16.4807 9.60793 12.5
    endloop
  endfacet
  facet normal 0 0 -1
    outer loop
      vertex 16.4231 9.21964 12.5
      vertex 16.4231 10.7804 12.5
      vertex 16.4807 10.3921 12.5
    endloop
  endfacet
  facet normal 0 0 -1
    outer loop
      vertex 16.3278 8.83886 12.5
      vertex 16.4231 10.7804 12.5
      vertex 16.4231 9.21964 12.5
    endloop
  endfacet
  facet normal 0 0 -1
    outer loop
      vertex 16.3278 8.83886 12.5
      vertex 16.3278 11.1611 12.5
      vertex 16.4231 10.7804 12.5
    endloop
  endfacet
  facet normal 0 0 -1
    outer loop
      vertex 16.1955 8.46927 12.5
      vertex 16.3278 11.1611 12.5
      vertex 16.3278 8.83886 12.5
    endloop
  endfacet
  facet normal 0 0 -1
    outer loop
      vertex 16.1955 8.46927 12.5
      vertex 16.1955 11.5307 12.5
      vertex 16.3278 11.1611 12.5
    endloop
  endfacet
  facet normal 0 0 -1
    outer loop
      vertex 16.0277 8.11441 12.5
      vertex 16.1955 11.5307 12.5
      vertex 16.1955 8.46927 12.5
    endloop
  endfacet
  facet normal 0 0 -1
    outer loop
      vertex 16.0277 8.11441 12.5
      vertex 16.0277 11.8856 12.5
      vertex 16.1955 11.5307 12.5
    endloop
  endfacet
  facet normal 0 0 -1
    outer loop
      vertex 15.8259 7.77772 12.5
      vertex 16.0277 11.8856 12.5
      vertex 16.0277 8.11441 12.5
    endloop
  endfacet
  facet normal 0 0 -1
    outer loop
      vertex 15.8259 7.77772 12.5
      vertex 15.8259 12.2223 12.5
      vertex 16.0277 11.8856 12.5
    endloop
  endfacet
  facet normal 0 0 -1
    outer loop
      vertex 15.592 7.46243 12.5
      vertex 15.8259 12.2223 12.5
      vertex 15.8259 7.77772 12.5
    endloop
  endfacet
  facet normal 0 0 -1
    outer loop
      vertex 15.592 7.46243 12.5
      vertex 15.592 12.5376 12.5
      vertex 15.8259 12.2223 12.5
    endloop
  endfacet
  facet normal 0 0 -1
    outer loop
      vertex 15.3284 7.17157 12.5
      vertex 15.592 12.5376 12.5
      vertex 15.592 7.46243 12.5
    endloop
  endfacet
  facet normal 0 0 -1
    outer loop
      vertex 15.3284 7.17157 12.5
      vertex 15.3284 12.8284 12.5
      vertex 15.592 12.5376 12.5
    endloop
  endfacet
  facet normal 0 0 -1
    outer loop
      vertex 15.0376 6.90796 12.5
      vertex 15.3284 12.8284 12.5
      vertex 15.3284 7.17157 12.5
    endloop
  endfacet
  facet normal 0 0 -1
    outer loop
      vertex 15.0376 6.90796 12.5
      vertex 15.0376 13.092 12.5
      vertex 15.3284 12.8284 12.5
    endloop
  endfacet
  facet normal 0 0 -1
    outer loop
      vertex 14.7223 6.67412 12.5
      vertex 15.0376 13.092 12.5
      vertex 15.0376 6.90796 12.5
    endloop
  endfacet
  facet normal 0 0 -1
    outer loop
      vertex 14.7223 6.67412 12.5
      vertex 14.7223 13.3259 12.5
      vertex 15.0376 13.092 12.5
    endloop
  endfacet
  facet normal 0 0 -1
    outer loop
      vertex 14.3856 6.47231 12.5
      vertex 14.7223 13.3259 12.5
      vertex 14.7223 6.67412 12.5
    endloop
  endfacet
  facet normal 0 0 -1
    outer loop
      vertex 14.3856 6.47231 12.5
      vertex 14.3856 13.5277 12.5
      vertex 14.7223 13.3259 12.5
    endloop
  endfacet
  facet normal 0 0 -1
    outer loop
      vertex 14.0307 6.30448 12.5
      vertex 14.3856 13.5277 12.5
      vertex 14.3856 6.47231 12.5
    endloop
  endfacet
  facet normal 0 0 -1
    outer loop
      vertex 14.0307 6.30448 12.5
      vertex 14.0307 13.6955 12.5
      vertex 14.3856 13.5277 12.5
    endloop
  endfacet
  facet normal 0 0 -1
    outer loop
      vertex 13.6611 6.17224 12.5
      vertex 14.0307 13.6955 12.5
      vertex 14.0307 6.30448 12.5
    endloop
  endfacet
  facet normal 0 0 -1
    outer loop
      vertex 13.6611 6.17224 12.5
      vertex 13.6611 13.8278 12.5
      vertex 14.0307 13.6955 12.5
    endloop
  endfacet
  facet normal 0 0 -1
    outer loop
      vertex 13.2804 6.07686 12.5
      vertex 13.6611 13.8278 12.5
      vertex 13.6611 6.17224 12.5
    endloop
  endfacet
  facet normal 0 0 -1
    outer loop
      vertex 13.2804 6.07686 12.5
      vertex 13.2804 13.9231 12.5
      vertex 13.6611 13.8278 12.5
    endloop
  endfacet
  facet normal 0 0 -1
    outer loop
      vertex 12.8921 6.01926 12.5
      vertex 13.2804 13.9231 12.5
      vertex 13.2804 6.07686 12.5
    endloop
  endfacet
  facet normal 0 0 -1
    outer loop
      vertex 12.8921 6.01926 12.5
      vertex 12.8921 13.9807 12.5
      vertex 13.2804 13.9231 12.5
    endloop
  endfacet
  facet normal 0 0 -1
    outer loop
      vertex 12.5 6 12.5
      vertex 12.8921 13.9807 12.5
      vertex 12.8921 6.01926 12.5
    endloop
  endfacet
  facet normal 0 0 -1
    outer loop
      vertex 12.5 6 12.5
      vertex 12.5 14 12.5
      vertex 12.8921 13.9807 12.5
    endloop
  endfacet
  facet normal 0 0 -1
    outer loop
      vertex 12.1079 6.01926 12.5
      vertex 12.5 14 12.5
      vertex 12.5 6 12.5
    endloop
  endfacet
  facet normal 0 0 -1
    outer loop
      vertex 12.1079 6.01926 12.5
      vertex 12.1079 13.9807 12.5
      vertex 12.5 14 12.5
    endloop
  endfacet
  facet normal 0 0 -1
    outer loop
      vertex 11.7196 6.07686 12.5
      vertex 12.1079 13.9807 12.5
      vertex 12.1079 6.01926 12.5
    endloop
  endfacet
  facet normal 0 0 -1
    outer loop
      vertex 11.7196 6.07686 12.5
      vertex 11.7196 13.9231 12.5
      vertex 12.1079 13.9807 12.5
    endloop
  endfacet
  facet normal 0 0 -1
    outer loop
      vertex 11.3389 6.17224 12.5
      vertex 11.7196 13.9231 12.5
      vertex 11.7196 6.07686 12.5
    endloop
  endfacet
  facet normal 0 0 -1
    outer loop
      vertex 11.3389 6.17224 12.5
      vertex 11.3389 13.8278 12.5
      vertex 11.7196 13.9231 12.5
    endloop
  endfacet
  facet normal 0 0 -1
    outer loop
      vertex 10.9693 6.30448 12.5
      vertex 11.3389 13.8278 12.5
      vertex 11.3389 6.17224 12.5
    endloop
  endfacet
  facet normal 0 0 -1
    outer loop
      vertex 10.9693 6.30448 12.5
      vertex 10.9693 13.6955 12.5
      vertex 11.3389 13.8278 12.5
    endloop
  endfacet
  facet normal 0 0 -1
    outer loop
      vertex 10.6144 6.47231 12.5
      vertex 10.9693 13.6955 12.5
      vertex 10.9693 6.30448 12.5
    endloop
  endfacet
  facet normal 0 0 -1
    outer loop
      vertex 10.6144 6.47231 12.5
      vertex 10.6144 13.5277 12.5
      vertex 10.9693 13.6955 12.5
    endloop
  endfacet
  facet normal 0 0 -1
    outer loop
      vertex 10.2777 6.67412 12.5
      vertex 10.6144 13.5277 12.5
      vertex 10.6144 6.47231 12.5
    endloop
  endfacet
  facet normal 0 0 -1
    outer loop
      vertex 10.2777 6.67412 12.5
      vertex 10.2777 13.3259 12.5
      vertex 10.6144 13.5277 12.5
    endloop
  endfacet
  facet normal 0 0 -1
    outer loop
      vertex 9.96243 6.90796 12.5
      vertex 10.2777 13.3259 12.5
      vertex 10.2777 6.67412 12.5
    endloop
  endfacet
  facet normal 0 0 -1
    outer loop
      vertex 9.96243 6.90796 12.5
      vertex 9.96243 13.092 12.5
      vertex 10.2777 13.3259 12.5
    endloop
  endfacet
  facet normal 0 0 -1
    outer loop
      vertex 9.67157 7.17157 12.5
      vertex 9.96243 13.092 12.5
      vertex 9.96243 6.90796 12.5
    endloop
  endfacet
  facet normal 0 0 -1
    outer loop
      vertex 9.67157 7.17157 12.5
      vertex 9.67157 12.8284 12.5
      vertex 9.96243 13.092 12.5
    endloop
  endfacet
  facet normal 0 0 -1
    outer loop
      vertex 9.40796 7.46243 12.5
      vertex 9.67157 12.8284 12.5
      vertex 9.67157 7.17157 12.5
    endloop
  endfacet
  facet normal 0 0 -1
    outer loop
      vertex 9.40796 7.46243 12.5
      vertex 9.40796 12.5376 12.5
      vertex 9.67157 12.8284 12.5
    endloop
  endfacet
  facet normal 0 0 -1
    outer loop
      vertex 9.17412 7.77772 12.5
      vertex 9.40796 12.5376 12.5
      vertex 9.40796 7.46243 12.5
    endloop
  endfacet
  facet normal 0 0 -1
    outer loop
      vertex 9.17412 7.77772 12.5
      vertex 9.17412 12.2223 12.5
      vertex 9.40796 12.5376 12.5
    endloop
  endfacet
  facet normal 0 0 -1
    outer loop
      vertex 8.97231 8.11441 12.5
      vertex 9.17412 12.2223 12.5
      vertex 9.17412 7.77772 12.5
    endloop
  endfacet
  facet normal 0 0 -1
    outer loop
      vertex 8.97231 8.11441 12.5
      vertex 8.97231 11.8856 12.5
      vertex 9.17412 12.2223 12.5
    endloop
  endfacet
  facet normal 0 0 -1
    outer loop
      vertex 8.80448 8.46927 12.5
      vertex 8.97231 11.8856 12.5
      vertex 8.97231 8.11441 12.5
    endloop
  endfacet
  facet normal 0 0 -1
    outer loop
      vertex 8.80448 8.46927 12.5
      vertex 8.80448 11.5307 12.5
      vertex 8.97231 11.8856 12.5
    endloop
  endfacet
  facet normal 0 0 -1
    outer loop
      vertex 8.67224 8.83886 12.5
      vertex 8.80448 11.5307 12.5
      vertex 8.80448 8.46927 12.5
    endloop
  endfacet
  facet normal 0 0 -1
    outer loop
      vertex 8.67224 8.83886 12.5
      vertex 8.67224 11.1611 12.5
      vertex 8.80448 11.5307 12.5
    endloop
  endfacet
  facet normal 0 0 -1
    outer loop
      vertex 8.57686 9.21964 12.5
      vertex 8.67224 11.1611 12.5
      vertex 8.67224 8.83886 12.5
    endloop
  endfacet
  facet normal 0 0 -1
    outer loop
      vertex 8.57686 9.21964 12.5
      vertex 8.57686 10.7804 12.5
      vertex 8.67224 11.1611 12.5
    endloop
  endfacet
  facet normal 0 0 -1
    outer loop
      vertex 8.51926 9.60793 12.5
      vertex 8.57686 10.7804 12.5
      vertex 8.57686 9.21964 12.5
    endloop
  endfacet
  facet normal 0 0 -1
    outer loop
      vertex 8.51926 9.60793 12.5
      vertex 8.51926 10.3921 12.5
      vertex 8.57686 10.7804 12.5
    endloop
  endfacet
  facet normal 0 -0 -1
    outer loop
      vertex 8.51926 10.3921 12.5
      vertex 8.51926 9.60793 12.5
      vertex 8.5 10 12.5
    endloop
  endfacet
  facet normal 0.671545 0.740964 -0
    outer loop
      vertex 9.96243 6.90796 7.5
      vertex 9.67157 7.17157 12.5
      vertex 9.96243 6.90796 12.5
    endloop
  endfacet
  facet normal 0.671545 0.740964 0
    outer loop
      vertex 9.67157 7.17157 12.5
      vertex 9.96243 6.90796 7.5
      vertex 9.67157 7.17157 7.5
    endloop
  endfacet
  facet normal -0.595794 -0.803137 0
    outer loop
      vertex 14.7223 13.3259 7.5
      vertex 15.0376 13.092 12.5
      vertex 14.7223 13.3259 12.5
    endloop
  endfacet
  facet normal -0.595794 -0.803137 -0
    outer loop
      vertex 15.0376 13.092 12.5
      vertex 14.7223 13.3259 7.5
      vertex 15.0376 13.092 7.5
    endloop
  endfacet
  facet normal 0.514102 0.857729 -0
    outer loop
      vertex 10.6144 6.47231 7.5
      vertex 10.2777 6.67412 12.5
      vertex 10.6144 6.47231 12.5
    endloop
  endfacet
  facet normal 0.514102 0.857729 0
    outer loop
      vertex 10.2777 6.67412 12.5
      vertex 10.6144 6.47231 7.5
      vertex 10.2777 6.67412 7.5
    endloop
  endfacet
  facet normal -0.514084 -0.85774 0
    outer loop
      vertex 14.3856 13.5277 7.5
      vertex 14.7223 13.3259 12.5
      vertex 14.3856 13.5277 12.5
    endloop
  endfacet
  facet normal -0.514084 -0.85774 -0
    outer loop
      vertex 14.7223 13.3259 12.5
      vertex 14.3856 13.5277 7.5
      vertex 14.7223 13.3259 7.5
    endloop
  endfacet
  facet normal -0.146733 0.989176 0
    outer loop
      vertex 13.2804 6.07686 7.5
      vertex 12.8921 6.01926 12.5
      vertex 13.2804 6.07686 12.5
    endloop
  endfacet
  facet normal -0.146733 0.989176 0
    outer loop
      vertex 12.8921 6.01926 12.5
      vertex 13.2804 6.07686 7.5
      vertex 12.8921 6.01926 7.5
    endloop
  endfacet
  facet normal -0.9415 -0.337014 0
    outer loop
      vertex 16.3278 11.1611 7.5
      vertex 16.1955 11.5307 12.5
      vertex 16.1955 11.5307 7.5
    endloop
  endfacet
  facet normal -0.9415 -0.337014 0
    outer loop
      vertex 16.1955 11.5307 12.5
      vertex 16.3278 11.1611 7.5
      vertex 16.3278 11.1611 12.5
    endloop
  endfacet
  facet normal -0.857733 0.514095 0
    outer loop
      vertex 15.8259 7.77772 7.5
      vertex 16.0277 8.11441 12.5
      vertex 16.0277 8.11441 7.5
    endloop
  endfacet
  facet normal -0.857733 0.514095 0
    outer loop
      vertex 16.0277 8.11441 12.5
      vertex 15.8259 7.77772 7.5
      vertex 15.8259 7.77772 12.5
    endloop
  endfacet
  facet normal 0.998796 0.0490647 0
    outer loop
      vertex 8.51926 9.60793 12.5
      vertex 8.5 10 7.5
      vertex 8.5 10 12.5
    endloop
  endfacet
  facet normal 0.998796 0.0490647 0
    outer loop
      vertex 8.5 10 7.5
      vertex 8.51926 9.60793 12.5
      vertex 8.51926 9.60793 7.5
    endloop
  endfacet
  facet normal -0.941497 0.337022 0
    outer loop
      vertex 16.1955 8.46927 7.5
      vertex 16.3278 8.83886 12.5
      vertex 16.3278 8.83886 7.5
    endloop
  endfacet
  facet normal -0.941497 0.337022 0
    outer loop
      vertex 16.3278 8.83886 12.5
      vertex 16.1955 8.46927 7.5
      vertex 16.1955 8.46927 12.5
    endloop
  endfacet
  facet normal -0.740908 -0.671607 0
    outer loop
      vertex 15.592 12.5376 7.5
      vertex 15.3284 12.8284 12.5
      vertex 15.3284 12.8284 7.5
    endloop
  endfacet
  facet normal -0.740908 -0.671607 0
    outer loop
      vertex 15.3284 12.8284 12.5
      vertex 15.592 12.5376 7.5
      vertex 15.592 12.5376 12.5
    endloop
  endfacet
  facet normal -0.0491626 -0.998791 0
    outer loop
      vertex 12.5 14 7.5
      vertex 12.8921 13.9807 12.5
      vertex 12.5 14 12.5
    endloop
  endfacet
  facet normal -0.0491626 -0.998791 -0
    outer loop
      vertex 12.8921 13.9807 12.5
      vertex 12.5 14 7.5
      vertex 12.8921 13.9807 7.5
    endloop
  endfacet
  facet normal -0.904044 -0.42744 0
    outer loop
      vertex 16.1955 11.5307 7.5
      vertex 16.0277 11.8856 12.5
      vertex 16.0277 11.8856 7.5
    endloop
  endfacet
  facet normal -0.904044 -0.42744 0
    outer loop
      vertex 16.0277 11.8856 12.5
      vertex 16.1955 11.5307 7.5
      vertex 16.1955 11.5307 12.5
    endloop
  endfacet
  facet normal 0.146733 0.989176 -0
    outer loop
      vertex 12.1079 6.01926 7.5
      vertex 11.7196 6.07686 12.5
      vertex 12.1079 6.01926 12.5
    endloop
  endfacet
  facet normal 0.146733 0.989176 0
    outer loop
      vertex 11.7196 6.07686 12.5
      vertex 12.1079 6.01926 7.5
      vertex 11.7196 6.07686 7.5
    endloop
  endfacet
  facet normal -0.671621 0.740895 0
    outer loop
      vertex 15.3284 7.17157 7.5
      vertex 15.0376 6.90796 12.5
      vertex 15.3284 7.17157 12.5
    endloop
  endfacet
  facet normal -0.671621 0.740895 0
    outer loop
      vertex 15.0376 6.90796 12.5
      vertex 15.3284 7.17157 7.5
      vertex 15.0376 6.90796 7.5
    endloop
  endfacet
  facet normal 0.049061 0.998796 -0
    outer loop
      vertex 12.5 6 7.5
      vertex 12.1079 6.01926 12.5
      vertex 12.5 6 12.5
    endloop
  endfacet
  facet normal 0.049061 0.998796 0
    outer loop
      vertex 12.1079 6.01926 12.5
      vertex 12.5 6 7.5
      vertex 12.1079 6.01926 7.5
    endloop
  endfacet
  facet normal 0.740895 -0.671621 0
    outer loop
      vertex 9.40796 12.5376 12.5
      vertex 9.67157 12.8284 7.5
      vertex 9.67157 12.8284 12.5
    endloop
  endfacet
  facet normal 0.740895 -0.671621 0
    outer loop
      vertex 9.67157 12.8284 7.5
      vertex 9.40796 12.5376 12.5
      vertex 9.40796 12.5376 7.5
    endloop
  endfacet
  facet normal 0.146733 -0.989176 0
    outer loop
      vertex 11.7196 13.9231 7.5
      vertex 12.1079 13.9807 12.5
      vertex 11.7196 13.9231 12.5
    endloop
  endfacet
  facet normal 0.146733 -0.989176 0
    outer loop
      vertex 12.1079 13.9807 12.5
      vertex 11.7196 13.9231 7.5
      vertex 12.1079 13.9807 7.5
    endloop
  endfacet
  facet normal 0.904014 -0.427503 0
    outer loop
      vertex 8.80448 11.5307 12.5
      vertex 8.97231 11.8856 7.5
      vertex 8.97231 11.8856 12.5
    endloop
  endfacet
  facet normal 0.904014 -0.427503 0
    outer loop
      vertex 8.97231 11.8856 7.5
      vertex 8.80448 11.5307 12.5
      vertex 8.80448 11.5307 7.5
    endloop
  endfacet
  facet normal 0.970019 -0.243027 0
    outer loop
      vertex 8.57686 10.7804 12.5
      vertex 8.67224 11.1611 7.5
      vertex 8.67224 11.1611 12.5
    endloop
  endfacet
  facet normal 0.970019 -0.243027 0
    outer loop
      vertex 8.67224 11.1611 7.5
      vertex 8.57686 10.7804 12.5
      vertex 8.57686 10.7804 7.5
    endloop
  endfacet
  facet normal -0.242835 -0.970068 0
    outer loop
      vertex 13.2804 13.9231 7.5
      vertex 13.6611 13.8278 12.5
      vertex 13.2804 13.9231 12.5
    endloop
  endfacet
  facet normal -0.242835 -0.970068 -0
    outer loop
      vertex 13.6611 13.8278 12.5
      vertex 13.2804 13.9231 7.5
      vertex 13.6611 13.8278 7.5
    endloop
  endfacet
  facet normal 0.970032 0.242979 0
    outer loop
      vertex 8.67224 8.83886 12.5
      vertex 8.57686 9.21964 7.5
      vertex 8.57686 9.21964 12.5
    endloop
  endfacet
  facet normal 0.970032 0.242979 0
    outer loop
      vertex 8.57686 9.21964 7.5
      vertex 8.67224 8.83886 12.5
      vertex 8.67224 8.83886 7.5
    endloop
  endfacet
  facet normal 0.427503 0.904014 -0
    outer loop
      vertex 10.9693 6.30448 7.5
      vertex 10.6144 6.47231 12.5
      vertex 10.9693 6.30448 12.5
    endloop
  endfacet
  facet normal 0.427503 0.904014 0
    outer loop
      vertex 10.6144 6.47231 12.5
      vertex 10.9693 6.30448 7.5
      vertex 10.6144 6.47231 7.5
    endloop
  endfacet
  facet normal 0.740964 0.671545 0
    outer loop
      vertex 9.67157 7.17157 12.5
      vertex 9.40796 7.46243 7.5
      vertex 9.40796 7.46243 12.5
    endloop
  endfacet
  facet normal 0.740964 0.671545 0
    outer loop
      vertex 9.40796 7.46243 7.5
      vertex 9.67157 7.17157 12.5
      vertex 9.67157 7.17157 7.5
    endloop
  endfacet
  facet normal -0.049061 0.998796 0
    outer loop
      vertex 12.8921 6.01926 7.5
      vertex 12.5 6 12.5
      vertex 12.8921 6.01926 12.5
    endloop
  endfacet
  facet normal -0.049061 0.998796 0
    outer loop
      vertex 12.5 6 12.5
      vertex 12.8921 6.01926 7.5
      vertex 12.5 6 7.5
    endloop
  endfacet
  facet normal 0.989176 0.146737 0
    outer loop
      vertex 8.57686 9.21964 12.5
      vertex 8.51926 9.60793 7.5
      vertex 8.51926 9.60793 12.5
    endloop
  endfacet
  facet normal 0.989176 0.146737 0
    outer loop
      vertex 8.51926 9.60793 7.5
      vertex 8.57686 9.21964 12.5
      vertex 8.57686 9.21964 7.5
    endloop
  endfacet
  facet normal -0.595695 0.80321 0
    outer loop
      vertex 15.0376 6.90796 7.5
      vertex 14.7223 6.67412 12.5
      vertex 15.0376 6.90796 12.5
    endloop
  endfacet
  facet normal -0.595695 0.80321 0
    outer loop
      vertex 14.7223 6.67412 12.5
      vertex 15.0376 6.90796 7.5
      vertex 14.7223 6.67412 7.5
    endloop
  endfacet
  facet normal 0 0 1
    outer loop
      vertex 16.4807 10.3921 7.5
      vertex 16.4807 9.60793 7.5
      vertex 16.5 10 7.5
    endloop
  endfacet
  facet normal 0 0 1
    outer loop
      vertex 16.4231 10.7804 7.5
      vertex 16.4807 9.60793 7.5
      vertex 16.4807 10.3921 7.5
    endloop
  endfacet
  facet normal 0 0 1
    outer loop
      vertex 16.4231 10.7804 7.5
      vertex 16.4231 9.21964 7.5
      vertex 16.4807 9.60793 7.5
    endloop
  endfacet
  facet normal 0 0 1
    outer loop
      vertex 16.3278 11.1611 7.5
      vertex 16.4231 9.21964 7.5
      vertex 16.4231 10.7804 7.5
    endloop
  endfacet
  facet normal 0 0 1
    outer loop
      vertex 16.3278 11.1611 7.5
      vertex 16.3278 8.83886 7.5
      vertex 16.4231 9.21964 7.5
    endloop
  endfacet
  facet normal 0 0 1
    outer loop
      vertex 16.1955 11.5307 7.5
      vertex 16.3278 8.83886 7.5
      vertex 16.3278 11.1611 7.5
    endloop
  endfacet
  facet normal 0 0 1
    outer loop
      vertex 16.1955 11.5307 7.5
      vertex 16.1955 8.46927 7.5
      vertex 16.3278 8.83886 7.5
    endloop
  endfacet
  facet normal 0 0 1
    outer loop
      vertex 16.0277 11.8856 7.5
      vertex 16.1955 8.46927 7.5
      vertex 16.1955 11.5307 7.5
    endloop
  endfacet
  facet normal 0 0 1
    outer loop
      vertex 16.0277 11.8856 7.5
      vertex 16.0277 8.11441 7.5
      vertex 16.1955 8.46927 7.5
    endloop
  endfacet
  facet normal 0 0 1
    outer loop
      vertex 15.8259 12.2223 7.5
      vertex 16.0277 8.11441 7.5
      vertex 16.0277 11.8856 7.5
    endloop
  endfacet
  facet normal 0 0 1
    outer loop
      vertex 15.8259 12.2223 7.5
      vertex 15.8259 7.77772 7.5
      vertex 16.0277 8.11441 7.5
    endloop
  endfacet
  facet normal 0 0 1
    outer loop
      vertex 15.592 12.5376 7.5
      vertex 15.8259 7.77772 7.5
      vertex 15.8259 12.2223 7.5
    endloop
  endfacet
  facet normal 0 0 1
    outer loop
      vertex 15.592 12.5376 7.5
      vertex 15.592 7.46243 7.5
      vertex 15.8259 7.77772 7.5
    endloop
  endfacet
  facet normal 0 0 1
    outer loop
      vertex 15.3284 12.8284 7.5
      vertex 15.592 7.46243 7.5
      vertex 15.592 12.5376 7.5
    endloop
  endfacet
  facet normal 0 0 1
    outer loop
      vertex 15.3284 12.8284 7.5
      vertex 15.3284 7.17157 7.5
      vertex 15.592 7.46243 7.5
    endloop
  endfacet
  facet normal 0 0 1
    outer loop
      vertex 15.0376 13.092 7.5
      vertex 15.3284 7.17157 7.5
      vertex 15.3284 12.8284 7.5
    endloop
  endfacet
  facet normal 0 0 1
    outer loop
      vertex 15.0376 13.092 7.5
      vertex 15.0376 6.90796 7.5
      vertex 15.3284 7.17157 7.5
    endloop
  endfacet
  facet normal 0 0 1
    outer loop
      vertex 14.7223 13.3259 7.5
      vertex 15.0376 6.90796 7.5
      vertex 15.0376 13.092 7.5
    endloop
  endfacet
  facet normal 0 0 1
    outer loop
      vertex 14.7223 13.3259 7.5
      vertex 14.7223 6.67412 7.5
      vertex 15.0376 6.90796 7.5
    endloop
  endfacet
  facet normal 0 0 1
    outer loop
      vertex 14.3856 13.5277 7.5
      vertex 14.7223 6.67412 7.5
      vertex 14.7223 13.3259 7.5
    endloop
  endfacet
  facet normal 0 0 1
    outer loop
      vertex 14.3856 13.5277 7.5
      vertex 14.3856 6.47231 7.5
      vertex 14.7223 6.67412 7.5
    endloop
  endfacet
  facet normal 0 0 1
    outer loop
      vertex 14.0307 13.6955 7.5
      vertex 14.3856 6.47231 7.5
      vertex 14.3856 13.5277 7.5
    endloop
  endfacet
  facet normal 0 0 1
    outer loop
      vertex 14.0307 13.6955 7.5
      vertex 14.0307 6.30448 7.5
      vertex 14.3856 6.47231 7.5
    endloop
  endfacet
  facet normal 0 0 1
    outer loop
      vertex 13.6611 13.8278 7.5
      vertex 14.0307 6.30448 7.5
      vertex 14.0307 13.6955 7.5
    endloop
  endfacet
  facet normal 0 0 1
    outer loop
      vertex 13.6611 13.8278 7.5
      vertex 13.6611 6.17224 7.5
      vertex 14.0307 6.30448 7.5
    endloop
  endfacet
  facet normal 0 0 1
    outer loop
      vertex 13.2804 13.9231 7.5
      vertex 13.6611 6.17224 7.5
      vertex 13.6611 13.8278 7.5
    endloop
  endfacet
  facet normal 0 0 1
    outer loop
      vertex 13.2804 13.9231 7.5
      vertex 13.2804 6.07686 7.5
      vertex 13.6611 6.17224 7.5
    endloop
  endfacet
  facet normal 0 0 1
    outer loop
      vertex 12.8921 13.9807 7.5
      vertex 13.2804 6.07686 7.5
      vertex 13.2804 13.9231 7.5
    endloop
  endfacet
  facet normal 0 0 1
    outer loop
      vertex 12.8921 13.9807 7.5
      vertex 12.8921 6.01926 7.5
      vertex 13.2804 6.07686 7.5
    endloop
  endfacet
  facet normal 0 0 1
    outer loop
      vertex 12.5 14 7.5
      vertex 12.8921 6.01926 7.5
      vertex 12.8921 13.9807 7.5
    endloop
  endfacet
  facet normal 0 0 1
    outer loop
      vertex 12.5 14 7.5
      vertex 12.5 6 7.5
      vertex 12.8921 6.01926 7.5
    endloop
  endfacet
  facet normal -0 0 1
    outer loop
      vertex 12.1079 13.9807 7.5
      vertex 12.5 6 7.5
      vertex 12.5 14 7.5
    endloop
  endfacet
  facet normal 0 0 1
    outer loop
      vertex 12.1079 13.9807 7.5
      vertex 12.1079 6.01926 7.5
      vertex 12.5 6 7.5
    endloop
  endfacet
  facet normal -0 0 1
    outer loop
      vertex 11.7196 13.9231 7.5
      vertex 12.1079 6.01926 7.5
      vertex 12.1079 13.9807 7.5
    endloop
  endfacet
  facet normal 0 0 1
    outer loop
      vertex 11.7196 13.9231 7.5
      vertex 11.7196 6.07686 7.5
      vertex 12.1079 6.01926 7.5
    endloop
  endfacet
  facet normal -0 0 1
    outer loop
      vertex 11.3389 13.8278 7.5
      vertex 11.7196 6.07686 7.5
      vertex 11.7196 13.9231 7.5
    endloop
  endfacet
  facet normal 0 0 1
    outer loop
      vertex 11.3389 13.8278 7.5
      vertex 11.3389 6.17224 7.5
      vertex 11.7196 6.07686 7.5
    endloop
  endfacet
  facet normal -0 0 1
    outer loop
      vertex 10.9693 13.6955 7.5
      vertex 11.3389 6.17224 7.5
      vertex 11.3389 13.8278 7.5
    endloop
  endfacet
  facet normal 0 0 1
    outer loop
      vertex 10.9693 13.6955 7.5
      vertex 10.9693 6.30448 7.5
      vertex 11.3389 6.17224 7.5
    endloop
  endfacet
  facet normal -0 0 1
    outer loop
      vertex 10.6144 13.5277 7.5
      vertex 10.9693 6.30448 7.5
      vertex 10.9693 13.6955 7.5
    endloop
  endfacet
  facet normal 0 0 1
    outer loop
      vertex 10.6144 13.5277 7.5
      vertex 10.6144 6.47231 7.5
      vertex 10.9693 6.30448 7.5
    endloop
  endfacet
  facet normal -0 0 1
    outer loop
      vertex 10.2777 13.3259 7.5
      vertex 10.6144 6.47231 7.5
      vertex 10.6144 13.5277 7.5
    endloop
  endfacet
  facet normal 0 0 1
    outer loop
      vertex 10.2777 13.3259 7.5
      vertex 10.2777 6.67412 7.5
      vertex 10.6144 6.47231 7.5
    endloop
  endfacet
  facet normal -0 0 1
    outer loop
      vertex 9.96243 13.092 7.5
      vertex 10.2777 6.67412 7.5
      vertex 10.2777 13.3259 7.5
    endloop
  endfacet
  facet normal 0 0 1
    outer loop
      vertex 9.96243 13.092 7.5
      vertex 9.96243 6.90796 7.5
      vertex 10.2777 6.67412 7.5
    endloop
  endfacet
  facet normal -0 0 1
    outer loop
      vertex 9.67157 12.8284 7.5
      vertex 9.96243 6.90796 7.5
      vertex 9.96243 13.092 7.5
    endloop
  endfacet
  facet normal 0 0 1
    outer loop
      vertex 9.67157 12.8284 7.5
      vertex 9.67157 7.17157 7.5
      vertex 9.96243 6.90796 7.5
    endloop
  endfacet
  facet normal -0 0 1
    outer loop
      vertex 9.40796 12.5376 7.5
      vertex 9.67157 7.17157 7.5
      vertex 9.67157 12.8284 7.5
    endloop
  endfacet
  facet normal 0 0 1
    outer loop
      vertex 9.40796 12.5376 7.5
      vertex 9.40796 7.46243 7.5
      vertex 9.67157 7.17157 7.5
    endloop
  endfacet
  facet normal -0 0 1
    outer loop
      vertex 9.17412 12.2223 7.5
      vertex 9.40796 7.46243 7.5
      vertex 9.40796 12.5376 7.5
    endloop
  endfacet
  facet normal 0 0 1
    outer loop
      vertex 9.17412 12.2223 7.5
      vertex 9.17412 7.77772 7.5
      vertex 9.40796 7.46243 7.5
    endloop
  endfacet
  facet normal -0 0 1
    outer loop
      vertex 8.97231 11.8856 7.5
      vertex 9.17412 7.77772 7.5
      vertex 9.17412 12.2223 7.5
    endloop
  endfacet
  facet normal 0 0 1
    outer loop
      vertex 8.97231 11.8856 7.5
      vertex 8.97231 8.11441 7.5
      vertex 9.17412 7.77772 7.5
    endloop
  endfacet
  facet normal -0 0 1
    outer loop
      vertex 8.80448 11.5307 7.5
      vertex 8.97231 8.11441 7.5
      vertex 8.97231 11.8856 7.5
    endloop
  endfacet
  facet normal 0 0 1
    outer loop
      vertex 8.80448 11.5307 7.5
      vertex 8.80448 8.46927 7.5
      vertex 8.97231 8.11441 7.5
    endloop
  endfacet
  facet normal -0 0 1
    outer loop
      vertex 8.67224 11.1611 7.5
      vertex 8.80448 8.46927 7.5
      vertex 8.80448 11.5307 7.5
    endloop
  endfacet
  facet normal 0 0 1
    outer loop
      vertex 8.67224 11.1611 7.5
      vertex 8.67224 8.83886 7.5
      vertex 8.80448 8.46927 7.5
    endloop
  endfacet
  facet normal -0 0 1
    outer loop
      vertex 8.57686 10.7804 7.5
      vertex 8.67224 8.83886 7.5
      vertex 8.67224 11.1611 7.5
    endloop
  endfacet
  facet normal 0 0 1
    outer loop
      vertex 8.57686 10.7804 7.5
      vertex 8.57686 9.21964 7.5
      vertex 8.67224 8.83886 7.5
    endloop
  endfacet
  facet normal -0 0 1
    outer loop
      vertex 8.51926 10.3921 7.5
      vertex 8.57686 9.21964 7.5
      vertex 8.57686 10.7804 7.5
    endloop
  endfacet
  facet normal 0 0 1
    outer loop
      vertex 8.51926 10.3921 7.5
      vertex 8.51926 9.60793 7.5
      vertex 8.57686 9.21964 7.5
    endloop
  endfacet
  facet normal 0 -0 1
    outer loop
      vertex 8.51926 9.60793 7.5
      vertex 8.51926 10.3921 7.5
      vertex 8.5 10 7.5
    endloop
  endfacet
  facet normal 0.803201 0.595708 0
    outer loop
      vertex 9.40796 7.46243 12.5
      vertex 9.17412 7.77772 7.5
      vertex 9.17412 7.77772 12.5
    endloop
  endfacet
  facet normal 0.803201 0.595708 0
    outer loop
      vertex 9.17412 7.77772 7.5
      vertex 9.40796 7.46243 12.5
      vertex 9.40796 7.46243 7.5
    endloop
  endfacet
  facet normal 0.998796 -0.049061 0
    outer loop
      vertex 8.5 10 12.5
      vertex 8.51926 10.3921 7.5
      vertex 8.51926 10.3921 12.5
    endloop
  endfacet
  facet normal 0.998796 -0.049061 0
    outer loop
      vertex 8.51926 10.3921 7.5
      vertex 8.5 10 12.5
      vertex 8.5 10 7.5
    endloop
  endfacet
  facet normal -0.740977 0.671531 0
    outer loop
      vertex 15.3284 7.17157 7.5
      vertex 15.592 7.46243 12.5
      vertex 15.592 7.46243 7.5
    endloop
  endfacet
  facet normal -0.740977 0.671531 0
    outer loop
      vertex 15.592 7.46243 12.5
      vertex 15.3284 7.17157 7.5
      vertex 15.3284 7.17157 12.5
    endloop
  endfacet
endsolid OpenSCAD_Model
