solid OpenSCAD_Model
  facet normal -0.982287 -0.187384 0
    outer loop
      vertex 9.92115 1.25333 0
      vertex 9.68583 2.4869 2
      vertex 9.68583 2.4869 0
    endloop
  endfacet
  facet normal -0.982287 -0.187384 0
    outer loop
      vertex 9.68583 2.4869 2
      vertex 9.92115 1.25333 0
      vertex 9.92115 1.25333 2
    endloop
  endfacet
  facet normal -0.998027 -0.0627883 0
    outer loop
      vertex 10 0 0
      vertex 9.92115 1.25333 2
      vertex 9.92115 1.25333 0
    endloop
  endfacet
  facet normal -0.998027 -0.0627883 0
    outer loop
      vertex 9.92115 1.25333 2
      vertex 10 0 0
      vertex 10 0 2
    endloop
  endfacet
  facet normal -0.951055 -0.309021 0
    outer loop
      vertex 9.68583 2.4869 0
      vertex 9.29776 3.68124 2
      vertex 9.29776 3.68124 0
    endloop
  endfacet
  facet normal -0.951055 -0.309021 0
    outer loop
      vertex 9.29776 3.68124 2
      vertex 9.68583 2.4869 0
      vertex 9.68583 2.4869 2
    endloop
  endfacet
  facet normal -0.248691 -0.968583 0
    outer loop
      vertex 1.87381 9.82287 0
      vertex 3.09017 9.51056 2
      vertex 1.87381 9.82287 2
    endloop
  endfacet
  facet normal -0.248691 -0.968583 -0
    outer loop
      vertex 3.09017 9.51056 2
      vertex 1.87381 9.82287 0
      vertex 3.09017 9.51056 0
    endloop
  endfacet
  facet normal -0.368122 -0.929777 0
    outer loop
      vertex 3.09017 9.51056 0
      vertex 4.25779 9.04827 2
      vertex 3.09017 9.51056 2
    endloop
  endfacet
  facet normal -0.368122 -0.929777 -0
    outer loop
      vertex 4.25779 9.04827 2
      vertex 3.09017 9.51056 0
      vertex 4.25779 9.04827 0
    endloop
  endfacet
  facet normal -0.844325 -0.535831 0
    outer loop
      vertex 8.76307 4.81754 0
      vertex 8.09017 5.87785 2
      vertex 8.09017 5.87785 0
    endloop
  endfacet
  facet normal -0.844325 -0.535831 0
    outer loop
      vertex 8.09017 5.87785 2
      vertex 8.76307 4.81754 0
      vertex 8.76307 4.81754 2
    endloop
  endfacet
  facet normal -0.904831 -0.425771 0
    outer loop
      vertex 9.29776 3.68124 0
      vertex 8.76307 4.81754 2
      vertex 8.76307 4.81754 0
    endloop
  endfacet
  facet normal -0.904831 -0.425771 0
    outer loop
      vertex 8.76307 4.81754 2
      vertex 9.29776 3.68124 0
      vertex 9.29776 3.68124 2
    endloop
  endfacet
  facet normal -0.684545 -0.728971 0
    outer loop
      vertex 6.37424 7.70513 0
      vertex 7.28969 6.84547 2
      vertex 6.37424 7.70513 2
    endloop
  endfacet
  facet normal -0.684545 -0.728971 -0
    outer loop
      vertex 7.28969 6.84547 2
      vertex 6.37424 7.70513 0
      vertex 7.28969 6.84547 0
    endloop
  endfacet
  facet normal 0 0 -1
    outer loop
      vertex 9.92115 1.25333 0
      vertex 20 0 0
      vertex 10 0 0
    endloop
  endfacet
  facet normal 0 0 -1
    outer loop
      vertex 9.68583 2.4869 0
      vertex 20 0 0
      vertex 9.92115 1.25333 0
    endloop
  endfacet
  facet normal 0 0 -1
    outer loop
      vertex 9.29776 3.68124 0
      vertex 20 0 0
      vertex 9.68583 2.4869 0
    endloop
  endfacet
  facet normal 0 0 -1
    outer loop
      vertex 8.76307 4.81754 0
      vertex 20 0 0
      vertex 9.29776 3.68124 0
    endloop
  endfacet
  facet normal 0 0 -1
    outer loop
      vertex 20 0 0
      vertex 8.76307 4.81754 0
      vertex 20 20 0
    endloop
  endfacet
  facet normal 0 0 -1
    outer loop
      vertex 8.09017 5.87785 0
      vertex 20 20 0
      vertex 8.76307 4.81754 0
    endloop
  endfacet
  facet normal 0 0 -1
    outer loop
      vertex 7.28969 6.84547 0
      vertex 20 20 0
      vertex 8.09017 5.87785 0
    endloop
  endfacet
  facet normal 0 0 -1
    outer loop
      vertex 6.37424 7.70513 0
      vertex 20 20 0
      vertex 7.28969 6.84547 0
    endloop
  endfacet
  facet normal 0 0 -1
    outer loop
      vertex 5.35827 8.44328 0
      vertex 20 20 0
      vertex 6.37424 7.70513 0
    endloop
  endfacet
  facet normal 0 0 -1
    outer loop
      vertex 0 20 0
      vertex 5.35827 8.44328 0
      vertex 4.25779 9.04827 0
    endloop
  endfacet
  facet normal 0 0 -1
    outer loop
      vertex 0 20 0
      vertex 4.25779 9.04827 0
      vertex 3.09017 9.51056 0
    endloop
  endfacet
  facet normal 0 0 -1
    outer loop
      vertex 0 20 0
      vertex 3.09017 9.51056 0
      vertex 1.87381 9.82287 0
    endloop
  endfacet
  facet normal 0 0 -1
    outer loop
      vertex 0 20 0
      vertex 1.87381 9.82287 0
      vertex 0.627905 9.98027 0
    endloop
  endfacet
  facet normal 0 0 -1
    outer loop
      vertex 0 20 0
      vertex 0.627905 9.98027 0
      vertex 0 9.98027 0
    endloop
  endfacet
  facet normal 0 0 -1
    outer loop
      vertex 5.35827 8.44328 0
      vertex 0 20 0
      vertex 20 20 0
    endloop
  endfacet
  facet normal 0 -1 0
    outer loop
      vertex 0 9.98027 0
      vertex 0.627905 9.98027 2
      vertex 0 9.98027 2
    endloop
  endfacet
  facet normal 0 -1 -0
    outer loop
      vertex 0.627905 9.98027 2
      vertex 0 9.98027 0
      vertex 0.627905 9.98027 0
    endloop
  endfacet
  facet normal -0.125338 -0.992114 0
    outer loop
      vertex 0.627905 9.98027 0
      vertex 1.87381 9.82287 2
      vertex 0.627905 9.98027 2
    endloop
  endfacet
  facet normal -0.125338 -0.992114 -0
    outer loop
      vertex 1.87381 9.82287 2
      vertex 0.627905 9.98027 0
      vertex 1.87381 9.82287 0
    endloop
  endfacet
  facet normal -0.481751 -0.876308 0
    outer loop
      vertex 4.25779 9.04827 0
      vertex 5.35827 8.44328 2
      vertex 4.25779 9.04827 2
    endloop
  endfacet
  facet normal -0.481751 -0.876308 -0
    outer loop
      vertex 5.35827 8.44328 2
      vertex 4.25779 9.04827 0
      vertex 5.35827 8.44328 0
    endloop
  endfacet
  facet normal -0.587788 -0.809015 0
    outer loop
      vertex 5.35827 8.44328 0
      vertex 6.37424 7.70513 2
      vertex 5.35827 8.44328 2
    endloop
  endfacet
  facet normal -0.587788 -0.809015 -0
    outer loop
      vertex 6.37424 7.70513 2
      vertex 5.35827 8.44328 0
      vertex 6.37424 7.70513 0
    endloop
  endfacet
  facet normal 0 0 -1
    outer loop
      vertex 0 0 2
      vertex 9.92115 1.25333 2
      vertex 10 0 2
    endloop
  endfacet
  facet normal -0 0 -1
    outer loop
      vertex 9.92115 1.25333 2
      vertex 0 0 2
      vertex 9.68583 2.4869 2
    endloop
  endfacet
  facet normal -0 0 -1
    outer loop
      vertex 9.68583 2.4869 2
      vertex 0 0 2
      vertex 9.29776 3.68124 2
    endloop
  endfacet
  facet normal -0 0 -1
    outer loop
      vertex 9.29776 3.68124 2
      vertex 0 0 2
      vertex 8.76307 4.81754 2
    endloop
  endfacet
  facet normal -0 0 -1
    outer loop
      vertex 8.76307 4.81754 2
      vertex 0 0 2
      vertex 8.09017 5.87785 2
    endloop
  endfacet
  facet normal -0 0 -1
    outer loop
      vertex 8.09017 5.87785 2
      vertex 0 0 2
      vertex 7.28969 6.84547 2
    endloop
  endfacet
  facet normal -0 0 -1
    outer loop
      vertex 7.28969 6.84547 2
      vertex 0 0 2
      vertex 6.37424 7.70513 2
    endloop
  endfacet
  facet normal -0 0 -1
    outer loop
      vertex 6.37424 7.70513 2
      vertex 0 0 2
      vertex 5.35827 8.44328 2
    endloop
  endfacet
  facet normal -0 0 -1
    outer loop
      vertex 5.35827 8.44328 2
      vertex 0 0 2
      vertex 4.25779 9.04827 2
    endloop
  endfacet
  facet normal -0 0 -1
    outer loop
      vertex 4.25779 9.04827 2
      vertex 0 0 2
      vertex 3.09017 9.51056 2
    endloop
  endfacet
  facet normal -0 0 -1
    outer loop
      vertex 3.09017 9.51056 2
      vertex 0 0 2
      vertex 1.87381 9.82287 2
    endloop
  endfacet
  facet normal -0 0 -1
    outer loop
      vertex 1.87381 9.82287 2
      vertex 0 0 2
      vertex 0.627905 9.98027 2
    endloop
  endfacet
  facet normal -0 0 -1
    outer loop
      vertex 0.627905 9.98027 2
      vertex 0 0 2
      vertex 0 9.98027 2
    endloop
  endfacet
  facet normal -0.770515 -0.637422 0
    outer loop
      vertex 8.09017 5.87785 0
      vertex 7.28969 6.84547 2
      vertex 7.28969 6.84547 0
    endloop
  endfacet
  facet normal -0.770515 -0.637422 0
    outer loop
      vertex 7.28969 6.84547 2
      vertex 8.09017 5.87785 0
      vertex 8.09017 5.87785 2
    endloop
  endfacet
  facet normal -0 0 1
    outer loop
      vertex 8.76307 4.81754 10
      vertex 20 0 10
      vertex 20 20 10
    endloop
  endfacet
  facet normal 0 0 1
    outer loop
      vertex 20 0 10
      vertex 9.92115 1.25333 10
      vertex 10 0 10
    endloop
  endfacet
  facet normal 0 0 1
    outer loop
      vertex 20 0 10
      vertex 9.68583 2.4869 10
      vertex 9.92115 1.25333 10
    endloop
  endfacet
  facet normal 0 0 1
    outer loop
      vertex 20 0 10
      vertex 9.29776 3.68124 10
      vertex 9.68583 2.4869 10
    endloop
  endfacet
  facet normal 0 0 1
    outer loop
      vertex 20 0 10
      vertex 8.76307 4.81754 10
      vertex 9.29776 3.68124 10
    endloop
  endfacet
  facet normal 0 0 1
    outer loop
      vertex 20 20 10
      vertex 8.09017 5.87785 10
      vertex 8.76307 4.81754 10
    endloop
  endfacet
  facet normal 0 0 1
    outer loop
      vertex 20 20 10
      vertex 7.28969 6.84547 10
      vertex 8.09017 5.87785 10
    endloop
  endfacet
  facet normal 0 0 1
    outer loop
      vertex 20 20 10
      vertex 6.37424 7.70513 10
      vertex 7.28969 6.84547 10
    endloop
  endfacet
  facet normal 0 0 1
    outer loop
      vertex 20 20 10
      vertex 5.35827 8.44328 10
      vertex 6.37424 7.70513 10
    endloop
  endfacet
  facet normal -0 0 1
    outer loop
      vertex 0 20 10
      vertex 5.35827 8.44328 10
      vertex 20 20 10
    endloop
  endfacet
  facet normal 0 0 1
    outer loop
      vertex 5.35827 8.44328 10
      vertex 0 20 10
      vertex 4.25779 9.04827 10
    endloop
  endfacet
  facet normal 0 0 1
    outer loop
      vertex 4.25779 9.04827 10
      vertex 0 20 10
      vertex 3.09017 9.51056 10
    endloop
  endfacet
  facet normal 0 0 1
    outer loop
      vertex 3.09017 9.51056 10
      vertex 0 20 10
      vertex 1.87381 9.82287 10
    endloop
  endfacet
  facet normal 0 0 1
    outer loop
      vertex 1.87381 9.82287 10
      vertex 0 20 10
      vertex 0.627905 9.98027 10
    endloop
  endfacet
  facet normal 0 0 1
    outer loop
      vertex 0.627905 9.98027 10
      vertex 0 20 10
      vertex 0 9.98027 10
    endloop
  endfacet
  facet normal 0 0 1
    outer loop
      vertex 0 0 10
      vertex 9.92115 1.25333 10
      vertex 9.68583 2.4869 10
    endloop
  endfacet
  facet normal 0 0 1
    outer loop
      vertex 0 0 10
      vertex 9.68583 2.4869 10
      vertex 9.29776 3.68124 10
    endloop
  endfacet
  facet normal 0 0 1
    outer loop
      vertex 0 0 10
      vertex 9.29776 3.68124 10
      vertex 8.76307 4.81754 10
    endloop
  endfacet
  facet normal 0 0 1
    outer loop
      vertex 0 0 10
      vertex 8.76307 4.81754 10
      vertex 8.09017 5.87785 10
    endloop
  endfacet
  facet normal 0 0 1
    outer loop
      vertex 0 0 10
      vertex 8.09017 5.87785 10
      vertex 7.28969 6.84547 10
    endloop
  endfacet
  facet normal 0 0 1
    outer loop
      vertex 0 0 10
      vertex 7.28969 6.84547 10
      vertex 6.37424 7.70513 10
    endloop
  endfacet
  facet normal 0 0 1
    outer loop
      vertex 0 0 10
      vertex 6.37424 7.70513 10
      vertex 5.35827 8.44328 10
    endloop
  endfacet
  facet normal 0 0 1
    outer loop
      vertex 0 0 10
      vertex 5.35827 8.44328 10
      vertex 4.25779 9.04827 10
    endloop
  endfacet
  facet normal 0 0 1
    outer loop
      vertex 0 0 10
      vertex 4.25779 9.04827 10
      vertex 3.09017 9.51056 10
    endloop
  endfacet
  facet normal 0 0 1
    outer loop
      vertex 0 0 10
      vertex 3.09017 9.51056 10
      vertex 1.87381 9.82287 10
    endloop
  endfacet
  facet normal 0 0 1
    outer loop
      vertex 0 0 10
      vertex 1.87381 9.82287 10
      vertex 0.627905 9.98027 10
    endloop
  endfacet
  facet normal 0 0 1
    outer loop
      vertex 0 0 10
      vertex 0.627905 9.98027 10
      vertex 0 9.98027 10
    endloop
  endfacet
  facet normal 0 0 1
    outer loop
      vertex 9.92115 1.25333 10
      vertex 0 0 10
      vertex 10 0 10
    endloop
  endfacet
  facet normal 1 -0 0
    outer loop
      vertex 20 0 10
      vertex 20 20 0
      vertex 20 20 10
    endloop
  endfacet
  facet normal 1 0 0
    outer loop
      vertex 20 20 0
      vertex 20 0 10
      vertex 20 0 0
    endloop
  endfacet
  facet normal -1 0 0
    outer loop
      vertex 0 9.98027 2
      vertex 0 20 0
      vertex 0 9.98027 0
    endloop
  endfacet
  facet normal -1 0 0
    outer loop
      vertex 0 20 0
      vertex 0 9.98027 2
      vertex 0 20 10
    endloop
  endfacet
  facet normal -1 0 0
    outer loop
      vertex 0 9.98027 2
      vertex 0 9.98027 10
      vertex 0 20 10
    endloop
  endfacet
  facet normal -1 0 0
    outer loop
      vertex 0 0 2
      vertex 0 9.98027 10
      vertex 0 9.98027 2
    endloop
  endfacet
  facet normal -1 -0 0
    outer loop
      vertex 0 9.98027 10
      vertex 0 0 2
      vertex 0 0 10
    endloop
  endfacet
  facet normal 0 1 -0
    outer loop
      vertex 20 20 0
      vertex 0 20 10
      vertex 20 20 10
    endloop
  endfacet
  facet normal 0 1 0
    outer loop
      vertex 0 20 10
      vertex 20 20 0
      vertex 0 20 0
    endloop
  endfacet
  facet normal 0 -1 0
    outer loop
      vertex 10 0 2
      vertex 10 0 10
      vertex 0 0 10
    endloop
  endfacet
  facet normal 0 -1 0
    outer loop
      vertex 10 0 2
      vertex 0 0 10
      vertex 0 0 2
    endloop
  endfacet
  facet normal 0 -1 0
    outer loop
      vertex 10 0 10
      vertex 10 0 2
      vertex 20 0 10
    endloop
  endfacet
  facet normal 0 -1 0
    outer loop
      vertex 20 0 0
      vertex 10 0 2
      vertex 10 0 0
    endloop
  endfacet
  facet normal 0 -1 0
    outer loop
      vertex 10 0 2
      vertex 20 0 0
      vertex 20 0 10
    endloop
  endfacet
endsolid OpenSCAD_Model
