solid OpenSCAD_Model
  facet normal 0 0 1
    outer loop
      vertex 0.154508 0.475528 0.866025
      vertex 0.154508 -0.475528 0.866025
      vertex 0.5 0 0.866025
    endloop
  endfacet
  facet normal -0 0 1
    outer loop
      vertex -0.404508 0.293892 0.866025
      vertex 0.154508 -0.475528 0.866025
      vertex 0.154508 0.475528 0.866025
    endloop
  endfacet
  facet normal 0 0 1
    outer loop
      vertex 0.154508 -0.475528 0.866025
      vertex -0.404508 0.293892 0.866025
      vertex -0.404508 -0.293892 0.866025
    endloop
  endfacet
  facet normal 0.732999 -0.532556 0.423197
    outer loop
      vertex 0.5 0 0.866025
      vertex 0.309016 -0.951056 0
      vertex 1 0 0
    endloop
  endfacet
  facet normal -0.279981 0.861693 0.423198
    outer loop
      vertex 0.309016 0.951056 0
      vertex -0.809016 0.587785 0
      vertex 0.154508 0.475528 0.866025
    endloop
  endfacet
  facet normal -0.906038 0 -0.423197
    outer loop
      vertex -0.404508 -0.293892 -0.866025
      vertex -0.809016 0.587785 0
      vertex -0.404508 0.293892 -0.866025
    endloop
  endfacet
  facet normal -0.906038 -0 -0.423197
    outer loop
      vertex -0.809016 0.587785 0
      vertex -0.404508 -0.293892 -0.866025
      vertex -0.809016 -0.587785 0
    endloop
  endfacet
  facet normal 0.732999 -0.532556 -0.423197
    outer loop
      vertex 0.309016 -0.951056 0
      vertex 0.154508 -0.475528 -0.866025
      vertex 0.5 0 -0.866025
    endloop
  endfacet
  facet normal 0.732999 0.532556 0.423197
    outer loop
      vertex 0.309016 0.951056 0
      vertex 0.154508 0.475528 0.866025
      vertex 0.5 0 0.866025
    endloop
  endfacet
  facet normal 0.732999 -0.532556 -0.423197
    outer loop
      vertex 1 0 0
      vertex 0.309016 -0.951056 0
      vertex 0.5 0 -0.866025
    endloop
  endfacet
  facet normal 0.732999 0.532556 -0.423197
    outer loop
      vertex 0.5 0 -0.866025
      vertex 0.309016 0.951056 0
      vertex 1 0 0
    endloop
  endfacet
  facet normal 0.732999 0.532556 0.423197
    outer loop
      vertex 1 0 0
      vertex 0.309016 0.951056 0
      vertex 0.5 0 0.866025
    endloop
  endfacet
  facet normal -0.279981 -0.861693 0.423198
    outer loop
      vertex 0.154508 -0.475528 0.866025
      vertex -0.809016 -0.587785 0
      vertex 0.309016 -0.951056 0
    endloop
  endfacet
  facet normal -0.279982 0.861692 0.423198
    outer loop
      vertex 0.154508 0.475528 0.866025
      vertex -0.809016 0.587785 0
      vertex -0.404508 0.293892 0.866025
    endloop
  endfacet
  facet normal 0.732999 -0.532556 0.423197
    outer loop
      vertex 0.5 0 0.866025
      vertex 0.154508 -0.475528 0.866025
      vertex 0.309016 -0.951056 0
    endloop
  endfacet
  facet normal -0.279981 0.861693 -0.423198
    outer loop
      vertex 0.154508 0.475528 -0.866025
      vertex -0.809016 0.587785 0
      vertex 0.309016 0.951056 0
    endloop
  endfacet
  facet normal 0.732999 0.532556 -0.423197
    outer loop
      vertex 0.5 0 -0.866025
      vertex 0.154508 0.475528 -0.866025
      vertex 0.309016 0.951056 0
    endloop
  endfacet
  facet normal -0.279981 -0.861693 -0.423198
    outer loop
      vertex 0.309016 -0.951056 0
      vertex -0.809016 -0.587785 0
      vertex 0.154508 -0.475528 -0.866025
    endloop
  endfacet
  facet normal -0.279982 -0.861692 -0.423198
    outer loop
      vertex 0.154508 -0.475528 -0.866025
      vertex -0.809016 -0.587785 0
      vertex -0.404508 -0.293892 -0.866025
    endloop
  endfacet
  facet normal -0 0 -1
    outer loop
      vertex 0.5 0 -0.866025
      vertex 0.494704 -0.00147147 -0.866025
      vertex 0.495773 0 -0.866025
    endloop
  endfacet
  facet normal 0 0 -1
    outer loop
      vertex 0.154508 -0.475528 -0.866025
      vertex 0.494704 -0.00147147 -0.866025
      vertex 0.5 0 -0.866025
    endloop
  endfacet
  facet normal 0 0 -1
    outer loop
      vertex 0.154508 -0.475528 -0.866025
      vertex 0.153202 -0.471508 -0.866025
      vertex 0.494704 -0.00147147 -0.866025
    endloop
  endfacet
  facet normal 0 0 -1
    outer loop
      vertex 0.154508 -0.475528 -0.866025
      vertex 0.151472 -0.470946 -0.866025
      vertex 0.153202 -0.471508 -0.866025
    endloop
  endfacet
  facet normal 0 0 -1
    outer loop
      vertex -0.404508 -0.293892 -0.866025
      vertex 0.151472 -0.470946 -0.866025
      vertex 0.154508 -0.475528 -0.866025
    endloop
  endfacet
  facet normal -0 0 -1
    outer loop
      vertex -0.401089 -0.291408 -0.866025
      vertex -0.404508 -0.293892 -0.866025
      vertex -0.401089 0.291408 -0.866025
    endloop
  endfacet
  facet normal 0 0 -1
    outer loop
      vertex 0.151472 -0.470946 -0.866025
      vertex -0.404508 -0.293892 -0.866025
      vertex -0.401089 -0.291408 -0.866025
    endloop
  endfacet
  facet normal 0 0 -1
    outer loop
      vertex 0.494704 0.00147147 -0.866025
      vertex 0.5 0 -0.866025
      vertex 0.495773 0 -0.866025
    endloop
  endfacet
  facet normal 0 0 -1
    outer loop
      vertex 0.494704 0.00147147 -0.866025
      vertex 0.154508 0.475528 -0.866025
      vertex 0.5 0 -0.866025
    endloop
  endfacet
  facet normal 0 0 -1
    outer loop
      vertex 0.153202 0.471508 -0.866025
      vertex 0.154508 0.475528 -0.866025
      vertex 0.494704 0.00147147 -0.866025
    endloop
  endfacet
  facet normal 0 0 -1
    outer loop
      vertex 0.151472 0.470946 -0.866025
      vertex 0.154508 0.475528 -0.866025
      vertex 0.153202 0.471508 -0.866025
    endloop
  endfacet
  facet normal 0 0 -1
    outer loop
      vertex -0.404508 0.293892 -0.866025
      vertex 0.151472 0.470946 -0.866025
      vertex -0.401089 0.291408 -0.866025
    endloop
  endfacet
  facet normal -0 0 -1
    outer loop
      vertex 0.151472 0.470946 -0.866025
      vertex -0.404508 0.293892 -0.866025
      vertex 0.154508 0.475528 -0.866025
    endloop
  endfacet
  facet normal 0 0 -1
    outer loop
      vertex -0.404508 0.293892 -0.866025
      vertex -0.401089 0.291408 -0.866025
      vertex -0.404508 -0.293892 -0.866025
    endloop
  endfacet
  facet normal -0.279982 -0.861692 0.423198
    outer loop
      vertex -0.404508 -0.293892 0.866025
      vertex -0.809016 -0.587785 0
      vertex 0.154508 -0.475528 0.866025
    endloop
  endfacet
  facet normal -0.906038 0 0.423197
    outer loop
      vertex -0.809016 0.587785 0
      vertex -0.404508 -0.293892 0.866025
      vertex -0.404508 0.293892 0.866025
    endloop
  endfacet
  facet normal -0.906038 0 0.423197
    outer loop
      vertex -0.404508 -0.293892 0.866025
      vertex -0.809016 0.587785 0
      vertex -0.809016 -0.587785 0
    endloop
  endfacet
  facet normal -0.279982 0.861692 -0.423198
    outer loop
      vertex -0.404508 0.293892 -0.866025
      vertex -0.809016 0.587785 0
      vertex 0.154508 0.475528 -0.866025
    endloop
  endfacet
  facet normal 0 0 -1
    outer loop
      vertex 0.152963 -0.470773 0.847364
      vertex 0.152963 0.470773 0.847364
      vertex 0.495 0 0.847364
    endloop
  endfacet
  facet normal 0 0 -1
    outer loop
      vertex -0.400463 -0.290954 0.847364
      vertex 0.152963 0.470773 0.847364
      vertex 0.152963 -0.470773 0.847364
    endloop
  endfacet
  facet normal 0 0 -1
    outer loop
      vertex 0.152963 0.470773 0.847364
      vertex -0.400463 -0.290954 0.847364
      vertex -0.400463 0.290954 0.847364
    endloop
  endfacet
  facet normal 0.279981 -0.861693 -0.423198
    outer loop
      vertex 0.305926 0.941545 -0.00999928
      vertex 0.152963 0.470773 0.847364
      vertex -0.800926 0.581907 -0.00999928
    endloop
  endfacet
  facet normal 0.906037 0 -0.423198
    outer loop
      vertex -0.400463 -0.290954 0.847364
      vertex -0.800926 0.581907 -0.00999928
      vertex -0.400463 0.290954 0.847364
    endloop
  endfacet
  facet normal 0.906037 0 -0.423198
    outer loop
      vertex -0.800926 0.581907 -0.00999928
      vertex -0.400463 -0.290954 0.847364
      vertex -0.800926 -0.581907 -0.00999928
    endloop
  endfacet
  facet normal 0.279929 0.861703 0.423212
    outer loop
      vertex 0.151472 -0.470946 -0.866025
      vertex 0.305926 -0.941545 -0.00999928
      vertex 0.153202 -0.471508 -0.866025
    endloop
  endfacet
  facet normal 0.279981 0.861693 0.423197
    outer loop
      vertex 0.305926 -0.941545 -0.00999928
      vertex 0.151472 -0.470946 -0.866025
      vertex -0.800926 -0.581907 -0.00999928
    endloop
  endfacet
  facet normal -0.732999 -0.532556 -0.423198
    outer loop
      vertex 0.305926 0.941545 -0.00999928
      vertex 0.495 0 0.847364
      vertex 0.152963 0.470773 0.847364
    endloop
  endfacet
  facet normal -0.732999 0.532556 0.423197
    outer loop
      vertex 0.305926 -0.941545 -0.00999928
      vertex 0.494704 -0.00147147 -0.866025
      vertex 0.153202 -0.471508 -0.866025
    endloop
  endfacet
  facet normal -0.732999 0.532556 -0.423198
    outer loop
      vertex 0.495 0 0.847364
      vertex 0.305926 -0.941545 -0.00999928
      vertex 0.152963 -0.470773 0.847364
    endloop
  endfacet
  facet normal -0.733016 -0.532525 0.423207
    outer loop
      vertex 0.99 0 -0.00999928
      vertex 0.494704 0.00147147 -0.866025
      vertex 0.495773 0 -0.866025
    endloop
  endfacet
  facet normal -0.732999 -0.532556 0.423197
    outer loop
      vertex 0.494704 0.00147147 -0.866025
      vertex 0.99 0 -0.00999928
      vertex 0.305926 0.941545 -0.00999928
    endloop
  endfacet
  facet normal -0.732999 -0.532556 -0.423198
    outer loop
      vertex 0.99 0 -0.00999928
      vertex 0.495 0 0.847364
      vertex 0.305926 0.941545 -0.00999928
    endloop
  endfacet
  facet normal 0.279981 0.861693 -0.423198
    outer loop
      vertex 0.152963 -0.470773 0.847364
      vertex 0.305926 -0.941545 -0.00999928
      vertex -0.800926 -0.581907 -0.00999928
    endloop
  endfacet
  facet normal 0.906038 0 0.423197
    outer loop
      vertex -0.800926 0.581907 -0.00999928
      vertex -0.401089 -0.291408 -0.866025
      vertex -0.401089 0.291408 -0.866025
    endloop
  endfacet
  facet normal 0.906038 0 0.423197
    outer loop
      vertex -0.401089 -0.291408 -0.866025
      vertex -0.800926 0.581907 -0.00999928
      vertex -0.800926 -0.581907 -0.00999928
    endloop
  endfacet
  facet normal 0.279981 -0.861693 -0.423198
    outer loop
      vertex 0.152963 0.470773 0.847364
      vertex -0.400463 0.290954 0.847364
      vertex -0.800926 0.581907 -0.00999928
    endloop
  endfacet
  facet normal 0.279981 0.861693 -0.423198
    outer loop
      vertex -0.400463 -0.290954 0.847364
      vertex 0.152963 -0.470773 0.847364
      vertex -0.800926 -0.581907 -0.00999928
    endloop
  endfacet
  facet normal -0.733016 0.532525 0.423207
    outer loop
      vertex 0.494704 -0.00147147 -0.866025
      vertex 0.99 0 -0.00999928
      vertex 0.495773 0 -0.866025
    endloop
  endfacet
  facet normal -0.732999 0.532556 0.423197
    outer loop
      vertex 0.99 0 -0.00999928
      vertex 0.494704 -0.00147147 -0.866025
      vertex 0.305926 -0.941545 -0.00999928
    endloop
  endfacet
  facet normal -0.732999 0.532556 -0.423198
    outer loop
      vertex 0.495 0 0.847364
      vertex 0.99 0 -0.00999928
      vertex 0.305926 -0.941545 -0.00999928
    endloop
  endfacet
  facet normal 0.279981 -0.861693 0.423197
    outer loop
      vertex 0.151472 0.470946 -0.866025
      vertex 0.305926 0.941545 -0.00999928
      vertex -0.800926 0.581907 -0.00999928
    endloop
  endfacet
  facet normal 0.279929 -0.861703 0.423212
    outer loop
      vertex 0.305926 0.941545 -0.00999928
      vertex 0.151472 0.470946 -0.866025
      vertex 0.153202 0.471508 -0.866025
    endloop
  endfacet
  facet normal -0.732999 -0.532556 0.423197
    outer loop
      vertex 0.494704 0.00147147 -0.866025
      vertex 0.305926 0.941545 -0.00999928
      vertex 0.153202 0.471508 -0.866025
    endloop
  endfacet
  facet normal 0.279981 0.861693 0.423197
    outer loop
      vertex 0.151472 -0.470946 -0.866025
      vertex -0.401089 -0.291408 -0.866025
      vertex -0.800926 -0.581907 -0.00999928
    endloop
  endfacet
  facet normal 0.279981 -0.861693 0.423197
    outer loop
      vertex -0.401089 0.291408 -0.866025
      vertex 0.151472 0.470946 -0.866025
      vertex -0.800926 0.581907 -0.00999928
    endloop
  endfacet
endsolid OpenSCAD_Model
