solid OpenSCAD_Model
  facet normal 1 -0 0
    outer loop
      vertex 50 0 20
      vertex 50 30 0
      vertex 50 30 20
    endloop
  endfacet
  facet normal 1 0 0
    outer loop
      vertex 50 30 0
      vertex 50 0 20
      vertex 50 0 0
    endloop
  endfacet
  facet normal 0 0 1
    outer loop
      vertex 50 30 20
      vertex 39 15 20
      vertex 50 0 20
    endloop
  endfacet
  facet normal 0 0 1
    outer loop
      vertex 50 30 20
      vertex 38.9231 15.7804 20
      vertex 39 15 20
    endloop
  endfacet
  facet normal 0 0 1
    outer loop
      vertex 50 30 20
      vertex 38.6955 16.5307 20
      vertex 38.9231 15.7804 20
    endloop
  endfacet
  facet normal 0 0 1
    outer loop
      vertex 50 30 20
      vertex 38.3259 17.2223 20
      vertex 38.6955 16.5307 20
    endloop
  endfacet
  facet normal 0 0 1
    outer loop
      vertex 50 30 20
      vertex 37.8284 17.8284 20
      vertex 38.3259 17.2223 20
    endloop
  endfacet
  facet normal 0 0 1
    outer loop
      vertex 50 30 20
      vertex 37.2223 18.3259 20
      vertex 37.8284 17.8284 20
    endloop
  endfacet
  facet normal 0 0 1
    outer loop
      vertex 50 30 20
      vertex 36.5307 18.6955 20
      vertex 37.2223 18.3259 20
    endloop
  endfacet
  facet normal 0 0 1
    outer loop
      vertex 50 30 20
      vertex 35.7804 18.9231 20
      vertex 36.5307 18.6955 20
    endloop
  endfacet
  facet normal 0 0 1
    outer loop
      vertex 50 30 20
      vertex 35 19 20
      vertex 35.7804 18.9231 20
    endloop
  endfacet
  facet normal 0 0 1
    outer loop
      vertex 50 30 20
      vertex 34.2196 18.9231 20
      vertex 35 19 20
    endloop
  endfacet
  facet normal 0 0 1
    outer loop
      vertex 50 30 20
      vertex 33.4693 18.6955 20
      vertex 34.2196 18.9231 20
    endloop
  endfacet
  facet normal 0 0 1
    outer loop
      vertex 16.5307 18.6955 20
      vertex 33.4693 18.6955 20
      vertex 50 30 20
    endloop
  endfacet
  facet normal 0 0 1
    outer loop
      vertex 31.0769 15.7804 20
      vertex 19 15 20
      vertex 31 15 20
    endloop
  endfacet
  facet normal 0 0 1
    outer loop
      vertex 18.9231 15.7804 20
      vertex 31.0769 15.7804 20
      vertex 31.3045 16.5307 20
    endloop
  endfacet
  facet normal 0 0 1
    outer loop
      vertex 18.6955 16.5307 20
      vertex 31.3045 16.5307 20
      vertex 31.6741 17.2223 20
    endloop
  endfacet
  facet normal 0 0 1
    outer loop
      vertex 18.3259 17.2223 20
      vertex 31.6741 17.2223 20
      vertex 32.1716 17.8284 20
    endloop
  endfacet
  facet normal 0 0 1
    outer loop
      vertex 17.8284 17.8284 20
      vertex 32.1716 17.8284 20
      vertex 32.7777 18.3259 20
    endloop
  endfacet
  facet normal 0 0 1
    outer loop
      vertex 33.4693 18.6955 20
      vertex 16.5307 18.6955 20
      vertex 32.7777 18.3259 20
    endloop
  endfacet
  facet normal 0 0 1
    outer loop
      vertex 31.0769 15.7804 20
      vertex 18.9231 15.7804 20
      vertex 19 15 20
    endloop
  endfacet
  facet normal 0 0 1
    outer loop
      vertex 31.3045 16.5307 20
      vertex 18.6955 16.5307 20
      vertex 18.9231 15.7804 20
    endloop
  endfacet
  facet normal 0 0 1
    outer loop
      vertex 31.6741 17.2223 20
      vertex 18.3259 17.2223 20
      vertex 18.6955 16.5307 20
    endloop
  endfacet
  facet normal 0 0 1
    outer loop
      vertex 32.1716 17.8284 20
      vertex 17.8284 17.8284 20
      vertex 18.3259 17.2223 20
    endloop
  endfacet
  facet normal 0 0 1
    outer loop
      vertex 32.7777 18.3259 20
      vertex 17.2223 18.3259 20
      vertex 17.8284 17.8284 20
    endloop
  endfacet
  facet normal 0 0 1
    outer loop
      vertex 32.7777 18.3259 20
      vertex 16.5307 18.6955 20
      vertex 17.2223 18.3259 20
    endloop
  endfacet
  facet normal 0 0 1
    outer loop
      vertex 50 30 20
      vertex 15.7804 18.9231 20
      vertex 16.5307 18.6955 20
    endloop
  endfacet
  facet normal -0 0 1
    outer loop
      vertex 0 30 20
      vertex 15.7804 18.9231 20
      vertex 50 30 20
    endloop
  endfacet
  facet normal 0 0 1
    outer loop
      vertex 15.7804 18.9231 20
      vertex 0 30 20
      vertex 15 19 20
    endloop
  endfacet
  facet normal 0 0 1
    outer loop
      vertex 15 19 20
      vertex 0 30 20
      vertex 14.2196 18.9231 20
    endloop
  endfacet
  facet normal 0 0 1
    outer loop
      vertex 11.0769 15.7804 20
      vertex 0 30 20
      vertex 11 15 20
    endloop
  endfacet
  facet normal 0 0 1
    outer loop
      vertex 11.3045 16.5307 20
      vertex 0 30 20
      vertex 11.0769 15.7804 20
    endloop
  endfacet
  facet normal 0 0 1
    outer loop
      vertex 11.6741 17.2223 20
      vertex 0 30 20
      vertex 11.3045 16.5307 20
    endloop
  endfacet
  facet normal 0 0 1
    outer loop
      vertex 12.1716 17.8284 20
      vertex 0 30 20
      vertex 11.6741 17.2223 20
    endloop
  endfacet
  facet normal 0 0 1
    outer loop
      vertex 12.7777 18.3259 20
      vertex 0 30 20
      vertex 12.1716 17.8284 20
    endloop
  endfacet
  facet normal 0 0 1
    outer loop
      vertex 13.4693 18.6955 20
      vertex 0 30 20
      vertex 12.7777 18.3259 20
    endloop
  endfacet
  facet normal 0 0 1
    outer loop
      vertex 14.2196 18.9231 20
      vertex 0 30 20
      vertex 13.4693 18.6955 20
    endloop
  endfacet
  facet normal -0 0 1
    outer loop
      vertex 38.9231 14.2196 20
      vertex 50 0 20
      vertex 39 15 20
    endloop
  endfacet
  facet normal -0 0 1
    outer loop
      vertex 38.6955 13.4693 20
      vertex 50 0 20
      vertex 38.9231 14.2196 20
    endloop
  endfacet
  facet normal -0 0 1
    outer loop
      vertex 38.3259 12.7777 20
      vertex 50 0 20
      vertex 38.6955 13.4693 20
    endloop
  endfacet
  facet normal -0 0 1
    outer loop
      vertex 37.8284 12.1716 20
      vertex 50 0 20
      vertex 38.3259 12.7777 20
    endloop
  endfacet
  facet normal -0 0 1
    outer loop
      vertex 37.2223 11.6741 20
      vertex 50 0 20
      vertex 37.8284 12.1716 20
    endloop
  endfacet
  facet normal -0 0 1
    outer loop
      vertex 36.5307 11.3045 20
      vertex 50 0 20
      vertex 37.2223 11.6741 20
    endloop
  endfacet
  facet normal -0 0 1
    outer loop
      vertex 35.7804 11.0769 20
      vertex 50 0 20
      vertex 36.5307 11.3045 20
    endloop
  endfacet
  facet normal -0 0 1
    outer loop
      vertex 35 11 20
      vertex 50 0 20
      vertex 35.7804 11.0769 20
    endloop
  endfacet
  facet normal 0 0 1
    outer loop
      vertex 34.2196 11.0769 20
      vertex 50 0 20
      vertex 35 11 20
    endloop
  endfacet
  facet normal 0 0 1
    outer loop
      vertex 33.4693 11.3045 20
      vertex 50 0 20
      vertex 34.2196 11.0769 20
    endloop
  endfacet
  facet normal 0 0 1
    outer loop
      vertex 16.5307 11.3045 20
      vertex 33.4693 11.3045 20
      vertex 32.7777 11.6741 20
    endloop
  endfacet
  facet normal -0 0 1
    outer loop
      vertex 19 15 20
      vertex 31.0769 14.2196 20
      vertex 31 15 20
    endloop
  endfacet
  facet normal 0 0 1
    outer loop
      vertex 18.9231 14.2196 20
      vertex 31.0769 14.2196 20
      vertex 19 15 20
    endloop
  endfacet
  facet normal 0 0 1
    outer loop
      vertex 31.0769 14.2196 20
      vertex 18.9231 14.2196 20
      vertex 31.3045 13.4693 20
    endloop
  endfacet
  facet normal 0 0 1
    outer loop
      vertex 18.6955 13.4693 20
      vertex 31.3045 13.4693 20
      vertex 18.9231 14.2196 20
    endloop
  endfacet
  facet normal 0 0 1
    outer loop
      vertex 31.3045 13.4693 20
      vertex 18.6955 13.4693 20
      vertex 31.6741 12.7777 20
    endloop
  endfacet
  facet normal 0 0 1
    outer loop
      vertex 18.3259 12.7777 20
      vertex 31.6741 12.7777 20
      vertex 18.6955 13.4693 20
    endloop
  endfacet
  facet normal 0 0 1
    outer loop
      vertex 31.6741 12.7777 20
      vertex 18.3259 12.7777 20
      vertex 32.1716 12.1716 20
    endloop
  endfacet
  facet normal 0 0 1
    outer loop
      vertex 17.8284 12.1716 20
      vertex 32.1716 12.1716 20
      vertex 18.3259 12.7777 20
    endloop
  endfacet
  facet normal 0 0 1
    outer loop
      vertex 32.1716 12.1716 20
      vertex 17.8284 12.1716 20
      vertex 32.7777 11.6741 20
    endloop
  endfacet
  facet normal 0 0 1
    outer loop
      vertex 17.2223 11.6741 20
      vertex 32.7777 11.6741 20
      vertex 17.8284 12.1716 20
    endloop
  endfacet
  facet normal 0 0 1
    outer loop
      vertex 16.5307 11.3045 20
      vertex 32.7777 11.6741 20
      vertex 17.2223 11.6741 20
    endloop
  endfacet
  facet normal 0 0 1
    outer loop
      vertex 33.4693 11.3045 20
      vertex 16.5307 11.3045 20
      vertex 50 0 20
    endloop
  endfacet
  facet normal -0 0 1
    outer loop
      vertex 15.7804 11.0769 20
      vertex 50 0 20
      vertex 16.5307 11.3045 20
    endloop
  endfacet
  facet normal 0 0 1
    outer loop
      vertex 0 0 20
      vertex 15.7804 11.0769 20
      vertex 15 11 20
    endloop
  endfacet
  facet normal 0 0 1
    outer loop
      vertex 0 0 20
      vertex 15 11 20
      vertex 14.2196 11.0769 20
    endloop
  endfacet
  facet normal 0 0 1
    outer loop
      vertex 0 0 20
      vertex 14.2196 11.0769 20
      vertex 13.4693 11.3045 20
    endloop
  endfacet
  facet normal 0 0 1
    outer loop
      vertex 0 0 20
      vertex 11 15 20
      vertex 0 30 20
    endloop
  endfacet
  facet normal 0 0 1
    outer loop
      vertex 11 15 20
      vertex 0 0 20
      vertex 11.0769 14.2196 20
    endloop
  endfacet
  facet normal 0 0 1
    outer loop
      vertex 11.0769 14.2196 20
      vertex 0 0 20
      vertex 11.3045 13.4693 20
    endloop
  endfacet
  facet normal 0 0 1
    outer loop
      vertex 15.7804 11.0769 20
      vertex 0 0 20
      vertex 50 0 20
    endloop
  endfacet
  facet normal 0 0 1
    outer loop
      vertex 12.7777 11.6741 20
      vertex 0 0 20
      vertex 13.4693 11.3045 20
    endloop
  endfacet
  facet normal 0 0 1
    outer loop
      vertex 12.1716 12.1716 20
      vertex 0 0 20
      vertex 12.7777 11.6741 20
    endloop
  endfacet
  facet normal 0 0 1
    outer loop
      vertex 11.6741 12.7777 20
      vertex 0 0 20
      vertex 12.1716 12.1716 20
    endloop
  endfacet
  facet normal 0 0 1
    outer loop
      vertex 11.3045 13.4693 20
      vertex 0 0 20
      vertex 11.6741 12.7777 20
    endloop
  endfacet
  facet normal 0 0 -1
    outer loop
      vertex 50 0 0
      vertex 39 15 0
      vertex 50 30 0
    endloop
  endfacet
  facet normal 0 0 -1
    outer loop
      vertex 50 0 0
      vertex 38.9231 14.2196 0
      vertex 39 15 0
    endloop
  endfacet
  facet normal 0 0 -1
    outer loop
      vertex 50 0 0
      vertex 38.6955 13.4693 0
      vertex 38.9231 14.2196 0
    endloop
  endfacet
  facet normal 0 0 -1
    outer loop
      vertex 50 0 0
      vertex 38.3259 12.7777 0
      vertex 38.6955 13.4693 0
    endloop
  endfacet
  facet normal 0 0 -1
    outer loop
      vertex 50 0 0
      vertex 37.8284 12.1716 0
      vertex 38.3259 12.7777 0
    endloop
  endfacet
  facet normal 0 0 -1
    outer loop
      vertex 50 0 0
      vertex 37.2223 11.6741 0
      vertex 37.8284 12.1716 0
    endloop
  endfacet
  facet normal 0 0 -1
    outer loop
      vertex 50 0 0
      vertex 36.5307 11.3045 0
      vertex 37.2223 11.6741 0
    endloop
  endfacet
  facet normal 0 0 -1
    outer loop
      vertex 50 0 0
      vertex 35.7804 11.0769 0
      vertex 36.5307 11.3045 0
    endloop
  endfacet
  facet normal 0 0 -1
    outer loop
      vertex 50 0 0
      vertex 35 11 0
      vertex 35.7804 11.0769 0
    endloop
  endfacet
  facet normal 0 0 -1
    outer loop
      vertex 50 0 0
      vertex 34.2196 11.0769 0
      vertex 35 11 0
    endloop
  endfacet
  facet normal 0 0 -1
    outer loop
      vertex 50 0 0
      vertex 33.4693 11.3045 0
      vertex 34.2196 11.0769 0
    endloop
  endfacet
  facet normal 0 0 -1
    outer loop
      vertex 16.5307 11.3045 0
      vertex 33.4693 11.3045 0
      vertex 50 0 0
    endloop
  endfacet
  facet normal 0 0 -1
    outer loop
      vertex 31.0769 14.2196 0
      vertex 19 15 0
      vertex 31 15 0
    endloop
  endfacet
  facet normal 0 0 -1
    outer loop
      vertex 18.9231 14.2196 0
      vertex 31.0769 14.2196 0
      vertex 31.3045 13.4693 0
    endloop
  endfacet
  facet normal 0 0 -1
    outer loop
      vertex 18.6955 13.4693 0
      vertex 31.3045 13.4693 0
      vertex 31.6741 12.7777 0
    endloop
  endfacet
  facet normal 0 0 -1
    outer loop
      vertex 18.3259 12.7777 0
      vertex 31.6741 12.7777 0
      vertex 32.1716 12.1716 0
    endloop
  endfacet
  facet normal 0 0 -1
    outer loop
      vertex 17.8284 12.1716 0
      vertex 32.1716 12.1716 0
      vertex 32.7777 11.6741 0
    endloop
  endfacet
  facet normal 0 0 -1
    outer loop
      vertex 33.4693 11.3045 0
      vertex 16.5307 11.3045 0
      vertex 32.7777 11.6741 0
    endloop
  endfacet
  facet normal 0 0 -1
    outer loop
      vertex 31.0769 14.2196 0
      vertex 18.9231 14.2196 0
      vertex 19 15 0
    endloop
  endfacet
  facet normal 0 0 -1
    outer loop
      vertex 31.3045 13.4693 0
      vertex 18.6955 13.4693 0
      vertex 18.9231 14.2196 0
    endloop
  endfacet
  facet normal 0 0 -1
    outer loop
      vertex 31.6741 12.7777 0
      vertex 18.3259 12.7777 0
      vertex 18.6955 13.4693 0
    endloop
  endfacet
  facet normal 0 0 -1
    outer loop
      vertex 32.1716 12.1716 0
      vertex 17.8284 12.1716 0
      vertex 18.3259 12.7777 0
    endloop
  endfacet
  facet normal 0 0 -1
    outer loop
      vertex 32.7777 11.6741 0
      vertex 17.2223 11.6741 0
      vertex 17.8284 12.1716 0
    endloop
  endfacet
  facet normal -0 0 -1
    outer loop
      vertex 32.7777 11.6741 0
      vertex 16.5307 11.3045 0
      vertex 17.2223 11.6741 0
    endloop
  endfacet
  facet normal 0 0 -1
    outer loop
      vertex 50 0 0
      vertex 15.7804 11.0769 0
      vertex 16.5307 11.3045 0
    endloop
  endfacet
  facet normal 0 0 -1
    outer loop
      vertex 0 0 0
      vertex 15.7804 11.0769 0
      vertex 50 0 0
    endloop
  endfacet
  facet normal 0 0 -1
    outer loop
      vertex 15.7804 11.0769 0
      vertex 0 0 0
      vertex 15 11 0
    endloop
  endfacet
  facet normal -0 0 -1
    outer loop
      vertex 15 11 0
      vertex 0 0 0
      vertex 14.2196 11.0769 0
    endloop
  endfacet
  facet normal -0 0 -1
    outer loop
      vertex 11.0769 14.2196 0
      vertex 0 0 0
      vertex 11 15 0
    endloop
  endfacet
  facet normal -0 0 -1
    outer loop
      vertex 11.3045 13.4693 0
      vertex 0 0 0
      vertex 11.0769 14.2196 0
    endloop
  endfacet
  facet normal -0 0 -1
    outer loop
      vertex 11.6741 12.7777 0
      vertex 0 0 0
      vertex 11.3045 13.4693 0
    endloop
  endfacet
  facet normal -0 0 -1
    outer loop
      vertex 12.1716 12.1716 0
      vertex 0 0 0
      vertex 11.6741 12.7777 0
    endloop
  endfacet
  facet normal -0 0 -1
    outer loop
      vertex 12.7777 11.6741 0
      vertex 0 0 0
      vertex 12.1716 12.1716 0
    endloop
  endfacet
  facet normal -0 0 -1
    outer loop
      vertex 13.4693 11.3045 0
      vertex 0 0 0
      vertex 12.7777 11.6741 0
    endloop
  endfacet
  facet normal -0 0 -1
    outer loop
      vertex 14.2196 11.0769 0
      vertex 0 0 0
      vertex 13.4693 11.3045 0
    endloop
  endfacet
  facet normal 0 0 -1
    outer loop
      vertex 38.9231 15.7804 0
      vertex 50 30 0
      vertex 39 15 0
    endloop
  endfacet
  facet normal 0 0 -1
    outer loop
      vertex 38.6955 16.5307 0
      vertex 50 30 0
      vertex 38.9231 15.7804 0
    endloop
  endfacet
  facet normal 0 0 -1
    outer loop
      vertex 38.3259 17.2223 0
      vertex 50 30 0
      vertex 38.6955 16.5307 0
    endloop
  endfacet
  facet normal 0 0 -1
    outer loop
      vertex 37.8284 17.8284 0
      vertex 50 30 0
      vertex 38.3259 17.2223 0
    endloop
  endfacet
  facet normal 0 0 -1
    outer loop
      vertex 37.2223 18.3259 0
      vertex 50 30 0
      vertex 37.8284 17.8284 0
    endloop
  endfacet
  facet normal 0 0 -1
    outer loop
      vertex 36.5307 18.6955 0
      vertex 50 30 0
      vertex 37.2223 18.3259 0
    endloop
  endfacet
  facet normal 0 0 -1
    outer loop
      vertex 35.7804 18.9231 0
      vertex 50 30 0
      vertex 36.5307 18.6955 0
    endloop
  endfacet
  facet normal 0 0 -1
    outer loop
      vertex 35 19 0
      vertex 50 30 0
      vertex 35.7804 18.9231 0
    endloop
  endfacet
  facet normal 0 0 -1
    outer loop
      vertex 34.2196 18.9231 0
      vertex 50 30 0
      vertex 35 19 0
    endloop
  endfacet
  facet normal 0 0 -1
    outer loop
      vertex 33.4693 18.6955 0
      vertex 50 30 0
      vertex 34.2196 18.9231 0
    endloop
  endfacet
  facet normal 0 0 -1
    outer loop
      vertex 16.5307 18.6955 0
      vertex 33.4693 18.6955 0
      vertex 32.7777 18.3259 0
    endloop
  endfacet
  facet normal 0 0 -1
    outer loop
      vertex 19 15 0
      vertex 31.0769 15.7804 0
      vertex 31 15 0
    endloop
  endfacet
  facet normal 0 0 -1
    outer loop
      vertex 18.9231 15.7804 0
      vertex 31.0769 15.7804 0
      vertex 19 15 0
    endloop
  endfacet
  facet normal 0 0 -1
    outer loop
      vertex 31.0769 15.7804 0
      vertex 18.9231 15.7804 0
      vertex 31.3045 16.5307 0
    endloop
  endfacet
  facet normal 0 0 -1
    outer loop
      vertex 18.6955 16.5307 0
      vertex 31.3045 16.5307 0
      vertex 18.9231 15.7804 0
    endloop
  endfacet
  facet normal 0 0 -1
    outer loop
      vertex 31.3045 16.5307 0
      vertex 18.6955 16.5307 0
      vertex 31.6741 17.2223 0
    endloop
  endfacet
  facet normal 0 0 -1
    outer loop
      vertex 18.3259 17.2223 0
      vertex 31.6741 17.2223 0
      vertex 18.6955 16.5307 0
    endloop
  endfacet
  facet normal 0 0 -1
    outer loop
      vertex 31.6741 17.2223 0
      vertex 18.3259 17.2223 0
      vertex 32.1716 17.8284 0
    endloop
  endfacet
  facet normal 0 0 -1
    outer loop
      vertex 17.8284 17.8284 0
      vertex 32.1716 17.8284 0
      vertex 18.3259 17.2223 0
    endloop
  endfacet
  facet normal 0 0 -1
    outer loop
      vertex 32.1716 17.8284 0
      vertex 17.8284 17.8284 0
      vertex 32.7777 18.3259 0
    endloop
  endfacet
  facet normal 0 0 -1
    outer loop
      vertex 17.2223 18.3259 0
      vertex 32.7777 18.3259 0
      vertex 17.8284 17.8284 0
    endloop
  endfacet
  facet normal 0 0 -1
    outer loop
      vertex 16.5307 18.6955 0
      vertex 32.7777 18.3259 0
      vertex 17.2223 18.3259 0
    endloop
  endfacet
  facet normal 0 0 -1
    outer loop
      vertex 33.4693 18.6955 0
      vertex 16.5307 18.6955 0
      vertex 50 30 0
    endloop
  endfacet
  facet normal 0 0 -1
    outer loop
      vertex 15.7804 18.9231 0
      vertex 50 30 0
      vertex 16.5307 18.6955 0
    endloop
  endfacet
  facet normal 0 0 -1
    outer loop
      vertex 0 30 0
      vertex 15.7804 18.9231 0
      vertex 15 19 0
    endloop
  endfacet
  facet normal 0 0 -1
    outer loop
      vertex 0 30 0
      vertex 15 19 0
      vertex 14.2196 18.9231 0
    endloop
  endfacet
  facet normal 0 0 -1
    outer loop
      vertex 0 30 0
      vertex 14.2196 18.9231 0
      vertex 13.4693 18.6955 0
    endloop
  endfacet
  facet normal 0 0 -1
    outer loop
      vertex 0 30 0
      vertex 11 15 0
      vertex 0 0 0
    endloop
  endfacet
  facet normal 0 0 -1
    outer loop
      vertex 11 15 0
      vertex 0 30 0
      vertex 11.0769 15.7804 0
    endloop
  endfacet
  facet normal 0 0 -1
    outer loop
      vertex 11.0769 15.7804 0
      vertex 0 30 0
      vertex 11.3045 16.5307 0
    endloop
  endfacet
  facet normal 0 0 -1
    outer loop
      vertex 15.7804 18.9231 0
      vertex 0 30 0
      vertex 50 30 0
    endloop
  endfacet
  facet normal 0 0 -1
    outer loop
      vertex 12.7777 18.3259 0
      vertex 0 30 0
      vertex 13.4693 18.6955 0
    endloop
  endfacet
  facet normal 0 0 -1
    outer loop
      vertex 12.1716 17.8284 0
      vertex 0 30 0
      vertex 12.7777 18.3259 0
    endloop
  endfacet
  facet normal 0 0 -1
    outer loop
      vertex 11.6741 17.2223 0
      vertex 0 30 0
      vertex 12.1716 17.8284 0
    endloop
  endfacet
  facet normal 0 0 -1
    outer loop
      vertex 11.3045 16.5307 0
      vertex 0 30 0
      vertex 11.6741 17.2223 0
    endloop
  endfacet
  facet normal -1 0 0
    outer loop
      vertex 0 0 0
      vertex 0 30 20
      vertex 0 30 0
    endloop
  endfacet
  facet normal -1 -0 0
    outer loop
      vertex 0 30 20
      vertex 0 0 0
      vertex 0 0 20
    endloop
  endfacet
  facet normal 0 1 -0
    outer loop
      vertex 50 30 0
      vertex 0 30 20
      vertex 50 30 20
    endloop
  endfacet
  facet normal 0 1 0
    outer loop
      vertex 0 30 20
      vertex 50 30 0
      vertex 0 30 0
    endloop
  endfacet
  facet normal 0 -1 0
    outer loop
      vertex 0 0 0
      vertex 50 0 20
      vertex 0 0 20
    endloop
  endfacet
  facet normal 0 -1 -0
    outer loop
      vertex 50 0 20
      vertex 0 0 0
      vertex 50 0 0
    endloop
  endfacet
  facet normal -0.290283 0.956941 0
    outer loop
      vertex 16.5307 11.3045 0
      vertex 15.7804 11.0769 20
      vertex 16.5307 11.3045 20
    endloop
  endfacet
  facet normal -0.290283 0.956941 0
    outer loop
      vertex 15.7804 11.0769 20
      vertex 16.5307 11.3045 0
      vertex 15.7804 11.0769 0
    endloop
  endfacet
  facet normal -0.956941 -0.290283 0
    outer loop
      vertex 18.9231 15.7804 0
      vertex 18.6955 16.5307 20
      vertex 18.6955 16.5307 0
    endloop
  endfacet
  facet normal -0.956941 -0.290283 0
    outer loop
      vertex 18.6955 16.5307 20
      vertex 18.9231 15.7804 0
      vertex 18.9231 15.7804 20
    endloop
  endfacet
  facet normal -0.99518 -0.0980643 0
    outer loop
      vertex 19 15 0
      vertex 18.9231 15.7804 20
      vertex 18.9231 15.7804 0
    endloop
  endfacet
  facet normal -0.99518 -0.0980643 0
    outer loop
      vertex 18.9231 15.7804 20
      vertex 19 15 0
      vertex 19 15 20
    endloop
  endfacet
  facet normal -0.881957 -0.471329 0
    outer loop
      vertex 18.6955 16.5307 0
      vertex 18.3259 17.2223 20
      vertex 18.3259 17.2223 0
    endloop
  endfacet
  facet normal -0.881957 -0.471329 0
    outer loop
      vertex 18.3259 17.2223 20
      vertex 18.6955 16.5307 0
      vertex 18.6955 16.5307 20
    endloop
  endfacet
  facet normal 0.881957 0.471329 0
    outer loop
      vertex 11.6741 12.7777 20
      vertex 11.3045 13.4693 0
      vertex 11.3045 13.4693 20
    endloop
  endfacet
  facet normal 0.881957 0.471329 0
    outer loop
      vertex 11.3045 13.4693 0
      vertex 11.6741 12.7777 20
      vertex 11.6741 12.7777 0
    endloop
  endfacet
  facet normal -0.290283 -0.956941 0
    outer loop
      vertex 15.7804 18.9231 0
      vertex 16.5307 18.6955 20
      vertex 15.7804 18.9231 20
    endloop
  endfacet
  facet normal -0.290283 -0.956941 -0
    outer loop
      vertex 16.5307 18.6955 20
      vertex 15.7804 18.9231 0
      vertex 16.5307 18.6955 0
    endloop
  endfacet
  facet normal 0.0980643 -0.99518 0
    outer loop
      vertex 14.2196 18.9231 0
      vertex 15 19 20
      vertex 14.2196 18.9231 20
    endloop
  endfacet
  facet normal 0.0980643 -0.99518 0
    outer loop
      vertex 15 19 20
      vertex 14.2196 18.9231 0
      vertex 15 19 0
    endloop
  endfacet
  facet normal 0.471329 0.881957 -0
    outer loop
      vertex 13.4693 11.3045 0
      vertex 12.7777 11.6741 20
      vertex 13.4693 11.3045 20
    endloop
  endfacet
  facet normal 0.471329 0.881957 0
    outer loop
      vertex 12.7777 11.6741 20
      vertex 13.4693 11.3045 0
      vertex 12.7777 11.6741 0
    endloop
  endfacet
  facet normal 0.471329 -0.881957 0
    outer loop
      vertex 12.7777 18.3259 0
      vertex 13.4693 18.6955 20
      vertex 12.7777 18.3259 20
    endloop
  endfacet
  facet normal 0.471329 -0.881957 0
    outer loop
      vertex 13.4693 18.6955 20
      vertex 12.7777 18.3259 0
      vertex 13.4693 18.6955 0
    endloop
  endfacet
  facet normal -0.471329 0.881957 0
    outer loop
      vertex 17.2223 11.6741 0
      vertex 16.5307 11.3045 20
      vertex 17.2223 11.6741 20
    endloop
  endfacet
  facet normal -0.471329 0.881957 0
    outer loop
      vertex 16.5307 11.3045 20
      vertex 17.2223 11.6741 0
      vertex 16.5307 11.3045 0
    endloop
  endfacet
  facet normal 0.772956 -0.634459 0
    outer loop
      vertex 11.6741 17.2223 20
      vertex 12.1716 17.8284 0
      vertex 12.1716 17.8284 20
    endloop
  endfacet
  facet normal 0.772956 -0.634459 0
    outer loop
      vertex 12.1716 17.8284 0
      vertex 11.6741 17.2223 20
      vertex 11.6741 17.2223 0
    endloop
  endfacet
  facet normal -0.772956 -0.634459 0
    outer loop
      vertex 18.3259 17.2223 0
      vertex 17.8284 17.8284 20
      vertex 17.8284 17.8284 0
    endloop
  endfacet
  facet normal -0.772956 -0.634459 0
    outer loop
      vertex 17.8284 17.8284 20
      vertex 18.3259 17.2223 0
      vertex 18.3259 17.2223 20
    endloop
  endfacet
  facet normal -0.772956 0.634459 0
    outer loop
      vertex 17.8284 12.1716 0
      vertex 18.3259 12.7777 20
      vertex 18.3259 12.7777 0
    endloop
  endfacet
  facet normal -0.772956 0.634459 0
    outer loop
      vertex 18.3259 12.7777 20
      vertex 17.8284 12.1716 0
      vertex 17.8284 12.1716 20
    endloop
  endfacet
  facet normal 0.0980643 0.99518 -0
    outer loop
      vertex 15 11 0
      vertex 14.2196 11.0769 20
      vertex 15 11 20
    endloop
  endfacet
  facet normal 0.0980643 0.99518 0
    outer loop
      vertex 14.2196 11.0769 20
      vertex 15 11 0
      vertex 14.2196 11.0769 0
    endloop
  endfacet
  facet normal 0.290283 -0.956941 0
    outer loop
      vertex 13.4693 18.6955 0
      vertex 14.2196 18.9231 20
      vertex 13.4693 18.6955 20
    endloop
  endfacet
  facet normal 0.290283 -0.956941 0
    outer loop
      vertex 14.2196 18.9231 20
      vertex 13.4693 18.6955 0
      vertex 14.2196 18.9231 0
    endloop
  endfacet
  facet normal -0.634459 0.772956 0
    outer loop
      vertex 17.8284 12.1716 0
      vertex 17.2223 11.6741 20
      vertex 17.8284 12.1716 20
    endloop
  endfacet
  facet normal -0.634459 0.772956 0
    outer loop
      vertex 17.2223 11.6741 20
      vertex 17.8284 12.1716 0
      vertex 17.2223 11.6741 0
    endloop
  endfacet
  facet normal -0.99518 0.0980643 0
    outer loop
      vertex 18.9231 14.2196 0
      vertex 19 15 20
      vertex 19 15 0
    endloop
  endfacet
  facet normal -0.99518 0.0980643 0
    outer loop
      vertex 19 15 20
      vertex 18.9231 14.2196 0
      vertex 18.9231 14.2196 20
    endloop
  endfacet
  facet normal 0.290283 0.956941 -0
    outer loop
      vertex 14.2196 11.0769 0
      vertex 13.4693 11.3045 20
      vertex 14.2196 11.0769 20
    endloop
  endfacet
  facet normal 0.290283 0.956941 0
    outer loop
      vertex 13.4693 11.3045 20
      vertex 14.2196 11.0769 0
      vertex 13.4693 11.3045 0
    endloop
  endfacet
  facet normal -0.956941 0.290283 0
    outer loop
      vertex 18.6955 13.4693 0
      vertex 18.9231 14.2196 20
      vertex 18.9231 14.2196 0
    endloop
  endfacet
  facet normal -0.956941 0.290283 0
    outer loop
      vertex 18.9231 14.2196 20
      vertex 18.6955 13.4693 0
      vertex 18.6955 13.4693 20
    endloop
  endfacet
  facet normal 0.956941 0.290283 0
    outer loop
      vertex 11.3045 13.4693 20
      vertex 11.0769 14.2196 0
      vertex 11.0769 14.2196 20
    endloop
  endfacet
  facet normal 0.956941 0.290283 0
    outer loop
      vertex 11.0769 14.2196 0
      vertex 11.3045 13.4693 20
      vertex 11.3045 13.4693 0
    endloop
  endfacet
  facet normal -0.881957 0.471329 0
    outer loop
      vertex 18.3259 12.7777 0
      vertex 18.6955 13.4693 20
      vertex 18.6955 13.4693 0
    endloop
  endfacet
  facet normal -0.881957 0.471329 0
    outer loop
      vertex 18.6955 13.4693 20
      vertex 18.3259 12.7777 0
      vertex 18.3259 12.7777 20
    endloop
  endfacet
  facet normal 0.99518 -0.0980643 0
    outer loop
      vertex 11 15 20
      vertex 11.0769 15.7804 0
      vertex 11.0769 15.7804 20
    endloop
  endfacet
  facet normal 0.99518 -0.0980643 0
    outer loop
      vertex 11.0769 15.7804 0
      vertex 11 15 20
      vertex 11 15 0
    endloop
  endfacet
  facet normal -0.0980643 -0.99518 0
    outer loop
      vertex 15 19 0
      vertex 15.7804 18.9231 20
      vertex 15 19 20
    endloop
  endfacet
  facet normal -0.0980643 -0.99518 -0
    outer loop
      vertex 15.7804 18.9231 20
      vertex 15 19 0
      vertex 15.7804 18.9231 0
    endloop
  endfacet
  facet normal 0.634459 -0.772956 0
    outer loop
      vertex 12.1716 17.8284 0
      vertex 12.7777 18.3259 20
      vertex 12.1716 17.8284 20
    endloop
  endfacet
  facet normal 0.634459 -0.772956 0
    outer loop
      vertex 12.7777 18.3259 20
      vertex 12.1716 17.8284 0
      vertex 12.7777 18.3259 0
    endloop
  endfacet
  facet normal -0.634459 -0.772956 0
    outer loop
      vertex 17.2223 18.3259 0
      vertex 17.8284 17.8284 20
      vertex 17.2223 18.3259 20
    endloop
  endfacet
  facet normal -0.634459 -0.772956 -0
    outer loop
      vertex 17.8284 17.8284 20
      vertex 17.2223 18.3259 0
      vertex 17.8284 17.8284 0
    endloop
  endfacet
  facet normal -0.0980643 0.99518 0
    outer loop
      vertex 15.7804 11.0769 0
      vertex 15 11 20
      vertex 15.7804 11.0769 20
    endloop
  endfacet
  facet normal -0.0980643 0.99518 0
    outer loop
      vertex 15 11 20
      vertex 15.7804 11.0769 0
      vertex 15 11 0
    endloop
  endfacet
  facet normal -0.471329 -0.881957 0
    outer loop
      vertex 16.5307 18.6955 0
      vertex 17.2223 18.3259 20
      vertex 16.5307 18.6955 20
    endloop
  endfacet
  facet normal -0.471329 -0.881957 -0
    outer loop
      vertex 17.2223 18.3259 20
      vertex 16.5307 18.6955 0
      vertex 17.2223 18.3259 0
    endloop
  endfacet
  facet normal 0.772956 0.634459 0
    outer loop
      vertex 12.1716 12.1716 20
      vertex 11.6741 12.7777 0
      vertex 11.6741 12.7777 20
    endloop
  endfacet
  facet normal 0.772956 0.634459 0
    outer loop
      vertex 11.6741 12.7777 0
      vertex 12.1716 12.1716 20
      vertex 12.1716 12.1716 0
    endloop
  endfacet
  facet normal 0.634459 0.772956 -0
    outer loop
      vertex 12.7777 11.6741 0
      vertex 12.1716 12.1716 20
      vertex 12.7777 11.6741 20
    endloop
  endfacet
  facet normal 0.634459 0.772956 0
    outer loop
      vertex 12.1716 12.1716 20
      vertex 12.7777 11.6741 0
      vertex 12.1716 12.1716 0
    endloop
  endfacet
  facet normal 0.956941 -0.290283 0
    outer loop
      vertex 11.0769 15.7804 20
      vertex 11.3045 16.5307 0
      vertex 11.3045 16.5307 20
    endloop
  endfacet
  facet normal 0.956941 -0.290283 0
    outer loop
      vertex 11.3045 16.5307 0
      vertex 11.0769 15.7804 20
      vertex 11.0769 15.7804 0
    endloop
  endfacet
  facet normal 0.881957 -0.471329 0
    outer loop
      vertex 11.3045 16.5307 20
      vertex 11.6741 17.2223 0
      vertex 11.6741 17.2223 20
    endloop
  endfacet
  facet normal 0.881957 -0.471329 0
    outer loop
      vertex 11.6741 17.2223 0
      vertex 11.3045 16.5307 20
      vertex 11.3045 16.5307 0
    endloop
  endfacet
  facet normal 0.99518 0.0980643 0
    outer loop
      vertex 11.0769 14.2196 20
      vertex 11 15 0
      vertex 11 15 20
    endloop
  endfacet
  facet normal 0.99518 0.0980643 0
    outer loop
      vertex 11 15 0
      vertex 11.0769 14.2196 20
      vertex 11.0769 14.2196 0
    endloop
  endfacet
  facet normal -0.290283 0.956941 0
    outer loop
      vertex 36.5307 11.3045 0
      vertex 35.7804 11.0769 20
      vertex 36.5307 11.3045 20
    endloop
  endfacet
  facet normal -0.290283 0.956941 0
    outer loop
      vertex 35.7804 11.0769 20
      vertex 36.5307 11.3045 0
      vertex 35.7804 11.0769 0
    endloop
  endfacet
  facet normal -0.956941 -0.290283 0
    outer loop
      vertex 38.9231 15.7804 0
      vertex 38.6955 16.5307 20
      vertex 38.6955 16.5307 0
    endloop
  endfacet
  facet normal -0.956941 -0.290283 0
    outer loop
      vertex 38.6955 16.5307 20
      vertex 38.9231 15.7804 0
      vertex 38.9231 15.7804 20
    endloop
  endfacet
  facet normal -0.99518 -0.0980643 0
    outer loop
      vertex 39 15 0
      vertex 38.9231 15.7804 20
      vertex 38.9231 15.7804 0
    endloop
  endfacet
  facet normal -0.99518 -0.0980643 0
    outer loop
      vertex 38.9231 15.7804 20
      vertex 39 15 0
      vertex 39 15 20
    endloop
  endfacet
  facet normal -0.881957 -0.471329 0
    outer loop
      vertex 38.6955 16.5307 0
      vertex 38.3259 17.2223 20
      vertex 38.3259 17.2223 0
    endloop
  endfacet
  facet normal -0.881957 -0.471329 0
    outer loop
      vertex 38.3259 17.2223 20
      vertex 38.6955 16.5307 0
      vertex 38.6955 16.5307 20
    endloop
  endfacet
  facet normal 0.881957 0.471329 0
    outer loop
      vertex 31.6741 12.7777 20
      vertex 31.3045 13.4693 0
      vertex 31.3045 13.4693 20
    endloop
  endfacet
  facet normal 0.881957 0.471329 0
    outer loop
      vertex 31.3045 13.4693 0
      vertex 31.6741 12.7777 20
      vertex 31.6741 12.7777 0
    endloop
  endfacet
  facet normal -0.290283 -0.956941 0
    outer loop
      vertex 35.7804 18.9231 0
      vertex 36.5307 18.6955 20
      vertex 35.7804 18.9231 20
    endloop
  endfacet
  facet normal -0.290283 -0.956941 -0
    outer loop
      vertex 36.5307 18.6955 20
      vertex 35.7804 18.9231 0
      vertex 36.5307 18.6955 0
    endloop
  endfacet
  facet normal 0.0980643 -0.99518 0
    outer loop
      vertex 34.2196 18.9231 0
      vertex 35 19 20
      vertex 34.2196 18.9231 20
    endloop
  endfacet
  facet normal 0.0980643 -0.99518 0
    outer loop
      vertex 35 19 20
      vertex 34.2196 18.9231 0
      vertex 35 19 0
    endloop
  endfacet
  facet normal 0.471329 0.881957 -0
    outer loop
      vertex 33.4693 11.3045 0
      vertex 32.7777 11.6741 20
      vertex 33.4693 11.3045 20
    endloop
  endfacet
  facet normal 0.471329 0.881957 0
    outer loop
      vertex 32.7777 11.6741 20
      vertex 33.4693 11.3045 0
      vertex 32.7777 11.6741 0
    endloop
  endfacet
  facet normal 0.471329 -0.881957 0
    outer loop
      vertex 32.7777 18.3259 0
      vertex 33.4693 18.6955 20
      vertex 32.7777 18.3259 20
    endloop
  endfacet
  facet normal 0.471329 -0.881957 0
    outer loop
      vertex 33.4693 18.6955 20
      vertex 32.7777 18.3259 0
      vertex 33.4693 18.6955 0
    endloop
  endfacet
  facet normal -0.471329 0.881957 0
    outer loop
      vertex 37.2223 11.6741 0
      vertex 36.5307 11.3045 20
      vertex 37.2223 11.6741 20
    endloop
  endfacet
  facet normal -0.471329 0.881957 0
    outer loop
      vertex 36.5307 11.3045 20
      vertex 37.2223 11.6741 0
      vertex 36.5307 11.3045 0
    endloop
  endfacet
  facet normal 0.772956 -0.634459 0
    outer loop
      vertex 31.6741 17.2223 20
      vertex 32.1716 17.8284 0
      vertex 32.1716 17.8284 20
    endloop
  endfacet
  facet normal 0.772956 -0.634459 0
    outer loop
      vertex 32.1716 17.8284 0
      vertex 31.6741 17.2223 20
      vertex 31.6741 17.2223 0
    endloop
  endfacet
  facet normal -0.772956 -0.634459 0
    outer loop
      vertex 38.3259 17.2223 0
      vertex 37.8284 17.8284 20
      vertex 37.8284 17.8284 0
    endloop
  endfacet
  facet normal -0.772956 -0.634459 0
    outer loop
      vertex 37.8284 17.8284 20
      vertex 38.3259 17.2223 0
      vertex 38.3259 17.2223 20
    endloop
  endfacet
  facet normal -0.772956 0.634459 0
    outer loop
      vertex 37.8284 12.1716 0
      vertex 38.3259 12.7777 20
      vertex 38.3259 12.7777 0
    endloop
  endfacet
  facet normal -0.772956 0.634459 0
    outer loop
      vertex 38.3259 12.7777 20
      vertex 37.8284 12.1716 0
      vertex 37.8284 12.1716 20
    endloop
  endfacet
  facet normal 0.290283 -0.956941 0
    outer loop
      vertex 33.4693 18.6955 0
      vertex 34.2196 18.9231 20
      vertex 33.4693 18.6955 20
    endloop
  endfacet
  facet normal 0.290283 -0.956941 0
    outer loop
      vertex 34.2196 18.9231 20
      vertex 33.4693 18.6955 0
      vertex 34.2196 18.9231 0
    endloop
  endfacet
  facet normal -0.634459 0.772956 0
    outer loop
      vertex 37.8284 12.1716 0
      vertex 37.2223 11.6741 20
      vertex 37.8284 12.1716 20
    endloop
  endfacet
  facet normal -0.634459 0.772956 0
    outer loop
      vertex 37.2223 11.6741 20
      vertex 37.8284 12.1716 0
      vertex 37.2223 11.6741 0
    endloop
  endfacet
  facet normal -0.99518 0.0980643 0
    outer loop
      vertex 38.9231 14.2196 0
      vertex 39 15 20
      vertex 39 15 0
    endloop
  endfacet
  facet normal -0.99518 0.0980643 0
    outer loop
      vertex 39 15 20
      vertex 38.9231 14.2196 0
      vertex 38.9231 14.2196 20
    endloop
  endfacet
  facet normal 0.290283 0.956941 -0
    outer loop
      vertex 34.2196 11.0769 0
      vertex 33.4693 11.3045 20
      vertex 34.2196 11.0769 20
    endloop
  endfacet
  facet normal 0.290283 0.956941 0
    outer loop
      vertex 33.4693 11.3045 20
      vertex 34.2196 11.0769 0
      vertex 33.4693 11.3045 0
    endloop
  endfacet
  facet normal -0.956941 0.290283 0
    outer loop
      vertex 38.6955 13.4693 0
      vertex 38.9231 14.2196 20
      vertex 38.9231 14.2196 0
    endloop
  endfacet
  facet normal -0.956941 0.290283 0
    outer loop
      vertex 38.9231 14.2196 20
      vertex 38.6955 13.4693 0
      vertex 38.6955 13.4693 20
    endloop
  endfacet
  facet normal 0.956941 0.290283 0
    outer loop
      vertex 31.3045 13.4693 20
      vertex 31.0769 14.2196 0
      vertex 31.0769 14.2196 20
    endloop
  endfacet
  facet normal 0.956941 0.290283 0
    outer loop
      vertex 31.0769 14.2196 0
      vertex 31.3045 13.4693 20
      vertex 31.3045 13.4693 0
    endloop
  endfacet
  facet normal -0.881957 0.471329 0
    outer loop
      vertex 38.3259 12.7777 0
      vertex 38.6955 13.4693 20
      vertex 38.6955 13.4693 0
    endloop
  endfacet
  facet normal -0.881957 0.471329 0
    outer loop
      vertex 38.6955 13.4693 20
      vertex 38.3259 12.7777 0
      vertex 38.3259 12.7777 20
    endloop
  endfacet
  facet normal 0.99518 -0.0980643 0
    outer loop
      vertex 31 15 20
      vertex 31.0769 15.7804 0
      vertex 31.0769 15.7804 20
    endloop
  endfacet
  facet normal 0.99518 -0.0980643 0
    outer loop
      vertex 31.0769 15.7804 0
      vertex 31 15 20
      vertex 31 15 0
    endloop
  endfacet
  facet normal -0.0980643 -0.99518 0
    outer loop
      vertex 35 19 0
      vertex 35.7804 18.9231 20
      vertex 35 19 20
    endloop
  endfacet
  facet normal -0.0980643 -0.99518 -0
    outer loop
      vertex 35.7804 18.9231 20
      vertex 35 19 0
      vertex 35.7804 18.9231 0
    endloop
  endfacet
  facet normal 0.634459 -0.772956 0
    outer loop
      vertex 32.1716 17.8284 0
      vertex 32.7777 18.3259 20
      vertex 32.1716 17.8284 20
    endloop
  endfacet
  facet normal 0.634459 -0.772956 0
    outer loop
      vertex 32.7777 18.3259 20
      vertex 32.1716 17.8284 0
      vertex 32.7777 18.3259 0
    endloop
  endfacet
  facet normal -0.634459 -0.772956 0
    outer loop
      vertex 37.2223 18.3259 0
      vertex 37.8284 17.8284 20
      vertex 37.2223 18.3259 20
    endloop
  endfacet
  facet normal -0.634459 -0.772956 -0
    outer loop
      vertex 37.8284 17.8284 20
      vertex 37.2223 18.3259 0
      vertex 37.8284 17.8284 0
    endloop
  endfacet
  facet normal -0.0980643 0.99518 0
    outer loop
      vertex 35.7804 11.0769 0
      vertex 35 11 20
      vertex 35.7804 11.0769 20
    endloop
  endfacet
  facet normal -0.0980643 0.99518 0
    outer loop
      vertex 35 11 20
      vertex 35.7804 11.0769 0
      vertex 35 11 0
    endloop
  endfacet
  facet normal -0.471329 -0.881957 0
    outer loop
      vertex 36.5307 18.6955 0
      vertex 37.2223 18.3259 20
      vertex 36.5307 18.6955 20
    endloop
  endfacet
  facet normal -0.471329 -0.881957 -0
    outer loop
      vertex 37.2223 18.3259 20
      vertex 36.5307 18.6955 0
      vertex 37.2223 18.3259 0
    endloop
  endfacet
  facet normal 0.772956 0.634459 0
    outer loop
      vertex 32.1716 12.1716 20
      vertex 31.6741 12.7777 0
      vertex 31.6741 12.7777 20
    endloop
  endfacet
  facet normal 0.772956 0.634459 0
    outer loop
      vertex 31.6741 12.7777 0
      vertex 32.1716 12.1716 20
      vertex 32.1716 12.1716 0
    endloop
  endfacet
  facet normal 0.0980643 0.99518 -0
    outer loop
      vertex 35 11 0
      vertex 34.2196 11.0769 20
      vertex 35 11 20
    endloop
  endfacet
  facet normal 0.0980643 0.99518 0
    outer loop
      vertex 34.2196 11.0769 20
      vertex 35 11 0
      vertex 34.2196 11.0769 0
    endloop
  endfacet
  facet normal 0.634459 0.772956 -0
    outer loop
      vertex 32.7777 11.6741 0
      vertex 32.1716 12.1716 20
      vertex 32.7777 11.6741 20
    endloop
  endfacet
  facet normal 0.634459 0.772956 0
    outer loop
      vertex 32.1716 12.1716 20
      vertex 32.7777 11.6741 0
      vertex 32.1716 12.1716 0
    endloop
  endfacet
  facet normal 0.956941 -0.290283 0
    outer loop
      vertex 31.0769 15.7804 20
      vertex 31.3045 16.5307 0
      vertex 31.3045 16.5307 20
    endloop
  endfacet
  facet normal 0.956941 -0.290283 0
    outer loop
      vertex 31.3045 16.5307 0
      vertex 31.0769 15.7804 20
      vertex 31.0769 15.7804 0
    endloop
  endfacet
  facet normal 0.881957 -0.471329 0
    outer loop
      vertex 31.3045 16.5307 20
      vertex 31.6741 17.2223 0
      vertex 31.6741 17.2223 20
    endloop
  endfacet
  facet normal 0.881957 -0.471329 0
    outer loop
      vertex 31.6741 17.2223 0
      vertex 31.3045 16.5307 20
      vertex 31.3045 16.5307 0
    endloop
  endfacet
  facet normal 0.99518 0.0980643 0
    outer loop
      vertex 31.0769 14.2196 20
      vertex 31 15 0
      vertex 31 15 20
    endloop
  endfacet
  facet normal 0.99518 0.0980643 0
    outer loop
      vertex 31 15 0
      vertex 31.0769 14.2196 20
      vertex 31.0769 14.2196 0
    endloop
  endfacet
endsolid OpenSCAD_Model
