solid OpenSCAD_Model
  facet normal 1 -0 0
    outer loop
      vertex 50 0 20
      vertex 50 30 0
      vertex 50 30 20
    endloop
  endfacet
  facet normal 1 0 0
    outer loop
      vertex 50 30 0
      vertex 50 0 20
      vertex 50 0 0
    endloop
  endfacet
  facet normal -0 0 1
    outer loop
      vertex 0 30 20
      vertex 50 0 20
      vertex 50 30 20
    endloop
  endfacet
  facet normal 0 0 1
    outer loop
      vertex 50 0 20
      vertex 0 30 20
      vertex 0 0 20
    endloop
  endfacet
  facet normal 0 0 -1
    outer loop
      vertex 0 0 0
      vertex 50 30 0
      vertex 50 0 0
    endloop
  endfacet
  facet normal -0 0 -1
    outer loop
      vertex 50 30 0
      vertex 0 0 0
      vertex 0 30 0
    endloop
  endfacet
  facet normal -1 0 0
    outer loop
      vertex 0 0 0
      vertex 0 30 20
      vertex 0 30 0
    endloop
  endfacet
  facet normal -1 -0 0
    outer loop
      vertex 0 30 20
      vertex 0 0 0
      vertex 0 0 20
    endloop
  endfacet
  facet normal 0 1 -0
    outer loop
      vertex 50 30 0
      vertex 0 30 20
      vertex 50 30 20
    endloop
  endfacet
  facet normal 0 1 0
    outer loop
      vertex 0 30 20
      vertex 50 30 0
      vertex 0 30 0
    endloop
  endfacet
  facet normal 0 -1 0
    outer loop
      vertex 0 0 0
      vertex 50 0 20
      vertex 0 0 20
    endloop
  endfacet
  facet normal 0 -1 -0
    outer loop
      vertex 50 0 20
      vertex 0 0 0
      vertex 50 0 0
    endloop
  endfacet
  facet normal -1 0 0
    outer loop
      vertex 47 3 3
      vertex 47 27 17
      vertex 47 27 3
    endloop
  endfacet
  facet normal -1 -0 0
    outer loop
      vertex 47 27 17
      vertex 47 3 3
      vertex 47 3 17
    endloop
  endfacet
  facet normal 0 0 -1
    outer loop
      vertex 3 3 17
      vertex 47 27 17
      vertex 47 3 17
    endloop
  endfacet
  facet normal -0 0 -1
    outer loop
      vertex 47 27 17
      vertex 3 3 17
      vertex 3 27 17
    endloop
  endfacet
  facet normal -0 0 1
    outer loop
      vertex 3 27 3
      vertex 47 3 3
      vertex 47 27 3
    endloop
  endfacet
  facet normal 0 0 1
    outer loop
      vertex 47 3 3
      vertex 3 27 3
      vertex 3 3 3
    endloop
  endfacet
  facet normal 1 -0 0
    outer loop
      vertex 3 3 17
      vertex 3 27 3
      vertex 3 27 17
    endloop
  endfacet
  facet normal 1 0 0
    outer loop
      vertex 3 27 3
      vertex 3 3 17
      vertex 3 3 3
    endloop
  endfacet
  facet normal 0 -1 0
    outer loop
      vertex 3 27 3
      vertex 47 27 17
      vertex 3 27 17
    endloop
  endfacet
  facet normal 0 -1 -0
    outer loop
      vertex 47 27 17
      vertex 3 27 3
      vertex 47 27 3
    endloop
  endfacet
  facet normal 0 1 -0
    outer loop
      vertex 47 3 3
      vertex 3 3 17
      vertex 47 3 17
    endloop
  endfacet
  facet normal 0 1 0
    outer loop
      vertex 3 3 17
      vertex 47 3 3
      vertex 3 3 3
    endloop
  endfacet
endsolid OpenSCAD_Model
