solid OpenSCAD_Model
  facet normal 1 -0 0
    outer loop
      vertex 20 8 5
      vertex 20 10 0
      vertex 20 10 5
    endloop
  endfacet
  facet normal 1 -0 0
    outer loop
      vertex 20 2 5
      vertex 20 10 0
      vertex 20 8 5
    endloop
  endfacet
  facet normal 1 0 0
    outer loop
      vertex 20 0 0
      vertex 20 2 5
      vertex 20 0 5
    endloop
  endfacet
  facet normal 1 0 0
    outer loop
      vertex 20 2 5
      vertex 20 0 0
      vertex 20 10 0
    endloop
  endfacet
  facet normal -0 0 1
    outer loop
      vertex 0 10 5
      vertex 1.60982 9.96157 5
      vertex 2 10 5
    endloop
  endfacet
  facet normal 0 0 1
    outer loop
      vertex 0 10 5
      vertex 1.23463 9.84776 5
      vertex 1.60982 9.96157 5
    endloop
  endfacet
  facet normal 0 0 1
    outer loop
      vertex 0 10 5
      vertex 0.888859 9.66294 5
      vertex 1.23463 9.84776 5
    endloop
  endfacet
  facet normal 0 0 1
    outer loop
      vertex 0 10 5
      vertex 0.585786 9.41421 5
      vertex 0.888859 9.66294 5
    endloop
  endfacet
  facet normal 0 0 1
    outer loop
      vertex 0 10 5
      vertex 0.33706 9.11114 5
      vertex 0.585786 9.41421 5
    endloop
  endfacet
  facet normal 0 0 1
    outer loop
      vertex 0 10 5
      vertex 0.152241 8.76537 5
      vertex 0.33706 9.11114 5
    endloop
  endfacet
  facet normal 0 0 1
    outer loop
      vertex 0 10 5
      vertex 0.0384293 8.39018 5
      vertex 0.152241 8.76537 5
    endloop
  endfacet
  facet normal 0 0 1
    outer loop
      vertex 0.0384293 8.39018 5
      vertex 0 10 5
      vertex 0 8 5
    endloop
  endfacet
  facet normal 0 0 1
    outer loop
      vertex 20 10 5
      vertex 19.9616 8.39018 5
      vertex 20 8 5
    endloop
  endfacet
  facet normal 0 0 1
    outer loop
      vertex 20 10 5
      vertex 19.8478 8.76537 5
      vertex 19.9616 8.39018 5
    endloop
  endfacet
  facet normal 0 0 1
    outer loop
      vertex 20 10 5
      vertex 19.6629 9.11114 5
      vertex 19.8478 8.76537 5
    endloop
  endfacet
  facet normal 0 0 1
    outer loop
      vertex 20 10 5
      vertex 19.4142 9.41421 5
      vertex 19.6629 9.11114 5
    endloop
  endfacet
  facet normal 0 0 1
    outer loop
      vertex 20 10 5
      vertex 19.1111 9.66294 5
      vertex 19.4142 9.41421 5
    endloop
  endfacet
  facet normal 0 0 1
    outer loop
      vertex 20 10 5
      vertex 18.7654 9.84776 5
      vertex 19.1111 9.66294 5
    endloop
  endfacet
  facet normal 0 0 1
    outer loop
      vertex 20 10 5
      vertex 18.3902 9.96157 5
      vertex 18.7654 9.84776 5
    endloop
  endfacet
  facet normal 0 -0 1
    outer loop
      vertex 18.3902 9.96157 5
      vertex 20 10 5
      vertex 18 10 5
    endloop
  endfacet
  facet normal 0 0 1
    outer loop
      vertex 1.60982 0.0384293 5
      vertex 0 0 5
      vertex 2 0 5
    endloop
  endfacet
  facet normal 0 0 1
    outer loop
      vertex 1.23463 0.152241 5
      vertex 0 0 5
      vertex 1.60982 0.0384293 5
    endloop
  endfacet
  facet normal 0 0 1
    outer loop
      vertex 0.888859 0.33706 5
      vertex 0 0 5
      vertex 1.23463 0.152241 5
    endloop
  endfacet
  facet normal 0 0 1
    outer loop
      vertex 0.585786 0.585786 5
      vertex 0 0 5
      vertex 0.888859 0.33706 5
    endloop
  endfacet
  facet normal 0 0 1
    outer loop
      vertex 0.33706 0.888859 5
      vertex 0 0 5
      vertex 0.585786 0.585786 5
    endloop
  endfacet
  facet normal 0 0 1
    outer loop
      vertex 0.152241 1.23463 5
      vertex 0 0 5
      vertex 0.33706 0.888859 5
    endloop
  endfacet
  facet normal 0 0 1
    outer loop
      vertex 0.0384293 1.60982 5
      vertex 0 0 5
      vertex 0.152241 1.23463 5
    endloop
  endfacet
  facet normal 0 0 1
    outer loop
      vertex 0 0 5
      vertex 0.0384293 1.60982 5
      vertex 0 2 5
    endloop
  endfacet
  facet normal -0 0 1
    outer loop
      vertex 19.9616 1.60982 5
      vertex 20 0 5
      vertex 20 2 5
    endloop
  endfacet
  facet normal -0 0 1
    outer loop
      vertex 19.8478 1.23463 5
      vertex 20 0 5
      vertex 19.9616 1.60982 5
    endloop
  endfacet
  facet normal -0 0 1
    outer loop
      vertex 19.6629 0.888859 5
      vertex 20 0 5
      vertex 19.8478 1.23463 5
    endloop
  endfacet
  facet normal -0 0 1
    outer loop
      vertex 19.4142 0.585786 5
      vertex 20 0 5
      vertex 19.6629 0.888859 5
    endloop
  endfacet
  facet normal -0 0 1
    outer loop
      vertex 19.1111 0.33706 5
      vertex 20 0 5
      vertex 19.4142 0.585786 5
    endloop
  endfacet
  facet normal -0 0 1
    outer loop
      vertex 18.7654 0.152241 5
      vertex 20 0 5
      vertex 19.1111 0.33706 5
    endloop
  endfacet
  facet normal -0 0 1
    outer loop
      vertex 18.3902 0.0384293 5
      vertex 20 0 5
      vertex 18.7654 0.152241 5
    endloop
  endfacet
  facet normal 0 0 1
    outer loop
      vertex 20 0 5
      vertex 18.3902 0.0384293 5
      vertex 18 0 5
    endloop
  endfacet
  facet normal 0 0 1
    outer loop
      vertex 16.1522 7.23463 5
      vertex 3.84776 7.23463 5
      vertex 16.1522 2.76537 5
    endloop
  endfacet
  facet normal 0 0 1
    outer loop
      vertex 16.1522 2.76537 5
      vertex 3.96157 2.39018 5
      vertex 4 2 5
    endloop
  endfacet
  facet normal 0 0 1
    outer loop
      vertex 3.84776 2.76537 5
      vertex 16.1522 2.76537 5
      vertex 3.84776 7.23463 5
    endloop
  endfacet
  facet normal 0 0 1
    outer loop
      vertex 16.1522 2.76537 5
      vertex 3.84776 2.76537 5
      vertex 3.96157 2.39018 5
    endloop
  endfacet
  facet normal -0 0 1
    outer loop
      vertex 3.66294 6.88886 5
      vertex 3.84776 2.76537 5
      vertex 3.84776 7.23463 5
    endloop
  endfacet
  facet normal 0 0 1
    outer loop
      vertex 3.66294 6.88886 5
      vertex 3.66294 3.11114 5
      vertex 3.84776 2.76537 5
    endloop
  endfacet
  facet normal -0 0 1
    outer loop
      vertex 3.41421 6.58579 5
      vertex 3.66294 3.11114 5
      vertex 3.66294 6.88886 5
    endloop
  endfacet
  facet normal 0 0 1
    outer loop
      vertex 3.41421 6.58579 5
      vertex 3.41421 3.41421 5
      vertex 3.66294 3.11114 5
    endloop
  endfacet
  facet normal -0 0 1
    outer loop
      vertex 3.11114 6.33706 5
      vertex 3.41421 3.41421 5
      vertex 3.41421 6.58579 5
    endloop
  endfacet
  facet normal 0 0 1
    outer loop
      vertex 3.11114 6.33706 5
      vertex 3.11114 3.66294 5
      vertex 3.41421 3.41421 5
    endloop
  endfacet
  facet normal -0 0 1
    outer loop
      vertex 2.76537 6.15224 5
      vertex 3.11114 3.66294 5
      vertex 3.11114 6.33706 5
    endloop
  endfacet
  facet normal 0 0 1
    outer loop
      vertex 2.76537 6.15224 5
      vertex 2.76537 3.84776 5
      vertex 3.11114 3.66294 5
    endloop
  endfacet
  facet normal -0 0 1
    outer loop
      vertex 2.39018 6.03843 5
      vertex 2.76537 3.84776 5
      vertex 2.76537 6.15224 5
    endloop
  endfacet
  facet normal 0 0 1
    outer loop
      vertex 2.39018 6.03843 5
      vertex 2.39018 3.96157 5
      vertex 2.76537 3.84776 5
    endloop
  endfacet
  facet normal -0 0 1
    outer loop
      vertex 2 6 5
      vertex 2.39018 3.96157 5
      vertex 2.39018 6.03843 5
    endloop
  endfacet
  facet normal 0 0 1
    outer loop
      vertex 2 6 5
      vertex 2 4 5
      vertex 2.39018 3.96157 5
    endloop
  endfacet
  facet normal 0 0 1
    outer loop
      vertex 1.60982 6.03843 5
      vertex 2 4 5
      vertex 2 6 5
    endloop
  endfacet
  facet normal 0 0 1
    outer loop
      vertex 1.60982 6.03843 5
      vertex 1.60982 3.96157 5
      vertex 2 4 5
    endloop
  endfacet
  facet normal 0 0 1
    outer loop
      vertex 1.23463 6.15224 5
      vertex 1.60982 3.96157 5
      vertex 1.60982 6.03843 5
    endloop
  endfacet
  facet normal 0 0 1
    outer loop
      vertex 1.23463 6.15224 5
      vertex 1.23463 3.84776 5
      vertex 1.60982 3.96157 5
    endloop
  endfacet
  facet normal 0 0 1
    outer loop
      vertex 0.888859 6.33706 5
      vertex 1.23463 3.84776 5
      vertex 1.23463 6.15224 5
    endloop
  endfacet
  facet normal 0 0 1
    outer loop
      vertex 0.888859 6.33706 5
      vertex 0.888859 3.66294 5
      vertex 1.23463 3.84776 5
    endloop
  endfacet
  facet normal 0 0 1
    outer loop
      vertex 0.585786 6.58579 5
      vertex 0.888859 3.66294 5
      vertex 0.888859 6.33706 5
    endloop
  endfacet
  facet normal 0 0 1
    outer loop
      vertex 0.585786 6.58579 5
      vertex 0.585786 3.41421 5
      vertex 0.888859 3.66294 5
    endloop
  endfacet
  facet normal 0 0 1
    outer loop
      vertex 0.33706 6.88886 5
      vertex 0.585786 3.41421 5
      vertex 0.585786 6.58579 5
    endloop
  endfacet
  facet normal 0 0 1
    outer loop
      vertex 0.33706 6.88886 5
      vertex 0.33706 3.11114 5
      vertex 0.585786 3.41421 5
    endloop
  endfacet
  facet normal 0 0 1
    outer loop
      vertex 0.152241 7.23463 5
      vertex 0.33706 3.11114 5
      vertex 0.33706 6.88886 5
    endloop
  endfacet
  facet normal 0 0 1
    outer loop
      vertex 0.152241 7.23463 5
      vertex 0.152241 2.76537 5
      vertex 0.33706 3.11114 5
    endloop
  endfacet
  facet normal 0 0 1
    outer loop
      vertex 0.0384293 7.60982 5
      vertex 0.152241 2.76537 5
      vertex 0.152241 7.23463 5
    endloop
  endfacet
  facet normal 0 0 1
    outer loop
      vertex 0.0384293 7.60982 5
      vertex 0.0384293 2.39018 5
      vertex 0.152241 2.76537 5
    endloop
  endfacet
  facet normal 0 0 1
    outer loop
      vertex 0 8 5
      vertex 0.0384293 2.39018 5
      vertex 0.0384293 7.60982 5
    endloop
  endfacet
  facet normal 0 0 1
    outer loop
      vertex 0.0384293 2.39018 5
      vertex 0 8 5
      vertex 0 2 5
    endloop
  endfacet
  facet normal 0 0 1
    outer loop
      vertex 16.1522 2.76537 5
      vertex 4 2 5
      vertex 16.0384 2.39018 5
    endloop
  endfacet
  facet normal 0 0 1
    outer loop
      vertex 16.0384 8.39018 5
      vertex 4 8 5
      vertex 16 8 5
    endloop
  endfacet
  facet normal 0 0 1
    outer loop
      vertex 3.96157 8.39018 5
      vertex 16.0384 8.39018 5
      vertex 16.1522 8.76537 5
    endloop
  endfacet
  facet normal 0 0 1
    outer loop
      vertex 3.84776 8.76537 5
      vertex 16.1522 8.76537 5
      vertex 16.3371 9.11114 5
    endloop
  endfacet
  facet normal 0 0 1
    outer loop
      vertex 3.66294 9.11114 5
      vertex 16.3371 9.11114 5
      vertex 16.5858 9.41421 5
    endloop
  endfacet
  facet normal 0 0 1
    outer loop
      vertex 3.41421 9.41421 5
      vertex 16.5858 9.41421 5
      vertex 16.8889 9.66294 5
    endloop
  endfacet
  facet normal 0 0 1
    outer loop
      vertex 3.11114 9.66294 5
      vertex 16.8889 9.66294 5
      vertex 17.2346 9.84776 5
    endloop
  endfacet
  facet normal 0 0 1
    outer loop
      vertex 2.76537 9.84776 5
      vertex 17.2346 9.84776 5
      vertex 17.6098 9.96157 5
    endloop
  endfacet
  facet normal 0 0 1
    outer loop
      vertex 16.0384 8.39018 5
      vertex 3.96157 8.39018 5
      vertex 4 8 5
    endloop
  endfacet
  facet normal 0 0 1
    outer loop
      vertex 16.1522 8.76537 5
      vertex 3.84776 8.76537 5
      vertex 3.96157 8.39018 5
    endloop
  endfacet
  facet normal 0 0 1
    outer loop
      vertex 2.39018 9.96157 5
      vertex 17.6098 9.96157 5
      vertex 18 10 5
    endloop
  endfacet
  facet normal 0 0 1
    outer loop
      vertex 16.3371 9.11114 5
      vertex 3.66294 9.11114 5
      vertex 3.84776 8.76537 5
    endloop
  endfacet
  facet normal 0 0 1
    outer loop
      vertex 16.5858 9.41421 5
      vertex 3.41421 9.41421 5
      vertex 3.66294 9.11114 5
    endloop
  endfacet
  facet normal 0 0 1
    outer loop
      vertex 16.8889 9.66294 5
      vertex 3.11114 9.66294 5
      vertex 3.41421 9.41421 5
    endloop
  endfacet
  facet normal 0 0 1
    outer loop
      vertex 17.2346 9.84776 5
      vertex 2.76537 9.84776 5
      vertex 3.11114 9.66294 5
    endloop
  endfacet
  facet normal 0 0 1
    outer loop
      vertex 17.6098 9.96157 5
      vertex 2.39018 9.96157 5
      vertex 2.76537 9.84776 5
    endloop
  endfacet
  facet normal 0 -0 1
    outer loop
      vertex 2.39018 9.96157 5
      vertex 18 10 5
      vertex 2 10 5
    endloop
  endfacet
  facet normal -0 0 1
    outer loop
      vertex 19.9616 7.60982 5
      vertex 20 2 5
      vertex 20 8 5
    endloop
  endfacet
  facet normal 0 0 1
    outer loop
      vertex 19.9616 7.60982 5
      vertex 19.9616 2.39018 5
      vertex 20 2 5
    endloop
  endfacet
  facet normal -0 0 1
    outer loop
      vertex 19.8478 7.23463 5
      vertex 19.9616 2.39018 5
      vertex 19.9616 7.60982 5
    endloop
  endfacet
  facet normal 0 0 1
    outer loop
      vertex 19.8478 7.23463 5
      vertex 19.8478 2.76537 5
      vertex 19.9616 2.39018 5
    endloop
  endfacet
  facet normal -0 0 1
    outer loop
      vertex 19.6629 6.88886 5
      vertex 19.8478 2.76537 5
      vertex 19.8478 7.23463 5
    endloop
  endfacet
  facet normal 0 0 1
    outer loop
      vertex 19.6629 6.88886 5
      vertex 19.6629 3.11114 5
      vertex 19.8478 2.76537 5
    endloop
  endfacet
  facet normal -0 0 1
    outer loop
      vertex 19.4142 6.58579 5
      vertex 19.6629 3.11114 5
      vertex 19.6629 6.88886 5
    endloop
  endfacet
  facet normal 0 0 1
    outer loop
      vertex 19.4142 6.58579 5
      vertex 19.4142 3.41421 5
      vertex 19.6629 3.11114 5
    endloop
  endfacet
  facet normal -0 0 1
    outer loop
      vertex 19.1111 6.33706 5
      vertex 19.4142 3.41421 5
      vertex 19.4142 6.58579 5
    endloop
  endfacet
  facet normal 0 0 1
    outer loop
      vertex 19.1111 6.33706 5
      vertex 19.1111 3.66294 5
      vertex 19.4142 3.41421 5
    endloop
  endfacet
  facet normal -0 0 1
    outer loop
      vertex 18.7654 6.15224 5
      vertex 19.1111 3.66294 5
      vertex 19.1111 6.33706 5
    endloop
  endfacet
  facet normal 0 0 1
    outer loop
      vertex 18.7654 6.15224 5
      vertex 18.7654 3.84776 5
      vertex 19.1111 3.66294 5
    endloop
  endfacet
  facet normal -0 0 1
    outer loop
      vertex 18.3902 6.03843 5
      vertex 18.7654 3.84776 5
      vertex 18.7654 6.15224 5
    endloop
  endfacet
  facet normal 0 0 1
    outer loop
      vertex 18.3902 6.03843 5
      vertex 18.3902 3.96157 5
      vertex 18.7654 3.84776 5
    endloop
  endfacet
  facet normal -0 0 1
    outer loop
      vertex 18 6 5
      vertex 18.3902 3.96157 5
      vertex 18.3902 6.03843 5
    endloop
  endfacet
  facet normal 0 0 1
    outer loop
      vertex 18 6 5
      vertex 18 4 5
      vertex 18.3902 3.96157 5
    endloop
  endfacet
  facet normal 0 0 1
    outer loop
      vertex 17.6098 6.03843 5
      vertex 18 4 5
      vertex 18 6 5
    endloop
  endfacet
  facet normal 0 0 1
    outer loop
      vertex 17.6098 6.03843 5
      vertex 17.6098 3.96157 5
      vertex 18 4 5
    endloop
  endfacet
  facet normal 0 0 1
    outer loop
      vertex 17.2346 6.15224 5
      vertex 17.6098 3.96157 5
      vertex 17.6098 6.03843 5
    endloop
  endfacet
  facet normal 0 0 1
    outer loop
      vertex 17.2346 6.15224 5
      vertex 17.2346 3.84776 5
      vertex 17.6098 3.96157 5
    endloop
  endfacet
  facet normal 0 0 1
    outer loop
      vertex 16.8889 6.33706 5
      vertex 17.2346 3.84776 5
      vertex 17.2346 6.15224 5
    endloop
  endfacet
  facet normal 0 0 1
    outer loop
      vertex 16.8889 6.33706 5
      vertex 16.8889 3.66294 5
      vertex 17.2346 3.84776 5
    endloop
  endfacet
  facet normal 0 0 1
    outer loop
      vertex 16.5858 6.58579 5
      vertex 16.8889 3.66294 5
      vertex 16.8889 6.33706 5
    endloop
  endfacet
  facet normal 0 0 1
    outer loop
      vertex 16.5858 6.58579 5
      vertex 16.5858 3.41421 5
      vertex 16.8889 3.66294 5
    endloop
  endfacet
  facet normal 0 0 1
    outer loop
      vertex 16.3371 6.88886 5
      vertex 16.5858 3.41421 5
      vertex 16.5858 6.58579 5
    endloop
  endfacet
  facet normal 0 0 1
    outer loop
      vertex 16.3371 6.88886 5
      vertex 16.3371 3.11114 5
      vertex 16.5858 3.41421 5
    endloop
  endfacet
  facet normal 0 0 1
    outer loop
      vertex 16.1522 7.23463 5
      vertex 16.3371 3.11114 5
      vertex 16.3371 6.88886 5
    endloop
  endfacet
  facet normal 0 0 1
    outer loop
      vertex 16.1522 7.23463 5
      vertex 16.1522 2.76537 5
      vertex 16.3371 3.11114 5
    endloop
  endfacet
  facet normal 0 0 1
    outer loop
      vertex 3.96157 7.60982 5
      vertex 16.0384 7.60982 5
      vertex 4 8 5
    endloop
  endfacet
  facet normal 0 0 1
    outer loop
      vertex 16.0384 7.60982 5
      vertex 3.96157 7.60982 5
      vertex 16.1522 7.23463 5
    endloop
  endfacet
  facet normal -0 0 1
    outer loop
      vertex 4 8 5
      vertex 16.0384 7.60982 5
      vertex 16 8 5
    endloop
  endfacet
  facet normal 0 0 1
    outer loop
      vertex 3.84776 7.23463 5
      vertex 16.1522 7.23463 5
      vertex 3.96157 7.60982 5
    endloop
  endfacet
  facet normal 0 0 1
    outer loop
      vertex 16.0384 2.39018 5
      vertex 4 2 5
      vertex 16 2 5
    endloop
  endfacet
  facet normal 0 0 1
    outer loop
      vertex 16 2 5
      vertex 4 2 5
      vertex 16.0384 1.60982 5
    endloop
  endfacet
  facet normal 0 0 1
    outer loop
      vertex 3.96157 1.60982 5
      vertex 16.0384 1.60982 5
      vertex 4 2 5
    endloop
  endfacet
  facet normal 0 0 1
    outer loop
      vertex 16.0384 1.60982 5
      vertex 3.96157 1.60982 5
      vertex 16.1522 1.23463 5
    endloop
  endfacet
  facet normal 0 0 1
    outer loop
      vertex 3.84776 1.23463 5
      vertex 16.1522 1.23463 5
      vertex 3.96157 1.60982 5
    endloop
  endfacet
  facet normal 0 0 1
    outer loop
      vertex 16.1522 1.23463 5
      vertex 3.84776 1.23463 5
      vertex 16.3371 0.888859 5
    endloop
  endfacet
  facet normal 0 0 1
    outer loop
      vertex 3.66294 0.888859 5
      vertex 16.3371 0.888859 5
      vertex 3.84776 1.23463 5
    endloop
  endfacet
  facet normal 0 0 1
    outer loop
      vertex 16.3371 0.888859 5
      vertex 3.66294 0.888859 5
      vertex 16.5858 0.585786 5
    endloop
  endfacet
  facet normal 0 0 1
    outer loop
      vertex 3.41421 0.585786 5
      vertex 16.5858 0.585786 5
      vertex 3.66294 0.888859 5
    endloop
  endfacet
  facet normal 0 0 1
    outer loop
      vertex 16.5858 0.585786 5
      vertex 3.41421 0.585786 5
      vertex 16.8889 0.33706 5
    endloop
  endfacet
  facet normal 0 0 1
    outer loop
      vertex 3.11114 0.33706 5
      vertex 16.8889 0.33706 5
      vertex 3.41421 0.585786 5
    endloop
  endfacet
  facet normal 0 0 1
    outer loop
      vertex 16.8889 0.33706 5
      vertex 3.11114 0.33706 5
      vertex 17.2346 0.152241 5
    endloop
  endfacet
  facet normal 0 0 1
    outer loop
      vertex 2.76537 0.152241 5
      vertex 17.2346 0.152241 5
      vertex 3.11114 0.33706 5
    endloop
  endfacet
  facet normal 0 0 1
    outer loop
      vertex 17.2346 0.152241 5
      vertex 2.76537 0.152241 5
      vertex 17.6098 0.0384293 5
    endloop
  endfacet
  facet normal 0 0 1
    outer loop
      vertex 2.39018 0.0384293 5
      vertex 17.6098 0.0384293 5
      vertex 2.76537 0.152241 5
    endloop
  endfacet
  facet normal 0 0 1
    outer loop
      vertex 17.6098 0.0384293 5
      vertex 2.39018 0.0384293 5
      vertex 18 0 5
    endloop
  endfacet
  facet normal 0 0 1
    outer loop
      vertex 18 0 5
      vertex 2.39018 0.0384293 5
      vertex 2 0 5
    endloop
  endfacet
  facet normal 0 0 -1
    outer loop
      vertex 0 0 0
      vertex 20 10 0
      vertex 20 0 0
    endloop
  endfacet
  facet normal -0 0 -1
    outer loop
      vertex 20 10 0
      vertex 0 0 0
      vertex 0 10 0
    endloop
  endfacet
  facet normal -1 0 0
    outer loop
      vertex 0 10 0
      vertex 0 8 5
      vertex 0 10 5
    endloop
  endfacet
  facet normal -1 0 0
    outer loop
      vertex 0 10 0
      vertex 0 2 5
      vertex 0 8 5
    endloop
  endfacet
  facet normal -1 0 0
    outer loop
      vertex 0 0 0
      vertex 0 2 5
      vertex 0 10 0
    endloop
  endfacet
  facet normal -1 -0 0
    outer loop
      vertex 0 2 5
      vertex 0 0 0
      vertex 0 0 5
    endloop
  endfacet
  facet normal 0 1 -0
    outer loop
      vertex 20 10 0
      vertex 18 10 5
      vertex 20 10 5
    endloop
  endfacet
  facet normal 0 1 0
    outer loop
      vertex 18 10 5
      vertex 20 10 0
      vertex 2 10 5
    endloop
  endfacet
  facet normal 0 1 0
    outer loop
      vertex 0 10 0
      vertex 2 10 5
      vertex 20 10 0
    endloop
  endfacet
  facet normal 0 1 0
    outer loop
      vertex 2 10 5
      vertex 0 10 0
      vertex 0 10 5
    endloop
  endfacet
  facet normal 0 -1 0
    outer loop
      vertex 0 0 0
      vertex 2 0 5
      vertex 0 0 5
    endloop
  endfacet
  facet normal 0 -1 -0
    outer loop
      vertex 2 0 5
      vertex 0 0 0
      vertex 18 0 5
    endloop
  endfacet
  facet normal 0 -1 0
    outer loop
      vertex 20 0 0
      vertex 18 0 5
      vertex 0 0 0
    endloop
  endfacet
  facet normal 0 -1 0
    outer loop
      vertex 18 0 5
      vertex 20 0 0
      vertex 20 0 5
    endloop
  endfacet
  facet normal -0.290282 0.956941 0
    outer loop
      vertex 2.76537 0.152241 3
      vertex 2.39018 0.0384293 5
      vertex 2.76537 0.152241 5
    endloop
  endfacet
  facet normal -0.290282 0.956941 0
    outer loop
      vertex 2.39018 0.0384293 5
      vertex 2.76537 0.152241 3
      vertex 2.39018 0.0384293 3
    endloop
  endfacet
  facet normal -0.956942 -0.290279 0
    outer loop
      vertex 3.96157 2.39018 3
      vertex 3.84776 2.76537 5
      vertex 3.84776 2.76537 3
    endloop
  endfacet
  facet normal -0.956942 -0.290279 0
    outer loop
      vertex 3.84776 2.76537 5
      vertex 3.96157 2.39018 3
      vertex 3.96157 2.39018 5
    endloop
  endfacet
  facet normal -0.995185 -0.0980187 0
    outer loop
      vertex 4 2 3
      vertex 3.96157 2.39018 5
      vertex 3.96157 2.39018 3
    endloop
  endfacet
  facet normal -0.995185 -0.0980187 0
    outer loop
      vertex 3.96157 2.39018 5
      vertex 4 2 3
      vertex 4 2 5
    endloop
  endfacet
  facet normal -0.881919 -0.471401 0
    outer loop
      vertex 3.84776 2.76537 3
      vertex 3.66294 3.11114 5
      vertex 3.66294 3.11114 3
    endloop
  endfacet
  facet normal -0.881919 -0.471401 0
    outer loop
      vertex 3.66294 3.11114 5
      vertex 3.84776 2.76537 3
      vertex 3.84776 2.76537 5
    endloop
  endfacet
  facet normal 0 0 1
    outer loop
      vertex 3.96157 2.39018 3
      vertex 3.96157 1.60982 3
      vertex 4 2 3
    endloop
  endfacet
  facet normal 0 0 1
    outer loop
      vertex 3.84776 2.76537 3
      vertex 3.96157 1.60982 3
      vertex 3.96157 2.39018 3
    endloop
  endfacet
  facet normal 0 0 1
    outer loop
      vertex 3.84776 2.76537 3
      vertex 3.84776 1.23463 3
      vertex 3.96157 1.60982 3
    endloop
  endfacet
  facet normal 0 0 1
    outer loop
      vertex 3.66294 3.11114 3
      vertex 3.84776 1.23463 3
      vertex 3.84776 2.76537 3
    endloop
  endfacet
  facet normal 0 0 1
    outer loop
      vertex 3.66294 3.11114 3
      vertex 3.66294 0.888859 3
      vertex 3.84776 1.23463 3
    endloop
  endfacet
  facet normal 0 0 1
    outer loop
      vertex 3.41421 3.41421 3
      vertex 3.66294 0.888859 3
      vertex 3.66294 3.11114 3
    endloop
  endfacet
  facet normal 0 0 1
    outer loop
      vertex 3.41421 3.41421 3
      vertex 3.41421 0.585786 3
      vertex 3.66294 0.888859 3
    endloop
  endfacet
  facet normal 0 0 1
    outer loop
      vertex 3.11114 3.66294 3
      vertex 3.41421 0.585786 3
      vertex 3.41421 3.41421 3
    endloop
  endfacet
  facet normal 0 0 1
    outer loop
      vertex 3.11114 3.66294 3
      vertex 3.11114 0.33706 3
      vertex 3.41421 0.585786 3
    endloop
  endfacet
  facet normal 0 0 1
    outer loop
      vertex 2.76537 3.84776 3
      vertex 3.11114 0.33706 3
      vertex 3.11114 3.66294 3
    endloop
  endfacet
  facet normal 0 0 1
    outer loop
      vertex 2.76537 3.84776 3
      vertex 2.76537 0.152241 3
      vertex 3.11114 0.33706 3
    endloop
  endfacet
  facet normal 0 0 1
    outer loop
      vertex 2.39018 3.96157 3
      vertex 2.76537 0.152241 3
      vertex 2.76537 3.84776 3
    endloop
  endfacet
  facet normal 0 0 1
    outer loop
      vertex 2.39018 3.96157 3
      vertex 2.39018 0.0384293 3
      vertex 2.76537 0.152241 3
    endloop
  endfacet
  facet normal 0 0 1
    outer loop
      vertex 2 4 3
      vertex 2.39018 0.0384293 3
      vertex 2.39018 3.96157 3
    endloop
  endfacet
  facet normal 0 0 1
    outer loop
      vertex 2 4 3
      vertex 2 0 3
      vertex 2.39018 0.0384293 3
    endloop
  endfacet
  facet normal -0 0 1
    outer loop
      vertex 1.60982 3.96157 3
      vertex 2 0 3
      vertex 2 4 3
    endloop
  endfacet
  facet normal 0 0 1
    outer loop
      vertex 1.60982 3.96157 3
      vertex 1.60982 0.0384293 3
      vertex 2 0 3
    endloop
  endfacet
  facet normal -0 0 1
    outer loop
      vertex 1.23463 3.84776 3
      vertex 1.60982 0.0384293 3
      vertex 1.60982 3.96157 3
    endloop
  endfacet
  facet normal 0 0 1
    outer loop
      vertex 1.23463 3.84776 3
      vertex 1.23463 0.152241 3
      vertex 1.60982 0.0384293 3
    endloop
  endfacet
  facet normal -0 0 1
    outer loop
      vertex 0.888859 3.66294 3
      vertex 1.23463 0.152241 3
      vertex 1.23463 3.84776 3
    endloop
  endfacet
  facet normal 0 0 1
    outer loop
      vertex 0.888859 3.66294 3
      vertex 0.888859 0.33706 3
      vertex 1.23463 0.152241 3
    endloop
  endfacet
  facet normal -0 0 1
    outer loop
      vertex 0.585786 3.41421 3
      vertex 0.888859 0.33706 3
      vertex 0.888859 3.66294 3
    endloop
  endfacet
  facet normal 0 0 1
    outer loop
      vertex 0.585786 3.41421 3
      vertex 0.585786 0.585786 3
      vertex 0.888859 0.33706 3
    endloop
  endfacet
  facet normal -0 0 1
    outer loop
      vertex 0.33706 3.11114 3
      vertex 0.585786 0.585786 3
      vertex 0.585786 3.41421 3
    endloop
  endfacet
  facet normal 0 0 1
    outer loop
      vertex 0.33706 3.11114 3
      vertex 0.33706 0.888859 3
      vertex 0.585786 0.585786 3
    endloop
  endfacet
  facet normal -0 0 1
    outer loop
      vertex 0.152241 2.76537 3
      vertex 0.33706 0.888859 3
      vertex 0.33706 3.11114 3
    endloop
  endfacet
  facet normal 0 0 1
    outer loop
      vertex 0.152241 2.76537 3
      vertex 0.152241 1.23463 3
      vertex 0.33706 0.888859 3
    endloop
  endfacet
  facet normal -0 0 1
    outer loop
      vertex 0.0384293 2.39018 3
      vertex 0.152241 1.23463 3
      vertex 0.152241 2.76537 3
    endloop
  endfacet
  facet normal 0 0 1
    outer loop
      vertex 0.0384293 2.39018 3
      vertex 0.0384293 1.60982 3
      vertex 0.152241 1.23463 3
    endloop
  endfacet
  facet normal 0 -0 1
    outer loop
      vertex 0.0384293 1.60982 3
      vertex 0.0384293 2.39018 3
      vertex 0 2 3
    endloop
  endfacet
  facet normal 0.881921 0.471398 0
    outer loop
      vertex 0.33706 0.888859 5
      vertex 0.152241 1.23463 3
      vertex 0.152241 1.23463 5
    endloop
  endfacet
  facet normal 0.881921 0.471398 0
    outer loop
      vertex 0.152241 1.23463 3
      vertex 0.33706 0.888859 5
      vertex 0.33706 0.888859 3
    endloop
  endfacet
  facet normal -0.290279 -0.956942 0
    outer loop
      vertex 2.39018 3.96157 3
      vertex 2.76537 3.84776 5
      vertex 2.39018 3.96157 5
    endloop
  endfacet
  facet normal -0.290279 -0.956942 -0
    outer loop
      vertex 2.76537 3.84776 5
      vertex 2.39018 3.96157 3
      vertex 2.76537 3.84776 3
    endloop
  endfacet
  facet normal 0.0980187 -0.995185 0
    outer loop
      vertex 1.60982 3.96157 3
      vertex 2 4 5
      vertex 1.60982 3.96157 5
    endloop
  endfacet
  facet normal 0.0980187 -0.995185 0
    outer loop
      vertex 2 4 5
      vertex 1.60982 3.96157 3
      vertex 2 4 3
    endloop
  endfacet
  facet normal 0.471398 0.881921 -0
    outer loop
      vertex 1.23463 0.152241 3
      vertex 0.888859 0.33706 5
      vertex 1.23463 0.152241 5
    endloop
  endfacet
  facet normal 0.471398 0.881921 0
    outer loop
      vertex 0.888859 0.33706 5
      vertex 1.23463 0.152241 3
      vertex 0.888859 0.33706 3
    endloop
  endfacet
  facet normal 0.4714 -0.88192 0
    outer loop
      vertex 0.888859 3.66294 3
      vertex 1.23463 3.84776 5
      vertex 0.888859 3.66294 5
    endloop
  endfacet
  facet normal 0.4714 -0.88192 0
    outer loop
      vertex 1.23463 3.84776 5
      vertex 0.888859 3.66294 3
      vertex 1.23463 3.84776 3
    endloop
  endfacet
  facet normal -0.471399 0.88192 0
    outer loop
      vertex 3.11114 0.33706 3
      vertex 2.76537 0.152241 5
      vertex 3.11114 0.33706 5
    endloop
  endfacet
  facet normal -0.471399 0.88192 0
    outer loop
      vertex 2.76537 0.152241 5
      vertex 3.11114 0.33706 3
      vertex 2.76537 0.152241 3
    endloop
  endfacet
  facet normal 0.773007 -0.634398 0
    outer loop
      vertex 0.33706 3.11114 5
      vertex 0.585786 3.41421 3
      vertex 0.585786 3.41421 5
    endloop
  endfacet
  facet normal 0.773007 -0.634398 0
    outer loop
      vertex 0.585786 3.41421 3
      vertex 0.33706 3.11114 5
      vertex 0.33706 3.11114 3
    endloop
  endfacet
  facet normal -0.773002 -0.634404 0
    outer loop
      vertex 3.66294 3.11114 3
      vertex 3.41421 3.41421 5
      vertex 3.41421 3.41421 3
    endloop
  endfacet
  facet normal -0.773002 -0.634404 0
    outer loop
      vertex 3.41421 3.41421 5
      vertex 3.66294 3.11114 3
      vertex 3.66294 3.11114 5
    endloop
  endfacet
  facet normal -0.773005 0.6344 0
    outer loop
      vertex 3.41421 0.585786 3
      vertex 3.66294 0.888859 5
      vertex 3.66294 0.888859 3
    endloop
  endfacet
  facet normal -0.773005 0.6344 0
    outer loop
      vertex 3.66294 0.888859 5
      vertex 3.41421 0.585786 3
      vertex 3.41421 0.585786 5
    endloop
  endfacet
  facet normal 0.0980169 0.995185 -0
    outer loop
      vertex 2 0 3
      vertex 1.60982 0.0384293 5
      vertex 2 0 5
    endloop
  endfacet
  facet normal 0.0980169 0.995185 0
    outer loop
      vertex 1.60982 0.0384293 5
      vertex 2 0 3
      vertex 1.60982 0.0384293 3
    endloop
  endfacet
  facet normal 0.290279 -0.956942 0
    outer loop
      vertex 1.23463 3.84776 3
      vertex 1.60982 3.96157 5
      vertex 1.23463 3.84776 5
    endloop
  endfacet
  facet normal 0.290279 -0.956942 0
    outer loop
      vertex 1.60982 3.96157 5
      vertex 1.23463 3.84776 3
      vertex 1.60982 3.96157 3
    endloop
  endfacet
  facet normal -0.634398 0.773007 0
    outer loop
      vertex 3.41421 0.585786 3
      vertex 3.11114 0.33706 5
      vertex 3.41421 0.585786 5
    endloop
  endfacet
  facet normal -0.634398 0.773007 0
    outer loop
      vertex 3.11114 0.33706 5
      vertex 3.41421 0.585786 3
      vertex 3.11114 0.33706 3
    endloop
  endfacet
  facet normal -0.995185 0.0980187 0
    outer loop
      vertex 3.96157 1.60982 3
      vertex 4 2 5
      vertex 4 2 3
    endloop
  endfacet
  facet normal -0.995185 0.0980187 0
    outer loop
      vertex 4 2 5
      vertex 3.96157 1.60982 3
      vertex 3.96157 1.60982 5
    endloop
  endfacet
  facet normal 0.290282 0.956941 -0
    outer loop
      vertex 1.60982 0.0384293 3
      vertex 1.23463 0.152241 5
      vertex 1.60982 0.0384293 5
    endloop
  endfacet
  facet normal 0.290282 0.956941 0
    outer loop
      vertex 1.23463 0.152241 5
      vertex 1.60982 0.0384293 3
      vertex 1.23463 0.152241 3
    endloop
  endfacet
  facet normal -0.956942 0.290279 0
    outer loop
      vertex 3.84776 1.23463 3
      vertex 3.96157 1.60982 5
      vertex 3.96157 1.60982 3
    endloop
  endfacet
  facet normal -0.956942 0.290279 0
    outer loop
      vertex 3.96157 1.60982 5
      vertex 3.84776 1.23463 3
      vertex 3.84776 1.23463 5
    endloop
  endfacet
  facet normal 0.956941 0.290282 0
    outer loop
      vertex 0.152241 1.23463 5
      vertex 0.0384293 1.60982 3
      vertex 0.0384293 1.60982 5
    endloop
  endfacet
  facet normal 0.956941 0.290282 0
    outer loop
      vertex 0.0384293 1.60982 3
      vertex 0.152241 1.23463 5
      vertex 0.152241 1.23463 3
    endloop
  endfacet
  facet normal -0.88192 0.4714 0
    outer loop
      vertex 3.66294 0.888859 3
      vertex 3.84776 1.23463 5
      vertex 3.84776 1.23463 3
    endloop
  endfacet
  facet normal -0.88192 0.4714 0
    outer loop
      vertex 3.84776 1.23463 5
      vertex 3.66294 0.888859 3
      vertex 3.66294 0.888859 5
    endloop
  endfacet
  facet normal 0.995185 -0.0980169 0
    outer loop
      vertex 0 2 5
      vertex 0.0384293 2.39018 3
      vertex 0.0384293 2.39018 5
    endloop
  endfacet
  facet normal 0.995185 -0.0980169 0
    outer loop
      vertex 0.0384293 2.39018 3
      vertex 0 2 5
      vertex 0 2 3
    endloop
  endfacet
  facet normal -0.0980187 -0.995185 0
    outer loop
      vertex 2 4 3
      vertex 2.39018 3.96157 5
      vertex 2 4 5
    endloop
  endfacet
  facet normal -0.0980187 -0.995185 -0
    outer loop
      vertex 2.39018 3.96157 5
      vertex 2 4 3
      vertex 2.39018 3.96157 3
    endloop
  endfacet
  facet normal 0.6344 -0.773005 0
    outer loop
      vertex 0.585786 3.41421 3
      vertex 0.888859 3.66294 5
      vertex 0.585786 3.41421 5
    endloop
  endfacet
  facet normal 0.6344 -0.773005 0
    outer loop
      vertex 0.888859 3.66294 5
      vertex 0.585786 3.41421 3
      vertex 0.888859 3.66294 3
    endloop
  endfacet
  facet normal -0.634404 -0.773002 0
    outer loop
      vertex 3.11114 3.66294 3
      vertex 3.41421 3.41421 5
      vertex 3.11114 3.66294 5
    endloop
  endfacet
  facet normal -0.634404 -0.773002 -0
    outer loop
      vertex 3.41421 3.41421 5
      vertex 3.11114 3.66294 3
      vertex 3.41421 3.41421 3
    endloop
  endfacet
  facet normal -0.0980169 0.995185 0
    outer loop
      vertex 2.39018 0.0384293 3
      vertex 2 0 5
      vertex 2.39018 0.0384293 5
    endloop
  endfacet
  facet normal -0.0980169 0.995185 0
    outer loop
      vertex 2 0 5
      vertex 2.39018 0.0384293 3
      vertex 2 0 3
    endloop
  endfacet
  facet normal -0.471401 -0.881919 0
    outer loop
      vertex 2.76537 3.84776 3
      vertex 3.11114 3.66294 5
      vertex 2.76537 3.84776 5
    endloop
  endfacet
  facet normal -0.471401 -0.881919 -0
    outer loop
      vertex 3.11114 3.66294 5
      vertex 2.76537 3.84776 3
      vertex 3.11114 3.66294 3
    endloop
  endfacet
  facet normal 0.77301 0.634394 0
    outer loop
      vertex 0.585786 0.585786 5
      vertex 0.33706 0.888859 3
      vertex 0.33706 0.888859 5
    endloop
  endfacet
  facet normal 0.77301 0.634394 0
    outer loop
      vertex 0.33706 0.888859 3
      vertex 0.585786 0.585786 5
      vertex 0.585786 0.585786 3
    endloop
  endfacet
  facet normal 0.634394 0.77301 -0
    outer loop
      vertex 0.888859 0.33706 3
      vertex 0.585786 0.585786 5
      vertex 0.888859 0.33706 5
    endloop
  endfacet
  facet normal 0.634394 0.77301 0
    outer loop
      vertex 0.585786 0.585786 5
      vertex 0.888859 0.33706 3
      vertex 0.585786 0.585786 3
    endloop
  endfacet
  facet normal 0.956941 -0.290282 0
    outer loop
      vertex 0.0384293 2.39018 5
      vertex 0.152241 2.76537 3
      vertex 0.152241 2.76537 5
    endloop
  endfacet
  facet normal 0.956941 -0.290282 0
    outer loop
      vertex 0.152241 2.76537 3
      vertex 0.0384293 2.39018 5
      vertex 0.0384293 2.39018 3
    endloop
  endfacet
  facet normal 0.88192 -0.471399 0
    outer loop
      vertex 0.152241 2.76537 5
      vertex 0.33706 3.11114 3
      vertex 0.33706 3.11114 5
    endloop
  endfacet
  facet normal 0.88192 -0.471399 0
    outer loop
      vertex 0.33706 3.11114 3
      vertex 0.152241 2.76537 5
      vertex 0.152241 2.76537 3
    endloop
  endfacet
  facet normal 0.995185 0.0980169 0
    outer loop
      vertex 0.0384293 1.60982 5
      vertex 0 2 3
      vertex 0 2 5
    endloop
  endfacet
  facet normal 0.995185 0.0980169 0
    outer loop
      vertex 0 2 3
      vertex 0.0384293 1.60982 5
      vertex 0.0384293 1.60982 3
    endloop
  endfacet
  facet normal -0.290275 0.956943 0
    outer loop
      vertex 18.7654 0.152241 3
      vertex 18.3902 0.0384293 5
      vertex 18.7654 0.152241 5
    endloop
  endfacet
  facet normal -0.290275 0.956943 0
    outer loop
      vertex 18.3902 0.0384293 5
      vertex 18.7654 0.152241 3
      vertex 18.3902 0.0384293 3
    endloop
  endfacet
  facet normal -0.956949 -0.290255 0
    outer loop
      vertex 19.9616 2.39018 3
      vertex 19.8478 2.76537 5
      vertex 19.8478 2.76537 3
    endloop
  endfacet
  facet normal -0.956949 -0.290255 0
    outer loop
      vertex 19.8478 2.76537 5
      vertex 19.9616 2.39018 3
      vertex 19.9616 2.39018 5
    endloop
  endfacet
  facet normal -0.995192 -0.0979429 0
    outer loop
      vertex 20 2 3
      vertex 19.9616 2.39018 5
      vertex 19.9616 2.39018 3
    endloop
  endfacet
  facet normal -0.995192 -0.0979429 0
    outer loop
      vertex 19.9616 2.39018 5
      vertex 20 2 3
      vertex 20 2 5
    endloop
  endfacet
  facet normal -0.881834 -0.47156 0
    outer loop
      vertex 19.8478 2.76537 3
      vertex 19.6629 3.11114 5
      vertex 19.6629 3.11114 3
    endloop
  endfacet
  facet normal -0.881834 -0.47156 0
    outer loop
      vertex 19.6629 3.11114 5
      vertex 19.8478 2.76537 3
      vertex 19.8478 2.76537 5
    endloop
  endfacet
  facet normal 0 0 1
    outer loop
      vertex 19.9616 2.39018 3
      vertex 19.9616 1.60982 3
      vertex 20 2 3
    endloop
  endfacet
  facet normal 0 0 1
    outer loop
      vertex 19.8478 2.76537 3
      vertex 19.9616 1.60982 3
      vertex 19.9616 2.39018 3
    endloop
  endfacet
  facet normal 0 0 1
    outer loop
      vertex 19.8478 2.76537 3
      vertex 19.8478 1.23463 3
      vertex 19.9616 1.60982 3
    endloop
  endfacet
  facet normal 0 0 1
    outer loop
      vertex 19.6629 3.11114 3
      vertex 19.8478 1.23463 3
      vertex 19.8478 2.76537 3
    endloop
  endfacet
  facet normal 0 0 1
    outer loop
      vertex 19.6629 3.11114 3
      vertex 19.6629 0.888859 3
      vertex 19.8478 1.23463 3
    endloop
  endfacet
  facet normal 0 0 1
    outer loop
      vertex 19.4142 3.41421 3
      vertex 19.6629 0.888859 3
      vertex 19.6629 3.11114 3
    endloop
  endfacet
  facet normal 0 0 1
    outer loop
      vertex 19.4142 3.41421 3
      vertex 19.4142 0.585786 3
      vertex 19.6629 0.888859 3
    endloop
  endfacet
  facet normal 0 0 1
    outer loop
      vertex 19.1111 3.66294 3
      vertex 19.4142 0.585786 3
      vertex 19.4142 3.41421 3
    endloop
  endfacet
  facet normal 0 0 1
    outer loop
      vertex 19.1111 3.66294 3
      vertex 19.1111 0.33706 3
      vertex 19.4142 0.585786 3
    endloop
  endfacet
  facet normal 0 0 1
    outer loop
      vertex 18.7654 3.84776 3
      vertex 19.1111 0.33706 3
      vertex 19.1111 3.66294 3
    endloop
  endfacet
  facet normal 0 0 1
    outer loop
      vertex 18.7654 3.84776 3
      vertex 18.7654 0.152241 3
      vertex 19.1111 0.33706 3
    endloop
  endfacet
  facet normal 0 0 1
    outer loop
      vertex 18.3902 3.96157 3
      vertex 18.7654 0.152241 3
      vertex 18.7654 3.84776 3
    endloop
  endfacet
  facet normal 0 0 1
    outer loop
      vertex 18.3902 3.96157 3
      vertex 18.3902 0.0384293 3
      vertex 18.7654 0.152241 3
    endloop
  endfacet
  facet normal 0 0 1
    outer loop
      vertex 18 4 3
      vertex 18.3902 0.0384293 3
      vertex 18.3902 3.96157 3
    endloop
  endfacet
  facet normal 0 0 1
    outer loop
      vertex 18 4 3
      vertex 18 0 3
      vertex 18.3902 0.0384293 3
    endloop
  endfacet
  facet normal -0 0 1
    outer loop
      vertex 17.6098 3.96157 3
      vertex 18 0 3
      vertex 18 4 3
    endloop
  endfacet
  facet normal 0 0 1
    outer loop
      vertex 17.6098 3.96157 3
      vertex 17.6098 0.0384293 3
      vertex 18 0 3
    endloop
  endfacet
  facet normal -0 0 1
    outer loop
      vertex 17.2346 3.84776 3
      vertex 17.6098 0.0384293 3
      vertex 17.6098 3.96157 3
    endloop
  endfacet
  facet normal 0 0 1
    outer loop
      vertex 17.2346 3.84776 3
      vertex 17.2346 0.152241 3
      vertex 17.6098 0.0384293 3
    endloop
  endfacet
  facet normal -0 0 1
    outer loop
      vertex 16.8889 3.66294 3
      vertex 17.2346 0.152241 3
      vertex 17.2346 3.84776 3
    endloop
  endfacet
  facet normal 0 0 1
    outer loop
      vertex 16.8889 3.66294 3
      vertex 16.8889 0.33706 3
      vertex 17.2346 0.152241 3
    endloop
  endfacet
  facet normal -0 0 1
    outer loop
      vertex 16.5858 3.41421 3
      vertex 16.8889 0.33706 3
      vertex 16.8889 3.66294 3
    endloop
  endfacet
  facet normal 0 0 1
    outer loop
      vertex 16.5858 3.41421 3
      vertex 16.5858 0.585786 3
      vertex 16.8889 0.33706 3
    endloop
  endfacet
  facet normal -0 0 1
    outer loop
      vertex 16.3371 3.11114 3
      vertex 16.5858 0.585786 3
      vertex 16.5858 3.41421 3
    endloop
  endfacet
  facet normal 0 0 1
    outer loop
      vertex 16.3371 3.11114 3
      vertex 16.3371 0.888859 3
      vertex 16.5858 0.585786 3
    endloop
  endfacet
  facet normal -0 0 1
    outer loop
      vertex 16.1522 2.76537 3
      vertex 16.3371 0.888859 3
      vertex 16.3371 3.11114 3
    endloop
  endfacet
  facet normal 0 0 1
    outer loop
      vertex 16.1522 2.76537 3
      vertex 16.1522 1.23463 3
      vertex 16.3371 0.888859 3
    endloop
  endfacet
  facet normal -0 0 1
    outer loop
      vertex 16.0384 2.39018 3
      vertex 16.1522 1.23463 3
      vertex 16.1522 2.76537 3
    endloop
  endfacet
  facet normal 0 0 1
    outer loop
      vertex 16.0384 2.39018 3
      vertex 16.0384 1.60982 3
      vertex 16.1522 1.23463 3
    endloop
  endfacet
  facet normal 0 -0 1
    outer loop
      vertex 16.0384 1.60982 3
      vertex 16.0384 2.39018 3
      vertex 16 2 3
    endloop
  endfacet
  facet normal 0.881835 0.471558 0
    outer loop
      vertex 16.3371 0.888859 5
      vertex 16.1522 1.23463 3
      vertex 16.1522 1.23463 5
    endloop
  endfacet
  facet normal 0.881835 0.471558 0
    outer loop
      vertex 16.1522 1.23463 3
      vertex 16.3371 0.888859 5
      vertex 16.3371 0.888859 3
    endloop
  endfacet
  facet normal -0.290271 -0.956944 0
    outer loop
      vertex 18.3902 3.96157 3
      vertex 18.7654 3.84776 5
      vertex 18.3902 3.96157 5
    endloop
  endfacet
  facet normal -0.290271 -0.956944 -0
    outer loop
      vertex 18.7654 3.84776 5
      vertex 18.3902 3.96157 3
      vertex 18.7654 3.84776 3
    endloop
  endfacet
  facet normal 0.0980137 -0.995185 0
    outer loop
      vertex 17.6098 3.96157 3
      vertex 18 4 5
      vertex 17.6098 3.96157 5
    endloop
  endfacet
  facet normal 0.0980137 -0.995185 0
    outer loop
      vertex 18 4 5
      vertex 17.6098 3.96157 3
      vertex 18 4 3
    endloop
  endfacet
  facet normal 0.471473 0.88188 -0
    outer loop
      vertex 17.2346 0.152241 3
      vertex 16.8889 0.33706 5
      vertex 17.2346 0.152241 5
    endloop
  endfacet
  facet normal 0.471473 0.88188 0
    outer loop
      vertex 16.8889 0.33706 5
      vertex 17.2346 0.152241 3
      vertex 16.8889 0.33706 3
    endloop
  endfacet
  facet normal 0.471475 -0.881879 0
    outer loop
      vertex 16.8889 3.66294 3
      vertex 17.2346 3.84776 5
      vertex 16.8889 3.66294 5
    endloop
  endfacet
  facet normal 0.471475 -0.881879 0
    outer loop
      vertex 17.2346 3.84776 5
      vertex 16.8889 3.66294 3
      vertex 17.2346 3.84776 3
    endloop
  endfacet
  facet normal -0.471473 0.88188 0
    outer loop
      vertex 19.1111 0.33706 3
      vertex 18.7654 0.152241 5
      vertex 19.1111 0.33706 5
    endloop
  endfacet
  facet normal -0.471473 0.88188 0
    outer loop
      vertex 18.7654 0.152241 5
      vertex 19.1111 0.33706 3
      vertex 18.7654 0.152241 3
    endloop
  endfacet
  facet normal 0.773039 -0.634358 0
    outer loop
      vertex 16.3371 3.11114 5
      vertex 16.5858 3.41421 3
      vertex 16.5858 3.41421 5
    endloop
  endfacet
  facet normal 0.773039 -0.634358 0
    outer loop
      vertex 16.5858 3.41421 3
      vertex 16.3371 3.11114 5
      vertex 16.3371 3.11114 3
    endloop
  endfacet
  facet normal -0.773039 -0.634358 0
    outer loop
      vertex 19.6629 3.11114 3
      vertex 19.4142 3.41421 5
      vertex 19.4142 3.41421 3
    endloop
  endfacet
  facet normal -0.773039 -0.634358 0
    outer loop
      vertex 19.4142 3.41421 5
      vertex 19.6629 3.11114 3
      vertex 19.6629 3.11114 5
    endloop
  endfacet
  facet normal -0.773042 0.634354 0
    outer loop
      vertex 19.4142 0.585786 3
      vertex 19.6629 0.888859 5
      vertex 19.6629 0.888859 3
    endloop
  endfacet
  facet normal -0.773042 0.634354 0
    outer loop
      vertex 19.6629 0.888859 5
      vertex 19.4142 0.585786 3
      vertex 19.4142 0.585786 5
    endloop
  endfacet
  facet normal 0.290271 -0.956944 0
    outer loop
      vertex 17.2346 3.84776 3
      vertex 17.6098 3.96157 5
      vertex 17.2346 3.84776 5
    endloop
  endfacet
  facet normal 0.290271 -0.956944 0
    outer loop
      vertex 17.6098 3.96157 5
      vertex 17.2346 3.84776 3
      vertex 17.6098 3.96157 3
    endloop
  endfacet
  facet normal -0.63436 0.773038 0
    outer loop
      vertex 19.4142 0.585786 3
      vertex 19.1111 0.33706 5
      vertex 19.4142 0.585786 5
    endloop
  endfacet
  facet normal -0.63436 0.773038 0
    outer loop
      vertex 19.1111 0.33706 5
      vertex 19.4142 0.585786 3
      vertex 19.1111 0.33706 3
    endloop
  endfacet
  facet normal -0.995192 0.0979429 0
    outer loop
      vertex 19.9616 1.60982 3
      vertex 20 2 5
      vertex 20 2 3
    endloop
  endfacet
  facet normal -0.995192 0.0979429 0
    outer loop
      vertex 20 2 5
      vertex 19.9616 1.60982 3
      vertex 19.9616 1.60982 5
    endloop
  endfacet
  facet normal 0.290275 0.956943 -0
    outer loop
      vertex 17.6098 0.0384293 3
      vertex 17.2346 0.152241 5
      vertex 17.6098 0.0384293 5
    endloop
  endfacet
  facet normal 0.290275 0.956943 0
    outer loop
      vertex 17.2346 0.152241 5
      vertex 17.6098 0.0384293 3
      vertex 17.2346 0.152241 3
    endloop
  endfacet
  facet normal -0.956949 0.290255 0
    outer loop
      vertex 19.8478 1.23463 3
      vertex 19.9616 1.60982 5
      vertex 19.9616 1.60982 3
    endloop
  endfacet
  facet normal -0.956949 0.290255 0
    outer loop
      vertex 19.9616 1.60982 5
      vertex 19.8478 1.23463 3
      vertex 19.8478 1.23463 5
    endloop
  endfacet
  facet normal 0.956949 0.290255 0
    outer loop
      vertex 16.1522 1.23463 5
      vertex 16.0384 1.60982 3
      vertex 16.0384 1.60982 5
    endloop
  endfacet
  facet normal 0.956949 0.290255 0
    outer loop
      vertex 16.0384 1.60982 3
      vertex 16.1522 1.23463 5
      vertex 16.1522 1.23463 3
    endloop
  endfacet
  facet normal -0.881835 0.471558 0
    outer loop
      vertex 19.6629 0.888859 3
      vertex 19.8478 1.23463 5
      vertex 19.8478 1.23463 3
    endloop
  endfacet
  facet normal -0.881835 0.471558 0
    outer loop
      vertex 19.8478 1.23463 5
      vertex 19.6629 0.888859 3
      vertex 19.6629 0.888859 5
    endloop
  endfacet
  facet normal 0.995192 -0.0979429 0
    outer loop
      vertex 16 2 5
      vertex 16.0384 2.39018 3
      vertex 16.0384 2.39018 5
    endloop
  endfacet
  facet normal 0.995192 -0.0979429 0
    outer loop
      vertex 16.0384 2.39018 3
      vertex 16 2 5
      vertex 16 2 3
    endloop
  endfacet
  facet normal -0.0980137 -0.995185 0
    outer loop
      vertex 18 4 3
      vertex 18.3902 3.96157 5
      vertex 18 4 5
    endloop
  endfacet
  facet normal -0.0980137 -0.995185 -0
    outer loop
      vertex 18.3902 3.96157 5
      vertex 18 4 3
      vertex 18.3902 3.96157 3
    endloop
  endfacet
  facet normal 0.634366 -0.773033 0
    outer loop
      vertex 16.5858 3.41421 3
      vertex 16.8889 3.66294 5
      vertex 16.5858 3.41421 5
    endloop
  endfacet
  facet normal 0.634366 -0.773033 0
    outer loop
      vertex 16.8889 3.66294 5
      vertex 16.5858 3.41421 3
      vertex 16.8889 3.66294 3
    endloop
  endfacet
  facet normal -0.634366 -0.773033 0
    outer loop
      vertex 19.1111 3.66294 3
      vertex 19.4142 3.41421 5
      vertex 19.1111 3.66294 5
    endloop
  endfacet
  facet normal -0.634366 -0.773033 -0
    outer loop
      vertex 19.4142 3.41421 5
      vertex 19.1111 3.66294 3
      vertex 19.4142 3.41421 3
    endloop
  endfacet
  facet normal -0.098012 0.995185 0
    outer loop
      vertex 18.3902 0.0384293 3
      vertex 18 0 5
      vertex 18.3902 0.0384293 5
    endloop
  endfacet
  facet normal -0.098012 0.995185 0
    outer loop
      vertex 18 0 5
      vertex 18.3902 0.0384293 3
      vertex 18 0 3
    endloop
  endfacet
  facet normal -0.471475 -0.881879 0
    outer loop
      vertex 18.7654 3.84776 3
      vertex 19.1111 3.66294 5
      vertex 18.7654 3.84776 5
    endloop
  endfacet
  facet normal -0.471475 -0.881879 -0
    outer loop
      vertex 19.1111 3.66294 5
      vertex 18.7654 3.84776 3
      vertex 19.1111 3.66294 3
    endloop
  endfacet
  facet normal 0.773042 0.634354 0
    outer loop
      vertex 16.5858 0.585786 5
      vertex 16.3371 0.888859 3
      vertex 16.3371 0.888859 5
    endloop
  endfacet
  facet normal 0.773042 0.634354 0
    outer loop
      vertex 16.3371 0.888859 3
      vertex 16.5858 0.585786 5
      vertex 16.5858 0.585786 3
    endloop
  endfacet
  facet normal 0.098012 0.995185 -0
    outer loop
      vertex 18 0 3
      vertex 17.6098 0.0384293 5
      vertex 18 0 5
    endloop
  endfacet
  facet normal 0.098012 0.995185 0
    outer loop
      vertex 17.6098 0.0384293 5
      vertex 18 0 3
      vertex 17.6098 0.0384293 3
    endloop
  endfacet
  facet normal 0.63436 0.773038 -0
    outer loop
      vertex 16.8889 0.33706 3
      vertex 16.5858 0.585786 5
      vertex 16.8889 0.33706 5
    endloop
  endfacet
  facet normal 0.63436 0.773038 0
    outer loop
      vertex 16.5858 0.585786 5
      vertex 16.8889 0.33706 3
      vertex 16.5858 0.585786 3
    endloop
  endfacet
  facet normal 0.956949 -0.290255 0
    outer loop
      vertex 16.0384 2.39018 5
      vertex 16.1522 2.76537 3
      vertex 16.1522 2.76537 5
    endloop
  endfacet
  facet normal 0.956949 -0.290255 0
    outer loop
      vertex 16.1522 2.76537 3
      vertex 16.0384 2.39018 5
      vertex 16.0384 2.39018 3
    endloop
  endfacet
  facet normal 0.881834 -0.47156 0
    outer loop
      vertex 16.1522 2.76537 5
      vertex 16.3371 3.11114 3
      vertex 16.3371 3.11114 5
    endloop
  endfacet
  facet normal 0.881834 -0.47156 0
    outer loop
      vertex 16.3371 3.11114 3
      vertex 16.1522 2.76537 5
      vertex 16.1522 2.76537 3
    endloop
  endfacet
  facet normal 0.995192 0.0979429 0
    outer loop
      vertex 16.0384 1.60982 5
      vertex 16 2 3
      vertex 16 2 5
    endloop
  endfacet
  facet normal 0.995192 0.0979429 0
    outer loop
      vertex 16 2 3
      vertex 16.0384 1.60982 5
      vertex 16.0384 1.60982 3
    endloop
  endfacet
  facet normal -0.290279 0.956942 0
    outer loop
      vertex 2.76537 6.15224 3
      vertex 2.39018 6.03843 5
      vertex 2.76537 6.15224 5
    endloop
  endfacet
  facet normal -0.290279 0.956942 0
    outer loop
      vertex 2.39018 6.03843 5
      vertex 2.76537 6.15224 3
      vertex 2.39018 6.03843 3
    endloop
  endfacet
  facet normal -0.956942 -0.290279 0
    outer loop
      vertex 3.96157 8.39018 3
      vertex 3.84776 8.76537 5
      vertex 3.84776 8.76537 3
    endloop
  endfacet
  facet normal -0.956942 -0.290279 0
    outer loop
      vertex 3.84776 8.76537 5
      vertex 3.96157 8.39018 3
      vertex 3.96157 8.39018 5
    endloop
  endfacet
  facet normal -0.995185 -0.0980187 0
    outer loop
      vertex 4 8 3
      vertex 3.96157 8.39018 5
      vertex 3.96157 8.39018 3
    endloop
  endfacet
  facet normal -0.995185 -0.0980187 0
    outer loop
      vertex 3.96157 8.39018 5
      vertex 4 8 3
      vertex 4 8 5
    endloop
  endfacet
  facet normal -0.881919 -0.471401 0
    outer loop
      vertex 3.84776 8.76537 3
      vertex 3.66294 9.11114 5
      vertex 3.66294 9.11114 3
    endloop
  endfacet
  facet normal -0.881919 -0.471401 0
    outer loop
      vertex 3.66294 9.11114 5
      vertex 3.84776 8.76537 3
      vertex 3.84776 8.76537 5
    endloop
  endfacet
  facet normal 0 0 1
    outer loop
      vertex 3.96157 8.39018 3
      vertex 3.96157 7.60982 3
      vertex 4 8 3
    endloop
  endfacet
  facet normal 0 0 1
    outer loop
      vertex 3.84776 8.76537 3
      vertex 3.96157 7.60982 3
      vertex 3.96157 8.39018 3
    endloop
  endfacet
  facet normal 0 0 1
    outer loop
      vertex 3.84776 8.76537 3
      vertex 3.84776 7.23463 3
      vertex 3.96157 7.60982 3
    endloop
  endfacet
  facet normal 0 0 1
    outer loop
      vertex 3.66294 9.11114 3
      vertex 3.84776 7.23463 3
      vertex 3.84776 8.76537 3
    endloop
  endfacet
  facet normal 0 0 1
    outer loop
      vertex 3.66294 9.11114 3
      vertex 3.66294 6.88886 3
      vertex 3.84776 7.23463 3
    endloop
  endfacet
  facet normal 0 0 1
    outer loop
      vertex 3.41421 9.41421 3
      vertex 3.66294 6.88886 3
      vertex 3.66294 9.11114 3
    endloop
  endfacet
  facet normal 0 0 1
    outer loop
      vertex 3.41421 9.41421 3
      vertex 3.41421 6.58579 3
      vertex 3.66294 6.88886 3
    endloop
  endfacet
  facet normal 0 0 1
    outer loop
      vertex 3.11114 9.66294 3
      vertex 3.41421 6.58579 3
      vertex 3.41421 9.41421 3
    endloop
  endfacet
  facet normal 0 0 1
    outer loop
      vertex 3.11114 9.66294 3
      vertex 3.11114 6.33706 3
      vertex 3.41421 6.58579 3
    endloop
  endfacet
  facet normal 0 0 1
    outer loop
      vertex 2.76537 9.84776 3
      vertex 3.11114 6.33706 3
      vertex 3.11114 9.66294 3
    endloop
  endfacet
  facet normal 0 0 1
    outer loop
      vertex 2.76537 9.84776 3
      vertex 2.76537 6.15224 3
      vertex 3.11114 6.33706 3
    endloop
  endfacet
  facet normal 0 0 1
    outer loop
      vertex 2.39018 9.96157 3
      vertex 2.76537 6.15224 3
      vertex 2.76537 9.84776 3
    endloop
  endfacet
  facet normal 0 0 1
    outer loop
      vertex 2.39018 9.96157 3
      vertex 2.39018 6.03843 3
      vertex 2.76537 6.15224 3
    endloop
  endfacet
  facet normal 0 0 1
    outer loop
      vertex 2 10 3
      vertex 2.39018 6.03843 3
      vertex 2.39018 9.96157 3
    endloop
  endfacet
  facet normal 0 0 1
    outer loop
      vertex 2 10 3
      vertex 2 6 3
      vertex 2.39018 6.03843 3
    endloop
  endfacet
  facet normal -0 0 1
    outer loop
      vertex 1.60982 9.96157 3
      vertex 2 6 3
      vertex 2 10 3
    endloop
  endfacet
  facet normal 0 0 1
    outer loop
      vertex 1.60982 9.96157 3
      vertex 1.60982 6.03843 3
      vertex 2 6 3
    endloop
  endfacet
  facet normal -0 0 1
    outer loop
      vertex 1.23463 9.84776 3
      vertex 1.60982 6.03843 3
      vertex 1.60982 9.96157 3
    endloop
  endfacet
  facet normal 0 0 1
    outer loop
      vertex 1.23463 9.84776 3
      vertex 1.23463 6.15224 3
      vertex 1.60982 6.03843 3
    endloop
  endfacet
  facet normal -0 0 1
    outer loop
      vertex 0.888859 9.66294 3
      vertex 1.23463 6.15224 3
      vertex 1.23463 9.84776 3
    endloop
  endfacet
  facet normal 0 0 1
    outer loop
      vertex 0.888859 9.66294 3
      vertex 0.888859 6.33706 3
      vertex 1.23463 6.15224 3
    endloop
  endfacet
  facet normal -0 0 1
    outer loop
      vertex 0.585786 9.41421 3
      vertex 0.888859 6.33706 3
      vertex 0.888859 9.66294 3
    endloop
  endfacet
  facet normal 0 0 1
    outer loop
      vertex 0.585786 9.41421 3
      vertex 0.585786 6.58579 3
      vertex 0.888859 6.33706 3
    endloop
  endfacet
  facet normal -0 0 1
    outer loop
      vertex 0.33706 9.11114 3
      vertex 0.585786 6.58579 3
      vertex 0.585786 9.41421 3
    endloop
  endfacet
  facet normal 0 0 1
    outer loop
      vertex 0.33706 9.11114 3
      vertex 0.33706 6.88886 3
      vertex 0.585786 6.58579 3
    endloop
  endfacet
  facet normal -0 0 1
    outer loop
      vertex 0.152241 8.76537 3
      vertex 0.33706 6.88886 3
      vertex 0.33706 9.11114 3
    endloop
  endfacet
  facet normal 0 0 1
    outer loop
      vertex 0.152241 8.76537 3
      vertex 0.152241 7.23463 3
      vertex 0.33706 6.88886 3
    endloop
  endfacet
  facet normal -0 0 1
    outer loop
      vertex 0.0384293 8.39018 3
      vertex 0.152241 7.23463 3
      vertex 0.152241 8.76537 3
    endloop
  endfacet
  facet normal 0 0 1
    outer loop
      vertex 0.0384293 8.39018 3
      vertex 0.0384293 7.60982 3
      vertex 0.152241 7.23463 3
    endloop
  endfacet
  facet normal 0 -0 1
    outer loop
      vertex 0.0384293 7.60982 3
      vertex 0.0384293 8.39018 3
      vertex 0 8 3
    endloop
  endfacet
  facet normal 0.88192 0.471399 0
    outer loop
      vertex 0.33706 6.88886 5
      vertex 0.152241 7.23463 3
      vertex 0.152241 7.23463 5
    endloop
  endfacet
  facet normal 0.88192 0.471399 0
    outer loop
      vertex 0.152241 7.23463 3
      vertex 0.33706 6.88886 5
      vertex 0.33706 6.88886 3
    endloop
  endfacet
  facet normal -0.290279 -0.956942 0
    outer loop
      vertex 2.39018 9.96157 3
      vertex 2.76537 9.84776 5
      vertex 2.39018 9.96157 5
    endloop
  endfacet
  facet normal -0.290279 -0.956942 -0
    outer loop
      vertex 2.76537 9.84776 5
      vertex 2.39018 9.96157 3
      vertex 2.76537 9.84776 3
    endloop
  endfacet
  facet normal 0.0980187 -0.995185 0
    outer loop
      vertex 1.60982 9.96157 3
      vertex 2 10 5
      vertex 1.60982 9.96157 5
    endloop
  endfacet
  facet normal 0.0980187 -0.995185 0
    outer loop
      vertex 2 10 5
      vertex 1.60982 9.96157 3
      vertex 2 10 3
    endloop
  endfacet
  facet normal 0.4714 0.88192 -0
    outer loop
      vertex 1.23463 6.15224 3
      vertex 0.888859 6.33706 5
      vertex 1.23463 6.15224 5
    endloop
  endfacet
  facet normal 0.4714 0.88192 0
    outer loop
      vertex 0.888859 6.33706 5
      vertex 1.23463 6.15224 3
      vertex 0.888859 6.33706 3
    endloop
  endfacet
  facet normal 0.4714 -0.88192 0
    outer loop
      vertex 0.888859 9.66294 3
      vertex 1.23463 9.84776 5
      vertex 0.888859 9.66294 5
    endloop
  endfacet
  facet normal 0.4714 -0.88192 0
    outer loop
      vertex 1.23463 9.84776 5
      vertex 0.888859 9.66294 3
      vertex 1.23463 9.84776 3
    endloop
  endfacet
  facet normal -0.471401 0.881919 0
    outer loop
      vertex 3.11114 6.33706 3
      vertex 2.76537 6.15224 5
      vertex 3.11114 6.33706 5
    endloop
  endfacet
  facet normal -0.471401 0.881919 0
    outer loop
      vertex 2.76537 6.15224 5
      vertex 3.11114 6.33706 3
      vertex 2.76537 6.15224 3
    endloop
  endfacet
  facet normal 0.773007 -0.634398 0
    outer loop
      vertex 0.33706 9.11114 5
      vertex 0.585786 9.41421 3
      vertex 0.585786 9.41421 5
    endloop
  endfacet
  facet normal 0.773007 -0.634398 0
    outer loop
      vertex 0.585786 9.41421 3
      vertex 0.33706 9.11114 5
      vertex 0.33706 9.11114 3
    endloop
  endfacet
  facet normal -0.773002 -0.634404 0
    outer loop
      vertex 3.66294 9.11114 3
      vertex 3.41421 9.41421 5
      vertex 3.41421 9.41421 3
    endloop
  endfacet
  facet normal -0.773002 -0.634404 0
    outer loop
      vertex 3.41421 9.41421 5
      vertex 3.66294 9.11114 3
      vertex 3.66294 9.11114 5
    endloop
  endfacet
  facet normal -0.773002 0.634404 0
    outer loop
      vertex 3.41421 6.58579 3
      vertex 3.66294 6.88886 5
      vertex 3.66294 6.88886 3
    endloop
  endfacet
  facet normal -0.773002 0.634404 0
    outer loop
      vertex 3.66294 6.88886 5
      vertex 3.41421 6.58579 3
      vertex 3.41421 6.58579 5
    endloop
  endfacet
  facet normal 0.290279 -0.956942 0
    outer loop
      vertex 1.23463 9.84776 3
      vertex 1.60982 9.96157 5
      vertex 1.23463 9.84776 5
    endloop
  endfacet
  facet normal 0.290279 -0.956942 0
    outer loop
      vertex 1.60982 9.96157 5
      vertex 1.23463 9.84776 3
      vertex 1.60982 9.96157 3
    endloop
  endfacet
  facet normal -0.634404 0.773002 0
    outer loop
      vertex 3.41421 6.58579 3
      vertex 3.11114 6.33706 5
      vertex 3.41421 6.58579 5
    endloop
  endfacet
  facet normal -0.634404 0.773002 0
    outer loop
      vertex 3.11114 6.33706 5
      vertex 3.41421 6.58579 3
      vertex 3.11114 6.33706 3
    endloop
  endfacet
  facet normal -0.995185 0.0980187 0
    outer loop
      vertex 3.96157 7.60982 3
      vertex 4 8 5
      vertex 4 8 3
    endloop
  endfacet
  facet normal -0.995185 0.0980187 0
    outer loop
      vertex 4 8 5
      vertex 3.96157 7.60982 3
      vertex 3.96157 7.60982 5
    endloop
  endfacet
  facet normal 0.290279 0.956942 -0
    outer loop
      vertex 1.60982 6.03843 3
      vertex 1.23463 6.15224 5
      vertex 1.60982 6.03843 5
    endloop
  endfacet
  facet normal 0.290279 0.956942 0
    outer loop
      vertex 1.23463 6.15224 5
      vertex 1.60982 6.03843 3
      vertex 1.23463 6.15224 3
    endloop
  endfacet
  facet normal -0.956942 0.290279 0
    outer loop
      vertex 3.84776 7.23463 3
      vertex 3.96157 7.60982 5
      vertex 3.96157 7.60982 3
    endloop
  endfacet
  facet normal -0.956942 0.290279 0
    outer loop
      vertex 3.96157 7.60982 5
      vertex 3.84776 7.23463 3
      vertex 3.84776 7.23463 5
    endloop
  endfacet
  facet normal 0.956941 0.290282 0
    outer loop
      vertex 0.152241 7.23463 5
      vertex 0.0384293 7.60982 3
      vertex 0.0384293 7.60982 5
    endloop
  endfacet
  facet normal 0.956941 0.290282 0
    outer loop
      vertex 0.0384293 7.60982 3
      vertex 0.152241 7.23463 5
      vertex 0.152241 7.23463 3
    endloop
  endfacet
  facet normal -0.881919 0.471401 0
    outer loop
      vertex 3.66294 6.88886 3
      vertex 3.84776 7.23463 5
      vertex 3.84776 7.23463 3
    endloop
  endfacet
  facet normal -0.881919 0.471401 0
    outer loop
      vertex 3.84776 7.23463 5
      vertex 3.66294 6.88886 3
      vertex 3.66294 6.88886 5
    endloop
  endfacet
  facet normal 0.995185 -0.0980169 0
    outer loop
      vertex 0 8 5
      vertex 0.0384293 8.39018 3
      vertex 0.0384293 8.39018 5
    endloop
  endfacet
  facet normal 0.995185 -0.0980169 0
    outer loop
      vertex 0.0384293 8.39018 3
      vertex 0 8 5
      vertex 0 8 3
    endloop
  endfacet
  facet normal -0.0980187 -0.995185 0
    outer loop
      vertex 2 10 3
      vertex 2.39018 9.96157 5
      vertex 2 10 5
    endloop
  endfacet
  facet normal -0.0980187 -0.995185 -0
    outer loop
      vertex 2.39018 9.96157 5
      vertex 2 10 3
      vertex 2.39018 9.96157 3
    endloop
  endfacet
  facet normal 0.6344 -0.773005 0
    outer loop
      vertex 0.585786 9.41421 3
      vertex 0.888859 9.66294 5
      vertex 0.585786 9.41421 5
    endloop
  endfacet
  facet normal 0.6344 -0.773005 0
    outer loop
      vertex 0.888859 9.66294 5
      vertex 0.585786 9.41421 3
      vertex 0.888859 9.66294 3
    endloop
  endfacet
  facet normal -0.634404 -0.773002 0
    outer loop
      vertex 3.11114 9.66294 3
      vertex 3.41421 9.41421 5
      vertex 3.11114 9.66294 5
    endloop
  endfacet
  facet normal -0.634404 -0.773002 -0
    outer loop
      vertex 3.41421 9.41421 5
      vertex 3.11114 9.66294 3
      vertex 3.41421 9.41421 3
    endloop
  endfacet
  facet normal -0.0980187 0.995185 0
    outer loop
      vertex 2.39018 6.03843 3
      vertex 2 6 5
      vertex 2.39018 6.03843 5
    endloop
  endfacet
  facet normal -0.0980187 0.995185 0
    outer loop
      vertex 2 6 5
      vertex 2.39018 6.03843 3
      vertex 2 6 3
    endloop
  endfacet
  facet normal -0.471401 -0.881919 0
    outer loop
      vertex 2.76537 9.84776 3
      vertex 3.11114 9.66294 5
      vertex 2.76537 9.84776 5
    endloop
  endfacet
  facet normal -0.471401 -0.881919 -0
    outer loop
      vertex 3.11114 9.66294 5
      vertex 2.76537 9.84776 3
      vertex 3.11114 9.66294 3
    endloop
  endfacet
  facet normal 0.773007 0.634398 0
    outer loop
      vertex 0.585786 6.58579 5
      vertex 0.33706 6.88886 3
      vertex 0.33706 6.88886 5
    endloop
  endfacet
  facet normal 0.773007 0.634398 0
    outer loop
      vertex 0.33706 6.88886 3
      vertex 0.585786 6.58579 5
      vertex 0.585786 6.58579 3
    endloop
  endfacet
  facet normal 0.0980187 0.995185 -0
    outer loop
      vertex 2 6 3
      vertex 1.60982 6.03843 5
      vertex 2 6 5
    endloop
  endfacet
  facet normal 0.0980187 0.995185 0
    outer loop
      vertex 1.60982 6.03843 5
      vertex 2 6 3
      vertex 1.60982 6.03843 3
    endloop
  endfacet
  facet normal 0.6344 0.773005 -0
    outer loop
      vertex 0.888859 6.33706 3
      vertex 0.585786 6.58579 5
      vertex 0.888859 6.33706 5
    endloop
  endfacet
  facet normal 0.6344 0.773005 0
    outer loop
      vertex 0.585786 6.58579 5
      vertex 0.888859 6.33706 3
      vertex 0.585786 6.58579 3
    endloop
  endfacet
  facet normal 0.956941 -0.290282 0
    outer loop
      vertex 0.0384293 8.39018 5
      vertex 0.152241 8.76537 3
      vertex 0.152241 8.76537 5
    endloop
  endfacet
  facet normal 0.956941 -0.290282 0
    outer loop
      vertex 0.152241 8.76537 3
      vertex 0.0384293 8.39018 5
      vertex 0.0384293 8.39018 3
    endloop
  endfacet
  facet normal 0.88192 -0.471399 0
    outer loop
      vertex 0.152241 8.76537 5
      vertex 0.33706 9.11114 3
      vertex 0.33706 9.11114 5
    endloop
  endfacet
  facet normal 0.88192 -0.471399 0
    outer loop
      vertex 0.33706 9.11114 3
      vertex 0.152241 8.76537 5
      vertex 0.152241 8.76537 3
    endloop
  endfacet
  facet normal 0.995185 0.0980169 0
    outer loop
      vertex 0.0384293 7.60982 5
      vertex 0 8 3
      vertex 0 8 5
    endloop
  endfacet
  facet normal 0.995185 0.0980169 0
    outer loop
      vertex 0 8 3
      vertex 0.0384293 7.60982 5
      vertex 0.0384293 7.60982 3
    endloop
  endfacet
  facet normal -0.290271 0.956944 0
    outer loop
      vertex 18.7654 6.15224 3
      vertex 18.3902 6.03843 5
      vertex 18.7654 6.15224 5
    endloop
  endfacet
  facet normal -0.290271 0.956944 0
    outer loop
      vertex 18.3902 6.03843 5
      vertex 18.7654 6.15224 3
      vertex 18.3902 6.03843 3
    endloop
  endfacet
  facet normal -0.956949 -0.290255 0
    outer loop
      vertex 19.9616 8.39018 3
      vertex 19.8478 8.76537 5
      vertex 19.8478 8.76537 3
    endloop
  endfacet
  facet normal -0.956949 -0.290255 0
    outer loop
      vertex 19.8478 8.76537 5
      vertex 19.9616 8.39018 3
      vertex 19.9616 8.39018 5
    endloop
  endfacet
  facet normal -0.995192 -0.0979429 0
    outer loop
      vertex 20 8 3
      vertex 19.9616 8.39018 5
      vertex 19.9616 8.39018 3
    endloop
  endfacet
  facet normal -0.995192 -0.0979429 0
    outer loop
      vertex 19.9616 8.39018 5
      vertex 20 8 3
      vertex 20 8 5
    endloop
  endfacet
  facet normal -0.881834 -0.47156 0
    outer loop
      vertex 19.8478 8.76537 3
      vertex 19.6629 9.11114 5
      vertex 19.6629 9.11114 3
    endloop
  endfacet
  facet normal -0.881834 -0.47156 0
    outer loop
      vertex 19.6629 9.11114 5
      vertex 19.8478 8.76537 3
      vertex 19.8478 8.76537 5
    endloop
  endfacet
  facet normal 0 0 1
    outer loop
      vertex 19.9616 8.39018 3
      vertex 19.9616 7.60982 3
      vertex 20 8 3
    endloop
  endfacet
  facet normal 0 0 1
    outer loop
      vertex 19.8478 8.76537 3
      vertex 19.9616 7.60982 3
      vertex 19.9616 8.39018 3
    endloop
  endfacet
  facet normal 0 0 1
    outer loop
      vertex 19.8478 8.76537 3
      vertex 19.8478 7.23463 3
      vertex 19.9616 7.60982 3
    endloop
  endfacet
  facet normal 0 0 1
    outer loop
      vertex 19.6629 9.11114 3
      vertex 19.8478 7.23463 3
      vertex 19.8478 8.76537 3
    endloop
  endfacet
  facet normal 0 0 1
    outer loop
      vertex 19.6629 9.11114 3
      vertex 19.6629 6.88886 3
      vertex 19.8478 7.23463 3
    endloop
  endfacet
  facet normal 0 0 1
    outer loop
      vertex 19.4142 9.41421 3
      vertex 19.6629 6.88886 3
      vertex 19.6629 9.11114 3
    endloop
  endfacet
  facet normal 0 0 1
    outer loop
      vertex 19.4142 9.41421 3
      vertex 19.4142 6.58579 3
      vertex 19.6629 6.88886 3
    endloop
  endfacet
  facet normal 0 0 1
    outer loop
      vertex 19.1111 9.66294 3
      vertex 19.4142 6.58579 3
      vertex 19.4142 9.41421 3
    endloop
  endfacet
  facet normal 0 0 1
    outer loop
      vertex 19.1111 9.66294 3
      vertex 19.1111 6.33706 3
      vertex 19.4142 6.58579 3
    endloop
  endfacet
  facet normal 0 0 1
    outer loop
      vertex 18.7654 9.84776 3
      vertex 19.1111 6.33706 3
      vertex 19.1111 9.66294 3
    endloop
  endfacet
  facet normal 0 0 1
    outer loop
      vertex 18.7654 9.84776 3
      vertex 18.7654 6.15224 3
      vertex 19.1111 6.33706 3
    endloop
  endfacet
  facet normal 0 0 1
    outer loop
      vertex 18.3902 9.96157 3
      vertex 18.7654 6.15224 3
      vertex 18.7654 9.84776 3
    endloop
  endfacet
  facet normal 0 0 1
    outer loop
      vertex 18.3902 9.96157 3
      vertex 18.3902 6.03843 3
      vertex 18.7654 6.15224 3
    endloop
  endfacet
  facet normal 0 0 1
    outer loop
      vertex 18 10 3
      vertex 18.3902 6.03843 3
      vertex 18.3902 9.96157 3
    endloop
  endfacet
  facet normal 0 0 1
    outer loop
      vertex 18 10 3
      vertex 18 6 3
      vertex 18.3902 6.03843 3
    endloop
  endfacet
  facet normal -0 0 1
    outer loop
      vertex 17.6098 9.96157 3
      vertex 18 6 3
      vertex 18 10 3
    endloop
  endfacet
  facet normal 0 0 1
    outer loop
      vertex 17.6098 9.96157 3
      vertex 17.6098 6.03843 3
      vertex 18 6 3
    endloop
  endfacet
  facet normal -0 0 1
    outer loop
      vertex 17.2346 9.84776 3
      vertex 17.6098 6.03843 3
      vertex 17.6098 9.96157 3
    endloop
  endfacet
  facet normal 0 0 1
    outer loop
      vertex 17.2346 9.84776 3
      vertex 17.2346 6.15224 3
      vertex 17.6098 6.03843 3
    endloop
  endfacet
  facet normal -0 0 1
    outer loop
      vertex 16.8889 9.66294 3
      vertex 17.2346 6.15224 3
      vertex 17.2346 9.84776 3
    endloop
  endfacet
  facet normal 0 0 1
    outer loop
      vertex 16.8889 9.66294 3
      vertex 16.8889 6.33706 3
      vertex 17.2346 6.15224 3
    endloop
  endfacet
  facet normal -0 0 1
    outer loop
      vertex 16.5858 9.41421 3
      vertex 16.8889 6.33706 3
      vertex 16.8889 9.66294 3
    endloop
  endfacet
  facet normal 0 0 1
    outer loop
      vertex 16.5858 9.41421 3
      vertex 16.5858 6.58579 3
      vertex 16.8889 6.33706 3
    endloop
  endfacet
  facet normal -0 0 1
    outer loop
      vertex 16.3371 9.11114 3
      vertex 16.5858 6.58579 3
      vertex 16.5858 9.41421 3
    endloop
  endfacet
  facet normal 0 0 1
    outer loop
      vertex 16.3371 9.11114 3
      vertex 16.3371 6.88886 3
      vertex 16.5858 6.58579 3
    endloop
  endfacet
  facet normal -0 0 1
    outer loop
      vertex 16.1522 8.76537 3
      vertex 16.3371 6.88886 3
      vertex 16.3371 9.11114 3
    endloop
  endfacet
  facet normal 0 0 1
    outer loop
      vertex 16.1522 8.76537 3
      vertex 16.1522 7.23463 3
      vertex 16.3371 6.88886 3
    endloop
  endfacet
  facet normal -0 0 1
    outer loop
      vertex 16.0384 8.39018 3
      vertex 16.1522 7.23463 3
      vertex 16.1522 8.76537 3
    endloop
  endfacet
  facet normal 0 0 1
    outer loop
      vertex 16.0384 8.39018 3
      vertex 16.0384 7.60982 3
      vertex 16.1522 7.23463 3
    endloop
  endfacet
  facet normal 0 -0 1
    outer loop
      vertex 16.0384 7.60982 3
      vertex 16.0384 8.39018 3
      vertex 16 8 3
    endloop
  endfacet
  facet normal 0.881834 0.47156 0
    outer loop
      vertex 16.3371 6.88886 5
      vertex 16.1522 7.23463 3
      vertex 16.1522 7.23463 5
    endloop
  endfacet
  facet normal 0.881834 0.47156 0
    outer loop
      vertex 16.1522 7.23463 3
      vertex 16.3371 6.88886 5
      vertex 16.3371 6.88886 3
    endloop
  endfacet
  facet normal -0.290271 -0.956944 0
    outer loop
      vertex 18.3902 9.96157 3
      vertex 18.7654 9.84776 5
      vertex 18.3902 9.96157 5
    endloop
  endfacet
  facet normal -0.290271 -0.956944 -0
    outer loop
      vertex 18.7654 9.84776 5
      vertex 18.3902 9.96157 3
      vertex 18.7654 9.84776 3
    endloop
  endfacet
  facet normal 0.0980137 -0.995185 0
    outer loop
      vertex 17.6098 9.96157 3
      vertex 18 10 5
      vertex 17.6098 9.96157 5
    endloop
  endfacet
  facet normal 0.0980137 -0.995185 0
    outer loop
      vertex 18 10 5
      vertex 17.6098 9.96157 3
      vertex 18 10 3
    endloop
  endfacet
  facet normal 0.471475 0.881879 -0
    outer loop
      vertex 17.2346 6.15224 3
      vertex 16.8889 6.33706 5
      vertex 17.2346 6.15224 5
    endloop
  endfacet
  facet normal 0.471475 0.881879 0
    outer loop
      vertex 16.8889 6.33706 5
      vertex 17.2346 6.15224 3
      vertex 16.8889 6.33706 3
    endloop
  endfacet
  facet normal 0.471475 -0.881879 0
    outer loop
      vertex 16.8889 9.66294 3
      vertex 17.2346 9.84776 5
      vertex 16.8889 9.66294 5
    endloop
  endfacet
  facet normal 0.471475 -0.881879 0
    outer loop
      vertex 17.2346 9.84776 5
      vertex 16.8889 9.66294 3
      vertex 17.2346 9.84776 3
    endloop
  endfacet
  facet normal -0.471475 0.881879 0
    outer loop
      vertex 19.1111 6.33706 3
      vertex 18.7654 6.15224 5
      vertex 19.1111 6.33706 5
    endloop
  endfacet
  facet normal -0.471475 0.881879 0
    outer loop
      vertex 18.7654 6.15224 5
      vertex 19.1111 6.33706 3
      vertex 18.7654 6.15224 3
    endloop
  endfacet
  facet normal 0.773039 -0.634358 0
    outer loop
      vertex 16.3371 9.11114 5
      vertex 16.5858 9.41421 3
      vertex 16.5858 9.41421 5
    endloop
  endfacet
  facet normal 0.773039 -0.634358 0
    outer loop
      vertex 16.5858 9.41421 3
      vertex 16.3371 9.11114 5
      vertex 16.3371 9.11114 3
    endloop
  endfacet
  facet normal -0.773039 -0.634358 0
    outer loop
      vertex 19.6629 9.11114 3
      vertex 19.4142 9.41421 5
      vertex 19.4142 9.41421 3
    endloop
  endfacet
  facet normal -0.773039 -0.634358 0
    outer loop
      vertex 19.4142 9.41421 5
      vertex 19.6629 9.11114 3
      vertex 19.6629 9.11114 5
    endloop
  endfacet
  facet normal -0.773039 0.634358 0
    outer loop
      vertex 19.4142 6.58579 3
      vertex 19.6629 6.88886 5
      vertex 19.6629 6.88886 3
    endloop
  endfacet
  facet normal -0.773039 0.634358 0
    outer loop
      vertex 19.6629 6.88886 5
      vertex 19.4142 6.58579 3
      vertex 19.4142 6.58579 5
    endloop
  endfacet
  facet normal 0.290271 -0.956944 0
    outer loop
      vertex 17.2346 9.84776 3
      vertex 17.6098 9.96157 5
      vertex 17.2346 9.84776 5
    endloop
  endfacet
  facet normal 0.290271 -0.956944 0
    outer loop
      vertex 17.6098 9.96157 5
      vertex 17.2346 9.84776 3
      vertex 17.6098 9.96157 3
    endloop
  endfacet
  facet normal -0.634366 0.773033 0
    outer loop
      vertex 19.4142 6.58579 3
      vertex 19.1111 6.33706 5
      vertex 19.4142 6.58579 5
    endloop
  endfacet
  facet normal -0.634366 0.773033 0
    outer loop
      vertex 19.1111 6.33706 5
      vertex 19.4142 6.58579 3
      vertex 19.1111 6.33706 3
    endloop
  endfacet
  facet normal -0.995192 0.0979429 0
    outer loop
      vertex 19.9616 7.60982 3
      vertex 20 8 5
      vertex 20 8 3
    endloop
  endfacet
  facet normal -0.995192 0.0979429 0
    outer loop
      vertex 20 8 5
      vertex 19.9616 7.60982 3
      vertex 19.9616 7.60982 5
    endloop
  endfacet
  facet normal 0.290271 0.956944 -0
    outer loop
      vertex 17.6098 6.03843 3
      vertex 17.2346 6.15224 5
      vertex 17.6098 6.03843 5
    endloop
  endfacet
  facet normal 0.290271 0.956944 0
    outer loop
      vertex 17.2346 6.15224 5
      vertex 17.6098 6.03843 3
      vertex 17.2346 6.15224 3
    endloop
  endfacet
  facet normal -0.956949 0.290255 0
    outer loop
      vertex 19.8478 7.23463 3
      vertex 19.9616 7.60982 5
      vertex 19.9616 7.60982 3
    endloop
  endfacet
  facet normal -0.956949 0.290255 0
    outer loop
      vertex 19.9616 7.60982 5
      vertex 19.8478 7.23463 3
      vertex 19.8478 7.23463 5
    endloop
  endfacet
  facet normal 0.956949 0.290255 0
    outer loop
      vertex 16.1522 7.23463 5
      vertex 16.0384 7.60982 3
      vertex 16.0384 7.60982 5
    endloop
  endfacet
  facet normal 0.956949 0.290255 0
    outer loop
      vertex 16.0384 7.60982 3
      vertex 16.1522 7.23463 5
      vertex 16.1522 7.23463 3
    endloop
  endfacet
  facet normal -0.881834 0.47156 0
    outer loop
      vertex 19.6629 6.88886 3
      vertex 19.8478 7.23463 5
      vertex 19.8478 7.23463 3
    endloop
  endfacet
  facet normal -0.881834 0.47156 0
    outer loop
      vertex 19.8478 7.23463 5
      vertex 19.6629 6.88886 3
      vertex 19.6629 6.88886 5
    endloop
  endfacet
  facet normal 0.995192 -0.0979429 0
    outer loop
      vertex 16 8 5
      vertex 16.0384 8.39018 3
      vertex 16.0384 8.39018 5
    endloop
  endfacet
  facet normal 0.995192 -0.0979429 0
    outer loop
      vertex 16.0384 8.39018 3
      vertex 16 8 5
      vertex 16 8 3
    endloop
  endfacet
  facet normal -0.0980137 -0.995185 0
    outer loop
      vertex 18 10 3
      vertex 18.3902 9.96157 5
      vertex 18 10 5
    endloop
  endfacet
  facet normal -0.0980137 -0.995185 -0
    outer loop
      vertex 18.3902 9.96157 5
      vertex 18 10 3
      vertex 18.3902 9.96157 3
    endloop
  endfacet
  facet normal 0.634366 -0.773033 0
    outer loop
      vertex 16.5858 9.41421 3
      vertex 16.8889 9.66294 5
      vertex 16.5858 9.41421 5
    endloop
  endfacet
  facet normal 0.634366 -0.773033 0
    outer loop
      vertex 16.8889 9.66294 5
      vertex 16.5858 9.41421 3
      vertex 16.8889 9.66294 3
    endloop
  endfacet
  facet normal -0.634366 -0.773033 0
    outer loop
      vertex 19.1111 9.66294 3
      vertex 19.4142 9.41421 5
      vertex 19.1111 9.66294 5
    endloop
  endfacet
  facet normal -0.634366 -0.773033 -0
    outer loop
      vertex 19.4142 9.41421 5
      vertex 19.1111 9.66294 3
      vertex 19.4142 9.41421 3
    endloop
  endfacet
  facet normal -0.0980137 0.995185 0
    outer loop
      vertex 18.3902 6.03843 3
      vertex 18 6 5
      vertex 18.3902 6.03843 5
    endloop
  endfacet
  facet normal -0.0980137 0.995185 0
    outer loop
      vertex 18 6 5
      vertex 18.3902 6.03843 3
      vertex 18 6 3
    endloop
  endfacet
  facet normal -0.471475 -0.881879 0
    outer loop
      vertex 18.7654 9.84776 3
      vertex 19.1111 9.66294 5
      vertex 18.7654 9.84776 5
    endloop
  endfacet
  facet normal -0.471475 -0.881879 -0
    outer loop
      vertex 19.1111 9.66294 5
      vertex 18.7654 9.84776 3
      vertex 19.1111 9.66294 3
    endloop
  endfacet
  facet normal 0.773039 0.634358 0
    outer loop
      vertex 16.5858 6.58579 5
      vertex 16.3371 6.88886 3
      vertex 16.3371 6.88886 5
    endloop
  endfacet
  facet normal 0.773039 0.634358 0
    outer loop
      vertex 16.3371 6.88886 3
      vertex 16.5858 6.58579 5
      vertex 16.5858 6.58579 3
    endloop
  endfacet
  facet normal 0.0980137 0.995185 -0
    outer loop
      vertex 18 6 3
      vertex 17.6098 6.03843 5
      vertex 18 6 5
    endloop
  endfacet
  facet normal 0.0980137 0.995185 0
    outer loop
      vertex 17.6098 6.03843 5
      vertex 18 6 3
      vertex 17.6098 6.03843 3
    endloop
  endfacet
  facet normal 0.634366 0.773033 -0
    outer loop
      vertex 16.8889 6.33706 3
      vertex 16.5858 6.58579 5
      vertex 16.8889 6.33706 5
    endloop
  endfacet
  facet normal 0.634366 0.773033 0
    outer loop
      vertex 16.5858 6.58579 5
      vertex 16.8889 6.33706 3
      vertex 16.5858 6.58579 3
    endloop
  endfacet
  facet normal 0.956949 -0.290255 0
    outer loop
      vertex 16.0384 8.39018 5
      vertex 16.1522 8.76537 3
      vertex 16.1522 8.76537 5
    endloop
  endfacet
  facet normal 0.956949 -0.290255 0
    outer loop
      vertex 16.1522 8.76537 3
      vertex 16.0384 8.39018 5
      vertex 16.0384 8.39018 3
    endloop
  endfacet
  facet normal 0.881834 -0.47156 0
    outer loop
      vertex 16.1522 8.76537 5
      vertex 16.3371 9.11114 3
      vertex 16.3371 9.11114 5
    endloop
  endfacet
  facet normal 0.881834 -0.47156 0
    outer loop
      vertex 16.3371 9.11114 3
      vertex 16.1522 8.76537 5
      vertex 16.1522 8.76537 3
    endloop
  endfacet
  facet normal 0.995192 0.0979429 0
    outer loop
      vertex 16.0384 7.60982 5
      vertex 16 8 3
      vertex 16 8 5
    endloop
  endfacet
  facet normal 0.995192 0.0979429 0
    outer loop
      vertex 16 8 3
      vertex 16.0384 7.60982 5
      vertex 16.0384 7.60982 3
    endloop
  endfacet
endsolid OpenSCAD_Model
