solid OpenSCAD_Model
  facet normal -0.748511 -0.663122 0
    outer loop
      vertex 3.54182 1.85889 0
      vertex 2.27226 3.29193 50
      vertex 2.27226 3.29193 0
    endloop
  endfacet
  facet normal -0.748511 -0.663122 0
    outer loop
      vertex 2.27226 3.29193 50
      vertex 3.54182 1.85889 0
      vertex 3.54182 1.85889 50
    endloop
  endfacet
  facet normal -0.970941 -0.239318 0
    outer loop
      vertex 4 0 0
      vertex 3.54182 1.85889 50
      vertex 3.54182 1.85889 0
    endloop
  endfacet
  facet normal -0.970941 -0.239318 0
    outer loop
      vertex 3.54182 1.85889 50
      vertex 4 0 0
      vertex 4 0 50
    endloop
  endfacet
  facet normal -0.354605 -0.935016 0
    outer loop
      vertex 0.482146 3.97083 0
      vertex 2.27226 3.29193 50
      vertex 0.482146 3.97083 50
    endloop
  endfacet
  facet normal -0.354605 -0.935016 -0
    outer loop
      vertex 2.27226 3.29193 50
      vertex 0.482146 3.97083 0
      vertex 2.27226 3.29193 0
    endloop
  endfacet
  facet normal 0.12053 -0.99271 0
    outer loop
      vertex 0 3.91229 0
      vertex 0.482146 3.97083 50
      vertex 0 3.91229 50
    endloop
  endfacet
  facet normal 0.12053 -0.99271 0
    outer loop
      vertex 0.482146 3.97083 50
      vertex 0 3.91229 0
      vertex 0.482146 3.97083 0
    endloop
  endfacet
  facet normal 0 0 -1
    outer loop
      vertex 3.54182 1.85889 0
      vertex 100 0 0
      vertex 4 0 0
    endloop
  endfacet
  facet normal 0 0 -1
    outer loop
      vertex 2.27226 3.29193 0
      vertex 100 0 0
      vertex 3.54182 1.85889 0
    endloop
  endfacet
  facet normal 0 0 -1
    outer loop
      vertex 100 0 0
      vertex 2.27226 3.29193 0
      vertex 100 100 0
    endloop
  endfacet
  facet normal 0 0 -1
    outer loop
      vertex 0 100 0
      vertex 2.27226 3.29193 0
      vertex 0.482146 3.97083 0
    endloop
  endfacet
  facet normal 0 0 -1
    outer loop
      vertex 0 100 0
      vertex 0.482146 3.97083 0
      vertex 0 3.91229 0
    endloop
  endfacet
  facet normal 0 0 -1
    outer loop
      vertex 2.27226 3.29193 0
      vertex 0 100 0
      vertex 100 100 0
    endloop
  endfacet
  facet normal -0 0 1
    outer loop
      vertex 2.27226 3.29193 50
      vertex 100 0 50
      vertex 100 100 50
    endloop
  endfacet
  facet normal 0 0 1
    outer loop
      vertex 100 0 50
      vertex 3.54182 1.85889 50
      vertex 4 0 50
    endloop
  endfacet
  facet normal 0 0 1
    outer loop
      vertex 100 0 50
      vertex 2.27226 3.29193 50
      vertex 3.54182 1.85889 50
    endloop
  endfacet
  facet normal -0 0 1
    outer loop
      vertex 0 100 50
      vertex 2.27226 3.29193 50
      vertex 100 100 50
    endloop
  endfacet
  facet normal 0 0 1
    outer loop
      vertex 2.27226 3.29193 50
      vertex 0 100 50
      vertex 0.482146 3.97083 50
    endloop
  endfacet
  facet normal 0 0 1
    outer loop
      vertex 0.482146 3.97083 50
      vertex 0 100 50
      vertex 0 3.91229 50
    endloop
  endfacet
  facet normal 1 -0 0
    outer loop
      vertex 100 0 50
      vertex 100 100 0
      vertex 100 100 50
    endloop
  endfacet
  facet normal 1 0 0
    outer loop
      vertex 100 100 0
      vertex 100 0 50
      vertex 100 0 0
    endloop
  endfacet
  facet normal -1 0 0
    outer loop
      vertex 0 3.91229 0
      vertex 0 100 50
      vertex 0 100 0
    endloop
  endfacet
  facet normal -1 -0 0
    outer loop
      vertex 0 100 50
      vertex 0 3.91229 0
      vertex 0 3.91229 50
    endloop
  endfacet
  facet normal 0 1 -0
    outer loop
      vertex 100 100 0
      vertex 0 100 50
      vertex 100 100 50
    endloop
  endfacet
  facet normal 0 1 0
    outer loop
      vertex 0 100 50
      vertex 100 100 0
      vertex 0 100 0
    endloop
  endfacet
  facet normal 0 -1 0
    outer loop
      vertex 4 0 0
      vertex 100 0 50
      vertex 4 0 50
    endloop
  endfacet
  facet normal 0 -1 -0
    outer loop
      vertex 100 0 50
      vertex 4 0 0
      vertex 100 0 0
    endloop
  endfacet
endsolid OpenSCAD_Model
