solid OpenSCAD_Model
  facet normal 1 -0 0
    outer loop
      vertex 10 0 10
      vertex 10 10 0
      vertex 10 10 10
    endloop
  endfacet
  facet normal 1 0 0
    outer loop
      vertex 10 10 0
      vertex 10 0 10
      vertex 10 0 0
    endloop
  endfacet
  facet normal -0 0 1
    outer loop
      vertex 0 10 10
      vertex 10 0 10
      vertex 10 10 10
    endloop
  endfacet
  facet normal 0 0 1
    outer loop
      vertex 10 0 10
      vertex 0 10 10
      vertex 0 0 10
    endloop
  endfacet
  facet normal 0 0 -1
    outer loop
      vertex 0 0 0
      vertex 10 10 0
      vertex 10 0 0
    endloop
  endfacet
  facet normal -0 0 -1
    outer loop
      vertex 10 10 0
      vertex 0 0 0
      vertex 0 10 0
    endloop
  endfacet
  facet normal -1 0 0
    outer loop
      vertex 0 0 0
      vertex 0 10 10
      vertex 0 10 0
    endloop
  endfacet
  facet normal -1 -0 0
    outer loop
      vertex 0 10 10
      vertex 0 0 0
      vertex 0 0 10
    endloop
  endfacet
  facet normal 0 1 -0
    outer loop
      vertex 10 10 0
      vertex 0 10 10
      vertex 10 10 10
    endloop
  endfacet
  facet normal 0 1 0
    outer loop
      vertex 0 10 10
      vertex 10 10 0
      vertex 0 10 0
    endloop
  endfacet
  facet normal 0 -1 0
    outer loop
      vertex 0 0 0
      vertex 10 0 10
      vertex 0 0 10
    endloop
  endfacet
  facet normal 0 -1 -0
    outer loop
      vertex 10 0 10
      vertex 0 0 0
      vertex 10 0 0
    endloop
  endfacet
  facet normal 1 -0 0
    outer loop
      vertex 10 20 10
      vertex 10 30 0
      vertex 10 30 10
    endloop
  endfacet
  facet normal 1 0 0
    outer loop
      vertex 10 30 0
      vertex 10 20 10
      vertex 10 20 0
    endloop
  endfacet
  facet normal -0 0 1
    outer loop
      vertex 0 30 10
      vertex 10 20 10
      vertex 10 30 10
    endloop
  endfacet
  facet normal 0 0 1
    outer loop
      vertex 10 20 10
      vertex 0 30 10
      vertex 0 20 10
    endloop
  endfacet
  facet normal 0 0 -1
    outer loop
      vertex 0 20 0
      vertex 10 30 0
      vertex 10 20 0
    endloop
  endfacet
  facet normal -0 0 -1
    outer loop
      vertex 10 30 0
      vertex 0 20 0
      vertex 0 30 0
    endloop
  endfacet
  facet normal -1 0 0
    outer loop
      vertex 0 20 0
      vertex 0 30 10
      vertex 0 30 0
    endloop
  endfacet
  facet normal -1 -0 0
    outer loop
      vertex 0 30 10
      vertex 0 20 0
      vertex 0 20 10
    endloop
  endfacet
  facet normal 0 1 -0
    outer loop
      vertex 10 30 0
      vertex 0 30 10
      vertex 10 30 10
    endloop
  endfacet
  facet normal 0 1 0
    outer loop
      vertex 0 30 10
      vertex 10 30 0
      vertex 0 30 0
    endloop
  endfacet
  facet normal 0 -1 0
    outer loop
      vertex 0 20 0
      vertex 10 20 10
      vertex 0 20 10
    endloop
  endfacet
  facet normal 0 -1 -0
    outer loop
      vertex 10 20 10
      vertex 0 20 0
      vertex 10 20 0
    endloop
  endfacet
  facet normal 1 -0 0
    outer loop
      vertex 10 40 10
      vertex 10 50 0
      vertex 10 50 10
    endloop
  endfacet
  facet normal 1 0 0
    outer loop
      vertex 10 50 0
      vertex 10 40 10
      vertex 10 40 0
    endloop
  endfacet
  facet normal -0 0 1
    outer loop
      vertex 0 50 10
      vertex 10 40 10
      vertex 10 50 10
    endloop
  endfacet
  facet normal 0 0 1
    outer loop
      vertex 10 40 10
      vertex 0 50 10
      vertex 0 40 10
    endloop
  endfacet
  facet normal 0 0 -1
    outer loop
      vertex 0 40 0
      vertex 10 50 0
      vertex 10 40 0
    endloop
  endfacet
  facet normal -0 0 -1
    outer loop
      vertex 10 50 0
      vertex 0 40 0
      vertex 0 50 0
    endloop
  endfacet
  facet normal -1 0 0
    outer loop
      vertex 0 40 0
      vertex 0 50 10
      vertex 0 50 0
    endloop
  endfacet
  facet normal -1 -0 0
    outer loop
      vertex 0 50 10
      vertex 0 40 0
      vertex 0 40 10
    endloop
  endfacet
  facet normal 0 1 -0
    outer loop
      vertex 10 50 0
      vertex 0 50 10
      vertex 10 50 10
    endloop
  endfacet
  facet normal 0 1 0
    outer loop
      vertex 0 50 10
      vertex 10 50 0
      vertex 0 50 0
    endloop
  endfacet
  facet normal 0 -1 0
    outer loop
      vertex 0 40 0
      vertex 10 40 10
      vertex 0 40 10
    endloop
  endfacet
  facet normal 0 -1 -0
    outer loop
      vertex 10 40 10
      vertex 0 40 0
      vertex 10 40 0
    endloop
  endfacet
  facet normal 1 -0 0
    outer loop
      vertex 10 60 10
      vertex 10 70 0
      vertex 10 70 10
    endloop
  endfacet
  facet normal 1 0 0
    outer loop
      vertex 10 70 0
      vertex 10 60 10
      vertex 10 60 0
    endloop
  endfacet
  facet normal -0 0 1
    outer loop
      vertex 0 70 10
      vertex 10 60 10
      vertex 10 70 10
    endloop
  endfacet
  facet normal 0 0 1
    outer loop
      vertex 10 60 10
      vertex 0 70 10
      vertex 0 60 10
    endloop
  endfacet
  facet normal 0 0 -1
    outer loop
      vertex 0 60 0
      vertex 10 70 0
      vertex 10 60 0
    endloop
  endfacet
  facet normal -0 0 -1
    outer loop
      vertex 10 70 0
      vertex 0 60 0
      vertex 0 70 0
    endloop
  endfacet
  facet normal -1 0 0
    outer loop
      vertex 0 60 0
      vertex 0 70 10
      vertex 0 70 0
    endloop
  endfacet
  facet normal -1 -0 0
    outer loop
      vertex 0 70 10
      vertex 0 60 0
      vertex 0 60 10
    endloop
  endfacet
  facet normal 0 1 -0
    outer loop
      vertex 10 70 0
      vertex 0 70 10
      vertex 10 70 10
    endloop
  endfacet
  facet normal 0 1 0
    outer loop
      vertex 0 70 10
      vertex 10 70 0
      vertex 0 70 0
    endloop
  endfacet
  facet normal 0 -1 0
    outer loop
      vertex 0 60 0
      vertex 10 60 10
      vertex 0 60 10
    endloop
  endfacet
  facet normal 0 -1 -0
    outer loop
      vertex 10 60 10
      vertex 0 60 0
      vertex 10 60 0
    endloop
  endfacet
  facet normal 1 -0 0
    outer loop
      vertex 10 80 10
      vertex 10 90 0
      vertex 10 90 10
    endloop
  endfacet
  facet normal 1 0 0
    outer loop
      vertex 10 90 0
      vertex 10 80 10
      vertex 10 80 0
    endloop
  endfacet
  facet normal -0 0 1
    outer loop
      vertex 0 90 10
      vertex 10 80 10
      vertex 10 90 10
    endloop
  endfacet
  facet normal 0 0 1
    outer loop
      vertex 10 80 10
      vertex 0 90 10
      vertex 0 80 10
    endloop
  endfacet
  facet normal 0 0 -1
    outer loop
      vertex 0 80 0
      vertex 10 90 0
      vertex 10 80 0
    endloop
  endfacet
  facet normal -0 0 -1
    outer loop
      vertex 10 90 0
      vertex 0 80 0
      vertex 0 90 0
    endloop
  endfacet
  facet normal -1 0 0
    outer loop
      vertex 0 80 0
      vertex 0 90 10
      vertex 0 90 0
    endloop
  endfacet
  facet normal -1 -0 0
    outer loop
      vertex 0 90 10
      vertex 0 80 0
      vertex 0 80 10
    endloop
  endfacet
  facet normal 0 1 -0
    outer loop
      vertex 10 90 0
      vertex 0 90 10
      vertex 10 90 10
    endloop
  endfacet
  facet normal 0 1 0
    outer loop
      vertex 0 90 10
      vertex 10 90 0
      vertex 0 90 0
    endloop
  endfacet
  facet normal 0 -1 0
    outer loop
      vertex 0 80 0
      vertex 10 80 10
      vertex 0 80 10
    endloop
  endfacet
  facet normal 0 -1 -0
    outer loop
      vertex 10 80 10
      vertex 0 80 0
      vertex 10 80 0
    endloop
  endfacet
  facet normal 1 -0 0
    outer loop
      vertex 10 100 10
      vertex 10 110 0
      vertex 10 110 10
    endloop
  endfacet
  facet normal 1 0 0
    outer loop
      vertex 10 110 0
      vertex 10 100 10
      vertex 10 100 0
    endloop
  endfacet
  facet normal -0 0 1
    outer loop
      vertex 0 110 10
      vertex 10 100 10
      vertex 10 110 10
    endloop
  endfacet
  facet normal 0 0 1
    outer loop
      vertex 10 100 10
      vertex 0 110 10
      vertex 0 100 10
    endloop
  endfacet
  facet normal 0 0 -1
    outer loop
      vertex 0 100 0
      vertex 10 110 0
      vertex 10 100 0
    endloop
  endfacet
  facet normal -0 0 -1
    outer loop
      vertex 10 110 0
      vertex 0 100 0
      vertex 0 110 0
    endloop
  endfacet
  facet normal -1 0 0
    outer loop
      vertex 0 100 0
      vertex 0 110 10
      vertex 0 110 0
    endloop
  endfacet
  facet normal -1 -0 0
    outer loop
      vertex 0 110 10
      vertex 0 100 0
      vertex 0 100 10
    endloop
  endfacet
  facet normal 0 1 -0
    outer loop
      vertex 10 110 0
      vertex 0 110 10
      vertex 10 110 10
    endloop
  endfacet
  facet normal 0 1 0
    outer loop
      vertex 0 110 10
      vertex 10 110 0
      vertex 0 110 0
    endloop
  endfacet
  facet normal 0 -1 0
    outer loop
      vertex 0 100 0
      vertex 10 100 10
      vertex 0 100 10
    endloop
  endfacet
  facet normal 0 -1 -0
    outer loop
      vertex 10 100 10
      vertex 0 100 0
      vertex 10 100 0
    endloop
  endfacet
  facet normal 1 -0 0
    outer loop
      vertex 30 0 10
      vertex 30 10 0
      vertex 30 10 10
    endloop
  endfacet
  facet normal 1 0 0
    outer loop
      vertex 30 10 0
      vertex 30 0 10
      vertex 30 0 0
    endloop
  endfacet
  facet normal -0 0 1
    outer loop
      vertex 20 10 10
      vertex 30 0 10
      vertex 30 10 10
    endloop
  endfacet
  facet normal 0 0 1
    outer loop
      vertex 30 0 10
      vertex 20 10 10
      vertex 20 0 10
    endloop
  endfacet
  facet normal 0 0 -1
    outer loop
      vertex 20 0 0
      vertex 30 10 0
      vertex 30 0 0
    endloop
  endfacet
  facet normal -0 0 -1
    outer loop
      vertex 30 10 0
      vertex 20 0 0
      vertex 20 10 0
    endloop
  endfacet
  facet normal -1 0 0
    outer loop
      vertex 20 0 0
      vertex 20 10 10
      vertex 20 10 0
    endloop
  endfacet
  facet normal -1 -0 0
    outer loop
      vertex 20 10 10
      vertex 20 0 0
      vertex 20 0 10
    endloop
  endfacet
  facet normal 0 1 -0
    outer loop
      vertex 30 10 0
      vertex 20 10 10
      vertex 30 10 10
    endloop
  endfacet
  facet normal 0 1 0
    outer loop
      vertex 20 10 10
      vertex 30 10 0
      vertex 20 10 0
    endloop
  endfacet
  facet normal 0 -1 0
    outer loop
      vertex 20 0 0
      vertex 30 0 10
      vertex 20 0 10
    endloop
  endfacet
  facet normal 0 -1 -0
    outer loop
      vertex 30 0 10
      vertex 20 0 0
      vertex 30 0 0
    endloop
  endfacet
  facet normal 1 -0 0
    outer loop
      vertex 30 20 10
      vertex 30 30 0
      vertex 30 30 10
    endloop
  endfacet
  facet normal 1 0 0
    outer loop
      vertex 30 30 0
      vertex 30 20 10
      vertex 30 20 0
    endloop
  endfacet
  facet normal -0 0 1
    outer loop
      vertex 20 30 10
      vertex 30 20 10
      vertex 30 30 10
    endloop
  endfacet
  facet normal 0 0 1
    outer loop
      vertex 30 20 10
      vertex 20 30 10
      vertex 20 20 10
    endloop
  endfacet
  facet normal 0 0 -1
    outer loop
      vertex 20 20 0
      vertex 30 30 0
      vertex 30 20 0
    endloop
  endfacet
  facet normal -0 0 -1
    outer loop
      vertex 30 30 0
      vertex 20 20 0
      vertex 20 30 0
    endloop
  endfacet
  facet normal -1 0 0
    outer loop
      vertex 20 20 0
      vertex 20 30 10
      vertex 20 30 0
    endloop
  endfacet
  facet normal -1 -0 0
    outer loop
      vertex 20 30 10
      vertex 20 20 0
      vertex 20 20 10
    endloop
  endfacet
  facet normal 0 1 -0
    outer loop
      vertex 30 30 0
      vertex 20 30 10
      vertex 30 30 10
    endloop
  endfacet
  facet normal 0 1 0
    outer loop
      vertex 20 30 10
      vertex 30 30 0
      vertex 20 30 0
    endloop
  endfacet
  facet normal 0 -1 0
    outer loop
      vertex 20 20 0
      vertex 30 20 10
      vertex 20 20 10
    endloop
  endfacet
  facet normal 0 -1 -0
    outer loop
      vertex 30 20 10
      vertex 20 20 0
      vertex 30 20 0
    endloop
  endfacet
  facet normal 1 -0 0
    outer loop
      vertex 30 40 10
      vertex 30 50 0
      vertex 30 50 10
    endloop
  endfacet
  facet normal 1 0 0
    outer loop
      vertex 30 50 0
      vertex 30 40 10
      vertex 30 40 0
    endloop
  endfacet
  facet normal -0 0 1
    outer loop
      vertex 20 50 10
      vertex 30 40 10
      vertex 30 50 10
    endloop
  endfacet
  facet normal 0 0 1
    outer loop
      vertex 30 40 10
      vertex 20 50 10
      vertex 20 40 10
    endloop
  endfacet
  facet normal 0 0 -1
    outer loop
      vertex 20 40 0
      vertex 30 50 0
      vertex 30 40 0
    endloop
  endfacet
  facet normal -0 0 -1
    outer loop
      vertex 30 50 0
      vertex 20 40 0
      vertex 20 50 0
    endloop
  endfacet
  facet normal -1 0 0
    outer loop
      vertex 20 40 0
      vertex 20 50 10
      vertex 20 50 0
    endloop
  endfacet
  facet normal -1 -0 0
    outer loop
      vertex 20 50 10
      vertex 20 40 0
      vertex 20 40 10
    endloop
  endfacet
  facet normal 0 1 -0
    outer loop
      vertex 30 50 0
      vertex 20 50 10
      vertex 30 50 10
    endloop
  endfacet
  facet normal 0 1 0
    outer loop
      vertex 20 50 10
      vertex 30 50 0
      vertex 20 50 0
    endloop
  endfacet
  facet normal 0 -1 0
    outer loop
      vertex 20 40 0
      vertex 30 40 10
      vertex 20 40 10
    endloop
  endfacet
  facet normal 0 -1 -0
    outer loop
      vertex 30 40 10
      vertex 20 40 0
      vertex 30 40 0
    endloop
  endfacet
  facet normal 1 -0 0
    outer loop
      vertex 30 60 10
      vertex 30 70 0
      vertex 30 70 10
    endloop
  endfacet
  facet normal 1 0 0
    outer loop
      vertex 30 70 0
      vertex 30 60 10
      vertex 30 60 0
    endloop
  endfacet
  facet normal -0 0 1
    outer loop
      vertex 20 70 10
      vertex 30 60 10
      vertex 30 70 10
    endloop
  endfacet
  facet normal 0 0 1
    outer loop
      vertex 30 60 10
      vertex 20 70 10
      vertex 20 60 10
    endloop
  endfacet
  facet normal 0 0 -1
    outer loop
      vertex 20 60 0
      vertex 30 70 0
      vertex 30 60 0
    endloop
  endfacet
  facet normal -0 0 -1
    outer loop
      vertex 30 70 0
      vertex 20 60 0
      vertex 20 70 0
    endloop
  endfacet
  facet normal -1 0 0
    outer loop
      vertex 20 60 0
      vertex 20 70 10
      vertex 20 70 0
    endloop
  endfacet
  facet normal -1 -0 0
    outer loop
      vertex 20 70 10
      vertex 20 60 0
      vertex 20 60 10
    endloop
  endfacet
  facet normal 0 1 -0
    outer loop
      vertex 30 70 0
      vertex 20 70 10
      vertex 30 70 10
    endloop
  endfacet
  facet normal 0 1 0
    outer loop
      vertex 20 70 10
      vertex 30 70 0
      vertex 20 70 0
    endloop
  endfacet
  facet normal 0 -1 0
    outer loop
      vertex 20 60 0
      vertex 30 60 10
      vertex 20 60 10
    endloop
  endfacet
  facet normal 0 -1 -0
    outer loop
      vertex 30 60 10
      vertex 20 60 0
      vertex 30 60 0
    endloop
  endfacet
  facet normal 1 -0 0
    outer loop
      vertex 30 80 10
      vertex 30 90 0
      vertex 30 90 10
    endloop
  endfacet
  facet normal 1 0 0
    outer loop
      vertex 30 90 0
      vertex 30 80 10
      vertex 30 80 0
    endloop
  endfacet
  facet normal -0 0 1
    outer loop
      vertex 20 90 10
      vertex 30 80 10
      vertex 30 90 10
    endloop
  endfacet
  facet normal 0 0 1
    outer loop
      vertex 30 80 10
      vertex 20 90 10
      vertex 20 80 10
    endloop
  endfacet
  facet normal 0 0 -1
    outer loop
      vertex 20 80 0
      vertex 30 90 0
      vertex 30 80 0
    endloop
  endfacet
  facet normal -0 0 -1
    outer loop
      vertex 30 90 0
      vertex 20 80 0
      vertex 20 90 0
    endloop
  endfacet
  facet normal -1 0 0
    outer loop
      vertex 20 80 0
      vertex 20 90 10
      vertex 20 90 0
    endloop
  endfacet
  facet normal -1 -0 0
    outer loop
      vertex 20 90 10
      vertex 20 80 0
      vertex 20 80 10
    endloop
  endfacet
  facet normal 0 1 -0
    outer loop
      vertex 30 90 0
      vertex 20 90 10
      vertex 30 90 10
    endloop
  endfacet
  facet normal 0 1 0
    outer loop
      vertex 20 90 10
      vertex 30 90 0
      vertex 20 90 0
    endloop
  endfacet
  facet normal 0 -1 0
    outer loop
      vertex 20 80 0
      vertex 30 80 10
      vertex 20 80 10
    endloop
  endfacet
  facet normal 0 -1 -0
    outer loop
      vertex 30 80 10
      vertex 20 80 0
      vertex 30 80 0
    endloop
  endfacet
  facet normal 1 -0 0
    outer loop
      vertex 30 100 10
      vertex 30 110 0
      vertex 30 110 10
    endloop
  endfacet
  facet normal 1 0 0
    outer loop
      vertex 30 110 0
      vertex 30 100 10
      vertex 30 100 0
    endloop
  endfacet
  facet normal -0 0 1
    outer loop
      vertex 20 110 10
      vertex 30 100 10
      vertex 30 110 10
    endloop
  endfacet
  facet normal 0 0 1
    outer loop
      vertex 30 100 10
      vertex 20 110 10
      vertex 20 100 10
    endloop
  endfacet
  facet normal 0 0 -1
    outer loop
      vertex 20 100 0
      vertex 30 110 0
      vertex 30 100 0
    endloop
  endfacet
  facet normal -0 0 -1
    outer loop
      vertex 30 110 0
      vertex 20 100 0
      vertex 20 110 0
    endloop
  endfacet
  facet normal -1 0 0
    outer loop
      vertex 20 100 0
      vertex 20 110 10
      vertex 20 110 0
    endloop
  endfacet
  facet normal -1 -0 0
    outer loop
      vertex 20 110 10
      vertex 20 100 0
      vertex 20 100 10
    endloop
  endfacet
  facet normal 0 1 -0
    outer loop
      vertex 30 110 0
      vertex 20 110 10
      vertex 30 110 10
    endloop
  endfacet
  facet normal 0 1 0
    outer loop
      vertex 20 110 10
      vertex 30 110 0
      vertex 20 110 0
    endloop
  endfacet
  facet normal 0 -1 0
    outer loop
      vertex 20 100 0
      vertex 30 100 10
      vertex 20 100 10
    endloop
  endfacet
  facet normal 0 -1 -0
    outer loop
      vertex 30 100 10
      vertex 20 100 0
      vertex 30 100 0
    endloop
  endfacet
  facet normal 1 -0 0
    outer loop
      vertex 50 0 10
      vertex 50 10 0
      vertex 50 10 10
    endloop
  endfacet
  facet normal 1 0 0
    outer loop
      vertex 50 10 0
      vertex 50 0 10
      vertex 50 0 0
    endloop
  endfacet
  facet normal -0 0 1
    outer loop
      vertex 40 10 10
      vertex 50 0 10
      vertex 50 10 10
    endloop
  endfacet
  facet normal 0 0 1
    outer loop
      vertex 50 0 10
      vertex 40 10 10
      vertex 40 0 10
    endloop
  endfacet
  facet normal 0 0 -1
    outer loop
      vertex 40 0 0
      vertex 50 10 0
      vertex 50 0 0
    endloop
  endfacet
  facet normal -0 0 -1
    outer loop
      vertex 50 10 0
      vertex 40 0 0
      vertex 40 10 0
    endloop
  endfacet
  facet normal -1 0 0
    outer loop
      vertex 40 0 0
      vertex 40 10 10
      vertex 40 10 0
    endloop
  endfacet
  facet normal -1 -0 0
    outer loop
      vertex 40 10 10
      vertex 40 0 0
      vertex 40 0 10
    endloop
  endfacet
  facet normal 0 1 -0
    outer loop
      vertex 50 10 0
      vertex 40 10 10
      vertex 50 10 10
    endloop
  endfacet
  facet normal 0 1 0
    outer loop
      vertex 40 10 10
      vertex 50 10 0
      vertex 40 10 0
    endloop
  endfacet
  facet normal 0 -1 0
    outer loop
      vertex 40 0 0
      vertex 50 0 10
      vertex 40 0 10
    endloop
  endfacet
  facet normal 0 -1 -0
    outer loop
      vertex 50 0 10
      vertex 40 0 0
      vertex 50 0 0
    endloop
  endfacet
  facet normal 1 -0 0
    outer loop
      vertex 50 20 10
      vertex 50 30 0
      vertex 50 30 10
    endloop
  endfacet
  facet normal 1 0 0
    outer loop
      vertex 50 30 0
      vertex 50 20 10
      vertex 50 20 0
    endloop
  endfacet
  facet normal -0 0 1
    outer loop
      vertex 40 30 10
      vertex 50 20 10
      vertex 50 30 10
    endloop
  endfacet
  facet normal 0 0 1
    outer loop
      vertex 50 20 10
      vertex 40 30 10
      vertex 40 20 10
    endloop
  endfacet
  facet normal 0 0 -1
    outer loop
      vertex 40 20 0
      vertex 50 30 0
      vertex 50 20 0
    endloop
  endfacet
  facet normal -0 0 -1
    outer loop
      vertex 50 30 0
      vertex 40 20 0
      vertex 40 30 0
    endloop
  endfacet
  facet normal -1 0 0
    outer loop
      vertex 40 20 0
      vertex 40 30 10
      vertex 40 30 0
    endloop
  endfacet
  facet normal -1 -0 0
    outer loop
      vertex 40 30 10
      vertex 40 20 0
      vertex 40 20 10
    endloop
  endfacet
  facet normal 0 1 -0
    outer loop
      vertex 50 30 0
      vertex 40 30 10
      vertex 50 30 10
    endloop
  endfacet
  facet normal 0 1 0
    outer loop
      vertex 40 30 10
      vertex 50 30 0
      vertex 40 30 0
    endloop
  endfacet
  facet normal 0 -1 0
    outer loop
      vertex 40 20 0
      vertex 50 20 10
      vertex 40 20 10
    endloop
  endfacet
  facet normal 0 -1 -0
    outer loop
      vertex 50 20 10
      vertex 40 20 0
      vertex 50 20 0
    endloop
  endfacet
  facet normal 1 -0 0
    outer loop
      vertex 50 40 10
      vertex 50 50 0
      vertex 50 50 10
    endloop
  endfacet
  facet normal 1 0 0
    outer loop
      vertex 50 50 0
      vertex 50 40 10
      vertex 50 40 0
    endloop
  endfacet
  facet normal -0 0 1
    outer loop
      vertex 40 50 10
      vertex 50 40 10
      vertex 50 50 10
    endloop
  endfacet
  facet normal 0 0 1
    outer loop
      vertex 50 40 10
      vertex 40 50 10
      vertex 40 40 10
    endloop
  endfacet
  facet normal 0 0 -1
    outer loop
      vertex 40 40 0
      vertex 50 50 0
      vertex 50 40 0
    endloop
  endfacet
  facet normal -0 0 -1
    outer loop
      vertex 50 50 0
      vertex 40 40 0
      vertex 40 50 0
    endloop
  endfacet
  facet normal -1 0 0
    outer loop
      vertex 40 40 0
      vertex 40 50 10
      vertex 40 50 0
    endloop
  endfacet
  facet normal -1 -0 0
    outer loop
      vertex 40 50 10
      vertex 40 40 0
      vertex 40 40 10
    endloop
  endfacet
  facet normal 0 1 -0
    outer loop
      vertex 50 50 0
      vertex 40 50 10
      vertex 50 50 10
    endloop
  endfacet
  facet normal 0 1 0
    outer loop
      vertex 40 50 10
      vertex 50 50 0
      vertex 40 50 0
    endloop
  endfacet
  facet normal 0 -1 0
    outer loop
      vertex 40 40 0
      vertex 50 40 10
      vertex 40 40 10
    endloop
  endfacet
  facet normal 0 -1 -0
    outer loop
      vertex 50 40 10
      vertex 40 40 0
      vertex 50 40 0
    endloop
  endfacet
  facet normal 1 -0 0
    outer loop
      vertex 50 60 10
      vertex 50 70 0
      vertex 50 70 10
    endloop
  endfacet
  facet normal 1 0 0
    outer loop
      vertex 50 70 0
      vertex 50 60 10
      vertex 50 60 0
    endloop
  endfacet
  facet normal -0 0 1
    outer loop
      vertex 40 70 10
      vertex 50 60 10
      vertex 50 70 10
    endloop
  endfacet
  facet normal 0 0 1
    outer loop
      vertex 50 60 10
      vertex 40 70 10
      vertex 40 60 10
    endloop
  endfacet
  facet normal 0 0 -1
    outer loop
      vertex 40 60 0
      vertex 50 70 0
      vertex 50 60 0
    endloop
  endfacet
  facet normal -0 0 -1
    outer loop
      vertex 50 70 0
      vertex 40 60 0
      vertex 40 70 0
    endloop
  endfacet
  facet normal -1 0 0
    outer loop
      vertex 40 60 0
      vertex 40 70 10
      vertex 40 70 0
    endloop
  endfacet
  facet normal -1 -0 0
    outer loop
      vertex 40 70 10
      vertex 40 60 0
      vertex 40 60 10
    endloop
  endfacet
  facet normal 0 1 -0
    outer loop
      vertex 50 70 0
      vertex 40 70 10
      vertex 50 70 10
    endloop
  endfacet
  facet normal 0 1 0
    outer loop
      vertex 40 70 10
      vertex 50 70 0
      vertex 40 70 0
    endloop
  endfacet
  facet normal 0 -1 0
    outer loop
      vertex 40 60 0
      vertex 50 60 10
      vertex 40 60 10
    endloop
  endfacet
  facet normal 0 -1 -0
    outer loop
      vertex 50 60 10
      vertex 40 60 0
      vertex 50 60 0
    endloop
  endfacet
  facet normal 1 -0 0
    outer loop
      vertex 50 80 10
      vertex 50 90 0
      vertex 50 90 10
    endloop
  endfacet
  facet normal 1 0 0
    outer loop
      vertex 50 90 0
      vertex 50 80 10
      vertex 50 80 0
    endloop
  endfacet
  facet normal -0 0 1
    outer loop
      vertex 40 90 10
      vertex 50 80 10
      vertex 50 90 10
    endloop
  endfacet
  facet normal 0 0 1
    outer loop
      vertex 50 80 10
      vertex 40 90 10
      vertex 40 80 10
    endloop
  endfacet
  facet normal 0 0 -1
    outer loop
      vertex 40 80 0
      vertex 50 90 0
      vertex 50 80 0
    endloop
  endfacet
  facet normal -0 0 -1
    outer loop
      vertex 50 90 0
      vertex 40 80 0
      vertex 40 90 0
    endloop
  endfacet
  facet normal -1 0 0
    outer loop
      vertex 40 80 0
      vertex 40 90 10
      vertex 40 90 0
    endloop
  endfacet
  facet normal -1 -0 0
    outer loop
      vertex 40 90 10
      vertex 40 80 0
      vertex 40 80 10
    endloop
  endfacet
  facet normal 0 1 -0
    outer loop
      vertex 50 90 0
      vertex 40 90 10
      vertex 50 90 10
    endloop
  endfacet
  facet normal 0 1 0
    outer loop
      vertex 40 90 10
      vertex 50 90 0
      vertex 40 90 0
    endloop
  endfacet
  facet normal 0 -1 0
    outer loop
      vertex 40 80 0
      vertex 50 80 10
      vertex 40 80 10
    endloop
  endfacet
  facet normal 0 -1 -0
    outer loop
      vertex 50 80 10
      vertex 40 80 0
      vertex 50 80 0
    endloop
  endfacet
  facet normal 1 -0 0
    outer loop
      vertex 50 100 10
      vertex 50 110 0
      vertex 50 110 10
    endloop
  endfacet
  facet normal 1 0 0
    outer loop
      vertex 50 110 0
      vertex 50 100 10
      vertex 50 100 0
    endloop
  endfacet
  facet normal -0 0 1
    outer loop
      vertex 40 110 10
      vertex 50 100 10
      vertex 50 110 10
    endloop
  endfacet
  facet normal 0 0 1
    outer loop
      vertex 50 100 10
      vertex 40 110 10
      vertex 40 100 10
    endloop
  endfacet
  facet normal 0 0 -1
    outer loop
      vertex 40 100 0
      vertex 50 110 0
      vertex 50 100 0
    endloop
  endfacet
  facet normal -0 0 -1
    outer loop
      vertex 50 110 0
      vertex 40 100 0
      vertex 40 110 0
    endloop
  endfacet
  facet normal -1 0 0
    outer loop
      vertex 40 100 0
      vertex 40 110 10
      vertex 40 110 0
    endloop
  endfacet
  facet normal -1 -0 0
    outer loop
      vertex 40 110 10
      vertex 40 100 0
      vertex 40 100 10
    endloop
  endfacet
  facet normal 0 1 -0
    outer loop
      vertex 50 110 0
      vertex 40 110 10
      vertex 50 110 10
    endloop
  endfacet
  facet normal 0 1 0
    outer loop
      vertex 40 110 10
      vertex 50 110 0
      vertex 40 110 0
    endloop
  endfacet
  facet normal 0 -1 0
    outer loop
      vertex 40 100 0
      vertex 50 100 10
      vertex 40 100 10
    endloop
  endfacet
  facet normal 0 -1 -0
    outer loop
      vertex 50 100 10
      vertex 40 100 0
      vertex 50 100 0
    endloop
  endfacet
  facet normal 1 -0 0
    outer loop
      vertex 70 0 10
      vertex 70 10 0
      vertex 70 10 10
    endloop
  endfacet
  facet normal 1 0 0
    outer loop
      vertex 70 10 0
      vertex 70 0 10
      vertex 70 0 0
    endloop
  endfacet
  facet normal -0 0 1
    outer loop
      vertex 60 10 10
      vertex 70 0 10
      vertex 70 10 10
    endloop
  endfacet
  facet normal 0 0 1
    outer loop
      vertex 70 0 10
      vertex 60 10 10
      vertex 60 0 10
    endloop
  endfacet
  facet normal 0 0 -1
    outer loop
      vertex 60 0 0
      vertex 70 10 0
      vertex 70 0 0
    endloop
  endfacet
  facet normal -0 0 -1
    outer loop
      vertex 70 10 0
      vertex 60 0 0
      vertex 60 10 0
    endloop
  endfacet
  facet normal -1 0 0
    outer loop
      vertex 60 0 0
      vertex 60 10 10
      vertex 60 10 0
    endloop
  endfacet
  facet normal -1 -0 0
    outer loop
      vertex 60 10 10
      vertex 60 0 0
      vertex 60 0 10
    endloop
  endfacet
  facet normal 0 1 -0
    outer loop
      vertex 70 10 0
      vertex 60 10 10
      vertex 70 10 10
    endloop
  endfacet
  facet normal 0 1 0
    outer loop
      vertex 60 10 10
      vertex 70 10 0
      vertex 60 10 0
    endloop
  endfacet
  facet normal 0 -1 0
    outer loop
      vertex 60 0 0
      vertex 70 0 10
      vertex 60 0 10
    endloop
  endfacet
  facet normal 0 -1 -0
    outer loop
      vertex 70 0 10
      vertex 60 0 0
      vertex 70 0 0
    endloop
  endfacet
  facet normal 1 -0 0
    outer loop
      vertex 70 20 10
      vertex 70 30 0
      vertex 70 30 10
    endloop
  endfacet
  facet normal 1 0 0
    outer loop
      vertex 70 30 0
      vertex 70 20 10
      vertex 70 20 0
    endloop
  endfacet
  facet normal -0 0 1
    outer loop
      vertex 60 30 10
      vertex 70 20 10
      vertex 70 30 10
    endloop
  endfacet
  facet normal 0 0 1
    outer loop
      vertex 70 20 10
      vertex 60 30 10
      vertex 60 20 10
    endloop
  endfacet
  facet normal 0 0 -1
    outer loop
      vertex 60 20 0
      vertex 70 30 0
      vertex 70 20 0
    endloop
  endfacet
  facet normal -0 0 -1
    outer loop
      vertex 70 30 0
      vertex 60 20 0
      vertex 60 30 0
    endloop
  endfacet
  facet normal -1 0 0
    outer loop
      vertex 60 20 0
      vertex 60 30 10
      vertex 60 30 0
    endloop
  endfacet
  facet normal -1 -0 0
    outer loop
      vertex 60 30 10
      vertex 60 20 0
      vertex 60 20 10
    endloop
  endfacet
  facet normal 0 1 -0
    outer loop
      vertex 70 30 0
      vertex 60 30 10
      vertex 70 30 10
    endloop
  endfacet
  facet normal 0 1 0
    outer loop
      vertex 60 30 10
      vertex 70 30 0
      vertex 60 30 0
    endloop
  endfacet
  facet normal 0 -1 0
    outer loop
      vertex 60 20 0
      vertex 70 20 10
      vertex 60 20 10
    endloop
  endfacet
  facet normal 0 -1 -0
    outer loop
      vertex 70 20 10
      vertex 60 20 0
      vertex 70 20 0
    endloop
  endfacet
  facet normal 1 -0 0
    outer loop
      vertex 70 40 10
      vertex 70 50 0
      vertex 70 50 10
    endloop
  endfacet
  facet normal 1 0 0
    outer loop
      vertex 70 50 0
      vertex 70 40 10
      vertex 70 40 0
    endloop
  endfacet
  facet normal -0 0 1
    outer loop
      vertex 60 50 10
      vertex 70 40 10
      vertex 70 50 10
    endloop
  endfacet
  facet normal 0 0 1
    outer loop
      vertex 70 40 10
      vertex 60 50 10
      vertex 60 40 10
    endloop
  endfacet
  facet normal 0 0 -1
    outer loop
      vertex 60 40 0
      vertex 70 50 0
      vertex 70 40 0
    endloop
  endfacet
  facet normal -0 0 -1
    outer loop
      vertex 70 50 0
      vertex 60 40 0
      vertex 60 50 0
    endloop
  endfacet
  facet normal -1 0 0
    outer loop
      vertex 60 40 0
      vertex 60 50 10
      vertex 60 50 0
    endloop
  endfacet
  facet normal -1 -0 0
    outer loop
      vertex 60 50 10
      vertex 60 40 0
      vertex 60 40 10
    endloop
  endfacet
  facet normal 0 1 -0
    outer loop
      vertex 70 50 0
      vertex 60 50 10
      vertex 70 50 10
    endloop
  endfacet
  facet normal 0 1 0
    outer loop
      vertex 60 50 10
      vertex 70 50 0
      vertex 60 50 0
    endloop
  endfacet
  facet normal 0 -1 0
    outer loop
      vertex 60 40 0
      vertex 70 40 10
      vertex 60 40 10
    endloop
  endfacet
  facet normal 0 -1 -0
    outer loop
      vertex 70 40 10
      vertex 60 40 0
      vertex 70 40 0
    endloop
  endfacet
  facet normal 1 -0 0
    outer loop
      vertex 70 60 10
      vertex 70 70 0
      vertex 70 70 10
    endloop
  endfacet
  facet normal 1 0 0
    outer loop
      vertex 70 70 0
      vertex 70 60 10
      vertex 70 60 0
    endloop
  endfacet
  facet normal -0 0 1
    outer loop
      vertex 60 70 10
      vertex 70 60 10
      vertex 70 70 10
    endloop
  endfacet
  facet normal 0 0 1
    outer loop
      vertex 70 60 10
      vertex 60 70 10
      vertex 60 60 10
    endloop
  endfacet
  facet normal 0 0 -1
    outer loop
      vertex 60 60 0
      vertex 70 70 0
      vertex 70 60 0
    endloop
  endfacet
  facet normal -0 0 -1
    outer loop
      vertex 70 70 0
      vertex 60 60 0
      vertex 60 70 0
    endloop
  endfacet
  facet normal -1 0 0
    outer loop
      vertex 60 60 0
      vertex 60 70 10
      vertex 60 70 0
    endloop
  endfacet
  facet normal -1 -0 0
    outer loop
      vertex 60 70 10
      vertex 60 60 0
      vertex 60 60 10
    endloop
  endfacet
  facet normal 0 1 -0
    outer loop
      vertex 70 70 0
      vertex 60 70 10
      vertex 70 70 10
    endloop
  endfacet
  facet normal 0 1 0
    outer loop
      vertex 60 70 10
      vertex 70 70 0
      vertex 60 70 0
    endloop
  endfacet
  facet normal 0 -1 0
    outer loop
      vertex 60 60 0
      vertex 70 60 10
      vertex 60 60 10
    endloop
  endfacet
  facet normal 0 -1 -0
    outer loop
      vertex 70 60 10
      vertex 60 60 0
      vertex 70 60 0
    endloop
  endfacet
  facet normal 1 -0 0
    outer loop
      vertex 70 80 10
      vertex 70 90 0
      vertex 70 90 10
    endloop
  endfacet
  facet normal 1 0 0
    outer loop
      vertex 70 90 0
      vertex 70 80 10
      vertex 70 80 0
    endloop
  endfacet
  facet normal -0 0 1
    outer loop
      vertex 60 90 10
      vertex 70 80 10
      vertex 70 90 10
    endloop
  endfacet
  facet normal 0 0 1
    outer loop
      vertex 70 80 10
      vertex 60 90 10
      vertex 60 80 10
    endloop
  endfacet
  facet normal 0 0 -1
    outer loop
      vertex 60 80 0
      vertex 70 90 0
      vertex 70 80 0
    endloop
  endfacet
  facet normal -0 0 -1
    outer loop
      vertex 70 90 0
      vertex 60 80 0
      vertex 60 90 0
    endloop
  endfacet
  facet normal -1 0 0
    outer loop
      vertex 60 80 0
      vertex 60 90 10
      vertex 60 90 0
    endloop
  endfacet
  facet normal -1 -0 0
    outer loop
      vertex 60 90 10
      vertex 60 80 0
      vertex 60 80 10
    endloop
  endfacet
  facet normal 0 1 -0
    outer loop
      vertex 70 90 0
      vertex 60 90 10
      vertex 70 90 10
    endloop
  endfacet
  facet normal 0 1 0
    outer loop
      vertex 60 90 10
      vertex 70 90 0
      vertex 60 90 0
    endloop
  endfacet
  facet normal 0 -1 0
    outer loop
      vertex 60 80 0
      vertex 70 80 10
      vertex 60 80 10
    endloop
  endfacet
  facet normal 0 -1 -0
    outer loop
      vertex 70 80 10
      vertex 60 80 0
      vertex 70 80 0
    endloop
  endfacet
  facet normal 1 -0 0
    outer loop
      vertex 70 100 10
      vertex 70 110 0
      vertex 70 110 10
    endloop
  endfacet
  facet normal 1 0 0
    outer loop
      vertex 70 110 0
      vertex 70 100 10
      vertex 70 100 0
    endloop
  endfacet
  facet normal -0 0 1
    outer loop
      vertex 60 110 10
      vertex 70 100 10
      vertex 70 110 10
    endloop
  endfacet
  facet normal 0 0 1
    outer loop
      vertex 70 100 10
      vertex 60 110 10
      vertex 60 100 10
    endloop
  endfacet
  facet normal 0 0 -1
    outer loop
      vertex 60 100 0
      vertex 70 110 0
      vertex 70 100 0
    endloop
  endfacet
  facet normal -0 0 -1
    outer loop
      vertex 70 110 0
      vertex 60 100 0
      vertex 60 110 0
    endloop
  endfacet
  facet normal -1 0 0
    outer loop
      vertex 60 100 0
      vertex 60 110 10
      vertex 60 110 0
    endloop
  endfacet
  facet normal -1 -0 0
    outer loop
      vertex 60 110 10
      vertex 60 100 0
      vertex 60 100 10
    endloop
  endfacet
  facet normal 0 1 -0
    outer loop
      vertex 70 110 0
      vertex 60 110 10
      vertex 70 110 10
    endloop
  endfacet
  facet normal 0 1 0
    outer loop
      vertex 60 110 10
      vertex 70 110 0
      vertex 60 110 0
    endloop
  endfacet
  facet normal 0 -1 0
    outer loop
      vertex 60 100 0
      vertex 70 100 10
      vertex 60 100 10
    endloop
  endfacet
  facet normal 0 -1 -0
    outer loop
      vertex 70 100 10
      vertex 60 100 0
      vertex 70 100 0
    endloop
  endfacet
  facet normal 1 -0 0
    outer loop
      vertex 90 0 10
      vertex 90 10 0
      vertex 90 10 10
    endloop
  endfacet
  facet normal 1 0 0
    outer loop
      vertex 90 10 0
      vertex 90 0 10
      vertex 90 0 0
    endloop
  endfacet
  facet normal -0 0 1
    outer loop
      vertex 80 10 10
      vertex 90 0 10
      vertex 90 10 10
    endloop
  endfacet
  facet normal 0 0 1
    outer loop
      vertex 90 0 10
      vertex 80 10 10
      vertex 80 0 10
    endloop
  endfacet
  facet normal 0 0 -1
    outer loop
      vertex 80 0 0
      vertex 90 10 0
      vertex 90 0 0
    endloop
  endfacet
  facet normal -0 0 -1
    outer loop
      vertex 90 10 0
      vertex 80 0 0
      vertex 80 10 0
    endloop
  endfacet
  facet normal -1 0 0
    outer loop
      vertex 80 0 0
      vertex 80 10 10
      vertex 80 10 0
    endloop
  endfacet
  facet normal -1 -0 0
    outer loop
      vertex 80 10 10
      vertex 80 0 0
      vertex 80 0 10
    endloop
  endfacet
  facet normal 0 1 -0
    outer loop
      vertex 90 10 0
      vertex 80 10 10
      vertex 90 10 10
    endloop
  endfacet
  facet normal 0 1 0
    outer loop
      vertex 80 10 10
      vertex 90 10 0
      vertex 80 10 0
    endloop
  endfacet
  facet normal 0 -1 0
    outer loop
      vertex 80 0 0
      vertex 90 0 10
      vertex 80 0 10
    endloop
  endfacet
  facet normal 0 -1 -0
    outer loop
      vertex 90 0 10
      vertex 80 0 0
      vertex 90 0 0
    endloop
  endfacet
  facet normal 1 -0 0
    outer loop
      vertex 90 20 10
      vertex 90 30 0
      vertex 90 30 10
    endloop
  endfacet
  facet normal 1 0 0
    outer loop
      vertex 90 30 0
      vertex 90 20 10
      vertex 90 20 0
    endloop
  endfacet
  facet normal -0 0 1
    outer loop
      vertex 80 30 10
      vertex 90 20 10
      vertex 90 30 10
    endloop
  endfacet
  facet normal 0 0 1
    outer loop
      vertex 90 20 10
      vertex 80 30 10
      vertex 80 20 10
    endloop
  endfacet
  facet normal 0 0 -1
    outer loop
      vertex 80 20 0
      vertex 90 30 0
      vertex 90 20 0
    endloop
  endfacet
  facet normal -0 0 -1
    outer loop
      vertex 90 30 0
      vertex 80 20 0
      vertex 80 30 0
    endloop
  endfacet
  facet normal -1 0 0
    outer loop
      vertex 80 20 0
      vertex 80 30 10
      vertex 80 30 0
    endloop
  endfacet
  facet normal -1 -0 0
    outer loop
      vertex 80 30 10
      vertex 80 20 0
      vertex 80 20 10
    endloop
  endfacet
  facet normal 0 1 -0
    outer loop
      vertex 90 30 0
      vertex 80 30 10
      vertex 90 30 10
    endloop
  endfacet
  facet normal 0 1 0
    outer loop
      vertex 80 30 10
      vertex 90 30 0
      vertex 80 30 0
    endloop
  endfacet
  facet normal 0 -1 0
    outer loop
      vertex 80 20 0
      vertex 90 20 10
      vertex 80 20 10
    endloop
  endfacet
  facet normal 0 -1 -0
    outer loop
      vertex 90 20 10
      vertex 80 20 0
      vertex 90 20 0
    endloop
  endfacet
  facet normal 1 -0 0
    outer loop
      vertex 90 40 10
      vertex 90 50 0
      vertex 90 50 10
    endloop
  endfacet
  facet normal 1 0 0
    outer loop
      vertex 90 50 0
      vertex 90 40 10
      vertex 90 40 0
    endloop
  endfacet
  facet normal -0 0 1
    outer loop
      vertex 80 50 10
      vertex 90 40 10
      vertex 90 50 10
    endloop
  endfacet
  facet normal 0 0 1
    outer loop
      vertex 90 40 10
      vertex 80 50 10
      vertex 80 40 10
    endloop
  endfacet
  facet normal 0 0 -1
    outer loop
      vertex 80 40 0
      vertex 90 50 0
      vertex 90 40 0
    endloop
  endfacet
  facet normal -0 0 -1
    outer loop
      vertex 90 50 0
      vertex 80 40 0
      vertex 80 50 0
    endloop
  endfacet
  facet normal -1 0 0
    outer loop
      vertex 80 40 0
      vertex 80 50 10
      vertex 80 50 0
    endloop
  endfacet
  facet normal -1 -0 0
    outer loop
      vertex 80 50 10
      vertex 80 40 0
      vertex 80 40 10
    endloop
  endfacet
  facet normal 0 1 -0
    outer loop
      vertex 90 50 0
      vertex 80 50 10
      vertex 90 50 10
    endloop
  endfacet
  facet normal 0 1 0
    outer loop
      vertex 80 50 10
      vertex 90 50 0
      vertex 80 50 0
    endloop
  endfacet
  facet normal 0 -1 0
    outer loop
      vertex 80 40 0
      vertex 90 40 10
      vertex 80 40 10
    endloop
  endfacet
  facet normal 0 -1 -0
    outer loop
      vertex 90 40 10
      vertex 80 40 0
      vertex 90 40 0
    endloop
  endfacet
  facet normal 1 -0 0
    outer loop
      vertex 90 60 10
      vertex 90 70 0
      vertex 90 70 10
    endloop
  endfacet
  facet normal 1 0 0
    outer loop
      vertex 90 70 0
      vertex 90 60 10
      vertex 90 60 0
    endloop
  endfacet
  facet normal -0 0 1
    outer loop
      vertex 80 70 10
      vertex 90 60 10
      vertex 90 70 10
    endloop
  endfacet
  facet normal 0 0 1
    outer loop
      vertex 90 60 10
      vertex 80 70 10
      vertex 80 60 10
    endloop
  endfacet
  facet normal 0 0 -1
    outer loop
      vertex 80 60 0
      vertex 90 70 0
      vertex 90 60 0
    endloop
  endfacet
  facet normal -0 0 -1
    outer loop
      vertex 90 70 0
      vertex 80 60 0
      vertex 80 70 0
    endloop
  endfacet
  facet normal -1 0 0
    outer loop
      vertex 80 60 0
      vertex 80 70 10
      vertex 80 70 0
    endloop
  endfacet
  facet normal -1 -0 0
    outer loop
      vertex 80 70 10
      vertex 80 60 0
      vertex 80 60 10
    endloop
  endfacet
  facet normal 0 1 -0
    outer loop
      vertex 90 70 0
      vertex 80 70 10
      vertex 90 70 10
    endloop
  endfacet
  facet normal 0 1 0
    outer loop
      vertex 80 70 10
      vertex 90 70 0
      vertex 80 70 0
    endloop
  endfacet
  facet normal 0 -1 0
    outer loop
      vertex 80 60 0
      vertex 90 60 10
      vertex 80 60 10
    endloop
  endfacet
  facet normal 0 -1 -0
    outer loop
      vertex 90 60 10
      vertex 80 60 0
      vertex 90 60 0
    endloop
  endfacet
  facet normal 1 -0 0
    outer loop
      vertex 90 80 10
      vertex 90 90 0
      vertex 90 90 10
    endloop
  endfacet
  facet normal 1 0 0
    outer loop
      vertex 90 90 0
      vertex 90 80 10
      vertex 90 80 0
    endloop
  endfacet
  facet normal -0 0 1
    outer loop
      vertex 80 90 10
      vertex 90 80 10
      vertex 90 90 10
    endloop
  endfacet
  facet normal 0 0 1
    outer loop
      vertex 90 80 10
      vertex 80 90 10
      vertex 80 80 10
    endloop
  endfacet
  facet normal 0 0 -1
    outer loop
      vertex 80 80 0
      vertex 90 90 0
      vertex 90 80 0
    endloop
  endfacet
  facet normal -0 0 -1
    outer loop
      vertex 90 90 0
      vertex 80 80 0
      vertex 80 90 0
    endloop
  endfacet
  facet normal -1 0 0
    outer loop
      vertex 80 80 0
      vertex 80 90 10
      vertex 80 90 0
    endloop
  endfacet
  facet normal -1 -0 0
    outer loop
      vertex 80 90 10
      vertex 80 80 0
      vertex 80 80 10
    endloop
  endfacet
  facet normal 0 1 -0
    outer loop
      vertex 90 90 0
      vertex 80 90 10
      vertex 90 90 10
    endloop
  endfacet
  facet normal 0 1 0
    outer loop
      vertex 80 90 10
      vertex 90 90 0
      vertex 80 90 0
    endloop
  endfacet
  facet normal 0 -1 0
    outer loop
      vertex 80 80 0
      vertex 90 80 10
      vertex 80 80 10
    endloop
  endfacet
  facet normal 0 -1 -0
    outer loop
      vertex 90 80 10
      vertex 80 80 0
      vertex 90 80 0
    endloop
  endfacet
  facet normal 1 -0 0
    outer loop
      vertex 90 100 10
      vertex 90 110 0
      vertex 90 110 10
    endloop
  endfacet
  facet normal 1 0 0
    outer loop
      vertex 90 110 0
      vertex 90 100 10
      vertex 90 100 0
    endloop
  endfacet
  facet normal -0 0 1
    outer loop
      vertex 80 110 10
      vertex 90 100 10
      vertex 90 110 10
    endloop
  endfacet
  facet normal 0 0 1
    outer loop
      vertex 90 100 10
      vertex 80 110 10
      vertex 80 100 10
    endloop
  endfacet
  facet normal 0 0 -1
    outer loop
      vertex 80 100 0
      vertex 90 110 0
      vertex 90 100 0
    endloop
  endfacet
  facet normal -0 0 -1
    outer loop
      vertex 90 110 0
      vertex 80 100 0
      vertex 80 110 0
    endloop
  endfacet
  facet normal -1 0 0
    outer loop
      vertex 80 100 0
      vertex 80 110 10
      vertex 80 110 0
    endloop
  endfacet
  facet normal -1 -0 0
    outer loop
      vertex 80 110 10
      vertex 80 100 0
      vertex 80 100 10
    endloop
  endfacet
  facet normal 0 1 -0
    outer loop
      vertex 90 110 0
      vertex 80 110 10
      vertex 90 110 10
    endloop
  endfacet
  facet normal 0 1 0
    outer loop
      vertex 80 110 10
      vertex 90 110 0
      vertex 80 110 0
    endloop
  endfacet
  facet normal 0 -1 0
    outer loop
      vertex 80 100 0
      vertex 90 100 10
      vertex 80 100 10
    endloop
  endfacet
  facet normal 0 -1 -0
    outer loop
      vertex 90 100 10
      vertex 80 100 0
      vertex 90 100 0
    endloop
  endfacet
  facet normal 1 -0 0
    outer loop
      vertex 110 0 10
      vertex 110 10 0
      vertex 110 10 10
    endloop
  endfacet
  facet normal 1 0 0
    outer loop
      vertex 110 10 0
      vertex 110 0 10
      vertex 110 0 0
    endloop
  endfacet
  facet normal -0 0 1
    outer loop
      vertex 100 10 10
      vertex 110 0 10
      vertex 110 10 10
    endloop
  endfacet
  facet normal 0 0 1
    outer loop
      vertex 110 0 10
      vertex 100 10 10
      vertex 100 0 10
    endloop
  endfacet
  facet normal 0 0 -1
    outer loop
      vertex 100 0 0
      vertex 110 10 0
      vertex 110 0 0
    endloop
  endfacet
  facet normal -0 0 -1
    outer loop
      vertex 110 10 0
      vertex 100 0 0
      vertex 100 10 0
    endloop
  endfacet
  facet normal -1 0 0
    outer loop
      vertex 100 0 0
      vertex 100 10 10
      vertex 100 10 0
    endloop
  endfacet
  facet normal -1 -0 0
    outer loop
      vertex 100 10 10
      vertex 100 0 0
      vertex 100 0 10
    endloop
  endfacet
  facet normal 0 1 -0
    outer loop
      vertex 110 10 0
      vertex 100 10 10
      vertex 110 10 10
    endloop
  endfacet
  facet normal 0 1 0
    outer loop
      vertex 100 10 10
      vertex 110 10 0
      vertex 100 10 0
    endloop
  endfacet
  facet normal 0 -1 0
    outer loop
      vertex 100 0 0
      vertex 110 0 10
      vertex 100 0 10
    endloop
  endfacet
  facet normal 0 -1 -0
    outer loop
      vertex 110 0 10
      vertex 100 0 0
      vertex 110 0 0
    endloop
  endfacet
  facet normal 1 -0 0
    outer loop
      vertex 110 20 10
      vertex 110 30 0
      vertex 110 30 10
    endloop
  endfacet
  facet normal 1 0 0
    outer loop
      vertex 110 30 0
      vertex 110 20 10
      vertex 110 20 0
    endloop
  endfacet
  facet normal -0 0 1
    outer loop
      vertex 100 30 10
      vertex 110 20 10
      vertex 110 30 10
    endloop
  endfacet
  facet normal 0 0 1
    outer loop
      vertex 110 20 10
      vertex 100 30 10
      vertex 100 20 10
    endloop
  endfacet
  facet normal 0 0 -1
    outer loop
      vertex 100 20 0
      vertex 110 30 0
      vertex 110 20 0
    endloop
  endfacet
  facet normal -0 0 -1
    outer loop
      vertex 110 30 0
      vertex 100 20 0
      vertex 100 30 0
    endloop
  endfacet
  facet normal -1 0 0
    outer loop
      vertex 100 20 0
      vertex 100 30 10
      vertex 100 30 0
    endloop
  endfacet
  facet normal -1 -0 0
    outer loop
      vertex 100 30 10
      vertex 100 20 0
      vertex 100 20 10
    endloop
  endfacet
  facet normal 0 1 -0
    outer loop
      vertex 110 30 0
      vertex 100 30 10
      vertex 110 30 10
    endloop
  endfacet
  facet normal 0 1 0
    outer loop
      vertex 100 30 10
      vertex 110 30 0
      vertex 100 30 0
    endloop
  endfacet
  facet normal 0 -1 0
    outer loop
      vertex 100 20 0
      vertex 110 20 10
      vertex 100 20 10
    endloop
  endfacet
  facet normal 0 -1 -0
    outer loop
      vertex 110 20 10
      vertex 100 20 0
      vertex 110 20 0
    endloop
  endfacet
  facet normal 1 -0 0
    outer loop
      vertex 110 40 10
      vertex 110 50 0
      vertex 110 50 10
    endloop
  endfacet
  facet normal 1 0 0
    outer loop
      vertex 110 50 0
      vertex 110 40 10
      vertex 110 40 0
    endloop
  endfacet
  facet normal -0 0 1
    outer loop
      vertex 100 50 10
      vertex 110 40 10
      vertex 110 50 10
    endloop
  endfacet
  facet normal 0 0 1
    outer loop
      vertex 110 40 10
      vertex 100 50 10
      vertex 100 40 10
    endloop
  endfacet
  facet normal 0 0 -1
    outer loop
      vertex 100 40 0
      vertex 110 50 0
      vertex 110 40 0
    endloop
  endfacet
  facet normal -0 0 -1
    outer loop
      vertex 110 50 0
      vertex 100 40 0
      vertex 100 50 0
    endloop
  endfacet
  facet normal -1 0 0
    outer loop
      vertex 100 40 0
      vertex 100 50 10
      vertex 100 50 0
    endloop
  endfacet
  facet normal -1 -0 0
    outer loop
      vertex 100 50 10
      vertex 100 40 0
      vertex 100 40 10
    endloop
  endfacet
  facet normal 0 1 -0
    outer loop
      vertex 110 50 0
      vertex 100 50 10
      vertex 110 50 10
    endloop
  endfacet
  facet normal 0 1 0
    outer loop
      vertex 100 50 10
      vertex 110 50 0
      vertex 100 50 0
    endloop
  endfacet
  facet normal 0 -1 0
    outer loop
      vertex 100 40 0
      vertex 110 40 10
      vertex 100 40 10
    endloop
  endfacet
  facet normal 0 -1 -0
    outer loop
      vertex 110 40 10
      vertex 100 40 0
      vertex 110 40 0
    endloop
  endfacet
  facet normal 1 -0 0
    outer loop
      vertex 110 60 10
      vertex 110 70 0
      vertex 110 70 10
    endloop
  endfacet
  facet normal 1 0 0
    outer loop
      vertex 110 70 0
      vertex 110 60 10
      vertex 110 60 0
    endloop
  endfacet
  facet normal -0 0 1
    outer loop
      vertex 100 70 10
      vertex 110 60 10
      vertex 110 70 10
    endloop
  endfacet
  facet normal 0 0 1
    outer loop
      vertex 110 60 10
      vertex 100 70 10
      vertex 100 60 10
    endloop
  endfacet
  facet normal 0 0 -1
    outer loop
      vertex 100 60 0
      vertex 110 70 0
      vertex 110 60 0
    endloop
  endfacet
  facet normal -0 0 -1
    outer loop
      vertex 110 70 0
      vertex 100 60 0
      vertex 100 70 0
    endloop
  endfacet
  facet normal -1 0 0
    outer loop
      vertex 100 60 0
      vertex 100 70 10
      vertex 100 70 0
    endloop
  endfacet
  facet normal -1 -0 0
    outer loop
      vertex 100 70 10
      vertex 100 60 0
      vertex 100 60 10
    endloop
  endfacet
  facet normal 0 1 -0
    outer loop
      vertex 110 70 0
      vertex 100 70 10
      vertex 110 70 10
    endloop
  endfacet
  facet normal 0 1 0
    outer loop
      vertex 100 70 10
      vertex 110 70 0
      vertex 100 70 0
    endloop
  endfacet
  facet normal 0 -1 0
    outer loop
      vertex 100 60 0
      vertex 110 60 10
      vertex 100 60 10
    endloop
  endfacet
  facet normal 0 -1 -0
    outer loop
      vertex 110 60 10
      vertex 100 60 0
      vertex 110 60 0
    endloop
  endfacet
  facet normal 1 -0 0
    outer loop
      vertex 110 80 10
      vertex 110 90 0
      vertex 110 90 10
    endloop
  endfacet
  facet normal 1 0 0
    outer loop
      vertex 110 90 0
      vertex 110 80 10
      vertex 110 80 0
    endloop
  endfacet
  facet normal -0 0 1
    outer loop
      vertex 100 90 10
      vertex 110 80 10
      vertex 110 90 10
    endloop
  endfacet
  facet normal 0 0 1
    outer loop
      vertex 110 80 10
      vertex 100 90 10
      vertex 100 80 10
    endloop
  endfacet
  facet normal 0 0 -1
    outer loop
      vertex 100 80 0
      vertex 110 90 0
      vertex 110 80 0
    endloop
  endfacet
  facet normal -0 0 -1
    outer loop
      vertex 110 90 0
      vertex 100 80 0
      vertex 100 90 0
    endloop
  endfacet
  facet normal -1 0 0
    outer loop
      vertex 100 80 0
      vertex 100 90 10
      vertex 100 90 0
    endloop
  endfacet
  facet normal -1 -0 0
    outer loop
      vertex 100 90 10
      vertex 100 80 0
      vertex 100 80 10
    endloop
  endfacet
  facet normal 0 1 -0
    outer loop
      vertex 110 90 0
      vertex 100 90 10
      vertex 110 90 10
    endloop
  endfacet
  facet normal 0 1 0
    outer loop
      vertex 100 90 10
      vertex 110 90 0
      vertex 100 90 0
    endloop
  endfacet
  facet normal 0 -1 0
    outer loop
      vertex 100 80 0
      vertex 110 80 10
      vertex 100 80 10
    endloop
  endfacet
  facet normal 0 -1 -0
    outer loop
      vertex 110 80 10
      vertex 100 80 0
      vertex 110 80 0
    endloop
  endfacet
  facet normal 1 -0 0
    outer loop
      vertex 110 100 10
      vertex 110 110 0
      vertex 110 110 10
    endloop
  endfacet
  facet normal 1 0 0
    outer loop
      vertex 110 110 0
      vertex 110 100 10
      vertex 110 100 0
    endloop
  endfacet
  facet normal -0 0 1
    outer loop
      vertex 100 110 10
      vertex 110 100 10
      vertex 110 110 10
    endloop
  endfacet
  facet normal 0 0 1
    outer loop
      vertex 110 100 10
      vertex 100 110 10
      vertex 100 100 10
    endloop
  endfacet
  facet normal 0 0 -1
    outer loop
      vertex 100 100 0
      vertex 110 110 0
      vertex 110 100 0
    endloop
  endfacet
  facet normal -0 0 -1
    outer loop
      vertex 110 110 0
      vertex 100 100 0
      vertex 100 110 0
    endloop
  endfacet
  facet normal -1 0 0
    outer loop
      vertex 100 100 0
      vertex 100 110 10
      vertex 100 110 0
    endloop
  endfacet
  facet normal -1 -0 0
    outer loop
      vertex 100 110 10
      vertex 100 100 0
      vertex 100 100 10
    endloop
  endfacet
  facet normal 0 1 -0
    outer loop
      vertex 110 110 0
      vertex 100 110 10
      vertex 110 110 10
    endloop
  endfacet
  facet normal 0 1 0
    outer loop
      vertex 100 110 10
      vertex 110 110 0
      vertex 100 110 0
    endloop
  endfacet
  facet normal 0 -1 0
    outer loop
      vertex 100 100 0
      vertex 110 100 10
      vertex 100 100 10
    endloop
  endfacet
  facet normal 0 -1 -0
    outer loop
      vertex 110 100 10
      vertex 100 100 0
      vertex 110 100 0
    endloop
  endfacet
endsolid OpenSCAD_Model
