solid OpenSCAD_Model
  facet normal 1 -0 0
    outer loop
      vertex 20 0 20
      vertex 20 20 0
      vertex 20 20 20
    endloop
  endfacet
  facet normal 1 0 0
    outer loop
      vertex 20 20 0
      vertex 20 0 20
      vertex 20 0 0
    endloop
  endfacet
  facet normal -0 0 1
    outer loop
      vertex 0 20 20
      vertex 20 0 20
      vertex 20 20 20
    endloop
  endfacet
  facet normal 0 0 1
    outer loop
      vertex 20 0 20
      vertex 0 20 20
      vertex 0 0 20
    endloop
  endfacet
  facet normal 0 0 -1
    outer loop
      vertex 0 0 0
      vertex 20 20 0
      vertex 20 0 0
    endloop
  endfacet
  facet normal -0 0 -1
    outer loop
      vertex 20 20 0
      vertex 0 0 0
      vertex 0 20 0
    endloop
  endfacet
  facet normal -1 0 0
    outer loop
      vertex 0 0 0
      vertex 0 20 20
      vertex 0 20 0
    endloop
  endfacet
  facet normal -1 -0 0
    outer loop
      vertex 0 20 20
      vertex 0 0 0
      vertex 0 0 20
    endloop
  endfacet
  facet normal 0 1 -0
    outer loop
      vertex 20 20 0
      vertex 0 20 20
      vertex 20 20 20
    endloop
  endfacet
  facet normal 0 1 0
    outer loop
      vertex 0 20 20
      vertex 20 20 0
      vertex 0 20 0
    endloop
  endfacet
  facet normal 0 -1 0
    outer loop
      vertex 0 0 0
      vertex 20 0 20
      vertex 0 0 20
    endloop
  endfacet
  facet normal 0 -1 -0
    outer loop
      vertex 20 0 20
      vertex 0 0 0
      vertex 20 0 0
    endloop
  endfacet
  facet normal 0.561583 -0.772953 -0.295242
    outer loop
      vertex 3.07295 6.85317 4
      vertex 3.25 6.30826 5.76336
      vertex 2.03647 5.42658 5.76336
    endloop
  endfacet
  facet normal 0.561583 -0.772953 0.295242
    outer loop
      vertex 3.25 6.30826 2.23664
      vertex 3.07295 6.85317 4
      vertex 2.03647 5.42658 2.23664
    endloop
  endfacet
  facet normal -0.561582 0.772954 -0.295242
    outer loop
      vertex 5.96352 2.57341 5.76336
      vertex 6.42705 2.23664 4
      vertex 4.92705 1.14683 4
    endloop
  endfacet
  facet normal 0.577349 0.187589 -0.794656
    outer loop
      vertex 3.07295 4 6.85317
      vertex 2.03647 2.57341 5.76336
      vertex 1.57295 4 5.76336
    endloop
  endfacet
  facet normal 0 -0.955422 0.295243
    outer loop
      vertex 3.25 6.30826 2.23664
      vertex 4.92705 6.85317 4
      vertex 3.07295 6.85317 4
    endloop
  endfacet
  facet normal 0 -0.955422 0.295243
    outer loop
      vertex 4.92705 6.85317 4
      vertex 3.25 6.30826 2.23664
      vertex 4.75 6.30826 2.23664
    endloop
  endfacet
  facet normal -0.356824 -0.491123 -0.794654
    outer loop
      vertex 4.75 6.30826 5.76336
      vertex 5.96352 5.42658 5.76336
      vertex 4.75 4.54491 6.85317
    endloop
  endfacet
  facet normal 0 -0.955422 -0.295243
    outer loop
      vertex 3.07295 6.85317 4
      vertex 4.75 6.30826 5.76336
      vertex 3.25 6.30826 5.76336
    endloop
  endfacet
  facet normal 0 -0.955422 -0.295243
    outer loop
      vertex 4.75 6.30826 5.76336
      vertex 3.07295 6.85317 4
      vertex 4.92705 6.85317 4
    endloop
  endfacet
  facet normal 0.561578 0.772956 0.295243
    outer loop
      vertex 3.07295 1.14683 4
      vertex 3.25 1.69174 2.23664
      vertex 2.03647 2.57341 2.23664
    endloop
  endfacet
  facet normal -0.577349 0.18759 0.794656
    outer loop
      vertex 6.42705 4 2.23664
      vertex 4.92705 4 1.14683
      vertex 4.75 3.45509 1.14683
    endloop
  endfacet
  facet normal -0.908659 -0.295245 0.295245
    outer loop
      vertex 6.42705 4 2.23664
      vertex 6.42705 5.76336 4
      vertex 5.96352 5.42658 2.23664
    endloop
  endfacet
  facet normal 0.561583 0.772955 0.295239
    outer loop
      vertex 3.07295 1.14683 4
      vertex 2.03647 2.57341 2.23664
      vertex 1.57295 2.23664 4
    endloop
  endfacet
  facet normal 0.561578 0.772956 -0.295243
    outer loop
      vertex 3.25 1.69174 5.76336
      vertex 3.07295 1.14683 4
      vertex 2.03647 2.57341 5.76336
    endloop
  endfacet
  facet normal -0.561582 0.772954 -0.295242
    outer loop
      vertex 5.96352 2.57341 5.76336
      vertex 4.92705 1.14683 4
      vertex 4.75 1.69174 5.76336
    endloop
  endfacet
  facet normal -0.561582 0.772954 0.295242
    outer loop
      vertex 6.42705 2.23664 4
      vertex 5.96352 2.57341 2.23664
      vertex 4.92705 1.14683 4
    endloop
  endfacet
  facet normal -0.561586 -0.772951 -0.295242
    outer loop
      vertex 4.92705 6.85317 4
      vertex 5.96352 5.42658 5.76336
      vertex 4.75 6.30826 5.76336
    endloop
  endfacet
  facet normal -0.908661 0.295241 -0.295243
    outer loop
      vertex 7 4 4
      vertex 6.42705 2.23664 4
      vertex 5.96352 2.57341 5.76336
    endloop
  endfacet
  facet normal -0.561581 -0.772953 -0.295246
    outer loop
      vertex 6.42705 5.76336 4
      vertex 5.96352 5.42658 5.76336
      vertex 4.92705 6.85317 4
    endloop
  endfacet
  facet normal -0.356824 -0.491123 0.794654
    outer loop
      vertex 5.96352 5.42658 2.23664
      vertex 4.75 6.30826 2.23664
      vertex 4.75 4.54491 1.14683
    endloop
  endfacet
  facet normal 0.577349 -0.187591 0.794656
    outer loop
      vertex 3.07295 4 1.14683
      vertex 2.03647 5.42658 2.23664
      vertex 1.57295 4 2.23664
    endloop
  endfacet
  facet normal -0.356821 0.491124 -0.794655
    outer loop
      vertex 4.75 3.45509 6.85317
      vertex 5.96352 2.57341 5.76336
      vertex 4.75 1.69174 5.76336
    endloop
  endfacet
  facet normal 0.561583 0.772955 -0.295239
    outer loop
      vertex 2.03647 2.57341 5.76336
      vertex 3.07295 1.14683 4
      vertex 1.57295 2.23664 4
    endloop
  endfacet
  facet normal -0.90866 0.295243 0.295241
    outer loop
      vertex 7 4 4
      vertex 6.42705 4 2.23664
      vertex 5.96352 2.57341 2.23664
    endloop
  endfacet
  facet normal -0.908661 -0.295242 0.295242
    outer loop
      vertex 7 4 4
      vertex 6.42705 5.76336 4
      vertex 6.42705 4 2.23664
    endloop
  endfacet
  facet normal -0.561581 -0.772953 0.295246
    outer loop
      vertex 5.96352 5.42658 2.23664
      vertex 6.42705 5.76336 4
      vertex 4.92705 6.85317 4
    endloop
  endfacet
  facet normal -0.57735 -0.187595 -0.794654
    outer loop
      vertex 5.96352 5.42658 5.76336
      vertex 6.42705 4 5.76336
      vertex 4.75 4.54491 6.85317
    endloop
  endfacet
  facet normal -0.577349 -0.18759 -0.794656
    outer loop
      vertex 6.42705 4 5.76336
      vertex 4.92705 4 6.85317
      vertex 4.75 4.54491 6.85317
    endloop
  endfacet
  facet normal -0.908659 -0.295245 -0.295245
    outer loop
      vertex 6.42705 5.76336 4
      vertex 6.42705 4 5.76336
      vertex 5.96352 5.42658 5.76336
    endloop
  endfacet
  facet normal -0.908661 -0.295242 -0.295242
    outer loop
      vertex 6.42705 5.76336 4
      vertex 7 4 4
      vertex 6.42705 4 5.76336
    endloop
  endfacet
  facet normal 0.908663 0.295238 -0.295238
    outer loop
      vertex 1.57295 4 5.76336
      vertex 2.03647 2.57341 5.76336
      vertex 1.57295 2.23664 4
    endloop
  endfacet
  facet normal -0.356818 -0.491124 -0.794656
    outer loop
      vertex 4.75 6.30826 5.76336
      vertex 4.75 4.54491 6.85317
      vertex 4.28647 4.88168 6.85317
    endloop
  endfacet
  facet normal 0 0.955422 0.295243
    outer loop
      vertex 4.75 1.69174 2.23664
      vertex 3.07295 1.14683 4
      vertex 4.92705 1.14683 4
    endloop
  endfacet
  facet normal 0 0.955422 0.295243
    outer loop
      vertex 3.07295 1.14683 4
      vertex 4.75 1.69174 2.23664
      vertex 3.25 1.69174 2.23664
    endloop
  endfacet
  facet normal -0.908661 0.295241 0.295243
    outer loop
      vertex 6.42705 2.23664 4
      vertex 7 4 4
      vertex 5.96352 2.57341 2.23664
    endloop
  endfacet
  facet normal 0.356824 -0.491121 0.794655
    outer loop
      vertex 3.25 4.54491 1.14683
      vertex 3.71352 4.88168 1.14683
      vertex 2.03647 5.42658 2.23664
    endloop
  endfacet
  facet normal 0.57735 -0.18759 -0.794656
    outer loop
      vertex 3.25 4.54491 6.85317
      vertex 3.07295 4 6.85317
      vertex 2.03647 5.42658 5.76336
    endloop
  endfacet
  facet normal 0.561582 -0.772954 0.295243
    outer loop
      vertex 2.03647 5.42658 2.23664
      vertex 3.07295 6.85317 4
      vertex 1.57295 5.76336 4
    endloop
  endfacet
  facet normal 0.356822 -0.491124 0.794654
    outer loop
      vertex 3.71352 4.88168 1.14683
      vertex 3.25 6.30826 2.23664
      vertex 2.03647 5.42658 2.23664
    endloop
  endfacet
  facet normal 0 0.607062 -0.794655
    outer loop
      vertex 4.75 1.69174 5.76336
      vertex 3.71352 3.11832 6.85317
      vertex 4.28647 3.11832 6.85317
    endloop
  endfacet
  facet normal 0 0.607062 -0.794655
    outer loop
      vertex 3.71352 3.11832 6.85317
      vertex 4.75 1.69174 5.76336
      vertex 3.25 1.69174 5.76336
    endloop
  endfacet
  facet normal -0.90866 0.295243 -0.295241
    outer loop
      vertex 6.42705 4 5.76336
      vertex 7 4 4
      vertex 5.96352 2.57341 5.76336
    endloop
  endfacet
  facet normal 0.356822 0.49112 -0.794657
    outer loop
      vertex 3.25 3.45509 6.85317
      vertex 3.71352 3.11832 6.85317
      vertex 2.03647 2.57341 5.76336
    endloop
  endfacet
  facet normal 0.356819 0.491125 -0.794655
    outer loop
      vertex 3.71352 3.11832 6.85317
      vertex 3.25 1.69174 5.76336
      vertex 2.03647 2.57341 5.76336
    endloop
  endfacet
  facet normal -0 0.607062 0.794655
    outer loop
      vertex 3.71352 3.11832 1.14683
      vertex 4.75 1.69174 2.23664
      vertex 4.28647 3.11832 1.14683
    endloop
  endfacet
  facet normal 0 0.607062 0.794655
    outer loop
      vertex 4.75 1.69174 2.23664
      vertex 3.71352 3.11832 1.14683
      vertex 3.25 1.69174 2.23664
    endloop
  endfacet
  facet normal 0.356824 -0.491121 -0.794655
    outer loop
      vertex 3.71352 4.88168 6.85317
      vertex 3.25 4.54491 6.85317
      vertex 2.03647 5.42658 5.76336
    endloop
  endfacet
  facet normal -0.561586 -0.772951 0.295242
    outer loop
      vertex 5.96352 5.42658 2.23664
      vertex 4.92705 6.85317 4
      vertex 4.75 6.30826 2.23664
    endloop
  endfacet
  facet normal 0.57735 -0.18759 0.794656
    outer loop
      vertex 3.07295 4 1.14683
      vertex 3.25 4.54491 1.14683
      vertex 2.03647 5.42658 2.23664
    endloop
  endfacet
  facet normal -0.356821 0.491124 0.794655
    outer loop
      vertex 5.96352 2.57341 2.23664
      vertex 4.75 3.45509 1.14683
      vertex 4.75 1.69174 2.23664
    endloop
  endfacet
  facet normal 0.577349 0.187589 0.794656
    outer loop
      vertex 2.03647 2.57341 2.23664
      vertex 3.07295 4 1.14683
      vertex 1.57295 4 2.23664
    endloop
  endfacet
  facet normal 0.908663 0.295238 0.295238
    outer loop
      vertex 2.03647 2.57341 2.23664
      vertex 1.57295 4 2.23664
      vertex 1.57295 2.23664 4
    endloop
  endfacet
  facet normal 0 0 -1
    outer loop
      vertex 4.75 3.45509 6.85317
      vertex 4.75 4.54491 6.85317
      vertex 4.92705 4 6.85317
    endloop
  endfacet
  facet normal 0 0 -1
    outer loop
      vertex 4.28647 3.11832 6.85317
      vertex 4.75 4.54491 6.85317
      vertex 4.75 3.45509 6.85317
    endloop
  endfacet
  facet normal 0 0 -1
    outer loop
      vertex 4.28647 3.11832 6.85317
      vertex 4.28647 4.88168 6.85317
      vertex 4.75 4.54491 6.85317
    endloop
  endfacet
  facet normal 0 0 -1
    outer loop
      vertex 3.71352 3.11832 6.85317
      vertex 4.28647 4.88168 6.85317
      vertex 4.28647 3.11832 6.85317
    endloop
  endfacet
  facet normal 0 0 -1
    outer loop
      vertex 3.71352 3.11832 6.85317
      vertex 3.71352 4.88168 6.85317
      vertex 4.28647 4.88168 6.85317
    endloop
  endfacet
  facet normal 0 0 -1
    outer loop
      vertex 3.25 3.45509 6.85317
      vertex 3.71352 4.88168 6.85317
      vertex 3.71352 3.11832 6.85317
    endloop
  endfacet
  facet normal 0 0 -1
    outer loop
      vertex 3.25 3.45509 6.85317
      vertex 3.25 4.54491 6.85317
      vertex 3.71352 4.88168 6.85317
    endloop
  endfacet
  facet normal 0 -0 -1
    outer loop
      vertex 3.25 4.54491 6.85317
      vertex 3.25 3.45509 6.85317
      vertex 3.07295 4 6.85317
    endloop
  endfacet
  facet normal 0.577349 0.18759 -0.794656
    outer loop
      vertex 3.07295 4 6.85317
      vertex 3.25 3.45509 6.85317
      vertex 2.03647 2.57341 5.76336
    endloop
  endfacet
  facet normal -0.57735 0.187593 -0.794655
    outer loop
      vertex 6.42705 4 5.76336
      vertex 5.96352 2.57341 5.76336
      vertex 4.75 3.45509 6.85317
    endloop
  endfacet
  facet normal -0.577349 0.18759 -0.794656
    outer loop
      vertex 4.92705 4 6.85317
      vertex 6.42705 4 5.76336
      vertex 4.75 3.45509 6.85317
    endloop
  endfacet
  facet normal 0 0.955422 -0.295243
    outer loop
      vertex 4.92705 1.14683 4
      vertex 3.25 1.69174 5.76336
      vertex 4.75 1.69174 5.76336
    endloop
  endfacet
  facet normal 0 0.955422 -0.295243
    outer loop
      vertex 3.25 1.69174 5.76336
      vertex 4.92705 1.14683 4
      vertex 3.07295 1.14683 4
    endloop
  endfacet
  facet normal -0.356818 0.491124 0.794656
    outer loop
      vertex 4.75 1.69174 2.23664
      vertex 4.75 3.45509 1.14683
      vertex 4.28647 3.11832 1.14683
    endloop
  endfacet
  facet normal 0.908662 -0.29524 0.29524
    outer loop
      vertex 2.03647 5.42658 2.23664
      vertex 1.57295 5.76336 4
      vertex 1.57295 4 2.23664
    endloop
  endfacet
  facet normal 0.577349 -0.187591 -0.794656
    outer loop
      vertex 2.03647 5.42658 5.76336
      vertex 3.07295 4 6.85317
      vertex 1.57295 4 5.76336
    endloop
  endfacet
  facet normal -0.57735 -0.187595 0.794654
    outer loop
      vertex 6.42705 4 2.23664
      vertex 5.96352 5.42658 2.23664
      vertex 4.75 4.54491 1.14683
    endloop
  endfacet
  facet normal -0.577349 -0.18759 0.794656
    outer loop
      vertex 4.92705 4 1.14683
      vertex 6.42705 4 2.23664
      vertex 4.75 4.54491 1.14683
    endloop
  endfacet
  facet normal -0.561582 0.772954 0.295242
    outer loop
      vertex 4.92705 1.14683 4
      vertex 5.96352 2.57341 2.23664
      vertex 4.75 1.69174 2.23664
    endloop
  endfacet
  facet normal -0.57735 0.187593 0.794655
    outer loop
      vertex 5.96352 2.57341 2.23664
      vertex 6.42705 4 2.23664
      vertex 4.75 3.45509 1.14683
    endloop
  endfacet
  facet normal 0.356822 0.49112 0.794657
    outer loop
      vertex 3.71352 3.11832 1.14683
      vertex 3.25 3.45509 1.14683
      vertex 2.03647 2.57341 2.23664
    endloop
  endfacet
  facet normal 0 -0.607062 0.794655
    outer loop
      vertex 4.75 6.30826 2.23664
      vertex 3.71352 4.88168 1.14683
      vertex 4.28647 4.88168 1.14683
    endloop
  endfacet
  facet normal 0 -0.607062 0.794655
    outer loop
      vertex 3.71352 4.88168 1.14683
      vertex 4.75 6.30826 2.23664
      vertex 3.25 6.30826 2.23664
    endloop
  endfacet
  facet normal 0.908661 -0.295242 0.295242
    outer loop
      vertex 1.57295 4 2.23664
      vertex 1.57295 5.76336 4
      vertex 1 4 4
    endloop
  endfacet
  facet normal 0.908661 0.295242 0.295242
    outer loop
      vertex 1.57295 2.23664 4
      vertex 1.57295 4 2.23664
      vertex 1 4 4
    endloop
  endfacet
  facet normal 0.356822 -0.491124 -0.794654
    outer loop
      vertex 3.25 6.30826 5.76336
      vertex 3.71352 4.88168 6.85317
      vertex 2.03647 5.42658 5.76336
    endloop
  endfacet
  facet normal 0 -0.607062 -0.794655
    outer loop
      vertex 3.71352 4.88168 6.85317
      vertex 4.75 6.30826 5.76336
      vertex 4.28647 4.88168 6.85317
    endloop
  endfacet
  facet normal -0 -0.607062 -0.794655
    outer loop
      vertex 4.75 6.30826 5.76336
      vertex 3.71352 4.88168 6.85317
      vertex 3.25 6.30826 5.76336
    endloop
  endfacet
  facet normal -0.356818 -0.491124 0.794656
    outer loop
      vertex 4.75 4.54491 1.14683
      vertex 4.75 6.30826 2.23664
      vertex 4.28647 4.88168 1.14683
    endloop
  endfacet
  facet normal 0.356819 0.491125 0.794655
    outer loop
      vertex 3.25 1.69174 2.23664
      vertex 3.71352 3.11832 1.14683
      vertex 2.03647 2.57341 2.23664
    endloop
  endfacet
  facet normal -0.356818 0.491124 -0.794656
    outer loop
      vertex 4.75 3.45509 6.85317
      vertex 4.75 1.69174 5.76336
      vertex 4.28647 3.11832 6.85317
    endloop
  endfacet
  facet normal 0.908661 -0.295242 -0.295242
    outer loop
      vertex 1.57295 5.76336 4
      vertex 1.57295 4 5.76336
      vertex 1 4 4
    endloop
  endfacet
  facet normal 0.908661 0.295242 -0.295242
    outer loop
      vertex 1.57295 4 5.76336
      vertex 1.57295 2.23664 4
      vertex 1 4 4
    endloop
  endfacet
  facet normal 0.561582 -0.772954 -0.295243
    outer loop
      vertex 3.07295 6.85317 4
      vertex 2.03647 5.42658 5.76336
      vertex 1.57295 5.76336 4
    endloop
  endfacet
  facet normal 0.908662 -0.29524 -0.29524
    outer loop
      vertex 1.57295 5.76336 4
      vertex 2.03647 5.42658 5.76336
      vertex 1.57295 4 5.76336
    endloop
  endfacet
  facet normal 0.577349 0.18759 0.794656
    outer loop
      vertex 3.25 3.45509 1.14683
      vertex 3.07295 4 1.14683
      vertex 2.03647 2.57341 2.23664
    endloop
  endfacet
  facet normal 0 0 1
    outer loop
      vertex 4.75 4.54491 1.14683
      vertex 4.75 3.45509 1.14683
      vertex 4.92705 4 1.14683
    endloop
  endfacet
  facet normal 0 0 1
    outer loop
      vertex 4.28647 4.88168 1.14683
      vertex 4.75 3.45509 1.14683
      vertex 4.75 4.54491 1.14683
    endloop
  endfacet
  facet normal 0 0 1
    outer loop
      vertex 4.28647 4.88168 1.14683
      vertex 4.28647 3.11832 1.14683
      vertex 4.75 3.45509 1.14683
    endloop
  endfacet
  facet normal -0 0 1
    outer loop
      vertex 3.71352 4.88168 1.14683
      vertex 4.28647 3.11832 1.14683
      vertex 4.28647 4.88168 1.14683
    endloop
  endfacet
  facet normal 0 0 1
    outer loop
      vertex 3.71352 4.88168 1.14683
      vertex 3.71352 3.11832 1.14683
      vertex 4.28647 3.11832 1.14683
    endloop
  endfacet
  facet normal -0 0 1
    outer loop
      vertex 3.25 4.54491 1.14683
      vertex 3.71352 3.11832 1.14683
      vertex 3.71352 4.88168 1.14683
    endloop
  endfacet
  facet normal 0 0 1
    outer loop
      vertex 3.25 4.54491 1.14683
      vertex 3.25 3.45509 1.14683
      vertex 3.71352 3.11832 1.14683
    endloop
  endfacet
  facet normal 0 -0 1
    outer loop
      vertex 3.25 3.45509 1.14683
      vertex 3.25 4.54491 1.14683
      vertex 3.07295 4 1.14683
    endloop
  endfacet
endsolid OpenSCAD_Model
