solid OpenSCAD_Model
  facet normal 1 -0 0
    outer loop
      vertex 10 0 10
      vertex 10 10 0
      vertex 10 10 10
    endloop
  endfacet
  facet normal 1 0 0
    outer loop
      vertex 10 10 0
      vertex 10 0 10
      vertex 10 0 0
    endloop
  endfacet
  facet normal -0 0 1
    outer loop
      vertex 0 10 10
      vertex 10 0 10
      vertex 10 10 10
    endloop
  endfacet
  facet normal 0 0 1
    outer loop
      vertex 10 0 10
      vertex 0 10 10
      vertex 0 0 10
    endloop
  endfacet
  facet normal 0 0 -1
    outer loop
      vertex 1.15206 1.44464 0
      vertex 10 0 0
      vertex 1.84776 0 0
    endloop
  endfacet
  facet normal 0 0 -1
    outer loop
      vertex 10 0 0
      vertex 1.15206 1.44464 0
      vertex 10 10 0
    endloop
  endfacet
  facet normal 0 0 -1
    outer loop
      vertex 0 10 0
      vertex 1.15206 1.44464 0
      vertex 0 1.70759 0
    endloop
  endfacet
  facet normal 0 0 -1
    outer loop
      vertex 1.15206 1.44464 0
      vertex 0 10 0
      vertex 10 10 0
    endloop
  endfacet
  facet normal -1 0 0
    outer loop
      vertex 0 1.70759 0.765367
      vertex 0 10 0
      vertex 0 1.70759 0
    endloop
  endfacet
  facet normal -1 0 0
    outer loop
      vertex 0 10 0
      vertex 0 1.70759 0.765367
      vertex 0 10 10
    endloop
  endfacet
  facet normal -1 0 0
    outer loop
      vertex 0 1.24462 1.26633
      vertex 0 10 10
      vertex 0 1.70759 0.765367
    endloop
  endfacet
  facet normal -1 0 0
    outer loop
      vertex 0 0.707305 1.84776
      vertex 0 10 10
      vertex 0 1.24462 1.26633
    endloop
  endfacet
  facet normal -1 0 0
    outer loop
      vertex 0 0 10
      vertex 0 0.707305 1.84776
      vertex 0 0 1.84776
    endloop
  endfacet
  facet normal -1 0 0
    outer loop
      vertex 0 0.707305 1.84776
      vertex 0 0 10
      vertex 0 10 10
    endloop
  endfacet
  facet normal 0 1 -0
    outer loop
      vertex 10 10 0
      vertex 0 10 10
      vertex 10 10 10
    endloop
  endfacet
  facet normal 0 1 0
    outer loop
      vertex 0 10 10
      vertex 10 10 0
      vertex 0 10 0
    endloop
  endfacet
  facet normal 0 -1 0
    outer loop
      vertex 0.765367 0 1.84776
      vertex 0 0 10
      vertex 0 0 1.84776
    endloop
  endfacet
  facet normal 0 -1 0
    outer loop
      vertex 0 0 10
      vertex 0.765367 0 1.84776
      vertex 10 0 10
    endloop
  endfacet
  facet normal 0 -1 0
    outer loop
      vertex 1.84776 0 0.765367
      vertex 10 0 10
      vertex 0.765367 0 1.84776
    endloop
  endfacet
  facet normal 0 -1 0
    outer loop
      vertex 10 0 0
      vertex 1.84776 0 0.765367
      vertex 1.84776 0 0
    endloop
  endfacet
  facet normal 0 -1 0
    outer loop
      vertex 1.84776 0 0.765367
      vertex 10 0 0
      vertex 10 0 10
    endloop
  endfacet
  facet normal -0.165317 -0.724302 -0.669371
    outer loop
      vertex 1.15206 1.44464 0.765367
      vertex 0 1.24462 1.26633
      vertex 0 1.70759 0.765367
    endloop
  endfacet
  facet normal -0.165311 -0.724311 -0.669362
    outer loop
      vertex 0 1.24462 1.26633
      vertex 1.15206 1.44464 0.765367
      vertex 0.477198 0.598388 1.84776
    endloop
  endfacet
  facet normal -0.669361 -0.322348 -0.669363
    outer loop
      vertex 1.15206 1.44464 0.765367
      vertex 0.765367 0 1.84776
      vertex 0.477198 0.598388 1.84776
    endloop
  endfacet
  facet normal -0.669363 -0.322347 -0.669363
    outer loop
      vertex 1.15206 1.44464 0.765367
      vertex 1.84776 0 0.765367
      vertex 0.765367 0 1.84776
    endloop
  endfacet
  facet normal -0.900969 -0.433883 0
    outer loop
      vertex 1.84776 0 0
      vertex 1.15206 1.44464 0.765367
      vertex 1.15206 1.44464 0
    endloop
  endfacet
  facet normal -0.900969 -0.433883 0
    outer loop
      vertex 1.15206 1.44464 0.765367
      vertex 1.84776 0 0
      vertex 1.84776 0 0.765367
    endloop
  endfacet
  facet normal -0.165319 -0.724314 -0.669357
    outer loop
      vertex 0 1.24462 1.26633
      vertex 0.477198 0.598388 1.84776
      vertex 0 0.707305 1.84776
    endloop
  endfacet
  facet normal -0.222521 -0.974928 0
    outer loop
      vertex 0 1.70759 0
      vertex 1.15206 1.44464 0.765367
      vertex 0 1.70759 0.765367
    endloop
  endfacet
  facet normal -0.222521 -0.974928 -0
    outer loop
      vertex 1.15206 1.44464 0.765367
      vertex 0 1.70759 0
      vertex 1.15206 1.44464 0
    endloop
  endfacet
  facet normal 0 0 -1
    outer loop
      vertex 0 0 1.84776
      vertex 0.477198 0.598388 1.84776
      vertex 0.765367 0 1.84776
    endloop
  endfacet
  facet normal -0 0 -1
    outer loop
      vertex 0.477198 0.598388 1.84776
      vertex 0 0 1.84776
      vertex 0 0.707305 1.84776
    endloop
  endfacet
endsolid OpenSCAD_Model
