solid OpenSCAD_Model
  facet normal -0.743143 -0.669133 0
    outer loop
      vertex -26.7652 -29.7258 0
      vertex -32.3607 -23.5114 100
      vertex -32.3607 -23.5114 0
    endloop
  endfacet
  facet normal -0.743143 -0.669133 0
    outer loop
      vertex -32.3607 -23.5114 100
      vertex -26.7652 -29.7258 0
      vertex -26.7652 -29.7258 100
    endloop
  endfacet
  facet normal 0.951056 0.309017 0
    outer loop
      vertex 39.1259 8.31647 100
      vertex 36.5418 16.2695 0
      vertex 36.5418 16.2695 100
    endloop
  endfacet
  facet normal 0.951056 0.309017 0
    outer loop
      vertex 36.5418 16.2695 0
      vertex 39.1259 8.31647 100
      vertex 39.1259 8.31647 0
    endloop
  endfacet
  facet normal 0.994522 0.104529 0
    outer loop
      vertex 40 0 100
      vertex 39.1259 8.31647 0
      vertex 39.1259 8.31647 100
    endloop
  endfacet
  facet normal 0.994522 0.104529 0
    outer loop
      vertex 39.1259 8.31647 0
      vertex 40 0 100
      vertex 40 0 0
    endloop
  endfacet
  facet normal 0.866026 0.499999 0
    outer loop
      vertex 36.5418 16.2695 100
      vertex 32.3607 23.5114 0
      vertex 32.3607 23.5114 100
    endloop
  endfacet
  facet normal 0.866026 0.499999 0
    outer loop
      vertex 32.3607 23.5114 0
      vertex 36.5418 16.2695 100
      vertex 36.5418 16.2695 0
    endloop
  endfacet
  facet normal 0.951056 -0.309017 0
    outer loop
      vertex 36.5418 -16.2695 100
      vertex 39.1259 -8.31647 0
      vertex 39.1259 -8.31647 100
    endloop
  endfacet
  facet normal 0.951056 -0.309017 0
    outer loop
      vertex 39.1259 -8.31647 0
      vertex 36.5418 -16.2695 100
      vertex 36.5418 -16.2695 0
    endloop
  endfacet
  facet normal 0.587785 -0.809017 0
    outer loop
      vertex 20 -34.641 0
      vertex 26.7652 -29.7258 100
      vertex 20 -34.641 100
    endloop
  endfacet
  facet normal 0.587785 -0.809017 0
    outer loop
      vertex 26.7652 -29.7258 100
      vertex 20 -34.641 0
      vertex 26.7652 -29.7258 0
    endloop
  endfacet
  facet normal 0.743143 -0.669133 0
    outer loop
      vertex 26.7652 -29.7258 100
      vertex 32.3607 -23.5114 0
      vertex 32.3607 -23.5114 100
    endloop
  endfacet
  facet normal 0.743143 -0.669133 0
    outer loop
      vertex 32.3607 -23.5114 0
      vertex 26.7652 -29.7258 100
      vertex 26.7652 -29.7258 0
    endloop
  endfacet
  facet normal 0.994522 -0.104529 0
    outer loop
      vertex 39.1259 -8.31647 100
      vertex 40 0 0
      vertex 40 0 100
    endloop
  endfacet
  facet normal 0.994522 -0.104529 0
    outer loop
      vertex 40 0 0
      vertex 39.1259 -8.31647 100
      vertex 39.1259 -8.31647 0
    endloop
  endfacet
  facet normal -0.406743 -0.913543 0
    outer loop
      vertex -20 -34.641 0
      vertex -12.3607 -38.0423 100
      vertex -20 -34.641 100
    endloop
  endfacet
  facet normal -0.406743 -0.913543 -0
    outer loop
      vertex -12.3607 -38.0423 100
      vertex -20 -34.641 0
      vertex -12.3607 -38.0423 0
    endloop
  endfacet
  facet normal 0.406743 0.913543 -0
    outer loop
      vertex 20 34.641 0
      vertex 12.3607 38.0423 100
      vertex 20 34.641 100
    endloop
  endfacet
  facet normal 0.406743 0.913543 0
    outer loop
      vertex 12.3607 38.0423 100
      vertex 20 34.641 0
      vertex 12.3607 38.0423 0
    endloop
  endfacet
  facet normal 0.743143 0.669133 0
    outer loop
      vertex 32.3607 23.5114 100
      vertex 26.7652 29.7258 0
      vertex 26.7652 29.7258 100
    endloop
  endfacet
  facet normal 0.743143 0.669133 0
    outer loop
      vertex 26.7652 29.7258 0
      vertex 32.3607 23.5114 100
      vertex 32.3607 23.5114 0
    endloop
  endfacet
  facet normal -0.587785 -0.809017 0
    outer loop
      vertex -26.7652 -29.7258 0
      vertex -20 -34.641 100
      vertex -26.7652 -29.7258 100
    endloop
  endfacet
  facet normal -0.587785 -0.809017 -0
    outer loop
      vertex -20 -34.641 100
      vertex -26.7652 -29.7258 0
      vertex -20 -34.641 0
    endloop
  endfacet
  facet normal -0.743143 0.669133 0
    outer loop
      vertex -32.3607 23.5114 0
      vertex -26.7652 29.7258 100
      vertex -26.7652 29.7258 0
    endloop
  endfacet
  facet normal -0.743143 0.669133 0
    outer loop
      vertex -26.7652 29.7258 100
      vertex -32.3607 23.5114 0
      vertex -32.3607 23.5114 100
    endloop
  endfacet
  facet normal 0 1 -0
    outer loop
      vertex 4.18114 39.7809 0
      vertex -4.18114 39.7809 100
      vertex 4.18114 39.7809 100
    endloop
  endfacet
  facet normal 0 1 0
    outer loop
      vertex -4.18114 39.7809 100
      vertex 4.18114 39.7809 0
      vertex -4.18114 39.7809 0
    endloop
  endfacet
  facet normal 0.406743 -0.913543 0
    outer loop
      vertex 12.3607 -38.0423 0
      vertex 20 -34.641 100
      vertex 12.3607 -38.0423 100
    endloop
  endfacet
  facet normal 0.406743 -0.913543 0
    outer loop
      vertex 20 -34.641 100
      vertex 12.3607 -38.0423 0
      vertex 20 -34.641 0
    endloop
  endfacet
  facet normal 0.207909 -0.978148 0
    outer loop
      vertex 4.18114 -39.7809 0
      vertex 12.3607 -38.0423 100
      vertex 4.18114 -39.7809 100
    endloop
  endfacet
  facet normal 0.207909 -0.978148 0
    outer loop
      vertex 12.3607 -38.0423 100
      vertex 4.18114 -39.7809 0
      vertex 12.3607 -38.0423 0
    endloop
  endfacet
  facet normal -0.951056 0.309017 0
    outer loop
      vertex -39.1259 8.31647 0
      vertex -36.5418 16.2695 100
      vertex -36.5418 16.2695 0
    endloop
  endfacet
  facet normal -0.951056 0.309017 0
    outer loop
      vertex -36.5418 16.2695 100
      vertex -39.1259 8.31647 0
      vertex -39.1259 8.31647 100
    endloop
  endfacet
  facet normal 0 0 -1
    outer loop
      vertex 38 0 0
      vertex 40 0 0
      vertex 39.1259 -8.31647 0
    endloop
  endfacet
  facet normal 0 0 -1
    outer loop
      vertex 40 0 0
      vertex 38 0 0
      vertex 39.1259 8.31647 0
    endloop
  endfacet
  facet normal 0 0 -1
    outer loop
      vertex 39.1259 -8.31647 0
      vertex 37.1696 -7.90064 0
      vertex 38 0 0
    endloop
  endfacet
  facet normal 0 0 -1
    outer loop
      vertex 36.5418 -16.2695 0
      vertex 37.1696 -7.90064 0
      vertex 39.1259 -8.31647 0
    endloop
  endfacet
  facet normal 0 0 -1
    outer loop
      vertex 36.5418 -16.2695 0
      vertex 34.7147 -15.456 0
      vertex 37.1696 -7.90064 0
    endloop
  endfacet
  facet normal 0 0 -1
    outer loop
      vertex 32.3607 -23.5114 0
      vertex 34.7147 -15.456 0
      vertex 36.5418 -16.2695 0
    endloop
  endfacet
  facet normal 0 0 -1
    outer loop
      vertex 32.3607 -23.5114 0
      vertex 30.7426 -22.3358 0
      vertex 34.7147 -15.456 0
    endloop
  endfacet
  facet normal 0 0 -1
    outer loop
      vertex 26.7652 -29.7258 0
      vertex 30.7426 -22.3358 0
      vertex 32.3607 -23.5114 0
    endloop
  endfacet
  facet normal 0 0 -1
    outer loop
      vertex 26.7652 -29.7258 0
      vertex 25.427 -28.2395 0
      vertex 30.7426 -22.3358 0
    endloop
  endfacet
  facet normal 0 0 -1
    outer loop
      vertex 20 -34.641 0
      vertex 25.427 -28.2395 0
      vertex 26.7652 -29.7258 0
    endloop
  endfacet
  facet normal 0 0 -1
    outer loop
      vertex 20 -34.641 0
      vertex 19 -32.909 0
      vertex 25.427 -28.2395 0
    endloop
  endfacet
  facet normal 0 0 -1
    outer loop
      vertex 12.3607 -38.0423 0
      vertex 19 -32.909 0
      vertex 20 -34.641 0
    endloop
  endfacet
  facet normal 0 0 -1
    outer loop
      vertex 12.3607 -38.0423 0
      vertex 11.7426 -36.1401 0
      vertex 19 -32.909 0
    endloop
  endfacet
  facet normal 0 0 -1
    outer loop
      vertex 4.18114 -39.7809 0
      vertex 11.7426 -36.1401 0
      vertex 12.3607 -38.0423 0
    endloop
  endfacet
  facet normal 0 0 -1
    outer loop
      vertex 4.18114 -39.7809 0
      vertex 3.97208 -37.7918 0
      vertex 11.7426 -36.1401 0
    endloop
  endfacet
  facet normal 0 0 -1
    outer loop
      vertex 4.18114 -39.7809 0
      vertex -3.97208 -37.7918 0
      vertex 3.97208 -37.7918 0
    endloop
  endfacet
  facet normal 0 0 -1
    outer loop
      vertex -4.18114 -39.7809 0
      vertex -3.97208 -37.7918 0
      vertex 4.18114 -39.7809 0
    endloop
  endfacet
  facet normal 0 0 -1
    outer loop
      vertex -4.18114 -39.7809 0
      vertex -11.7426 -36.1401 0
      vertex -3.97208 -37.7918 0
    endloop
  endfacet
  facet normal 0 0 -1
    outer loop
      vertex -12.3607 -38.0423 0
      vertex -11.7426 -36.1401 0
      vertex -4.18114 -39.7809 0
    endloop
  endfacet
  facet normal 0 0 -1
    outer loop
      vertex -12.3607 -38.0423 0
      vertex -19 -32.909 0
      vertex -11.7426 -36.1401 0
    endloop
  endfacet
  facet normal 0 0 -1
    outer loop
      vertex -20 -34.641 0
      vertex -19 -32.909 0
      vertex -12.3607 -38.0423 0
    endloop
  endfacet
  facet normal 0 0 -1
    outer loop
      vertex -20 -34.641 0
      vertex -25.427 -28.2395 0
      vertex -19 -32.909 0
    endloop
  endfacet
  facet normal 0 0 -1
    outer loop
      vertex -26.7652 -29.7258 0
      vertex -25.427 -28.2395 0
      vertex -20 -34.641 0
    endloop
  endfacet
  facet normal 0 0 -1
    outer loop
      vertex -26.7652 -29.7258 0
      vertex -30.7426 -22.3358 0
      vertex -25.427 -28.2395 0
    endloop
  endfacet
  facet normal 0 0 -1
    outer loop
      vertex -32.3607 -23.5114 0
      vertex -30.7426 -22.3358 0
      vertex -26.7652 -29.7258 0
    endloop
  endfacet
  facet normal 0 0 -1
    outer loop
      vertex -32.3607 -23.5114 0
      vertex -34.7147 -15.456 0
      vertex -30.7426 -22.3358 0
    endloop
  endfacet
  facet normal 0 0 -1
    outer loop
      vertex -36.5418 -16.2695 0
      vertex -34.7147 -15.456 0
      vertex -32.3607 -23.5114 0
    endloop
  endfacet
  facet normal 0 0 -1
    outer loop
      vertex -36.5418 -16.2695 0
      vertex -37.1696 -7.90064 0
      vertex -34.7147 -15.456 0
    endloop
  endfacet
  facet normal 0 0 -1
    outer loop
      vertex -39.1259 -8.31647 0
      vertex -37.1696 -7.90064 0
      vertex -36.5418 -16.2695 0
    endloop
  endfacet
  facet normal -0 0 -1
    outer loop
      vertex -37.1696 -7.90064 0
      vertex -39.1259 -8.31647 0
      vertex -38 0 0
    endloop
  endfacet
  facet normal 0 0 -1
    outer loop
      vertex 37.1696 7.90064 0
      vertex 39.1259 8.31647 0
      vertex 38 0 0
    endloop
  endfacet
  facet normal 0 0 -1
    outer loop
      vertex 37.1696 7.90064 0
      vertex 36.5418 16.2695 0
      vertex 39.1259 8.31647 0
    endloop
  endfacet
  facet normal 0 0 -1
    outer loop
      vertex 34.7147 15.456 0
      vertex 36.5418 16.2695 0
      vertex 37.1696 7.90064 0
    endloop
  endfacet
  facet normal 0 0 -1
    outer loop
      vertex 34.7147 15.456 0
      vertex 32.3607 23.5114 0
      vertex 36.5418 16.2695 0
    endloop
  endfacet
  facet normal 0 0 -1
    outer loop
      vertex 30.7426 22.3358 0
      vertex 32.3607 23.5114 0
      vertex 34.7147 15.456 0
    endloop
  endfacet
  facet normal 0 0 -1
    outer loop
      vertex 30.7426 22.3358 0
      vertex 26.7652 29.7258 0
      vertex 32.3607 23.5114 0
    endloop
  endfacet
  facet normal 0 0 -1
    outer loop
      vertex 25.427 28.2395 0
      vertex 26.7652 29.7258 0
      vertex 30.7426 22.3358 0
    endloop
  endfacet
  facet normal 0 0 -1
    outer loop
      vertex 25.427 28.2395 0
      vertex 20 34.641 0
      vertex 26.7652 29.7258 0
    endloop
  endfacet
  facet normal 0 0 -1
    outer loop
      vertex 19 32.909 0
      vertex 20 34.641 0
      vertex 25.427 28.2395 0
    endloop
  endfacet
  facet normal 0 0 -1
    outer loop
      vertex 19 32.909 0
      vertex 12.3607 38.0423 0
      vertex 20 34.641 0
    endloop
  endfacet
  facet normal 0 0 -1
    outer loop
      vertex 11.7426 36.1401 0
      vertex 12.3607 38.0423 0
      vertex 19 32.909 0
    endloop
  endfacet
  facet normal 0 0 -1
    outer loop
      vertex 11.7426 36.1401 0
      vertex 4.18114 39.7809 0
      vertex 12.3607 38.0423 0
    endloop
  endfacet
  facet normal 0 0 -1
    outer loop
      vertex 3.97208 37.7918 0
      vertex 4.18114 39.7809 0
      vertex 11.7426 36.1401 0
    endloop
  endfacet
  facet normal 0 0 -1
    outer loop
      vertex -3.97208 37.7918 0
      vertex 4.18114 39.7809 0
      vertex 3.97208 37.7918 0
    endloop
  endfacet
  facet normal 0 0 -1
    outer loop
      vertex -3.97208 37.7918 0
      vertex -4.18114 39.7809 0
      vertex 4.18114 39.7809 0
    endloop
  endfacet
  facet normal 0 0 -1
    outer loop
      vertex -11.7426 36.1401 0
      vertex -4.18114 39.7809 0
      vertex -3.97208 37.7918 0
    endloop
  endfacet
  facet normal 0 0 -1
    outer loop
      vertex -11.7426 36.1401 0
      vertex -12.3607 38.0423 0
      vertex -4.18114 39.7809 0
    endloop
  endfacet
  facet normal 0 0 -1
    outer loop
      vertex -19 32.909 0
      vertex -12.3607 38.0423 0
      vertex -11.7426 36.1401 0
    endloop
  endfacet
  facet normal 0 0 -1
    outer loop
      vertex -19 32.909 0
      vertex -20 34.641 0
      vertex -12.3607 38.0423 0
    endloop
  endfacet
  facet normal 0 0 -1
    outer loop
      vertex -25.427 28.2395 0
      vertex -20 34.641 0
      vertex -19 32.909 0
    endloop
  endfacet
  facet normal 0 0 -1
    outer loop
      vertex -25.427 28.2395 0
      vertex -26.7652 29.7258 0
      vertex -20 34.641 0
    endloop
  endfacet
  facet normal 0 0 -1
    outer loop
      vertex -30.7426 22.3358 0
      vertex -26.7652 29.7258 0
      vertex -25.427 28.2395 0
    endloop
  endfacet
  facet normal 0 0 -1
    outer loop
      vertex -30.7426 22.3358 0
      vertex -32.3607 23.5114 0
      vertex -26.7652 29.7258 0
    endloop
  endfacet
  facet normal 0 0 -1
    outer loop
      vertex -34.7147 15.456 0
      vertex -32.3607 23.5114 0
      vertex -30.7426 22.3358 0
    endloop
  endfacet
  facet normal 0 0 -1
    outer loop
      vertex -34.7147 15.456 0
      vertex -36.5418 16.2695 0
      vertex -32.3607 23.5114 0
    endloop
  endfacet
  facet normal 0 0 -1
    outer loop
      vertex -37.1696 7.90064 0
      vertex -36.5418 16.2695 0
      vertex -34.7147 15.456 0
    endloop
  endfacet
  facet normal 0 0 -1
    outer loop
      vertex -39.1259 8.31647 0
      vertex -37.1696 7.90064 0
      vertex -38 0 0
    endloop
  endfacet
  facet normal 0 0 -1
    outer loop
      vertex -40 0 0
      vertex -38 0 0
      vertex -39.1259 -8.31647 0
    endloop
  endfacet
  facet normal 0 0 -1
    outer loop
      vertex -37.1696 7.90064 0
      vertex -39.1259 8.31647 0
      vertex -36.5418 16.2695 0
    endloop
  endfacet
  facet normal 0 0 -1
    outer loop
      vertex -38 0 0
      vertex -40 0 0
      vertex -39.1259 8.31647 0
    endloop
  endfacet
  facet normal -0.951056 -0.309017 0
    outer loop
      vertex -36.5418 -16.2695 0
      vertex -39.1259 -8.31647 100
      vertex -39.1259 -8.31647 0
    endloop
  endfacet
  facet normal -0.951056 -0.309017 0
    outer loop
      vertex -39.1259 -8.31647 100
      vertex -36.5418 -16.2695 0
      vertex -36.5418 -16.2695 100
    endloop
  endfacet
  facet normal -0.406743 0.913543 0
    outer loop
      vertex -12.3607 38.0423 0
      vertex -20 34.641 100
      vertex -12.3607 38.0423 100
    endloop
  endfacet
  facet normal -0.406743 0.913543 0
    outer loop
      vertex -20 34.641 100
      vertex -12.3607 38.0423 0
      vertex -20 34.641 0
    endloop
  endfacet
  facet normal 0 0 1
    outer loop
      vertex 39.1259 8.31647 100
      vertex 39.1259 -8.31647 100
      vertex 40 0 100
    endloop
  endfacet
  facet normal 0 0 1
    outer loop
      vertex 36.5418 16.2695 100
      vertex 39.1259 -8.31647 100
      vertex 39.1259 8.31647 100
    endloop
  endfacet
  facet normal 0 0 1
    outer loop
      vertex 36.5418 16.2695 100
      vertex 36.5418 -16.2695 100
      vertex 39.1259 -8.31647 100
    endloop
  endfacet
  facet normal 0 0 1
    outer loop
      vertex 32.3607 23.5114 100
      vertex 36.5418 -16.2695 100
      vertex 36.5418 16.2695 100
    endloop
  endfacet
  facet normal 0 0 1
    outer loop
      vertex 32.3607 23.5114 100
      vertex 32.3607 -23.5114 100
      vertex 36.5418 -16.2695 100
    endloop
  endfacet
  facet normal 0 0 1
    outer loop
      vertex 26.7652 29.7258 100
      vertex 32.3607 -23.5114 100
      vertex 32.3607 23.5114 100
    endloop
  endfacet
  facet normal 0 0 1
    outer loop
      vertex 26.7652 29.7258 100
      vertex 26.7652 -29.7258 100
      vertex 32.3607 -23.5114 100
    endloop
  endfacet
  facet normal 0 0 1
    outer loop
      vertex 20 34.641 100
      vertex 26.7652 -29.7258 100
      vertex 26.7652 29.7258 100
    endloop
  endfacet
  facet normal 0 0 1
    outer loop
      vertex 20 34.641 100
      vertex 20 -34.641 100
      vertex 26.7652 -29.7258 100
    endloop
  endfacet
  facet normal 0 0 1
    outer loop
      vertex 12.3607 38.0423 100
      vertex 20 -34.641 100
      vertex 20 34.641 100
    endloop
  endfacet
  facet normal 0 0 1
    outer loop
      vertex 12.3607 38.0423 100
      vertex 12.3607 -38.0423 100
      vertex 20 -34.641 100
    endloop
  endfacet
  facet normal 0 0 1
    outer loop
      vertex 4.18114 39.7809 100
      vertex 12.3607 -38.0423 100
      vertex 12.3607 38.0423 100
    endloop
  endfacet
  facet normal 0 0 1
    outer loop
      vertex 4.18114 39.7809 100
      vertex 4.18114 -39.7809 100
      vertex 12.3607 -38.0423 100
    endloop
  endfacet
  facet normal -0 0 1
    outer loop
      vertex -4.18114 39.7809 100
      vertex 4.18114 -39.7809 100
      vertex 4.18114 39.7809 100
    endloop
  endfacet
  facet normal 0 0 1
    outer loop
      vertex -4.18114 39.7809 100
      vertex -4.18114 -39.7809 100
      vertex 4.18114 -39.7809 100
    endloop
  endfacet
  facet normal -0 0 1
    outer loop
      vertex -12.3607 38.0423 100
      vertex -4.18114 -39.7809 100
      vertex -4.18114 39.7809 100
    endloop
  endfacet
  facet normal 0 0 1
    outer loop
      vertex -12.3607 38.0423 100
      vertex -12.3607 -38.0423 100
      vertex -4.18114 -39.7809 100
    endloop
  endfacet
  facet normal -0 0 1
    outer loop
      vertex -20 34.641 100
      vertex -12.3607 -38.0423 100
      vertex -12.3607 38.0423 100
    endloop
  endfacet
  facet normal 0 0 1
    outer loop
      vertex -20 34.641 100
      vertex -20 -34.641 100
      vertex -12.3607 -38.0423 100
    endloop
  endfacet
  facet normal -0 0 1
    outer loop
      vertex -26.7652 29.7258 100
      vertex -20 -34.641 100
      vertex -20 34.641 100
    endloop
  endfacet
  facet normal 0 0 1
    outer loop
      vertex -26.7652 29.7258 100
      vertex -26.7652 -29.7258 100
      vertex -20 -34.641 100
    endloop
  endfacet
  facet normal -0 0 1
    outer loop
      vertex -32.3607 23.5114 100
      vertex -26.7652 -29.7258 100
      vertex -26.7652 29.7258 100
    endloop
  endfacet
  facet normal 0 0 1
    outer loop
      vertex -32.3607 23.5114 100
      vertex -32.3607 -23.5114 100
      vertex -26.7652 -29.7258 100
    endloop
  endfacet
  facet normal -0 0 1
    outer loop
      vertex -36.5418 16.2695 100
      vertex -32.3607 -23.5114 100
      vertex -32.3607 23.5114 100
    endloop
  endfacet
  facet normal 0 0 1
    outer loop
      vertex -36.5418 16.2695 100
      vertex -36.5418 -16.2695 100
      vertex -32.3607 -23.5114 100
    endloop
  endfacet
  facet normal -0 0 1
    outer loop
      vertex -39.1259 8.31647 100
      vertex -36.5418 -16.2695 100
      vertex -36.5418 16.2695 100
    endloop
  endfacet
  facet normal 0 0 1
    outer loop
      vertex -39.1259 8.31647 100
      vertex -39.1259 -8.31647 100
      vertex -36.5418 -16.2695 100
    endloop
  endfacet
  facet normal 0 -0 1
    outer loop
      vertex -39.1259 -8.31647 100
      vertex -39.1259 8.31647 100
      vertex -40 0 100
    endloop
  endfacet
  facet normal -0.207909 -0.978148 0
    outer loop
      vertex -12.3607 -38.0423 0
      vertex -4.18114 -39.7809 100
      vertex -12.3607 -38.0423 100
    endloop
  endfacet
  facet normal -0.207909 -0.978148 -0
    outer loop
      vertex -4.18114 -39.7809 100
      vertex -12.3607 -38.0423 0
      vertex -4.18114 -39.7809 0
    endloop
  endfacet
  facet normal 0.207909 0.978148 -0
    outer loop
      vertex 12.3607 38.0423 0
      vertex 4.18114 39.7809 100
      vertex 12.3607 38.0423 100
    endloop
  endfacet
  facet normal 0.207909 0.978148 0
    outer loop
      vertex 4.18114 39.7809 100
      vertex 12.3607 38.0423 0
      vertex 4.18114 39.7809 0
    endloop
  endfacet
  facet normal -0.994522 -0.104529 0
    outer loop
      vertex -39.1259 -8.31647 0
      vertex -40 0 100
      vertex -40 0 0
    endloop
  endfacet
  facet normal -0.994522 -0.104529 0
    outer loop
      vertex -40 0 100
      vertex -39.1259 -8.31647 0
      vertex -39.1259 -8.31647 100
    endloop
  endfacet
  facet normal -0.994522 0.104529 0
    outer loop
      vertex -40 0 0
      vertex -39.1259 8.31647 100
      vertex -39.1259 8.31647 0
    endloop
  endfacet
  facet normal -0.994522 0.104529 0
    outer loop
      vertex -39.1259 8.31647 100
      vertex -40 0 0
      vertex -40 0 100
    endloop
  endfacet
  facet normal -0.866026 -0.499999 0
    outer loop
      vertex -32.3607 -23.5114 0
      vertex -36.5418 -16.2695 100
      vertex -36.5418 -16.2695 0
    endloop
  endfacet
  facet normal -0.866026 -0.499999 0
    outer loop
      vertex -36.5418 -16.2695 100
      vertex -32.3607 -23.5114 0
      vertex -32.3607 -23.5114 100
    endloop
  endfacet
  facet normal -0.866026 0.499999 0
    outer loop
      vertex -36.5418 16.2695 0
      vertex -32.3607 23.5114 100
      vertex -32.3607 23.5114 0
    endloop
  endfacet
  facet normal -0.866026 0.499999 0
    outer loop
      vertex -32.3607 23.5114 100
      vertex -36.5418 16.2695 0
      vertex -36.5418 16.2695 100
    endloop
  endfacet
  facet normal 0.866026 -0.499999 0
    outer loop
      vertex 32.3607 -23.5114 100
      vertex 36.5418 -16.2695 0
      vertex 36.5418 -16.2695 100
    endloop
  endfacet
  facet normal 0.866026 -0.499999 0
    outer loop
      vertex 36.5418 -16.2695 0
      vertex 32.3607 -23.5114 100
      vertex 32.3607 -23.5114 0
    endloop
  endfacet
  facet normal 0.587785 0.809017 -0
    outer loop
      vertex 26.7652 29.7258 0
      vertex 20 34.641 100
      vertex 26.7652 29.7258 100
    endloop
  endfacet
  facet normal 0.587785 0.809017 0
    outer loop
      vertex 20 34.641 100
      vertex 26.7652 29.7258 0
      vertex 20 34.641 0
    endloop
  endfacet
  facet normal -0.587785 0.809017 0
    outer loop
      vertex -20 34.641 0
      vertex -26.7652 29.7258 100
      vertex -20 34.641 100
    endloop
  endfacet
  facet normal -0.587785 0.809017 0
    outer loop
      vertex -26.7652 29.7258 100
      vertex -20 34.641 0
      vertex -26.7652 29.7258 0
    endloop
  endfacet
  facet normal -0.207909 0.978148 0
    outer loop
      vertex -4.18114 39.7809 0
      vertex -12.3607 38.0423 100
      vertex -4.18114 39.7809 100
    endloop
  endfacet
  facet normal -0.207909 0.978148 0
    outer loop
      vertex -12.3607 38.0423 100
      vertex -4.18114 39.7809 0
      vertex -12.3607 38.0423 0
    endloop
  endfacet
  facet normal 0 -1 0
    outer loop
      vertex -4.18114 -39.7809 0
      vertex 4.18114 -39.7809 100
      vertex -4.18114 -39.7809 100
    endloop
  endfacet
  facet normal 0 -1 -0
    outer loop
      vertex 4.18114 -39.7809 100
      vertex -4.18114 -39.7809 0
      vertex 4.18114 -39.7809 0
    endloop
  endfacet
  facet normal -0.587786 -0.809016 0
    outer loop
      vertex 19 32.909 0
      vertex 25.427 28.2395 90
      vertex 19 32.909 90
    endloop
  endfacet
  facet normal -0.587786 -0.809016 -0
    outer loop
      vertex 25.427 28.2395 90
      vertex 19 32.909 0
      vertex 25.427 28.2395 0
    endloop
  endfacet
  facet normal -0.207915 -0.978147 0
    outer loop
      vertex 3.97208 37.7918 0
      vertex 11.7426 36.1401 90
      vertex 3.97208 37.7918 90
    endloop
  endfacet
  facet normal -0.207915 -0.978147 -0
    outer loop
      vertex 11.7426 36.1401 90
      vertex 3.97208 37.7918 0
      vertex 11.7426 36.1401 0
    endloop
  endfacet
  facet normal -0.994522 0.10453 0
    outer loop
      vertex 37.1696 -7.90064 0
      vertex 38 0 90
      vertex 38 0 0
    endloop
  endfacet
  facet normal -0.994522 0.10453 0
    outer loop
      vertex 38 0 90
      vertex 37.1696 -7.90064 0
      vertex 37.1696 -7.90064 90
    endloop
  endfacet
  facet normal -0.866023 -0.500004 0
    outer loop
      vertex 34.7147 15.456 0
      vertex 30.7426 22.3358 90
      vertex 30.7426 22.3358 0
    endloop
  endfacet
  facet normal -0.866023 -0.500004 0
    outer loop
      vertex 30.7426 22.3358 90
      vertex 34.7147 15.456 0
      vertex 34.7147 15.456 90
    endloop
  endfacet
  facet normal 0 -1 0
    outer loop
      vertex -3.97208 37.7918 0
      vertex 3.97208 37.7918 90
      vertex -3.97208 37.7918 90
    endloop
  endfacet
  facet normal 0 -1 -0
    outer loop
      vertex 3.97208 37.7918 90
      vertex -3.97208 37.7918 0
      vertex 3.97208 37.7918 0
    endloop
  endfacet
  facet normal -0.866023 0.500004 0
    outer loop
      vertex 30.7426 -22.3358 0
      vertex 34.7147 -15.456 90
      vertex 34.7147 -15.456 0
    endloop
  endfacet
  facet normal -0.866023 0.500004 0
    outer loop
      vertex 34.7147 -15.456 90
      vertex 30.7426 -22.3358 0
      vertex 30.7426 -22.3358 90
    endloop
  endfacet
  facet normal -0.994522 -0.10453 0
    outer loop
      vertex 38 0 0
      vertex 37.1696 7.90064 90
      vertex 37.1696 7.90064 0
    endloop
  endfacet
  facet normal -0.994522 -0.10453 0
    outer loop
      vertex 37.1696 7.90064 90
      vertex 38 0 0
      vertex 38 0 90
    endloop
  endfacet
  facet normal 0.207915 -0.978147 0
    outer loop
      vertex -11.7426 36.1401 0
      vertex -3.97208 37.7918 90
      vertex -11.7426 36.1401 90
    endloop
  endfacet
  facet normal 0.207915 -0.978147 0
    outer loop
      vertex -3.97208 37.7918 90
      vertex -11.7426 36.1401 0
      vertex -3.97208 37.7918 0
    endloop
  endfacet
  facet normal 0.951056 -0.309019 0
    outer loop
      vertex -37.1696 7.90064 90
      vertex -34.7147 15.456 0
      vertex -34.7147 15.456 90
    endloop
  endfacet
  facet normal 0.951056 -0.309019 0
    outer loop
      vertex -34.7147 15.456 0
      vertex -37.1696 7.90064 90
      vertex -37.1696 7.90064 0
    endloop
  endfacet
  facet normal -0.951056 -0.309019 0
    outer loop
      vertex 37.1696 7.90064 0
      vertex 34.7147 15.456 90
      vertex 34.7147 15.456 0
    endloop
  endfacet
  facet normal -0.951056 -0.309019 0
    outer loop
      vertex 34.7147 15.456 90
      vertex 37.1696 7.90064 0
      vertex 37.1696 7.90064 90
    endloop
  endfacet
  facet normal -0.951056 0.309019 0
    outer loop
      vertex 34.7147 -15.456 0
      vertex 37.1696 -7.90064 90
      vertex 37.1696 -7.90064 0
    endloop
  endfacet
  facet normal -0.951056 0.309019 0
    outer loop
      vertex 37.1696 -7.90064 90
      vertex 34.7147 -15.456 0
      vertex 34.7147 -15.456 90
    endloop
  endfacet
  facet normal 0.406726 0.91355 -0
    outer loop
      vertex -11.7426 -36.1401 0
      vertex -19 -32.909 90
      vertex -11.7426 -36.1401 90
    endloop
  endfacet
  facet normal 0.406726 0.91355 0
    outer loop
      vertex -19 -32.909 90
      vertex -11.7426 -36.1401 0
      vertex -19 -32.909 0
    endloop
  endfacet
  facet normal 0.587786 -0.809016 0
    outer loop
      vertex -25.427 28.2395 0
      vertex -19 32.909 90
      vertex -25.427 28.2395 90
    endloop
  endfacet
  facet normal 0.587786 -0.809016 0
    outer loop
      vertex -19 32.909 90
      vertex -25.427 28.2395 0
      vertex -19 32.909 0
    endloop
  endfacet
  facet normal -0.406726 -0.91355 0
    outer loop
      vertex 11.7426 36.1401 0
      vertex 19 32.909 90
      vertex 11.7426 36.1401 90
    endloop
  endfacet
  facet normal -0.406726 -0.91355 -0
    outer loop
      vertex 19 32.909 90
      vertex 11.7426 36.1401 0
      vertex 19 32.909 0
    endloop
  endfacet
  facet normal 0.743152 -0.669123 0
    outer loop
      vertex -30.7426 22.3358 90
      vertex -25.427 28.2395 0
      vertex -25.427 28.2395 90
    endloop
  endfacet
  facet normal 0.743152 -0.669123 0
    outer loop
      vertex -25.427 28.2395 0
      vertex -30.7426 22.3358 90
      vertex -30.7426 22.3358 0
    endloop
  endfacet
  facet normal 0.207915 0.978147 -0
    outer loop
      vertex -3.97208 -37.7918 0
      vertex -11.7426 -36.1401 90
      vertex -3.97208 -37.7918 90
    endloop
  endfacet
  facet normal 0.207915 0.978147 0
    outer loop
      vertex -11.7426 -36.1401 90
      vertex -3.97208 -37.7918 0
      vertex -11.7426 -36.1401 0
    endloop
  endfacet
  facet normal -0.587786 0.809016 0
    outer loop
      vertex 25.427 -28.2395 0
      vertex 19 -32.909 90
      vertex 25.427 -28.2395 90
    endloop
  endfacet
  facet normal -0.587786 0.809016 0
    outer loop
      vertex 19 -32.909 90
      vertex 25.427 -28.2395 0
      vertex 19 -32.909 0
    endloop
  endfacet
  facet normal -0.406726 0.91355 0
    outer loop
      vertex 19 -32.909 0
      vertex 11.7426 -36.1401 90
      vertex 19 -32.909 90
    endloop
  endfacet
  facet normal -0.406726 0.91355 0
    outer loop
      vertex 11.7426 -36.1401 90
      vertex 19 -32.909 0
      vertex 11.7426 -36.1401 0
    endloop
  endfacet
  facet normal 0.994522 -0.10453 0
    outer loop
      vertex -38 0 90
      vertex -37.1696 7.90064 0
      vertex -37.1696 7.90064 90
    endloop
  endfacet
  facet normal 0.994522 -0.10453 0
    outer loop
      vertex -37.1696 7.90064 0
      vertex -38 0 90
      vertex -38 0 0
    endloop
  endfacet
  facet normal -0.743152 -0.669123 0
    outer loop
      vertex 30.7426 22.3358 0
      vertex 25.427 28.2395 90
      vertex 25.427 28.2395 0
    endloop
  endfacet
  facet normal -0.743152 -0.669123 0
    outer loop
      vertex 25.427 28.2395 90
      vertex 30.7426 22.3358 0
      vertex 30.7426 22.3358 90
    endloop
  endfacet
  facet normal 0.951056 0.309019 0
    outer loop
      vertex -34.7147 -15.456 90
      vertex -37.1696 -7.90064 0
      vertex -37.1696 -7.90064 90
    endloop
  endfacet
  facet normal 0.951056 0.309019 0
    outer loop
      vertex -37.1696 -7.90064 0
      vertex -34.7147 -15.456 90
      vertex -34.7147 -15.456 0
    endloop
  endfacet
  facet normal -0.743152 0.669123 0
    outer loop
      vertex 25.427 -28.2395 0
      vertex 30.7426 -22.3358 90
      vertex 30.7426 -22.3358 0
    endloop
  endfacet
  facet normal -0.743152 0.669123 0
    outer loop
      vertex 30.7426 -22.3358 90
      vertex 25.427 -28.2395 0
      vertex 25.427 -28.2395 90
    endloop
  endfacet
  facet normal 0.406726 -0.91355 0
    outer loop
      vertex -19 32.909 0
      vertex -11.7426 36.1401 90
      vertex -19 32.909 90
    endloop
  endfacet
  facet normal 0.406726 -0.91355 0
    outer loop
      vertex -11.7426 36.1401 90
      vertex -19 32.909 0
      vertex -11.7426 36.1401 0
    endloop
  endfacet
  facet normal 0 1 -0
    outer loop
      vertex 3.97208 -37.7918 0
      vertex -3.97208 -37.7918 90
      vertex 3.97208 -37.7918 90
    endloop
  endfacet
  facet normal 0 1 0
    outer loop
      vertex -3.97208 -37.7918 90
      vertex 3.97208 -37.7918 0
      vertex -3.97208 -37.7918 0
    endloop
  endfacet
  facet normal 0 0 -1
    outer loop
      vertex 37.1696 -7.90064 90
      vertex 37.1696 7.90064 90
      vertex 38 0 90
    endloop
  endfacet
  facet normal 0 0 -1
    outer loop
      vertex 34.7147 -15.456 90
      vertex 37.1696 7.90064 90
      vertex 37.1696 -7.90064 90
    endloop
  endfacet
  facet normal 0 0 -1
    outer loop
      vertex 34.7147 -15.456 90
      vertex 34.7147 15.456 90
      vertex 37.1696 7.90064 90
    endloop
  endfacet
  facet normal 0 0 -1
    outer loop
      vertex 30.7426 -22.3358 90
      vertex 34.7147 15.456 90
      vertex 34.7147 -15.456 90
    endloop
  endfacet
  facet normal 0 0 -1
    outer loop
      vertex 30.7426 -22.3358 90
      vertex 30.7426 22.3358 90
      vertex 34.7147 15.456 90
    endloop
  endfacet
  facet normal 0 0 -1
    outer loop
      vertex 25.427 -28.2395 90
      vertex 30.7426 22.3358 90
      vertex 30.7426 -22.3358 90
    endloop
  endfacet
  facet normal 0 0 -1
    outer loop
      vertex 25.427 -28.2395 90
      vertex 25.427 28.2395 90
      vertex 30.7426 22.3358 90
    endloop
  endfacet
  facet normal 0 0 -1
    outer loop
      vertex 19 -32.909 90
      vertex 25.427 28.2395 90
      vertex 25.427 -28.2395 90
    endloop
  endfacet
  facet normal 0 0 -1
    outer loop
      vertex 19 -32.909 90
      vertex 19 32.909 90
      vertex 25.427 28.2395 90
    endloop
  endfacet
  facet normal 0 0 -1
    outer loop
      vertex 11.7426 -36.1401 90
      vertex 19 32.909 90
      vertex 19 -32.909 90
    endloop
  endfacet
  facet normal 0 0 -1
    outer loop
      vertex 11.7426 -36.1401 90
      vertex 11.7426 36.1401 90
      vertex 19 32.909 90
    endloop
  endfacet
  facet normal 0 0 -1
    outer loop
      vertex 3.97208 -37.7918 90
      vertex 11.7426 36.1401 90
      vertex 11.7426 -36.1401 90
    endloop
  endfacet
  facet normal 0 0 -1
    outer loop
      vertex 3.97208 -37.7918 90
      vertex 3.97208 37.7918 90
      vertex 11.7426 36.1401 90
    endloop
  endfacet
  facet normal 0 0 -1
    outer loop
      vertex -3.97208 -37.7918 90
      vertex 3.97208 37.7918 90
      vertex 3.97208 -37.7918 90
    endloop
  endfacet
  facet normal 0 0 -1
    outer loop
      vertex -3.97208 -37.7918 90
      vertex -3.97208 37.7918 90
      vertex 3.97208 37.7918 90
    endloop
  endfacet
  facet normal 0 0 -1
    outer loop
      vertex -11.7426 -36.1401 90
      vertex -3.97208 37.7918 90
      vertex -3.97208 -37.7918 90
    endloop
  endfacet
  facet normal 0 0 -1
    outer loop
      vertex -11.7426 -36.1401 90
      vertex -11.7426 36.1401 90
      vertex -3.97208 37.7918 90
    endloop
  endfacet
  facet normal 0 0 -1
    outer loop
      vertex -19 -32.909 90
      vertex -11.7426 36.1401 90
      vertex -11.7426 -36.1401 90
    endloop
  endfacet
  facet normal 0 0 -1
    outer loop
      vertex -19 -32.909 90
      vertex -19 32.909 90
      vertex -11.7426 36.1401 90
    endloop
  endfacet
  facet normal 0 0 -1
    outer loop
      vertex -25.427 -28.2395 90
      vertex -19 32.909 90
      vertex -19 -32.909 90
    endloop
  endfacet
  facet normal 0 0 -1
    outer loop
      vertex -25.427 -28.2395 90
      vertex -25.427 28.2395 90
      vertex -19 32.909 90
    endloop
  endfacet
  facet normal 0 0 -1
    outer loop
      vertex -30.7426 -22.3358 90
      vertex -25.427 28.2395 90
      vertex -25.427 -28.2395 90
    endloop
  endfacet
  facet normal 0 0 -1
    outer loop
      vertex -30.7426 -22.3358 90
      vertex -30.7426 22.3358 90
      vertex -25.427 28.2395 90
    endloop
  endfacet
  facet normal 0 0 -1
    outer loop
      vertex -34.7147 -15.456 90
      vertex -30.7426 22.3358 90
      vertex -30.7426 -22.3358 90
    endloop
  endfacet
  facet normal 0 0 -1
    outer loop
      vertex -34.7147 -15.456 90
      vertex -34.7147 15.456 90
      vertex -30.7426 22.3358 90
    endloop
  endfacet
  facet normal 0 0 -1
    outer loop
      vertex -37.1696 -7.90064 90
      vertex -34.7147 15.456 90
      vertex -34.7147 -15.456 90
    endloop
  endfacet
  facet normal 0 0 -1
    outer loop
      vertex -37.1696 -7.90064 90
      vertex -37.1696 7.90064 90
      vertex -34.7147 15.456 90
    endloop
  endfacet
  facet normal 0 -0 -1
    outer loop
      vertex -37.1696 7.90064 90
      vertex -37.1696 -7.90064 90
      vertex -38 0 90
    endloop
  endfacet
  facet normal 0.866023 0.500004 0
    outer loop
      vertex -30.7426 -22.3358 90
      vertex -34.7147 -15.456 0
      vertex -34.7147 -15.456 90
    endloop
  endfacet
  facet normal 0.866023 0.500004 0
    outer loop
      vertex -34.7147 -15.456 0
      vertex -30.7426 -22.3358 90
      vertex -30.7426 -22.3358 0
    endloop
  endfacet
  facet normal 0.743152 0.669123 0
    outer loop
      vertex -25.427 -28.2395 90
      vertex -30.7426 -22.3358 0
      vertex -30.7426 -22.3358 90
    endloop
  endfacet
  facet normal 0.743152 0.669123 0
    outer loop
      vertex -30.7426 -22.3358 0
      vertex -25.427 -28.2395 90
      vertex -25.427 -28.2395 0
    endloop
  endfacet
  facet normal -0.207915 0.978147 0
    outer loop
      vertex 11.7426 -36.1401 0
      vertex 3.97208 -37.7918 90
      vertex 11.7426 -36.1401 90
    endloop
  endfacet
  facet normal -0.207915 0.978147 0
    outer loop
      vertex 3.97208 -37.7918 90
      vertex 11.7426 -36.1401 0
      vertex 3.97208 -37.7918 0
    endloop
  endfacet
  facet normal 0.994522 0.10453 0
    outer loop
      vertex -37.1696 -7.90064 90
      vertex -38 0 0
      vertex -38 0 90
    endloop
  endfacet
  facet normal 0.994522 0.10453 0
    outer loop
      vertex -38 0 0
      vertex -37.1696 -7.90064 90
      vertex -37.1696 -7.90064 0
    endloop
  endfacet
  facet normal 0.587786 0.809016 -0
    outer loop
      vertex -19 -32.909 0
      vertex -25.427 -28.2395 90
      vertex -19 -32.909 90
    endloop
  endfacet
  facet normal 0.587786 0.809016 0
    outer loop
      vertex -25.427 -28.2395 90
      vertex -19 -32.909 0
      vertex -25.427 -28.2395 0
    endloop
  endfacet
  facet normal 0.866023 -0.500004 0
    outer loop
      vertex -34.7147 15.456 90
      vertex -30.7426 22.3358 0
      vertex -30.7426 22.3358 90
    endloop
  endfacet
  facet normal 0.866023 -0.500004 0
    outer loop
      vertex -30.7426 22.3358 0
      vertex -34.7147 15.456 90
      vertex -34.7147 15.456 0
    endloop
  endfacet
  facet normal 1 -0 0
    outer loop
      vertex 70 -30 130
      vertex 70 -10 70
      vertex 70 -10 130
    endloop
  endfacet
  facet normal 1 0 0
    outer loop
      vertex 70 -10 70
      vertex 70 -30 130
      vertex 70 -30 70
    endloop
  endfacet
  facet normal -0 0 1
    outer loop
      vertex 50 -10 130
      vertex 70 -30 130
      vertex 70 -10 130
    endloop
  endfacet
  facet normal 0 0 1
    outer loop
      vertex 70 -30 130
      vertex 50 -10 130
      vertex 50 -30 130
    endloop
  endfacet
  facet normal 0 0 -1
    outer loop
      vertex 50 -30 70
      vertex 70 -10 70
      vertex 70 -30 70
    endloop
  endfacet
  facet normal -0 0 -1
    outer loop
      vertex 70 -10 70
      vertex 50 -30 70
      vertex 50 -10 70
    endloop
  endfacet
  facet normal -1 0 0
    outer loop
      vertex 50 -30 70
      vertex 50 -10 130
      vertex 50 -10 70
    endloop
  endfacet
  facet normal -1 -0 0
    outer loop
      vertex 50 -10 130
      vertex 50 -30 70
      vertex 50 -30 130
    endloop
  endfacet
  facet normal 0 1 -0
    outer loop
      vertex 70 -10 70
      vertex 50 -10 130
      vertex 70 -10 130
    endloop
  endfacet
  facet normal 0 1 0
    outer loop
      vertex 50 -10 130
      vertex 70 -10 70
      vertex 50 -10 70
    endloop
  endfacet
  facet normal 0 -1 0
    outer loop
      vertex 50 -30 70
      vertex 70 -30 130
      vertex 50 -30 130
    endloop
  endfacet
  facet normal 0 -1 -0
    outer loop
      vertex 70 -30 130
      vertex 50 -30 70
      vertex 70 -30 70
    endloop
  endfacet
endsolid OpenSCAD_Model
