solid OpenSCAD_Model
  facet normal 0 0 1
    outer loop
      vertex 28.3013 50.9808 5
      vertex 0 0 5
      vertex 43.3013 25 5
    endloop
  endfacet
  facet normal 0 -0 1
    outer loop
      vertex 0 0 5
      vertex 28.3013 50.9808 5
      vertex -15 25.9808 5
    endloop
  endfacet
  facet normal 0 0 -1
    outer loop
      vertex 0 0 -5
      vertex 28.3013 50.9808 -5
      vertex 43.3013 25 -5
    endloop
  endfacet
  facet normal 0 0 -1
    outer loop
      vertex 28.3013 50.9808 -5
      vertex 0 0 -5
      vertex -15 25.9808 -5
    endloop
  endfacet
  facet normal 0.5 -0.866026 0
    outer loop
      vertex 0 0 -5
      vertex 43.3013 25 5
      vertex 0 0 5
    endloop
  endfacet
  facet normal 0.5 -0.866026 0
    outer loop
      vertex 43.3013 25 5
      vertex 0 0 -5
      vertex 43.3013 25 -5
    endloop
  endfacet
  facet normal 0.866026 0.499999 0
    outer loop
      vertex 43.3013 25 5
      vertex 28.3013 50.9808 -5
      vertex 28.3013 50.9808 5
    endloop
  endfacet
  facet normal 0.866026 0.499999 0
    outer loop
      vertex 28.3013 50.9808 -5
      vertex 43.3013 25 5
      vertex 43.3013 25 -5
    endloop
  endfacet
  facet normal -0.5 0.866026 0
    outer loop
      vertex 28.3013 50.9808 -5
      vertex -15 25.9808 5
      vertex 28.3013 50.9808 5
    endloop
  endfacet
  facet normal -0.5 0.866026 0
    outer loop
      vertex -15 25.9808 5
      vertex 28.3013 50.9808 -5
      vertex -15 25.9808 -5
    endloop
  endfacet
  facet normal -0.866026 -0.499999 0
    outer loop
      vertex 0 0 -5
      vertex -15 25.9808 5
      vertex -15 25.9808 -5
    endloop
  endfacet
  facet normal -0.866026 -0.499999 0
    outer loop
      vertex -15 25.9808 5
      vertex 0 0 -5
      vertex 0 0 5
    endloop
  endfacet
endsolid OpenSCAD_Model
