solid OpenSCAD_Model
  facet normal 0.880599 0.175161 0.4403
    outer loop
      vertex 0 0 10
      vertex 5 0 0
      vertex 4.6194 1.91342 0
    endloop
  endfacet
  facet normal -0.880599 0.175161 0.4403
    outer loop
      vertex -5 0 0
      vertex 0 0 10
      vertex -4.6194 1.91342 0
    endloop
  endfacet
  facet normal 0 0 -1
    outer loop
      vertex 4.6194 -1.91342 0
      vertex 4.6194 1.91342 0
      vertex 5 0 0
    endloop
  endfacet
  facet normal 0 0 -1
    outer loop
      vertex 3.53553 -3.53553 0
      vertex 4.6194 1.91342 0
      vertex 4.6194 -1.91342 0
    endloop
  endfacet
  facet normal 0 0 -1
    outer loop
      vertex 3.53553 -3.53553 0
      vertex 3.53553 3.53553 0
      vertex 4.6194 1.91342 0
    endloop
  endfacet
  facet normal 0 0 -1
    outer loop
      vertex 1.91342 -4.6194 0
      vertex 3.53553 3.53553 0
      vertex 3.53553 -3.53553 0
    endloop
  endfacet
  facet normal 0 0 -1
    outer loop
      vertex 1.91342 -4.6194 0
      vertex 1.91342 4.6194 0
      vertex 3.53553 3.53553 0
    endloop
  endfacet
  facet normal 0 0 -1
    outer loop
      vertex 0 -5 0
      vertex 1.91342 4.6194 0
      vertex 1.91342 -4.6194 0
    endloop
  endfacet
  facet normal 0 0 -1
    outer loop
      vertex 0 -5 0
      vertex 0 5 0
      vertex 1.91342 4.6194 0
    endloop
  endfacet
  facet normal 0 0 -1
    outer loop
      vertex -1.91342 -4.6194 0
      vertex 0 5 0
      vertex 0 -5 0
    endloop
  endfacet
  facet normal 0 0 -1
    outer loop
      vertex -1.91342 -4.6194 0
      vertex -1.91342 4.6194 0
      vertex 0 5 0
    endloop
  endfacet
  facet normal 0 0 -1
    outer loop
      vertex -3.53553 -3.53553 0
      vertex -1.91342 4.6194 0
      vertex -1.91342 -4.6194 0
    endloop
  endfacet
  facet normal 0 0 -1
    outer loop
      vertex -3.53553 -3.53553 0
      vertex -3.53553 3.53553 0
      vertex -1.91342 4.6194 0
    endloop
  endfacet
  facet normal 0 0 -1
    outer loop
      vertex -4.6194 -1.91342 0
      vertex -3.53553 3.53553 0
      vertex -3.53553 -3.53553 0
    endloop
  endfacet
  facet normal 0 0 -1
    outer loop
      vertex -4.6194 -1.91342 0
      vertex -4.6194 1.91342 0
      vertex -3.53553 3.53553 0
    endloop
  endfacet
  facet normal 0 -0 -1
    outer loop
      vertex -4.6194 1.91342 0
      vertex -4.6194 -1.91342 0
      vertex -5 0 0
    endloop
  endfacet
  facet normal 0.175161 0.880599 0.4403
    outer loop
      vertex 0 0 10
      vertex 1.91342 4.6194 0
      vertex 0 5 0
    endloop
  endfacet
  facet normal -0.746534 0.498823 0.440299
    outer loop
      vertex -4.6194 1.91342 0
      vertex 0 0 10
      vertex -3.53553 3.53553 0
    endloop
  endfacet
  facet normal 0.175161 -0.880599 0.4403
    outer loop
      vertex 0 -5 0
      vertex 1.91342 -4.6194 0
      vertex 0 0 10
    endloop
  endfacet
  facet normal 0.746534 0.498823 0.440299
    outer loop
      vertex 0 0 10
      vertex 4.6194 1.91342 0
      vertex 3.53553 3.53553 0
    endloop
  endfacet
  facet normal -0.498823 0.746534 0.440299
    outer loop
      vertex -3.53553 3.53553 0
      vertex 0 0 10
      vertex -1.91342 4.6194 0
    endloop
  endfacet
  facet normal -0.175161 0.880599 0.4403
    outer loop
      vertex -1.91342 4.6194 0
      vertex 0 0 10
      vertex 0 5 0
    endloop
  endfacet
  facet normal 0.880599 -0.175161 0.4403
    outer loop
      vertex 0 0 10
      vertex 4.6194 -1.91342 0
      vertex 5 0 0
    endloop
  endfacet
  facet normal 0.746534 -0.498823 0.440299
    outer loop
      vertex 0 0 10
      vertex 3.53553 -3.53553 0
      vertex 4.6194 -1.91342 0
    endloop
  endfacet
  facet normal 0.498823 0.746534 0.440299
    outer loop
      vertex 0 0 10
      vertex 3.53553 3.53553 0
      vertex 1.91342 4.6194 0
    endloop
  endfacet
  facet normal 0.498823 -0.746534 0.440299
    outer loop
      vertex 0 0 10
      vertex 1.91342 -4.6194 0
      vertex 3.53553 -3.53553 0
    endloop
  endfacet
  facet normal -0.175161 -0.880599 0.4403
    outer loop
      vertex -1.91342 -4.6194 0
      vertex 0 -5 0
      vertex 0 0 10
    endloop
  endfacet
  facet normal -0.498823 -0.746534 0.440299
    outer loop
      vertex -3.53553 -3.53553 0
      vertex -1.91342 -4.6194 0
      vertex 0 0 10
    endloop
  endfacet
  facet normal -0.746534 -0.498823 0.440299
    outer loop
      vertex -4.6194 -1.91342 0
      vertex -3.53553 -3.53553 0
      vertex 0 0 10
    endloop
  endfacet
  facet normal -0.880599 -0.175161 0.4403
    outer loop
      vertex -5 0 0
      vertex -4.6194 -1.91342 0
      vertex 0 0 10
    endloop
  endfacet
endsolid OpenSCAD_Model
