solid OpenSCAD_Model
  facet normal 0.965928 0.25881 0
    outer loop
      vertex 19.7815 2.07912 1
      vertex 19.5106 3.09017 0
      vertex 19.5106 3.09017 1
    endloop
  endfacet
  facet normal 0.965928 0.25881 0
    outer loop
      vertex 19.5106 3.09017 0
      vertex 19.7815 2.07912 1
      vertex 19.7815 2.07912 0
    endloop
  endfacet
  facet normal 0.707126 -0.707088 0
    outer loop
      vertex 16.6913 -7.43145 1
      vertex 17.4314 -6.69131 0
      vertex 17.4314 -6.69131 1
    endloop
  endfacet
  facet normal 0.707126 -0.707088 0
    outer loop
      vertex 17.4314 -6.69131 0
      vertex 16.6913 -7.43145 1
      vertex 16.6913 -7.43145 0
    endloop
  endfacet
  facet normal 0.987695 0.156393 0
    outer loop
      vertex 19.9452 1.04528 1
      vertex 19.7815 2.07912 0
      vertex 19.7815 2.07912 1
    endloop
  endfacet
  facet normal 0.987695 0.156393 0
    outer loop
      vertex 19.7815 2.07912 0
      vertex 19.9452 1.04528 1
      vertex 19.9452 1.04528 0
    endloop
  endfacet
  facet normal 0.998629 0.0523542 0
    outer loop
      vertex 20 0 1
      vertex 19.9452 1.04528 0
      vertex 19.9452 1.04528 1
    endloop
  endfacet
  facet normal 0.998629 0.0523542 0
    outer loop
      vertex 19.9452 1.04528 0
      vertex 20 0 1
      vertex 20 0 0
    endloop
  endfacet
  facet normal 0.891006 -0.453991 0
    outer loop
      vertex 18.6603 -5 1
      vertex 19.1355 -4.06737 0
      vertex 19.1355 -4.06737 1
    endloop
  endfacet
  facet normal 0.891006 -0.453991 0
    outer loop
      vertex 19.1355 -4.06737 0
      vertex 18.6603 -5 1
      vertex 18.6603 -5 0
    endloop
  endfacet
  facet normal 0.891006 0.453991 0
    outer loop
      vertex 19.1355 4.06737 1
      vertex 18.6603 5 0
      vertex 18.6603 5 1
    endloop
  endfacet
  facet normal 0.891006 0.453991 0
    outer loop
      vertex 18.6603 5 0
      vertex 19.1355 4.06737 1
      vertex 19.1355 4.06737 0
    endloop
  endfacet
  facet normal 0.965928 -0.25881 0
    outer loop
      vertex 19.5106 -3.09017 1
      vertex 19.7815 -2.07912 0
      vertex 19.7815 -2.07912 1
    endloop
  endfacet
  facet normal 0.965928 -0.25881 0
    outer loop
      vertex 19.7815 -2.07912 0
      vertex 19.5106 -3.09017 1
      vertex 19.5106 -3.09017 0
    endloop
  endfacet
  facet normal 0.777112 -0.629363 0
    outer loop
      vertex 17.4314 -6.69131 1
      vertex 18.0902 -5.87785 0
      vertex 18.0902 -5.87785 1
    endloop
  endfacet
  facet normal 0.777112 -0.629363 0
    outer loop
      vertex 18.0902 -5.87785 0
      vertex 17.4314 -6.69131 1
      vertex 17.4314 -6.69131 0
    endloop
  endfacet
  facet normal 0.838663 -0.544651 0
    outer loop
      vertex 18.0902 -5.87785 1
      vertex 18.6603 -5 0
      vertex 18.6603 -5 1
    endloop
  endfacet
  facet normal 0.838663 -0.544651 0
    outer loop
      vertex 18.6603 -5 0
      vertex 18.0902 -5.87785 1
      vertex 18.0902 -5.87785 0
    endloop
  endfacet
  facet normal 0.544616 -0.838686 0
    outer loop
      vertex 15 -8.66025 0
      vertex 15.8779 -8.09017 1
      vertex 15 -8.66025 1
    endloop
  endfacet
  facet normal 0.544616 -0.838686 0
    outer loop
      vertex 15.8779 -8.09017 1
      vertex 15 -8.66025 0
      vertex 15.8779 -8.09017 0
    endloop
  endfacet
  facet normal 0.629344 0.777126 -0
    outer loop
      vertex 16.6913 7.43145 0
      vertex 15.8779 8.09017 1
      vertex 16.6913 7.43145 1
    endloop
  endfacet
  facet normal 0.629344 0.777126 0
    outer loop
      vertex 15.8779 8.09017 1
      vertex 16.6913 7.43145 0
      vertex 15.8779 8.09017 0
    endloop
  endfacet
  facet normal 0.998629 -0.0523542 0
    outer loop
      vertex 19.9452 -1.04528 1
      vertex 20 0 0
      vertex 20 0 1
    endloop
  endfacet
  facet normal 0.998629 -0.0523542 0
    outer loop
      vertex 20 0 0
      vertex 19.9452 -1.04528 1
      vertex 19.9452 -1.04528 0
    endloop
  endfacet
  facet normal 0.987695 -0.156393 0
    outer loop
      vertex 19.7815 -2.07912 1
      vertex 19.9452 -1.04528 0
      vertex 19.9452 -1.04528 1
    endloop
  endfacet
  facet normal 0.987695 -0.156393 0
    outer loop
      vertex 19.9452 -1.04528 0
      vertex 19.7815 -2.07912 1
      vertex 19.7815 -2.07912 0
    endloop
  endfacet
  facet normal 0.933584 -0.358358 0
    outer loop
      vertex 19.1355 -4.06737 1
      vertex 19.5106 -3.09017 0
      vertex 19.5106 -3.09017 1
    endloop
  endfacet
  facet normal 0.933584 -0.358358 0
    outer loop
      vertex 19.5106 -3.09017 0
      vertex 19.1355 -4.06737 1
      vertex 19.1355 -4.06737 0
    endloop
  endfacet
  facet normal 0.838663 0.544651 0
    outer loop
      vertex 18.6603 5 1
      vertex 18.0902 5.87785 0
      vertex 18.0902 5.87785 1
    endloop
  endfacet
  facet normal 0.838663 0.544651 0
    outer loop
      vertex 18.0902 5.87785 0
      vertex 18.6603 5 1
      vertex 18.6603 5 0
    endloop
  endfacet
  facet normal 0.777112 0.629363 0
    outer loop
      vertex 18.0902 5.87785 1
      vertex 17.4314 6.69131 0
      vertex 17.4314 6.69131 1
    endloop
  endfacet
  facet normal 0.777112 0.629363 0
    outer loop
      vertex 17.4314 6.69131 0
      vertex 18.0902 5.87785 1
      vertex 18.0902 5.87785 0
    endloop
  endfacet
  facet normal 0 0 -1
    outer loop
      vertex 19.9452 -1.04528 0
      vertex 19.9452 1.04528 0
      vertex 20 0 0
    endloop
  endfacet
  facet normal 0 0 -1
    outer loop
      vertex 19.7815 -2.07912 0
      vertex 19.9452 1.04528 0
      vertex 19.9452 -1.04528 0
    endloop
  endfacet
  facet normal 0 0 -1
    outer loop
      vertex 19.7815 -2.07912 0
      vertex 19.7815 2.07912 0
      vertex 19.9452 1.04528 0
    endloop
  endfacet
  facet normal 0 0 -1
    outer loop
      vertex 19.5106 -3.09017 0
      vertex 19.7815 2.07912 0
      vertex 19.7815 -2.07912 0
    endloop
  endfacet
  facet normal 0 0 -1
    outer loop
      vertex 19.5106 -3.09017 0
      vertex 19.5106 3.09017 0
      vertex 19.7815 2.07912 0
    endloop
  endfacet
  facet normal 0 0 -1
    outer loop
      vertex 19.1355 -4.06737 0
      vertex 19.5106 3.09017 0
      vertex 19.5106 -3.09017 0
    endloop
  endfacet
  facet normal 0 0 -1
    outer loop
      vertex 19.1355 -4.06737 0
      vertex 19.1355 4.06737 0
      vertex 19.5106 3.09017 0
    endloop
  endfacet
  facet normal 0 0 -1
    outer loop
      vertex 18.6603 -5 0
      vertex 19.1355 4.06737 0
      vertex 19.1355 -4.06737 0
    endloop
  endfacet
  facet normal 0 0 -1
    outer loop
      vertex 18.6603 -5 0
      vertex 18.6603 5 0
      vertex 19.1355 4.06737 0
    endloop
  endfacet
  facet normal 0 0 -1
    outer loop
      vertex 18.0902 -5.87785 0
      vertex 18.6603 5 0
      vertex 18.6603 -5 0
    endloop
  endfacet
  facet normal 0 0 -1
    outer loop
      vertex 18.0902 -5.87785 0
      vertex 18.0902 5.87785 0
      vertex 18.6603 5 0
    endloop
  endfacet
  facet normal 0 0 -1
    outer loop
      vertex 17.4314 -6.69131 0
      vertex 18.0902 5.87785 0
      vertex 18.0902 -5.87785 0
    endloop
  endfacet
  facet normal 0 0 -1
    outer loop
      vertex 17.4314 -6.69131 0
      vertex 17.4314 6.69131 0
      vertex 18.0902 5.87785 0
    endloop
  endfacet
  facet normal 0 0 -1
    outer loop
      vertex 16.6913 -7.43145 0
      vertex 17.4314 6.69131 0
      vertex 17.4314 -6.69131 0
    endloop
  endfacet
  facet normal 0 0 -1
    outer loop
      vertex 16.6913 -7.43145 0
      vertex 16.6913 7.43145 0
      vertex 17.4314 6.69131 0
    endloop
  endfacet
  facet normal 0 0 -1
    outer loop
      vertex 15.8779 -8.09017 0
      vertex 16.6913 7.43145 0
      vertex 16.6913 -7.43145 0
    endloop
  endfacet
  facet normal 0 0 -1
    outer loop
      vertex 15.8779 -8.09017 0
      vertex 15.8779 8.09017 0
      vertex 16.6913 7.43145 0
    endloop
  endfacet
  facet normal 0 0 -1
    outer loop
      vertex 15 -8.66025 0
      vertex 15.8779 8.09017 0
      vertex 15.8779 -8.09017 0
    endloop
  endfacet
  facet normal 0 0 -1
    outer loop
      vertex 15 -8.66025 0
      vertex 15 8.66025 0
      vertex 15.8779 8.09017 0
    endloop
  endfacet
  facet normal 0 0 -1
    outer loop
      vertex 0 -17.3205 0
      vertex 15 -8.66025 0
      vertex 14.9452 -9.70554 0
    endloop
  endfacet
  facet normal -0 0 -1
    outer loop
      vertex 15 -8.66025 0
      vertex 0 -17.3205 0
      vertex 15 8.66025 0
    endloop
  endfacet
  facet normal 0 0 -1
    outer loop
      vertex 0 -17.3205 0
      vertex 14.9452 -9.70554 0
      vertex 14.7815 -10.7394 0
    endloop
  endfacet
  facet normal 0 0 -1
    outer loop
      vertex 0 17.3205 0
      vertex 15 8.66025 0
      vertex 0 -17.3205 0
    endloop
  endfacet
  facet normal 0 0 -1
    outer loop
      vertex 0 -17.3205 0
      vertex 14.7815 -10.7394 0
      vertex 14.5106 -11.7504 0
    endloop
  endfacet
  facet normal 0 0 -1
    outer loop
      vertex 15 8.66025 0
      vertex 0 17.3205 0
      vertex 14.9452 9.70554 0
    endloop
  endfacet
  facet normal 0 0 -1
    outer loop
      vertex 0 -17.3205 0
      vertex 14.5106 -11.7504 0
      vertex 14.1355 -12.7276 0
    endloop
  endfacet
  facet normal 0 0 -1
    outer loop
      vertex 14.9452 9.70554 0
      vertex 0 17.3205 0
      vertex 14.7815 10.7394 0
    endloop
  endfacet
  facet normal 0 0 -1
    outer loop
      vertex 0 -17.3205 0
      vertex 14.1355 -12.7276 0
      vertex 13.6603 -13.6603 0
    endloop
  endfacet
  facet normal 0 0 -1
    outer loop
      vertex 14.7815 10.7394 0
      vertex 0 17.3205 0
      vertex 14.5106 11.7504 0
    endloop
  endfacet
  facet normal 0 0 -1
    outer loop
      vertex 0 -17.3205 0
      vertex 13.6603 -13.6603 0
      vertex 13.0902 -14.5381 0
    endloop
  endfacet
  facet normal 0 0 -1
    outer loop
      vertex 14.5106 11.7504 0
      vertex 0 17.3205 0
      vertex 14.1355 12.7276 0
    endloop
  endfacet
  facet normal 0 0 -1
    outer loop
      vertex 0 -17.3205 0
      vertex 13.0902 -14.5381 0
      vertex 12.4314 -15.3516 0
    endloop
  endfacet
  facet normal 0 0 -1
    outer loop
      vertex 14.1355 12.7276 0
      vertex 0 17.3205 0
      vertex 13.6603 13.6603 0
    endloop
  endfacet
  facet normal 0 0 -1
    outer loop
      vertex 0 -17.3205 0
      vertex 12.4314 -15.3516 0
      vertex 11.6913 -16.0917 0
    endloop
  endfacet
  facet normal 0 0 -1
    outer loop
      vertex 13.6603 13.6603 0
      vertex 0 17.3205 0
      vertex 13.0902 14.5381 0
    endloop
  endfacet
  facet normal 0 0 -1
    outer loop
      vertex 0 -17.3205 0
      vertex 11.6913 -16.0917 0
      vertex 10.8779 -16.7504 0
    endloop
  endfacet
  facet normal 0 0 -1
    outer loop
      vertex 13.0902 14.5381 0
      vertex 0 17.3205 0
      vertex 12.4314 15.3516 0
    endloop
  endfacet
  facet normal 0 0 -1
    outer loop
      vertex 0 -17.3205 0
      vertex 10.8779 -16.7504 0
      vertex 10 -17.3205 0
    endloop
  endfacet
  facet normal 0 0 -1
    outer loop
      vertex 12.4314 15.3516 0
      vertex 0 17.3205 0
      vertex 11.6913 16.0917 0
    endloop
  endfacet
  facet normal 0 0 -1
    outer loop
      vertex 0 -17.3205 0
      vertex 10 -17.3205 0
      vertex 9.06737 -17.7957 0
    endloop
  endfacet
  facet normal 0 0 -1
    outer loop
      vertex 11.6913 16.0917 0
      vertex 0 17.3205 0
      vertex 10.8779 16.7504 0
    endloop
  endfacet
  facet normal 0 0 -1
    outer loop
      vertex 0 -17.3205 0
      vertex 9.06737 -17.7957 0
      vertex 8.09017 -18.1708 0
    endloop
  endfacet
  facet normal 0 0 -1
    outer loop
      vertex 10.8779 16.7504 0
      vertex 0 17.3205 0
      vertex 10 17.3205 0
    endloop
  endfacet
  facet normal 0 0 -1
    outer loop
      vertex 0 -17.3205 0
      vertex 8.09017 -18.1708 0
      vertex 7.07912 -18.4417 0
    endloop
  endfacet
  facet normal 0 0 -1
    outer loop
      vertex 10 17.3205 0
      vertex 0 17.3205 0
      vertex 9.06737 17.7957 0
    endloop
  endfacet
  facet normal 0 0 -1
    outer loop
      vertex 0 -17.3205 0
      vertex 7.07912 -18.4417 0
      vertex 6.04528 -18.6055 0
    endloop
  endfacet
  facet normal -0 0 -1
    outer loop
      vertex 9.06737 17.7957 0
      vertex 0 17.3205 0
      vertex 8.09017 18.1708 0
    endloop
  endfacet
  facet normal 0 0 -1
    outer loop
      vertex 0 -17.3205 0
      vertex 6.04528 -18.6055 0
      vertex 5 -18.6603 0
    endloop
  endfacet
  facet normal -0 0 -1
    outer loop
      vertex 8.09017 18.1708 0
      vertex 0 17.3205 0
      vertex 7.07912 18.4417 0
    endloop
  endfacet
  facet normal 0 0 -1
    outer loop
      vertex 0 -17.3205 0
      vertex 5 -18.6603 0
      vertex 3.95471 -18.6055 0
    endloop
  endfacet
  facet normal -0 0 -1
    outer loop
      vertex 7.07912 18.4417 0
      vertex 0 17.3205 0
      vertex 6.04528 18.6055 0
    endloop
  endfacet
  facet normal 0 0 -1
    outer loop
      vertex 0 -17.3205 0
      vertex 3.95471 -18.6055 0
      vertex 2.92088 -18.4417 0
    endloop
  endfacet
  facet normal -0 0 -1
    outer loop
      vertex 6.04528 18.6055 0
      vertex 0 17.3205 0
      vertex 5 18.6603 0
    endloop
  endfacet
  facet normal 0 0 -1
    outer loop
      vertex 0 -17.3205 0
      vertex 2.92088 -18.4417 0
      vertex 1.90983 -18.1708 0
    endloop
  endfacet
  facet normal 0 0 -1
    outer loop
      vertex 5 18.6603 0
      vertex 0 17.3205 0
      vertex 3.95471 18.6055 0
    endloop
  endfacet
  facet normal 0 0 -1
    outer loop
      vertex 0 -17.3205 0
      vertex 1.90983 -18.1708 0
      vertex 0.932633 -17.7957 0
    endloop
  endfacet
  facet normal 0 0 -1
    outer loop
      vertex 3.95471 18.6055 0
      vertex 0 17.3205 0
      vertex 2.92088 18.4417 0
    endloop
  endfacet
  facet normal 0 0 -1
    outer loop
      vertex 2.92088 18.4417 0
      vertex 0 17.3205 0
      vertex 1.90983 18.1708 0
    endloop
  endfacet
  facet normal 0 0 -1
    outer loop
      vertex 1.90983 18.1708 0
      vertex 0 17.3205 0
      vertex 0.932633 17.7957 0
    endloop
  endfacet
  facet normal 0 0 -1
    outer loop
      vertex -15 -8.66025 0
      vertex 0 -17.3205 0
      vertex -0.932633 -17.7957 0
    endloop
  endfacet
  facet normal 0 0 -1
    outer loop
      vertex 0 -17.3205 0
      vertex -15 -8.66025 0
      vertex 0 17.3205 0
    endloop
  endfacet
  facet normal 0 0 -1
    outer loop
      vertex -15 -8.66025 0
      vertex -0.932633 -17.7957 0
      vertex -1.90983 -18.1708 0
    endloop
  endfacet
  facet normal 0 0 -1
    outer loop
      vertex -15 8.66025 0
      vertex 0 17.3205 0
      vertex -15 -8.66025 0
    endloop
  endfacet
  facet normal 0 0 -1
    outer loop
      vertex -15 -8.66025 0
      vertex -1.90983 -18.1708 0
      vertex -2.92088 -18.4417 0
    endloop
  endfacet
  facet normal -0 0 -1
    outer loop
      vertex 0 17.3205 0
      vertex -15 8.66025 0
      vertex -0.932633 17.7957 0
    endloop
  endfacet
  facet normal 0 0 -1
    outer loop
      vertex -15 -8.66025 0
      vertex -2.92088 -18.4417 0
      vertex -3.95471 -18.6055 0
    endloop
  endfacet
  facet normal -0 0 -1
    outer loop
      vertex -0.932633 17.7957 0
      vertex -15 8.66025 0
      vertex -1.90983 18.1708 0
    endloop
  endfacet
  facet normal 0 0 -1
    outer loop
      vertex -15 -8.66025 0
      vertex -3.95471 -18.6055 0
      vertex -5 -18.6603 0
    endloop
  endfacet
  facet normal -0 0 -1
    outer loop
      vertex -1.90983 18.1708 0
      vertex -15 8.66025 0
      vertex -2.92088 18.4417 0
    endloop
  endfacet
  facet normal 0 0 -1
    outer loop
      vertex -15 -8.66025 0
      vertex -5 -18.6603 0
      vertex -6.04528 -18.6055 0
    endloop
  endfacet
  facet normal -0 0 -1
    outer loop
      vertex -2.92088 18.4417 0
      vertex -15 8.66025 0
      vertex -3.95471 18.6055 0
    endloop
  endfacet
  facet normal 0 0 -1
    outer loop
      vertex -15 -8.66025 0
      vertex -6.04528 -18.6055 0
      vertex -7.07912 -18.4417 0
    endloop
  endfacet
  facet normal -0 0 -1
    outer loop
      vertex -3.95471 18.6055 0
      vertex -15 8.66025 0
      vertex -5 18.6603 0
    endloop
  endfacet
  facet normal 0 0 -1
    outer loop
      vertex -15 -8.66025 0
      vertex -7.07912 -18.4417 0
      vertex -8.09017 -18.1708 0
    endloop
  endfacet
  facet normal 0 0 -1
    outer loop
      vertex -5 18.6603 0
      vertex -15 8.66025 0
      vertex -6.04528 18.6055 0
    endloop
  endfacet
  facet normal 0 0 -1
    outer loop
      vertex -15 -8.66025 0
      vertex -8.09017 -18.1708 0
      vertex -9.06737 -17.7957 0
    endloop
  endfacet
  facet normal 0 0 -1
    outer loop
      vertex -6.04528 18.6055 0
      vertex -15 8.66025 0
      vertex -7.07912 18.4417 0
    endloop
  endfacet
  facet normal 0 0 -1
    outer loop
      vertex -15 -8.66025 0
      vertex -9.06737 -17.7957 0
      vertex -10 -17.3205 0
    endloop
  endfacet
  facet normal 0 0 -1
    outer loop
      vertex -7.07912 18.4417 0
      vertex -15 8.66025 0
      vertex -8.09017 18.1708 0
    endloop
  endfacet
  facet normal 0 0 -1
    outer loop
      vertex -15 -8.66025 0
      vertex -10 -17.3205 0
      vertex -10.8779 -16.7504 0
    endloop
  endfacet
  facet normal 0 0 -1
    outer loop
      vertex -8.09017 18.1708 0
      vertex -15 8.66025 0
      vertex -9.06737 17.7957 0
    endloop
  endfacet
  facet normal 0 0 -1
    outer loop
      vertex -15 -8.66025 0
      vertex -10.8779 -16.7504 0
      vertex -11.6913 -16.0917 0
    endloop
  endfacet
  facet normal 0 0 -1
    outer loop
      vertex -9.06737 17.7957 0
      vertex -15 8.66025 0
      vertex -10 17.3205 0
    endloop
  endfacet
  facet normal 0 0 -1
    outer loop
      vertex -15 -8.66025 0
      vertex -11.6913 -16.0917 0
      vertex -12.4314 -15.3516 0
    endloop
  endfacet
  facet normal 0 0 -1
    outer loop
      vertex -10 17.3205 0
      vertex -15 8.66025 0
      vertex -10.8779 16.7504 0
    endloop
  endfacet
  facet normal 0 0 -1
    outer loop
      vertex -15 -8.66025 0
      vertex -12.4314 -15.3516 0
      vertex -13.0902 -14.5381 0
    endloop
  endfacet
  facet normal 0 0 -1
    outer loop
      vertex -10.8779 16.7504 0
      vertex -15 8.66025 0
      vertex -11.6913 16.0917 0
    endloop
  endfacet
  facet normal 0 0 -1
    outer loop
      vertex -15 -8.66025 0
      vertex -13.0902 -14.5381 0
      vertex -13.6603 -13.6603 0
    endloop
  endfacet
  facet normal 0 0 -1
    outer loop
      vertex -11.6913 16.0917 0
      vertex -15 8.66025 0
      vertex -12.4314 15.3516 0
    endloop
  endfacet
  facet normal 0 0 -1
    outer loop
      vertex -15 -8.66025 0
      vertex -13.6603 -13.6603 0
      vertex -14.1355 -12.7276 0
    endloop
  endfacet
  facet normal 0 0 -1
    outer loop
      vertex -12.4314 15.3516 0
      vertex -15 8.66025 0
      vertex -13.0902 14.5381 0
    endloop
  endfacet
  facet normal 0 0 -1
    outer loop
      vertex -15 -8.66025 0
      vertex -14.1355 -12.7276 0
      vertex -14.5106 -11.7504 0
    endloop
  endfacet
  facet normal 0 0 -1
    outer loop
      vertex -13.0902 14.5381 0
      vertex -15 8.66025 0
      vertex -13.6603 13.6603 0
    endloop
  endfacet
  facet normal 0 0 -1
    outer loop
      vertex -15 -8.66025 0
      vertex -14.5106 -11.7504 0
      vertex -14.7815 -10.7394 0
    endloop
  endfacet
  facet normal 0 0 -1
    outer loop
      vertex -13.6603 13.6603 0
      vertex -15 8.66025 0
      vertex -14.1355 12.7276 0
    endloop
  endfacet
  facet normal 0 0 -1
    outer loop
      vertex -15 -8.66025 0
      vertex -14.7815 -10.7394 0
      vertex -14.9452 -9.70554 0
    endloop
  endfacet
  facet normal 0 0 -1
    outer loop
      vertex -14.1355 12.7276 0
      vertex -15 8.66025 0
      vertex -14.5106 11.7504 0
    endloop
  endfacet
  facet normal 0 0 -1
    outer loop
      vertex -14.5106 11.7504 0
      vertex -15 8.66025 0
      vertex -14.7815 10.7394 0
    endloop
  endfacet
  facet normal 0 0 -1
    outer loop
      vertex -14.7815 10.7394 0
      vertex -15 8.66025 0
      vertex -14.9452 9.70554 0
    endloop
  endfacet
  facet normal 0 0 -1
    outer loop
      vertex -15.8779 -8.09017 0
      vertex -15 8.66025 0
      vertex -15 -8.66025 0
    endloop
  endfacet
  facet normal 0 0 -1
    outer loop
      vertex -15.8779 -8.09017 0
      vertex -15.8779 8.09017 0
      vertex -15 8.66025 0
    endloop
  endfacet
  facet normal 0 0 -1
    outer loop
      vertex -16.6913 -7.43145 0
      vertex -15.8779 8.09017 0
      vertex -15.8779 -8.09017 0
    endloop
  endfacet
  facet normal 0 0 -1
    outer loop
      vertex -16.6913 -7.43145 0
      vertex -16.6913 7.43145 0
      vertex -15.8779 8.09017 0
    endloop
  endfacet
  facet normal 0 0 -1
    outer loop
      vertex -17.4314 -6.69131 0
      vertex -16.6913 7.43145 0
      vertex -16.6913 -7.43145 0
    endloop
  endfacet
  facet normal 0 0 -1
    outer loop
      vertex -17.4314 -6.69131 0
      vertex -17.4314 6.69131 0
      vertex -16.6913 7.43145 0
    endloop
  endfacet
  facet normal 0 0 -1
    outer loop
      vertex -18.0902 -5.87785 0
      vertex -17.4314 6.69131 0
      vertex -17.4314 -6.69131 0
    endloop
  endfacet
  facet normal 0 0 -1
    outer loop
      vertex -18.0902 -5.87785 0
      vertex -18.0902 5.87785 0
      vertex -17.4314 6.69131 0
    endloop
  endfacet
  facet normal 0 0 -1
    outer loop
      vertex -18.6603 -5 0
      vertex -18.0902 5.87785 0
      vertex -18.0902 -5.87785 0
    endloop
  endfacet
  facet normal 0 0 -1
    outer loop
      vertex -18.6603 -5 0
      vertex -18.6603 5 0
      vertex -18.0902 5.87785 0
    endloop
  endfacet
  facet normal 0 0 -1
    outer loop
      vertex -19.1355 -4.06737 0
      vertex -18.6603 5 0
      vertex -18.6603 -5 0
    endloop
  endfacet
  facet normal 0 0 -1
    outer loop
      vertex -19.1355 -4.06737 0
      vertex -19.1355 4.06737 0
      vertex -18.6603 5 0
    endloop
  endfacet
  facet normal 0 0 -1
    outer loop
      vertex -19.5106 -3.09017 0
      vertex -19.1355 4.06737 0
      vertex -19.1355 -4.06737 0
    endloop
  endfacet
  facet normal 0 0 -1
    outer loop
      vertex -19.5106 -3.09017 0
      vertex -19.5106 3.09017 0
      vertex -19.1355 4.06737 0
    endloop
  endfacet
  facet normal 0 0 -1
    outer loop
      vertex -19.7815 -2.07912 0
      vertex -19.5106 3.09017 0
      vertex -19.5106 -3.09017 0
    endloop
  endfacet
  facet normal 0 0 -1
    outer loop
      vertex -19.7815 -2.07912 0
      vertex -19.7815 2.07912 0
      vertex -19.5106 3.09017 0
    endloop
  endfacet
  facet normal 0 0 -1
    outer loop
      vertex -19.9452 -1.04528 0
      vertex -19.7815 2.07912 0
      vertex -19.7815 -2.07912 0
    endloop
  endfacet
  facet normal 0 0 -1
    outer loop
      vertex -19.9452 -1.04528 0
      vertex -19.9452 1.04528 0
      vertex -19.7815 2.07912 0
    endloop
  endfacet
  facet normal 0 -0 -1
    outer loop
      vertex -19.9452 1.04528 0
      vertex -19.9452 -1.04528 0
      vertex -20 0 0
    endloop
  endfacet
  facet normal 0.629344 -0.777126 0
    outer loop
      vertex 15.8779 -8.09017 0
      vertex 16.6913 -7.43145 1
      vertex 15.8779 -8.09017 1
    endloop
  endfacet
  facet normal 0.629344 -0.777126 0
    outer loop
      vertex 16.6913 -7.43145 1
      vertex 15.8779 -8.09017 0
      vertex 16.6913 -7.43145 0
    endloop
  endfacet
  facet normal 0 0 1
    outer loop
      vertex 19.9452 1.04528 1
      vertex 19.9452 -1.04528 1
      vertex 20 0 1
    endloop
  endfacet
  facet normal 0 0 1
    outer loop
      vertex 19.7815 2.07912 1
      vertex 19.9452 -1.04528 1
      vertex 19.9452 1.04528 1
    endloop
  endfacet
  facet normal 0 0 1
    outer loop
      vertex 19.7815 2.07912 1
      vertex 19.7815 -2.07912 1
      vertex 19.9452 -1.04528 1
    endloop
  endfacet
  facet normal 0 0 1
    outer loop
      vertex 19.5106 3.09017 1
      vertex 19.7815 -2.07912 1
      vertex 19.7815 2.07912 1
    endloop
  endfacet
  facet normal 0 0 1
    outer loop
      vertex 19.5106 3.09017 1
      vertex 19.5106 -3.09017 1
      vertex 19.7815 -2.07912 1
    endloop
  endfacet
  facet normal 0 0 1
    outer loop
      vertex 19.1355 4.06737 1
      vertex 19.5106 -3.09017 1
      vertex 19.5106 3.09017 1
    endloop
  endfacet
  facet normal 0 0 1
    outer loop
      vertex 19.1355 4.06737 1
      vertex 19.1355 -4.06737 1
      vertex 19.5106 -3.09017 1
    endloop
  endfacet
  facet normal 0 0 1
    outer loop
      vertex 18.6603 5 1
      vertex 19.1355 -4.06737 1
      vertex 19.1355 4.06737 1
    endloop
  endfacet
  facet normal 0 0 1
    outer loop
      vertex 18.6603 5 1
      vertex 18.6603 -5 1
      vertex 19.1355 -4.06737 1
    endloop
  endfacet
  facet normal 0 0 1
    outer loop
      vertex 18.0902 5.87785 1
      vertex 18.6603 -5 1
      vertex 18.6603 5 1
    endloop
  endfacet
  facet normal 0 0 1
    outer loop
      vertex 18.0902 5.87785 1
      vertex 18.0902 -5.87785 1
      vertex 18.6603 -5 1
    endloop
  endfacet
  facet normal 0 0 1
    outer loop
      vertex 17.4314 6.69131 1
      vertex 18.0902 -5.87785 1
      vertex 18.0902 5.87785 1
    endloop
  endfacet
  facet normal 0 0 1
    outer loop
      vertex 17.4314 6.69131 1
      vertex 17.4314 -6.69131 1
      vertex 18.0902 -5.87785 1
    endloop
  endfacet
  facet normal 0 0 1
    outer loop
      vertex 16.6913 7.43145 1
      vertex 17.4314 -6.69131 1
      vertex 17.4314 6.69131 1
    endloop
  endfacet
  facet normal 0 0 1
    outer loop
      vertex 16.6913 7.43145 1
      vertex 16.6913 -7.43145 1
      vertex 17.4314 -6.69131 1
    endloop
  endfacet
  facet normal 0 0 1
    outer loop
      vertex 15.8779 8.09017 1
      vertex 16.6913 -7.43145 1
      vertex 16.6913 7.43145 1
    endloop
  endfacet
  facet normal 0 0 1
    outer loop
      vertex 15.8779 8.09017 1
      vertex 15.8779 -8.09017 1
      vertex 16.6913 -7.43145 1
    endloop
  endfacet
  facet normal 0 0 1
    outer loop
      vertex 15 8.66025 1
      vertex 15.8779 -8.09017 1
      vertex 15.8779 8.09017 1
    endloop
  endfacet
  facet normal 0 0 1
    outer loop
      vertex 15 8.66025 1
      vertex 15 -8.66025 1
      vertex 15.8779 -8.09017 1
    endloop
  endfacet
  facet normal 0 0 1
    outer loop
      vertex 0 17.3205 1
      vertex 15 8.66025 1
      vertex 14.9452 9.70554 1
    endloop
  endfacet
  facet normal 0 0 1
    outer loop
      vertex 15 8.66025 1
      vertex 0 17.3205 1
      vertex 15 -8.66025 1
    endloop
  endfacet
  facet normal 0 0 1
    outer loop
      vertex 0 17.3205 1
      vertex 14.9452 9.70554 1
      vertex 14.7815 10.7394 1
    endloop
  endfacet
  facet normal 0 0 1
    outer loop
      vertex 0 -17.3205 1
      vertex 15 -8.66025 1
      vertex 0 17.3205 1
    endloop
  endfacet
  facet normal 0 0 1
    outer loop
      vertex 0 17.3205 1
      vertex 14.7815 10.7394 1
      vertex 14.5106 11.7504 1
    endloop
  endfacet
  facet normal 0 0 1
    outer loop
      vertex 15 -8.66025 1
      vertex 0 -17.3205 1
      vertex 14.9452 -9.70554 1
    endloop
  endfacet
  facet normal 0 0 1
    outer loop
      vertex 0 17.3205 1
      vertex 14.5106 11.7504 1
      vertex 14.1355 12.7276 1
    endloop
  endfacet
  facet normal 0 0 1
    outer loop
      vertex 14.9452 -9.70554 1
      vertex 0 -17.3205 1
      vertex 14.7815 -10.7394 1
    endloop
  endfacet
  facet normal 0 0 1
    outer loop
      vertex 0 17.3205 1
      vertex 14.1355 12.7276 1
      vertex 13.6603 13.6603 1
    endloop
  endfacet
  facet normal 0 0 1
    outer loop
      vertex 14.7815 -10.7394 1
      vertex 0 -17.3205 1
      vertex 14.5106 -11.7504 1
    endloop
  endfacet
  facet normal 0 0 1
    outer loop
      vertex 0 17.3205 1
      vertex 13.6603 13.6603 1
      vertex 13.0902 14.5381 1
    endloop
  endfacet
  facet normal 0 0 1
    outer loop
      vertex 14.5106 -11.7504 1
      vertex 0 -17.3205 1
      vertex 14.1355 -12.7276 1
    endloop
  endfacet
  facet normal 0 0 1
    outer loop
      vertex 0 17.3205 1
      vertex 13.0902 14.5381 1
      vertex 12.4314 15.3516 1
    endloop
  endfacet
  facet normal 0 0 1
    outer loop
      vertex 14.1355 -12.7276 1
      vertex 0 -17.3205 1
      vertex 13.6603 -13.6603 1
    endloop
  endfacet
  facet normal 0 0 1
    outer loop
      vertex 0 17.3205 1
      vertex 12.4314 15.3516 1
      vertex 11.6913 16.0917 1
    endloop
  endfacet
  facet normal 0 0 1
    outer loop
      vertex 13.6603 -13.6603 1
      vertex 0 -17.3205 1
      vertex 13.0902 -14.5381 1
    endloop
  endfacet
  facet normal 0 0 1
    outer loop
      vertex 0 17.3205 1
      vertex 11.6913 16.0917 1
      vertex 10.8779 16.7504 1
    endloop
  endfacet
  facet normal 0 0 1
    outer loop
      vertex 13.0902 -14.5381 1
      vertex 0 -17.3205 1
      vertex 12.4314 -15.3516 1
    endloop
  endfacet
  facet normal -0 0 1
    outer loop
      vertex 0 17.3205 1
      vertex 10.8779 16.7504 1
      vertex 10 17.3205 1
    endloop
  endfacet
  facet normal 0 0 1
    outer loop
      vertex 12.4314 -15.3516 1
      vertex 0 -17.3205 1
      vertex 11.6913 -16.0917 1
    endloop
  endfacet
  facet normal 0 0 1
    outer loop
      vertex 0 17.3205 1
      vertex 10 17.3205 1
      vertex 9.06737 17.7957 1
    endloop
  endfacet
  facet normal 0 0 1
    outer loop
      vertex 11.6913 -16.0917 1
      vertex 0 -17.3205 1
      vertex 10.8779 -16.7504 1
    endloop
  endfacet
  facet normal 0 0 1
    outer loop
      vertex 0 17.3205 1
      vertex 9.06737 17.7957 1
      vertex 8.09017 18.1708 1
    endloop
  endfacet
  facet normal 0 0 1
    outer loop
      vertex 10.8779 -16.7504 1
      vertex 0 -17.3205 1
      vertex 10 -17.3205 1
    endloop
  endfacet
  facet normal 0 0 1
    outer loop
      vertex 0 17.3205 1
      vertex 8.09017 18.1708 1
      vertex 7.07912 18.4417 1
    endloop
  endfacet
  facet normal 0 0 1
    outer loop
      vertex 10 -17.3205 1
      vertex 0 -17.3205 1
      vertex 9.06737 -17.7957 1
    endloop
  endfacet
  facet normal 0 0 1
    outer loop
      vertex 0 17.3205 1
      vertex 7.07912 18.4417 1
      vertex 6.04528 18.6055 1
    endloop
  endfacet
  facet normal 0 0 1
    outer loop
      vertex 9.06737 -17.7957 1
      vertex 0 -17.3205 1
      vertex 8.09017 -18.1708 1
    endloop
  endfacet
  facet normal 0 0 1
    outer loop
      vertex 0 17.3205 1
      vertex 6.04528 18.6055 1
      vertex 5 18.6603 1
    endloop
  endfacet
  facet normal 0 0 1
    outer loop
      vertex 8.09017 -18.1708 1
      vertex 0 -17.3205 1
      vertex 7.07912 -18.4417 1
    endloop
  endfacet
  facet normal 0 0 1
    outer loop
      vertex 0 17.3205 1
      vertex 5 18.6603 1
      vertex 3.95471 18.6055 1
    endloop
  endfacet
  facet normal 0 0 1
    outer loop
      vertex 7.07912 -18.4417 1
      vertex 0 -17.3205 1
      vertex 6.04528 -18.6055 1
    endloop
  endfacet
  facet normal 0 0 1
    outer loop
      vertex 0 17.3205 1
      vertex 3.95471 18.6055 1
      vertex 2.92088 18.4417 1
    endloop
  endfacet
  facet normal 0 0 1
    outer loop
      vertex 6.04528 -18.6055 1
      vertex 0 -17.3205 1
      vertex 5 -18.6603 1
    endloop
  endfacet
  facet normal 0 0 1
    outer loop
      vertex 0 17.3205 1
      vertex 2.92088 18.4417 1
      vertex 1.90983 18.1708 1
    endloop
  endfacet
  facet normal 0 0 1
    outer loop
      vertex 5 -18.6603 1
      vertex 0 -17.3205 1
      vertex 3.95471 -18.6055 1
    endloop
  endfacet
  facet normal 0 0 1
    outer loop
      vertex 0 17.3205 1
      vertex 1.90983 18.1708 1
      vertex 0.932633 17.7957 1
    endloop
  endfacet
  facet normal 0 0 1
    outer loop
      vertex 3.95471 -18.6055 1
      vertex 0 -17.3205 1
      vertex 2.92088 -18.4417 1
    endloop
  endfacet
  facet normal 0 0 1
    outer loop
      vertex 2.92088 -18.4417 1
      vertex 0 -17.3205 1
      vertex 1.90983 -18.1708 1
    endloop
  endfacet
  facet normal 0 0 1
    outer loop
      vertex 1.90983 -18.1708 1
      vertex 0 -17.3205 1
      vertex 0.932633 -17.7957 1
    endloop
  endfacet
  facet normal 0 0 1
    outer loop
      vertex -15 8.66025 1
      vertex 0 17.3205 1
      vertex -0.932633 17.7957 1
    endloop
  endfacet
  facet normal 0 0 1
    outer loop
      vertex 0 17.3205 1
      vertex -15 8.66025 1
      vertex 0 -17.3205 1
    endloop
  endfacet
  facet normal 0 0 1
    outer loop
      vertex -15 8.66025 1
      vertex -0.932633 17.7957 1
      vertex -1.90983 18.1708 1
    endloop
  endfacet
  facet normal -0 0 1
    outer loop
      vertex -15 -8.66025 1
      vertex 0 -17.3205 1
      vertex -15 8.66025 1
    endloop
  endfacet
  facet normal 0 0 1
    outer loop
      vertex -15 8.66025 1
      vertex -1.90983 18.1708 1
      vertex -2.92088 18.4417 1
    endloop
  endfacet
  facet normal 0 0 1
    outer loop
      vertex 0 -17.3205 1
      vertex -15 -8.66025 1
      vertex -0.932633 -17.7957 1
    endloop
  endfacet
  facet normal 0 0 1
    outer loop
      vertex -15 8.66025 1
      vertex -2.92088 18.4417 1
      vertex -3.95471 18.6055 1
    endloop
  endfacet
  facet normal 0 0 1
    outer loop
      vertex -0.932633 -17.7957 1
      vertex -15 -8.66025 1
      vertex -1.90983 -18.1708 1
    endloop
  endfacet
  facet normal 0 0 1
    outer loop
      vertex -15 8.66025 1
      vertex -3.95471 18.6055 1
      vertex -5 18.6603 1
    endloop
  endfacet
  facet normal 0 0 1
    outer loop
      vertex -1.90983 -18.1708 1
      vertex -15 -8.66025 1
      vertex -2.92088 -18.4417 1
    endloop
  endfacet
  facet normal 0 0 1
    outer loop
      vertex -15 8.66025 1
      vertex -5 18.6603 1
      vertex -6.04528 18.6055 1
    endloop
  endfacet
  facet normal 0 0 1
    outer loop
      vertex -2.92088 -18.4417 1
      vertex -15 -8.66025 1
      vertex -3.95471 -18.6055 1
    endloop
  endfacet
  facet normal 0 0 1
    outer loop
      vertex -15 8.66025 1
      vertex -6.04528 18.6055 1
      vertex -7.07912 18.4417 1
    endloop
  endfacet
  facet normal 0 0 1
    outer loop
      vertex -3.95471 -18.6055 1
      vertex -15 -8.66025 1
      vertex -5 -18.6603 1
    endloop
  endfacet
  facet normal 0 0 1
    outer loop
      vertex -15 8.66025 1
      vertex -7.07912 18.4417 1
      vertex -8.09017 18.1708 1
    endloop
  endfacet
  facet normal 0 0 1
    outer loop
      vertex -5 -18.6603 1
      vertex -15 -8.66025 1
      vertex -6.04528 -18.6055 1
    endloop
  endfacet
  facet normal 0 0 1
    outer loop
      vertex -15 8.66025 1
      vertex -8.09017 18.1708 1
      vertex -9.06737 17.7957 1
    endloop
  endfacet
  facet normal 0 0 1
    outer loop
      vertex -6.04528 -18.6055 1
      vertex -15 -8.66025 1
      vertex -7.07912 -18.4417 1
    endloop
  endfacet
  facet normal 0 0 1
    outer loop
      vertex -15 8.66025 1
      vertex -9.06737 17.7957 1
      vertex -10 17.3205 1
    endloop
  endfacet
  facet normal 0 0 1
    outer loop
      vertex -7.07912 -18.4417 1
      vertex -15 -8.66025 1
      vertex -8.09017 -18.1708 1
    endloop
  endfacet
  facet normal 0 0 1
    outer loop
      vertex -15 8.66025 1
      vertex -10 17.3205 1
      vertex -10.8779 16.7504 1
    endloop
  endfacet
  facet normal 0 0 1
    outer loop
      vertex -8.09017 -18.1708 1
      vertex -15 -8.66025 1
      vertex -9.06737 -17.7957 1
    endloop
  endfacet
  facet normal 0 0 1
    outer loop
      vertex -15 8.66025 1
      vertex -10.8779 16.7504 1
      vertex -11.6913 16.0917 1
    endloop
  endfacet
  facet normal 0 0 1
    outer loop
      vertex -9.06737 -17.7957 1
      vertex -15 -8.66025 1
      vertex -10 -17.3205 1
    endloop
  endfacet
  facet normal 0 0 1
    outer loop
      vertex -15 8.66025 1
      vertex -11.6913 16.0917 1
      vertex -12.4314 15.3516 1
    endloop
  endfacet
  facet normal 0 0 1
    outer loop
      vertex -10 -17.3205 1
      vertex -15 -8.66025 1
      vertex -10.8779 -16.7504 1
    endloop
  endfacet
  facet normal 0 0 1
    outer loop
      vertex -15 8.66025 1
      vertex -12.4314 15.3516 1
      vertex -13.0902 14.5381 1
    endloop
  endfacet
  facet normal 0 0 1
    outer loop
      vertex -10.8779 -16.7504 1
      vertex -15 -8.66025 1
      vertex -11.6913 -16.0917 1
    endloop
  endfacet
  facet normal 0 0 1
    outer loop
      vertex -15 8.66025 1
      vertex -13.0902 14.5381 1
      vertex -13.6603 13.6603 1
    endloop
  endfacet
  facet normal 0 0 1
    outer loop
      vertex -11.6913 -16.0917 1
      vertex -15 -8.66025 1
      vertex -12.4314 -15.3516 1
    endloop
  endfacet
  facet normal 0 0 1
    outer loop
      vertex -15 8.66025 1
      vertex -13.6603 13.6603 1
      vertex -14.1355 12.7276 1
    endloop
  endfacet
  facet normal 0 0 1
    outer loop
      vertex -12.4314 -15.3516 1
      vertex -15 -8.66025 1
      vertex -13.0902 -14.5381 1
    endloop
  endfacet
  facet normal 0 0 1
    outer loop
      vertex -15 8.66025 1
      vertex -14.1355 12.7276 1
      vertex -14.5106 11.7504 1
    endloop
  endfacet
  facet normal 0 0 1
    outer loop
      vertex -13.0902 -14.5381 1
      vertex -15 -8.66025 1
      vertex -13.6603 -13.6603 1
    endloop
  endfacet
  facet normal 0 0 1
    outer loop
      vertex -15 8.66025 1
      vertex -14.5106 11.7504 1
      vertex -14.7815 10.7394 1
    endloop
  endfacet
  facet normal 0 0 1
    outer loop
      vertex -13.6603 -13.6603 1
      vertex -15 -8.66025 1
      vertex -14.1355 -12.7276 1
    endloop
  endfacet
  facet normal 0 0 1
    outer loop
      vertex -15 8.66025 1
      vertex -14.7815 10.7394 1
      vertex -14.9452 9.70554 1
    endloop
  endfacet
  facet normal 0 0 1
    outer loop
      vertex -14.1355 -12.7276 1
      vertex -15 -8.66025 1
      vertex -14.5106 -11.7504 1
    endloop
  endfacet
  facet normal 0 0 1
    outer loop
      vertex -14.5106 -11.7504 1
      vertex -15 -8.66025 1
      vertex -14.7815 -10.7394 1
    endloop
  endfacet
  facet normal 0 0 1
    outer loop
      vertex -14.7815 -10.7394 1
      vertex -15 -8.66025 1
      vertex -14.9452 -9.70554 1
    endloop
  endfacet
  facet normal -0 0 1
    outer loop
      vertex -15.8779 8.09017 1
      vertex -15 -8.66025 1
      vertex -15 8.66025 1
    endloop
  endfacet
  facet normal 0 0 1
    outer loop
      vertex -15.8779 8.09017 1
      vertex -15.8779 -8.09017 1
      vertex -15 -8.66025 1
    endloop
  endfacet
  facet normal -0 0 1
    outer loop
      vertex -16.6913 7.43145 1
      vertex -15.8779 -8.09017 1
      vertex -15.8779 8.09017 1
    endloop
  endfacet
  facet normal 0 0 1
    outer loop
      vertex -16.6913 7.43145 1
      vertex -16.6913 -7.43145 1
      vertex -15.8779 -8.09017 1
    endloop
  endfacet
  facet normal -0 0 1
    outer loop
      vertex -17.4314 6.69131 1
      vertex -16.6913 -7.43145 1
      vertex -16.6913 7.43145 1
    endloop
  endfacet
  facet normal 0 0 1
    outer loop
      vertex -17.4314 6.69131 1
      vertex -17.4314 -6.69131 1
      vertex -16.6913 -7.43145 1
    endloop
  endfacet
  facet normal -0 0 1
    outer loop
      vertex -18.0902 5.87785 1
      vertex -17.4314 -6.69131 1
      vertex -17.4314 6.69131 1
    endloop
  endfacet
  facet normal 0 0 1
    outer loop
      vertex -18.0902 5.87785 1
      vertex -18.0902 -5.87785 1
      vertex -17.4314 -6.69131 1
    endloop
  endfacet
  facet normal -0 0 1
    outer loop
      vertex -18.6603 5 1
      vertex -18.0902 -5.87785 1
      vertex -18.0902 5.87785 1
    endloop
  endfacet
  facet normal 0 0 1
    outer loop
      vertex -18.6603 5 1
      vertex -18.6603 -5 1
      vertex -18.0902 -5.87785 1
    endloop
  endfacet
  facet normal -0 0 1
    outer loop
      vertex -19.1355 4.06737 1
      vertex -18.6603 -5 1
      vertex -18.6603 5 1
    endloop
  endfacet
  facet normal 0 0 1
    outer loop
      vertex -19.1355 4.06737 1
      vertex -19.1355 -4.06737 1
      vertex -18.6603 -5 1
    endloop
  endfacet
  facet normal -0 0 1
    outer loop
      vertex -19.5106 3.09017 1
      vertex -19.1355 -4.06737 1
      vertex -19.1355 4.06737 1
    endloop
  endfacet
  facet normal 0 0 1
    outer loop
      vertex -19.5106 3.09017 1
      vertex -19.5106 -3.09017 1
      vertex -19.1355 -4.06737 1
    endloop
  endfacet
  facet normal -0 0 1
    outer loop
      vertex -19.7815 2.07912 1
      vertex -19.5106 -3.09017 1
      vertex -19.5106 3.09017 1
    endloop
  endfacet
  facet normal 0 0 1
    outer loop
      vertex -19.7815 2.07912 1
      vertex -19.7815 -2.07912 1
      vertex -19.5106 -3.09017 1
    endloop
  endfacet
  facet normal -0 0 1
    outer loop
      vertex -19.9452 1.04528 1
      vertex -19.7815 -2.07912 1
      vertex -19.7815 2.07912 1
    endloop
  endfacet
  facet normal 0 0 1
    outer loop
      vertex -19.9452 1.04528 1
      vertex -19.9452 -1.04528 1
      vertex -19.7815 -2.07912 1
    endloop
  endfacet
  facet normal 0 -0 1
    outer loop
      vertex -19.9452 -1.04528 1
      vertex -19.9452 1.04528 1
      vertex -20 0 1
    endloop
  endfacet
  facet normal 0.707126 0.707088 0
    outer loop
      vertex 17.4314 6.69131 1
      vertex 16.6913 7.43145 0
      vertex 16.6913 7.43145 1
    endloop
  endfacet
  facet normal 0.707126 0.707088 0
    outer loop
      vertex 16.6913 7.43145 0
      vertex 17.4314 6.69131 1
      vertex 17.4314 6.69131 0
    endloop
  endfacet
  facet normal 0.544616 0.838686 -0
    outer loop
      vertex 15.8779 8.09017 0
      vertex 15 8.66025 1
      vertex 15.8779 8.09017 1
    endloop
  endfacet
  facet normal 0.544616 0.838686 0
    outer loop
      vertex 15 8.66025 1
      vertex 15.8779 8.09017 0
      vertex 15 8.66025 0
    endloop
  endfacet
  facet normal 0.933584 0.358358 0
    outer loop
      vertex 19.5106 3.09017 1
      vertex 19.1355 4.06737 0
      vertex 19.1355 4.06737 1
    endloop
  endfacet
  facet normal 0.933584 0.358358 0
    outer loop
      vertex 19.1355 4.06737 0
      vertex 19.5106 3.09017 1
      vertex 19.5106 3.09017 0
    endloop
  endfacet
  facet normal 0.987695 0.15639 0
    outer loop
      vertex 14.9452 9.70554 1
      vertex 14.7815 10.7394 0
      vertex 14.7815 10.7394 1
    endloop
  endfacet
  facet normal 0.987695 0.15639 0
    outer loop
      vertex 14.7815 10.7394 0
      vertex 14.9452 9.70554 1
      vertex 14.9452 9.70554 0
    endloop
  endfacet
  facet normal 0.707107 0.707107 -0
    outer loop
      vertex 12.4314 15.3516 0
      vertex 11.6913 16.0917 1
      vertex 12.4314 15.3516 1
    endloop
  endfacet
  facet normal 0.707107 0.707107 0
    outer loop
      vertex 11.6913 16.0917 1
      vertex 12.4314 15.3516 0
      vertex 11.6913 16.0917 0
    endloop
  endfacet
  facet normal 0.777127 0.629344 0
    outer loop
      vertex 13.0902 14.5381 1
      vertex 12.4314 15.3516 0
      vertex 12.4314 15.3516 1
    endloop
  endfacet
  facet normal 0.777127 0.629344 0
    outer loop
      vertex 12.4314 15.3516 0
      vertex 13.0902 14.5381 1
      vertex 13.0902 14.5381 0
    endloop
  endfacet
  facet normal 0.838649 0.544673 0
    outer loop
      vertex 13.6603 13.6603 1
      vertex 13.0902 14.5381 0
      vertex 13.0902 14.5381 1
    endloop
  endfacet
  facet normal 0.838649 0.544673 0
    outer loop
      vertex 13.0902 14.5381 0
      vertex 13.6603 13.6603 1
      vertex 13.6603 13.6603 0
    endloop
  endfacet
  facet normal -0.156488 0.98768 0
    outer loop
      vertex 3.95471 18.6055 0
      vertex 2.92088 18.4417 1
      vertex 3.95471 18.6055 1
    endloop
  endfacet
  facet normal -0.156488 0.98768 0
    outer loop
      vertex 2.92088 18.4417 1
      vertex 3.95471 18.6055 0
      vertex 2.92088 18.4417 0
    endloop
  endfacet
  facet normal 0.998629 0.0523537 0
    outer loop
      vertex 15 8.66025 1
      vertex 14.9452 9.70554 0
      vertex 14.9452 9.70554 1
    endloop
  endfacet
  facet normal 0.998629 0.0523537 0
    outer loop
      vertex 14.9452 9.70554 0
      vertex 15 8.66025 1
      vertex 15 8.66025 0
    endloop
  endfacet
  facet normal -0.45399 0.891007 0
    outer loop
      vertex 0.932633 17.7957 0
      vertex 0 17.3205 1
      vertex 0.932633 17.7957 1
    endloop
  endfacet
  facet normal -0.45399 0.891007 0
    outer loop
      vertex 0 17.3205 1
      vertex 0.932633 17.7957 0
      vertex 0 17.3205 0
    endloop
  endfacet
  facet normal 0.0523542 0.998629 -0
    outer loop
      vertex 6.04528 18.6055 0
      vertex 5 18.6603 1
      vertex 6.04528 18.6055 1
    endloop
  endfacet
  facet normal 0.0523542 0.998629 0
    outer loop
      vertex 5 18.6603 1
      vertex 6.04528 18.6055 0
      vertex 5 18.6603 0
    endloop
  endfacet
  facet normal 0.89102 0.453964 0
    outer loop
      vertex 14.1355 12.7276 1
      vertex 13.6603 13.6603 0
      vertex 13.6603 13.6603 1
    endloop
  endfacet
  facet normal 0.89102 0.453964 0
    outer loop
      vertex 13.6603 13.6603 0
      vertex 14.1355 12.7276 1
      vertex 14.1355 12.7276 0
    endloop
  endfacet
  facet normal 0.933584 0.358358 0
    outer loop
      vertex 14.5106 11.7504 1
      vertex 14.1355 12.7276 0
      vertex 14.1355 12.7276 1
    endloop
  endfacet
  facet normal 0.933584 0.358358 0
    outer loop
      vertex 14.1355 12.7276 0
      vertex 14.5106 11.7504 1
      vertex 14.5106 11.7504 0
    endloop
  endfacet
  facet normal 0.965925 0.258822 0
    outer loop
      vertex 14.7815 10.7394 1
      vertex 14.5106 11.7504 0
      vertex 14.5106 11.7504 1
    endloop
  endfacet
  facet normal 0.965925 0.258822 0
    outer loop
      vertex 14.5106 11.7504 0
      vertex 14.7815 10.7394 1
      vertex 14.7815 10.7394 0
    endloop
  endfacet
  facet normal -0.25881 0.965928 0
    outer loop
      vertex 2.92088 18.4417 0
      vertex 1.90983 18.1708 1
      vertex 2.92088 18.4417 1
    endloop
  endfacet
  facet normal -0.25881 0.965928 0
    outer loop
      vertex 1.90983 18.1708 1
      vertex 2.92088 18.4417 0
      vertex 1.90983 18.1708 0
    endloop
  endfacet
  facet normal -0.0523537 0.998629 0
    outer loop
      vertex 5 18.6603 0
      vertex 3.95471 18.6055 1
      vertex 5 18.6603 1
    endloop
  endfacet
  facet normal -0.0523537 0.998629 0
    outer loop
      vertex 3.95471 18.6055 1
      vertex 5 18.6603 0
      vertex 3.95471 18.6055 0
    endloop
  endfacet
  facet normal 0.629333 0.777136 -0
    outer loop
      vertex 11.6913 16.0917 0
      vertex 10.8779 16.7504 1
      vertex 11.6913 16.0917 1
    endloop
  endfacet
  facet normal 0.629333 0.777136 0
    outer loop
      vertex 10.8779 16.7504 1
      vertex 11.6913 16.0917 0
      vertex 10.8779 16.7504 0
    endloop
  endfacet
  facet normal 0.544629 0.838677 -0
    outer loop
      vertex 10.8779 16.7504 0
      vertex 10 17.3205 1
      vertex 10.8779 16.7504 1
    endloop
  endfacet
  facet normal 0.544629 0.838677 0
    outer loop
      vertex 10 17.3205 1
      vertex 10.8779 16.7504 0
      vertex 10 17.3205 0
    endloop
  endfacet
  facet normal 0.453991 0.891006 -0
    outer loop
      vertex 10 17.3205 0
      vertex 9.06737 17.7957 1
      vertex 10 17.3205 1
    endloop
  endfacet
  facet normal 0.453991 0.891006 0
    outer loop
      vertex 9.06737 17.7957 1
      vertex 10 17.3205 0
      vertex 9.06737 17.7957 0
    endloop
  endfacet
  facet normal 0.156486 0.98768 -0
    outer loop
      vertex 7.07912 18.4417 0
      vertex 6.04528 18.6055 1
      vertex 7.07912 18.4417 1
    endloop
  endfacet
  facet normal 0.156486 0.98768 0
    outer loop
      vertex 6.04528 18.6055 1
      vertex 7.07912 18.4417 0
      vertex 6.04528 18.6055 0
    endloop
  endfacet
  facet normal 0.25881 0.965928 -0
    outer loop
      vertex 8.09017 18.1708 0
      vertex 7.07912 18.4417 1
      vertex 8.09017 18.1708 1
    endloop
  endfacet
  facet normal 0.25881 0.965928 0
    outer loop
      vertex 7.07912 18.4417 1
      vertex 8.09017 18.1708 0
      vertex 7.07912 18.4417 0
    endloop
  endfacet
  facet normal -0.358359 0.933584 0
    outer loop
      vertex 1.90983 18.1708 0
      vertex 0.932633 17.7957 1
      vertex 1.90983 18.1708 1
    endloop
  endfacet
  facet normal -0.358359 0.933584 0
    outer loop
      vertex 0.932633 17.7957 1
      vertex 1.90983 18.1708 0
      vertex 0.932633 17.7957 0
    endloop
  endfacet
  facet normal 0.358358 0.933584 -0
    outer loop
      vertex 9.06737 17.7957 0
      vertex 8.09017 18.1708 1
      vertex 9.06737 17.7957 1
    endloop
  endfacet
  facet normal 0.358358 0.933584 0
    outer loop
      vertex 8.09017 18.1708 1
      vertex 9.06737 17.7957 0
      vertex 8.09017 18.1708 0
    endloop
  endfacet
  facet normal 0.25881 0.965928 -0
    outer loop
      vertex -1.90983 18.1708 0
      vertex -2.92088 18.4417 1
      vertex -1.90983 18.1708 1
    endloop
  endfacet
  facet normal 0.25881 0.965928 0
    outer loop
      vertex -2.92088 18.4417 1
      vertex -1.90983 18.1708 0
      vertex -2.92088 18.4417 0
    endloop
  endfacet
  facet normal -0.838649 0.544673 0
    outer loop
      vertex -13.6603 13.6603 0
      vertex -13.0902 14.5381 1
      vertex -13.0902 14.5381 0
    endloop
  endfacet
  facet normal -0.838649 0.544673 0
    outer loop
      vertex -13.0902 14.5381 1
      vertex -13.6603 13.6603 0
      vertex -13.6603 13.6603 1
    endloop
  endfacet
  facet normal -0.629333 0.777136 0
    outer loop
      vertex -10.8779 16.7504 0
      vertex -11.6913 16.0917 1
      vertex -10.8779 16.7504 1
    endloop
  endfacet
  facet normal -0.629333 0.777136 0
    outer loop
      vertex -11.6913 16.0917 1
      vertex -10.8779 16.7504 0
      vertex -11.6913 16.0917 0
    endloop
  endfacet
  facet normal 0.358359 0.933584 -0
    outer loop
      vertex -0.932633 17.7957 0
      vertex -1.90983 18.1708 1
      vertex -0.932633 17.7957 1
    endloop
  endfacet
  facet normal 0.358359 0.933584 0
    outer loop
      vertex -1.90983 18.1708 1
      vertex -0.932633 17.7957 0
      vertex -1.90983 18.1708 0
    endloop
  endfacet
  facet normal 0.45399 0.891007 -0
    outer loop
      vertex 0 17.3205 0
      vertex -0.932633 17.7957 1
      vertex 0 17.3205 1
    endloop
  endfacet
  facet normal 0.45399 0.891007 0
    outer loop
      vertex -0.932633 17.7957 1
      vertex 0 17.3205 0
      vertex -0.932633 17.7957 0
    endloop
  endfacet
  facet normal -0.777127 0.629344 0
    outer loop
      vertex -13.0902 14.5381 0
      vertex -12.4314 15.3516 1
      vertex -12.4314 15.3516 0
    endloop
  endfacet
  facet normal -0.777127 0.629344 0
    outer loop
      vertex -12.4314 15.3516 1
      vertex -13.0902 14.5381 0
      vertex -13.0902 14.5381 1
    endloop
  endfacet
  facet normal -0.544629 0.838677 0
    outer loop
      vertex -10 17.3205 0
      vertex -10.8779 16.7504 1
      vertex -10 17.3205 1
    endloop
  endfacet
  facet normal -0.544629 0.838677 0
    outer loop
      vertex -10.8779 16.7504 1
      vertex -10 17.3205 0
      vertex -10.8779 16.7504 0
    endloop
  endfacet
  facet normal -0.0523542 0.998629 0
    outer loop
      vertex -5 18.6603 0
      vertex -6.04528 18.6055 1
      vertex -5 18.6603 1
    endloop
  endfacet
  facet normal -0.0523542 0.998629 0
    outer loop
      vertex -6.04528 18.6055 1
      vertex -5 18.6603 0
      vertex -6.04528 18.6055 0
    endloop
  endfacet
  facet normal -0.156486 0.98768 0
    outer loop
      vertex -6.04528 18.6055 0
      vertex -7.07912 18.4417 1
      vertex -6.04528 18.6055 1
    endloop
  endfacet
  facet normal -0.156486 0.98768 0
    outer loop
      vertex -7.07912 18.4417 1
      vertex -6.04528 18.6055 0
      vertex -7.07912 18.4417 0
    endloop
  endfacet
  facet normal -0.933584 0.358358 0
    outer loop
      vertex -14.5106 11.7504 0
      vertex -14.1355 12.7276 1
      vertex -14.1355 12.7276 0
    endloop
  endfacet
  facet normal -0.933584 0.358358 0
    outer loop
      vertex -14.1355 12.7276 1
      vertex -14.5106 11.7504 0
      vertex -14.5106 11.7504 1
    endloop
  endfacet
  facet normal -0.998629 0.0523537 0
    outer loop
      vertex -15 8.66025 0
      vertex -14.9452 9.70554 1
      vertex -14.9452 9.70554 0
    endloop
  endfacet
  facet normal -0.998629 0.0523537 0
    outer loop
      vertex -14.9452 9.70554 1
      vertex -15 8.66025 0
      vertex -15 8.66025 1
    endloop
  endfacet
  facet normal -0.358358 0.933584 0
    outer loop
      vertex -8.09017 18.1708 0
      vertex -9.06737 17.7957 1
      vertex -8.09017 18.1708 1
    endloop
  endfacet
  facet normal -0.358358 0.933584 0
    outer loop
      vertex -9.06737 17.7957 1
      vertex -8.09017 18.1708 0
      vertex -9.06737 17.7957 0
    endloop
  endfacet
  facet normal 0.156488 0.98768 -0
    outer loop
      vertex -2.92088 18.4417 0
      vertex -3.95471 18.6055 1
      vertex -2.92088 18.4417 1
    endloop
  endfacet
  facet normal 0.156488 0.98768 0
    outer loop
      vertex -3.95471 18.6055 1
      vertex -2.92088 18.4417 0
      vertex -3.95471 18.6055 0
    endloop
  endfacet
  facet normal -0.965925 0.258822 0
    outer loop
      vertex -14.7815 10.7394 0
      vertex -14.5106 11.7504 1
      vertex -14.5106 11.7504 0
    endloop
  endfacet
  facet normal -0.965925 0.258822 0
    outer loop
      vertex -14.5106 11.7504 1
      vertex -14.7815 10.7394 0
      vertex -14.7815 10.7394 1
    endloop
  endfacet
  facet normal -0.89102 0.453964 0
    outer loop
      vertex -14.1355 12.7276 0
      vertex -13.6603 13.6603 1
      vertex -13.6603 13.6603 0
    endloop
  endfacet
  facet normal -0.89102 0.453964 0
    outer loop
      vertex -13.6603 13.6603 1
      vertex -14.1355 12.7276 0
      vertex -14.1355 12.7276 1
    endloop
  endfacet
  facet normal 0.0523537 0.998629 -0
    outer loop
      vertex -3.95471 18.6055 0
      vertex -5 18.6603 1
      vertex -3.95471 18.6055 1
    endloop
  endfacet
  facet normal 0.0523537 0.998629 0
    outer loop
      vertex -5 18.6603 1
      vertex -3.95471 18.6055 0
      vertex -5 18.6603 0
    endloop
  endfacet
  facet normal -0.987695 0.15639 0
    outer loop
      vertex -14.9452 9.70554 0
      vertex -14.7815 10.7394 1
      vertex -14.7815 10.7394 0
    endloop
  endfacet
  facet normal -0.987695 0.15639 0
    outer loop
      vertex -14.7815 10.7394 1
      vertex -14.9452 9.70554 0
      vertex -14.9452 9.70554 1
    endloop
  endfacet
  facet normal -0.25881 0.965928 0
    outer loop
      vertex -7.07912 18.4417 0
      vertex -8.09017 18.1708 1
      vertex -7.07912 18.4417 1
    endloop
  endfacet
  facet normal -0.25881 0.965928 0
    outer loop
      vertex -8.09017 18.1708 1
      vertex -7.07912 18.4417 0
      vertex -8.09017 18.1708 0
    endloop
  endfacet
  facet normal -0.707107 0.707107 0
    outer loop
      vertex -11.6913 16.0917 0
      vertex -12.4314 15.3516 1
      vertex -11.6913 16.0917 1
    endloop
  endfacet
  facet normal -0.707107 0.707107 0
    outer loop
      vertex -12.4314 15.3516 1
      vertex -11.6913 16.0917 0
      vertex -12.4314 15.3516 0
    endloop
  endfacet
  facet normal -0.453991 0.891006 0
    outer loop
      vertex -9.06737 17.7957 0
      vertex -10 17.3205 1
      vertex -9.06737 17.7957 1
    endloop
  endfacet
  facet normal -0.453991 0.891006 0
    outer loop
      vertex -10 17.3205 1
      vertex -9.06737 17.7957 0
      vertex -10 17.3205 0
    endloop
  endfacet
  facet normal -0.629344 0.777126 0
    outer loop
      vertex -15.8779 8.09017 0
      vertex -16.6913 7.43145 1
      vertex -15.8779 8.09017 1
    endloop
  endfacet
  facet normal -0.629344 0.777126 0
    outer loop
      vertex -16.6913 7.43145 1
      vertex -15.8779 8.09017 0
      vertex -16.6913 7.43145 0
    endloop
  endfacet
  facet normal -0.891006 0.453991 0
    outer loop
      vertex -19.1355 4.06737 0
      vertex -18.6603 5 1
      vertex -18.6603 5 0
    endloop
  endfacet
  facet normal -0.891006 0.453991 0
    outer loop
      vertex -18.6603 5 1
      vertex -19.1355 4.06737 0
      vertex -19.1355 4.06737 1
    endloop
  endfacet
  facet normal -0.707126 0.707088 0
    outer loop
      vertex -17.4314 6.69131 0
      vertex -16.6913 7.43145 1
      vertex -16.6913 7.43145 0
    endloop
  endfacet
  facet normal -0.707126 0.707088 0
    outer loop
      vertex -16.6913 7.43145 1
      vertex -17.4314 6.69131 0
      vertex -17.4314 6.69131 1
    endloop
  endfacet
  facet normal -0.544616 0.838686 0
    outer loop
      vertex -15 8.66025 0
      vertex -15.8779 8.09017 1
      vertex -15 8.66025 1
    endloop
  endfacet
  facet normal -0.544616 0.838686 0
    outer loop
      vertex -15.8779 8.09017 1
      vertex -15 8.66025 0
      vertex -15.8779 8.09017 0
    endloop
  endfacet
  facet normal -0.777112 0.629363 0
    outer loop
      vertex -18.0902 5.87785 0
      vertex -17.4314 6.69131 1
      vertex -17.4314 6.69131 0
    endloop
  endfacet
  facet normal -0.777112 0.629363 0
    outer loop
      vertex -17.4314 6.69131 1
      vertex -18.0902 5.87785 0
      vertex -18.0902 5.87785 1
    endloop
  endfacet
  facet normal -0.998629 -0.0523542 0
    outer loop
      vertex -19.9452 -1.04528 0
      vertex -20 0 1
      vertex -20 0 0
    endloop
  endfacet
  facet normal -0.998629 -0.0523542 0
    outer loop
      vertex -20 0 1
      vertex -19.9452 -1.04528 0
      vertex -19.9452 -1.04528 1
    endloop
  endfacet
  facet normal -0.998629 0.0523542 0
    outer loop
      vertex -20 0 0
      vertex -19.9452 1.04528 1
      vertex -19.9452 1.04528 0
    endloop
  endfacet
  facet normal -0.998629 0.0523542 0
    outer loop
      vertex -19.9452 1.04528 1
      vertex -20 0 0
      vertex -20 0 1
    endloop
  endfacet
  facet normal -0.707126 -0.707088 0
    outer loop
      vertex -16.6913 -7.43145 0
      vertex -17.4314 -6.69131 1
      vertex -17.4314 -6.69131 0
    endloop
  endfacet
  facet normal -0.707126 -0.707088 0
    outer loop
      vertex -17.4314 -6.69131 1
      vertex -16.6913 -7.43145 0
      vertex -16.6913 -7.43145 1
    endloop
  endfacet
  facet normal -0.987695 -0.156393 0
    outer loop
      vertex -19.7815 -2.07912 0
      vertex -19.9452 -1.04528 1
      vertex -19.9452 -1.04528 0
    endloop
  endfacet
  facet normal -0.987695 -0.156393 0
    outer loop
      vertex -19.9452 -1.04528 1
      vertex -19.7815 -2.07912 0
      vertex -19.7815 -2.07912 1
    endloop
  endfacet
  facet normal -0.933584 0.358358 0
    outer loop
      vertex -19.5106 3.09017 0
      vertex -19.1355 4.06737 1
      vertex -19.1355 4.06737 0
    endloop
  endfacet
  facet normal -0.933584 0.358358 0
    outer loop
      vertex -19.1355 4.06737 1
      vertex -19.5106 3.09017 0
      vertex -19.5106 3.09017 1
    endloop
  endfacet
  facet normal -0.838663 -0.544651 0
    outer loop
      vertex -18.0902 -5.87785 0
      vertex -18.6603 -5 1
      vertex -18.6603 -5 0
    endloop
  endfacet
  facet normal -0.838663 -0.544651 0
    outer loop
      vertex -18.6603 -5 1
      vertex -18.0902 -5.87785 0
      vertex -18.0902 -5.87785 1
    endloop
  endfacet
  facet normal -0.965928 -0.25881 0
    outer loop
      vertex -19.5106 -3.09017 0
      vertex -19.7815 -2.07912 1
      vertex -19.7815 -2.07912 0
    endloop
  endfacet
  facet normal -0.965928 -0.25881 0
    outer loop
      vertex -19.7815 -2.07912 1
      vertex -19.5106 -3.09017 0
      vertex -19.5106 -3.09017 1
    endloop
  endfacet
  facet normal -0.777112 -0.629363 0
    outer loop
      vertex -17.4314 -6.69131 0
      vertex -18.0902 -5.87785 1
      vertex -18.0902 -5.87785 0
    endloop
  endfacet
  facet normal -0.777112 -0.629363 0
    outer loop
      vertex -18.0902 -5.87785 1
      vertex -17.4314 -6.69131 0
      vertex -17.4314 -6.69131 1
    endloop
  endfacet
  facet normal -0.891006 -0.453991 0
    outer loop
      vertex -18.6603 -5 0
      vertex -19.1355 -4.06737 1
      vertex -19.1355 -4.06737 0
    endloop
  endfacet
  facet normal -0.891006 -0.453991 0
    outer loop
      vertex -19.1355 -4.06737 1
      vertex -18.6603 -5 0
      vertex -18.6603 -5 1
    endloop
  endfacet
  facet normal -0.629344 -0.777126 0
    outer loop
      vertex -16.6913 -7.43145 0
      vertex -15.8779 -8.09017 1
      vertex -16.6913 -7.43145 1
    endloop
  endfacet
  facet normal -0.629344 -0.777126 -0
    outer loop
      vertex -15.8779 -8.09017 1
      vertex -16.6913 -7.43145 0
      vertex -15.8779 -8.09017 0
    endloop
  endfacet
  facet normal -0.965928 0.25881 0
    outer loop
      vertex -19.7815 2.07912 0
      vertex -19.5106 3.09017 1
      vertex -19.5106 3.09017 0
    endloop
  endfacet
  facet normal -0.965928 0.25881 0
    outer loop
      vertex -19.5106 3.09017 1
      vertex -19.7815 2.07912 0
      vertex -19.7815 2.07912 1
    endloop
  endfacet
  facet normal -0.933584 -0.358358 0
    outer loop
      vertex -19.1355 -4.06737 0
      vertex -19.5106 -3.09017 1
      vertex -19.5106 -3.09017 0
    endloop
  endfacet
  facet normal -0.933584 -0.358358 0
    outer loop
      vertex -19.5106 -3.09017 1
      vertex -19.1355 -4.06737 0
      vertex -19.1355 -4.06737 1
    endloop
  endfacet
  facet normal -0.987695 0.156393 0
    outer loop
      vertex -19.9452 1.04528 0
      vertex -19.7815 2.07912 1
      vertex -19.7815 2.07912 0
    endloop
  endfacet
  facet normal -0.987695 0.156393 0
    outer loop
      vertex -19.7815 2.07912 1
      vertex -19.9452 1.04528 0
      vertex -19.9452 1.04528 1
    endloop
  endfacet
  facet normal -0.544616 -0.838686 0
    outer loop
      vertex -15.8779 -8.09017 0
      vertex -15 -8.66025 1
      vertex -15.8779 -8.09017 1
    endloop
  endfacet
  facet normal -0.544616 -0.838686 -0
    outer loop
      vertex -15 -8.66025 1
      vertex -15.8779 -8.09017 0
      vertex -15 -8.66025 0
    endloop
  endfacet
  facet normal -0.838663 0.544651 0
    outer loop
      vertex -18.6603 5 0
      vertex -18.0902 5.87785 1
      vertex -18.0902 5.87785 0
    endloop
  endfacet
  facet normal -0.838663 0.544651 0
    outer loop
      vertex -18.0902 5.87785 1
      vertex -18.6603 5 0
      vertex -18.6603 5 1
    endloop
  endfacet
  facet normal -0.358358 -0.933584 0
    outer loop
      vertex -9.06737 -17.7957 0
      vertex -8.09017 -18.1708 1
      vertex -9.06737 -17.7957 1
    endloop
  endfacet
  facet normal -0.358358 -0.933584 -0
    outer loop
      vertex -8.09017 -18.1708 1
      vertex -9.06737 -17.7957 0
      vertex -8.09017 -18.1708 0
    endloop
  endfacet
  facet normal -0.838649 -0.544673 0
    outer loop
      vertex -13.0902 -14.5381 0
      vertex -13.6603 -13.6603 1
      vertex -13.6603 -13.6603 0
    endloop
  endfacet
  facet normal -0.838649 -0.544673 0
    outer loop
      vertex -13.6603 -13.6603 1
      vertex -13.0902 -14.5381 0
      vertex -13.0902 -14.5381 1
    endloop
  endfacet
  facet normal -0.933584 -0.358358 0
    outer loop
      vertex -14.1355 -12.7276 0
      vertex -14.5106 -11.7504 1
      vertex -14.5106 -11.7504 0
    endloop
  endfacet
  facet normal -0.933584 -0.358358 0
    outer loop
      vertex -14.5106 -11.7504 1
      vertex -14.1355 -12.7276 0
      vertex -14.1355 -12.7276 1
    endloop
  endfacet
  facet normal -0.629333 -0.777136 0
    outer loop
      vertex -11.6913 -16.0917 0
      vertex -10.8779 -16.7504 1
      vertex -11.6913 -16.0917 1
    endloop
  endfacet
  facet normal -0.629333 -0.777136 -0
    outer loop
      vertex -10.8779 -16.7504 1
      vertex -11.6913 -16.0917 0
      vertex -10.8779 -16.7504 0
    endloop
  endfacet
  facet normal 0.358359 -0.933584 0
    outer loop
      vertex -1.90983 -18.1708 0
      vertex -0.932633 -17.7957 1
      vertex -1.90983 -18.1708 1
    endloop
  endfacet
  facet normal 0.358359 -0.933584 0
    outer loop
      vertex -0.932633 -17.7957 1
      vertex -1.90983 -18.1708 0
      vertex -0.932633 -17.7957 0
    endloop
  endfacet
  facet normal 0.156488 -0.98768 0
    outer loop
      vertex -3.95471 -18.6055 0
      vertex -2.92088 -18.4417 1
      vertex -3.95471 -18.6055 1
    endloop
  endfacet
  facet normal 0.156488 -0.98768 0
    outer loop
      vertex -2.92088 -18.4417 1
      vertex -3.95471 -18.6055 0
      vertex -2.92088 -18.4417 0
    endloop
  endfacet
  facet normal -0.998629 -0.0523537 0
    outer loop
      vertex -14.9452 -9.70554 0
      vertex -15 -8.66025 1
      vertex -15 -8.66025 0
    endloop
  endfacet
  facet normal -0.998629 -0.0523537 0
    outer loop
      vertex -15 -8.66025 1
      vertex -14.9452 -9.70554 0
      vertex -14.9452 -9.70554 1
    endloop
  endfacet
  facet normal 0.25881 -0.965928 0
    outer loop
      vertex -2.92088 -18.4417 0
      vertex -1.90983 -18.1708 1
      vertex -2.92088 -18.4417 1
    endloop
  endfacet
  facet normal 0.25881 -0.965928 0
    outer loop
      vertex -1.90983 -18.1708 1
      vertex -2.92088 -18.4417 0
      vertex -1.90983 -18.1708 0
    endloop
  endfacet
  facet normal -0.544629 -0.838677 0
    outer loop
      vertex -10.8779 -16.7504 0
      vertex -10 -17.3205 1
      vertex -10.8779 -16.7504 1
    endloop
  endfacet
  facet normal -0.544629 -0.838677 -0
    outer loop
      vertex -10 -17.3205 1
      vertex -10.8779 -16.7504 0
      vertex -10 -17.3205 0
    endloop
  endfacet
  facet normal 0.45399 -0.891007 0
    outer loop
      vertex -0.932633 -17.7957 0
      vertex 0 -17.3205 1
      vertex -0.932633 -17.7957 1
    endloop
  endfacet
  facet normal 0.45399 -0.891007 0
    outer loop
      vertex 0 -17.3205 1
      vertex -0.932633 -17.7957 0
      vertex 0 -17.3205 0
    endloop
  endfacet
  facet normal -0.156486 -0.98768 0
    outer loop
      vertex -7.07912 -18.4417 0
      vertex -6.04528 -18.6055 1
      vertex -7.07912 -18.4417 1
    endloop
  endfacet
  facet normal -0.156486 -0.98768 -0
    outer loop
      vertex -6.04528 -18.6055 1
      vertex -7.07912 -18.4417 0
      vertex -6.04528 -18.6055 0
    endloop
  endfacet
  facet normal -0.777127 -0.629344 0
    outer loop
      vertex -12.4314 -15.3516 0
      vertex -13.0902 -14.5381 1
      vertex -13.0902 -14.5381 0
    endloop
  endfacet
  facet normal -0.777127 -0.629344 0
    outer loop
      vertex -13.0902 -14.5381 1
      vertex -12.4314 -15.3516 0
      vertex -12.4314 -15.3516 1
    endloop
  endfacet
  facet normal -0.707107 -0.707107 0
    outer loop
      vertex -12.4314 -15.3516 0
      vertex -11.6913 -16.0917 1
      vertex -12.4314 -15.3516 1
    endloop
  endfacet
  facet normal -0.707107 -0.707107 -0
    outer loop
      vertex -11.6913 -16.0917 1
      vertex -12.4314 -15.3516 0
      vertex -11.6913 -16.0917 0
    endloop
  endfacet
  facet normal 0.0523537 -0.998629 0
    outer loop
      vertex -5 -18.6603 0
      vertex -3.95471 -18.6055 1
      vertex -5 -18.6603 1
    endloop
  endfacet
  facet normal 0.0523537 -0.998629 0
    outer loop
      vertex -3.95471 -18.6055 1
      vertex -5 -18.6603 0
      vertex -3.95471 -18.6055 0
    endloop
  endfacet
  facet normal -0.0523542 -0.998629 0
    outer loop
      vertex -6.04528 -18.6055 0
      vertex -5 -18.6603 1
      vertex -6.04528 -18.6055 1
    endloop
  endfacet
  facet normal -0.0523542 -0.998629 -0
    outer loop
      vertex -5 -18.6603 1
      vertex -6.04528 -18.6055 0
      vertex -5 -18.6603 0
    endloop
  endfacet
  facet normal -0.453991 -0.891006 0
    outer loop
      vertex -10 -17.3205 0
      vertex -9.06737 -17.7957 1
      vertex -10 -17.3205 1
    endloop
  endfacet
  facet normal -0.453991 -0.891006 -0
    outer loop
      vertex -9.06737 -17.7957 1
      vertex -10 -17.3205 0
      vertex -9.06737 -17.7957 0
    endloop
  endfacet
  facet normal -0.987695 -0.15639 0
    outer loop
      vertex -14.7815 -10.7394 0
      vertex -14.9452 -9.70554 1
      vertex -14.9452 -9.70554 0
    endloop
  endfacet
  facet normal -0.987695 -0.15639 0
    outer loop
      vertex -14.9452 -9.70554 1
      vertex -14.7815 -10.7394 0
      vertex -14.7815 -10.7394 1
    endloop
  endfacet
  facet normal -0.89102 -0.453964 0
    outer loop
      vertex -13.6603 -13.6603 0
      vertex -14.1355 -12.7276 1
      vertex -14.1355 -12.7276 0
    endloop
  endfacet
  facet normal -0.89102 -0.453964 0
    outer loop
      vertex -14.1355 -12.7276 1
      vertex -13.6603 -13.6603 0
      vertex -13.6603 -13.6603 1
    endloop
  endfacet
  facet normal -0.25881 -0.965928 0
    outer loop
      vertex -8.09017 -18.1708 0
      vertex -7.07912 -18.4417 1
      vertex -8.09017 -18.1708 1
    endloop
  endfacet
  facet normal -0.25881 -0.965928 -0
    outer loop
      vertex -7.07912 -18.4417 1
      vertex -8.09017 -18.1708 0
      vertex -7.07912 -18.4417 0
    endloop
  endfacet
  facet normal -0.965925 -0.258822 0
    outer loop
      vertex -14.5106 -11.7504 0
      vertex -14.7815 -10.7394 1
      vertex -14.7815 -10.7394 0
    endloop
  endfacet
  facet normal -0.965925 -0.258822 0
    outer loop
      vertex -14.7815 -10.7394 1
      vertex -14.5106 -11.7504 0
      vertex -14.5106 -11.7504 1
    endloop
  endfacet
  facet normal 0.838649 -0.544673 0
    outer loop
      vertex 13.0902 -14.5381 1
      vertex 13.6603 -13.6603 0
      vertex 13.6603 -13.6603 1
    endloop
  endfacet
  facet normal 0.838649 -0.544673 0
    outer loop
      vertex 13.6603 -13.6603 0
      vertex 13.0902 -14.5381 1
      vertex 13.0902 -14.5381 0
    endloop
  endfacet
  facet normal -0.45399 -0.891007 0
    outer loop
      vertex 0 -17.3205 0
      vertex 0.932633 -17.7957 1
      vertex 0 -17.3205 1
    endloop
  endfacet
  facet normal -0.45399 -0.891007 -0
    outer loop
      vertex 0.932633 -17.7957 1
      vertex 0 -17.3205 0
      vertex 0.932633 -17.7957 0
    endloop
  endfacet
  facet normal 0.453991 -0.891006 0
    outer loop
      vertex 9.06737 -17.7957 0
      vertex 10 -17.3205 1
      vertex 9.06737 -17.7957 1
    endloop
  endfacet
  facet normal 0.453991 -0.891006 0
    outer loop
      vertex 10 -17.3205 1
      vertex 9.06737 -17.7957 0
      vertex 10 -17.3205 0
    endloop
  endfacet
  facet normal 0.777127 -0.629344 0
    outer loop
      vertex 12.4314 -15.3516 1
      vertex 13.0902 -14.5381 0
      vertex 13.0902 -14.5381 1
    endloop
  endfacet
  facet normal 0.777127 -0.629344 0
    outer loop
      vertex 13.0902 -14.5381 0
      vertex 12.4314 -15.3516 1
      vertex 12.4314 -15.3516 0
    endloop
  endfacet
  facet normal 0.89102 -0.453964 0
    outer loop
      vertex 13.6603 -13.6603 1
      vertex 14.1355 -12.7276 0
      vertex 14.1355 -12.7276 1
    endloop
  endfacet
  facet normal 0.89102 -0.453964 0
    outer loop
      vertex 14.1355 -12.7276 0
      vertex 13.6603 -13.6603 1
      vertex 13.6603 -13.6603 0
    endloop
  endfacet
  facet normal 0.987695 -0.15639 0
    outer loop
      vertex 14.7815 -10.7394 1
      vertex 14.9452 -9.70554 0
      vertex 14.9452 -9.70554 1
    endloop
  endfacet
  facet normal 0.987695 -0.15639 0
    outer loop
      vertex 14.9452 -9.70554 0
      vertex 14.7815 -10.7394 1
      vertex 14.7815 -10.7394 0
    endloop
  endfacet
  facet normal 0.965925 -0.258822 0
    outer loop
      vertex 14.5106 -11.7504 1
      vertex 14.7815 -10.7394 0
      vertex 14.7815 -10.7394 1
    endloop
  endfacet
  facet normal 0.965925 -0.258822 0
    outer loop
      vertex 14.7815 -10.7394 0
      vertex 14.5106 -11.7504 1
      vertex 14.5106 -11.7504 0
    endloop
  endfacet
  facet normal -0.0523537 -0.998629 0
    outer loop
      vertex 3.95471 -18.6055 0
      vertex 5 -18.6603 1
      vertex 3.95471 -18.6055 1
    endloop
  endfacet
  facet normal -0.0523537 -0.998629 -0
    outer loop
      vertex 5 -18.6603 1
      vertex 3.95471 -18.6055 0
      vertex 5 -18.6603 0
    endloop
  endfacet
  facet normal 0.0523542 -0.998629 0
    outer loop
      vertex 5 -18.6603 0
      vertex 6.04528 -18.6055 1
      vertex 5 -18.6603 1
    endloop
  endfacet
  facet normal 0.0523542 -0.998629 0
    outer loop
      vertex 6.04528 -18.6055 1
      vertex 5 -18.6603 0
      vertex 6.04528 -18.6055 0
    endloop
  endfacet
  facet normal -0.156488 -0.98768 0
    outer loop
      vertex 2.92088 -18.4417 0
      vertex 3.95471 -18.6055 1
      vertex 2.92088 -18.4417 1
    endloop
  endfacet
  facet normal -0.156488 -0.98768 -0
    outer loop
      vertex 3.95471 -18.6055 1
      vertex 2.92088 -18.4417 0
      vertex 3.95471 -18.6055 0
    endloop
  endfacet
  facet normal 0.933584 -0.358358 0
    outer loop
      vertex 14.1355 -12.7276 1
      vertex 14.5106 -11.7504 0
      vertex 14.5106 -11.7504 1
    endloop
  endfacet
  facet normal 0.933584 -0.358358 0
    outer loop
      vertex 14.5106 -11.7504 0
      vertex 14.1355 -12.7276 1
      vertex 14.1355 -12.7276 0
    endloop
  endfacet
  facet normal 0.629333 -0.777136 0
    outer loop
      vertex 10.8779 -16.7504 0
      vertex 11.6913 -16.0917 1
      vertex 10.8779 -16.7504 1
    endloop
  endfacet
  facet normal 0.629333 -0.777136 0
    outer loop
      vertex 11.6913 -16.0917 1
      vertex 10.8779 -16.7504 0
      vertex 11.6913 -16.0917 0
    endloop
  endfacet
  facet normal 0.998629 -0.0523537 0
    outer loop
      vertex 14.9452 -9.70554 1
      vertex 15 -8.66025 0
      vertex 15 -8.66025 1
    endloop
  endfacet
  facet normal 0.998629 -0.0523537 0
    outer loop
      vertex 15 -8.66025 0
      vertex 14.9452 -9.70554 1
      vertex 14.9452 -9.70554 0
    endloop
  endfacet
  facet normal -0.358359 -0.933584 0
    outer loop
      vertex 0.932633 -17.7957 0
      vertex 1.90983 -18.1708 1
      vertex 0.932633 -17.7957 1
    endloop
  endfacet
  facet normal -0.358359 -0.933584 -0
    outer loop
      vertex 1.90983 -18.1708 1
      vertex 0.932633 -17.7957 0
      vertex 1.90983 -18.1708 0
    endloop
  endfacet
  facet normal -0.25881 -0.965928 0
    outer loop
      vertex 1.90983 -18.1708 0
      vertex 2.92088 -18.4417 1
      vertex 1.90983 -18.1708 1
    endloop
  endfacet
  facet normal -0.25881 -0.965928 -0
    outer loop
      vertex 2.92088 -18.4417 1
      vertex 1.90983 -18.1708 0
      vertex 2.92088 -18.4417 0
    endloop
  endfacet
  facet normal 0.544629 -0.838677 0
    outer loop
      vertex 10 -17.3205 0
      vertex 10.8779 -16.7504 1
      vertex 10 -17.3205 1
    endloop
  endfacet
  facet normal 0.544629 -0.838677 0
    outer loop
      vertex 10.8779 -16.7504 1
      vertex 10 -17.3205 0
      vertex 10.8779 -16.7504 0
    endloop
  endfacet
  facet normal 0.156486 -0.98768 0
    outer loop
      vertex 6.04528 -18.6055 0
      vertex 7.07912 -18.4417 1
      vertex 6.04528 -18.6055 1
    endloop
  endfacet
  facet normal 0.156486 -0.98768 0
    outer loop
      vertex 7.07912 -18.4417 1
      vertex 6.04528 -18.6055 0
      vertex 7.07912 -18.4417 0
    endloop
  endfacet
  facet normal 0.707107 -0.707107 0
    outer loop
      vertex 11.6913 -16.0917 0
      vertex 12.4314 -15.3516 1
      vertex 11.6913 -16.0917 1
    endloop
  endfacet
  facet normal 0.707107 -0.707107 0
    outer loop
      vertex 12.4314 -15.3516 1
      vertex 11.6913 -16.0917 0
      vertex 12.4314 -15.3516 0
    endloop
  endfacet
  facet normal 0.358358 -0.933584 0
    outer loop
      vertex 8.09017 -18.1708 0
      vertex 9.06737 -17.7957 1
      vertex 8.09017 -18.1708 1
    endloop
  endfacet
  facet normal 0.358358 -0.933584 0
    outer loop
      vertex 9.06737 -17.7957 1
      vertex 8.09017 -18.1708 0
      vertex 9.06737 -17.7957 0
    endloop
  endfacet
  facet normal 0.25881 -0.965928 0
    outer loop
      vertex 7.07912 -18.4417 0
      vertex 8.09017 -18.1708 1
      vertex 7.07912 -18.4417 1
    endloop
  endfacet
  facet normal 0.25881 -0.965928 0
    outer loop
      vertex 8.09017 -18.1708 1
      vertex 7.07912 -18.4417 0
      vertex 8.09017 -18.1708 0
    endloop
  endfacet
endsolid OpenSCAD_Model
