solid OpenSCAD_Model
  facet normal 1 -0 0
    outer loop
      vertex 50 0 10
      vertex 50 50 0
      vertex 50 50 10
    endloop
  endfacet
  facet normal 1 0 0
    outer loop
      vertex 50 50 0
      vertex 50 0 10
      vertex 50 0 0
    endloop
  endfacet
  facet normal 0 0 1
    outer loop
      vertex 50 50 10
      vertex 35 35 10
      vertex 50 0 10
    endloop
  endfacet
  facet normal -0 0 1
    outer loop
      vertex 0 50 10
      vertex 35 35 10
      vertex 50 50 10
    endloop
  endfacet
  facet normal 0 0 1
    outer loop
      vertex 0 0 10
      vertex 5 35 10
      vertex 0 50 10
    endloop
  endfacet
  facet normal 0 0 1
    outer loop
      vertex 35 35 10
      vertex 0 50 10
      vertex 5 35 10
    endloop
  endfacet
  facet normal -0 0 1
    outer loop
      vertex 35 5 10
      vertex 50 0 10
      vertex 35 35 10
    endloop
  endfacet
  facet normal 0 0 1
    outer loop
      vertex 0 0 10
      vertex 35 5 10
      vertex 5 5 10
    endloop
  endfacet
  facet normal 0 0 1
    outer loop
      vertex 35 5 10
      vertex 0 0 10
      vertex 50 0 10
    endloop
  endfacet
  facet normal 0 0 1
    outer loop
      vertex 5 35 10
      vertex 0 0 10
      vertex 5 5 10
    endloop
  endfacet
  facet normal 0 0 -1
    outer loop
      vertex 9.84808 1.73648 0
      vertex 50 0 0
      vertex 9.9695 0 0
    endloop
  endfacet
  facet normal 0 0 -1
    outer loop
      vertex 9.27184 3.74607 0
      vertex 50 0 0
      vertex 9.84808 1.73648 0
    endloop
  endfacet
  facet normal 0 0 -1
    outer loop
      vertex 8.29038 5.59193 0
      vertex 50 0 0
      vertex 9.27184 3.74607 0
    endloop
  endfacet
  facet normal 0 0 -1
    outer loop
      vertex 50 0 0
      vertex 8.29038 5.59193 0
      vertex 50 50 0
    endloop
  endfacet
  facet normal 0 0 -1
    outer loop
      vertex 6.94658 7.1934 0
      vertex 50 50 0
      vertex 8.29038 5.59193 0
    endloop
  endfacet
  facet normal 0 0 -1
    outer loop
      vertex 5.29919 8.48048 0
      vertex 50 50 0
      vertex 6.94658 7.1934 0
    endloop
  endfacet
  facet normal 0 0 -1
    outer loop
      vertex 0 50 0
      vertex 5.29919 8.48048 0
      vertex 3.4202 9.39693 0
    endloop
  endfacet
  facet normal 0 0 -1
    outer loop
      vertex 0 50 0
      vertex 3.4202 9.39693 0
      vertex 1.39173 9.90268 0
    endloop
  endfacet
  facet normal 0 0 -1
    outer loop
      vertex 0 50 0
      vertex 1.39173 9.90268 0
      vertex 0 9.95128 0
    endloop
  endfacet
  facet normal 0 0 -1
    outer loop
      vertex 5.29919 8.48048 0
      vertex 0 50 0
      vertex 50 50 0
    endloop
  endfacet
  facet normal -1 0 0
    outer loop
      vertex 0 9.95128 5
      vertex 0 50 0
      vertex 0 9.95128 0
    endloop
  endfacet
  facet normal -1 0 0
    outer loop
      vertex 0 50 0
      vertex 0 9.95128 5
      vertex 0 50 10
    endloop
  endfacet
  facet normal -1 0 0
    outer loop
      vertex 0 0 10
      vertex 0 9.95128 5
      vertex 0 0 5
    endloop
  endfacet
  facet normal -1 0 0
    outer loop
      vertex 0 9.95128 5
      vertex 0 0 10
      vertex 0 50 10
    endloop
  endfacet
  facet normal 0 1 -0
    outer loop
      vertex 50 50 0
      vertex 0 50 10
      vertex 50 50 10
    endloop
  endfacet
  facet normal 0 1 0
    outer loop
      vertex 0 50 10
      vertex 50 50 0
      vertex 0 50 0
    endloop
  endfacet
  facet normal 0 -1 0
    outer loop
      vertex 9.9695 0 5
      vertex 0 0 10
      vertex 0 0 5
    endloop
  endfacet
  facet normal 0 -1 0
    outer loop
      vertex 0 0 10
      vertex 9.9695 0 5
      vertex 50 0 10
    endloop
  endfacet
  facet normal 0 -1 0
    outer loop
      vertex 50 0 0
      vertex 9.9695 0 5
      vertex 9.9695 0 0
    endloop
  endfacet
  facet normal 0 -1 0
    outer loop
      vertex 9.9695 0 5
      vertex 50 0 0
      vertex 50 0 10
    endloop
  endfacet
  facet normal 0.882948 0.469471 0
    outer loop
      vertex 9.27184 3.74607 0
      vertex 8.29038 5.59193 -5
      vertex 8.29038 5.59193 0
    endloop
  endfacet
  facet normal 0.882948 0.469471 0
    outer loop
      vertex 8.29038 5.59193 -5
      vertex 9.27184 3.74607 0
      vertex 9.27184 3.74607 -5
    endloop
  endfacet
  facet normal 0.961262 0.275637 0
    outer loop
      vertex 9.84808 1.73648 0
      vertex 9.27184 3.74607 -5
      vertex 9.27184 3.74607 0
    endloop
  endfacet
  facet normal 0.961262 0.275637 0
    outer loop
      vertex 9.27184 3.74607 -5
      vertex 9.84808 1.73648 0
      vertex 9.84808 1.73648 -5
    endloop
  endfacet
  facet normal 0.766043 0.64279 0
    outer loop
      vertex 8.29038 5.59193 0
      vertex 6.94658 7.1934 -5
      vertex 6.94658 7.1934 0
    endloop
  endfacet
  facet normal 0.766043 0.64279 0
    outer loop
      vertex 6.94658 7.1934 -5
      vertex 8.29038 5.59193 0
      vertex 8.29038 5.59193 -5
    endloop
  endfacet
  facet normal 0.24192 0.970296 -0
    outer loop
      vertex 3.4202 9.39693 -5
      vertex 1.39173 9.90268 0
      vertex 3.4202 9.39693 0
    endloop
  endfacet
  facet normal 0.24192 0.970296 0
    outer loop
      vertex 1.39173 9.90268 0
      vertex 3.4202 9.39693 -5
      vertex 1.39173 9.90268 -5
    endloop
  endfacet
  facet normal 0 0 -1
    outer loop
      vertex 9.70296 -2.41922 -5
      vertex 9.84808 1.73648 -5
      vertex 9.99391 -0.348994 -5
    endloop
  endfacet
  facet normal 0 0 -1
    outer loop
      vertex 9.70296 -2.41922 -5
      vertex 9.27184 3.74607 -5
      vertex 9.84808 1.73648 -5
    endloop
  endfacet
  facet normal 0 0 -1
    outer loop
      vertex 8.98794 -4.38371 -5
      vertex 9.27184 3.74607 -5
      vertex 9.70296 -2.41922 -5
    endloop
  endfacet
  facet normal 0 0 -1
    outer loop
      vertex 8.98794 -4.38371 -5
      vertex 8.29038 5.59193 -5
      vertex 9.27184 3.74607 -5
    endloop
  endfacet
  facet normal 0 0 -1
    outer loop
      vertex 7.88011 -6.15661 -5
      vertex 8.29038 5.59193 -5
      vertex 8.98794 -4.38371 -5
    endloop
  endfacet
  facet normal 0 0 -1
    outer loop
      vertex 7.88011 -6.15661 -5
      vertex 6.94658 7.1934 -5
      vertex 8.29038 5.59193 -5
    endloop
  endfacet
  facet normal 0 0 -1
    outer loop
      vertex 6.42788 -7.66044 -5
      vertex 6.94658 7.1934 -5
      vertex 7.88011 -6.15661 -5
    endloop
  endfacet
  facet normal 0 0 -1
    outer loop
      vertex 6.42788 -7.66044 -5
      vertex 5.29919 8.48048 -5
      vertex 6.94658 7.1934 -5
    endloop
  endfacet
  facet normal 0 0 -1
    outer loop
      vertex 4.69472 -8.82948 -5
      vertex 5.29919 8.48048 -5
      vertex 6.42788 -7.66044 -5
    endloop
  endfacet
  facet normal 0 0 -1
    outer loop
      vertex 4.69472 -8.82948 -5
      vertex 3.4202 9.39693 -5
      vertex 5.29919 8.48048 -5
    endloop
  endfacet
  facet normal 0 0 -1
    outer loop
      vertex 2.75637 -9.61262 -5
      vertex 3.4202 9.39693 -5
      vertex 4.69472 -8.82948 -5
    endloop
  endfacet
  facet normal 0 0 -1
    outer loop
      vertex 2.75637 -9.61262 -5
      vertex 1.39173 9.90268 -5
      vertex 3.4202 9.39693 -5
    endloop
  endfacet
  facet normal 0 0 -1
    outer loop
      vertex 0.697564 -9.97564 -5
      vertex 1.39173 9.90268 -5
      vertex 2.75637 -9.61262 -5
    endloop
  endfacet
  facet normal 0 0 -1
    outer loop
      vertex 0.697564 -9.97564 -5
      vertex -0.697564 9.97564 -5
      vertex 1.39173 9.90268 -5
    endloop
  endfacet
  facet normal 0 0 -1
    outer loop
      vertex -1.39173 -9.90268 -5
      vertex -0.697564 9.97564 -5
      vertex 0.697564 -9.97564 -5
    endloop
  endfacet
  facet normal 0 0 -1
    outer loop
      vertex -1.39173 -9.90268 -5
      vertex -2.75637 9.61262 -5
      vertex -0.697564 9.97564 -5
    endloop
  endfacet
  facet normal 0 0 -1
    outer loop
      vertex -3.4202 -9.39693 -5
      vertex -2.75637 9.61262 -5
      vertex -1.39173 -9.90268 -5
    endloop
  endfacet
  facet normal 0 0 -1
    outer loop
      vertex -3.4202 -9.39693 -5
      vertex -4.69472 8.82948 -5
      vertex -2.75637 9.61262 -5
    endloop
  endfacet
  facet normal 0 0 -1
    outer loop
      vertex -5.29919 -8.48048 -5
      vertex -4.69472 8.82948 -5
      vertex -3.4202 -9.39693 -5
    endloop
  endfacet
  facet normal 0 0 -1
    outer loop
      vertex -5.29919 -8.48048 -5
      vertex -6.42788 7.66044 -5
      vertex -4.69472 8.82948 -5
    endloop
  endfacet
  facet normal 0 0 -1
    outer loop
      vertex -6.94658 -7.1934 -5
      vertex -6.42788 7.66044 -5
      vertex -5.29919 -8.48048 -5
    endloop
  endfacet
  facet normal 0 0 -1
    outer loop
      vertex -6.94658 -7.1934 -5
      vertex -7.88011 6.15661 -5
      vertex -6.42788 7.66044 -5
    endloop
  endfacet
  facet normal 0 0 -1
    outer loop
      vertex -8.29038 -5.59193 -5
      vertex -7.88011 6.15661 -5
      vertex -6.94658 -7.1934 -5
    endloop
  endfacet
  facet normal 0 0 -1
    outer loop
      vertex -8.29038 -5.59193 -5
      vertex -8.98794 4.38371 -5
      vertex -7.88011 6.15661 -5
    endloop
  endfacet
  facet normal 0 0 -1
    outer loop
      vertex -9.27184 -3.74607 -5
      vertex -8.98794 4.38371 -5
      vertex -8.29038 -5.59193 -5
    endloop
  endfacet
  facet normal 0 0 -1
    outer loop
      vertex -9.27184 -3.74607 -5
      vertex -9.70296 2.41922 -5
      vertex -8.98794 4.38371 -5
    endloop
  endfacet
  facet normal 0 0 -1
    outer loop
      vertex -9.84808 -1.73648 -5
      vertex -9.70296 2.41922 -5
      vertex -9.27184 -3.74607 -5
    endloop
  endfacet
  facet normal 0 0 -1
    outer loop
      vertex -9.70296 2.41922 -5
      vertex -9.84808 -1.73648 -5
      vertex -9.99391 0.348994 -5
    endloop
  endfacet
  facet normal -0.766043 -0.64279 0
    outer loop
      vertex -6.94658 -7.1934 -5
      vertex -8.29038 -5.59193 5
      vertex -8.29038 -5.59193 -5
    endloop
  endfacet
  facet normal -0.766043 -0.64279 0
    outer loop
      vertex -8.29038 -5.59193 5
      vertex -6.94658 -7.1934 -5
      vertex -6.94658 -7.1934 5
    endloop
  endfacet
  facet normal -0.71934 0.694658 0
    outer loop
      vertex -7.88011 6.15661 -5
      vertex -6.42788 7.66044 5
      vertex -6.42788 7.66044 -5
    endloop
  endfacet
  facet normal -0.71934 0.694658 0
    outer loop
      vertex -6.42788 7.66044 5
      vertex -7.88011 6.15661 -5
      vertex -7.88011 6.15661 5
    endloop
  endfacet
  facet normal -0.438373 -0.898793 0
    outer loop
      vertex -5.29919 -8.48048 -5
      vertex -3.4202 -9.39693 5
      vertex -5.29919 -8.48048 5
    endloop
  endfacet
  facet normal -0.438373 -0.898793 -0
    outer loop
      vertex -3.4202 -9.39693 5
      vertex -5.29919 -8.48048 -5
      vertex -3.4202 -9.39693 -5
    endloop
  endfacet
  facet normal 0.615661 0.788011 -0
    outer loop
      vertex 6.94658 7.1934 -5
      vertex 5.29919 8.48048 0
      vertex 6.94658 7.1934 0
    endloop
  endfacet
  facet normal 0.615661 0.788011 0
    outer loop
      vertex 5.29919 8.48048 0
      vertex 6.94658 7.1934 -5
      vertex 5.29919 8.48048 -5
    endloop
  endfacet
  facet normal 0.559196 -0.829036 0
    outer loop
      vertex 4.69472 -8.82948 -5
      vertex 6.42788 -7.66044 5
      vertex 4.69472 -8.82948 5
    endloop
  endfacet
  facet normal 0.559196 -0.829036 0
    outer loop
      vertex 6.42788 -7.66044 5
      vertex 4.69472 -8.82948 -5
      vertex 6.42788 -7.66044 -5
    endloop
  endfacet
  facet normal 0.997563 0.0697734 0
    outer loop
      vertex 9.9695 0 5
      vertex 9.99391 -0.348994 5
      vertex 9.9695 0 0
    endloop
  endfacet
  facet normal 0.997564 0.0697528 0
    outer loop
      vertex 9.9695 0 0
      vertex 9.84808 1.73648 -5
      vertex 9.84808 1.73648 0
    endloop
  endfacet
  facet normal 0.997564 0.0697562 1.20784e-06
    outer loop
      vertex 9.9695 0 0
      vertex 9.99391 -0.348994 -5
      vertex 9.84808 1.73648 -5
    endloop
  endfacet
  facet normal 0.997563 0.0697734 -0
    outer loop
      vertex 9.99391 -0.348994 -5
      vertex 9.9695 0 0
      vertex 9.99391 -0.348994 5
    endloop
  endfacet
  facet normal 0 0 1
    outer loop
      vertex 0 9.95128 5
      vertex -0.697564 9.97564 5
      vertex 0 0 5
    endloop
  endfacet
  facet normal -0 0 1
    outer loop
      vertex 0 0 5
      vertex 9.99391 -0.348994 5
      vertex 9.9695 0 5
    endloop
  endfacet
  facet normal 0 0 1
    outer loop
      vertex 9.99391 -0.348994 5
      vertex 0 0 5
      vertex 9.70296 -2.41922 5
    endloop
  endfacet
  facet normal 0 0 1
    outer loop
      vertex 9.70296 -2.41922 5
      vertex 0 0 5
      vertex 8.98794 -4.38371 5
    endloop
  endfacet
  facet normal 0 0 1
    outer loop
      vertex 8.98794 -4.38371 5
      vertex 0 0 5
      vertex 7.88011 -6.15661 5
    endloop
  endfacet
  facet normal 0 0 1
    outer loop
      vertex 7.88011 -6.15661 5
      vertex 0 0 5
      vertex 6.42788 -7.66044 5
    endloop
  endfacet
  facet normal 0 0 1
    outer loop
      vertex 6.42788 -7.66044 5
      vertex 0 0 5
      vertex 4.69472 -8.82948 5
    endloop
  endfacet
  facet normal 0 0 1
    outer loop
      vertex 4.69472 -8.82948 5
      vertex 0 0 5
      vertex 2.75637 -9.61262 5
    endloop
  endfacet
  facet normal 0 0 1
    outer loop
      vertex 2.75637 -9.61262 5
      vertex 0 0 5
      vertex 0.697564 -9.97564 5
    endloop
  endfacet
  facet normal -0 0 1
    outer loop
      vertex -2.75637 9.61262 5
      vertex 0 0 5
      vertex -0.697564 9.97564 5
    endloop
  endfacet
  facet normal 0 0 1
    outer loop
      vertex 0 0 5
      vertex -1.39173 -9.90268 5
      vertex 0.697564 -9.97564 5
    endloop
  endfacet
  facet normal -0 0 1
    outer loop
      vertex -4.69472 8.82948 5
      vertex 0 0 5
      vertex -2.75637 9.61262 5
    endloop
  endfacet
  facet normal 0 0 1
    outer loop
      vertex 0 0 5
      vertex -3.4202 -9.39693 5
      vertex -1.39173 -9.90268 5
    endloop
  endfacet
  facet normal -0 0 1
    outer loop
      vertex -6.42788 7.66044 5
      vertex 0 0 5
      vertex -4.69472 8.82948 5
    endloop
  endfacet
  facet normal 0 0 1
    outer loop
      vertex 0 0 5
      vertex -5.29919 -8.48048 5
      vertex -3.4202 -9.39693 5
    endloop
  endfacet
  facet normal -0 0 1
    outer loop
      vertex -7.88011 6.15661 5
      vertex 0 0 5
      vertex -6.42788 7.66044 5
    endloop
  endfacet
  facet normal 0 0 1
    outer loop
      vertex 0 0 5
      vertex -6.94658 -7.1934 5
      vertex -5.29919 -8.48048 5
    endloop
  endfacet
  facet normal -0 0 1
    outer loop
      vertex -8.98794 4.38371 5
      vertex 0 0 5
      vertex -7.88011 6.15661 5
    endloop
  endfacet
  facet normal 0 0 1
    outer loop
      vertex 0 0 5
      vertex -8.29038 -5.59193 5
      vertex -6.94658 -7.1934 5
    endloop
  endfacet
  facet normal -0 0 1
    outer loop
      vertex -9.70296 2.41922 5
      vertex 0 0 5
      vertex -8.98794 4.38371 5
    endloop
  endfacet
  facet normal 0 0 1
    outer loop
      vertex 0 0 5
      vertex -9.27184 -3.74607 5
      vertex -8.29038 -5.59193 5
    endloop
  endfacet
  facet normal -0 0 1
    outer loop
      vertex -9.99391 0.348994 5
      vertex 0 0 5
      vertex -9.70296 2.41922 5
    endloop
  endfacet
  facet normal 0 0 1
    outer loop
      vertex 0 0 5
      vertex -9.84808 -1.73648 5
      vertex -9.27184 -3.74607 5
    endloop
  endfacet
  facet normal 0 0 1
    outer loop
      vertex 0 0 5
      vertex -9.99391 0.348994 5
      vertex -9.84808 -1.73648 5
    endloop
  endfacet
  facet normal -0.559196 0.829036 0
    outer loop
      vertex -4.69472 8.82948 -5
      vertex -6.42788 7.66044 5
      vertex -4.69472 8.82948 5
    endloop
  endfacet
  facet normal -0.559196 0.829036 0
    outer loop
      vertex -6.42788 7.66044 5
      vertex -4.69472 8.82948 -5
      vertex -6.42788 7.66044 -5
    endloop
  endfacet
  facet normal 0.71934 -0.694658 0
    outer loop
      vertex 6.42788 -7.66044 5
      vertex 7.88011 -6.15661 -5
      vertex 7.88011 -6.15661 5
    endloop
  endfacet
  facet normal 0.71934 -0.694658 0
    outer loop
      vertex 7.88011 -6.15661 -5
      vertex 6.42788 -7.66044 5
      vertex 6.42788 -7.66044 -5
    endloop
  endfacet
  facet normal -0.24192 -0.970296 0
    outer loop
      vertex -3.4202 -9.39693 -5
      vertex -1.39173 -9.90268 5
      vertex -3.4202 -9.39693 5
    endloop
  endfacet
  facet normal -0.24192 -0.970296 -0
    outer loop
      vertex -1.39173 -9.90268 5
      vertex -3.4202 -9.39693 -5
      vertex -1.39173 -9.90268 -5
    endloop
  endfacet
  facet normal 0.990268 -0.139172 0
    outer loop
      vertex 9.70296 -2.41922 5
      vertex 9.99391 -0.348994 -5
      vertex 9.99391 -0.348994 5
    endloop
  endfacet
  facet normal 0.990268 -0.139172 0
    outer loop
      vertex 9.99391 -0.348994 -5
      vertex 9.70296 -2.41922 5
      vertex 9.70296 -2.41922 -5
    endloop
  endfacet
  facet normal -0.173647 0.984808 0
    outer loop
      vertex -0.697564 9.97564 -5
      vertex -2.75637 9.61262 5
      vertex -0.697564 9.97564 5
    endloop
  endfacet
  facet normal -0.173647 0.984808 0
    outer loop
      vertex -2.75637 9.61262 5
      vertex -0.697564 9.97564 -5
      vertex -2.75637 9.61262 -5
    endloop
  endfacet
  facet normal -0.0348996 -0.999391 0
    outer loop
      vertex -1.39173 -9.90268 -5
      vertex 0.697564 -9.97564 5
      vertex -1.39173 -9.90268 5
    endloop
  endfacet
  facet normal -0.0348996 -0.999391 -0
    outer loop
      vertex 0.697564 -9.97564 5
      vertex -1.39173 -9.90268 -5
      vertex 0.697564 -9.97564 -5
    endloop
  endfacet
  facet normal -0.997564 -0.0697562 0
    outer loop
      vertex -9.84808 -1.73648 -5
      vertex -9.99391 0.348994 5
      vertex -9.99391 0.348994 -5
    endloop
  endfacet
  facet normal -0.997564 -0.0697562 0
    outer loop
      vertex -9.99391 0.348994 5
      vertex -9.84808 -1.73648 -5
      vertex -9.84808 -1.73648 5
    endloop
  endfacet
  facet normal -0.848048 0.529919 0
    outer loop
      vertex -8.98794 4.38371 -5
      vertex -7.88011 6.15661 5
      vertex -7.88011 6.15661 -5
    endloop
  endfacet
  facet normal -0.848048 0.529919 0
    outer loop
      vertex -7.88011 6.15661 5
      vertex -8.98794 4.38371 -5
      vertex -8.98794 4.38371 5
    endloop
  endfacet
  facet normal 0.939692 -0.342022 0
    outer loop
      vertex 8.98794 -4.38371 5
      vertex 9.70296 -2.41922 -5
      vertex 9.70296 -2.41922 5
    endloop
  endfacet
  facet normal 0.939692 -0.342022 0
    outer loop
      vertex 9.70296 -2.41922 -5
      vertex 8.98794 -4.38371 5
      vertex 8.98794 -4.38371 -5
    endloop
  endfacet
  facet normal 0.848048 -0.529919 0
    outer loop
      vertex 7.88011 -6.15661 5
      vertex 8.98794 -4.38371 -5
      vertex 8.98794 -4.38371 5
    endloop
  endfacet
  facet normal 0.848048 -0.529919 0
    outer loop
      vertex 8.98794 -4.38371 -5
      vertex 7.88011 -6.15661 5
      vertex 7.88011 -6.15661 -5
    endloop
  endfacet
  facet normal 0.0348993 0.999391 0
    outer loop
      vertex 1.39173 9.90268 0
      vertex 1.39173 9.90268 -5
      vertex 0 9.95128 0
    endloop
  endfacet
  facet normal 0.0349003 0.999391 -0
    outer loop
      vertex 0 9.95128 0
      vertex -0.697564 9.97564 5
      vertex 0 9.95128 5
    endloop
  endfacet
  facet normal 0.0349003 0.999391 0
    outer loop
      vertex 0 9.95128 0
      vertex -0.697564 9.97564 -5
      vertex -0.697564 9.97564 5
    endloop
  endfacet
  facet normal 0.0348996 0.999391 8.92007e-08
    outer loop
      vertex -0.697564 9.97564 -5
      vertex 0 9.95128 0
      vertex 1.39173 9.90268 -5
    endloop
  endfacet
  facet normal 0.374605 -0.927185 0
    outer loop
      vertex 2.75637 -9.61262 -5
      vertex 4.69472 -8.82948 5
      vertex 2.75637 -9.61262 5
    endloop
  endfacet
  facet normal 0.374605 -0.927185 0
    outer loop
      vertex 4.69472 -8.82948 5
      vertex 2.75637 -9.61262 -5
      vertex 4.69472 -8.82948 -5
    endloop
  endfacet
  facet normal 0.438373 0.898793 -0
    outer loop
      vertex 5.29919 8.48048 -5
      vertex 3.4202 9.39693 0
      vertex 5.29919 8.48048 0
    endloop
  endfacet
  facet normal 0.438373 0.898793 0
    outer loop
      vertex 3.4202 9.39693 0
      vertex 5.29919 8.48048 -5
      vertex 3.4202 9.39693 -5
    endloop
  endfacet
  facet normal -0.374605 0.927185 0
    outer loop
      vertex -2.75637 9.61262 -5
      vertex -4.69472 8.82948 5
      vertex -2.75637 9.61262 5
    endloop
  endfacet
  facet normal -0.374605 0.927185 0
    outer loop
      vertex -4.69472 8.82948 5
      vertex -2.75637 9.61262 -5
      vertex -4.69472 8.82948 -5
    endloop
  endfacet
  facet normal 0.173647 -0.984808 0
    outer loop
      vertex 0.697564 -9.97564 -5
      vertex 2.75637 -9.61262 5
      vertex 0.697564 -9.97564 5
    endloop
  endfacet
  facet normal 0.173647 -0.984808 0
    outer loop
      vertex 2.75637 -9.61262 5
      vertex 0.697564 -9.97564 -5
      vertex 2.75637 -9.61262 -5
    endloop
  endfacet
  facet normal -0.990268 0.139172 0
    outer loop
      vertex -9.99391 0.348994 -5
      vertex -9.70296 2.41922 5
      vertex -9.70296 2.41922 -5
    endloop
  endfacet
  facet normal -0.990268 0.139172 0
    outer loop
      vertex -9.70296 2.41922 5
      vertex -9.99391 0.348994 -5
      vertex -9.99391 0.348994 5
    endloop
  endfacet
  facet normal -0.882948 -0.469471 0
    outer loop
      vertex -8.29038 -5.59193 -5
      vertex -9.27184 -3.74607 5
      vertex -9.27184 -3.74607 -5
    endloop
  endfacet
  facet normal -0.882948 -0.469471 0
    outer loop
      vertex -9.27184 -3.74607 5
      vertex -8.29038 -5.59193 -5
      vertex -8.29038 -5.59193 5
    endloop
  endfacet
  facet normal -0.615661 -0.788011 0
    outer loop
      vertex -6.94658 -7.1934 -5
      vertex -5.29919 -8.48048 5
      vertex -6.94658 -7.1934 5
    endloop
  endfacet
  facet normal -0.615661 -0.788011 -0
    outer loop
      vertex -5.29919 -8.48048 5
      vertex -6.94658 -7.1934 -5
      vertex -5.29919 -8.48048 -5
    endloop
  endfacet
  facet normal -0.961262 -0.275637 0
    outer loop
      vertex -9.27184 -3.74607 -5
      vertex -9.84808 -1.73648 5
      vertex -9.84808 -1.73648 -5
    endloop
  endfacet
  facet normal -0.961262 -0.275637 0
    outer loop
      vertex -9.84808 -1.73648 5
      vertex -9.27184 -3.74607 -5
      vertex -9.27184 -3.74607 5
    endloop
  endfacet
  facet normal -0.939692 0.342022 0
    outer loop
      vertex -9.70296 2.41922 -5
      vertex -8.98794 4.38371 5
      vertex -8.98794 4.38371 -5
    endloop
  endfacet
  facet normal -0.939692 0.342022 0
    outer loop
      vertex -8.98794 4.38371 5
      vertex -9.70296 2.41922 -5
      vertex -9.70296 2.41922 5
    endloop
  endfacet
  facet normal -1 0 0
    outer loop
      vertex 35 5 5
      vertex 35 35 10
      vertex 35 35 5
    endloop
  endfacet
  facet normal -1 -0 0
    outer loop
      vertex 35 35 10
      vertex 35 5 5
      vertex 35 5 10
    endloop
  endfacet
  facet normal -0 0 1
    outer loop
      vertex 5 35 5
      vertex 35 5 5
      vertex 35 35 5
    endloop
  endfacet
  facet normal 0 0 1
    outer loop
      vertex 35 5 5
      vertex 5 35 5
      vertex 5 5 5
    endloop
  endfacet
  facet normal 1 -0 0
    outer loop
      vertex 5 5 10
      vertex 5 35 5
      vertex 5 35 10
    endloop
  endfacet
  facet normal 1 0 0
    outer loop
      vertex 5 35 5
      vertex 5 5 10
      vertex 5 5 5
    endloop
  endfacet
  facet normal 0 -1 0
    outer loop
      vertex 5 35 5
      vertex 35 35 10
      vertex 5 35 10
    endloop
  endfacet
  facet normal 0 -1 -0
    outer loop
      vertex 35 35 10
      vertex 5 35 5
      vertex 35 35 5
    endloop
  endfacet
  facet normal 0 1 -0
    outer loop
      vertex 35 5 5
      vertex 5 5 10
      vertex 35 5 10
    endloop
  endfacet
  facet normal 0 1 0
    outer loop
      vertex 5 5 10
      vertex 35 5 5
      vertex 5 5 5
    endloop
  endfacet
endsolid OpenSCAD_Model
