solid OpenSCAD_Model
  facet normal 1 -0 0
    outer loop
      vertex 30 0 30
      vertex 30 30 0
      vertex 30 30 30
    endloop
  endfacet
  facet normal 1 0 0
    outer loop
      vertex 30 30 0
      vertex 30 0 30
      vertex 30 0 0
    endloop
  endfacet
  facet normal -0 0 1
    outer loop
      vertex 0 30 30
      vertex 30 0 30
      vertex 30 30 30
    endloop
  endfacet
  facet normal 0 0 1
    outer loop
      vertex 30 0 30
      vertex 0 30 30
      vertex 0 0 30
    endloop
  endfacet
  facet normal 0 0 -1
    outer loop
      vertex 0 0 0
      vertex 30 30 0
      vertex 30 0 0
    endloop
  endfacet
  facet normal -0 0 -1
    outer loop
      vertex 30 30 0
      vertex 0 0 0
      vertex 0 30 0
    endloop
  endfacet
  facet normal -1 0 0
    outer loop
      vertex 0 0 0
      vertex 0 30 30
      vertex 0 30 0
    endloop
  endfacet
  facet normal -1 -0 0
    outer loop
      vertex 0 30 30
      vertex 0 0 0
      vertex 0 0 30
    endloop
  endfacet
  facet normal 0 1 -0
    outer loop
      vertex 30 30 0
      vertex 0 30 30
      vertex 30 30 30
    endloop
  endfacet
  facet normal 0 1 0
    outer loop
      vertex 0 30 30
      vertex 30 30 0
      vertex 0 30 0
    endloop
  endfacet
  facet normal 0 -1 0
    outer loop
      vertex 0 0 0
      vertex 30 0 30
      vertex 0 0 30
    endloop
  endfacet
  facet normal 0 -1 -0
    outer loop
      vertex 30 0 30
      vertex 0 0 0
      vertex 30 0 0
    endloop
  endfacet
  facet normal 0.453994 0.891005 -0
    outer loop
      vertex 5.5307 3.03693 6
      vertex 5.10733 3.25265 15
      vertex 5.5307 3.03693 15
    endloop
  endfacet
  facet normal 0.453994 0.891005 0
    outer loop
      vertex 5.10733 3.25265 15
      vertex 5.5307 3.03693 6
      vertex 5.10733 3.25265 6
    endloop
  endfacet
  facet normal 0.454003 0.891 -0
    outer loop
      vertex 4.30204 3.66296 6
      vertex 3.87868 3.87868 15
      vertex 4.30204 3.66296 15
    endloop
  endfacet
  facet normal 0.454003 0.891 0
    outer loop
      vertex 3.87868 3.87868 15
      vertex 4.30204 3.66296 6
      vertex 3.87868 3.87868 6
    endloop
  endfacet
  facet normal 0.156435 -0.987688 0
    outer loop
      vertex 6 8.88873 6
      vertex 6.4693 8.96306 15
      vertex 6 8.88873 15
    endloop
  endfacet
  facet normal 0.156435 -0.987688 0
    outer loop
      vertex 6.4693 8.96306 15
      vertex 6 8.88873 6
      vertex 6.4693 8.96306 6
    endloop
  endfacet
  facet normal 0.156435 -0.987688 0
    outer loop
      vertex 4.63803 8.67302 6
      vertex 5.10733 8.74735 15
      vertex 4.63803 8.67302 15
    endloop
  endfacet
  facet normal 0.156435 -0.987688 0
    outer loop
      vertex 5.10733 8.74735 15
      vertex 4.63803 8.67302 6
      vertex 5.10733 8.74735 6
    endloop
  endfacet
  facet normal -0.453977 -0.891013 0
    outer loop
      vertex 6.4693 8.96306 6
      vertex 6.89267 8.74735 15
      vertex 6.4693 8.96306 15
    endloop
  endfacet
  facet normal -0.453977 -0.891013 -0
    outer loop
      vertex 6.89267 8.74735 15
      vertex 6.4693 8.96306 6
      vertex 6.89267 8.74735 6
    endloop
  endfacet
  facet normal -0.453986 -0.891009 0
    outer loop
      vertex 7.69796 8.33703 6
      vertex 8.12132 8.12132 15
      vertex 7.69796 8.33703 15
    endloop
  endfacet
  facet normal -0.453986 -0.891009 -0
    outer loop
      vertex 8.12132 8.12132 15
      vertex 7.69796 8.33703 6
      vertex 8.12132 8.12132 6
    endloop
  endfacet
  facet normal 0.707117 -0.707096 0
    outer loop
      vertex 3.32698 7.36197 15
      vertex 3.66296 7.69796 6
      vertex 3.66296 7.69796 15
    endloop
  endfacet
  facet normal 0.707117 -0.707096 0
    outer loop
      vertex 3.66296 7.69796 6
      vertex 3.32698 7.36197 15
      vertex 3.32698 7.36197 6
    endloop
  endfacet
  facet normal 0.707107 -0.707107 0
    outer loop
      vertex 4.30204 8.33703 15
      vertex 4.63803 8.67302 6
      vertex 4.63803 8.67302 15
    endloop
  endfacet
  facet normal 0.707107 -0.707107 0
    outer loop
      vertex 4.63803 8.67302 6
      vertex 4.30204 8.33703 15
      vertex 4.30204 8.33703 6
    endloop
  endfacet
  facet normal -0.987688 0.156435 0
    outer loop
      vertex 8.88873 6 6
      vertex 8.96306 6.4693 15
      vertex 8.96306 6.4693 6
    endloop
  endfacet
  facet normal -0.987688 0.156435 0
    outer loop
      vertex 8.96306 6.4693 15
      vertex 8.88873 6 6
      vertex 8.88873 6 15
    endloop
  endfacet
  facet normal -0.987688 0.156435 0
    outer loop
      vertex 8.67302 4.63803 6
      vertex 8.74735 5.10733 15
      vertex 8.74735 5.10733 6
    endloop
  endfacet
  facet normal -0.987688 0.156435 0
    outer loop
      vertex 8.74735 5.10733 15
      vertex 8.67302 4.63803 6
      vertex 8.67302 4.63803 15
    endloop
  endfacet
  facet normal 0.891005 0.453994 0
    outer loop
      vertex 3.25265 5.10733 15
      vertex 3.03693 5.5307 6
      vertex 3.03693 5.5307 15
    endloop
  endfacet
  facet normal 0.891005 0.453994 0
    outer loop
      vertex 3.03693 5.5307 6
      vertex 3.25265 5.10733 15
      vertex 3.25265 5.10733 6
    endloop
  endfacet
  facet normal 0.891 0.454003 0
    outer loop
      vertex 3.87868 3.87868 15
      vertex 3.66296 4.30204 6
      vertex 3.66296 4.30204 15
    endloop
  endfacet
  facet normal 0.891 0.454003 0
    outer loop
      vertex 3.66296 4.30204 6
      vertex 3.87868 3.87868 15
      vertex 3.87868 3.87868 6
    endloop
  endfacet
  facet normal 0.987685 -0.156455 0
    outer loop
      vertex 3.03693 5.5307 15
      vertex 3.11127 6 6
      vertex 3.11127 6 15
    endloop
  endfacet
  facet normal 0.987685 -0.156455 0
    outer loop
      vertex 3.11127 6 6
      vertex 3.03693 5.5307 15
      vertex 3.03693 5.5307 6
    endloop
  endfacet
  facet normal 0.987688 -0.156435 0
    outer loop
      vertex 3.25265 6.89267 15
      vertex 3.32698 7.36197 6
      vertex 3.32698 7.36197 15
    endloop
  endfacet
  facet normal 0.987688 -0.156435 0
    outer loop
      vertex 3.32698 7.36197 6
      vertex 3.25265 6.89267 15
      vertex 3.25265 6.89267 6
    endloop
  endfacet
  facet normal -0 0 -1
    outer loop
      vertex 8.96306 5.5307 15
      vertex 8.74735 5.10733 15
      vertex 8.88873 6 15
    endloop
  endfacet
  facet normal 0 0 -1
    outer loop
      vertex 8.88873 6 15
      vertex 8.74735 6.89267 15
      vertex 8.96306 6.4693 15
    endloop
  endfacet
  facet normal 0 0 -1
    outer loop
      vertex 8.74735 5.10733 15
      vertex 8.74735 6.89267 15
      vertex 8.88873 6 15
    endloop
  endfacet
  facet normal 0 0 -1
    outer loop
      vertex 8.33703 4.30204 15
      vertex 8.74735 5.10733 15
      vertex 8.67302 4.63803 15
    endloop
  endfacet
  facet normal -0 0 -1
    outer loop
      vertex 8.74735 5.10733 15
      vertex 8.33703 4.30204 15
      vertex 8.74735 6.89267 15
    endloop
  endfacet
  facet normal 0 0 -1
    outer loop
      vertex 8.33703 7.69796 15
      vertex 8.74735 6.89267 15
      vertex 8.33703 4.30204 15
    endloop
  endfacet
  facet normal 0 0 -1
    outer loop
      vertex 8.74735 6.89267 15
      vertex 8.33703 7.69796 15
      vertex 8.67302 7.36197 15
    endloop
  endfacet
  facet normal 0 0 -1
    outer loop
      vertex 7.69796 3.66296 15
      vertex 8.33703 4.30204 15
      vertex 8.12132 3.87868 15
    endloop
  endfacet
  facet normal -0 0 -1
    outer loop
      vertex 8.33703 4.30204 15
      vertex 7.69796 3.66296 15
      vertex 8.33703 7.69796 15
    endloop
  endfacet
  facet normal 0 0 -1
    outer loop
      vertex 7.69796 8.33703 15
      vertex 8.33703 7.69796 15
      vertex 7.69796 3.66296 15
    endloop
  endfacet
  facet normal 0 0 -1
    outer loop
      vertex 8.33703 7.69796 15
      vertex 7.69796 8.33703 15
      vertex 8.12132 8.12132 15
    endloop
  endfacet
  facet normal 0 0 -1
    outer loop
      vertex 6.89267 3.25265 15
      vertex 7.69796 3.66296 15
      vertex 7.36197 3.32698 15
    endloop
  endfacet
  facet normal -0 0 -1
    outer loop
      vertex 7.69796 3.66296 15
      vertex 6.89267 3.25265 15
      vertex 7.69796 8.33703 15
    endloop
  endfacet
  facet normal 0 0 -1
    outer loop
      vertex 6.89267 8.74735 15
      vertex 7.69796 8.33703 15
      vertex 6.89267 3.25265 15
    endloop
  endfacet
  facet normal 0 0 -1
    outer loop
      vertex 7.69796 8.33703 15
      vertex 6.89267 8.74735 15
      vertex 7.36197 8.67302 15
    endloop
  endfacet
  facet normal 0 0 -1
    outer loop
      vertex 6 3.11127 15
      vertex 6.89267 3.25265 15
      vertex 6.4693 3.03693 15
    endloop
  endfacet
  facet normal -0 0 -1
    outer loop
      vertex 6.89267 3.25265 15
      vertex 6 3.11127 15
      vertex 6.89267 8.74735 15
    endloop
  endfacet
  facet normal 0 0 -1
    outer loop
      vertex 6 8.88873 15
      vertex 6.89267 8.74735 15
      vertex 6 3.11127 15
    endloop
  endfacet
  facet normal 0 0 -1
    outer loop
      vertex 6.89267 8.74735 15
      vertex 6 8.88873 15
      vertex 6.4693 8.96306 15
    endloop
  endfacet
  facet normal 0 0 -1
    outer loop
      vertex 5.10733 3.25265 15
      vertex 6 3.11127 15
      vertex 5.5307 3.03693 15
    endloop
  endfacet
  facet normal 0 0 -1
    outer loop
      vertex 6 3.11127 15
      vertex 5.10733 3.25265 15
      vertex 6 8.88873 15
    endloop
  endfacet
  facet normal 0 0 -1
    outer loop
      vertex 5.10733 8.74735 15
      vertex 6 8.88873 15
      vertex 5.10733 3.25265 15
    endloop
  endfacet
  facet normal -0 0 -1
    outer loop
      vertex 6 8.88873 15
      vertex 5.10733 8.74735 15
      vertex 5.5307 8.96306 15
    endloop
  endfacet
  facet normal 0 0 -1
    outer loop
      vertex 4.30204 3.66296 15
      vertex 5.10733 3.25265 15
      vertex 4.63803 3.32698 15
    endloop
  endfacet
  facet normal 0 0 -1
    outer loop
      vertex 5.10733 3.25265 15
      vertex 4.30204 3.66296 15
      vertex 5.10733 8.74735 15
    endloop
  endfacet
  facet normal 0 0 -1
    outer loop
      vertex 4.30204 8.33703 15
      vertex 5.10733 8.74735 15
      vertex 4.30204 3.66296 15
    endloop
  endfacet
  facet normal 0 0 -1
    outer loop
      vertex 5.10733 8.74735 15
      vertex 4.30204 8.33703 15
      vertex 4.63803 8.67302 15
    endloop
  endfacet
  facet normal 0 0 -1
    outer loop
      vertex 3.66296 4.30204 15
      vertex 4.30204 3.66296 15
      vertex 3.87868 3.87868 15
    endloop
  endfacet
  facet normal 0 0 -1
    outer loop
      vertex 4.30204 3.66296 15
      vertex 3.66296 4.30204 15
      vertex 4.30204 8.33703 15
    endloop
  endfacet
  facet normal 0 0 -1
    outer loop
      vertex 3.66296 7.69796 15
      vertex 4.30204 8.33703 15
      vertex 3.66296 4.30204 15
    endloop
  endfacet
  facet normal 0 0 -1
    outer loop
      vertex 4.30204 8.33703 15
      vertex 3.66296 7.69796 15
      vertex 3.87868 8.12132 15
    endloop
  endfacet
  facet normal 0 0 -1
    outer loop
      vertex 3.25265 5.10733 15
      vertex 3.66296 4.30204 15
      vertex 3.32698 4.63803 15
    endloop
  endfacet
  facet normal 0 0 -1
    outer loop
      vertex 3.66296 4.30204 15
      vertex 3.25265 5.10733 15
      vertex 3.66296 7.69796 15
    endloop
  endfacet
  facet normal 0 0 -1
    outer loop
      vertex 3.25265 6.89267 15
      vertex 3.66296 7.69796 15
      vertex 3.25265 5.10733 15
    endloop
  endfacet
  facet normal 0 0 -1
    outer loop
      vertex 3.66296 7.69796 15
      vertex 3.25265 6.89267 15
      vertex 3.32698 7.36197 15
    endloop
  endfacet
  facet normal 0 0 -1
    outer loop
      vertex 3.25265 5.10733 15
      vertex 3.11127 6 15
      vertex 3.25265 6.89267 15
    endloop
  endfacet
  facet normal 0 -0 -1
    outer loop
      vertex 3.11127 6 15
      vertex 3.25265 5.10733 15
      vertex 3.03693 5.5307 15
    endloop
  endfacet
  facet normal 0 0 -1
    outer loop
      vertex 3.25265 6.89267 15
      vertex 3.11127 6 15
      vertex 3.03693 6.4693 15
    endloop
  endfacet
  facet normal -0.891013 -0.453977 0
    outer loop
      vertex 8.96306 6.4693 6
      vertex 8.74735 6.89267 15
      vertex 8.74735 6.89267 6
    endloop
  endfacet
  facet normal -0.891013 -0.453977 0
    outer loop
      vertex 8.74735 6.89267 15
      vertex 8.96306 6.4693 6
      vertex 8.96306 6.4693 15
    endloop
  endfacet
  facet normal -0.891009 -0.453986 0
    outer loop
      vertex 8.33703 7.69796 6
      vertex 8.12132 8.12132 15
      vertex 8.12132 8.12132 6
    endloop
  endfacet
  facet normal -0.891009 -0.453986 0
    outer loop
      vertex 8.12132 8.12132 15
      vertex 8.33703 7.69796 6
      vertex 8.33703 7.69796 15
    endloop
  endfacet
  facet normal -0.707107 0.707107 0
    outer loop
      vertex 8.33703 4.30204 6
      vertex 8.67302 4.63803 15
      vertex 8.67302 4.63803 6
    endloop
  endfacet
  facet normal -0.707107 0.707107 0
    outer loop
      vertex 8.67302 4.63803 15
      vertex 8.33703 4.30204 6
      vertex 8.33703 4.30204 15
    endloop
  endfacet
  facet normal -0.707096 0.707117 0
    outer loop
      vertex 7.69796 3.66296 6
      vertex 7.36197 3.32698 15
      vertex 7.69796 3.66296 15
    endloop
  endfacet
  facet normal -0.707096 0.707117 0
    outer loop
      vertex 7.36197 3.32698 15
      vertex 7.69796 3.66296 6
      vertex 7.36197 3.32698 6
    endloop
  endfacet
  facet normal 0 0 1
    outer loop
      vertex 8.96306 6.4693 6
      vertex 8.74735 6.89267 6
      vertex 8.88873 6 6
    endloop
  endfacet
  facet normal 0 0 1
    outer loop
      vertex 8.88873 6 6
      vertex 8.74735 5.10733 6
      vertex 8.96306 5.5307 6
    endloop
  endfacet
  facet normal 0 0 1
    outer loop
      vertex 8.74735 6.89267 6
      vertex 8.74735 5.10733 6
      vertex 8.88873 6 6
    endloop
  endfacet
  facet normal 0 0 1
    outer loop
      vertex 8.33703 7.69796 6
      vertex 8.74735 6.89267 6
      vertex 8.67302 7.36197 6
    endloop
  endfacet
  facet normal 0 0 1
    outer loop
      vertex 8.74735 6.89267 6
      vertex 8.33703 7.69796 6
      vertex 8.74735 5.10733 6
    endloop
  endfacet
  facet normal 0 0 1
    outer loop
      vertex 8.33703 4.30204 6
      vertex 8.74735 5.10733 6
      vertex 8.33703 7.69796 6
    endloop
  endfacet
  facet normal 0 0 1
    outer loop
      vertex 8.74735 5.10733 6
      vertex 8.33703 4.30204 6
      vertex 8.67302 4.63803 6
    endloop
  endfacet
  facet normal 0 0 1
    outer loop
      vertex 7.69796 8.33703 6
      vertex 8.33703 7.69796 6
      vertex 8.12132 8.12132 6
    endloop
  endfacet
  facet normal 0 0 1
    outer loop
      vertex 8.33703 7.69796 6
      vertex 7.69796 8.33703 6
      vertex 8.33703 4.30204 6
    endloop
  endfacet
  facet normal 0 0 1
    outer loop
      vertex 7.69796 3.66296 6
      vertex 8.33703 4.30204 6
      vertex 7.69796 8.33703 6
    endloop
  endfacet
  facet normal 0 0 1
    outer loop
      vertex 8.33703 4.30204 6
      vertex 7.69796 3.66296 6
      vertex 8.12132 3.87868 6
    endloop
  endfacet
  facet normal 0 0 1
    outer loop
      vertex 6.89267 8.74735 6
      vertex 7.69796 8.33703 6
      vertex 7.36197 8.67302 6
    endloop
  endfacet
  facet normal 0 0 1
    outer loop
      vertex 7.69796 8.33703 6
      vertex 6.89267 8.74735 6
      vertex 7.69796 3.66296 6
    endloop
  endfacet
  facet normal 0 0 1
    outer loop
      vertex 6.89267 3.25265 6
      vertex 7.69796 3.66296 6
      vertex 6.89267 8.74735 6
    endloop
  endfacet
  facet normal 0 0 1
    outer loop
      vertex 7.69796 3.66296 6
      vertex 6.89267 3.25265 6
      vertex 7.36197 3.32698 6
    endloop
  endfacet
  facet normal -0 0 1
    outer loop
      vertex 6 8.88873 6
      vertex 6.89267 8.74735 6
      vertex 6.4693 8.96306 6
    endloop
  endfacet
  facet normal 0 0 1
    outer loop
      vertex 6.89267 8.74735 6
      vertex 6 8.88873 6
      vertex 6.89267 3.25265 6
    endloop
  endfacet
  facet normal 0 0 1
    outer loop
      vertex 6 3.11127 6
      vertex 6.89267 3.25265 6
      vertex 6 8.88873 6
    endloop
  endfacet
  facet normal 0 0 1
    outer loop
      vertex 6.89267 3.25265 6
      vertex 6 3.11127 6
      vertex 6.4693 3.03693 6
    endloop
  endfacet
  facet normal 0 0 1
    outer loop
      vertex 5.10733 8.74735 6
      vertex 6 8.88873 6
      vertex 5.5307 8.96306 6
    endloop
  endfacet
  facet normal 0 0 1
    outer loop
      vertex 6 8.88873 6
      vertex 5.10733 8.74735 6
      vertex 6 3.11127 6
    endloop
  endfacet
  facet normal -0 0 1
    outer loop
      vertex 5.10733 3.25265 6
      vertex 6 3.11127 6
      vertex 5.10733 8.74735 6
    endloop
  endfacet
  facet normal 0 0 1
    outer loop
      vertex 6 3.11127 6
      vertex 5.10733 3.25265 6
      vertex 5.5307 3.03693 6
    endloop
  endfacet
  facet normal 0 0 1
    outer loop
      vertex 4.30204 8.33703 6
      vertex 5.10733 8.74735 6
      vertex 4.63803 8.67302 6
    endloop
  endfacet
  facet normal 0 0 1
    outer loop
      vertex 5.10733 8.74735 6
      vertex 4.30204 8.33703 6
      vertex 5.10733 3.25265 6
    endloop
  endfacet
  facet normal -0 0 1
    outer loop
      vertex 4.30204 3.66296 6
      vertex 5.10733 3.25265 6
      vertex 4.30204 8.33703 6
    endloop
  endfacet
  facet normal 0 0 1
    outer loop
      vertex 5.10733 3.25265 6
      vertex 4.30204 3.66296 6
      vertex 4.63803 3.32698 6
    endloop
  endfacet
  facet normal 0 0 1
    outer loop
      vertex 3.66296 7.69796 6
      vertex 4.30204 8.33703 6
      vertex 3.87868 8.12132 6
    endloop
  endfacet
  facet normal 0 0 1
    outer loop
      vertex 4.30204 8.33703 6
      vertex 3.66296 7.69796 6
      vertex 4.30204 3.66296 6
    endloop
  endfacet
  facet normal -0 0 1
    outer loop
      vertex 3.66296 4.30204 6
      vertex 4.30204 3.66296 6
      vertex 3.66296 7.69796 6
    endloop
  endfacet
  facet normal 0 0 1
    outer loop
      vertex 4.30204 3.66296 6
      vertex 3.66296 4.30204 6
      vertex 3.87868 3.87868 6
    endloop
  endfacet
  facet normal 0 0 1
    outer loop
      vertex 3.25265 6.89267 6
      vertex 3.66296 7.69796 6
      vertex 3.32698 7.36197 6
    endloop
  endfacet
  facet normal 0 0 1
    outer loop
      vertex 3.66296 7.69796 6
      vertex 3.25265 6.89267 6
      vertex 3.66296 4.30204 6
    endloop
  endfacet
  facet normal -0 0 1
    outer loop
      vertex 3.25265 5.10733 6
      vertex 3.66296 4.30204 6
      vertex 3.25265 6.89267 6
    endloop
  endfacet
  facet normal 0 0 1
    outer loop
      vertex 3.66296 4.30204 6
      vertex 3.25265 5.10733 6
      vertex 3.32698 4.63803 6
    endloop
  endfacet
  facet normal 0 0 1
    outer loop
      vertex 3.25265 6.89267 6
      vertex 3.11127 6 6
      vertex 3.25265 5.10733 6
    endloop
  endfacet
  facet normal 0 -0 1
    outer loop
      vertex 3.11127 6 6
      vertex 3.25265 6.89267 6
      vertex 3.03693 6.4693 6
    endloop
  endfacet
  facet normal 0 0 1
    outer loop
      vertex 3.25265 5.10733 6
      vertex 3.11127 6 6
      vertex 3.03693 5.5307 6
    endloop
  endfacet
  facet normal -0.156455 0.987685 0
    outer loop
      vertex 6 3.11127 6
      vertex 5.5307 3.03693 15
      vertex 6 3.11127 15
    endloop
  endfacet
  facet normal -0.156455 0.987685 0
    outer loop
      vertex 5.5307 3.03693 15
      vertex 6 3.11127 6
      vertex 5.5307 3.03693 6
    endloop
  endfacet
  facet normal -0.156435 0.987688 0
    outer loop
      vertex 7.36197 3.32698 6
      vertex 6.89267 3.25265 15
      vertex 7.36197 3.32698 15
    endloop
  endfacet
  facet normal -0.156435 0.987688 0
    outer loop
      vertex 6.89267 3.25265 15
      vertex 7.36197 3.32698 6
      vertex 6.89267 3.25265 6
    endloop
  endfacet
  facet normal 0.891005 -0.453994 0
    outer loop
      vertex 3.03693 6.4693 15
      vertex 3.25265 6.89267 6
      vertex 3.25265 6.89267 15
    endloop
  endfacet
  facet normal 0.891005 -0.453994 0
    outer loop
      vertex 3.25265 6.89267 6
      vertex 3.03693 6.4693 15
      vertex 3.03693 6.4693 6
    endloop
  endfacet
  facet normal 0.891 -0.454003 0
    outer loop
      vertex 3.66296 7.69796 15
      vertex 3.87868 8.12132 6
      vertex 3.87868 8.12132 15
    endloop
  endfacet
  facet normal 0.891 -0.454003 0
    outer loop
      vertex 3.87868 8.12132 6
      vertex 3.66296 7.69796 15
      vertex 3.66296 7.69796 6
    endloop
  endfacet
  facet normal -0.987688 -0.156435 0
    outer loop
      vertex 8.74735 6.89267 6
      vertex 8.67302 7.36197 15
      vertex 8.67302 7.36197 6
    endloop
  endfacet
  facet normal -0.987688 -0.156435 0
    outer loop
      vertex 8.67302 7.36197 15
      vertex 8.74735 6.89267 6
      vertex 8.74735 6.89267 15
    endloop
  endfacet
  facet normal -0.987688 -0.156435 0
    outer loop
      vertex 8.96306 5.5307 6
      vertex 8.88873 6 15
      vertex 8.88873 6 6
    endloop
  endfacet
  facet normal -0.987688 -0.156435 0
    outer loop
      vertex 8.88873 6 15
      vertex 8.96306 5.5307 6
      vertex 8.96306 5.5307 15
    endloop
  endfacet
  facet normal -0.707107 -0.707107 0
    outer loop
      vertex 8.67302 7.36197 6
      vertex 8.33703 7.69796 15
      vertex 8.33703 7.69796 6
    endloop
  endfacet
  facet normal -0.707107 -0.707107 0
    outer loop
      vertex 8.33703 7.69796 15
      vertex 8.67302 7.36197 6
      vertex 8.67302 7.36197 15
    endloop
  endfacet
  facet normal -0.707107 -0.707107 0
    outer loop
      vertex 7.69796 8.33703 6
      vertex 7.36197 8.67302 15
      vertex 7.36197 8.67302 6
    endloop
  endfacet
  facet normal -0.707107 -0.707107 0
    outer loop
      vertex 7.36197 8.67302 15
      vertex 7.69796 8.33703 6
      vertex 7.69796 8.33703 15
    endloop
  endfacet
  facet normal -0.891013 0.453977 0
    outer loop
      vertex 8.74735 5.10733 6
      vertex 8.96306 5.5307 15
      vertex 8.96306 5.5307 6
    endloop
  endfacet
  facet normal -0.891013 0.453977 0
    outer loop
      vertex 8.96306 5.5307 15
      vertex 8.74735 5.10733 6
      vertex 8.74735 5.10733 15
    endloop
  endfacet
  facet normal -0.891009 0.453986 0
    outer loop
      vertex 8.12132 3.87868 6
      vertex 8.33703 4.30204 15
      vertex 8.33703 4.30204 6
    endloop
  endfacet
  facet normal -0.891009 0.453986 0
    outer loop
      vertex 8.33703 4.30204 15
      vertex 8.12132 3.87868 6
      vertex 8.12132 3.87868 15
    endloop
  endfacet
  facet normal 0.156435 0.987688 -0
    outer loop
      vertex 5.10733 3.25265 6
      vertex 4.63803 3.32698 15
      vertex 5.10733 3.25265 15
    endloop
  endfacet
  facet normal 0.156435 0.987688 0
    outer loop
      vertex 4.63803 3.32698 15
      vertex 5.10733 3.25265 6
      vertex 4.63803 3.32698 6
    endloop
  endfacet
  facet normal 0.156455 0.987685 -0
    outer loop
      vertex 6.4693 3.03693 6
      vertex 6 3.11127 15
      vertex 6.4693 3.03693 15
    endloop
  endfacet
  facet normal 0.156455 0.987685 0
    outer loop
      vertex 6 3.11127 15
      vertex 6.4693 3.03693 6
      vertex 6 3.11127 6
    endloop
  endfacet
  facet normal 0.987688 0.156435 0
    outer loop
      vertex 3.32698 4.63803 15
      vertex 3.25265 5.10733 6
      vertex 3.25265 5.10733 15
    endloop
  endfacet
  facet normal 0.987688 0.156435 0
    outer loop
      vertex 3.25265 5.10733 6
      vertex 3.32698 4.63803 15
      vertex 3.32698 4.63803 6
    endloop
  endfacet
  facet normal 0.987685 0.156455 0
    outer loop
      vertex 3.11127 6 15
      vertex 3.03693 6.4693 6
      vertex 3.03693 6.4693 15
    endloop
  endfacet
  facet normal 0.987685 0.156455 0
    outer loop
      vertex 3.03693 6.4693 6
      vertex 3.11127 6 15
      vertex 3.11127 6 6
    endloop
  endfacet
  facet normal -0.454003 0.891 0
    outer loop
      vertex 8.12132 3.87868 6
      vertex 7.69796 3.66296 15
      vertex 8.12132 3.87868 15
    endloop
  endfacet
  facet normal -0.454003 0.891 0
    outer loop
      vertex 7.69796 3.66296 15
      vertex 8.12132 3.87868 6
      vertex 7.69796 3.66296 6
    endloop
  endfacet
  facet normal -0.453994 0.891005 0
    outer loop
      vertex 6.89267 3.25265 6
      vertex 6.4693 3.03693 15
      vertex 6.89267 3.25265 15
    endloop
  endfacet
  facet normal -0.453994 0.891005 0
    outer loop
      vertex 6.4693 3.03693 15
      vertex 6.89267 3.25265 6
      vertex 6.4693 3.03693 6
    endloop
  endfacet
  facet normal -0.156435 -0.987688 0
    outer loop
      vertex 6.89267 8.74735 6
      vertex 7.36197 8.67302 15
      vertex 6.89267 8.74735 15
    endloop
  endfacet
  facet normal -0.156435 -0.987688 -0
    outer loop
      vertex 7.36197 8.67302 15
      vertex 6.89267 8.74735 6
      vertex 7.36197 8.67302 6
    endloop
  endfacet
  facet normal -0.156435 -0.987688 0
    outer loop
      vertex 5.5307 8.96306 6
      vertex 6 8.88873 15
      vertex 5.5307 8.96306 15
    endloop
  endfacet
  facet normal -0.156435 -0.987688 -0
    outer loop
      vertex 6 8.88873 15
      vertex 5.5307 8.96306 6
      vertex 6 8.88873 6
    endloop
  endfacet
  facet normal 0.707117 0.707096 0
    outer loop
      vertex 3.66296 4.30204 15
      vertex 3.32698 4.63803 6
      vertex 3.32698 4.63803 15
    endloop
  endfacet
  facet normal 0.707117 0.707096 0
    outer loop
      vertex 3.32698 4.63803 6
      vertex 3.66296 4.30204 15
      vertex 3.66296 4.30204 6
    endloop
  endfacet
  facet normal 0.707096 0.707117 -0
    outer loop
      vertex 4.63803 3.32698 6
      vertex 4.30204 3.66296 15
      vertex 4.63803 3.32698 15
    endloop
  endfacet
  facet normal 0.707096 0.707117 0
    outer loop
      vertex 4.30204 3.66296 15
      vertex 4.63803 3.32698 6
      vertex 4.30204 3.66296 6
    endloop
  endfacet
  facet normal 0.453977 -0.891013 0
    outer loop
      vertex 5.10733 8.74735 6
      vertex 5.5307 8.96306 15
      vertex 5.10733 8.74735 15
    endloop
  endfacet
  facet normal 0.453977 -0.891013 0
    outer loop
      vertex 5.5307 8.96306 15
      vertex 5.10733 8.74735 6
      vertex 5.5307 8.96306 6
    endloop
  endfacet
  facet normal 0.453986 -0.891009 0
    outer loop
      vertex 3.87868 8.12132 6
      vertex 4.30204 8.33703 15
      vertex 3.87868 8.12132 15
    endloop
  endfacet
  facet normal 0.453986 -0.891009 0
    outer loop
      vertex 4.30204 8.33703 15
      vertex 3.87868 8.12132 6
      vertex 4.30204 8.33703 6
    endloop
  endfacet
endsolid OpenSCAD_Model
