solid OpenSCAD_Model
  facet normal 0.982284 0.187396 0
    outer loop
      vertex 1.48817 0.188 18
      vertex 1.45287 0.373034 0
      vertex 1.45287 0.373034 18
    endloop
  endfacet
  facet normal 0.982284 0.187396 0
    outer loop
      vertex 1.45287 0.373034 0
      vertex 1.48817 0.188 18
      vertex 1.48817 0.188 0
    endloop
  endfacet
  facet normal 0.998026 0.0628013 0
    outer loop
      vertex 1.5 0 18
      vertex 1.48817 0.188 0
      vertex 1.48817 0.188 18
    endloop
  endfacet
  facet normal 0.998026 0.0628013 0
    outer loop
      vertex 1.48817 0.188 0
      vertex 1.5 0 18
      vertex 1.5 0 0
    endloop
  endfacet
  facet normal 0.904838 0.425756 0
    outer loop
      vertex 1.39466 0.552186 18
      vertex 1.31446 0.722631 0
      vertex 1.31446 0.722631 18
    endloop
  endfacet
  facet normal 0.904838 0.425756 0
    outer loop
      vertex 1.31446 0.722631 0
      vertex 1.39466 0.552186 18
      vertex 1.39466 0.552186 0
    endloop
  endfacet
  facet normal 0.684557 0.728959 -0
    outer loop
      vertex 1.09345 1.02682 0
      vertex 0.956136 1.15577 18
      vertex 1.09345 1.02682 18
    endloop
  endfacet
  facet normal 0.684557 0.728959 0
    outer loop
      vertex 0.956136 1.15577 18
      vertex 1.09345 1.02682 0
      vertex 0.956136 1.15577 0
    endloop
  endfacet
  facet normal 0.24871 0.968578 -0
    outer loop
      vertex 0.463525 1.42658 0
      vertex 0.281072 1.47343 18
      vertex 0.463525 1.42658 18
    endloop
  endfacet
  facet normal 0.24871 0.968578 0
    outer loop
      vertex 0.281072 1.47343 18
      vertex 0.463525 1.42658 0
      vertex 0.281072 1.47343 0
    endloop
  endfacet
  facet normal 0.998026 -0.0628013 0
    outer loop
      vertex 1.48817 -0.188 18
      vertex 1.5 0 0
      vertex 1.5 0 18
    endloop
  endfacet
  facet normal 0.998026 -0.0628013 0
    outer loop
      vertex 1.5 0 0
      vertex 1.48817 -0.188 18
      vertex 1.48817 -0.188 0
    endloop
  endfacet
  facet normal 0.904838 -0.425756 0
    outer loop
      vertex 1.31446 -0.722631 18
      vertex 1.39466 -0.552186 0
      vertex 1.39466 -0.552186 18
    endloop
  endfacet
  facet normal 0.904838 -0.425756 0
    outer loop
      vertex 1.39466 -0.552186 0
      vertex 1.31446 -0.722631 18
      vertex 1.31446 -0.722631 0
    endloop
  endfacet
  facet normal -0.587778 -0.809022 0
    outer loop
      vertex -0.956136 -1.15577 0
      vertex -0.80374 -1.26649 18
      vertex -0.956136 -1.15577 18
    endloop
  endfacet
  facet normal -0.587778 -0.809022 -0
    outer loop
      vertex -0.80374 -1.26649 18
      vertex -0.956136 -1.15577 0
      vertex -0.80374 -1.26649 0
    endloop
  endfacet
  facet normal 0.368106 -0.929784 0
    outer loop
      vertex 0.463525 -1.42658 0
      vertex 0.638668 -1.35724 18
      vertex 0.463525 -1.42658 18
    endloop
  endfacet
  facet normal 0.368106 -0.929784 0
    outer loop
      vertex 0.638668 -1.35724 18
      vertex 0.463525 -1.42658 0
      vertex 0.638668 -1.35724 0
    endloop
  endfacet
  facet normal -0.844314 -0.535848 0
    outer loop
      vertex -1.21352 -0.881678 0
      vertex -1.31446 -0.722631 18
      vertex -1.31446 -0.722631 0
    endloop
  endfacet
  facet normal -0.844314 -0.535848 0
    outer loop
      vertex -1.31446 -0.722631 18
      vertex -1.21352 -0.881678 0
      vertex -1.21352 -0.881678 18
    endloop
  endfacet
  facet normal 0.368106 0.929784 -0
    outer loop
      vertex 0.638668 1.35724 0
      vertex 0.463525 1.42658 18
      vertex 0.638668 1.35724 18
    endloop
  endfacet
  facet normal 0.368106 0.929784 0
    outer loop
      vertex 0.463525 1.42658 18
      vertex 0.638668 1.35724 0
      vertex 0.463525 1.42658 0
    endloop
  endfacet
  facet normal -0.481757 0.876305 0
    outer loop
      vertex -0.638668 1.35724 0
      vertex -0.80374 1.26649 18
      vertex -0.638668 1.35724 18
    endloop
  endfacet
  facet normal -0.481757 0.876305 0
    outer loop
      vertex -0.80374 1.26649 18
      vertex -0.638668 1.35724 0
      vertex -0.80374 1.26649 0
    endloop
  endfacet
  facet normal 0.951057 0.309017 0
    outer loop
      vertex 1.45287 0.373034 18
      vertex 1.39466 0.552186 0
      vertex 1.39466 0.552186 18
    endloop
  endfacet
  facet normal 0.951057 0.309017 0
    outer loop
      vertex 1.39466 0.552186 0
      vertex 1.45287 0.373034 18
      vertex 1.45287 0.373034 0
    endloop
  endfacet
  facet normal 0.982284 -0.187396 0
    outer loop
      vertex 1.45287 -0.373034 18
      vertex 1.48817 -0.188 0
      vertex 1.48817 -0.188 18
    endloop
  endfacet
  facet normal 0.982284 -0.187396 0
    outer loop
      vertex 1.48817 -0.188 0
      vertex 1.45287 -0.373034 18
      vertex 1.45287 -0.373034 0
    endloop
  endfacet
  facet normal 0.481757 0.876305 -0
    outer loop
      vertex 0.80374 1.26649 0
      vertex 0.638668 1.35724 18
      vertex 0.80374 1.26649 18
    endloop
  endfacet
  facet normal 0.481757 0.876305 0
    outer loop
      vertex 0.638668 1.35724 18
      vertex 0.80374 1.26649 0
      vertex 0.638668 1.35724 0
    endloop
  endfacet
  facet normal 0.125337 -0.992114 0
    outer loop
      vertex 0.0941849 -1.49704 0
      vertex 0.281072 -1.47343 18
      vertex 0.0941849 -1.49704 18
    endloop
  endfacet
  facet normal 0.125337 -0.992114 0
    outer loop
      vertex 0.281072 -1.47343 18
      vertex 0.0941849 -1.49704 0
      vertex 0.281072 -1.47343 0
    endloop
  endfacet
  facet normal -0.951057 0.309017 0
    outer loop
      vertex -1.45287 0.373034 0
      vertex -1.39466 0.552186 18
      vertex -1.39466 0.552186 0
    endloop
  endfacet
  facet normal -0.951057 0.309017 0
    outer loop
      vertex -1.39466 0.552186 18
      vertex -1.45287 0.373034 0
      vertex -1.45287 0.373034 18
    endloop
  endfacet
  facet normal 0.844314 0.535848 0
    outer loop
      vertex 1.31446 0.722631 18
      vertex 1.21352 0.881678 0
      vertex 1.21352 0.881678 18
    endloop
  endfacet
  facet normal 0.844314 0.535848 0
    outer loop
      vertex 1.21352 0.881678 0
      vertex 1.31446 0.722631 18
      vertex 1.31446 0.722631 0
    endloop
  endfacet
  facet normal 0.951057 -0.309017 0
    outer loop
      vertex 1.39466 -0.552186 18
      vertex 1.45287 -0.373034 0
      vertex 1.45287 -0.373034 18
    endloop
  endfacet
  facet normal 0.951057 -0.309017 0
    outer loop
      vertex 1.45287 -0.373034 0
      vertex 1.39466 -0.552186 18
      vertex 1.39466 -0.552186 0
    endloop
  endfacet
  facet normal -0.684557 0.728959 0
    outer loop
      vertex -0.956136 1.15577 0
      vertex -1.09345 1.02682 18
      vertex -0.956136 1.15577 18
    endloop
  endfacet
  facet normal -0.684557 0.728959 0
    outer loop
      vertex -1.09345 1.02682 18
      vertex -0.956136 1.15577 0
      vertex -1.09345 1.02682 0
    endloop
  endfacet
  facet normal 0.24871 -0.968578 0
    outer loop
      vertex 0.281072 -1.47343 0
      vertex 0.463525 -1.42658 18
      vertex 0.281072 -1.47343 18
    endloop
  endfacet
  facet normal 0.24871 -0.968578 0
    outer loop
      vertex 0.463525 -1.42658 18
      vertex 0.281072 -1.47343 0
      vertex 0.463525 -1.42658 0
    endloop
  endfacet
  facet normal -0.368106 0.929784 0
    outer loop
      vertex -0.463525 1.42658 0
      vertex -0.638668 1.35724 18
      vertex -0.463525 1.42658 18
    endloop
  endfacet
  facet normal -0.368106 0.929784 0
    outer loop
      vertex -0.638668 1.35724 18
      vertex -0.463525 1.42658 0
      vertex -0.638668 1.35724 0
    endloop
  endfacet
  facet normal 0.125337 0.992114 -0
    outer loop
      vertex 0.281072 1.47343 0
      vertex 0.0941849 1.49704 18
      vertex 0.281072 1.47343 18
    endloop
  endfacet
  facet normal 0.125337 0.992114 0
    outer loop
      vertex 0.0941849 1.49704 18
      vertex 0.281072 1.47343 0
      vertex 0.0941849 1.49704 0
    endloop
  endfacet
  facet normal -0.24871 0.968578 0
    outer loop
      vertex -0.281072 1.47343 0
      vertex -0.463525 1.42658 18
      vertex -0.281072 1.47343 18
    endloop
  endfacet
  facet normal -0.24871 0.968578 0
    outer loop
      vertex -0.463525 1.42658 18
      vertex -0.281072 1.47343 0
      vertex -0.463525 1.42658 0
    endloop
  endfacet
  facet normal -0.982284 -0.187396 0
    outer loop
      vertex -1.45287 -0.373034 0
      vertex -1.48817 -0.188 18
      vertex -1.48817 -0.188 0
    endloop
  endfacet
  facet normal -0.982284 -0.187396 0
    outer loop
      vertex -1.48817 -0.188 18
      vertex -1.45287 -0.373034 0
      vertex -1.45287 -0.373034 18
    endloop
  endfacet
  facet normal 0.587778 0.809022 -0
    outer loop
      vertex 0.956136 1.15577 0
      vertex 0.80374 1.26649 18
      vertex 0.956136 1.15577 18
    endloop
  endfacet
  facet normal 0.587778 0.809022 0
    outer loop
      vertex 0.80374 1.26649 18
      vertex 0.956136 1.15577 0
      vertex 0.80374 1.26649 0
    endloop
  endfacet
  facet normal -0.998026 -0.0628013 0
    outer loop
      vertex -1.48817 -0.188 0
      vertex -1.5 0 18
      vertex -1.5 0 0
    endloop
  endfacet
  facet normal -0.998026 -0.0628013 0
    outer loop
      vertex -1.5 0 18
      vertex -1.48817 -0.188 0
      vertex -1.48817 -0.188 18
    endloop
  endfacet
  facet normal 0 0 1
    outer loop
      vertex 2.97634 0.375999 20
      vertex 2.97634 -0.375999 20
      vertex 3 0 20
    endloop
  endfacet
  facet normal 0 0 1
    outer loop
      vertex 2.90575 0.746069 20
      vertex 2.97634 -0.375999 20
      vertex 2.97634 0.375999 20
    endloop
  endfacet
  facet normal 0 0 1
    outer loop
      vertex 2.90575 0.746069 20
      vertex 2.90575 -0.746069 20
      vertex 2.97634 -0.375999 20
    endloop
  endfacet
  facet normal 0 0 1
    outer loop
      vertex 2.78933 1.10437 20
      vertex 2.90575 -0.746069 20
      vertex 2.90575 0.746069 20
    endloop
  endfacet
  facet normal 0 0 1
    outer loop
      vertex 2.78933 1.10437 20
      vertex 2.78933 -1.10437 20
      vertex 2.90575 -0.746069 20
    endloop
  endfacet
  facet normal 0 0 1
    outer loop
      vertex 2.62892 1.44526 20
      vertex 2.78933 -1.10437 20
      vertex 2.78933 1.10437 20
    endloop
  endfacet
  facet normal 0 0 1
    outer loop
      vertex 2.62892 1.44526 20
      vertex 2.62892 -1.44526 20
      vertex 2.78933 -1.10437 20
    endloop
  endfacet
  facet normal 0 0 1
    outer loop
      vertex 2.42705 1.76336 20
      vertex 2.62892 -1.44526 20
      vertex 2.62892 1.44526 20
    endloop
  endfacet
  facet normal 0 0 1
    outer loop
      vertex 2.42705 1.76336 20
      vertex 2.42705 -1.76336 20
      vertex 2.62892 -1.44526 20
    endloop
  endfacet
  facet normal 0 0 1
    outer loop
      vertex 2.18691 2.05364 20
      vertex 2.42705 -1.76336 20
      vertex 2.42705 1.76336 20
    endloop
  endfacet
  facet normal 0 0 1
    outer loop
      vertex 2.18691 2.05364 20
      vertex 2.18691 -2.05364 20
      vertex 2.42705 -1.76336 20
    endloop
  endfacet
  facet normal 0 0 1
    outer loop
      vertex 1.91227 2.31154 20
      vertex 2.18691 -2.05364 20
      vertex 2.18691 2.05364 20
    endloop
  endfacet
  facet normal 0 0 1
    outer loop
      vertex 1.91227 2.31154 20
      vertex 1.91227 -2.31154 20
      vertex 2.18691 -2.05364 20
    endloop
  endfacet
  facet normal 0 0 1
    outer loop
      vertex 1.60748 2.53298 20
      vertex 1.91227 -2.31154 20
      vertex 1.91227 2.31154 20
    endloop
  endfacet
  facet normal 0 0 1
    outer loop
      vertex 1.60748 2.53298 20
      vertex 1.60748 -2.53298 20
      vertex 1.91227 -2.31154 20
    endloop
  endfacet
  facet normal 0 0 1
    outer loop
      vertex 1.27734 2.71448 20
      vertex 1.60748 -2.53298 20
      vertex 1.60748 2.53298 20
    endloop
  endfacet
  facet normal 0 0 1
    outer loop
      vertex 1.27734 2.71448 20
      vertex 1.27734 -2.71448 20
      vertex 1.60748 -2.53298 20
    endloop
  endfacet
  facet normal 0 0 1
    outer loop
      vertex 0.927051 2.85317 20
      vertex 1.27734 -2.71448 20
      vertex 1.27734 2.71448 20
    endloop
  endfacet
  facet normal 0 0 1
    outer loop
      vertex 0.927051 2.85317 20
      vertex 0.927051 -2.85317 20
      vertex 1.27734 -2.71448 20
    endloop
  endfacet
  facet normal 0 0 1
    outer loop
      vertex 0.562143 2.94686 20
      vertex 0.927051 -2.85317 20
      vertex 0.927051 2.85317 20
    endloop
  endfacet
  facet normal 0 0 1
    outer loop
      vertex 0.562143 2.94686 20
      vertex 0.562143 -2.94686 20
      vertex 0.927051 -2.85317 20
    endloop
  endfacet
  facet normal 0 0 1
    outer loop
      vertex 0.188371 2.99408 20
      vertex 0.562143 -2.94686 20
      vertex 0.562143 2.94686 20
    endloop
  endfacet
  facet normal 0 0 1
    outer loop
      vertex 0.188371 2.99408 20
      vertex 0.188371 -2.99408 20
      vertex 0.562143 -2.94686 20
    endloop
  endfacet
  facet normal -0 0 1
    outer loop
      vertex -0.188371 2.99408 20
      vertex 0.188371 -2.99408 20
      vertex 0.188371 2.99408 20
    endloop
  endfacet
  facet normal 0 0 1
    outer loop
      vertex -0.188371 2.99408 20
      vertex -0.188371 -2.99408 20
      vertex 0.188371 -2.99408 20
    endloop
  endfacet
  facet normal -0 0 1
    outer loop
      vertex -0.562143 2.94686 20
      vertex -0.188371 -2.99408 20
      vertex -0.188371 2.99408 20
    endloop
  endfacet
  facet normal 0 0 1
    outer loop
      vertex -0.562143 2.94686 20
      vertex -0.562143 -2.94686 20
      vertex -0.188371 -2.99408 20
    endloop
  endfacet
  facet normal -0 0 1
    outer loop
      vertex -0.927051 2.85317 20
      vertex -0.562143 -2.94686 20
      vertex -0.562143 2.94686 20
    endloop
  endfacet
  facet normal 0 0 1
    outer loop
      vertex -0.927051 2.85317 20
      vertex -0.927051 -2.85317 20
      vertex -0.562143 -2.94686 20
    endloop
  endfacet
  facet normal -0 0 1
    outer loop
      vertex -1.27734 2.71448 20
      vertex -0.927051 -2.85317 20
      vertex -0.927051 2.85317 20
    endloop
  endfacet
  facet normal 0 0 1
    outer loop
      vertex -1.27734 2.71448 20
      vertex -1.27734 -2.71448 20
      vertex -0.927051 -2.85317 20
    endloop
  endfacet
  facet normal -0 0 1
    outer loop
      vertex -1.60748 2.53298 20
      vertex -1.27734 -2.71448 20
      vertex -1.27734 2.71448 20
    endloop
  endfacet
  facet normal 0 0 1
    outer loop
      vertex -1.60748 2.53298 20
      vertex -1.60748 -2.53298 20
      vertex -1.27734 -2.71448 20
    endloop
  endfacet
  facet normal -0 0 1
    outer loop
      vertex -1.91227 2.31154 20
      vertex -1.60748 -2.53298 20
      vertex -1.60748 2.53298 20
    endloop
  endfacet
  facet normal 0 0 1
    outer loop
      vertex -1.91227 2.31154 20
      vertex -1.91227 -2.31154 20
      vertex -1.60748 -2.53298 20
    endloop
  endfacet
  facet normal -0 0 1
    outer loop
      vertex -2.18691 2.05364 20
      vertex -1.91227 -2.31154 20
      vertex -1.91227 2.31154 20
    endloop
  endfacet
  facet normal 0 0 1
    outer loop
      vertex -2.18691 2.05364 20
      vertex -2.18691 -2.05364 20
      vertex -1.91227 -2.31154 20
    endloop
  endfacet
  facet normal -0 0 1
    outer loop
      vertex -2.42705 1.76336 20
      vertex -2.18691 -2.05364 20
      vertex -2.18691 2.05364 20
    endloop
  endfacet
  facet normal 0 0 1
    outer loop
      vertex -2.42705 1.76336 20
      vertex -2.42705 -1.76336 20
      vertex -2.18691 -2.05364 20
    endloop
  endfacet
  facet normal -0 0 1
    outer loop
      vertex -2.62892 1.44526 20
      vertex -2.42705 -1.76336 20
      vertex -2.42705 1.76336 20
    endloop
  endfacet
  facet normal 0 0 1
    outer loop
      vertex -2.62892 1.44526 20
      vertex -2.62892 -1.44526 20
      vertex -2.42705 -1.76336 20
    endloop
  endfacet
  facet normal -0 0 1
    outer loop
      vertex -2.78933 1.10437 20
      vertex -2.62892 -1.44526 20
      vertex -2.62892 1.44526 20
    endloop
  endfacet
  facet normal 0 0 1
    outer loop
      vertex -2.78933 1.10437 20
      vertex -2.78933 -1.10437 20
      vertex -2.62892 -1.44526 20
    endloop
  endfacet
  facet normal -0 0 1
    outer loop
      vertex -2.90575 0.746069 20
      vertex -2.78933 -1.10437 20
      vertex -2.78933 1.10437 20
    endloop
  endfacet
  facet normal 0 0 1
    outer loop
      vertex -2.90575 0.746069 20
      vertex -2.90575 -0.746069 20
      vertex -2.78933 -1.10437 20
    endloop
  endfacet
  facet normal -0 0 1
    outer loop
      vertex -2.97634 0.375999 20
      vertex -2.90575 -0.746069 20
      vertex -2.90575 0.746069 20
    endloop
  endfacet
  facet normal 0 0 1
    outer loop
      vertex -2.97634 0.375999 20
      vertex -2.97634 -0.375999 20
      vertex -2.90575 -0.746069 20
    endloop
  endfacet
  facet normal 0 -0 1
    outer loop
      vertex -2.97634 -0.375999 20
      vertex -2.97634 0.375999 20
      vertex -3 0 20
    endloop
  endfacet
  facet normal 0.481757 -0.876305 0
    outer loop
      vertex 0.638668 -1.35724 0
      vertex 0.80374 -1.26649 18
      vertex 0.638668 -1.35724 18
    endloop
  endfacet
  facet normal 0.481757 -0.876305 0
    outer loop
      vertex 0.80374 -1.26649 18
      vertex 0.638668 -1.35724 0
      vertex 0.80374 -1.26649 0
    endloop
  endfacet
  facet normal 0 0 -1
    outer loop
      vertex 1.48817 -0.188 0
      vertex 1.48817 0.188 0
      vertex 1.5 0 0
    endloop
  endfacet
  facet normal 0 0 -1
    outer loop
      vertex 1.45287 -0.373034 0
      vertex 1.48817 0.188 0
      vertex 1.48817 -0.188 0
    endloop
  endfacet
  facet normal 0 0 -1
    outer loop
      vertex 1.45287 -0.373034 0
      vertex 1.45287 0.373034 0
      vertex 1.48817 0.188 0
    endloop
  endfacet
  facet normal 0 0 -1
    outer loop
      vertex 1.39466 -0.552186 0
      vertex 1.45287 0.373034 0
      vertex 1.45287 -0.373034 0
    endloop
  endfacet
  facet normal 0 0 -1
    outer loop
      vertex 1.39466 -0.552186 0
      vertex 1.39466 0.552186 0
      vertex 1.45287 0.373034 0
    endloop
  endfacet
  facet normal 0 0 -1
    outer loop
      vertex 1.31446 -0.722631 0
      vertex 1.39466 0.552186 0
      vertex 1.39466 -0.552186 0
    endloop
  endfacet
  facet normal 0 0 -1
    outer loop
      vertex 1.31446 -0.722631 0
      vertex 1.31446 0.722631 0
      vertex 1.39466 0.552186 0
    endloop
  endfacet
  facet normal 0 0 -1
    outer loop
      vertex 1.21352 -0.881678 0
      vertex 1.31446 0.722631 0
      vertex 1.31446 -0.722631 0
    endloop
  endfacet
  facet normal 0 0 -1
    outer loop
      vertex 1.21352 -0.881678 0
      vertex 1.21352 0.881678 0
      vertex 1.31446 0.722631 0
    endloop
  endfacet
  facet normal 0 0 -1
    outer loop
      vertex 1.09345 -1.02682 0
      vertex 1.21352 0.881678 0
      vertex 1.21352 -0.881678 0
    endloop
  endfacet
  facet normal 0 0 -1
    outer loop
      vertex 1.09345 -1.02682 0
      vertex 1.09345 1.02682 0
      vertex 1.21352 0.881678 0
    endloop
  endfacet
  facet normal 0 0 -1
    outer loop
      vertex 0.956136 -1.15577 0
      vertex 1.09345 1.02682 0
      vertex 1.09345 -1.02682 0
    endloop
  endfacet
  facet normal 0 0 -1
    outer loop
      vertex 0.956136 -1.15577 0
      vertex 0.956136 1.15577 0
      vertex 1.09345 1.02682 0
    endloop
  endfacet
  facet normal 0 0 -1
    outer loop
      vertex 0.80374 -1.26649 0
      vertex 0.956136 1.15577 0
      vertex 0.956136 -1.15577 0
    endloop
  endfacet
  facet normal 0 0 -1
    outer loop
      vertex 0.80374 -1.26649 0
      vertex 0.80374 1.26649 0
      vertex 0.956136 1.15577 0
    endloop
  endfacet
  facet normal 0 0 -1
    outer loop
      vertex 0.638668 -1.35724 0
      vertex 0.80374 1.26649 0
      vertex 0.80374 -1.26649 0
    endloop
  endfacet
  facet normal 0 0 -1
    outer loop
      vertex 0.638668 -1.35724 0
      vertex 0.638668 1.35724 0
      vertex 0.80374 1.26649 0
    endloop
  endfacet
  facet normal 0 0 -1
    outer loop
      vertex 0.463525 -1.42658 0
      vertex 0.638668 1.35724 0
      vertex 0.638668 -1.35724 0
    endloop
  endfacet
  facet normal 0 0 -1
    outer loop
      vertex 0.463525 -1.42658 0
      vertex 0.463525 1.42658 0
      vertex 0.638668 1.35724 0
    endloop
  endfacet
  facet normal 0 0 -1
    outer loop
      vertex 0.281072 -1.47343 0
      vertex 0.463525 1.42658 0
      vertex 0.463525 -1.42658 0
    endloop
  endfacet
  facet normal 0 0 -1
    outer loop
      vertex 0.281072 -1.47343 0
      vertex 0.281072 1.47343 0
      vertex 0.463525 1.42658 0
    endloop
  endfacet
  facet normal 0 0 -1
    outer loop
      vertex 0.0941849 -1.49704 0
      vertex 0.281072 1.47343 0
      vertex 0.281072 -1.47343 0
    endloop
  endfacet
  facet normal 0 0 -1
    outer loop
      vertex 0.0941849 -1.49704 0
      vertex 0.0941849 1.49704 0
      vertex 0.281072 1.47343 0
    endloop
  endfacet
  facet normal 0 0 -1
    outer loop
      vertex -0.0941849 -1.49704 0
      vertex 0.0941849 1.49704 0
      vertex 0.0941849 -1.49704 0
    endloop
  endfacet
  facet normal 0 0 -1
    outer loop
      vertex -0.0941849 -1.49704 0
      vertex -0.0941849 1.49704 0
      vertex 0.0941849 1.49704 0
    endloop
  endfacet
  facet normal 0 0 -1
    outer loop
      vertex -0.281072 -1.47343 0
      vertex -0.0941849 1.49704 0
      vertex -0.0941849 -1.49704 0
    endloop
  endfacet
  facet normal 0 0 -1
    outer loop
      vertex -0.281072 -1.47343 0
      vertex -0.281072 1.47343 0
      vertex -0.0941849 1.49704 0
    endloop
  endfacet
  facet normal 0 0 -1
    outer loop
      vertex -0.463525 -1.42658 0
      vertex -0.281072 1.47343 0
      vertex -0.281072 -1.47343 0
    endloop
  endfacet
  facet normal 0 0 -1
    outer loop
      vertex -0.463525 -1.42658 0
      vertex -0.463525 1.42658 0
      vertex -0.281072 1.47343 0
    endloop
  endfacet
  facet normal 0 0 -1
    outer loop
      vertex -0.638668 -1.35724 0
      vertex -0.463525 1.42658 0
      vertex -0.463525 -1.42658 0
    endloop
  endfacet
  facet normal 0 0 -1
    outer loop
      vertex -0.638668 -1.35724 0
      vertex -0.638668 1.35724 0
      vertex -0.463525 1.42658 0
    endloop
  endfacet
  facet normal 0 0 -1
    outer loop
      vertex -0.80374 -1.26649 0
      vertex -0.638668 1.35724 0
      vertex -0.638668 -1.35724 0
    endloop
  endfacet
  facet normal 0 0 -1
    outer loop
      vertex -0.80374 -1.26649 0
      vertex -0.80374 1.26649 0
      vertex -0.638668 1.35724 0
    endloop
  endfacet
  facet normal 0 0 -1
    outer loop
      vertex -0.956136 -1.15577 0
      vertex -0.80374 1.26649 0
      vertex -0.80374 -1.26649 0
    endloop
  endfacet
  facet normal 0 0 -1
    outer loop
      vertex -0.956136 -1.15577 0
      vertex -0.956136 1.15577 0
      vertex -0.80374 1.26649 0
    endloop
  endfacet
  facet normal 0 0 -1
    outer loop
      vertex -1.09345 -1.02682 0
      vertex -0.956136 1.15577 0
      vertex -0.956136 -1.15577 0
    endloop
  endfacet
  facet normal 0 0 -1
    outer loop
      vertex -1.09345 -1.02682 0
      vertex -1.09345 1.02682 0
      vertex -0.956136 1.15577 0
    endloop
  endfacet
  facet normal 0 0 -1
    outer loop
      vertex -1.21352 -0.881678 0
      vertex -1.09345 1.02682 0
      vertex -1.09345 -1.02682 0
    endloop
  endfacet
  facet normal 0 0 -1
    outer loop
      vertex -1.21352 -0.881678 0
      vertex -1.21352 0.881678 0
      vertex -1.09345 1.02682 0
    endloop
  endfacet
  facet normal 0 0 -1
    outer loop
      vertex -1.31446 -0.722631 0
      vertex -1.21352 0.881678 0
      vertex -1.21352 -0.881678 0
    endloop
  endfacet
  facet normal 0 0 -1
    outer loop
      vertex -1.31446 -0.722631 0
      vertex -1.31446 0.722631 0
      vertex -1.21352 0.881678 0
    endloop
  endfacet
  facet normal 0 0 -1
    outer loop
      vertex -1.39466 -0.552186 0
      vertex -1.31446 0.722631 0
      vertex -1.31446 -0.722631 0
    endloop
  endfacet
  facet normal 0 0 -1
    outer loop
      vertex -1.39466 -0.552186 0
      vertex -1.39466 0.552186 0
      vertex -1.31446 0.722631 0
    endloop
  endfacet
  facet normal 0 0 -1
    outer loop
      vertex -1.45287 -0.373034 0
      vertex -1.39466 0.552186 0
      vertex -1.39466 -0.552186 0
    endloop
  endfacet
  facet normal 0 0 -1
    outer loop
      vertex -1.45287 -0.373034 0
      vertex -1.45287 0.373034 0
      vertex -1.39466 0.552186 0
    endloop
  endfacet
  facet normal 0 0 -1
    outer loop
      vertex -1.48817 -0.188 0
      vertex -1.45287 0.373034 0
      vertex -1.45287 -0.373034 0
    endloop
  endfacet
  facet normal 0 0 -1
    outer loop
      vertex -1.48817 -0.188 0
      vertex -1.48817 0.188 0
      vertex -1.45287 0.373034 0
    endloop
  endfacet
  facet normal 0 -0 -1
    outer loop
      vertex -1.48817 0.188 0
      vertex -1.48817 -0.188 0
      vertex -1.5 0 0
    endloop
  endfacet
  facet normal -0.125337 -0.992114 0
    outer loop
      vertex -0.281072 -1.47343 0
      vertex -0.0941849 -1.49704 18
      vertex -0.281072 -1.47343 18
    endloop
  endfacet
  facet normal -0.125337 -0.992114 -0
    outer loop
      vertex -0.0941849 -1.49704 18
      vertex -0.281072 -1.47343 0
      vertex -0.0941849 -1.49704 0
    endloop
  endfacet
  facet normal -0.904838 0.425756 0
    outer loop
      vertex -1.39466 0.552186 0
      vertex -1.31446 0.722631 18
      vertex -1.31446 0.722631 0
    endloop
  endfacet
  facet normal -0.904838 0.425756 0
    outer loop
      vertex -1.31446 0.722631 18
      vertex -1.39466 0.552186 0
      vertex -1.39466 0.552186 18
    endloop
  endfacet
  facet normal -0.770518 -0.637418 0
    outer loop
      vertex -1.09345 -1.02682 0
      vertex -1.21352 -0.881678 18
      vertex -1.21352 -0.881678 0
    endloop
  endfacet
  facet normal -0.770518 -0.637418 0
    outer loop
      vertex -1.21352 -0.881678 18
      vertex -1.09345 -1.02682 0
      vertex -1.09345 -1.02682 18
    endloop
  endfacet
  facet normal -0.125337 0.992114 0
    outer loop
      vertex -0.0941849 1.49704 0
      vertex -0.281072 1.47343 18
      vertex -0.0941849 1.49704 18
    endloop
  endfacet
  facet normal -0.125337 0.992114 0
    outer loop
      vertex -0.281072 1.47343 18
      vertex -0.0941849 1.49704 0
      vertex -0.281072 1.47343 0
    endloop
  endfacet
  facet normal 0.684557 -0.728959 0
    outer loop
      vertex 0.956136 -1.15577 0
      vertex 1.09345 -1.02682 18
      vertex 0.956136 -1.15577 18
    endloop
  endfacet
  facet normal 0.684557 -0.728959 0
    outer loop
      vertex 1.09345 -1.02682 18
      vertex 0.956136 -1.15577 0
      vertex 1.09345 -1.02682 0
    endloop
  endfacet
  facet normal -0.904838 -0.425756 0
    outer loop
      vertex -1.31446 -0.722631 0
      vertex -1.39466 -0.552186 18
      vertex -1.39466 -0.552186 0
    endloop
  endfacet
  facet normal -0.904838 -0.425756 0
    outer loop
      vertex -1.39466 -0.552186 18
      vertex -1.31446 -0.722631 0
      vertex -1.31446 -0.722631 18
    endloop
  endfacet
  facet normal -0.368106 -0.929784 0
    outer loop
      vertex -0.638668 -1.35724 0
      vertex -0.463525 -1.42658 18
      vertex -0.638668 -1.35724 18
    endloop
  endfacet
  facet normal -0.368106 -0.929784 -0
    outer loop
      vertex -0.463525 -1.42658 18
      vertex -0.638668 -1.35724 0
      vertex -0.463525 -1.42658 0
    endloop
  endfacet
  facet normal -0.587778 0.809022 0
    outer loop
      vertex -0.80374 1.26649 0
      vertex -0.956136 1.15577 18
      vertex -0.80374 1.26649 18
    endloop
  endfacet
  facet normal -0.587778 0.809022 0
    outer loop
      vertex -0.956136 1.15577 18
      vertex -0.80374 1.26649 0
      vertex -0.956136 1.15577 0
    endloop
  endfacet
  facet normal -0.844314 0.535848 0
    outer loop
      vertex -1.31446 0.722631 0
      vertex -1.21352 0.881678 18
      vertex -1.21352 0.881678 0
    endloop
  endfacet
  facet normal -0.844314 0.535848 0
    outer loop
      vertex -1.21352 0.881678 18
      vertex -1.31446 0.722631 0
      vertex -1.31446 0.722631 18
    endloop
  endfacet
  facet normal 0.844314 -0.535848 0
    outer loop
      vertex 1.21352 -0.881678 18
      vertex 1.31446 -0.722631 0
      vertex 1.31446 -0.722631 18
    endloop
  endfacet
  facet normal 0.844314 -0.535848 0
    outer loop
      vertex 1.31446 -0.722631 0
      vertex 1.21352 -0.881678 18
      vertex 1.21352 -0.881678 0
    endloop
  endfacet
  facet normal 0 1 -0
    outer loop
      vertex 0.0941849 1.49704 0
      vertex -0.0941849 1.49704 18
      vertex 0.0941849 1.49704 18
    endloop
  endfacet
  facet normal 0 1 0
    outer loop
      vertex -0.0941849 1.49704 18
      vertex 0.0941849 1.49704 0
      vertex -0.0941849 1.49704 0
    endloop
  endfacet
  facet normal 0.770518 0.637418 0
    outer loop
      vertex 1.21352 0.881678 18
      vertex 1.09345 1.02682 0
      vertex 1.09345 1.02682 18
    endloop
  endfacet
  facet normal 0.770518 0.637418 0
    outer loop
      vertex 1.09345 1.02682 0
      vertex 1.21352 0.881678 18
      vertex 1.21352 0.881678 0
    endloop
  endfacet
  facet normal 0.587778 -0.809022 0
    outer loop
      vertex 0.80374 -1.26649 0
      vertex 0.956136 -1.15577 18
      vertex 0.80374 -1.26649 18
    endloop
  endfacet
  facet normal 0.587778 -0.809022 0
    outer loop
      vertex 0.956136 -1.15577 18
      vertex 0.80374 -1.26649 0
      vertex 0.956136 -1.15577 0
    endloop
  endfacet
  facet normal -0.24871 -0.968578 0
    outer loop
      vertex -0.463525 -1.42658 0
      vertex -0.281072 -1.47343 18
      vertex -0.463525 -1.42658 18
    endloop
  endfacet
  facet normal -0.24871 -0.968578 -0
    outer loop
      vertex -0.281072 -1.47343 18
      vertex -0.463525 -1.42658 0
      vertex -0.281072 -1.47343 0
    endloop
  endfacet
  facet normal 0 -1 0
    outer loop
      vertex -0.0941849 -1.49704 0
      vertex 0.0941849 -1.49704 18
      vertex -0.0941849 -1.49704 18
    endloop
  endfacet
  facet normal 0 -1 -0
    outer loop
      vertex 0.0941849 -1.49704 18
      vertex -0.0941849 -1.49704 0
      vertex 0.0941849 -1.49704 0
    endloop
  endfacet
  facet normal -0.770518 0.637418 0
    outer loop
      vertex -1.21352 0.881678 0
      vertex -1.09345 1.02682 18
      vertex -1.09345 1.02682 0
    endloop
  endfacet
  facet normal -0.770518 0.637418 0
    outer loop
      vertex -1.09345 1.02682 18
      vertex -1.21352 0.881678 0
      vertex -1.21352 0.881678 18
    endloop
  endfacet
  facet normal -0.481757 -0.876305 0
    outer loop
      vertex -0.80374 -1.26649 0
      vertex -0.638668 -1.35724 18
      vertex -0.80374 -1.26649 18
    endloop
  endfacet
  facet normal -0.481757 -0.876305 -0
    outer loop
      vertex -0.638668 -1.35724 18
      vertex -0.80374 -1.26649 0
      vertex -0.638668 -1.35724 0
    endloop
  endfacet
  facet normal -0.684557 -0.728959 0
    outer loop
      vertex -1.09345 -1.02682 0
      vertex -0.956136 -1.15577 18
      vertex -1.09345 -1.02682 18
    endloop
  endfacet
  facet normal -0.684557 -0.728959 -0
    outer loop
      vertex -0.956136 -1.15577 18
      vertex -1.09345 -1.02682 0
      vertex -0.956136 -1.15577 0
    endloop
  endfacet
  facet normal -0.951057 -0.309017 0
    outer loop
      vertex -1.39466 -0.552186 0
      vertex -1.45287 -0.373034 18
      vertex -1.45287 -0.373034 0
    endloop
  endfacet
  facet normal -0.951057 -0.309017 0
    outer loop
      vertex -1.45287 -0.373034 18
      vertex -1.39466 -0.552186 0
      vertex -1.39466 -0.552186 18
    endloop
  endfacet
  facet normal 0.770518 -0.637418 0
    outer loop
      vertex 1.09345 -1.02682 18
      vertex 1.21352 -0.881678 0
      vertex 1.21352 -0.881678 18
    endloop
  endfacet
  facet normal 0.770518 -0.637418 0
    outer loop
      vertex 1.21352 -0.881678 0
      vertex 1.09345 -1.02682 18
      vertex 1.09345 -1.02682 0
    endloop
  endfacet
  facet normal -0.998026 0.0628013 0
    outer loop
      vertex -1.5 0 0
      vertex -1.48817 0.188 18
      vertex -1.48817 0.188 0
    endloop
  endfacet
  facet normal -0.998026 0.0628013 0
    outer loop
      vertex -1.48817 0.188 18
      vertex -1.5 0 0
      vertex -1.5 0 18
    endloop
  endfacet
  facet normal -0.982284 0.187396 0
    outer loop
      vertex -1.48817 0.188 0
      vertex -1.45287 0.373034 18
      vertex -1.45287 0.373034 0
    endloop
  endfacet
  facet normal -0.982284 0.187396 0
    outer loop
      vertex -1.45287 0.373034 18
      vertex -1.48817 0.188 0
      vertex -1.48817 0.188 18
    endloop
  endfacet
  facet normal 0.982286 0.187387 0
    outer loop
      vertex -0.387433 -0.0994759 18
      vertex -0.396846 -0.0501328 10
      vertex -0.396846 -0.0501328 18
    endloop
  endfacet
  facet normal 0.982286 0.187387 0
    outer loop
      vertex -0.396846 -0.0501328 10
      vertex -0.387433 -0.0994759 18
      vertex -0.387433 -0.0994759 10
    endloop
  endfacet
  facet normal -0.982286 -0.187387 0
    outer loop
      vertex 0.396846 0.0501328 10
      vertex 0.387433 0.0994759 18
      vertex 0.387433 0.0994759 10
    endloop
  endfacet
  facet normal -0.982286 -0.187387 0
    outer loop
      vertex 0.387433 0.0994759 18
      vertex 0.396846 0.0501328 10
      vertex 0.396846 0.0501328 18
    endloop
  endfacet
  facet normal -0.998027 -0.0627888 0
    outer loop
      vertex 0.4 0 10
      vertex 0.396846 0.0501328 18
      vertex 0.396846 0.0501328 10
    endloop
  endfacet
  facet normal -0.998027 -0.0627888 0
    outer loop
      vertex 0.396846 0.0501328 18
      vertex 0.4 0 10
      vertex 0.4 0 18
    endloop
  endfacet
  facet normal -0.368152 -0.929766 0
    outer loop
      vertex 0.123607 0.380423 10
      vertex 0.170311 0.36193 18
      vertex 0.123607 0.380423 18
    endloop
  endfacet
  facet normal -0.368152 -0.929766 -0
    outer loop
      vertex 0.170311 0.36193 18
      vertex 0.123607 0.380423 10
      vertex 0.170311 0.36193 10
    endloop
  endfacet
  facet normal 0.125318 -0.992117 0
    outer loop
      vertex -0.0749521 0.392915 10
      vertex -0.025116 0.39921 18
      vertex -0.0749521 0.392915 18
    endloop
  endfacet
  facet normal 0.125318 -0.992117 0
    outer loop
      vertex -0.025116 0.39921 18
      vertex -0.0749521 0.392915 10
      vertex -0.025116 0.39921 10
    endloop
  endfacet
  facet normal 0.770511 0.637427 0
    outer loop
      vertex -0.291587 -0.273818 18
      vertex -0.323606 -0.235114 10
      vertex -0.323606 -0.235114 18
    endloop
  endfacet
  facet normal 0.770511 0.637427 0
    outer loop
      vertex -0.323606 -0.235114 10
      vertex -0.291587 -0.273818 18
      vertex -0.291587 -0.273818 10
    endloop
  endfacet
  facet normal 0.951053 0.309027 0
    outer loop
      vertex -0.37191 -0.147249 18
      vertex -0.387433 -0.0994759 10
      vertex -0.387433 -0.0994759 18
    endloop
  endfacet
  facet normal 0.951053 0.309027 0
    outer loop
      vertex -0.387433 -0.0994759 10
      vertex -0.37191 -0.147249 18
      vertex -0.37191 -0.147249 10
    endloop
  endfacet
  facet normal 0.481751 0.876308 -0
    outer loop
      vertex -0.170311 -0.36193 10
      vertex -0.214331 -0.33773 18
      vertex -0.170311 -0.36193 18
    endloop
  endfacet
  facet normal 0.481751 0.876308 0
    outer loop
      vertex -0.214331 -0.33773 18
      vertex -0.170311 -0.36193 10
      vertex -0.214331 -0.33773 10
    endloop
  endfacet
  facet normal 0.125318 0.992117 -0
    outer loop
      vertex -0.025116 -0.39921 10
      vertex -0.0749521 -0.392915 18
      vertex -0.025116 -0.39921 18
    endloop
  endfacet
  facet normal 0.125318 0.992117 0
    outer loop
      vertex -0.0749521 -0.392915 18
      vertex -0.025116 -0.39921 10
      vertex -0.0749521 -0.392915 10
    endloop
  endfacet
  facet normal -0.998027 0.0627888 0
    outer loop
      vertex 0.396846 -0.0501328 10
      vertex 0.4 0 18
      vertex 0.4 0 10
    endloop
  endfacet
  facet normal -0.998027 0.0627888 0
    outer loop
      vertex 0.4 0 18
      vertex 0.396846 -0.0501328 10
      vertex 0.396846 -0.0501328 18
    endloop
  endfacet
  facet normal -0.125318 0.992117 0
    outer loop
      vertex 0.0749521 -0.392915 10
      vertex 0.025116 -0.39921 18
      vertex 0.0749521 -0.392915 18
    endloop
  endfacet
  facet normal -0.125318 0.992117 0
    outer loop
      vertex 0.025116 -0.39921 18
      vertex 0.0749521 -0.392915 10
      vertex 0.025116 -0.39921 10
    endloop
  endfacet
  facet normal 0.951053 -0.309027 0
    outer loop
      vertex -0.387433 0.0994759 18
      vertex -0.37191 0.147249 10
      vertex -0.37191 0.147249 18
    endloop
  endfacet
  facet normal 0.951053 -0.309027 0
    outer loop
      vertex -0.37191 0.147249 10
      vertex -0.387433 0.0994759 18
      vertex -0.387433 0.0994759 10
    endloop
  endfacet
  facet normal 0.998027 0.0627888 0
    outer loop
      vertex -0.396846 -0.0501328 18
      vertex -0.4 0 10
      vertex -0.4 0 18
    endloop
  endfacet
  facet normal 0.998027 0.0627888 0
    outer loop
      vertex -0.4 0 10
      vertex -0.396846 -0.0501328 18
      vertex -0.396846 -0.0501328 10
    endloop
  endfacet
  facet normal -0.481751 -0.876308 0
    outer loop
      vertex 0.170311 0.36193 10
      vertex 0.214331 0.33773 18
      vertex 0.170311 0.36193 18
    endloop
  endfacet
  facet normal -0.481751 -0.876308 -0
    outer loop
      vertex 0.214331 0.33773 18
      vertex 0.170311 0.36193 10
      vertex 0.214331 0.33773 10
    endloop
  endfacet
  facet normal -0.951053 0.309027 0
    outer loop
      vertex 0.37191 -0.147249 10
      vertex 0.387433 -0.0994759 18
      vertex 0.387433 -0.0994759 10
    endloop
  endfacet
  facet normal -0.951053 0.309027 0
    outer loop
      vertex 0.387433 -0.0994759 18
      vertex 0.37191 -0.147249 10
      vertex 0.37191 -0.147249 18
    endloop
  endfacet
  facet normal -0.844329 0.535825 0
    outer loop
      vertex 0.323606 -0.235114 10
      vertex 0.350522 -0.192701 18
      vertex 0.350522 -0.192701 10
    endloop
  endfacet
  facet normal -0.844329 0.535825 0
    outer loop
      vertex 0.350522 -0.192701 18
      vertex 0.323606 -0.235114 10
      vertex 0.323606 -0.235114 18
    endloop
  endfacet
  facet normal 0.684551 0.728965 -0
    outer loop
      vertex -0.254969 -0.308205 10
      vertex -0.291587 -0.273818 18
      vertex -0.254969 -0.308205 18
    endloop
  endfacet
  facet normal 0.684551 0.728965 0
    outer loop
      vertex -0.291587 -0.273818 18
      vertex -0.254969 -0.308205 10
      vertex -0.291587 -0.273818 10
    endloop
  endfacet
  facet normal -0.248681 -0.968585 0
    outer loop
      vertex 0.0749521 0.392915 10
      vertex 0.123607 0.380423 18
      vertex 0.0749521 0.392915 18
    endloop
  endfacet
  facet normal -0.248681 -0.968585 -0
    outer loop
      vertex 0.123607 0.380423 18
      vertex 0.0749521 0.392915 10
      vertex 0.123607 0.380423 10
    endloop
  endfacet
  facet normal 0.481751 -0.876308 0
    outer loop
      vertex -0.214331 0.33773 10
      vertex -0.170311 0.36193 18
      vertex -0.214331 0.33773 18
    endloop
  endfacet
  facet normal 0.481751 -0.876308 0
    outer loop
      vertex -0.170311 0.36193 18
      vertex -0.214331 0.33773 10
      vertex -0.170311 0.36193 10
    endloop
  endfacet
  facet normal -0.904828 0.425778 0
    outer loop
      vertex 0.350522 -0.192701 10
      vertex 0.37191 -0.147249 18
      vertex 0.37191 -0.147249 10
    endloop
  endfacet
  facet normal -0.904828 0.425778 0
    outer loop
      vertex 0.37191 -0.147249 18
      vertex 0.350522 -0.192701 10
      vertex 0.350522 -0.192701 18
    endloop
  endfacet
  facet normal -0.844329 -0.535825 0
    outer loop
      vertex 0.350522 0.192701 10
      vertex 0.323606 0.235114 18
      vertex 0.323606 0.235114 10
    endloop
  endfacet
  facet normal -0.844329 -0.535825 0
    outer loop
      vertex 0.323606 0.235114 18
      vertex 0.350522 0.192701 10
      vertex 0.350522 0.192701 18
    endloop
  endfacet
  facet normal -0.684551 -0.728965 0
    outer loop
      vertex 0.254969 0.308205 10
      vertex 0.291587 0.273818 18
      vertex 0.254969 0.308205 18
    endloop
  endfacet
  facet normal -0.684551 -0.728965 -0
    outer loop
      vertex 0.291587 0.273818 18
      vertex 0.254969 0.308205 10
      vertex 0.291587 0.273818 10
    endloop
  endfacet
  facet normal -0.248681 0.968585 0
    outer loop
      vertex 0.123607 -0.380423 10
      vertex 0.0749521 -0.392915 18
      vertex 0.123607 -0.380423 18
    endloop
  endfacet
  facet normal -0.248681 0.968585 0
    outer loop
      vertex 0.0749521 -0.392915 18
      vertex 0.123607 -0.380423 10
      vertex 0.0749521 -0.392915 10
    endloop
  endfacet
  facet normal -0.982286 0.187387 0
    outer loop
      vertex 0.387433 -0.0994759 10
      vertex 0.396846 -0.0501328 18
      vertex 0.396846 -0.0501328 10
    endloop
  endfacet
  facet normal -0.982286 0.187387 0
    outer loop
      vertex 0.396846 -0.0501328 18
      vertex 0.387433 -0.0994759 10
      vertex 0.387433 -0.0994759 18
    endloop
  endfacet
  facet normal -0.770511 0.637427 0
    outer loop
      vertex 0.291587 -0.273818 10
      vertex 0.323606 -0.235114 18
      vertex 0.323606 -0.235114 10
    endloop
  endfacet
  facet normal -0.770511 0.637427 0
    outer loop
      vertex 0.323606 -0.235114 18
      vertex 0.291587 -0.273818 10
      vertex 0.291587 -0.273818 18
    endloop
  endfacet
  facet normal -0.904828 -0.425778 0
    outer loop
      vertex 0.37191 0.147249 10
      vertex 0.350522 0.192701 18
      vertex 0.350522 0.192701 10
    endloop
  endfacet
  facet normal -0.904828 -0.425778 0
    outer loop
      vertex 0.350522 0.192701 18
      vertex 0.37191 0.147249 10
      vertex 0.37191 0.147249 18
    endloop
  endfacet
  facet normal 0.368152 0.929766 -0
    outer loop
      vertex -0.123607 -0.380423 10
      vertex -0.170311 -0.36193 18
      vertex -0.123607 -0.380423 18
    endloop
  endfacet
  facet normal 0.368152 0.929766 0
    outer loop
      vertex -0.170311 -0.36193 18
      vertex -0.123607 -0.380423 10
      vertex -0.170311 -0.36193 10
    endloop
  endfacet
  facet normal -0.587782 -0.809019 0
    outer loop
      vertex 0.214331 0.33773 10
      vertex 0.254969 0.308205 18
      vertex 0.214331 0.33773 18
    endloop
  endfacet
  facet normal -0.587782 -0.809019 -0
    outer loop
      vertex 0.254969 0.308205 18
      vertex 0.214331 0.33773 10
      vertex 0.254969 0.308205 10
    endloop
  endfacet
  facet normal 0.368152 -0.929766 0
    outer loop
      vertex -0.170311 0.36193 10
      vertex -0.123607 0.380423 18
      vertex -0.170311 0.36193 18
    endloop
  endfacet
  facet normal 0.368152 -0.929766 0
    outer loop
      vertex -0.123607 0.380423 18
      vertex -0.170311 0.36193 10
      vertex -0.123607 0.380423 10
    endloop
  endfacet
  facet normal 0.684551 -0.728965 0
    outer loop
      vertex -0.291587 0.273818 10
      vertex -0.254969 0.308205 18
      vertex -0.291587 0.273818 18
    endloop
  endfacet
  facet normal 0.684551 -0.728965 0
    outer loop
      vertex -0.254969 0.308205 18
      vertex -0.291587 0.273818 10
      vertex -0.254969 0.308205 10
    endloop
  endfacet
  facet normal -0.481751 0.876308 0
    outer loop
      vertex 0.214331 -0.33773 10
      vertex 0.170311 -0.36193 18
      vertex 0.214331 -0.33773 18
    endloop
  endfacet
  facet normal -0.481751 0.876308 0
    outer loop
      vertex 0.170311 -0.36193 18
      vertex 0.214331 -0.33773 10
      vertex 0.170311 -0.36193 10
    endloop
  endfacet
  facet normal -0.770511 -0.637427 0
    outer loop
      vertex 0.323606 0.235114 10
      vertex 0.291587 0.273818 18
      vertex 0.291587 0.273818 10
    endloop
  endfacet
  facet normal -0.770511 -0.637427 0
    outer loop
      vertex 0.291587 0.273818 18
      vertex 0.323606 0.235114 10
      vertex 0.323606 0.235114 18
    endloop
  endfacet
  facet normal 0 -1 0
    outer loop
      vertex -0.025116 0.39921 10
      vertex 0.025116 0.39921 18
      vertex -0.025116 0.39921 18
    endloop
  endfacet
  facet normal 0 -1 -0
    outer loop
      vertex 0.025116 0.39921 18
      vertex -0.025116 0.39921 10
      vertex 0.025116 0.39921 10
    endloop
  endfacet
  facet normal 0 1 -0
    outer loop
      vertex 0.025116 -0.39921 10
      vertex -0.025116 -0.39921 18
      vertex 0.025116 -0.39921 18
    endloop
  endfacet
  facet normal 0 1 0
    outer loop
      vertex -0.025116 -0.39921 18
      vertex 0.025116 -0.39921 10
      vertex -0.025116 -0.39921 10
    endloop
  endfacet
  facet normal 0.587782 -0.809019 0
    outer loop
      vertex -0.254969 0.308205 10
      vertex -0.214331 0.33773 18
      vertex -0.254969 0.308205 18
    endloop
  endfacet
  facet normal 0.587782 -0.809019 0
    outer loop
      vertex -0.214331 0.33773 18
      vertex -0.254969 0.308205 10
      vertex -0.214331 0.33773 10
    endloop
  endfacet
  facet normal -0.684551 0.728965 0
    outer loop
      vertex 0.291587 -0.273818 10
      vertex 0.254969 -0.308205 18
      vertex 0.291587 -0.273818 18
    endloop
  endfacet
  facet normal -0.684551 0.728965 0
    outer loop
      vertex 0.254969 -0.308205 18
      vertex 0.291587 -0.273818 10
      vertex 0.254969 -0.308205 10
    endloop
  endfacet
  facet normal 0.904828 0.425778 0
    outer loop
      vertex -0.350522 -0.192701 18
      vertex -0.37191 -0.147249 10
      vertex -0.37191 -0.147249 18
    endloop
  endfacet
  facet normal 0.904828 0.425778 0
    outer loop
      vertex -0.37191 -0.147249 10
      vertex -0.350522 -0.192701 18
      vertex -0.350522 -0.192701 10
    endloop
  endfacet
  facet normal -0.951053 -0.309027 0
    outer loop
      vertex 0.387433 0.0994759 10
      vertex 0.37191 0.147249 18
      vertex 0.37191 0.147249 10
    endloop
  endfacet
  facet normal -0.951053 -0.309027 0
    outer loop
      vertex 0.37191 0.147249 18
      vertex 0.387433 0.0994759 10
      vertex 0.387433 0.0994759 18
    endloop
  endfacet
  facet normal 0.248681 -0.968585 0
    outer loop
      vertex -0.123607 0.380423 10
      vertex -0.0749521 0.392915 18
      vertex -0.123607 0.380423 18
    endloop
  endfacet
  facet normal 0.248681 -0.968585 0
    outer loop
      vertex -0.0749521 0.392915 18
      vertex -0.123607 0.380423 10
      vertex -0.0749521 0.392915 10
    endloop
  endfacet
  facet normal 0.998027 -0.0627888 0
    outer loop
      vertex -0.4 0 18
      vertex -0.396846 0.0501328 10
      vertex -0.396846 0.0501328 18
    endloop
  endfacet
  facet normal 0.998027 -0.0627888 0
    outer loop
      vertex -0.396846 0.0501328 10
      vertex -0.4 0 18
      vertex -0.4 0 10
    endloop
  endfacet
  facet normal 0.982286 -0.187387 0
    outer loop
      vertex -0.396846 0.0501328 18
      vertex -0.387433 0.0994759 10
      vertex -0.387433 0.0994759 18
    endloop
  endfacet
  facet normal 0.982286 -0.187387 0
    outer loop
      vertex -0.387433 0.0994759 10
      vertex -0.396846 0.0501328 18
      vertex -0.396846 0.0501328 10
    endloop
  endfacet
  facet normal 0.248681 0.968585 -0
    outer loop
      vertex -0.0749521 -0.392915 10
      vertex -0.123607 -0.380423 18
      vertex -0.0749521 -0.392915 18
    endloop
  endfacet
  facet normal 0.248681 0.968585 0
    outer loop
      vertex -0.123607 -0.380423 18
      vertex -0.0749521 -0.392915 10
      vertex -0.123607 -0.380423 10
    endloop
  endfacet
  facet normal -0.125318 -0.992117 0
    outer loop
      vertex 0.025116 0.39921 10
      vertex 0.0749521 0.392915 18
      vertex 0.025116 0.39921 18
    endloop
  endfacet
  facet normal -0.125318 -0.992117 -0
    outer loop
      vertex 0.0749521 0.392915 18
      vertex 0.025116 0.39921 10
      vertex 0.0749521 0.392915 10
    endloop
  endfacet
  facet normal 0.844329 0.535825 0
    outer loop
      vertex -0.323606 -0.235114 18
      vertex -0.350522 -0.192701 10
      vertex -0.350522 -0.192701 18
    endloop
  endfacet
  facet normal 0.844329 0.535825 0
    outer loop
      vertex -0.350522 -0.192701 10
      vertex -0.323606 -0.235114 18
      vertex -0.323606 -0.235114 10
    endloop
  endfacet
  facet normal -0.368152 0.929766 0
    outer loop
      vertex 0.170311 -0.36193 10
      vertex 0.123607 -0.380423 18
      vertex 0.170311 -0.36193 18
    endloop
  endfacet
  facet normal -0.368152 0.929766 0
    outer loop
      vertex 0.123607 -0.380423 18
      vertex 0.170311 -0.36193 10
      vertex 0.123607 -0.380423 10
    endloop
  endfacet
  facet normal 0.770511 -0.637427 0
    outer loop
      vertex -0.323606 0.235114 18
      vertex -0.291587 0.273818 10
      vertex -0.291587 0.273818 18
    endloop
  endfacet
  facet normal 0.770511 -0.637427 0
    outer loop
      vertex -0.291587 0.273818 10
      vertex -0.323606 0.235114 18
      vertex -0.323606 0.235114 10
    endloop
  endfacet
  facet normal -0.587782 0.809019 0
    outer loop
      vertex 0.254969 -0.308205 10
      vertex 0.214331 -0.33773 18
      vertex 0.254969 -0.308205 18
    endloop
  endfacet
  facet normal -0.587782 0.809019 0
    outer loop
      vertex 0.214331 -0.33773 18
      vertex 0.254969 -0.308205 10
      vertex 0.214331 -0.33773 10
    endloop
  endfacet
  facet normal 0.587782 0.809019 -0
    outer loop
      vertex -0.214331 -0.33773 10
      vertex -0.254969 -0.308205 18
      vertex -0.214331 -0.33773 18
    endloop
  endfacet
  facet normal 0.587782 0.809019 0
    outer loop
      vertex -0.254969 -0.308205 18
      vertex -0.214331 -0.33773 10
      vertex -0.254969 -0.308205 10
    endloop
  endfacet
  facet normal 0.844329 -0.535825 0
    outer loop
      vertex -0.350522 0.192701 18
      vertex -0.323606 0.235114 10
      vertex -0.323606 0.235114 18
    endloop
  endfacet
  facet normal 0.844329 -0.535825 0
    outer loop
      vertex -0.323606 0.235114 10
      vertex -0.350522 0.192701 18
      vertex -0.350522 0.192701 10
    endloop
  endfacet
  facet normal 0.904828 -0.425778 0
    outer loop
      vertex -0.37191 0.147249 18
      vertex -0.350522 0.192701 10
      vertex -0.350522 0.192701 18
    endloop
  endfacet
  facet normal 0.904828 -0.425778 0
    outer loop
      vertex -0.350522 0.192701 10
      vertex -0.37191 0.147249 18
      vertex -0.37191 0.147249 10
    endloop
  endfacet
  facet normal 0.98229 0.187369 0
    outer loop
      vertex 2.97634 0.375999 20
      vertex 2.90575 0.746069 18
      vertex 2.90575 0.746069 20
    endloop
  endfacet
  facet normal 0.98229 0.187369 0
    outer loop
      vertex 2.90575 0.746069 18
      vertex 2.97634 0.375999 20
      vertex 2.97634 0.375999 18
    endloop
  endfacet
  facet normal 0.998026 0.0628015 0
    outer loop
      vertex 3 0 20
      vertex 2.97634 0.375999 18
      vertex 2.97634 0.375999 20
    endloop
  endfacet
  facet normal 0.998026 0.0628015 0
    outer loop
      vertex 2.97634 0.375999 18
      vertex 3 0 20
      vertex 3 0 18
    endloop
  endfacet
  facet normal -0.770514 0.637423 0
    outer loop
      vertex -2.42705 1.76336 18
      vertex -2.18691 2.05364 20
      vertex -2.18691 2.05364 18
    endloop
  endfacet
  facet normal -0.770514 0.637423 0
    outer loop
      vertex -2.18691 2.05364 20
      vertex -2.42705 1.76336 18
      vertex -2.42705 1.76336 20
    endloop
  endfacet
  facet normal 0.684541 0.728974 -0
    outer loop
      vertex 2.18691 2.05364 18
      vertex 1.91227 2.31154 20
      vertex 2.18691 2.05364 20
    endloop
  endfacet
  facet normal 0.684541 0.728974 0
    outer loop
      vertex 1.91227 2.31154 20
      vertex 2.18691 2.05364 18
      vertex 1.91227 2.31154 18
    endloop
  endfacet
  facet normal -0.125337 -0.992114 0
    outer loop
      vertex -0.562143 -2.94686 18
      vertex -0.188371 -2.99408 20
      vertex -0.562143 -2.94686 20
    endloop
  endfacet
  facet normal -0.125337 -0.992114 -0
    outer loop
      vertex -0.188371 -2.99408 20
      vertex -0.562143 -2.94686 18
      vertex -0.188371 -2.99408 18
    endloop
  endfacet
  facet normal -0.58778 -0.809021 0
    outer loop
      vertex -1.91227 -2.31154 18
      vertex -1.60748 -2.53298 20
      vertex -1.91227 -2.31154 20
    endloop
  endfacet
  facet normal -0.58778 -0.809021 -0
    outer loop
      vertex -1.60748 -2.53298 20
      vertex -1.91227 -2.31154 18
      vertex -1.60748 -2.53298 18
    endloop
  endfacet
  facet normal 0.368126 -0.929776 0
    outer loop
      vertex 0.927051 -2.85317 18
      vertex 1.27734 -2.71448 20
      vertex 0.927051 -2.85317 20
    endloop
  endfacet
  facet normal 0.368126 -0.929776 0
    outer loop
      vertex 1.27734 -2.71448 20
      vertex 0.927051 -2.85317 18
      vertex 1.27734 -2.71448 18
    endloop
  endfacet
  facet normal 0.904828 -0.425778 0
    outer loop
      vertex 2.62892 -1.44526 20
      vertex 2.78933 -1.10437 18
      vertex 2.78933 -1.10437 20
    endloop
  endfacet
  facet normal 0.904828 -0.425778 0
    outer loop
      vertex 2.78933 -1.10437 18
      vertex 2.62892 -1.44526 20
      vertex 2.62892 -1.44526 18
    endloop
  endfacet
  facet normal 0.248684 0.968585 -0
    outer loop
      vertex 0.927051 2.85317 18
      vertex 0.562143 2.94686 20
      vertex 0.927051 2.85317 20
    endloop
  endfacet
  facet normal 0.248684 0.968585 0
    outer loop
      vertex 0.562143 2.94686 20
      vertex 0.927051 2.85317 18
      vertex 0.562143 2.94686 18
    endloop
  endfacet
  facet normal 0.58778 -0.809021 0
    outer loop
      vertex 1.60748 -2.53298 18
      vertex 1.91227 -2.31154 20
      vertex 1.60748 -2.53298 20
    endloop
  endfacet
  facet normal 0.58778 -0.809021 0
    outer loop
      vertex 1.91227 -2.31154 20
      vertex 1.60748 -2.53298 18
      vertex 1.91227 -2.31154 18
    endloop
  endfacet
  facet normal -0.98229 0.187369 0
    outer loop
      vertex -2.97634 0.375999 18
      vertex -2.90575 0.746069 20
      vertex -2.90575 0.746069 18
    endloop
  endfacet
  facet normal -0.98229 0.187369 0
    outer loop
      vertex -2.90575 0.746069 20
      vertex -2.97634 0.375999 18
      vertex -2.97634 0.375999 20
    endloop
  endfacet
  facet normal -0.684541 -0.728974 0
    outer loop
      vertex -2.18691 -2.05364 18
      vertex -1.91227 -2.31154 20
      vertex -2.18691 -2.05364 20
    endloop
  endfacet
  facet normal -0.684541 -0.728974 -0
    outer loop
      vertex -1.91227 -2.31154 20
      vertex -2.18691 -2.05364 18
      vertex -1.91227 -2.31154 18
    endloop
  endfacet
  facet normal 0.481762 0.876302 -0
    outer loop
      vertex 1.60748 2.53298 18
      vertex 1.27734 2.71448 20
      vertex 1.60748 2.53298 20
    endloop
  endfacet
  facet normal 0.481762 0.876302 0
    outer loop
      vertex 1.27734 2.71448 20
      vertex 1.60748 2.53298 18
      vertex 1.27734 2.71448 18
    endloop
  endfacet
  facet normal -0.481762 0.876302 0
    outer loop
      vertex -1.27734 2.71448 18
      vertex -1.60748 2.53298 20
      vertex -1.27734 2.71448 20
    endloop
  endfacet
  facet normal -0.481762 0.876302 0
    outer loop
      vertex -1.60748 2.53298 20
      vertex -1.27734 2.71448 18
      vertex -1.60748 2.53298 18
    endloop
  endfacet
  facet normal 0.904828 0.425778 0
    outer loop
      vertex 2.78933 1.10437 20
      vertex 2.62892 1.44526 18
      vertex 2.62892 1.44526 20
    endloop
  endfacet
  facet normal 0.904828 0.425778 0
    outer loop
      vertex 2.62892 1.44526 18
      vertex 2.78933 1.10437 20
      vertex 2.78933 1.10437 18
    endloop
  endfacet
  facet normal 0.998026 -0.0628015 0
    outer loop
      vertex 2.97634 -0.375999 20
      vertex 3 0 18
      vertex 3 0 20
    endloop
  endfacet
  facet normal 0.998026 -0.0628015 0
    outer loop
      vertex 3 0 18
      vertex 2.97634 -0.375999 20
      vertex 2.97634 -0.375999 18
    endloop
  endfacet
  facet normal -0.998026 0.0628015 0
    outer loop
      vertex -3 0 18
      vertex -2.97634 0.375999 20
      vertex -2.97634 0.375999 18
    endloop
  endfacet
  facet normal -0.998026 0.0628015 0
    outer loop
      vertex -2.97634 0.375999 20
      vertex -3 0 18
      vertex -3 0 20
    endloop
  endfacet
  facet normal 0.125337 -0.992114 0
    outer loop
      vertex 0.188371 -2.99408 18
      vertex 0.562143 -2.94686 20
      vertex 0.188371 -2.99408 20
    endloop
  endfacet
  facet normal 0.125337 -0.992114 0
    outer loop
      vertex 0.562143 -2.94686 20
      vertex 0.188371 -2.99408 18
      vertex 0.562143 -2.94686 18
    endloop
  endfacet
  facet normal -0.951056 0.309019 0
    outer loop
      vertex -2.90575 0.746069 18
      vertex -2.78933 1.10437 20
      vertex -2.78933 1.10437 18
    endloop
  endfacet
  facet normal -0.951056 0.309019 0
    outer loop
      vertex -2.78933 1.10437 20
      vertex -2.90575 0.746069 18
      vertex -2.90575 0.746069 20
    endloop
  endfacet
  facet normal 0.844331 0.535822 0
    outer loop
      vertex 2.62892 1.44526 20
      vertex 2.42705 1.76336 18
      vertex 2.42705 1.76336 20
    endloop
  endfacet
  facet normal 0.844331 0.535822 0
    outer loop
      vertex 2.42705 1.76336 18
      vertex 2.62892 1.44526 20
      vertex 2.62892 1.44526 18
    endloop
  endfacet
  facet normal 0.951056 -0.309019 0
    outer loop
      vertex 2.78933 -1.10437 20
      vertex 2.90575 -0.746069 18
      vertex 2.90575 -0.746069 20
    endloop
  endfacet
  facet normal 0.951056 -0.309019 0
    outer loop
      vertex 2.90575 -0.746069 18
      vertex 2.78933 -1.10437 20
      vertex 2.78933 -1.10437 18
    endloop
  endfacet
  facet normal -0.684541 0.728974 0
    outer loop
      vertex -1.91227 2.31154 18
      vertex -2.18691 2.05364 20
      vertex -1.91227 2.31154 20
    endloop
  endfacet
  facet normal -0.684541 0.728974 0
    outer loop
      vertex -2.18691 2.05364 20
      vertex -1.91227 2.31154 18
      vertex -2.18691 2.05364 18
    endloop
  endfacet
  facet normal -0.248684 -0.968585 0
    outer loop
      vertex -0.927051 -2.85317 18
      vertex -0.562143 -2.94686 20
      vertex -0.927051 -2.85317 20
    endloop
  endfacet
  facet normal -0.248684 -0.968585 -0
    outer loop
      vertex -0.562143 -2.94686 20
      vertex -0.927051 -2.85317 18
      vertex -0.562143 -2.94686 18
    endloop
  endfacet
  facet normal 0.248684 -0.968585 0
    outer loop
      vertex 0.562143 -2.94686 18
      vertex 0.927051 -2.85317 20
      vertex 0.562143 -2.94686 20
    endloop
  endfacet
  facet normal 0.248684 -0.968585 0
    outer loop
      vertex 0.927051 -2.85317 20
      vertex 0.562143 -2.94686 18
      vertex 0.927051 -2.85317 18
    endloop
  endfacet
  facet normal 0.125337 0.992114 -0
    outer loop
      vertex 0.562143 2.94686 18
      vertex 0.188371 2.99408 20
      vertex 0.562143 2.94686 20
    endloop
  endfacet
  facet normal 0.125337 0.992114 0
    outer loop
      vertex 0.188371 2.99408 20
      vertex 0.562143 2.94686 18
      vertex 0.188371 2.99408 18
    endloop
  endfacet
  facet normal 0.98229 -0.187369 0
    outer loop
      vertex 2.90575 -0.746069 20
      vertex 2.97634 -0.375999 18
      vertex 2.97634 -0.375999 20
    endloop
  endfacet
  facet normal 0.98229 -0.187369 0
    outer loop
      vertex 2.97634 -0.375999 18
      vertex 2.90575 -0.746069 20
      vertex 2.90575 -0.746069 18
    endloop
  endfacet
  facet normal -0.98229 -0.187369 0
    outer loop
      vertex -2.90575 -0.746069 18
      vertex -2.97634 -0.375999 20
      vertex -2.97634 -0.375999 18
    endloop
  endfacet
  facet normal -0.98229 -0.187369 0
    outer loop
      vertex -2.97634 -0.375999 20
      vertex -2.90575 -0.746069 18
      vertex -2.90575 -0.746069 20
    endloop
  endfacet
  facet normal 0 -1 0
    outer loop
      vertex -0.188371 -2.99408 18
      vertex 0.188371 -2.99408 20
      vertex -0.188371 -2.99408 20
    endloop
  endfacet
  facet normal 0 -1 -0
    outer loop
      vertex 0.188371 -2.99408 20
      vertex -0.188371 -2.99408 18
      vertex 0.188371 -2.99408 18
    endloop
  endfacet
  facet normal 0.58778 0.809021 -0
    outer loop
      vertex 1.91227 2.31154 18
      vertex 1.60748 2.53298 20
      vertex 1.91227 2.31154 20
    endloop
  endfacet
  facet normal 0.58778 0.809021 0
    outer loop
      vertex 1.60748 2.53298 20
      vertex 1.91227 2.31154 18
      vertex 1.60748 2.53298 18
    endloop
  endfacet
  facet normal 0.481762 -0.876302 0
    outer loop
      vertex 1.27734 -2.71448 18
      vertex 1.60748 -2.53298 20
      vertex 1.27734 -2.71448 20
    endloop
  endfacet
  facet normal 0.481762 -0.876302 0
    outer loop
      vertex 1.60748 -2.53298 20
      vertex 1.27734 -2.71448 18
      vertex 1.60748 -2.53298 18
    endloop
  endfacet
  facet normal -0.368126 0.929776 0
    outer loop
      vertex -0.927051 2.85317 18
      vertex -1.27734 2.71448 20
      vertex -0.927051 2.85317 20
    endloop
  endfacet
  facet normal -0.368126 0.929776 0
    outer loop
      vertex -1.27734 2.71448 20
      vertex -0.927051 2.85317 18
      vertex -1.27734 2.71448 18
    endloop
  endfacet
  facet normal -0.904828 0.425778 0
    outer loop
      vertex -2.78933 1.10437 18
      vertex -2.62892 1.44526 20
      vertex -2.62892 1.44526 18
    endloop
  endfacet
  facet normal -0.904828 0.425778 0
    outer loop
      vertex -2.62892 1.44526 20
      vertex -2.78933 1.10437 18
      vertex -2.78933 1.10437 20
    endloop
  endfacet
  facet normal 0.684541 -0.728974 0
    outer loop
      vertex 1.91227 -2.31154 18
      vertex 2.18691 -2.05364 20
      vertex 1.91227 -2.31154 20
    endloop
  endfacet
  facet normal 0.684541 -0.728974 0
    outer loop
      vertex 2.18691 -2.05364 20
      vertex 1.91227 -2.31154 18
      vertex 2.18691 -2.05364 18
    endloop
  endfacet
  facet normal -0.58778 0.809021 0
    outer loop
      vertex -1.60748 2.53298 18
      vertex -1.91227 2.31154 20
      vertex -1.60748 2.53298 20
    endloop
  endfacet
  facet normal -0.58778 0.809021 0
    outer loop
      vertex -1.91227 2.31154 20
      vertex -1.60748 2.53298 18
      vertex -1.91227 2.31154 18
    endloop
  endfacet
  facet normal 0.368126 0.929776 -0
    outer loop
      vertex 1.27734 2.71448 18
      vertex 0.927051 2.85317 20
      vertex 1.27734 2.71448 20
    endloop
  endfacet
  facet normal 0.368126 0.929776 0
    outer loop
      vertex 0.927051 2.85317 20
      vertex 1.27734 2.71448 18
      vertex 0.927051 2.85317 18
    endloop
  endfacet
  facet normal -0.904828 -0.425778 0
    outer loop
      vertex -2.62892 -1.44526 18
      vertex -2.78933 -1.10437 20
      vertex -2.78933 -1.10437 18
    endloop
  endfacet
  facet normal -0.904828 -0.425778 0
    outer loop
      vertex -2.78933 -1.10437 20
      vertex -2.62892 -1.44526 18
      vertex -2.62892 -1.44526 20
    endloop
  endfacet
  facet normal -0.770514 -0.637423 0
    outer loop
      vertex -2.18691 -2.05364 18
      vertex -2.42705 -1.76336 20
      vertex -2.42705 -1.76336 18
    endloop
  endfacet
  facet normal -0.770514 -0.637423 0
    outer loop
      vertex -2.42705 -1.76336 20
      vertex -2.18691 -2.05364 18
      vertex -2.18691 -2.05364 20
    endloop
  endfacet
  facet normal 0.844331 -0.535822 0
    outer loop
      vertex 2.42705 -1.76336 20
      vertex 2.62892 -1.44526 18
      vertex 2.62892 -1.44526 20
    endloop
  endfacet
  facet normal 0.844331 -0.535822 0
    outer loop
      vertex 2.62892 -1.44526 18
      vertex 2.42705 -1.76336 20
      vertex 2.42705 -1.76336 18
    endloop
  endfacet
  facet normal 0.770514 0.637423 0
    outer loop
      vertex 2.42705 1.76336 20
      vertex 2.18691 2.05364 18
      vertex 2.18691 2.05364 20
    endloop
  endfacet
  facet normal 0.770514 0.637423 0
    outer loop
      vertex 2.18691 2.05364 18
      vertex 2.42705 1.76336 20
      vertex 2.42705 1.76336 18
    endloop
  endfacet
  facet normal 0.951056 0.309019 0
    outer loop
      vertex 2.90575 0.746069 20
      vertex 2.78933 1.10437 18
      vertex 2.78933 1.10437 20
    endloop
  endfacet
  facet normal 0.951056 0.309019 0
    outer loop
      vertex 2.78933 1.10437 18
      vertex 2.90575 0.746069 20
      vertex 2.90575 0.746069 18
    endloop
  endfacet
  facet normal -0.248684 0.968585 0
    outer loop
      vertex -0.562143 2.94686 18
      vertex -0.927051 2.85317 20
      vertex -0.562143 2.94686 20
    endloop
  endfacet
  facet normal -0.248684 0.968585 0
    outer loop
      vertex -0.927051 2.85317 20
      vertex -0.562143 2.94686 18
      vertex -0.927051 2.85317 18
    endloop
  endfacet
  facet normal -0.844331 -0.535822 0
    outer loop
      vertex -2.42705 -1.76336 18
      vertex -2.62892 -1.44526 20
      vertex -2.62892 -1.44526 18
    endloop
  endfacet
  facet normal -0.844331 -0.535822 0
    outer loop
      vertex -2.62892 -1.44526 20
      vertex -2.42705 -1.76336 18
      vertex -2.42705 -1.76336 20
    endloop
  endfacet
  facet normal -0.368126 -0.929776 0
    outer loop
      vertex -1.27734 -2.71448 18
      vertex -0.927051 -2.85317 20
      vertex -1.27734 -2.71448 20
    endloop
  endfacet
  facet normal -0.368126 -0.929776 -0
    outer loop
      vertex -0.927051 -2.85317 20
      vertex -1.27734 -2.71448 18
      vertex -0.927051 -2.85317 18
    endloop
  endfacet
  facet normal 0 1 -0
    outer loop
      vertex 0.188371 2.99408 18
      vertex -0.188371 2.99408 20
      vertex 0.188371 2.99408 20
    endloop
  endfacet
  facet normal 0 1 0
    outer loop
      vertex -0.188371 2.99408 20
      vertex 0.188371 2.99408 18
      vertex -0.188371 2.99408 18
    endloop
  endfacet
  facet normal -0.998026 -0.0628015 0
    outer loop
      vertex -2.97634 -0.375999 18
      vertex -3 0 20
      vertex -3 0 18
    endloop
  endfacet
  facet normal -0.998026 -0.0628015 0
    outer loop
      vertex -3 0 20
      vertex -2.97634 -0.375999 18
      vertex -2.97634 -0.375999 20
    endloop
  endfacet
  facet normal -0.125337 0.992114 0
    outer loop
      vertex -0.188371 2.99408 18
      vertex -0.562143 2.94686 20
      vertex -0.188371 2.99408 20
    endloop
  endfacet
  facet normal -0.125337 0.992114 0
    outer loop
      vertex -0.562143 2.94686 20
      vertex -0.188371 2.99408 18
      vertex -0.562143 2.94686 18
    endloop
  endfacet
  facet normal 0 0 -1
    outer loop
      vertex 1.5 0 18
      vertex 3 0 18
      vertex 2.97634 -0.375999 18
    endloop
  endfacet
  facet normal 0 0 -1
    outer loop
      vertex 1.48817 -0.188 18
      vertex 2.97634 -0.375999 18
      vertex 2.90575 -0.746069 18
    endloop
  endfacet
  facet normal 0 0 -1
    outer loop
      vertex 3 0 18
      vertex 1.5 0 18
      vertex 2.97634 0.375999 18
    endloop
  endfacet
  facet normal 0 0 -1
    outer loop
      vertex 1.45287 -0.373034 18
      vertex 2.90575 -0.746069 18
      vertex 2.78933 -1.10437 18
    endloop
  endfacet
  facet normal 0 0 -1
    outer loop
      vertex 1.48817 0.188 18
      vertex 2.97634 0.375999 18
      vertex 1.5 0 18
    endloop
  endfacet
  facet normal 0 0 -1
    outer loop
      vertex 1.39466 -0.552186 18
      vertex 2.78933 -1.10437 18
      vertex 2.62892 -1.44526 18
    endloop
  endfacet
  facet normal -0 0 -1
    outer loop
      vertex 2.97634 0.375999 18
      vertex 1.48817 0.188 18
      vertex 2.90575 0.746069 18
    endloop
  endfacet
  facet normal 0 0 -1
    outer loop
      vertex 1.31446 -0.722631 18
      vertex 2.62892 -1.44526 18
      vertex 2.42705 -1.76336 18
    endloop
  endfacet
  facet normal 0 0 -1
    outer loop
      vertex 1.45287 0.373034 18
      vertex 2.90575 0.746069 18
      vertex 1.48817 0.188 18
    endloop
  endfacet
  facet normal 0 0 -1
    outer loop
      vertex 1.21352 -0.881678 18
      vertex 2.42705 -1.76336 18
      vertex 2.18691 -2.05364 18
    endloop
  endfacet
  facet normal -0 0 -1
    outer loop
      vertex 2.90575 0.746069 18
      vertex 1.45287 0.373034 18
      vertex 2.78933 1.10437 18
    endloop
  endfacet
  facet normal 0 0 -1
    outer loop
      vertex 1.09345 -1.02682 18
      vertex 2.18691 -2.05364 18
      vertex 1.91227 -2.31154 18
    endloop
  endfacet
  facet normal 0 0 -1
    outer loop
      vertex 1.39466 0.552186 18
      vertex 2.78933 1.10437 18
      vertex 1.45287 0.373034 18
    endloop
  endfacet
  facet normal 0 0 -1
    outer loop
      vertex 0.956136 -1.15577 18
      vertex 1.91227 -2.31154 18
      vertex 1.60748 -2.53298 18
    endloop
  endfacet
  facet normal -0 0 -1
    outer loop
      vertex 2.78933 1.10437 18
      vertex 1.39466 0.552186 18
      vertex 2.62892 1.44526 18
    endloop
  endfacet
  facet normal 0 0 -1
    outer loop
      vertex 1.31446 0.722631 18
      vertex 2.62892 1.44526 18
      vertex 1.39466 0.552186 18
    endloop
  endfacet
  facet normal 0 0 -1
    outer loop
      vertex 2.97634 -0.375999 18
      vertex 1.48817 -0.188 18
      vertex 1.5 0 18
    endloop
  endfacet
  facet normal 0 0 -1
    outer loop
      vertex 2.90575 -0.746069 18
      vertex 1.45287 -0.373034 18
      vertex 1.48817 -0.188 18
    endloop
  endfacet
  facet normal 0 0 -1
    outer loop
      vertex 2.78933 -1.10437 18
      vertex 1.39466 -0.552186 18
      vertex 1.45287 -0.373034 18
    endloop
  endfacet
  facet normal 0 0 -1
    outer loop
      vertex 2.62892 -1.44526 18
      vertex 1.31446 -0.722631 18
      vertex 1.39466 -0.552186 18
    endloop
  endfacet
  facet normal 0 0 -1
    outer loop
      vertex 0.80374 -1.26649 18
      vertex 1.60748 -2.53298 18
      vertex 1.27734 -2.71448 18
    endloop
  endfacet
  facet normal 0 0 -1
    outer loop
      vertex 2.42705 -1.76336 18
      vertex 1.21352 -0.881678 18
      vertex 1.31446 -0.722631 18
    endloop
  endfacet
  facet normal 0 0 -1
    outer loop
      vertex 2.18691 -2.05364 18
      vertex 1.09345 -1.02682 18
      vertex 1.21352 -0.881678 18
    endloop
  endfacet
  facet normal 0 0 -1
    outer loop
      vertex 1.91227 -2.31154 18
      vertex 0.956136 -1.15577 18
      vertex 1.09345 -1.02682 18
    endloop
  endfacet
  facet normal 0 0 -1
    outer loop
      vertex 0.638668 -1.35724 18
      vertex 1.27734 -2.71448 18
      vertex 0.927051 -2.85317 18
    endloop
  endfacet
  facet normal 0 0 -1
    outer loop
      vertex 1.60748 -2.53298 18
      vertex 0.80374 -1.26649 18
      vertex 0.956136 -1.15577 18
    endloop
  endfacet
  facet normal 0 0 -1
    outer loop
      vertex 1.27734 -2.71448 18
      vertex 0.638668 -1.35724 18
      vertex 0.80374 -1.26649 18
    endloop
  endfacet
  facet normal 0 0 -1
    outer loop
      vertex 0.463525 -1.42658 18
      vertex 0.927051 -2.85317 18
      vertex 0.562143 -2.94686 18
    endloop
  endfacet
  facet normal 0 0 -1
    outer loop
      vertex 0.927051 -2.85317 18
      vertex 0.463525 -1.42658 18
      vertex 0.638668 -1.35724 18
    endloop
  endfacet
  facet normal 0 0 -1
    outer loop
      vertex 0.562143 -2.94686 18
      vertex 0.281072 -1.47343 18
      vertex 0.463525 -1.42658 18
    endloop
  endfacet
  facet normal 0 0 -1
    outer loop
      vertex 0.188371 -2.99408 18
      vertex 0.281072 -1.47343 18
      vertex 0.562143 -2.94686 18
    endloop
  endfacet
  facet normal 0 0 -1
    outer loop
      vertex 0.188371 -2.99408 18
      vertex 0.0941849 -1.49704 18
      vertex 0.281072 -1.47343 18
    endloop
  endfacet
  facet normal 0 0 -1
    outer loop
      vertex 0.188371 -2.99408 18
      vertex -0.0941849 -1.49704 18
      vertex 0.0941849 -1.49704 18
    endloop
  endfacet
  facet normal 0 0 -1
    outer loop
      vertex -0.188371 -2.99408 18
      vertex -0.0941849 -1.49704 18
      vertex 0.188371 -2.99408 18
    endloop
  endfacet
  facet normal 0 0 -1
    outer loop
      vertex -0.188371 -2.99408 18
      vertex -0.281072 -1.47343 18
      vertex -0.0941849 -1.49704 18
    endloop
  endfacet
  facet normal 0 0 -1
    outer loop
      vertex -0.562143 -2.94686 18
      vertex -0.281072 -1.47343 18
      vertex -0.188371 -2.99408 18
    endloop
  endfacet
  facet normal -0 0 -1
    outer loop
      vertex -0.281072 -1.47343 18
      vertex -0.562143 -2.94686 18
      vertex -0.463525 -1.42658 18
    endloop
  endfacet
  facet normal 0 0 -1
    outer loop
      vertex -0.927051 -2.85317 18
      vertex -0.463525 -1.42658 18
      vertex -0.562143 -2.94686 18
    endloop
  endfacet
  facet normal -0 0 -1
    outer loop
      vertex -0.463525 -1.42658 18
      vertex -0.927051 -2.85317 18
      vertex -0.638668 -1.35724 18
    endloop
  endfacet
  facet normal 0 0 -1
    outer loop
      vertex -1.27734 -2.71448 18
      vertex -0.638668 -1.35724 18
      vertex -0.927051 -2.85317 18
    endloop
  endfacet
  facet normal -0 0 -1
    outer loop
      vertex -0.638668 -1.35724 18
      vertex -1.27734 -2.71448 18
      vertex -0.80374 -1.26649 18
    endloop
  endfacet
  facet normal 0 0 -1
    outer loop
      vertex -1.60748 -2.53298 18
      vertex -0.80374 -1.26649 18
      vertex -1.27734 -2.71448 18
    endloop
  endfacet
  facet normal -0 0 -1
    outer loop
      vertex -0.80374 -1.26649 18
      vertex -1.60748 -2.53298 18
      vertex -0.956136 -1.15577 18
    endloop
  endfacet
  facet normal 0 0 -1
    outer loop
      vertex -1.91227 -2.31154 18
      vertex -0.956136 -1.15577 18
      vertex -1.60748 -2.53298 18
    endloop
  endfacet
  facet normal -0 0 -1
    outer loop
      vertex -0.956136 -1.15577 18
      vertex -1.91227 -2.31154 18
      vertex -1.09345 -1.02682 18
    endloop
  endfacet
  facet normal 0 0 -1
    outer loop
      vertex -2.18691 -2.05364 18
      vertex -1.09345 -1.02682 18
      vertex -1.91227 -2.31154 18
    endloop
  endfacet
  facet normal -0 0 -1
    outer loop
      vertex -1.09345 -1.02682 18
      vertex -2.18691 -2.05364 18
      vertex -1.21352 -0.881678 18
    endloop
  endfacet
  facet normal 0 0 -1
    outer loop
      vertex -2.42705 -1.76336 18
      vertex -1.21352 -0.881678 18
      vertex -2.18691 -2.05364 18
    endloop
  endfacet
  facet normal 0 0 -1
    outer loop
      vertex -2.62892 -1.44526 18
      vertex -1.31446 -0.722631 18
      vertex -2.42705 -1.76336 18
    endloop
  endfacet
  facet normal -0 0 -1
    outer loop
      vertex -1.21352 -0.881678 18
      vertex -2.42705 -1.76336 18
      vertex -1.31446 -0.722631 18
    endloop
  endfacet
  facet normal -0 0 -1
    outer loop
      vertex 2.62892 1.44526 18
      vertex 1.31446 0.722631 18
      vertex 2.42705 1.76336 18
    endloop
  endfacet
  facet normal 0 0 -1
    outer loop
      vertex 1.21352 0.881678 18
      vertex 2.42705 1.76336 18
      vertex 1.31446 0.722631 18
    endloop
  endfacet
  facet normal -0 0 -1
    outer loop
      vertex 2.42705 1.76336 18
      vertex 1.21352 0.881678 18
      vertex 2.18691 2.05364 18
    endloop
  endfacet
  facet normal 0 0 -1
    outer loop
      vertex 1.09345 1.02682 18
      vertex 2.18691 2.05364 18
      vertex 1.21352 0.881678 18
    endloop
  endfacet
  facet normal -0 0 -1
    outer loop
      vertex 2.18691 2.05364 18
      vertex 1.09345 1.02682 18
      vertex 1.91227 2.31154 18
    endloop
  endfacet
  facet normal 0 0 -1
    outer loop
      vertex 0.956136 1.15577 18
      vertex 1.91227 2.31154 18
      vertex 1.09345 1.02682 18
    endloop
  endfacet
  facet normal -0 0 -1
    outer loop
      vertex 1.91227 2.31154 18
      vertex 0.956136 1.15577 18
      vertex 1.60748 2.53298 18
    endloop
  endfacet
  facet normal 0 0 -1
    outer loop
      vertex 0.80374 1.26649 18
      vertex 1.60748 2.53298 18
      vertex 0.956136 1.15577 18
    endloop
  endfacet
  facet normal -0 0 -1
    outer loop
      vertex 1.60748 2.53298 18
      vertex 0.80374 1.26649 18
      vertex 1.27734 2.71448 18
    endloop
  endfacet
  facet normal 0 0 -1
    outer loop
      vertex 0.638668 1.35724 18
      vertex 1.27734 2.71448 18
      vertex 0.80374 1.26649 18
    endloop
  endfacet
  facet normal -0 0 -1
    outer loop
      vertex 1.27734 2.71448 18
      vertex 0.638668 1.35724 18
      vertex 0.927051 2.85317 18
    endloop
  endfacet
  facet normal 0 0 -1
    outer loop
      vertex 0.463525 1.42658 18
      vertex 0.927051 2.85317 18
      vertex 0.638668 1.35724 18
    endloop
  endfacet
  facet normal -0 0 -1
    outer loop
      vertex 0.927051 2.85317 18
      vertex 0.463525 1.42658 18
      vertex 0.562143 2.94686 18
    endloop
  endfacet
  facet normal 0 0 -1
    outer loop
      vertex 0.281072 1.47343 18
      vertex 0.562143 2.94686 18
      vertex 0.463525 1.42658 18
    endloop
  endfacet
  facet normal 0 0 -1
    outer loop
      vertex 0.281072 1.47343 18
      vertex 0.188371 2.99408 18
      vertex 0.562143 2.94686 18
    endloop
  endfacet
  facet normal 0 0 -1
    outer loop
      vertex 0.0941849 1.49704 18
      vertex 0.188371 2.99408 18
      vertex 0.281072 1.47343 18
    endloop
  endfacet
  facet normal 0 0 -1
    outer loop
      vertex -0.0941849 1.49704 18
      vertex 0.188371 2.99408 18
      vertex 0.0941849 1.49704 18
    endloop
  endfacet
  facet normal 0 0 -1
    outer loop
      vertex -0.0941849 1.49704 18
      vertex -0.188371 2.99408 18
      vertex 0.188371 2.99408 18
    endloop
  endfacet
  facet normal 0 0 -1
    outer loop
      vertex -0.281072 1.47343 18
      vertex -0.188371 2.99408 18
      vertex -0.0941849 1.49704 18
    endloop
  endfacet
  facet normal 0 0 -1
    outer loop
      vertex -0.562143 2.94686 18
      vertex -0.281072 1.47343 18
      vertex -0.463525 1.42658 18
    endloop
  endfacet
  facet normal 0 0 -1
    outer loop
      vertex -0.281072 1.47343 18
      vertex -0.562143 2.94686 18
      vertex -0.188371 2.99408 18
    endloop
  endfacet
  facet normal 0 0 -1
    outer loop
      vertex -0.927051 2.85317 18
      vertex -0.463525 1.42658 18
      vertex -0.638668 1.35724 18
    endloop
  endfacet
  facet normal 0 0 -1
    outer loop
      vertex -1.27734 2.71448 18
      vertex -0.638668 1.35724 18
      vertex -0.80374 1.26649 18
    endloop
  endfacet
  facet normal 0 0 -1
    outer loop
      vertex -0.463525 1.42658 18
      vertex -0.927051 2.85317 18
      vertex -0.562143 2.94686 18
    endloop
  endfacet
  facet normal 0 0 -1
    outer loop
      vertex -1.60748 2.53298 18
      vertex -0.80374 1.26649 18
      vertex -0.956136 1.15577 18
    endloop
  endfacet
  facet normal 0 0 -1
    outer loop
      vertex -1.91227 2.31154 18
      vertex -0.956136 1.15577 18
      vertex -1.09345 1.02682 18
    endloop
  endfacet
  facet normal 0 0 -1
    outer loop
      vertex -2.18691 2.05364 18
      vertex -1.09345 1.02682 18
      vertex -1.21352 0.881678 18
    endloop
  endfacet
  facet normal 0 0 -1
    outer loop
      vertex -0.638668 1.35724 18
      vertex -1.27734 2.71448 18
      vertex -0.927051 2.85317 18
    endloop
  endfacet
  facet normal 0 0 -1
    outer loop
      vertex -2.42705 1.76336 18
      vertex -1.21352 0.881678 18
      vertex -1.31446 0.722631 18
    endloop
  endfacet
  facet normal 0 0 -1
    outer loop
      vertex -2.62892 1.44526 18
      vertex -1.31446 0.722631 18
      vertex -1.39466 0.552186 18
    endloop
  endfacet
  facet normal 0 0 -1
    outer loop
      vertex -2.78933 1.10437 18
      vertex -1.39466 0.552186 18
      vertex -1.45287 0.373034 18
    endloop
  endfacet
  facet normal 0 0 -1
    outer loop
      vertex -2.90575 0.746069 18
      vertex -1.45287 0.373034 18
      vertex -1.48817 0.188 18
    endloop
  endfacet
  facet normal 0 0 -1
    outer loop
      vertex -0.80374 1.26649 18
      vertex -1.60748 2.53298 18
      vertex -1.27734 2.71448 18
    endloop
  endfacet
  facet normal 0 0 -1
    outer loop
      vertex -2.97634 0.375999 18
      vertex -1.48817 0.188 18
      vertex -1.5 0 18
    endloop
  endfacet
  facet normal -0 0 -1
    outer loop
      vertex -1.31446 -0.722631 18
      vertex -2.62892 -1.44526 18
      vertex -1.39466 -0.552186 18
    endloop
  endfacet
  facet normal 0 0 -1
    outer loop
      vertex -2.78933 -1.10437 18
      vertex -1.39466 -0.552186 18
      vertex -2.62892 -1.44526 18
    endloop
  endfacet
  facet normal 0 0 -1
    outer loop
      vertex -0.956136 1.15577 18
      vertex -1.91227 2.31154 18
      vertex -1.60748 2.53298 18
    endloop
  endfacet
  facet normal -0 0 -1
    outer loop
      vertex -1.39466 -0.552186 18
      vertex -2.78933 -1.10437 18
      vertex -1.45287 -0.373034 18
    endloop
  endfacet
  facet normal 0 0 -1
    outer loop
      vertex -1.09345 1.02682 18
      vertex -2.18691 2.05364 18
      vertex -1.91227 2.31154 18
    endloop
  endfacet
  facet normal 0 0 -1
    outer loop
      vertex -2.90575 -0.746069 18
      vertex -1.45287 -0.373034 18
      vertex -2.78933 -1.10437 18
    endloop
  endfacet
  facet normal 0 0 -1
    outer loop
      vertex -1.21352 0.881678 18
      vertex -2.42705 1.76336 18
      vertex -2.18691 2.05364 18
    endloop
  endfacet
  facet normal -0 0 -1
    outer loop
      vertex -1.45287 -0.373034 18
      vertex -2.90575 -0.746069 18
      vertex -1.48817 -0.188 18
    endloop
  endfacet
  facet normal 0 0 -1
    outer loop
      vertex -1.31446 0.722631 18
      vertex -2.62892 1.44526 18
      vertex -2.42705 1.76336 18
    endloop
  endfacet
  facet normal 0 0 -1
    outer loop
      vertex -2.97634 -0.375999 18
      vertex -1.48817 -0.188 18
      vertex -2.90575 -0.746069 18
    endloop
  endfacet
  facet normal 0 0 -1
    outer loop
      vertex -1.39466 0.552186 18
      vertex -2.78933 1.10437 18
      vertex -2.62892 1.44526 18
    endloop
  endfacet
  facet normal -0 0 -1
    outer loop
      vertex -1.48817 -0.188 18
      vertex -2.97634 -0.375999 18
      vertex -1.5 0 18
    endloop
  endfacet
  facet normal 0 0 -1
    outer loop
      vertex -1.45287 0.373034 18
      vertex -2.90575 0.746069 18
      vertex -2.78933 1.10437 18
    endloop
  endfacet
  facet normal 0 0 -1
    outer loop
      vertex -3 0 18
      vertex -1.5 0 18
      vertex -2.97634 -0.375999 18
    endloop
  endfacet
  facet normal 0 0 -1
    outer loop
      vertex -1.48817 0.188 18
      vertex -2.97634 0.375999 18
      vertex -2.90575 0.746069 18
    endloop
  endfacet
  facet normal 0 0 -1
    outer loop
      vertex -1.5 0 18
      vertex -3 0 18
      vertex -2.97634 0.375999 18
    endloop
  endfacet
  facet normal 0 0 -1
    outer loop
      vertex 0.396846 -0.0501328 18
      vertex 0.396846 0.0501328 18
      vertex 0.4 0 18
    endloop
  endfacet
  facet normal 0 0 -1
    outer loop
      vertex 0.387433 -0.0994759 18
      vertex 0.396846 0.0501328 18
      vertex 0.396846 -0.0501328 18
    endloop
  endfacet
  facet normal 0 0 -1
    outer loop
      vertex 0.387433 -0.0994759 18
      vertex 0.387433 0.0994759 18
      vertex 0.396846 0.0501328 18
    endloop
  endfacet
  facet normal 0 0 -1
    outer loop
      vertex 0.37191 -0.147249 18
      vertex 0.387433 0.0994759 18
      vertex 0.387433 -0.0994759 18
    endloop
  endfacet
  facet normal 0 0 -1
    outer loop
      vertex 0.37191 -0.147249 18
      vertex 0.37191 0.147249 18
      vertex 0.387433 0.0994759 18
    endloop
  endfacet
  facet normal 0 0 -1
    outer loop
      vertex 0.350522 -0.192701 18
      vertex 0.37191 0.147249 18
      vertex 0.37191 -0.147249 18
    endloop
  endfacet
  facet normal 0 0 -1
    outer loop
      vertex 0.350522 -0.192701 18
      vertex 0.350522 0.192701 18
      vertex 0.37191 0.147249 18
    endloop
  endfacet
  facet normal 0 0 -1
    outer loop
      vertex 0.323606 -0.235114 18
      vertex 0.350522 0.192701 18
      vertex 0.350522 -0.192701 18
    endloop
  endfacet
  facet normal 0 0 -1
    outer loop
      vertex 0.323606 -0.235114 18
      vertex 0.323606 0.235114 18
      vertex 0.350522 0.192701 18
    endloop
  endfacet
  facet normal 0 0 -1
    outer loop
      vertex 0.291587 -0.273818 18
      vertex 0.323606 0.235114 18
      vertex 0.323606 -0.235114 18
    endloop
  endfacet
  facet normal 0 0 -1
    outer loop
      vertex 0.291587 -0.273818 18
      vertex 0.291587 0.273818 18
      vertex 0.323606 0.235114 18
    endloop
  endfacet
  facet normal 0 0 -1
    outer loop
      vertex 0.254969 -0.308205 18
      vertex 0.291587 0.273818 18
      vertex 0.291587 -0.273818 18
    endloop
  endfacet
  facet normal 0 0 -1
    outer loop
      vertex 0.254969 -0.308205 18
      vertex 0.254969 0.308205 18
      vertex 0.291587 0.273818 18
    endloop
  endfacet
  facet normal 0 0 -1
    outer loop
      vertex 0.214331 -0.33773 18
      vertex 0.254969 0.308205 18
      vertex 0.254969 -0.308205 18
    endloop
  endfacet
  facet normal 0 0 -1
    outer loop
      vertex 0.214331 -0.33773 18
      vertex 0.214331 0.33773 18
      vertex 0.254969 0.308205 18
    endloop
  endfacet
  facet normal 0 0 -1
    outer loop
      vertex 0.170311 -0.36193 18
      vertex 0.214331 0.33773 18
      vertex 0.214331 -0.33773 18
    endloop
  endfacet
  facet normal 0 0 -1
    outer loop
      vertex 0.170311 -0.36193 18
      vertex 0.170311 0.36193 18
      vertex 0.214331 0.33773 18
    endloop
  endfacet
  facet normal 0 0 -1
    outer loop
      vertex 0.123607 -0.380423 18
      vertex 0.170311 0.36193 18
      vertex 0.170311 -0.36193 18
    endloop
  endfacet
  facet normal 0 0 -1
    outer loop
      vertex 0.123607 -0.380423 18
      vertex 0.123607 0.380423 18
      vertex 0.170311 0.36193 18
    endloop
  endfacet
  facet normal 0 0 -1
    outer loop
      vertex 0.0749521 -0.392915 18
      vertex 0.123607 0.380423 18
      vertex 0.123607 -0.380423 18
    endloop
  endfacet
  facet normal 0 0 -1
    outer loop
      vertex 0.0749521 -0.392915 18
      vertex 0.0749521 0.392915 18
      vertex 0.123607 0.380423 18
    endloop
  endfacet
  facet normal 0 0 -1
    outer loop
      vertex 0.025116 -0.39921 18
      vertex 0.0749521 0.392915 18
      vertex 0.0749521 -0.392915 18
    endloop
  endfacet
  facet normal 0 0 -1
    outer loop
      vertex 0.025116 -0.39921 18
      vertex 0.025116 0.39921 18
      vertex 0.0749521 0.392915 18
    endloop
  endfacet
  facet normal 0 0 -1
    outer loop
      vertex -0.025116 -0.39921 18
      vertex 0.025116 0.39921 18
      vertex 0.025116 -0.39921 18
    endloop
  endfacet
  facet normal 0 0 -1
    outer loop
      vertex -0.025116 -0.39921 18
      vertex -0.025116 0.39921 18
      vertex 0.025116 0.39921 18
    endloop
  endfacet
  facet normal 0 0 -1
    outer loop
      vertex -0.0749521 -0.392915 18
      vertex -0.025116 0.39921 18
      vertex -0.025116 -0.39921 18
    endloop
  endfacet
  facet normal 0 0 -1
    outer loop
      vertex -0.0749521 -0.392915 18
      vertex -0.0749521 0.392915 18
      vertex -0.025116 0.39921 18
    endloop
  endfacet
  facet normal 0 0 -1
    outer loop
      vertex -0.123607 -0.380423 18
      vertex -0.0749521 0.392915 18
      vertex -0.0749521 -0.392915 18
    endloop
  endfacet
  facet normal 0 0 -1
    outer loop
      vertex -0.123607 -0.380423 18
      vertex -0.123607 0.380423 18
      vertex -0.0749521 0.392915 18
    endloop
  endfacet
  facet normal 0 0 -1
    outer loop
      vertex -0.170311 -0.36193 18
      vertex -0.123607 0.380423 18
      vertex -0.123607 -0.380423 18
    endloop
  endfacet
  facet normal 0 0 -1
    outer loop
      vertex -0.170311 -0.36193 18
      vertex -0.170311 0.36193 18
      vertex -0.123607 0.380423 18
    endloop
  endfacet
  facet normal 0 0 -1
    outer loop
      vertex -0.214331 -0.33773 18
      vertex -0.170311 0.36193 18
      vertex -0.170311 -0.36193 18
    endloop
  endfacet
  facet normal 0 0 -1
    outer loop
      vertex -0.214331 -0.33773 18
      vertex -0.214331 0.33773 18
      vertex -0.170311 0.36193 18
    endloop
  endfacet
  facet normal 0 0 -1
    outer loop
      vertex -0.254969 -0.308205 18
      vertex -0.214331 0.33773 18
      vertex -0.214331 -0.33773 18
    endloop
  endfacet
  facet normal 0 0 -1
    outer loop
      vertex -0.254969 -0.308205 18
      vertex -0.254969 0.308205 18
      vertex -0.214331 0.33773 18
    endloop
  endfacet
  facet normal 0 0 -1
    outer loop
      vertex -0.291587 -0.273818 18
      vertex -0.254969 0.308205 18
      vertex -0.254969 -0.308205 18
    endloop
  endfacet
  facet normal 0 0 -1
    outer loop
      vertex -0.291587 -0.273818 18
      vertex -0.291587 0.273818 18
      vertex -0.254969 0.308205 18
    endloop
  endfacet
  facet normal 0 0 -1
    outer loop
      vertex -0.323606 -0.235114 18
      vertex -0.291587 0.273818 18
      vertex -0.291587 -0.273818 18
    endloop
  endfacet
  facet normal 0 0 -1
    outer loop
      vertex -0.323606 -0.235114 18
      vertex -0.323606 0.235114 18
      vertex -0.291587 0.273818 18
    endloop
  endfacet
  facet normal 0 0 -1
    outer loop
      vertex -0.350522 -0.192701 18
      vertex -0.323606 0.235114 18
      vertex -0.323606 -0.235114 18
    endloop
  endfacet
  facet normal 0 0 -1
    outer loop
      vertex -0.350522 -0.192701 18
      vertex -0.350522 0.192701 18
      vertex -0.323606 0.235114 18
    endloop
  endfacet
  facet normal 0 0 -1
    outer loop
      vertex -0.37191 -0.147249 18
      vertex -0.350522 0.192701 18
      vertex -0.350522 -0.192701 18
    endloop
  endfacet
  facet normal 0 0 -1
    outer loop
      vertex -0.37191 -0.147249 18
      vertex -0.37191 0.147249 18
      vertex -0.350522 0.192701 18
    endloop
  endfacet
  facet normal 0 0 -1
    outer loop
      vertex -0.387433 -0.0994759 18
      vertex -0.37191 0.147249 18
      vertex -0.37191 -0.147249 18
    endloop
  endfacet
  facet normal 0 0 -1
    outer loop
      vertex -0.387433 -0.0994759 18
      vertex -0.387433 0.0994759 18
      vertex -0.37191 0.147249 18
    endloop
  endfacet
  facet normal 0 0 -1
    outer loop
      vertex -0.396846 -0.0501328 18
      vertex -0.387433 0.0994759 18
      vertex -0.387433 -0.0994759 18
    endloop
  endfacet
  facet normal 0 0 -1
    outer loop
      vertex -0.396846 -0.0501328 18
      vertex -0.396846 0.0501328 18
      vertex -0.387433 0.0994759 18
    endloop
  endfacet
  facet normal 0 -0 -1
    outer loop
      vertex -0.396846 0.0501328 18
      vertex -0.396846 -0.0501328 18
      vertex -0.4 0 18
    endloop
  endfacet
  facet normal -0.481762 -0.876302 0
    outer loop
      vertex -1.60748 -2.53298 18
      vertex -1.27734 -2.71448 20
      vertex -1.60748 -2.53298 20
    endloop
  endfacet
  facet normal -0.481762 -0.876302 -0
    outer loop
      vertex -1.27734 -2.71448 20
      vertex -1.60748 -2.53298 18
      vertex -1.27734 -2.71448 18
    endloop
  endfacet
  facet normal -0.844331 0.535822 0
    outer loop
      vertex -2.62892 1.44526 18
      vertex -2.42705 1.76336 20
      vertex -2.42705 1.76336 18
    endloop
  endfacet
  facet normal -0.844331 0.535822 0
    outer loop
      vertex -2.42705 1.76336 20
      vertex -2.62892 1.44526 18
      vertex -2.62892 1.44526 20
    endloop
  endfacet
  facet normal -0.951056 -0.309019 0
    outer loop
      vertex -2.78933 -1.10437 18
      vertex -2.90575 -0.746069 20
      vertex -2.90575 -0.746069 18
    endloop
  endfacet
  facet normal -0.951056 -0.309019 0
    outer loop
      vertex -2.90575 -0.746069 20
      vertex -2.78933 -1.10437 18
      vertex -2.78933 -1.10437 20
    endloop
  endfacet
  facet normal 0.770514 -0.637423 0
    outer loop
      vertex 2.18691 -2.05364 20
      vertex 2.42705 -1.76336 18
      vertex 2.42705 -1.76336 20
    endloop
  endfacet
  facet normal 0.770514 -0.637423 0
    outer loop
      vertex 2.42705 -1.76336 18
      vertex 2.18691 -2.05364 20
      vertex 2.18691 -2.05364 18
    endloop
  endfacet
  facet normal 0 0 1
    outer loop
      vertex 0.396846 0.0501328 10
      vertex 0.396846 -0.0501328 10
      vertex 0.4 0 10
    endloop
  endfacet
  facet normal 0 0 1
    outer loop
      vertex 0.387433 0.0994759 10
      vertex 0.396846 -0.0501328 10
      vertex 0.396846 0.0501328 10
    endloop
  endfacet
  facet normal 0 0 1
    outer loop
      vertex 0.387433 0.0994759 10
      vertex 0.387433 -0.0994759 10
      vertex 0.396846 -0.0501328 10
    endloop
  endfacet
  facet normal 0 0 1
    outer loop
      vertex 0.37191 0.147249 10
      vertex 0.387433 -0.0994759 10
      vertex 0.387433 0.0994759 10
    endloop
  endfacet
  facet normal 0 0 1
    outer loop
      vertex 0.37191 0.147249 10
      vertex 0.37191 -0.147249 10
      vertex 0.387433 -0.0994759 10
    endloop
  endfacet
  facet normal 0 0 1
    outer loop
      vertex 0.350522 0.192701 10
      vertex 0.37191 -0.147249 10
      vertex 0.37191 0.147249 10
    endloop
  endfacet
  facet normal 0 0 1
    outer loop
      vertex 0.350522 0.192701 10
      vertex 0.350522 -0.192701 10
      vertex 0.37191 -0.147249 10
    endloop
  endfacet
  facet normal 0 0 1
    outer loop
      vertex 0.323606 0.235114 10
      vertex 0.350522 -0.192701 10
      vertex 0.350522 0.192701 10
    endloop
  endfacet
  facet normal 0 0 1
    outer loop
      vertex 0.323606 0.235114 10
      vertex 0.323606 -0.235114 10
      vertex 0.350522 -0.192701 10
    endloop
  endfacet
  facet normal 0 0 1
    outer loop
      vertex 0.291587 0.273818 10
      vertex 0.323606 -0.235114 10
      vertex 0.323606 0.235114 10
    endloop
  endfacet
  facet normal 0 0 1
    outer loop
      vertex 0.291587 0.273818 10
      vertex 0.291587 -0.273818 10
      vertex 0.323606 -0.235114 10
    endloop
  endfacet
  facet normal 0 0 1
    outer loop
      vertex 0.254969 0.308205 10
      vertex 0.291587 -0.273818 10
      vertex 0.291587 0.273818 10
    endloop
  endfacet
  facet normal 0 0 1
    outer loop
      vertex 0.254969 0.308205 10
      vertex 0.254969 -0.308205 10
      vertex 0.291587 -0.273818 10
    endloop
  endfacet
  facet normal 0 0 1
    outer loop
      vertex 0.214331 0.33773 10
      vertex 0.254969 -0.308205 10
      vertex 0.254969 0.308205 10
    endloop
  endfacet
  facet normal 0 0 1
    outer loop
      vertex 0.214331 0.33773 10
      vertex 0.214331 -0.33773 10
      vertex 0.254969 -0.308205 10
    endloop
  endfacet
  facet normal 0 0 1
    outer loop
      vertex 0.170311 0.36193 10
      vertex 0.214331 -0.33773 10
      vertex 0.214331 0.33773 10
    endloop
  endfacet
  facet normal 0 0 1
    outer loop
      vertex 0.170311 0.36193 10
      vertex 0.170311 -0.36193 10
      vertex 0.214331 -0.33773 10
    endloop
  endfacet
  facet normal 0 0 1
    outer loop
      vertex 0.123607 0.380423 10
      vertex 0.170311 -0.36193 10
      vertex 0.170311 0.36193 10
    endloop
  endfacet
  facet normal 0 0 1
    outer loop
      vertex 0.123607 0.380423 10
      vertex 0.123607 -0.380423 10
      vertex 0.170311 -0.36193 10
    endloop
  endfacet
  facet normal 0 0 1
    outer loop
      vertex 0.0749521 0.392915 10
      vertex 0.123607 -0.380423 10
      vertex 0.123607 0.380423 10
    endloop
  endfacet
  facet normal 0 0 1
    outer loop
      vertex 0.0749521 0.392915 10
      vertex 0.0749521 -0.392915 10
      vertex 0.123607 -0.380423 10
    endloop
  endfacet
  facet normal 0 0 1
    outer loop
      vertex 0.025116 0.39921 10
      vertex 0.0749521 -0.392915 10
      vertex 0.0749521 0.392915 10
    endloop
  endfacet
  facet normal 0 0 1
    outer loop
      vertex 0.025116 0.39921 10
      vertex 0.025116 -0.39921 10
      vertex 0.0749521 -0.392915 10
    endloop
  endfacet
  facet normal -0 0 1
    outer loop
      vertex -0.025116 0.39921 10
      vertex 0.025116 -0.39921 10
      vertex 0.025116 0.39921 10
    endloop
  endfacet
  facet normal 0 0 1
    outer loop
      vertex -0.025116 0.39921 10
      vertex -0.025116 -0.39921 10
      vertex 0.025116 -0.39921 10
    endloop
  endfacet
  facet normal -0 0 1
    outer loop
      vertex -0.0749521 0.392915 10
      vertex -0.025116 -0.39921 10
      vertex -0.025116 0.39921 10
    endloop
  endfacet
  facet normal 0 0 1
    outer loop
      vertex -0.0749521 0.392915 10
      vertex -0.0749521 -0.392915 10
      vertex -0.025116 -0.39921 10
    endloop
  endfacet
  facet normal -0 0 1
    outer loop
      vertex -0.123607 0.380423 10
      vertex -0.0749521 -0.392915 10
      vertex -0.0749521 0.392915 10
    endloop
  endfacet
  facet normal 0 0 1
    outer loop
      vertex -0.123607 0.380423 10
      vertex -0.123607 -0.380423 10
      vertex -0.0749521 -0.392915 10
    endloop
  endfacet
  facet normal -0 0 1
    outer loop
      vertex -0.170311 0.36193 10
      vertex -0.123607 -0.380423 10
      vertex -0.123607 0.380423 10
    endloop
  endfacet
  facet normal 0 0 1
    outer loop
      vertex -0.170311 0.36193 10
      vertex -0.170311 -0.36193 10
      vertex -0.123607 -0.380423 10
    endloop
  endfacet
  facet normal -0 0 1
    outer loop
      vertex -0.214331 0.33773 10
      vertex -0.170311 -0.36193 10
      vertex -0.170311 0.36193 10
    endloop
  endfacet
  facet normal 0 0 1
    outer loop
      vertex -0.214331 0.33773 10
      vertex -0.214331 -0.33773 10
      vertex -0.170311 -0.36193 10
    endloop
  endfacet
  facet normal -0 0 1
    outer loop
      vertex -0.254969 0.308205 10
      vertex -0.214331 -0.33773 10
      vertex -0.214331 0.33773 10
    endloop
  endfacet
  facet normal 0 0 1
    outer loop
      vertex -0.254969 0.308205 10
      vertex -0.254969 -0.308205 10
      vertex -0.214331 -0.33773 10
    endloop
  endfacet
  facet normal -0 0 1
    outer loop
      vertex -0.291587 0.273818 10
      vertex -0.254969 -0.308205 10
      vertex -0.254969 0.308205 10
    endloop
  endfacet
  facet normal 0 0 1
    outer loop
      vertex -0.291587 0.273818 10
      vertex -0.291587 -0.273818 10
      vertex -0.254969 -0.308205 10
    endloop
  endfacet
  facet normal -0 0 1
    outer loop
      vertex -0.323606 0.235114 10
      vertex -0.291587 -0.273818 10
      vertex -0.291587 0.273818 10
    endloop
  endfacet
  facet normal 0 0 1
    outer loop
      vertex -0.323606 0.235114 10
      vertex -0.323606 -0.235114 10
      vertex -0.291587 -0.273818 10
    endloop
  endfacet
  facet normal -0 0 1
    outer loop
      vertex -0.350522 0.192701 10
      vertex -0.323606 -0.235114 10
      vertex -0.323606 0.235114 10
    endloop
  endfacet
  facet normal 0 0 1
    outer loop
      vertex -0.350522 0.192701 10
      vertex -0.350522 -0.192701 10
      vertex -0.323606 -0.235114 10
    endloop
  endfacet
  facet normal -0 0 1
    outer loop
      vertex -0.37191 0.147249 10
      vertex -0.350522 -0.192701 10
      vertex -0.350522 0.192701 10
    endloop
  endfacet
  facet normal 0 0 1
    outer loop
      vertex -0.37191 0.147249 10
      vertex -0.37191 -0.147249 10
      vertex -0.350522 -0.192701 10
    endloop
  endfacet
  facet normal -0 0 1
    outer loop
      vertex -0.387433 0.0994759 10
      vertex -0.37191 -0.147249 10
      vertex -0.37191 0.147249 10
    endloop
  endfacet
  facet normal 0 0 1
    outer loop
      vertex -0.387433 0.0994759 10
      vertex -0.387433 -0.0994759 10
      vertex -0.37191 -0.147249 10
    endloop
  endfacet
  facet normal -0 0 1
    outer loop
      vertex -0.396846 0.0501328 10
      vertex -0.387433 -0.0994759 10
      vertex -0.387433 0.0994759 10
    endloop
  endfacet
  facet normal 0 0 1
    outer loop
      vertex -0.396846 0.0501328 10
      vertex -0.396846 -0.0501328 10
      vertex -0.387433 -0.0994759 10
    endloop
  endfacet
  facet normal 0 -0 1
    outer loop
      vertex -0.396846 -0.0501328 10
      vertex -0.396846 0.0501328 10
      vertex -0.4 0 10
    endloop
  endfacet
endsolid OpenSCAD_Model
