solid OpenSCAD_Model
  facet normal -1 0 0
    outer loop
      vertex 0 0 7
      vertex 0 10 2
      vertex 0 0 0
    endloop
  endfacet
  facet normal 1 0 0
    outer loop
      vertex 10 5 7
      vertex 10 0 5
      vertex 10 10 4
    endloop
  endfacet
  facet normal 0 1 0
    outer loop
      vertex 10 10 4
      vertex 0 10 2
      vertex 0 10 4
    endloop
  endfacet
  facet normal -0 0.514496 0.857493
    outer loop
      vertex 0 10 4
      vertex 10 5 7
      vertex 10 10 4
    endloop
  endfacet
  facet normal 1 0 0
    outer loop
      vertex 10 10 0
      vertex 10 0 5
      vertex 10 5 0
    endloop
  endfacet
  facet normal 0 1 -0
    outer loop
      vertex 5 10 0
      vertex 0 10 2
      vertex 10 10 0
    endloop
  endfacet
  facet normal 1 0 0
    outer loop
      vertex 10 10 4
      vertex 10 0 5
      vertex 10 10 0
    endloop
  endfacet
  facet normal -0 -0 -1
    outer loop
      vertex 10 10 0
      vertex 10 5 0
      vertex 5 10 0
    endloop
  endfacet
  facet normal 0 0 -1
    outer loop
      vertex 0 5 0
      vertex 10 5 0
      vertex 0 0 0
    endloop
  endfacet
  facet normal -1 -0 -0
    outer loop
      vertex 0 5 7
      vertex 0 10 2
      vertex 0 0 7
    endloop
  endfacet
  facet normal -1 -0 -0
    outer loop
      vertex 0 10 4
      vertex 0 10 2
      vertex 0 5 7
    endloop
  endfacet
  facet normal 0 1 -0
    outer loop
      vertex 10 10 0
      vertex 0 10 2
      vertex 10 10 4
    endloop
  endfacet
  facet normal 0 -0 -1
    outer loop
      vertex 5 10 0
      vertex 10 5 0
      vertex 0 5 0
    endloop
  endfacet
  facet normal -0 0.514496 0.857493
    outer loop
      vertex 0 5 7
      vertex 10 5 7
      vertex 0 10 4
    endloop
  endfacet
  facet normal 1 -0 0
    outer loop
      vertex 10 0 7
      vertex 10 0 5
      vertex 10 5 7
    endloop
  endfacet
  facet normal 0.57735 -0.57735 -0.57735
    outer loop
      vertex 10 5 0
      vertex 10 0 5
      vertex 5 0 0
    endloop
  endfacet
  facet normal 0 -1 0
    outer loop
      vertex 5 0 0
      vertex 10 0 5
      vertex 0 0 0
    endloop
  endfacet
  facet normal 0 0 -1
    outer loop
      vertex 0 0 0
      vertex 10 5 0
      vertex 5 0 0
    endloop
  endfacet
  facet normal -0.348155 0.348155 -0.870388
    outer loop
      vertex 0 5 0
      vertex 0 10 2
      vertex 5 10 0
    endloop
  endfacet
  facet normal -1 0 0
    outer loop
      vertex 0 0 0
      vertex 0 10 2
      vertex 0 5 0
    endloop
  endfacet
  facet normal 0 0 1
    outer loop
      vertex 0 0 7
      vertex 10 5 7
      vertex 0 5 7
    endloop
  endfacet
  facet normal 0 -0 1
    outer loop
      vertex 10 0 7
      vertex 10 5 7
      vertex 0 0 7
    endloop
  endfacet
  facet normal 0 -1 0
    outer loop
      vertex 0 0 7
      vertex 10 0 5
      vertex 10 0 7
    endloop
  endfacet
  facet normal 0 -1 0
    outer loop
      vertex 0 0 0
      vertex 10 0 5
      vertex 0 0 7
    endloop
  endfacet
endsolid OpenSCAD_Model
