solid OpenSCAD_Model
  facet normal 1 0 0
    outer loop
      vertex 50 8.66025 15
      vertex 50 0 15
      vertex 50 8.66025 7.5
    endloop
  endfacet
  facet normal 1 0 0
    outer loop
      vertex 50 14.0192 7.5
      vertex 50 30 15
      vertex 50 14.0192 15
    endloop
  endfacet
  facet normal 1 0 0
    outer loop
      vertex 50 30 15
      vertex 50 14.0192 7.5
      vertex 50 30 0
    endloop
  endfacet
  facet normal 1 0 0
    outer loop
      vertex 50 0 0
      vertex 50 14.0192 7.5
      vertex 50 8.66025 7.5
    endloop
  endfacet
  facet normal 1 0 0
    outer loop
      vertex 50 14.0192 7.5
      vertex 50 0 0
      vertex 50 30 0
    endloop
  endfacet
  facet normal 1 0 0
    outer loop
      vertex 50 0 0
      vertex 50 8.66025 7.5
      vertex 50 0 15
    endloop
  endfacet
  facet normal 0 0 1
    outer loop
      vertex 50 30 15
      vertex 47.3205 18.6603 15
      vertex 50 14.0192 15
    endloop
  endfacet
  facet normal 0 0 1
    outer loop
      vertex 50 30 15
      vertex 30 8.66025 15
      vertex 47.3205 18.6603 15
    endloop
  endfacet
  facet normal 0 -0 1
    outer loop
      vertex 30 8.66025 15
      vertex 50 30 15
      vertex 0 30 15
    endloop
  endfacet
  facet normal 0 0 1
    outer loop
      vertex 0 0 15
      vertex 30 8.66025 15
      vertex 0 30 15
    endloop
  endfacet
  facet normal 0 0 1
    outer loop
      vertex 30 8.66025 15
      vertex 0 0 15
      vertex 35 0 15
    endloop
  endfacet
  facet normal 0 0 1
    outer loop
      vertex 50 8.66025 15
      vertex 35 0 15
      vertex 50 0 15
    endloop
  endfacet
  facet normal 0 0 -1
    outer loop
      vertex 0 0 0
      vertex 50 30 0
      vertex 50 0 0
    endloop
  endfacet
  facet normal -0 0 -1
    outer loop
      vertex 50 30 0
      vertex 0 0 0
      vertex 0 30 0
    endloop
  endfacet
  facet normal -1 0 0
    outer loop
      vertex 0 0 0
      vertex 0 30 15
      vertex 0 30 0
    endloop
  endfacet
  facet normal -1 -0 0
    outer loop
      vertex 0 30 15
      vertex 0 0 0
      vertex 0 0 15
    endloop
  endfacet
  facet normal 0 1 -0
    outer loop
      vertex 50 30 0
      vertex 0 30 15
      vertex 50 30 15
    endloop
  endfacet
  facet normal 0 1 0
    outer loop
      vertex 0 30 15
      vertex 50 30 0
      vertex 0 30 0
    endloop
  endfacet
  facet normal 0 -1 0
    outer loop
      vertex 0 0 0
      vertex 35 0 15
      vertex 0 0 15
    endloop
  endfacet
  facet normal 0 -1 0
    outer loop
      vertex 50 0 0
      vertex 35 0 15
      vertex 0 0 0
    endloop
  endfacet
  facet normal 0 -1 0
    outer loop
      vertex 35 0 15
      vertex 50 0 0
      vertex 50 0 15
    endloop
  endfacet
  facet normal 0.2148 0.968883 0.122992
    outer loop
      vertex 42.5652 -7.9523 15
      vertex 40.3268 -11.2643 45
      vertex 41.2826 -11.4762 45
    endloop
  endfacet
  facet normal -0.946494 -0.298365 0.122993
    outer loop
      vertex 36.307 -15.6512 45
      vertex 32.6139 -16.3024 15
      vertex 36.6013 -16.5848 45
    endloop
  endfacet
  facet normal -0.298365 0.946494 0.122992
    outer loop
      vertex 38.6976 -7.61394 15
      vertex 38.4152 -11.6013 45
      vertex 39.3488 -11.307 45
    endloop
  endfacet
  facet normal 0.946494 0.298365 0.122993
    outer loop
      vertex 47.3861 -13.6976 15
      vertex 43.3987 -13.4152 45
      vertex 43.693 -14.3488 45
    endloop
  endfacet
  facet normal 0.946466 0.298457 0.122988
    outer loop
      vertex 46.7973 -11.8304 15
      vertex 43.3987 -13.4152 45
      vertex 47.3861 -13.6976 15
    endloop
  endfacet
  facet normal 0.670466 0.731676 0.122987
    outer loop
      vertex 44.3018 -8.85636 15
      vertex 42.8727 -12.5895 45
      vertex 45.7453 -10.1791 15
    endloop
  endfacet
  facet normal 0.670402 0.731734 0.122991
    outer loop
      vertex 42.8727 -12.5895 45
      vertex 44.3018 -8.85636 15
      vertex 42.1509 -11.9282 45
    endloop
  endfacet
  facet normal -0.298434 0.946473 0.122988
    outer loop
      vertex 38.6976 -7.61394 15
      vertex 36.8304 -8.20269 15
      vertex 38.4152 -11.6013 45
    endloop
  endfacet
  facet normal 0.0432856 -0.991463 0.122992
    outer loop
      vertex 40.6512 -18.693 45
      vertex 39.3463 -22.4715 15
      vertex 41.3024 -22.3861 15
    endloop
  endfacet
  facet normal -0.5332 0.837002 0.122989
    outer loop
      vertex 36.8304 -8.20269 15
      vertex 37.5895 -12.1273 45
      vertex 38.4152 -11.6013 45
    endloop
  endfacet
  facet normal -0.533215 0.836992 0.122988
    outer loop
      vertex 37.5895 -12.1273 45
      vertex 36.8304 -8.20269 15
      vertex 35.1791 -9.25467 15
    endloop
  endfacet
  facet normal -0.968883 0.2148 0.122992
    outer loop
      vertex 36.4762 -13.7174 45
      vertex 32.9523 -12.4348 15
      vertex 36.2643 -14.6732 45
    endloop
  endfacet
  facet normal -0.991463 -0.0432878 0.122992
    outer loop
      vertex 36.2643 -14.6732 45
      vertex 32.5285 -14.3463 15
      vertex 36.307 -15.6512 45
    endloop
  endfacet
  facet normal 0.991463 0.0432856 0.122992
    outer loop
      vertex 47.3861 -13.6976 15
      vertex 43.693 -14.3488 45
      vertex 47.4715 -15.6537 15
    endloop
  endfacet
  facet normal 0.458236 0.88028 0.122992
    outer loop
      vertex 42.5652 -7.9523 15
      vertex 41.2826 -11.4762 45
      vertex 42.1509 -11.9282 45
    endloop
  endfacet
  facet normal 0.298365 -0.946494 0.122993
    outer loop
      vertex 41.5848 -18.3987 45
      vertex 40.6512 -18.693 45
      vertex 41.3024 -22.3861 15
    endloop
  endfacet
  facet normal 0.836987 0.533223 0.122987
    outer loop
      vertex 42.8727 -12.5895 45
      vertex 46.7973 -11.8304 15
      vertex 45.7453 -10.1791 15
    endloop
  endfacet
  facet normal 0.837002 0.5332 0.122988
    outer loop
      vertex 46.7973 -11.8304 15
      vertex 42.8727 -12.5895 45
      vertex 43.3987 -13.4152 45
    endloop
  endfacet
  facet normal 0.88028 -0.458236 0.122992
    outer loop
      vertex 43.5238 -16.2826 45
      vertex 43.0718 -17.1509 45
      vertex 47.0477 -17.5652 15
    endloop
  endfacet
  facet normal -0.0432878 0.991463 0.122991
    outer loop
      vertex 40.6537 -7.52854 15
      vertex 39.3488 -11.307 45
      vertex 40.3268 -11.2643 45
    endloop
  endfacet
  facet normal -0.731693 0.670447 0.122987
    outer loop
      vertex 33.8564 -10.6982 15
      vertex 37.5895 -12.1273 45
      vertex 35.1791 -9.25467 15
    endloop
  endfacet
  facet normal -0.731734 0.670402 0.12299
    outer loop
      vertex 37.5895 -12.1273 45
      vertex 33.8564 -10.6982 15
      vertex 36.9282 -12.8491 45
    endloop
  endfacet
  facet normal 0.298457 -0.946466 0.122988
    outer loop
      vertex 41.5848 -18.3987 45
      vertex 41.3024 -22.3861 15
      vertex 43.1696 -21.7973 15
    endloop
  endfacet
  facet normal -0.458276 -0.880259 0.12299
    outer loop
      vertex 37.8491 -18.0718 45
      vertex 35.6982 -21.1436 15
      vertex 37.4348 -22.0477 15
    endloop
  endfacet
  facet normal -0.991463 -0.0432856 0.122992
    outer loop
      vertex 36.307 -15.6512 45
      vertex 32.5285 -14.3463 15
      vertex 32.6139 -16.3024 15
    endloop
  endfacet
  facet normal 0.880259 -0.458276 0.12299
    outer loop
      vertex 47.0477 -17.5652 15
      vertex 43.0718 -17.1509 45
      vertex 46.1436 -19.3018 15
    endloop
  endfacet
  facet normal 0.731734 -0.670402 0.12299
    outer loop
      vertex 42.4105 -17.8727 45
      vertex 46.1436 -19.3018 15
      vertex 43.0718 -17.1509 45
    endloop
  endfacet
  facet normal 0.731686 -0.670455 0.122987
    outer loop
      vertex 46.1436 -19.3018 15
      vertex 42.4105 -17.8727 45
      vertex 44.8209 -20.7453 15
    endloop
  endfacet
  facet normal -0.96888 0.214811 0.122992
    outer loop
      vertex 32.9523 -12.4348 15
      vertex 32.5285 -14.3463 15
      vertex 36.2643 -14.6732 45
    endloop
  endfacet
  facet normal -0.880259 0.458276 0.12299
    outer loop
      vertex 33.8564 -10.6982 15
      vertex 32.9523 -12.4348 15
      vertex 36.9282 -12.8491 45
    endloop
  endfacet
  facet normal -0.946466 -0.298457 0.122988
    outer loop
      vertex 36.6013 -16.5848 45
      vertex 32.6139 -16.3024 15
      vertex 33.2027 -18.1696 15
    endloop
  endfacet
  facet normal 0.96888 -0.214811 0.122992
    outer loop
      vertex 47.4715 -15.6537 15
      vertex 43.7357 -15.3268 45
      vertex 47.0477 -17.5652 15
    endloop
  endfacet
  facet normal 0.991463 0.0432878 0.122992
    outer loop
      vertex 47.4715 -15.6537 15
      vertex 43.693 -14.3488 45
      vertex 43.7357 -15.3268 45
    endloop
  endfacet
  facet normal 0.5332 -0.837002 0.122988
    outer loop
      vertex 43.1696 -21.7973 15
      vertex 42.4105 -17.8727 45
      vertex 41.5848 -18.3987 45
    endloop
  endfacet
  facet normal 0.533223 -0.836987 0.122987
    outer loop
      vertex 42.4105 -17.8727 45
      vertex 43.1696 -21.7973 15
      vertex 44.8209 -20.7453 15
    endloop
  endfacet
  facet normal -0.670455 -0.731686 0.122987
    outer loop
      vertex 35.6982 -21.1436 15
      vertex 37.1273 -17.4105 45
      vertex 34.2547 -19.8209 15
    endloop
  endfacet
  facet normal -0.670402 -0.731734 0.12299
    outer loop
      vertex 37.1273 -17.4105 45
      vertex 35.6982 -21.1436 15
      vertex 37.8491 -18.0718 45
    endloop
  endfacet
  facet normal 0.45826 0.880268 0.12299
    outer loop
      vertex 42.5652 -7.9523 15
      vertex 42.1509 -11.9282 45
      vertex 44.3018 -8.85636 15
    endloop
  endfacet
  facet normal -0.0432856 0.991463 0.122991
    outer loop
      vertex 40.6537 -7.52854 15
      vertex 38.6976 -7.61394 15
      vertex 39.3488 -11.307 45
    endloop
  endfacet
  facet normal 0.0432878 -0.991463 0.122992
    outer loop
      vertex 39.6732 -18.7357 45
      vertex 39.3463 -22.4715 15
      vertex 40.6512 -18.693 45
    endloop
  endfacet
  facet normal 0 0 -1
    outer loop
      vertex 47.0477 -17.5652 15
      vertex 47.3861 -13.6976 15
      vertex 47.4715 -15.6537 15
    endloop
  endfacet
  facet normal 0 0 -1
    outer loop
      vertex 47.0477 -17.5652 15
      vertex 46.7973 -11.8304 15
      vertex 47.3861 -13.6976 15
    endloop
  endfacet
  facet normal 0 0 -1
    outer loop
      vertex 46.1436 -19.3018 15
      vertex 46.7973 -11.8304 15
      vertex 47.0477 -17.5652 15
    endloop
  endfacet
  facet normal 0 0 -1
    outer loop
      vertex 46.1436 -19.3018 15
      vertex 45.7453 -10.1791 15
      vertex 46.7973 -11.8304 15
    endloop
  endfacet
  facet normal 0 0 -1
    outer loop
      vertex 44.8209 -20.7453 15
      vertex 45.7453 -10.1791 15
      vertex 46.1436 -19.3018 15
    endloop
  endfacet
  facet normal 0 0 -1
    outer loop
      vertex 44.8209 -20.7453 15
      vertex 44.3018 -8.85636 15
      vertex 45.7453 -10.1791 15
    endloop
  endfacet
  facet normal 0 0 -1
    outer loop
      vertex 43.1696 -21.7973 15
      vertex 44.3018 -8.85636 15
      vertex 44.8209 -20.7453 15
    endloop
  endfacet
  facet normal 0 0 -1
    outer loop
      vertex 43.1696 -21.7973 15
      vertex 42.5652 -7.9523 15
      vertex 44.3018 -8.85636 15
    endloop
  endfacet
  facet normal 0 0 -1
    outer loop
      vertex 41.3024 -22.3861 15
      vertex 42.5652 -7.9523 15
      vertex 43.1696 -21.7973 15
    endloop
  endfacet
  facet normal 0 0 -1
    outer loop
      vertex 41.3024 -22.3861 15
      vertex 40.6537 -7.52854 15
      vertex 42.5652 -7.9523 15
    endloop
  endfacet
  facet normal 0 0 -1
    outer loop
      vertex 39.3463 -22.4715 15
      vertex 40.6537 -7.52854 15
      vertex 41.3024 -22.3861 15
    endloop
  endfacet
  facet normal 0 0 -1
    outer loop
      vertex 39.3463 -22.4715 15
      vertex 38.6976 -7.61394 15
      vertex 40.6537 -7.52854 15
    endloop
  endfacet
  facet normal 0 0 -1
    outer loop
      vertex 37.4348 -22.0477 15
      vertex 38.6976 -7.61394 15
      vertex 39.3463 -22.4715 15
    endloop
  endfacet
  facet normal 0 0 -1
    outer loop
      vertex 37.4348 -22.0477 15
      vertex 36.8304 -8.20269 15
      vertex 38.6976 -7.61394 15
    endloop
  endfacet
  facet normal 0 0 -1
    outer loop
      vertex 35.6982 -21.1436 15
      vertex 36.8304 -8.20269 15
      vertex 37.4348 -22.0477 15
    endloop
  endfacet
  facet normal 0 0 -1
    outer loop
      vertex 35.6982 -21.1436 15
      vertex 35.1791 -9.25467 15
      vertex 36.8304 -8.20269 15
    endloop
  endfacet
  facet normal 0 0 -1
    outer loop
      vertex 34.2547 -19.8209 15
      vertex 35.1791 -9.25467 15
      vertex 35.6982 -21.1436 15
    endloop
  endfacet
  facet normal 0 0 -1
    outer loop
      vertex 34.2547 -19.8209 15
      vertex 33.8564 -10.6982 15
      vertex 35.1791 -9.25467 15
    endloop
  endfacet
  facet normal 0 0 -1
    outer loop
      vertex 33.2027 -18.1696 15
      vertex 33.8564 -10.6982 15
      vertex 34.2547 -19.8209 15
    endloop
  endfacet
  facet normal 0 0 -1
    outer loop
      vertex 33.2027 -18.1696 15
      vertex 32.9523 -12.4348 15
      vertex 33.8564 -10.6982 15
    endloop
  endfacet
  facet normal 0 0 -1
    outer loop
      vertex 32.6139 -16.3024 15
      vertex 32.9523 -12.4348 15
      vertex 33.2027 -18.1696 15
    endloop
  endfacet
  facet normal 0 0 -1
    outer loop
      vertex 32.9523 -12.4348 15
      vertex 32.6139 -16.3024 15
      vertex 32.5285 -14.3463 15
    endloop
  endfacet
  facet normal 0.968883 -0.2148 0.122992
    outer loop
      vertex 43.7357 -15.3268 45
      vertex 43.5238 -16.2826 45
      vertex 47.0477 -17.5652 15
    endloop
  endfacet
  facet normal -0.214811 -0.96888 0.122992
    outer loop
      vertex 39.6732 -18.7357 45
      vertex 37.4348 -22.0477 15
      vertex 39.3463 -22.4715 15
    endloop
  endfacet
  facet normal -0.458236 -0.88028 0.122992
    outer loop
      vertex 37.8491 -18.0718 45
      vertex 37.4348 -22.0477 15
      vertex 38.7174 -18.5238 45
    endloop
  endfacet
  facet normal 0.214792 0.968885 0.122991
    outer loop
      vertex 40.6537 -7.52854 15
      vertex 40.3268 -11.2643 45
      vertex 42.5652 -7.9523 15
    endloop
  endfacet
  facet normal -0.88028 0.458236 0.122992
    outer loop
      vertex 36.9282 -12.8491 45
      vertex 32.9523 -12.4348 15
      vertex 36.4762 -13.7174 45
    endloop
  endfacet
  facet normal 0 0 1
    outer loop
      vertex 43.693 -14.3488 45
      vertex 43.5238 -16.2826 45
      vertex 43.7357 -15.3268 45
    endloop
  endfacet
  facet normal 0 0 1
    outer loop
      vertex 43.3987 -13.4152 45
      vertex 43.5238 -16.2826 45
      vertex 43.693 -14.3488 45
    endloop
  endfacet
  facet normal 0 0 1
    outer loop
      vertex 43.3987 -13.4152 45
      vertex 43.0718 -17.1509 45
      vertex 43.5238 -16.2826 45
    endloop
  endfacet
  facet normal 0 0 1
    outer loop
      vertex 42.8727 -12.5895 45
      vertex 43.0718 -17.1509 45
      vertex 43.3987 -13.4152 45
    endloop
  endfacet
  facet normal 0 0 1
    outer loop
      vertex 42.8727 -12.5895 45
      vertex 42.4105 -17.8727 45
      vertex 43.0718 -17.1509 45
    endloop
  endfacet
  facet normal 0 0 1
    outer loop
      vertex 42.1509 -11.9282 45
      vertex 42.4105 -17.8727 45
      vertex 42.8727 -12.5895 45
    endloop
  endfacet
  facet normal 0 0 1
    outer loop
      vertex 42.1509 -11.9282 45
      vertex 41.5848 -18.3987 45
      vertex 42.4105 -17.8727 45
    endloop
  endfacet
  facet normal 0 0 1
    outer loop
      vertex 41.2826 -11.4762 45
      vertex 41.5848 -18.3987 45
      vertex 42.1509 -11.9282 45
    endloop
  endfacet
  facet normal 0 0 1
    outer loop
      vertex 41.2826 -11.4762 45
      vertex 40.6512 -18.693 45
      vertex 41.5848 -18.3987 45
    endloop
  endfacet
  facet normal 0 0 1
    outer loop
      vertex 40.3268 -11.2643 45
      vertex 40.6512 -18.693 45
      vertex 41.2826 -11.4762 45
    endloop
  endfacet
  facet normal 0 0 1
    outer loop
      vertex 40.3268 -11.2643 45
      vertex 39.6732 -18.7357 45
      vertex 40.6512 -18.693 45
    endloop
  endfacet
  facet normal -0 0 1
    outer loop
      vertex 39.3488 -11.307 45
      vertex 39.6732 -18.7357 45
      vertex 40.3268 -11.2643 45
    endloop
  endfacet
  facet normal 0 0 1
    outer loop
      vertex 39.3488 -11.307 45
      vertex 38.7174 -18.5238 45
      vertex 39.6732 -18.7357 45
    endloop
  endfacet
  facet normal -0 0 1
    outer loop
      vertex 38.4152 -11.6013 45
      vertex 38.7174 -18.5238 45
      vertex 39.3488 -11.307 45
    endloop
  endfacet
  facet normal 0 0 1
    outer loop
      vertex 38.4152 -11.6013 45
      vertex 37.8491 -18.0718 45
      vertex 38.7174 -18.5238 45
    endloop
  endfacet
  facet normal -0 0 1
    outer loop
      vertex 37.5895 -12.1273 45
      vertex 37.8491 -18.0718 45
      vertex 38.4152 -11.6013 45
    endloop
  endfacet
  facet normal 0 0 1
    outer loop
      vertex 37.5895 -12.1273 45
      vertex 37.1273 -17.4105 45
      vertex 37.8491 -18.0718 45
    endloop
  endfacet
  facet normal -0 0 1
    outer loop
      vertex 36.9282 -12.8491 45
      vertex 37.1273 -17.4105 45
      vertex 37.5895 -12.1273 45
    endloop
  endfacet
  facet normal 0 0 1
    outer loop
      vertex 36.9282 -12.8491 45
      vertex 36.6013 -16.5848 45
      vertex 37.1273 -17.4105 45
    endloop
  endfacet
  facet normal -0 0 1
    outer loop
      vertex 36.4762 -13.7174 45
      vertex 36.6013 -16.5848 45
      vertex 36.9282 -12.8491 45
    endloop
  endfacet
  facet normal 0 0 1
    outer loop
      vertex 36.4762 -13.7174 45
      vertex 36.307 -15.6512 45
      vertex 36.6013 -16.5848 45
    endloop
  endfacet
  facet normal 0 -0 1
    outer loop
      vertex 36.307 -15.6512 45
      vertex 36.4762 -13.7174 45
      vertex 36.2643 -14.6732 45
    endloop
  endfacet
  facet normal -0.2148 -0.968883 0.122992
    outer loop
      vertex 38.7174 -18.5238 45
      vertex 37.4348 -22.0477 15
      vertex 39.6732 -18.7357 45
    endloop
  endfacet
  facet normal -0.837002 -0.5332 0.122988
    outer loop
      vertex 33.2027 -18.1696 15
      vertex 37.1273 -17.4105 45
      vertex 36.6013 -16.5848 45
    endloop
  endfacet
  facet normal -0.836987 -0.533223 0.122987
    outer loop
      vertex 37.1273 -17.4105 45
      vertex 33.2027 -18.1696 15
      vertex 34.2547 -19.8209 15
    endloop
  endfacet
  facet normal 0 0 1
    outer loop
      vertex 47.3205 18.6603 17.5
      vertex 35 0 17.5
      vertex 52.3205 10 17.5
    endloop
  endfacet
  facet normal 0 -0 1
    outer loop
      vertex 35 0 17.5
      vertex 47.3205 18.6603 17.5
      vertex 30 8.66025 17.5
    endloop
  endfacet
  facet normal 0.866029 0.499994 0
    outer loop
      vertex 47.3205 18.6603 17.5
      vertex 50 14.0192 15
      vertex 47.3205 18.6603 15
    endloop
  endfacet
  facet normal 0.866027 0.499998 -9.04596e-06
    outer loop
      vertex 52.3205 10 17.5
      vertex 50 14.0192 15
      vertex 47.3205 18.6603 17.5
    endloop
  endfacet
  facet normal 0.866024 0.500002 -0
    outer loop
      vertex 52.3205 10 7.5
      vertex 50 14.0192 15
      vertex 52.3205 10 17.5
    endloop
  endfacet
  facet normal 0.866024 0.500002 0
    outer loop
      vertex 50 14.0192 15
      vertex 52.3205 10 7.5
      vertex 50 14.0192 7.5
    endloop
  endfacet
  facet normal -0.866025 -0.5 0
    outer loop
      vertex 35 0 15
      vertex 30 8.66025 17.5
      vertex 30 8.66025 15
    endloop
  endfacet
  facet normal -0.866025 -0.5 0
    outer loop
      vertex 30 8.66025 17.5
      vertex 35 0 15
      vertex 35 0 17.5
    endloop
  endfacet
  facet normal -0.500002 0.866024 0
    outer loop
      vertex 47.3205 18.6603 15
      vertex 30 8.66025 17.5
      vertex 47.3205 18.6603 17.5
    endloop
  endfacet
  facet normal -0.500002 0.866024 0
    outer loop
      vertex 30 8.66025 17.5
      vertex 47.3205 18.6603 15
      vertex 30 8.66025 15
    endloop
  endfacet
  facet normal -0 0 -1
    outer loop
      vertex 52.3205 10 7.5
      vertex 50 8.66025 7.5
      vertex 50 14.0192 7.5
    endloop
  endfacet
  facet normal 0.5 -0.866026 0
    outer loop
      vertex 50 8.66025 15
      vertex 35 0 17.5
      vertex 35 0 15
    endloop
  endfacet
  facet normal 0.5 -0.866025 2.7975e-06
    outer loop
      vertex 35 0 17.5
      vertex 50 8.66025 15
      vertex 52.3205 10 17.5
    endloop
  endfacet
  facet normal 0.500002 -0.866024 0
    outer loop
      vertex 52.3205 10 7.5
      vertex 50 8.66025 15
      vertex 50 8.66025 7.5
    endloop
  endfacet
  facet normal 0.500002 -0.866024 0
    outer loop
      vertex 50 8.66025 15
      vertex 52.3205 10 7.5
      vertex 52.3205 10 17.5
    endloop
  endfacet
  facet normal -0.5616 0.77294 0.295245
    outer loop
      vertex 19.5729 -12.1468 17
      vertex 18.5365 -13.5734 18.7634
      vertex 19.75 -12.6917 18.7634
    endloop
  endfacet
  facet normal -0.5616 0.77294 -0.295245
    outer loop
      vertex 19.75 -12.6917 15.2366
      vertex 18.5365 -13.5734 15.2366
      vertex 19.5729 -12.1468 17
    endloop
  endfacet
  facet normal -0.5616 -0.77294 0.295245
    outer loop
      vertex 19.75 -17.3083 18.7634
      vertex 18.5365 -16.4266 18.7634
      vertex 19.5729 -17.8532 17
    endloop
  endfacet
  facet normal -0.577343 -0.187618 0.794654
    outer loop
      vertex 19.5729 -15 19.8532
      vertex 18.0729 -15 18.7634
      vertex 18.5365 -16.4266 18.7634
    endloop
  endfacet
  facet normal 0.356828 0.491109 0.794661
    outer loop
      vertex 21.25 -12.6917 18.7634
      vertex 21.25 -14.4551 19.8532
      vertex 22.4635 -13.5734 18.7634
    endloop
  endfacet
  facet normal 0 0.955426 0.295232
    outer loop
      vertex 21.4271 -12.1468 17
      vertex 19.75 -12.6917 18.7634
      vertex 21.25 -12.6917 18.7634
    endloop
  endfacet
  facet normal 0 0.955426 0.295232
    outer loop
      vertex 19.75 -12.6917 18.7634
      vertex 21.4271 -12.1468 17
      vertex 19.5729 -12.1468 17
    endloop
  endfacet
  facet normal -0.5616 -0.77294 -0.295245
    outer loop
      vertex 19.5729 -17.8532 17
      vertex 18.5365 -16.4266 15.2366
      vertex 19.75 -17.3083 15.2366
    endloop
  endfacet
  facet normal 0.908668 0.295192 -0.29527
    outer loop
      vertex 22.9271 -13.2366 17
      vertex 22.9122 -14.191 16
      vertex 22.6642 -13.4276 16
    endloop
  endfacet
  facet normal 0.908658 0.295208 -0.295286
    outer loop
      vertex 22.9122 -14.191 16
      vertex 22.9271 -13.2366 17
      vertex 23.5 -15 17
    endloop
  endfacet
  facet normal 0.908654 0.295284 -0.295222
    outer loop
      vertex 23.1751 -15 16
      vertex 22.9122 -14.191 16
      vertex 23.5 -15 17
    endloop
  endfacet
  facet normal -0.356832 -0.491115 0.794656
    outer loop
      vertex 20.2135 -15.8817 19.8532
      vertex 18.5365 -16.4266 18.7634
      vertex 19.75 -17.3083 18.7634
    endloop
  endfacet
  facet normal 0.356683 0.490936 -0.794833
    outer loop
      vertex 21.555 -13.0501 15.1521
      vertex 21.25 -12.6917 15.2366
      vertex 21.8296 -13.1128 15.2366
    endloop
  endfacet
  facet normal 0.356925 0.491094 -0.794626
    outer loop
      vertex 21.25 -12.6917 15.2366
      vertex 21.555 -13.0501 15.1521
      vertex 21.25 -13.2933 14.8648
    endloop
  endfacet
  facet normal 0.908658 0.295285 0.295208
    outer loop
      vertex 23.5 -15 17
      vertex 22.4635 -13.5734 18.7634
      vertex 22.9271 -15 18.7634
    endloop
  endfacet
  facet normal 0.5616 0.77294 0.295245
    outer loop
      vertex 21.4271 -12.1468 17
      vertex 21.25 -12.6917 18.7634
      vertex 22.4635 -13.5734 18.7634
    endloop
  endfacet
  facet normal 0.561574 -0.77295 0.295268
    outer loop
      vertex 22.4635 -16.4266 18.7634
      vertex 21.4271 -17.8532 17
      vertex 22.9271 -16.7634 17
    endloop
  endfacet
  facet normal 0.561434 0.773056 -0.295255
    outer loop
      vertex 22.4147 -13.2464 16
      vertex 22.9271 -13.2366 17
      vertex 22.6642 -13.4276 16
    endloop
  endfacet
  facet normal 0.561564 0.772937 -0.29532
    outer loop
      vertex 22.9271 -13.2366 17
      vertex 22.4147 -13.2464 16
      vertex 21.4271 -12.1468 17
    endloop
  endfacet
  facet normal 0.561707 0.772902 -0.295141
    outer loop
      vertex 21.4271 -12.1468 17
      vertex 22.4147 -13.2464 16
      vertex 22.1884 -13.1947 15.7047
    endloop
  endfacet
  facet normal 0.908678 -0.295215 0.295215
    outer loop
      vertex 22.9271 -15 18.7634
      vertex 22.9271 -16.7634 17
      vertex 23.5 -15 17
    endloop
  endfacet
  facet normal 0 0 1
    outer loop
      vertex 21.25 -14.4551 19.8532
      vertex 21.25 -15.5449 19.8532
      vertex 21.4271 -15 19.8532
    endloop
  endfacet
  facet normal 0 0 1
    outer loop
      vertex 20.7865 -14.1183 19.8532
      vertex 21.25 -15.5449 19.8532
      vertex 21.25 -14.4551 19.8532
    endloop
  endfacet
  facet normal 0 0 1
    outer loop
      vertex 20.7865 -14.1183 19.8532
      vertex 20.7865 -15.8817 19.8532
      vertex 21.25 -15.5449 19.8532
    endloop
  endfacet
  facet normal -0 0 1
    outer loop
      vertex 20.2135 -14.1183 19.8532
      vertex 20.7865 -15.8817 19.8532
      vertex 20.7865 -14.1183 19.8532
    endloop
  endfacet
  facet normal 0 0 1
    outer loop
      vertex 20.2135 -14.1183 19.8532
      vertex 20.2135 -15.8817 19.8532
      vertex 20.7865 -15.8817 19.8532
    endloop
  endfacet
  facet normal -0 0 1
    outer loop
      vertex 19.75 -14.4551 19.8532
      vertex 20.2135 -15.8817 19.8532
      vertex 20.2135 -14.1183 19.8532
    endloop
  endfacet
  facet normal 0 0 1
    outer loop
      vertex 19.75 -14.4551 19.8532
      vertex 19.75 -15.5449 19.8532
      vertex 20.2135 -15.8817 19.8532
    endloop
  endfacet
  facet normal 0 -0 1
    outer loop
      vertex 19.75 -15.5449 19.8532
      vertex 19.75 -14.4551 19.8532
      vertex 19.5729 -15 19.8532
    endloop
  endfacet
  facet normal 0 -0.607053 0.794661
    outer loop
      vertex 20.2135 -15.8817 19.8532
      vertex 21.25 -17.3083 18.7634
      vertex 20.7865 -15.8817 19.8532
    endloop
  endfacet
  facet normal 0 -0.607053 0.794661
    outer loop
      vertex 21.25 -17.3083 18.7634
      vertex 20.2135 -15.8817 19.8532
      vertex 19.75 -17.3083 18.7634
    endloop
  endfacet
  facet normal -0.561574 -0.77295 0.295268
    outer loop
      vertex 18.5365 -16.4266 18.7634
      vertex 18.0729 -16.7634 17
      vertex 19.5729 -17.8532 17
    endloop
  endfacet
  facet normal -0.561574 -0.77295 -0.295268
    outer loop
      vertex 19.5729 -17.8532 17
      vertex 18.0729 -16.7634 17
      vertex 18.5365 -16.4266 15.2366
    endloop
  endfacet
  facet normal 0 -0.955426 -0.295232
    outer loop
      vertex 19.75 -17.3083 15.2366
      vertex 21.4271 -17.8532 17
      vertex 19.5729 -17.8532 17
    endloop
  endfacet
  facet normal 0 -0.955426 -0.295232
    outer loop
      vertex 21.4271 -17.8532 17
      vertex 19.75 -17.3083 15.2366
      vertex 21.25 -17.3083 15.2366
    endloop
  endfacet
  facet normal 0.577337 0.187616 0.794659
    outer loop
      vertex 22.4635 -13.5734 18.7634
      vertex 21.25 -14.4551 19.8532
      vertex 22.9271 -15 18.7634
    endloop
  endfacet
  facet normal 0.57734 0.187643 0.79465
    outer loop
      vertex 22.9271 -15 18.7634
      vertex 21.25 -14.4551 19.8532
      vertex 21.4271 -15 19.8532
    endloop
  endfacet
  facet normal 0.561574 0.77295 0.295268
    outer loop
      vertex 22.9271 -13.2366 17
      vertex 21.4271 -12.1468 17
      vertex 22.4635 -13.5734 18.7634
    endloop
  endfacet
  facet normal 0.908662 0.295209 0.295272
    outer loop
      vertex 22.9271 -13.2366 17
      vertex 22.4635 -13.5734 18.7634
      vertex 23.5 -15 17
    endloop
  endfacet
  facet normal -0.908637 -0.295278 0.295278
    outer loop
      vertex 18.0729 -15 18.7634
      vertex 18.0729 -16.7634 17
      vertex 18.5365 -16.4266 18.7634
    endloop
  endfacet
  facet normal 0.356858 0.491103 0.794651
    outer loop
      vertex 21.25 -12.6917 18.7634
      vertex 20.7865 -14.1183 19.8532
      vertex 21.25 -14.4551 19.8532
    endloop
  endfacet
  facet normal 0.561584 0.772962 -0.295217
    outer loop
      vertex 21.25 -12.6917 15.2366
      vertex 22.1884 -13.1947 15.7047
      vertex 21.8296 -13.1128 15.2366
    endloop
  endfacet
  facet normal 0.56159 0.772946 -0.295246
    outer loop
      vertex 22.1884 -13.1947 15.7047
      vertex 21.25 -12.6917 15.2366
      vertex 21.4271 -12.1468 17
    endloop
  endfacet
  facet normal -0.577324 0.187638 0.794663
    outer loop
      vertex 19.75 -14.4551 19.8532
      vertex 18.5365 -13.5734 18.7634
      vertex 19.5729 -15 19.8532
    endloop
  endfacet
  facet normal -0.561574 0.77295 -0.295268
    outer loop
      vertex 18.5365 -13.5734 15.2366
      vertex 18.0729 -13.2366 17
      vertex 19.5729 -12.1468 17
    endloop
  endfacet
  facet normal -0.356832 0.491115 -0.794656
    outer loop
      vertex 20.2135 -14.1183 14.1468
      vertex 18.5365 -13.5734 15.2366
      vertex 19.75 -12.6917 15.2366
    endloop
  endfacet
  facet normal 0.356858 -0.491103 0.794651
    outer loop
      vertex 21.25 -15.5449 19.8532
      vertex 20.7865 -15.8817 19.8532
      vertex 21.25 -17.3083 18.7634
    endloop
  endfacet
  facet normal 0.561564 -0.772937 -0.29532
    outer loop
      vertex 21.4271 -17.8532 17
      vertex 22.4147 -16.7536 16
      vertex 22.9271 -16.7634 17
    endloop
  endfacet
  facet normal 0.561707 -0.772902 -0.295141
    outer loop
      vertex 22.4147 -16.7536 16
      vertex 21.4271 -17.8532 17
      vertex 22.1884 -16.8053 15.7047
    endloop
  endfacet
  facet normal 0.561434 -0.773056 -0.295255
    outer loop
      vertex 22.9271 -16.7634 17
      vertex 22.4147 -16.7536 16
      vertex 22.6642 -16.5724 16
    endloop
  endfacet
  facet normal -0.356847 -0.491088 0.794665
    outer loop
      vertex 19.75 -15.5449 19.8532
      vertex 18.5365 -16.4266 18.7634
      vertex 20.2135 -15.8817 19.8532
    endloop
  endfacet
  facet normal 0.908637 -0.295278 0.295278
    outer loop
      vertex 22.9271 -15 18.7634
      vertex 22.4635 -16.4266 18.7634
      vertex 22.9271 -16.7634 17
    endloop
  endfacet
  facet normal -0.356832 -0.491115 -0.794656
    outer loop
      vertex 19.75 -17.3083 15.2366
      vertex 18.5365 -16.4266 15.2366
      vertex 20.2135 -15.8817 14.1468
    endloop
  endfacet
  facet normal 0.908637 -0.295279 -0.295279
    outer loop
      vertex 22.9271 -16.7634 17
      vertex 22.6642 -16.5724 16
      vertex 22.9271 -15.7634 16
    endloop
  endfacet
  facet normal 0.90868 -0.295196 -0.29523
    outer loop
      vertex 23.5 -15 17
      vertex 22.9271 -15.7634 16
      vertex 23.1751 -15 16
    endloop
  endfacet
  facet normal 0.908678 -0.295215 -0.295215
    outer loop
      vertex 22.9271 -15.7634 16
      vertex 23.5 -15 17
      vertex 22.9271 -16.7634 17
    endloop
  endfacet
  facet normal -0.577343 -0.187618 -0.794654
    outer loop
      vertex 18.5365 -16.4266 15.2366
      vertex 18.0729 -15 15.2366
      vertex 19.5729 -15 14.1468
    endloop
  endfacet
  facet normal -0.356847 0.491088 0.794665
    outer loop
      vertex 20.2135 -14.1183 19.8532
      vertex 18.5365 -13.5734 18.7634
      vertex 19.75 -14.4551 19.8532
    endloop
  endfacet
  facet normal 0 0.955426 -0.295232
    outer loop
      vertex 21.25 -12.6917 15.2366
      vertex 19.5729 -12.1468 17
      vertex 21.4271 -12.1468 17
    endloop
  endfacet
  facet normal 0 0.955426 -0.295232
    outer loop
      vertex 19.5729 -12.1468 17
      vertex 21.25 -12.6917 15.2366
      vertex 19.75 -12.6917 15.2366
    endloop
  endfacet
  facet normal -1.36499e-06 0.607053 -0.794662
    outer loop
      vertex 19.75 -12.6917 15.2366
      vertex 20.9862 -13.5037 14.6163
      vertex 20.2155 -14.1183 14.1468
    endloop
  endfacet
  facet normal 0 0.607053 -0.794661
    outer loop
      vertex 19.75 -12.6917 15.2366
      vertex 20.2155 -14.1183 14.1468
      vertex 20.2135 -14.1183 14.1468
    endloop
  endfacet
  facet normal 0 0.607054 -0.794661
    outer loop
      vertex 20.9862 -13.5037 14.6163
      vertex 19.75 -12.6917 15.2366
      vertex 21.25 -12.6917 15.2366
    endloop
  endfacet
  facet normal 0 -0.607054 -0.794661
    outer loop
      vertex 19.75 -17.3083 15.2366
      vertex 20.9862 -16.4963 14.6163
      vertex 21.25 -17.3083 15.2366
    endloop
  endfacet
  facet normal -1.36499e-06 -0.607053 -0.794662
    outer loop
      vertex 20.9862 -16.4963 14.6163
      vertex 19.75 -17.3083 15.2366
      vertex 20.2155 -15.8817 14.1468
    endloop
  endfacet
  facet normal -0 -0.607053 -0.794661
    outer loop
      vertex 20.2155 -15.8817 14.1468
      vertex 19.75 -17.3083 15.2366
      vertex 20.2135 -15.8817 14.1468
    endloop
  endfacet
  facet normal -0.356847 0.491088 -0.794665
    outer loop
      vertex 19.75 -14.4551 14.1468
      vertex 18.5365 -13.5734 15.2366
      vertex 20.2135 -14.1183 14.1468
    endloop
  endfacet
  facet normal -0.908637 -0.295278 -0.295278
    outer loop
      vertex 18.5365 -16.4266 15.2366
      vertex 18.0729 -16.7634 17
      vertex 18.0729 -15 15.2366
    endloop
  endfacet
  facet normal -0.577324 -0.187638 0.794663
    outer loop
      vertex 19.5729 -15 19.8532
      vertex 18.5365 -16.4266 18.7634
      vertex 19.75 -15.5449 19.8532
    endloop
  endfacet
  facet normal 0.356828 -0.491109 0.794661
    outer loop
      vertex 21.25 -15.5449 19.8532
      vertex 21.25 -17.3083 18.7634
      vertex 22.4635 -16.4266 18.7634
    endloop
  endfacet
  facet normal 0.5616 -0.77294 0.295245
    outer loop
      vertex 22.4635 -16.4266 18.7634
      vertex 21.25 -17.3083 18.7634
      vertex 21.4271 -17.8532 17
    endloop
  endfacet
  facet normal -0.908637 0.295278 -0.295278
    outer loop
      vertex 18.5365 -13.5734 15.2366
      vertex 18.0729 -15 15.2366
      vertex 18.0729 -13.2366 17
    endloop
  endfacet
  facet normal -0.577343 0.187618 0.794654
    outer loop
      vertex 18.5365 -13.5734 18.7634
      vertex 18.0729 -15 18.7634
      vertex 19.5729 -15 19.8532
    endloop
  endfacet
  facet normal -0.577343 0.187618 -0.794654
    outer loop
      vertex 19.5729 -15 14.1468
      vertex 18.0729 -15 15.2366
      vertex 18.5365 -13.5734 15.2366
    endloop
  endfacet
  facet normal 0.356864 -0.491106 -0.794646
    outer loop
      vertex 21.25 -17.3083 15.2366
      vertex 20.9862 -16.4963 14.6163
      vertex 21.25 -16.7067 14.8648
    endloop
  endfacet
  facet normal -0.577324 -0.187638 -0.794663
    outer loop
      vertex 19.75 -15.5449 14.1468
      vertex 18.5365 -16.4266 15.2366
      vertex 19.5729 -15 14.1468
    endloop
  endfacet
  facet normal -0.356847 -0.491088 -0.794665
    outer loop
      vertex 20.2135 -15.8817 14.1468
      vertex 18.5365 -16.4266 15.2366
      vertex 19.75 -15.5449 14.1468
    endloop
  endfacet
  facet normal 0 -0.955426 0.295232
    outer loop
      vertex 19.5729 -17.8532 17
      vertex 21.25 -17.3083 18.7634
      vertex 19.75 -17.3083 18.7634
    endloop
  endfacet
  facet normal 0 -0.955426 0.295232
    outer loop
      vertex 21.25 -17.3083 18.7634
      vertex 19.5729 -17.8532 17
      vertex 21.4271 -17.8532 17
    endloop
  endfacet
  facet normal 0.577337 -0.187616 0.794659
    outer loop
      vertex 22.9271 -15 18.7634
      vertex 21.25 -15.5449 19.8532
      vertex 22.4635 -16.4266 18.7634
    endloop
  endfacet
  facet normal 0.57734 -0.187643 0.79465
    outer loop
      vertex 21.4271 -15 19.8532
      vertex 21.25 -15.5449 19.8532
      vertex 22.9271 -15 18.7634
    endloop
  endfacet
  facet normal -0.908678 0.295215 -0.295215
    outer loop
      vertex 18.0729 -15 15.2366
      vertex 17.5 -15 17
      vertex 18.0729 -13.2366 17
    endloop
  endfacet
  facet normal -0.908678 -0.295215 -0.295215
    outer loop
      vertex 18.0729 -16.7634 17
      vertex 17.5 -15 17
      vertex 18.0729 -15 15.2366
    endloop
  endfacet
  facet normal -0.356832 0.491115 0.794656
    outer loop
      vertex 19.75 -12.6917 18.7634
      vertex 18.5365 -13.5734 18.7634
      vertex 20.2135 -14.1183 19.8532
    endloop
  endfacet
  facet normal 0 0.607053 0.794661
    outer loop
      vertex 21.25 -12.6917 18.7634
      vertex 20.2135 -14.1183 19.8532
      vertex 20.7865 -14.1183 19.8532
    endloop
  endfacet
  facet normal 0 0.607053 0.794661
    outer loop
      vertex 20.2135 -14.1183 19.8532
      vertex 21.25 -12.6917 18.7634
      vertex 19.75 -12.6917 18.7634
    endloop
  endfacet
  facet normal 0.356864 0.491106 -0.794646
    outer loop
      vertex 21.25 -13.2933 14.8648
      vertex 20.9862 -13.5037 14.6163
      vertex 21.25 -12.6917 15.2366
    endloop
  endfacet
  facet normal 0.356683 -0.490936 -0.794833
    outer loop
      vertex 21.25 -17.3083 15.2366
      vertex 21.555 -16.9499 15.1521
      vertex 21.8296 -16.8872 15.2366
    endloop
  endfacet
  facet normal 0.356925 -0.491094 -0.794626
    outer loop
      vertex 21.555 -16.9499 15.1521
      vertex 21.25 -17.3083 15.2366
      vertex 21.25 -16.7067 14.8648
    endloop
  endfacet
  facet normal 0.56159 -0.772946 -0.295246
    outer loop
      vertex 21.25 -17.3083 15.2366
      vertex 22.1884 -16.8053 15.7047
      vertex 21.4271 -17.8532 17
    endloop
  endfacet
  facet normal 0.561584 -0.772962 -0.295217
    outer loop
      vertex 22.1884 -16.8053 15.7047
      vertex 21.25 -17.3083 15.2366
      vertex 21.8296 -16.8872 15.2366
    endloop
  endfacet
  facet normal 0 0 -1
    outer loop
      vertex 20.2135 -15.8817 14.1468
      vertex 20.1981 -15.8678 14.1468
      vertex 20.2155 -15.8817 14.1468
    endloop
  endfacet
  facet normal 0 0 -1
    outer loop
      vertex 20.1981 -15.8678 14.1468
      vertex 19.75 -15.5449 14.1468
      vertex 20.1981 -14.1322 14.1468
    endloop
  endfacet
  facet normal 0 0 -1
    outer loop
      vertex 19.75 -15.5449 14.1468
      vertex 20.1981 -15.8678 14.1468
      vertex 20.2135 -15.8817 14.1468
    endloop
  endfacet
  facet normal 0 0 -1
    outer loop
      vertex 20.1981 -14.1322 14.1468
      vertex 20.2135 -14.1183 14.1468
      vertex 20.2155 -14.1183 14.1468
    endloop
  endfacet
  facet normal -0 0 -1
    outer loop
      vertex 20.1981 -14.1322 14.1468
      vertex 19.75 -14.4551 14.1468
      vertex 20.2135 -14.1183 14.1468
    endloop
  endfacet
  facet normal 0 0 -1
    outer loop
      vertex 19.5729 -15 14.1468
      vertex 20.1981 -14.1322 14.1468
      vertex 19.75 -15.5449 14.1468
    endloop
  endfacet
  facet normal 0 0 -1
    outer loop
      vertex 20.1981 -14.1322 14.1468
      vertex 19.5729 -15 14.1468
      vertex 19.75 -14.4551 14.1468
    endloop
  endfacet
  facet normal -0.577324 0.187638 -0.794663
    outer loop
      vertex 19.5729 -15 14.1468
      vertex 18.5365 -13.5734 15.2366
      vertex 19.75 -14.4551 14.1468
    endloop
  endfacet
  facet normal -0.908678 0.295215 0.295215
    outer loop
      vertex 18.0729 -13.2366 17
      vertex 17.5 -15 17
      vertex 18.0729 -15 18.7634
    endloop
  endfacet
  facet normal -0.908678 -0.295215 0.295215
    outer loop
      vertex 18.0729 -15 18.7634
      vertex 17.5 -15 17
      vertex 18.0729 -16.7634 17
    endloop
  endfacet
  facet normal -0.561574 0.77295 0.295268
    outer loop
      vertex 19.5729 -12.1468 17
      vertex 18.0729 -13.2366 17
      vertex 18.5365 -13.5734 18.7634
    endloop
  endfacet
  facet normal -0.908637 0.295278 0.295278
    outer loop
      vertex 18.0729 -13.2366 17
      vertex 18.0729 -15 18.7634
      vertex 18.5365 -13.5734 18.7634
    endloop
  endfacet
  facet normal -0.908637 0.295278 0.295278
    outer loop
      vertex 27.0729 -13.2366 17
      vertex 27.0729 -15 18.7634
      vertex 27.5365 -13.5734 18.7634
    endloop
  endfacet
  facet normal -0.5616 0.77294 -0.295245
    outer loop
      vertex 28.75 -12.6917 15.2366
      vertex 27.5365 -13.5734 15.2366
      vertex 28.5729 -12.1468 17
    endloop
  endfacet
  facet normal -0.5616 -0.77294 0.295245
    outer loop
      vertex 28.75 -17.3083 18.7634
      vertex 27.5365 -16.4266 18.7634
      vertex 28.5729 -17.8532 17
    endloop
  endfacet
  facet normal -0.577343 -0.187618 0.794654
    outer loop
      vertex 28.5729 -15 19.8532
      vertex 27.0729 -15 18.7634
      vertex 27.5365 -16.4266 18.7634
    endloop
  endfacet
  facet normal 0.356828 0.491109 0.794661
    outer loop
      vertex 30.25 -12.6917 18.7634
      vertex 30.25 -14.4551 19.8532
      vertex 31.4635 -13.5734 18.7634
    endloop
  endfacet
  facet normal 0 0.955426 0.295232
    outer loop
      vertex 30.4271 -12.1468 17
      vertex 28.75 -12.6917 18.7634
      vertex 30.25 -12.6917 18.7634
    endloop
  endfacet
  facet normal 0 0.955426 0.295232
    outer loop
      vertex 28.75 -12.6917 18.7634
      vertex 30.4271 -12.1468 17
      vertex 28.5729 -12.1468 17
    endloop
  endfacet
  facet normal -0.5616 -0.77294 -0.295245
    outer loop
      vertex 28.5729 -17.8532 17
      vertex 27.5365 -16.4266 15.2366
      vertex 28.75 -17.3083 15.2366
    endloop
  endfacet
  facet normal 0.57734 -0.187643 -0.79465
    outer loop
      vertex 31.9271 -15 15.2366
      vertex 30.25 -15.5449 14.1468
      vertex 30.4271 -15 14.1468
    endloop
  endfacet
  facet normal 0.908662 0.295209 -0.295272
    outer loop
      vertex 32.5 -15 17
      vertex 31.4635 -13.5734 15.2366
      vertex 31.9271 -13.2366 17
    endloop
  endfacet
  facet normal 0.908658 0.295285 -0.295208
    outer loop
      vertex 31.9271 -15 15.2366
      vertex 31.4635 -13.5734 15.2366
      vertex 32.5 -15 17
    endloop
  endfacet
  facet normal -0.356832 -0.491115 0.794656
    outer loop
      vertex 29.2135 -15.8817 19.8532
      vertex 27.5365 -16.4266 18.7634
      vertex 28.75 -17.3083 18.7634
    endloop
  endfacet
  facet normal 0.356828 0.491109 -0.794661
    outer loop
      vertex 31.4635 -13.5734 15.2366
      vertex 30.25 -14.4551 14.1468
      vertex 30.25 -12.6917 15.2366
    endloop
  endfacet
  facet normal 0.908658 0.295285 0.295208
    outer loop
      vertex 32.5 -15 17
      vertex 31.4635 -13.5734 18.7634
      vertex 31.9271 -15 18.7634
    endloop
  endfacet
  facet normal 0.5616 0.77294 0.295245
    outer loop
      vertex 30.4271 -12.1468 17
      vertex 30.25 -12.6917 18.7634
      vertex 31.4635 -13.5734 18.7634
    endloop
  endfacet
  facet normal 0.561574 -0.77295 0.295268
    outer loop
      vertex 31.4635 -16.4266 18.7634
      vertex 30.4271 -17.8532 17
      vertex 31.9271 -16.7634 17
    endloop
  endfacet
  facet normal 0.561574 0.77295 -0.295268
    outer loop
      vertex 31.4635 -13.5734 15.2366
      vertex 30.4271 -12.1468 17
      vertex 31.9271 -13.2366 17
    endloop
  endfacet
  facet normal 0.908678 -0.295215 0.295215
    outer loop
      vertex 31.9271 -15 18.7634
      vertex 31.9271 -16.7634 17
      vertex 32.5 -15 17
    endloop
  endfacet
  facet normal 0 0 1
    outer loop
      vertex 30.25 -14.4551 19.8532
      vertex 30.25 -15.5449 19.8532
      vertex 30.4271 -15 19.8532
    endloop
  endfacet
  facet normal 0 0 1
    outer loop
      vertex 29.7865 -14.1183 19.8532
      vertex 30.25 -15.5449 19.8532
      vertex 30.25 -14.4551 19.8532
    endloop
  endfacet
  facet normal 0 0 1
    outer loop
      vertex 29.7865 -14.1183 19.8532
      vertex 29.7865 -15.8817 19.8532
      vertex 30.25 -15.5449 19.8532
    endloop
  endfacet
  facet normal -0 0 1
    outer loop
      vertex 29.2135 -14.1183 19.8532
      vertex 29.7865 -15.8817 19.8532
      vertex 29.7865 -14.1183 19.8532
    endloop
  endfacet
  facet normal 0 0 1
    outer loop
      vertex 29.2135 -14.1183 19.8532
      vertex 29.2135 -15.8817 19.8532
      vertex 29.7865 -15.8817 19.8532
    endloop
  endfacet
  facet normal -0 0 1
    outer loop
      vertex 28.75 -14.4551 19.8532
      vertex 29.2135 -15.8817 19.8532
      vertex 29.2135 -14.1183 19.8532
    endloop
  endfacet
  facet normal 0 0 1
    outer loop
      vertex 28.75 -14.4551 19.8532
      vertex 28.75 -15.5449 19.8532
      vertex 29.2135 -15.8817 19.8532
    endloop
  endfacet
  facet normal 0 -0 1
    outer loop
      vertex 28.75 -15.5449 19.8532
      vertex 28.75 -14.4551 19.8532
      vertex 28.5729 -15 19.8532
    endloop
  endfacet
  facet normal 0 -0.607053 0.794661
    outer loop
      vertex 29.2135 -15.8817 19.8532
      vertex 30.25 -17.3083 18.7634
      vertex 29.7865 -15.8817 19.8532
    endloop
  endfacet
  facet normal 0 -0.607053 0.794661
    outer loop
      vertex 30.25 -17.3083 18.7634
      vertex 29.2135 -15.8817 19.8532
      vertex 28.75 -17.3083 18.7634
    endloop
  endfacet
  facet normal -0.561574 -0.77295 0.295268
    outer loop
      vertex 27.5365 -16.4266 18.7634
      vertex 27.0729 -16.7634 17
      vertex 28.5729 -17.8532 17
    endloop
  endfacet
  facet normal -0.561574 -0.77295 -0.295268
    outer loop
      vertex 28.5729 -17.8532 17
      vertex 27.0729 -16.7634 17
      vertex 27.5365 -16.4266 15.2366
    endloop
  endfacet
  facet normal 0 -0.955426 -0.295232
    outer loop
      vertex 28.75 -17.3083 15.2366
      vertex 30.4271 -17.8532 17
      vertex 28.5729 -17.8532 17
    endloop
  endfacet
  facet normal 0 -0.955426 -0.295232
    outer loop
      vertex 30.4271 -17.8532 17
      vertex 28.75 -17.3083 15.2366
      vertex 30.25 -17.3083 15.2366
    endloop
  endfacet
  facet normal 0.577337 0.187616 0.794659
    outer loop
      vertex 31.4635 -13.5734 18.7634
      vertex 30.25 -14.4551 19.8532
      vertex 31.9271 -15 18.7634
    endloop
  endfacet
  facet normal 0.57734 0.187643 0.79465
    outer loop
      vertex 31.9271 -15 18.7634
      vertex 30.25 -14.4551 19.8532
      vertex 30.4271 -15 19.8532
    endloop
  endfacet
  facet normal 0.561574 0.77295 0.295268
    outer loop
      vertex 31.9271 -13.2366 17
      vertex 30.4271 -12.1468 17
      vertex 31.4635 -13.5734 18.7634
    endloop
  endfacet
  facet normal 0.908662 0.295209 0.295272
    outer loop
      vertex 31.9271 -13.2366 17
      vertex 31.4635 -13.5734 18.7634
      vertex 32.5 -15 17
    endloop
  endfacet
  facet normal -0.908637 -0.295278 0.295278
    outer loop
      vertex 27.0729 -15 18.7634
      vertex 27.0729 -16.7634 17
      vertex 27.5365 -16.4266 18.7634
    endloop
  endfacet
  facet normal 0.356858 0.491103 0.794651
    outer loop
      vertex 30.25 -12.6917 18.7634
      vertex 29.7865 -14.1183 19.8532
      vertex 30.25 -14.4551 19.8532
    endloop
  endfacet
  facet normal 0.5616 0.77294 -0.295245
    outer loop
      vertex 31.4635 -13.5734 15.2366
      vertex 30.25 -12.6917 15.2366
      vertex 30.4271 -12.1468 17
    endloop
  endfacet
  facet normal -0.356832 0.491115 0.794656
    outer loop
      vertex 28.75 -12.6917 18.7634
      vertex 27.5365 -13.5734 18.7634
      vertex 29.2135 -14.1183 19.8532
    endloop
  endfacet
  facet normal -0.561574 0.77295 -0.295268
    outer loop
      vertex 27.5365 -13.5734 15.2366
      vertex 27.0729 -13.2366 17
      vertex 28.5729 -12.1468 17
    endloop
  endfacet
  facet normal -0.356832 0.491115 -0.794656
    outer loop
      vertex 29.2135 -14.1183 14.1468
      vertex 27.5365 -13.5734 15.2366
      vertex 28.75 -12.6917 15.2366
    endloop
  endfacet
  facet normal 0.356858 -0.491103 0.794651
    outer loop
      vertex 30.25 -15.5449 19.8532
      vertex 29.7865 -15.8817 19.8532
      vertex 30.25 -17.3083 18.7634
    endloop
  endfacet
  facet normal 0.561574 -0.77295 -0.295268
    outer loop
      vertex 31.9271 -16.7634 17
      vertex 30.4271 -17.8532 17
      vertex 31.4635 -16.4266 15.2366
    endloop
  endfacet
  facet normal -0.356847 -0.491088 0.794665
    outer loop
      vertex 28.75 -15.5449 19.8532
      vertex 27.5365 -16.4266 18.7634
      vertex 29.2135 -15.8817 19.8532
    endloop
  endfacet
  facet normal 0.908637 -0.295278 0.295278
    outer loop
      vertex 31.9271 -15 18.7634
      vertex 31.4635 -16.4266 18.7634
      vertex 31.9271 -16.7634 17
    endloop
  endfacet
  facet normal -0.356832 -0.491115 -0.794656
    outer loop
      vertex 28.75 -17.3083 15.2366
      vertex 27.5365 -16.4266 15.2366
      vertex 29.2135 -15.8817 14.1468
    endloop
  endfacet
  facet normal 0.908637 -0.295278 -0.295278
    outer loop
      vertex 31.9271 -16.7634 17
      vertex 31.4635 -16.4266 15.2366
      vertex 31.9271 -15 15.2366
    endloop
  endfacet
  facet normal 0.908678 -0.295215 -0.295215
    outer loop
      vertex 32.5 -15 17
      vertex 31.9271 -16.7634 17
      vertex 31.9271 -15 15.2366
    endloop
  endfacet
  facet normal 0.577337 -0.187616 -0.794659
    outer loop
      vertex 31.4635 -16.4266 15.2366
      vertex 30.25 -15.5449 14.1468
      vertex 31.9271 -15 15.2366
    endloop
  endfacet
  facet normal -0.577343 -0.187618 -0.794654
    outer loop
      vertex 27.5365 -16.4266 15.2366
      vertex 27.0729 -15 15.2366
      vertex 28.5729 -15 14.1468
    endloop
  endfacet
  facet normal -0.5616 0.77294 0.295245
    outer loop
      vertex 28.5729 -12.1468 17
      vertex 27.5365 -13.5734 18.7634
      vertex 28.75 -12.6917 18.7634
    endloop
  endfacet
  facet normal 0 0.955426 -0.295232
    outer loop
      vertex 30.25 -12.6917 15.2366
      vertex 28.5729 -12.1468 17
      vertex 30.4271 -12.1468 17
    endloop
  endfacet
  facet normal 0 0.955426 -0.295232
    outer loop
      vertex 28.5729 -12.1468 17
      vertex 30.25 -12.6917 15.2366
      vertex 28.75 -12.6917 15.2366
    endloop
  endfacet
  facet normal 0 0.607053 -0.794661
    outer loop
      vertex 29.2135 -14.1183 14.1468
      vertex 30.25 -12.6917 15.2366
      vertex 29.7865 -14.1183 14.1468
    endloop
  endfacet
  facet normal 0 0.607053 -0.794661
    outer loop
      vertex 30.25 -12.6917 15.2366
      vertex 29.2135 -14.1183 14.1468
      vertex 28.75 -12.6917 15.2366
    endloop
  endfacet
  facet normal 0 -0.607053 -0.794661
    outer loop
      vertex 30.25 -17.3083 15.2366
      vertex 29.2135 -15.8817 14.1468
      vertex 29.7865 -15.8817 14.1468
    endloop
  endfacet
  facet normal 0 -0.607053 -0.794661
    outer loop
      vertex 29.2135 -15.8817 14.1468
      vertex 30.25 -17.3083 15.2366
      vertex 28.75 -17.3083 15.2366
    endloop
  endfacet
  facet normal -0.356847 0.491088 -0.794665
    outer loop
      vertex 28.75 -14.4551 14.1468
      vertex 27.5365 -13.5734 15.2366
      vertex 29.2135 -14.1183 14.1468
    endloop
  endfacet
  facet normal -0.908637 -0.295278 -0.295278
    outer loop
      vertex 27.5365 -16.4266 15.2366
      vertex 27.0729 -16.7634 17
      vertex 27.0729 -15 15.2366
    endloop
  endfacet
  facet normal -0.577324 -0.187638 0.794663
    outer loop
      vertex 28.5729 -15 19.8532
      vertex 27.5365 -16.4266 18.7634
      vertex 28.75 -15.5449 19.8532
    endloop
  endfacet
  facet normal 0.356828 -0.491109 0.794661
    outer loop
      vertex 30.25 -15.5449 19.8532
      vertex 30.25 -17.3083 18.7634
      vertex 31.4635 -16.4266 18.7634
    endloop
  endfacet
  facet normal 0.5616 -0.77294 0.295245
    outer loop
      vertex 31.4635 -16.4266 18.7634
      vertex 30.25 -17.3083 18.7634
      vertex 30.4271 -17.8532 17
    endloop
  endfacet
  facet normal -0.908637 0.295278 -0.295278
    outer loop
      vertex 27.5365 -13.5734 15.2366
      vertex 27.0729 -15 15.2366
      vertex 27.0729 -13.2366 17
    endloop
  endfacet
  facet normal -0.356847 0.491088 0.794665
    outer loop
      vertex 29.2135 -14.1183 19.8532
      vertex 27.5365 -13.5734 18.7634
      vertex 28.75 -14.4551 19.8532
    endloop
  endfacet
  facet normal 0.577337 0.187616 -0.794659
    outer loop
      vertex 31.9271 -15 15.2366
      vertex 30.25 -14.4551 14.1468
      vertex 31.4635 -13.5734 15.2366
    endloop
  endfacet
  facet normal 0.57734 0.187643 -0.79465
    outer loop
      vertex 30.4271 -15 14.1468
      vertex 30.25 -14.4551 14.1468
      vertex 31.9271 -15 15.2366
    endloop
  endfacet
  facet normal -0.577343 0.187618 -0.794654
    outer loop
      vertex 28.5729 -15 14.1468
      vertex 27.0729 -15 15.2366
      vertex 27.5365 -13.5734 15.2366
    endloop
  endfacet
  facet normal 0.356858 -0.491103 -0.794651
    outer loop
      vertex 30.25 -17.3083 15.2366
      vertex 29.7865 -15.8817 14.1468
      vertex 30.25 -15.5449 14.1468
    endloop
  endfacet
  facet normal -0.577324 -0.187638 -0.794663
    outer loop
      vertex 28.75 -15.5449 14.1468
      vertex 27.5365 -16.4266 15.2366
      vertex 28.5729 -15 14.1468
    endloop
  endfacet
  facet normal -0.356847 -0.491088 -0.794665
    outer loop
      vertex 29.2135 -15.8817 14.1468
      vertex 27.5365 -16.4266 15.2366
      vertex 28.75 -15.5449 14.1468
    endloop
  endfacet
  facet normal 0 -0.955426 0.295232
    outer loop
      vertex 28.5729 -17.8532 17
      vertex 30.25 -17.3083 18.7634
      vertex 28.75 -17.3083 18.7634
    endloop
  endfacet
  facet normal 0 -0.955426 0.295232
    outer loop
      vertex 30.25 -17.3083 18.7634
      vertex 28.5729 -17.8532 17
      vertex 30.4271 -17.8532 17
    endloop
  endfacet
  facet normal 0.577337 -0.187616 0.794659
    outer loop
      vertex 31.9271 -15 18.7634
      vertex 30.25 -15.5449 19.8532
      vertex 31.4635 -16.4266 18.7634
    endloop
  endfacet
  facet normal 0.57734 -0.187643 0.79465
    outer loop
      vertex 30.4271 -15 19.8532
      vertex 30.25 -15.5449 19.8532
      vertex 31.9271 -15 18.7634
    endloop
  endfacet
  facet normal -0.908678 0.295215 -0.295215
    outer loop
      vertex 27.0729 -15 15.2366
      vertex 26.5 -15 17
      vertex 27.0729 -13.2366 17
    endloop
  endfacet
  facet normal -0.908678 -0.295215 -0.295215
    outer loop
      vertex 27.0729 -16.7634 17
      vertex 26.5 -15 17
      vertex 27.0729 -15 15.2366
    endloop
  endfacet
  facet normal -0.561574 0.77295 0.295268
    outer loop
      vertex 28.5729 -12.1468 17
      vertex 27.0729 -13.2366 17
      vertex 27.5365 -13.5734 18.7634
    endloop
  endfacet
  facet normal 0 0.607053 0.794661
    outer loop
      vertex 30.25 -12.6917 18.7634
      vertex 29.2135 -14.1183 19.8532
      vertex 29.7865 -14.1183 19.8532
    endloop
  endfacet
  facet normal 0 0.607053 0.794661
    outer loop
      vertex 29.2135 -14.1183 19.8532
      vertex 30.25 -12.6917 18.7634
      vertex 28.75 -12.6917 18.7634
    endloop
  endfacet
  facet normal 0.356858 0.491103 -0.794651
    outer loop
      vertex 30.25 -14.4551 14.1468
      vertex 29.7865 -14.1183 14.1468
      vertex 30.25 -12.6917 15.2366
    endloop
  endfacet
  facet normal 0.356828 -0.491109 -0.794661
    outer loop
      vertex 31.4635 -16.4266 15.2366
      vertex 30.25 -17.3083 15.2366
      vertex 30.25 -15.5449 14.1468
    endloop
  endfacet
  facet normal 0.5616 -0.77294 -0.295245
    outer loop
      vertex 30.4271 -17.8532 17
      vertex 30.25 -17.3083 15.2366
      vertex 31.4635 -16.4266 15.2366
    endloop
  endfacet
  facet normal 0 0 -1
    outer loop
      vertex 30.25 -15.5449 14.1468
      vertex 30.25 -14.4551 14.1468
      vertex 30.4271 -15 14.1468
    endloop
  endfacet
  facet normal 0 0 -1
    outer loop
      vertex 29.7865 -15.8817 14.1468
      vertex 30.25 -14.4551 14.1468
      vertex 30.25 -15.5449 14.1468
    endloop
  endfacet
  facet normal 0 0 -1
    outer loop
      vertex 29.7865 -15.8817 14.1468
      vertex 29.7865 -14.1183 14.1468
      vertex 30.25 -14.4551 14.1468
    endloop
  endfacet
  facet normal 0 0 -1
    outer loop
      vertex 29.2135 -15.8817 14.1468
      vertex 29.7865 -14.1183 14.1468
      vertex 29.7865 -15.8817 14.1468
    endloop
  endfacet
  facet normal 0 0 -1
    outer loop
      vertex 29.2135 -15.8817 14.1468
      vertex 29.2135 -14.1183 14.1468
      vertex 29.7865 -14.1183 14.1468
    endloop
  endfacet
  facet normal 0 0 -1
    outer loop
      vertex 28.75 -15.5449 14.1468
      vertex 29.2135 -14.1183 14.1468
      vertex 29.2135 -15.8817 14.1468
    endloop
  endfacet
  facet normal 0 0 -1
    outer loop
      vertex 28.75 -15.5449 14.1468
      vertex 28.75 -14.4551 14.1468
      vertex 29.2135 -14.1183 14.1468
    endloop
  endfacet
  facet normal 0 -0 -1
    outer loop
      vertex 28.75 -14.4551 14.1468
      vertex 28.75 -15.5449 14.1468
      vertex 28.5729 -15 14.1468
    endloop
  endfacet
  facet normal -0.577324 0.187638 -0.794663
    outer loop
      vertex 28.5729 -15 14.1468
      vertex 27.5365 -13.5734 15.2366
      vertex 28.75 -14.4551 14.1468
    endloop
  endfacet
  facet normal -0.908678 0.295215 0.295215
    outer loop
      vertex 27.0729 -13.2366 17
      vertex 26.5 -15 17
      vertex 27.0729 -15 18.7634
    endloop
  endfacet
  facet normal -0.908678 -0.295215 0.295215
    outer loop
      vertex 27.0729 -15 18.7634
      vertex 26.5 -15 17
      vertex 27.0729 -16.7634 17
    endloop
  endfacet
  facet normal -0.577343 0.187618 0.794654
    outer loop
      vertex 27.5365 -13.5734 18.7634
      vertex 27.0729 -15 18.7634
      vertex 28.5729 -15 19.8532
    endloop
  endfacet
  facet normal -0.577324 0.187638 0.794663
    outer loop
      vertex 28.75 -14.4551 19.8532
      vertex 27.5365 -13.5734 18.7634
      vertex 28.5729 -15 19.8532
    endloop
  endfacet
  facet normal -0.222606 -0.974908 -9.13967e-05
    outer loop
      vertex 21.555 -13.0501 16
      vertex 22.1884 -13.1947 15.7047
      vertex 22.4147 -13.2464 16
    endloop
  endfacet
  facet normal -0.222558 -0.974919 1.70058e-05
    outer loop
      vertex 21.555 -13.0501 16
      vertex 21.8296 -13.1128 15.2366
      vertex 22.1884 -13.1947 15.7047
    endloop
  endfacet
  facet normal -0.222603 -0.974909 0
    outer loop
      vertex 21.8296 -13.1128 15.2366
      vertex 21.555 -13.0501 16
      vertex 21.555 -13.0501 15.1521
    endloop
  endfacet
  facet normal 0 0 -1
    outer loop
      vertex 22.9271 -15.7634 16
      vertex 22.9122 -14.191 16
      vertex 23.1751 -15 16
    endloop
  endfacet
  facet normal 0 0 -1
    outer loop
      vertex 22.4147 -16.7536 16
      vertex 22.9271 -15.7634 16
      vertex 22.6642 -16.5724 16
    endloop
  endfacet
  facet normal -0 0 -1
    outer loop
      vertex 22.9271 -15.7634 16
      vertex 20.1981 -15.8678 16
      vertex 22.9122 -14.191 16
    endloop
  endfacet
  facet normal 0 0 -1
    outer loop
      vertex 21.555 -16.9499 16
      vertex 22.9271 -15.7634 16
      vertex 22.4147 -16.7536 16
    endloop
  endfacet
  facet normal 0 0 -1
    outer loop
      vertex 20.1981 -14.1322 16
      vertex 22.9122 -14.191 16
      vertex 20.1981 -15.8678 16
    endloop
  endfacet
  facet normal 0 0 -1
    outer loop
      vertex 22.9271 -15.7634 16
      vertex 21.555 -16.9499 16
      vertex 20.1981 -15.8678 16
    endloop
  endfacet
  facet normal 0 -0 -1
    outer loop
      vertex 21.555 -13.0501 16
      vertex 22.9122 -14.191 16
      vertex 20.1981 -14.1322 16
    endloop
  endfacet
  facet normal 0 0 -1
    outer loop
      vertex 22.9122 -14.191 16
      vertex 22.4147 -13.2464 16
      vertex 22.6642 -13.4276 16
    endloop
  endfacet
  facet normal 0 0 -1
    outer loop
      vertex 22.9122 -14.191 16
      vertex 21.555 -13.0501 16
      vertex 22.4147 -13.2464 16
    endloop
  endfacet
  facet normal 0.623493 0.781829 -0
    outer loop
      vertex 21.555 -16.9499 15.1521
      vertex 20.1981 -15.8678 16
      vertex 21.555 -16.9499 16
    endloop
  endfacet
  facet normal 0.623473 0.781845 -5.11466e-05
    outer loop
      vertex 21.25 -16.7067 14.8648
      vertex 20.1981 -15.8678 16
      vertex 21.555 -16.9499 15.1521
    endloop
  endfacet
  facet normal 0.623523 0.781805 2.50071e-05
    outer loop
      vertex 20.9862 -16.4963 14.6163
      vertex 20.1981 -15.8678 16
      vertex 21.25 -16.7067 14.8648
    endloop
  endfacet
  facet normal 0.624146 0.781305 -0.0017875
    outer loop
      vertex 20.1981 -15.8678 14.1468
      vertex 20.9862 -16.4963 14.6163
      vertex 20.2155 -15.8817 14.1468
    endloop
  endfacet
  facet normal 0.623497 0.781826 0
    outer loop
      vertex 20.9862 -16.4963 14.6163
      vertex 20.1981 -15.8678 14.1468
      vertex 20.1981 -15.8678 16
    endloop
  endfacet
  facet normal -0.222606 0.974908 -9.13967e-05
    outer loop
      vertex 22.1884 -16.8053 15.7047
      vertex 21.555 -16.9499 16
      vertex 22.4147 -16.7536 16
    endloop
  endfacet
  facet normal -0.222558 0.974919 1.70058e-05
    outer loop
      vertex 21.8296 -16.8872 15.2366
      vertex 21.555 -16.9499 16
      vertex 22.1884 -16.8053 15.7047
    endloop
  endfacet
  facet normal -0.222603 0.974909 0
    outer loop
      vertex 21.555 -16.9499 16
      vertex 21.8296 -16.8872 15.2366
      vertex 21.555 -16.9499 15.1521
    endloop
  endfacet
  facet normal 1 -0 0
    outer loop
      vertex 20.1981 -15.8678 16
      vertex 20.1981 -14.1322 14.1468
      vertex 20.1981 -14.1322 16
    endloop
  endfacet
  facet normal 1 0 0
    outer loop
      vertex 20.1981 -14.1322 14.1468
      vertex 20.1981 -15.8678 16
      vertex 20.1981 -15.8678 14.1468
    endloop
  endfacet
  facet normal 0.623493 -0.781829 0
    outer loop
      vertex 20.1981 -14.1322 16
      vertex 21.555 -13.0501 15.1521
      vertex 21.555 -13.0501 16
    endloop
  endfacet
  facet normal 0.623473 -0.781845 -5.11466e-05
    outer loop
      vertex 20.1981 -14.1322 16
      vertex 21.25 -13.2933 14.8648
      vertex 21.555 -13.0501 15.1521
    endloop
  endfacet
  facet normal 0.623523 -0.781805 2.50071e-05
    outer loop
      vertex 20.1981 -14.1322 16
      vertex 20.9862 -13.5037 14.6163
      vertex 21.25 -13.2933 14.8648
    endloop
  endfacet
  facet normal 0.623497 -0.781826 0
    outer loop
      vertex 20.1981 -14.1322 14.1468
      vertex 20.9862 -13.5037 14.6163
      vertex 20.1981 -14.1322 16
    endloop
  endfacet
  facet normal 0.624146 -0.781305 -0.0017875
    outer loop
      vertex 20.9862 -13.5037 14.6163
      vertex 20.1981 -14.1322 14.1468
      vertex 20.2155 -14.1183 14.1468
    endloop
  endfacet
endsolid OpenSCAD_Model
