solid OpenSCAD_Model
  facet normal 0.900969 -0.433884 0
    outer loop
      vertex 5.24698 -1.56366 -0.4
      vertex 6 0 -0.5
      vertex 6 0 -0.4
    endloop
  endfacet
  facet normal 0.900969 -0.433884 0
    outer loop
      vertex 6 0 -0.5
      vertex 5.24698 -1.56366 -0.4
      vertex 5.24698 -1.56366 -0.5
    endloop
  endfacet
  facet normal 0 0 1
    outer loop
      vertex 4 0 -0.4
      vertex 6 0 -0.4
      vertex 5.24698 1.56366 -0.4
    endloop
  endfacet
  facet normal 0 0 1
    outer loop
      vertex 4 0 -0.4
      vertex 5.24698 1.56366 -0.4
      vertex 4 1.84828 -0.4
    endloop
  endfacet
  facet normal 0 0 1
    outer loop
      vertex 6 0 -0.4
      vertex 4 0 -0.4
      vertex 5.24698 -1.56366 -0.4
    endloop
  endfacet
  facet normal 0 0 1
    outer loop
      vertex 4 0 -0.4
      vertex 3.55496 -1.94986 -0.4
      vertex 5.24698 -1.56366 -0.4
    endloop
  endfacet
  facet normal 0 0 1
    outer loop
      vertex 2.19806 -0.867767 -0.4
      vertex 4 0 -0.4
      vertex 2.19806 0 -0.4
    endloop
  endfacet
  facet normal 0 0 1
    outer loop
      vertex 4 0 -0.4
      vertex 2.19806 -0.867767 -0.4
      vertex 3.55496 -1.94986 -0.4
    endloop
  endfacet
  facet normal -0.62349 -0.781831 0
    outer loop
      vertex 2.19806 -0.867767 -0.5
      vertex 3.55496 -1.94986 -0.4
      vertex 2.19806 -0.867767 -0.4
    endloop
  endfacet
  facet normal -0.62349 -0.781831 -0
    outer loop
      vertex 3.55496 -1.94986 -0.4
      vertex 2.19806 -0.867767 -0.5
      vertex 3.55496 -1.94986 -0.5
    endloop
  endfacet
  facet normal 0 0 -1
    outer loop
      vertex 4 0 -0.5
      vertex 6 0 -0.5
      vertex 5.24698 -1.56366 -0.5
    endloop
  endfacet
  facet normal 0 0 -1
    outer loop
      vertex 6 0 -0.5
      vertex 4 0 -0.5
      vertex 5.24698 1.56366 -0.5
    endloop
  endfacet
  facet normal 0 0 -1
    outer loop
      vertex 3.55496 -1.94986 -0.5
      vertex 4 0 -0.5
      vertex 5.24698 -1.56366 -0.5
    endloop
  endfacet
  facet normal 0 0 -1
    outer loop
      vertex 2.19806 -0.867767 -0.5
      vertex 4 0 -0.5
      vertex 3.55496 -1.94986 -0.5
    endloop
  endfacet
  facet normal -0 0 -1
    outer loop
      vertex 4 0 -0.5
      vertex 2.19806 -0.867767 -0.5
      vertex 2.19806 0 -0.5
    endloop
  endfacet
  facet normal -0 0 -1
    outer loop
      vertex 5.24698 1.56366 -0.5
      vertex 4 0 -0.5
      vertex 4 1.84828 -0.5
    endloop
  endfacet
  facet normal -1 0 0
    outer loop
      vertex 2.19806 -0.867767 -0.5
      vertex 2.19806 0 -0.4
      vertex 2.19806 0 -0.5
    endloop
  endfacet
  facet normal -1 -0 0
    outer loop
      vertex 2.19806 0 -0.4
      vertex 2.19806 -0.867767 -0.5
      vertex 2.19806 -0.867767 -0.4
    endloop
  endfacet
  facet normal 0.222525 0.974927 -0
    outer loop
      vertex 5.24698 1.56366 -0.5
      vertex 4 1.84828 -0.4
      vertex 5.24698 1.56366 -0.4
    endloop
  endfacet
  facet normal 0.222525 0.974927 0
    outer loop
      vertex 4 1.84828 -0.4
      vertex 5.24698 1.56366 -0.5
      vertex 4 1.84828 -0.5
    endloop
  endfacet
  facet normal 0.222525 -0.974927 0
    outer loop
      vertex 3.55496 -1.94986 -0.5
      vertex 5.24698 -1.56366 -0.4
      vertex 3.55496 -1.94986 -0.4
    endloop
  endfacet
  facet normal 0.222525 -0.974927 0
    outer loop
      vertex 5.24698 -1.56366 -0.4
      vertex 3.55496 -1.94986 -0.5
      vertex 5.24698 -1.56366 -0.5
    endloop
  endfacet
  facet normal 0.900969 0.433884 0
    outer loop
      vertex 6 0 -0.4
      vertex 5.24698 1.56366 -0.5
      vertex 5.24698 1.56366 -0.4
    endloop
  endfacet
  facet normal 0.900969 0.433884 0
    outer loop
      vertex 5.24698 1.56366 -0.5
      vertex 6 0 -0.4
      vertex 6 0 -0.5
    endloop
  endfacet
  facet normal 0.69106 0.722797 -0
    outer loop
      vertex 3.10854 4.50698 -0.5
      vertex 1.8541 5.70634 -0.4
      vertex 3.10854 4.50698 -0.4
    endloop
  endfacet
  facet normal 0.69106 0.722797 0
    outer loop
      vertex 1.8541 5.70634 -0.4
      vertex 3.10854 4.50698 -0.5
      vertex 1.8541 5.70634 -0.5
    endloop
  endfacet
  facet normal -0.309036 -0.95105 0
    outer loop
      vertex -0.146057 2.35864 -0.5
      vertex 0 2.31118 -0.4
      vertex -0.146057 2.35864 -0.4
    endloop
  endfacet
  facet normal -0.309036 -0.95105 -0
    outer loop
      vertex 0 2.31118 -0.4
      vertex -0.146057 2.35864 -0.5
      vertex 0 2.31118 -0.5
    endloop
  endfacet
  facet normal -0.936234 -0.351376 0
    outer loop
      vertex -0.146057 2.35864 -0.5
      vertex -0.75588 3.9835 -0.4
      vertex -0.75588 3.9835 -0.5
    endloop
  endfacet
  facet normal -0.936234 -0.351376 0
    outer loop
      vertex -0.75588 3.9835 -0.4
      vertex -0.146057 2.35864 -0.5
      vertex -0.146057 2.35864 -0.4
    endloop
  endfacet
  facet normal 0.995974 -0.0896412 0
    outer loop
      vertex 3.06291 4 -0.4
      vertex 3.10854 4.50698 -0.5
      vertex 3.10854 4.50698 -0.4
    endloop
  endfacet
  facet normal 0.995974 -0.0896412 0
    outer loop
      vertex 3.10854 4.50698 -0.5
      vertex 3.06291 4 -0.4
      vertex 3.06291 4 -0.5
    endloop
  endfacet
  facet normal -0.858449 0.512898 0
    outer loop
      vertex -0.75588 3.9835 -0.5
      vertex 0.134274 5.47337 -0.4
      vertex 0.134274 5.47337 -0.5
    endloop
  endfacet
  facet normal -0.858449 0.512898 0
    outer loop
      vertex 0.134274 5.47337 -0.4
      vertex -0.75588 3.9835 -0.5
      vertex -0.75588 3.9835 -0.4
    endloop
  endfacet
  facet normal -0.134235 0.990949 0
    outer loop
      vertex 1.8541 5.70634 -0.5
      vertex 0.134274 5.47337 -0.4
      vertex 1.8541 5.70634 -0.4
    endloop
  endfacet
  facet normal -0.134235 0.990949 0
    outer loop
      vertex 0.134274 5.47337 -0.4
      vertex 1.8541 5.70634 -0.5
      vertex 0.134274 5.47337 -0.5
    endloop
  endfacet
  facet normal 0 0 -1
    outer loop
      vertex 0 2.31118 -0.5
      vertex -0.146057 2.35864 -0.5
      vertex 0 4 -0.5
    endloop
  endfacet
  facet normal 0 0 -1
    outer loop
      vertex 3.06291 4 -0.5
      vertex 1.8541 5.70634 -0.5
      vertex 3.10854 4.50698 -0.5
    endloop
  endfacet
  facet normal 0 0 -1
    outer loop
      vertex 0 4 -0.5
      vertex 1.8541 5.70634 -0.5
      vertex 3.06291 4 -0.5
    endloop
  endfacet
  facet normal 0 0 -1
    outer loop
      vertex 1.8541 5.70634 -0.5
      vertex 0 4 -0.5
      vertex 0.134274 5.47337 -0.5
    endloop
  endfacet
  facet normal -0 0 -1
    outer loop
      vertex 0 4 -0.5
      vertex -0.75588 3.9835 -0.5
      vertex 0.134274 5.47337 -0.5
    endloop
  endfacet
  facet normal 0 0 -1
    outer loop
      vertex -0.75588 3.9835 -0.5
      vertex 0 4 -0.5
      vertex -0.146057 2.35864 -0.5
    endloop
  endfacet
  facet normal 0 0 1
    outer loop
      vertex 1.8541 5.70634 -0.4
      vertex 3.06291 4 -0.4
      vertex 3.10854 4.50698 -0.4
    endloop
  endfacet
  facet normal 0 0 1
    outer loop
      vertex 0 4 -0.4
      vertex 1.8541 5.70634 -0.4
      vertex 0.134274 5.47337 -0.4
    endloop
  endfacet
  facet normal 0 0 1
    outer loop
      vertex 1.8541 5.70634 -0.4
      vertex 0 4 -0.4
      vertex 3.06291 4 -0.4
    endloop
  endfacet
  facet normal 0 0 1
    outer loop
      vertex 0 4 -0.4
      vertex -0.146057 2.35864 -0.4
      vertex 0 2.31118 -0.4
    endloop
  endfacet
  facet normal 0 0 1
    outer loop
      vertex 0 4 -0.4
      vertex -0.75588 3.9835 -0.4
      vertex -0.146057 2.35864 -0.4
    endloop
  endfacet
  facet normal 0 0 1
    outer loop
      vertex -0.75588 3.9835 -0.4
      vertex 0 4 -0.4
      vertex 0.134274 5.47337 -0.4
    endloop
  endfacet
  facet normal 0.0448651 -0.998993 0
    outer loop
      vertex -4.02212 0.512085 -0.5
      vertex -2.28833 0.58995 -0.4
      vertex -4.02212 0.512085 -0.4
    endloop
  endfacet
  facet normal 0.0448651 -0.998993 0
    outer loop
      vertex -2.28833 0.58995 -0.4
      vertex -4.02212 0.512085 -0.5
      vertex -2.28833 0.58995 -0.5
    endloop
  endfacet
  facet normal 0.809018 -0.587784 0
    outer loop
      vertex -2.28833 0.58995 -0.4
      vertex -1.26821 1.99403 -0.5
      vertex -1.26821 1.99403 -0.4
    endloop
  endfacet
  facet normal 0.809018 -0.587784 0
    outer loop
      vertex -1.26821 1.99403 -0.5
      vertex -2.28833 0.58995 -0.4
      vertex -2.28833 0.58995 -0.5
    endloop
  endfacet
  facet normal -0.473872 0.880594 0
    outer loop
      vertex -3.3258 4.34913 -0.5
      vertex -4.8541 3.52671 -0.4
      vertex -3.3258 4.34913 -0.4
    endloop
  endfacet
  facet normal -0.473872 0.880594 0
    outer loop
      vertex -4.8541 3.52671 -0.4
      vertex -3.3258 4.34913 -0.5
      vertex -4.8541 3.52671 -0.5
    endloop
  endfacet
  facet normal 0 0 -1
    outer loop
      vertex -2.28833 0.58995 -0.5
      vertex -1.72992 3.66702 -0.5
      vertex -1.26821 1.99403 -0.5
    endloop
  endfacet
  facet normal 0 0 -1
    outer loop
      vertex -2.28833 0.58995 -0.5
      vertex -3.3258 4.34913 -0.5
      vertex -1.72992 3.66702 -0.5
    endloop
  endfacet
  facet normal 0 0 -1
    outer loop
      vertex -4.02212 0.512085 -0.5
      vertex -3.3258 4.34913 -0.5
      vertex -2.28833 0.58995 -0.5
    endloop
  endfacet
  facet normal 0 0 -1
    outer loop
      vertex -4.02212 0.512085 -0.5
      vertex -4.8541 3.52671 -0.5
      vertex -3.3258 4.34913 -0.5
    endloop
  endfacet
  facet normal 0 -0 -1
    outer loop
      vertex -4.8541 3.52671 -0.5
      vertex -4.02212 0.512085 -0.5
      vertex -5.16399 1.81907 -0.5
    endloop
  endfacet
  facet normal 0.963964 0.266034 0
    outer loop
      vertex -1.26821 1.99403 -0.4
      vertex -1.72992 3.66702 -0.5
      vertex -1.72992 3.66702 -0.4
    endloop
  endfacet
  facet normal 0.963964 0.266034 0
    outer loop
      vertex -1.72992 3.66702 -0.5
      vertex -1.26821 1.99403 -0.4
      vertex -1.26821 1.99403 -0.5
    endloop
  endfacet
  facet normal -0.753074 -0.657936 0
    outer loop
      vertex -4.02212 0.512085 -0.5
      vertex -5.16399 1.81907 -0.4
      vertex -5.16399 1.81907 -0.5
    endloop
  endfacet
  facet normal -0.753074 -0.657936 0
    outer loop
      vertex -5.16399 1.81907 -0.4
      vertex -4.02212 0.512085 -0.5
      vertex -4.02212 0.512085 -0.4
    endloop
  endfacet
  facet normal 0 0 1
    outer loop
      vertex -1.72992 3.66702 -0.4
      vertex -2.28833 0.58995 -0.4
      vertex -1.26821 1.99403 -0.4
    endloop
  endfacet
  facet normal 0 0 1
    outer loop
      vertex -3.3258 4.34913 -0.4
      vertex -2.28833 0.58995 -0.4
      vertex -1.72992 3.66702 -0.4
    endloop
  endfacet
  facet normal 0 0 1
    outer loop
      vertex -3.3258 4.34913 -0.4
      vertex -4.02212 0.512085 -0.4
      vertex -2.28833 0.58995 -0.4
    endloop
  endfacet
  facet normal -0 0 1
    outer loop
      vertex -4.8541 3.52671 -0.4
      vertex -4.02212 0.512085 -0.4
      vertex -3.3258 4.34913 -0.4
    endloop
  endfacet
  facet normal 0 0 1
    outer loop
      vertex -4.02212 0.512085 -0.4
      vertex -4.8541 3.52671 -0.4
      vertex -5.16399 1.81907 -0.4
    endloop
  endfacet
  facet normal 0.393024 0.919528 -0
    outer loop
      vertex -1.72992 3.66702 -0.5
      vertex -3.3258 4.34913 -0.4
      vertex -1.72992 3.66702 -0.4
    endloop
  endfacet
  facet normal 0.393024 0.919528 0
    outer loop
      vertex -3.3258 4.34913 -0.4
      vertex -1.72992 3.66702 -0.5
      vertex -3.3258 4.34913 -0.5
    endloop
  endfacet
  facet normal -0.98393 0.178556 0
    outer loop
      vertex -5.16399 1.81907 -0.5
      vertex -4.8541 3.52671 -0.4
      vertex -4.8541 3.52671 -0.5
    endloop
  endfacet
  facet normal -0.98393 0.178556 0
    outer loop
      vertex -4.8541 3.52671 -0.4
      vertex -5.16399 1.81907 -0.5
      vertex -5.16399 1.81907 -0.4
    endloop
  endfacet
  facet normal 0 0 -1
    outer loop
      vertex -1.72992 -3.66702 -0.5
      vertex -2.28833 -0.58995 -0.5
      vertex -1.26821 -1.99403 -0.5
    endloop
  endfacet
  facet normal 0 0 -1
    outer loop
      vertex -3.3258 -4.34913 -0.5
      vertex -2.28833 -0.58995 -0.5
      vertex -1.72992 -3.66702 -0.5
    endloop
  endfacet
  facet normal 0 0 -1
    outer loop
      vertex -3.3258 -4.34913 -0.5
      vertex -4.02212 -0.512085 -0.5
      vertex -2.28833 -0.58995 -0.5
    endloop
  endfacet
  facet normal 0 0 -1
    outer loop
      vertex -4.8541 -3.52671 -0.5
      vertex -4.02212 -0.512085 -0.5
      vertex -3.3258 -4.34913 -0.5
    endloop
  endfacet
  facet normal 0 0 -1
    outer loop
      vertex -4.02212 -0.512085 -0.5
      vertex -4.8541 -3.52671 -0.5
      vertex -5.16399 -1.81907 -0.5
    endloop
  endfacet
  facet normal -0.98393 -0.178556 0
    outer loop
      vertex -4.8541 -3.52671 -0.5
      vertex -5.16399 -1.81907 -0.4
      vertex -5.16399 -1.81907 -0.5
    endloop
  endfacet
  facet normal -0.98393 -0.178556 0
    outer loop
      vertex -5.16399 -1.81907 -0.4
      vertex -4.8541 -3.52671 -0.5
      vertex -4.8541 -3.52671 -0.4
    endloop
  endfacet
  facet normal 0.809018 0.587784 0
    outer loop
      vertex -1.26821 -1.99403 -0.4
      vertex -2.28833 -0.58995 -0.5
      vertex -2.28833 -0.58995 -0.4
    endloop
  endfacet
  facet normal 0.809018 0.587784 0
    outer loop
      vertex -2.28833 -0.58995 -0.5
      vertex -1.26821 -1.99403 -0.4
      vertex -1.26821 -1.99403 -0.5
    endloop
  endfacet
  facet normal 0.963964 -0.266034 0
    outer loop
      vertex -1.72992 -3.66702 -0.4
      vertex -1.26821 -1.99403 -0.5
      vertex -1.26821 -1.99403 -0.4
    endloop
  endfacet
  facet normal 0.963964 -0.266034 0
    outer loop
      vertex -1.26821 -1.99403 -0.5
      vertex -1.72992 -3.66702 -0.4
      vertex -1.72992 -3.66702 -0.5
    endloop
  endfacet
  facet normal -0.753074 0.657936 0
    outer loop
      vertex -5.16399 -1.81907 -0.5
      vertex -4.02212 -0.512085 -0.4
      vertex -4.02212 -0.512085 -0.5
    endloop
  endfacet
  facet normal -0.753074 0.657936 0
    outer loop
      vertex -4.02212 -0.512085 -0.4
      vertex -5.16399 -1.81907 -0.5
      vertex -5.16399 -1.81907 -0.4
    endloop
  endfacet
  facet normal 0 0 1
    outer loop
      vertex -2.28833 -0.58995 -0.4
      vertex -1.72992 -3.66702 -0.4
      vertex -1.26821 -1.99403 -0.4
    endloop
  endfacet
  facet normal 0 0 1
    outer loop
      vertex -2.28833 -0.58995 -0.4
      vertex -3.3258 -4.34913 -0.4
      vertex -1.72992 -3.66702 -0.4
    endloop
  endfacet
  facet normal 0 0 1
    outer loop
      vertex -4.02212 -0.512085 -0.4
      vertex -3.3258 -4.34913 -0.4
      vertex -2.28833 -0.58995 -0.4
    endloop
  endfacet
  facet normal 0 0 1
    outer loop
      vertex -4.02212 -0.512085 -0.4
      vertex -4.8541 -3.52671 -0.4
      vertex -3.3258 -4.34913 -0.4
    endloop
  endfacet
  facet normal 0 -0 1
    outer loop
      vertex -4.8541 -3.52671 -0.4
      vertex -4.02212 -0.512085 -0.4
      vertex -5.16399 -1.81907 -0.4
    endloop
  endfacet
  facet normal 0.393024 -0.919528 0
    outer loop
      vertex -3.3258 -4.34913 -0.5
      vertex -1.72992 -3.66702 -0.4
      vertex -3.3258 -4.34913 -0.4
    endloop
  endfacet
  facet normal 0.393024 -0.919528 0
    outer loop
      vertex -1.72992 -3.66702 -0.4
      vertex -3.3258 -4.34913 -0.5
      vertex -1.72992 -3.66702 -0.5
    endloop
  endfacet
  facet normal 0.0448651 0.998993 -0
    outer loop
      vertex -2.28833 -0.58995 -0.5
      vertex -4.02212 -0.512085 -0.4
      vertex -2.28833 -0.58995 -0.4
    endloop
  endfacet
  facet normal 0.0448651 0.998993 0
    outer loop
      vertex -4.02212 -0.512085 -0.4
      vertex -2.28833 -0.58995 -0.5
      vertex -4.02212 -0.512085 -0.5
    endloop
  endfacet
  facet normal -0.473872 -0.880594 0
    outer loop
      vertex -4.8541 -3.52671 -0.5
      vertex -3.3258 -4.34913 -0.4
      vertex -4.8541 -3.52671 -0.4
    endloop
  endfacet
  facet normal -0.473872 -0.880594 -0
    outer loop
      vertex -3.3258 -4.34913 -0.4
      vertex -4.8541 -3.52671 -0.5
      vertex -3.3258 -4.34913 -0.5
    endloop
  endfacet
  facet normal -0.309018 0.951056 0
    outer loop
      vertex 1.50453 -1.82233 -0.5
      vertex -0.146057 -2.35864 -0.4
      vertex 1.50453 -1.82233 -0.4
    endloop
  endfacet
  facet normal -0.309018 0.951056 0
    outer loop
      vertex -0.146057 -2.35864 -0.4
      vertex 1.50453 -1.82233 -0.5
      vertex -0.146057 -2.35864 -0.5
    endloop
  endfacet
  facet normal 0.550897 0.834573 -0
    outer loop
      vertex 2.95296 -2.77843 -0.5
      vertex 1.50453 -1.82233 -0.4
      vertex 2.95296 -2.77843 -0.4
    endloop
  endfacet
  facet normal 0.550897 0.834573 0
    outer loop
      vertex 1.50453 -1.82233 -0.4
      vertex 2.95296 -2.77843 -0.5
      vertex 1.50453 -1.82233 -0.5
    endloop
  endfacet
  facet normal -0.134235 -0.990949 0
    outer loop
      vertex 0.134274 -5.47337 -0.5
      vertex 1.8541 -5.70634 -0.4
      vertex 0.134274 -5.47337 -0.4
    endloop
  endfacet
  facet normal -0.134235 -0.990949 -0
    outer loop
      vertex 1.8541 -5.70634 -0.4
      vertex 0.134274 -5.47337 -0.5
      vertex 1.8541 -5.70634 -0.5
    endloop
  endfacet
  facet normal -0.936234 0.351376 0
    outer loop
      vertex -0.75588 -3.9835 -0.5
      vertex -0.146057 -2.35864 -0.4
      vertex -0.146057 -2.35864 -0.5
    endloop
  endfacet
  facet normal -0.936234 0.351376 0
    outer loop
      vertex -0.146057 -2.35864 -0.4
      vertex -0.75588 -3.9835 -0.5
      vertex -0.75588 -3.9835 -0.4
    endloop
  endfacet
  facet normal 0 0 -1
    outer loop
      vertex 1.8541 -5.70634 -0.5
      vertex 2.95296 -2.77843 -0.5
      vertex 3.10854 -4.50698 -0.5
    endloop
  endfacet
  facet normal 0 0 -1
    outer loop
      vertex 1.8541 -5.70634 -0.5
      vertex 1.50453 -1.82233 -0.5
      vertex 2.95296 -2.77843 -0.5
    endloop
  endfacet
  facet normal 0 0 -1
    outer loop
      vertex 0.134274 -5.47337 -0.5
      vertex 1.50453 -1.82233 -0.5
      vertex 1.8541 -5.70634 -0.5
    endloop
  endfacet
  facet normal 0 0 -1
    outer loop
      vertex 0.134274 -5.47337 -0.5
      vertex -0.146057 -2.35864 -0.5
      vertex 1.50453 -1.82233 -0.5
    endloop
  endfacet
  facet normal 0 -0 -1
    outer loop
      vertex -0.146057 -2.35864 -0.5
      vertex 0.134274 -5.47337 -0.5
      vertex -0.75588 -3.9835 -0.5
    endloop
  endfacet
  facet normal -0.858449 -0.512898 0
    outer loop
      vertex 0.134274 -5.47337 -0.5
      vertex -0.75588 -3.9835 -0.4
      vertex -0.75588 -3.9835 -0.5
    endloop
  endfacet
  facet normal -0.858449 -0.512898 0
    outer loop
      vertex -0.75588 -3.9835 -0.4
      vertex 0.134274 -5.47337 -0.5
      vertex 0.134274 -5.47337 -0.4
    endloop
  endfacet
  facet normal 0.995974 0.0896437 0
    outer loop
      vertex 3.10854 -4.50698 -0.4
      vertex 2.95296 -2.77843 -0.5
      vertex 2.95296 -2.77843 -0.4
    endloop
  endfacet
  facet normal 0.995974 0.0896437 0
    outer loop
      vertex 2.95296 -2.77843 -0.5
      vertex 3.10854 -4.50698 -0.4
      vertex 3.10854 -4.50698 -0.5
    endloop
  endfacet
  facet normal 0.69106 -0.722797 0
    outer loop
      vertex 1.8541 -5.70634 -0.5
      vertex 3.10854 -4.50698 -0.4
      vertex 1.8541 -5.70634 -0.4
    endloop
  endfacet
  facet normal 0.69106 -0.722797 0
    outer loop
      vertex 3.10854 -4.50698 -0.4
      vertex 1.8541 -5.70634 -0.5
      vertex 3.10854 -4.50698 -0.5
    endloop
  endfacet
  facet normal 0 0 1
    outer loop
      vertex 2.95296 -2.77843 -0.4
      vertex 1.8541 -5.70634 -0.4
      vertex 3.10854 -4.50698 -0.4
    endloop
  endfacet
  facet normal 0 0 1
    outer loop
      vertex 1.50453 -1.82233 -0.4
      vertex 1.8541 -5.70634 -0.4
      vertex 2.95296 -2.77843 -0.4
    endloop
  endfacet
  facet normal 0 0 1
    outer loop
      vertex 1.50453 -1.82233 -0.4
      vertex 0.134274 -5.47337 -0.4
      vertex 1.8541 -5.70634 -0.4
    endloop
  endfacet
  facet normal -0 0 1
    outer loop
      vertex -0.146057 -2.35864 -0.4
      vertex 0.134274 -5.47337 -0.4
      vertex 1.50453 -1.82233 -0.4
    endloop
  endfacet
  facet normal 0 0 1
    outer loop
      vertex 0.134274 -5.47337 -0.4
      vertex -0.146057 -2.35864 -0.4
      vertex -0.75588 -3.9835 -0.4
    endloop
  endfacet
  facet normal -1 0 0
    outer loop
      vertex 4 0 -0.5
      vertex 4 1.84828 -0.4
      vertex 4 1.84828 -0.5
    endloop
  endfacet
  facet normal -1 -0 0
    outer loop
      vertex 4 1.84828 -0.4
      vertex 4 0 -0.5
      vertex 4 0 -0.4
    endloop
  endfacet
  facet normal 1 -0 0
    outer loop
      vertex 0 2.31118 -0.4
      vertex 0 4 -0.5
      vertex 0 4 -0.4
    endloop
  endfacet
  facet normal 1 0 0
    outer loop
      vertex 0 4 -0.5
      vertex 0 2.31118 -0.4
      vertex 0 2.31118 -0.5
    endloop
  endfacet
  facet normal 0 -1 0
    outer loop
      vertex 0 4 -0.5
      vertex 3.06291 4 -0.4
      vertex 0 4 -0.4
    endloop
  endfacet
  facet normal 0 -1 -0
    outer loop
      vertex 3.06291 4 -0.4
      vertex 0 4 -0.5
      vertex 3.06291 4 -0.5
    endloop
  endfacet
  facet normal 0 1 -0
    outer loop
      vertex 4 0 -0.5
      vertex 2.19806 0 -0.4
      vertex 4 0 -0.4
    endloop
  endfacet
  facet normal 0 1 0
    outer loop
      vertex 2.19806 0 -0.4
      vertex 4 0 -0.5
      vertex 2.19806 0 -0.5
    endloop
  endfacet
endsolid OpenSCAD_Model
