solid OpenSCAD_Model
  facet normal 0.900969 -0.433884 0
    outer loop
      vertex 1.24698 -1.56366 1
      vertex 1.47554 -1.08905 0
      vertex 1.47554 -1.08905 1
    endloop
  endfacet
  facet normal 0.900969 -0.433884 0
    outer loop
      vertex 1.47554 -1.08905 0
      vertex 1.24698 -1.56366 1
      vertex 1.24698 -1.56366 0
    endloop
  endfacet
  facet normal -0 0 1
    outer loop
      vertex 19.4755 1.08905 1
      vertex 23 0 1
      vertex 22.247 1.56366 1
    endloop
  endfacet
  facet normal 0 0 1
    outer loop
      vertex 19.4755 1.08905 1
      vertex 22.247 1.56366 1
      vertex 20.555 1.94986 1
    endloop
  endfacet
  facet normal 0 0 1
    outer loop
      vertex 19.4755 -1.08905 1
      vertex 23 0 1
      vertex 19.4755 1.08905 1
    endloop
  endfacet
  facet normal 0 0 1
    outer loop
      vertex 23 0 1
      vertex 19.4755 -1.08905 1
      vertex 22.247 -1.56366 1
    endloop
  endfacet
  facet normal 0 0 1
    outer loop
      vertex 22.247 -1.56366 1
      vertex 19.4755 -1.08905 1
      vertex 20.555 -1.94986 1
    endloop
  endfacet
  facet normal 0 0 1
    outer loop
      vertex 17.555 1.94986 1
      vertex 19.4755 1.08905 1
      vertex 19.247 1.56366 1
    endloop
  endfacet
  facet normal 0 0 1
    outer loop
      vertex 19.4755 1.08905 1
      vertex 16.4755 1.08905 1
      vertex 19.4755 -1.08905 1
    endloop
  endfacet
  facet normal 0 0 1
    outer loop
      vertex 19.4755 1.08905 1
      vertex 17.555 1.94986 1
      vertex 16.4755 1.08905 1
    endloop
  endfacet
  facet normal 0 0 1
    outer loop
      vertex 16.4755 -1.08905 1
      vertex 19.4755 -1.08905 1
      vertex 16.4755 1.08905 1
    endloop
  endfacet
  facet normal 0 -0 1
    outer loop
      vertex 17.555 -1.94986 1
      vertex 19.4755 -1.08905 1
      vertex 16.4755 -1.08905 1
    endloop
  endfacet
  facet normal 0 0 1
    outer loop
      vertex 19.4755 -1.08905 1
      vertex 17.555 -1.94986 1
      vertex 19.247 -1.56366 1
    endloop
  endfacet
  facet normal 0 0 1
    outer loop
      vertex 14.555 1.94986 1
      vertex 16.4755 1.08905 1
      vertex 16.247 1.56366 1
    endloop
  endfacet
  facet normal 0 0 1
    outer loop
      vertex 16.4755 1.08905 1
      vertex 13.4755 1.08905 1
      vertex 16.4755 -1.08905 1
    endloop
  endfacet
  facet normal 0 0 1
    outer loop
      vertex 16.4755 1.08905 1
      vertex 14.555 1.94986 1
      vertex 13.4755 1.08905 1
    endloop
  endfacet
  facet normal 0 0 1
    outer loop
      vertex 13.4755 -1.08905 1
      vertex 16.4755 -1.08905 1
      vertex 13.4755 1.08905 1
    endloop
  endfacet
  facet normal 0 -0 1
    outer loop
      vertex 14.555 -1.94986 1
      vertex 16.4755 -1.08905 1
      vertex 13.4755 -1.08905 1
    endloop
  endfacet
  facet normal 0 0 1
    outer loop
      vertex 16.4755 -1.08905 1
      vertex 14.555 -1.94986 1
      vertex 16.247 -1.56366 1
    endloop
  endfacet
  facet normal 0 0 1
    outer loop
      vertex 11.555 1.94986 1
      vertex 13.4755 1.08905 1
      vertex 13.247 1.56366 1
    endloop
  endfacet
  facet normal 0 0 1
    outer loop
      vertex 13.4755 1.08905 1
      vertex 10.4755 1.08905 1
      vertex 13.4755 -1.08905 1
    endloop
  endfacet
  facet normal 0 0 1
    outer loop
      vertex 13.4755 1.08905 1
      vertex 11.555 1.94986 1
      vertex 10.4755 1.08905 1
    endloop
  endfacet
  facet normal 0 0 1
    outer loop
      vertex 10.4755 -1.08905 1
      vertex 13.4755 -1.08905 1
      vertex 10.4755 1.08905 1
    endloop
  endfacet
  facet normal 0 -0 1
    outer loop
      vertex 11.555 -1.94986 1
      vertex 13.4755 -1.08905 1
      vertex 10.4755 -1.08905 1
    endloop
  endfacet
  facet normal 0 0 1
    outer loop
      vertex 13.4755 -1.08905 1
      vertex 11.555 -1.94986 1
      vertex 13.247 -1.56366 1
    endloop
  endfacet
  facet normal 0 0 1
    outer loop
      vertex 8.55496 1.94986 1
      vertex 10.4755 1.08905 1
      vertex 10.247 1.56366 1
    endloop
  endfacet
  facet normal 0 0 1
    outer loop
      vertex 10.4755 1.08905 1
      vertex 7.47554 1.08905 1
      vertex 10.4755 -1.08905 1
    endloop
  endfacet
  facet normal 0 0 1
    outer loop
      vertex 10.4755 1.08905 1
      vertex 8.55496 1.94986 1
      vertex 7.47554 1.08905 1
    endloop
  endfacet
  facet normal 0 0 1
    outer loop
      vertex 7.47554 -1.08905 1
      vertex 10.4755 -1.08905 1
      vertex 7.47554 1.08905 1
    endloop
  endfacet
  facet normal 0 -0 1
    outer loop
      vertex 8.55496 -1.94986 1
      vertex 10.4755 -1.08905 1
      vertex 7.47554 -1.08905 1
    endloop
  endfacet
  facet normal 0 0 1
    outer loop
      vertex 10.4755 -1.08905 1
      vertex 8.55496 -1.94986 1
      vertex 10.247 -1.56366 1
    endloop
  endfacet
  facet normal 0 0 1
    outer loop
      vertex 5.55496 1.94986 1
      vertex 7.47554 1.08905 1
      vertex 7.24698 1.56366 1
    endloop
  endfacet
  facet normal 0 0 1
    outer loop
      vertex 7.47554 1.08905 1
      vertex 4.47554 1.08905 1
      vertex 7.47554 -1.08905 1
    endloop
  endfacet
  facet normal 0 0 1
    outer loop
      vertex 7.47554 1.08905 1
      vertex 5.55496 1.94986 1
      vertex 4.47554 1.08905 1
    endloop
  endfacet
  facet normal 0 0 1
    outer loop
      vertex 4.47554 -1.08905 1
      vertex 7.47554 -1.08905 1
      vertex 4.47554 1.08905 1
    endloop
  endfacet
  facet normal 0 -0 1
    outer loop
      vertex 5.55496 -1.94986 1
      vertex 7.47554 -1.08905 1
      vertex 4.47554 -1.08905 1
    endloop
  endfacet
  facet normal 0 0 1
    outer loop
      vertex 7.47554 -1.08905 1
      vertex 5.55496 -1.94986 1
      vertex 7.24698 -1.56366 1
    endloop
  endfacet
  facet normal 0 0 1
    outer loop
      vertex 2.55496 1.94986 1
      vertex 4.47554 1.08905 1
      vertex 4.24698 1.56366 1
    endloop
  endfacet
  facet normal 0 0 1
    outer loop
      vertex 4.47554 1.08905 1
      vertex 1.47554 1.08905 1
      vertex 4.47554 -1.08905 1
    endloop
  endfacet
  facet normal 0 0 1
    outer loop
      vertex 4.47554 1.08905 1
      vertex 2.55496 1.94986 1
      vertex 1.47554 1.08905 1
    endloop
  endfacet
  facet normal 0 0 1
    outer loop
      vertex 1.47554 -1.08905 1
      vertex 4.47554 -1.08905 1
      vertex 1.47554 1.08905 1
    endloop
  endfacet
  facet normal 0 -0 1
    outer loop
      vertex 2.55496 -1.94986 1
      vertex 4.47554 -1.08905 1
      vertex 1.47554 -1.08905 1
    endloop
  endfacet
  facet normal 0 0 1
    outer loop
      vertex 4.47554 -1.08905 1
      vertex 2.55496 -1.94986 1
      vertex 4.24698 -1.56366 1
    endloop
  endfacet
  facet normal 0 0 1
    outer loop
      vertex -0.445042 1.94986 1
      vertex 1.47554 1.08905 1
      vertex 1.24698 1.56366 1
    endloop
  endfacet
  facet normal 0 0 1
    outer loop
      vertex -1.80194 0.867767 1
      vertex 1.47554 1.08905 1
      vertex -0.445042 1.94986 1
    endloop
  endfacet
  facet normal 0 0 1
    outer loop
      vertex 1.47554 1.08905 1
      vertex -1.80194 0.867767 1
      vertex 1.47554 -1.08905 1
    endloop
  endfacet
  facet normal 0 0 1
    outer loop
      vertex 1.47554 -1.08905 1
      vertex -0.445042 -1.94986 1
      vertex 1.24698 -1.56366 1
    endloop
  endfacet
  facet normal -0 0 1
    outer loop
      vertex -1.80194 -0.867767 1
      vertex 1.47554 -1.08905 1
      vertex -1.80194 0.867767 1
    endloop
  endfacet
  facet normal 0 0 1
    outer loop
      vertex 1.47554 -1.08905 1
      vertex -1.80194 -0.867767 1
      vertex -0.445042 -1.94986 1
    endloop
  endfacet
  facet normal -0.623491 -0.781831 0
    outer loop
      vertex -1.80194 -0.867767 0
      vertex -0.445042 -1.94986 1
      vertex -1.80194 -0.867767 1
    endloop
  endfacet
  facet normal -0.623491 -0.781831 -0
    outer loop
      vertex -0.445042 -1.94986 1
      vertex -1.80194 -0.867767 0
      vertex -0.445042 -1.94986 0
    endloop
  endfacet
  facet normal 0 0 -1
    outer loop
      vertex 19.4755 -1.08905 0
      vertex 23 0 0
      vertex 22.247 -1.56366 0
    endloop
  endfacet
  facet normal 0 0 -1
    outer loop
      vertex 19.4755 -1.08905 0
      vertex 22.247 -1.56366 0
      vertex 20.555 -1.94986 0
    endloop
  endfacet
  facet normal 0 0 -1
    outer loop
      vertex 19.4755 1.08905 0
      vertex 23 0 0
      vertex 19.4755 -1.08905 0
    endloop
  endfacet
  facet normal 0 0 -1
    outer loop
      vertex 23 0 0
      vertex 19.4755 1.08905 0
      vertex 22.247 1.56366 0
    endloop
  endfacet
  facet normal -0 0 -1
    outer loop
      vertex 22.247 1.56366 0
      vertex 19.4755 1.08905 0
      vertex 20.555 1.94986 0
    endloop
  endfacet
  facet normal 0 0 -1
    outer loop
      vertex 17.555 -1.94986 0
      vertex 19.4755 -1.08905 0
      vertex 19.247 -1.56366 0
    endloop
  endfacet
  facet normal 0 0 -1
    outer loop
      vertex 19.4755 -1.08905 0
      vertex 16.4755 -1.08905 0
      vertex 19.4755 1.08905 0
    endloop
  endfacet
  facet normal -0 0 -1
    outer loop
      vertex 19.4755 -1.08905 0
      vertex 17.555 -1.94986 0
      vertex 16.4755 -1.08905 0
    endloop
  endfacet
  facet normal 0 0 -1
    outer loop
      vertex 16.4755 1.08905 0
      vertex 19.4755 1.08905 0
      vertex 16.4755 -1.08905 0
    endloop
  endfacet
  facet normal 0 -0 -1
    outer loop
      vertex 17.555 1.94986 0
      vertex 19.4755 1.08905 0
      vertex 16.4755 1.08905 0
    endloop
  endfacet
  facet normal 0 0 -1
    outer loop
      vertex 19.4755 1.08905 0
      vertex 17.555 1.94986 0
      vertex 19.247 1.56366 0
    endloop
  endfacet
  facet normal 0 0 -1
    outer loop
      vertex 14.555 -1.94986 0
      vertex 16.4755 -1.08905 0
      vertex 16.247 -1.56366 0
    endloop
  endfacet
  facet normal 0 0 -1
    outer loop
      vertex 16.4755 -1.08905 0
      vertex 13.4755 -1.08905 0
      vertex 16.4755 1.08905 0
    endloop
  endfacet
  facet normal -0 0 -1
    outer loop
      vertex 16.4755 -1.08905 0
      vertex 14.555 -1.94986 0
      vertex 13.4755 -1.08905 0
    endloop
  endfacet
  facet normal 0 0 -1
    outer loop
      vertex 13.4755 1.08905 0
      vertex 16.4755 1.08905 0
      vertex 13.4755 -1.08905 0
    endloop
  endfacet
  facet normal 0 -0 -1
    outer loop
      vertex 14.555 1.94986 0
      vertex 16.4755 1.08905 0
      vertex 13.4755 1.08905 0
    endloop
  endfacet
  facet normal 0 0 -1
    outer loop
      vertex 16.4755 1.08905 0
      vertex 14.555 1.94986 0
      vertex 16.247 1.56366 0
    endloop
  endfacet
  facet normal 0 0 -1
    outer loop
      vertex 11.555 -1.94986 0
      vertex 13.4755 -1.08905 0
      vertex 13.247 -1.56366 0
    endloop
  endfacet
  facet normal 0 0 -1
    outer loop
      vertex 13.4755 -1.08905 0
      vertex 10.4755 -1.08905 0
      vertex 13.4755 1.08905 0
    endloop
  endfacet
  facet normal -0 0 -1
    outer loop
      vertex 13.4755 -1.08905 0
      vertex 11.555 -1.94986 0
      vertex 10.4755 -1.08905 0
    endloop
  endfacet
  facet normal 0 0 -1
    outer loop
      vertex 10.4755 1.08905 0
      vertex 13.4755 1.08905 0
      vertex 10.4755 -1.08905 0
    endloop
  endfacet
  facet normal 0 -0 -1
    outer loop
      vertex 11.555 1.94986 0
      vertex 13.4755 1.08905 0
      vertex 10.4755 1.08905 0
    endloop
  endfacet
  facet normal 0 0 -1
    outer loop
      vertex 13.4755 1.08905 0
      vertex 11.555 1.94986 0
      vertex 13.247 1.56366 0
    endloop
  endfacet
  facet normal 0 0 -1
    outer loop
      vertex 8.55496 -1.94986 0
      vertex 10.4755 -1.08905 0
      vertex 10.247 -1.56366 0
    endloop
  endfacet
  facet normal 0 0 -1
    outer loop
      vertex 10.4755 -1.08905 0
      vertex 7.47554 -1.08905 0
      vertex 10.4755 1.08905 0
    endloop
  endfacet
  facet normal -0 0 -1
    outer loop
      vertex 10.4755 -1.08905 0
      vertex 8.55496 -1.94986 0
      vertex 7.47554 -1.08905 0
    endloop
  endfacet
  facet normal 0 0 -1
    outer loop
      vertex 7.47554 1.08905 0
      vertex 10.4755 1.08905 0
      vertex 7.47554 -1.08905 0
    endloop
  endfacet
  facet normal 0 -0 -1
    outer loop
      vertex 8.55496 1.94986 0
      vertex 10.4755 1.08905 0
      vertex 7.47554 1.08905 0
    endloop
  endfacet
  facet normal 0 0 -1
    outer loop
      vertex 10.4755 1.08905 0
      vertex 8.55496 1.94986 0
      vertex 10.247 1.56366 0
    endloop
  endfacet
  facet normal 0 0 -1
    outer loop
      vertex 5.55496 -1.94986 0
      vertex 7.47554 -1.08905 0
      vertex 7.24698 -1.56366 0
    endloop
  endfacet
  facet normal 0 0 -1
    outer loop
      vertex 7.47554 -1.08905 0
      vertex 4.47554 -1.08905 0
      vertex 7.47554 1.08905 0
    endloop
  endfacet
  facet normal -0 0 -1
    outer loop
      vertex 7.47554 -1.08905 0
      vertex 5.55496 -1.94986 0
      vertex 4.47554 -1.08905 0
    endloop
  endfacet
  facet normal 0 0 -1
    outer loop
      vertex 4.47554 1.08905 0
      vertex 7.47554 1.08905 0
      vertex 4.47554 -1.08905 0
    endloop
  endfacet
  facet normal 0 -0 -1
    outer loop
      vertex 5.55496 1.94986 0
      vertex 7.47554 1.08905 0
      vertex 4.47554 1.08905 0
    endloop
  endfacet
  facet normal 0 0 -1
    outer loop
      vertex 7.47554 1.08905 0
      vertex 5.55496 1.94986 0
      vertex 7.24698 1.56366 0
    endloop
  endfacet
  facet normal 0 0 -1
    outer loop
      vertex 2.55496 -1.94986 0
      vertex 4.47554 -1.08905 0
      vertex 4.24698 -1.56366 0
    endloop
  endfacet
  facet normal 0 0 -1
    outer loop
      vertex 4.47554 -1.08905 0
      vertex 1.47554 -1.08905 0
      vertex 4.47554 1.08905 0
    endloop
  endfacet
  facet normal -0 0 -1
    outer loop
      vertex 4.47554 -1.08905 0
      vertex 2.55496 -1.94986 0
      vertex 1.47554 -1.08905 0
    endloop
  endfacet
  facet normal 0 0 -1
    outer loop
      vertex 1.47554 1.08905 0
      vertex 4.47554 1.08905 0
      vertex 1.47554 -1.08905 0
    endloop
  endfacet
  facet normal 0 -0 -1
    outer loop
      vertex 2.55496 1.94986 0
      vertex 4.47554 1.08905 0
      vertex 1.47554 1.08905 0
    endloop
  endfacet
  facet normal 0 0 -1
    outer loop
      vertex 4.47554 1.08905 0
      vertex 2.55496 1.94986 0
      vertex 4.24698 1.56366 0
    endloop
  endfacet
  facet normal 0 0 -1
    outer loop
      vertex -0.445042 -1.94986 0
      vertex 1.47554 -1.08905 0
      vertex 1.24698 -1.56366 0
    endloop
  endfacet
  facet normal 0 0 -1
    outer loop
      vertex -1.80194 -0.867767 0
      vertex 1.47554 -1.08905 0
      vertex -0.445042 -1.94986 0
    endloop
  endfacet
  facet normal 0 0 -1
    outer loop
      vertex 1.47554 -1.08905 0
      vertex -1.80194 -0.867767 0
      vertex 1.47554 1.08905 0
    endloop
  endfacet
  facet normal 0 0 -1
    outer loop
      vertex 1.47554 1.08905 0
      vertex -0.445042 1.94986 0
      vertex 1.24698 1.56366 0
    endloop
  endfacet
  facet normal 0 0 -1
    outer loop
      vertex -1.80194 0.867767 0
      vertex 1.47554 1.08905 0
      vertex -1.80194 -0.867767 0
    endloop
  endfacet
  facet normal -0 0 -1
    outer loop
      vertex 1.47554 1.08905 0
      vertex -1.80194 0.867767 0
      vertex -0.445042 1.94986 0
    endloop
  endfacet
  facet normal -1 0 0
    outer loop
      vertex -1.80194 -0.867767 0
      vertex -1.80194 0.867767 1
      vertex -1.80194 0.867767 0
    endloop
  endfacet
  facet normal -1 -0 0
    outer loop
      vertex -1.80194 0.867767 1
      vertex -1.80194 -0.867767 0
      vertex -1.80194 -0.867767 1
    endloop
  endfacet
  facet normal -0.623491 0.781831 0
    outer loop
      vertex -0.445042 1.94986 0
      vertex -1.80194 0.867767 1
      vertex -0.445042 1.94986 1
    endloop
  endfacet
  facet normal -0.623491 0.781831 0
    outer loop
      vertex -1.80194 0.867767 1
      vertex -0.445042 1.94986 0
      vertex -1.80194 0.867767 0
    endloop
  endfacet
  facet normal 0.222525 0.974927 -0
    outer loop
      vertex 1.24698 1.56366 0
      vertex -0.445042 1.94986 1
      vertex 1.24698 1.56366 1
    endloop
  endfacet
  facet normal 0.222525 0.974927 0
    outer loop
      vertex -0.445042 1.94986 1
      vertex 1.24698 1.56366 0
      vertex -0.445042 1.94986 0
    endloop
  endfacet
  facet normal 0.222525 -0.974927 0
    outer loop
      vertex -0.445042 -1.94986 0
      vertex 1.24698 -1.56366 1
      vertex -0.445042 -1.94986 1
    endloop
  endfacet
  facet normal 0.222525 -0.974927 0
    outer loop
      vertex 1.24698 -1.56366 1
      vertex -0.445042 -1.94986 0
      vertex 1.24698 -1.56366 0
    endloop
  endfacet
  facet normal 0.900969 0.433884 0
    outer loop
      vertex 1.47554 1.08905 1
      vertex 1.24698 1.56366 0
      vertex 1.24698 1.56366 1
    endloop
  endfacet
  facet normal 0.900969 0.433884 0
    outer loop
      vertex 1.24698 1.56366 0
      vertex 1.47554 1.08905 1
      vertex 1.47554 1.08905 0
    endloop
  endfacet
  facet normal 0.900969 -0.433884 0
    outer loop
      vertex 4.24698 -1.56366 1
      vertex 4.47554 -1.08905 0
      vertex 4.47554 -1.08905 1
    endloop
  endfacet
  facet normal 0.900969 -0.433884 0
    outer loop
      vertex 4.47554 -1.08905 0
      vertex 4.24698 -1.56366 1
      vertex 4.24698 -1.56366 0
    endloop
  endfacet
  facet normal -0.62349 -0.781831 0
    outer loop
      vertex 1.47554 -1.08905 0
      vertex 2.55496 -1.94986 1
      vertex 1.47554 -1.08905 1
    endloop
  endfacet
  facet normal -0.62349 -0.781831 -0
    outer loop
      vertex 2.55496 -1.94986 1
      vertex 1.47554 -1.08905 0
      vertex 2.55496 -1.94986 0
    endloop
  endfacet
  facet normal -0.62349 0.781831 0
    outer loop
      vertex 2.55496 1.94986 0
      vertex 1.47554 1.08905 1
      vertex 2.55496 1.94986 1
    endloop
  endfacet
  facet normal -0.62349 0.781831 0
    outer loop
      vertex 1.47554 1.08905 1
      vertex 2.55496 1.94986 0
      vertex 1.47554 1.08905 0
    endloop
  endfacet
  facet normal 0.222525 0.974927 -0
    outer loop
      vertex 4.24698 1.56366 0
      vertex 2.55496 1.94986 1
      vertex 4.24698 1.56366 1
    endloop
  endfacet
  facet normal 0.222525 0.974927 0
    outer loop
      vertex 2.55496 1.94986 1
      vertex 4.24698 1.56366 0
      vertex 2.55496 1.94986 0
    endloop
  endfacet
  facet normal 0.222525 -0.974927 0
    outer loop
      vertex 2.55496 -1.94986 0
      vertex 4.24698 -1.56366 1
      vertex 2.55496 -1.94986 1
    endloop
  endfacet
  facet normal 0.222525 -0.974927 0
    outer loop
      vertex 4.24698 -1.56366 1
      vertex 2.55496 -1.94986 0
      vertex 4.24698 -1.56366 0
    endloop
  endfacet
  facet normal 0.900969 0.433884 0
    outer loop
      vertex 4.47554 1.08905 1
      vertex 4.24698 1.56366 0
      vertex 4.24698 1.56366 1
    endloop
  endfacet
  facet normal 0.900969 0.433884 0
    outer loop
      vertex 4.24698 1.56366 0
      vertex 4.47554 1.08905 1
      vertex 4.47554 1.08905 0
    endloop
  endfacet
  facet normal 0.900969 -0.433884 0
    outer loop
      vertex 7.24698 -1.56366 1
      vertex 7.47554 -1.08905 0
      vertex 7.47554 -1.08905 1
    endloop
  endfacet
  facet normal 0.900969 -0.433884 0
    outer loop
      vertex 7.47554 -1.08905 0
      vertex 7.24698 -1.56366 1
      vertex 7.24698 -1.56366 0
    endloop
  endfacet
  facet normal -0.62349 -0.781831 0
    outer loop
      vertex 4.47554 -1.08905 0
      vertex 5.55496 -1.94986 1
      vertex 4.47554 -1.08905 1
    endloop
  endfacet
  facet normal -0.62349 -0.781831 -0
    outer loop
      vertex 5.55496 -1.94986 1
      vertex 4.47554 -1.08905 0
      vertex 5.55496 -1.94986 0
    endloop
  endfacet
  facet normal -0.62349 0.781831 0
    outer loop
      vertex 5.55496 1.94986 0
      vertex 4.47554 1.08905 1
      vertex 5.55496 1.94986 1
    endloop
  endfacet
  facet normal -0.62349 0.781831 0
    outer loop
      vertex 4.47554 1.08905 1
      vertex 5.55496 1.94986 0
      vertex 4.47554 1.08905 0
    endloop
  endfacet
  facet normal 0.222525 0.974927 -0
    outer loop
      vertex 7.24698 1.56366 0
      vertex 5.55496 1.94986 1
      vertex 7.24698 1.56366 1
    endloop
  endfacet
  facet normal 0.222525 0.974927 0
    outer loop
      vertex 5.55496 1.94986 1
      vertex 7.24698 1.56366 0
      vertex 5.55496 1.94986 0
    endloop
  endfacet
  facet normal 0.222525 -0.974927 0
    outer loop
      vertex 5.55496 -1.94986 0
      vertex 7.24698 -1.56366 1
      vertex 5.55496 -1.94986 1
    endloop
  endfacet
  facet normal 0.222525 -0.974927 0
    outer loop
      vertex 7.24698 -1.56366 1
      vertex 5.55496 -1.94986 0
      vertex 7.24698 -1.56366 0
    endloop
  endfacet
  facet normal 0.900969 0.433884 0
    outer loop
      vertex 7.47554 1.08905 1
      vertex 7.24698 1.56366 0
      vertex 7.24698 1.56366 1
    endloop
  endfacet
  facet normal 0.900969 0.433884 0
    outer loop
      vertex 7.24698 1.56366 0
      vertex 7.47554 1.08905 1
      vertex 7.47554 1.08905 0
    endloop
  endfacet
  facet normal 0.901013 -0.433791 0
    outer loop
      vertex 10.247 -1.56366 1
      vertex 10.4755 -1.08905 0
      vertex 10.4755 -1.08905 1
    endloop
  endfacet
  facet normal 0.901013 -0.433791 0
    outer loop
      vertex 10.4755 -1.08905 0
      vertex 10.247 -1.56366 1
      vertex 10.247 -1.56366 0
    endloop
  endfacet
  facet normal -0.62349 -0.781831 0
    outer loop
      vertex 7.47554 -1.08905 0
      vertex 8.55496 -1.94986 1
      vertex 7.47554 -1.08905 1
    endloop
  endfacet
  facet normal -0.62349 -0.781831 -0
    outer loop
      vertex 8.55496 -1.94986 1
      vertex 7.47554 -1.08905 0
      vertex 8.55496 -1.94986 0
    endloop
  endfacet
  facet normal -0.62349 0.781831 0
    outer loop
      vertex 8.55496 1.94986 0
      vertex 7.47554 1.08905 1
      vertex 8.55496 1.94986 1
    endloop
  endfacet
  facet normal -0.62349 0.781831 0
    outer loop
      vertex 7.47554 1.08905 1
      vertex 8.55496 1.94986 0
      vertex 7.47554 1.08905 0
    endloop
  endfacet
  facet normal 0.222523 0.974928 -0
    outer loop
      vertex 10.247 1.56366 0
      vertex 8.55496 1.94986 1
      vertex 10.247 1.56366 1
    endloop
  endfacet
  facet normal 0.222523 0.974928 0
    outer loop
      vertex 8.55496 1.94986 1
      vertex 10.247 1.56366 0
      vertex 8.55496 1.94986 0
    endloop
  endfacet
  facet normal 0.222523 -0.974928 0
    outer loop
      vertex 8.55496 -1.94986 0
      vertex 10.247 -1.56366 1
      vertex 8.55496 -1.94986 1
    endloop
  endfacet
  facet normal 0.222523 -0.974928 0
    outer loop
      vertex 10.247 -1.56366 1
      vertex 8.55496 -1.94986 0
      vertex 10.247 -1.56366 0
    endloop
  endfacet
  facet normal 0.901013 0.433791 0
    outer loop
      vertex 10.4755 1.08905 1
      vertex 10.247 1.56366 0
      vertex 10.247 1.56366 1
    endloop
  endfacet
  facet normal 0.901013 0.433791 0
    outer loop
      vertex 10.247 1.56366 0
      vertex 10.4755 1.08905 1
      vertex 10.4755 1.08905 0
    endloop
  endfacet
  facet normal 0.901013 -0.433791 0
    outer loop
      vertex 13.247 -1.56366 1
      vertex 13.4755 -1.08905 0
      vertex 13.4755 -1.08905 1
    endloop
  endfacet
  facet normal 0.901013 -0.433791 0
    outer loop
      vertex 13.4755 -1.08905 0
      vertex 13.247 -1.56366 1
      vertex 13.247 -1.56366 0
    endloop
  endfacet
  facet normal -0.623462 -0.781854 0
    outer loop
      vertex 10.4755 -1.08905 0
      vertex 11.555 -1.94986 1
      vertex 10.4755 -1.08905 1
    endloop
  endfacet
  facet normal -0.623462 -0.781854 -0
    outer loop
      vertex 11.555 -1.94986 1
      vertex 10.4755 -1.08905 0
      vertex 11.555 -1.94986 0
    endloop
  endfacet
  facet normal -0.623462 0.781854 0
    outer loop
      vertex 11.555 1.94986 0
      vertex 10.4755 1.08905 1
      vertex 11.555 1.94986 1
    endloop
  endfacet
  facet normal -0.623462 0.781854 0
    outer loop
      vertex 10.4755 1.08905 1
      vertex 11.555 1.94986 0
      vertex 10.4755 1.08905 0
    endloop
  endfacet
  facet normal 0.222528 0.974926 -0
    outer loop
      vertex 13.247 1.56366 0
      vertex 11.555 1.94986 1
      vertex 13.247 1.56366 1
    endloop
  endfacet
  facet normal 0.222528 0.974926 0
    outer loop
      vertex 11.555 1.94986 1
      vertex 13.247 1.56366 0
      vertex 11.555 1.94986 0
    endloop
  endfacet
  facet normal 0.222528 -0.974926 0
    outer loop
      vertex 11.555 -1.94986 0
      vertex 13.247 -1.56366 1
      vertex 11.555 -1.94986 1
    endloop
  endfacet
  facet normal 0.222528 -0.974926 0
    outer loop
      vertex 13.247 -1.56366 1
      vertex 11.555 -1.94986 0
      vertex 13.247 -1.56366 0
    endloop
  endfacet
  facet normal 0.901013 0.433791 0
    outer loop
      vertex 13.4755 1.08905 1
      vertex 13.247 1.56366 0
      vertex 13.247 1.56366 1
    endloop
  endfacet
  facet normal 0.901013 0.433791 0
    outer loop
      vertex 13.247 1.56366 0
      vertex 13.4755 1.08905 1
      vertex 13.4755 1.08905 0
    endloop
  endfacet
  facet normal 0.901013 -0.433791 0
    outer loop
      vertex 16.247 -1.56366 1
      vertex 16.4755 -1.08905 0
      vertex 16.4755 -1.08905 1
    endloop
  endfacet
  facet normal 0.901013 -0.433791 0
    outer loop
      vertex 16.4755 -1.08905 0
      vertex 16.247 -1.56366 1
      vertex 16.247 -1.56366 0
    endloop
  endfacet
  facet normal -0.623462 -0.781854 0
    outer loop
      vertex 13.4755 -1.08905 0
      vertex 14.555 -1.94986 1
      vertex 13.4755 -1.08905 1
    endloop
  endfacet
  facet normal -0.623462 -0.781854 -0
    outer loop
      vertex 14.555 -1.94986 1
      vertex 13.4755 -1.08905 0
      vertex 14.555 -1.94986 0
    endloop
  endfacet
  facet normal -0.623462 0.781854 0
    outer loop
      vertex 14.555 1.94986 0
      vertex 13.4755 1.08905 1
      vertex 14.555 1.94986 1
    endloop
  endfacet
  facet normal -0.623462 0.781854 0
    outer loop
      vertex 13.4755 1.08905 1
      vertex 14.555 1.94986 0
      vertex 13.4755 1.08905 0
    endloop
  endfacet
  facet normal 0.222528 0.974926 -0
    outer loop
      vertex 16.247 1.56366 0
      vertex 14.555 1.94986 1
      vertex 16.247 1.56366 1
    endloop
  endfacet
  facet normal 0.222528 0.974926 0
    outer loop
      vertex 14.555 1.94986 1
      vertex 16.247 1.56366 0
      vertex 14.555 1.94986 0
    endloop
  endfacet
  facet normal 0.222528 -0.974926 0
    outer loop
      vertex 14.555 -1.94986 0
      vertex 16.247 -1.56366 1
      vertex 14.555 -1.94986 1
    endloop
  endfacet
  facet normal 0.222528 -0.974926 0
    outer loop
      vertex 16.247 -1.56366 1
      vertex 14.555 -1.94986 0
      vertex 16.247 -1.56366 0
    endloop
  endfacet
  facet normal 0.901013 0.433791 0
    outer loop
      vertex 16.4755 1.08905 1
      vertex 16.247 1.56366 0
      vertex 16.247 1.56366 1
    endloop
  endfacet
  facet normal 0.901013 0.433791 0
    outer loop
      vertex 16.247 1.56366 0
      vertex 16.4755 1.08905 1
      vertex 16.4755 1.08905 0
    endloop
  endfacet
  facet normal 0.901013 -0.433791 0
    outer loop
      vertex 19.247 -1.56366 1
      vertex 19.4755 -1.08905 0
      vertex 19.4755 -1.08905 1
    endloop
  endfacet
  facet normal 0.901013 -0.433791 0
    outer loop
      vertex 19.4755 -1.08905 0
      vertex 19.247 -1.56366 1
      vertex 19.247 -1.56366 0
    endloop
  endfacet
  facet normal -0.623462 -0.781854 0
    outer loop
      vertex 16.4755 -1.08905 0
      vertex 17.555 -1.94986 1
      vertex 16.4755 -1.08905 1
    endloop
  endfacet
  facet normal -0.623462 -0.781854 -0
    outer loop
      vertex 17.555 -1.94986 1
      vertex 16.4755 -1.08905 0
      vertex 17.555 -1.94986 0
    endloop
  endfacet
  facet normal -0.623462 0.781854 0
    outer loop
      vertex 17.555 1.94986 0
      vertex 16.4755 1.08905 1
      vertex 17.555 1.94986 1
    endloop
  endfacet
  facet normal -0.623462 0.781854 0
    outer loop
      vertex 16.4755 1.08905 1
      vertex 17.555 1.94986 0
      vertex 16.4755 1.08905 0
    endloop
  endfacet
  facet normal 0.222528 0.974926 -0
    outer loop
      vertex 19.247 1.56366 0
      vertex 17.555 1.94986 1
      vertex 19.247 1.56366 1
    endloop
  endfacet
  facet normal 0.222528 0.974926 0
    outer loop
      vertex 17.555 1.94986 1
      vertex 19.247 1.56366 0
      vertex 17.555 1.94986 0
    endloop
  endfacet
  facet normal 0.222528 -0.974926 0
    outer loop
      vertex 17.555 -1.94986 0
      vertex 19.247 -1.56366 1
      vertex 17.555 -1.94986 1
    endloop
  endfacet
  facet normal 0.222528 -0.974926 0
    outer loop
      vertex 19.247 -1.56366 1
      vertex 17.555 -1.94986 0
      vertex 19.247 -1.56366 0
    endloop
  endfacet
  facet normal 0.901013 0.433791 0
    outer loop
      vertex 19.4755 1.08905 1
      vertex 19.247 1.56366 0
      vertex 19.247 1.56366 1
    endloop
  endfacet
  facet normal 0.901013 0.433791 0
    outer loop
      vertex 19.247 1.56366 0
      vertex 19.4755 1.08905 1
      vertex 19.4755 1.08905 0
    endloop
  endfacet
  facet normal 0.900973 -0.433875 0
    outer loop
      vertex 22.247 -1.56366 1
      vertex 23 0 0
      vertex 23 0 1
    endloop
  endfacet
  facet normal 0.900973 -0.433875 0
    outer loop
      vertex 23 0 0
      vertex 22.247 -1.56366 1
      vertex 22.247 -1.56366 0
    endloop
  endfacet
  facet normal -0.623462 -0.781854 0
    outer loop
      vertex 19.4755 -1.08905 0
      vertex 20.555 -1.94986 1
      vertex 19.4755 -1.08905 1
    endloop
  endfacet
  facet normal -0.623462 -0.781854 -0
    outer loop
      vertex 20.555 -1.94986 1
      vertex 19.4755 -1.08905 0
      vertex 20.555 -1.94986 0
    endloop
  endfacet
  facet normal -0.623462 0.781854 0
    outer loop
      vertex 20.555 1.94986 0
      vertex 19.4755 1.08905 1
      vertex 20.555 1.94986 1
    endloop
  endfacet
  facet normal -0.623462 0.781854 0
    outer loop
      vertex 19.4755 1.08905 1
      vertex 20.555 1.94986 0
      vertex 19.4755 1.08905 0
    endloop
  endfacet
  facet normal 0.222528 0.974926 -0
    outer loop
      vertex 22.247 1.56366 0
      vertex 20.555 1.94986 1
      vertex 22.247 1.56366 1
    endloop
  endfacet
  facet normal 0.222528 0.974926 0
    outer loop
      vertex 20.555 1.94986 1
      vertex 22.247 1.56366 0
      vertex 20.555 1.94986 0
    endloop
  endfacet
  facet normal 0.222528 -0.974926 0
    outer loop
      vertex 20.555 -1.94986 0
      vertex 22.247 -1.56366 1
      vertex 20.555 -1.94986 1
    endloop
  endfacet
  facet normal 0.222528 -0.974926 0
    outer loop
      vertex 22.247 -1.56366 1
      vertex 20.555 -1.94986 0
      vertex 22.247 -1.56366 0
    endloop
  endfacet
  facet normal 0.900973 0.433875 0
    outer loop
      vertex 23 0 1
      vertex 22.247 1.56366 0
      vertex 22.247 1.56366 1
    endloop
  endfacet
  facet normal 0.900973 0.433875 0
    outer loop
      vertex 22.247 1.56366 0
      vertex 23 0 1
      vertex 23 0 0
    endloop
  endfacet
endsolid OpenSCAD_Model
