solid OpenSCAD_Model
  facet normal 1 -0 0
    outer loop
      vertex 20 0 80
      vertex 20 20 0
      vertex 20 20 80
    endloop
  endfacet
  facet normal 1 0 0
    outer loop
      vertex 20 20 0
      vertex 20 0 80
      vertex 20 0 0
    endloop
  endfacet
  facet normal -0 0 1
    outer loop
      vertex 14.2658 4.63525 80
      vertex 20 0 80
      vertex 20 20 80
    endloop
  endfacet
  facet normal 0 0 1
    outer loop
      vertex 20 0 80
      vertex 14.2658 4.63525 80
      vertex 14.9178 1.56793 80
    endloop
  endfacet
  facet normal 0 0 1
    outer loop
      vertex 20 20 80
      vertex 12.9904 7.5 80
      vertex 14.2658 4.63525 80
    endloop
  endfacet
  facet normal 0 0 1
    outer loop
      vertex 20 20 80
      vertex 11.1472 10.037 80
      vertex 12.9904 7.5 80
    endloop
  endfacet
  facet normal 0 0 1
    outer loop
      vertex 20 20 80
      vertex 8.81678 12.1353 80
      vertex 11.1472 10.037 80
    endloop
  endfacet
  facet normal 0 0 1
    outer loop
      vertex 20 20 80
      vertex 6.10105 13.7032 80
      vertex 8.81678 12.1353 80
    endloop
  endfacet
  facet normal -0 0 1
    outer loop
      vertex 0 20 80
      vertex 6.10105 13.7032 80
      vertex 20 20 80
    endloop
  endfacet
  facet normal 0 0 1
    outer loop
      vertex 6.10105 13.7032 80
      vertex 0 20 80
      vertex 3.11868 14.6722 80
    endloop
  endfacet
  facet normal 0 0 1
    outer loop
      vertex 3.11868 14.6722 80
      vertex 0 20 80
      vertex 0 15 80
    endloop
  endfacet
  facet normal 0 0 1
    outer loop
      vertex 20 0 80
      vertex 14.9178 1.56793 80
      vertex 14.9178 0 80
    endloop
  endfacet
  facet normal 0 0 -1
    outer loop
      vertex 0 0 0
      vertex 20 20 0
      vertex 20 0 0
    endloop
  endfacet
  facet normal -0 0 -1
    outer loop
      vertex 20 20 0
      vertex 0 0 0
      vertex 0 20 0
    endloop
  endfacet
  facet normal -1 0 0
    outer loop
      vertex 0 20 0
      vertex 0 15 65
      vertex 0 20 80
    endloop
  endfacet
  facet normal -1 0 0
    outer loop
      vertex 0 0 0
      vertex 0 15 65
      vertex 0 20 0
    endloop
  endfacet
  facet normal -1 -0 0
    outer loop
      vertex 0 15 65
      vertex 0 0 0
      vertex 0 0 65
    endloop
  endfacet
  facet normal -1 -0 0
    outer loop
      vertex 0 20 80
      vertex 0 15 65
      vertex 0 15 80
    endloop
  endfacet
  facet normal 0 1 -0
    outer loop
      vertex 20 20 0
      vertex 0 20 80
      vertex 20 20 80
    endloop
  endfacet
  facet normal 0 1 0
    outer loop
      vertex 0 20 80
      vertex 20 20 0
      vertex 0 20 0
    endloop
  endfacet
  facet normal 0 -1 0
    outer loop
      vertex 0 0 65
      vertex 0 0 0
      vertex 14.9178 0 65
    endloop
  endfacet
  facet normal 0 -1 0
    outer loop
      vertex 14.9178 0 65
      vertex 20 0 80
      vertex 14.9178 0 80
    endloop
  endfacet
  facet normal 0 -1 0
    outer loop
      vertex 20 0 0
      vertex 14.9178 0 65
      vertex 0 0 0
    endloop
  endfacet
  facet normal 0 -1 0
    outer loop
      vertex 14.9178 0 65
      vertex 20 0 0
      vertex 20 0 80
    endloop
  endfacet
  facet normal 0 0 1
    outer loop
      vertex 0 0 65
      vertex 14.9178 1.56793 65
      vertex 14.2658 4.63525 65
    endloop
  endfacet
  facet normal 0 0 1
    outer loop
      vertex 0 0 65
      vertex 14.2658 4.63525 65
      vertex 12.9904 7.5 65
    endloop
  endfacet
  facet normal 0 0 1
    outer loop
      vertex 0 0 65
      vertex 12.9904 7.5 65
      vertex 11.1472 10.037 65
    endloop
  endfacet
  facet normal 0 0 1
    outer loop
      vertex 0 0 65
      vertex 11.1472 10.037 65
      vertex 8.81678 12.1353 65
    endloop
  endfacet
  facet normal 0 0 1
    outer loop
      vertex 0 0 65
      vertex 8.81678 12.1353 65
      vertex 6.10105 13.7032 65
    endloop
  endfacet
  facet normal 0 0 1
    outer loop
      vertex 0 0 65
      vertex 6.10105 13.7032 65
      vertex 3.11868 14.6722 65
    endloop
  endfacet
  facet normal 0 0 1
    outer loop
      vertex 0 0 65
      vertex 3.11868 14.6722 65
      vertex 0 15 65
    endloop
  endfacet
  facet normal 0 0 1
    outer loop
      vertex 14.9178 1.56793 65
      vertex 0 0 65
      vertex 14.9178 0 65
    endloop
  endfacet
  facet normal -0.669127 -0.743148 0
    outer loop
      vertex 8.81678 12.1353 65
      vertex 11.1472 10.037 80
      vertex 8.81678 12.1353 80
    endloop
  endfacet
  facet normal -0.669127 -0.743148 -0
    outer loop
      vertex 11.1472 10.037 80
      vertex 8.81678 12.1353 65
      vertex 11.1472 10.037 65
    endloop
  endfacet
  facet normal -0.104533 -0.994521 0
    outer loop
      vertex 0 15 65
      vertex 3.11868 14.6722 80
      vertex 0 15 80
    endloop
  endfacet
  facet normal -0.104533 -0.994521 -0
    outer loop
      vertex 3.11868 14.6722 80
      vertex 0 15 65
      vertex 3.11868 14.6722 65
    endloop
  endfacet
  facet normal -0.309008 -0.951059 0
    outer loop
      vertex 3.11868 14.6722 65
      vertex 6.10105 13.7032 80
      vertex 3.11868 14.6722 80
    endloop
  endfacet
  facet normal -0.309008 -0.951059 -0
    outer loop
      vertex 6.10105 13.7032 80
      vertex 3.11868 14.6722 65
      vertex 6.10105 13.7032 65
    endloop
  endfacet
  facet normal -0.809023 -0.587777 0
    outer loop
      vertex 12.9904 7.5 65
      vertex 11.1472 10.037 80
      vertex 11.1472 10.037 65
    endloop
  endfacet
  facet normal -0.809023 -0.587777 0
    outer loop
      vertex 11.1472 10.037 80
      vertex 12.9904 7.5 65
      vertex 12.9904 7.5 80
    endloop
  endfacet
  facet normal -0.913554 -0.406718 0
    outer loop
      vertex 14.2658 4.63525 65
      vertex 12.9904 7.5 80
      vertex 12.9904 7.5 65
    endloop
  endfacet
  facet normal -0.913554 -0.406718 0
    outer loop
      vertex 12.9904 7.5 80
      vertex 14.2658 4.63525 65
      vertex 14.2658 4.63525 80
    endloop
  endfacet
  facet normal -0.499993 -0.866029 0
    outer loop
      vertex 6.10105 13.7032 65
      vertex 8.81678 12.1353 80
      vertex 6.10105 13.7032 80
    endloop
  endfacet
  facet normal -0.499993 -0.866029 -0
    outer loop
      vertex 8.81678 12.1353 80
      vertex 6.10105 13.7032 65
      vertex 8.81678 12.1353 65
    endloop
  endfacet
  facet normal -1 0 0
    outer loop
      vertex 14.9178 0 65
      vertex 14.9178 1.56793 80
      vertex 14.9178 1.56793 65
    endloop
  endfacet
  facet normal -1 -0 0
    outer loop
      vertex 14.9178 1.56793 80
      vertex 14.9178 0 65
      vertex 14.9178 0 80
    endloop
  endfacet
  facet normal -0.978146 -0.207918 0
    outer loop
      vertex 14.9178 1.56793 65
      vertex 14.2658 4.63525 80
      vertex 14.2658 4.63525 65
    endloop
  endfacet
  facet normal -0.978146 -0.207918 0
    outer loop
      vertex 14.2658 4.63525 80
      vertex 14.9178 1.56793 65
      vertex 14.9178 1.56793 80
    endloop
  endfacet
endsolid OpenSCAD_Model
