solid OpenSCAD_Model
  facet normal -0.504368 0.863489 0
    outer loop
      vertex 5.3629 5.87785 0
      vertex 1.02392 3.34343 5
      vertex 5.3629 5.87785 5
    endloop
  endfacet
  facet normal -0.504368 0.863489 0
    outer loop
      vertex 1.02392 3.34343 5
      vertex 5.3629 5.87785 0
      vertex 1.02392 3.34343 0
    endloop
  endfacet
  facet normal -0.809019 -0.587782 0
    outer loop
      vertex -2.72727 0 0
      vertex -3.02116 0.404508 5
      vertex -3.02116 0.404508 0
    endloop
  endfacet
  facet normal -0.809019 -0.587782 0
    outer loop
      vertex -3.02116 0.404508 5
      vertex -2.72727 0 0
      vertex -2.72727 0 5
    endloop
  endfacet
  facet normal 0.587785 -0.809017 0
    outer loop
      vertex 0.950077 2.67175 0
      vertex 5.3629 5.87785 5
      vertex 0.950077 2.67175 5
    endloop
  endfacet
  facet normal 0.587785 -0.809017 0
    outer loop
      vertex 5.3629 5.87785 5
      vertex 0.950077 2.67175 0
      vertex 5.3629 5.87785 0
    endloop
  endfacet
  facet normal 0.587785 -0.809017 0
    outer loop
      vertex -2.72727 0 0
      vertex -0.440424 1.66149 5
      vertex -2.72727 0 5
    endloop
  endfacet
  facet normal 0.587785 -0.809017 0
    outer loop
      vertex -0.440424 1.66149 5
      vertex -2.72727 0 0
      vertex -0.440424 1.66149 0
    endloop
  endfacet
  facet normal 0.587753 -0.809041 0
    outer loop
      vertex 0.247766 2.16149 0
      vertex 0.256493 2.16783 5
      vertex 0.247766 2.16149 5
    endloop
  endfacet
  facet normal 0.587753 -0.809041 0
    outer loop
      vertex 0.256493 2.16783 5
      vertex 0.247766 2.16149 0
      vertex 0.256493 2.16783 0
    endloop
  endfacet
  facet normal -0.587776 0.809024 0
    outer loop
      vertex 1.02392 3.34343 0
      vertex 0.787617 3.17175 5
      vertex 1.02392 3.34343 5
    endloop
  endfacet
  facet normal -0.587776 0.809024 0
    outer loop
      vertex 0.787617 3.17175 5
      vertex 1.02392 3.34343 0
      vertex 0.787617 3.17175 0
    endloop
  endfacet
  facet normal -0.587786 0.809016 0
    outer loop
      vertex -0.177559 2.47051 0
      vertex -3.02116 0.404508 5
      vertex -0.177559 2.47051 5
    endloop
  endfacet
  facet normal -0.587786 0.809016 0
    outer loop
      vertex -3.02116 0.404508 5
      vertex -0.177559 2.47051 0
      vertex -3.02116 0.404508 0
    endloop
  endfacet
  facet normal 0 0 1
    outer loop
      vertex 2.63562 9.51056 5
      vertex 0.615011 4.90979 5
      vertex 0.681818 3.49737 5
    endloop
  endfacet
  facet normal -0 0 1
    outer loop
      vertex 1.02392 3.34343 5
      vertex 0.950077 2.67175 5
      vertex 5.3629 5.87785 5
    endloop
  endfacet
  facet normal 0 -0 1
    outer loop
      vertex 0.950077 2.67175 5
      vertex 1.02392 3.34343 5
      vertex 0.787617 3.17175 5
    endloop
  endfacet
  facet normal 0 0 1
    outer loop
      vertex 4.09091 0 5
      vertex 1.37874 1.35248 5
      vertex 3.24026 0 5
    endloop
  endfacet
  facet normal 0 0 1
    outer loop
      vertex 1.81818 0 5
      vertex 1.29245 0 5
      vertex 1.36364 -0.5 5
    endloop
  endfacet
  facet normal 0 0 1
    outer loop
      vertex 1.11587 2.16149 5
      vertex 1.37874 1.35248 5
      vertex 4.09091 0 5
    endloop
  endfacet
  facet normal -0 0 1
    outer loop
      vertex 0.690545 1.85247 5
      vertex 1.37874 1.35248 5
      vertex 1.11587 2.16149 5
    endloop
  endfacet
  facet normal 0 0 1
    outer loop
      vertex 0.690545 1.85247 5
      vertex 1.11587 2.16149 5
      vertex 0.950077 2.67175 5
    endloop
  endfacet
  facet normal -0 0 1
    outer loop
      vertex -0.0117658 2.98077 5
      vertex 0.950077 2.67175 5
      vertex 0.787617 3.17175 5
    endloop
  endfacet
  facet normal 0 0 1
    outer loop
      vertex 1.37874 1.35248 5
      vertex 0.690545 1.85247 5
      vertex 1.29245 0 5
    endloop
  endfacet
  facet normal -0 0 1
    outer loop
      vertex 0.156087 3.49737 5
      vertex 0.787617 3.17175 5
      vertex 0.681818 3.49737 5
    endloop
  endfacet
  facet normal -0 0 1
    outer loop
      vertex 0.418952 4.30638 5
      vertex 0.681818 3.49737 5
      vertex 0.615011 4.90979 5
    endloop
  endfacet
  facet normal 0 0 1
    outer loop
      vertex 0.156087 3.49737 5
      vertex 0.681818 3.49737 5
      vertex 0.418952 4.30638 5
    endloop
  endfacet
  facet normal 0 0 1
    outer loop
      vertex 0.787617 3.17175 5
      vertex 0.156087 3.49737 5
      vertex -0.0117658 2.98077 5
    endloop
  endfacet
  facet normal 0 0 1
    outer loop
      vertex 0.950077 2.67175 5
      vertex 0.256493 2.16783 5
      vertex 0.690545 1.85247 5
    endloop
  endfacet
  facet normal 0 0 1
    outer loop
      vertex 0.950077 2.67175 5
      vertex -0.0117658 2.98077 5
      vertex 0.256493 2.16783 5
    endloop
  endfacet
  facet normal 0 0 1
    outer loop
      vertex 0.418952 4.30638 5
      vertex -0.202431 4.60077 5
      vertex 0.156087 3.49737 5
    endloop
  endfacet
  facet normal -0 -0 1
    outer loop
      vertex -0.202431 4.60077 5
      vertex 0.418952 4.30638 5
      vertex -1.27199 9.51056 5
    endloop
  endfacet
  facet normal -0 0 1
    outer loop
      vertex 4.09091 0 5
      vertex 6.36364 -0.5 5
      vertex 6.36364 0 5
    endloop
  endfacet
  facet normal 0 0 1
    outer loop
      vertex 1.36364 -0.5 5
      vertex 4.09091 0 5
      vertex 3.24026 0 5
    endloop
  endfacet
  facet normal 0 0 1
    outer loop
      vertex 1.36364 -0.5 5
      vertex 3.24026 0 5
      vertex 1.81818 0 5
    endloop
  endfacet
  facet normal 0 0 1
    outer loop
      vertex 4.09091 0 5
      vertex 1.36364 -0.5 5
      vertex 6.36364 -0.5 5
    endloop
  endfacet
  facet normal 0 0 1
    outer loop
      vertex 1.29245 0 5
      vertex 1.81818 0 5
      vertex 1.37874 1.35248 5
    endloop
  endfacet
  facet normal -0 0 1
    outer loop
      vertex -0.454545 0 5
      vertex 1.36364 -0.5 5
      vertex 1.29245 0 5
    endloop
  endfacet
  facet normal -0 0 1
    outer loop
      vertex -2.72727 0 5
      vertex 1.36364 -0.5 5
      vertex -0.454545 0 5
    endloop
  endfacet
  facet normal 0 0 1
    outer loop
      vertex 1.36364 -0.5 5
      vertex -2.72727 0 5
      vertex -3.63636 0 5
    endloop
  endfacet
  facet normal 0 0 1
    outer loop
      vertex -3.02116 0.404508 5
      vertex -0.440424 1.66149 5
      vertex -0.177559 2.47051 5
    endloop
  endfacet
  facet normal 0 0 1
    outer loop
      vertex -0.440424 1.66149 5
      vertex -3.02116 0.404508 5
      vertex -2.72727 0 5
    endloop
  endfacet
  facet normal 0 0 1
    outer loop
      vertex -0.0117658 2.98077 5
      vertex -0.248068 2.53442 5
      vertex -0.174226 2.48077 5
    endloop
  endfacet
  facet normal 0 -0 1
    outer loop
      vertex -0.248068 2.53442 5
      vertex -0.0117658 2.98077 5
      vertex -3.99926 5.87785 5
    endloop
  endfacet
  facet normal -0 0 1
    outer loop
      vertex -0.174226 2.48077 5
      vertex 0.256493 2.16783 5
      vertex -0.0117658 2.98077 5
    endloop
  endfacet
  facet normal 0 0 1
    outer loop
      vertex 0.256493 2.16783 5
      vertex -0.174226 2.48077 5
      vertex 0.247766 2.16149 5
    endloop
  endfacet
  facet normal -0 0 1
    outer loop
      vertex -0.177559 2.47051 5
      vertex 0.247766 2.16149 5
      vertex -0.174226 2.48077 5
    endloop
  endfacet
  facet normal 0 0 1
    outer loop
      vertex -0.440424 1.66149 5
      vertex 0.247766 2.16149 5
      vertex -0.177559 2.47051 5
    endloop
  endfacet
  facet normal -0 0 1
    outer loop
      vertex -0.440424 1.66149 5
      vertex -0.454545 0 5
      vertex 0.247766 2.16149 5
    endloop
  endfacet
  facet normal 0 -0 1
    outer loop
      vertex -0.454545 0 5
      vertex -0.440424 1.66149 5
      vertex -0.930073 0.154508 5
    endloop
  endfacet
  facet normal -0 0 -1
    outer loop
      vertex 0.787617 3.17175 0
      vertex -0.0117658 2.98077 0
      vertex 0.156087 3.49737 0
    endloop
  endfacet
  facet normal 0 0 -1
    outer loop
      vertex 0.256493 2.16783 0
      vertex -0.174226 2.48077 0
      vertex -0.0117658 2.98077 0
    endloop
  endfacet
  facet normal 0 0 -1
    outer loop
      vertex 0.247766 2.16149 0
      vertex -0.177559 2.47051 0
      vertex -0.174226 2.48077 0
    endloop
  endfacet
  facet normal -0 0 -1
    outer loop
      vertex 0.247766 2.16149 0
      vertex -0.440424 1.66149 0
      vertex -0.177559 2.47051 0
    endloop
  endfacet
  facet normal 0 0 -1
    outer loop
      vertex -0.454545 0 0
      vertex -0.440424 1.66149 0
      vertex 0.247766 2.16149 0
    endloop
  endfacet
  facet normal 0 0 -1
    outer loop
      vertex -0.440424 1.66149 0
      vertex -0.454545 0 0
      vertex -0.930073 0.154508 0
    endloop
  endfacet
  facet normal 0 0 -1
    outer loop
      vertex 1.36364 -0.5 0
      vertex -0.454545 0 0
      vertex 1.29245 0 0
    endloop
  endfacet
  facet normal 0 0 -1
    outer loop
      vertex 1.36364 -0.5 0
      vertex -2.72727 0 0
      vertex -0.454545 0 0
    endloop
  endfacet
  facet normal -0 -0 -1
    outer loop
      vertex -2.72727 0 0
      vertex 1.36364 -0.5 0
      vertex -3.63636 0 0
    endloop
  endfacet
  facet normal 0 0 -1
    outer loop
      vertex 0.950077 2.67175 0
      vertex 1.02392 3.34343 0
      vertex 5.3629 5.87785 0
    endloop
  endfacet
  facet normal 0 0 -1
    outer loop
      vertex 1.02392 3.34343 0
      vertex 0.950077 2.67175 0
      vertex 0.787617 3.17175 0
    endloop
  endfacet
  facet normal 0 0 -1
    outer loop
      vertex 2.63562 9.51056 0
      vertex 0.681818 3.49737 0
      vertex 0.615011 4.90979 0
    endloop
  endfacet
  facet normal 0 0 -1
    outer loop
      vertex -0.248068 2.53442 0
      vertex -0.0117658 2.98077 0
      vertex -0.174226 2.48077 0
    endloop
  endfacet
  facet normal -0 0 -1
    outer loop
      vertex -0.0117658 2.98077 0
      vertex -0.248068 2.53442 0
      vertex -3.99926 5.87785 0
    endloop
  endfacet
  facet normal 0 0 -1
    outer loop
      vertex -3.02116 0.404508 0
      vertex -0.440424 1.66149 0
      vertex -2.72727 0 0
    endloop
  endfacet
  facet normal -0 0 -1
    outer loop
      vertex -0.440424 1.66149 0
      vertex -3.02116 0.404508 0
      vertex -0.177559 2.47051 0
    endloop
  endfacet
  facet normal 0 0 -1
    outer loop
      vertex 6.36364 -0.5 0
      vertex 4.09091 0 0
      vertex 6.36364 0 0
    endloop
  endfacet
  facet normal 0 0 -1
    outer loop
      vertex 1.36364 -0.5 0
      vertex 4.09091 0 0
      vertex 6.36364 -0.5 0
    endloop
  endfacet
  facet normal -0 0 -1
    outer loop
      vertex 4.09091 0 0
      vertex 1.36364 -0.5 0
      vertex 3.24026 0 0
    endloop
  endfacet
  facet normal 0 0 -1
    outer loop
      vertex 1.29245 0 0
      vertex 1.81818 0 0
      vertex 1.36364 -0.5 0
    endloop
  endfacet
  facet normal -0 0 -1
    outer loop
      vertex 3.24026 0 0
      vertex 1.36364 -0.5 0
      vertex 1.81818 0 0
    endloop
  endfacet
  facet normal 0 0 -1
    outer loop
      vertex 1.37874 1.35248 0
      vertex 4.09091 0 0
      vertex 3.24026 0 0
    endloop
  endfacet
  facet normal 0 0 -1
    outer loop
      vertex 1.81818 0 0
      vertex 1.29245 0 0
      vertex 1.37874 1.35248 0
    endloop
  endfacet
  facet normal 0 0 -1
    outer loop
      vertex 1.37874 1.35248 0
      vertex 1.11587 2.16149 0
      vertex 4.09091 0 0
    endloop
  endfacet
  facet normal 0 0 -1
    outer loop
      vertex 0.690545 1.85247 0
      vertex 1.37874 1.35248 0
      vertex 1.29245 0 0
    endloop
  endfacet
  facet normal 0 0 -1
    outer loop
      vertex 1.37874 1.35248 0
      vertex 0.690545 1.85247 0
      vertex 1.11587 2.16149 0
    endloop
  endfacet
  facet normal -0 0 -1
    outer loop
      vertex 1.11587 2.16149 0
      vertex 0.690545 1.85247 0
      vertex 0.950077 2.67175 0
    endloop
  endfacet
  facet normal 0 0 -1
    outer loop
      vertex 0.256493 2.16783 0
      vertex 0.950077 2.67175 0
      vertex 0.690545 1.85247 0
    endloop
  endfacet
  facet normal 0 0 -1
    outer loop
      vertex -0.0117658 2.98077 0
      vertex 0.950077 2.67175 0
      vertex 0.256493 2.16783 0
    endloop
  endfacet
  facet normal 0 0 -1
    outer loop
      vertex 0.950077 2.67175 0
      vertex -0.0117658 2.98077 0
      vertex 0.787617 3.17175 0
    endloop
  endfacet
  facet normal 0 0 -1
    outer loop
      vertex 0.681818 3.49737 0
      vertex 0.418952 4.30638 0
      vertex 0.615011 4.90979 0
    endloop
  endfacet
  facet normal 0 0 -1
    outer loop
      vertex 0.787617 3.17175 0
      vertex 0.156087 3.49737 0
      vertex 0.681818 3.49737 0
    endloop
  endfacet
  facet normal 0 0 -1
    outer loop
      vertex -0.174226 2.48077 0
      vertex 0.256493 2.16783 0
      vertex 0.247766 2.16149 0
    endloop
  endfacet
  facet normal 0 0 -1
    outer loop
      vertex 0.681818 3.49737 0
      vertex 0.156087 3.49737 0
      vertex 0.418952 4.30638 0
    endloop
  endfacet
  facet normal 0 0 -1
    outer loop
      vertex -0.202431 4.60077 0
      vertex 0.418952 4.30638 0
      vertex 0.156087 3.49737 0
    endloop
  endfacet
  facet normal 0 0 -1
    outer loop
      vertex 0.418952 4.30638 0
      vertex -0.202431 4.60077 0
      vertex -1.27199 9.51056 0
    endloop
  endfacet
  facet normal -0.309016 -0.951057 0
    outer loop
      vertex -0.930073 0.154508 0
      vertex -0.454545 0 5
      vertex -0.930073 0.154508 5
    endloop
  endfacet
  facet normal -0.309016 -0.951057 -0
    outer loop
      vertex -0.454545 0 5
      vertex -0.930073 0.154508 0
      vertex -0.454545 0 0
    endloop
  endfacet
  facet normal 0.951057 -0.309017 0
    outer loop
      vertex 0.681818 3.49737 5
      vertex 2.63562 9.51056 0
      vertex 2.63562 9.51056 5
    endloop
  endfacet
  facet normal 0.951057 -0.309017 0
    outer loop
      vertex 2.63562 9.51056 0
      vertex 0.681818 3.49737 5
      vertex 0.681818 3.49737 0
    endloop
  endfacet
  facet normal 0.951056 -0.309017 0
    outer loop
      vertex -0.454545 0 5
      vertex 0.247766 2.16149 0
      vertex 0.247766 2.16149 5
    endloop
  endfacet
  facet normal 0.951056 -0.309017 0
    outer loop
      vertex 0.247766 2.16149 0
      vertex -0.454545 0 5
      vertex -0.454545 0 0
    endloop
  endfacet
  facet normal -0.951057 0.309016 0
    outer loop
      vertex 0.418952 4.30638 0
      vertex 0.615011 4.90979 5
      vertex 0.615011 4.90979 0
    endloop
  endfacet
  facet normal -0.951057 0.309016 0
    outer loop
      vertex 0.615011 4.90979 5
      vertex 0.418952 4.30638 0
      vertex 0.418952 4.30638 5
    endloop
  endfacet
  facet normal -0.951056 0.309017 0
    outer loop
      vertex -0.930073 0.154508 0
      vertex -0.440424 1.66149 5
      vertex -0.440424 1.66149 0
    endloop
  endfacet
  facet normal -0.951056 0.309017 0
    outer loop
      vertex -0.440424 1.66149 5
      vertex -0.930073 0.154508 0
      vertex -0.930073 0.154508 5
    endloop
  endfacet
  facet normal -0.951057 0.309016 0
    outer loop
      vertex -0.0117658 2.98077 0
      vertex 0.156087 3.49737 5
      vertex 0.156087 3.49737 0
    endloop
  endfacet
  facet normal -0.951057 0.309016 0
    outer loop
      vertex 0.156087 3.49737 5
      vertex -0.0117658 2.98077 0
      vertex -0.0117658 2.98077 5
    endloop
  endfacet
  facet normal -0.951075 0.30896 0
    outer loop
      vertex -0.177559 2.47051 0
      vertex -0.174226 2.48077 5
      vertex -0.174226 2.48077 0
    endloop
  endfacet
  facet normal -0.951075 0.30896 0
    outer loop
      vertex -0.174226 2.48077 5
      vertex -0.177559 2.47051 0
      vertex -0.177559 2.47051 5
    endloop
  endfacet
  facet normal -0.915588 0.402117 0
    outer loop
      vertex 0.615011 4.90979 0
      vertex 2.63562 9.51056 5
      vertex 2.63562 9.51056 0
    endloop
  endfacet
  facet normal -0.915588 0.402117 0
    outer loop
      vertex 2.63562 9.51056 5
      vertex 0.615011 4.90979 0
      vertex 0.615011 4.90979 5
    endloop
  endfacet
  facet normal -0.951056 -0.309018 0
    outer loop
      vertex 0.156087 3.49737 0
      vertex -0.202431 4.60077 5
      vertex -0.202431 4.60077 0
    endloop
  endfacet
  facet normal -0.951056 -0.309018 0
    outer loop
      vertex -0.202431 4.60077 5
      vertex 0.156087 3.49737 0
      vertex 0.156087 3.49737 5
    endloop
  endfacet
  facet normal -0.951056 -0.309017 0
    outer loop
      vertex 1.29245 0 0
      vertex 0.690545 1.85247 5
      vertex 0.690545 1.85247 0
    endloop
  endfacet
  facet normal -0.951056 -0.309017 0
    outer loop
      vertex 0.690545 1.85247 5
      vertex 1.29245 0 0
      vertex 1.29245 0 5
    endloop
  endfacet
  facet normal -0.977085 -0.21285 0
    outer loop
      vertex -0.202431 4.60077 0
      vertex -1.27199 9.51056 5
      vertex -1.27199 9.51056 0
    endloop
  endfacet
  facet normal -0.977085 -0.21285 0
    outer loop
      vertex -1.27199 9.51056 5
      vertex -0.202431 4.60077 0
      vertex -0.202431 4.60077 5
    endloop
  endfacet
  facet normal 0.951056 0.309017 0
    outer loop
      vertex 0.418952 4.30638 5
      vertex -1.27199 9.51056 0
      vertex -1.27199 9.51056 5
    endloop
  endfacet
  facet normal 0.951056 0.309017 0
    outer loop
      vertex -1.27199 9.51056 0
      vertex 0.418952 4.30638 5
      vertex 0.418952 4.30638 0
    endloop
  endfacet
  facet normal 0.951058 0.309012 0
    outer loop
      vertex 1.81818 0 5
      vertex 1.37874 1.35248 0
      vertex 1.37874 1.35248 5
    endloop
  endfacet
  facet normal 0.951058 0.309012 0
    outer loop
      vertex 1.37874 1.35248 0
      vertex 1.81818 0 5
      vertex 1.81818 0 0
    endloop
  endfacet
  facet normal 0.951058 0.309013 0
    outer loop
      vertex 0.787617 3.17175 5
      vertex 0.681818 3.49737 0
      vertex 0.681818 3.49737 5
    endloop
  endfacet
  facet normal 0.951058 0.309013 0
    outer loop
      vertex 0.681818 3.49737 0
      vertex 0.787617 3.17175 5
      vertex 0.787617 3.17175 0
    endloop
  endfacet
  facet normal 0.951057 0.309016 0
    outer loop
      vertex 1.11587 2.16149 5
      vertex 0.950077 2.67175 0
      vertex 0.950077 2.67175 5
    endloop
  endfacet
  facet normal 0.951057 0.309016 0
    outer loop
      vertex 0.950077 2.67175 0
      vertex 1.11587 2.16149 5
      vertex 1.11587 2.16149 0
    endloop
  endfacet
  facet normal -0.58779 -0.809014 0
    outer loop
      vertex -0.248068 2.53442 0
      vertex -0.174226 2.48077 5
      vertex -0.248068 2.53442 5
    endloop
  endfacet
  facet normal -0.58779 -0.809014 -0
    outer loop
      vertex -0.174226 2.48077 5
      vertex -0.248068 2.53442 0
      vertex -0.174226 2.48077 0
    endloop
  endfacet
  facet normal -0.587787 -0.809016 0
    outer loop
      vertex 1.37874 1.35248 0
      vertex 3.24026 0 5
      vertex 1.37874 1.35248 5
    endloop
  endfacet
  facet normal -0.587787 -0.809016 -0
    outer loop
      vertex 3.24026 0 5
      vertex 1.37874 1.35248 0
      vertex 3.24026 0 0
    endloop
  endfacet
  facet normal -0.587789 -0.809015 0
    outer loop
      vertex 0.256493 2.16783 0
      vertex 0.690545 1.85247 5
      vertex 0.256493 2.16783 5
    endloop
  endfacet
  facet normal -0.587789 -0.809015 -0
    outer loop
      vertex 0.690545 1.85247 5
      vertex 0.256493 2.16783 0
      vertex 0.690545 1.85247 0
    endloop
  endfacet
  facet normal 0.587785 0.809017 -0
    outer loop
      vertex -0.0117658 2.98077 0
      vertex -3.99926 5.87785 5
      vertex -0.0117658 2.98077 5
    endloop
  endfacet
  facet normal 0.587785 0.809017 0
    outer loop
      vertex -3.99926 5.87785 5
      vertex -0.0117658 2.98077 0
      vertex -3.99926 5.87785 0
    endloop
  endfacet
  facet normal 0.587785 0.809017 -0
    outer loop
      vertex 4.09091 0 0
      vertex 1.11587 2.16149 5
      vertex 4.09091 0 5
    endloop
  endfacet
  facet normal 0.587785 0.809017 0
    outer loop
      vertex 1.11587 2.16149 5
      vertex 4.09091 0 0
      vertex 1.11587 2.16149 0
    endloop
  endfacet
  facet normal -0.665368 -0.746516 0
    outer loop
      vertex -3.99926 5.87785 0
      vertex -0.248068 2.53442 5
      vertex -3.99926 5.87785 5
    endloop
  endfacet
  facet normal -0.665368 -0.746516 -0
    outer loop
      vertex -0.248068 2.53442 5
      vertex -3.99926 5.87785 0
      vertex -0.248068 2.53442 0
    endloop
  endfacet
  facet normal 1 -0 0
    outer loop
      vertex 6.36364 -0.5 5
      vertex 6.36364 0 0
      vertex 6.36364 0 5
    endloop
  endfacet
  facet normal 1 0 0
    outer loop
      vertex 6.36364 0 0
      vertex 6.36364 -0.5 5
      vertex 6.36364 -0.5 0
    endloop
  endfacet
  facet normal 0 -1 0
    outer loop
      vertex 1.36364 -0.5 0
      vertex 6.36364 -0.5 5
      vertex 1.36364 -0.5 5
    endloop
  endfacet
  facet normal 0 -1 -0
    outer loop
      vertex 6.36364 -0.5 5
      vertex 1.36364 -0.5 0
      vertex 6.36364 -0.5 0
    endloop
  endfacet
  facet normal 0 1 -0
    outer loop
      vertex -2.72727 0 0
      vertex -3.63636 0 5
      vertex -2.72727 0 5
    endloop
  endfacet
  facet normal 0 1 0
    outer loop
      vertex -3.63636 0 5
      vertex -2.72727 0 0
      vertex -3.63636 0 0
    endloop
  endfacet
  facet normal 0 1 -0
    outer loop
      vertex 6.36364 0 0
      vertex 4.09091 0 5
      vertex 6.36364 0 5
    endloop
  endfacet
  facet normal 0 1 0
    outer loop
      vertex 4.09091 0 5
      vertex 6.36364 0 0
      vertex 4.09091 0 0
    endloop
  endfacet
  facet normal 0 1 -0
    outer loop
      vertex 3.24026 0 0
      vertex 1.81818 0 5
      vertex 3.24026 0 5
    endloop
  endfacet
  facet normal 0 1 0
    outer loop
      vertex 1.81818 0 5
      vertex 3.24026 0 0
      vertex 1.81818 0 0
    endloop
  endfacet
  facet normal 0 1 -0
    outer loop
      vertex 1.29245 0 0
      vertex -0.454545 0 5
      vertex 1.29245 0 5
    endloop
  endfacet
  facet normal 0 1 0
    outer loop
      vertex -0.454545 0 5
      vertex 1.29245 0 0
      vertex -0.454545 0 0
    endloop
  endfacet
  facet normal 0 1 -0
    outer loop
      vertex -0.454545 0 0
      vertex -2.72727 0 5
      vertex -0.454545 0 5
    endloop
  endfacet
  facet normal 0 1 0
    outer loop
      vertex -2.72727 0 5
      vertex -0.454545 0 0
      vertex -2.72727 0 0
    endloop
  endfacet
  facet normal -0.0995037 -0.995037 0
    outer loop
      vertex -3.63636 0 0
      vertex 1.36364 -0.5 5
      vertex -3.63636 0 5
    endloop
  endfacet
  facet normal -0.0995037 -0.995037 -0
    outer loop
      vertex 1.36364 -0.5 5
      vertex -3.63636 0 0
      vertex 1.36364 -0.5 0
    endloop
  endfacet
  facet normal 0.80901 0.587795 0
    outer loop
      vertex 8.93026 -0.404508 5
      vertex 8.63636 0 0
      vertex 8.63636 0 5
    endloop
  endfacet
  facet normal 0.80901 0.587795 0
    outer loop
      vertex 8.63636 0 0
      vertex 8.93026 -0.404508 5
      vertex 8.93026 -0.404508 0
    endloop
  endfacet
  facet normal 0 0 -1
    outer loop
      vertex 4.88517 -3.34343 0
      vertex 8.63636 0 0
      vertex 8.93026 -0.404508 0
    endloop
  endfacet
  facet normal 0 0 -1
    outer loop
      vertex 8.63636 0 0
      vertex 4.88517 -3.34343 0
      vertex 0.546193 -5.87785 0
    endloop
  endfacet
  facet normal 0 0 1
    outer loop
      vertex 8.63636 0 5
      vertex 4.88517 -3.34343 5
      vertex 8.93026 -0.404508 5
    endloop
  endfacet
  facet normal 0 -0 1
    outer loop
      vertex 4.88517 -3.34343 5
      vertex 8.63636 0 5
      vertex 0.546193 -5.87785 5
    endloop
  endfacet
  facet normal 0.587784 -0.809018 0
    outer loop
      vertex 4.88517 -3.34343 0
      vertex 8.93026 -0.404508 5
      vertex 4.88517 -3.34343 5
    endloop
  endfacet
  facet normal 0.587784 -0.809018 0
    outer loop
      vertex 8.93026 -0.404508 5
      vertex 4.88517 -3.34343 0
      vertex 8.93026 -0.404508 0
    endloop
  endfacet
  facet normal -0.587785 0.809017 0
    outer loop
      vertex 8.63636 0 0
      vertex 0.546193 -5.87785 5
      vertex 8.63636 0 5
    endloop
  endfacet
  facet normal -0.587785 0.809017 0
    outer loop
      vertex 0.546193 -5.87785 5
      vertex 8.63636 0 0
      vertex 0.546193 -5.87785 0
    endloop
  endfacet
  facet normal 0.504368 -0.863489 0
    outer loop
      vertex 0.546193 -5.87785 0
      vertex 4.88517 -3.34343 5
      vertex 0.546193 -5.87785 5
    endloop
  endfacet
  facet normal 0.504368 -0.863489 0
    outer loop
      vertex 4.88517 -3.34343 5
      vertex 0.546193 -5.87785 0
      vertex 4.88517 -3.34343 0
    endloop
  endfacet
  facet normal 0.309033 0.951051 -0
    outer loop
      vertex 11.3846 -0.154508 0
      vertex 10.9091 0 5
      vertex 11.3846 -0.154508 5
    endloop
  endfacet
  facet normal 0.309033 0.951051 0
    outer loop
      vertex 10.9091 0 5
      vertex 11.3846 -0.154508 0
      vertex 10.9091 0 0
    endloop
  endfacet
  facet normal 0 0 -1
    outer loop
      vertex 9.83953 -4.90979 0
      vertex 10.9091 0 0
      vertex 11.3846 -0.154508 0
    endloop
  endfacet
  facet normal 0 0 -1
    outer loop
      vertex 10.9091 0 0
      vertex 9.83953 -4.90979 0
      vertex 7.81892 -9.51056 0
    endloop
  endfacet
  facet normal 0 0 1
    outer loop
      vertex 10.9091 0 5
      vertex 9.83953 -4.90979 5
      vertex 11.3846 -0.154508 5
    endloop
  endfacet
  facet normal 0 -0 1
    outer loop
      vertex 9.83953 -4.90979 5
      vertex 10.9091 0 5
      vertex 7.81892 -9.51056 5
    endloop
  endfacet
  facet normal 0.951057 -0.309014 0
    outer loop
      vertex 9.83953 -4.90979 5
      vertex 11.3846 -0.154508 0
      vertex 11.3846 -0.154508 5
    endloop
  endfacet
  facet normal 0.951057 -0.309014 0
    outer loop
      vertex 11.3846 -0.154508 0
      vertex 9.83953 -4.90979 5
      vertex 9.83953 -4.90979 0
    endloop
  endfacet
  facet normal -0.951056 0.309018 0
    outer loop
      vertex 7.81892 -9.51056 0
      vertex 10.9091 0 5
      vertex 10.9091 0 0
    endloop
  endfacet
  facet normal -0.951056 0.309018 0
    outer loop
      vertex 10.9091 0 5
      vertex 7.81892 -9.51056 0
      vertex 7.81892 -9.51056 5
    endloop
  endfacet
  facet normal 0.915588 -0.402117 0
    outer loop
      vertex 7.81892 -9.51056 5
      vertex 9.83953 -4.90979 0
      vertex 9.83953 -4.90979 5
    endloop
  endfacet
  facet normal 0.915588 -0.402117 0
    outer loop
      vertex 9.83953 -4.90979 0
      vertex 7.81892 -9.51056 5
      vertex 7.81892 -9.51056 0
    endloop
  endfacet
  facet normal 0.977083 0.212858 0
    outer loop
      vertex 16.272 -9.51056 5
      vertex 15.2024 -4.60077 0
      vertex 15.2024 -4.60077 5
    endloop
  endfacet
  facet normal 0.977083 0.212858 0
    outer loop
      vertex 15.2024 -4.60077 0
      vertex 16.272 -9.51056 5
      vertex 16.272 -9.51056 0
    endloop
  endfacet
  facet normal -0.309033 0.951051 0
    outer loop
      vertex 13.6573 0.154508 0
      vertex 13.1818 0 5
      vertex 13.6573 0.154508 5
    endloop
  endfacet
  facet normal -0.309033 0.951051 0
    outer loop
      vertex 13.1818 0 5
      vertex 13.6573 0.154508 0
      vertex 13.1818 0 0
    endloop
  endfacet
  facet normal -0.951056 -0.30902 0
    outer loop
      vertex 16.272 -9.51056 0
      vertex 13.1818 0 5
      vertex 13.1818 0 0
    endloop
  endfacet
  facet normal -0.951056 -0.30902 0
    outer loop
      vertex 13.1818 0 5
      vertex 16.272 -9.51056 0
      vertex 16.272 -9.51056 5
    endloop
  endfacet
  facet normal -0 0 1
    outer loop
      vertex 13.1818 0 5
      vertex 15.2024 -4.60077 5
      vertex 13.6573 0.154508 5
    endloop
  endfacet
  facet normal 0 0 1
    outer loop
      vertex 15.2024 -4.60077 5
      vertex 13.1818 0 5
      vertex 16.272 -9.51056 5
    endloop
  endfacet
  facet normal 0.951056 0.30902 0
    outer loop
      vertex 15.2024 -4.60077 5
      vertex 13.6573 0.154508 0
      vertex 13.6573 0.154508 5
    endloop
  endfacet
  facet normal 0.951056 0.30902 0
    outer loop
      vertex 13.6573 0.154508 0
      vertex 15.2024 -4.60077 5
      vertex 15.2024 -4.60077 0
    endloop
  endfacet
  facet normal 0 0 -1
    outer loop
      vertex 13.1818 0 0
      vertex 15.2024 -4.60077 0
      vertex 16.272 -9.51056 0
    endloop
  endfacet
  facet normal 0 0 -1
    outer loop
      vertex 15.2024 -4.60077 0
      vertex 13.1818 0 0
      vertex 13.6573 0.154508 0
    endloop
  endfacet
  facet normal 0.665367 0.746516 -0
    outer loop
      vertex 23.5447 -5.87785 0
      vertex 19.7935 -2.53442 5
      vertex 23.5447 -5.87785 5
    endloop
  endfacet
  facet normal 0.665367 0.746516 0
    outer loop
      vertex 19.7935 -2.53442 5
      vertex 23.5447 -5.87785 0
      vertex 19.7935 -2.53442 0
    endloop
  endfacet
  facet normal -0.80901 0.587795 0
    outer loop
      vertex 15.4545 0 0
      vertex 15.7484 0.404508 5
      vertex 15.7484 0.404508 0
    endloop
  endfacet
  facet normal -0.80901 0.587795 0
    outer loop
      vertex 15.7484 0.404508 5
      vertex 15.4545 0 0
      vertex 15.4545 0 5
    endloop
  endfacet
  facet normal -0.587784 -0.809018 0
    outer loop
      vertex 15.4545 0 0
      vertex 23.5447 -5.87785 5
      vertex 15.4545 0 5
    endloop
  endfacet
  facet normal -0.587784 -0.809018 -0
    outer loop
      vertex 23.5447 -5.87785 5
      vertex 15.4545 0 0
      vertex 23.5447 -5.87785 0
    endloop
  endfacet
  facet normal -0 0 1
    outer loop
      vertex 15.4545 0 5
      vertex 19.7935 -2.53442 5
      vertex 15.7484 0.404508 5
    endloop
  endfacet
  facet normal 0 0 1
    outer loop
      vertex 19.7935 -2.53442 5
      vertex 15.4545 0 5
      vertex 23.5447 -5.87785 5
    endloop
  endfacet
  facet normal 0.587784 0.809018 -0
    outer loop
      vertex 19.7935 -2.53442 0
      vertex 15.7484 0.404508 5
      vertex 19.7935 -2.53442 5
    endloop
  endfacet
  facet normal 0.587784 0.809018 0
    outer loop
      vertex 15.7484 0.404508 5
      vertex 19.7935 -2.53442 0
      vertex 15.7484 0.404508 0
    endloop
  endfacet
  facet normal 0 0 -1
    outer loop
      vertex 15.4545 0 0
      vertex 19.7935 -2.53442 0
      vertex 23.5447 -5.87785 0
    endloop
  endfacet
  facet normal 0 0 -1
    outer loop
      vertex 19.7935 -2.53442 0
      vertex 15.4545 0 0
      vertex 15.7484 0.404508 0
    endloop
  endfacet
  facet normal 0.0995037 0.995037 -0
    outer loop
      vertex 27.7273 0 0
      vertex 22.7273 0.5 5
      vertex 27.7273 0 5
    endloop
  endfacet
  facet normal 0.0995037 0.995037 0
    outer loop
      vertex 22.7273 0.5 5
      vertex 27.7273 0 0
      vertex 22.7273 0.5 0
    endloop
  endfacet
  facet normal -1 0 0
    outer loop
      vertex 17.7273 0 0
      vertex 17.7273 0.5 5
      vertex 17.7273 0.5 0
    endloop
  endfacet
  facet normal -1 -0 0
    outer loop
      vertex 17.7273 0.5 5
      vertex 17.7273 0 0
      vertex 17.7273 0 5
    endloop
  endfacet
  facet normal 0 -1 0
    outer loop
      vertex 17.7273 0 0
      vertex 27.7273 0 5
      vertex 17.7273 0 5
    endloop
  endfacet
  facet normal 0 -1 -0
    outer loop
      vertex 27.7273 0 5
      vertex 17.7273 0 0
      vertex 27.7273 0 0
    endloop
  endfacet
  facet normal 0 0 1
    outer loop
      vertex 17.7273 0 5
      vertex 22.7273 0.5 5
      vertex 17.7273 0.5 5
    endloop
  endfacet
  facet normal 0 0 1
    outer loop
      vertex 22.7273 0.5 5
      vertex 17.7273 0 5
      vertex 27.7273 0 5
    endloop
  endfacet
  facet normal 0 1 -0
    outer loop
      vertex 22.7273 0.5 0
      vertex 17.7273 0.5 5
      vertex 22.7273 0.5 5
    endloop
  endfacet
  facet normal 0 1 0
    outer loop
      vertex 17.7273 0.5 5
      vertex 22.7273 0.5 0
      vertex 17.7273 0.5 0
    endloop
  endfacet
  facet normal 0 0 -1
    outer loop
      vertex 17.7273 0 0
      vertex 22.7273 0.5 0
      vertex 27.7273 0 0
    endloop
  endfacet
  facet normal -0 0 -1
    outer loop
      vertex 22.7273 0.5 0
      vertex 17.7273 0 0
      vertex 17.7273 0.5 0
    endloop
  endfacet
endsolid OpenSCAD_Model
