solid OpenSCAD_Model
  facet normal 1 -0 0
    outer loop
      vertex 50 77 20
      vertex 50 80 0
      vertex 50 80 20
    endloop
  endfacet
  facet normal 1 0 0
    outer loop
      vertex 50 80 0
      vertex 50 77 20
      vertex 50 77 0
    endloop
  endfacet
  facet normal 1 0 0
    outer loop
      vertex 50 0 17
      vertex 50 77 20
      vertex 50 0 20
    endloop
  endfacet
  facet normal 1 0 0
    outer loop
      vertex 50 77 20
      vertex 50 0 17
      vertex 50 77 0
    endloop
  endfacet
  facet normal 1 0 0
    outer loop
      vertex 50 77 0
      vertex 50 0 17
      vertex 50 0 0
    endloop
  endfacet
  facet normal 0 0 1
    outer loop
      vertex 45.3333 74.5056 20
      vertex 1.66671 74.5056 20
      vertex 45.3333 2.49441 20
    endloop
  endfacet
  facet normal 0 0 1
    outer loop
      vertex 44.0576 77.5853 20
      vertex 3 77 20
      vertex 44 77 20
    endloop
  endfacet
  facet normal 0 0 1
    outer loop
      vertex 2.94236 77.5853 20
      vertex 44.0576 77.5853 20
      vertex 44.2284 78.148 20
    endloop
  endfacet
  facet normal 0 0 1
    outer loop
      vertex 2.77164 78.148 20
      vertex 44.2284 78.148 20
      vertex 44.5056 78.6667 20
    endloop
  endfacet
  facet normal 0 0 1
    outer loop
      vertex 2.49441 78.6667 20
      vertex 44.5056 78.6667 20
      vertex 44.8787 79.1213 20
    endloop
  endfacet
  facet normal 0 0 1
    outer loop
      vertex 2.12132 79.1213 20
      vertex 44.8787 79.1213 20
      vertex 45.3333 79.4944 20
    endloop
  endfacet
  facet normal 0 0 1
    outer loop
      vertex 1.66671 79.4944 20
      vertex 45.3333 79.4944 20
      vertex 45.852 79.7716 20
    endloop
  endfacet
  facet normal 0 0 1
    outer loop
      vertex 1.14805 79.7716 20
      vertex 45.852 79.7716 20
      vertex 46.4147 79.9424 20
    endloop
  endfacet
  facet normal 0 0 1
    outer loop
      vertex 0.585271 79.9424 20
      vertex 46.4147 79.9424 20
      vertex 47 80 20
    endloop
  endfacet
  facet normal 0 0 1
    outer loop
      vertex 44.0576 77.5853 20
      vertex 2.94236 77.5853 20
      vertex 3 77 20
    endloop
  endfacet
  facet normal 0 0 1
    outer loop
      vertex 44.2284 78.148 20
      vertex 2.77164 78.148 20
      vertex 2.94236 77.5853 20
    endloop
  endfacet
  facet normal 0 0 1
    outer loop
      vertex 44.5056 78.6667 20
      vertex 2.49441 78.6667 20
      vertex 2.77164 78.148 20
    endloop
  endfacet
  facet normal 0 0 1
    outer loop
      vertex 44.8787 79.1213 20
      vertex 2.12132 79.1213 20
      vertex 2.49441 78.6667 20
    endloop
  endfacet
  facet normal 0 0 1
    outer loop
      vertex 45.3333 79.4944 20
      vertex 1.66671 79.4944 20
      vertex 2.12132 79.1213 20
    endloop
  endfacet
  facet normal 0 0 1
    outer loop
      vertex 45.852 79.7716 20
      vertex 1.14805 79.7716 20
      vertex 1.66671 79.4944 20
    endloop
  endfacet
  facet normal 0 0 1
    outer loop
      vertex 46.4147 79.9424 20
      vertex 0.585271 79.9424 20
      vertex 1.14805 79.7716 20
    endloop
  endfacet
  facet normal 0 -0 1
    outer loop
      vertex 0.585271 79.9424 20
      vertex 47 80 20
      vertex 0 80 20
    endloop
  endfacet
  facet normal -0 0 1
    outer loop
      vertex 49.9424 76.4147 20
      vertex 50 0 20
      vertex 50 77 20
    endloop
  endfacet
  facet normal 0 0 1
    outer loop
      vertex 49.9424 76.4147 20
      vertex 49.9424 0.585271 20
      vertex 50 0 20
    endloop
  endfacet
  facet normal -0 0 1
    outer loop
      vertex 49.7716 75.852 20
      vertex 49.9424 0.585271 20
      vertex 49.9424 76.4147 20
    endloop
  endfacet
  facet normal 0 0 1
    outer loop
      vertex 49.7716 75.852 20
      vertex 49.7716 1.14805 20
      vertex 49.9424 0.585271 20
    endloop
  endfacet
  facet normal -0 0 1
    outer loop
      vertex 49.4944 75.3333 20
      vertex 49.7716 1.14805 20
      vertex 49.7716 75.852 20
    endloop
  endfacet
  facet normal 0 0 1
    outer loop
      vertex 49.4944 75.3333 20
      vertex 49.4944 1.66671 20
      vertex 49.7716 1.14805 20
    endloop
  endfacet
  facet normal -0 0 1
    outer loop
      vertex 49.1213 74.8787 20
      vertex 49.4944 1.66671 20
      vertex 49.4944 75.3333 20
    endloop
  endfacet
  facet normal 0 0 1
    outer loop
      vertex 49.1213 74.8787 20
      vertex 49.1213 2.12132 20
      vertex 49.4944 1.66671 20
    endloop
  endfacet
  facet normal -0 0 1
    outer loop
      vertex 48.6667 74.5056 20
      vertex 49.1213 2.12132 20
      vertex 49.1213 74.8787 20
    endloop
  endfacet
  facet normal 0 0 1
    outer loop
      vertex 48.6667 74.5056 20
      vertex 48.6667 2.49441 20
      vertex 49.1213 2.12132 20
    endloop
  endfacet
  facet normal -0 0 1
    outer loop
      vertex 48.148 74.2284 20
      vertex 48.6667 2.49441 20
      vertex 48.6667 74.5056 20
    endloop
  endfacet
  facet normal 0 0 1
    outer loop
      vertex 48.148 74.2284 20
      vertex 48.148 2.77164 20
      vertex 48.6667 2.49441 20
    endloop
  endfacet
  facet normal -0 0 1
    outer loop
      vertex 47.5853 74.0576 20
      vertex 48.148 2.77164 20
      vertex 48.148 74.2284 20
    endloop
  endfacet
  facet normal 0 0 1
    outer loop
      vertex 47.5853 74.0576 20
      vertex 47.5853 2.94236 20
      vertex 48.148 2.77164 20
    endloop
  endfacet
  facet normal -0 0 1
    outer loop
      vertex 47 74 20
      vertex 47.5853 2.94236 20
      vertex 47.5853 74.0576 20
    endloop
  endfacet
  facet normal 0 0 1
    outer loop
      vertex 47 74 20
      vertex 47 3 20
      vertex 47.5853 2.94236 20
    endloop
  endfacet
  facet normal 0 0 1
    outer loop
      vertex 46.4147 74.0576 20
      vertex 47 3 20
      vertex 47 74 20
    endloop
  endfacet
  facet normal 0 0 1
    outer loop
      vertex 46.4147 74.0576 20
      vertex 46.4147 2.94236 20
      vertex 47 3 20
    endloop
  endfacet
  facet normal 0 0 1
    outer loop
      vertex 45.852 74.2284 20
      vertex 46.4147 2.94236 20
      vertex 46.4147 74.0576 20
    endloop
  endfacet
  facet normal 0 0 1
    outer loop
      vertex 45.852 74.2284 20
      vertex 45.852 2.77164 20
      vertex 46.4147 2.94236 20
    endloop
  endfacet
  facet normal 0 0 1
    outer loop
      vertex 45.3333 74.5056 20
      vertex 45.852 2.77164 20
      vertex 45.852 74.2284 20
    endloop
  endfacet
  facet normal 0 0 1
    outer loop
      vertex 45.3333 74.5056 20
      vertex 45.3333 2.49441 20
      vertex 45.852 2.77164 20
    endloop
  endfacet
  facet normal 0 0 1
    outer loop
      vertex 44.2284 75.852 20
      vertex 2.77164 75.852 20
      vertex 44.5056 75.3333 20
    endloop
  endfacet
  facet normal 0 0 1
    outer loop
      vertex 2.49441 75.3333 20
      vertex 44.5056 75.3333 20
      vertex 2.77164 75.852 20
    endloop
  endfacet
  facet normal 0 0 1
    outer loop
      vertex 2.77164 75.852 20
      vertex 44.2284 75.852 20
      vertex 2.94236 76.4147 20
    endloop
  endfacet
  facet normal 0 0 1
    outer loop
      vertex 44.5056 75.3333 20
      vertex 2.49441 75.3333 20
      vertex 44.8787 74.8787 20
    endloop
  endfacet
  facet normal 0 0 1
    outer loop
      vertex 44.0576 76.4147 20
      vertex 2.94236 76.4147 20
      vertex 44.2284 75.852 20
    endloop
  endfacet
  facet normal 0 0 1
    outer loop
      vertex 2.12132 74.8787 20
      vertex 44.8787 74.8787 20
      vertex 2.49441 75.3333 20
    endloop
  endfacet
  facet normal 0 0 1
    outer loop
      vertex 2.94236 76.4147 20
      vertex 44.0576 76.4147 20
      vertex 3 77 20
    endloop
  endfacet
  facet normal 0 0 1
    outer loop
      vertex 44.8787 74.8787 20
      vertex 2.12132 74.8787 20
      vertex 45.3333 74.5056 20
    endloop
  endfacet
  facet normal -0 0 1
    outer loop
      vertex 3 77 20
      vertex 44.0576 76.4147 20
      vertex 44 77 20
    endloop
  endfacet
  facet normal 0 0 1
    outer loop
      vertex 1.66671 74.5056 20
      vertex 45.3333 74.5056 20
      vertex 2.12132 74.8787 20
    endloop
  endfacet
  facet normal 0 0 1
    outer loop
      vertex 1.66671 2.49441 20
      vertex 45.3333 2.49441 20
      vertex 1.66671 74.5056 20
    endloop
  endfacet
  facet normal 0 0 1
    outer loop
      vertex 45.3333 2.49441 20
      vertex 1.66671 2.49441 20
      vertex 44.8787 2.12132 20
    endloop
  endfacet
  facet normal 0 0 1
    outer loop
      vertex 44 0 20
      vertex 2.94236 0.585271 20
      vertex 3 0 20
    endloop
  endfacet
  facet normal 0 -0 1
    outer loop
      vertex 2.12132 2.12132 20
      vertex 44.8787 2.12132 20
      vertex 1.66671 2.49441 20
    endloop
  endfacet
  facet normal 0 0 1
    outer loop
      vertex 44.0576 0.585271 20
      vertex 2.94236 0.585271 20
      vertex 44 0 20
    endloop
  endfacet
  facet normal 0 0 1
    outer loop
      vertex 44.8787 2.12132 20
      vertex 2.12132 2.12132 20
      vertex 44.5056 1.66671 20
    endloop
  endfacet
  facet normal 0 -0 1
    outer loop
      vertex 2.94236 0.585271 20
      vertex 44.0576 0.585271 20
      vertex 2.77164 1.14805 20
    endloop
  endfacet
  facet normal 0 -0 1
    outer loop
      vertex 2.49441 1.66671 20
      vertex 44.5056 1.66671 20
      vertex 2.12132 2.12132 20
    endloop
  endfacet
  facet normal 0 0 1
    outer loop
      vertex 44.2284 1.14805 20
      vertex 2.77164 1.14805 20
      vertex 44.0576 0.585271 20
    endloop
  endfacet
  facet normal 0 0 1
    outer loop
      vertex 44.5056 1.66671 20
      vertex 2.49441 1.66671 20
      vertex 44.2284 1.14805 20
    endloop
  endfacet
  facet normal 0 -0 1
    outer loop
      vertex 2.77164 1.14805 20
      vertex 44.2284 1.14805 20
      vertex 2.49441 1.66671 20
    endloop
  endfacet
  facet normal -0 0 1
    outer loop
      vertex 1.14805 74.2284 20
      vertex 1.66671 2.49441 20
      vertex 1.66671 74.5056 20
    endloop
  endfacet
  facet normal 0 0 1
    outer loop
      vertex 1.14805 74.2284 20
      vertex 1.14805 2.77164 20
      vertex 1.66671 2.49441 20
    endloop
  endfacet
  facet normal -0 0 1
    outer loop
      vertex 0.585271 74.0576 20
      vertex 1.14805 2.77164 20
      vertex 1.14805 74.2284 20
    endloop
  endfacet
  facet normal 0 0 1
    outer loop
      vertex 0.585271 74.0576 20
      vertex 0.585271 2.94236 20
      vertex 1.14805 2.77164 20
    endloop
  endfacet
  facet normal -0 0 1
    outer loop
      vertex 0 74 20
      vertex 0.585271 2.94236 20
      vertex 0.585271 74.0576 20
    endloop
  endfacet
  facet normal 0 0 1
    outer loop
      vertex 0.585271 2.94236 20
      vertex 0 74 20
      vertex 0 3 20
    endloop
  endfacet
  facet normal 0 0 1
    outer loop
      vertex 50 80 20
      vertex 49.9424 77.5853 20
      vertex 50 77 20
    endloop
  endfacet
  facet normal 0 0 1
    outer loop
      vertex 50 80 20
      vertex 49.7716 78.148 20
      vertex 49.9424 77.5853 20
    endloop
  endfacet
  facet normal 0 0 1
    outer loop
      vertex 50 80 20
      vertex 49.4944 78.6667 20
      vertex 49.7716 78.148 20
    endloop
  endfacet
  facet normal 0 0 1
    outer loop
      vertex 50 80 20
      vertex 49.1213 79.1213 20
      vertex 49.4944 78.6667 20
    endloop
  endfacet
  facet normal 0 0 1
    outer loop
      vertex 50 80 20
      vertex 48.6667 79.4944 20
      vertex 49.1213 79.1213 20
    endloop
  endfacet
  facet normal 0 0 1
    outer loop
      vertex 50 80 20
      vertex 48.148 79.7716 20
      vertex 48.6667 79.4944 20
    endloop
  endfacet
  facet normal 0 0 1
    outer loop
      vertex 50 80 20
      vertex 47.5853 79.9424 20
      vertex 48.148 79.7716 20
    endloop
  endfacet
  facet normal 0 -0 1
    outer loop
      vertex 47.5853 79.9424 20
      vertex 50 80 20
      vertex 47 80 20
    endloop
  endfacet
  facet normal 0 0 -1
    outer loop
      vertex 49.9424 77.5853 0
      vertex 50 80 0
      vertex 50 77 0
    endloop
  endfacet
  facet normal 0 0 -1
    outer loop
      vertex 49.7716 78.148 0
      vertex 50 80 0
      vertex 49.9424 77.5853 0
    endloop
  endfacet
  facet normal 0 0 -1
    outer loop
      vertex 49.4944 78.6667 0
      vertex 50 80 0
      vertex 49.7716 78.148 0
    endloop
  endfacet
  facet normal 0 0 -1
    outer loop
      vertex 49.1213 79.1213 0
      vertex 50 80 0
      vertex 49.4944 78.6667 0
    endloop
  endfacet
  facet normal 0 0 -1
    outer loop
      vertex 48.6667 79.4944 0
      vertex 50 80 0
      vertex 49.1213 79.1213 0
    endloop
  endfacet
  facet normal 0 0 -1
    outer loop
      vertex 48.148 79.7716 0
      vertex 50 80 0
      vertex 48.6667 79.4944 0
    endloop
  endfacet
  facet normal 0 0 -1
    outer loop
      vertex 47.5853 79.9424 0
      vertex 50 80 0
      vertex 48.148 79.7716 0
    endloop
  endfacet
  facet normal -0 0 -1
    outer loop
      vertex 50 80 0
      vertex 47.5853 79.9424 0
      vertex 47 80 0
    endloop
  endfacet
  facet normal 0 0 -1
    outer loop
      vertex 50 0 0
      vertex 49.9424 76.4147 0
      vertex 50 77 0
    endloop
  endfacet
  facet normal 0 0 -1
    outer loop
      vertex 50 0 0
      vertex 49.7716 75.852 0
      vertex 49.9424 76.4147 0
    endloop
  endfacet
  facet normal 0 0 -1
    outer loop
      vertex 50 0 0
      vertex 49.4944 75.3333 0
      vertex 49.7716 75.852 0
    endloop
  endfacet
  facet normal 0 0 -1
    outer loop
      vertex 50 0 0
      vertex 49.1213 74.8787 0
      vertex 49.4944 75.3333 0
    endloop
  endfacet
  facet normal 0 0 -1
    outer loop
      vertex 50 0 0
      vertex 48.6667 74.5056 0
      vertex 49.1213 74.8787 0
    endloop
  endfacet
  facet normal 0 0 -1
    outer loop
      vertex 50 0 0
      vertex 48.148 74.2284 0
      vertex 48.6667 74.5056 0
    endloop
  endfacet
  facet normal 0 0 -1
    outer loop
      vertex 50 0 0
      vertex 47.5853 74.0576 0
      vertex 48.148 74.2284 0
    endloop
  endfacet
  facet normal 0 0 -1
    outer loop
      vertex 50 0 0
      vertex 47 74 0
      vertex 47.5853 74.0576 0
    endloop
  endfacet
  facet normal 0 0 -1
    outer loop
      vertex 50 0 0
      vertex 46.4147 74.0576 0
      vertex 47 74 0
    endloop
  endfacet
  facet normal 0 0 -1
    outer loop
      vertex 50 0 0
      vertex 45.852 74.2284 0
      vertex 46.4147 74.0576 0
    endloop
  endfacet
  facet normal 0 0 -1
    outer loop
      vertex 1.66671 2.49441 0
      vertex 45.852 74.2284 0
      vertex 50 0 0
    endloop
  endfacet
  facet normal -0 0 -1
    outer loop
      vertex 45.852 74.2284 0
      vertex 1.66671 2.49441 0
      vertex 45.3333 74.5056 0
    endloop
  endfacet
  facet normal 0 0 -1
    outer loop
      vertex 1.66671 74.5056 0
      vertex 45.3333 74.5056 0
      vertex 1.66671 2.49441 0
    endloop
  endfacet
  facet normal 0 0 -1
    outer loop
      vertex 45.3333 74.5056 0
      vertex 1.66671 74.5056 0
      vertex 44.8787 74.8787 0
    endloop
  endfacet
  facet normal 0 -0 -1
    outer loop
      vertex 2.12132 74.8787 0
      vertex 44.8787 74.8787 0
      vertex 1.66671 74.5056 0
    endloop
  endfacet
  facet normal 0 0 -1
    outer loop
      vertex 44.8787 74.8787 0
      vertex 2.12132 74.8787 0
      vertex 44.5056 75.3333 0
    endloop
  endfacet
  facet normal 0 0 -1
    outer loop
      vertex 2.94236 0.585271 0
      vertex 50 0 0
      vertex 3 0 0
    endloop
  endfacet
  facet normal 0 0 -1
    outer loop
      vertex 2.77164 1.14805 0
      vertex 50 0 0
      vertex 2.94236 0.585271 0
    endloop
  endfacet
  facet normal 0 0 -1
    outer loop
      vertex 2.49441 1.66671 0
      vertex 50 0 0
      vertex 2.77164 1.14805 0
    endloop
  endfacet
  facet normal 0 0 -1
    outer loop
      vertex 2.12132 2.12132 0
      vertex 50 0 0
      vertex 2.49441 1.66671 0
    endloop
  endfacet
  facet normal 0 0 -1
    outer loop
      vertex 44.0576 77.5853 0
      vertex 2.94236 77.5853 0
      vertex 44.2284 78.148 0
    endloop
  endfacet
  facet normal 0 0 -1
    outer loop
      vertex 2.77164 78.148 0
      vertex 44.2284 78.148 0
      vertex 2.94236 77.5853 0
    endloop
  endfacet
  facet normal 0 0 -1
    outer loop
      vertex 44.2284 78.148 0
      vertex 2.77164 78.148 0
      vertex 44.5056 78.6667 0
    endloop
  endfacet
  facet normal 0 0 -1
    outer loop
      vertex 2.49441 78.6667 0
      vertex 44.5056 78.6667 0
      vertex 2.77164 78.148 0
    endloop
  endfacet
  facet normal 0 0 -1
    outer loop
      vertex 44.5056 78.6667 0
      vertex 2.49441 78.6667 0
      vertex 44.8787 79.1213 0
    endloop
  endfacet
  facet normal 0 0 -1
    outer loop
      vertex 2.12132 79.1213 0
      vertex 44.8787 79.1213 0
      vertex 2.49441 78.6667 0
    endloop
  endfacet
  facet normal 0 0 -1
    outer loop
      vertex 44.8787 79.1213 0
      vertex 2.12132 79.1213 0
      vertex 45.3333 79.4944 0
    endloop
  endfacet
  facet normal 0 0 -1
    outer loop
      vertex 1.66671 79.4944 0
      vertex 45.3333 79.4944 0
      vertex 2.12132 79.1213 0
    endloop
  endfacet
  facet normal 0 0 -1
    outer loop
      vertex 45.3333 79.4944 0
      vertex 1.66671 79.4944 0
      vertex 45.852 79.7716 0
    endloop
  endfacet
  facet normal 0 0 -1
    outer loop
      vertex 1.14805 79.7716 0
      vertex 45.852 79.7716 0
      vertex 1.66671 79.4944 0
    endloop
  endfacet
  facet normal 0 0 -1
    outer loop
      vertex 45.852 79.7716 0
      vertex 1.14805 79.7716 0
      vertex 46.4147 79.9424 0
    endloop
  endfacet
  facet normal 0 0 -1
    outer loop
      vertex 0.585271 79.9424 0
      vertex 46.4147 79.9424 0
      vertex 1.14805 79.7716 0
    endloop
  endfacet
  facet normal 0 0 -1
    outer loop
      vertex 46.4147 79.9424 0
      vertex 0.585271 79.9424 0
      vertex 47 80 0
    endloop
  endfacet
  facet normal -0 0 -1
    outer loop
      vertex 47 80 0
      vertex 0.585271 79.9424 0
      vertex 0 80 0
    endloop
  endfacet
  facet normal 0 0 -1
    outer loop
      vertex 1.66671 2.49441 0
      vertex 50 0 0
      vertex 2.12132 2.12132 0
    endloop
  endfacet
  facet normal 0 0 -1
    outer loop
      vertex 2.94236 77.5853 0
      vertex 44.0576 77.5853 0
      vertex 3 77 0
    endloop
  endfacet
  facet normal 0 -0 -1
    outer loop
      vertex 2.49441 75.3333 0
      vertex 44.5056 75.3333 0
      vertex 2.12132 74.8787 0
    endloop
  endfacet
  facet normal 0 0 -1
    outer loop
      vertex 44 77 0
      vertex 3 77 0
      vertex 44.0576 77.5853 0
    endloop
  endfacet
  facet normal 0 0 -1
    outer loop
      vertex 44.5056 75.3333 0
      vertex 2.49441 75.3333 0
      vertex 44.2284 75.852 0
    endloop
  endfacet
  facet normal 0 -0 -1
    outer loop
      vertex 3 77 0
      vertex 44 77 0
      vertex 2.94236 76.4147 0
    endloop
  endfacet
  facet normal 0 -0 -1
    outer loop
      vertex 2.77164 75.852 0
      vertex 44.2284 75.852 0
      vertex 2.49441 75.3333 0
    endloop
  endfacet
  facet normal 0 0 -1
    outer loop
      vertex 44.0576 76.4147 0
      vertex 2.94236 76.4147 0
      vertex 44 77 0
    endloop
  endfacet
  facet normal 0 0 -1
    outer loop
      vertex 44.2284 75.852 0
      vertex 2.77164 75.852 0
      vertex 44.0576 76.4147 0
    endloop
  endfacet
  facet normal 0 -0 -1
    outer loop
      vertex 2.94236 76.4147 0
      vertex 44.0576 76.4147 0
      vertex 2.77164 75.852 0
    endloop
  endfacet
  facet normal 0 0 -1
    outer loop
      vertex 1.14805 2.77164 0
      vertex 1.66671 74.5056 0
      vertex 1.66671 2.49441 0
    endloop
  endfacet
  facet normal 0 0 -1
    outer loop
      vertex 1.14805 2.77164 0
      vertex 1.14805 74.2284 0
      vertex 1.66671 74.5056 0
    endloop
  endfacet
  facet normal 0 0 -1
    outer loop
      vertex 0.585271 2.94236 0
      vertex 1.14805 74.2284 0
      vertex 1.14805 2.77164 0
    endloop
  endfacet
  facet normal 0 0 -1
    outer loop
      vertex 0.585271 2.94236 0
      vertex 0.585271 74.0576 0
      vertex 1.14805 74.2284 0
    endloop
  endfacet
  facet normal 0 0 -1
    outer loop
      vertex 0 3 0
      vertex 0.585271 74.0576 0
      vertex 0.585271 2.94236 0
    endloop
  endfacet
  facet normal 0 0 -1
    outer loop
      vertex 0.585271 74.0576 0
      vertex 0 3 0
      vertex 0 74 0
    endloop
  endfacet
  facet normal -1 0 0
    outer loop
      vertex 0 3 0
      vertex 0 74 20
      vertex 0 74 0
    endloop
  endfacet
  facet normal -1 -0 0
    outer loop
      vertex 0 74 20
      vertex 0 3 0
      vertex 0 3 20
    endloop
  endfacet
  facet normal 0 1 -0
    outer loop
      vertex 47 80 0
      vertex 0 80 20
      vertex 47 80 20
    endloop
  endfacet
  facet normal 0 1 0
    outer loop
      vertex 0 80 20
      vertex 47 80 0
      vertex 0 80 0
    endloop
  endfacet
  facet normal 0 1 -0
    outer loop
      vertex 50 80 0
      vertex 47 80 20
      vertex 50 80 20
    endloop
  endfacet
  facet normal 0 1 0
    outer loop
      vertex 47 80 20
      vertex 50 80 0
      vertex 47 80 0
    endloop
  endfacet
  facet normal 0 -1 0
    outer loop
      vertex 3 0 20
      vertex 44 0 17
      vertex 44 0 20
    endloop
  endfacet
  facet normal 0 -1 0
    outer loop
      vertex 3 0 0
      vertex 44 0 17
      vertex 3 0 20
    endloop
  endfacet
  facet normal 0 -1 0
    outer loop
      vertex 50 0 0
      vertex 44 0 17
      vertex 3 0 0
    endloop
  endfacet
  facet normal 0 -1 0
    outer loop
      vertex 44 0 17
      vertex 50 0 0
      vertex 50 0 17
    endloop
  endfacet
  facet normal -1 0 0
    outer loop
      vertex 48 74.1834 2
      vertex 48 2.81655 17
      vertex 48 74.1834 18
    endloop
  endfacet
  facet normal -1 0 0
    outer loop
      vertex 48 2 2
      vertex 48 2.81655 17
      vertex 48 74.1834 2
    endloop
  endfacet
  facet normal -1 -0 0
    outer loop
      vertex 48 2.81655 17
      vertex 48 2 2
      vertex 48 2 17
    endloop
  endfacet
  facet normal -1 -0 0
    outer loop
      vertex 48 74.1834 18
      vertex 48 2.81655 17
      vertex 48 2.81655 18
    endloop
  endfacet
  facet normal 0 0 -1
    outer loop
      vertex 47.5853 2.94236 18
      vertex 48 74.1834 18
      vertex 48 2.81655 18
    endloop
  endfacet
  facet normal 0 0 -1
    outer loop
      vertex 47.5853 2.94236 18
      vertex 47.5853 74.0576 18
      vertex 48 74.1834 18
    endloop
  endfacet
  facet normal 0 0 -1
    outer loop
      vertex 47 3 18
      vertex 47.5853 74.0576 18
      vertex 47.5853 2.94236 18
    endloop
  endfacet
  facet normal 0 0 -1
    outer loop
      vertex 47 3 18
      vertex 47 74 18
      vertex 47.5853 74.0576 18
    endloop
  endfacet
  facet normal 0 0 -1
    outer loop
      vertex 46.4147 2.94236 18
      vertex 47 74 18
      vertex 47 3 18
    endloop
  endfacet
  facet normal 0 0 -1
    outer loop
      vertex 46.4147 2.94236 18
      vertex 46.4147 74.0576 18
      vertex 47 74 18
    endloop
  endfacet
  facet normal 0 0 -1
    outer loop
      vertex 45.852 2.77164 18
      vertex 46.4147 74.0576 18
      vertex 46.4147 2.94236 18
    endloop
  endfacet
  facet normal 0 0 -1
    outer loop
      vertex 45.852 2.77164 18
      vertex 45.852 74.2284 18
      vertex 46.4147 74.0576 18
    endloop
  endfacet
  facet normal 0 0 -1
    outer loop
      vertex 45.3333 2.49441 18
      vertex 45.852 74.2284 18
      vertex 45.852 2.77164 18
    endloop
  endfacet
  facet normal 0 0 -1
    outer loop
      vertex 45.3333 2.49441 18
      vertex 45.3333 74.5056 18
      vertex 45.852 74.2284 18
    endloop
  endfacet
  facet normal 0 0 -1
    outer loop
      vertex 2 2.22088 18
      vertex 45.3333 2.49441 18
      vertex 44.8787 2.12132 18
    endloop
  endfacet
  facet normal 0 0 -1
    outer loop
      vertex 45.3333 2.49441 18
      vertex 2 74.7791 18
      vertex 45.3333 74.5056 18
    endloop
  endfacet
  facet normal 0 0 -1
    outer loop
      vertex 2.12132 2.12132 18
      vertex 44.8787 2.12132 18
      vertex 44.7791 2 18
    endloop
  endfacet
  facet normal 0 0 -1
    outer loop
      vertex 45.3333 74.5056 18
      vertex 2 74.7791 18
      vertex 44.8787 74.8787 18
    endloop
  endfacet
  facet normal 0 -0 -1
    outer loop
      vertex 2.12132 74.8787 18
      vertex 44.8787 74.8787 18
      vertex 2 74.7791 18
    endloop
  endfacet
  facet normal 0 0 -1
    outer loop
      vertex 44.8787 74.8787 18
      vertex 2.12132 74.8787 18
      vertex 44.5056 75.3333 18
    endloop
  endfacet
  facet normal 0 -0 -1
    outer loop
      vertex 2.49441 75.3333 18
      vertex 44.5056 75.3333 18
      vertex 2.12132 74.8787 18
    endloop
  endfacet
  facet normal 0 0 -1
    outer loop
      vertex 44.5056 75.3333 18
      vertex 2.49441 75.3333 18
      vertex 44.2284 75.852 18
    endloop
  endfacet
  facet normal -0 0 -1
    outer loop
      vertex 44 77 18
      vertex 2.94236 76.4147 18
      vertex 3 77 18
    endloop
  endfacet
  facet normal 0 0 -1
    outer loop
      vertex 44.0576 76.4147 18
      vertex 2.94236 76.4147 18
      vertex 44 77 18
    endloop
  endfacet
  facet normal 0 -0 -1
    outer loop
      vertex 2.94236 76.4147 18
      vertex 44.0576 76.4147 18
      vertex 2.77164 75.852 18
    endloop
  endfacet
  facet normal 0 0 -1
    outer loop
      vertex 2.12132 2.12132 18
      vertex 44.7791 2 18
      vertex 2.22088 2 18
    endloop
  endfacet
  facet normal 0 0 -1
    outer loop
      vertex 44.8787 2.12132 18
      vertex 2.12132 2.12132 18
      vertex 2 2.22088 18
    endloop
  endfacet
  facet normal 0 0 -1
    outer loop
      vertex 44.2284 75.852 18
      vertex 2.77164 75.852 18
      vertex 44.0576 76.4147 18
    endloop
  endfacet
  facet normal -0 0 -1
    outer loop
      vertex 45.3333 2.49441 18
      vertex 2 2.22088 18
      vertex 2 74.7791 18
    endloop
  endfacet
  facet normal 0 -0 -1
    outer loop
      vertex 2.77164 75.852 18
      vertex 44.2284 75.852 18
      vertex 2.49441 75.3333 18
    endloop
  endfacet
  facet normal 0 0 -1
    outer loop
      vertex 3 77 18
      vertex 44.0576 77.5853 18
      vertex 44 77 18
    endloop
  endfacet
  facet normal 0 0 -1
    outer loop
      vertex 2.94236 77.5853 18
      vertex 44.0576 77.5853 18
      vertex 3 77 18
    endloop
  endfacet
  facet normal 0 0 -1
    outer loop
      vertex 44.0576 77.5853 18
      vertex 2.94236 77.5853 18
      vertex 44.1835 78 18
    endloop
  endfacet
  facet normal -0 0 -1
    outer loop
      vertex 44.1835 78 18
      vertex 2.94236 77.5853 18
      vertex 2.81655 78 18
    endloop
  endfacet
  facet normal 0 0 1
    outer loop
      vertex 44.0576 77.5853 2
      vertex 3 77 2
      vertex 44 77 2
    endloop
  endfacet
  facet normal 0 0 1
    outer loop
      vertex 2.94236 77.5853 2
      vertex 44.0576 77.5853 2
      vertex 44.1835 78 2
    endloop
  endfacet
  facet normal 0 0 1
    outer loop
      vertex 44.0576 77.5853 2
      vertex 2.94236 77.5853 2
      vertex 3 77 2
    endloop
  endfacet
  facet normal 0 -0 1
    outer loop
      vertex 2.94236 77.5853 2
      vertex 44.1835 78 2
      vertex 2.81655 78 2
    endloop
  endfacet
  facet normal -0 0 1
    outer loop
      vertex 47.5853 74.0576 2
      vertex 48 2 2
      vertex 48 74.1834 2
    endloop
  endfacet
  facet normal -0 0 1
    outer loop
      vertex 47 74 2
      vertex 48 2 2
      vertex 47.5853 74.0576 2
    endloop
  endfacet
  facet normal 0 0 1
    outer loop
      vertex 46.4147 74.0576 2
      vertex 48 2 2
      vertex 47 74 2
    endloop
  endfacet
  facet normal 0 0 1
    outer loop
      vertex 45.852 74.2284 2
      vertex 48 2 2
      vertex 46.4147 74.0576 2
    endloop
  endfacet
  facet normal 0 0 1
    outer loop
      vertex 45.3333 74.5056 2
      vertex 48 2 2
      vertex 45.852 74.2284 2
    endloop
  endfacet
  facet normal -0 0 1
    outer loop
      vertex 2 74.7791 2
      vertex 45.3333 74.5056 2
      vertex 44.8787 74.8787 2
    endloop
  endfacet
  facet normal 0 0 1
    outer loop
      vertex 2.12132 74.8787 2
      vertex 44.8787 74.8787 2
      vertex 44.5056 75.3333 2
    endloop
  endfacet
  facet normal 0 0 1
    outer loop
      vertex 2.49441 75.3333 2
      vertex 44.5056 75.3333 2
      vertex 44.2284 75.852 2
    endloop
  endfacet
  facet normal 0 0 1
    outer loop
      vertex 2.77164 75.852 2
      vertex 44.2284 75.852 2
      vertex 44.0576 76.4147 2
    endloop
  endfacet
  facet normal 0 0 1
    outer loop
      vertex 2.94236 76.4147 2
      vertex 44.0576 76.4147 2
      vertex 44 77 2
    endloop
  endfacet
  facet normal 0 0 1
    outer loop
      vertex 2.94236 76.4147 2
      vertex 44 77 2
      vertex 3 77 2
    endloop
  endfacet
  facet normal 0 0 1
    outer loop
      vertex 44.0576 76.4147 2
      vertex 2.94236 76.4147 2
      vertex 2.77164 75.852 2
    endloop
  endfacet
  facet normal 0 0 1
    outer loop
      vertex 44.2284 75.852 2
      vertex 2.77164 75.852 2
      vertex 2.49441 75.3333 2
    endloop
  endfacet
  facet normal 0 0 1
    outer loop
      vertex 44.5056 75.3333 2
      vertex 2.49441 75.3333 2
      vertex 2.12132 74.8787 2
    endloop
  endfacet
  facet normal 0 0 1
    outer loop
      vertex 44.8787 74.8787 2
      vertex 2.12132 74.8787 2
      vertex 2 74.7791 2
    endloop
  endfacet
  facet normal 0 0 1
    outer loop
      vertex 45.3333 74.5056 2
      vertex 2 74.7791 2
      vertex 2 2.22088 2
    endloop
  endfacet
  facet normal 0 0 1
    outer loop
      vertex 48 2 2
      vertex 2.12132 2.12132 2
      vertex 2.22088 2 2
    endloop
  endfacet
  facet normal 0 0 1
    outer loop
      vertex 45.3333 74.5056 2
      vertex 2 2.22088 2
      vertex 48 2 2
    endloop
  endfacet
  facet normal 0 0 1
    outer loop
      vertex 48 2 2
      vertex 2 2.22088 2
      vertex 2.12132 2.12132 2
    endloop
  endfacet
  facet normal 1 -0 0
    outer loop
      vertex 2 2.22088 18
      vertex 2 74.7791 2
      vertex 2 74.7791 18
    endloop
  endfacet
  facet normal 1 0 0
    outer loop
      vertex 2 74.7791 2
      vertex 2 2.22088 18
      vertex 2 2.22088 2
    endloop
  endfacet
  facet normal 0 -1 0
    outer loop
      vertex 2.81655 78 2
      vertex 44.1835 78 18
      vertex 2.81655 78 18
    endloop
  endfacet
  facet normal 0 -1 -0
    outer loop
      vertex 44.1835 78 18
      vertex 2.81655 78 2
      vertex 44.1835 78 2
    endloop
  endfacet
  facet normal 0 1 0
    outer loop
      vertex 48 2 17
      vertex 48 2 2
      vertex 44.7791 2 17
    endloop
  endfacet
  facet normal 0 1 -0
    outer loop
      vertex 44.7791 2 17
      vertex 2.22088 2 18
      vertex 44.7791 2 18
    endloop
  endfacet
  facet normal 0 1 0
    outer loop
      vertex 2.22088 2 2
      vertex 44.7791 2 17
      vertex 48 2 2
    endloop
  endfacet
  facet normal 0 1 0
    outer loop
      vertex 44.7791 2 17
      vertex 2.22088 2 2
      vertex 2.22088 2 18
    endloop
  endfacet
  facet normal -0.471397 -0.881921 0
    outer loop
      vertex 1.14805 2.77164 0
      vertex 1.66671 2.49441 20
      vertex 1.14805 2.77164 20
    endloop
  endfacet
  facet normal -0.471397 -0.881921 -0
    outer loop
      vertex 1.66671 2.49441 20
      vertex 1.14805 2.77164 0
      vertex 1.66671 2.49441 0
    endloop
  endfacet
  facet normal -0.956939 -0.290289 0
    outer loop
      vertex 2.94236 0.585271 0
      vertex 2.77164 1.14805 20
      vertex 2.77164 1.14805 0
    endloop
  endfacet
  facet normal -0.956939 -0.290289 0
    outer loop
      vertex 2.77164 1.14805 20
      vertex 2.94236 0.585271 0
      vertex 2.94236 0.585271 20
    endloop
  endfacet
  facet normal -0.995185 -0.0980101 0
    outer loop
      vertex 3 0 0
      vertex 2.94236 0.585271 20
      vertex 2.94236 0.585271 0
    endloop
  endfacet
  facet normal -0.995185 -0.0980101 0
    outer loop
      vertex 2.94236 0.585271 20
      vertex 3 0 0
      vertex 3 0 20
    endloop
  endfacet
  facet normal -0.881921 -0.471397 0
    outer loop
      vertex 2.77164 1.14805 0
      vertex 2.49441 1.66671 20
      vertex 2.49441 1.66671 0
    endloop
  endfacet
  facet normal -0.881921 -0.471397 0
    outer loop
      vertex 2.49441 1.66671 20
      vertex 2.77164 1.14805 0
      vertex 2.77164 1.14805 20
    endloop
  endfacet
  facet normal -0.0980101 -0.995185 0
    outer loop
      vertex 0 3 0
      vertex 0.585271 2.94236 20
      vertex 0 3 20
    endloop
  endfacet
  facet normal -0.0980101 -0.995185 -0
    outer loop
      vertex 0.585271 2.94236 20
      vertex 0 3 0
      vertex 0.585271 2.94236 0
    endloop
  endfacet
  facet normal -0.290289 -0.956939 0
    outer loop
      vertex 0.585271 2.94236 0
      vertex 1.14805 2.77164 20
      vertex 0.585271 2.94236 20
    endloop
  endfacet
  facet normal -0.290289 -0.956939 -0
    outer loop
      vertex 1.14805 2.77164 20
      vertex 0.585271 2.94236 0
      vertex 1.14805 2.77164 0
    endloop
  endfacet
  facet normal -0.634395 -0.773009 1.96156e-06
    outer loop
      vertex 1.66671 2.49441 20
      vertex 2 2.22088 18
      vertex 2.12132 2.12132 20
    endloop
  endfacet
  facet normal -0.634402 -0.773004 0
    outer loop
      vertex 1.66671 2.49441 20
      vertex 2 2.22088 2
      vertex 2 2.22088 18
    endloop
  endfacet
  facet normal -0.634402 -0.773004 0
    outer loop
      vertex 1.66671 2.49441 0
      vertex 2 2.22088 2
      vertex 1.66671 2.49441 20
    endloop
  endfacet
  facet normal -0.634395 -0.773009 -1.96156e-06
    outer loop
      vertex 2.12132 2.12132 0
      vertex 2 2.22088 2
      vertex 1.66671 2.49441 0
    endloop
  endfacet
  facet normal -0.634375 -0.773025 0
    outer loop
      vertex 2 2.22088 2
      vertex 2.12132 2.12132 0
      vertex 2.12132 2.12132 2
    endloop
  endfacet
  facet normal -0.634375 -0.773025 -0
    outer loop
      vertex 2.12132 2.12132 20
      vertex 2 2.22088 18
      vertex 2.12132 2.12132 18
    endloop
  endfacet
  facet normal -0.773025 -0.634375 0
    outer loop
      vertex 2.12132 2.12132 0
      vertex 2.22088 2 2
      vertex 2.12132 2.12132 2
    endloop
  endfacet
  facet normal -0.773004 -0.634402 0
    outer loop
      vertex 2.22088 2 2
      vertex 2.49441 1.66671 0
      vertex 2.22088 2 18
    endloop
  endfacet
  facet normal -0.773009 -0.634395 -1.96156e-06
    outer loop
      vertex 2.49441 1.66671 0
      vertex 2.22088 2 2
      vertex 2.12132 2.12132 0
    endloop
  endfacet
  facet normal -0.773025 -0.634375 0
    outer loop
      vertex 2.22088 2 18
      vertex 2.12132 2.12132 20
      vertex 2.12132 2.12132 18
    endloop
  endfacet
  facet normal -0.773009 -0.634395 1.96156e-06
    outer loop
      vertex 2.22088 2 18
      vertex 2.49441 1.66671 20
      vertex 2.12132 2.12132 20
    endloop
  endfacet
  facet normal -0.773004 -0.634402 -0
    outer loop
      vertex 2.49441 1.66671 20
      vertex 2.22088 2 18
      vertex 2.49441 1.66671 0
    endloop
  endfacet
  facet normal -0.0980053 -0.995186 0
    outer loop
      vertex 47 3 18
      vertex 47.5853 2.94236 20
      vertex 47 3 20
    endloop
  endfacet
  facet normal -0.0980053 -0.995186 -0
    outer loop
      vertex 47.5853 2.94236 20
      vertex 47 3 18
      vertex 47.5853 2.94236 18
    endloop
  endfacet
  facet normal -0.956901 -0.290414 0
    outer loop
      vertex 49.9424 0.585271 17
      vertex 49.7716 1.14805 20
      vertex 49.7716 1.14805 17
    endloop
  endfacet
  facet normal -0.956901 -0.290414 0
    outer loop
      vertex 49.7716 1.14805 20
      vertex 49.9424 0.585271 17
      vertex 49.9424 0.585271 20
    endloop
  endfacet
  facet normal -0.995192 -0.0979428 0
    outer loop
      vertex 50 0 17
      vertex 49.9424 0.585271 20
      vertex 49.9424 0.585271 17
    endloop
  endfacet
  facet normal -0.995192 -0.0979428 0
    outer loop
      vertex 49.9424 0.585271 20
      vertex 50 0 17
      vertex 50 0 20
    endloop
  endfacet
  facet normal -0.881942 -0.471358 0
    outer loop
      vertex 49.7716 1.14805 17
      vertex 49.4944 1.66671 20
      vertex 49.4944 1.66671 17
    endloop
  endfacet
  facet normal -0.881942 -0.471358 0
    outer loop
      vertex 49.4944 1.66671 20
      vertex 49.7716 1.14805 17
      vertex 49.7716 1.14805 20
    endloop
  endfacet
  facet normal 0.290326 -0.956928 0
    outer loop
      vertex 45.852 2.77164 18
      vertex 46.4147 2.94236 20
      vertex 45.852 2.77164 20
    endloop
  endfacet
  facet normal 0.290326 -0.956928 0
    outer loop
      vertex 46.4147 2.94236 20
      vertex 45.852 2.77164 18
      vertex 46.4147 2.94236 18
    endloop
  endfacet
  facet normal 0 0 1
    outer loop
      vertex 48 2 17
      vertex 49.9424 0.585271 17
      vertex 49.7716 1.14805 17
    endloop
  endfacet
  facet normal 0 0 1
    outer loop
      vertex 48 2 17
      vertex 49.7716 1.14805 17
      vertex 49.4944 1.66671 17
    endloop
  endfacet
  facet normal -0 0 1
    outer loop
      vertex 48 2 17
      vertex 49.4944 1.66671 17
      vertex 49.1213 2.12132 17
    endloop
  endfacet
  facet normal 0 0 1
    outer loop
      vertex 48 2 17
      vertex 49.1213 2.12132 17
      vertex 48.6667 2.49441 17
    endloop
  endfacet
  facet normal 0 0 1
    outer loop
      vertex 48 2 17
      vertex 48.6667 2.49441 17
      vertex 48.148 2.77164 17
    endloop
  endfacet
  facet normal 0 0 1
    outer loop
      vertex 48 2 17
      vertex 48.148 2.77164 17
      vertex 48 2.81655 17
    endloop
  endfacet
  facet normal 0 0 1
    outer loop
      vertex 49.9424 0.585271 17
      vertex 48 2 17
      vertex 50 0 17
    endloop
  endfacet
  facet normal 0 0 1
    outer loop
      vertex 44.5056 1.66671 17
      vertex 48 2 17
      vertex 44.7791 2 17
    endloop
  endfacet
  facet normal 0 0 1
    outer loop
      vertex 48 2 17
      vertex 44.5056 1.66671 17
      vertex 44.2284 1.14805 17
    endloop
  endfacet
  facet normal 0 0 1
    outer loop
      vertex 48 2 17
      vertex 44.2284 1.14805 17
      vertex 44.0576 0.585271 17
    endloop
  endfacet
  facet normal 0 0 1
    outer loop
      vertex 44 0 17
      vertex 48 2 17
      vertex 44.0576 0.585271 17
    endloop
  endfacet
  facet normal 0 0 1
    outer loop
      vertex 48 2 17
      vertex 44 0 17
      vertex 50 0 17
    endloop
  endfacet
  facet normal -0.29031 -0.956933 0
    outer loop
      vertex 48 2.81655 18
      vertex 47.5853 2.94236 20
      vertex 47.5853 2.94236 18
    endloop
  endfacet
  facet normal -0.290326 -0.956928 -3.65374e-06
    outer loop
      vertex 47.5853 2.94236 20
      vertex 48 2.81655 18
      vertex 48.148 2.77164 20
    endloop
  endfacet
  facet normal -0.290372 -0.956914 0
    outer loop
      vertex 48.148 2.77164 17
      vertex 48 2.81655 18
      vertex 48 2.81655 17
    endloop
  endfacet
  facet normal -0.290372 -0.956914 0
    outer loop
      vertex 48 2.81655 18
      vertex 48.148 2.77164 17
      vertex 48.148 2.77164 20
    endloop
  endfacet
  facet normal 0.634403 -0.773003 0
    outer loop
      vertex 44.8787 2.12132 18
      vertex 45.3333 2.49441 20
      vertex 44.8787 2.12132 20
    endloop
  endfacet
  facet normal 0.634403 -0.773003 0
    outer loop
      vertex 45.3333 2.49441 20
      vertex 44.8787 2.12132 18
      vertex 45.3333 2.49441 18
    endloop
  endfacet
  facet normal -0.773001 -0.634405 0
    outer loop
      vertex 49.4944 1.66671 17
      vertex 49.1213 2.12132 20
      vertex 49.1213 2.12132 17
    endloop
  endfacet
  facet normal -0.773001 -0.634405 0
    outer loop
      vertex 49.1213 2.12132 20
      vertex 49.4944 1.66671 17
      vertex 49.4944 1.66671 20
    endloop
  endfacet
  facet normal 0.471369 -0.881936 0
    outer loop
      vertex 45.3333 2.49441 18
      vertex 45.852 2.77164 20
      vertex 45.3333 2.49441 20
    endloop
  endfacet
  facet normal 0.471369 -0.881936 0
    outer loop
      vertex 45.852 2.77164 20
      vertex 45.3333 2.49441 18
      vertex 45.852 2.77164 18
    endloop
  endfacet
  facet normal 0.956901 -0.290414 0
    outer loop
      vertex 44.0576 0.585271 20
      vertex 44.2284 1.14805 17
      vertex 44.2284 1.14805 20
    endloop
  endfacet
  facet normal 0.956901 -0.290414 0
    outer loop
      vertex 44.2284 1.14805 17
      vertex 44.0576 0.585271 20
      vertex 44.0576 0.585271 17
    endloop
  endfacet
  facet normal -0.634403 -0.773003 0
    outer loop
      vertex 48.6667 2.49441 17
      vertex 49.1213 2.12132 20
      vertex 48.6667 2.49441 20
    endloop
  endfacet
  facet normal -0.634403 -0.773003 -0
    outer loop
      vertex 49.1213 2.12132 20
      vertex 48.6667 2.49441 17
      vertex 49.1213 2.12132 17
    endloop
  endfacet
  facet normal -0.471369 -0.881936 0
    outer loop
      vertex 48.148 2.77164 17
      vertex 48.6667 2.49441 20
      vertex 48.148 2.77164 20
    endloop
  endfacet
  facet normal -0.471369 -0.881936 -0
    outer loop
      vertex 48.6667 2.49441 20
      vertex 48.148 2.77164 17
      vertex 48.6667 2.49441 17
    endloop
  endfacet
  facet normal 0.881942 -0.471358 0
    outer loop
      vertex 44.2284 1.14805 20
      vertex 44.5056 1.66671 17
      vertex 44.5056 1.66671 20
    endloop
  endfacet
  facet normal 0.881942 -0.471358 0
    outer loop
      vertex 44.5056 1.66671 17
      vertex 44.2284 1.14805 20
      vertex 44.2284 1.14805 17
    endloop
  endfacet
  facet normal 0.7729 -0.634527 0
    outer loop
      vertex 44.8787 2.12132 20
      vertex 44.7791 2 18
      vertex 44.8787 2.12132 18
    endloop
  endfacet
  facet normal 0.773001 -0.634405 -1.2467e-05
    outer loop
      vertex 44.5056 1.66671 20
      vertex 44.7791 2 18
      vertex 44.8787 2.12132 20
    endloop
  endfacet
  facet normal 0.773038 -0.63436 0
    outer loop
      vertex 44.5056 1.66671 17
      vertex 44.7791 2 18
      vertex 44.5056 1.66671 20
    endloop
  endfacet
  facet normal 0.773038 -0.63436 0
    outer loop
      vertex 44.7791 2 18
      vertex 44.5056 1.66671 17
      vertex 44.7791 2 17
    endloop
  endfacet
  facet normal 0.995192 -0.0979428 0
    outer loop
      vertex 44 0 20
      vertex 44.0576 0.585271 17
      vertex 44.0576 0.585271 20
    endloop
  endfacet
  facet normal 0.995192 -0.0979428 0
    outer loop
      vertex 44.0576 0.585271 17
      vertex 44 0 20
      vertex 44 0 17
    endloop
  endfacet
  facet normal 0.0980053 -0.995186 0
    outer loop
      vertex 46.4147 2.94236 18
      vertex 47 3 20
      vertex 46.4147 2.94236 20
    endloop
  endfacet
  facet normal 0.0980053 -0.995186 0
    outer loop
      vertex 47 3 20
      vertex 46.4147 2.94236 18
      vertex 47 3 18
    endloop
  endfacet
  facet normal -0.290414 0.956901 0
    outer loop
      vertex 1.14805 74.2284 0
      vertex 0.585271 74.0576 20
      vertex 1.14805 74.2284 20
    endloop
  endfacet
  facet normal -0.290414 0.956901 0
    outer loop
      vertex 0.585271 74.0576 20
      vertex 1.14805 74.2284 0
      vertex 0.585271 74.0576 0
    endloop
  endfacet
  facet normal -0.956914 -0.290372 0
    outer loop
      vertex 2.77164 78.148 0
      vertex 2.81655 78 2
      vertex 2.77164 78.148 20
    endloop
  endfacet
  facet normal -0.956928 -0.290326 3.65374e-06
    outer loop
      vertex 2.94236 77.5853 0
      vertex 2.81655 78 2
      vertex 2.77164 78.148 0
    endloop
  endfacet
  facet normal -0.956933 -0.29031 0
    outer loop
      vertex 2.81655 78 2
      vertex 2.94236 77.5853 0
      vertex 2.94236 77.5853 2
    endloop
  endfacet
  facet normal -0.956914 -0.290372 -0
    outer loop
      vertex 2.81655 78 18
      vertex 2.77164 78.148 20
      vertex 2.81655 78 2
    endloop
  endfacet
  facet normal -0.956933 -0.29031 -0
    outer loop
      vertex 2.94236 77.5853 20
      vertex 2.81655 78 18
      vertex 2.94236 77.5853 18
    endloop
  endfacet
  facet normal -0.956928 -0.290326 -3.65374e-06
    outer loop
      vertex 2.81655 78 18
      vertex 2.94236 77.5853 20
      vertex 2.77164 78.148 20
    endloop
  endfacet
  facet normal -0.995186 -0.0980053 0
    outer loop
      vertex 3 77 0
      vertex 2.94236 77.5853 2
      vertex 2.94236 77.5853 0
    endloop
  endfacet
  facet normal -0.995186 -0.0980053 0
    outer loop
      vertex 2.94236 77.5853 2
      vertex 3 77 0
      vertex 3 77 2
    endloop
  endfacet
  facet normal -0.995186 -0.0980053 0
    outer loop
      vertex 3 77 18
      vertex 2.94236 77.5853 20
      vertex 2.94236 77.5853 18
    endloop
  endfacet
  facet normal -0.995186 -0.0980053 0
    outer loop
      vertex 2.94236 77.5853 20
      vertex 3 77 18
      vertex 3 77 20
    endloop
  endfacet
  facet normal -0.881936 -0.471369 0
    outer loop
      vertex 2.77164 78.148 0
      vertex 2.49441 78.6667 20
      vertex 2.49441 78.6667 0
    endloop
  endfacet
  facet normal -0.881936 -0.471369 0
    outer loop
      vertex 2.49441 78.6667 20
      vertex 2.77164 78.148 0
      vertex 2.77164 78.148 20
    endloop
  endfacet
  facet normal -0.290414 -0.956901 0
    outer loop
      vertex 0.585271 79.9424 0
      vertex 1.14805 79.7716 20
      vertex 0.585271 79.9424 20
    endloop
  endfacet
  facet normal -0.290414 -0.956901 -0
    outer loop
      vertex 1.14805 79.7716 20
      vertex 0.585271 79.9424 0
      vertex 1.14805 79.7716 0
    endloop
  endfacet
  facet normal -0.471358 0.881942 0
    outer loop
      vertex 1.66671 74.5056 0
      vertex 1.14805 74.2284 20
      vertex 1.66671 74.5056 20
    endloop
  endfacet
  facet normal -0.471358 0.881942 0
    outer loop
      vertex 1.14805 74.2284 20
      vertex 1.66671 74.5056 0
      vertex 1.14805 74.2284 0
    endloop
  endfacet
  facet normal -0.773003 -0.634403 0
    outer loop
      vertex 2.49441 78.6667 0
      vertex 2.12132 79.1213 20
      vertex 2.12132 79.1213 0
    endloop
  endfacet
  facet normal -0.773003 -0.634403 0
    outer loop
      vertex 2.12132 79.1213 20
      vertex 2.49441 78.6667 0
      vertex 2.49441 78.6667 20
    endloop
  endfacet
  facet normal -0.773003 0.634403 0
    outer loop
      vertex 2.12132 74.8787 0
      vertex 2.49441 75.3333 2
      vertex 2.49441 75.3333 0
    endloop
  endfacet
  facet normal -0.773003 0.634403 0
    outer loop
      vertex 2.49441 75.3333 2
      vertex 2.12132 74.8787 0
      vertex 2.12132 74.8787 2
    endloop
  endfacet
  facet normal -0.773003 0.634403 0
    outer loop
      vertex 2.12132 74.8787 18
      vertex 2.49441 75.3333 20
      vertex 2.49441 75.3333 18
    endloop
  endfacet
  facet normal -0.773003 0.634403 0
    outer loop
      vertex 2.49441 75.3333 20
      vertex 2.12132 74.8787 18
      vertex 2.12132 74.8787 20
    endloop
  endfacet
  facet normal -0.634527 0.7729 0
    outer loop
      vertex 2.12132 74.8787 2
      vertex 2.12132 74.8787 0
      vertex 2 74.7791 2
    endloop
  endfacet
  facet normal -0.634527 0.7729 0
    outer loop
      vertex 2 74.7791 18
      vertex 2.12132 74.8787 20
      vertex 2.12132 74.8787 18
    endloop
  endfacet
  facet normal -0.634405 0.773001 -1.2467e-05
    outer loop
      vertex 2.12132 74.8787 20
      vertex 2 74.7791 18
      vertex 1.66671 74.5056 20
    endloop
  endfacet
  facet normal -0.63436 0.773038 0
    outer loop
      vertex 2 74.7791 2
      vertex 1.66671 74.5056 20
      vertex 2 74.7791 18
    endloop
  endfacet
  facet normal -0.63436 0.773038 0
    outer loop
      vertex 2 74.7791 2
      vertex 1.66671 74.5056 0
      vertex 1.66671 74.5056 20
    endloop
  endfacet
  facet normal -0.634405 0.773001 1.2467e-05
    outer loop
      vertex 1.66671 74.5056 0
      vertex 2 74.7791 2
      vertex 2.12132 74.8787 0
    endloop
  endfacet
  facet normal -0.995186 0.0980053 0
    outer loop
      vertex 2.94236 76.4147 0
      vertex 3 77 2
      vertex 3 77 0
    endloop
  endfacet
  facet normal -0.995186 0.0980053 0
    outer loop
      vertex 3 77 2
      vertex 2.94236 76.4147 0
      vertex 2.94236 76.4147 2
    endloop
  endfacet
  facet normal -0.995186 0.0980053 0
    outer loop
      vertex 2.94236 76.4147 18
      vertex 3 77 20
      vertex 3 77 18
    endloop
  endfacet
  facet normal -0.995186 0.0980053 0
    outer loop
      vertex 3 77 20
      vertex 2.94236 76.4147 18
      vertex 2.94236 76.4147 20
    endloop
  endfacet
  facet normal -0.956928 0.290326 0
    outer loop
      vertex 2.77164 75.852 0
      vertex 2.94236 76.4147 2
      vertex 2.94236 76.4147 0
    endloop
  endfacet
  facet normal -0.956928 0.290326 0
    outer loop
      vertex 2.94236 76.4147 2
      vertex 2.77164 75.852 0
      vertex 2.77164 75.852 2
    endloop
  endfacet
  facet normal -0.956928 0.290326 0
    outer loop
      vertex 2.77164 75.852 18
      vertex 2.94236 76.4147 20
      vertex 2.94236 76.4147 18
    endloop
  endfacet
  facet normal -0.956928 0.290326 0
    outer loop
      vertex 2.94236 76.4147 20
      vertex 2.77164 75.852 18
      vertex 2.77164 75.852 20
    endloop
  endfacet
  facet normal -0.881936 0.471369 0
    outer loop
      vertex 2.49441 75.3333 0
      vertex 2.77164 75.852 2
      vertex 2.77164 75.852 0
    endloop
  endfacet
  facet normal -0.881936 0.471369 0
    outer loop
      vertex 2.77164 75.852 2
      vertex 2.49441 75.3333 0
      vertex 2.49441 75.3333 2
    endloop
  endfacet
  facet normal -0.881936 0.471369 0
    outer loop
      vertex 2.49441 75.3333 18
      vertex 2.77164 75.852 20
      vertex 2.77164 75.852 18
    endloop
  endfacet
  facet normal -0.881936 0.471369 0
    outer loop
      vertex 2.77164 75.852 20
      vertex 2.49441 75.3333 18
      vertex 2.49441 75.3333 20
    endloop
  endfacet
  facet normal -0.0979428 -0.995192 0
    outer loop
      vertex 0 80 0
      vertex 0.585271 79.9424 20
      vertex 0 80 20
    endloop
  endfacet
  facet normal -0.0979428 -0.995192 -0
    outer loop
      vertex 0.585271 79.9424 20
      vertex 0 80 0
      vertex 0.585271 79.9424 0
    endloop
  endfacet
  facet normal -0.634405 -0.773001 0
    outer loop
      vertex 1.66671 79.4944 0
      vertex 2.12132 79.1213 20
      vertex 1.66671 79.4944 20
    endloop
  endfacet
  facet normal -0.634405 -0.773001 -0
    outer loop
      vertex 2.12132 79.1213 20
      vertex 1.66671 79.4944 0
      vertex 2.12132 79.1213 0
    endloop
  endfacet
  facet normal -0.0979428 0.995192 0
    outer loop
      vertex 0.585271 74.0576 0
      vertex 0 74 20
      vertex 0.585271 74.0576 20
    endloop
  endfacet
  facet normal -0.0979428 0.995192 0
    outer loop
      vertex 0 74 20
      vertex 0.585271 74.0576 0
      vertex 0 74 0
    endloop
  endfacet
  facet normal -0.471358 -0.881942 0
    outer loop
      vertex 1.14805 79.7716 0
      vertex 1.66671 79.4944 20
      vertex 1.14805 79.7716 20
    endloop
  endfacet
  facet normal -0.471358 -0.881942 -0
    outer loop
      vertex 1.66671 79.4944 20
      vertex 1.14805 79.7716 0
      vertex 1.66671 79.4944 0
    endloop
  endfacet
  facet normal -0.290451 0.95689 -3.66465e-05
    outer loop
      vertex 48.148 74.2284 20
      vertex 48 74.1834 18
      vertex 47.5853 74.0576 20
    endloop
  endfacet
  facet normal -0.290904 0.956752 0
    outer loop
      vertex 48.148 74.2284 20
      vertex 48 74.1834 2
      vertex 48 74.1834 18
    endloop
  endfacet
  facet normal -0.290904 0.956752 0
    outer loop
      vertex 48.148 74.2284 0
      vertex 48 74.1834 2
      vertex 48.148 74.2284 20
    endloop
  endfacet
  facet normal -0.290451 0.95689 3.66465e-05
    outer loop
      vertex 47.5853 74.0576 0
      vertex 48 74.1834 2
      vertex 48.148 74.2284 0
    endloop
  endfacet
  facet normal -0.290289 0.956939 0
    outer loop
      vertex 48 74.1834 2
      vertex 47.5853 74.0576 0
      vertex 47.5853 74.0576 2
    endloop
  endfacet
  facet normal -0.290289 0.956939 0
    outer loop
      vertex 47.5853 74.0576 20
      vertex 48 74.1834 18
      vertex 47.5853 74.0576 18
    endloop
  endfacet
  facet normal -0.95689 -0.290451 0
    outer loop
      vertex 49.9424 77.5853 0
      vertex 49.7716 78.148 20
      vertex 49.7716 78.148 0
    endloop
  endfacet
  facet normal -0.95689 -0.290451 0
    outer loop
      vertex 49.7716 78.148 20
      vertex 49.9424 77.5853 0
      vertex 49.9424 77.5853 20
    endloop
  endfacet
  facet normal -0.995193 -0.097938 0
    outer loop
      vertex 50 77 0
      vertex 49.9424 77.5853 20
      vertex 49.9424 77.5853 0
    endloop
  endfacet
  facet normal -0.995193 -0.097938 0
    outer loop
      vertex 49.9424 77.5853 20
      vertex 50 77 0
      vertex 50 77 20
    endloop
  endfacet
  facet normal -0.881957 -0.471329 0
    outer loop
      vertex 49.7716 78.148 0
      vertex 49.4944 78.6667 20
      vertex 49.4944 78.6667 0
    endloop
  endfacet
  facet normal -0.881957 -0.471329 0
    outer loop
      vertex 49.4944 78.6667 20
      vertex 49.7716 78.148 0
      vertex 49.7716 78.148 20
    endloop
  endfacet
  facet normal 0.881957 0.471329 0
    outer loop
      vertex 44.5056 75.3333 20
      vertex 44.2284 75.852 18
      vertex 44.2284 75.852 20
    endloop
  endfacet
  facet normal 0.881957 0.471329 0
    outer loop
      vertex 44.2284 75.852 18
      vertex 44.5056 75.3333 20
      vertex 44.5056 75.3333 18
    endloop
  endfacet
  facet normal 0.881957 0.471329 0
    outer loop
      vertex 44.5056 75.3333 2
      vertex 44.2284 75.852 0
      vertex 44.2284 75.852 2
    endloop
  endfacet
  facet normal 0.881957 0.471329 0
    outer loop
      vertex 44.2284 75.852 0
      vertex 44.5056 75.3333 2
      vertex 44.5056 75.3333 0
    endloop
  endfacet
  facet normal -0.290451 -0.95689 0
    outer loop
      vertex 47.5853 79.9424 0
      vertex 48.148 79.7716 20
      vertex 47.5853 79.9424 20
    endloop
  endfacet
  facet normal -0.290451 -0.95689 -0
    outer loop
      vertex 48.148 79.7716 20
      vertex 47.5853 79.9424 0
      vertex 48.148 79.7716 0
    endloop
  endfacet
  facet normal 0.097938 -0.995193 0
    outer loop
      vertex 46.4147 79.9424 0
      vertex 47 80 20
      vertex 46.4147 79.9424 20
    endloop
  endfacet
  facet normal 0.097938 -0.995193 0
    outer loop
      vertex 47 80 20
      vertex 46.4147 79.9424 0
      vertex 47 80 0
    endloop
  endfacet
  facet normal 0.471329 0.881957 -0
    outer loop
      vertex 45.852 74.2284 0
      vertex 45.3333 74.5056 2
      vertex 45.852 74.2284 2
    endloop
  endfacet
  facet normal 0.471329 0.881957 0
    outer loop
      vertex 45.3333 74.5056 2
      vertex 45.852 74.2284 0
      vertex 45.3333 74.5056 0
    endloop
  endfacet
  facet normal 0.471329 0.881957 -0
    outer loop
      vertex 45.852 74.2284 18
      vertex 45.3333 74.5056 20
      vertex 45.852 74.2284 20
    endloop
  endfacet
  facet normal 0.471329 0.881957 0
    outer loop
      vertex 45.3333 74.5056 20
      vertex 45.852 74.2284 18
      vertex 45.3333 74.5056 18
    endloop
  endfacet
  facet normal 0.471329 -0.881957 0
    outer loop
      vertex 45.3333 79.4944 0
      vertex 45.852 79.7716 20
      vertex 45.3333 79.4944 20
    endloop
  endfacet
  facet normal 0.471329 -0.881957 0
    outer loop
      vertex 45.852 79.7716 20
      vertex 45.3333 79.4944 0
      vertex 45.852 79.7716 0
    endloop
  endfacet
  facet normal -0.471329 0.881957 0
    outer loop
      vertex 48.6667 74.5056 0
      vertex 48.148 74.2284 20
      vertex 48.6667 74.5056 20
    endloop
  endfacet
  facet normal -0.471329 0.881957 0
    outer loop
      vertex 48.148 74.2284 20
      vertex 48.6667 74.5056 0
      vertex 48.148 74.2284 0
    endloop
  endfacet
  facet normal 0.772994 -0.634413 0
    outer loop
      vertex 44.5056 78.6667 20
      vertex 44.8787 79.1213 0
      vertex 44.8787 79.1213 20
    endloop
  endfacet
  facet normal 0.772994 -0.634413 0
    outer loop
      vertex 44.8787 79.1213 0
      vertex 44.5056 78.6667 20
      vertex 44.5056 78.6667 0
    endloop
  endfacet
  facet normal -0.772994 -0.634413 0
    outer loop
      vertex 49.4944 78.6667 0
      vertex 49.1213 79.1213 20
      vertex 49.1213 79.1213 0
    endloop
  endfacet
  facet normal -0.772994 -0.634413 0
    outer loop
      vertex 49.1213 79.1213 20
      vertex 49.4944 78.6667 0
      vertex 49.4944 78.6667 20
    endloop
  endfacet
  facet normal -0.772994 0.634413 0
    outer loop
      vertex 49.1213 74.8787 0
      vertex 49.4944 75.3333 20
      vertex 49.4944 75.3333 0
    endloop
  endfacet
  facet normal -0.772994 0.634413 0
    outer loop
      vertex 49.4944 75.3333 20
      vertex 49.1213 74.8787 0
      vertex 49.1213 74.8787 20
    endloop
  endfacet
  facet normal 0.097938 0.995193 -0
    outer loop
      vertex 47 74 18
      vertex 46.4147 74.0576 20
      vertex 47 74 20
    endloop
  endfacet
  facet normal 0.097938 0.995193 0
    outer loop
      vertex 46.4147 74.0576 20
      vertex 47 74 18
      vertex 46.4147 74.0576 18
    endloop
  endfacet
  facet normal 0.097938 0.995193 -0
    outer loop
      vertex 47 74 0
      vertex 46.4147 74.0576 2
      vertex 47 74 2
    endloop
  endfacet
  facet normal 0.097938 0.995193 0
    outer loop
      vertex 46.4147 74.0576 2
      vertex 47 74 0
      vertex 46.4147 74.0576 0
    endloop
  endfacet
  facet normal 0.290451 -0.95689 0
    outer loop
      vertex 45.852 79.7716 0
      vertex 46.4147 79.9424 20
      vertex 45.852 79.7716 20
    endloop
  endfacet
  facet normal 0.290451 -0.95689 0
    outer loop
      vertex 46.4147 79.9424 20
      vertex 45.852 79.7716 0
      vertex 46.4147 79.9424 0
    endloop
  endfacet
  facet normal -0.634413 0.772994 0
    outer loop
      vertex 49.1213 74.8787 0
      vertex 48.6667 74.5056 20
      vertex 49.1213 74.8787 20
    endloop
  endfacet
  facet normal -0.634413 0.772994 0
    outer loop
      vertex 48.6667 74.5056 20
      vertex 49.1213 74.8787 0
      vertex 48.6667 74.5056 0
    endloop
  endfacet
  facet normal -0.995193 0.097938 0
    outer loop
      vertex 49.9424 76.4147 0
      vertex 50 77 20
      vertex 50 77 0
    endloop
  endfacet
  facet normal -0.995193 0.097938 0
    outer loop
      vertex 50 77 20
      vertex 49.9424 76.4147 0
      vertex 49.9424 76.4147 20
    endloop
  endfacet
  facet normal 0.290451 0.95689 -0
    outer loop
      vertex 46.4147 74.0576 0
      vertex 45.852 74.2284 2
      vertex 46.4147 74.0576 2
    endloop
  endfacet
  facet normal 0.290451 0.95689 0
    outer loop
      vertex 45.852 74.2284 2
      vertex 46.4147 74.0576 0
      vertex 45.852 74.2284 0
    endloop
  endfacet
  facet normal 0.290451 0.95689 -0
    outer loop
      vertex 46.4147 74.0576 18
      vertex 45.852 74.2284 20
      vertex 46.4147 74.0576 20
    endloop
  endfacet
  facet normal 0.290451 0.95689 0
    outer loop
      vertex 45.852 74.2284 20
      vertex 46.4147 74.0576 18
      vertex 45.852 74.2284 18
    endloop
  endfacet
  facet normal -0.95689 0.290451 0
    outer loop
      vertex 49.7716 75.852 0
      vertex 49.9424 76.4147 20
      vertex 49.9424 76.4147 0
    endloop
  endfacet
  facet normal -0.95689 0.290451 0
    outer loop
      vertex 49.9424 76.4147 20
      vertex 49.7716 75.852 0
      vertex 49.7716 75.852 20
    endloop
  endfacet
  facet normal 0.95689 0.290451 0
    outer loop
      vertex 44.2284 75.852 20
      vertex 44.0576 76.4147 18
      vertex 44.0576 76.4147 20
    endloop
  endfacet
  facet normal 0.95689 0.290451 0
    outer loop
      vertex 44.0576 76.4147 18
      vertex 44.2284 75.852 20
      vertex 44.2284 75.852 18
    endloop
  endfacet
  facet normal 0.95689 0.290451 0
    outer loop
      vertex 44.2284 75.852 2
      vertex 44.0576 76.4147 0
      vertex 44.0576 76.4147 2
    endloop
  endfacet
  facet normal 0.95689 0.290451 0
    outer loop
      vertex 44.0576 76.4147 0
      vertex 44.2284 75.852 2
      vertex 44.2284 75.852 0
    endloop
  endfacet
  facet normal -0.881957 0.471329 0
    outer loop
      vertex 49.4944 75.3333 0
      vertex 49.7716 75.852 20
      vertex 49.7716 75.852 0
    endloop
  endfacet
  facet normal -0.881957 0.471329 0
    outer loop
      vertex 49.7716 75.852 20
      vertex 49.4944 75.3333 0
      vertex 49.4944 75.3333 20
    endloop
  endfacet
  facet normal 0.995193 -0.097938 0
    outer loop
      vertex 44 77 2
      vertex 44.0576 77.5853 0
      vertex 44.0576 77.5853 2
    endloop
  endfacet
  facet normal 0.995193 -0.097938 0
    outer loop
      vertex 44.0576 77.5853 0
      vertex 44 77 2
      vertex 44 77 0
    endloop
  endfacet
  facet normal 0.995193 -0.097938 0
    outer loop
      vertex 44 77 20
      vertex 44.0576 77.5853 18
      vertex 44.0576 77.5853 20
    endloop
  endfacet
  facet normal 0.995193 -0.097938 0
    outer loop
      vertex 44.0576 77.5853 18
      vertex 44 77 20
      vertex 44 77 18
    endloop
  endfacet
  facet normal -0.097938 -0.995193 0
    outer loop
      vertex 47 80 0
      vertex 47.5853 79.9424 20
      vertex 47 80 20
    endloop
  endfacet
  facet normal -0.097938 -0.995193 -0
    outer loop
      vertex 47.5853 79.9424 20
      vertex 47 80 0
      vertex 47.5853 79.9424 0
    endloop
  endfacet
  facet normal 0.634413 -0.772994 0
    outer loop
      vertex 44.8787 79.1213 0
      vertex 45.3333 79.4944 20
      vertex 44.8787 79.1213 20
    endloop
  endfacet
  facet normal 0.634413 -0.772994 0
    outer loop
      vertex 45.3333 79.4944 20
      vertex 44.8787 79.1213 0
      vertex 45.3333 79.4944 0
    endloop
  endfacet
  facet normal -0.634413 -0.772994 0
    outer loop
      vertex 48.6667 79.4944 0
      vertex 49.1213 79.1213 20
      vertex 48.6667 79.4944 20
    endloop
  endfacet
  facet normal -0.634413 -0.772994 -0
    outer loop
      vertex 49.1213 79.1213 20
      vertex 48.6667 79.4944 0
      vertex 49.1213 79.1213 0
    endloop
  endfacet
  facet normal -0.097938 0.995193 0
    outer loop
      vertex 47.5853 74.0576 18
      vertex 47 74 20
      vertex 47.5853 74.0576 20
    endloop
  endfacet
  facet normal -0.097938 0.995193 0
    outer loop
      vertex 47 74 20
      vertex 47.5853 74.0576 18
      vertex 47 74 18
    endloop
  endfacet
  facet normal -0.097938 0.995193 0
    outer loop
      vertex 47.5853 74.0576 0
      vertex 47 74 2
      vertex 47.5853 74.0576 2
    endloop
  endfacet
  facet normal -0.097938 0.995193 0
    outer loop
      vertex 47 74 2
      vertex 47.5853 74.0576 0
      vertex 47 74 0
    endloop
  endfacet
  facet normal -0.471329 -0.881957 0
    outer loop
      vertex 48.148 79.7716 0
      vertex 48.6667 79.4944 20
      vertex 48.148 79.7716 20
    endloop
  endfacet
  facet normal -0.471329 -0.881957 -0
    outer loop
      vertex 48.6667 79.4944 20
      vertex 48.148 79.7716 0
      vertex 48.6667 79.4944 0
    endloop
  endfacet
  facet normal 0.772994 0.634413 0
    outer loop
      vertex 44.8787 74.8787 2
      vertex 44.5056 75.3333 0
      vertex 44.5056 75.3333 2
    endloop
  endfacet
  facet normal 0.772994 0.634413 0
    outer loop
      vertex 44.5056 75.3333 0
      vertex 44.8787 74.8787 2
      vertex 44.8787 74.8787 0
    endloop
  endfacet
  facet normal 0.772994 0.634413 0
    outer loop
      vertex 44.8787 74.8787 20
      vertex 44.5056 75.3333 18
      vertex 44.5056 75.3333 20
    endloop
  endfacet
  facet normal 0.772994 0.634413 0
    outer loop
      vertex 44.5056 75.3333 18
      vertex 44.8787 74.8787 20
      vertex 44.8787 74.8787 18
    endloop
  endfacet
  facet normal 0.634413 0.772994 -0
    outer loop
      vertex 45.3333 74.5056 0
      vertex 44.8787 74.8787 2
      vertex 45.3333 74.5056 2
    endloop
  endfacet
  facet normal 0.634413 0.772994 0
    outer loop
      vertex 44.8787 74.8787 2
      vertex 45.3333 74.5056 0
      vertex 44.8787 74.8787 0
    endloop
  endfacet
  facet normal 0.634413 0.772994 -0
    outer loop
      vertex 45.3333 74.5056 18
      vertex 44.8787 74.8787 20
      vertex 45.3333 74.5056 20
    endloop
  endfacet
  facet normal 0.634413 0.772994 0
    outer loop
      vertex 44.8787 74.8787 20
      vertex 45.3333 74.5056 18
      vertex 44.8787 74.8787 18
    endloop
  endfacet
  facet normal 0.956932 -0.290312 0
    outer loop
      vertex 44.2284 78.148 20
      vertex 44.1835 78 18
      vertex 44.2284 78.148 0
    endloop
  endfacet
  facet normal 0.95689 -0.290451 1.1198e-05
    outer loop
      vertex 44.0576 77.5853 20
      vertex 44.1835 78 18
      vertex 44.2284 78.148 20
    endloop
  endfacet
  facet normal 0.956875 -0.2905 0
    outer loop
      vertex 44.1835 78 18
      vertex 44.0576 77.5853 20
      vertex 44.0576 77.5853 18
    endloop
  endfacet
  facet normal 0.956932 -0.290312 0
    outer loop
      vertex 44.1835 78 2
      vertex 44.2284 78.148 0
      vertex 44.1835 78 18
    endloop
  endfacet
  facet normal 0.956875 -0.2905 0
    outer loop
      vertex 44.0576 77.5853 0
      vertex 44.1835 78 2
      vertex 44.0576 77.5853 2
    endloop
  endfacet
  facet normal 0.95689 -0.290451 -1.1198e-05
    outer loop
      vertex 44.1835 78 2
      vertex 44.0576 77.5853 0
      vertex 44.2284 78.148 0
    endloop
  endfacet
  facet normal 0.881957 -0.471329 0
    outer loop
      vertex 44.2284 78.148 20
      vertex 44.5056 78.6667 0
      vertex 44.5056 78.6667 20
    endloop
  endfacet
  facet normal 0.881957 -0.471329 0
    outer loop
      vertex 44.5056 78.6667 0
      vertex 44.2284 78.148 20
      vertex 44.2284 78.148 0
    endloop
  endfacet
  facet normal 0.995193 0.097938 0
    outer loop
      vertex 44.0576 76.4147 2
      vertex 44 77 0
      vertex 44 77 2
    endloop
  endfacet
  facet normal 0.995193 0.097938 0
    outer loop
      vertex 44 77 0
      vertex 44.0576 76.4147 2
      vertex 44.0576 76.4147 0
    endloop
  endfacet
  facet normal 0.995193 0.097938 0
    outer loop
      vertex 44.0576 76.4147 20
      vertex 44 77 18
      vertex 44 77 20
    endloop
  endfacet
  facet normal 0.995193 0.097938 0
    outer loop
      vertex 44 77 18
      vertex 44.0576 76.4147 20
      vertex 44.0576 76.4147 18
    endloop
  endfacet
endsolid OpenSCAD_Model
