solid OpenSCAD_Model
  facet normal -0.866025 0 -0.5
    outer loop
      vertex -10 0 -17.3205
      vertex -20 1 0
      vertex -10 1 -17.3205
    endloop
  endfacet
  facet normal -0.866025 -0 -0.5
    outer loop
      vertex -20 1 0
      vertex -10 0 -17.3205
      vertex -20 0 0
    endloop
  endfacet
  facet normal 0 -0.894427 -0.447214
    outer loop
      vertex -5 -8.66025 -17.3205
      vertex 11 -17.3205 0
      vertex -10 -17.3205 0
    endloop
  endfacet
  facet normal 0 -0.894427 -0.447214
    outer loop
      vertex 11 -17.3205 0
      vertex -5 -8.66025 -17.3205
      vertex 6 -8.66025 -17.3205
    endloop
  endfacet
  facet normal -0.866025 0 0.5
    outer loop
      vertex -20 0 0
      vertex -10 1 17.3205
      vertex -20 1 0
    endloop
  endfacet
  facet normal -0.866025 0 0.5
    outer loop
      vertex -10 1 17.3205
      vertex -20 0 0
      vertex -10 0 17.3205
    endloop
  endfacet
  facet normal -0.774597 0.447214 0.447214
    outer loop
      vertex -10 18.3205 0
      vertex -10 1 17.3205
      vertex -5 9.66025 17.3205
    endloop
  endfacet
  facet normal 0.774595 0.447218 -0.447213
    outer loop
      vertex 11 0 -17.3205
      vertex 15.1635 10.109 0
      vertex 21 0 0
    endloop
  endfacet
  facet normal 0.774601 0.44721 -0.44721
    outer loop
      vertex 15.1635 10.109 0
      vertex 11 0 -17.3205
      vertex 11 17.3205 0
    endloop
  endfacet
  facet normal 0.774597 -0.447214 -0.447214
    outer loop
      vertex 11 -17.3205 0
      vertex 6 -8.66025 -17.3205
      vertex 11 0 -17.3205
    endloop
  endfacet
  facet normal 0.774597 -0.447214 -0.447214
    outer loop
      vertex 21 0 0
      vertex 11 -17.3205 0
      vertex 11 0 -17.3205
    endloop
  endfacet
  facet normal -0.774597 0.447214 -0.447214
    outer loop
      vertex -5 9.66025 -17.3205
      vertex -10 1 -17.3205
      vertex -10 18.3205 0
    endloop
  endfacet
  facet normal -0.774597 -0.447214 -0.447214
    outer loop
      vertex -5 -8.66025 -17.3205
      vertex -10 -17.3205 0
      vertex -10 0 -17.3205
    endloop
  endfacet
  facet normal 0 0.894427 0.447214
    outer loop
      vertex 0 18.3205 0
      vertex -5 9.66025 17.3205
      vertex 0 9.66025 17.3205
    endloop
  endfacet
  facet normal 0 0.894427 0.447214
    outer loop
      vertex -5 9.66025 17.3205
      vertex 0 18.3205 0
      vertex -10 18.3205 0
    endloop
  endfacet
  facet normal -0.774597 0.447214 0.447214
    outer loop
      vertex -10 18.3205 0
      vertex -20 1 0
      vertex -10 1 17.3205
    endloop
  endfacet
  facet normal 0.774597 0.447214 -0.447214
    outer loop
      vertex 11 0 -17.3205
      vertex 6 8.66025 -17.3205
      vertex 11 17.3205 0
    endloop
  endfacet
  facet normal -0.774597 0.447214 -0.447214
    outer loop
      vertex -10 1 -17.3205
      vertex -20 1 0
      vertex -10 18.3205 0
    endloop
  endfacet
  facet normal -0.774597 -0.447214 0.447214
    outer loop
      vertex -10 0 17.3205
      vertex -20 0 0
      vertex -10 -17.3205 0
    endloop
  endfacet
  facet normal -0.774597 -0.447214 -0.447214
    outer loop
      vertex -10 -17.3205 0
      vertex -20 0 0
      vertex -10 0 -17.3205
    endloop
  endfacet
  facet normal 0 0.894427 -0.447214
    outer loop
      vertex 5 9.66025 -17.3205
      vertex 0 18.3205 0
      vertex 10 18.3205 0
    endloop
  endfacet
  facet normal 0 0.894427 -0.447214
    outer loop
      vertex -5 9.66025 -17.3205
      vertex 0 18.3205 0
      vertex 5 9.66025 -17.3205
    endloop
  endfacet
  facet normal 0 0.894427 -0.447214
    outer loop
      vertex 0 18.3205 0
      vertex -5 9.66025 -17.3205
      vertex -10 18.3205 0
    endloop
  endfacet
  facet normal 0.617565 0.617565 -0.487059
    outer loop
      vertex 11 17.3205 0
      vertex 5 9.66025 -17.3205
      vertex 10 18.3205 0
    endloop
  endfacet
  facet normal 0.617565 0.617565 -0.487059
    outer loop
      vertex 5 9.66025 -17.3205
      vertex 11 17.3205 0
      vertex 6 8.66025 -17.3205
    endloop
  endfacet
  facet normal 0 0 -1
    outer loop
      vertex 6 -8.66025 -17.3205
      vertex 6 8.66025 -17.3205
      vertex 11 0 -17.3205
    endloop
  endfacet
  facet normal 0 0 -1
    outer loop
      vertex -5 -8.66025 -17.3205
      vertex 6 8.66025 -17.3205
      vertex 6 -8.66025 -17.3205
    endloop
  endfacet
  facet normal 0 0 -1
    outer loop
      vertex -10 0 -17.3205
      vertex 6 8.66025 -17.3205
      vertex -5 -8.66025 -17.3205
    endloop
  endfacet
  facet normal 0 0 -1
    outer loop
      vertex -10 1 -17.3205
      vertex 6 8.66025 -17.3205
      vertex -10 0 -17.3205
    endloop
  endfacet
  facet normal 0 -0 -1
    outer loop
      vertex -5 9.66025 -17.3205
      vertex 6 8.66025 -17.3205
      vertex -10 1 -17.3205
    endloop
  endfacet
  facet normal 0 0 -1
    outer loop
      vertex 6 8.66025 -17.3205
      vertex -5 9.66025 -17.3205
      vertex 5 9.66025 -17.3205
    endloop
  endfacet
  facet normal -0.774597 -0.447214 0.447214
    outer loop
      vertex -10 0 17.3205
      vertex -10 -17.3205 0
      vertex -5 -8.66025 17.3205
    endloop
  endfacet
  facet normal 0.774597 0.447214 0.447214
    outer loop
      vertex 11 7.33333 9.98717
      vertex 7.94281 5.29521 17.3205
      vertex 11 0 17.3205
    endloop
  endfacet
  facet normal 0 0 1
    outer loop
      vertex 0 9.66025 17.3205
      vertex -5 9.66025 17.3205
      vertex 0 0 17.3205
    endloop
  endfacet
  facet normal 0 0 1
    outer loop
      vertex 0 0 17.3205
      vertex 11 0 17.3205
      vertex 7.94281 5.29521 17.3205
    endloop
  endfacet
  facet normal 0 0 1
    outer loop
      vertex 11 0 17.3205
      vertex 0 0 17.3205
      vertex 6 -8.66025 17.3205
    endloop
  endfacet
  facet normal 0 0 1
    outer loop
      vertex 0 0 17.3205
      vertex -5 -8.66025 17.3205
      vertex 6 -8.66025 17.3205
    endloop
  endfacet
  facet normal -0 0 1
    outer loop
      vertex -10 1 17.3205
      vertex 0 0 17.3205
      vertex -5 9.66025 17.3205
    endloop
  endfacet
  facet normal 0 0 1
    outer loop
      vertex -10 0 17.3205
      vertex 0 0 17.3205
      vertex -10 1 17.3205
    endloop
  endfacet
  facet normal 0 0 1
    outer loop
      vertex 0 0 17.3205
      vertex -10 0 17.3205
      vertex -5 -8.66025 17.3205
    endloop
  endfacet
  facet normal 0.774597 -0.447214 0.447214
    outer loop
      vertex 11 0 17.3205
      vertex 11 -17.3205 0
      vertex 21 0 0
    endloop
  endfacet
  facet normal 0 -0.894427 0.447214
    outer loop
      vertex -10 -17.3205 0
      vertex 6 -8.66025 17.3205
      vertex -5 -8.66025 17.3205
    endloop
  endfacet
  facet normal 0 -0.894427 0.447214
    outer loop
      vertex 6 -8.66025 17.3205
      vertex -10 -17.3205 0
      vertex 11 -17.3205 0
    endloop
  endfacet
  facet normal 0.774597 0.447214 0.447214
    outer loop
      vertex 21 0 0
      vertex 11 7.33333 9.98717
      vertex 11 0 17.3205
    endloop
  endfacet
  facet normal 0.774596 0.447218 0.44721
    outer loop
      vertex 11 7.33333 9.98717
      vertex 21 0 0
      vertex 15.1635 10.109 0
    endloop
  endfacet
  facet normal 0.774597 -0.447214 0.447214
    outer loop
      vertex 11 0 17.3205
      vertex 6 -8.66025 17.3205
      vertex 11 -17.3205 0
    endloop
  endfacet
  facet normal -0 0 1
    outer loop
      vertex 0 18.3205 0
      vertex 11 17.3205 0
      vertex 10 18.3205 0
    endloop
  endfacet
  facet normal 0 0 1
    outer loop
      vertex 0 0 0
      vertex 11 17.3205 0
      vertex 0 18.3205 0
    endloop
  endfacet
  facet normal 0 0 1
    outer loop
      vertex 11 17.3205 0
      vertex 0 0 0
      vertex 15.1635 10.109 0
    endloop
  endfacet
  facet normal -0.5547 0.83205 -9.01981e-07
    outer loop
      vertex 11 7.33333 9.98717
      vertex 0 0 17.3205
      vertex 7.94281 5.29521 17.3205
    endloop
  endfacet
  facet normal -0.5547 0.83205 2.77706e-07
    outer loop
      vertex 0 0 0
      vertex 11 7.33333 9.98717
      vertex 15.1635 10.109 0
    endloop
  endfacet
  facet normal -0.5547 0.83205 0
    outer loop
      vertex 11 7.33333 9.98717
      vertex 0 0 0
      vertex 0 0 17.3205
    endloop
  endfacet
  facet normal 1 0 0
    outer loop
      vertex 0 0 0
      vertex 0 9.66025 17.3205
      vertex 0 0 17.3205
    endloop
  endfacet
  facet normal 1 0 0
    outer loop
      vertex 0 9.66025 17.3205
      vertex 0 0 0
      vertex 0 18.3205 0
    endloop
  endfacet
endsolid OpenSCAD_Model
