solid OpenSCAD_Model
  facet normal 0 0 -1
    outer loop
      vertex -1.21352 0 0
      vertex -5 0 0
      vertex -1.21352 0.881678 0
    endloop
  endfacet
  facet normal 0 0 -1
    outer loop
      vertex -1.21352 0.881678 0
      vertex 0 5 0
      vertex 0 1.27598 0
    endloop
  endfacet
  facet normal 0 0 -1
    outer loop
      vertex 0 5 0
      vertex -1.21352 0.881678 0
      vertex -5 0 0
    endloop
  endfacet
  facet normal 1 0 0
    outer loop
      vertex 0 5 9.162
      vertex 0 1.27598 1
      vertex 0 5 0
    endloop
  endfacet
  facet normal 1 -0 0
    outer loop
      vertex 0 0 9.162
      vertex 0 1.27598 1
      vertex 0 5 9.162
    endloop
  endfacet
  facet normal 1 0 0
    outer loop
      vertex 0 1.27598 1
      vertex 0 0 9.162
      vertex 0 0 1
    endloop
  endfacet
  facet normal 1 0 0
    outer loop
      vertex 0 5 0
      vertex 0 1.27598 1
      vertex 0 1.27598 0
    endloop
  endfacet
  facet normal -0.707107 0.707107 0
    outer loop
      vertex -5 0 0
      vertex 0 5 9.162
      vertex 0 5 0
    endloop
  endfacet
  facet normal -0.707107 0.707107 0
    outer loop
      vertex 0 5 9.162
      vertex -5 0 0
      vertex -5 0 9.162
    endloop
  endfacet
  facet normal 0 -1 0
    outer loop
      vertex -5 0 9.162
      vertex -1.21352 0 1
      vertex 0 0 9.162
    endloop
  endfacet
  facet normal 0 -1 0
    outer loop
      vertex -5 0 0
      vertex -1.21352 0 1
      vertex -5 0 9.162
    endloop
  endfacet
  facet normal 0 -1 -0
    outer loop
      vertex -1.21352 0 1
      vertex -5 0 0
      vertex -1.21352 0 0
    endloop
  endfacet
  facet normal 0 -1 -0
    outer loop
      vertex 0 0 9.162
      vertex -1.21352 0 1
      vertex 0 0 1
    endloop
  endfacet
  facet normal 0 0 1
    outer loop
      vertex 0 5 9.162
      vertex -5 0 9.162
      vertex 0 0 9.162
    endloop
  endfacet
  facet normal -0.309015 -0.951057 0
    outer loop
      vertex -1.21352 -0.881678 -1
      vertex 0.463525 -1.42658 1
      vertex -1.21352 -0.881678 1
    endloop
  endfacet
  facet normal -0.309015 -0.951057 -0
    outer loop
      vertex 0.463525 -1.42658 1
      vertex -1.21352 -0.881678 -1
      vertex 0.463525 -1.42658 -1
    endloop
  endfacet
  facet normal -0.309001 0.951062 0
    outer loop
      vertex 0.463525 1.42658 1
      vertex 0 1.27598 0
      vertex 0 1.27598 1
    endloop
  endfacet
  facet normal -0.309001 0.951062 0
    outer loop
      vertex 0.463525 1.42658 -1
      vertex 0 1.27598 0
      vertex 0.463525 1.42658 1
    endloop
  endfacet
  facet normal -0.309015 0.951057 -7.21499e-06
    outer loop
      vertex -1.21352 0.881678 -1
      vertex 0 1.27598 0
      vertex 0.463525 1.42658 -1
    endloop
  endfacet
  facet normal -0.309021 0.951055 0
    outer loop
      vertex 0 1.27598 0
      vertex -1.21352 0.881678 -1
      vertex -1.21352 0.881678 0
    endloop
  endfacet
  facet normal 0.809016 0.587787 0
    outer loop
      vertex 1.5 0 1
      vertex 0.463525 1.42658 -1
      vertex 0.463525 1.42658 1
    endloop
  endfacet
  facet normal 0.809016 0.587787 0
    outer loop
      vertex 0.463525 1.42658 -1
      vertex 1.5 0 1
      vertex 1.5 0 -1
    endloop
  endfacet
  facet normal -1 0 0
    outer loop
      vertex -1.21352 0.881678 -1
      vertex -1.21352 0 0
      vertex -1.21352 0.881678 0
    endloop
  endfacet
  facet normal -1 0 0
    outer loop
      vertex -1.21352 -0.881678 -1
      vertex -1.21352 0 0
      vertex -1.21352 0.881678 -1
    endloop
  endfacet
  facet normal -1 0 0
    outer loop
      vertex -1.21352 -0.881678 1
      vertex -1.21352 0 0
      vertex -1.21352 -0.881678 -1
    endloop
  endfacet
  facet normal -1 0 0
    outer loop
      vertex -1.21352 0 0
      vertex -1.21352 -0.881678 1
      vertex -1.21352 0 1
    endloop
  endfacet
  facet normal 0 0 1
    outer loop
      vertex 0 0 1
      vertex 1.5 0 1
      vertex 0.463525 1.42658 1
    endloop
  endfacet
  facet normal 0 0 1
    outer loop
      vertex 0 0 1
      vertex 0.463525 1.42658 1
      vertex 0 1.27598 1
    endloop
  endfacet
  facet normal 0 0 1
    outer loop
      vertex 1.5 0 1
      vertex 0 0 1
      vertex 0.463525 -1.42658 1
    endloop
  endfacet
  facet normal 0 0 1
    outer loop
      vertex -1.21352 -0.881678 1
      vertex 0 0 1
      vertex -1.21352 0 1
    endloop
  endfacet
  facet normal 0 0 1
    outer loop
      vertex 0 0 1
      vertex -1.21352 -0.881678 1
      vertex 0.463525 -1.42658 1
    endloop
  endfacet
  facet normal 0.809016 -0.587787 0
    outer loop
      vertex 0.463525 -1.42658 1
      vertex 1.5 0 -1
      vertex 1.5 0 1
    endloop
  endfacet
  facet normal 0.809016 -0.587787 0
    outer loop
      vertex 1.5 0 -1
      vertex 0.463525 -1.42658 1
      vertex 0.463525 -1.42658 -1
    endloop
  endfacet
  facet normal 0 0 -1
    outer loop
      vertex 0.463525 -1.42658 -1
      vertex 0.463525 1.42658 -1
      vertex 1.5 0 -1
    endloop
  endfacet
  facet normal 0 0 -1
    outer loop
      vertex -1.21352 -0.881678 -1
      vertex 0.463525 1.42658 -1
      vertex 0.463525 -1.42658 -1
    endloop
  endfacet
  facet normal 0 0 -1
    outer loop
      vertex 0.463525 1.42658 -1
      vertex -1.21352 -0.881678 -1
      vertex -1.21352 0.881678 -1
    endloop
  endfacet
endsolid OpenSCAD_Model
