solid OpenSCAD_Model
  facet normal -0 0 1
    outer loop
      vertex 15.9945 0.104523 55
      vertex 25 0 55
      vertex 24.4537 5.19779 55
    endloop
  endfacet
  facet normal 0 0 1
    outer loop
      vertex 15.6233 3.42769 55
      vertex 24.4537 5.19779 55
      vertex 22.8386 10.1684 55
    endloop
  endfacet
  facet normal 0 0 1
    outer loop
      vertex 15.9945 -0.104523 55
      vertex 25 0 55
      vertex 15.9945 0.104523 55
    endloop
  endfacet
  facet normal 0 0 1
    outer loop
      vertex 14.5692 6.60104 55
      vertex 22.8386 10.1684 55
      vertex 20.2254 14.6946 55
    endloop
  endfacet
  facet normal 0 0 1
    outer loop
      vertex 25 0 55
      vertex 15.9945 -0.104523 55
      vertex 24.4537 -5.19779 55
    endloop
  endfacet
  facet normal 0 0 1
    outer loop
      vertex 12.8784 9.4859 55
      vertex 20.2254 14.6946 55
      vertex 16.7283 18.5786 55
    endloop
  endfacet
  facet normal -0 0 1
    outer loop
      vertex 15.6667 -3.22319 55
      vertex 24.4537 -5.19779 55
      vertex 15.9945 -0.104523 55
    endloop
  endfacet
  facet normal -0 0 1
    outer loop
      vertex 15.6233 -3.42769 55
      vertex 24.4537 -5.19779 55
      vertex 15.6667 -3.22319 55
    endloop
  endfacet
  facet normal 0 0 1
    outer loop
      vertex 24.4537 5.19779 55
      vertex 15.6667 3.22319 55
      vertex 15.9945 0.104523 55
    endloop
  endfacet
  facet normal 0 0 1
    outer loop
      vertex 24.4537 5.19779 55
      vertex 15.6233 3.42769 55
      vertex 15.6667 3.22319 55
    endloop
  endfacet
  facet normal 0 0 1
    outer loop
      vertex 22.8386 10.1684 55
      vertex 14.6542 6.41006 55
      vertex 15.6233 3.42769 55
    endloop
  endfacet
  facet normal 0 0 1
    outer loop
      vertex 22.8386 10.1684 55
      vertex 14.5692 6.60104 55
      vertex 14.6542 6.41006 55
    endloop
  endfacet
  facet normal 0 0 1
    outer loop
      vertex 20.2254 14.6946 55
      vertex 13.0013 9.31677 55
      vertex 14.5692 6.60104 55
    endloop
  endfacet
  facet normal 0 0 1
    outer loop
      vertex 20.2254 14.6946 55
      vertex 12.8784 9.4859 55
      vertex 13.0013 9.31677 55
    endloop
  endfacet
  facet normal 0 0 1
    outer loop
      vertex 10.6247 11.9562 55
      vertex 16.7283 18.5786 55
      vertex 12.5 21.6506 55
    endloop
  endfacet
  facet normal 0 0 1
    outer loop
      vertex 16.7283 18.5786 55
      vertex 10.7801 11.8163 55
      vertex 12.8784 9.4859 55
    endloop
  endfacet
  facet normal 0 0 1
    outer loop
      vertex 16.7283 18.5786 55
      vertex 10.6247 11.9562 55
      vertex 10.7801 11.8163 55
    endloop
  endfacet
  facet normal 0 0 1
    outer loop
      vertex 12.5 21.6506 55
      vertex 8.08778 13.7994 55
      vertex 10.6247 11.9562 55
    endloop
  endfacet
  facet normal 0 0 1
    outer loop
      vertex 12.5 21.6506 55
      vertex 7.90674 13.9039 55
      vertex 8.08778 13.7994 55
    endloop
  endfacet
  facet normal 0 0 1
    outer loop
      vertex 7.72542 23.7764 55
      vertex 7.90674 13.9039 55
      vertex 12.5 21.6506 55
    endloop
  endfacet
  facet normal 0 0 1
    outer loop
      vertex 7.72542 23.7764 55
      vertex 5.04199 15.1794 55
      vertex 7.90674 13.9039 55
    endloop
  endfacet
  facet normal 0 0 1
    outer loop
      vertex 7.72542 23.7764 55
      vertex 4.84317 15.244 55
      vertex 5.04199 15.1794 55
    endloop
  endfacet
  facet normal 0 0 1
    outer loop
      vertex 2.61321 24.863 55
      vertex 4.84317 15.244 55
      vertex 7.72542 23.7764 55
    endloop
  endfacet
  facet normal 0 0 1
    outer loop
      vertex 2.61321 24.863 55
      vertex 1.77583 15.896 55
      vertex 4.84317 15.244 55
    endloop
  endfacet
  facet normal 0 0 1
    outer loop
      vertex 2.61321 24.863 55
      vertex 1.56792 15.9178 55
      vertex 1.77583 15.896 55
    endloop
  endfacet
  facet normal 0 0 1
    outer loop
      vertex 2.61321 24.863 55
      vertex -1.56792 15.9178 55
      vertex 1.56792 15.9178 55
    endloop
  endfacet
  facet normal -0 0 1
    outer loop
      vertex -2.61321 24.863 55
      vertex -1.56792 15.9178 55
      vertex 2.61321 24.863 55
    endloop
  endfacet
  facet normal 0 0 1
    outer loop
      vertex -1.56792 15.9178 55
      vertex -2.61321 24.863 55
      vertex -1.77583 15.896 55
    endloop
  endfacet
  facet normal 0 0 1
    outer loop
      vertex -2.61321 24.863 55
      vertex -4.84317 15.244 55
      vertex -1.77583 15.896 55
    endloop
  endfacet
  facet normal -0 0 1
    outer loop
      vertex -7.72542 23.7764 55
      vertex -4.84317 15.244 55
      vertex -2.61321 24.863 55
    endloop
  endfacet
  facet normal 0 0 1
    outer loop
      vertex -4.84317 15.244 55
      vertex -7.72542 23.7764 55
      vertex -5.04199 15.1794 55
    endloop
  endfacet
  facet normal 0 0 1
    outer loop
      vertex -7.72542 23.7764 55
      vertex -7.90674 13.9039 55
      vertex -5.04199 15.1794 55
    endloop
  endfacet
  facet normal -0 0 1
    outer loop
      vertex -12.5 21.6506 55
      vertex -7.90674 13.9039 55
      vertex -7.72542 23.7764 55
    endloop
  endfacet
  facet normal 0 0 1
    outer loop
      vertex -7.90674 13.9039 55
      vertex -12.5 21.6506 55
      vertex -8.08778 13.7994 55
    endloop
  endfacet
  facet normal 0 0 1
    outer loop
      vertex -8.08778 13.7994 55
      vertex -12.5 21.6506 55
      vertex -10.6247 11.9562 55
    endloop
  endfacet
  facet normal -0 0 1
    outer loop
      vertex -16.7283 18.5786 55
      vertex -10.6247 11.9562 55
      vertex -12.5 21.6506 55
    endloop
  endfacet
  facet normal 0 0 1
    outer loop
      vertex -10.6247 11.9562 55
      vertex -16.7283 18.5786 55
      vertex -10.7801 11.8163 55
    endloop
  endfacet
  facet normal 0 0 1
    outer loop
      vertex -10.7801 11.8163 55
      vertex -16.7283 18.5786 55
      vertex -12.8784 9.4859 55
    endloop
  endfacet
  facet normal -0 0 1
    outer loop
      vertex -20.2254 14.6946 55
      vertex -12.8784 9.4859 55
      vertex -16.7283 18.5786 55
    endloop
  endfacet
  facet normal 0 0 1
    outer loop
      vertex -12.8784 9.4859 55
      vertex -20.2254 14.6946 55
      vertex -13.0013 9.31677 55
    endloop
  endfacet
  facet normal 0 0 1
    outer loop
      vertex -13.0013 9.31677 55
      vertex -20.2254 14.6946 55
      vertex -14.5692 6.60104 55
    endloop
  endfacet
  facet normal -0 0 1
    outer loop
      vertex -22.8386 10.1684 55
      vertex -14.5692 6.60104 55
      vertex -20.2254 14.6946 55
    endloop
  endfacet
  facet normal -0 0 1
    outer loop
      vertex -24.4537 5.19779 55
      vertex -15.6233 3.42769 55
      vertex -22.8386 10.1684 55
    endloop
  endfacet
  facet normal 0 0 1
    outer loop
      vertex -14.6542 6.41006 55
      vertex -22.8386 10.1684 55
      vertex -15.6233 3.42769 55
    endloop
  endfacet
  facet normal 0 0 1
    outer loop
      vertex -14.5692 6.60104 55
      vertex -22.8386 10.1684 55
      vertex -14.6542 6.41006 55
    endloop
  endfacet
  facet normal 0 0 1
    outer loop
      vertex 24.4537 -5.19779 55
      vertex 15.6233 -3.42769 55
      vertex 22.8386 -10.1684 55
    endloop
  endfacet
  facet normal -0 0 1
    outer loop
      vertex 14.6542 -6.41006 55
      vertex 22.8386 -10.1684 55
      vertex 15.6233 -3.42769 55
    endloop
  endfacet
  facet normal -0 0 1
    outer loop
      vertex 14.5692 -6.60104 55
      vertex 22.8386 -10.1684 55
      vertex 14.6542 -6.41006 55
    endloop
  endfacet
  facet normal 0 0 1
    outer loop
      vertex 22.8386 -10.1684 55
      vertex 14.5692 -6.60104 55
      vertex 20.2254 -14.6946 55
    endloop
  endfacet
  facet normal -0 0 1
    outer loop
      vertex 13.0013 -9.31677 55
      vertex 20.2254 -14.6946 55
      vertex 14.5692 -6.60104 55
    endloop
  endfacet
  facet normal -0 0 1
    outer loop
      vertex 12.8784 -9.4859 55
      vertex 20.2254 -14.6946 55
      vertex 13.0013 -9.31677 55
    endloop
  endfacet
  facet normal 0 0 1
    outer loop
      vertex 20.2254 -14.6946 55
      vertex 12.8784 -9.4859 55
      vertex 16.7283 -18.5786 55
    endloop
  endfacet
  facet normal -0 0 1
    outer loop
      vertex 10.7801 -11.8163 55
      vertex 16.7283 -18.5786 55
      vertex 12.8784 -9.4859 55
    endloop
  endfacet
  facet normal -0 0 1
    outer loop
      vertex 10.6247 -11.9562 55
      vertex 16.7283 -18.5786 55
      vertex 10.7801 -11.8163 55
    endloop
  endfacet
  facet normal 0 0 1
    outer loop
      vertex 16.7283 -18.5786 55
      vertex 10.6247 -11.9562 55
      vertex 12.5 -21.6506 55
    endloop
  endfacet
  facet normal -0 0 1
    outer loop
      vertex 8.08778 -13.7994 55
      vertex 12.5 -21.6506 55
      vertex 10.6247 -11.9562 55
    endloop
  endfacet
  facet normal -0 0 1
    outer loop
      vertex 7.90674 -13.9039 55
      vertex 12.5 -21.6506 55
      vertex 8.08778 -13.7994 55
    endloop
  endfacet
  facet normal 0 0 1
    outer loop
      vertex 7.90674 -13.9039 55
      vertex 7.72542 -23.7764 55
      vertex 12.5 -21.6506 55
    endloop
  endfacet
  facet normal -0 0 1
    outer loop
      vertex 5.04199 -15.1794 55
      vertex 7.72542 -23.7764 55
      vertex 7.90674 -13.9039 55
    endloop
  endfacet
  facet normal -0 0 1
    outer loop
      vertex 4.84317 -15.244 55
      vertex 7.72542 -23.7764 55
      vertex 5.04199 -15.1794 55
    endloop
  endfacet
  facet normal 0 0 1
    outer loop
      vertex 4.84317 -15.244 55
      vertex 2.61321 -24.863 55
      vertex 7.72542 -23.7764 55
    endloop
  endfacet
  facet normal -0 0 1
    outer loop
      vertex 1.77583 -15.896 55
      vertex 2.61321 -24.863 55
      vertex 4.84317 -15.244 55
    endloop
  endfacet
  facet normal -0 0 1
    outer loop
      vertex 1.56792 -15.9178 55
      vertex 2.61321 -24.863 55
      vertex 1.77583 -15.896 55
    endloop
  endfacet
  facet normal -0 0 1
    outer loop
      vertex -1.56792 -15.9178 55
      vertex 2.61321 -24.863 55
      vertex 1.56792 -15.9178 55
    endloop
  endfacet
  facet normal 0 0 1
    outer loop
      vertex -2.61321 -24.863 55
      vertex -1.56792 -15.9178 55
      vertex -1.77583 -15.896 55
    endloop
  endfacet
  facet normal 0 0 1
    outer loop
      vertex -1.56792 -15.9178 55
      vertex -2.61321 -24.863 55
      vertex 2.61321 -24.863 55
    endloop
  endfacet
  facet normal 0 0 1
    outer loop
      vertex -4.84317 -15.244 55
      vertex -2.61321 -24.863 55
      vertex -1.77583 -15.896 55
    endloop
  endfacet
  facet normal 0 0 1
    outer loop
      vertex -7.72542 -23.7764 55
      vertex -4.84317 -15.244 55
      vertex -5.04199 -15.1794 55
    endloop
  endfacet
  facet normal 0 0 1
    outer loop
      vertex -4.84317 -15.244 55
      vertex -7.72542 -23.7764 55
      vertex -2.61321 -24.863 55
    endloop
  endfacet
  facet normal 0 0 1
    outer loop
      vertex -7.90674 -13.9039 55
      vertex -7.72542 -23.7764 55
      vertex -5.04199 -15.1794 55
    endloop
  endfacet
  facet normal 0 0 1
    outer loop
      vertex -12.5 -21.6506 55
      vertex -7.90674 -13.9039 55
      vertex -8.08778 -13.7994 55
    endloop
  endfacet
  facet normal 0 0 1
    outer loop
      vertex -12.5 -21.6506 55
      vertex -8.08778 -13.7994 55
      vertex -10.6247 -11.9562 55
    endloop
  endfacet
  facet normal 0 0 1
    outer loop
      vertex -16.7283 -18.5786 55
      vertex -10.6247 -11.9562 55
      vertex -10.7801 -11.8163 55
    endloop
  endfacet
  facet normal 0 0 1
    outer loop
      vertex -7.90674 -13.9039 55
      vertex -12.5 -21.6506 55
      vertex -7.72542 -23.7764 55
    endloop
  endfacet
  facet normal 0 0 1
    outer loop
      vertex -16.7283 -18.5786 55
      vertex -10.7801 -11.8163 55
      vertex -12.8784 -9.4859 55
    endloop
  endfacet
  facet normal 0 0 1
    outer loop
      vertex -20.2254 -14.6946 55
      vertex -12.8784 -9.4859 55
      vertex -13.0013 -9.31677 55
    endloop
  endfacet
  facet normal 0 0 1
    outer loop
      vertex -20.2254 -14.6946 55
      vertex -13.0013 -9.31677 55
      vertex -14.5692 -6.60104 55
    endloop
  endfacet
  facet normal 0 0 1
    outer loop
      vertex -22.8386 -10.1684 55
      vertex -14.5692 -6.60104 55
      vertex -14.6542 -6.41006 55
    endloop
  endfacet
  facet normal 0 0 1
    outer loop
      vertex -22.8386 -10.1684 55
      vertex -14.6542 -6.41006 55
      vertex -15.6233 -3.42769 55
    endloop
  endfacet
  facet normal 0 0 1
    outer loop
      vertex -24.4537 -5.19779 55
      vertex -15.6233 -3.42769 55
      vertex -15.6667 -3.22319 55
    endloop
  endfacet
  facet normal 0 0 1
    outer loop
      vertex -10.6247 -11.9562 55
      vertex -16.7283 -18.5786 55
      vertex -12.5 -21.6506 55
    endloop
  endfacet
  facet normal 0 0 1
    outer loop
      vertex -24.4537 -5.19779 55
      vertex -15.6667 -3.22319 55
      vertex -15.9945 -0.104523 55
    endloop
  endfacet
  facet normal 0 0 1
    outer loop
      vertex -15.6233 3.42769 55
      vertex -24.4537 5.19779 55
      vertex -15.6667 3.22319 55
    endloop
  endfacet
  facet normal 0 0 1
    outer loop
      vertex -15.6667 3.22319 55
      vertex -24.4537 5.19779 55
      vertex -15.9945 0.104523 55
    endloop
  endfacet
  facet normal 0 0 1
    outer loop
      vertex -12.8784 -9.4859 55
      vertex -20.2254 -14.6946 55
      vertex -16.7283 -18.5786 55
    endloop
  endfacet
  facet normal 0 0 1
    outer loop
      vertex -25 0 55
      vertex -15.9945 0.104523 55
      vertex -24.4537 5.19779 55
    endloop
  endfacet
  facet normal 0 0 1
    outer loop
      vertex -14.5692 -6.60104 55
      vertex -22.8386 -10.1684 55
      vertex -20.2254 -14.6946 55
    endloop
  endfacet
  facet normal 0 0 1
    outer loop
      vertex -15.9945 0.104523 55
      vertex -25 0 55
      vertex -15.9945 -0.104523 55
    endloop
  endfacet
  facet normal 0 0 1
    outer loop
      vertex -15.6233 -3.42769 55
      vertex -24.4537 -5.19779 55
      vertex -22.8386 -10.1684 55
    endloop
  endfacet
  facet normal 0 0 1
    outer loop
      vertex -15.9945 -0.104523 55
      vertex -25 0 55
      vertex -24.4537 -5.19779 55
    endloop
  endfacet
  facet normal 0 -1 0
    outer loop
      vertex -1.56792 -15.9178 55
      vertex 1.56792 -15.9178 70
      vertex -1.56792 -15.9178 70
    endloop
  endfacet
  facet normal 0 -1 -0
    outer loop
      vertex 1.56792 -15.9178 70
      vertex -1.56792 -15.9178 55
      vertex 1.56792 -15.9178 55
    endloop
  endfacet
  facet normal 0.309015 -0.951057 0
    outer loop
      vertex 4.84317 -15.244 55
      vertex 5.04199 -15.1794 70
      vertex 4.84317 -15.244 70
    endloop
  endfacet
  facet normal 0.309015 -0.951057 0
    outer loop
      vertex 5.04199 -15.1794 70
      vertex 4.84317 -15.244 55
      vertex 5.04199 -15.1794 55
    endloop
  endfacet
  facet normal 0.994521 0.104533 0
    outer loop
      vertex 15.9945 0.104523 70
      vertex 15.6667 3.22319 55
      vertex 15.6667 3.22319 70
    endloop
  endfacet
  facet normal 0.994521 0.104533 0
    outer loop
      vertex 15.6667 3.22319 55
      vertex 15.9945 0.104523 70
      vertex 15.9945 0.104523 55
    endloop
  endfacet
  facet normal 0.207917 -0.978147 0
    outer loop
      vertex 1.77583 -15.896 55
      vertex 4.84317 -15.244 70
      vertex 1.77583 -15.896 70
    endloop
  endfacet
  facet normal 0.207917 -0.978147 0
    outer loop
      vertex 4.84317 -15.244 70
      vertex 1.77583 -15.896 55
      vertex 4.84317 -15.244 55
    endloop
  endfacet
  facet normal -0.104281 -0.994548 0
    outer loop
      vertex -1.77583 -15.896 55
      vertex -1.56792 -15.9178 70
      vertex -1.77583 -15.896 70
    endloop
  endfacet
  facet normal -0.104281 -0.994548 -0
    outer loop
      vertex -1.56792 -15.9178 70
      vertex -1.77583 -15.896 55
      vertex -1.56792 -15.9178 55
    endloop
  endfacet
  facet normal -0.499916 0.866074 0
    outer loop
      vertex -7.90674 13.9039 55
      vertex -8.08778 13.7994 70
      vertex -7.90674 13.9039 70
    endloop
  endfacet
  facet normal -0.499916 0.866074 0
    outer loop
      vertex -8.08778 13.7994 70
      vertex -7.90674 13.9039 55
      vertex -8.08778 13.7994 55
    endloop
  endfacet
  facet normal 0.913598 0.406618 0
    outer loop
      vertex 14.6542 6.41006 70
      vertex 14.5692 6.60104 55
      vertex 14.5692 6.60104 70
    endloop
  endfacet
  facet normal 0.913598 0.406618 0
    outer loop
      vertex 14.5692 6.60104 55
      vertex 14.6542 6.41006 70
      vertex 14.6542 6.41006 55
    endloop
  endfacet
  facet normal -0.207917 0.978147 0
    outer loop
      vertex -1.77583 15.896 55
      vertex -4.84317 15.244 70
      vertex -1.77583 15.896 70
    endloop
  endfacet
  facet normal -0.207917 0.978147 0
    outer loop
      vertex -4.84317 15.244 70
      vertex -1.77583 15.896 55
      vertex -4.84317 15.244 55
    endloop
  endfacet
  facet normal 0.499916 -0.866074 0
    outer loop
      vertex 7.90674 -13.9039 55
      vertex 8.08778 -13.7994 70
      vertex 7.90674 -13.9039 70
    endloop
  endfacet
  facet normal 0.499916 -0.866074 0
    outer loop
      vertex 8.08778 -13.7994 70
      vertex 7.90674 -13.9039 55
      vertex 8.08778 -13.7994 55
    endloop
  endfacet
  facet normal 0.913598 -0.406618 0
    outer loop
      vertex 14.5692 -6.60104 70
      vertex 14.6542 -6.41006 55
      vertex 14.6542 -6.41006 70
    endloop
  endfacet
  facet normal 0.913598 -0.406618 0
    outer loop
      vertex 14.6542 -6.41006 55
      vertex 14.5692 -6.60104 70
      vertex 14.5692 -6.60104 55
    endloop
  endfacet
  facet normal -0.978214 -0.207601 0
    outer loop
      vertex -15.6233 -3.42769 55
      vertex -15.6667 -3.22319 70
      vertex -15.6667 -3.22319 55
    endloop
  endfacet
  facet normal -0.978214 -0.207601 0
    outer loop
      vertex -15.6667 -3.22319 70
      vertex -15.6233 -3.42769 55
      vertex -15.6233 -3.42769 70
    endloop
  endfacet
  facet normal -0.587789 -0.809014 0
    outer loop
      vertex -10.6247 -11.9562 55
      vertex -8.08778 -13.7994 70
      vertex -10.6247 -11.9562 70
    endloop
  endfacet
  facet normal -0.587789 -0.809014 -0
    outer loop
      vertex -8.08778 -13.7994 70
      vertex -10.6247 -11.9562 55
      vertex -8.08778 -13.7994 55
    endloop
  endfacet
  facet normal 0.95105 -0.309037 0
    outer loop
      vertex 14.6542 -6.41006 70
      vertex 15.6233 -3.42769 55
      vertex 15.6233 -3.42769 70
    endloop
  endfacet
  facet normal 0.95105 -0.309037 0
    outer loop
      vertex 15.6233 -3.42769 55
      vertex 14.6542 -6.41006 70
      vertex 14.6542 -6.41006 55
    endloop
  endfacet
  facet normal 0.207917 0.978147 -0
    outer loop
      vertex 4.84317 15.244 55
      vertex 1.77583 15.896 70
      vertex 4.84317 15.244 70
    endloop
  endfacet
  facet normal 0.207917 0.978147 0
    outer loop
      vertex 1.77583 15.896 70
      vertex 4.84317 15.244 55
      vertex 1.77583 15.896 55
    endloop
  endfacet
  facet normal -0.207917 -0.978147 0
    outer loop
      vertex -4.84317 -15.244 55
      vertex -1.77583 -15.896 70
      vertex -4.84317 -15.244 70
    endloop
  endfacet
  facet normal -0.207917 -0.978147 -0
    outer loop
      vertex -1.77583 -15.896 70
      vertex -4.84317 -15.244 55
      vertex -1.77583 -15.896 55
    endloop
  endfacet
  facet normal 0 1 -0
    outer loop
      vertex 1.56792 15.9178 55
      vertex -1.56792 15.9178 70
      vertex 1.56792 15.9178 70
    endloop
  endfacet
  facet normal 0 1 0
    outer loop
      vertex -1.56792 15.9178 70
      vertex 1.56792 15.9178 55
      vertex -1.56792 15.9178 55
    endloop
  endfacet
  facet normal 0.978214 -0.207601 0
    outer loop
      vertex 15.6233 -3.42769 70
      vertex 15.6667 -3.22319 55
      vertex 15.6667 -3.22319 70
    endloop
  endfacet
  facet normal 0.978214 -0.207601 0
    outer loop
      vertex 15.6667 -3.22319 55
      vertex 15.6233 -3.42769 70
      vertex 15.6233 -3.42769 55
    endloop
  endfacet
  facet normal -0.95105 -0.309037 0
    outer loop
      vertex -14.6542 -6.41006 55
      vertex -15.6233 -3.42769 70
      vertex -15.6233 -3.42769 55
    endloop
  endfacet
  facet normal -0.95105 -0.309037 0
    outer loop
      vertex -15.6233 -3.42769 70
      vertex -14.6542 -6.41006 55
      vertex -14.6542 -6.41006 70
    endloop
  endfacet
  facet normal 0.866029 0.499993 0
    outer loop
      vertex 14.5692 6.60104 70
      vertex 13.0013 9.31677 55
      vertex 13.0013 9.31677 70
    endloop
  endfacet
  facet normal 0.866029 0.499993 0
    outer loop
      vertex 13.0013 9.31677 55
      vertex 14.5692 6.60104 70
      vertex 14.5692 6.60104 55
    endloop
  endfacet
  facet normal 1 -0 0
    outer loop
      vertex 15.9945 -0.104523 70
      vertex 15.9945 0.104523 55
      vertex 15.9945 0.104523 70
    endloop
  endfacet
  facet normal 1 0 0
    outer loop
      vertex 15.9945 0.104523 55
      vertex 15.9945 -0.104523 70
      vertex 15.9945 -0.104523 55
    endloop
  endfacet
  facet normal 0.866029 -0.499993 0
    outer loop
      vertex 13.0013 -9.31677 70
      vertex 14.5692 -6.60104 55
      vertex 14.5692 -6.60104 70
    endloop
  endfacet
  facet normal 0.866029 -0.499993 0
    outer loop
      vertex 14.5692 -6.60104 55
      vertex 13.0013 -9.31677 70
      vertex 13.0013 -9.31677 55
    endloop
  endfacet
  facet normal 0 0 1
    outer loop
      vertex 15.6667 3.22319 70
      vertex 15.9945 -0.104523 70
      vertex 15.9945 0.104523 70
    endloop
  endfacet
  facet normal 0 0 1
    outer loop
      vertex 15.6667 3.22319 70
      vertex 15.6667 -3.22319 70
      vertex 15.9945 -0.104523 70
    endloop
  endfacet
  facet normal 0 0 1
    outer loop
      vertex 15.6233 3.42769 70
      vertex 15.6667 -3.22319 70
      vertex 15.6667 3.22319 70
    endloop
  endfacet
  facet normal 0 0 1
    outer loop
      vertex 15.6233 3.42769 70
      vertex 15.6233 -3.42769 70
      vertex 15.6667 -3.22319 70
    endloop
  endfacet
  facet normal 0 0 1
    outer loop
      vertex 14.6542 6.41006 70
      vertex 15.6233 -3.42769 70
      vertex 15.6233 3.42769 70
    endloop
  endfacet
  facet normal 0 0 1
    outer loop
      vertex 14.6542 6.41006 70
      vertex 14.6542 -6.41006 70
      vertex 15.6233 -3.42769 70
    endloop
  endfacet
  facet normal 0 0 1
    outer loop
      vertex 14.5692 6.60104 70
      vertex 14.6542 -6.41006 70
      vertex 14.6542 6.41006 70
    endloop
  endfacet
  facet normal 0 0 1
    outer loop
      vertex 14.5692 6.60104 70
      vertex 14.5692 -6.60104 70
      vertex 14.6542 -6.41006 70
    endloop
  endfacet
  facet normal 0 0 1
    outer loop
      vertex 13.0013 9.31677 70
      vertex 14.5692 -6.60104 70
      vertex 14.5692 6.60104 70
    endloop
  endfacet
  facet normal 0 0 1
    outer loop
      vertex 13.0013 9.31677 70
      vertex 13.0013 -9.31677 70
      vertex 14.5692 -6.60104 70
    endloop
  endfacet
  facet normal 0 0 1
    outer loop
      vertex 12.8784 9.4859 70
      vertex 13.0013 -9.31677 70
      vertex 13.0013 9.31677 70
    endloop
  endfacet
  facet normal 0 0 1
    outer loop
      vertex 12.8784 9.4859 70
      vertex 12.8784 -9.4859 70
      vertex 13.0013 -9.31677 70
    endloop
  endfacet
  facet normal 0 0 1
    outer loop
      vertex 10.7801 11.8163 70
      vertex 12.8784 -9.4859 70
      vertex 12.8784 9.4859 70
    endloop
  endfacet
  facet normal 0 0 1
    outer loop
      vertex 10.7801 11.8163 70
      vertex 10.7801 -11.8163 70
      vertex 12.8784 -9.4859 70
    endloop
  endfacet
  facet normal 0 0 1
    outer loop
      vertex 10.6247 11.9562 70
      vertex 10.7801 -11.8163 70
      vertex 10.7801 11.8163 70
    endloop
  endfacet
  facet normal 0 0 1
    outer loop
      vertex 10.6247 11.9562 70
      vertex 10.6247 -11.9562 70
      vertex 10.7801 -11.8163 70
    endloop
  endfacet
  facet normal 0 0 1
    outer loop
      vertex 8.08778 13.7994 70
      vertex 10.6247 -11.9562 70
      vertex 10.6247 11.9562 70
    endloop
  endfacet
  facet normal 0 0 1
    outer loop
      vertex 8.08778 13.7994 70
      vertex 8.08778 -13.7994 70
      vertex 10.6247 -11.9562 70
    endloop
  endfacet
  facet normal 0 0 1
    outer loop
      vertex 7.90674 13.9039 70
      vertex 8.08778 -13.7994 70
      vertex 8.08778 13.7994 70
    endloop
  endfacet
  facet normal 0 0 1
    outer loop
      vertex 7.90674 13.9039 70
      vertex 7.90674 -13.9039 70
      vertex 8.08778 -13.7994 70
    endloop
  endfacet
  facet normal 0 0 1
    outer loop
      vertex 5.04199 15.1794 70
      vertex 7.90674 -13.9039 70
      vertex 7.90674 13.9039 70
    endloop
  endfacet
  facet normal 0 0 1
    outer loop
      vertex 5.04199 15.1794 70
      vertex 5.04199 -15.1794 70
      vertex 7.90674 -13.9039 70
    endloop
  endfacet
  facet normal 0 0 1
    outer loop
      vertex 4.84317 15.244 70
      vertex 5.04199 -15.1794 70
      vertex 5.04199 15.1794 70
    endloop
  endfacet
  facet normal 0 0 1
    outer loop
      vertex 4.84317 15.244 70
      vertex 4.84317 -15.244 70
      vertex 5.04199 -15.1794 70
    endloop
  endfacet
  facet normal 0 0 1
    outer loop
      vertex 1.77583 15.896 70
      vertex 4.84317 -15.244 70
      vertex 4.84317 15.244 70
    endloop
  endfacet
  facet normal 0 0 1
    outer loop
      vertex 1.77583 15.896 70
      vertex 1.77583 -15.896 70
      vertex 4.84317 -15.244 70
    endloop
  endfacet
  facet normal 0 0 1
    outer loop
      vertex 1.56792 15.9178 70
      vertex 1.77583 -15.896 70
      vertex 1.77583 15.896 70
    endloop
  endfacet
  facet normal 0 0 1
    outer loop
      vertex 1.56792 15.9178 70
      vertex 1.56792 -15.9178 70
      vertex 1.77583 -15.896 70
    endloop
  endfacet
  facet normal -0 0 1
    outer loop
      vertex -1.56792 15.9178 70
      vertex 1.56792 -15.9178 70
      vertex 1.56792 15.9178 70
    endloop
  endfacet
  facet normal 0 0 1
    outer loop
      vertex -1.56792 15.9178 70
      vertex -1.56792 -15.9178 70
      vertex 1.56792 -15.9178 70
    endloop
  endfacet
  facet normal -0 0 1
    outer loop
      vertex -1.77583 15.896 70
      vertex -1.56792 -15.9178 70
      vertex -1.56792 15.9178 70
    endloop
  endfacet
  facet normal 0 0 1
    outer loop
      vertex -1.77583 15.896 70
      vertex -1.77583 -15.896 70
      vertex -1.56792 -15.9178 70
    endloop
  endfacet
  facet normal -0 0 1
    outer loop
      vertex -4.84317 15.244 70
      vertex -1.77583 -15.896 70
      vertex -1.77583 15.896 70
    endloop
  endfacet
  facet normal 0 0 1
    outer loop
      vertex -4.84317 15.244 70
      vertex -4.84317 -15.244 70
      vertex -1.77583 -15.896 70
    endloop
  endfacet
  facet normal -0 0 1
    outer loop
      vertex -5.04199 15.1794 70
      vertex -4.84317 -15.244 70
      vertex -4.84317 15.244 70
    endloop
  endfacet
  facet normal 0 0 1
    outer loop
      vertex -5.04199 15.1794 70
      vertex -5.04199 -15.1794 70
      vertex -4.84317 -15.244 70
    endloop
  endfacet
  facet normal -0 0 1
    outer loop
      vertex -7.90674 13.9039 70
      vertex -5.04199 -15.1794 70
      vertex -5.04199 15.1794 70
    endloop
  endfacet
  facet normal 0 0 1
    outer loop
      vertex -7.90674 13.9039 70
      vertex -7.90674 -13.9039 70
      vertex -5.04199 -15.1794 70
    endloop
  endfacet
  facet normal -0 0 1
    outer loop
      vertex -8.08778 13.7994 70
      vertex -7.90674 -13.9039 70
      vertex -7.90674 13.9039 70
    endloop
  endfacet
  facet normal 0 0 1
    outer loop
      vertex -8.08778 13.7994 70
      vertex -8.08778 -13.7994 70
      vertex -7.90674 -13.9039 70
    endloop
  endfacet
  facet normal -0 0 1
    outer loop
      vertex -10.6247 11.9562 70
      vertex -8.08778 -13.7994 70
      vertex -8.08778 13.7994 70
    endloop
  endfacet
  facet normal 0 0 1
    outer loop
      vertex -10.6247 11.9562 70
      vertex -10.6247 -11.9562 70
      vertex -8.08778 -13.7994 70
    endloop
  endfacet
  facet normal -0 0 1
    outer loop
      vertex -10.7801 11.8163 70
      vertex -10.6247 -11.9562 70
      vertex -10.6247 11.9562 70
    endloop
  endfacet
  facet normal 0 0 1
    outer loop
      vertex -10.7801 11.8163 70
      vertex -10.7801 -11.8163 70
      vertex -10.6247 -11.9562 70
    endloop
  endfacet
  facet normal -0 0 1
    outer loop
      vertex -12.8784 9.4859 70
      vertex -10.7801 -11.8163 70
      vertex -10.7801 11.8163 70
    endloop
  endfacet
  facet normal 0 0 1
    outer loop
      vertex -12.8784 9.4859 70
      vertex -12.8784 -9.4859 70
      vertex -10.7801 -11.8163 70
    endloop
  endfacet
  facet normal -0 0 1
    outer loop
      vertex -13.0013 9.31677 70
      vertex -12.8784 -9.4859 70
      vertex -12.8784 9.4859 70
    endloop
  endfacet
  facet normal 0 0 1
    outer loop
      vertex -13.0013 9.31677 70
      vertex -13.0013 -9.31677 70
      vertex -12.8784 -9.4859 70
    endloop
  endfacet
  facet normal -0 0 1
    outer loop
      vertex -14.5692 6.60104 70
      vertex -13.0013 -9.31677 70
      vertex -13.0013 9.31677 70
    endloop
  endfacet
  facet normal 0 0 1
    outer loop
      vertex -14.5692 6.60104 70
      vertex -14.5692 -6.60104 70
      vertex -13.0013 -9.31677 70
    endloop
  endfacet
  facet normal -0 0 1
    outer loop
      vertex -14.6542 6.41006 70
      vertex -14.5692 -6.60104 70
      vertex -14.5692 6.60104 70
    endloop
  endfacet
  facet normal 0 0 1
    outer loop
      vertex -14.6542 6.41006 70
      vertex -14.6542 -6.41006 70
      vertex -14.5692 -6.60104 70
    endloop
  endfacet
  facet normal -0 0 1
    outer loop
      vertex -15.6233 3.42769 70
      vertex -14.6542 -6.41006 70
      vertex -14.6542 6.41006 70
    endloop
  endfacet
  facet normal 0 0 1
    outer loop
      vertex -15.6233 3.42769 70
      vertex -15.6233 -3.42769 70
      vertex -14.6542 -6.41006 70
    endloop
  endfacet
  facet normal -0 0 1
    outer loop
      vertex -15.6667 3.22319 70
      vertex -15.6233 -3.42769 70
      vertex -15.6233 3.42769 70
    endloop
  endfacet
  facet normal 0 0 1
    outer loop
      vertex -15.6667 3.22319 70
      vertex -15.6667 -3.22319 70
      vertex -15.6233 -3.42769 70
    endloop
  endfacet
  facet normal -0 0 1
    outer loop
      vertex -15.9945 0.104523 70
      vertex -15.6667 -3.22319 70
      vertex -15.6667 3.22319 70
    endloop
  endfacet
  facet normal 0 0 1
    outer loop
      vertex -15.6667 -3.22319 70
      vertex -15.9945 0.104523 70
      vertex -15.9945 -0.104523 70
    endloop
  endfacet
  facet normal 0.104281 -0.994548 0
    outer loop
      vertex 1.56792 -15.9178 55
      vertex 1.77583 -15.896 70
      vertex 1.56792 -15.9178 70
    endloop
  endfacet
  facet normal 0.104281 -0.994548 0
    outer loop
      vertex 1.77583 -15.896 70
      vertex 1.56792 -15.9178 55
      vertex 1.77583 -15.896 55
    endloop
  endfacet
  facet normal -0.866029 0.499993 0
    outer loop
      vertex -14.5692 6.60104 55
      vertex -13.0013 9.31677 70
      vertex -13.0013 9.31677 55
    endloop
  endfacet
  facet normal -0.866029 0.499993 0
    outer loop
      vertex -13.0013 9.31677 70
      vertex -14.5692 6.60104 55
      vertex -14.5692 6.60104 70
    endloop
  endfacet
  facet normal -0.406745 0.913542 0
    outer loop
      vertex -5.04199 15.1794 55
      vertex -7.90674 13.9039 70
      vertex -5.04199 15.1794 70
    endloop
  endfacet
  facet normal -0.406745 0.913542 0
    outer loop
      vertex -7.90674 13.9039 70
      vertex -5.04199 15.1794 55
      vertex -7.90674 13.9039 55
    endloop
  endfacet
  facet normal -0.994521 -0.104533 0
    outer loop
      vertex -15.6667 -3.22319 55
      vertex -15.9945 -0.104523 70
      vertex -15.9945 -0.104523 55
    endloop
  endfacet
  facet normal -0.994521 -0.104533 0
    outer loop
      vertex -15.9945 -0.104523 70
      vertex -15.6667 -3.22319 55
      vertex -15.6667 -3.22319 70
    endloop
  endfacet
  facet normal 0.808972 0.587847 0
    outer loop
      vertex 13.0013 9.31677 70
      vertex 12.8784 9.4859 55
      vertex 12.8784 9.4859 70
    endloop
  endfacet
  facet normal 0.808972 0.587847 0
    outer loop
      vertex 12.8784 9.4859 55
      vertex 13.0013 9.31677 70
      vertex 13.0013 9.31677 55
    endloop
  endfacet
  facet normal -0.66907 0.743199 0
    outer loop
      vertex -10.6247 11.9562 55
      vertex -10.7801 11.8163 70
      vertex -10.6247 11.9562 70
    endloop
  endfacet
  facet normal -0.66907 0.743199 0
    outer loop
      vertex -10.7801 11.8163 70
      vertex -10.6247 11.9562 55
      vertex -10.7801 11.8163 55
    endloop
  endfacet
  facet normal -0.95105 0.309037 0
    outer loop
      vertex -15.6233 3.42769 55
      vertex -14.6542 6.41006 70
      vertex -14.6542 6.41006 55
    endloop
  endfacet
  facet normal -0.95105 0.309037 0
    outer loop
      vertex -14.6542 6.41006 70
      vertex -15.6233 3.42769 55
      vertex -15.6233 3.42769 70
    endloop
  endfacet
  facet normal -0.808972 -0.587847 0
    outer loop
      vertex -12.8784 -9.4859 55
      vertex -13.0013 -9.31677 70
      vertex -13.0013 -9.31677 55
    endloop
  endfacet
  facet normal -0.808972 -0.587847 0
    outer loop
      vertex -13.0013 -9.31677 70
      vertex -12.8784 -9.4859 55
      vertex -12.8784 -9.4859 70
    endloop
  endfacet
  facet normal 0.66907 -0.743199 0
    outer loop
      vertex 10.6247 -11.9562 55
      vertex 10.7801 -11.8163 70
      vertex 10.6247 -11.9562 70
    endloop
  endfacet
  facet normal 0.66907 -0.743199 0
    outer loop
      vertex 10.7801 -11.8163 70
      vertex 10.6247 -11.9562 55
      vertex 10.7801 -11.8163 55
    endloop
  endfacet
  facet normal -0.587789 0.809014 0
    outer loop
      vertex -8.08778 13.7994 55
      vertex -10.6247 11.9562 70
      vertex -8.08778 13.7994 70
    endloop
  endfacet
  facet normal -0.587789 0.809014 0
    outer loop
      vertex -10.6247 11.9562 70
      vertex -8.08778 13.7994 55
      vertex -10.6247 11.9562 55
    endloop
  endfacet
  facet normal 0.743145 -0.66913 0
    outer loop
      vertex 10.7801 -11.8163 70
      vertex 12.8784 -9.4859 55
      vertex 12.8784 -9.4859 70
    endloop
  endfacet
  facet normal 0.743145 -0.66913 0
    outer loop
      vertex 12.8784 -9.4859 55
      vertex 10.7801 -11.8163 70
      vertex 10.7801 -11.8163 55
    endloop
  endfacet
  facet normal 0.499916 0.866074 -0
    outer loop
      vertex 8.08778 13.7994 55
      vertex 7.90674 13.9039 70
      vertex 8.08778 13.7994 70
    endloop
  endfacet
  facet normal 0.499916 0.866074 0
    outer loop
      vertex 7.90674 13.9039 70
      vertex 8.08778 13.7994 55
      vertex 7.90674 13.9039 55
    endloop
  endfacet
  facet normal -0.309015 0.951057 0
    outer loop
      vertex -4.84317 15.244 55
      vertex -5.04199 15.1794 70
      vertex -4.84317 15.244 70
    endloop
  endfacet
  facet normal -0.309015 0.951057 0
    outer loop
      vertex -5.04199 15.1794 70
      vertex -4.84317 15.244 55
      vertex -5.04199 15.1794 55
    endloop
  endfacet
  facet normal -0.406745 -0.913542 0
    outer loop
      vertex -7.90674 -13.9039 55
      vertex -5.04199 -15.1794 70
      vertex -7.90674 -13.9039 70
    endloop
  endfacet
  facet normal -0.406745 -0.913542 -0
    outer loop
      vertex -5.04199 -15.1794 70
      vertex -7.90674 -13.9039 55
      vertex -5.04199 -15.1794 55
    endloop
  endfacet
  facet normal -0.913598 0.406618 0
    outer loop
      vertex -14.6542 6.41006 55
      vertex -14.5692 6.60104 70
      vertex -14.5692 6.60104 55
    endloop
  endfacet
  facet normal -0.913598 0.406618 0
    outer loop
      vertex -14.5692 6.60104 70
      vertex -14.6542 6.41006 55
      vertex -14.6542 6.41006 70
    endloop
  endfacet
  facet normal 0.66907 0.743199 -0
    outer loop
      vertex 10.7801 11.8163 55
      vertex 10.6247 11.9562 70
      vertex 10.7801 11.8163 70
    endloop
  endfacet
  facet normal 0.66907 0.743199 0
    outer loop
      vertex 10.6247 11.9562 70
      vertex 10.7801 11.8163 55
      vertex 10.6247 11.9562 55
    endloop
  endfacet
  facet normal -0.66907 -0.743199 0
    outer loop
      vertex -10.7801 -11.8163 55
      vertex -10.6247 -11.9562 70
      vertex -10.7801 -11.8163 70
    endloop
  endfacet
  facet normal -0.66907 -0.743199 -0
    outer loop
      vertex -10.6247 -11.9562 70
      vertex -10.7801 -11.8163 55
      vertex -10.6247 -11.9562 55
    endloop
  endfacet
  facet normal 0.309015 0.951057 -0
    outer loop
      vertex 5.04199 15.1794 55
      vertex 4.84317 15.244 70
      vertex 5.04199 15.1794 70
    endloop
  endfacet
  facet normal 0.309015 0.951057 0
    outer loop
      vertex 4.84317 15.244 70
      vertex 5.04199 15.1794 55
      vertex 4.84317 15.244 55
    endloop
  endfacet
  facet normal 0.104281 0.994548 -0
    outer loop
      vertex 1.77583 15.896 55
      vertex 1.56792 15.9178 70
      vertex 1.77583 15.896 70
    endloop
  endfacet
  facet normal 0.104281 0.994548 0
    outer loop
      vertex 1.56792 15.9178 70
      vertex 1.77583 15.896 55
      vertex 1.56792 15.9178 55
    endloop
  endfacet
  facet normal -0.499916 -0.866074 0
    outer loop
      vertex -8.08778 -13.7994 55
      vertex -7.90674 -13.9039 70
      vertex -8.08778 -13.7994 70
    endloop
  endfacet
  facet normal -0.499916 -0.866074 -0
    outer loop
      vertex -7.90674 -13.9039 70
      vertex -8.08778 -13.7994 55
      vertex -7.90674 -13.9039 55
    endloop
  endfacet
  facet normal 0.978214 0.207601 0
    outer loop
      vertex 15.6667 3.22319 70
      vertex 15.6233 3.42769 55
      vertex 15.6233 3.42769 70
    endloop
  endfacet
  facet normal 0.978214 0.207601 0
    outer loop
      vertex 15.6233 3.42769 55
      vertex 15.6667 3.22319 70
      vertex 15.6667 3.22319 55
    endloop
  endfacet
  facet normal -0.104281 0.994548 0
    outer loop
      vertex -1.56792 15.9178 55
      vertex -1.77583 15.896 70
      vertex -1.56792 15.9178 70
    endloop
  endfacet
  facet normal -0.104281 0.994548 0
    outer loop
      vertex -1.77583 15.896 70
      vertex -1.56792 15.9178 55
      vertex -1.77583 15.896 55
    endloop
  endfacet
  facet normal -0.978214 0.207601 0
    outer loop
      vertex -15.6667 3.22319 55
      vertex -15.6233 3.42769 70
      vertex -15.6233 3.42769 55
    endloop
  endfacet
  facet normal -0.978214 0.207601 0
    outer loop
      vertex -15.6233 3.42769 70
      vertex -15.6667 3.22319 55
      vertex -15.6667 3.22319 70
    endloop
  endfacet
  facet normal -0.913598 -0.406618 0
    outer loop
      vertex -14.5692 -6.60104 55
      vertex -14.6542 -6.41006 70
      vertex -14.6542 -6.41006 55
    endloop
  endfacet
  facet normal -0.913598 -0.406618 0
    outer loop
      vertex -14.6542 -6.41006 70
      vertex -14.5692 -6.60104 55
      vertex -14.5692 -6.60104 70
    endloop
  endfacet
  facet normal -0.866029 -0.499993 0
    outer loop
      vertex -13.0013 -9.31677 55
      vertex -14.5692 -6.60104 70
      vertex -14.5692 -6.60104 55
    endloop
  endfacet
  facet normal -0.866029 -0.499993 0
    outer loop
      vertex -14.5692 -6.60104 70
      vertex -13.0013 -9.31677 55
      vertex -13.0013 -9.31677 70
    endloop
  endfacet
  facet normal 0.994521 -0.104533 0
    outer loop
      vertex 15.6667 -3.22319 70
      vertex 15.9945 -0.104523 55
      vertex 15.9945 -0.104523 70
    endloop
  endfacet
  facet normal 0.994521 -0.104533 0
    outer loop
      vertex 15.9945 -0.104523 55
      vertex 15.6667 -3.22319 70
      vertex 15.6667 -3.22319 55
    endloop
  endfacet
  facet normal -0.994521 0.104533 0
    outer loop
      vertex -15.9945 0.104523 55
      vertex -15.6667 3.22319 70
      vertex -15.6667 3.22319 55
    endloop
  endfacet
  facet normal -0.994521 0.104533 0
    outer loop
      vertex -15.6667 3.22319 70
      vertex -15.9945 0.104523 55
      vertex -15.9945 0.104523 70
    endloop
  endfacet
  facet normal -0.309015 -0.951057 0
    outer loop
      vertex -5.04199 -15.1794 55
      vertex -4.84317 -15.244 70
      vertex -5.04199 -15.1794 70
    endloop
  endfacet
  facet normal -0.309015 -0.951057 -0
    outer loop
      vertex -4.84317 -15.244 70
      vertex -5.04199 -15.1794 55
      vertex -4.84317 -15.244 55
    endloop
  endfacet
  facet normal -0.743145 -0.66913 0
    outer loop
      vertex -10.7801 -11.8163 55
      vertex -12.8784 -9.4859 70
      vertex -12.8784 -9.4859 55
    endloop
  endfacet
  facet normal -0.743145 -0.66913 0
    outer loop
      vertex -12.8784 -9.4859 70
      vertex -10.7801 -11.8163 55
      vertex -10.7801 -11.8163 70
    endloop
  endfacet
  facet normal 0.587789 -0.809014 0
    outer loop
      vertex 8.08778 -13.7994 55
      vertex 10.6247 -11.9562 70
      vertex 8.08778 -13.7994 70
    endloop
  endfacet
  facet normal 0.587789 -0.809014 0
    outer loop
      vertex 10.6247 -11.9562 70
      vertex 8.08778 -13.7994 55
      vertex 10.6247 -11.9562 55
    endloop
  endfacet
  facet normal 0.406745 0.913542 -0
    outer loop
      vertex 7.90674 13.9039 55
      vertex 5.04199 15.1794 70
      vertex 7.90674 13.9039 70
    endloop
  endfacet
  facet normal 0.406745 0.913542 0
    outer loop
      vertex 5.04199 15.1794 70
      vertex 7.90674 13.9039 55
      vertex 5.04199 15.1794 55
    endloop
  endfacet
  facet normal -0.743145 0.66913 0
    outer loop
      vertex -12.8784 9.4859 55
      vertex -10.7801 11.8163 70
      vertex -10.7801 11.8163 55
    endloop
  endfacet
  facet normal -0.743145 0.66913 0
    outer loop
      vertex -10.7801 11.8163 70
      vertex -12.8784 9.4859 55
      vertex -12.8784 9.4859 70
    endloop
  endfacet
  facet normal 0.406745 -0.913542 0
    outer loop
      vertex 5.04199 -15.1794 55
      vertex 7.90674 -13.9039 70
      vertex 5.04199 -15.1794 70
    endloop
  endfacet
  facet normal 0.406745 -0.913542 0
    outer loop
      vertex 7.90674 -13.9039 70
      vertex 5.04199 -15.1794 55
      vertex 7.90674 -13.9039 55
    endloop
  endfacet
  facet normal -1 0 0
    outer loop
      vertex -15.9945 -0.104523 55
      vertex -15.9945 0.104523 70
      vertex -15.9945 0.104523 55
    endloop
  endfacet
  facet normal -1 -0 0
    outer loop
      vertex -15.9945 0.104523 70
      vertex -15.9945 -0.104523 55
      vertex -15.9945 -0.104523 70
    endloop
  endfacet
  facet normal 0.95105 0.309037 0
    outer loop
      vertex 15.6233 3.42769 70
      vertex 14.6542 6.41006 55
      vertex 14.6542 6.41006 70
    endloop
  endfacet
  facet normal 0.95105 0.309037 0
    outer loop
      vertex 14.6542 6.41006 55
      vertex 15.6233 3.42769 70
      vertex 15.6233 3.42769 55
    endloop
  endfacet
  facet normal -0.808972 0.587847 0
    outer loop
      vertex -13.0013 9.31677 55
      vertex -12.8784 9.4859 70
      vertex -12.8784 9.4859 55
    endloop
  endfacet
  facet normal -0.808972 0.587847 0
    outer loop
      vertex -12.8784 9.4859 70
      vertex -13.0013 9.31677 55
      vertex -13.0013 9.31677 70
    endloop
  endfacet
  facet normal 0.808972 -0.587847 0
    outer loop
      vertex 12.8784 -9.4859 70
      vertex 13.0013 -9.31677 55
      vertex 13.0013 -9.31677 70
    endloop
  endfacet
  facet normal 0.808972 -0.587847 0
    outer loop
      vertex 13.0013 -9.31677 55
      vertex 12.8784 -9.4859 70
      vertex 12.8784 -9.4859 55
    endloop
  endfacet
  facet normal 0.587789 0.809014 -0
    outer loop
      vertex 10.6247 11.9562 55
      vertex 8.08778 13.7994 70
      vertex 10.6247 11.9562 70
    endloop
  endfacet
  facet normal 0.587789 0.809014 0
    outer loop
      vertex 8.08778 13.7994 70
      vertex 10.6247 11.9562 55
      vertex 8.08778 13.7994 55
    endloop
  endfacet
  facet normal 0.743145 0.66913 0
    outer loop
      vertex 12.8784 9.4859 70
      vertex 10.7801 11.8163 55
      vertex 10.7801 11.8163 70
    endloop
  endfacet
  facet normal 0.743145 0.66913 0
    outer loop
      vertex 10.7801 11.8163 55
      vertex 12.8784 9.4859 70
      vertex 12.8784 9.4859 55
    endloop
  endfacet
  facet normal -0.40674 -0.913544 0
    outer loop
      vertex -12.5 -21.6506 -45
      vertex -7.72542 -23.7764 55
      vertex -12.5 -21.6506 55
    endloop
  endfacet
  facet normal -0.40674 -0.913544 -0
    outer loop
      vertex -7.72542 -23.7764 55
      vertex -12.5 -21.6506 -45
      vertex -7.72542 -23.7764 -45
    endloop
  endfacet
  facet normal -0.951054 -0.309026 0
    outer loop
      vertex -22.8386 -10.1684 -45
      vertex -24.4537 -5.19779 55
      vertex -24.4537 -5.19779 -45
    endloop
  endfacet
  facet normal -0.951054 -0.309026 0
    outer loop
      vertex -24.4537 -5.19779 55
      vertex -22.8386 -10.1684 -45
      vertex -22.8386 -10.1684 55
    endloop
  endfacet
  facet normal 0.951054 0.309026 0
    outer loop
      vertex 24.4537 5.19779 55
      vertex 22.8386 10.1684 -45
      vertex 22.8386 10.1684 55
    endloop
  endfacet
  facet normal 0.951054 0.309026 0
    outer loop
      vertex 22.8386 10.1684 -45
      vertex 24.4537 5.19779 55
      vertex 24.4537 5.19779 -45
    endloop
  endfacet
  facet normal 0.994522 0.104527 0
    outer loop
      vertex 25 0 55
      vertex 24.4537 5.19779 -45
      vertex 24.4537 5.19779 55
    endloop
  endfacet
  facet normal 0.994522 0.104527 0
    outer loop
      vertex 24.4537 5.19779 -45
      vertex 25 0 55
      vertex 25 0 -45
    endloop
  endfacet
  facet normal 0.866026 0.5 0
    outer loop
      vertex 22.8386 10.1684 55
      vertex 20.2254 14.6946 -45
      vertex 20.2254 14.6946 55
    endloop
  endfacet
  facet normal 0.866026 0.5 0
    outer loop
      vertex 20.2254 14.6946 -45
      vertex 22.8386 10.1684 55
      vertex 22.8386 10.1684 -45
    endloop
  endfacet
  facet normal 0.58778 -0.809021 0
    outer loop
      vertex 12.5 -21.6506 -45
      vertex 16.7283 -18.5786 55
      vertex 12.5 -21.6506 55
    endloop
  endfacet
  facet normal 0.58778 -0.809021 0
    outer loop
      vertex 16.7283 -18.5786 55
      vertex 12.5 -21.6506 -45
      vertex 16.7283 -18.5786 -45
    endloop
  endfacet
  facet normal 0.40674 0.913544 -0
    outer loop
      vertex 12.5 21.6506 -45
      vertex 7.72542 23.7764 55
      vertex 12.5 21.6506 55
    endloop
  endfacet
  facet normal 0.40674 0.913544 0
    outer loop
      vertex 7.72542 23.7764 55
      vertex 12.5 21.6506 -45
      vertex 7.72542 23.7764 -45
    endloop
  endfacet
  facet normal 0.994522 -0.104527 0
    outer loop
      vertex 24.4537 -5.19779 55
      vertex 25 0 -45
      vertex 25 0 55
    endloop
  endfacet
  facet normal 0.994522 -0.104527 0
    outer loop
      vertex 25 0 -45
      vertex 24.4537 -5.19779 55
      vertex 24.4537 -5.19779 -45
    endloop
  endfacet
  facet normal 0.743151 0.669123 0
    outer loop
      vertex 20.2254 14.6946 55
      vertex 16.7283 18.5786 -45
      vertex 16.7283 18.5786 55
    endloop
  endfacet
  facet normal 0.743151 0.669123 0
    outer loop
      vertex 16.7283 18.5786 -45
      vertex 20.2254 14.6946 55
      vertex 20.2254 14.6946 -45
    endloop
  endfacet
  facet normal -0.866026 0.5 0
    outer loop
      vertex -22.8386 10.1684 -45
      vertex -20.2254 14.6946 55
      vertex -20.2254 14.6946 -45
    endloop
  endfacet
  facet normal -0.866026 0.5 0
    outer loop
      vertex -20.2254 14.6946 55
      vertex -22.8386 10.1684 -45
      vertex -22.8386 10.1684 55
    endloop
  endfacet
  facet normal 0.743151 -0.669123 0
    outer loop
      vertex 16.7283 -18.5786 55
      vertex 20.2254 -14.6946 -45
      vertex 20.2254 -14.6946 55
    endloop
  endfacet
  facet normal 0.743151 -0.669123 0
    outer loop
      vertex 20.2254 -14.6946 -45
      vertex 16.7283 -18.5786 55
      vertex 16.7283 -18.5786 -45
    endloop
  endfacet
  facet normal -0.743151 0.669123 0
    outer loop
      vertex -20.2254 14.6946 -45
      vertex -16.7283 18.5786 55
      vertex -16.7283 18.5786 -45
    endloop
  endfacet
  facet normal -0.743151 0.669123 0
    outer loop
      vertex -16.7283 18.5786 55
      vertex -20.2254 14.6946 -45
      vertex -20.2254 14.6946 55
    endloop
  endfacet
  facet normal 0.866026 -0.5 0
    outer loop
      vertex 20.2254 -14.6946 55
      vertex 22.8386 -10.1684 -45
      vertex 22.8386 -10.1684 55
    endloop
  endfacet
  facet normal 0.866026 -0.5 0
    outer loop
      vertex 22.8386 -10.1684 -45
      vertex 20.2254 -14.6946 55
      vertex 20.2254 -14.6946 -45
    endloop
  endfacet
  facet normal -0.58778 0.809021 0
    outer loop
      vertex -12.5 21.6506 -45
      vertex -16.7283 18.5786 55
      vertex -12.5 21.6506 55
    endloop
  endfacet
  facet normal -0.58778 0.809021 0
    outer loop
      vertex -16.7283 18.5786 55
      vertex -12.5 21.6506 -45
      vertex -16.7283 18.5786 -45
    endloop
  endfacet
  facet normal 0.951054 -0.309026 0
    outer loop
      vertex 22.8386 -10.1684 55
      vertex 24.4537 -5.19779 -45
      vertex 24.4537 -5.19779 55
    endloop
  endfacet
  facet normal 0.951054 -0.309026 0
    outer loop
      vertex 24.4537 -5.19779 -45
      vertex 22.8386 -10.1684 55
      vertex 22.8386 -10.1684 -45
    endloop
  endfacet
  facet normal 0 1 -0
    outer loop
      vertex 2.61321 24.863 -45
      vertex -2.61321 24.863 55
      vertex 2.61321 24.863 55
    endloop
  endfacet
  facet normal 0 1 0
    outer loop
      vertex -2.61321 24.863 55
      vertex 2.61321 24.863 -45
      vertex -2.61321 24.863 -45
    endloop
  endfacet
  facet normal -0.58778 -0.809021 0
    outer loop
      vertex -16.7283 -18.5786 -45
      vertex -12.5 -21.6506 55
      vertex -16.7283 -18.5786 55
    endloop
  endfacet
  facet normal -0.58778 -0.809021 -0
    outer loop
      vertex -12.5 -21.6506 55
      vertex -16.7283 -18.5786 -45
      vertex -12.5 -21.6506 -45
    endloop
  endfacet
  facet normal -0.866026 -0.5 0
    outer loop
      vertex -20.2254 -14.6946 -45
      vertex -22.8386 -10.1684 55
      vertex -22.8386 -10.1684 -45
    endloop
  endfacet
  facet normal -0.866026 -0.5 0
    outer loop
      vertex -22.8386 -10.1684 55
      vertex -20.2254 -14.6946 -45
      vertex -20.2254 -14.6946 55
    endloop
  endfacet
  facet normal 0 0 -1
    outer loop
      vertex 24.4537 -5.19779 -45
      vertex 24.4537 5.19779 -45
      vertex 25 0 -45
    endloop
  endfacet
  facet normal 0 0 -1
    outer loop
      vertex 22.8386 -10.1684 -45
      vertex 24.4537 5.19779 -45
      vertex 24.4537 -5.19779 -45
    endloop
  endfacet
  facet normal 0 0 -1
    outer loop
      vertex 22.8386 -10.1684 -45
      vertex 22.8386 10.1684 -45
      vertex 24.4537 5.19779 -45
    endloop
  endfacet
  facet normal 0 0 -1
    outer loop
      vertex 20.2254 -14.6946 -45
      vertex 22.8386 10.1684 -45
      vertex 22.8386 -10.1684 -45
    endloop
  endfacet
  facet normal 0 0 -1
    outer loop
      vertex 20.2254 -14.6946 -45
      vertex 20.2254 14.6946 -45
      vertex 22.8386 10.1684 -45
    endloop
  endfacet
  facet normal 0 0 -1
    outer loop
      vertex 16.7283 -18.5786 -45
      vertex 20.2254 14.6946 -45
      vertex 20.2254 -14.6946 -45
    endloop
  endfacet
  facet normal 0 0 -1
    outer loop
      vertex 16.7283 -18.5786 -45
      vertex 16.7283 18.5786 -45
      vertex 20.2254 14.6946 -45
    endloop
  endfacet
  facet normal 0 0 -1
    outer loop
      vertex 12.5 -21.6506 -45
      vertex 16.7283 18.5786 -45
      vertex 16.7283 -18.5786 -45
    endloop
  endfacet
  facet normal 0 0 -1
    outer loop
      vertex 12.5 -21.6506 -45
      vertex 12.5 21.6506 -45
      vertex 16.7283 18.5786 -45
    endloop
  endfacet
  facet normal 0 0 -1
    outer loop
      vertex 7.72542 -23.7764 -45
      vertex 12.5 21.6506 -45
      vertex 12.5 -21.6506 -45
    endloop
  endfacet
  facet normal 0 0 -1
    outer loop
      vertex 7.72542 -23.7764 -45
      vertex 7.72542 23.7764 -45
      vertex 12.5 21.6506 -45
    endloop
  endfacet
  facet normal 0 0 -1
    outer loop
      vertex 2.61321 -24.863 -45
      vertex 7.72542 23.7764 -45
      vertex 7.72542 -23.7764 -45
    endloop
  endfacet
  facet normal 0 0 -1
    outer loop
      vertex 2.61321 -24.863 -45
      vertex 2.61321 24.863 -45
      vertex 7.72542 23.7764 -45
    endloop
  endfacet
  facet normal 0 0 -1
    outer loop
      vertex -2.61321 -24.863 -45
      vertex 2.61321 24.863 -45
      vertex 2.61321 -24.863 -45
    endloop
  endfacet
  facet normal 0 0 -1
    outer loop
      vertex -2.61321 -24.863 -45
      vertex -2.61321 24.863 -45
      vertex 2.61321 24.863 -45
    endloop
  endfacet
  facet normal 0 0 -1
    outer loop
      vertex -7.72542 -23.7764 -45
      vertex -2.61321 24.863 -45
      vertex -2.61321 -24.863 -45
    endloop
  endfacet
  facet normal 0 0 -1
    outer loop
      vertex -7.72542 -23.7764 -45
      vertex -7.72542 23.7764 -45
      vertex -2.61321 24.863 -45
    endloop
  endfacet
  facet normal 0 0 -1
    outer loop
      vertex -12.5 -21.6506 -45
      vertex -7.72542 23.7764 -45
      vertex -7.72542 -23.7764 -45
    endloop
  endfacet
  facet normal 0 0 -1
    outer loop
      vertex -12.5 -21.6506 -45
      vertex -12.5 21.6506 -45
      vertex -7.72542 23.7764 -45
    endloop
  endfacet
  facet normal 0 0 -1
    outer loop
      vertex -16.7283 -18.5786 -45
      vertex -12.5 21.6506 -45
      vertex -12.5 -21.6506 -45
    endloop
  endfacet
  facet normal 0 0 -1
    outer loop
      vertex -16.7283 -18.5786 -45
      vertex -16.7283 18.5786 -45
      vertex -12.5 21.6506 -45
    endloop
  endfacet
  facet normal 0 0 -1
    outer loop
      vertex -20.2254 -14.6946 -45
      vertex -16.7283 18.5786 -45
      vertex -16.7283 -18.5786 -45
    endloop
  endfacet
  facet normal 0 0 -1
    outer loop
      vertex -20.2254 -14.6946 -45
      vertex -20.2254 14.6946 -45
      vertex -16.7283 18.5786 -45
    endloop
  endfacet
  facet normal 0 0 -1
    outer loop
      vertex -22.8386 -10.1684 -45
      vertex -20.2254 14.6946 -45
      vertex -20.2254 -14.6946 -45
    endloop
  endfacet
  facet normal 0 0 -1
    outer loop
      vertex -22.8386 -10.1684 -45
      vertex -22.8386 10.1684 -45
      vertex -20.2254 14.6946 -45
    endloop
  endfacet
  facet normal 0 0 -1
    outer loop
      vertex -24.4537 -5.19779 -45
      vertex -22.8386 10.1684 -45
      vertex -22.8386 -10.1684 -45
    endloop
  endfacet
  facet normal 0 0 -1
    outer loop
      vertex -24.4537 -5.19779 -45
      vertex -24.4537 5.19779 -45
      vertex -22.8386 10.1684 -45
    endloop
  endfacet
  facet normal 0 -0 -1
    outer loop
      vertex -24.4537 5.19779 -45
      vertex -24.4537 -5.19779 -45
      vertex -25 0 -45
    endloop
  endfacet
  facet normal -0.40674 0.913544 0
    outer loop
      vertex -7.72542 23.7764 -45
      vertex -12.5 21.6506 55
      vertex -7.72542 23.7764 55
    endloop
  endfacet
  facet normal -0.40674 0.913544 0
    outer loop
      vertex -12.5 21.6506 55
      vertex -7.72542 23.7764 -45
      vertex -12.5 21.6506 -45
    endloop
  endfacet
  facet normal -0.994522 -0.104527 0
    outer loop
      vertex -24.4537 -5.19779 -45
      vertex -25 0 55
      vertex -25 0 -45
    endloop
  endfacet
  facet normal -0.994522 -0.104527 0
    outer loop
      vertex -25 0 55
      vertex -24.4537 -5.19779 -45
      vertex -24.4537 -5.19779 55
    endloop
  endfacet
  facet normal -0.743151 -0.669123 0
    outer loop
      vertex -16.7283 -18.5786 -45
      vertex -20.2254 -14.6946 55
      vertex -20.2254 -14.6946 -45
    endloop
  endfacet
  facet normal -0.743151 -0.669123 0
    outer loop
      vertex -20.2254 -14.6946 55
      vertex -16.7283 -18.5786 -45
      vertex -16.7283 -18.5786 55
    endloop
  endfacet
  facet normal 0.207906 -0.978149 0
    outer loop
      vertex 2.61321 -24.863 -45
      vertex 7.72542 -23.7764 55
      vertex 2.61321 -24.863 55
    endloop
  endfacet
  facet normal 0.207906 -0.978149 0
    outer loop
      vertex 7.72542 -23.7764 55
      vertex 2.61321 -24.863 -45
      vertex 7.72542 -23.7764 -45
    endloop
  endfacet
  facet normal -0.994522 0.104527 0
    outer loop
      vertex -25 0 -45
      vertex -24.4537 5.19779 55
      vertex -24.4537 5.19779 -45
    endloop
  endfacet
  facet normal -0.994522 0.104527 0
    outer loop
      vertex -24.4537 5.19779 55
      vertex -25 0 -45
      vertex -25 0 55
    endloop
  endfacet
  facet normal 0.207906 0.978149 -0
    outer loop
      vertex 7.72542 23.7764 -45
      vertex 2.61321 24.863 55
      vertex 7.72542 23.7764 55
    endloop
  endfacet
  facet normal 0.207906 0.978149 0
    outer loop
      vertex 2.61321 24.863 55
      vertex 7.72542 23.7764 -45
      vertex 2.61321 24.863 -45
    endloop
  endfacet
  facet normal 0.58778 0.809021 -0
    outer loop
      vertex 16.7283 18.5786 -45
      vertex 12.5 21.6506 55
      vertex 16.7283 18.5786 55
    endloop
  endfacet
  facet normal 0.58778 0.809021 0
    outer loop
      vertex 12.5 21.6506 55
      vertex 16.7283 18.5786 -45
      vertex 12.5 21.6506 -45
    endloop
  endfacet
  facet normal -0.207906 0.978149 0
    outer loop
      vertex -2.61321 24.863 -45
      vertex -7.72542 23.7764 55
      vertex -2.61321 24.863 55
    endloop
  endfacet
  facet normal -0.207906 0.978149 0
    outer loop
      vertex -7.72542 23.7764 55
      vertex -2.61321 24.863 -45
      vertex -7.72542 23.7764 -45
    endloop
  endfacet
  facet normal 0.40674 -0.913544 0
    outer loop
      vertex 7.72542 -23.7764 -45
      vertex 12.5 -21.6506 55
      vertex 7.72542 -23.7764 55
    endloop
  endfacet
  facet normal 0.40674 -0.913544 0
    outer loop
      vertex 12.5 -21.6506 55
      vertex 7.72542 -23.7764 -45
      vertex 12.5 -21.6506 -45
    endloop
  endfacet
  facet normal 0 -1 0
    outer loop
      vertex -2.61321 -24.863 -45
      vertex 2.61321 -24.863 55
      vertex -2.61321 -24.863 55
    endloop
  endfacet
  facet normal 0 -1 -0
    outer loop
      vertex 2.61321 -24.863 55
      vertex -2.61321 -24.863 -45
      vertex 2.61321 -24.863 -45
    endloop
  endfacet
  facet normal -0.207906 -0.978149 0
    outer loop
      vertex -7.72542 -23.7764 -45
      vertex -2.61321 -24.863 55
      vertex -7.72542 -23.7764 55
    endloop
  endfacet
  facet normal -0.207906 -0.978149 -0
    outer loop
      vertex -2.61321 -24.863 55
      vertex -7.72542 -23.7764 -45
      vertex -2.61321 -24.863 -45
    endloop
  endfacet
  facet normal -0.951054 0.309026 0
    outer loop
      vertex -24.4537 5.19779 -45
      vertex -22.8386 10.1684 55
      vertex -22.8386 10.1684 -45
    endloop
  endfacet
  facet normal -0.951054 0.309026 0
    outer loop
      vertex -22.8386 10.1684 55
      vertex -24.4537 5.19779 -45
      vertex -24.4537 5.19779 55
    endloop
  endfacet
endsolid OpenSCAD_Model
