solid OpenSCAD_Model
  facet normal 1 -0 0
    outer loop
      vertex 10.5 -0.5 0.5
      vertex 10.5 0.5 -0.5
      vertex 10.5 0.5 0.5
    endloop
  endfacet
  facet normal 1 0 0
    outer loop
      vertex 10.5 0.5 -0.5
      vertex 10.5 -0.5 0.5
      vertex 10.5 -0.5 -0.5
    endloop
  endfacet
  facet normal -0 0 1
    outer loop
      vertex 9.5 0.5 0.5
      vertex 10.5 -0.5 0.5
      vertex 10.5 0.5 0.5
    endloop
  endfacet
  facet normal 0 0 1
    outer loop
      vertex 10.5 -0.5 0.5
      vertex 9.5 0.5 0.5
      vertex 9.5 -0.5 0.5
    endloop
  endfacet
  facet normal 0 0 -1
    outer loop
      vertex 9.5 -0.5 -0.5
      vertex 10.5 0.5 -0.5
      vertex 10.5 -0.5 -0.5
    endloop
  endfacet
  facet normal -0 0 -1
    outer loop
      vertex 10.5 0.5 -0.5
      vertex 9.5 -0.5 -0.5
      vertex 9.5 0.5 -0.5
    endloop
  endfacet
  facet normal -1 0 0
    outer loop
      vertex 9.5 -0.5 -0.5
      vertex 9.5 0.5 0.5
      vertex 9.5 0.5 -0.5
    endloop
  endfacet
  facet normal -1 -0 0
    outer loop
      vertex 9.5 0.5 0.5
      vertex 9.5 -0.5 -0.5
      vertex 9.5 -0.5 0.5
    endloop
  endfacet
  facet normal 0 1 -0
    outer loop
      vertex 10.5 0.5 -0.5
      vertex 9.5 0.5 0.5
      vertex 10.5 0.5 0.5
    endloop
  endfacet
  facet normal 0 1 0
    outer loop
      vertex 9.5 0.5 0.5
      vertex 10.5 0.5 -0.5
      vertex 9.5 0.5 -0.5
    endloop
  endfacet
  facet normal 0 -1 0
    outer loop
      vertex 9.5 -0.5 -0.5
      vertex 10.5 -0.5 0.5
      vertex 9.5 -0.5 0.5
    endloop
  endfacet
  facet normal 0 -1 -0
    outer loop
      vertex 10.5 -0.5 0.5
      vertex 9.5 -0.5 -0.5
      vertex 10.5 -0.5 -0.5
    endloop
  endfacet
  facet normal 0 0 1
    outer loop
      vertex 9.83158 3.72021 1.5
      vertex 9.18954 2.46013 1.5
      vertex 10.1406 2.76915 1.5
    endloop
  endfacet
  facet normal 0 -0 1
    outer loop
      vertex 9.18954 2.46013 1.5
      vertex 9.83158 3.72021 1.5
      vertex 8.88053 3.41119 1.5
    endloop
  endfacet
  facet normal -0.951059 -0.30901 0
    outer loop
      vertex 9.18954 2.46013 0.5
      vertex 8.88053 3.41119 1.5
      vertex 8.88053 3.41119 0.5
    endloop
  endfacet
  facet normal -0.951059 -0.30901 0
    outer loop
      vertex 8.88053 3.41119 1.5
      vertex 9.18954 2.46013 0.5
      vertex 9.18954 2.46013 1.5
    endloop
  endfacet
  facet normal -0.309022 0.951055 0
    outer loop
      vertex 9.83158 3.72021 0.5
      vertex 8.88053 3.41119 1.5
      vertex 9.83158 3.72021 1.5
    endloop
  endfacet
  facet normal -0.309022 0.951055 0
    outer loop
      vertex 8.88053 3.41119 1.5
      vertex 9.83158 3.72021 0.5
      vertex 8.88053 3.41119 0.5
    endloop
  endfacet
  facet normal 0 0 -1
    outer loop
      vertex 9.18954 2.46013 0.5
      vertex 9.83158 3.72021 0.5
      vertex 10.1406 2.76915 0.5
    endloop
  endfacet
  facet normal 0 0 -1
    outer loop
      vertex 9.83158 3.72021 0.5
      vertex 9.18954 2.46013 0.5
      vertex 8.88053 3.41119 0.5
    endloop
  endfacet
  facet normal 0.309019 -0.951056 0
    outer loop
      vertex 9.18954 2.46013 0.5
      vertex 10.1406 2.76915 1.5
      vertex 9.18954 2.46013 1.5
    endloop
  endfacet
  facet normal 0.309019 -0.951056 0
    outer loop
      vertex 10.1406 2.76915 1.5
      vertex 9.18954 2.46013 0.5
      vertex 10.1406 2.76915 0.5
    endloop
  endfacet
  facet normal 0.951056 0.309019 0
    outer loop
      vertex 10.1406 2.76915 1.5
      vertex 9.83158 3.72021 0.5
      vertex 9.83158 3.72021 1.5
    endloop
  endfacet
  facet normal 0.951056 0.309019 0
    outer loop
      vertex 9.83158 3.72021 0.5
      vertex 10.1406 2.76915 1.5
      vertex 10.1406 2.76915 0.5
    endloop
  endfacet
  facet normal 0 0 1
    outer loop
      vertex 8.20079 6.57625 2.5
      vertex 7.97955 5.17945 2.5
      vertex 8.78857 5.76724 2.5
    endloop
  endfacet
  facet normal 0 -0 1
    outer loop
      vertex 7.97955 5.17945 2.5
      vertex 8.20079 6.57625 2.5
      vertex 7.39177 5.98847 2.5
    endloop
  endfacet
  facet normal -0.809021 -0.58778 0
    outer loop
      vertex 7.97955 5.17945 1.5
      vertex 7.39177 5.98847 2.5
      vertex 7.39177 5.98847 1.5
    endloop
  endfacet
  facet normal -0.809021 -0.58778 0
    outer loop
      vertex 7.39177 5.98847 2.5
      vertex 7.97955 5.17945 1.5
      vertex 7.97955 5.17945 2.5
    endloop
  endfacet
  facet normal -0.58778 0.809021 0
    outer loop
      vertex 8.20079 6.57625 1.5
      vertex 7.39177 5.98847 2.5
      vertex 8.20079 6.57625 2.5
    endloop
  endfacet
  facet normal -0.58778 0.809021 0
    outer loop
      vertex 7.39177 5.98847 2.5
      vertex 8.20079 6.57625 1.5
      vertex 7.39177 5.98847 1.5
    endloop
  endfacet
  facet normal 0 0 -1
    outer loop
      vertex 7.97955 5.17945 1.5
      vertex 8.20079 6.57625 1.5
      vertex 8.78857 5.76724 1.5
    endloop
  endfacet
  facet normal 0 0 -1
    outer loop
      vertex 8.20079 6.57625 1.5
      vertex 7.97955 5.17945 1.5
      vertex 7.39177 5.98847 1.5
    endloop
  endfacet
  facet normal 0.587787 -0.809016 0
    outer loop
      vertex 7.97955 5.17945 1.5
      vertex 8.78857 5.76724 2.5
      vertex 7.97955 5.17945 2.5
    endloop
  endfacet
  facet normal 0.587787 -0.809016 0
    outer loop
      vertex 8.78857 5.76724 2.5
      vertex 7.97955 5.17945 1.5
      vertex 8.78857 5.76724 1.5
    endloop
  endfacet
  facet normal 0.809017 0.587785 0
    outer loop
      vertex 8.78857 5.76724 2.5
      vertex 8.20079 6.57625 1.5
      vertex 8.20079 6.57625 2.5
    endloop
  endfacet
  facet normal 0.809017 0.587785 0
    outer loop
      vertex 8.20079 6.57625 1.5
      vertex 8.78857 5.76724 2.5
      vertex 8.78857 5.76724 1.5
    endloop
  endfacet
  facet normal 0 0 1
    outer loop
      vertex 5.76724 8.78857 3.5
      vertex 5.98847 7.39177 3.5
      vertex 6.57625 8.20079 3.5
    endloop
  endfacet
  facet normal 0 0 1
    outer loop
      vertex 5.98847 7.39177 3.5
      vertex 5.76724 8.78857 3.5
      vertex 5.17945 7.97955 3.5
    endloop
  endfacet
  facet normal -0.58778 -0.809021 0
    outer loop
      vertex 5.17945 7.97955 2.5
      vertex 5.98847 7.39177 3.5
      vertex 5.17945 7.97955 3.5
    endloop
  endfacet
  facet normal -0.58778 -0.809021 -0
    outer loop
      vertex 5.98847 7.39177 3.5
      vertex 5.17945 7.97955 2.5
      vertex 5.98847 7.39177 2.5
    endloop
  endfacet
  facet normal -0.809016 0.587787 0
    outer loop
      vertex 5.17945 7.97955 2.5
      vertex 5.76724 8.78857 3.5
      vertex 5.76724 8.78857 2.5
    endloop
  endfacet
  facet normal -0.809016 0.587787 0
    outer loop
      vertex 5.76724 8.78857 3.5
      vertex 5.17945 7.97955 2.5
      vertex 5.17945 7.97955 3.5
    endloop
  endfacet
  facet normal 0 0 -1
    outer loop
      vertex 5.98847 7.39177 2.5
      vertex 5.76724 8.78857 2.5
      vertex 6.57625 8.20079 2.5
    endloop
  endfacet
  facet normal 0 -0 -1
    outer loop
      vertex 5.76724 8.78857 2.5
      vertex 5.98847 7.39177 2.5
      vertex 5.17945 7.97955 2.5
    endloop
  endfacet
  facet normal 0.809021 -0.58778 0
    outer loop
      vertex 5.98847 7.39177 3.5
      vertex 6.57625 8.20079 2.5
      vertex 6.57625 8.20079 3.5
    endloop
  endfacet
  facet normal 0.809021 -0.58778 0
    outer loop
      vertex 6.57625 8.20079 2.5
      vertex 5.98847 7.39177 3.5
      vertex 5.98847 7.39177 2.5
    endloop
  endfacet
  facet normal 0.587785 0.809017 -0
    outer loop
      vertex 6.57625 8.20079 2.5
      vertex 5.76724 8.78857 3.5
      vertex 6.57625 8.20079 3.5
    endloop
  endfacet
  facet normal 0.587785 0.809017 0
    outer loop
      vertex 5.76724 8.78857 3.5
      vertex 6.57625 8.20079 2.5
      vertex 5.76724 8.78857 2.5
    endloop
  endfacet
  facet normal 0 0 1
    outer loop
      vertex 2.76915 10.1406 4.5
      vertex 3.41119 8.88053 4.5
      vertex 3.72021 9.83158 4.5
    endloop
  endfacet
  facet normal 0 0 1
    outer loop
      vertex 3.41119 8.88053 4.5
      vertex 2.76915 10.1406 4.5
      vertex 2.46013 9.18954 4.5
    endloop
  endfacet
  facet normal -0.30901 -0.951059 0
    outer loop
      vertex 2.46013 9.18954 3.5
      vertex 3.41119 8.88053 4.5
      vertex 2.46013 9.18954 4.5
    endloop
  endfacet
  facet normal -0.30901 -0.951059 -0
    outer loop
      vertex 3.41119 8.88053 4.5
      vertex 2.46013 9.18954 3.5
      vertex 3.41119 8.88053 3.5
    endloop
  endfacet
  facet normal -0.951056 0.309019 0
    outer loop
      vertex 2.46013 9.18954 3.5
      vertex 2.76915 10.1406 4.5
      vertex 2.76915 10.1406 3.5
    endloop
  endfacet
  facet normal -0.951056 0.309019 0
    outer loop
      vertex 2.76915 10.1406 4.5
      vertex 2.46013 9.18954 3.5
      vertex 2.46013 9.18954 4.5
    endloop
  endfacet
  facet normal 0 0 -1
    outer loop
      vertex 3.41119 8.88053 3.5
      vertex 2.76915 10.1406 3.5
      vertex 3.72021 9.83158 3.5
    endloop
  endfacet
  facet normal 0 -0 -1
    outer loop
      vertex 2.76915 10.1406 3.5
      vertex 3.41119 8.88053 3.5
      vertex 2.46013 9.18954 3.5
    endloop
  endfacet
  facet normal 0.951055 -0.309022 0
    outer loop
      vertex 3.41119 8.88053 4.5
      vertex 3.72021 9.83158 3.5
      vertex 3.72021 9.83158 4.5
    endloop
  endfacet
  facet normal 0.951055 -0.309022 0
    outer loop
      vertex 3.72021 9.83158 3.5
      vertex 3.41119 8.88053 4.5
      vertex 3.41119 8.88053 3.5
    endloop
  endfacet
  facet normal 0.309019 0.951056 -0
    outer loop
      vertex 3.72021 9.83158 3.5
      vertex 2.76915 10.1406 4.5
      vertex 3.72021 9.83158 4.5
    endloop
  endfacet
  facet normal 0.309019 0.951056 0
    outer loop
      vertex 2.76915 10.1406 4.5
      vertex 3.72021 9.83158 3.5
      vertex 2.76915 10.1406 3.5
    endloop
  endfacet
  facet normal -0 0 1
    outer loop
      vertex -0.5 10.5 5.5
      vertex 0.5 9.5 5.5
      vertex 0.5 10.5 5.5
    endloop
  endfacet
  facet normal 0 0 1
    outer loop
      vertex 0.5 9.5 5.5
      vertex -0.5 10.5 5.5
      vertex -0.5 9.5 5.5
    endloop
  endfacet
  facet normal 0 -1 0
    outer loop
      vertex -0.5 9.5 4.5
      vertex 0.5 9.5 5.5
      vertex -0.5 9.5 5.5
    endloop
  endfacet
  facet normal 0 -1 -0
    outer loop
      vertex 0.5 9.5 5.5
      vertex -0.5 9.5 4.5
      vertex 0.5 9.5 4.5
    endloop
  endfacet
  facet normal -1 0 0
    outer loop
      vertex -0.5 9.5 4.5
      vertex -0.5 10.5 5.5
      vertex -0.5 10.5 4.5
    endloop
  endfacet
  facet normal -1 -0 0
    outer loop
      vertex -0.5 10.5 5.5
      vertex -0.5 9.5 4.5
      vertex -0.5 9.5 5.5
    endloop
  endfacet
  facet normal 0 0 -1
    outer loop
      vertex -0.5 9.5 4.5
      vertex 0.5 10.5 4.5
      vertex 0.5 9.5 4.5
    endloop
  endfacet
  facet normal -0 0 -1
    outer loop
      vertex 0.5 10.5 4.5
      vertex -0.5 9.5 4.5
      vertex -0.5 10.5 4.5
    endloop
  endfacet
  facet normal 1 -0 0
    outer loop
      vertex 0.5 9.5 5.5
      vertex 0.5 10.5 4.5
      vertex 0.5 10.5 5.5
    endloop
  endfacet
  facet normal 1 0 0
    outer loop
      vertex 0.5 10.5 4.5
      vertex 0.5 9.5 5.5
      vertex 0.5 9.5 4.5
    endloop
  endfacet
  facet normal 0 1 -0
    outer loop
      vertex 0.5 10.5 4.5
      vertex -0.5 10.5 5.5
      vertex 0.5 10.5 5.5
    endloop
  endfacet
  facet normal 0 1 0
    outer loop
      vertex -0.5 10.5 5.5
      vertex 0.5 10.5 4.5
      vertex -0.5 10.5 4.5
    endloop
  endfacet
  facet normal 0 0 1
    outer loop
      vertex -2.76915 10.1406 6.5
      vertex -3.41119 8.88053 6.5
      vertex -2.46013 9.18954 6.5
    endloop
  endfacet
  facet normal 0 -0 1
    outer loop
      vertex -3.41119 8.88053 6.5
      vertex -2.76915 10.1406 6.5
      vertex -3.72021 9.83158 6.5
    endloop
  endfacet
  facet normal 0.30901 -0.951059 0
    outer loop
      vertex -3.41119 8.88053 5.5
      vertex -2.46013 9.18954 6.5
      vertex -3.41119 8.88053 6.5
    endloop
  endfacet
  facet normal 0.30901 -0.951059 0
    outer loop
      vertex -2.46013 9.18954 6.5
      vertex -3.41119 8.88053 5.5
      vertex -2.46013 9.18954 5.5
    endloop
  endfacet
  facet normal -0.951055 -0.309022 0
    outer loop
      vertex -3.41119 8.88053 5.5
      vertex -3.72021 9.83158 6.5
      vertex -3.72021 9.83158 5.5
    endloop
  endfacet
  facet normal -0.951055 -0.309022 0
    outer loop
      vertex -3.72021 9.83158 6.5
      vertex -3.41119 8.88053 5.5
      vertex -3.41119 8.88053 6.5
    endloop
  endfacet
  facet normal 0 0 -1
    outer loop
      vertex -3.41119 8.88053 5.5
      vertex -2.76915 10.1406 5.5
      vertex -2.46013 9.18954 5.5
    endloop
  endfacet
  facet normal 0 0 -1
    outer loop
      vertex -2.76915 10.1406 5.5
      vertex -3.41119 8.88053 5.5
      vertex -3.72021 9.83158 5.5
    endloop
  endfacet
  facet normal 0.951056 0.309019 0
    outer loop
      vertex -2.46013 9.18954 6.5
      vertex -2.76915 10.1406 5.5
      vertex -2.76915 10.1406 6.5
    endloop
  endfacet
  facet normal 0.951056 0.309019 0
    outer loop
      vertex -2.76915 10.1406 5.5
      vertex -2.46013 9.18954 6.5
      vertex -2.46013 9.18954 5.5
    endloop
  endfacet
  facet normal -0.309019 0.951056 0
    outer loop
      vertex -2.76915 10.1406 5.5
      vertex -3.72021 9.83158 6.5
      vertex -2.76915 10.1406 6.5
    endloop
  endfacet
  facet normal -0.309019 0.951056 0
    outer loop
      vertex -3.72021 9.83158 6.5
      vertex -2.76915 10.1406 5.5
      vertex -3.72021 9.83158 5.5
    endloop
  endfacet
  facet normal 0 0 1
    outer loop
      vertex -5.76724 8.78857 7.5
      vertex -5.98847 7.39177 7.5
      vertex -5.17945 7.97955 7.5
    endloop
  endfacet
  facet normal 0 -0 1
    outer loop
      vertex -5.98847 7.39177 7.5
      vertex -5.76724 8.78857 7.5
      vertex -6.57625 8.20079 7.5
    endloop
  endfacet
  facet normal 0.58778 -0.809021 0
    outer loop
      vertex -5.98847 7.39177 6.5
      vertex -5.17945 7.97955 7.5
      vertex -5.98847 7.39177 7.5
    endloop
  endfacet
  facet normal 0.58778 -0.809021 0
    outer loop
      vertex -5.17945 7.97955 7.5
      vertex -5.98847 7.39177 6.5
      vertex -5.17945 7.97955 6.5
    endloop
  endfacet
  facet normal -0.809021 -0.58778 0
    outer loop
      vertex -5.98847 7.39177 6.5
      vertex -6.57625 8.20079 7.5
      vertex -6.57625 8.20079 6.5
    endloop
  endfacet
  facet normal -0.809021 -0.58778 0
    outer loop
      vertex -6.57625 8.20079 7.5
      vertex -5.98847 7.39177 6.5
      vertex -5.98847 7.39177 7.5
    endloop
  endfacet
  facet normal 0 0 -1
    outer loop
      vertex -5.98847 7.39177 6.5
      vertex -5.76724 8.78857 6.5
      vertex -5.17945 7.97955 6.5
    endloop
  endfacet
  facet normal 0 0 -1
    outer loop
      vertex -5.76724 8.78857 6.5
      vertex -5.98847 7.39177 6.5
      vertex -6.57625 8.20079 6.5
    endloop
  endfacet
  facet normal 0.809016 0.587787 0
    outer loop
      vertex -5.17945 7.97955 7.5
      vertex -5.76724 8.78857 6.5
      vertex -5.76724 8.78857 7.5
    endloop
  endfacet
  facet normal 0.809016 0.587787 0
    outer loop
      vertex -5.76724 8.78857 6.5
      vertex -5.17945 7.97955 7.5
      vertex -5.17945 7.97955 6.5
    endloop
  endfacet
  facet normal -0.587785 0.809017 0
    outer loop
      vertex -5.76724 8.78857 6.5
      vertex -6.57625 8.20079 7.5
      vertex -5.76724 8.78857 7.5
    endloop
  endfacet
  facet normal -0.587785 0.809017 0
    outer loop
      vertex -6.57625 8.20079 7.5
      vertex -5.76724 8.78857 6.5
      vertex -6.57625 8.20079 6.5
    endloop
  endfacet
  facet normal 0 0 1
    outer loop
      vertex -8.20079 6.57625 8.5
      vertex -7.97955 5.17945 8.5
      vertex -7.39177 5.98847 8.5
    endloop
  endfacet
  facet normal 0 0 1
    outer loop
      vertex -7.97955 5.17945 8.5
      vertex -8.20079 6.57625 8.5
      vertex -8.78857 5.76724 8.5
    endloop
  endfacet
  facet normal 0.809021 -0.58778 0
    outer loop
      vertex -7.97955 5.17945 8.5
      vertex -7.39177 5.98847 7.5
      vertex -7.39177 5.98847 8.5
    endloop
  endfacet
  facet normal 0.809021 -0.58778 0
    outer loop
      vertex -7.39177 5.98847 7.5
      vertex -7.97955 5.17945 8.5
      vertex -7.97955 5.17945 7.5
    endloop
  endfacet
  facet normal -0.587787 -0.809016 0
    outer loop
      vertex -8.78857 5.76724 7.5
      vertex -7.97955 5.17945 8.5
      vertex -8.78857 5.76724 8.5
    endloop
  endfacet
  facet normal -0.587787 -0.809016 -0
    outer loop
      vertex -7.97955 5.17945 8.5
      vertex -8.78857 5.76724 7.5
      vertex -7.97955 5.17945 7.5
    endloop
  endfacet
  facet normal 0 0 -1
    outer loop
      vertex -7.97955 5.17945 7.5
      vertex -8.20079 6.57625 7.5
      vertex -7.39177 5.98847 7.5
    endloop
  endfacet
  facet normal 0 -0 -1
    outer loop
      vertex -8.20079 6.57625 7.5
      vertex -7.97955 5.17945 7.5
      vertex -8.78857 5.76724 7.5
    endloop
  endfacet
  facet normal 0.58778 0.809021 -0
    outer loop
      vertex -7.39177 5.98847 7.5
      vertex -8.20079 6.57625 8.5
      vertex -7.39177 5.98847 8.5
    endloop
  endfacet
  facet normal 0.58778 0.809021 0
    outer loop
      vertex -8.20079 6.57625 8.5
      vertex -7.39177 5.98847 7.5
      vertex -8.20079 6.57625 7.5
    endloop
  endfacet
  facet normal -0.809017 0.587785 0
    outer loop
      vertex -8.78857 5.76724 7.5
      vertex -8.20079 6.57625 8.5
      vertex -8.20079 6.57625 7.5
    endloop
  endfacet
  facet normal -0.809017 0.587785 0
    outer loop
      vertex -8.20079 6.57625 8.5
      vertex -8.78857 5.76724 7.5
      vertex -8.78857 5.76724 8.5
    endloop
  endfacet
  facet normal 0 0 1
    outer loop
      vertex -9.83158 3.72021 9.5
      vertex -9.18954 2.46013 9.5
      vertex -8.88053 3.41119 9.5
    endloop
  endfacet
  facet normal 0 0 1
    outer loop
      vertex -9.18954 2.46013 9.5
      vertex -9.83158 3.72021 9.5
      vertex -10.1406 2.76915 9.5
    endloop
  endfacet
  facet normal 0.951059 -0.30901 0
    outer loop
      vertex -9.18954 2.46013 9.5
      vertex -8.88053 3.41119 8.5
      vertex -8.88053 3.41119 9.5
    endloop
  endfacet
  facet normal 0.951059 -0.30901 0
    outer loop
      vertex -8.88053 3.41119 8.5
      vertex -9.18954 2.46013 9.5
      vertex -9.18954 2.46013 8.5
    endloop
  endfacet
  facet normal -0.309019 -0.951056 0
    outer loop
      vertex -10.1406 2.76915 8.5
      vertex -9.18954 2.46013 9.5
      vertex -10.1406 2.76915 9.5
    endloop
  endfacet
  facet normal -0.309019 -0.951056 -0
    outer loop
      vertex -9.18954 2.46013 9.5
      vertex -10.1406 2.76915 8.5
      vertex -9.18954 2.46013 8.5
    endloop
  endfacet
  facet normal 0 0 -1
    outer loop
      vertex -9.18954 2.46013 8.5
      vertex -9.83158 3.72021 8.5
      vertex -8.88053 3.41119 8.5
    endloop
  endfacet
  facet normal 0 -0 -1
    outer loop
      vertex -9.83158 3.72021 8.5
      vertex -9.18954 2.46013 8.5
      vertex -10.1406 2.76915 8.5
    endloop
  endfacet
  facet normal 0.309022 0.951055 -0
    outer loop
      vertex -8.88053 3.41119 8.5
      vertex -9.83158 3.72021 9.5
      vertex -8.88053 3.41119 9.5
    endloop
  endfacet
  facet normal 0.309022 0.951055 0
    outer loop
      vertex -9.83158 3.72021 9.5
      vertex -8.88053 3.41119 8.5
      vertex -9.83158 3.72021 8.5
    endloop
  endfacet
  facet normal -0.951056 0.309019 0
    outer loop
      vertex -10.1406 2.76915 8.5
      vertex -9.83158 3.72021 9.5
      vertex -9.83158 3.72021 8.5
    endloop
  endfacet
  facet normal -0.951056 0.309019 0
    outer loop
      vertex -9.83158 3.72021 9.5
      vertex -10.1406 2.76915 8.5
      vertex -10.1406 2.76915 9.5
    endloop
  endfacet
  facet normal -0 0 1
    outer loop
      vertex -10.5 0.5 10.5
      vertex -9.5 -0.5 10.5
      vertex -9.5 0.5 10.5
    endloop
  endfacet
  facet normal 0 0 1
    outer loop
      vertex -9.5 -0.5 10.5
      vertex -10.5 0.5 10.5
      vertex -10.5 -0.5 10.5
    endloop
  endfacet
  facet normal 1 -0 0
    outer loop
      vertex -9.5 -0.5 10.5
      vertex -9.5 0.5 9.5
      vertex -9.5 0.5 10.5
    endloop
  endfacet
  facet normal 1 0 0
    outer loop
      vertex -9.5 0.5 9.5
      vertex -9.5 -0.5 10.5
      vertex -9.5 -0.5 9.5
    endloop
  endfacet
  facet normal 0 -1 0
    outer loop
      vertex -10.5 -0.5 9.5
      vertex -9.5 -0.5 10.5
      vertex -10.5 -0.5 10.5
    endloop
  endfacet
  facet normal 0 -1 -0
    outer loop
      vertex -9.5 -0.5 10.5
      vertex -10.5 -0.5 9.5
      vertex -9.5 -0.5 9.5
    endloop
  endfacet
  facet normal 0 0 -1
    outer loop
      vertex -10.5 -0.5 9.5
      vertex -9.5 0.5 9.5
      vertex -9.5 -0.5 9.5
    endloop
  endfacet
  facet normal -0 0 -1
    outer loop
      vertex -9.5 0.5 9.5
      vertex -10.5 -0.5 9.5
      vertex -10.5 0.5 9.5
    endloop
  endfacet
  facet normal 0 1 -0
    outer loop
      vertex -9.5 0.5 9.5
      vertex -10.5 0.5 10.5
      vertex -9.5 0.5 10.5
    endloop
  endfacet
  facet normal 0 1 0
    outer loop
      vertex -10.5 0.5 10.5
      vertex -9.5 0.5 9.5
      vertex -10.5 0.5 9.5
    endloop
  endfacet
  facet normal -1 0 0
    outer loop
      vertex -10.5 -0.5 9.5
      vertex -10.5 0.5 10.5
      vertex -10.5 0.5 9.5
    endloop
  endfacet
  facet normal -1 -0 0
    outer loop
      vertex -10.5 0.5 10.5
      vertex -10.5 -0.5 9.5
      vertex -10.5 -0.5 10.5
    endloop
  endfacet
  facet normal -0.951056 -0.309019 0
    outer loop
      vertex -9.83158 -3.72021 10.5
      vertex -10.1406 -2.76915 11.5
      vertex -10.1406 -2.76915 10.5
    endloop
  endfacet
  facet normal -0.951056 -0.309019 0
    outer loop
      vertex -10.1406 -2.76915 11.5
      vertex -9.83158 -3.72021 10.5
      vertex -9.83158 -3.72021 11.5
    endloop
  endfacet
  facet normal 0 0 1
    outer loop
      vertex -9.18954 -2.46013 11.5
      vertex -9.83158 -3.72021 11.5
      vertex -8.88053 -3.41119 11.5
    endloop
  endfacet
  facet normal 0 -0 1
    outer loop
      vertex -9.83158 -3.72021 11.5
      vertex -9.18954 -2.46013 11.5
      vertex -10.1406 -2.76915 11.5
    endloop
  endfacet
  facet normal 0 0 -1
    outer loop
      vertex -9.83158 -3.72021 10.5
      vertex -9.18954 -2.46013 10.5
      vertex -8.88053 -3.41119 10.5
    endloop
  endfacet
  facet normal 0 0 -1
    outer loop
      vertex -9.18954 -2.46013 10.5
      vertex -9.83158 -3.72021 10.5
      vertex -10.1406 -2.76915 10.5
    endloop
  endfacet
  facet normal 0.951059 0.30901 0
    outer loop
      vertex -8.88053 -3.41119 11.5
      vertex -9.18954 -2.46013 10.5
      vertex -9.18954 -2.46013 11.5
    endloop
  endfacet
  facet normal 0.951059 0.30901 0
    outer loop
      vertex -9.18954 -2.46013 10.5
      vertex -8.88053 -3.41119 11.5
      vertex -8.88053 -3.41119 10.5
    endloop
  endfacet
  facet normal 0.309022 -0.951055 0
    outer loop
      vertex -9.83158 -3.72021 10.5
      vertex -8.88053 -3.41119 11.5
      vertex -9.83158 -3.72021 11.5
    endloop
  endfacet
  facet normal 0.309022 -0.951055 0
    outer loop
      vertex -8.88053 -3.41119 11.5
      vertex -9.83158 -3.72021 10.5
      vertex -8.88053 -3.41119 10.5
    endloop
  endfacet
  facet normal -0.309019 0.951056 0
    outer loop
      vertex -9.18954 -2.46013 10.5
      vertex -10.1406 -2.76915 11.5
      vertex -9.18954 -2.46013 11.5
    endloop
  endfacet
  facet normal -0.309019 0.951056 0
    outer loop
      vertex -10.1406 -2.76915 11.5
      vertex -9.18954 -2.46013 10.5
      vertex -10.1406 -2.76915 10.5
    endloop
  endfacet
  facet normal -0.809017 -0.587785 0
    outer loop
      vertex -8.20079 -6.57625 11.5
      vertex -8.78857 -5.76724 12.5
      vertex -8.78857 -5.76724 11.5
    endloop
  endfacet
  facet normal -0.809017 -0.587785 0
    outer loop
      vertex -8.78857 -5.76724 12.5
      vertex -8.20079 -6.57625 11.5
      vertex -8.20079 -6.57625 12.5
    endloop
  endfacet
  facet normal 0 0 1
    outer loop
      vertex -7.97955 -5.17945 12.5
      vertex -8.20079 -6.57625 12.5
      vertex -7.39177 -5.98847 12.5
    endloop
  endfacet
  facet normal 0 -0 1
    outer loop
      vertex -8.20079 -6.57625 12.5
      vertex -7.97955 -5.17945 12.5
      vertex -8.78857 -5.76724 12.5
    endloop
  endfacet
  facet normal 0 0 -1
    outer loop
      vertex -8.20079 -6.57625 11.5
      vertex -7.97955 -5.17945 11.5
      vertex -7.39177 -5.98847 11.5
    endloop
  endfacet
  facet normal 0 0 -1
    outer loop
      vertex -7.97955 -5.17945 11.5
      vertex -8.20079 -6.57625 11.5
      vertex -8.78857 -5.76724 11.5
    endloop
  endfacet
  facet normal 0.809021 0.58778 0
    outer loop
      vertex -7.39177 -5.98847 12.5
      vertex -7.97955 -5.17945 11.5
      vertex -7.97955 -5.17945 12.5
    endloop
  endfacet
  facet normal 0.809021 0.58778 0
    outer loop
      vertex -7.97955 -5.17945 11.5
      vertex -7.39177 -5.98847 12.5
      vertex -7.39177 -5.98847 11.5
    endloop
  endfacet
  facet normal 0.58778 -0.809021 0
    outer loop
      vertex -8.20079 -6.57625 11.5
      vertex -7.39177 -5.98847 12.5
      vertex -8.20079 -6.57625 12.5
    endloop
  endfacet
  facet normal 0.58778 -0.809021 0
    outer loop
      vertex -7.39177 -5.98847 12.5
      vertex -8.20079 -6.57625 11.5
      vertex -7.39177 -5.98847 11.5
    endloop
  endfacet
  facet normal -0.587787 0.809016 0
    outer loop
      vertex -7.97955 -5.17945 11.5
      vertex -8.78857 -5.76724 12.5
      vertex -7.97955 -5.17945 12.5
    endloop
  endfacet
  facet normal -0.587787 0.809016 0
    outer loop
      vertex -8.78857 -5.76724 12.5
      vertex -7.97955 -5.17945 11.5
      vertex -8.78857 -5.76724 11.5
    endloop
  endfacet
  facet normal -0.587785 -0.809017 0
    outer loop
      vertex -6.57625 -8.20079 12.5
      vertex -5.76724 -8.78857 13.5
      vertex -6.57625 -8.20079 13.5
    endloop
  endfacet
  facet normal -0.587785 -0.809017 -0
    outer loop
      vertex -5.76724 -8.78857 13.5
      vertex -6.57625 -8.20079 12.5
      vertex -5.76724 -8.78857 12.5
    endloop
  endfacet
  facet normal 0 0 1
    outer loop
      vertex -5.98847 -7.39177 13.5
      vertex -5.76724 -8.78857 13.5
      vertex -5.17945 -7.97955 13.5
    endloop
  endfacet
  facet normal 0 0 1
    outer loop
      vertex -5.76724 -8.78857 13.5
      vertex -5.98847 -7.39177 13.5
      vertex -6.57625 -8.20079 13.5
    endloop
  endfacet
  facet normal 0 0 -1
    outer loop
      vertex -5.76724 -8.78857 12.5
      vertex -5.98847 -7.39177 12.5
      vertex -5.17945 -7.97955 12.5
    endloop
  endfacet
  facet normal 0 -0 -1
    outer loop
      vertex -5.98847 -7.39177 12.5
      vertex -5.76724 -8.78857 12.5
      vertex -6.57625 -8.20079 12.5
    endloop
  endfacet
  facet normal 0.58778 0.809021 -0
    outer loop
      vertex -5.17945 -7.97955 12.5
      vertex -5.98847 -7.39177 13.5
      vertex -5.17945 -7.97955 13.5
    endloop
  endfacet
  facet normal 0.58778 0.809021 0
    outer loop
      vertex -5.98847 -7.39177 13.5
      vertex -5.17945 -7.97955 12.5
      vertex -5.98847 -7.39177 12.5
    endloop
  endfacet
  facet normal 0.809016 -0.587787 0
    outer loop
      vertex -5.76724 -8.78857 13.5
      vertex -5.17945 -7.97955 12.5
      vertex -5.17945 -7.97955 13.5
    endloop
  endfacet
  facet normal 0.809016 -0.587787 0
    outer loop
      vertex -5.17945 -7.97955 12.5
      vertex -5.76724 -8.78857 13.5
      vertex -5.76724 -8.78857 12.5
    endloop
  endfacet
  facet normal -0.809021 0.58778 0
    outer loop
      vertex -6.57625 -8.20079 12.5
      vertex -5.98847 -7.39177 13.5
      vertex -5.98847 -7.39177 12.5
    endloop
  endfacet
  facet normal -0.809021 0.58778 0
    outer loop
      vertex -5.98847 -7.39177 13.5
      vertex -6.57625 -8.20079 12.5
      vertex -6.57625 -8.20079 13.5
    endloop
  endfacet
  facet normal -0.309019 -0.951056 0
    outer loop
      vertex -3.72021 -9.83158 13.5
      vertex -2.76915 -10.1406 14.5
      vertex -3.72021 -9.83158 14.5
    endloop
  endfacet
  facet normal -0.309019 -0.951056 -0
    outer loop
      vertex -2.76915 -10.1406 14.5
      vertex -3.72021 -9.83158 13.5
      vertex -2.76915 -10.1406 13.5
    endloop
  endfacet
  facet normal 0 0 1
    outer loop
      vertex -3.41119 -8.88053 14.5
      vertex -2.76915 -10.1406 14.5
      vertex -2.46013 -9.18954 14.5
    endloop
  endfacet
  facet normal 0 0 1
    outer loop
      vertex -2.76915 -10.1406 14.5
      vertex -3.41119 -8.88053 14.5
      vertex -3.72021 -9.83158 14.5
    endloop
  endfacet
  facet normal 0 0 -1
    outer loop
      vertex -2.76915 -10.1406 13.5
      vertex -3.41119 -8.88053 13.5
      vertex -2.46013 -9.18954 13.5
    endloop
  endfacet
  facet normal 0 -0 -1
    outer loop
      vertex -3.41119 -8.88053 13.5
      vertex -2.76915 -10.1406 13.5
      vertex -3.72021 -9.83158 13.5
    endloop
  endfacet
  facet normal 0.30901 0.951059 -0
    outer loop
      vertex -2.46013 -9.18954 13.5
      vertex -3.41119 -8.88053 14.5
      vertex -2.46013 -9.18954 14.5
    endloop
  endfacet
  facet normal 0.30901 0.951059 0
    outer loop
      vertex -3.41119 -8.88053 14.5
      vertex -2.46013 -9.18954 13.5
      vertex -3.41119 -8.88053 13.5
    endloop
  endfacet
  facet normal 0.951056 -0.309019 0
    outer loop
      vertex -2.76915 -10.1406 14.5
      vertex -2.46013 -9.18954 13.5
      vertex -2.46013 -9.18954 14.5
    endloop
  endfacet
  facet normal 0.951056 -0.309019 0
    outer loop
      vertex -2.46013 -9.18954 13.5
      vertex -2.76915 -10.1406 14.5
      vertex -2.76915 -10.1406 13.5
    endloop
  endfacet
  facet normal -0.951055 0.309022 0
    outer loop
      vertex -3.72021 -9.83158 13.5
      vertex -3.41119 -8.88053 14.5
      vertex -3.41119 -8.88053 13.5
    endloop
  endfacet
  facet normal -0.951055 0.309022 0
    outer loop
      vertex -3.41119 -8.88053 14.5
      vertex -3.72021 -9.83158 13.5
      vertex -3.72021 -9.83158 14.5
    endloop
  endfacet
  facet normal 0 -1 0
    outer loop
      vertex -0.5 -10.5 14.5
      vertex 0.5 -10.5 15.5
      vertex -0.5 -10.5 15.5
    endloop
  endfacet
  facet normal 0 -1 -0
    outer loop
      vertex 0.5 -10.5 15.5
      vertex -0.5 -10.5 14.5
      vertex 0.5 -10.5 14.5
    endloop
  endfacet
  facet normal -0 0 1
    outer loop
      vertex -0.5 -9.5 15.5
      vertex 0.5 -10.5 15.5
      vertex 0.5 -9.5 15.5
    endloop
  endfacet
  facet normal 0 0 1
    outer loop
      vertex 0.5 -10.5 15.5
      vertex -0.5 -9.5 15.5
      vertex -0.5 -10.5 15.5
    endloop
  endfacet
  facet normal 0 0 -1
    outer loop
      vertex -0.5 -10.5 14.5
      vertex 0.5 -9.5 14.5
      vertex 0.5 -10.5 14.5
    endloop
  endfacet
  facet normal -0 0 -1
    outer loop
      vertex 0.5 -9.5 14.5
      vertex -0.5 -10.5 14.5
      vertex -0.5 -9.5 14.5
    endloop
  endfacet
  facet normal 0 1 -0
    outer loop
      vertex 0.5 -9.5 14.5
      vertex -0.5 -9.5 15.5
      vertex 0.5 -9.5 15.5
    endloop
  endfacet
  facet normal 0 1 0
    outer loop
      vertex -0.5 -9.5 15.5
      vertex 0.5 -9.5 14.5
      vertex -0.5 -9.5 14.5
    endloop
  endfacet
  facet normal 1 -0 0
    outer loop
      vertex 0.5 -10.5 15.5
      vertex 0.5 -9.5 14.5
      vertex 0.5 -9.5 15.5
    endloop
  endfacet
  facet normal 1 0 0
    outer loop
      vertex 0.5 -9.5 14.5
      vertex 0.5 -10.5 15.5
      vertex 0.5 -10.5 14.5
    endloop
  endfacet
  facet normal -1 0 0
    outer loop
      vertex -0.5 -10.5 14.5
      vertex -0.5 -9.5 15.5
      vertex -0.5 -9.5 14.5
    endloop
  endfacet
  facet normal -1 -0 0
    outer loop
      vertex -0.5 -9.5 15.5
      vertex -0.5 -10.5 14.5
      vertex -0.5 -10.5 15.5
    endloop
  endfacet
  facet normal 0.309019 -0.951056 0
    outer loop
      vertex 2.76915 -10.1406 15.5
      vertex 3.72021 -9.83158 16.5
      vertex 2.76915 -10.1406 16.5
    endloop
  endfacet
  facet normal 0.309019 -0.951056 0
    outer loop
      vertex 3.72021 -9.83158 16.5
      vertex 2.76915 -10.1406 15.5
      vertex 3.72021 -9.83158 15.5
    endloop
  endfacet
  facet normal 0 0 1
    outer loop
      vertex 3.41119 -8.88053 16.5
      vertex 2.76915 -10.1406 16.5
      vertex 3.72021 -9.83158 16.5
    endloop
  endfacet
  facet normal 0 -0 1
    outer loop
      vertex 2.76915 -10.1406 16.5
      vertex 3.41119 -8.88053 16.5
      vertex 2.46013 -9.18954 16.5
    endloop
  endfacet
  facet normal 0 0 -1
    outer loop
      vertex 2.76915 -10.1406 15.5
      vertex 3.41119 -8.88053 15.5
      vertex 3.72021 -9.83158 15.5
    endloop
  endfacet
  facet normal 0 0 -1
    outer loop
      vertex 3.41119 -8.88053 15.5
      vertex 2.76915 -10.1406 15.5
      vertex 2.46013 -9.18954 15.5
    endloop
  endfacet
  facet normal -0.30901 0.951059 0
    outer loop
      vertex 3.41119 -8.88053 15.5
      vertex 2.46013 -9.18954 16.5
      vertex 3.41119 -8.88053 16.5
    endloop
  endfacet
  facet normal -0.30901 0.951059 0
    outer loop
      vertex 2.46013 -9.18954 16.5
      vertex 3.41119 -8.88053 15.5
      vertex 2.46013 -9.18954 15.5
    endloop
  endfacet
  facet normal 0.951055 0.309022 0
    outer loop
      vertex 3.72021 -9.83158 16.5
      vertex 3.41119 -8.88053 15.5
      vertex 3.41119 -8.88053 16.5
    endloop
  endfacet
  facet normal 0.951055 0.309022 0
    outer loop
      vertex 3.41119 -8.88053 15.5
      vertex 3.72021 -9.83158 16.5
      vertex 3.72021 -9.83158 15.5
    endloop
  endfacet
  facet normal -0.951056 -0.309019 0
    outer loop
      vertex 2.76915 -10.1406 15.5
      vertex 2.46013 -9.18954 16.5
      vertex 2.46013 -9.18954 15.5
    endloop
  endfacet
  facet normal -0.951056 -0.309019 0
    outer loop
      vertex 2.46013 -9.18954 16.5
      vertex 2.76915 -10.1406 15.5
      vertex 2.76915 -10.1406 16.5
    endloop
  endfacet
  facet normal 0.587785 -0.809017 0
    outer loop
      vertex 5.76724 -8.78857 16.5
      vertex 6.57625 -8.20079 17.5
      vertex 5.76724 -8.78857 17.5
    endloop
  endfacet
  facet normal 0.587785 -0.809017 0
    outer loop
      vertex 6.57625 -8.20079 17.5
      vertex 5.76724 -8.78857 16.5
      vertex 6.57625 -8.20079 16.5
    endloop
  endfacet
  facet normal 0 0 1
    outer loop
      vertex 5.98847 -7.39177 17.5
      vertex 5.76724 -8.78857 17.5
      vertex 6.57625 -8.20079 17.5
    endloop
  endfacet
  facet normal 0 -0 1
    outer loop
      vertex 5.76724 -8.78857 17.5
      vertex 5.98847 -7.39177 17.5
      vertex 5.17945 -7.97955 17.5
    endloop
  endfacet
  facet normal 0 0 -1
    outer loop
      vertex 5.76724 -8.78857 16.5
      vertex 5.98847 -7.39177 16.5
      vertex 6.57625 -8.20079 16.5
    endloop
  endfacet
  facet normal 0 0 -1
    outer loop
      vertex 5.98847 -7.39177 16.5
      vertex 5.76724 -8.78857 16.5
      vertex 5.17945 -7.97955 16.5
    endloop
  endfacet
  facet normal -0.58778 0.809021 0
    outer loop
      vertex 5.98847 -7.39177 16.5
      vertex 5.17945 -7.97955 17.5
      vertex 5.98847 -7.39177 17.5
    endloop
  endfacet
  facet normal -0.58778 0.809021 0
    outer loop
      vertex 5.17945 -7.97955 17.5
      vertex 5.98847 -7.39177 16.5
      vertex 5.17945 -7.97955 16.5
    endloop
  endfacet
  facet normal 0.809021 0.58778 0
    outer loop
      vertex 6.57625 -8.20079 17.5
      vertex 5.98847 -7.39177 16.5
      vertex 5.98847 -7.39177 17.5
    endloop
  endfacet
  facet normal 0.809021 0.58778 0
    outer loop
      vertex 5.98847 -7.39177 16.5
      vertex 6.57625 -8.20079 17.5
      vertex 6.57625 -8.20079 16.5
    endloop
  endfacet
  facet normal -0.809016 -0.587787 0
    outer loop
      vertex 5.76724 -8.78857 16.5
      vertex 5.17945 -7.97955 17.5
      vertex 5.17945 -7.97955 16.5
    endloop
  endfacet
  facet normal -0.809016 -0.587787 0
    outer loop
      vertex 5.17945 -7.97955 17.5
      vertex 5.76724 -8.78857 16.5
      vertex 5.76724 -8.78857 17.5
    endloop
  endfacet
  facet normal 0.809017 -0.587785 0
    outer loop
      vertex 8.20079 -6.57625 18.5
      vertex 8.78857 -5.76724 17.5
      vertex 8.78857 -5.76724 18.5
    endloop
  endfacet
  facet normal 0.809017 -0.587785 0
    outer loop
      vertex 8.78857 -5.76724 17.5
      vertex 8.20079 -6.57625 18.5
      vertex 8.20079 -6.57625 17.5
    endloop
  endfacet
  facet normal 0 0 1
    outer loop
      vertex 7.97955 -5.17945 18.5
      vertex 8.20079 -6.57625 18.5
      vertex 8.78857 -5.76724 18.5
    endloop
  endfacet
  facet normal 0 0 1
    outer loop
      vertex 8.20079 -6.57625 18.5
      vertex 7.97955 -5.17945 18.5
      vertex 7.39177 -5.98847 18.5
    endloop
  endfacet
  facet normal 0 0 -1
    outer loop
      vertex 8.20079 -6.57625 17.5
      vertex 7.97955 -5.17945 17.5
      vertex 8.78857 -5.76724 17.5
    endloop
  endfacet
  facet normal 0 -0 -1
    outer loop
      vertex 7.97955 -5.17945 17.5
      vertex 8.20079 -6.57625 17.5
      vertex 7.39177 -5.98847 17.5
    endloop
  endfacet
  facet normal -0.809021 0.58778 0
    outer loop
      vertex 7.39177 -5.98847 17.5
      vertex 7.97955 -5.17945 18.5
      vertex 7.97955 -5.17945 17.5
    endloop
  endfacet
  facet normal -0.809021 0.58778 0
    outer loop
      vertex 7.97955 -5.17945 18.5
      vertex 7.39177 -5.98847 17.5
      vertex 7.39177 -5.98847 18.5
    endloop
  endfacet
  facet normal 0.587787 0.809016 -0
    outer loop
      vertex 8.78857 -5.76724 17.5
      vertex 7.97955 -5.17945 18.5
      vertex 8.78857 -5.76724 18.5
    endloop
  endfacet
  facet normal 0.587787 0.809016 0
    outer loop
      vertex 7.97955 -5.17945 18.5
      vertex 8.78857 -5.76724 17.5
      vertex 7.97955 -5.17945 17.5
    endloop
  endfacet
  facet normal -0.58778 -0.809021 0
    outer loop
      vertex 7.39177 -5.98847 17.5
      vertex 8.20079 -6.57625 18.5
      vertex 7.39177 -5.98847 18.5
    endloop
  endfacet
  facet normal -0.58778 -0.809021 -0
    outer loop
      vertex 8.20079 -6.57625 18.5
      vertex 7.39177 -5.98847 17.5
      vertex 8.20079 -6.57625 17.5
    endloop
  endfacet
  facet normal 0.951056 -0.309019 0
    outer loop
      vertex 9.83158 -3.72021 19.5
      vertex 10.1406 -2.76915 18.5
      vertex 10.1406 -2.76915 19.5
    endloop
  endfacet
  facet normal 0.951056 -0.309019 0
    outer loop
      vertex 10.1406 -2.76915 18.5
      vertex 9.83158 -3.72021 19.5
      vertex 9.83158 -3.72021 18.5
    endloop
  endfacet
  facet normal 0 0 1
    outer loop
      vertex 9.18954 -2.46013 19.5
      vertex 9.83158 -3.72021 19.5
      vertex 10.1406 -2.76915 19.5
    endloop
  endfacet
  facet normal 0 0 1
    outer loop
      vertex 9.83158 -3.72021 19.5
      vertex 9.18954 -2.46013 19.5
      vertex 8.88053 -3.41119 19.5
    endloop
  endfacet
  facet normal 0 0 -1
    outer loop
      vertex 9.83158 -3.72021 18.5
      vertex 9.18954 -2.46013 18.5
      vertex 10.1406 -2.76915 18.5
    endloop
  endfacet
  facet normal 0 -0 -1
    outer loop
      vertex 9.18954 -2.46013 18.5
      vertex 9.83158 -3.72021 18.5
      vertex 8.88053 -3.41119 18.5
    endloop
  endfacet
  facet normal -0.951059 0.30901 0
    outer loop
      vertex 8.88053 -3.41119 18.5
      vertex 9.18954 -2.46013 19.5
      vertex 9.18954 -2.46013 18.5
    endloop
  endfacet
  facet normal -0.951059 0.30901 0
    outer loop
      vertex 9.18954 -2.46013 19.5
      vertex 8.88053 -3.41119 18.5
      vertex 8.88053 -3.41119 19.5
    endloop
  endfacet
  facet normal 0.309019 0.951056 -0
    outer loop
      vertex 10.1406 -2.76915 18.5
      vertex 9.18954 -2.46013 19.5
      vertex 10.1406 -2.76915 19.5
    endloop
  endfacet
  facet normal 0.309019 0.951056 0
    outer loop
      vertex 9.18954 -2.46013 19.5
      vertex 10.1406 -2.76915 18.5
      vertex 9.18954 -2.46013 18.5
    endloop
  endfacet
  facet normal -0.309022 -0.951055 0
    outer loop
      vertex 8.88053 -3.41119 18.5
      vertex 9.83158 -3.72021 19.5
      vertex 8.88053 -3.41119 19.5
    endloop
  endfacet
  facet normal -0.309022 -0.951055 -0
    outer loop
      vertex 9.83158 -3.72021 19.5
      vertex 8.88053 -3.41119 18.5
      vertex 9.83158 -3.72021 18.5
    endloop
  endfacet
endsolid OpenSCAD_Model
