solid OpenSCAD_Model
  facet normal 1 -0 0
    outer loop
      vertex 25 0 10
      vertex 25 25 9.9
      vertex 25 25 10
    endloop
  endfacet
  facet normal 1 0 0
    outer loop
      vertex 25 25 9.9
      vertex 25 0 10
      vertex 25 0 9.9
    endloop
  endfacet
  facet normal 0 -1 0
    outer loop
      vertex -25 0 9.9
      vertex 25 0 10
      vertex -25 0 10
    endloop
  endfacet
  facet normal 0 -1 -0
    outer loop
      vertex 25 0 10
      vertex -25 0 9.9
      vertex 25 0 9.9
    endloop
  endfacet
  facet normal -0 0 1
    outer loop
      vertex -25 25 10
      vertex 25 0 10
      vertex 25 25 10
    endloop
  endfacet
  facet normal 0 0 1
    outer loop
      vertex 25 0 10
      vertex -25 25 10
      vertex -25 0 10
    endloop
  endfacet
  facet normal -1 0 0
    outer loop
      vertex -25 0 9.9
      vertex -25 25 10
      vertex -25 25 9.9
    endloop
  endfacet
  facet normal -1 -0 0
    outer loop
      vertex -25 25 10
      vertex -25 0 9.9
      vertex -25 0 10
    endloop
  endfacet
  facet normal 0 1 -0
    outer loop
      vertex 25 25 9.9
      vertex -25 25 10
      vertex 25 25 10
    endloop
  endfacet
  facet normal 0 1 0
    outer loop
      vertex -25 25 10
      vertex 25 25 9.9
      vertex -25 25 9.9
    endloop
  endfacet
  facet normal 0 0 -1
    outer loop
      vertex -25 0 9.9
      vertex 25 25 9.9
      vertex 25 0 9.9
    endloop
  endfacet
  facet normal -0 0 -1
    outer loop
      vertex 25 25 9.9
      vertex -25 0 9.9
      vertex -25 25 9.9
    endloop
  endfacet
endsolid OpenSCAD_Model
