solid OpenSCAD_Model
  facet normal 1 -0 0
    outer loop
      vertex 20 0 4.9
      vertex 20 30 -2.1
      vertex 20 30 4.9
    endloop
  endfacet
  facet normal 1 0 0
    outer loop
      vertex 20 30 -2.1
      vertex 20 0 4.9
      vertex 20 0 -2.1
    endloop
  endfacet
  facet normal 0 0 1
    outer loop
      vertex 20 30 4.9
      vertex 15 22.5 4.9
      vertex 20 0 4.9
    endloop
  endfacet
  facet normal 0 0 1
    outer loop
      vertex 20 30 4.9
      vertex 5 22.5 4.9
      vertex 15 22.5 4.9
    endloop
  endfacet
  facet normal 0 0 1
    outer loop
      vertex 0 2.99408 4.9
      vertex 5 7.5 4.9
      vertex 5 22.5 4.9
    endloop
  endfacet
  facet normal 0 0 1
    outer loop
      vertex 5 7.5 4.9
      vertex 2.97634 0.375999 4.9
      vertex 3 0 4.9
    endloop
  endfacet
  facet normal 0 0 1
    outer loop
      vertex 5 7.5 4.9
      vertex 2.90575 0.746069 4.9
      vertex 2.97634 0.375999 4.9
    endloop
  endfacet
  facet normal 0 0 1
    outer loop
      vertex 5 7.5 4.9
      vertex 2.78933 1.10437 4.9
      vertex 2.90575 0.746069 4.9
    endloop
  endfacet
  facet normal 0 0 1
    outer loop
      vertex 5 7.5 4.9
      vertex 2.62892 1.44526 4.9
      vertex 2.78933 1.10437 4.9
    endloop
  endfacet
  facet normal 0 0 1
    outer loop
      vertex 5 7.5 4.9
      vertex 2.42705 1.76336 4.9
      vertex 2.62892 1.44526 4.9
    endloop
  endfacet
  facet normal 0 0 1
    outer loop
      vertex 5 7.5 4.9
      vertex 2.18691 2.05364 4.9
      vertex 2.42705 1.76336 4.9
    endloop
  endfacet
  facet normal 0 0 1
    outer loop
      vertex 5 7.5 4.9
      vertex 1.91227 2.31154 4.9
      vertex 2.18691 2.05364 4.9
    endloop
  endfacet
  facet normal 0 0 1
    outer loop
      vertex 5 7.5 4.9
      vertex 1.60748 2.53298 4.9
      vertex 1.91227 2.31154 4.9
    endloop
  endfacet
  facet normal 0 0 1
    outer loop
      vertex 5 7.5 4.9
      vertex 1.27734 2.71448 4.9
      vertex 1.60748 2.53298 4.9
    endloop
  endfacet
  facet normal 0 0 1
    outer loop
      vertex 5 7.5 4.9
      vertex 0.927051 2.85317 4.9
      vertex 1.27734 2.71448 4.9
    endloop
  endfacet
  facet normal 0 0 1
    outer loop
      vertex 5 7.5 4.9
      vertex 0.562143 2.94686 4.9
      vertex 0.927051 2.85317 4.9
    endloop
  endfacet
  facet normal 0 0 1
    outer loop
      vertex 5 7.5 4.9
      vertex 0.188371 2.99408 4.9
      vertex 0.562143 2.94686 4.9
    endloop
  endfacet
  facet normal -0 0 1
    outer loop
      vertex 0 30 4.9
      vertex 5 22.5 4.9
      vertex 20 30 4.9
    endloop
  endfacet
  facet normal 0 0 1
    outer loop
      vertex 0 2.99408 4.9
      vertex 5 22.5 4.9
      vertex 0 30 4.9
    endloop
  endfacet
  facet normal 0 0 1
    outer loop
      vertex 5 7.5 4.9
      vertex 0 2.99408 4.9
      vertex 0.188371 2.99408 4.9
    endloop
  endfacet
  facet normal -0 0 1
    outer loop
      vertex 15 7.5 4.9
      vertex 20 0 4.9
      vertex 15 22.5 4.9
    endloop
  endfacet
  facet normal 0 0 1
    outer loop
      vertex 3 0 4.9
      vertex 15 7.5 4.9
      vertex 5 7.5 4.9
    endloop
  endfacet
  facet normal 0 0 1
    outer loop
      vertex 15 7.5 4.9
      vertex 3 0 4.9
      vertex 20 0 4.9
    endloop
  endfacet
  facet normal 0 0 -1
    outer loop
      vertex 0 0 -0.1
      vertex 2.97634 0.375999 -0.1
      vertex 3 0 -0.1
    endloop
  endfacet
  facet normal -0 0 -1
    outer loop
      vertex 2.97634 0.375999 -0.1
      vertex 0 0 -0.1
      vertex 2.90575 0.746069 -0.1
    endloop
  endfacet
  facet normal -0 0 -1
    outer loop
      vertex 2.90575 0.746069 -0.1
      vertex 0 0 -0.1
      vertex 2.78933 1.10437 -0.1
    endloop
  endfacet
  facet normal -0 0 -1
    outer loop
      vertex 2.78933 1.10437 -0.1
      vertex 0 0 -0.1
      vertex 2.62892 1.44526 -0.1
    endloop
  endfacet
  facet normal -0 0 -1
    outer loop
      vertex 2.62892 1.44526 -0.1
      vertex 0 0 -0.1
      vertex 2.42705 1.76336 -0.1
    endloop
  endfacet
  facet normal -0 0 -1
    outer loop
      vertex 2.42705 1.76336 -0.1
      vertex 0 0 -0.1
      vertex 2.18691 2.05364 -0.1
    endloop
  endfacet
  facet normal -0 0 -1
    outer loop
      vertex 2.18691 2.05364 -0.1
      vertex 0 0 -0.1
      vertex 1.91227 2.31154 -0.1
    endloop
  endfacet
  facet normal -0 0 -1
    outer loop
      vertex 1.91227 2.31154 -0.1
      vertex 0 0 -0.1
      vertex 1.60748 2.53298 -0.1
    endloop
  endfacet
  facet normal -0 0 -1
    outer loop
      vertex 1.60748 2.53298 -0.1
      vertex 0 0 -0.1
      vertex 1.27734 2.71448 -0.1
    endloop
  endfacet
  facet normal -0 0 -1
    outer loop
      vertex 1.27734 2.71448 -0.1
      vertex 0 0 -0.1
      vertex 0.927051 2.85317 -0.1
    endloop
  endfacet
  facet normal -0 0 -1
    outer loop
      vertex 0.927051 2.85317 -0.1
      vertex 0 0 -0.1
      vertex 0.562143 2.94686 -0.1
    endloop
  endfacet
  facet normal -0 0 -1
    outer loop
      vertex 0.562143 2.94686 -0.1
      vertex 0 0 -0.1
      vertex 0.188371 2.99408 -0.1
    endloop
  endfacet
  facet normal -0 0 -1
    outer loop
      vertex 0.188371 2.99408 -0.1
      vertex 0 0 -0.1
      vertex 0 2.99408 -0.1
    endloop
  endfacet
  facet normal -1 0 0
    outer loop
      vertex 0 0 -0.1
      vertex 0 2.99408 -0.0999994
      vertex 0 2.99408 -0.1
    endloop
  endfacet
  facet normal -1 -0 0
    outer loop
      vertex 0 2.99408 -0.0999994
      vertex 0 0 -0.1
      vertex 0 0 -0.0999994
    endloop
  endfacet
  facet normal -1 0 0
    outer loop
      vertex 0 2.99408 -1.1
      vertex 0 30 -2.1
      vertex 0 2.99408 -2.1
    endloop
  endfacet
  facet normal 0 0 0
    outer loop
      vertex 0 0 -2.1
      vertex 0 2.99408 -2.1
      vertex 0 30 -2.1
    endloop
  endfacet
  facet normal -1 0 0
    outer loop
      vertex 0 2.99408 -0.1
      vertex 0 30 -2.1
      vertex 0 2.99408 -1.1
    endloop
  endfacet
  facet normal -1 0 0
    outer loop
      vertex 0 2.99408 -0.0999994
      vertex 0 30 -2.1
      vertex 0 2.99408 -0.1
    endloop
  endfacet
  facet normal -1 0 0
    outer loop
      vertex 0 30 -2.1
      vertex 0 2.99408 -0.0999994
      vertex 0 30 4.9
    endloop
  endfacet
  facet normal -1 -0 0
    outer loop
      vertex 0 30 4.9
      vertex 0 2.99408 -0.0999994
      vertex 0 2.99408 4.9
    endloop
  endfacet
  facet normal 0 1 -0
    outer loop
      vertex 20 30 -2.1
      vertex 0 30 4.9
      vertex 20 30 4.9
    endloop
  endfacet
  facet normal 0 1 0
    outer loop
      vertex 0 30 4.9
      vertex 20 30 -2.1
      vertex 0 30 -2.1
    endloop
  endfacet
  facet normal 0 -1 0
    outer loop
      vertex 0 0 -0.0999994
      vertex 0 0 -0.1
      vertex 3 0 -0.0999994
    endloop
  endfacet
  facet normal 0 -1 0
    outer loop
      vertex 3 0 -0.0999994
      vertex 20 0 4.9
      vertex 3 0 4.9
    endloop
  endfacet
  facet normal 0 -1 0
    outer loop
      vertex 3 0 -0.1
      vertex 3 0 -0.0999994
      vertex 0 0 -0.1
    endloop
  endfacet
  facet normal 0 -1 0
    outer loop
      vertex 20 0 -2.1
      vertex 3 0 -0.0999994
      vertex 3 0 -0.1
    endloop
  endfacet
  facet normal 0 -1 0
    outer loop
      vertex 20 0 -2.1
      vertex 3 0 -0.1
      vertex 3 0 -1.1
    endloop
  endfacet
  facet normal 0 -1 0
    outer loop
      vertex 20 0 -2.1
      vertex 3 0 -1.1
      vertex 3 0 -2.1
    endloop
  endfacet
  facet normal 0 -1 0
    outer loop
      vertex 3 0 -0.0999994
      vertex 20 0 -2.1
      vertex 20 0 4.9
    endloop
  endfacet
  facet normal 0 0 0
    outer loop
      vertex 20 0 -2.1
      vertex 3 0 -2.1
      vertex 0 0 -2.1
    endloop
  endfacet
  facet normal -1 0 0
    outer loop
      vertex 15 7.5 2.4
      vertex 15 22.5 4.9
      vertex 15 22.5 2.4
    endloop
  endfacet
  facet normal -1 -0 0
    outer loop
      vertex 15 22.5 4.9
      vertex 15 7.5 2.4
      vertex 15 7.5 4.9
    endloop
  endfacet
  facet normal 0 0 1
    outer loop
      vertex 15 22.5 2.4
      vertex 13 15 2.4
      vertex 15 7.5 2.4
    endloop
  endfacet
  facet normal 0 0 1
    outer loop
      vertex 15 22.5 2.4
      vertex 12.9763 15.376 2.4
      vertex 13 15 2.4
    endloop
  endfacet
  facet normal 0 0 1
    outer loop
      vertex 15 22.5 2.4
      vertex 12.9057 15.7461 2.4
      vertex 12.9763 15.376 2.4
    endloop
  endfacet
  facet normal 0 0 1
    outer loop
      vertex 15 22.5 2.4
      vertex 12.7893 16.1044 2.4
      vertex 12.9057 15.7461 2.4
    endloop
  endfacet
  facet normal 0 0 1
    outer loop
      vertex 15 22.5 2.4
      vertex 12.6289 16.4453 2.4
      vertex 12.7893 16.1044 2.4
    endloop
  endfacet
  facet normal 0 0 1
    outer loop
      vertex 15 22.5 2.4
      vertex 12.4271 16.7634 2.4
      vertex 12.6289 16.4453 2.4
    endloop
  endfacet
  facet normal 0 0 1
    outer loop
      vertex 15 22.5 2.4
      vertex 12.1869 17.0536 2.4
      vertex 12.4271 16.7634 2.4
    endloop
  endfacet
  facet normal 0 0 1
    outer loop
      vertex 15 22.5 2.4
      vertex 11.9123 17.3115 2.4
      vertex 12.1869 17.0536 2.4
    endloop
  endfacet
  facet normal 0 0 1
    outer loop
      vertex 15 22.5 2.4
      vertex 11.6075 17.533 2.4
      vertex 11.9123 17.3115 2.4
    endloop
  endfacet
  facet normal 0 0 1
    outer loop
      vertex 15 22.5 2.4
      vertex 11.2773 17.7145 2.4
      vertex 11.6075 17.533 2.4
    endloop
  endfacet
  facet normal 0 0 1
    outer loop
      vertex 15 22.5 2.4
      vertex 10.9271 17.8532 2.4
      vertex 11.2773 17.7145 2.4
    endloop
  endfacet
  facet normal 0 0 1
    outer loop
      vertex 15 22.5 2.4
      vertex 10.5621 17.9469 2.4
      vertex 10.9271 17.8532 2.4
    endloop
  endfacet
  facet normal 0 0 1
    outer loop
      vertex 15 22.5 2.4
      vertex 10.1884 17.9941 2.4
      vertex 10.5621 17.9469 2.4
    endloop
  endfacet
  facet normal 0 0 1
    outer loop
      vertex 15 22.5 2.4
      vertex 9.81163 17.9941 2.4
      vertex 10.1884 17.9941 2.4
    endloop
  endfacet
  facet normal -0 0 1
    outer loop
      vertex 5 22.5 2.4
      vertex 9.81163 17.9941 2.4
      vertex 15 22.5 2.4
    endloop
  endfacet
  facet normal 0 0 1
    outer loop
      vertex 9.81163 17.9941 2.4
      vertex 5 22.5 2.4
      vertex 9.43786 17.9469 2.4
    endloop
  endfacet
  facet normal 0 0 1
    outer loop
      vertex 9.43786 17.9469 2.4
      vertex 5 22.5 2.4
      vertex 9.07295 17.8532 2.4
    endloop
  endfacet
  facet normal 0 0 1
    outer loop
      vertex 9.07295 17.8532 2.4
      vertex 5 22.5 2.4
      vertex 8.72266 17.7145 2.4
    endloop
  endfacet
  facet normal 0 0 1
    outer loop
      vertex 8.72266 17.7145 2.4
      vertex 5 22.5 2.4
      vertex 8.39252 17.533 2.4
    endloop
  endfacet
  facet normal 0 0 1
    outer loop
      vertex 7.02366 15.376 2.4
      vertex 5 22.5 2.4
      vertex 7 15 2.4
    endloop
  endfacet
  facet normal 0 0 1
    outer loop
      vertex 7.09425 15.7461 2.4
      vertex 5 22.5 2.4
      vertex 7.02366 15.376 2.4
    endloop
  endfacet
  facet normal 0 0 1
    outer loop
      vertex 7.21067 16.1044 2.4
      vertex 5 22.5 2.4
      vertex 7.09425 15.7461 2.4
    endloop
  endfacet
  facet normal 0 0 1
    outer loop
      vertex 7.37108 16.4453 2.4
      vertex 5 22.5 2.4
      vertex 7.21067 16.1044 2.4
    endloop
  endfacet
  facet normal 0 0 1
    outer loop
      vertex 7.57295 16.7634 2.4
      vertex 5 22.5 2.4
      vertex 7.37108 16.4453 2.4
    endloop
  endfacet
  facet normal 0 0 1
    outer loop
      vertex 7.81309 17.0536 2.4
      vertex 5 22.5 2.4
      vertex 7.57295 16.7634 2.4
    endloop
  endfacet
  facet normal 0 0 1
    outer loop
      vertex 8.08773 17.3115 2.4
      vertex 5 22.5 2.4
      vertex 7.81309 17.0536 2.4
    endloop
  endfacet
  facet normal 0 0 1
    outer loop
      vertex 8.39252 17.533 2.4
      vertex 5 22.5 2.4
      vertex 8.08773 17.3115 2.4
    endloop
  endfacet
  facet normal -0 0 1
    outer loop
      vertex 12.9763 14.624 2.4
      vertex 15 7.5 2.4
      vertex 13 15 2.4
    endloop
  endfacet
  facet normal -0 0 1
    outer loop
      vertex 12.9057 14.2539 2.4
      vertex 15 7.5 2.4
      vertex 12.9763 14.624 2.4
    endloop
  endfacet
  facet normal -0 0 1
    outer loop
      vertex 12.7893 13.8956 2.4
      vertex 15 7.5 2.4
      vertex 12.9057 14.2539 2.4
    endloop
  endfacet
  facet normal -0 0 1
    outer loop
      vertex 12.6289 13.5547 2.4
      vertex 15 7.5 2.4
      vertex 12.7893 13.8956 2.4
    endloop
  endfacet
  facet normal -0 0 1
    outer loop
      vertex 12.4271 13.2366 2.4
      vertex 15 7.5 2.4
      vertex 12.6289 13.5547 2.4
    endloop
  endfacet
  facet normal -0 0 1
    outer loop
      vertex 12.1869 12.9464 2.4
      vertex 15 7.5 2.4
      vertex 12.4271 13.2366 2.4
    endloop
  endfacet
  facet normal -0 0 1
    outer loop
      vertex 11.9123 12.6885 2.4
      vertex 15 7.5 2.4
      vertex 12.1869 12.9464 2.4
    endloop
  endfacet
  facet normal -0 0 1
    outer loop
      vertex 11.6075 12.467 2.4
      vertex 15 7.5 2.4
      vertex 11.9123 12.6885 2.4
    endloop
  endfacet
  facet normal -0 0 1
    outer loop
      vertex 11.2773 12.2855 2.4
      vertex 15 7.5 2.4
      vertex 11.6075 12.467 2.4
    endloop
  endfacet
  facet normal -0 0 1
    outer loop
      vertex 10.9271 12.1468 2.4
      vertex 15 7.5 2.4
      vertex 11.2773 12.2855 2.4
    endloop
  endfacet
  facet normal -0 0 1
    outer loop
      vertex 10.5621 12.0531 2.4
      vertex 15 7.5 2.4
      vertex 10.9271 12.1468 2.4
    endloop
  endfacet
  facet normal -0 0 1
    outer loop
      vertex 10.1884 12.0059 2.4
      vertex 15 7.5 2.4
      vertex 10.5621 12.0531 2.4
    endloop
  endfacet
  facet normal -0 0 1
    outer loop
      vertex 9.81163 12.0059 2.4
      vertex 15 7.5 2.4
      vertex 10.1884 12.0059 2.4
    endloop
  endfacet
  facet normal 0 0 1
    outer loop
      vertex 5 7.5 2.4
      vertex 9.81163 12.0059 2.4
      vertex 9.43786 12.0531 2.4
    endloop
  endfacet
  facet normal 0 0 1
    outer loop
      vertex 5 7.5 2.4
      vertex 9.43786 12.0531 2.4
      vertex 9.07295 12.1468 2.4
    endloop
  endfacet
  facet normal 0 0 1
    outer loop
      vertex 5 7.5 2.4
      vertex 9.07295 12.1468 2.4
      vertex 8.72266 12.2855 2.4
    endloop
  endfacet
  facet normal 0 0 1
    outer loop
      vertex 5 7.5 2.4
      vertex 8.72266 12.2855 2.4
      vertex 8.39252 12.467 2.4
    endloop
  endfacet
  facet normal 0 0 1
    outer loop
      vertex 5 7.5 2.4
      vertex 8.39252 12.467 2.4
      vertex 8.08773 12.6885 2.4
    endloop
  endfacet
  facet normal 0 0 1
    outer loop
      vertex 5 7.5 2.4
      vertex 7 15 2.4
      vertex 5 22.5 2.4
    endloop
  endfacet
  facet normal 0 0 1
    outer loop
      vertex 7 15 2.4
      vertex 5 7.5 2.4
      vertex 7.02366 14.624 2.4
    endloop
  endfacet
  facet normal 0 0 1
    outer loop
      vertex 9.81163 12.0059 2.4
      vertex 5 7.5 2.4
      vertex 15 7.5 2.4
    endloop
  endfacet
  facet normal 0 0 1
    outer loop
      vertex 7.81309 12.9464 2.4
      vertex 5 7.5 2.4
      vertex 8.08773 12.6885 2.4
    endloop
  endfacet
  facet normal 0 0 1
    outer loop
      vertex 7.57295 13.2366 2.4
      vertex 5 7.5 2.4
      vertex 7.81309 12.9464 2.4
    endloop
  endfacet
  facet normal 0 0 1
    outer loop
      vertex 7.37108 13.5547 2.4
      vertex 5 7.5 2.4
      vertex 7.57295 13.2366 2.4
    endloop
  endfacet
  facet normal 0 0 1
    outer loop
      vertex 7.21067 13.8956 2.4
      vertex 5 7.5 2.4
      vertex 7.37108 13.5547 2.4
    endloop
  endfacet
  facet normal 0 0 1
    outer loop
      vertex 7.09425 14.2539 2.4
      vertex 5 7.5 2.4
      vertex 7.21067 13.8956 2.4
    endloop
  endfacet
  facet normal 0 0 1
    outer loop
      vertex 7.02366 14.624 2.4
      vertex 5 7.5 2.4
      vertex 7.09425 14.2539 2.4
    endloop
  endfacet
  facet normal 1 -0 0
    outer loop
      vertex 5 7.5 4.9
      vertex 5 22.5 2.4
      vertex 5 22.5 4.9
    endloop
  endfacet
  facet normal 1 0 0
    outer loop
      vertex 5 22.5 2.4
      vertex 5 7.5 4.9
      vertex 5 7.5 2.4
    endloop
  endfacet
  facet normal 0 -1 0
    outer loop
      vertex 5 22.5 2.4
      vertex 15 22.5 4.9
      vertex 5 22.5 4.9
    endloop
  endfacet
  facet normal 0 -1 -0
    outer loop
      vertex 15 22.5 4.9
      vertex 5 22.5 2.4
      vertex 15 22.5 2.4
    endloop
  endfacet
  facet normal 0 1 -0
    outer loop
      vertex 15 7.5 2.4
      vertex 5 7.5 4.9
      vertex 15 7.5 4.9
    endloop
  endfacet
  facet normal 0 1 0
    outer loop
      vertex 5 7.5 4.9
      vertex 15 7.5 2.4
      vertex 5 7.5 2.4
    endloop
  endfacet
  facet normal 0.982287 0.18738 0
    outer loop
      vertex 12.9763 15.376 29.9
      vertex 12.9057 15.7461 2.4
      vertex 12.9057 15.7461 29.9
    endloop
  endfacet
  facet normal 0.982287 0.18738 0
    outer loop
      vertex 12.9057 15.7461 2.4
      vertex 12.9763 15.376 29.9
      vertex 12.9763 15.376 2.4
    endloop
  endfacet
  facet normal 0.998019 0.0629071 0
    outer loop
      vertex 13 15 29.9
      vertex 12.9763 15.376 2.4
      vertex 12.9763 15.376 29.9
    endloop
  endfacet
  facet normal 0.998019 0.0629071 0
    outer loop
      vertex 12.9763 15.376 2.4
      vertex 13 15 29.9
      vertex 13 15 2.4
    endloop
  endfacet
  facet normal 0.36823 0.929735 -0
    outer loop
      vertex 11.2773 17.7145 2.4
      vertex 10.9271 17.8532 29.9
      vertex 11.2773 17.7145 29.9
    endloop
  endfacet
  facet normal 0.36823 0.929735 0
    outer loop
      vertex 10.9271 17.8532 29.9
      vertex 11.2773 17.7145 2.4
      vertex 10.9271 17.8532 2.4
    endloop
  endfacet
  facet normal -0.368148 0.929767 0
    outer loop
      vertex 9.07295 17.8532 2.4
      vertex 8.72266 17.7145 29.9
      vertex 9.07295 17.8532 29.9
    endloop
  endfacet
  facet normal -0.368148 0.929767 0
    outer loop
      vertex 8.72266 17.7145 29.9
      vertex 9.07295 17.8532 2.4
      vertex 8.72266 17.7145 2.4
    endloop
  endfacet
  facet normal -0.587884 -0.808945 0
    outer loop
      vertex 8.08773 12.6885 2.4
      vertex 8.39252 12.467 29.9
      vertex 8.08773 12.6885 29.9
    endloop
  endfacet
  facet normal -0.587884 -0.808945 -0
    outer loop
      vertex 8.39252 12.467 29.9
      vertex 8.08773 12.6885 2.4
      vertex 8.39252 12.467 2.4
    endloop
  endfacet
  facet normal 0.684594 0.728924 -0
    outer loop
      vertex 12.1869 17.0536 2.4
      vertex 11.9123 17.3115 29.9
      vertex 12.1869 17.0536 29.9
    endloop
  endfacet
  facet normal 0.684594 0.728924 0
    outer loop
      vertex 11.9123 17.3115 29.9
      vertex 12.1869 17.0536 2.4
      vertex 11.9123 17.3115 2.4
    endloop
  endfacet
  facet normal 0.587872 0.808954 -0
    outer loop
      vertex 11.9123 17.3115 2.4
      vertex 11.6075 17.533 29.9
      vertex 11.9123 17.3115 29.9
    endloop
  endfacet
  facet normal 0.587872 0.808954 0
    outer loop
      vertex 11.6075 17.533 29.9
      vertex 11.9123 17.3115 2.4
      vertex 11.6075 17.533 2.4
    endloop
  endfacet
  facet normal 0.998019 -0.0629071 0
    outer loop
      vertex 12.9763 14.624 29.9
      vertex 13 15 2.4
      vertex 13 15 29.9
    endloop
  endfacet
  facet normal 0.998019 -0.0629071 0
    outer loop
      vertex 13 15 2.4
      vertex 12.9763 14.624 29.9
      vertex 12.9763 14.624 2.4
    endloop
  endfacet
  facet normal 0 0 1
    outer loop
      vertex 12.9763 15.376 29.9
      vertex 12.9763 14.624 29.9
      vertex 13 15 29.9
    endloop
  endfacet
  facet normal 0 0 1
    outer loop
      vertex 12.9057 15.7461 29.9
      vertex 12.9763 14.624 29.9
      vertex 12.9763 15.376 29.9
    endloop
  endfacet
  facet normal 0 0 1
    outer loop
      vertex 12.9057 15.7461 29.9
      vertex 12.9057 14.2539 29.9
      vertex 12.9763 14.624 29.9
    endloop
  endfacet
  facet normal 0 0 1
    outer loop
      vertex 12.7893 16.1044 29.9
      vertex 12.9057 14.2539 29.9
      vertex 12.9057 15.7461 29.9
    endloop
  endfacet
  facet normal 0 0 1
    outer loop
      vertex 12.7893 16.1044 29.9
      vertex 12.7893 13.8956 29.9
      vertex 12.9057 14.2539 29.9
    endloop
  endfacet
  facet normal 0 0 1
    outer loop
      vertex 12.6289 16.4453 29.9
      vertex 12.7893 13.8956 29.9
      vertex 12.7893 16.1044 29.9
    endloop
  endfacet
  facet normal 0 0 1
    outer loop
      vertex 12.6289 16.4453 29.9
      vertex 12.6289 13.5547 29.9
      vertex 12.7893 13.8956 29.9
    endloop
  endfacet
  facet normal 0 0 1
    outer loop
      vertex 12.4271 16.7634 29.9
      vertex 12.6289 13.5547 29.9
      vertex 12.6289 16.4453 29.9
    endloop
  endfacet
  facet normal 0 0 1
    outer loop
      vertex 12.4271 16.7634 29.9
      vertex 12.4271 13.2366 29.9
      vertex 12.6289 13.5547 29.9
    endloop
  endfacet
  facet normal 0 0 1
    outer loop
      vertex 12.1869 17.0536 29.9
      vertex 12.4271 13.2366 29.9
      vertex 12.4271 16.7634 29.9
    endloop
  endfacet
  facet normal 0 0 1
    outer loop
      vertex 12.1869 17.0536 29.9
      vertex 12.1869 12.9464 29.9
      vertex 12.4271 13.2366 29.9
    endloop
  endfacet
  facet normal 0 0 1
    outer loop
      vertex 11.9123 17.3115 29.9
      vertex 12.1869 12.9464 29.9
      vertex 12.1869 17.0536 29.9
    endloop
  endfacet
  facet normal 0 0 1
    outer loop
      vertex 11.9123 17.3115 29.9
      vertex 11.9123 12.6885 29.9
      vertex 12.1869 12.9464 29.9
    endloop
  endfacet
  facet normal 0 0 1
    outer loop
      vertex 11.6075 17.533 29.9
      vertex 11.9123 12.6885 29.9
      vertex 11.9123 17.3115 29.9
    endloop
  endfacet
  facet normal 0 0 1
    outer loop
      vertex 11.6075 17.533 29.9
      vertex 11.6075 12.467 29.9
      vertex 11.9123 12.6885 29.9
    endloop
  endfacet
  facet normal 0 0 1
    outer loop
      vertex 11.2773 17.7145 29.9
      vertex 11.6075 12.467 29.9
      vertex 11.6075 17.533 29.9
    endloop
  endfacet
  facet normal 0 0 1
    outer loop
      vertex 11.2773 17.7145 29.9
      vertex 11.2773 12.2855 29.9
      vertex 11.6075 12.467 29.9
    endloop
  endfacet
  facet normal 0 0 1
    outer loop
      vertex 10.9271 17.8532 29.9
      vertex 11.2773 12.2855 29.9
      vertex 11.2773 17.7145 29.9
    endloop
  endfacet
  facet normal 0 0 1
    outer loop
      vertex 10.9271 17.8532 29.9
      vertex 10.9271 12.1468 29.9
      vertex 11.2773 12.2855 29.9
    endloop
  endfacet
  facet normal 0 0 1
    outer loop
      vertex 10.5621 17.9469 29.9
      vertex 10.9271 12.1468 29.9
      vertex 10.9271 17.8532 29.9
    endloop
  endfacet
  facet normal 0 0 1
    outer loop
      vertex 10.5621 17.9469 29.9
      vertex 10.5621 12.0531 29.9
      vertex 10.9271 12.1468 29.9
    endloop
  endfacet
  facet normal 0 0 1
    outer loop
      vertex 10.1884 17.9941 29.9
      vertex 10.5621 12.0531 29.9
      vertex 10.5621 17.9469 29.9
    endloop
  endfacet
  facet normal 0 0 1
    outer loop
      vertex 10.1884 17.9941 29.9
      vertex 10.1884 12.0059 29.9
      vertex 10.5621 12.0531 29.9
    endloop
  endfacet
  facet normal -0 0 1
    outer loop
      vertex 9.81163 17.9941 29.9
      vertex 10.1884 12.0059 29.9
      vertex 10.1884 17.9941 29.9
    endloop
  endfacet
  facet normal 0 0 1
    outer loop
      vertex 9.81163 17.9941 29.9
      vertex 9.81163 12.0059 29.9
      vertex 10.1884 12.0059 29.9
    endloop
  endfacet
  facet normal -0 0 1
    outer loop
      vertex 9.43786 17.9469 29.9
      vertex 9.81163 12.0059 29.9
      vertex 9.81163 17.9941 29.9
    endloop
  endfacet
  facet normal 0 0 1
    outer loop
      vertex 9.43786 17.9469 29.9
      vertex 9.43786 12.0531 29.9
      vertex 9.81163 12.0059 29.9
    endloop
  endfacet
  facet normal -0 0 1
    outer loop
      vertex 9.07295 17.8532 29.9
      vertex 9.43786 12.0531 29.9
      vertex 9.43786 17.9469 29.9
    endloop
  endfacet
  facet normal 0 0 1
    outer loop
      vertex 9.07295 17.8532 29.9
      vertex 9.07295 12.1468 29.9
      vertex 9.43786 12.0531 29.9
    endloop
  endfacet
  facet normal -0 0 1
    outer loop
      vertex 8.72266 17.7145 29.9
      vertex 9.07295 12.1468 29.9
      vertex 9.07295 17.8532 29.9
    endloop
  endfacet
  facet normal 0 0 1
    outer loop
      vertex 8.72266 17.7145 29.9
      vertex 8.72266 12.2855 29.9
      vertex 9.07295 12.1468 29.9
    endloop
  endfacet
  facet normal -0 0 1
    outer loop
      vertex 8.39252 17.533 29.9
      vertex 8.72266 12.2855 29.9
      vertex 8.72266 17.7145 29.9
    endloop
  endfacet
  facet normal 0 0 1
    outer loop
      vertex 8.39252 17.533 29.9
      vertex 8.39252 12.467 29.9
      vertex 8.72266 12.2855 29.9
    endloop
  endfacet
  facet normal -0 0 1
    outer loop
      vertex 8.08773 17.3115 29.9
      vertex 8.39252 12.467 29.9
      vertex 8.39252 17.533 29.9
    endloop
  endfacet
  facet normal 0 0 1
    outer loop
      vertex 8.08773 17.3115 29.9
      vertex 8.08773 12.6885 29.9
      vertex 8.39252 12.467 29.9
    endloop
  endfacet
  facet normal -0 0 1
    outer loop
      vertex 7.81309 17.0536 29.9
      vertex 8.08773 12.6885 29.9
      vertex 8.08773 17.3115 29.9
    endloop
  endfacet
  facet normal 0 0 1
    outer loop
      vertex 7.81309 17.0536 29.9
      vertex 7.81309 12.9464 29.9
      vertex 8.08773 12.6885 29.9
    endloop
  endfacet
  facet normal -0 0 1
    outer loop
      vertex 7.57295 16.7634 29.9
      vertex 7.81309 12.9464 29.9
      vertex 7.81309 17.0536 29.9
    endloop
  endfacet
  facet normal 0 0 1
    outer loop
      vertex 7.57295 16.7634 29.9
      vertex 7.57295 13.2366 29.9
      vertex 7.81309 12.9464 29.9
    endloop
  endfacet
  facet normal -0 0 1
    outer loop
      vertex 7.37108 16.4453 29.9
      vertex 7.57295 13.2366 29.9
      vertex 7.57295 16.7634 29.9
    endloop
  endfacet
  facet normal 0 0 1
    outer loop
      vertex 7.37108 16.4453 29.9
      vertex 7.37108 13.5547 29.9
      vertex 7.57295 13.2366 29.9
    endloop
  endfacet
  facet normal -0 0 1
    outer loop
      vertex 7.21067 16.1044 29.9
      vertex 7.37108 13.5547 29.9
      vertex 7.37108 16.4453 29.9
    endloop
  endfacet
  facet normal 0 0 1
    outer loop
      vertex 7.21067 16.1044 29.9
      vertex 7.21067 13.8956 29.9
      vertex 7.37108 13.5547 29.9
    endloop
  endfacet
  facet normal -0 0 1
    outer loop
      vertex 7.09425 15.7461 29.9
      vertex 7.21067 13.8956 29.9
      vertex 7.21067 16.1044 29.9
    endloop
  endfacet
  facet normal 0 0 1
    outer loop
      vertex 7.09425 15.7461 29.9
      vertex 7.09425 14.2539 29.9
      vertex 7.21067 13.8956 29.9
    endloop
  endfacet
  facet normal -0 0 1
    outer loop
      vertex 7.02366 15.376 29.9
      vertex 7.09425 14.2539 29.9
      vertex 7.09425 15.7461 29.9
    endloop
  endfacet
  facet normal 0 0 1
    outer loop
      vertex 7.02366 15.376 29.9
      vertex 7.02366 14.624 29.9
      vertex 7.09425 14.2539 29.9
    endloop
  endfacet
  facet normal 0 -0 1
    outer loop
      vertex 7.02366 14.624 29.9
      vertex 7.02366 15.376 29.9
      vertex 7 15 29.9
    endloop
  endfacet
  facet normal 0.904843 -0.425746 0
    outer loop
      vertex 12.6289 13.5547 29.9
      vertex 12.7893 13.8956 2.4
      vertex 12.7893 13.8956 29.9
    endloop
  endfacet
  facet normal 0.904843 -0.425746 0
    outer loop
      vertex 12.7893 13.8956 2.4
      vertex 12.6289 13.5547 29.9
      vertex 12.6289 13.5547 2.4
    endloop
  endfacet
  facet normal -0.481762 -0.876302 0
    outer loop
      vertex 8.39252 12.467 2.4
      vertex 8.72266 12.2855 29.9
      vertex 8.39252 12.467 29.9
    endloop
  endfacet
  facet normal -0.481762 -0.876302 -0
    outer loop
      vertex 8.72266 12.2855 29.9
      vertex 8.39252 12.467 2.4
      vertex 8.72266 12.2855 2.4
    endloop
  endfacet
  facet normal 0.587872 -0.808954 0
    outer loop
      vertex 11.6075 12.467 2.4
      vertex 11.9123 12.6885 29.9
      vertex 11.6075 12.467 29.9
    endloop
  endfacet
  facet normal 0.587872 -0.808954 0
    outer loop
      vertex 11.9123 12.6885 29.9
      vertex 11.6075 12.467 2.4
      vertex 11.9123 12.6885 2.4
    endloop
  endfacet
  facet normal 0.481695 0.876339 -0
    outer loop
      vertex 11.6075 17.533 2.4
      vertex 11.2773 17.7145 29.9
      vertex 11.6075 17.533 29.9
    endloop
  endfacet
  facet normal 0.481695 0.876339 0
    outer loop
      vertex 11.2773 17.7145 29.9
      vertex 11.6075 17.533 2.4
      vertex 11.2773 17.7145 2.4
    endloop
  endfacet
  facet normal -0.587884 0.808945 0
    outer loop
      vertex 8.39252 17.533 2.4
      vertex 8.08773 17.3115 29.9
      vertex 8.39252 17.533 29.9
    endloop
  endfacet
  facet normal -0.587884 0.808945 0
    outer loop
      vertex 8.08773 17.3115 29.9
      vertex 8.39252 17.533 2.4
      vertex 8.08773 17.3115 2.4
    endloop
  endfacet
  facet normal 0.844415 -0.53569 0
    outer loop
      vertex 12.4271 13.2366 29.9
      vertex 12.6289 13.5547 2.4
      vertex 12.6289 13.5547 29.9
    endloop
  endfacet
  facet normal 0.844415 -0.53569 0
    outer loop
      vertex 12.6289 13.5547 2.4
      vertex 12.4271 13.2366 29.9
      vertex 12.4271 13.2366 2.4
    endloop
  endfacet
  facet normal -0.125286 0.992121 0
    outer loop
      vertex 9.81163 17.9941 2.4
      vertex 9.43786 17.9469 29.9
      vertex 9.81163 17.9941 29.9
    endloop
  endfacet
  facet normal -0.125286 0.992121 0
    outer loop
      vertex 9.43786 17.9469 29.9
      vertex 9.81163 17.9941 2.4
      vertex 9.43786 17.9469 2.4
    endloop
  endfacet
  facet normal -0.684541 -0.728974 0
    outer loop
      vertex 7.81309 12.9464 2.4
      vertex 8.08773 12.6885 29.9
      vertex 7.81309 12.9464 29.9
    endloop
  endfacet
  facet normal -0.684541 -0.728974 -0
    outer loop
      vertex 8.08773 12.6885 29.9
      vertex 7.81309 12.9464 2.4
      vertex 8.08773 12.6885 2.4
    endloop
  endfacet
  facet normal 0.770349 -0.637622 0
    outer loop
      vertex 12.1869 12.9464 29.9
      vertex 12.4271 13.2366 2.4
      vertex 12.4271 13.2366 29.9
    endloop
  endfacet
  facet normal 0.770349 -0.637622 0
    outer loop
      vertex 12.4271 13.2366 2.4
      vertex 12.1869 12.9464 29.9
      vertex 12.1869 12.9464 2.4
    endloop
  endfacet
  facet normal 0.951071 0.308972 0
    outer loop
      vertex 12.9057 15.7461 29.9
      vertex 12.7893 16.1044 2.4
      vertex 12.7893 16.1044 29.9
    endloop
  endfacet
  facet normal 0.951071 0.308972 0
    outer loop
      vertex 12.7893 16.1044 2.4
      vertex 12.9057 15.7461 29.9
      vertex 12.9057 15.7461 2.4
    endloop
  endfacet
  facet normal 0.24865 -0.968593 0
    outer loop
      vertex 10.5621 12.0531 2.4
      vertex 10.9271 12.1468 29.9
      vertex 10.5621 12.0531 29.9
    endloop
  endfacet
  facet normal 0.24865 -0.968593 0
    outer loop
      vertex 10.9271 12.1468 29.9
      vertex 10.5621 12.0531 2.4
      vertex 10.9271 12.1468 2.4
    endloop
  endfacet
  facet normal -0.481762 0.876302 0
    outer loop
      vertex 8.72266 17.7145 2.4
      vertex 8.39252 17.533 29.9
      vertex 8.72266 17.7145 29.9
    endloop
  endfacet
  facet normal -0.481762 0.876302 0
    outer loop
      vertex 8.39252 17.533 29.9
      vertex 8.72266 17.7145 2.4
      vertex 8.39252 17.533 2.4
    endloop
  endfacet
  facet normal 0.36823 -0.929735 0
    outer loop
      vertex 10.9271 12.1468 2.4
      vertex 11.2773 12.2855 29.9
      vertex 10.9271 12.1468 29.9
    endloop
  endfacet
  facet normal 0.36823 -0.929735 0
    outer loop
      vertex 11.2773 12.2855 29.9
      vertex 10.9271 12.1468 2.4
      vertex 11.2773 12.2855 2.4
    endloop
  endfacet
  facet normal -0.844331 0.535822 0
    outer loop
      vertex 7.37108 16.4453 2.4
      vertex 7.57295 16.7634 29.9
      vertex 7.57295 16.7634 2.4
    endloop
  endfacet
  facet normal -0.844331 0.535822 0
    outer loop
      vertex 7.57295 16.7634 29.9
      vertex 7.37108 16.4453 2.4
      vertex 7.37108 16.4453 29.9
    endloop
  endfacet
  facet normal -0.368148 -0.929767 0
    outer loop
      vertex 8.72266 12.2855 2.4
      vertex 9.07295 12.1468 29.9
      vertex 8.72266 12.2855 29.9
    endloop
  endfacet
  facet normal -0.368148 -0.929767 -0
    outer loop
      vertex 9.07295 12.1468 29.9
      vertex 8.72266 12.2855 2.4
      vertex 9.07295 12.1468 2.4
    endloop
  endfacet
  facet normal 0.844415 0.53569 0
    outer loop
      vertex 12.6289 16.4453 29.9
      vertex 12.4271 16.7634 2.4
      vertex 12.4271 16.7634 29.9
    endloop
  endfacet
  facet normal 0.844415 0.53569 0
    outer loop
      vertex 12.4271 16.7634 2.4
      vertex 12.6289 16.4453 29.9
      vertex 12.6289 16.4453 2.4
    endloop
  endfacet
  facet normal 0 -1 0
    outer loop
      vertex 9.81163 12.0059 2.4
      vertex 10.1884 12.0059 29.9
      vertex 9.81163 12.0059 29.9
    endloop
  endfacet
  facet normal 0 -1 -0
    outer loop
      vertex 10.1884 12.0059 29.9
      vertex 9.81163 12.0059 2.4
      vertex 10.1884 12.0059 2.4
    endloop
  endfacet
  facet normal 0 1 -0
    outer loop
      vertex 10.1884 17.9941 2.4
      vertex 9.81163 17.9941 29.9
      vertex 10.1884 17.9941 29.9
    endloop
  endfacet
  facet normal 0 1 0
    outer loop
      vertex 9.81163 17.9941 29.9
      vertex 10.1884 17.9941 2.4
      vertex 9.81163 17.9941 2.4
    endloop
  endfacet
  facet normal 0.951071 -0.308972 0
    outer loop
      vertex 12.7893 13.8956 29.9
      vertex 12.9057 14.2539 2.4
      vertex 12.9057 14.2539 29.9
    endloop
  endfacet
  facet normal 0.951071 -0.308972 0
    outer loop
      vertex 12.9057 14.2539 2.4
      vertex 12.7893 13.8956 29.9
      vertex 12.7893 13.8956 2.4
    endloop
  endfacet
  facet normal -0.248707 -0.968579 0
    outer loop
      vertex 9.07295 12.1468 2.4
      vertex 9.43786 12.0531 29.9
      vertex 9.07295 12.1468 29.9
    endloop
  endfacet
  facet normal -0.248707 -0.968579 -0
    outer loop
      vertex 9.43786 12.0531 29.9
      vertex 9.07295 12.1468 2.4
      vertex 9.43786 12.0531 2.4
    endloop
  endfacet
  facet normal -0.904833 -0.425768 0
    outer loop
      vertex 7.37108 13.5547 2.4
      vertex 7.21067 13.8956 29.9
      vertex 7.21067 13.8956 2.4
    endloop
  endfacet
  facet normal -0.904833 -0.425768 0
    outer loop
      vertex 7.21067 13.8956 29.9
      vertex 7.37108 13.5547 2.4
      vertex 7.37108 13.5547 29.9
    endloop
  endfacet
  facet normal 0.982287 -0.18738 0
    outer loop
      vertex 12.9057 14.2539 29.9
      vertex 12.9763 14.624 2.4
      vertex 12.9763 14.624 29.9
    endloop
  endfacet
  facet normal 0.982287 -0.18738 0
    outer loop
      vertex 12.9763 14.624 2.4
      vertex 12.9057 14.2539 29.9
      vertex 12.9057 14.2539 2.4
    endloop
  endfacet
  facet normal -0.248707 0.968579 0
    outer loop
      vertex 9.43786 17.9469 2.4
      vertex 9.07295 17.8532 29.9
      vertex 9.43786 17.9469 29.9
    endloop
  endfacet
  facet normal -0.248707 0.968579 0
    outer loop
      vertex 9.07295 17.8532 29.9
      vertex 9.43786 17.9469 2.4
      vertex 9.07295 17.8532 2.4
    endloop
  endfacet
  facet normal 0.125309 0.992118 -0
    outer loop
      vertex 10.5621 17.9469 2.4
      vertex 10.1884 17.9941 29.9
      vertex 10.5621 17.9469 29.9
    endloop
  endfacet
  facet normal 0.125309 0.992118 0
    outer loop
      vertex 10.1884 17.9941 29.9
      vertex 10.5621 17.9469 2.4
      vertex 10.1884 17.9941 2.4
    endloop
  endfacet
  facet normal 0.481695 -0.876339 0
    outer loop
      vertex 11.2773 12.2855 2.4
      vertex 11.6075 12.467 29.9
      vertex 11.2773 12.2855 29.9
    endloop
  endfacet
  facet normal 0.481695 -0.876339 0
    outer loop
      vertex 11.6075 12.467 29.9
      vertex 11.2773 12.2855 2.4
      vertex 11.6075 12.467 2.4
    endloop
  endfacet
  facet normal 0.904843 0.425746 0
    outer loop
      vertex 12.7893 16.1044 29.9
      vertex 12.6289 16.4453 2.4
      vertex 12.6289 16.4453 29.9
    endloop
  endfacet
  facet normal 0.904843 0.425746 0
    outer loop
      vertex 12.6289 16.4453 2.4
      vertex 12.7893 16.1044 29.9
      vertex 12.7893 16.1044 2.4
    endloop
  endfacet
  facet normal -0.998026 0.0628013 0
    outer loop
      vertex 7 15 2.4
      vertex 7.02366 15.376 29.9
      vertex 7.02366 15.376 2.4
    endloop
  endfacet
  facet normal -0.998026 0.0628013 0
    outer loop
      vertex 7.02366 15.376 29.9
      vertex 7 15 2.4
      vertex 7 15 29.9
    endloop
  endfacet
  facet normal 0.684594 -0.728924 0
    outer loop
      vertex 11.9123 12.6885 2.4
      vertex 12.1869 12.9464 29.9
      vertex 11.9123 12.6885 29.9
    endloop
  endfacet
  facet normal 0.684594 -0.728924 0
    outer loop
      vertex 12.1869 12.9464 29.9
      vertex 11.9123 12.6885 2.4
      vertex 12.1869 12.9464 2.4
    endloop
  endfacet
  facet normal -0.982292 -0.187355 0
    outer loop
      vertex 7.09425 14.2539 2.4
      vertex 7.02366 14.624 29.9
      vertex 7.02366 14.624 2.4
    endloop
  endfacet
  facet normal -0.982292 -0.187355 0
    outer loop
      vertex 7.02366 14.624 29.9
      vertex 7.09425 14.2539 2.4
      vertex 7.09425 14.2539 29.9
    endloop
  endfacet
  facet normal -0.770428 0.637528 0
    outer loop
      vertex 7.57295 16.7634 2.4
      vertex 7.81309 17.0536 29.9
      vertex 7.81309 17.0536 2.4
    endloop
  endfacet
  facet normal -0.770428 0.637528 0
    outer loop
      vertex 7.81309 17.0536 29.9
      vertex 7.57295 16.7634 2.4
      vertex 7.57295 16.7634 29.9
    endloop
  endfacet
  facet normal 0.770349 0.637622 0
    outer loop
      vertex 12.4271 16.7634 29.9
      vertex 12.1869 17.0536 2.4
      vertex 12.1869 17.0536 29.9
    endloop
  endfacet
  facet normal 0.770349 0.637622 0
    outer loop
      vertex 12.1869 17.0536 2.4
      vertex 12.4271 16.7634 29.9
      vertex 12.4271 16.7634 2.4
    endloop
  endfacet
  facet normal -0.684541 0.728974 0
    outer loop
      vertex 8.08773 17.3115 2.4
      vertex 7.81309 17.0536 29.9
      vertex 8.08773 17.3115 29.9
    endloop
  endfacet
  facet normal -0.684541 0.728974 0
    outer loop
      vertex 7.81309 17.0536 29.9
      vertex 8.08773 17.3115 2.4
      vertex 7.81309 17.0536 2.4
    endloop
  endfacet
  facet normal -0.125286 -0.992121 0
    outer loop
      vertex 9.43786 12.0531 2.4
      vertex 9.81163 12.0059 29.9
      vertex 9.43786 12.0531 29.9
    endloop
  endfacet
  facet normal -0.125286 -0.992121 -0
    outer loop
      vertex 9.81163 12.0059 29.9
      vertex 9.43786 12.0531 2.4
      vertex 9.81163 12.0059 2.4
    endloop
  endfacet
  facet normal -0.951056 -0.30902 0
    outer loop
      vertex 7.21067 13.8956 2.4
      vertex 7.09425 14.2539 29.9
      vertex 7.09425 14.2539 2.4
    endloop
  endfacet
  facet normal -0.951056 -0.30902 0
    outer loop
      vertex 7.09425 14.2539 29.9
      vertex 7.21067 13.8956 2.4
      vertex 7.21067 13.8956 29.9
    endloop
  endfacet
  facet normal -0.998026 -0.0628013 0
    outer loop
      vertex 7.02366 14.624 2.4
      vertex 7 15 29.9
      vertex 7 15 2.4
    endloop
  endfacet
  facet normal -0.998026 -0.0628013 0
    outer loop
      vertex 7 15 29.9
      vertex 7.02366 14.624 2.4
      vertex 7.02366 14.624 29.9
    endloop
  endfacet
  facet normal 0.125309 -0.992118 0
    outer loop
      vertex 10.1884 12.0059 2.4
      vertex 10.5621 12.0531 29.9
      vertex 10.1884 12.0059 29.9
    endloop
  endfacet
  facet normal 0.125309 -0.992118 0
    outer loop
      vertex 10.5621 12.0531 29.9
      vertex 10.1884 12.0059 2.4
      vertex 10.5621 12.0531 2.4
    endloop
  endfacet
  facet normal -0.904833 0.425768 0
    outer loop
      vertex 7.21067 16.1044 2.4
      vertex 7.37108 16.4453 29.9
      vertex 7.37108 16.4453 2.4
    endloop
  endfacet
  facet normal -0.904833 0.425768 0
    outer loop
      vertex 7.37108 16.4453 29.9
      vertex 7.21067 16.1044 2.4
      vertex 7.21067 16.1044 29.9
    endloop
  endfacet
  facet normal 0.24865 0.968593 -0
    outer loop
      vertex 10.9271 17.8532 2.4
      vertex 10.5621 17.9469 29.9
      vertex 10.9271 17.8532 29.9
    endloop
  endfacet
  facet normal 0.24865 0.968593 0
    outer loop
      vertex 10.5621 17.9469 29.9
      vertex 10.9271 17.8532 2.4
      vertex 10.5621 17.9469 2.4
    endloop
  endfacet
  facet normal -0.982292 0.187355 0
    outer loop
      vertex 7.02366 15.376 2.4
      vertex 7.09425 15.7461 29.9
      vertex 7.09425 15.7461 2.4
    endloop
  endfacet
  facet normal -0.982292 0.187355 0
    outer loop
      vertex 7.09425 15.7461 29.9
      vertex 7.02366 15.376 2.4
      vertex 7.02366 15.376 29.9
    endloop
  endfacet
  facet normal -0.844331 -0.535822 0
    outer loop
      vertex 7.57295 13.2366 2.4
      vertex 7.37108 13.5547 29.9
      vertex 7.37108 13.5547 2.4
    endloop
  endfacet
  facet normal -0.844331 -0.535822 0
    outer loop
      vertex 7.37108 13.5547 29.9
      vertex 7.57295 13.2366 2.4
      vertex 7.57295 13.2366 29.9
    endloop
  endfacet
  facet normal -0.770428 -0.637528 0
    outer loop
      vertex 7.81309 12.9464 2.4
      vertex 7.57295 13.2366 29.9
      vertex 7.57295 13.2366 2.4
    endloop
  endfacet
  facet normal -0.770428 -0.637528 0
    outer loop
      vertex 7.57295 13.2366 29.9
      vertex 7.81309 12.9464 2.4
      vertex 7.81309 12.9464 29.9
    endloop
  endfacet
  facet normal -0.951056 0.30902 0
    outer loop
      vertex 7.09425 15.7461 2.4
      vertex 7.21067 16.1044 29.9
      vertex 7.21067 16.1044 2.4
    endloop
  endfacet
  facet normal -0.951056 0.30902 0
    outer loop
      vertex 7.21067 16.1044 29.9
      vertex 7.09425 15.7461 2.4
      vertex 7.09425 15.7461 29.9
    endloop
  endfacet
  facet normal -0.98229 -0.187369 0
    outer loop
      vertex 2.97634 0.375999 -1.1
      vertex 2.90575 0.746069 -0.1
      vertex 2.90575 0.746069 -1.1
    endloop
  endfacet
  facet normal -0.98229 -0.187369 0
    outer loop
      vertex 2.90575 0.746069 -0.1
      vertex 2.97634 0.375999 -1.1
      vertex 2.97634 0.375999 -0.1
    endloop
  endfacet
  facet normal -0.98229 -0.187369 0
    outer loop
      vertex 2.97634 0.375999 -0.0999994
      vertex 2.90575 0.746069 4.9
      vertex 2.90575 0.746069 -0.0999994
    endloop
  endfacet
  facet normal -0.98229 -0.187369 0
    outer loop
      vertex 2.90575 0.746069 4.9
      vertex 2.97634 0.375999 -0.0999994
      vertex 2.97634 0.375999 4.9
    endloop
  endfacet
  facet normal -0.98229 -0.187369 0
    outer loop
      vertex 2.97634 0.375999 -2.1
      vertex 2.90575 0.746069 -1.1
      vertex 2.90575 0.746069 -2.1
    endloop
  endfacet
  facet normal -0.98229 -0.187369 0
    outer loop
      vertex 2.90575 0.746069 -1.1
      vertex 2.97634 0.375999 -2.1
      vertex 2.97634 0.375999 -1.1
    endloop
  endfacet
  facet normal -0.998026 -0.0628015 0
    outer loop
      vertex 3 0 -1.1
      vertex 2.97634 0.375999 -0.1
      vertex 2.97634 0.375999 -1.1
    endloop
  endfacet
  facet normal -0.998026 -0.0628015 0
    outer loop
      vertex 2.97634 0.375999 -0.1
      vertex 3 0 -1.1
      vertex 3 0 -0.1
    endloop
  endfacet
  facet normal -0.998026 -0.0628015 0
    outer loop
      vertex 3 0 -0.0999994
      vertex 2.97634 0.375999 4.9
      vertex 2.97634 0.375999 -0.0999994
    endloop
  endfacet
  facet normal -0.998026 -0.0628015 0
    outer loop
      vertex 2.97634 0.375999 4.9
      vertex 3 0 -0.0999994
      vertex 3 0 4.9
    endloop
  endfacet
  facet normal -0.998026 -0.0628015 0
    outer loop
      vertex 3 0 -2.1
      vertex 2.97634 0.375999 -1.1
      vertex 2.97634 0.375999 -2.1
    endloop
  endfacet
  facet normal -0.998026 -0.0628015 0
    outer loop
      vertex 2.97634 0.375999 -1.1
      vertex 3 0 -2.1
      vertex 3 0 -1.1
    endloop
  endfacet
  facet normal -0.684541 -0.728974 0
    outer loop
      vertex 1.91227 2.31154 -1.1
      vertex 2.18691 2.05364 -0.1
      vertex 1.91227 2.31154 -0.1
    endloop
  endfacet
  facet normal -0.684541 -0.728974 -0
    outer loop
      vertex 2.18691 2.05364 -0.1
      vertex 1.91227 2.31154 -1.1
      vertex 2.18691 2.05364 -1.1
    endloop
  endfacet
  facet normal -0.684541 -0.728974 0
    outer loop
      vertex 1.91227 2.31154 -0.0999994
      vertex 2.18691 2.05364 4.9
      vertex 1.91227 2.31154 4.9
    endloop
  endfacet
  facet normal -0.684541 -0.728974 -0
    outer loop
      vertex 2.18691 2.05364 4.9
      vertex 1.91227 2.31154 -0.0999994
      vertex 2.18691 2.05364 -0.0999994
    endloop
  endfacet
  facet normal -0.684541 -0.728974 0
    outer loop
      vertex 1.91227 2.31154 -2.1
      vertex 2.18691 2.05364 -1.1
      vertex 1.91227 2.31154 -1.1
    endloop
  endfacet
  facet normal -0.684541 -0.728974 -0
    outer loop
      vertex 2.18691 2.05364 -1.1
      vertex 1.91227 2.31154 -2.1
      vertex 2.18691 2.05364 -2.1
    endloop
  endfacet
  facet normal -0.248684 -0.968585 0
    outer loop
      vertex 0.562143 2.94686 -1.1
      vertex 0.927051 2.85317 -0.1
      vertex 0.562143 2.94686 -0.1
    endloop
  endfacet
  facet normal -0.248684 -0.968585 -0
    outer loop
      vertex 0.927051 2.85317 -0.1
      vertex 0.562143 2.94686 -1.1
      vertex 0.927051 2.85317 -1.1
    endloop
  endfacet
  facet normal -0.248684 -0.968585 0
    outer loop
      vertex 0.562143 2.94686 -0.0999994
      vertex 0.927051 2.85317 4.9
      vertex 0.562143 2.94686 4.9
    endloop
  endfacet
  facet normal -0.248684 -0.968585 -0
    outer loop
      vertex 0.927051 2.85317 4.9
      vertex 0.562143 2.94686 -0.0999994
      vertex 0.927051 2.85317 -0.0999994
    endloop
  endfacet
  facet normal -0.248684 -0.968585 0
    outer loop
      vertex 0.562143 2.94686 -2.1
      vertex 0.927051 2.85317 -1.1
      vertex 0.562143 2.94686 -1.1
    endloop
  endfacet
  facet normal -0.248684 -0.968585 -0
    outer loop
      vertex 0.927051 2.85317 -1.1
      vertex 0.562143 2.94686 -2.1
      vertex 0.927051 2.85317 -2.1
    endloop
  endfacet
  facet normal -0.481762 -0.876302 0
    outer loop
      vertex 1.27734 2.71448 -1.1
      vertex 1.60748 2.53298 -0.1
      vertex 1.27734 2.71448 -0.1
    endloop
  endfacet
  facet normal -0.481762 -0.876302 -0
    outer loop
      vertex 1.60748 2.53298 -0.1
      vertex 1.27734 2.71448 -1.1
      vertex 1.60748 2.53298 -1.1
    endloop
  endfacet
  facet normal -0.481762 -0.876302 0
    outer loop
      vertex 1.27734 2.71448 -0.0999994
      vertex 1.60748 2.53298 4.9
      vertex 1.27734 2.71448 4.9
    endloop
  endfacet
  facet normal -0.481762 -0.876302 -0
    outer loop
      vertex 1.60748 2.53298 4.9
      vertex 1.27734 2.71448 -0.0999994
      vertex 1.60748 2.53298 -0.0999994
    endloop
  endfacet
  facet normal -0.481762 -0.876302 0
    outer loop
      vertex 1.27734 2.71448 -2.1
      vertex 1.60748 2.53298 -1.1
      vertex 1.27734 2.71448 -1.1
    endloop
  endfacet
  facet normal -0.481762 -0.876302 -0
    outer loop
      vertex 1.60748 2.53298 -1.1
      vertex 1.27734 2.71448 -2.1
      vertex 1.60748 2.53298 -2.1
    endloop
  endfacet
  facet normal -0.904828 -0.425778 0
    outer loop
      vertex 2.78933 1.10437 -1.1
      vertex 2.62892 1.44526 -0.1
      vertex 2.62892 1.44526 -1.1
    endloop
  endfacet
  facet normal -0.904828 -0.425778 0
    outer loop
      vertex 2.62892 1.44526 -0.1
      vertex 2.78933 1.10437 -1.1
      vertex 2.78933 1.10437 -0.1
    endloop
  endfacet
  facet normal -0.904828 -0.425778 0
    outer loop
      vertex 2.78933 1.10437 -0.0999994
      vertex 2.62892 1.44526 4.9
      vertex 2.62892 1.44526 -0.0999994
    endloop
  endfacet
  facet normal -0.904828 -0.425778 0
    outer loop
      vertex 2.62892 1.44526 4.9
      vertex 2.78933 1.10437 -0.0999994
      vertex 2.78933 1.10437 4.9
    endloop
  endfacet
  facet normal -0.904828 -0.425778 0
    outer loop
      vertex 2.78933 1.10437 -2.1
      vertex 2.62892 1.44526 -1.1
      vertex 2.62892 1.44526 -2.1
    endloop
  endfacet
  facet normal -0.904828 -0.425778 0
    outer loop
      vertex 2.62892 1.44526 -1.1
      vertex 2.78933 1.10437 -2.1
      vertex 2.78933 1.10437 -1.1
    endloop
  endfacet
  facet normal -0.844331 -0.535822 0
    outer loop
      vertex 2.62892 1.44526 -1.1
      vertex 2.42705 1.76336 -0.1
      vertex 2.42705 1.76336 -1.1
    endloop
  endfacet
  facet normal -0.844331 -0.535822 0
    outer loop
      vertex 2.42705 1.76336 -0.1
      vertex 2.62892 1.44526 -1.1
      vertex 2.62892 1.44526 -0.1
    endloop
  endfacet
  facet normal -0.844331 -0.535822 0
    outer loop
      vertex 2.62892 1.44526 -0.0999994
      vertex 2.42705 1.76336 4.9
      vertex 2.42705 1.76336 -0.0999994
    endloop
  endfacet
  facet normal -0.844331 -0.535822 0
    outer loop
      vertex 2.42705 1.76336 4.9
      vertex 2.62892 1.44526 -0.0999994
      vertex 2.62892 1.44526 4.9
    endloop
  endfacet
  facet normal -0.844331 -0.535822 0
    outer loop
      vertex 2.62892 1.44526 -2.1
      vertex 2.42705 1.76336 -1.1
      vertex 2.42705 1.76336 -2.1
    endloop
  endfacet
  facet normal -0.844331 -0.535822 0
    outer loop
      vertex 2.42705 1.76336 -1.1
      vertex 2.62892 1.44526 -2.1
      vertex 2.62892 1.44526 -1.1
    endloop
  endfacet
  facet normal -0.125337 -0.992114 0
    outer loop
      vertex 0.188371 2.99408 -1.1
      vertex 0.562143 2.94686 -0.1
      vertex 0.188371 2.99408 -0.1
    endloop
  endfacet
  facet normal -0.125337 -0.992114 -0
    outer loop
      vertex 0.562143 2.94686 -0.1
      vertex 0.188371 2.99408 -1.1
      vertex 0.562143 2.94686 -1.1
    endloop
  endfacet
  facet normal -0.125337 -0.992114 0
    outer loop
      vertex 0.188371 2.99408 -0.0999994
      vertex 0.562143 2.94686 4.9
      vertex 0.188371 2.99408 4.9
    endloop
  endfacet
  facet normal -0.125337 -0.992114 -0
    outer loop
      vertex 0.562143 2.94686 4.9
      vertex 0.188371 2.99408 -0.0999994
      vertex 0.562143 2.94686 -0.0999994
    endloop
  endfacet
  facet normal -0.125337 -0.992114 0
    outer loop
      vertex 0.188371 2.99408 -2.1
      vertex 0.562143 2.94686 -1.1
      vertex 0.188371 2.99408 -1.1
    endloop
  endfacet
  facet normal -0.125337 -0.992114 -0
    outer loop
      vertex 0.562143 2.94686 -1.1
      vertex 0.188371 2.99408 -2.1
      vertex 0.562143 2.94686 -2.1
    endloop
  endfacet
  facet normal -0.58778 -0.809021 0
    outer loop
      vertex 1.60748 2.53298 -1.1
      vertex 1.91227 2.31154 -0.1
      vertex 1.60748 2.53298 -0.1
    endloop
  endfacet
  facet normal -0.58778 -0.809021 -0
    outer loop
      vertex 1.91227 2.31154 -0.1
      vertex 1.60748 2.53298 -1.1
      vertex 1.91227 2.31154 -1.1
    endloop
  endfacet
  facet normal -0.58778 -0.809021 0
    outer loop
      vertex 1.60748 2.53298 -0.0999994
      vertex 1.91227 2.31154 4.9
      vertex 1.60748 2.53298 4.9
    endloop
  endfacet
  facet normal -0.58778 -0.809021 -0
    outer loop
      vertex 1.91227 2.31154 4.9
      vertex 1.60748 2.53298 -0.0999994
      vertex 1.91227 2.31154 -0.0999994
    endloop
  endfacet
  facet normal -0.58778 -0.809021 0
    outer loop
      vertex 1.60748 2.53298 -2.1
      vertex 1.91227 2.31154 -1.1
      vertex 1.60748 2.53298 -1.1
    endloop
  endfacet
  facet normal -0.58778 -0.809021 -0
    outer loop
      vertex 1.91227 2.31154 -1.1
      vertex 1.60748 2.53298 -2.1
      vertex 1.91227 2.31154 -2.1
    endloop
  endfacet
  facet normal -0.368126 -0.929776 0
    outer loop
      vertex 0.927051 2.85317 -1.1
      vertex 1.27734 2.71448 -0.1
      vertex 0.927051 2.85317 -0.1
    endloop
  endfacet
  facet normal -0.368126 -0.929776 -0
    outer loop
      vertex 1.27734 2.71448 -0.1
      vertex 0.927051 2.85317 -1.1
      vertex 1.27734 2.71448 -1.1
    endloop
  endfacet
  facet normal -0.368126 -0.929776 0
    outer loop
      vertex 0.927051 2.85317 -0.0999994
      vertex 1.27734 2.71448 4.9
      vertex 0.927051 2.85317 4.9
    endloop
  endfacet
  facet normal -0.368126 -0.929776 -0
    outer loop
      vertex 1.27734 2.71448 4.9
      vertex 0.927051 2.85317 -0.0999994
      vertex 1.27734 2.71448 -0.0999994
    endloop
  endfacet
  facet normal -0.368126 -0.929776 0
    outer loop
      vertex 0.927051 2.85317 -2.1
      vertex 1.27734 2.71448 -1.1
      vertex 0.927051 2.85317 -1.1
    endloop
  endfacet
  facet normal -0.368126 -0.929776 -0
    outer loop
      vertex 1.27734 2.71448 -1.1
      vertex 0.927051 2.85317 -2.1
      vertex 1.27734 2.71448 -2.1
    endloop
  endfacet
  facet normal -0.770514 -0.637423 0
    outer loop
      vertex 2.42705 1.76336 -1.1
      vertex 2.18691 2.05364 -0.1
      vertex 2.18691 2.05364 -1.1
    endloop
  endfacet
  facet normal -0.770514 -0.637423 0
    outer loop
      vertex 2.18691 2.05364 -0.1
      vertex 2.42705 1.76336 -1.1
      vertex 2.42705 1.76336 -0.1
    endloop
  endfacet
  facet normal -0.770514 -0.637423 0
    outer loop
      vertex 2.42705 1.76336 -0.0999994
      vertex 2.18691 2.05364 4.9
      vertex 2.18691 2.05364 -0.0999994
    endloop
  endfacet
  facet normal -0.770514 -0.637423 0
    outer loop
      vertex 2.18691 2.05364 4.9
      vertex 2.42705 1.76336 -0.0999994
      vertex 2.42705 1.76336 4.9
    endloop
  endfacet
  facet normal -0.770514 -0.637423 0
    outer loop
      vertex 2.42705 1.76336 -2.1
      vertex 2.18691 2.05364 -1.1
      vertex 2.18691 2.05364 -2.1
    endloop
  endfacet
  facet normal -0.770514 -0.637423 0
    outer loop
      vertex 2.18691 2.05364 -1.1
      vertex 2.42705 1.76336 -2.1
      vertex 2.42705 1.76336 -1.1
    endloop
  endfacet
  facet normal -0.951056 -0.309019 0
    outer loop
      vertex 2.90575 0.746069 -1.1
      vertex 2.78933 1.10437 -0.1
      vertex 2.78933 1.10437 -1.1
    endloop
  endfacet
  facet normal -0.951056 -0.309019 0
    outer loop
      vertex 2.78933 1.10437 -0.1
      vertex 2.90575 0.746069 -1.1
      vertex 2.90575 0.746069 -0.1
    endloop
  endfacet
  facet normal -0.951056 -0.309019 0
    outer loop
      vertex 2.90575 0.746069 -0.0999994
      vertex 2.78933 1.10437 4.9
      vertex 2.78933 1.10437 -0.0999994
    endloop
  endfacet
  facet normal -0.951056 -0.309019 0
    outer loop
      vertex 2.78933 1.10437 4.9
      vertex 2.90575 0.746069 -0.0999994
      vertex 2.90575 0.746069 4.9
    endloop
  endfacet
  facet normal -0.951056 -0.309019 0
    outer loop
      vertex 2.90575 0.746069 -2.1
      vertex 2.78933 1.10437 -1.1
      vertex 2.78933 1.10437 -2.1
    endloop
  endfacet
  facet normal -0.951056 -0.309019 0
    outer loop
      vertex 2.78933 1.10437 -1.1
      vertex 2.90575 0.746069 -2.1
      vertex 2.90575 0.746069 -1.1
    endloop
  endfacet
  facet normal 0 -1 0
    outer loop
      vertex 0 2.99408 -1.1
      vertex 0.188371 2.99408 -0.1
      vertex 0 2.99408 -0.1
    endloop
  endfacet
  facet normal 0 -1 -0
    outer loop
      vertex 0.188371 2.99408 -0.1
      vertex 0 2.99408 -1.1
      vertex 0.188371 2.99408 -1.1
    endloop
  endfacet
  facet normal 0 -1 0
    outer loop
      vertex 0 2.99408 -0.0999994
      vertex 0.188371 2.99408 4.9
      vertex 0 2.99408 4.9
    endloop
  endfacet
  facet normal 0 -1 -0
    outer loop
      vertex 0.188371 2.99408 4.9
      vertex 0 2.99408 -0.0999994
      vertex 0.188371 2.99408 -0.0999994
    endloop
  endfacet
  facet normal 0 -1 0
    outer loop
      vertex 0 2.99408 -2.1
      vertex 0.188371 2.99408 -1.1
      vertex 0 2.99408 -1.1
    endloop
  endfacet
  facet normal 0 -1 -0
    outer loop
      vertex 0.188371 2.99408 -1.1
      vertex 0 2.99408 -2.1
      vertex 0.188371 2.99408 -2.1
    endloop
  endfacet
  facet normal 0 0 1
    outer loop
      vertex 0 0 -0.0999994
      vertex 2.97634 0.375999 -0.0999994
      vertex 2.90575 0.746069 -0.0999994
    endloop
  endfacet
  facet normal 0 0 1
    outer loop
      vertex 0 0 -0.0999994
      vertex 2.90575 0.746069 -0.0999994
      vertex 2.78933 1.10437 -0.0999994
    endloop
  endfacet
  facet normal 0 0 1
    outer loop
      vertex 0 0 -0.0999994
      vertex 2.78933 1.10437 -0.0999994
      vertex 2.62892 1.44526 -0.0999994
    endloop
  endfacet
  facet normal 0 0 1
    outer loop
      vertex 0 0 -0.0999994
      vertex 2.62892 1.44526 -0.0999994
      vertex 2.42705 1.76336 -0.0999994
    endloop
  endfacet
  facet normal 0 0 1
    outer loop
      vertex 0 0 -0.0999994
      vertex 2.42705 1.76336 -0.0999994
      vertex 2.18691 2.05364 -0.0999994
    endloop
  endfacet
  facet normal 0 0 1
    outer loop
      vertex 0 0 -0.0999994
      vertex 2.18691 2.05364 -0.0999994
      vertex 1.91227 2.31154 -0.0999994
    endloop
  endfacet
  facet normal 0 0 1
    outer loop
      vertex 0 0 -0.0999994
      vertex 1.91227 2.31154 -0.0999994
      vertex 1.60748 2.53298 -0.0999994
    endloop
  endfacet
  facet normal 0 0 1
    outer loop
      vertex 0 0 -0.0999994
      vertex 1.60748 2.53298 -0.0999994
      vertex 1.27734 2.71448 -0.0999994
    endloop
  endfacet
  facet normal 0 0 1
    outer loop
      vertex 0 0 -0.0999994
      vertex 1.27734 2.71448 -0.0999994
      vertex 0.927051 2.85317 -0.0999994
    endloop
  endfacet
  facet normal 0 0 1
    outer loop
      vertex 0 0 -0.0999994
      vertex 0.927051 2.85317 -0.0999994
      vertex 0.562143 2.94686 -0.0999994
    endloop
  endfacet
  facet normal 0 0 1
    outer loop
      vertex 0 0 -0.0999994
      vertex 0.562143 2.94686 -0.0999994
      vertex 0.188371 2.99408 -0.0999994
    endloop
  endfacet
  facet normal 0 0 1
    outer loop
      vertex 0 0 -0.0999994
      vertex 0.188371 2.99408 -0.0999994
      vertex 0 2.99408 -0.0999994
    endloop
  endfacet
  facet normal 0 0 1
    outer loop
      vertex 2.97634 0.375999 -0.0999994
      vertex 0 0 -0.0999994
      vertex 3 0 -0.0999994
    endloop
  endfacet
  facet normal 0 0 -1
    outer loop
      vertex 0 0 -1.1
      vertex 2.97634 0.375999 -1.1
      vertex 3 0 -1.1
    endloop
  endfacet
  facet normal -0 0 -1
    outer loop
      vertex 2.97634 0.375999 -1.1
      vertex 0 0 -1.1
      vertex 2.90575 0.746069 -1.1
    endloop
  endfacet
  facet normal -0 0 -1
    outer loop
      vertex 2.90575 0.746069 -1.1
      vertex 0 0 -1.1
      vertex 2.78933 1.10437 -1.1
    endloop
  endfacet
  facet normal -0 0 -1
    outer loop
      vertex 2.78933 1.10437 -1.1
      vertex 0 0 -1.1
      vertex 2.62892 1.44526 -1.1
    endloop
  endfacet
  facet normal -0 0 -1
    outer loop
      vertex 2.62892 1.44526 -1.1
      vertex 0 0 -1.1
      vertex 2.42705 1.76336 -1.1
    endloop
  endfacet
  facet normal -0 0 -1
    outer loop
      vertex 2.42705 1.76336 -1.1
      vertex 0 0 -1.1
      vertex 2.18691 2.05364 -1.1
    endloop
  endfacet
  facet normal -0 0 -1
    outer loop
      vertex 2.18691 2.05364 -1.1
      vertex 0 0 -1.1
      vertex 1.91227 2.31154 -1.1
    endloop
  endfacet
  facet normal -0 0 -1
    outer loop
      vertex 1.91227 2.31154 -1.1
      vertex 0 0 -1.1
      vertex 1.60748 2.53298 -1.1
    endloop
  endfacet
  facet normal -0 0 -1
    outer loop
      vertex 1.60748 2.53298 -1.1
      vertex 0 0 -1.1
      vertex 1.27734 2.71448 -1.1
    endloop
  endfacet
  facet normal -0 0 -1
    outer loop
      vertex 1.27734 2.71448 -1.1
      vertex 0 0 -1.1
      vertex 0.927051 2.85317 -1.1
    endloop
  endfacet
  facet normal -0 0 -1
    outer loop
      vertex 0.927051 2.85317 -1.1
      vertex 0 0 -1.1
      vertex 0.562143 2.94686 -1.1
    endloop
  endfacet
  facet normal -0 0 -1
    outer loop
      vertex 0.562143 2.94686 -1.1
      vertex 0 0 -1.1
      vertex 0.188371 2.99408 -1.1
    endloop
  endfacet
  facet normal -0 0 -1
    outer loop
      vertex 0.188371 2.99408 -1.1
      vertex 0 0 -1.1
      vertex 0 2.99408 -1.1
    endloop
  endfacet
  facet normal 0 0 1
    outer loop
      vertex 0 0 -1.1
      vertex 2.97634 0.375999 -1.1
      vertex 2.90575 0.746069 -1.1
    endloop
  endfacet
  facet normal 0 0 1
    outer loop
      vertex 0 0 -1.1
      vertex 2.90575 0.746069 -1.1
      vertex 2.78933 1.10437 -1.1
    endloop
  endfacet
  facet normal 0 0 1
    outer loop
      vertex 0 0 -1.1
      vertex 2.78933 1.10437 -1.1
      vertex 2.62892 1.44526 -1.1
    endloop
  endfacet
  facet normal 0 0 1
    outer loop
      vertex 0 0 -1.1
      vertex 2.62892 1.44526 -1.1
      vertex 2.42705 1.76336 -1.1
    endloop
  endfacet
  facet normal 0 0 1
    outer loop
      vertex 0 0 -1.1
      vertex 2.42705 1.76336 -1.1
      vertex 2.18691 2.05364 -1.1
    endloop
  endfacet
  facet normal 0 0 1
    outer loop
      vertex 0 0 -1.1
      vertex 2.18691 2.05364 -1.1
      vertex 1.91227 2.31154 -1.1
    endloop
  endfacet
  facet normal 0 0 1
    outer loop
      vertex 0 0 -1.1
      vertex 1.91227 2.31154 -1.1
      vertex 1.60748 2.53298 -1.1
    endloop
  endfacet
  facet normal 0 0 1
    outer loop
      vertex 0 0 -1.1
      vertex 1.60748 2.53298 -1.1
      vertex 1.27734 2.71448 -1.1
    endloop
  endfacet
  facet normal 0 0 1
    outer loop
      vertex 0 0 -1.1
      vertex 1.27734 2.71448 -1.1
      vertex 0.927051 2.85317 -1.1
    endloop
  endfacet
  facet normal 0 0 1
    outer loop
      vertex 0 0 -1.1
      vertex 0.927051 2.85317 -1.1
      vertex 0.562143 2.94686 -1.1
    endloop
  endfacet
  facet normal 0 0 1
    outer loop
      vertex 0 0 -1.1
      vertex 0.562143 2.94686 -1.1
      vertex 0.188371 2.99408 -1.1
    endloop
  endfacet
  facet normal 0 0 1
    outer loop
      vertex 0 0 -1.1
      vertex 0.188371 2.99408 -1.1
      vertex 0 2.99408 -1.1
    endloop
  endfacet
  facet normal 0 0 1
    outer loop
      vertex 2.97634 0.375999 -1.1
      vertex 0 0 -1.1
      vertex 3 0 -1.1
    endloop
  endfacet
  facet normal 0 0 -1
    outer loop
      vertex 0 0 -2.1
      vertex 20 30 -2.1
      vertex 20 0 -2.1
    endloop
  endfacet
  facet normal -0 0 -1
    outer loop
      vertex 20 30 -2.1
      vertex 0 0 -2.1
      vertex 0 30 -2.1
    endloop
  endfacet
  facet normal 0 0 1
    outer loop
      vertex 0 0 -2.1
      vertex 2.97634 0.375999 -2.1
      vertex 2.90575 0.746069 -2.1
    endloop
  endfacet
  facet normal 0 0 1
    outer loop
      vertex 0 0 -2.1
      vertex 2.90575 0.746069 -2.1
      vertex 2.78933 1.10437 -2.1
    endloop
  endfacet
  facet normal 0 0 1
    outer loop
      vertex 0 0 -2.1
      vertex 2.78933 1.10437 -2.1
      vertex 2.62892 1.44526 -2.1
    endloop
  endfacet
  facet normal 0 0 1
    outer loop
      vertex 0 0 -2.1
      vertex 2.62892 1.44526 -2.1
      vertex 2.42705 1.76336 -2.1
    endloop
  endfacet
  facet normal 0 0 1
    outer loop
      vertex 0 0 -2.1
      vertex 2.42705 1.76336 -2.1
      vertex 2.18691 2.05364 -2.1
    endloop
  endfacet
  facet normal 0 0 1
    outer loop
      vertex 0 0 -2.1
      vertex 2.18691 2.05364 -2.1
      vertex 1.91227 2.31154 -2.1
    endloop
  endfacet
  facet normal 0 0 1
    outer loop
      vertex 0 0 -2.1
      vertex 1.91227 2.31154 -2.1
      vertex 1.60748 2.53298 -2.1
    endloop
  endfacet
  facet normal 0 0 1
    outer loop
      vertex 0 0 -2.1
      vertex 1.60748 2.53298 -2.1
      vertex 1.27734 2.71448 -2.1
    endloop
  endfacet
  facet normal 0 0 1
    outer loop
      vertex 0 0 -2.1
      vertex 1.27734 2.71448 -2.1
      vertex 0.927051 2.85317 -2.1
    endloop
  endfacet
  facet normal 0 0 1
    outer loop
      vertex 0 0 -2.1
      vertex 0.927051 2.85317 -2.1
      vertex 0.562143 2.94686 -2.1
    endloop
  endfacet
  facet normal 0 0 1
    outer loop
      vertex 0 0 -2.1
      vertex 0.562143 2.94686 -2.1
      vertex 0.188371 2.99408 -2.1
    endloop
  endfacet
  facet normal 0 0 1
    outer loop
      vertex 0 0 -2.1
      vertex 0.188371 2.99408 -2.1
      vertex 0 2.99408 -2.1
    endloop
  endfacet
  facet normal 0 0 1
    outer loop
      vertex 2.97634 0.375999 -2.1
      vertex 0 0 -2.1
      vertex 3 0 -2.1
    endloop
  endfacet
endsolid OpenSCAD_Model
