solid OpenSCAD_Model
  facet normal 0.0980136 0.995185 -0
    outer loop
      vertex 0.975451 4.90393 0
      vertex 0 5 20
      vertex 0.975451 4.90393 20
    endloop
  endfacet
  facet normal 0.0980136 0.995185 0
    outer loop
      vertex 0 5 20
      vertex 0.975451 4.90393 0
      vertex 0 5 0
    endloop
  endfacet
  facet normal 0.95694 0.290285 0
    outer loop
      vertex 4.90393 0.975451 20
      vertex 4.6194 1.91342 0
      vertex 4.6194 1.91342 20
    endloop
  endfacet
  facet normal 0.95694 0.290285 0
    outer loop
      vertex 4.6194 1.91342 0
      vertex 4.90393 0.975451 20
      vertex 4.90393 0.975451 0
    endloop
  endfacet
  facet normal 0.995185 0.0980136 0
    outer loop
      vertex 5 0 20
      vertex 4.90393 0.975451 0
      vertex 4.90393 0.975451 20
    endloop
  endfacet
  facet normal 0.995185 0.0980136 0
    outer loop
      vertex 4.90393 0.975451 0
      vertex 5 0 20
      vertex 5 0 0
    endloop
  endfacet
  facet normal 0.88192 0.471399 0
    outer loop
      vertex 4.6194 1.91342 20
      vertex 4.15735 2.77785 0
      vertex 4.15735 2.77785 20
    endloop
  endfacet
  facet normal 0.88192 0.471399 0
    outer loop
      vertex 4.15735 2.77785 0
      vertex 4.6194 1.91342 20
      vertex 4.6194 1.91342 0
    endloop
  endfacet
  facet normal -0.634398 0.773006 0
    outer loop
      vertex -2.77785 4.15735 0
      vertex -3.53553 3.53553 20
      vertex -2.77785 4.15735 20
    endloop
  endfacet
  facet normal -0.634398 0.773006 0
    outer loop
      vertex -3.53553 3.53553 20
      vertex -2.77785 4.15735 0
      vertex -3.53553 3.53553 0
    endloop
  endfacet
  facet normal 0 0 1
    outer loop
      vertex 2 0 20
      vertex 5 0 20
      vertex 4.90393 0.975451 20
    endloop
  endfacet
  facet normal 0 0 1
    outer loop
      vertex 1.96157 0.390181 20
      vertex 4.90393 0.975451 20
      vertex 4.6194 1.91342 20
    endloop
  endfacet
  facet normal 0 0 1
    outer loop
      vertex 5 0 20
      vertex 2 0 20
      vertex 4.90393 -0.975451 20
    endloop
  endfacet
  facet normal 0 0 1
    outer loop
      vertex 1.84776 0.765367 20
      vertex 4.6194 1.91342 20
      vertex 4.15735 2.77785 20
    endloop
  endfacet
  facet normal -0 0 1
    outer loop
      vertex 1.96157 -0.390181 20
      vertex 4.90393 -0.975451 20
      vertex 2 0 20
    endloop
  endfacet
  facet normal 0 0 1
    outer loop
      vertex 1.66294 1.11114 20
      vertex 4.15735 2.77785 20
      vertex 3.53553 3.53553 20
    endloop
  endfacet
  facet normal 0 0 1
    outer loop
      vertex 4.90393 -0.975451 20
      vertex 1.96157 -0.390181 20
      vertex 4.6194 -1.91342 20
    endloop
  endfacet
  facet normal 0 0 1
    outer loop
      vertex 1.41421 1.41421 20
      vertex 3.53553 3.53553 20
      vertex 2.77785 4.15735 20
    endloop
  endfacet
  facet normal -0 0 1
    outer loop
      vertex 1.84776 -0.765367 20
      vertex 4.6194 -1.91342 20
      vertex 1.96157 -0.390181 20
    endloop
  endfacet
  facet normal 0 0 1
    outer loop
      vertex 4.6194 -1.91342 20
      vertex 1.84776 -0.765367 20
      vertex 4.15735 -2.77785 20
    endloop
  endfacet
  facet normal 0 0 1
    outer loop
      vertex 4.90393 0.975451 20
      vertex 1.96157 0.390181 20
      vertex 2 0 20
    endloop
  endfacet
  facet normal 0 0 1
    outer loop
      vertex 1.11114 1.66294 20
      vertex 2.77785 4.15735 20
      vertex 1.91342 4.6194 20
    endloop
  endfacet
  facet normal 0 0 1
    outer loop
      vertex 4.6194 1.91342 20
      vertex 1.84776 0.765367 20
      vertex 1.96157 0.390181 20
    endloop
  endfacet
  facet normal 0 0 1
    outer loop
      vertex 4.15735 2.77785 20
      vertex 1.66294 1.11114 20
      vertex 1.84776 0.765367 20
    endloop
  endfacet
  facet normal 0 0 1
    outer loop
      vertex 3.53553 3.53553 20
      vertex 1.41421 1.41421 20
      vertex 1.66294 1.11114 20
    endloop
  endfacet
  facet normal 0 0 1
    outer loop
      vertex 2.77785 4.15735 20
      vertex 1.11114 1.66294 20
      vertex 1.41421 1.41421 20
    endloop
  endfacet
  facet normal 0 0 1
    outer loop
      vertex 0.765367 1.84776 20
      vertex 1.91342 4.6194 20
      vertex 0.975451 4.90393 20
    endloop
  endfacet
  facet normal 0 0 1
    outer loop
      vertex 1.91342 4.6194 20
      vertex 0.765367 1.84776 20
      vertex 1.11114 1.66294 20
    endloop
  endfacet
  facet normal 0 0 1
    outer loop
      vertex 0.975451 4.90393 20
      vertex 0.390181 1.96157 20
      vertex 0.765367 1.84776 20
    endloop
  endfacet
  facet normal 0 0 1
    outer loop
      vertex 0 5 20
      vertex 0.390181 1.96157 20
      vertex 0.975451 4.90393 20
    endloop
  endfacet
  facet normal 0 0 1
    outer loop
      vertex 0 5 20
      vertex 0 2 20
      vertex 0.390181 1.96157 20
    endloop
  endfacet
  facet normal 0 0 1
    outer loop
      vertex 0 5 20
      vertex -0.390181 1.96157 20
      vertex 0 2 20
    endloop
  endfacet
  facet normal -0 0 1
    outer loop
      vertex -0.975451 4.90393 20
      vertex -0.390181 1.96157 20
      vertex 0 5 20
    endloop
  endfacet
  facet normal 0 0 1
    outer loop
      vertex -0.390181 1.96157 20
      vertex -0.975451 4.90393 20
      vertex -0.765367 1.84776 20
    endloop
  endfacet
  facet normal -0 0 1
    outer loop
      vertex -1.91342 4.6194 20
      vertex -0.765367 1.84776 20
      vertex -0.975451 4.90393 20
    endloop
  endfacet
  facet normal 0 0 1
    outer loop
      vertex -0.765367 1.84776 20
      vertex -1.91342 4.6194 20
      vertex -1.11114 1.66294 20
    endloop
  endfacet
  facet normal -0 0 1
    outer loop
      vertex -2.77785 4.15735 20
      vertex -1.11114 1.66294 20
      vertex -1.91342 4.6194 20
    endloop
  endfacet
  facet normal 0 0 1
    outer loop
      vertex -1.11114 1.66294 20
      vertex -2.77785 4.15735 20
      vertex -1.41421 1.41421 20
    endloop
  endfacet
  facet normal -0 0 1
    outer loop
      vertex -3.53553 3.53553 20
      vertex -1.41421 1.41421 20
      vertex -2.77785 4.15735 20
    endloop
  endfacet
  facet normal 0 0 1
    outer loop
      vertex -1.41421 1.41421 20
      vertex -3.53553 3.53553 20
      vertex -1.66294 1.11114 20
    endloop
  endfacet
  facet normal -0 0 1
    outer loop
      vertex -4.15735 2.77785 20
      vertex -1.66294 1.11114 20
      vertex -3.53553 3.53553 20
    endloop
  endfacet
  facet normal 0 0 1
    outer loop
      vertex -1.66294 1.11114 20
      vertex -4.15735 2.77785 20
      vertex -1.84776 0.765367 20
    endloop
  endfacet
  facet normal -0 0 1
    outer loop
      vertex 1.66294 -1.11114 20
      vertex 4.15735 -2.77785 20
      vertex 1.84776 -0.765367 20
    endloop
  endfacet
  facet normal 0 0 1
    outer loop
      vertex 4.15735 -2.77785 20
      vertex 1.66294 -1.11114 20
      vertex 3.53553 -3.53553 20
    endloop
  endfacet
  facet normal -0 0 1
    outer loop
      vertex 1.41421 -1.41421 20
      vertex 3.53553 -3.53553 20
      vertex 1.66294 -1.11114 20
    endloop
  endfacet
  facet normal 0 0 1
    outer loop
      vertex 3.53553 -3.53553 20
      vertex 1.41421 -1.41421 20
      vertex 2.77785 -4.15735 20
    endloop
  endfacet
  facet normal -0 0 1
    outer loop
      vertex 1.11114 -1.66294 20
      vertex 2.77785 -4.15735 20
      vertex 1.41421 -1.41421 20
    endloop
  endfacet
  facet normal 0 0 1
    outer loop
      vertex 2.77785 -4.15735 20
      vertex 1.11114 -1.66294 20
      vertex 1.91342 -4.6194 20
    endloop
  endfacet
  facet normal -0 0 1
    outer loop
      vertex 0.765367 -1.84776 20
      vertex 1.91342 -4.6194 20
      vertex 1.11114 -1.66294 20
    endloop
  endfacet
  facet normal 0 0 1
    outer loop
      vertex 1.91342 -4.6194 20
      vertex 0.765367 -1.84776 20
      vertex 0.975451 -4.90393 20
    endloop
  endfacet
  facet normal -0 0 1
    outer loop
      vertex 0.390181 -1.96157 20
      vertex 0.975451 -4.90393 20
      vertex 0.765367 -1.84776 20
    endloop
  endfacet
  facet normal -0 0 1
    outer loop
      vertex 0 -2 20
      vertex 0.975451 -4.90393 20
      vertex 0.390181 -1.96157 20
    endloop
  endfacet
  facet normal 0 0 1
    outer loop
      vertex 0 -2 20
      vertex 0 -5 20
      vertex 0.975451 -4.90393 20
    endloop
  endfacet
  facet normal 0 0 1
    outer loop
      vertex -0.390181 -1.96157 20
      vertex 0 -5 20
      vertex 0 -2 20
    endloop
  endfacet
  facet normal 0 0 1
    outer loop
      vertex -0.975451 -4.90393 20
      vertex -0.390181 -1.96157 20
      vertex -0.765367 -1.84776 20
    endloop
  endfacet
  facet normal 0 0 1
    outer loop
      vertex -0.390181 -1.96157 20
      vertex -0.975451 -4.90393 20
      vertex 0 -5 20
    endloop
  endfacet
  facet normal 0 0 1
    outer loop
      vertex -1.91342 -4.6194 20
      vertex -0.765367 -1.84776 20
      vertex -1.11114 -1.66294 20
    endloop
  endfacet
  facet normal 0 0 1
    outer loop
      vertex -2.77785 -4.15735 20
      vertex -1.11114 -1.66294 20
      vertex -1.41421 -1.41421 20
    endloop
  endfacet
  facet normal 0 0 1
    outer loop
      vertex -3.53553 -3.53553 20
      vertex -1.41421 -1.41421 20
      vertex -1.66294 -1.11114 20
    endloop
  endfacet
  facet normal 0 0 1
    outer loop
      vertex -4.15735 -2.77785 20
      vertex -1.66294 -1.11114 20
      vertex -1.84776 -0.765367 20
    endloop
  endfacet
  facet normal 0 0 1
    outer loop
      vertex -0.765367 -1.84776 20
      vertex -1.91342 -4.6194 20
      vertex -0.975451 -4.90393 20
    endloop
  endfacet
  facet normal 0 0 1
    outer loop
      vertex -4.6194 -1.91342 20
      vertex -1.84776 -0.765367 20
      vertex -1.96157 -0.390181 20
    endloop
  endfacet
  facet normal 0 0 1
    outer loop
      vertex -4.90393 -0.975451 20
      vertex -1.96157 -0.390181 20
      vertex -2 0 20
    endloop
  endfacet
  facet normal -0 0 1
    outer loop
      vertex -4.6194 1.91342 20
      vertex -1.84776 0.765367 20
      vertex -4.15735 2.77785 20
    endloop
  endfacet
  facet normal 0 0 1
    outer loop
      vertex -1.11114 -1.66294 20
      vertex -2.77785 -4.15735 20
      vertex -1.91342 -4.6194 20
    endloop
  endfacet
  facet normal 0 0 1
    outer loop
      vertex -1.84776 0.765367 20
      vertex -4.6194 1.91342 20
      vertex -1.96157 0.390181 20
    endloop
  endfacet
  facet normal 0 0 1
    outer loop
      vertex -1.41421 -1.41421 20
      vertex -3.53553 -3.53553 20
      vertex -2.77785 -4.15735 20
    endloop
  endfacet
  facet normal -0 0 1
    outer loop
      vertex -4.90393 0.975451 20
      vertex -1.96157 0.390181 20
      vertex -4.6194 1.91342 20
    endloop
  endfacet
  facet normal 0 0 1
    outer loop
      vertex -1.66294 -1.11114 20
      vertex -4.15735 -2.77785 20
      vertex -3.53553 -3.53553 20
    endloop
  endfacet
  facet normal 0 0 1
    outer loop
      vertex -1.96157 0.390181 20
      vertex -4.90393 0.975451 20
      vertex -2 0 20
    endloop
  endfacet
  facet normal 0 0 1
    outer loop
      vertex -1.84776 -0.765367 20
      vertex -4.6194 -1.91342 20
      vertex -4.15735 -2.77785 20
    endloop
  endfacet
  facet normal 0 0 1
    outer loop
      vertex -5 0 20
      vertex -2 0 20
      vertex -4.90393 0.975451 20
    endloop
  endfacet
  facet normal 0 0 1
    outer loop
      vertex -1.96157 -0.390181 20
      vertex -4.90393 -0.975451 20
      vertex -4.6194 -1.91342 20
    endloop
  endfacet
  facet normal 0 0 1
    outer loop
      vertex -2 0 20
      vertex -5 0 20
      vertex -4.90393 -0.975451 20
    endloop
  endfacet
  facet normal 0.773006 0.634398 0
    outer loop
      vertex 4.15735 2.77785 20
      vertex 3.53553 3.53553 0
      vertex 3.53553 3.53553 20
    endloop
  endfacet
  facet normal 0.773006 0.634398 0
    outer loop
      vertex 3.53553 3.53553 0
      vertex 4.15735 2.77785 20
      vertex 4.15735 2.77785 0
    endloop
  endfacet
  facet normal -0.773006 0.634398 0
    outer loop
      vertex -4.15735 2.77785 0
      vertex -3.53553 3.53553 20
      vertex -3.53553 3.53553 0
    endloop
  endfacet
  facet normal -0.773006 0.634398 0
    outer loop
      vertex -3.53553 3.53553 20
      vertex -4.15735 2.77785 0
      vertex -4.15735 2.77785 20
    endloop
  endfacet
  facet normal -0.88192 -0.471399 0
    outer loop
      vertex -4.15735 -2.77785 0
      vertex -4.6194 -1.91342 20
      vertex -4.6194 -1.91342 0
    endloop
  endfacet
  facet normal -0.88192 -0.471399 0
    outer loop
      vertex -4.6194 -1.91342 20
      vertex -4.15735 -2.77785 0
      vertex -4.15735 -2.77785 20
    endloop
  endfacet
  facet normal 0.88192 -0.471399 0
    outer loop
      vertex 4.15735 -2.77785 20
      vertex 4.6194 -1.91342 0
      vertex 4.6194 -1.91342 20
    endloop
  endfacet
  facet normal 0.88192 -0.471399 0
    outer loop
      vertex 4.6194 -1.91342 0
      vertex 4.15735 -2.77785 20
      vertex 4.15735 -2.77785 0
    endloop
  endfacet
  facet normal -0.290285 0.95694 0
    outer loop
      vertex -0.975451 4.90393 0
      vertex -1.91342 4.6194 20
      vertex -0.975451 4.90393 20
    endloop
  endfacet
  facet normal -0.290285 0.95694 0
    outer loop
      vertex -1.91342 4.6194 20
      vertex -0.975451 4.90393 0
      vertex -1.91342 4.6194 0
    endloop
  endfacet
  facet normal 0.290285 -0.95694 0
    outer loop
      vertex 0.975451 -4.90393 0
      vertex 1.91342 -4.6194 20
      vertex 0.975451 -4.90393 20
    endloop
  endfacet
  facet normal 0.290285 -0.95694 0
    outer loop
      vertex 1.91342 -4.6194 20
      vertex 0.975451 -4.90393 0
      vertex 1.91342 -4.6194 0
    endloop
  endfacet
  facet normal 0.634398 0.773006 -0
    outer loop
      vertex 3.53553 3.53553 0
      vertex 2.77785 4.15735 20
      vertex 3.53553 3.53553 20
    endloop
  endfacet
  facet normal 0.634398 0.773006 0
    outer loop
      vertex 2.77785 4.15735 20
      vertex 3.53553 3.53553 0
      vertex 2.77785 4.15735 0
    endloop
  endfacet
  facet normal -0.0980136 0.995185 0
    outer loop
      vertex 0 5 0
      vertex -0.975451 4.90393 20
      vertex 0 5 20
    endloop
  endfacet
  facet normal -0.0980136 0.995185 0
    outer loop
      vertex -0.975451 4.90393 20
      vertex 0 5 0
      vertex -0.975451 4.90393 0
    endloop
  endfacet
  facet normal 0.634398 -0.773006 0
    outer loop
      vertex 2.77785 -4.15735 0
      vertex 3.53553 -3.53553 20
      vertex 2.77785 -4.15735 20
    endloop
  endfacet
  facet normal 0.634398 -0.773006 0
    outer loop
      vertex 3.53553 -3.53553 20
      vertex 2.77785 -4.15735 0
      vertex 3.53553 -3.53553 0
    endloop
  endfacet
  facet normal 0.471399 -0.88192 0
    outer loop
      vertex 1.91342 -4.6194 0
      vertex 2.77785 -4.15735 20
      vertex 1.91342 -4.6194 20
    endloop
  endfacet
  facet normal 0.471399 -0.88192 0
    outer loop
      vertex 2.77785 -4.15735 20
      vertex 1.91342 -4.6194 0
      vertex 2.77785 -4.15735 0
    endloop
  endfacet
  facet normal -0.634398 -0.773006 0
    outer loop
      vertex -3.53553 -3.53553 0
      vertex -2.77785 -4.15735 20
      vertex -3.53553 -3.53553 20
    endloop
  endfacet
  facet normal -0.634398 -0.773006 -0
    outer loop
      vertex -2.77785 -4.15735 20
      vertex -3.53553 -3.53553 0
      vertex -2.77785 -4.15735 0
    endloop
  endfacet
  facet normal 0 0 -1
    outer loop
      vertex 2 0 0
      vertex 5 0 0
      vertex 4.90393 -0.975451 0
    endloop
  endfacet
  facet normal 0 0 -1
    outer loop
      vertex 1.96157 -0.390181 0
      vertex 4.90393 -0.975451 0
      vertex 4.6194 -1.91342 0
    endloop
  endfacet
  facet normal 0 0 -1
    outer loop
      vertex 5 0 0
      vertex 2 0 0
      vertex 4.90393 0.975451 0
    endloop
  endfacet
  facet normal 0 0 -1
    outer loop
      vertex 1.84776 -0.765367 0
      vertex 4.6194 -1.91342 0
      vertex 4.15735 -2.77785 0
    endloop
  endfacet
  facet normal 0 0 -1
    outer loop
      vertex 1.96157 0.390181 0
      vertex 4.90393 0.975451 0
      vertex 2 0 0
    endloop
  endfacet
  facet normal 0 0 -1
    outer loop
      vertex 1.66294 -1.11114 0
      vertex 4.15735 -2.77785 0
      vertex 3.53553 -3.53553 0
    endloop
  endfacet
  facet normal -0 0 -1
    outer loop
      vertex 4.90393 0.975451 0
      vertex 1.96157 0.390181 0
      vertex 4.6194 1.91342 0
    endloop
  endfacet
  facet normal 0 0 -1
    outer loop
      vertex 1.41421 -1.41421 0
      vertex 3.53553 -3.53553 0
      vertex 2.77785 -4.15735 0
    endloop
  endfacet
  facet normal 0 0 -1
    outer loop
      vertex 1.84776 0.765367 0
      vertex 4.6194 1.91342 0
      vertex 1.96157 0.390181 0
    endloop
  endfacet
  facet normal -0 0 -1
    outer loop
      vertex 4.6194 1.91342 0
      vertex 1.84776 0.765367 0
      vertex 4.15735 2.77785 0
    endloop
  endfacet
  facet normal 0 0 -1
    outer loop
      vertex 4.90393 -0.975451 0
      vertex 1.96157 -0.390181 0
      vertex 2 0 0
    endloop
  endfacet
  facet normal 0 0 -1
    outer loop
      vertex 1.11114 -1.66294 0
      vertex 2.77785 -4.15735 0
      vertex 1.91342 -4.6194 0
    endloop
  endfacet
  facet normal 0 0 -1
    outer loop
      vertex 4.6194 -1.91342 0
      vertex 1.84776 -0.765367 0
      vertex 1.96157 -0.390181 0
    endloop
  endfacet
  facet normal 0 0 -1
    outer loop
      vertex 4.15735 -2.77785 0
      vertex 1.66294 -1.11114 0
      vertex 1.84776 -0.765367 0
    endloop
  endfacet
  facet normal 0 0 -1
    outer loop
      vertex 3.53553 -3.53553 0
      vertex 1.41421 -1.41421 0
      vertex 1.66294 -1.11114 0
    endloop
  endfacet
  facet normal 0 0 -1
    outer loop
      vertex 2.77785 -4.15735 0
      vertex 1.11114 -1.66294 0
      vertex 1.41421 -1.41421 0
    endloop
  endfacet
  facet normal 0 0 -1
    outer loop
      vertex 0.765367 -1.84776 0
      vertex 1.91342 -4.6194 0
      vertex 0.975451 -4.90393 0
    endloop
  endfacet
  facet normal 0 0 -1
    outer loop
      vertex 1.91342 -4.6194 0
      vertex 0.765367 -1.84776 0
      vertex 1.11114 -1.66294 0
    endloop
  endfacet
  facet normal 0 0 -1
    outer loop
      vertex 0.975451 -4.90393 0
      vertex 0.390181 -1.96157 0
      vertex 0.765367 -1.84776 0
    endloop
  endfacet
  facet normal 0 0 -1
    outer loop
      vertex 0 -5 0
      vertex 0.390181 -1.96157 0
      vertex 0.975451 -4.90393 0
    endloop
  endfacet
  facet normal 0 0 -1
    outer loop
      vertex 0 -5 0
      vertex 0 -2 0
      vertex 0.390181 -1.96157 0
    endloop
  endfacet
  facet normal 0 0 -1
    outer loop
      vertex 0 -5 0
      vertex -0.390181 -1.96157 0
      vertex 0 -2 0
    endloop
  endfacet
  facet normal 0 0 -1
    outer loop
      vertex -0.975451 -4.90393 0
      vertex -0.390181 -1.96157 0
      vertex 0 -5 0
    endloop
  endfacet
  facet normal -0 0 -1
    outer loop
      vertex -0.390181 -1.96157 0
      vertex -0.975451 -4.90393 0
      vertex -0.765367 -1.84776 0
    endloop
  endfacet
  facet normal 0 0 -1
    outer loop
      vertex -1.91342 -4.6194 0
      vertex -0.765367 -1.84776 0
      vertex -0.975451 -4.90393 0
    endloop
  endfacet
  facet normal -0 0 -1
    outer loop
      vertex -0.765367 -1.84776 0
      vertex -1.91342 -4.6194 0
      vertex -1.11114 -1.66294 0
    endloop
  endfacet
  facet normal 0 0 -1
    outer loop
      vertex -2.77785 -4.15735 0
      vertex -1.11114 -1.66294 0
      vertex -1.91342 -4.6194 0
    endloop
  endfacet
  facet normal -0 0 -1
    outer loop
      vertex -1.11114 -1.66294 0
      vertex -2.77785 -4.15735 0
      vertex -1.41421 -1.41421 0
    endloop
  endfacet
  facet normal 0 0 -1
    outer loop
      vertex -3.53553 -3.53553 0
      vertex -1.41421 -1.41421 0
      vertex -2.77785 -4.15735 0
    endloop
  endfacet
  facet normal -0 0 -1
    outer loop
      vertex -1.41421 -1.41421 0
      vertex -3.53553 -3.53553 0
      vertex -1.66294 -1.11114 0
    endloop
  endfacet
  facet normal 0 0 -1
    outer loop
      vertex -4.15735 -2.77785 0
      vertex -1.66294 -1.11114 0
      vertex -3.53553 -3.53553 0
    endloop
  endfacet
  facet normal -0 0 -1
    outer loop
      vertex -1.66294 -1.11114 0
      vertex -4.15735 -2.77785 0
      vertex -1.84776 -0.765367 0
    endloop
  endfacet
  facet normal 0 0 -1
    outer loop
      vertex 1.66294 1.11114 0
      vertex 4.15735 2.77785 0
      vertex 1.84776 0.765367 0
    endloop
  endfacet
  facet normal -0 0 -1
    outer loop
      vertex 4.15735 2.77785 0
      vertex 1.66294 1.11114 0
      vertex 3.53553 3.53553 0
    endloop
  endfacet
  facet normal 0 0 -1
    outer loop
      vertex 1.41421 1.41421 0
      vertex 3.53553 3.53553 0
      vertex 1.66294 1.11114 0
    endloop
  endfacet
  facet normal -0 0 -1
    outer loop
      vertex 3.53553 3.53553 0
      vertex 1.41421 1.41421 0
      vertex 2.77785 4.15735 0
    endloop
  endfacet
  facet normal 0 0 -1
    outer loop
      vertex 1.11114 1.66294 0
      vertex 2.77785 4.15735 0
      vertex 1.41421 1.41421 0
    endloop
  endfacet
  facet normal -0 0 -1
    outer loop
      vertex 2.77785 4.15735 0
      vertex 1.11114 1.66294 0
      vertex 1.91342 4.6194 0
    endloop
  endfacet
  facet normal 0 0 -1
    outer loop
      vertex 0.765367 1.84776 0
      vertex 1.91342 4.6194 0
      vertex 1.11114 1.66294 0
    endloop
  endfacet
  facet normal -0 0 -1
    outer loop
      vertex 1.91342 4.6194 0
      vertex 0.765367 1.84776 0
      vertex 0.975451 4.90393 0
    endloop
  endfacet
  facet normal 0 0 -1
    outer loop
      vertex 0.390181 1.96157 0
      vertex 0.975451 4.90393 0
      vertex 0.765367 1.84776 0
    endloop
  endfacet
  facet normal 0 0 -1
    outer loop
      vertex 0 2 0
      vertex 0.975451 4.90393 0
      vertex 0.390181 1.96157 0
    endloop
  endfacet
  facet normal 0 0 -1
    outer loop
      vertex 0 2 0
      vertex 0 5 0
      vertex 0.975451 4.90393 0
    endloop
  endfacet
  facet normal 0 0 -1
    outer loop
      vertex -0.390181 1.96157 0
      vertex 0 5 0
      vertex 0 2 0
    endloop
  endfacet
  facet normal 0 0 -1
    outer loop
      vertex -0.975451 4.90393 0
      vertex -0.390181 1.96157 0
      vertex -0.765367 1.84776 0
    endloop
  endfacet
  facet normal 0 0 -1
    outer loop
      vertex -0.390181 1.96157 0
      vertex -0.975451 4.90393 0
      vertex 0 5 0
    endloop
  endfacet
  facet normal 0 0 -1
    outer loop
      vertex -1.91342 4.6194 0
      vertex -0.765367 1.84776 0
      vertex -1.11114 1.66294 0
    endloop
  endfacet
  facet normal 0 0 -1
    outer loop
      vertex -2.77785 4.15735 0
      vertex -1.11114 1.66294 0
      vertex -1.41421 1.41421 0
    endloop
  endfacet
  facet normal 0 0 -1
    outer loop
      vertex -3.53553 3.53553 0
      vertex -1.41421 1.41421 0
      vertex -1.66294 1.11114 0
    endloop
  endfacet
  facet normal 0 0 -1
    outer loop
      vertex -4.15735 2.77785 0
      vertex -1.66294 1.11114 0
      vertex -1.84776 0.765367 0
    endloop
  endfacet
  facet normal 0 0 -1
    outer loop
      vertex -0.765367 1.84776 0
      vertex -1.91342 4.6194 0
      vertex -0.975451 4.90393 0
    endloop
  endfacet
  facet normal 0 0 -1
    outer loop
      vertex -4.6194 1.91342 0
      vertex -1.84776 0.765367 0
      vertex -1.96157 0.390181 0
    endloop
  endfacet
  facet normal 0 0 -1
    outer loop
      vertex -4.90393 0.975451 0
      vertex -1.96157 0.390181 0
      vertex -2 0 0
    endloop
  endfacet
  facet normal 0 0 -1
    outer loop
      vertex -4.6194 -1.91342 0
      vertex -1.84776 -0.765367 0
      vertex -4.15735 -2.77785 0
    endloop
  endfacet
  facet normal 0 0 -1
    outer loop
      vertex -1.11114 1.66294 0
      vertex -2.77785 4.15735 0
      vertex -1.91342 4.6194 0
    endloop
  endfacet
  facet normal -0 0 -1
    outer loop
      vertex -1.84776 -0.765367 0
      vertex -4.6194 -1.91342 0
      vertex -1.96157 -0.390181 0
    endloop
  endfacet
  facet normal 0 0 -1
    outer loop
      vertex -1.41421 1.41421 0
      vertex -3.53553 3.53553 0
      vertex -2.77785 4.15735 0
    endloop
  endfacet
  facet normal 0 0 -1
    outer loop
      vertex -4.90393 -0.975451 0
      vertex -1.96157 -0.390181 0
      vertex -4.6194 -1.91342 0
    endloop
  endfacet
  facet normal 0 0 -1
    outer loop
      vertex -1.66294 1.11114 0
      vertex -4.15735 2.77785 0
      vertex -3.53553 3.53553 0
    endloop
  endfacet
  facet normal -0 0 -1
    outer loop
      vertex -1.96157 -0.390181 0
      vertex -4.90393 -0.975451 0
      vertex -2 0 0
    endloop
  endfacet
  facet normal 0 0 -1
    outer loop
      vertex -1.84776 0.765367 0
      vertex -4.6194 1.91342 0
      vertex -4.15735 2.77785 0
    endloop
  endfacet
  facet normal 0 0 -1
    outer loop
      vertex -5 0 0
      vertex -2 0 0
      vertex -4.90393 -0.975451 0
    endloop
  endfacet
  facet normal 0 0 -1
    outer loop
      vertex -1.96157 0.390181 0
      vertex -4.90393 0.975451 0
      vertex -4.6194 1.91342 0
    endloop
  endfacet
  facet normal 0 0 -1
    outer loop
      vertex -2 0 0
      vertex -5 0 0
      vertex -4.90393 0.975451 0
    endloop
  endfacet
  facet normal 0.773006 -0.634398 0
    outer loop
      vertex 3.53553 -3.53553 20
      vertex 4.15735 -2.77785 0
      vertex 4.15735 -2.77785 20
    endloop
  endfacet
  facet normal 0.773006 -0.634398 0
    outer loop
      vertex 4.15735 -2.77785 0
      vertex 3.53553 -3.53553 20
      vertex 3.53553 -3.53553 0
    endloop
  endfacet
  facet normal -0.995185 0.0980136 0
    outer loop
      vertex -5 0 0
      vertex -4.90393 0.975451 20
      vertex -4.90393 0.975451 0
    endloop
  endfacet
  facet normal -0.995185 0.0980136 0
    outer loop
      vertex -4.90393 0.975451 20
      vertex -5 0 0
      vertex -5 0 20
    endloop
  endfacet
  facet normal -0.471399 0.88192 0
    outer loop
      vertex -1.91342 4.6194 0
      vertex -2.77785 4.15735 20
      vertex -1.91342 4.6194 20
    endloop
  endfacet
  facet normal -0.471399 0.88192 0
    outer loop
      vertex -2.77785 4.15735 20
      vertex -1.91342 4.6194 0
      vertex -2.77785 4.15735 0
    endloop
  endfacet
  facet normal 0.471399 0.88192 -0
    outer loop
      vertex 2.77785 4.15735 0
      vertex 1.91342 4.6194 20
      vertex 2.77785 4.15735 20
    endloop
  endfacet
  facet normal 0.471399 0.88192 0
    outer loop
      vertex 1.91342 4.6194 20
      vertex 2.77785 4.15735 0
      vertex 1.91342 4.6194 0
    endloop
  endfacet
  facet normal 0.290285 0.95694 -0
    outer loop
      vertex 1.91342 4.6194 0
      vertex 0.975451 4.90393 20
      vertex 1.91342 4.6194 20
    endloop
  endfacet
  facet normal 0.290285 0.95694 0
    outer loop
      vertex 0.975451 4.90393 20
      vertex 1.91342 4.6194 0
      vertex 0.975451 4.90393 0
    endloop
  endfacet
  facet normal -0.95694 0.290285 0
    outer loop
      vertex -4.90393 0.975451 0
      vertex -4.6194 1.91342 20
      vertex -4.6194 1.91342 0
    endloop
  endfacet
  facet normal -0.95694 0.290285 0
    outer loop
      vertex -4.6194 1.91342 20
      vertex -4.90393 0.975451 0
      vertex -4.90393 0.975451 20
    endloop
  endfacet
  facet normal 0.0980136 -0.995185 0
    outer loop
      vertex 0 -5 0
      vertex 0.975451 -4.90393 20
      vertex 0 -5 20
    endloop
  endfacet
  facet normal 0.0980136 -0.995185 0
    outer loop
      vertex 0.975451 -4.90393 20
      vertex 0 -5 0
      vertex 0.975451 -4.90393 0
    endloop
  endfacet
  facet normal -0.88192 0.471399 0
    outer loop
      vertex -4.6194 1.91342 0
      vertex -4.15735 2.77785 20
      vertex -4.15735 2.77785 0
    endloop
  endfacet
  facet normal -0.88192 0.471399 0
    outer loop
      vertex -4.15735 2.77785 20
      vertex -4.6194 1.91342 0
      vertex -4.6194 1.91342 20
    endloop
  endfacet
  facet normal 0.95694 -0.290285 0
    outer loop
      vertex 4.6194 -1.91342 20
      vertex 4.90393 -0.975451 0
      vertex 4.90393 -0.975451 20
    endloop
  endfacet
  facet normal 0.95694 -0.290285 0
    outer loop
      vertex 4.90393 -0.975451 0
      vertex 4.6194 -1.91342 20
      vertex 4.6194 -1.91342 0
    endloop
  endfacet
  facet normal 0.995185 -0.0980136 0
    outer loop
      vertex 4.90393 -0.975451 20
      vertex 5 0 0
      vertex 5 0 20
    endloop
  endfacet
  facet normal 0.995185 -0.0980136 0
    outer loop
      vertex 5 0 0
      vertex 4.90393 -0.975451 20
      vertex 4.90393 -0.975451 0
    endloop
  endfacet
  facet normal -0.95694 -0.290285 0
    outer loop
      vertex -4.6194 -1.91342 0
      vertex -4.90393 -0.975451 20
      vertex -4.90393 -0.975451 0
    endloop
  endfacet
  facet normal -0.95694 -0.290285 0
    outer loop
      vertex -4.90393 -0.975451 20
      vertex -4.6194 -1.91342 0
      vertex -4.6194 -1.91342 20
    endloop
  endfacet
  facet normal -0.995185 -0.0980136 0
    outer loop
      vertex -4.90393 -0.975451 0
      vertex -5 0 20
      vertex -5 0 0
    endloop
  endfacet
  facet normal -0.995185 -0.0980136 0
    outer loop
      vertex -5 0 20
      vertex -4.90393 -0.975451 0
      vertex -4.90393 -0.975451 20
    endloop
  endfacet
  facet normal -0.773006 -0.634398 0
    outer loop
      vertex -3.53553 -3.53553 0
      vertex -4.15735 -2.77785 20
      vertex -4.15735 -2.77785 0
    endloop
  endfacet
  facet normal -0.773006 -0.634398 0
    outer loop
      vertex -4.15735 -2.77785 20
      vertex -3.53553 -3.53553 0
      vertex -3.53553 -3.53553 20
    endloop
  endfacet
  facet normal -0.471399 -0.88192 0
    outer loop
      vertex -2.77785 -4.15735 0
      vertex -1.91342 -4.6194 20
      vertex -2.77785 -4.15735 20
    endloop
  endfacet
  facet normal -0.471399 -0.88192 -0
    outer loop
      vertex -1.91342 -4.6194 20
      vertex -2.77785 -4.15735 0
      vertex -1.91342 -4.6194 0
    endloop
  endfacet
  facet normal -0.0980136 -0.995185 0
    outer loop
      vertex -0.975451 -4.90393 0
      vertex 0 -5 20
      vertex -0.975451 -4.90393 20
    endloop
  endfacet
  facet normal -0.0980136 -0.995185 -0
    outer loop
      vertex 0 -5 20
      vertex -0.975451 -4.90393 0
      vertex 0 -5 0
    endloop
  endfacet
  facet normal -0.290285 -0.95694 0
    outer loop
      vertex -1.91342 -4.6194 0
      vertex -0.975451 -4.90393 20
      vertex -1.91342 -4.6194 20
    endloop
  endfacet
  facet normal -0.290285 -0.95694 -0
    outer loop
      vertex -0.975451 -4.90393 20
      vertex -1.91342 -4.6194 0
      vertex -0.975451 -4.90393 0
    endloop
  endfacet
  facet normal -0.881921 -0.471398 0
    outer loop
      vertex 1.84776 0.765367 0
      vertex 1.66294 1.11114 20
      vertex 1.66294 1.11114 0
    endloop
  endfacet
  facet normal -0.881921 -0.471398 0
    outer loop
      vertex 1.66294 1.11114 20
      vertex 1.84776 0.765367 0
      vertex 1.84776 0.765367 20
    endloop
  endfacet
  facet normal 0.0980185 -0.995185 0
    outer loop
      vertex -0.390181 1.96157 0
      vertex 0 2 20
      vertex -0.390181 1.96157 20
    endloop
  endfacet
  facet normal 0.0980185 -0.995185 0
    outer loop
      vertex 0 2 20
      vertex -0.390181 1.96157 0
      vertex 0 2 0
    endloop
  endfacet
  facet normal 0.995185 0.0980185 0
    outer loop
      vertex -1.96157 -0.390181 20
      vertex -2 0 0
      vertex -2 0 20
    endloop
  endfacet
  facet normal 0.995185 0.0980185 0
    outer loop
      vertex -2 0 0
      vertex -1.96157 -0.390181 20
      vertex -1.96157 -0.390181 0
    endloop
  endfacet
  facet normal -0.956941 -0.290281 0
    outer loop
      vertex 1.96157 0.390181 0
      vertex 1.84776 0.765367 20
      vertex 1.84776 0.765367 0
    endloop
  endfacet
  facet normal -0.956941 -0.290281 0
    outer loop
      vertex 1.84776 0.765367 20
      vertex 1.96157 0.390181 0
      vertex 1.96157 0.390181 20
    endloop
  endfacet
  facet normal -0.995185 0.0980185 0
    outer loop
      vertex 1.96157 -0.390181 0
      vertex 2 0 20
      vertex 2 0 0
    endloop
  endfacet
  facet normal -0.995185 0.0980185 0
    outer loop
      vertex 2 0 20
      vertex 1.96157 -0.390181 0
      vertex 1.96157 -0.390181 20
    endloop
  endfacet
  facet normal -0.471398 -0.881921 0
    outer loop
      vertex 0.765367 1.84776 0
      vertex 1.11114 1.66294 20
      vertex 0.765367 1.84776 20
    endloop
  endfacet
  facet normal -0.471398 -0.881921 -0
    outer loop
      vertex 1.11114 1.66294 20
      vertex 0.765367 1.84776 0
      vertex 1.11114 1.66294 0
    endloop
  endfacet
  facet normal -0.773002 -0.634404 0
    outer loop
      vertex 1.66294 1.11114 0
      vertex 1.41421 1.41421 20
      vertex 1.41421 1.41421 0
    endloop
  endfacet
  facet normal -0.773002 -0.634404 0
    outer loop
      vertex 1.41421 1.41421 20
      vertex 1.66294 1.11114 0
      vertex 1.66294 1.11114 20
    endloop
  endfacet
  facet normal 0.956941 -0.290281 0
    outer loop
      vertex -1.96157 0.390181 20
      vertex -1.84776 0.765367 0
      vertex -1.84776 0.765367 20
    endloop
  endfacet
  facet normal 0.956941 -0.290281 0
    outer loop
      vertex -1.84776 0.765367 0
      vertex -1.96157 0.390181 20
      vertex -1.96157 0.390181 0
    endloop
  endfacet
  facet normal 0.956941 0.290281 0
    outer loop
      vertex -1.84776 -0.765367 20
      vertex -1.96157 -0.390181 0
      vertex -1.96157 -0.390181 20
    endloop
  endfacet
  facet normal 0.956941 0.290281 0
    outer loop
      vertex -1.96157 -0.390181 0
      vertex -1.84776 -0.765367 20
      vertex -1.84776 -0.765367 0
    endloop
  endfacet
  facet normal -0.995185 -0.0980185 0
    outer loop
      vertex 2 0 0
      vertex 1.96157 0.390181 20
      vertex 1.96157 0.390181 0
    endloop
  endfacet
  facet normal -0.995185 -0.0980185 0
    outer loop
      vertex 1.96157 0.390181 20
      vertex 2 0 0
      vertex 2 0 20
    endloop
  endfacet
  facet normal 0.471398 -0.881921 0
    outer loop
      vertex -1.11114 1.66294 0
      vertex -0.765367 1.84776 20
      vertex -1.11114 1.66294 20
    endloop
  endfacet
  facet normal 0.471398 -0.881921 0
    outer loop
      vertex -0.765367 1.84776 20
      vertex -1.11114 1.66294 0
      vertex -0.765367 1.84776 0
    endloop
  endfacet
  facet normal 0.290281 0.956941 -0
    outer loop
      vertex -0.390181 -1.96157 0
      vertex -0.765367 -1.84776 20
      vertex -0.390181 -1.96157 20
    endloop
  endfacet
  facet normal 0.290281 0.956941 0
    outer loop
      vertex -0.765367 -1.84776 20
      vertex -0.390181 -1.96157 0
      vertex -0.765367 -1.84776 0
    endloop
  endfacet
  facet normal -0.0980185 -0.995185 0
    outer loop
      vertex 0 2 0
      vertex 0.390181 1.96157 20
      vertex 0 2 20
    endloop
  endfacet
  facet normal -0.0980185 -0.995185 -0
    outer loop
      vertex 0.390181 1.96157 20
      vertex 0 2 0
      vertex 0.390181 1.96157 0
    endloop
  endfacet
  facet normal -0.634404 0.773002 0
    outer loop
      vertex 1.41421 -1.41421 0
      vertex 1.11114 -1.66294 20
      vertex 1.41421 -1.41421 20
    endloop
  endfacet
  facet normal -0.634404 0.773002 0
    outer loop
      vertex 1.11114 -1.66294 20
      vertex 1.41421 -1.41421 0
      vertex 1.11114 -1.66294 0
    endloop
  endfacet
  facet normal -0.0980185 0.995185 0
    outer loop
      vertex 0.390181 -1.96157 0
      vertex 0 -2 20
      vertex 0.390181 -1.96157 20
    endloop
  endfacet
  facet normal -0.0980185 0.995185 0
    outer loop
      vertex 0 -2 20
      vertex 0.390181 -1.96157 0
      vertex 0 -2 0
    endloop
  endfacet
  facet normal 0.995185 -0.0980185 0
    outer loop
      vertex -2 0 20
      vertex -1.96157 0.390181 0
      vertex -1.96157 0.390181 20
    endloop
  endfacet
  facet normal 0.995185 -0.0980185 0
    outer loop
      vertex -1.96157 0.390181 0
      vertex -2 0 20
      vertex -2 0 0
    endloop
  endfacet
  facet normal 0.634404 0.773002 -0
    outer loop
      vertex -1.11114 -1.66294 0
      vertex -1.41421 -1.41421 20
      vertex -1.11114 -1.66294 20
    endloop
  endfacet
  facet normal 0.634404 0.773002 0
    outer loop
      vertex -1.41421 -1.41421 20
      vertex -1.11114 -1.66294 0
      vertex -1.41421 -1.41421 0
    endloop
  endfacet
  facet normal 0.290281 -0.956941 0
    outer loop
      vertex -0.765367 1.84776 0
      vertex -0.390181 1.96157 20
      vertex -0.765367 1.84776 20
    endloop
  endfacet
  facet normal 0.290281 -0.956941 0
    outer loop
      vertex -0.390181 1.96157 20
      vertex -0.765367 1.84776 0
      vertex -0.390181 1.96157 0
    endloop
  endfacet
  facet normal -0.471398 0.881921 0
    outer loop
      vertex 1.11114 -1.66294 0
      vertex 0.765367 -1.84776 20
      vertex 1.11114 -1.66294 20
    endloop
  endfacet
  facet normal -0.471398 0.881921 0
    outer loop
      vertex 0.765367 -1.84776 20
      vertex 1.11114 -1.66294 0
      vertex 0.765367 -1.84776 0
    endloop
  endfacet
  facet normal -0.290281 -0.956941 0
    outer loop
      vertex 0.390181 1.96157 0
      vertex 0.765367 1.84776 20
      vertex 0.390181 1.96157 20
    endloop
  endfacet
  facet normal -0.290281 -0.956941 -0
    outer loop
      vertex 0.765367 1.84776 20
      vertex 0.390181 1.96157 0
      vertex 0.765367 1.84776 0
    endloop
  endfacet
  facet normal -0.634404 -0.773002 0
    outer loop
      vertex 1.11114 1.66294 0
      vertex 1.41421 1.41421 20
      vertex 1.11114 1.66294 20
    endloop
  endfacet
  facet normal -0.634404 -0.773002 -0
    outer loop
      vertex 1.41421 1.41421 20
      vertex 1.11114 1.66294 0
      vertex 1.41421 1.41421 0
    endloop
  endfacet
  facet normal 0.773002 -0.634404 0
    outer loop
      vertex -1.66294 1.11114 20
      vertex -1.41421 1.41421 0
      vertex -1.41421 1.41421 20
    endloop
  endfacet
  facet normal 0.773002 -0.634404 0
    outer loop
      vertex -1.41421 1.41421 0
      vertex -1.66294 1.11114 20
      vertex -1.66294 1.11114 0
    endloop
  endfacet
  facet normal 0.634404 -0.773002 0
    outer loop
      vertex -1.41421 1.41421 0
      vertex -1.11114 1.66294 20
      vertex -1.41421 1.41421 20
    endloop
  endfacet
  facet normal 0.634404 -0.773002 0
    outer loop
      vertex -1.11114 1.66294 20
      vertex -1.41421 1.41421 0
      vertex -1.11114 1.66294 0
    endloop
  endfacet
  facet normal 0.881921 0.471398 0
    outer loop
      vertex -1.66294 -1.11114 20
      vertex -1.84776 -0.765367 0
      vertex -1.84776 -0.765367 20
    endloop
  endfacet
  facet normal 0.881921 0.471398 0
    outer loop
      vertex -1.84776 -0.765367 0
      vertex -1.66294 -1.11114 20
      vertex -1.66294 -1.11114 0
    endloop
  endfacet
  facet normal 0.773002 0.634404 0
    outer loop
      vertex -1.41421 -1.41421 20
      vertex -1.66294 -1.11114 0
      vertex -1.66294 -1.11114 20
    endloop
  endfacet
  facet normal 0.773002 0.634404 0
    outer loop
      vertex -1.66294 -1.11114 0
      vertex -1.41421 -1.41421 20
      vertex -1.41421 -1.41421 0
    endloop
  endfacet
  facet normal -0.290281 0.956941 0
    outer loop
      vertex 0.765367 -1.84776 0
      vertex 0.390181 -1.96157 20
      vertex 0.765367 -1.84776 20
    endloop
  endfacet
  facet normal -0.290281 0.956941 0
    outer loop
      vertex 0.390181 -1.96157 20
      vertex 0.765367 -1.84776 0
      vertex 0.390181 -1.96157 0
    endloop
  endfacet
  facet normal 0.881921 -0.471398 0
    outer loop
      vertex -1.84776 0.765367 20
      vertex -1.66294 1.11114 0
      vertex -1.66294 1.11114 20
    endloop
  endfacet
  facet normal 0.881921 -0.471398 0
    outer loop
      vertex -1.66294 1.11114 0
      vertex -1.84776 0.765367 20
      vertex -1.84776 0.765367 0
    endloop
  endfacet
  facet normal -0.881921 0.471398 0
    outer loop
      vertex 1.66294 -1.11114 0
      vertex 1.84776 -0.765367 20
      vertex 1.84776 -0.765367 0
    endloop
  endfacet
  facet normal -0.881921 0.471398 0
    outer loop
      vertex 1.84776 -0.765367 20
      vertex 1.66294 -1.11114 0
      vertex 1.66294 -1.11114 20
    endloop
  endfacet
  facet normal -0.773002 0.634404 0
    outer loop
      vertex 1.41421 -1.41421 0
      vertex 1.66294 -1.11114 20
      vertex 1.66294 -1.11114 0
    endloop
  endfacet
  facet normal -0.773002 0.634404 0
    outer loop
      vertex 1.66294 -1.11114 20
      vertex 1.41421 -1.41421 0
      vertex 1.41421 -1.41421 20
    endloop
  endfacet
  facet normal 0.0980185 0.995185 -0
    outer loop
      vertex 0 -2 0
      vertex -0.390181 -1.96157 20
      vertex 0 -2 20
    endloop
  endfacet
  facet normal 0.0980185 0.995185 0
    outer loop
      vertex -0.390181 -1.96157 20
      vertex 0 -2 0
      vertex -0.390181 -1.96157 0
    endloop
  endfacet
  facet normal 0.471398 0.881921 -0
    outer loop
      vertex -0.765367 -1.84776 0
      vertex -1.11114 -1.66294 20
      vertex -0.765367 -1.84776 20
    endloop
  endfacet
  facet normal 0.471398 0.881921 0
    outer loop
      vertex -1.11114 -1.66294 20
      vertex -0.765367 -1.84776 0
      vertex -1.11114 -1.66294 0
    endloop
  endfacet
  facet normal -0.956941 0.290281 0
    outer loop
      vertex 1.84776 -0.765367 0
      vertex 1.96157 -0.390181 20
      vertex 1.96157 -0.390181 0
    endloop
  endfacet
  facet normal -0.956941 0.290281 0
    outer loop
      vertex 1.96157 -0.390181 20
      vertex 1.84776 -0.765367 0
      vertex 1.84776 -0.765367 20
    endloop
  endfacet
endsolid OpenSCAD_Model
