solid OpenSCAD_Model
  facet normal -0.793351 -0.608765 0
    outer loop
      vertex 2.59808 1.5 0
      vertex 2.12132 2.12132 1
      vertex 2.12132 2.12132 0
    endloop
  endfacet
  facet normal -0.793351 -0.608765 0
    outer loop
      vertex 2.12132 2.12132 1
      vertex 2.59808 1.5 0
      vertex 2.59808 1.5 1
    endloop
  endfacet
  facet normal -0.991445 -0.130523 0
    outer loop
      vertex 3 0 0
      vertex 2.89778 0.776457 1
      vertex 2.89778 0.776457 0
    endloop
  endfacet
  facet normal -0.991445 -0.130523 0
    outer loop
      vertex 2.89778 0.776457 1
      vertex 3 0 0
      vertex 3 0 1
    endloop
  endfacet
  facet normal -0.92388 -0.382682 0
    outer loop
      vertex 2.89778 0.776457 0
      vertex 2.59808 1.5 1
      vertex 2.59808 1.5 0
    endloop
  endfacet
  facet normal -0.92388 -0.382682 0
    outer loop
      vertex 2.59808 1.5 1
      vertex 2.89778 0.776457 0
      vertex 2.89778 0.776457 1
    endloop
  endfacet
  facet normal -0.382682 -0.92388 0
    outer loop
      vertex 0.776457 2.89778 0
      vertex 1.5 2.59808 1
      vertex 0.776457 2.89778 1
    endloop
  endfacet
  facet normal -0.382682 -0.92388 -0
    outer loop
      vertex 1.5 2.59808 1
      vertex 0.776457 2.89778 0
      vertex 1.5 2.59808 0
    endloop
  endfacet
  facet normal 0 0 -1
    outer loop
      vertex 2.89778 0.776457 0
      vertex 47 0 0
      vertex 3 0 0
    endloop
  endfacet
  facet normal 0 0 -1
    outer loop
      vertex 47 0 0
      vertex 2.89778 0.776457 0
      vertex 47 15 0
    endloop
  endfacet
  facet normal 0 0 -1
    outer loop
      vertex 2.89778 14.2235 0
      vertex 47 15 0
      vertex 2.89778 0.776457 0
    endloop
  endfacet
  facet normal -0 0 -1
    outer loop
      vertex 47 15 0
      vertex 2.89778 14.2235 0
      vertex 3 15 0
    endloop
  endfacet
  facet normal 0 0 -1
    outer loop
      vertex 2.59808 1.5 0
      vertex 2.89778 14.2235 0
      vertex 2.89778 0.776457 0
    endloop
  endfacet
  facet normal 0 0 -1
    outer loop
      vertex 2.59808 1.5 0
      vertex 2.59808 13.5 0
      vertex 2.89778 14.2235 0
    endloop
  endfacet
  facet normal 0 0 -1
    outer loop
      vertex 2.12132 2.12132 0
      vertex 2.59808 13.5 0
      vertex 2.59808 1.5 0
    endloop
  endfacet
  facet normal 0 0 -1
    outer loop
      vertex 2.12132 2.12132 0
      vertex 2.12132 12.8787 0
      vertex 2.59808 13.5 0
    endloop
  endfacet
  facet normal 0 0 -1
    outer loop
      vertex 1.5 2.59808 0
      vertex 2.12132 12.8787 0
      vertex 2.12132 2.12132 0
    endloop
  endfacet
  facet normal 0 0 -1
    outer loop
      vertex 1.5 2.59808 0
      vertex 1.5 12.4019 0
      vertex 2.12132 12.8787 0
    endloop
  endfacet
  facet normal 0 0 -1
    outer loop
      vertex 0.776457 2.89778 0
      vertex 1.5 12.4019 0
      vertex 1.5 2.59808 0
    endloop
  endfacet
  facet normal 0 0 -1
    outer loop
      vertex 0.776457 2.89778 0
      vertex 0.776457 12.1022 0
      vertex 1.5 12.4019 0
    endloop
  endfacet
  facet normal 0 0 -1
    outer loop
      vertex 0 3 0
      vertex 0.776457 12.1022 0
      vertex 0.776457 2.89778 0
    endloop
  endfacet
  facet normal 0 0 -1
    outer loop
      vertex 0.776457 12.1022 0
      vertex 0 3 0
      vertex 0 12 0
    endloop
  endfacet
  facet normal -0.130523 -0.991445 0
    outer loop
      vertex 0 3 0
      vertex 0.776457 2.89778 1
      vertex 0 3 1
    endloop
  endfacet
  facet normal -0.130523 -0.991445 -0
    outer loop
      vertex 0.776457 2.89778 1
      vertex 0 3 0
      vertex 0.776457 2.89778 0
    endloop
  endfacet
  facet normal -0.608765 -0.793351 0
    outer loop
      vertex 1.5 2.59808 0
      vertex 2.12132 2.12132 1
      vertex 1.5 2.59808 1
    endloop
  endfacet
  facet normal -0.608765 -0.793351 -0
    outer loop
      vertex 2.12132 2.12132 1
      vertex 1.5 2.59808 0
      vertex 2.12132 2.12132 0
    endloop
  endfacet
  facet normal 0 0 -1
    outer loop
      vertex 0 0 1
      vertex 2.89778 0.776457 1
      vertex 3 0 1
    endloop
  endfacet
  facet normal -0 0 -1
    outer loop
      vertex 2.89778 0.776457 1
      vertex 0 0 1
      vertex 2.59808 1.5 1
    endloop
  endfacet
  facet normal -0 0 -1
    outer loop
      vertex 2.59808 1.5 1
      vertex 0 0 1
      vertex 2.12132 2.12132 1
    endloop
  endfacet
  facet normal -0 0 -1
    outer loop
      vertex 2.12132 2.12132 1
      vertex 0 0 1
      vertex 1.5 2.59808 1
    endloop
  endfacet
  facet normal -0 0 -1
    outer loop
      vertex 1.5 2.59808 1
      vertex 0 0 1
      vertex 0.776457 2.89778 1
    endloop
  endfacet
  facet normal -0 0 -1
    outer loop
      vertex 0.776457 2.89778 1
      vertex 0 0 1
      vertex 0 3 1
    endloop
  endfacet
  facet normal -0.923872 0.382701 0
    outer loop
      vertex 2.59808 13.5 0
      vertex 2.89778 14.2235 1
      vertex 2.89778 14.2235 0
    endloop
  endfacet
  facet normal -0.923872 0.382701 0
    outer loop
      vertex 2.89778 14.2235 1
      vertex 2.59808 13.5 0
      vertex 2.59808 13.5 1
    endloop
  endfacet
  facet normal 0 0 -1
    outer loop
      vertex 0 15 1
      vertex 2.89778 14.2235 1
      vertex 2.59808 13.5 1
    endloop
  endfacet
  facet normal 0 0 -1
    outer loop
      vertex 0 15 1
      vertex 2.59808 13.5 1
      vertex 2.12132 12.8787 1
    endloop
  endfacet
  facet normal 0 0 -1
    outer loop
      vertex 0 15 1
      vertex 2.12132 12.8787 1
      vertex 1.5 12.4019 1
    endloop
  endfacet
  facet normal 0 0 -1
    outer loop
      vertex 0 15 1
      vertex 1.5 12.4019 1
      vertex 0.776457 12.1022 1
    endloop
  endfacet
  facet normal 0 0 -1
    outer loop
      vertex 0 15 1
      vertex 0.776457 12.1022 1
      vertex 0 12 1
    endloop
  endfacet
  facet normal 0 0 -1
    outer loop
      vertex 2.89778 14.2235 1
      vertex 0 15 1
      vertex 3 15 1
    endloop
  endfacet
  facet normal -0.793341 0.608777 0
    outer loop
      vertex 2.12132 12.8787 0
      vertex 2.59808 13.5 1
      vertex 2.59808 13.5 0
    endloop
  endfacet
  facet normal -0.793341 0.608777 0
    outer loop
      vertex 2.59808 13.5 1
      vertex 2.12132 12.8787 0
      vertex 2.12132 12.8787 1
    endloop
  endfacet
  facet normal -0.382682 0.92388 0
    outer loop
      vertex 1.5 12.4019 0
      vertex 0.776457 12.1022 1
      vertex 1.5 12.4019 1
    endloop
  endfacet
  facet normal -0.382682 0.92388 0
    outer loop
      vertex 0.776457 12.1022 1
      vertex 1.5 12.4019 0
      vertex 0.776457 12.1022 0
    endloop
  endfacet
  facet normal -0.991446 0.130516 0
    outer loop
      vertex 2.89778 14.2235 0
      vertex 3 15 1
      vertex 3 15 0
    endloop
  endfacet
  facet normal -0.991446 0.130516 0
    outer loop
      vertex 3 15 1
      vertex 2.89778 14.2235 0
      vertex 2.89778 14.2235 1
    endloop
  endfacet
  facet normal -0.130498 0.991449 0
    outer loop
      vertex 0.776457 12.1022 0
      vertex 0 12 1
      vertex 0.776457 12.1022 1
    endloop
  endfacet
  facet normal -0.130498 0.991449 0
    outer loop
      vertex 0 12 1
      vertex 0.776457 12.1022 0
      vertex 0 12 0
    endloop
  endfacet
  facet normal -0.608797 0.793326 0
    outer loop
      vertex 2.12132 12.8787 0
      vertex 1.5 12.4019 1
      vertex 2.12132 12.8787 1
    endloop
  endfacet
  facet normal -0.608797 0.793326 0
    outer loop
      vertex 1.5 12.4019 1
      vertex 2.12132 12.8787 0
      vertex 1.5 12.4019 0
    endloop
  endfacet
  facet normal -0 0 1
    outer loop
      vertex 0 15 10
      vertex 47 0 10
      vertex 47 15 10
    endloop
  endfacet
  facet normal 0 0 1
    outer loop
      vertex 47 0 10
      vertex 0 15 10
      vertex 0 0 10
    endloop
  endfacet
  facet normal -1 0 0
    outer loop
      vertex 0 12 0
      vertex 0 3 0
      vertex 0 12 1
    endloop
  endfacet
  facet normal -1 0 0
    outer loop
      vertex 0 12 1
      vertex 0 15 10
      vertex 0 15 1
    endloop
  endfacet
  facet normal -1 0 0
    outer loop
      vertex 0 3 1
      vertex 0 12 1
      vertex 0 3 0
    endloop
  endfacet
  facet normal -1 0 0
    outer loop
      vertex 0 12 1
      vertex 0 3 1
      vertex 0 15 10
    endloop
  endfacet
  facet normal -1 0 0
    outer loop
      vertex 0 0 10
      vertex 0 3 1
      vertex 0 0 1
    endloop
  endfacet
  facet normal -1 0 0
    outer loop
      vertex 0 3 1
      vertex 0 0 10
      vertex 0 15 10
    endloop
  endfacet
  facet normal 0 1 0
    outer loop
      vertex 47 15 10
      vertex 3 15 1
      vertex 0 15 10
    endloop
  endfacet
  facet normal 0 1 -0
    outer loop
      vertex 47 15 0
      vertex 3 15 1
      vertex 47 15 10
    endloop
  endfacet
  facet normal 0 1 0
    outer loop
      vertex 3 15 1
      vertex 47 15 0
      vertex 3 15 0
    endloop
  endfacet
  facet normal 0 1 0
    outer loop
      vertex 0 15 10
      vertex 3 15 1
      vertex 0 15 1
    endloop
  endfacet
  facet normal 0 -1 0
    outer loop
      vertex 3 0 1
      vertex 0 0 10
      vertex 0 0 1
    endloop
  endfacet
  facet normal 0 -1 0
    outer loop
      vertex 0 0 10
      vertex 3 0 1
      vertex 47 0 10
    endloop
  endfacet
  facet normal 0 -1 0
    outer loop
      vertex 47 0 0
      vertex 3 0 1
      vertex 3 0 0
    endloop
  endfacet
  facet normal 0 -1 0
    outer loop
      vertex 3 0 1
      vertex 47 0 0
      vertex 47 0 10
    endloop
  endfacet
  facet normal 1 -0 0
    outer loop
      vertex 47 0 10
      vertex 47 15 0
      vertex 47 15 10
    endloop
  endfacet
  facet normal 1 0 0
    outer loop
      vertex 47 15 0
      vertex 47 0 10
      vertex 47 0 0
    endloop
  endfacet
endsolid OpenSCAD_Model
