solid OpenSCAD_Model
  facet normal -0 0 1
    outer loop
      vertex 0 19 10
      vertex 99 0 10
      vertex 99 19 10
    endloop
  endfacet
  facet normal 0 0 1
    outer loop
      vertex 99 0 10
      vertex 0 19 10
      vertex 0 0 10
    endloop
  endfacet
  facet normal 0 0 -1
    outer loop
      vertex 0 0 0
      vertex 99 19 0
      vertex 99 0 0
    endloop
  endfacet
  facet normal -0 0 -1
    outer loop
      vertex 99 19 0
      vertex 0 0 0
      vertex 0 19 0
    endloop
  endfacet
  facet normal -1 0 0
    outer loop
      vertex 0 0 0
      vertex 0 19 10
      vertex 0 19 0
    endloop
  endfacet
  facet normal -1 -0 0
    outer loop
      vertex 0 19 10
      vertex 0 0 0
      vertex 0 0 10
    endloop
  endfacet
  facet normal 0 -1 0
    outer loop
      vertex 0 0 0
      vertex 99 0 10
      vertex 0 0 10
    endloop
  endfacet
  facet normal 0 -1 -0
    outer loop
      vertex 99 0 10
      vertex 0 0 0
      vertex 99 0 0
    endloop
  endfacet
  facet normal 1 -0 0
    outer loop
      vertex 99 0 10
      vertex 99 19 0
      vertex 99 19 10
    endloop
  endfacet
  facet normal 1 0 0
    outer loop
      vertex 99 19 0
      vertex 99 0 10
      vertex 99 0 0
    endloop
  endfacet
  facet normal 0 1 -0
    outer loop
      vertex 99 19 0
      vertex 0 19 10
      vertex 99 19 10
    endloop
  endfacet
  facet normal 0 1 0
    outer loop
      vertex 0 19 10
      vertex 99 19 0
      vertex 0 19 0
    endloop
  endfacet
endsolid OpenSCAD_Model
