solid OpenSCAD_Model
  facet normal 0 0.200488 0.979696
    outer loop
      vertex 10 10 10
      vertex 5 4.33013 11.1603
      vertex 10 4.33013 11.1603
    endloop
  endfacet
  facet normal -0.226045 0.487061 0.843609
    outer loop
      vertex -5 14.3301 6.16025
      vertex -5 10 8.66025
      vertex 0 10 10
    endloop
  endfacet
  facet normal 1 0 0
    outer loop
      vertex 10 0 0
      vertex 10 10 0
      vertex 10 0 10
    endloop
  endfacet
  facet normal 0 -0.258828 0.965923
    outer loop
      vertex 10 0 10
      vertex 5 4.33013 11.1603
      vertex 0 0 10
    endloop
  endfacet
  facet normal 0.0668372 0.86409 -0.49888
    outer loop
      vertex 0 9.33013 -2.5
      vertex 0 14.3301 6.16025
      vertex 10 10 0
    endloop
  endfacet
  facet normal 0 -0.258828 0.965923
    outer loop
      vertex 10 4.33013 11.1603
      vertex 5 4.33013 11.1603
      vertex 10 0 10
    endloop
  endfacet
  facet normal 0 0.866027 -0.499998
    outer loop
      vertex -5 9.33013 -2.5
      vertex 0 14.3301 6.16025
      vertex 0 9.33013 -2.5
    endloop
  endfacet
  facet normal 0.242536 0 -0.970143
    outer loop
      vertex 10 0 0
      vertex 0 9.33013 -2.5
      vertex 10 10 0
    endloop
  endfacet
  facet normal 0.397358 0.917664 -0
    outer loop
      vertex 10 10 0
      vertex 0 14.3301 6.16025
      vertex 10 10 10
    endloop
  endfacet
  facet normal -1 0 0
    outer loop
      vertex -5 9.33013 -2.5
      vertex -5 10 8.66025
      vertex -5 14.3301 6.16025
    endloop
  endfacet
  facet normal 0 -1 -0
    outer loop
      vertex 10 0 10
      vertex 0 0 0
      vertex 10 0 0
    endloop
  endfacet
  facet normal 0 -1 0
    outer loop
      vertex 0 0 10
      vertex 0 0 0
      vertex 10 0 10
    endloop
  endfacet
  facet normal 1 0 0
    outer loop
      vertex 10 4.33013 11.1603
      vertex 10 10 0
      vertex 10 10 10
    endloop
  endfacet
  facet normal 1 -0 0
    outer loop
      vertex 10 0 10
      vertex 10 10 0
      vertex 10 4.33013 11.1603
    endloop
  endfacet
  facet normal 0 0.866027 -0.499998
    outer loop
      vertex -5 14.3301 6.16025
      vertex 0 14.3301 6.16025
      vertex -5 9.33013 -2.5
    endloop
  endfacet
  facet normal -0.25882 0 0.965926
    outer loop
      vertex 0 10 10
      vertex -5 10 8.66025
      vertex 0 0 10
    endloop
  endfacet
  facet normal -0.447213 -0.447213 -0.774597
    outer loop
      vertex 0 0 0
      vertex -5 5 0
      vertex -5 9.33013 -2.5
    endloop
  endfacet
  facet normal -0.707107 -0.707107 -0
    outer loop
      vertex 0 0 10
      vertex -5 5 0
      vertex 0 0 0
    endloop
  endfacet
  facet normal 0 -0.258819 -0.965926
    outer loop
      vertex 0 0 0
      vertex 0 9.33013 -2.5
      vertex 10 0 0
    endloop
  endfacet
  facet normal 0 -0.258819 -0.965926
    outer loop
      vertex -5 9.33013 -2.5
      vertex 0 9.33013 -2.5
      vertex 0 0 0
    endloop
  endfacet
  facet normal -0 0.200488 0.979696
    outer loop
      vertex 0 10 10
      vertex 5 4.33013 11.1603
      vertex 10 10 10
    endloop
  endfacet
  facet normal -0.226053 0 0.974115
    outer loop
      vertex 0 0 10
      vertex 5 4.33013 11.1603
      vertex 0 10 10
    endloop
  endfacet
  facet normal -1 0 0
    outer loop
      vertex -5 5 0
      vertex -5 10 8.66025
      vertex -5 9.33013 -2.5
    endloop
  endfacet
  facet normal -0.881412 -0.409065 0.236174
    outer loop
      vertex 0 0 10
      vertex -5 10 8.66025
      vertex -5 5 0
    endloop
  endfacet
  facet normal 0 0.663473 0.748201
    outer loop
      vertex 0 10 10
      vertex 0 14.3301 6.16025
      vertex -5 14.3301 6.16025
    endloop
  endfacet
  facet normal 0 0.663473 0.748201
    outer loop
      vertex 10 10 10
      vertex 0 14.3301 6.16025
      vertex 0 10 10
    endloop
  endfacet
endsolid OpenSCAD_Model
