solid OpenSCAD_Model
  facet normal 0.987689 -0.156431 0
    outer loop
      vertex 9.78148 -2.07912 5
      vertex 9.94522 -1.04528 0
      vertex 9.94522 -1.04528 5
    endloop
  endfacet
  facet normal 0.987689 -0.156431 0
    outer loop
      vertex 9.94522 -1.04528 0
      vertex 9.78148 -2.07912 5
      vertex 9.78148 -2.07912 0
    endloop
  endfacet
  facet normal 0.987696 0.156389 0
    outer loop
      vertex 9.80033 1.96007 5
      vertex 9.78148 2.07912 0
      vertex 9.78148 2.07912 5
    endloop
  endfacet
  facet normal 0.987696 0.156389 0
    outer loop
      vertex 9.78148 2.07912 0
      vertex 9.80033 1.96007 5
      vertex 9.80033 1.96007 0
    endloop
  endfacet
  facet normal 0.998629 0.0523414 0
    outer loop
      vertex 10 0 5
      vertex 9.94786 0.994786 0
      vertex 9.94786 0.994786 5
    endloop
  endfacet
  facet normal 0.998629 0.0523414 0
    outer loop
      vertex 9.94786 0.994786 0
      vertex 10 0 5
      vertex 10 0 0
    endloop
  endfacet
  facet normal 0.965923 0.258828 0
    outer loop
      vertex 9.78148 2.07912 5
      vertex 9.51056 3.09017 0
      vertex 9.51056 3.09017 5
    endloop
  endfacet
  facet normal 0.965923 0.258828 0
    outer loop
      vertex 9.51056 3.09017 0
      vertex 9.78148 2.07912 5
      vertex 9.78148 2.07912 0
    endloop
  endfacet
  facet normal 0.838672 0.544637 0
    outer loop
      vertex 8.66025 5 5
      vertex 8.09017 5.87785 0
      vertex 8.09017 5.87785 5
    endloop
  endfacet
  facet normal 0.838672 0.544637 0
    outer loop
      vertex 8.09017 5.87785 0
      vertex 8.66025 5 5
      vertex 8.66025 5 0
    endloop
  endfacet
  facet normal -0.0523352 0.99863 0
    outer loop
      vertex 0 10 0
      vertex -1.04528 9.94522 5
      vertex 0 10 5
    endloop
  endfacet
  facet normal -0.0523352 0.99863 0
    outer loop
      vertex -1.04528 9.94522 5
      vertex 0 10 0
      vertex -1.04528 9.94522 0
    endloop
  endfacet
  facet normal 0.99863 -0.0523352 0
    outer loop
      vertex 9.94522 -1.04528 5
      vertex 10 0 0
      vertex 10 0 5
    endloop
  endfacet
  facet normal 0.99863 -0.0523352 0
    outer loop
      vertex 10 0 0
      vertex 9.94522 -1.04528 5
      vertex 9.94522 -1.04528 0
    endloop
  endfacet
  facet normal 0.777149 0.629316 0
    outer loop
      vertex 8.09017 5.87785 5
      vertex 7.43145 6.69131 0
      vertex 7.43145 6.69131 5
    endloop
  endfacet
  facet normal 0.777149 0.629316 0
    outer loop
      vertex 7.43145 6.69131 0
      vertex 8.09017 5.87785 5
      vertex 8.09017 5.87785 0
    endloop
  endfacet
  facet normal -0.987689 -0.156431 0
    outer loop
      vertex -9.78148 -2.07912 0
      vertex -9.94522 -1.04528 5
      vertex -9.94522 -1.04528 0
    endloop
  endfacet
  facet normal -0.987689 -0.156431 0
    outer loop
      vertex -9.94522 -1.04528 5
      vertex -9.78148 -2.07912 0
      vertex -9.78148 -2.07912 5
    endloop
  endfacet
  facet normal -0.891006 0.453991 0
    outer loop
      vertex -9.13545 4.06737 0
      vertex -8.66025 5 5
      vertex -8.66025 5 0
    endloop
  endfacet
  facet normal -0.891006 0.453991 0
    outer loop
      vertex -8.66025 5 5
      vertex -9.13545 4.06737 0
      vertex -9.13545 4.06737 5
    endloop
  endfacet
  facet normal 0.258828 0.965923 -0
    outer loop
      vertex 3.09017 9.51056 0
      vertex 2.07912 9.78148 5
      vertex 3.09017 9.51056 5
    endloop
  endfacet
  facet normal 0.258828 0.965923 0
    outer loop
      vertex 2.07912 9.78148 5
      vertex 3.09017 9.51056 0
      vertex 2.07912 9.78148 0
    endloop
  endfacet
  facet normal 0.358366 0.933581 -0
    outer loop
      vertex 4.06737 9.13545 0
      vertex 3.09017 9.51056 5
      vertex 4.06737 9.13545 5
    endloop
  endfacet
  facet normal 0.358366 0.933581 0
    outer loop
      vertex 3.09017 9.51056 5
      vertex 4.06737 9.13545 0
      vertex 3.09017 9.51056 0
    endloop
  endfacet
  facet normal -0.965923 -0.258828 0
    outer loop
      vertex -9.51056 -3.09017 0
      vertex -9.78148 -2.07912 5
      vertex -9.78148 -2.07912 0
    endloop
  endfacet
  facet normal -0.965923 -0.258828 0
    outer loop
      vertex -9.78148 -2.07912 5
      vertex -9.51056 -3.09017 0
      vertex -9.51056 -3.09017 5
    endloop
  endfacet
  facet normal 0.629316 0.777149 -0
    outer loop
      vertex 6.69131 7.43145 0
      vertex 5.87785 8.09017 5
      vertex 6.69131 7.43145 5
    endloop
  endfacet
  facet normal 0.629316 0.777149 0
    outer loop
      vertex 5.87785 8.09017 5
      vertex 6.69131 7.43145 0
      vertex 5.87785 8.09017 0
    endloop
  endfacet
  facet normal 0.358366 -0.933581 0
    outer loop
      vertex 3.09017 -9.51056 0
      vertex 4.06737 -9.13545 5
      vertex 3.09017 -9.51056 5
    endloop
  endfacet
  facet normal 0.358366 -0.933581 0
    outer loop
      vertex 4.06737 -9.13545 5
      vertex 3.09017 -9.51056 0
      vertex 4.06737 -9.13545 0
    endloop
  endfacet
  facet normal -0.777149 0.629316 0
    outer loop
      vertex -8.09017 5.87785 0
      vertex -7.43145 6.69131 5
      vertex -7.43145 6.69131 0
    endloop
  endfacet
  facet normal -0.777149 0.629316 0
    outer loop
      vertex -7.43145 6.69131 5
      vertex -8.09017 5.87785 0
      vertex -8.09017 5.87785 5
    endloop
  endfacet
  facet normal -0.258828 0.965923 0
    outer loop
      vertex -2.07912 9.78148 0
      vertex -3.09017 9.51056 5
      vertex -2.07912 9.78148 5
    endloop
  endfacet
  facet normal -0.258828 0.965923 0
    outer loop
      vertex -3.09017 9.51056 5
      vertex -2.07912 9.78148 0
      vertex -3.09017 9.51056 0
    endloop
  endfacet
  facet normal -0.707107 0.707107 0
    outer loop
      vertex -7.43145 6.69131 0
      vertex -6.69131 7.43145 5
      vertex -6.69131 7.43145 0
    endloop
  endfacet
  facet normal -0.707107 0.707107 0
    outer loop
      vertex -6.69131 7.43145 5
      vertex -7.43145 6.69131 0
      vertex -7.43145 6.69131 5
    endloop
  endfacet
  facet normal -0.544637 0.838672 0
    outer loop
      vertex -5 8.66025 0
      vertex -5.87785 8.09017 5
      vertex -5 8.66025 5
    endloop
  endfacet
  facet normal -0.544637 0.838672 0
    outer loop
      vertex -5.87785 8.09017 5
      vertex -5 8.66025 0
      vertex -5.87785 8.09017 0
    endloop
  endfacet
  facet normal 0.965923 -0.258828 0
    outer loop
      vertex 9.51056 -3.09017 5
      vertex 9.78148 -2.07912 0
      vertex 9.78148 -2.07912 5
    endloop
  endfacet
  facet normal 0.965923 -0.258828 0
    outer loop
      vertex 9.78148 -2.07912 0
      vertex 9.51056 -3.09017 5
      vertex 9.51056 -3.09017 0
    endloop
  endfacet
  facet normal 0.0523352 -0.99863 0
    outer loop
      vertex 0 -10 0
      vertex 1.04528 -9.94522 5
      vertex 0 -10 5
    endloop
  endfacet
  facet normal 0.0523352 -0.99863 0
    outer loop
      vertex 1.04528 -9.94522 5
      vertex 0 -10 0
      vertex 1.04528 -9.94522 0
    endloop
  endfacet
  facet normal 0.544637 0.838672 -0
    outer loop
      vertex 5.87785 8.09017 0
      vertex 5 8.66025 5
      vertex 5.87785 8.09017 5
    endloop
  endfacet
  facet normal 0.544637 0.838672 0
    outer loop
      vertex 5 8.66025 5
      vertex 5.87785 8.09017 0
      vertex 5 8.66025 0
    endloop
  endfacet
  facet normal -0.838672 -0.544637 0
    outer loop
      vertex -8.09017 -5.87785 0
      vertex -8.66025 -5 5
      vertex -8.66025 -5 0
    endloop
  endfacet
  facet normal -0.838672 -0.544637 0
    outer loop
      vertex -8.66025 -5 5
      vertex -8.09017 -5.87785 0
      vertex -8.09017 -5.87785 5
    endloop
  endfacet
  facet normal 0.156431 -0.987689 0
    outer loop
      vertex 1.04528 -9.94522 0
      vertex 2.07912 -9.78148 5
      vertex 1.04528 -9.94522 5
    endloop
  endfacet
  facet normal 0.156431 -0.987689 0
    outer loop
      vertex 2.07912 -9.78148 5
      vertex 1.04528 -9.94522 0
      vertex 2.07912 -9.78148 0
    endloop
  endfacet
  facet normal -0.156431 -0.987689 0
    outer loop
      vertex -2.07912 -9.78148 0
      vertex -1.04528 -9.94522 5
      vertex -2.07912 -9.78148 5
    endloop
  endfacet
  facet normal -0.156431 -0.987689 -0
    outer loop
      vertex -1.04528 -9.94522 5
      vertex -2.07912 -9.78148 0
      vertex -1.04528 -9.94522 0
    endloop
  endfacet
  facet normal -0.453991 -0.891006 0
    outer loop
      vertex -5 -8.66025 0
      vertex -4.06737 -9.13545 5
      vertex -5 -8.66025 5
    endloop
  endfacet
  facet normal -0.453991 -0.891006 -0
    outer loop
      vertex -4.06737 -9.13545 5
      vertex -5 -8.66025 0
      vertex -4.06737 -9.13545 0
    endloop
  endfacet
  facet normal -0 0 1
    outer loop
      vertex 10 2 5
      vertex 9.94786 0.994786 5
      vertex 20 2 5
    endloop
  endfacet
  facet normal -0 0 1
    outer loop
      vertex 9.80033 1.96007 5
      vertex 9.94786 0.994786 5
      vertex 10 2 5
    endloop
  endfacet
  facet normal 0 0 1
    outer loop
      vertex 8.95308 0.895308 5
      vertex 9.94786 0.994786 5
      vertex 9.80033 1.96007 5
    endloop
  endfacet
  facet normal 0 0 1
    outer loop
      vertex 8.80333 1.8712 5
      vertex 9.80033 1.96007 5
      vertex 9.78148 2.07912 5
    endloop
  endfacet
  facet normal 0 0 1
    outer loop
      vertex 9.94786 0.994786 5
      vertex 8.95308 0.895308 5
      vertex 9 0 5
    endloop
  endfacet
  facet normal 0 0 1
    outer loop
      vertex 8.80333 1.8712 5
      vertex 9.78148 2.07912 5
      vertex 9.51056 3.09017 5
    endloop
  endfacet
  facet normal -0 0 1
    outer loop
      vertex 8.9507 -0.940756 5
      vertex 9.94522 -1.04528 5
      vertex 9 0 5
    endloop
  endfacet
  facet normal 0 0 1
    outer loop
      vertex 8.55951 2.78115 5
      vertex 9.51056 3.09017 5
      vertex 9.13545 4.06737 5
    endloop
  endfacet
  facet normal 0 0 1
    outer loop
      vertex 9.94522 -1.04528 5
      vertex 8.9507 -0.940756 5
      vertex 9.78148 -2.07912 5
    endloop
  endfacet
  facet normal -0 0 1
    outer loop
      vertex 8.80333 -1.8712 5
      vertex 9.78148 -2.07912 5
      vertex 8.9507 -0.940756 5
    endloop
  endfacet
  facet normal 0 0 1
    outer loop
      vertex 9.94786 0.994786 5
      vertex 9 0 5
      vertex 9.94522 -1.04528 5
    endloop
  endfacet
  facet normal 0 0 1
    outer loop
      vertex 9.80033 1.96007 5
      vertex 8.8203 1.76406 5
      vertex 8.95308 0.895308 5
    endloop
  endfacet
  facet normal 0 0 1
    outer loop
      vertex 9.80033 1.96007 5
      vertex 8.80333 1.8712 5
      vertex 8.8203 1.76406 5
    endloop
  endfacet
  facet normal 0 0 1
    outer loop
      vertex 8.22191 3.66063 5
      vertex 9.13545 4.06737 5
      vertex 8.66025 5 5
    endloop
  endfacet
  facet normal 0 0 1
    outer loop
      vertex 9.51056 3.09017 5
      vertex 8.55951 2.78115 5
      vertex 8.80333 1.8712 5
    endloop
  endfacet
  facet normal 0 0 1
    outer loop
      vertex 9.13545 4.06737 5
      vertex 8.22191 3.66063 5
      vertex 8.55951 2.78115 5
    endloop
  endfacet
  facet normal 0 0 1
    outer loop
      vertex 7.79423 4.5 5
      vertex 8.66025 5 5
      vertex 8.09017 5.87785 5
    endloop
  endfacet
  facet normal 0 0 1
    outer loop
      vertex 8.66025 5 5
      vertex 7.79423 4.5 5
      vertex 8.22191 3.66063 5
    endloop
  endfacet
  facet normal 0 0 1
    outer loop
      vertex 7.28115 5.29007 5
      vertex 8.09017 5.87785 5
      vertex 7.43145 6.69131 5
    endloop
  endfacet
  facet normal 0 0 1
    outer loop
      vertex 8.09017 5.87785 5
      vertex 7.28115 5.29007 5
      vertex 7.79423 4.5 5
    endloop
  endfacet
  facet normal 0 0 1
    outer loop
      vertex 6.6883 6.02217 5
      vertex 7.43145 6.69131 5
      vertex 6.69131 7.43145 5
    endloop
  endfacet
  facet normal 0 0 1
    outer loop
      vertex 7.43145 6.69131 5
      vertex 6.6883 6.02217 5
      vertex 7.28115 5.29007 5
    endloop
  endfacet
  facet normal 0 0 1
    outer loop
      vertex 6.69131 7.43145 5
      vertex 6.02217 6.6883 5
      vertex 6.6883 6.02217 5
    endloop
  endfacet
  facet normal 0 0 1
    outer loop
      vertex 5.87785 8.09017 5
      vertex 6.02217 6.6883 5
      vertex 6.69131 7.43145 5
    endloop
  endfacet
  facet normal 0 0 1
    outer loop
      vertex 5.87785 8.09017 5
      vertex 5.29007 7.28115 5
      vertex 6.02217 6.6883 5
    endloop
  endfacet
  facet normal 0 0 1
    outer loop
      vertex 5 8.66025 5
      vertex 5.29007 7.28115 5
      vertex 5.87785 8.09017 5
    endloop
  endfacet
  facet normal 0 0 1
    outer loop
      vertex 5 8.66025 5
      vertex 4.5 7.79423 5
      vertex 5.29007 7.28115 5
    endloop
  endfacet
  facet normal 0 0 1
    outer loop
      vertex 4.06737 9.13545 5
      vertex 4.5 7.79423 5
      vertex 5 8.66025 5
    endloop
  endfacet
  facet normal 0 0 1
    outer loop
      vertex 4.06737 9.13545 5
      vertex 3.66063 8.22191 5
      vertex 4.5 7.79423 5
    endloop
  endfacet
  facet normal 0 0 1
    outer loop
      vertex 3.09017 9.51056 5
      vertex 3.66063 8.22191 5
      vertex 4.06737 9.13545 5
    endloop
  endfacet
  facet normal 0 0 1
    outer loop
      vertex 3.09017 9.51056 5
      vertex 2.78115 8.55951 5
      vertex 3.66063 8.22191 5
    endloop
  endfacet
  facet normal 0 0 1
    outer loop
      vertex 2.07912 9.78148 5
      vertex 2.78115 8.55951 5
      vertex 3.09017 9.51056 5
    endloop
  endfacet
  facet normal 0 0 1
    outer loop
      vertex 2.07912 9.78148 5
      vertex 1.8712 8.80333 5
      vertex 2.78115 8.55951 5
    endloop
  endfacet
  facet normal 0 0 1
    outer loop
      vertex 1.04528 9.94522 5
      vertex 1.8712 8.80333 5
      vertex 2.07912 9.78148 5
    endloop
  endfacet
  facet normal 0 0 1
    outer loop
      vertex 1.04528 9.94522 5
      vertex 0.940756 8.9507 5
      vertex 1.8712 8.80333 5
    endloop
  endfacet
  facet normal 0 0 1
    outer loop
      vertex 0 10 5
      vertex 0.940756 8.9507 5
      vertex 1.04528 9.94522 5
    endloop
  endfacet
  facet normal 0 0 1
    outer loop
      vertex 0 10 5
      vertex 0 9 5
      vertex 0.940756 8.9507 5
    endloop
  endfacet
  facet normal 0 0 1
    outer loop
      vertex 0 10 5
      vertex -0.940756 8.9507 5
      vertex 0 9 5
    endloop
  endfacet
  facet normal -0 0 1
    outer loop
      vertex -1.04528 9.94522 5
      vertex -0.940756 8.9507 5
      vertex 0 10 5
    endloop
  endfacet
  facet normal 0 0 1
    outer loop
      vertex -1.04528 9.94522 5
      vertex -1.8712 8.80333 5
      vertex -0.940756 8.9507 5
    endloop
  endfacet
  facet normal -0 0 1
    outer loop
      vertex -2.07912 9.78148 5
      vertex -1.8712 8.80333 5
      vertex -1.04528 9.94522 5
    endloop
  endfacet
  facet normal 0 0 1
    outer loop
      vertex -2.07912 9.78148 5
      vertex -2.78115 8.55951 5
      vertex -1.8712 8.80333 5
    endloop
  endfacet
  facet normal -0 0 1
    outer loop
      vertex -3.09017 9.51056 5
      vertex -2.78115 8.55951 5
      vertex -2.07912 9.78148 5
    endloop
  endfacet
  facet normal 0 0 1
    outer loop
      vertex -3.09017 9.51056 5
      vertex -3.66063 8.22191 5
      vertex -2.78115 8.55951 5
    endloop
  endfacet
  facet normal -0 0 1
    outer loop
      vertex -4.06737 9.13545 5
      vertex -3.66063 8.22191 5
      vertex -3.09017 9.51056 5
    endloop
  endfacet
  facet normal 0 0 1
    outer loop
      vertex -4.06737 9.13545 5
      vertex -4.5 7.79423 5
      vertex -3.66063 8.22191 5
    endloop
  endfacet
  facet normal -0 0 1
    outer loop
      vertex -5 8.66025 5
      vertex -4.5 7.79423 5
      vertex -4.06737 9.13545 5
    endloop
  endfacet
  facet normal 0 0 1
    outer loop
      vertex -5 8.66025 5
      vertex -5.29007 7.28115 5
      vertex -4.5 7.79423 5
    endloop
  endfacet
  facet normal -0 0 1
    outer loop
      vertex -5.87785 8.09017 5
      vertex -5.29007 7.28115 5
      vertex -5 8.66025 5
    endloop
  endfacet
  facet normal 0 0 1
    outer loop
      vertex -5.87785 8.09017 5
      vertex -6.02217 6.6883 5
      vertex -5.29007 7.28115 5
    endloop
  endfacet
  facet normal -0 0 1
    outer loop
      vertex -6.69131 7.43145 5
      vertex -6.02217 6.6883 5
      vertex -5.87785 8.09017 5
    endloop
  endfacet
  facet normal 0 0 1
    outer loop
      vertex -6.02217 6.6883 5
      vertex -6.69131 7.43145 5
      vertex -6.6883 6.02217 5
    endloop
  endfacet
  facet normal -0 0 1
    outer loop
      vertex -7.43145 6.69131 5
      vertex -6.6883 6.02217 5
      vertex -6.69131 7.43145 5
    endloop
  endfacet
  facet normal 0 0 1
    outer loop
      vertex -6.6883 6.02217 5
      vertex -7.43145 6.69131 5
      vertex -7.28115 5.29007 5
    endloop
  endfacet
  facet normal -0 0 1
    outer loop
      vertex -8.09017 5.87785 5
      vertex -7.28115 5.29007 5
      vertex -7.43145 6.69131 5
    endloop
  endfacet
  facet normal 0 0 1
    outer loop
      vertex -7.28115 5.29007 5
      vertex -8.09017 5.87785 5
      vertex -7.79423 4.5 5
    endloop
  endfacet
  facet normal -0 0 1
    outer loop
      vertex -8.66025 5 5
      vertex -7.79423 4.5 5
      vertex -8.09017 5.87785 5
    endloop
  endfacet
  facet normal 0 0 1
    outer loop
      vertex -7.79423 4.5 5
      vertex -8.66025 5 5
      vertex -8.22191 3.66063 5
    endloop
  endfacet
  facet normal -0 0 1
    outer loop
      vertex -9.13545 4.06737 5
      vertex -8.22191 3.66063 5
      vertex -8.66025 5 5
    endloop
  endfacet
  facet normal 0 0 1
    outer loop
      vertex -8.22191 3.66063 5
      vertex -9.13545 4.06737 5
      vertex -8.55951 2.78115 5
    endloop
  endfacet
  facet normal -0 0 1
    outer loop
      vertex -9.51056 3.09017 5
      vertex -8.55951 2.78115 5
      vertex -9.13545 4.06737 5
    endloop
  endfacet
  facet normal -0 0 1
    outer loop
      vertex -9.78148 2.07912 5
      vertex -8.80333 1.8712 5
      vertex -9.51056 3.09017 5
    endloop
  endfacet
  facet normal 0 0 1
    outer loop
      vertex -8.55951 2.78115 5
      vertex -9.51056 3.09017 5
      vertex -8.80333 1.8712 5
    endloop
  endfacet
  facet normal 0 0 1
    outer loop
      vertex 10 0 5
      vertex 9.94786 0.994786 5
      vertex 9.94522 -1.04528 5
    endloop
  endfacet
  facet normal 0 0 1
    outer loop
      vertex 9.78148 -2.07912 5
      vertex 8.80333 -1.8712 5
      vertex 9.51056 -3.09017 5
    endloop
  endfacet
  facet normal -0 0 1
    outer loop
      vertex 8.55951 -2.78115 5
      vertex 9.51056 -3.09017 5
      vertex 8.80333 -1.8712 5
    endloop
  endfacet
  facet normal 0 0 1
    outer loop
      vertex 9.51056 -3.09017 5
      vertex 8.55951 -2.78115 5
      vertex 9.13545 -4.06737 5
    endloop
  endfacet
  facet normal -0 0 1
    outer loop
      vertex 8.22191 -3.66063 5
      vertex 9.13545 -4.06737 5
      vertex 8.55951 -2.78115 5
    endloop
  endfacet
  facet normal 0 0 1
    outer loop
      vertex 9.13545 -4.06737 5
      vertex 8.22191 -3.66063 5
      vertex 8.66025 -5 5
    endloop
  endfacet
  facet normal -0 0 1
    outer loop
      vertex 7.79423 -4.5 5
      vertex 8.66025 -5 5
      vertex 8.22191 -3.66063 5
    endloop
  endfacet
  facet normal 0 0 1
    outer loop
      vertex 8.66025 -5 5
      vertex 7.79423 -4.5 5
      vertex 8.09017 -5.87785 5
    endloop
  endfacet
  facet normal -0 0 1
    outer loop
      vertex 7.28115 -5.29007 5
      vertex 8.09017 -5.87785 5
      vertex 7.79423 -4.5 5
    endloop
  endfacet
  facet normal 0 0 1
    outer loop
      vertex 8.09017 -5.87785 5
      vertex 7.28115 -5.29007 5
      vertex 7.43145 -6.69131 5
    endloop
  endfacet
  facet normal -0 0 1
    outer loop
      vertex 6.6883 -6.02217 5
      vertex 7.43145 -6.69131 5
      vertex 7.28115 -5.29007 5
    endloop
  endfacet
  facet normal 0 0 1
    outer loop
      vertex 7.43145 -6.69131 5
      vertex 6.6883 -6.02217 5
      vertex 6.69131 -7.43145 5
    endloop
  endfacet
  facet normal -0 0 1
    outer loop
      vertex 6.02217 -6.6883 5
      vertex 6.69131 -7.43145 5
      vertex 6.6883 -6.02217 5
    endloop
  endfacet
  facet normal 0 0 1
    outer loop
      vertex 6.02217 -6.6883 5
      vertex 5.87785 -8.09017 5
      vertex 6.69131 -7.43145 5
    endloop
  endfacet
  facet normal -0 0 1
    outer loop
      vertex 5.29007 -7.28115 5
      vertex 5.87785 -8.09017 5
      vertex 6.02217 -6.6883 5
    endloop
  endfacet
  facet normal 0 0 1
    outer loop
      vertex 5.29007 -7.28115 5
      vertex 5 -8.66025 5
      vertex 5.87785 -8.09017 5
    endloop
  endfacet
  facet normal -0 0 1
    outer loop
      vertex 4.5 -7.79423 5
      vertex 5 -8.66025 5
      vertex 5.29007 -7.28115 5
    endloop
  endfacet
  facet normal 0 0 1
    outer loop
      vertex 4.5 -7.79423 5
      vertex 4.06737 -9.13545 5
      vertex 5 -8.66025 5
    endloop
  endfacet
  facet normal -0 0 1
    outer loop
      vertex 3.66063 -8.22191 5
      vertex 4.06737 -9.13545 5
      vertex 4.5 -7.79423 5
    endloop
  endfacet
  facet normal 0 0 1
    outer loop
      vertex 3.66063 -8.22191 5
      vertex 3.09017 -9.51056 5
      vertex 4.06737 -9.13545 5
    endloop
  endfacet
  facet normal -0 0 1
    outer loop
      vertex 2.78115 -8.55951 5
      vertex 3.09017 -9.51056 5
      vertex 3.66063 -8.22191 5
    endloop
  endfacet
  facet normal 0 0 1
    outer loop
      vertex 2.78115 -8.55951 5
      vertex 2.07912 -9.78148 5
      vertex 3.09017 -9.51056 5
    endloop
  endfacet
  facet normal -0 0 1
    outer loop
      vertex 1.8712 -8.80333 5
      vertex 2.07912 -9.78148 5
      vertex 2.78115 -8.55951 5
    endloop
  endfacet
  facet normal 0 0 1
    outer loop
      vertex 1.8712 -8.80333 5
      vertex 1.04528 -9.94522 5
      vertex 2.07912 -9.78148 5
    endloop
  endfacet
  facet normal -0 0 1
    outer loop
      vertex 0.940756 -8.9507 5
      vertex 1.04528 -9.94522 5
      vertex 1.8712 -8.80333 5
    endloop
  endfacet
  facet normal -0 0 1
    outer loop
      vertex 0 -9 5
      vertex 1.04528 -9.94522 5
      vertex 0.940756 -8.9507 5
    endloop
  endfacet
  facet normal 0 0 1
    outer loop
      vertex 0 -9 5
      vertex 0 -10 5
      vertex 1.04528 -9.94522 5
    endloop
  endfacet
  facet normal 0 0 1
    outer loop
      vertex -0.940756 -8.9507 5
      vertex 0 -10 5
      vertex 0 -9 5
    endloop
  endfacet
  facet normal 0 0 1
    outer loop
      vertex -0.940756 -8.9507 5
      vertex -1.04528 -9.94522 5
      vertex 0 -10 5
    endloop
  endfacet
  facet normal 0 0 1
    outer loop
      vertex -1.8712 -8.80333 5
      vertex -1.04528 -9.94522 5
      vertex -0.940756 -8.9507 5
    endloop
  endfacet
  facet normal 0 0 1
    outer loop
      vertex -1.8712 -8.80333 5
      vertex -2.07912 -9.78148 5
      vertex -1.04528 -9.94522 5
    endloop
  endfacet
  facet normal 0 0 1
    outer loop
      vertex -2.78115 -8.55951 5
      vertex -2.07912 -9.78148 5
      vertex -1.8712 -8.80333 5
    endloop
  endfacet
  facet normal 0 0 1
    outer loop
      vertex -2.78115 -8.55951 5
      vertex -3.09017 -9.51056 5
      vertex -2.07912 -9.78148 5
    endloop
  endfacet
  facet normal 0 0 1
    outer loop
      vertex -3.66063 -8.22191 5
      vertex -3.09017 -9.51056 5
      vertex -2.78115 -8.55951 5
    endloop
  endfacet
  facet normal 0 0 1
    outer loop
      vertex -3.66063 -8.22191 5
      vertex -4.06737 -9.13545 5
      vertex -3.09017 -9.51056 5
    endloop
  endfacet
  facet normal 0 0 1
    outer loop
      vertex -4.5 -7.79423 5
      vertex -4.06737 -9.13545 5
      vertex -3.66063 -8.22191 5
    endloop
  endfacet
  facet normal 0 0 1
    outer loop
      vertex -4.5 -7.79423 5
      vertex -5 -8.66025 5
      vertex -4.06737 -9.13545 5
    endloop
  endfacet
  facet normal 0 0 1
    outer loop
      vertex -5.29007 -7.28115 5
      vertex -5 -8.66025 5
      vertex -4.5 -7.79423 5
    endloop
  endfacet
  facet normal 0 0 1
    outer loop
      vertex -5.29007 -7.28115 5
      vertex -5.87785 -8.09017 5
      vertex -5 -8.66025 5
    endloop
  endfacet
  facet normal 0 0 1
    outer loop
      vertex -6.02217 -6.6883 5
      vertex -5.87785 -8.09017 5
      vertex -5.29007 -7.28115 5
    endloop
  endfacet
  facet normal 0 0 1
    outer loop
      vertex -6.69131 -7.43145 5
      vertex -6.02217 -6.6883 5
      vertex -6.6883 -6.02217 5
    endloop
  endfacet
  facet normal 0 0 1
    outer loop
      vertex -6.02217 -6.6883 5
      vertex -6.69131 -7.43145 5
      vertex -5.87785 -8.09017 5
    endloop
  endfacet
  facet normal 0 0 1
    outer loop
      vertex -7.43145 -6.69131 5
      vertex -6.6883 -6.02217 5
      vertex -7.28115 -5.29007 5
    endloop
  endfacet
  facet normal 0 0 1
    outer loop
      vertex -6.6883 -6.02217 5
      vertex -7.43145 -6.69131 5
      vertex -6.69131 -7.43145 5
    endloop
  endfacet
  facet normal 0 0 1
    outer loop
      vertex -8.09017 -5.87785 5
      vertex -7.28115 -5.29007 5
      vertex -7.79423 -4.5 5
    endloop
  endfacet
  facet normal 0 0 1
    outer loop
      vertex -7.28115 -5.29007 5
      vertex -8.09017 -5.87785 5
      vertex -7.43145 -6.69131 5
    endloop
  endfacet
  facet normal 0 0 1
    outer loop
      vertex -8.66025 -5 5
      vertex -7.79423 -4.5 5
      vertex -8.22191 -3.66063 5
    endloop
  endfacet
  facet normal 0 0 1
    outer loop
      vertex -9.13545 -4.06737 5
      vertex -8.22191 -3.66063 5
      vertex -8.55951 -2.78115 5
    endloop
  endfacet
  facet normal 0 0 1
    outer loop
      vertex -7.79423 -4.5 5
      vertex -8.66025 -5 5
      vertex -8.09017 -5.87785 5
    endloop
  endfacet
  facet normal 0 0 1
    outer loop
      vertex -9.51056 -3.09017 5
      vertex -8.55951 -2.78115 5
      vertex -8.80333 -1.8712 5
    endloop
  endfacet
  facet normal 0 0 1
    outer loop
      vertex -9.78148 -2.07912 5
      vertex -8.80333 -1.8712 5
      vertex -8.9507 -0.940756 5
    endloop
  endfacet
  facet normal 0 0 1
    outer loop
      vertex -8.22191 -3.66063 5
      vertex -9.13545 -4.06737 5
      vertex -8.66025 -5 5
    endloop
  endfacet
  facet normal 0 0 1
    outer loop
      vertex -9.94522 -1.04528 5
      vertex -8.9507 -0.940756 5
      vertex -9 0 5
    endloop
  endfacet
  facet normal 0 0 1
    outer loop
      vertex -8.80333 1.8712 5
      vertex -9.78148 2.07912 5
      vertex -8.9507 0.940756 5
    endloop
  endfacet
  facet normal -0 0 1
    outer loop
      vertex -9.94522 1.04528 5
      vertex -8.9507 0.940756 5
      vertex -9.78148 2.07912 5
    endloop
  endfacet
  facet normal 0 0 1
    outer loop
      vertex -8.55951 -2.78115 5
      vertex -9.51056 -3.09017 5
      vertex -9.13545 -4.06737 5
    endloop
  endfacet
  facet normal 0 0 1
    outer loop
      vertex -8.9507 0.940756 5
      vertex -9.94522 1.04528 5
      vertex -9 0 5
    endloop
  endfacet
  facet normal 0 0 1
    outer loop
      vertex -8.80333 -1.8712 5
      vertex -9.78148 -2.07912 5
      vertex -9.51056 -3.09017 5
    endloop
  endfacet
  facet normal 0 0 1
    outer loop
      vertex -10 0 5
      vertex -9 0 5
      vertex -9.94522 1.04528 5
    endloop
  endfacet
  facet normal 0 0 1
    outer loop
      vertex -8.9507 -0.940756 5
      vertex -9.94522 -1.04528 5
      vertex -9.78148 -2.07912 5
    endloop
  endfacet
  facet normal 0 0 1
    outer loop
      vertex -9 0 5
      vertex -10 0 5
      vertex -9.94522 -1.04528 5
    endloop
  endfacet
  facet normal 0 0 1
    outer loop
      vertex 8.95308 0.895308 5
      vertex 8.8203 1.76406 5
      vertex 0 0 5
    endloop
  endfacet
  facet normal -0.358366 0.933581 0
    outer loop
      vertex -3.09017 9.51056 0
      vertex -4.06737 9.13545 5
      vertex -3.09017 9.51056 5
    endloop
  endfacet
  facet normal -0.358366 0.933581 0
    outer loop
      vertex -4.06737 9.13545 5
      vertex -3.09017 9.51056 0
      vertex -4.06737 9.13545 0
    endloop
  endfacet
  facet normal 0.453991 0.891006 -0
    outer loop
      vertex 5 8.66025 0
      vertex 4.06737 9.13545 5
      vertex 5 8.66025 5
    endloop
  endfacet
  facet normal 0.453991 0.891006 0
    outer loop
      vertex 4.06737 9.13545 5
      vertex 5 8.66025 0
      vertex 4.06737 9.13545 0
    endloop
  endfacet
  facet normal 0.891006 -0.453991 0
    outer loop
      vertex 8.66025 -5 5
      vertex 9.13545 -4.06737 0
      vertex 9.13545 -4.06737 5
    endloop
  endfacet
  facet normal 0.891006 -0.453991 0
    outer loop
      vertex 9.13545 -4.06737 0
      vertex 8.66025 -5 5
      vertex 8.66025 -5 0
    endloop
  endfacet
  facet normal 0.707107 0.707107 0
    outer loop
      vertex 7.43145 6.69131 5
      vertex 6.69131 7.43145 0
      vertex 6.69131 7.43145 5
    endloop
  endfacet
  facet normal 0.707107 0.707107 0
    outer loop
      vertex 6.69131 7.43145 0
      vertex 7.43145 6.69131 5
      vertex 7.43145 6.69131 0
    endloop
  endfacet
  facet normal -0.629316 -0.777149 0
    outer loop
      vertex -6.69131 -7.43145 0
      vertex -5.87785 -8.09017 5
      vertex -6.69131 -7.43145 5
    endloop
  endfacet
  facet normal -0.629316 -0.777149 -0
    outer loop
      vertex -5.87785 -8.09017 5
      vertex -6.69131 -7.43145 0
      vertex -5.87785 -8.09017 0
    endloop
  endfacet
  facet normal 0.838672 -0.544637 0
    outer loop
      vertex 8.09017 -5.87785 5
      vertex 8.66025 -5 0
      vertex 8.66025 -5 5
    endloop
  endfacet
  facet normal 0.838672 -0.544637 0
    outer loop
      vertex 8.66025 -5 0
      vertex 8.09017 -5.87785 5
      vertex 8.09017 -5.87785 0
    endloop
  endfacet
  facet normal 0.453991 -0.891006 0
    outer loop
      vertex 4.06737 -9.13545 0
      vertex 5 -8.66025 5
      vertex 4.06737 -9.13545 5
    endloop
  endfacet
  facet normal 0.453991 -0.891006 0
    outer loop
      vertex 5 -8.66025 5
      vertex 4.06737 -9.13545 0
      vertex 5 -8.66025 0
    endloop
  endfacet
  facet normal -0.156431 0.987689 0
    outer loop
      vertex -1.04528 9.94522 0
      vertex -2.07912 9.78148 5
      vertex -1.04528 9.94522 5
    endloop
  endfacet
  facet normal -0.156431 0.987689 0
    outer loop
      vertex -2.07912 9.78148 5
      vertex -1.04528 9.94522 0
      vertex -2.07912 9.78148 0
    endloop
  endfacet
  facet normal 0.933581 0.358366 0
    outer loop
      vertex 9.51056 3.09017 5
      vertex 9.13545 4.06737 0
      vertex 9.13545 4.06737 5
    endloop
  endfacet
  facet normal 0.933581 0.358366 0
    outer loop
      vertex 9.13545 4.06737 0
      vertex 9.51056 3.09017 5
      vertex 9.51056 3.09017 0
    endloop
  endfacet
  facet normal 0.777149 -0.629316 0
    outer loop
      vertex 7.43145 -6.69131 5
      vertex 8.09017 -5.87785 0
      vertex 8.09017 -5.87785 5
    endloop
  endfacet
  facet normal 0.777149 -0.629316 0
    outer loop
      vertex 8.09017 -5.87785 0
      vertex 7.43145 -6.69131 5
      vertex 7.43145 -6.69131 0
    endloop
  endfacet
  facet normal -0.933581 -0.358366 0
    outer loop
      vertex -9.13545 -4.06737 0
      vertex -9.51056 -3.09017 5
      vertex -9.51056 -3.09017 0
    endloop
  endfacet
  facet normal -0.933581 -0.358366 0
    outer loop
      vertex -9.51056 -3.09017 5
      vertex -9.13545 -4.06737 0
      vertex -9.13545 -4.06737 5
    endloop
  endfacet
  facet normal -0.987689 0.156431 0
    outer loop
      vertex -9.94522 1.04528 0
      vertex -9.78148 2.07912 5
      vertex -9.78148 2.07912 0
    endloop
  endfacet
  facet normal -0.987689 0.156431 0
    outer loop
      vertex -9.78148 2.07912 5
      vertex -9.94522 1.04528 0
      vertex -9.94522 1.04528 5
    endloop
  endfacet
  facet normal 0.0523352 0.99863 -0
    outer loop
      vertex 1.04528 9.94522 0
      vertex 0 10 5
      vertex 1.04528 9.94522 5
    endloop
  endfacet
  facet normal 0.0523352 0.99863 0
    outer loop
      vertex 0 10 5
      vertex 1.04528 9.94522 0
      vertex 0 10 0
    endloop
  endfacet
  facet normal 0.891006 0.453991 0
    outer loop
      vertex 9.13545 4.06737 5
      vertex 8.66025 5 0
      vertex 8.66025 5 5
    endloop
  endfacet
  facet normal 0.891006 0.453991 0
    outer loop
      vertex 8.66025 5 0
      vertex 9.13545 4.06737 5
      vertex 9.13545 4.06737 0
    endloop
  endfacet
  facet normal -0.838672 0.544637 0
    outer loop
      vertex -8.66025 5 0
      vertex -8.09017 5.87785 5
      vertex -8.09017 5.87785 0
    endloop
  endfacet
  facet normal -0.838672 0.544637 0
    outer loop
      vertex -8.09017 5.87785 5
      vertex -8.66025 5 0
      vertex -8.66025 5 5
    endloop
  endfacet
  facet normal -0.629316 0.777149 0
    outer loop
      vertex -5.87785 8.09017 0
      vertex -6.69131 7.43145 5
      vertex -5.87785 8.09017 5
    endloop
  endfacet
  facet normal -0.629316 0.777149 0
    outer loop
      vertex -6.69131 7.43145 5
      vertex -5.87785 8.09017 0
      vertex -6.69131 7.43145 0
    endloop
  endfacet
  facet normal -0.933581 0.358366 0
    outer loop
      vertex -9.51056 3.09017 0
      vertex -9.13545 4.06737 5
      vertex -9.13545 4.06737 0
    endloop
  endfacet
  facet normal -0.933581 0.358366 0
    outer loop
      vertex -9.13545 4.06737 5
      vertex -9.51056 3.09017 0
      vertex -9.51056 3.09017 5
    endloop
  endfacet
  facet normal -0.891006 -0.453991 0
    outer loop
      vertex -8.66025 -5 0
      vertex -9.13545 -4.06737 5
      vertex -9.13545 -4.06737 0
    endloop
  endfacet
  facet normal -0.891006 -0.453991 0
    outer loop
      vertex -9.13545 -4.06737 5
      vertex -8.66025 -5 0
      vertex -8.66025 -5 5
    endloop
  endfacet
  facet normal 0.258828 -0.965923 0
    outer loop
      vertex 2.07912 -9.78148 0
      vertex 3.09017 -9.51056 5
      vertex 2.07912 -9.78148 5
    endloop
  endfacet
  facet normal 0.258828 -0.965923 0
    outer loop
      vertex 3.09017 -9.51056 5
      vertex 2.07912 -9.78148 0
      vertex 3.09017 -9.51056 0
    endloop
  endfacet
  facet normal 0.629316 -0.777149 0
    outer loop
      vertex 5.87785 -8.09017 0
      vertex 6.69131 -7.43145 5
      vertex 5.87785 -8.09017 5
    endloop
  endfacet
  facet normal 0.629316 -0.777149 0
    outer loop
      vertex 6.69131 -7.43145 5
      vertex 5.87785 -8.09017 0
      vertex 6.69131 -7.43145 0
    endloop
  endfacet
  facet normal -0.258828 -0.965923 0
    outer loop
      vertex -3.09017 -9.51056 0
      vertex -2.07912 -9.78148 5
      vertex -3.09017 -9.51056 5
    endloop
  endfacet
  facet normal -0.258828 -0.965923 -0
    outer loop
      vertex -2.07912 -9.78148 5
      vertex -3.09017 -9.51056 0
      vertex -2.07912 -9.78148 0
    endloop
  endfacet
  facet normal -0.99863 -0.0523352 0
    outer loop
      vertex -9.94522 -1.04528 0
      vertex -10 0 5
      vertex -10 0 0
    endloop
  endfacet
  facet normal -0.99863 -0.0523352 0
    outer loop
      vertex -10 0 5
      vertex -9.94522 -1.04528 0
      vertex -9.94522 -1.04528 5
    endloop
  endfacet
  facet normal 0.156431 0.987689 -0
    outer loop
      vertex 2.07912 9.78148 0
      vertex 1.04528 9.94522 5
      vertex 2.07912 9.78148 5
    endloop
  endfacet
  facet normal 0.156431 0.987689 0
    outer loop
      vertex 1.04528 9.94522 5
      vertex 2.07912 9.78148 0
      vertex 1.04528 9.94522 0
    endloop
  endfacet
  facet normal -0.777149 -0.629316 0
    outer loop
      vertex -7.43145 -6.69131 0
      vertex -8.09017 -5.87785 5
      vertex -8.09017 -5.87785 0
    endloop
  endfacet
  facet normal -0.777149 -0.629316 0
    outer loop
      vertex -8.09017 -5.87785 5
      vertex -7.43145 -6.69131 0
      vertex -7.43145 -6.69131 5
    endloop
  endfacet
  facet normal -0.453991 0.891006 0
    outer loop
      vertex -4.06737 9.13545 0
      vertex -5 8.66025 5
      vertex -4.06737 9.13545 5
    endloop
  endfacet
  facet normal -0.453991 0.891006 0
    outer loop
      vertex -5 8.66025 5
      vertex -4.06737 9.13545 0
      vertex -5 8.66025 0
    endloop
  endfacet
  facet normal -0.965923 0.258828 0
    outer loop
      vertex -9.78148 2.07912 0
      vertex -9.51056 3.09017 5
      vertex -9.51056 3.09017 0
    endloop
  endfacet
  facet normal -0.965923 0.258828 0
    outer loop
      vertex -9.51056 3.09017 5
      vertex -9.78148 2.07912 0
      vertex -9.78148 2.07912 5
    endloop
  endfacet
  facet normal -0.707107 -0.707107 0
    outer loop
      vertex -6.69131 -7.43145 0
      vertex -7.43145 -6.69131 5
      vertex -7.43145 -6.69131 0
    endloop
  endfacet
  facet normal -0.707107 -0.707107 0
    outer loop
      vertex -7.43145 -6.69131 5
      vertex -6.69131 -7.43145 0
      vertex -6.69131 -7.43145 5
    endloop
  endfacet
  facet normal 0.544637 -0.838672 0
    outer loop
      vertex 5 -8.66025 0
      vertex 5.87785 -8.09017 5
      vertex 5 -8.66025 5
    endloop
  endfacet
  facet normal 0.544637 -0.838672 0
    outer loop
      vertex 5.87785 -8.09017 5
      vertex 5 -8.66025 0
      vertex 5.87785 -8.09017 0
    endloop
  endfacet
  facet normal 0.933581 -0.358366 0
    outer loop
      vertex 9.13545 -4.06737 5
      vertex 9.51056 -3.09017 0
      vertex 9.51056 -3.09017 5
    endloop
  endfacet
  facet normal 0.933581 -0.358366 0
    outer loop
      vertex 9.51056 -3.09017 0
      vertex 9.13545 -4.06737 5
      vertex 9.13545 -4.06737 0
    endloop
  endfacet
  facet normal 0 0 -1
    outer loop
      vertex 9 0 0
      vertex 10 0 0
      vertex 9.94522 -1.04528 0
    endloop
  endfacet
  facet normal 0 0 -1
    outer loop
      vertex 9.94786 0.994786 0
      vertex 10 2 0
      vertex 20 2 0
    endloop
  endfacet
  facet normal 0 0 -1
    outer loop
      vertex 9.94786 0.994786 0
      vertex 9.80033 1.96007 0
      vertex 10 2 0
    endloop
  endfacet
  facet normal 0 0 -1
    outer loop
      vertex 10 0 0
      vertex 9 0 0
      vertex 9.94786 0.994786 0
    endloop
  endfacet
  facet normal 0 0 -1
    outer loop
      vertex 8.9507 -0.940756 0
      vertex 9.94522 -1.04528 0
      vertex 9.78148 -2.07912 0
    endloop
  endfacet
  facet normal 0 0 -1
    outer loop
      vertex 8.95308 0.895308 0
      vertex 9.94786 0.994786 0
      vertex 9 0 0
    endloop
  endfacet
  facet normal 0 0 -1
    outer loop
      vertex 8.80333 -1.8712 0
      vertex 9.78148 -2.07912 0
      vertex 9.51056 -3.09017 0
    endloop
  endfacet
  facet normal -0 0 -1
    outer loop
      vertex 9.94786 0.994786 0
      vertex 8.95308 0.895308 0
      vertex 9.80033 1.96007 0
    endloop
  endfacet
  facet normal 0 0 -1
    outer loop
      vertex 8.55951 -2.78115 0
      vertex 9.51056 -3.09017 0
      vertex 9.13545 -4.06737 0
    endloop
  endfacet
  facet normal 0 0 -1
    outer loop
      vertex 8.8203 1.76406 0
      vertex 9.80033 1.96007 0
      vertex 8.95308 0.895308 0
    endloop
  endfacet
  facet normal 0 0 -1
    outer loop
      vertex 8.80333 1.8712 0
      vertex 9.80033 1.96007 0
      vertex 8.8203 1.76406 0
    endloop
  endfacet
  facet normal 0 0 -1
    outer loop
      vertex 9.94522 -1.04528 0
      vertex 8.9507 -0.940756 0
      vertex 9 0 0
    endloop
  endfacet
  facet normal 0 0 -1
    outer loop
      vertex 9.78148 -2.07912 0
      vertex 8.80333 -1.8712 0
      vertex 8.9507 -0.940756 0
    endloop
  endfacet
  facet normal 0 0 -1
    outer loop
      vertex 8.22191 -3.66063 0
      vertex 9.13545 -4.06737 0
      vertex 8.66025 -5 0
    endloop
  endfacet
  facet normal 0 0 -1
    outer loop
      vertex 9.51056 -3.09017 0
      vertex 8.55951 -2.78115 0
      vertex 8.80333 -1.8712 0
    endloop
  endfacet
  facet normal 0 0 -1
    outer loop
      vertex 9.13545 -4.06737 0
      vertex 8.22191 -3.66063 0
      vertex 8.55951 -2.78115 0
    endloop
  endfacet
  facet normal 0 0 -1
    outer loop
      vertex 7.79423 -4.5 0
      vertex 8.66025 -5 0
      vertex 8.09017 -5.87785 0
    endloop
  endfacet
  facet normal 0 0 -1
    outer loop
      vertex 8.66025 -5 0
      vertex 7.79423 -4.5 0
      vertex 8.22191 -3.66063 0
    endloop
  endfacet
  facet normal 0 0 -1
    outer loop
      vertex 7.28115 -5.29007 0
      vertex 8.09017 -5.87785 0
      vertex 7.43145 -6.69131 0
    endloop
  endfacet
  facet normal 0 0 -1
    outer loop
      vertex 8.09017 -5.87785 0
      vertex 7.28115 -5.29007 0
      vertex 7.79423 -4.5 0
    endloop
  endfacet
  facet normal 0 0 -1
    outer loop
      vertex 6.6883 -6.02217 0
      vertex 7.43145 -6.69131 0
      vertex 6.69131 -7.43145 0
    endloop
  endfacet
  facet normal 0 0 -1
    outer loop
      vertex 7.43145 -6.69131 0
      vertex 6.6883 -6.02217 0
      vertex 7.28115 -5.29007 0
    endloop
  endfacet
  facet normal 0 0 -1
    outer loop
      vertex 6.69131 -7.43145 0
      vertex 6.02217 -6.6883 0
      vertex 6.6883 -6.02217 0
    endloop
  endfacet
  facet normal 0 0 -1
    outer loop
      vertex 5.87785 -8.09017 0
      vertex 6.02217 -6.6883 0
      vertex 6.69131 -7.43145 0
    endloop
  endfacet
  facet normal 0 0 -1
    outer loop
      vertex 5.87785 -8.09017 0
      vertex 5.29007 -7.28115 0
      vertex 6.02217 -6.6883 0
    endloop
  endfacet
  facet normal 0 0 -1
    outer loop
      vertex 5 -8.66025 0
      vertex 5.29007 -7.28115 0
      vertex 5.87785 -8.09017 0
    endloop
  endfacet
  facet normal 0 0 -1
    outer loop
      vertex 5 -8.66025 0
      vertex 4.5 -7.79423 0
      vertex 5.29007 -7.28115 0
    endloop
  endfacet
  facet normal 0 0 -1
    outer loop
      vertex 4.06737 -9.13545 0
      vertex 4.5 -7.79423 0
      vertex 5 -8.66025 0
    endloop
  endfacet
  facet normal 0 0 -1
    outer loop
      vertex 4.06737 -9.13545 0
      vertex 3.66063 -8.22191 0
      vertex 4.5 -7.79423 0
    endloop
  endfacet
  facet normal 0 0 -1
    outer loop
      vertex 3.09017 -9.51056 0
      vertex 3.66063 -8.22191 0
      vertex 4.06737 -9.13545 0
    endloop
  endfacet
  facet normal 0 0 -1
    outer loop
      vertex 3.09017 -9.51056 0
      vertex 2.78115 -8.55951 0
      vertex 3.66063 -8.22191 0
    endloop
  endfacet
  facet normal 0 0 -1
    outer loop
      vertex 2.07912 -9.78148 0
      vertex 2.78115 -8.55951 0
      vertex 3.09017 -9.51056 0
    endloop
  endfacet
  facet normal 0 0 -1
    outer loop
      vertex 2.07912 -9.78148 0
      vertex 1.8712 -8.80333 0
      vertex 2.78115 -8.55951 0
    endloop
  endfacet
  facet normal 0 0 -1
    outer loop
      vertex 1.04528 -9.94522 0
      vertex 1.8712 -8.80333 0
      vertex 2.07912 -9.78148 0
    endloop
  endfacet
  facet normal 0 0 -1
    outer loop
      vertex 1.04528 -9.94522 0
      vertex 0.940756 -8.9507 0
      vertex 1.8712 -8.80333 0
    endloop
  endfacet
  facet normal 0 0 -1
    outer loop
      vertex 0 -10 0
      vertex 0.940756 -8.9507 0
      vertex 1.04528 -9.94522 0
    endloop
  endfacet
  facet normal 0 0 -1
    outer loop
      vertex 0 -10 0
      vertex 0 -9 0
      vertex 0.940756 -8.9507 0
    endloop
  endfacet
  facet normal 0 0 -1
    outer loop
      vertex 0 -10 0
      vertex -0.940756 -8.9507 0
      vertex 0 -9 0
    endloop
  endfacet
  facet normal 0 0 -1
    outer loop
      vertex -1.04528 -9.94522 0
      vertex -0.940756 -8.9507 0
      vertex 0 -10 0
    endloop
  endfacet
  facet normal 0 0 -1
    outer loop
      vertex -1.04528 -9.94522 0
      vertex -1.8712 -8.80333 0
      vertex -0.940756 -8.9507 0
    endloop
  endfacet
  facet normal 0 0 -1
    outer loop
      vertex -2.07912 -9.78148 0
      vertex -1.8712 -8.80333 0
      vertex -1.04528 -9.94522 0
    endloop
  endfacet
  facet normal 0 0 -1
    outer loop
      vertex -2.07912 -9.78148 0
      vertex -2.78115 -8.55951 0
      vertex -1.8712 -8.80333 0
    endloop
  endfacet
  facet normal 0 0 -1
    outer loop
      vertex -3.09017 -9.51056 0
      vertex -2.78115 -8.55951 0
      vertex -2.07912 -9.78148 0
    endloop
  endfacet
  facet normal 0 0 -1
    outer loop
      vertex -3.09017 -9.51056 0
      vertex -3.66063 -8.22191 0
      vertex -2.78115 -8.55951 0
    endloop
  endfacet
  facet normal 0 0 -1
    outer loop
      vertex -4.06737 -9.13545 0
      vertex -3.66063 -8.22191 0
      vertex -3.09017 -9.51056 0
    endloop
  endfacet
  facet normal 0 0 -1
    outer loop
      vertex -4.06737 -9.13545 0
      vertex -4.5 -7.79423 0
      vertex -3.66063 -8.22191 0
    endloop
  endfacet
  facet normal 0 0 -1
    outer loop
      vertex -5 -8.66025 0
      vertex -4.5 -7.79423 0
      vertex -4.06737 -9.13545 0
    endloop
  endfacet
  facet normal 0 0 -1
    outer loop
      vertex -5 -8.66025 0
      vertex -5.29007 -7.28115 0
      vertex -4.5 -7.79423 0
    endloop
  endfacet
  facet normal 0 0 -1
    outer loop
      vertex -5.87785 -8.09017 0
      vertex -5.29007 -7.28115 0
      vertex -5 -8.66025 0
    endloop
  endfacet
  facet normal 0 0 -1
    outer loop
      vertex -5.87785 -8.09017 0
      vertex -6.02217 -6.6883 0
      vertex -5.29007 -7.28115 0
    endloop
  endfacet
  facet normal 0 0 -1
    outer loop
      vertex -6.69131 -7.43145 0
      vertex -6.02217 -6.6883 0
      vertex -5.87785 -8.09017 0
    endloop
  endfacet
  facet normal -0 0 -1
    outer loop
      vertex -6.02217 -6.6883 0
      vertex -6.69131 -7.43145 0
      vertex -6.6883 -6.02217 0
    endloop
  endfacet
  facet normal 0 0 -1
    outer loop
      vertex -7.43145 -6.69131 0
      vertex -6.6883 -6.02217 0
      vertex -6.69131 -7.43145 0
    endloop
  endfacet
  facet normal -0 0 -1
    outer loop
      vertex -6.6883 -6.02217 0
      vertex -7.43145 -6.69131 0
      vertex -7.28115 -5.29007 0
    endloop
  endfacet
  facet normal 0 0 -1
    outer loop
      vertex -8.09017 -5.87785 0
      vertex -7.28115 -5.29007 0
      vertex -7.43145 -6.69131 0
    endloop
  endfacet
  facet normal -0 0 -1
    outer loop
      vertex -7.28115 -5.29007 0
      vertex -8.09017 -5.87785 0
      vertex -7.79423 -4.5 0
    endloop
  endfacet
  facet normal 0 0 -1
    outer loop
      vertex -8.66025 -5 0
      vertex -7.79423 -4.5 0
      vertex -8.09017 -5.87785 0
    endloop
  endfacet
  facet normal -0 0 -1
    outer loop
      vertex -7.79423 -4.5 0
      vertex -8.66025 -5 0
      vertex -8.22191 -3.66063 0
    endloop
  endfacet
  facet normal 0 0 -1
    outer loop
      vertex -9.13545 -4.06737 0
      vertex -8.22191 -3.66063 0
      vertex -8.66025 -5 0
    endloop
  endfacet
  facet normal -0 0 -1
    outer loop
      vertex -8.22191 -3.66063 0
      vertex -9.13545 -4.06737 0
      vertex -8.55951 -2.78115 0
    endloop
  endfacet
  facet normal 0 0 -1
    outer loop
      vertex -9.51056 -3.09017 0
      vertex -8.55951 -2.78115 0
      vertex -9.13545 -4.06737 0
    endloop
  endfacet
  facet normal 0 0 -1
    outer loop
      vertex -9.78148 -2.07912 0
      vertex -8.80333 -1.8712 0
      vertex -9.51056 -3.09017 0
    endloop
  endfacet
  facet normal -0 0 -1
    outer loop
      vertex -8.55951 -2.78115 0
      vertex -9.51056 -3.09017 0
      vertex -8.80333 -1.8712 0
    endloop
  endfacet
  facet normal -0 0 -1
    outer loop
      vertex 8.95308 0.895308 0
      vertex 0 0 0
      vertex 8.8203 1.76406 0
    endloop
  endfacet
  facet normal -0 0 -1
    outer loop
      vertex 9.80033 1.96007 0
      vertex 8.80333 1.8712 0
      vertex 9.78148 2.07912 0
    endloop
  endfacet
  facet normal -0 0 -1
    outer loop
      vertex 9.78148 2.07912 0
      vertex 8.80333 1.8712 0
      vertex 9.51056 3.09017 0
    endloop
  endfacet
  facet normal 0 0 -1
    outer loop
      vertex 8.55951 2.78115 0
      vertex 9.51056 3.09017 0
      vertex 8.80333 1.8712 0
    endloop
  endfacet
  facet normal -0 0 -1
    outer loop
      vertex 9.51056 3.09017 0
      vertex 8.55951 2.78115 0
      vertex 9.13545 4.06737 0
    endloop
  endfacet
  facet normal 0 0 -1
    outer loop
      vertex 8.22191 3.66063 0
      vertex 9.13545 4.06737 0
      vertex 8.55951 2.78115 0
    endloop
  endfacet
  facet normal -0 0 -1
    outer loop
      vertex 9.13545 4.06737 0
      vertex 8.22191 3.66063 0
      vertex 8.66025 5 0
    endloop
  endfacet
  facet normal 0 0 -1
    outer loop
      vertex 7.79423 4.5 0
      vertex 8.66025 5 0
      vertex 8.22191 3.66063 0
    endloop
  endfacet
  facet normal -0 0 -1
    outer loop
      vertex 8.66025 5 0
      vertex 7.79423 4.5 0
      vertex 8.09017 5.87785 0
    endloop
  endfacet
  facet normal 0 0 -1
    outer loop
      vertex 7.28115 5.29007 0
      vertex 8.09017 5.87785 0
      vertex 7.79423 4.5 0
    endloop
  endfacet
  facet normal -0 0 -1
    outer loop
      vertex 8.09017 5.87785 0
      vertex 7.28115 5.29007 0
      vertex 7.43145 6.69131 0
    endloop
  endfacet
  facet normal 0 0 -1
    outer loop
      vertex 6.6883 6.02217 0
      vertex 7.43145 6.69131 0
      vertex 7.28115 5.29007 0
    endloop
  endfacet
  facet normal -0 0 -1
    outer loop
      vertex 7.43145 6.69131 0
      vertex 6.6883 6.02217 0
      vertex 6.69131 7.43145 0
    endloop
  endfacet
  facet normal 0 0 -1
    outer loop
      vertex 6.02217 6.6883 0
      vertex 6.69131 7.43145 0
      vertex 6.6883 6.02217 0
    endloop
  endfacet
  facet normal 0 0 -1
    outer loop
      vertex 6.02217 6.6883 0
      vertex 5.87785 8.09017 0
      vertex 6.69131 7.43145 0
    endloop
  endfacet
  facet normal 0 0 -1
    outer loop
      vertex 5.29007 7.28115 0
      vertex 5.87785 8.09017 0
      vertex 6.02217 6.6883 0
    endloop
  endfacet
  facet normal 0 0 -1
    outer loop
      vertex 5.29007 7.28115 0
      vertex 5 8.66025 0
      vertex 5.87785 8.09017 0
    endloop
  endfacet
  facet normal 0 0 -1
    outer loop
      vertex 4.5 7.79423 0
      vertex 5 8.66025 0
      vertex 5.29007 7.28115 0
    endloop
  endfacet
  facet normal 0 0 -1
    outer loop
      vertex 4.5 7.79423 0
      vertex 4.06737 9.13545 0
      vertex 5 8.66025 0
    endloop
  endfacet
  facet normal 0 0 -1
    outer loop
      vertex 3.66063 8.22191 0
      vertex 4.06737 9.13545 0
      vertex 4.5 7.79423 0
    endloop
  endfacet
  facet normal 0 0 -1
    outer loop
      vertex 3.66063 8.22191 0
      vertex 3.09017 9.51056 0
      vertex 4.06737 9.13545 0
    endloop
  endfacet
  facet normal 0 0 -1
    outer loop
      vertex 2.78115 8.55951 0
      vertex 3.09017 9.51056 0
      vertex 3.66063 8.22191 0
    endloop
  endfacet
  facet normal 0 0 -1
    outer loop
      vertex 2.78115 8.55951 0
      vertex 2.07912 9.78148 0
      vertex 3.09017 9.51056 0
    endloop
  endfacet
  facet normal 0 0 -1
    outer loop
      vertex 1.8712 8.80333 0
      vertex 2.07912 9.78148 0
      vertex 2.78115 8.55951 0
    endloop
  endfacet
  facet normal 0 0 -1
    outer loop
      vertex 1.8712 8.80333 0
      vertex 1.04528 9.94522 0
      vertex 2.07912 9.78148 0
    endloop
  endfacet
  facet normal 0 0 -1
    outer loop
      vertex 0.940756 8.9507 0
      vertex 1.04528 9.94522 0
      vertex 1.8712 8.80333 0
    endloop
  endfacet
  facet normal 0 0 -1
    outer loop
      vertex 0 9 0
      vertex 1.04528 9.94522 0
      vertex 0.940756 8.9507 0
    endloop
  endfacet
  facet normal 0 0 -1
    outer loop
      vertex 0 9 0
      vertex 0 10 0
      vertex 1.04528 9.94522 0
    endloop
  endfacet
  facet normal 0 0 -1
    outer loop
      vertex -0.940756 8.9507 0
      vertex 0 10 0
      vertex 0 9 0
    endloop
  endfacet
  facet normal 0 0 -1
    outer loop
      vertex -0.940756 8.9507 0
      vertex -1.04528 9.94522 0
      vertex 0 10 0
    endloop
  endfacet
  facet normal 0 0 -1
    outer loop
      vertex -1.8712 8.80333 0
      vertex -1.04528 9.94522 0
      vertex -0.940756 8.9507 0
    endloop
  endfacet
  facet normal 0 0 -1
    outer loop
      vertex -1.8712 8.80333 0
      vertex -2.07912 9.78148 0
      vertex -1.04528 9.94522 0
    endloop
  endfacet
  facet normal 0 0 -1
    outer loop
      vertex -2.78115 8.55951 0
      vertex -2.07912 9.78148 0
      vertex -1.8712 8.80333 0
    endloop
  endfacet
  facet normal 0 0 -1
    outer loop
      vertex -2.78115 8.55951 0
      vertex -3.09017 9.51056 0
      vertex -2.07912 9.78148 0
    endloop
  endfacet
  facet normal 0 0 -1
    outer loop
      vertex -3.66063 8.22191 0
      vertex -3.09017 9.51056 0
      vertex -2.78115 8.55951 0
    endloop
  endfacet
  facet normal 0 0 -1
    outer loop
      vertex -3.66063 8.22191 0
      vertex -4.06737 9.13545 0
      vertex -3.09017 9.51056 0
    endloop
  endfacet
  facet normal 0 0 -1
    outer loop
      vertex -4.5 7.79423 0
      vertex -4.06737 9.13545 0
      vertex -3.66063 8.22191 0
    endloop
  endfacet
  facet normal 0 0 -1
    outer loop
      vertex -4.5 7.79423 0
      vertex -5 8.66025 0
      vertex -4.06737 9.13545 0
    endloop
  endfacet
  facet normal 0 0 -1
    outer loop
      vertex -5.29007 7.28115 0
      vertex -5 8.66025 0
      vertex -4.5 7.79423 0
    endloop
  endfacet
  facet normal 0 0 -1
    outer loop
      vertex -5.29007 7.28115 0
      vertex -5.87785 8.09017 0
      vertex -5 8.66025 0
    endloop
  endfacet
  facet normal 0 0 -1
    outer loop
      vertex -6.02217 6.6883 0
      vertex -5.87785 8.09017 0
      vertex -5.29007 7.28115 0
    endloop
  endfacet
  facet normal 0 0 -1
    outer loop
      vertex -6.69131 7.43145 0
      vertex -6.02217 6.6883 0
      vertex -6.6883 6.02217 0
    endloop
  endfacet
  facet normal 0 0 -1
    outer loop
      vertex -6.02217 6.6883 0
      vertex -6.69131 7.43145 0
      vertex -5.87785 8.09017 0
    endloop
  endfacet
  facet normal 0 0 -1
    outer loop
      vertex -7.43145 6.69131 0
      vertex -6.6883 6.02217 0
      vertex -7.28115 5.29007 0
    endloop
  endfacet
  facet normal 0 0 -1
    outer loop
      vertex -6.6883 6.02217 0
      vertex -7.43145 6.69131 0
      vertex -6.69131 7.43145 0
    endloop
  endfacet
  facet normal 0 0 -1
    outer loop
      vertex -8.09017 5.87785 0
      vertex -7.28115 5.29007 0
      vertex -7.79423 4.5 0
    endloop
  endfacet
  facet normal 0 0 -1
    outer loop
      vertex -7.28115 5.29007 0
      vertex -8.09017 5.87785 0
      vertex -7.43145 6.69131 0
    endloop
  endfacet
  facet normal 0 0 -1
    outer loop
      vertex -8.66025 5 0
      vertex -7.79423 4.5 0
      vertex -8.22191 3.66063 0
    endloop
  endfacet
  facet normal 0 0 -1
    outer loop
      vertex -9.13545 4.06737 0
      vertex -8.22191 3.66063 0
      vertex -8.55951 2.78115 0
    endloop
  endfacet
  facet normal 0 0 -1
    outer loop
      vertex -7.79423 4.5 0
      vertex -8.66025 5 0
      vertex -8.09017 5.87785 0
    endloop
  endfacet
  facet normal 0 0 -1
    outer loop
      vertex -9.51056 3.09017 0
      vertex -8.55951 2.78115 0
      vertex -8.80333 1.8712 0
    endloop
  endfacet
  facet normal 0 0 -1
    outer loop
      vertex -9.78148 2.07912 0
      vertex -8.80333 1.8712 0
      vertex -8.9507 0.940756 0
    endloop
  endfacet
  facet normal 0 0 -1
    outer loop
      vertex -8.22191 3.66063 0
      vertex -9.13545 4.06737 0
      vertex -8.66025 5 0
    endloop
  endfacet
  facet normal 0 0 -1
    outer loop
      vertex -9.94522 1.04528 0
      vertex -8.9507 0.940756 0
      vertex -9 0 0
    endloop
  endfacet
  facet normal -0 0 -1
    outer loop
      vertex -8.80333 -1.8712 0
      vertex -9.78148 -2.07912 0
      vertex -8.9507 -0.940756 0
    endloop
  endfacet
  facet normal 0 0 -1
    outer loop
      vertex -9.94522 -1.04528 0
      vertex -8.9507 -0.940756 0
      vertex -9.78148 -2.07912 0
    endloop
  endfacet
  facet normal 0 0 -1
    outer loop
      vertex -8.55951 2.78115 0
      vertex -9.51056 3.09017 0
      vertex -9.13545 4.06737 0
    endloop
  endfacet
  facet normal -0 0 -1
    outer loop
      vertex -8.9507 -0.940756 0
      vertex -9.94522 -1.04528 0
      vertex -9 0 0
    endloop
  endfacet
  facet normal 0 0 -1
    outer loop
      vertex -8.80333 1.8712 0
      vertex -9.78148 2.07912 0
      vertex -9.51056 3.09017 0
    endloop
  endfacet
  facet normal 0 0 -1
    outer loop
      vertex -10 0 0
      vertex -9 0 0
      vertex -9.94522 -1.04528 0
    endloop
  endfacet
  facet normal 0 0 -1
    outer loop
      vertex -8.9507 0.940756 0
      vertex -9.94522 1.04528 0
      vertex -9.78148 2.07912 0
    endloop
  endfacet
  facet normal 0 0 -1
    outer loop
      vertex -9 0 0
      vertex -10 0 0
      vertex -9.94522 1.04528 0
    endloop
  endfacet
  facet normal -0.0523352 -0.99863 0
    outer loop
      vertex -1.04528 -9.94522 0
      vertex 0 -10 5
      vertex -1.04528 -9.94522 5
    endloop
  endfacet
  facet normal -0.0523352 -0.99863 -0
    outer loop
      vertex 0 -10 5
      vertex -1.04528 -9.94522 0
      vertex 0 -10 0
    endloop
  endfacet
  facet normal -0.99863 0.0523352 0
    outer loop
      vertex -10 0 0
      vertex -9.94522 1.04528 5
      vertex -9.94522 1.04528 0
    endloop
  endfacet
  facet normal -0.99863 0.0523352 0
    outer loop
      vertex -9.94522 1.04528 5
      vertex -10 0 0
      vertex -10 0 5
    endloop
  endfacet
  facet normal -0.358366 -0.933581 0
    outer loop
      vertex -4.06737 -9.13545 0
      vertex -3.09017 -9.51056 5
      vertex -4.06737 -9.13545 5
    endloop
  endfacet
  facet normal -0.358366 -0.933581 -0
    outer loop
      vertex -3.09017 -9.51056 5
      vertex -4.06737 -9.13545 0
      vertex -3.09017 -9.51056 0
    endloop
  endfacet
  facet normal -0.544637 -0.838672 0
    outer loop
      vertex -5.87785 -8.09017 0
      vertex -5 -8.66025 5
      vertex -5.87785 -8.09017 5
    endloop
  endfacet
  facet normal -0.544637 -0.838672 -0
    outer loop
      vertex -5 -8.66025 5
      vertex -5.87785 -8.09017 0
      vertex -5 -8.66025 0
    endloop
  endfacet
  facet normal 0.707107 -0.707107 0
    outer loop
      vertex 6.69131 -7.43145 5
      vertex 7.43145 -6.69131 0
      vertex 7.43145 -6.69131 5
    endloop
  endfacet
  facet normal 0.707107 -0.707107 0
    outer loop
      vertex 7.43145 -6.69131 0
      vertex 6.69131 -7.43145 5
      vertex 6.69131 -7.43145 0
    endloop
  endfacet
  facet normal 0.933581 0.358367 0
    outer loop
      vertex -8.22191 -3.66063 5
      vertex -8.55951 -2.78115 0
      vertex -8.55951 -2.78115 5
    endloop
  endfacet
  facet normal 0.933581 0.358367 0
    outer loop
      vertex -8.55951 -2.78115 0
      vertex -8.22191 -3.66063 5
      vertex -8.22191 -3.66063 0
    endloop
  endfacet
  facet normal -0.987687 -0.156441 0
    outer loop
      vertex 8.8203 1.76406 0
      vertex 8.80333 1.8712 5
      vertex 8.80333 1.8712 0
    endloop
  endfacet
  facet normal -0.987687 -0.156441 0
    outer loop
      vertex 8.80333 1.8712 5
      vertex 8.8203 1.76406 0
      vertex 8.8203 1.76406 5
    endloop
  endfacet
  facet normal -0.99863 -0.0523347 0
    outer loop
      vertex 9 0 0
      vertex 8.95308 0.895308 5
      vertex 8.95308 0.895308 0
    endloop
  endfacet
  facet normal -0.99863 -0.0523347 0
    outer loop
      vertex 8.95308 0.895308 5
      vertex 9 0 0
      vertex 9 0 5
    endloop
  endfacet
  facet normal -0.965926 -0.258819 0
    outer loop
      vertex 8.80333 1.8712 0
      vertex 8.55951 2.78115 5
      vertex 8.55951 2.78115 0
    endloop
  endfacet
  facet normal -0.965926 -0.258819 0
    outer loop
      vertex 8.55951 2.78115 5
      vertex 8.80333 1.8712 0
      vertex 8.80333 1.8712 5
    endloop
  endfacet
  facet normal 0.544641 -0.838669 0
    outer loop
      vertex -5.29007 7.28115 0
      vertex -4.5 7.79423 5
      vertex -5.29007 7.28115 5
    endloop
  endfacet
  facet normal 0.544641 -0.838669 0
    outer loop
      vertex -4.5 7.79423 5
      vertex -5.29007 7.28115 0
      vertex -4.5 7.79423 0
    endloop
  endfacet
  facet normal -0.0523329 0.99863 0
    outer loop
      vertex 0.940756 -8.9507 0
      vertex 0 -9 5
      vertex 0.940756 -8.9507 5
    endloop
  endfacet
  facet normal -0.0523329 0.99863 0
    outer loop
      vertex 0 -9 5
      vertex 0.940756 -8.9507 0
      vertex 0 -9 0
    endloop
  endfacet
  facet normal 0.965926 0.258819 0
    outer loop
      vertex -8.55951 -2.78115 5
      vertex -8.80333 -1.8712 0
      vertex -8.80333 -1.8712 5
    endloop
  endfacet
  facet normal 0.965926 0.258819 0
    outer loop
      vertex -8.80333 -1.8712 0
      vertex -8.55951 -2.78115 5
      vertex -8.55951 -2.78115 0
    endloop
  endfacet
  facet normal -0.0523329 -0.99863 0
    outer loop
      vertex 0 9 0
      vertex 0.940756 8.9507 5
      vertex 0 9 5
    endloop
  endfacet
  facet normal -0.0523329 -0.99863 -0
    outer loop
      vertex 0.940756 8.9507 5
      vertex 0 9 0
      vertex 0.940756 8.9507 0
    endloop
  endfacet
  facet normal -0.258819 0.965926 0
    outer loop
      vertex 2.78115 -8.55951 0
      vertex 1.8712 -8.80333 5
      vertex 2.78115 -8.55951 5
    endloop
  endfacet
  facet normal -0.258819 0.965926 0
    outer loop
      vertex 1.8712 -8.80333 5
      vertex 2.78115 -8.55951 0
      vertex 1.8712 -8.80333 0
    endloop
  endfacet
  facet normal -0.707107 -0.707107 0
    outer loop
      vertex 6.6883 6.02217 0
      vertex 6.02217 6.6883 5
      vertex 6.02217 6.6883 0
    endloop
  endfacet
  facet normal -0.707107 -0.707107 0
    outer loop
      vertex 6.02217 6.6883 5
      vertex 6.6883 6.02217 0
      vertex 6.6883 6.02217 5
    endloop
  endfacet
  facet normal 0.629325 0.777142 -0
    outer loop
      vertex -5.29007 -7.28115 0
      vertex -6.02217 -6.6883 5
      vertex -5.29007 -7.28115 5
    endloop
  endfacet
  facet normal 0.629325 0.777142 0
    outer loop
      vertex -6.02217 -6.6883 5
      vertex -5.29007 -7.28115 0
      vertex -6.02217 -6.6883 0
    endloop
  endfacet
  facet normal -0.987688 0.156437 0
    outer loop
      vertex 8.80333 -1.8712 0
      vertex 8.9507 -0.940756 5
      vertex 8.9507 -0.940756 0
    endloop
  endfacet
  facet normal -0.987688 0.156437 0
    outer loop
      vertex 8.9507 -0.940756 5
      vertex 8.80333 -1.8712 0
      vertex 8.80333 -1.8712 5
    endloop
  endfacet
  facet normal 0.707107 0.707107 0
    outer loop
      vertex -6.02217 -6.6883 5
      vertex -6.6883 -6.02217 0
      vertex -6.6883 -6.02217 5
    endloop
  endfacet
  facet normal 0.707107 0.707107 0
    outer loop
      vertex -6.6883 -6.02217 0
      vertex -6.02217 -6.6883 5
      vertex -6.02217 -6.6883 0
    endloop
  endfacet
  facet normal -0.838669 -0.544641 0
    outer loop
      vertex 7.79423 4.5 0
      vertex 7.28115 5.29007 5
      vertex 7.28115 5.29007 0
    endloop
  endfacet
  facet normal -0.838669 -0.544641 0
    outer loop
      vertex 7.28115 5.29007 5
      vertex 7.79423 4.5 0
      vertex 7.79423 4.5 5
    endloop
  endfacet
  facet normal -0.99863 0.0523329 0
    outer loop
      vertex 8.9507 -0.940756 0
      vertex 9 0 5
      vertex 9 0 0
    endloop
  endfacet
  facet normal -0.99863 0.0523329 0
    outer loop
      vertex 9 0 5
      vertex 8.9507 -0.940756 0
      vertex 8.9507 -0.940756 5
    endloop
  endfacet
  facet normal -0.629325 -0.777142 0
    outer loop
      vertex 5.29007 7.28115 0
      vertex 6.02217 6.6883 5
      vertex 5.29007 7.28115 5
    endloop
  endfacet
  facet normal -0.629325 -0.777142 -0
    outer loop
      vertex 6.02217 6.6883 5
      vertex 5.29007 7.28115 0
      vertex 6.02217 6.6883 0
    endloop
  endfacet
  facet normal -0.156437 -0.987688 0
    outer loop
      vertex 0.940756 8.9507 0
      vertex 1.8712 8.80333 5
      vertex 0.940756 8.9507 5
    endloop
  endfacet
  facet normal -0.156437 -0.987688 -0
    outer loop
      vertex 1.8712 8.80333 5
      vertex 0.940756 8.9507 0
      vertex 1.8712 8.80333 0
    endloop
  endfacet
  facet normal -0.544641 -0.838669 0
    outer loop
      vertex 4.5 7.79423 0
      vertex 5.29007 7.28115 5
      vertex 4.5 7.79423 5
    endloop
  endfacet
  facet normal -0.544641 -0.838669 -0
    outer loop
      vertex 5.29007 7.28115 5
      vertex 4.5 7.79423 0
      vertex 5.29007 7.28115 0
    endloop
  endfacet
  facet normal -0.358367 0.933581 0
    outer loop
      vertex 3.66063 -8.22191 0
      vertex 2.78115 -8.55951 5
      vertex 3.66063 -8.22191 5
    endloop
  endfacet
  facet normal -0.358367 0.933581 0
    outer loop
      vertex 2.78115 -8.55951 5
      vertex 3.66063 -8.22191 0
      vertex 2.78115 -8.55951 0
    endloop
  endfacet
  facet normal 0.258819 -0.965926 0
    outer loop
      vertex -2.78115 8.55951 0
      vertex -1.8712 8.80333 5
      vertex -2.78115 8.55951 5
    endloop
  endfacet
  facet normal 0.258819 -0.965926 0
    outer loop
      vertex -1.8712 8.80333 5
      vertex -2.78115 8.55951 0
      vertex -1.8712 8.80333 0
    endloop
  endfacet
  facet normal -0.358367 -0.933581 0
    outer loop
      vertex 2.78115 8.55951 0
      vertex 3.66063 8.22191 5
      vertex 2.78115 8.55951 5
    endloop
  endfacet
  facet normal -0.358367 -0.933581 -0
    outer loop
      vertex 3.66063 8.22191 5
      vertex 2.78115 8.55951 0
      vertex 3.66063 8.22191 0
    endloop
  endfacet
  facet normal -0.965926 0.258819 0
    outer loop
      vertex 8.55951 -2.78115 0
      vertex 8.80333 -1.8712 5
      vertex 8.80333 -1.8712 0
    endloop
  endfacet
  facet normal -0.965926 0.258819 0
    outer loop
      vertex 8.80333 -1.8712 5
      vertex 8.55951 -2.78115 0
      vertex 8.55951 -2.78115 5
    endloop
  endfacet
  facet normal -0.45399 -0.891007 0
    outer loop
      vertex 3.66063 8.22191 0
      vertex 4.5 7.79423 5
      vertex 3.66063 8.22191 5
    endloop
  endfacet
  facet normal -0.45399 -0.891007 -0
    outer loop
      vertex 4.5 7.79423 5
      vertex 3.66063 8.22191 0
      vertex 4.5 7.79423 0
    endloop
  endfacet
  facet normal 0.987688 -0.156437 0
    outer loop
      vertex -8.9507 0.940756 5
      vertex -8.80333 1.8712 0
      vertex -8.80333 1.8712 5
    endloop
  endfacet
  facet normal 0.987688 -0.156437 0
    outer loop
      vertex -8.80333 1.8712 0
      vertex -8.9507 0.940756 5
      vertex -8.9507 0.940756 0
    endloop
  endfacet
  facet normal 0.258819 0.965926 -0
    outer loop
      vertex -1.8712 -8.80333 0
      vertex -2.78115 -8.55951 5
      vertex -1.8712 -8.80333 5
    endloop
  endfacet
  facet normal 0.258819 0.965926 0
    outer loop
      vertex -2.78115 -8.55951 5
      vertex -1.8712 -8.80333 0
      vertex -2.78115 -8.55951 0
    endloop
  endfacet
  facet normal -0.838669 0.544641 0
    outer loop
      vertex 7.28115 -5.29007 0
      vertex 7.79423 -4.5 5
      vertex 7.79423 -4.5 0
    endloop
  endfacet
  facet normal -0.838669 0.544641 0
    outer loop
      vertex 7.79423 -4.5 5
      vertex 7.28115 -5.29007 0
      vertex 7.28115 -5.29007 5
    endloop
  endfacet
  facet normal 0.544641 0.838669 -0
    outer loop
      vertex -4.5 -7.79423 0
      vertex -5.29007 -7.28115 5
      vertex -4.5 -7.79423 5
    endloop
  endfacet
  facet normal 0.544641 0.838669 0
    outer loop
      vertex -5.29007 -7.28115 5
      vertex -4.5 -7.79423 0
      vertex -5.29007 -7.28115 0
    endloop
  endfacet
  facet normal -0.777142 0.629325 0
    outer loop
      vertex 6.6883 -6.02217 0
      vertex 7.28115 -5.29007 5
      vertex 7.28115 -5.29007 0
    endloop
  endfacet
  facet normal -0.777142 0.629325 0
    outer loop
      vertex 7.28115 -5.29007 5
      vertex 6.6883 -6.02217 0
      vertex 6.6883 -6.02217 5
    endloop
  endfacet
  facet normal -0.891007 0.45399 0
    outer loop
      vertex 7.79423 -4.5 0
      vertex 8.22191 -3.66063 5
      vertex 8.22191 -3.66063 0
    endloop
  endfacet
  facet normal -0.891007 0.45399 0
    outer loop
      vertex 8.22191 -3.66063 5
      vertex 7.79423 -4.5 0
      vertex 7.79423 -4.5 5
    endloop
  endfacet
  facet normal 0.0523329 -0.99863 0
    outer loop
      vertex -0.940756 8.9507 0
      vertex 0 9 5
      vertex -0.940756 8.9507 5
    endloop
  endfacet
  facet normal 0.0523329 -0.99863 0
    outer loop
      vertex 0 9 5
      vertex -0.940756 8.9507 0
      vertex 0 9 0
    endloop
  endfacet
  facet normal -0.45399 0.891007 0
    outer loop
      vertex 4.5 -7.79423 0
      vertex 3.66063 -8.22191 5
      vertex 4.5 -7.79423 5
    endloop
  endfacet
  facet normal -0.45399 0.891007 0
    outer loop
      vertex 3.66063 -8.22191 5
      vertex 4.5 -7.79423 0
      vertex 3.66063 -8.22191 0
    endloop
  endfacet
  facet normal -0.156437 0.987688 0
    outer loop
      vertex 1.8712 -8.80333 0
      vertex 0.940756 -8.9507 5
      vertex 1.8712 -8.80333 5
    endloop
  endfacet
  facet normal -0.156437 0.987688 0
    outer loop
      vertex 0.940756 -8.9507 5
      vertex 1.8712 -8.80333 0
      vertex 0.940756 -8.9507 0
    endloop
  endfacet
  facet normal 0.777142 -0.629325 0
    outer loop
      vertex -7.28115 5.29007 5
      vertex -6.6883 6.02217 0
      vertex -6.6883 6.02217 5
    endloop
  endfacet
  facet normal 0.777142 -0.629325 0
    outer loop
      vertex -6.6883 6.02217 0
      vertex -7.28115 5.29007 5
      vertex -7.28115 5.29007 0
    endloop
  endfacet
  facet normal 0.156437 0.987688 -0
    outer loop
      vertex -0.940756 -8.9507 0
      vertex -1.8712 -8.80333 5
      vertex -0.940756 -8.9507 5
    endloop
  endfacet
  facet normal 0.156437 0.987688 0
    outer loop
      vertex -1.8712 -8.80333 5
      vertex -0.940756 -8.9507 0
      vertex -1.8712 -8.80333 0
    endloop
  endfacet
  facet normal -0.777142 -0.629325 0
    outer loop
      vertex 7.28115 5.29007 0
      vertex 6.6883 6.02217 5
      vertex 6.6883 6.02217 0
    endloop
  endfacet
  facet normal -0.777142 -0.629325 0
    outer loop
      vertex 6.6883 6.02217 5
      vertex 7.28115 5.29007 0
      vertex 7.28115 5.29007 5
    endloop
  endfacet
  facet normal 0.358367 -0.933581 0
    outer loop
      vertex -3.66063 8.22191 0
      vertex -2.78115 8.55951 5
      vertex -3.66063 8.22191 5
    endloop
  endfacet
  facet normal 0.358367 -0.933581 0
    outer loop
      vertex -2.78115 8.55951 5
      vertex -3.66063 8.22191 0
      vertex -2.78115 8.55951 0
    endloop
  endfacet
  facet normal -0.258819 -0.965926 0
    outer loop
      vertex 1.8712 8.80333 0
      vertex 2.78115 8.55951 5
      vertex 1.8712 8.80333 5
    endloop
  endfacet
  facet normal -0.258819 -0.965926 -0
    outer loop
      vertex 2.78115 8.55951 5
      vertex 1.8712 8.80333 0
      vertex 2.78115 8.55951 0
    endloop
  endfacet
  facet normal -0.933581 -0.358367 0
    outer loop
      vertex 8.55951 2.78115 0
      vertex 8.22191 3.66063 5
      vertex 8.22191 3.66063 0
    endloop
  endfacet
  facet normal -0.933581 -0.358367 0
    outer loop
      vertex 8.22191 3.66063 5
      vertex 8.55951 2.78115 0
      vertex 8.55951 2.78115 5
    endloop
  endfacet
  facet normal -0.933581 0.358367 0
    outer loop
      vertex 8.22191 -3.66063 0
      vertex 8.55951 -2.78115 5
      vertex 8.55951 -2.78115 0
    endloop
  endfacet
  facet normal -0.933581 0.358367 0
    outer loop
      vertex 8.55951 -2.78115 5
      vertex 8.22191 -3.66063 0
      vertex 8.22191 -3.66063 5
    endloop
  endfacet
  facet normal 0.99863 0.0523329 0
    outer loop
      vertex -8.9507 -0.940756 5
      vertex -9 0 0
      vertex -9 0 5
    endloop
  endfacet
  facet normal 0.99863 0.0523329 0
    outer loop
      vertex -9 0 0
      vertex -8.9507 -0.940756 5
      vertex -8.9507 -0.940756 0
    endloop
  endfacet
  facet normal 0.45399 -0.891007 0
    outer loop
      vertex -4.5 7.79423 0
      vertex -3.66063 8.22191 5
      vertex -4.5 7.79423 5
    endloop
  endfacet
  facet normal 0.45399 -0.891007 0
    outer loop
      vertex -3.66063 8.22191 5
      vertex -4.5 7.79423 0
      vertex -3.66063 8.22191 0
    endloop
  endfacet
  facet normal -0.891007 -0.45399 0
    outer loop
      vertex 8.22191 3.66063 0
      vertex 7.79423 4.5 5
      vertex 7.79423 4.5 0
    endloop
  endfacet
  facet normal -0.891007 -0.45399 0
    outer loop
      vertex 7.79423 4.5 5
      vertex 8.22191 3.66063 0
      vertex 8.22191 3.66063 5
    endloop
  endfacet
  facet normal -0.629325 0.777142 0
    outer loop
      vertex 6.02217 -6.6883 0
      vertex 5.29007 -7.28115 5
      vertex 6.02217 -6.6883 5
    endloop
  endfacet
  facet normal -0.629325 0.777142 0
    outer loop
      vertex 5.29007 -7.28115 5
      vertex 6.02217 -6.6883 0
      vertex 5.29007 -7.28115 0
    endloop
  endfacet
  facet normal 0.707107 -0.707107 0
    outer loop
      vertex -6.6883 6.02217 5
      vertex -6.02217 6.6883 0
      vertex -6.02217 6.6883 5
    endloop
  endfacet
  facet normal 0.707107 -0.707107 0
    outer loop
      vertex -6.02217 6.6883 0
      vertex -6.6883 6.02217 5
      vertex -6.6883 6.02217 0
    endloop
  endfacet
  facet normal 0.891007 -0.45399 0
    outer loop
      vertex -8.22191 3.66063 5
      vertex -7.79423 4.5 0
      vertex -7.79423 4.5 5
    endloop
  endfacet
  facet normal 0.891007 -0.45399 0
    outer loop
      vertex -7.79423 4.5 0
      vertex -8.22191 3.66063 5
      vertex -8.22191 3.66063 0
    endloop
  endfacet
  facet normal 0.629325 -0.777142 0
    outer loop
      vertex -6.02217 6.6883 0
      vertex -5.29007 7.28115 5
      vertex -6.02217 6.6883 5
    endloop
  endfacet
  facet normal 0.629325 -0.777142 0
    outer loop
      vertex -5.29007 7.28115 5
      vertex -6.02217 6.6883 0
      vertex -5.29007 7.28115 0
    endloop
  endfacet
  facet normal 0.965926 -0.258819 0
    outer loop
      vertex -8.80333 1.8712 5
      vertex -8.55951 2.78115 0
      vertex -8.55951 2.78115 5
    endloop
  endfacet
  facet normal 0.965926 -0.258819 0
    outer loop
      vertex -8.55951 2.78115 0
      vertex -8.80333 1.8712 5
      vertex -8.80333 1.8712 0
    endloop
  endfacet
  facet normal 0.933581 -0.358367 0
    outer loop
      vertex -8.55951 2.78115 5
      vertex -8.22191 3.66063 0
      vertex -8.22191 3.66063 5
    endloop
  endfacet
  facet normal 0.933581 -0.358367 0
    outer loop
      vertex -8.22191 3.66063 0
      vertex -8.55951 2.78115 5
      vertex -8.55951 2.78115 0
    endloop
  endfacet
  facet normal 0.891007 0.45399 0
    outer loop
      vertex -7.79423 -4.5 5
      vertex -8.22191 -3.66063 0
      vertex -8.22191 -3.66063 5
    endloop
  endfacet
  facet normal 0.891007 0.45399 0
    outer loop
      vertex -8.22191 -3.66063 0
      vertex -7.79423 -4.5 5
      vertex -7.79423 -4.5 0
    endloop
  endfacet
  facet normal 0.156437 -0.987688 0
    outer loop
      vertex -1.8712 8.80333 0
      vertex -0.940756 8.9507 5
      vertex -1.8712 8.80333 5
    endloop
  endfacet
  facet normal 0.156437 -0.987688 0
    outer loop
      vertex -0.940756 8.9507 5
      vertex -1.8712 8.80333 0
      vertex -0.940756 8.9507 0
    endloop
  endfacet
  facet normal 0.838669 0.544641 0
    outer loop
      vertex -7.28115 -5.29007 5
      vertex -7.79423 -4.5 0
      vertex -7.79423 -4.5 5
    endloop
  endfacet
  facet normal 0.838669 0.544641 0
    outer loop
      vertex -7.79423 -4.5 0
      vertex -7.28115 -5.29007 5
      vertex -7.28115 -5.29007 0
    endloop
  endfacet
  facet normal 0.358367 0.933581 -0
    outer loop
      vertex -2.78115 -8.55951 0
      vertex -3.66063 -8.22191 5
      vertex -2.78115 -8.55951 5
    endloop
  endfacet
  facet normal 0.358367 0.933581 0
    outer loop
      vertex -3.66063 -8.22191 5
      vertex -2.78115 -8.55951 0
      vertex -3.66063 -8.22191 0
    endloop
  endfacet
  facet normal 0.45399 0.891007 -0
    outer loop
      vertex -3.66063 -8.22191 0
      vertex -4.5 -7.79423 5
      vertex -3.66063 -8.22191 5
    endloop
  endfacet
  facet normal 0.45399 0.891007 0
    outer loop
      vertex -4.5 -7.79423 5
      vertex -3.66063 -8.22191 0
      vertex -4.5 -7.79423 0
    endloop
  endfacet
  facet normal 0.987688 0.156437 0
    outer loop
      vertex -8.80333 -1.8712 5
      vertex -8.9507 -0.940756 0
      vertex -8.9507 -0.940756 5
    endloop
  endfacet
  facet normal 0.987688 0.156437 0
    outer loop
      vertex -8.9507 -0.940756 0
      vertex -8.80333 -1.8712 5
      vertex -8.80333 -1.8712 0
    endloop
  endfacet
  facet normal 0.777142 0.629325 0
    outer loop
      vertex -6.6883 -6.02217 5
      vertex -7.28115 -5.29007 0
      vertex -7.28115 -5.29007 5
    endloop
  endfacet
  facet normal 0.777142 0.629325 0
    outer loop
      vertex -7.28115 -5.29007 0
      vertex -6.6883 -6.02217 5
      vertex -6.6883 -6.02217 0
    endloop
  endfacet
  facet normal 0.838669 -0.544641 0
    outer loop
      vertex -7.79423 4.5 5
      vertex -7.28115 5.29007 0
      vertex -7.28115 5.29007 5
    endloop
  endfacet
  facet normal 0.838669 -0.544641 0
    outer loop
      vertex -7.28115 5.29007 0
      vertex -7.79423 4.5 5
      vertex -7.79423 4.5 0
    endloop
  endfacet
  facet normal -0.544641 0.838669 0
    outer loop
      vertex 5.29007 -7.28115 0
      vertex 4.5 -7.79423 5
      vertex 5.29007 -7.28115 5
    endloop
  endfacet
  facet normal -0.544641 0.838669 0
    outer loop
      vertex 4.5 -7.79423 5
      vertex 5.29007 -7.28115 0
      vertex 4.5 -7.79423 0
    endloop
  endfacet
  facet normal 0.0523329 0.99863 -0
    outer loop
      vertex 0 -9 0
      vertex -0.940756 -8.9507 5
      vertex 0 -9 5
    endloop
  endfacet
  facet normal 0.0523329 0.99863 0
    outer loop
      vertex -0.940756 -8.9507 5
      vertex 0 -9 0
      vertex -0.940756 -8.9507 0
    endloop
  endfacet
  facet normal 0.99863 -0.0523329 0
    outer loop
      vertex -9 0 5
      vertex -8.9507 0.940756 0
      vertex -8.9507 0.940756 5
    endloop
  endfacet
  facet normal 0.99863 -0.0523329 0
    outer loop
      vertex -8.9507 0.940756 0
      vertex -9 0 5
      vertex -9 0 0
    endloop
  endfacet
  facet normal -0.707107 0.707107 0
    outer loop
      vertex 6.02217 -6.6883 0
      vertex 6.6883 -6.02217 5
      vertex 6.6883 -6.02217 0
    endloop
  endfacet
  facet normal -0.707107 0.707107 0
    outer loop
      vertex 6.6883 -6.02217 5
      vertex 6.02217 -6.6883 0
      vertex 6.02217 -6.6883 5
    endloop
  endfacet
  facet normal 0.0995037 -0.995037 0
    outer loop
      vertex 9.94786 0.994786 0
      vertex 20 2 5
      vertex 9.94786 0.994786 5
    endloop
  endfacet
  facet normal 0.0995037 -0.995037 0
    outer loop
      vertex 20 2 5
      vertex 9.94786 0.994786 0
      vertex 20 2 0
    endloop
  endfacet
  facet normal 0.0995037 -0.995037 0
    outer loop
      vertex 0 0 0
      vertex 8.95308 0.895308 5
      vertex 0 0 5
    endloop
  endfacet
  facet normal 0.0995037 -0.995037 0
    outer loop
      vertex 8.95308 0.895308 5
      vertex 0 0 0
      vertex 8.95308 0.895308 0
    endloop
  endfacet
  facet normal -0.196097 0.980584 0
    outer loop
      vertex 10 2 0
      vertex 9.80033 1.96007 5
      vertex 10 2 5
    endloop
  endfacet
  facet normal -0.196097 0.980584 0
    outer loop
      vertex 9.80033 1.96007 5
      vertex 10 2 0
      vertex 9.80033 1.96007 0
    endloop
  endfacet
  facet normal -0.196116 0.980581 0
    outer loop
      vertex 8.8203 1.76406 0
      vertex 0 0 5
      vertex 8.8203 1.76406 5
    endloop
  endfacet
  facet normal -0.196116 0.980581 0
    outer loop
      vertex 0 0 5
      vertex 8.8203 1.76406 0
      vertex 0 0 0
    endloop
  endfacet
  facet normal 0 1 -0
    outer loop
      vertex 20 2 0
      vertex 10 2 5
      vertex 20 2 5
    endloop
  endfacet
  facet normal 0 1 0
    outer loop
      vertex 10 2 5
      vertex 20 2 0
      vertex 10 2 0
    endloop
  endfacet
endsolid OpenSCAD_Model
