solid OpenSCAD_Model
  facet normal 1 -0 0
    outer loop
      vertex 20 0 5
      vertex 20 80 0
      vertex 20 80 5
    endloop
  endfacet
  facet normal 1 0 0
    outer loop
      vertex 20 80 0
      vertex 20 0 5
      vertex 20 0 0
    endloop
  endfacet
  facet normal -0 0 1
    outer loop
      vertex 0 80 5
      vertex 20 0 5
      vertex 20 80 5
    endloop
  endfacet
  facet normal 0 0 1
    outer loop
      vertex 20 0 5
      vertex 0 80 5
      vertex 0 0 5
    endloop
  endfacet
  facet normal 0 0 -1
    outer loop
      vertex 20 0 0
      vertex 15 5 0
      vertex 20 80 0
    endloop
  endfacet
  facet normal 0 0 -1
    outer loop
      vertex 20 0 0
      vertex 5 5 0
      vertex 15 5 0
    endloop
  endfacet
  facet normal -0 0 -1
    outer loop
      vertex 5 5 0
      vertex 0 0 0
      vertex 5 75 0
    endloop
  endfacet
  facet normal 0 0 -1
    outer loop
      vertex 0 0 0
      vertex 5 5 0
      vertex 20 0 0
    endloop
  endfacet
  facet normal 0 0 -1
    outer loop
      vertex 15 75 0
      vertex 20 80 0
      vertex 15 5 0
    endloop
  endfacet
  facet normal 0 0 -1
    outer loop
      vertex 5 75 0
      vertex 20 80 0
      vertex 15 75 0
    endloop
  endfacet
  facet normal 0 0 -1
    outer loop
      vertex 5 75 0
      vertex 0 80 0
      vertex 20 80 0
    endloop
  endfacet
  facet normal 0 0 -1
    outer loop
      vertex 0 80 0
      vertex 5 75 0
      vertex 0 0 0
    endloop
  endfacet
  facet normal -1 0 0
    outer loop
      vertex 0 0 0
      vertex 0 80 1
      vertex 0 80 0
    endloop
  endfacet
  facet normal -1 0 0
    outer loop
      vertex 0 0 5
      vertex 0 80 1
      vertex 0 0 0
    endloop
  endfacet
  facet normal -1 0 0
    outer loop
      vertex 0 80 1
      vertex 0 0 5
      vertex 0 80 5
    endloop
  endfacet
  facet normal 0 1 0
    outer loop
      vertex 20 80 5
      vertex 0 80 1
      vertex 0 80 5
    endloop
  endfacet
  facet normal 0 1 -0
    outer loop
      vertex 20 80 0
      vertex 0 80 1
      vertex 20 80 5
    endloop
  endfacet
  facet normal 0 1 0
    outer loop
      vertex 0 80 1
      vertex 20 80 0
      vertex 0 80 0
    endloop
  endfacet
  facet normal 0 -1 0
    outer loop
      vertex 0 0 0
      vertex 20 0 5
      vertex 0 0 5
    endloop
  endfacet
  facet normal 0 -1 -0
    outer loop
      vertex 20 0 5
      vertex 0 0 0
      vertex 20 0 0
    endloop
  endfacet
  facet normal -1 0 0
    outer loop
      vertex 15 5 0
      vertex 15 75 4
      vertex 15 75 0
    endloop
  endfacet
  facet normal -1 -0 0
    outer loop
      vertex 15 75 4
      vertex 15 5 0
      vertex 15 5 4
    endloop
  endfacet
  facet normal 0 0 -1
    outer loop
      vertex 5 5 4
      vertex 15 75 4
      vertex 15 5 4
    endloop
  endfacet
  facet normal -0 0 -1
    outer loop
      vertex 15 75 4
      vertex 5 5 4
      vertex 5 75 4
    endloop
  endfacet
  facet normal 1 -0 0
    outer loop
      vertex 5 5 4
      vertex 5 75 0
      vertex 5 75 4
    endloop
  endfacet
  facet normal 1 0 0
    outer loop
      vertex 5 75 0
      vertex 5 5 4
      vertex 5 5 0
    endloop
  endfacet
  facet normal 0 -1 0
    outer loop
      vertex 5 75 0
      vertex 15 75 4
      vertex 5 75 4
    endloop
  endfacet
  facet normal 0 -1 -0
    outer loop
      vertex 15 75 4
      vertex 5 75 0
      vertex 15 75 0
    endloop
  endfacet
  facet normal 0 1 -0
    outer loop
      vertex 15 5 0
      vertex 5 5 4
      vertex 15 5 4
    endloop
  endfacet
  facet normal 0 1 0
    outer loop
      vertex 5 5 4
      vertex 15 5 0
      vertex 5 5 0
    endloop
  endfacet
  facet normal 0.932663 0.360748 0
    outer loop
      vertex 93.9693 114.202 1
      vertex 84.9489 137.523 0
      vertex 84.9489 137.523 1
    endloop
  endfacet
  facet normal 0.932663 0.360748 0
    outer loop
      vertex 84.9489 137.523 0
      vertex 93.9693 114.202 1
      vertex 93.9693 114.202 0
    endloop
  endfacet
  facet normal -0.939691 -0.342024 0
    outer loop
      vertex 0 80 0
      vertex -8.5505 103.492 1
      vertex -8.5505 103.492 0
    endloop
  endfacet
  facet normal -0.939691 -0.342024 0
    outer loop
      vertex -8.5505 103.492 1
      vertex 0 80 0
      vertex 0 80 1
    endloop
  endfacet
  facet normal 0.34202 -0.939693 0
    outer loop
      vertex 0 80 0
      vertex 93.9693 114.202 1
      vertex 0 80 1
    endloop
  endfacet
  facet normal 0.34202 -0.939693 0
    outer loop
      vertex 93.9693 114.202 1
      vertex 0 80 0
      vertex 93.9693 114.202 0
    endloop
  endfacet
  facet normal -0.34202 0.939693 0
    outer loop
      vertex 84.9489 137.523 0
      vertex -8.5505 103.492 1
      vertex 84.9489 137.523 1
    endloop
  endfacet
  facet normal -0.34202 0.939693 0
    outer loop
      vertex -8.5505 103.492 1
      vertex 84.9489 137.523 0
      vertex -8.5505 103.492 0
    endloop
  endfacet
  facet normal 0 0 1
    outer loop
      vertex 84.9489 137.523 1
      vertex 0 80 1
      vertex 93.9693 114.202 1
    endloop
  endfacet
  facet normal 0 -0 1
    outer loop
      vertex 0 80 1
      vertex 84.9489 137.523 1
      vertex -8.5505 103.492 1
    endloop
  endfacet
  facet normal 0 0 -1
    outer loop
      vertex 0 80 0
      vertex 84.9489 137.523 0
      vertex 93.9693 114.202 0
    endloop
  endfacet
  facet normal 0 0 -1
    outer loop
      vertex 84.9489 137.523 0
      vertex 0 80 0
      vertex -8.5505 103.492 0
    endloop
  endfacet
endsolid OpenSCAD_Model
