solid OpenSCAD_Model
  facet normal 0.996195 0.0871544 0
    outer loop
      vertex 10 0 20
      vertex 9.84808 1.73648 0
      vertex 9.84808 1.73648 20
    endloop
  endfacet
  facet normal 0.996195 0.0871544 0
    outer loop
      vertex 9.84808 1.73648 0
      vertex 10 0 20
      vertex 10 0 0
    endloop
  endfacet
  facet normal 0.965926 0.258818 0
    outer loop
      vertex 9.84808 1.73648 20
      vertex 9.39693 3.4202 0
      vertex 9.39693 3.4202 20
    endloop
  endfacet
  facet normal 0.965926 0.258818 0
    outer loop
      vertex 9.39693 3.4202 0
      vertex 9.84808 1.73648 20
      vertex 9.84808 1.73648 0
    endloop
  endfacet
  facet normal 0.906306 0.422622 0
    outer loop
      vertex 9.39693 3.4202 20
      vertex 8.66025 5 0
      vertex 8.66025 5 20
    endloop
  endfacet
  facet normal 0.906306 0.422622 0
    outer loop
      vertex 8.66025 5 0
      vertex 9.39693 3.4202 20
      vertex 9.39693 3.4202 0
    endloop
  endfacet
  facet normal 0.819153 0.573576 0
    outer loop
      vertex 8.66025 5 20
      vertex 7.66044 6.42788 0
      vertex 7.66044 6.42788 20
    endloop
  endfacet
  facet normal 0.819153 0.573576 0
    outer loop
      vertex 7.66044 6.42788 0
      vertex 8.66025 5 20
      vertex 8.66025 5 0
    endloop
  endfacet
  facet normal 0.707107 0.707107 0
    outer loop
      vertex 7.66044 6.42788 20
      vertex 6.42788 7.66044 0
      vertex 6.42788 7.66044 20
    endloop
  endfacet
  facet normal 0.707107 0.707107 0
    outer loop
      vertex 6.42788 7.66044 0
      vertex 7.66044 6.42788 20
      vertex 7.66044 6.42788 0
    endloop
  endfacet
  facet normal 0.573576 0.819153 -0
    outer loop
      vertex 6.42788 7.66044 0
      vertex 5 8.66025 20
      vertex 6.42788 7.66044 20
    endloop
  endfacet
  facet normal 0.573576 0.819153 0
    outer loop
      vertex 5 8.66025 20
      vertex 6.42788 7.66044 0
      vertex 5 8.66025 0
    endloop
  endfacet
  facet normal 0.422622 0.906306 -0
    outer loop
      vertex 5 8.66025 0
      vertex 3.4202 9.39693 20
      vertex 5 8.66025 20
    endloop
  endfacet
  facet normal 0.422622 0.906306 0
    outer loop
      vertex 3.4202 9.39693 20
      vertex 5 8.66025 0
      vertex 3.4202 9.39693 0
    endloop
  endfacet
  facet normal 0.258818 0.965926 -0
    outer loop
      vertex 3.4202 9.39693 0
      vertex 1.73648 9.84808 20
      vertex 3.4202 9.39693 20
    endloop
  endfacet
  facet normal 0.258818 0.965926 0
    outer loop
      vertex 1.73648 9.84808 20
      vertex 3.4202 9.39693 0
      vertex 1.73648 9.84808 0
    endloop
  endfacet
  facet normal 0.0871544 0.996195 -0
    outer loop
      vertex 1.73648 9.84808 0
      vertex 0 10 20
      vertex 1.73648 9.84808 20
    endloop
  endfacet
  facet normal 0.0871544 0.996195 0
    outer loop
      vertex 0 10 20
      vertex 1.73648 9.84808 0
      vertex 0 10 0
    endloop
  endfacet
  facet normal -0.0871544 0.996195 0
    outer loop
      vertex 0 10 0
      vertex -1.73648 9.84808 20
      vertex 0 10 20
    endloop
  endfacet
  facet normal -0.0871544 0.996195 0
    outer loop
      vertex -1.73648 9.84808 20
      vertex 0 10 0
      vertex -1.73648 9.84808 0
    endloop
  endfacet
  facet normal -0.258818 0.965926 0
    outer loop
      vertex -1.73648 9.84808 0
      vertex -3.4202 9.39693 20
      vertex -1.73648 9.84808 20
    endloop
  endfacet
  facet normal -0.258818 0.965926 0
    outer loop
      vertex -3.4202 9.39693 20
      vertex -1.73648 9.84808 0
      vertex -3.4202 9.39693 0
    endloop
  endfacet
  facet normal -0.422622 0.906306 0
    outer loop
      vertex -3.4202 9.39693 0
      vertex -5 8.66025 20
      vertex -3.4202 9.39693 20
    endloop
  endfacet
  facet normal -0.422622 0.906306 0
    outer loop
      vertex -5 8.66025 20
      vertex -3.4202 9.39693 0
      vertex -5 8.66025 0
    endloop
  endfacet
  facet normal -0.573576 0.819153 0
    outer loop
      vertex -5 8.66025 0
      vertex -6.42788 7.66044 20
      vertex -5 8.66025 20
    endloop
  endfacet
  facet normal -0.573576 0.819153 0
    outer loop
      vertex -6.42788 7.66044 20
      vertex -5 8.66025 0
      vertex -6.42788 7.66044 0
    endloop
  endfacet
  facet normal -0.707107 0.707107 0
    outer loop
      vertex -7.66044 6.42788 0
      vertex -6.42788 7.66044 20
      vertex -6.42788 7.66044 0
    endloop
  endfacet
  facet normal -0.707107 0.707107 0
    outer loop
      vertex -6.42788 7.66044 20
      vertex -7.66044 6.42788 0
      vertex -7.66044 6.42788 20
    endloop
  endfacet
  facet normal -0.819153 0.573576 0
    outer loop
      vertex -8.66025 5 0
      vertex -7.66044 6.42788 20
      vertex -7.66044 6.42788 0
    endloop
  endfacet
  facet normal -0.819153 0.573576 0
    outer loop
      vertex -7.66044 6.42788 20
      vertex -8.66025 5 0
      vertex -8.66025 5 20
    endloop
  endfacet
  facet normal -0.906306 0.422622 0
    outer loop
      vertex -9.39693 3.4202 0
      vertex -8.66025 5 20
      vertex -8.66025 5 0
    endloop
  endfacet
  facet normal -0.906306 0.422622 0
    outer loop
      vertex -8.66025 5 20
      vertex -9.39693 3.4202 0
      vertex -9.39693 3.4202 20
    endloop
  endfacet
  facet normal -0.965926 0.258818 0
    outer loop
      vertex -9.84808 1.73648 0
      vertex -9.39693 3.4202 20
      vertex -9.39693 3.4202 0
    endloop
  endfacet
  facet normal -0.965926 0.258818 0
    outer loop
      vertex -9.39693 3.4202 20
      vertex -9.84808 1.73648 0
      vertex -9.84808 1.73648 20
    endloop
  endfacet
  facet normal -0.996195 0.0871544 0
    outer loop
      vertex -10 -0 0
      vertex -9.84808 1.73648 20
      vertex -9.84808 1.73648 0
    endloop
  endfacet
  facet normal -0.996195 0.0871544 0
    outer loop
      vertex -9.84808 1.73648 20
      vertex -10 -0 0
      vertex -10 -0 20
    endloop
  endfacet
  facet normal -0.996195 -0.0871544 0
    outer loop
      vertex -9.84808 -1.73648 0
      vertex -10 -0 20
      vertex -10 -0 0
    endloop
  endfacet
  facet normal -0.996195 -0.0871544 0
    outer loop
      vertex -10 -0 20
      vertex -9.84808 -1.73648 0
      vertex -9.84808 -1.73648 20
    endloop
  endfacet
  facet normal -0.965926 -0.258818 0
    outer loop
      vertex -9.39693 -3.4202 0
      vertex -9.84808 -1.73648 20
      vertex -9.84808 -1.73648 0
    endloop
  endfacet
  facet normal -0.965926 -0.258818 0
    outer loop
      vertex -9.84808 -1.73648 20
      vertex -9.39693 -3.4202 0
      vertex -9.39693 -3.4202 20
    endloop
  endfacet
  facet normal -0.906306 -0.422622 0
    outer loop
      vertex -8.66025 -5 0
      vertex -9.39693 -3.4202 20
      vertex -9.39693 -3.4202 0
    endloop
  endfacet
  facet normal -0.906306 -0.422622 0
    outer loop
      vertex -9.39693 -3.4202 20
      vertex -8.66025 -5 0
      vertex -8.66025 -5 20
    endloop
  endfacet
  facet normal -0.819153 -0.573576 0
    outer loop
      vertex -7.66044 -6.42788 0
      vertex -8.66025 -5 20
      vertex -8.66025 -5 0
    endloop
  endfacet
  facet normal -0.819153 -0.573576 0
    outer loop
      vertex -8.66025 -5 20
      vertex -7.66044 -6.42788 0
      vertex -7.66044 -6.42788 20
    endloop
  endfacet
  facet normal -0.707107 -0.707107 0
    outer loop
      vertex -6.42788 -7.66044 0
      vertex -7.66044 -6.42788 20
      vertex -7.66044 -6.42788 0
    endloop
  endfacet
  facet normal -0.707107 -0.707107 0
    outer loop
      vertex -7.66044 -6.42788 20
      vertex -6.42788 -7.66044 0
      vertex -6.42788 -7.66044 20
    endloop
  endfacet
  facet normal -0.573576 -0.819153 0
    outer loop
      vertex -6.42788 -7.66044 0
      vertex -5 -8.66025 20
      vertex -6.42788 -7.66044 20
    endloop
  endfacet
  facet normal -0.573576 -0.819153 -0
    outer loop
      vertex -5 -8.66025 20
      vertex -6.42788 -7.66044 0
      vertex -5 -8.66025 0
    endloop
  endfacet
  facet normal -0.422622 -0.906306 0
    outer loop
      vertex -5 -8.66025 0
      vertex -3.4202 -9.39693 20
      vertex -5 -8.66025 20
    endloop
  endfacet
  facet normal -0.422622 -0.906306 -0
    outer loop
      vertex -3.4202 -9.39693 20
      vertex -5 -8.66025 0
      vertex -3.4202 -9.39693 0
    endloop
  endfacet
  facet normal -0.258818 -0.965926 0
    outer loop
      vertex -3.4202 -9.39693 0
      vertex -1.73648 -9.84808 20
      vertex -3.4202 -9.39693 20
    endloop
  endfacet
  facet normal -0.258818 -0.965926 -0
    outer loop
      vertex -1.73648 -9.84808 20
      vertex -3.4202 -9.39693 0
      vertex -1.73648 -9.84808 0
    endloop
  endfacet
  facet normal -0.0871544 -0.996195 0
    outer loop
      vertex -1.73648 -9.84808 0
      vertex -0 -10 20
      vertex -1.73648 -9.84808 20
    endloop
  endfacet
  facet normal -0.0871544 -0.996195 -0
    outer loop
      vertex -0 -10 20
      vertex -1.73648 -9.84808 0
      vertex -0 -10 0
    endloop
  endfacet
  facet normal 0.0871544 -0.996195 0
    outer loop
      vertex -0 -10 0
      vertex 1.73648 -9.84808 20
      vertex -0 -10 20
    endloop
  endfacet
  facet normal 0.0871544 -0.996195 0
    outer loop
      vertex 1.73648 -9.84808 20
      vertex -0 -10 0
      vertex 1.73648 -9.84808 0
    endloop
  endfacet
  facet normal 0.258818 -0.965926 0
    outer loop
      vertex 1.73648 -9.84808 0
      vertex 3.4202 -9.39693 20
      vertex 1.73648 -9.84808 20
    endloop
  endfacet
  facet normal 0.258818 -0.965926 0
    outer loop
      vertex 3.4202 -9.39693 20
      vertex 1.73648 -9.84808 0
      vertex 3.4202 -9.39693 0
    endloop
  endfacet
  facet normal 0.422622 -0.906306 0
    outer loop
      vertex 3.4202 -9.39693 0
      vertex 5 -8.66025 20
      vertex 3.4202 -9.39693 20
    endloop
  endfacet
  facet normal 0.422622 -0.906306 0
    outer loop
      vertex 5 -8.66025 20
      vertex 3.4202 -9.39693 0
      vertex 5 -8.66025 0
    endloop
  endfacet
  facet normal 0.573576 -0.819153 0
    outer loop
      vertex 5 -8.66025 0
      vertex 6.42788 -7.66044 20
      vertex 5 -8.66025 20
    endloop
  endfacet
  facet normal 0.573576 -0.819153 0
    outer loop
      vertex 6.42788 -7.66044 20
      vertex 5 -8.66025 0
      vertex 6.42788 -7.66044 0
    endloop
  endfacet
  facet normal 0.707107 -0.707107 0
    outer loop
      vertex 6.42788 -7.66044 20
      vertex 7.66044 -6.42788 0
      vertex 7.66044 -6.42788 20
    endloop
  endfacet
  facet normal 0.707107 -0.707107 0
    outer loop
      vertex 7.66044 -6.42788 0
      vertex 6.42788 -7.66044 20
      vertex 6.42788 -7.66044 0
    endloop
  endfacet
  facet normal 0.819153 -0.573576 0
    outer loop
      vertex 7.66044 -6.42788 20
      vertex 8.66025 -5 0
      vertex 8.66025 -5 20
    endloop
  endfacet
  facet normal 0.819153 -0.573576 0
    outer loop
      vertex 8.66025 -5 0
      vertex 7.66044 -6.42788 20
      vertex 7.66044 -6.42788 0
    endloop
  endfacet
  facet normal 0.906306 -0.422622 0
    outer loop
      vertex 8.66025 -5 20
      vertex 9.39693 -3.4202 0
      vertex 9.39693 -3.4202 20
    endloop
  endfacet
  facet normal 0.906306 -0.422622 0
    outer loop
      vertex 9.39693 -3.4202 0
      vertex 8.66025 -5 20
      vertex 8.66025 -5 0
    endloop
  endfacet
  facet normal 0.965926 -0.258818 0
    outer loop
      vertex 9.39693 -3.4202 20
      vertex 9.84808 -1.73648 0
      vertex 9.84808 -1.73648 20
    endloop
  endfacet
  facet normal 0.965926 -0.258818 0
    outer loop
      vertex 9.84808 -1.73648 0
      vertex 9.39693 -3.4202 20
      vertex 9.39693 -3.4202 0
    endloop
  endfacet
  facet normal 0.996195 -0.0871544 0
    outer loop
      vertex 9.84808 -1.73648 20
      vertex 10 0 0
      vertex 10 0 20
    endloop
  endfacet
  facet normal 0.996195 -0.0871544 0
    outer loop
      vertex 10 0 0
      vertex 9.84808 -1.73648 20
      vertex 9.84808 -1.73648 0
    endloop
  endfacet
  facet normal 0 0 -1
    outer loop
      vertex 9.84808 -1.73648 0
      vertex 9.84808 1.73648 0
      vertex 10 0 0
    endloop
  endfacet
  facet normal 0 0 -1
    outer loop
      vertex 9.39693 -3.4202 0
      vertex 9.84808 1.73648 0
      vertex 9.84808 -1.73648 0
    endloop
  endfacet
  facet normal 0 0 -1
    outer loop
      vertex 9.39693 -3.4202 0
      vertex 9.39693 3.4202 0
      vertex 9.84808 1.73648 0
    endloop
  endfacet
  facet normal 0 0 -1
    outer loop
      vertex 8.66025 -5 0
      vertex 9.39693 3.4202 0
      vertex 9.39693 -3.4202 0
    endloop
  endfacet
  facet normal 0 0 -1
    outer loop
      vertex 8.66025 -5 0
      vertex 8.66025 5 0
      vertex 9.39693 3.4202 0
    endloop
  endfacet
  facet normal 0 0 -1
    outer loop
      vertex 7.66044 -6.42788 0
      vertex 8.66025 5 0
      vertex 8.66025 -5 0
    endloop
  endfacet
  facet normal 0 0 -1
    outer loop
      vertex 7.66044 -6.42788 0
      vertex 7.66044 6.42788 0
      vertex 8.66025 5 0
    endloop
  endfacet
  facet normal 0 0 -1
    outer loop
      vertex 6.42788 -7.66044 0
      vertex 7.66044 6.42788 0
      vertex 7.66044 -6.42788 0
    endloop
  endfacet
  facet normal 0 0 -1
    outer loop
      vertex 6.42788 -7.66044 0
      vertex 6.42788 7.66044 0
      vertex 7.66044 6.42788 0
    endloop
  endfacet
  facet normal 0 0 -1
    outer loop
      vertex 5 -8.66025 0
      vertex 6.42788 7.66044 0
      vertex 6.42788 -7.66044 0
    endloop
  endfacet
  facet normal 0 0 -1
    outer loop
      vertex 5 -8.66025 0
      vertex 5 8.66025 0
      vertex 6.42788 7.66044 0
    endloop
  endfacet
  facet normal 0 0 -1
    outer loop
      vertex 3.4202 -9.39693 0
      vertex 5 8.66025 0
      vertex 5 -8.66025 0
    endloop
  endfacet
  facet normal 0 0 -1
    outer loop
      vertex 3.4202 -9.39693 0
      vertex 3.4202 9.39693 0
      vertex 5 8.66025 0
    endloop
  endfacet
  facet normal 0 0 -1
    outer loop
      vertex 1.73648 -9.84808 0
      vertex 3.4202 9.39693 0
      vertex 3.4202 -9.39693 0
    endloop
  endfacet
  facet normal 0 0 -1
    outer loop
      vertex 1.73648 -9.84808 0
      vertex 1.73648 9.84808 0
      vertex 3.4202 9.39693 0
    endloop
  endfacet
  facet normal 0 0 -1
    outer loop
      vertex -0 -10 0
      vertex 1.73648 9.84808 0
      vertex 1.73648 -9.84808 0
    endloop
  endfacet
  facet normal 0 0 -1
    outer loop
      vertex -0 -10 0
      vertex 0 10 0
      vertex 1.73648 9.84808 0
    endloop
  endfacet
  facet normal 0 0 -1
    outer loop
      vertex -1.73648 -9.84808 0
      vertex 0 10 0
      vertex -0 -10 0
    endloop
  endfacet
  facet normal 0 0 -1
    outer loop
      vertex -1.73648 -9.84808 0
      vertex -1.73648 9.84808 0
      vertex 0 10 0
    endloop
  endfacet
  facet normal 0 0 -1
    outer loop
      vertex -3.4202 -9.39693 0
      vertex -1.73648 9.84808 0
      vertex -1.73648 -9.84808 0
    endloop
  endfacet
  facet normal 0 0 -1
    outer loop
      vertex -3.4202 -9.39693 0
      vertex -3.4202 9.39693 0
      vertex -1.73648 9.84808 0
    endloop
  endfacet
  facet normal 0 0 -1
    outer loop
      vertex -5 -8.66025 0
      vertex -3.4202 9.39693 0
      vertex -3.4202 -9.39693 0
    endloop
  endfacet
  facet normal 0 0 -1
    outer loop
      vertex -5 -8.66025 0
      vertex -5 8.66025 0
      vertex -3.4202 9.39693 0
    endloop
  endfacet
  facet normal 0 0 -1
    outer loop
      vertex -6.42788 -7.66044 0
      vertex -5 8.66025 0
      vertex -5 -8.66025 0
    endloop
  endfacet
  facet normal 0 0 -1
    outer loop
      vertex -6.42788 -7.66044 0
      vertex -6.42788 7.66044 0
      vertex -5 8.66025 0
    endloop
  endfacet
  facet normal 0 0 -1
    outer loop
      vertex -7.66044 -6.42788 0
      vertex -6.42788 7.66044 0
      vertex -6.42788 -7.66044 0
    endloop
  endfacet
  facet normal 0 0 -1
    outer loop
      vertex -7.66044 -6.42788 0
      vertex -7.66044 6.42788 0
      vertex -6.42788 7.66044 0
    endloop
  endfacet
  facet normal 0 0 -1
    outer loop
      vertex -8.66025 -5 0
      vertex -7.66044 6.42788 0
      vertex -7.66044 -6.42788 0
    endloop
  endfacet
  facet normal 0 0 -1
    outer loop
      vertex -8.66025 -5 0
      vertex -8.66025 5 0
      vertex -7.66044 6.42788 0
    endloop
  endfacet
  facet normal 0 0 -1
    outer loop
      vertex -9.39693 -3.4202 0
      vertex -8.66025 5 0
      vertex -8.66025 -5 0
    endloop
  endfacet
  facet normal 0 0 -1
    outer loop
      vertex -9.39693 -3.4202 0
      vertex -9.39693 3.4202 0
      vertex -8.66025 5 0
    endloop
  endfacet
  facet normal 0 0 -1
    outer loop
      vertex -9.84808 -1.73648 0
      vertex -9.39693 3.4202 0
      vertex -9.39693 -3.4202 0
    endloop
  endfacet
  facet normal 0 0 -1
    outer loop
      vertex -9.84808 -1.73648 0
      vertex -9.84808 1.73648 0
      vertex -9.39693 3.4202 0
    endloop
  endfacet
  facet normal 0 -0 -1
    outer loop
      vertex -9.84808 1.73648 0
      vertex -9.84808 -1.73648 0
      vertex -10 -0 0
    endloop
  endfacet
  facet normal 0 0 1
    outer loop
      vertex 9.84808 1.73648 20
      vertex 9.84808 -1.73648 20
      vertex 10 0 20
    endloop
  endfacet
  facet normal 0 0 1
    outer loop
      vertex 9.39693 3.4202 20
      vertex 9.84808 -1.73648 20
      vertex 9.84808 1.73648 20
    endloop
  endfacet
  facet normal 0 0 1
    outer loop
      vertex 9.39693 3.4202 20
      vertex 9.39693 -3.4202 20
      vertex 9.84808 -1.73648 20
    endloop
  endfacet
  facet normal 0 0 1
    outer loop
      vertex 8.66025 5 20
      vertex 9.39693 -3.4202 20
      vertex 9.39693 3.4202 20
    endloop
  endfacet
  facet normal 0 0 1
    outer loop
      vertex 8.66025 5 20
      vertex 8.66025 -5 20
      vertex 9.39693 -3.4202 20
    endloop
  endfacet
  facet normal 0 0 1
    outer loop
      vertex 7.66044 6.42788 20
      vertex 8.66025 -5 20
      vertex 8.66025 5 20
    endloop
  endfacet
  facet normal 0 0 1
    outer loop
      vertex 7.66044 6.42788 20
      vertex 7.66044 -6.42788 20
      vertex 8.66025 -5 20
    endloop
  endfacet
  facet normal 0 0 1
    outer loop
      vertex 6.42788 7.66044 20
      vertex 7.66044 -6.42788 20
      vertex 7.66044 6.42788 20
    endloop
  endfacet
  facet normal 0 0 1
    outer loop
      vertex 6.42788 7.66044 20
      vertex 6.42788 -7.66044 20
      vertex 7.66044 -6.42788 20
    endloop
  endfacet
  facet normal 0 0 1
    outer loop
      vertex 5 8.66025 20
      vertex 6.42788 -7.66044 20
      vertex 6.42788 7.66044 20
    endloop
  endfacet
  facet normal 0 0 1
    outer loop
      vertex 5 8.66025 20
      vertex 5 -8.66025 20
      vertex 6.42788 -7.66044 20
    endloop
  endfacet
  facet normal 0 0 1
    outer loop
      vertex 3.4202 9.39693 20
      vertex 5 -8.66025 20
      vertex 5 8.66025 20
    endloop
  endfacet
  facet normal 0 0 1
    outer loop
      vertex 3.4202 9.39693 20
      vertex 3.4202 -9.39693 20
      vertex 5 -8.66025 20
    endloop
  endfacet
  facet normal 0 0 1
    outer loop
      vertex 1.73648 9.84808 20
      vertex 3.4202 -9.39693 20
      vertex 3.4202 9.39693 20
    endloop
  endfacet
  facet normal 0 0 1
    outer loop
      vertex 1.73648 9.84808 20
      vertex 1.73648 -9.84808 20
      vertex 3.4202 -9.39693 20
    endloop
  endfacet
  facet normal 0 0 1
    outer loop
      vertex 0 10 20
      vertex 1.73648 -9.84808 20
      vertex 1.73648 9.84808 20
    endloop
  endfacet
  facet normal 0 0 1
    outer loop
      vertex 0 10 20
      vertex -0 -10 20
      vertex 1.73648 -9.84808 20
    endloop
  endfacet
  facet normal -0 0 1
    outer loop
      vertex -1.73648 9.84808 20
      vertex -0 -10 20
      vertex 0 10 20
    endloop
  endfacet
  facet normal 0 0 1
    outer loop
      vertex -1.73648 9.84808 20
      vertex -1.73648 -9.84808 20
      vertex -0 -10 20
    endloop
  endfacet
  facet normal -0 0 1
    outer loop
      vertex -3.4202 9.39693 20
      vertex -1.73648 -9.84808 20
      vertex -1.73648 9.84808 20
    endloop
  endfacet
  facet normal 0 0 1
    outer loop
      vertex -3.4202 9.39693 20
      vertex -3.4202 -9.39693 20
      vertex -1.73648 -9.84808 20
    endloop
  endfacet
  facet normal -0 0 1
    outer loop
      vertex -5 8.66025 20
      vertex -3.4202 -9.39693 20
      vertex -3.4202 9.39693 20
    endloop
  endfacet
  facet normal 0 0 1
    outer loop
      vertex -5 8.66025 20
      vertex -5 -8.66025 20
      vertex -3.4202 -9.39693 20
    endloop
  endfacet
  facet normal -0 0 1
    outer loop
      vertex -6.42788 7.66044 20
      vertex -5 -8.66025 20
      vertex -5 8.66025 20
    endloop
  endfacet
  facet normal 0 0 1
    outer loop
      vertex -6.42788 7.66044 20
      vertex -6.42788 -7.66044 20
      vertex -5 -8.66025 20
    endloop
  endfacet
  facet normal -0 0 1
    outer loop
      vertex -7.66044 6.42788 20
      vertex -6.42788 -7.66044 20
      vertex -6.42788 7.66044 20
    endloop
  endfacet
  facet normal 0 0 1
    outer loop
      vertex -7.66044 6.42788 20
      vertex -7.66044 -6.42788 20
      vertex -6.42788 -7.66044 20
    endloop
  endfacet
  facet normal -0 0 1
    outer loop
      vertex -8.66025 5 20
      vertex -7.66044 -6.42788 20
      vertex -7.66044 6.42788 20
    endloop
  endfacet
  facet normal 0 0 1
    outer loop
      vertex -8.66025 5 20
      vertex -8.66025 -5 20
      vertex -7.66044 -6.42788 20
    endloop
  endfacet
  facet normal -0 0 1
    outer loop
      vertex -9.39693 3.4202 20
      vertex -8.66025 -5 20
      vertex -8.66025 5 20
    endloop
  endfacet
  facet normal 0 0 1
    outer loop
      vertex -9.39693 3.4202 20
      vertex -9.39693 -3.4202 20
      vertex -8.66025 -5 20
    endloop
  endfacet
  facet normal -0 0 1
    outer loop
      vertex -9.84808 1.73648 20
      vertex -9.39693 -3.4202 20
      vertex -9.39693 3.4202 20
    endloop
  endfacet
  facet normal 0 0 1
    outer loop
      vertex -9.84808 1.73648 20
      vertex -9.84808 -1.73648 20
      vertex -9.39693 -3.4202 20
    endloop
  endfacet
  facet normal 0 -0 1
    outer loop
      vertex -9.84808 -1.73648 20
      vertex -9.84808 1.73648 20
      vertex -10 -0 20
    endloop
  endfacet
endsolid OpenSCAD_Model
