solid OpenSCAD_Model
  facet normal 0.732994 -0.532565 -0.423195
    outer loop
      vertex 13.5 0 0
      vertex 12.809 -0.951056 0
      vertex 13 0 -0.866025
    endloop
  endfacet
  facet normal 0.732994 -0.532565 0.423195
    outer loop
      vertex 13 0 0.866025
      vertex 12.809 -0.951056 0
      vertex 13.5 0 0
    endloop
  endfacet
  facet normal -0.906041 0 0.42319
    outer loop
      vertex -13.309 0.587785 0
      vertex -12.9045 -0.293892 0.866025
      vertex -12.9045 0.293892 0.866025
    endloop
  endfacet
  facet normal -0.906041 0 0.42319
    outer loop
      vertex -12.9045 -0.293892 0.866025
      vertex -13.309 0.587785 0
      vertex -13.309 -0.587785 0
    endloop
  endfacet
  facet normal 0.732994 0.532565 -0.423195
    outer loop
      vertex 13 0 -0.866025
      vertex 12.809 0.951056 0
      vertex 13.5 0 0
    endloop
  endfacet
  facet normal 0 0.876552 -0.481308
    outer loop
      vertex 12.6545 0.475528 -0.866025
      vertex 3 0.951056 0
      vertex 12.809 0.951056 0
    endloop
  endfacet
  facet normal 0 0.876552 -0.481308
    outer loop
      vertex 3 0.951056 0
      vertex 12.6545 0.475528 -0.866025
      vertex 0 0.951056 0
    endloop
  endfacet
  facet normal 0 0.876552 -0.481308
    outer loop
      vertex -12.3455 0.475528 -0.866025
      vertex 0 0.951056 0
      vertex 12.6545 0.475528 -0.866025
    endloop
  endfacet
  facet normal 0 0.876552 -0.481308
    outer loop
      vertex 0 0.951056 0
      vertex -12.3455 0.475528 -0.866025
      vertex -12.191 0.951056 0
    endloop
  endfacet
  facet normal -0.279988 -0.86169 -0.423198
    outer loop
      vertex -12.191 -0.951056 0
      vertex -13.309 -0.587785 0
      vertex -12.3455 -0.475528 -0.866025
    endloop
  endfacet
  facet normal 0.732994 0.532565 0.423195
    outer loop
      vertex 13.5 0 0
      vertex 12.809 0.951056 0
      vertex 13 0 0.866025
    endloop
  endfacet
  facet normal -0.279989 0.86169 0.423198
    outer loop
      vertex -12.3455 0.475528 0.866025
      vertex -13.309 0.587785 0
      vertex -12.9045 0.293892 0.866025
    endloop
  endfacet
  facet normal -0.906041 0 -0.42319
    outer loop
      vertex -12.9045 -0.293892 -0.866025
      vertex -13.309 0.587785 0
      vertex -12.9045 0.293892 -0.866025
    endloop
  endfacet
  facet normal -0.906041 -0 -0.42319
    outer loop
      vertex -13.309 0.587785 0
      vertex -12.9045 -0.293892 -0.866025
      vertex -13.309 -0.587785 0
    endloop
  endfacet
  facet normal -0.279989 0.86169 -0.423198
    outer loop
      vertex -12.9045 0.293892 -0.866025
      vertex -13.309 0.587785 0
      vertex -12.3455 0.475528 -0.866025
    endloop
  endfacet
  facet normal 0.732994 -0.532565 -0.423195
    outer loop
      vertex 12.809 -0.951056 0
      vertex 12.6545 -0.475528 -0.866025
      vertex 13 0 -0.866025
    endloop
  endfacet
  facet normal 0.732994 0.532565 0.423195
    outer loop
      vertex 12.809 0.951056 0
      vertex 12.6545 0.475528 0.866025
      vertex 13 0 0.866025
    endloop
  endfacet
  facet normal 0.732994 -0.532565 0.423195
    outer loop
      vertex 13 0 0.866025
      vertex 12.6545 -0.475528 0.866025
      vertex 12.809 -0.951056 0
    endloop
  endfacet
  facet normal 0 -0.876552 0.481308
    outer loop
      vertex -12.191 -0.951056 0
      vertex 0 -0.475528 0.866025
      vertex -12.3455 -0.475528 0.866025
    endloop
  endfacet
  facet normal 0 -0.876552 0.481308
    outer loop
      vertex 0 -0.475528 0.866025
      vertex -12.191 -0.951056 0
      vertex 0 -0.951056 0
    endloop
  endfacet
  facet normal 0 -0.876552 0.481308
    outer loop
      vertex 3 -0.951056 0
      vertex 12.6545 -0.475528 0.866025
      vertex 3 -0.475528 0.866025
    endloop
  endfacet
  facet normal 0 -0.876552 0.481308
    outer loop
      vertex 12.6545 -0.475528 0.866025
      vertex 3 -0.951056 0
      vertex 12.809 -0.951056 0
    endloop
  endfacet
  facet normal -0.279989 -0.86169 -0.423198
    outer loop
      vertex -12.3455 -0.475528 -0.866025
      vertex -13.309 -0.587785 0
      vertex -12.9045 -0.293892 -0.866025
    endloop
  endfacet
  facet normal -0.279988 0.86169 -0.423198
    outer loop
      vertex -12.3455 0.475528 -0.866025
      vertex -13.309 0.587785 0
      vertex -12.191 0.951056 0
    endloop
  endfacet
  facet normal 0.732994 0.532565 -0.423195
    outer loop
      vertex 13 0 -0.866025
      vertex 12.6545 0.475528 -0.866025
      vertex 12.809 0.951056 0
    endloop
  endfacet
  facet normal -0.279988 -0.86169 0.423198
    outer loop
      vertex -12.3455 -0.475528 0.866025
      vertex -13.309 -0.587785 0
      vertex -12.191 -0.951056 0
    endloop
  endfacet
  facet normal 0 -0.876552 -0.481308
    outer loop
      vertex -12.3455 -0.475528 -0.866025
      vertex 0 -0.951056 0
      vertex -12.191 -0.951056 0
    endloop
  endfacet
  facet normal -0 -0.876552 -0.481308
    outer loop
      vertex 12.6545 -0.475528 -0.866025
      vertex 0 -0.951056 0
      vertex -12.3455 -0.475528 -0.866025
    endloop
  endfacet
  facet normal 0 -0.876552 -0.481308
    outer loop
      vertex 0 -0.951056 0
      vertex 12.6545 -0.475528 -0.866025
      vertex 3 -0.951056 0
    endloop
  endfacet
  facet normal 0 -0.876552 -0.481308
    outer loop
      vertex 3 -0.951056 0
      vertex 12.6545 -0.475528 -0.866025
      vertex 12.809 -0.951056 0
    endloop
  endfacet
  facet normal -0.279988 0.86169 0.423198
    outer loop
      vertex -12.191 0.951056 0
      vertex -13.309 0.587785 0
      vertex -12.3455 0.475528 0.866025
    endloop
  endfacet
  facet normal 0 0 -1
    outer loop
      vertex 12.6545 -0.475528 -0.866025
      vertex 12.6545 0.475528 -0.866025
      vertex 13 0 -0.866025
    endloop
  endfacet
  facet normal 0 0 -1
    outer loop
      vertex -12.3455 -0.475528 -0.866025
      vertex 12.6545 0.475528 -0.866025
      vertex 12.6545 -0.475528 -0.866025
    endloop
  endfacet
  facet normal 0 0 -1
    outer loop
      vertex -12.3455 -0.475528 -0.866025
      vertex -12.3455 0.475528 -0.866025
      vertex 12.6545 0.475528 -0.866025
    endloop
  endfacet
  facet normal 0 0 -1
    outer loop
      vertex -12.9045 -0.293892 -0.866025
      vertex -12.3455 0.475528 -0.866025
      vertex -12.3455 -0.475528 -0.866025
    endloop
  endfacet
  facet normal 0 0 -1
    outer loop
      vertex -12.3455 0.475528 -0.866025
      vertex -12.9045 -0.293892 -0.866025
      vertex -12.9045 0.293892 -0.866025
    endloop
  endfacet
  facet normal -0.279989 -0.86169 0.423198
    outer loop
      vertex -12.9045 -0.293892 0.866025
      vertex -13.309 -0.587785 0
      vertex -12.3455 -0.475528 0.866025
    endloop
  endfacet
  facet normal -0 0.876552 0.481308
    outer loop
      vertex -12.191 0.951056 0
      vertex 0 0.475528 0.866025
      vertex 0 0.951056 0
    endloop
  endfacet
  facet normal 0 0.876552 0.481308
    outer loop
      vertex 0 0.475528 0.866025
      vertex -12.191 0.951056 0
      vertex -12.3455 0.475528 0.866025
    endloop
  endfacet
  facet normal -0 0.876552 0.481308
    outer loop
      vertex 3 0.951056 0
      vertex 12.6545 0.475528 0.866025
      vertex 12.809 0.951056 0
    endloop
  endfacet
  facet normal 0 0.876552 0.481308
    outer loop
      vertex 12.6545 0.475528 0.866025
      vertex 3 0.951056 0
      vertex 3 0.475528 0.866025
    endloop
  endfacet
  facet normal -0 0 1
    outer loop
      vertex -12.3455 0.475528 0.866025
      vertex 0 -0.475528 0.866025
      vertex 0 0.475528 0.866025
    endloop
  endfacet
  facet normal 0 0 1
    outer loop
      vertex -12.3455 0.475528 0.866025
      vertex -12.3455 -0.475528 0.866025
      vertex 0 -0.475528 0.866025
    endloop
  endfacet
  facet normal -0 0 1
    outer loop
      vertex -12.9045 0.293892 0.866025
      vertex -12.3455 -0.475528 0.866025
      vertex -12.3455 0.475528 0.866025
    endloop
  endfacet
  facet normal 0 0 1
    outer loop
      vertex -12.3455 -0.475528 0.866025
      vertex -12.9045 0.293892 0.866025
      vertex -12.9045 -0.293892 0.866025
    endloop
  endfacet
  facet normal 0 0 1
    outer loop
      vertex 12.6545 0.475528 0.866025
      vertex 12.6545 -0.475528 0.866025
      vertex 13 0 0.866025
    endloop
  endfacet
  facet normal -0 0 1
    outer loop
      vertex 3 0.475528 0.866025
      vertex 12.6545 -0.475528 0.866025
      vertex 12.6545 0.475528 0.866025
    endloop
  endfacet
  facet normal 0 0 1
    outer loop
      vertex 12.6545 -0.475528 0.866025
      vertex 3 0.475528 0.866025
      vertex 3 -0.475528 0.866025
    endloop
  endfacet
  facet normal -1 0 0
    outer loop
      vertex 3 0.951056 0
      vertex 3 -0.475528 0.866025
      vertex 3 0.475528 0.866025
    endloop
  endfacet
  facet normal -1 0 -0
    outer loop
      vertex 3 -0.475528 0.866025
      vertex 3 0.951056 0
      vertex 3 -0.951056 0
    endloop
  endfacet
  facet normal -0 0 1
    outer loop
      vertex 0 0.951056 0
      vertex 3 -0.951056 0
      vertex 3 0.951056 0
    endloop
  endfacet
  facet normal 0 0 1
    outer loop
      vertex 3 -0.951056 0
      vertex 0 0.951056 0
      vertex 0 -0.951056 0
    endloop
  endfacet
  facet normal 1 -0 0
    outer loop
      vertex 0 -0.475528 0.866025
      vertex 0 0.951056 0
      vertex 0 0.475528 0.866025
    endloop
  endfacet
  facet normal 1 0 0
    outer loop
      vertex 0 0.951056 0
      vertex 0 -0.475528 0.866025
      vertex 0 -0.951056 0
    endloop
  endfacet
endsolid OpenSCAD_Model
