solid OpenSCAD_Model
  facet normal 1 -0 0
    outer loop
      vertex 25 8.27425 2.39177
      vertex 25 10 0
      vertex 25 10 20
    endloop
  endfacet
  facet normal 1 0 0
    outer loop
      vertex 25 10 0
      vertex 25 8.62991 1.21931
      vertex 25 8.75 0
    endloop
  endfacet
  facet normal 1 0 0
    outer loop
      vertex 25 10 0
      vertex 25 8.27425 2.39177
      vertex 25 8.62991 1.21931
    endloop
  endfacet
  facet normal 1 0 0
    outer loop
      vertex 25 10 20
      vertex 25 7.69668 3.47231
      vertex 25 8.27425 2.39177
    endloop
  endfacet
  facet normal 1 0 0
    outer loop
      vertex 25 10 20
      vertex 25 6.91942 4.41942
      vertex 25 7.69668 3.47231
    endloop
  endfacet
  facet normal 1 0 0
    outer loop
      vertex 25 10 20
      vertex 25 5.97231 5.19668
      vertex 25 6.91942 4.41942
    endloop
  endfacet
  facet normal 1 0 0
    outer loop
      vertex 25 10 20
      vertex 25 4.89177 5.77425
      vertex 25 5.97231 5.19668
    endloop
  endfacet
  facet normal 1 0 0
    outer loop
      vertex 25 10 20
      vertex 25 3.71931 6.12991
      vertex 25 4.89177 5.77425
    endloop
  endfacet
  facet normal 1 -0 0
    outer loop
      vertex 25 0 20
      vertex 25 3.71931 6.12991
      vertex 25 10 20
    endloop
  endfacet
  facet normal 1 0 0
    outer loop
      vertex 25 3.71931 6.12991
      vertex 25 0 20
      vertex 25 2.5 6.25
    endloop
  endfacet
  facet normal 1 0 0
    outer loop
      vertex 25 2.5 6.25
      vertex 25 0 20
      vertex 25 1.28069 6.12991
    endloop
  endfacet
  facet normal 1 0 0
    outer loop
      vertex 25 1.28069 6.12991
      vertex 25 0 20
      vertex 25 0.108228 5.77425
    endloop
  endfacet
  facet normal 1 0 0
    outer loop
      vertex 25 0.108228 5.77425
      vertex 25 0 20
      vertex 25 0 5.7164
    endloop
  endfacet
  facet normal -0 0 1
    outer loop
      vertex 0 10 20
      vertex 25 0 20
      vertex 25 10 20
    endloop
  endfacet
  facet normal 0 0 1
    outer loop
      vertex 25 0 20
      vertex 0 10 20
      vertex 0 0 20
    endloop
  endfacet
  facet normal 0 0 -1
    outer loop
      vertex 6.25 0 0
      vertex 0 0 0
      vertex 6.25 8.75 0
    endloop
  endfacet
  facet normal 0 0 -1
    outer loop
      vertex 6.25 8.75 0
      vertex 25 10 0
      vertex 25 8.75 0
    endloop
  endfacet
  facet normal 0 0 -1
    outer loop
      vertex 6.25 8.75 0
      vertex 0 10 0
      vertex 25 10 0
    endloop
  endfacet
  facet normal 0 0 -1
    outer loop
      vertex 0 10 0
      vertex 6.25 8.75 0
      vertex 0 0 0
    endloop
  endfacet
  facet normal -1 0 0
    outer loop
      vertex 0 0 0
      vertex 0 10 20
      vertex 0 10 0
    endloop
  endfacet
  facet normal -1 -0 0
    outer loop
      vertex 0 10 20
      vertex 0 0 0
      vertex 0 0 20
    endloop
  endfacet
  facet normal 0 1 -0
    outer loop
      vertex 25 10 0
      vertex 0 10 20
      vertex 25 10 20
    endloop
  endfacet
  facet normal 0 1 0
    outer loop
      vertex 0 10 20
      vertex 25 10 0
      vertex 0 10 0
    endloop
  endfacet
  facet normal 0 -1 0
    outer loop
      vertex 0 0 20
      vertex 6.25 0 5.7164
      vertex 25 0 20
    endloop
  endfacet
  facet normal 0 -1 0
    outer loop
      vertex 0 0 0
      vertex 6.25 0 5.7164
      vertex 0 0 20
    endloop
  endfacet
  facet normal 0 -1 -0
    outer loop
      vertex 6.25 0 5.7164
      vertex 0 0 0
      vertex 6.25 0 0
    endloop
  endfacet
  facet normal 0 -1 -0
    outer loop
      vertex 25 0 20
      vertex 6.25 0 5.7164
      vertex 25 0 5.7164
    endloop
  endfacet
  facet normal 0 -0.956941 -0.290283
    outer loop
      vertex 6.25 8.62991 1.21931
      vertex 25 8.27425 2.39177
      vertex 6.25 8.27425 2.39177
    endloop
  endfacet
  facet normal 0 -0.956941 -0.290283
    outer loop
      vertex 25 8.27425 2.39177
      vertex 6.25 8.62991 1.21931
      vertex 25 8.62991 1.21931
    endloop
  endfacet
  facet normal 0 0.471403 -0.881918
    outer loop
      vertex 6.25 0 5.7164
      vertex 25 0.108228 5.77425
      vertex 25 0 5.7164
    endloop
  endfacet
  facet normal 0 0.471403 -0.881918
    outer loop
      vertex 25 0.108228 5.77425
      vertex 6.25 0 5.7164
      vertex 6.25 0.108228 5.77425
    endloop
  endfacet
  facet normal 0 0.290283 -0.956941
    outer loop
      vertex 6.25 0.108228 5.77425
      vertex 25 1.28069 6.12991
      vertex 25 0.108228 5.77425
    endloop
  endfacet
  facet normal 0 0.290283 -0.956941
    outer loop
      vertex 25 1.28069 6.12991
      vertex 6.25 0.108228 5.77425
      vertex 6.25 1.28069 6.12991
    endloop
  endfacet
  facet normal 0 -0.995185 -0.0980159
    outer loop
      vertex 6.25 8.75 0
      vertex 25 8.62991 1.21931
      vertex 6.25 8.62991 1.21931
    endloop
  endfacet
  facet normal 0 -0.995185 -0.0980159
    outer loop
      vertex 25 8.62991 1.21931
      vertex 6.25 8.75 0
      vertex 25 8.75 0
    endloop
  endfacet
  facet normal 0 -0.471403 -0.881918
    outer loop
      vertex 6.25 4.89177 5.77425
      vertex 25 5.97231 5.19668
      vertex 25 4.89177 5.77425
    endloop
  endfacet
  facet normal -0 -0.471403 -0.881918
    outer loop
      vertex 25 5.97231 5.19668
      vertex 6.25 4.89177 5.77425
      vertex 6.25 5.97231 5.19668
    endloop
  endfacet
  facet normal 0 -0.881918 -0.471403
    outer loop
      vertex 6.25 8.27425 2.39177
      vertex 25 7.69668 3.47231
      vertex 6.25 7.69668 3.47231
    endloop
  endfacet
  facet normal 0 -0.881918 -0.471403
    outer loop
      vertex 25 7.69668 3.47231
      vertex 6.25 8.27425 2.39177
      vertex 25 8.27425 2.39177
    endloop
  endfacet
  facet normal 0 -0.773016 -0.634387
    outer loop
      vertex 6.25 7.69668 3.47231
      vertex 25 6.91942 4.41942
      vertex 6.25 6.91942 4.41942
    endloop
  endfacet
  facet normal 0 -0.773016 -0.634387
    outer loop
      vertex 25 6.91942 4.41942
      vertex 6.25 7.69668 3.47231
      vertex 25 7.69668 3.47231
    endloop
  endfacet
  facet normal 1 0 0
    outer loop
      vertex 6.25 0 0
      vertex 6.25 8.62991 1.21931
      vertex 6.25 8.27425 2.39177
    endloop
  endfacet
  facet normal 1 0 0
    outer loop
      vertex 6.25 0 0
      vertex 6.25 8.27425 2.39177
      vertex 6.25 7.69668 3.47231
    endloop
  endfacet
  facet normal 1 0 0
    outer loop
      vertex 6.25 0 0
      vertex 6.25 7.69668 3.47231
      vertex 6.25 6.91942 4.41942
    endloop
  endfacet
  facet normal 1 0 0
    outer loop
      vertex 6.25 0 0
      vertex 6.25 6.91942 4.41942
      vertex 6.25 5.97231 5.19668
    endloop
  endfacet
  facet normal 1 0 0
    outer loop
      vertex 6.25 0 0
      vertex 6.25 5.97231 5.19668
      vertex 6.25 4.89177 5.77425
    endloop
  endfacet
  facet normal 1 0 0
    outer loop
      vertex 6.25 0 0
      vertex 6.25 4.89177 5.77425
      vertex 6.25 3.71931 6.12991
    endloop
  endfacet
  facet normal 1 0 0
    outer loop
      vertex 6.25 0 0
      vertex 6.25 3.71931 6.12991
      vertex 6.25 2.5 6.25
    endloop
  endfacet
  facet normal 1 0 0
    outer loop
      vertex 6.25 0 0
      vertex 6.25 2.5 6.25
      vertex 6.25 1.28069 6.12991
    endloop
  endfacet
  facet normal 1 0 0
    outer loop
      vertex 6.25 0 0
      vertex 6.25 1.28069 6.12991
      vertex 6.25 0.108228 5.77425
    endloop
  endfacet
  facet normal 1 0 0
    outer loop
      vertex 6.25 0 0
      vertex 6.25 0.108228 5.77425
      vertex 6.25 0 5.7164
    endloop
  endfacet
  facet normal 1 0 0
    outer loop
      vertex 6.25 8.62991 1.21931
      vertex 6.25 0 0
      vertex 6.25 8.75 0
    endloop
  endfacet
  facet normal 0 -0.634387 -0.773016
    outer loop
      vertex 6.25 5.97231 5.19668
      vertex 25 6.91942 4.41942
      vertex 25 5.97231 5.19668
    endloop
  endfacet
  facet normal -0 -0.634387 -0.773016
    outer loop
      vertex 25 6.91942 4.41942
      vertex 6.25 5.97231 5.19668
      vertex 6.25 6.91942 4.41942
    endloop
  endfacet
  facet normal 0 -0.0980159 -0.995185
    outer loop
      vertex 6.25 2.5 6.25
      vertex 25 3.71931 6.12991
      vertex 25 2.5 6.25
    endloop
  endfacet
  facet normal -0 -0.0980159 -0.995185
    outer loop
      vertex 25 3.71931 6.12991
      vertex 6.25 2.5 6.25
      vertex 6.25 3.71931 6.12991
    endloop
  endfacet
  facet normal 0 0.0980159 -0.995185
    outer loop
      vertex 6.25 1.28069 6.12991
      vertex 25 2.5 6.25
      vertex 25 1.28069 6.12991
    endloop
  endfacet
  facet normal 0 0.0980159 -0.995185
    outer loop
      vertex 25 2.5 6.25
      vertex 6.25 1.28069 6.12991
      vertex 6.25 2.5 6.25
    endloop
  endfacet
  facet normal 0 -0.290283 -0.956941
    outer loop
      vertex 6.25 3.71931 6.12991
      vertex 25 4.89177 5.77425
      vertex 25 3.71931 6.12991
    endloop
  endfacet
  facet normal -0 -0.290283 -0.956941
    outer loop
      vertex 25 4.89177 5.77425
      vertex 6.25 3.71931 6.12991
      vertex 6.25 4.89177 5.77425
    endloop
  endfacet
endsolid OpenSCAD_Model
