solid OpenSCAD_Model
  facet normal -0.463213 0.580851 0.669362
    outer loop
      vertex -0.411164 1.80143 5.76537
      vertex -1.66477 0.801712 5.76537
      vertex -0.689571 0.33208 6.84776
    endloop
  endfacet
  facet normal 0.165318 0.724309 0.669363
    outer loop
      vertex 0.477198 0.598388 6.84776
      vertex -0.411164 1.80143 5.76537
      vertex -0.17031 0.746177 6.84776
    endloop
  endfacet
  facet normal 0.222518 0.974929 -0
    outer loop
      vertex 1.15206 1.44464 -5.76537
      vertex -0.411164 1.80143 5.76537
      vertex 1.15206 1.44464 5.76537
    endloop
  endfacet
  facet normal 0.222518 0.974929 0
    outer loop
      vertex -0.411164 1.80143 5.76537
      vertex 1.15206 1.44464 -5.76537
      vertex -0.411164 1.80143 -5.76537
    endloop
  endfacet
  facet normal 0.900969 -0.433883 0
    outer loop
      vertex 1.15206 -1.44464 5.76537
      vertex 1.84776 0 -5.76537
      vertex 1.84776 0 5.76537
    endloop
  endfacet
  facet normal 0.900969 -0.433883 0
    outer loop
      vertex 1.84776 0 -5.76537
      vertex 1.15206 -1.44464 5.76537
      vertex 1.15206 -1.44464 -5.76537
    endloop
  endfacet
  facet normal 0.165316 -0.724308 -0.669364
    outer loop
      vertex 1.15206 -1.44464 -5.76537
      vertex -0.411164 -1.80143 -5.76537
      vertex 0.477198 -0.598388 -6.84776
    endloop
  endfacet
  facet normal 0.669362 0.322347 0.669364
    outer loop
      vertex 1.15206 1.44464 5.76537
      vertex 0.765367 0 6.84776
      vertex 1.84776 0 5.76537
    endloop
  endfacet
  facet normal 0.165316 -0.724308 0.669364
    outer loop
      vertex 0.477198 -0.598388 6.84776
      vertex -0.411164 -1.80143 5.76537
      vertex 1.15206 -1.44464 5.76537
    endloop
  endfacet
  facet normal -0.62349 -0.781831 0
    outer loop
      vertex -1.66477 -0.801712 -5.76537
      vertex -0.411164 -1.80143 5.76537
      vertex -1.66477 -0.801712 5.76537
    endloop
  endfacet
  facet normal -0.62349 -0.781831 -0
    outer loop
      vertex -0.411164 -1.80143 5.76537
      vertex -1.66477 -0.801712 -5.76537
      vertex -0.411164 -1.80143 -5.76537
    endloop
  endfacet
  facet normal 0.669362 -0.322347 0.669364
    outer loop
      vertex 1.84776 0 5.76537
      vertex 0.765367 0 6.84776
      vertex 1.15206 -1.44464 5.76537
    endloop
  endfacet
  facet normal 0.900969 0.433883 0
    outer loop
      vertex 1.84776 0 5.76537
      vertex 1.15206 1.44464 -5.76537
      vertex 1.15206 1.44464 5.76537
    endloop
  endfacet
  facet normal 0.900969 0.433883 0
    outer loop
      vertex 1.15206 1.44464 -5.76537
      vertex 1.84776 0 5.76537
      vertex 1.84776 0 -5.76537
    endloop
  endfacet
  facet normal -0.62349 0.781831 0
    outer loop
      vertex -0.411164 1.80143 -5.76537
      vertex -1.66477 0.801712 5.76537
      vertex -0.411164 1.80143 5.76537
    endloop
  endfacet
  facet normal -0.62349 0.781831 0
    outer loop
      vertex -1.66477 0.801712 5.76537
      vertex -0.411164 1.80143 -5.76537
      vertex -1.66477 0.801712 -5.76537
    endloop
  endfacet
  facet normal 0.66936 -0.322348 0.669364
    outer loop
      vertex 0.765367 0 6.84776
      vertex 0.477198 -0.598388 6.84776
      vertex 1.15206 -1.44464 5.76537
    endloop
  endfacet
  facet normal 0.66936 0.322348 0.669364
    outer loop
      vertex 1.15206 1.44464 5.76537
      vertex 0.477198 0.598388 6.84776
      vertex 0.765367 0 6.84776
    endloop
  endfacet
  facet normal 0 0 1
    outer loop
      vertex 0.477198 0.598388 6.84776
      vertex 0.477198 -0.598388 6.84776
      vertex 0.765367 0 6.84776
    endloop
  endfacet
  facet normal 0 0 1
    outer loop
      vertex -0.17031 0.746177 6.84776
      vertex 0.477198 -0.598388 6.84776
      vertex 0.477198 0.598388 6.84776
    endloop
  endfacet
  facet normal 0 0 1
    outer loop
      vertex -0.17031 0.746177 6.84776
      vertex -0.17031 -0.746177 6.84776
      vertex 0.477198 -0.598388 6.84776
    endloop
  endfacet
  facet normal -0 0 1
    outer loop
      vertex -0.689571 0.33208 6.84776
      vertex -0.17031 -0.746177 6.84776
      vertex -0.17031 0.746177 6.84776
    endloop
  endfacet
  facet normal 0 0 1
    outer loop
      vertex -0.17031 -0.746177 6.84776
      vertex -0.689571 0.33208 6.84776
      vertex -0.689571 -0.33208 6.84776
    endloop
  endfacet
  facet normal 0.165318 -0.724309 0.669363
    outer loop
      vertex -0.17031 -0.746177 6.84776
      vertex -0.411164 -1.80143 5.76537
      vertex 0.477198 -0.598388 6.84776
    endloop
  endfacet
  facet normal -0.463213 -0.580851 -0.669362
    outer loop
      vertex -0.411164 -1.80143 -5.76537
      vertex -1.66477 -0.801712 -5.76537
      vertex -0.689571 -0.33208 -6.84776
    endloop
  endfacet
  facet normal -1 0 0
    outer loop
      vertex -1.66477 -0.801712 -5.76537
      vertex -1.66477 0.801712 5.76537
      vertex -1.66477 0.801712 -5.76537
    endloop
  endfacet
  facet normal -1 -0 0
    outer loop
      vertex -1.66477 0.801712 5.76537
      vertex -1.66477 -0.801712 -5.76537
      vertex -1.66477 -0.801712 5.76537
    endloop
  endfacet
  facet normal 0.165316 0.724308 0.669364
    outer loop
      vertex 1.15206 1.44464 5.76537
      vertex -0.411164 1.80143 5.76537
      vertex 0.477198 0.598388 6.84776
    endloop
  endfacet
  facet normal -0.463213 0.580851 -0.669362
    outer loop
      vertex -0.689571 0.33208 -6.84776
      vertex -1.66477 0.801712 -5.76537
      vertex -0.411164 1.80143 -5.76537
    endloop
  endfacet
  facet normal -0.463213 0.580851 -0.669362
    outer loop
      vertex -0.17031 0.746177 -6.84776
      vertex -0.689571 0.33208 -6.84776
      vertex -0.411164 1.80143 -5.76537
    endloop
  endfacet
  facet normal 0.222518 -0.974929 0
    outer loop
      vertex -0.411164 -1.80143 -5.76537
      vertex 1.15206 -1.44464 5.76537
      vertex -0.411164 -1.80143 5.76537
    endloop
  endfacet
  facet normal 0.222518 -0.974929 0
    outer loop
      vertex 1.15206 -1.44464 5.76537
      vertex -0.411164 -1.80143 -5.76537
      vertex 1.15206 -1.44464 -5.76537
    endloop
  endfacet
  facet normal -0.463213 -0.580851 0.669362
    outer loop
      vertex -0.689571 -0.33208 6.84776
      vertex -1.66477 -0.801712 5.76537
      vertex -0.411164 -1.80143 5.76537
    endloop
  endfacet
  facet normal 0.165318 -0.724309 -0.669363
    outer loop
      vertex 0.477198 -0.598388 -6.84776
      vertex -0.411164 -1.80143 -5.76537
      vertex -0.17031 -0.746177 -6.84776
    endloop
  endfacet
  facet normal 0.66936 -0.322348 -0.669364
    outer loop
      vertex 1.15206 -1.44464 -5.76537
      vertex 0.477198 -0.598388 -6.84776
      vertex 0.765367 0 -6.84776
    endloop
  endfacet
  facet normal -0.463213 -0.580851 0.669362
    outer loop
      vertex -0.17031 -0.746177 6.84776
      vertex -0.689571 -0.33208 6.84776
      vertex -0.411164 -1.80143 5.76537
    endloop
  endfacet
  facet normal -0.742936 0 0.669362
    outer loop
      vertex -1.66477 0.801712 5.76537
      vertex -0.689571 -0.33208 6.84776
      vertex -0.689571 0.33208 6.84776
    endloop
  endfacet
  facet normal -0.742936 0 0.669362
    outer loop
      vertex -0.689571 -0.33208 6.84776
      vertex -1.66477 0.801712 5.76537
      vertex -1.66477 -0.801712 5.76537
    endloop
  endfacet
  facet normal 0.165318 0.724309 -0.669363
    outer loop
      vertex -0.17031 0.746177 -6.84776
      vertex -0.411164 1.80143 -5.76537
      vertex 0.477198 0.598388 -6.84776
    endloop
  endfacet
  facet normal 0.165316 0.724308 -0.669364
    outer loop
      vertex 0.477198 0.598388 -6.84776
      vertex -0.411164 1.80143 -5.76537
      vertex 1.15206 1.44464 -5.76537
    endloop
  endfacet
  facet normal -0.463213 0.580851 0.669362
    outer loop
      vertex -0.411164 1.80143 5.76537
      vertex -0.689571 0.33208 6.84776
      vertex -0.17031 0.746177 6.84776
    endloop
  endfacet
  facet normal -0.742936 0 -0.669362
    outer loop
      vertex -0.689571 -0.33208 -6.84776
      vertex -1.66477 0.801712 -5.76537
      vertex -0.689571 0.33208 -6.84776
    endloop
  endfacet
  facet normal -0.742936 -0 -0.669362
    outer loop
      vertex -1.66477 0.801712 -5.76537
      vertex -0.689571 -0.33208 -6.84776
      vertex -1.66477 -0.801712 -5.76537
    endloop
  endfacet
  facet normal 0 0 -1
    outer loop
      vertex 0.477198 -0.598388 -6.84776
      vertex 0.477198 0.598388 -6.84776
      vertex 0.765367 0 -6.84776
    endloop
  endfacet
  facet normal 0 0 -1
    outer loop
      vertex -0.17031 -0.746177 -6.84776
      vertex 0.477198 0.598388 -6.84776
      vertex 0.477198 -0.598388 -6.84776
    endloop
  endfacet
  facet normal 0 0 -1
    outer loop
      vertex -0.17031 -0.746177 -6.84776
      vertex -0.17031 0.746177 -6.84776
      vertex 0.477198 0.598388 -6.84776
    endloop
  endfacet
  facet normal 0 0 -1
    outer loop
      vertex -0.689571 -0.33208 -6.84776
      vertex -0.17031 0.746177 -6.84776
      vertex -0.17031 -0.746177 -6.84776
    endloop
  endfacet
  facet normal 0 0 -1
    outer loop
      vertex -0.17031 0.746177 -6.84776
      vertex -0.689571 -0.33208 -6.84776
      vertex -0.689571 0.33208 -6.84776
    endloop
  endfacet
  facet normal -0.463213 -0.580851 -0.669362
    outer loop
      vertex -0.411164 -1.80143 -5.76537
      vertex -0.689571 -0.33208 -6.84776
      vertex -0.17031 -0.746177 -6.84776
    endloop
  endfacet
  facet normal 0.66936 0.322348 -0.669364
    outer loop
      vertex 0.765367 0 -6.84776
      vertex 0.477198 0.598388 -6.84776
      vertex 1.15206 1.44464 -5.76537
    endloop
  endfacet
  facet normal 0.669362 0.322347 -0.669364
    outer loop
      vertex 1.84776 0 -5.76537
      vertex 0.765367 0 -6.84776
      vertex 1.15206 1.44464 -5.76537
    endloop
  endfacet
  facet normal 0.669362 -0.322347 -0.669364
    outer loop
      vertex 1.15206 -1.44464 -5.76537
      vertex 0.765367 0 -6.84776
      vertex 1.84776 0 -5.76537
    endloop
  endfacet
endsolid OpenSCAD_Model
