solid OpenSCAD_Model
  facet normal 1 -0 0
    outer loop
      vertex 50 0 20
      vertex 50 10 0
      vertex 50 10 20
    endloop
  endfacet
  facet normal 1 0 0
    outer loop
      vertex 50 10 0
      vertex 50 0 20
      vertex 50 0 0
    endloop
  endfacet
  facet normal -0 0 1
    outer loop
      vertex 0 10 20
      vertex 50 0 20
      vertex 50 10 20
    endloop
  endfacet
  facet normal 0 0 1
    outer loop
      vertex 50 0 20
      vertex 0 10 20
      vertex 0 0 20
    endloop
  endfacet
  facet normal 0 0 -1
    outer loop
      vertex 0 0 0
      vertex 50 10 0
      vertex 50 0 0
    endloop
  endfacet
  facet normal -0 0 -1
    outer loop
      vertex 50 10 0
      vertex 0 0 0
      vertex 0 10 0
    endloop
  endfacet
  facet normal -1 0 0
    outer loop
      vertex 0 0 0
      vertex 0 10 20
      vertex 0 10 0
    endloop
  endfacet
  facet normal -1 -0 0
    outer loop
      vertex 0 10 20
      vertex 0 0 0
      vertex 0 0 20
    endloop
  endfacet
  facet normal 0 1 -0
    outer loop
      vertex 50 10 0
      vertex 0 10 20
      vertex 50 10 20
    endloop
  endfacet
  facet normal 0 1 0
    outer loop
      vertex 0 10 20
      vertex 50 10 0
      vertex 0 10 0
    endloop
  endfacet
  facet normal 0 -1 0
    outer loop
      vertex 0 0 20
      vertex 12.5 0 10
      vertex 50 0 20
    endloop
  endfacet
  facet normal 0 -1 0
    outer loop
      vertex 0 0 0
      vertex 12.5 0 10
      vertex 0 0 20
    endloop
  endfacet
  facet normal 0 -1 -0
    outer loop
      vertex 12.5 0 5
      vertex 0 0 0
      vertex 37.5 0 5
    endloop
  endfacet
  facet normal 0 -1 -0
    outer loop
      vertex 12.5 0 10
      vertex 0 0 0
      vertex 12.5 0 5
    endloop
  endfacet
  facet normal 0 -1 0
    outer loop
      vertex 37.5 0 10
      vertex 50 0 20
      vertex 12.5 0 10
    endloop
  endfacet
  facet normal 0 -1 0
    outer loop
      vertex 50 0 0
      vertex 37.5 0 10
      vertex 37.5 0 5
    endloop
  endfacet
  facet normal 0 -1 0
    outer loop
      vertex 37.5 0 10
      vertex 50 0 0
      vertex 50 0 20
    endloop
  endfacet
  facet normal 0 -1 0
    outer loop
      vertex 50 0 0
      vertex 37.5 0 5
      vertex 0 0 0
    endloop
  endfacet
  facet normal 1 -0 0
    outer loop
      vertex 12.5 0 10
      vertex 12.5 2.5 5
      vertex 12.5 2.5 10
    endloop
  endfacet
  facet normal 1 0 0
    outer loop
      vertex 12.5 2.5 5
      vertex 12.5 0 10
      vertex 12.5 0 5
    endloop
  endfacet
  facet normal -1 0 0
    outer loop
      vertex 37.5 0 5
      vertex 37.5 2.5 10
      vertex 37.5 2.5 5
    endloop
  endfacet
  facet normal -1 -0 0
    outer loop
      vertex 37.5 2.5 10
      vertex 37.5 0 5
      vertex 37.5 0 10
    endloop
  endfacet
  facet normal 0 -1 0
    outer loop
      vertex 12.5 2.5 5
      vertex 37.5 2.5 10
      vertex 12.5 2.5 10
    endloop
  endfacet
  facet normal 0 -1 -0
    outer loop
      vertex 37.5 2.5 10
      vertex 12.5 2.5 5
      vertex 37.5 2.5 5
    endloop
  endfacet
  facet normal 0 0 -1
    outer loop
      vertex 12.5 0 10
      vertex 37.5 2.5 10
      vertex 37.5 0 10
    endloop
  endfacet
  facet normal -0 0 -1
    outer loop
      vertex 37.5 2.5 10
      vertex 12.5 0 10
      vertex 12.5 2.5 10
    endloop
  endfacet
  facet normal -0 0 1
    outer loop
      vertex 12.5 2.5 5
      vertex 37.5 0 5
      vertex 37.5 2.5 5
    endloop
  endfacet
  facet normal 0 0 1
    outer loop
      vertex 37.5 0 5
      vertex 12.5 2.5 5
      vertex 12.5 0 5
    endloop
  endfacet
endsolid OpenSCAD_Model
