solid OpenSCAD_Model
  facet normal 0.989176 0.146735 0
    outer loop
      vertex 1.99037 0.196033 10
      vertex 1.96157 0.390181 0
      vertex 1.96157 0.390181 10
    endloop
  endfacet
  facet normal 0.989176 0.146735 0
    outer loop
      vertex 1.96157 0.390181 0
      vertex 1.99037 0.196033 10
      vertex 1.99037 0.196033 0
    endloop
  endfacet
  facet normal 0.998796 0.0490652 0
    outer loop
      vertex 2 0 10
      vertex 1.99037 0.196033 0
      vertex 1.99037 0.196033 10
    endloop
  endfacet
  facet normal 0.998796 0.0490652 0
    outer loop
      vertex 1.99037 0.196033 0
      vertex 2 0 10
      vertex 2 0 0
    endloop
  endfacet
  facet normal 0.970031 0.242982 0
    outer loop
      vertex 1.96157 0.390181 10
      vertex 1.91388 0.580569 0
      vertex 1.91388 0.580569 10
    endloop
  endfacet
  facet normal 0.970031 0.242982 0
    outer loop
      vertex 1.91388 0.580569 0
      vertex 1.96157 0.390181 10
      vertex 1.96157 0.390181 0
    endloop
  endfacet
  facet normal -0.51409 -0.857736 0
    outer loop
      vertex -1.11114 -1.66294 0
      vertex -0.942793 -1.76384 10
      vertex -1.11114 -1.66294 10
    endloop
  endfacet
  facet normal -0.51409 -0.857736 -0
    outer loop
      vertex -0.942793 -1.76384 10
      vertex -1.11114 -1.66294 0
      vertex -0.942793 -1.76384 0
    endloop
  endfacet
  facet normal -0.51409 0.857736 0
    outer loop
      vertex -0.942793 1.76384 0
      vertex -1.11114 1.66294 10
      vertex -0.942793 1.76384 10
    endloop
  endfacet
  facet normal -0.51409 0.857736 0
    outer loop
      vertex -1.11114 1.66294 10
      vertex -0.942793 1.76384 0
      vertex -1.11114 1.66294 0
    endloop
  endfacet
  facet normal -0.941547 0.336882 0
    outer loop
      vertex -1.91388 0.580569 0
      vertex -1.84776 0.765367 10
      vertex -1.84776 0.765367 0
    endloop
  endfacet
  facet normal -0.941547 0.336882 0
    outer loop
      vertex -1.84776 0.765367 10
      vertex -1.91388 0.580569 0
      vertex -1.91388 0.580569 10
    endloop
  endfacet
  facet normal 0.336882 0.941547 -0
    outer loop
      vertex 0.765367 1.84776 0
      vertex 0.580569 1.91388 10
      vertex 0.765367 1.84776 10
    endloop
  endfacet
  facet normal 0.336882 0.941547 0
    outer loop
      vertex 0.580569 1.91388 10
      vertex 0.765367 1.84776 0
      vertex 0.580569 1.91388 0
    endloop
  endfacet
  facet normal 0 0 -1
    outer loop
      vertex 1.5 0 0
      vertex 2 0 0
      vertex 1.99037 -0.196033 0
    endloop
  endfacet
  facet normal 0 0 -1
    outer loop
      vertex 1.49278 -0.147025 0
      vertex 1.99037 -0.196033 0
      vertex 1.96157 -0.390181 0
    endloop
  endfacet
  facet normal 0 0 -1
    outer loop
      vertex 2 0 0
      vertex 1.5 0 0
      vertex 1.99037 0.196033 0
    endloop
  endfacet
  facet normal 0 0 -1
    outer loop
      vertex 1.47118 -0.292635 0
      vertex 1.96157 -0.390181 0
      vertex 1.91388 -0.580569 0
    endloop
  endfacet
  facet normal 0 0 -1
    outer loop
      vertex 1.49278 0.147025 0
      vertex 1.99037 0.196033 0
      vertex 1.5 0 0
    endloop
  endfacet
  facet normal 0 0 -1
    outer loop
      vertex 1.43541 -0.435427 0
      vertex 1.91388 -0.580569 0
      vertex 1.84776 -0.765367 0
    endloop
  endfacet
  facet normal -0 0 -1
    outer loop
      vertex 1.99037 0.196033 0
      vertex 1.49278 0.147025 0
      vertex 1.96157 0.390181 0
    endloop
  endfacet
  facet normal 0 0 -1
    outer loop
      vertex 1.38582 -0.574024 0
      vertex 1.84776 -0.765367 0
      vertex 1.76384 -0.942793 0
    endloop
  endfacet
  facet normal 0 0 -1
    outer loop
      vertex 1.47118 0.292635 0
      vertex 1.96157 0.390181 0
      vertex 1.49278 0.147025 0
    endloop
  endfacet
  facet normal 0 0 -1
    outer loop
      vertex 1.32288 -0.707094 0
      vertex 1.76384 -0.942793 0
      vertex 1.66294 -1.11114 0
    endloop
  endfacet
  facet normal -0 0 -1
    outer loop
      vertex 1.96157 0.390181 0
      vertex 1.47118 0.292635 0
      vertex 1.91388 0.580569 0
    endloop
  endfacet
  facet normal 0 0 -1
    outer loop
      vertex 1.2472 -0.833355 0
      vertex 1.66294 -1.11114 0
      vertex 1.54602 -1.26879 0
    endloop
  endfacet
  facet normal 0 0 -1
    outer loop
      vertex 1.43541 0.435427 0
      vertex 1.91388 0.580569 0
      vertex 1.47118 0.292635 0
    endloop
  endfacet
  facet normal -0 0 -1
    outer loop
      vertex 1.91388 0.580569 0
      vertex 1.43541 0.435427 0
      vertex 1.84776 0.765367 0
    endloop
  endfacet
  facet normal 0 0 -1
    outer loop
      vertex 1.99037 -0.196033 0
      vertex 1.49278 -0.147025 0
      vertex 1.5 0 0
    endloop
  endfacet
  facet normal 0 0 -1
    outer loop
      vertex 1.96157 -0.390181 0
      vertex 1.47118 -0.292635 0
      vertex 1.49278 -0.147025 0
    endloop
  endfacet
  facet normal 0 0 -1
    outer loop
      vertex 1.91388 -0.580569 0
      vertex 1.43541 -0.435427 0
      vertex 1.47118 -0.292635 0
    endloop
  endfacet
  facet normal 0 0 -1
    outer loop
      vertex 1.15952 -0.95159 0
      vertex 1.54602 -1.26879 0
      vertex 1.41421 -1.41421 0
    endloop
  endfacet
  facet normal 0 0 -1
    outer loop
      vertex 1.84776 -0.765367 0
      vertex 1.38582 -0.574024 0
      vertex 1.43541 -0.435427 0
    endloop
  endfacet
  facet normal 0 0 -1
    outer loop
      vertex 1.76384 -0.942793 0
      vertex 1.32288 -0.707094 0
      vertex 1.38582 -0.574024 0
    endloop
  endfacet
  facet normal 0 0 -1
    outer loop
      vertex 1.06066 -1.06066 0
      vertex 1.41421 -1.41421 0
      vertex 1.26879 -1.54602 0
    endloop
  endfacet
  facet normal 0 0 -1
    outer loop
      vertex 1.66294 -1.11114 0
      vertex 1.2472 -0.833355 0
      vertex 1.32288 -0.707094 0
    endloop
  endfacet
  facet normal 0 0 -1
    outer loop
      vertex 1.54602 -1.26879 0
      vertex 1.15952 -0.95159 0
      vertex 1.2472 -0.833355 0
    endloop
  endfacet
  facet normal 0 0 -1
    outer loop
      vertex 0.95159 -1.15952 0
      vertex 1.26879 -1.54602 0
      vertex 1.11114 -1.66294 0
    endloop
  endfacet
  facet normal 0 0 -1
    outer loop
      vertex 1.41421 -1.41421 0
      vertex 1.06066 -1.06066 0
      vertex 1.15952 -0.95159 0
    endloop
  endfacet
  facet normal 0 0 -1
    outer loop
      vertex 1.26879 -1.54602 0
      vertex 0.95159 -1.15952 0
      vertex 1.06066 -1.06066 0
    endloop
  endfacet
  facet normal 0 0 -1
    outer loop
      vertex 0.833355 -1.2472 0
      vertex 1.11114 -1.66294 0
      vertex 0.942793 -1.76384 0
    endloop
  endfacet
  facet normal 0 0 -1
    outer loop
      vertex 1.11114 -1.66294 0
      vertex 0.833355 -1.2472 0
      vertex 0.95159 -1.15952 0
    endloop
  endfacet
  facet normal 0 0 -1
    outer loop
      vertex 0.707094 -1.32288 0
      vertex 0.942793 -1.76384 0
      vertex 0.765367 -1.84776 0
    endloop
  endfacet
  facet normal 0 0 -1
    outer loop
      vertex 0.942793 -1.76384 0
      vertex 0.707094 -1.32288 0
      vertex 0.833355 -1.2472 0
    endloop
  endfacet
  facet normal 0 0 -1
    outer loop
      vertex 0.574024 -1.38582 0
      vertex 0.765367 -1.84776 0
      vertex 0.580569 -1.91388 0
    endloop
  endfacet
  facet normal 0 0 -1
    outer loop
      vertex 0.765367 -1.84776 0
      vertex 0.574024 -1.38582 0
      vertex 0.707094 -1.32288 0
    endloop
  endfacet
  facet normal 0 0 -1
    outer loop
      vertex 0.580569 -1.91388 0
      vertex 0.435427 -1.43541 0
      vertex 0.574024 -1.38582 0
    endloop
  endfacet
  facet normal 0 0 -1
    outer loop
      vertex 0.390181 -1.96157 0
      vertex 0.435427 -1.43541 0
      vertex 0.580569 -1.91388 0
    endloop
  endfacet
  facet normal 0 0 -1
    outer loop
      vertex 0.390181 -1.96157 0
      vertex 0.292635 -1.47118 0
      vertex 0.435427 -1.43541 0
    endloop
  endfacet
  facet normal 0 0 -1
    outer loop
      vertex 0.196033 -1.99037 0
      vertex 0.292635 -1.47118 0
      vertex 0.390181 -1.96157 0
    endloop
  endfacet
  facet normal 0 0 -1
    outer loop
      vertex 0.196033 -1.99037 0
      vertex 0.147025 -1.49278 0
      vertex 0.292635 -1.47118 0
    endloop
  endfacet
  facet normal 0 0 -1
    outer loop
      vertex 0 -2 0
      vertex 0.147025 -1.49278 0
      vertex 0.196033 -1.99037 0
    endloop
  endfacet
  facet normal 0 0 -1
    outer loop
      vertex 0 -2 0
      vertex 0 -1.5 0
      vertex 0.147025 -1.49278 0
    endloop
  endfacet
  facet normal 0 0 -1
    outer loop
      vertex 0 -2 0
      vertex -0.147025 -1.49278 0
      vertex 0 -1.5 0
    endloop
  endfacet
  facet normal 0 0 -1
    outer loop
      vertex -0.196033 -1.99037 0
      vertex -0.147025 -1.49278 0
      vertex 0 -2 0
    endloop
  endfacet
  facet normal 0 0 -1
    outer loop
      vertex -0.196033 -1.99037 0
      vertex -0.292635 -1.47118 0
      vertex -0.147025 -1.49278 0
    endloop
  endfacet
  facet normal 0 0 -1
    outer loop
      vertex -0.390181 -1.96157 0
      vertex -0.292635 -1.47118 0
      vertex -0.196033 -1.99037 0
    endloop
  endfacet
  facet normal 0 0 -1
    outer loop
      vertex -0.390181 -1.96157 0
      vertex -0.435427 -1.43541 0
      vertex -0.292635 -1.47118 0
    endloop
  endfacet
  facet normal 0 0 -1
    outer loop
      vertex -0.580569 -1.91388 0
      vertex -0.435427 -1.43541 0
      vertex -0.390181 -1.96157 0
    endloop
  endfacet
  facet normal -0 0 -1
    outer loop
      vertex -0.435427 -1.43541 0
      vertex -0.580569 -1.91388 0
      vertex -0.574024 -1.38582 0
    endloop
  endfacet
  facet normal 0 0 -1
    outer loop
      vertex -0.765367 -1.84776 0
      vertex -0.574024 -1.38582 0
      vertex -0.580569 -1.91388 0
    endloop
  endfacet
  facet normal -0 0 -1
    outer loop
      vertex -0.574024 -1.38582 0
      vertex -0.765367 -1.84776 0
      vertex -0.707094 -1.32288 0
    endloop
  endfacet
  facet normal 0 0 -1
    outer loop
      vertex -0.942793 -1.76384 0
      vertex -0.707094 -1.32288 0
      vertex -0.765367 -1.84776 0
    endloop
  endfacet
  facet normal -0 0 -1
    outer loop
      vertex -0.707094 -1.32288 0
      vertex -0.942793 -1.76384 0
      vertex -0.833355 -1.2472 0
    endloop
  endfacet
  facet normal 0 0 -1
    outer loop
      vertex -1.11114 -1.66294 0
      vertex -0.833355 -1.2472 0
      vertex -0.942793 -1.76384 0
    endloop
  endfacet
  facet normal -0 0 -1
    outer loop
      vertex -0.833355 -1.2472 0
      vertex -1.11114 -1.66294 0
      vertex -0.95159 -1.15952 0
    endloop
  endfacet
  facet normal 0 0 -1
    outer loop
      vertex -1.26879 -1.54602 0
      vertex -0.95159 -1.15952 0
      vertex -1.11114 -1.66294 0
    endloop
  endfacet
  facet normal -0 0 -1
    outer loop
      vertex -0.95159 -1.15952 0
      vertex -1.26879 -1.54602 0
      vertex -1.06066 -1.06066 0
    endloop
  endfacet
  facet normal 0 0 -1
    outer loop
      vertex -1.41421 -1.41421 0
      vertex -1.06066 -1.06066 0
      vertex -1.26879 -1.54602 0
    endloop
  endfacet
  facet normal -0 0 -1
    outer loop
      vertex -1.06066 -1.06066 0
      vertex -1.41421 -1.41421 0
      vertex -1.15952 -0.95159 0
    endloop
  endfacet
  facet normal 0 0 -1
    outer loop
      vertex -1.54602 -1.26879 0
      vertex -1.15952 -0.95159 0
      vertex -1.41421 -1.41421 0
    endloop
  endfacet
  facet normal -0 0 -1
    outer loop
      vertex -1.15952 -0.95159 0
      vertex -1.54602 -1.26879 0
      vertex -1.2472 -0.833355 0
    endloop
  endfacet
  facet normal 0 0 -1
    outer loop
      vertex -1.66294 -1.11114 0
      vertex -1.2472 -0.833355 0
      vertex -1.54602 -1.26879 0
    endloop
  endfacet
  facet normal -0 0 -1
    outer loop
      vertex -1.2472 -0.833355 0
      vertex -1.66294 -1.11114 0
      vertex -1.32288 -0.707094 0
    endloop
  endfacet
  facet normal 0 0 -1
    outer loop
      vertex -1.76384 -0.942793 0
      vertex -1.32288 -0.707094 0
      vertex -1.66294 -1.11114 0
    endloop
  endfacet
  facet normal -0 0 -1
    outer loop
      vertex -1.32288 -0.707094 0
      vertex -1.76384 -0.942793 0
      vertex -1.38582 -0.574024 0
    endloop
  endfacet
  facet normal -0 0 -1
    outer loop
      vertex -1.38582 -0.574024 0
      vertex -1.84776 -0.765367 0
      vertex -1.43541 -0.435427 0
    endloop
  endfacet
  facet normal 0 0 -1
    outer loop
      vertex -1.84776 -0.765367 0
      vertex -1.38582 -0.574024 0
      vertex -1.76384 -0.942793 0
    endloop
  endfacet
  facet normal 0 0 -1
    outer loop
      vertex 1.38582 0.574024 0
      vertex 1.84776 0.765367 0
      vertex 1.43541 0.435427 0
    endloop
  endfacet
  facet normal -0 0 -1
    outer loop
      vertex 1.84776 0.765367 0
      vertex 1.38582 0.574024 0
      vertex 1.76384 0.942793 0
    endloop
  endfacet
  facet normal 0 0 -1
    outer loop
      vertex 1.32288 0.707094 0
      vertex 1.76384 0.942793 0
      vertex 1.38582 0.574024 0
    endloop
  endfacet
  facet normal -0 0 -1
    outer loop
      vertex 1.76384 0.942793 0
      vertex 1.32288 0.707094 0
      vertex 1.66294 1.11114 0
    endloop
  endfacet
  facet normal 0 0 -1
    outer loop
      vertex 1.2472 0.833355 0
      vertex 1.66294 1.11114 0
      vertex 1.32288 0.707094 0
    endloop
  endfacet
  facet normal -0 0 -1
    outer loop
      vertex 1.66294 1.11114 0
      vertex 1.2472 0.833355 0
      vertex 1.54602 1.26879 0
    endloop
  endfacet
  facet normal 0 0 -1
    outer loop
      vertex 1.15952 0.95159 0
      vertex 1.54602 1.26879 0
      vertex 1.2472 0.833355 0
    endloop
  endfacet
  facet normal -0 0 -1
    outer loop
      vertex 1.54602 1.26879 0
      vertex 1.15952 0.95159 0
      vertex 1.41421 1.41421 0
    endloop
  endfacet
  facet normal 0 0 -1
    outer loop
      vertex 1.06066 1.06066 0
      vertex 1.41421 1.41421 0
      vertex 1.15952 0.95159 0
    endloop
  endfacet
  facet normal -0 0 -1
    outer loop
      vertex 1.41421 1.41421 0
      vertex 1.06066 1.06066 0
      vertex 1.26879 1.54602 0
    endloop
  endfacet
  facet normal 0 0 -1
    outer loop
      vertex 0.95159 1.15952 0
      vertex 1.26879 1.54602 0
      vertex 1.06066 1.06066 0
    endloop
  endfacet
  facet normal -0 0 -1
    outer loop
      vertex 1.26879 1.54602 0
      vertex 0.95159 1.15952 0
      vertex 1.11114 1.66294 0
    endloop
  endfacet
  facet normal 0 0 -1
    outer loop
      vertex 0.833355 1.2472 0
      vertex 1.11114 1.66294 0
      vertex 0.95159 1.15952 0
    endloop
  endfacet
  facet normal -0 0 -1
    outer loop
      vertex 1.11114 1.66294 0
      vertex 0.833355 1.2472 0
      vertex 0.942793 1.76384 0
    endloop
  endfacet
  facet normal 0 0 -1
    outer loop
      vertex 0.707094 1.32288 0
      vertex 0.942793 1.76384 0
      vertex 0.833355 1.2472 0
    endloop
  endfacet
  facet normal -0 0 -1
    outer loop
      vertex 0.942793 1.76384 0
      vertex 0.707094 1.32288 0
      vertex 0.765367 1.84776 0
    endloop
  endfacet
  facet normal 0 0 -1
    outer loop
      vertex 0.574024 1.38582 0
      vertex 0.765367 1.84776 0
      vertex 0.707094 1.32288 0
    endloop
  endfacet
  facet normal -0 0 -1
    outer loop
      vertex 0.765367 1.84776 0
      vertex 0.574024 1.38582 0
      vertex 0.580569 1.91388 0
    endloop
  endfacet
  facet normal 0 0 -1
    outer loop
      vertex 0.435427 1.43541 0
      vertex 0.580569 1.91388 0
      vertex 0.574024 1.38582 0
    endloop
  endfacet
  facet normal 0 0 -1
    outer loop
      vertex 0.435427 1.43541 0
      vertex 0.390181 1.96157 0
      vertex 0.580569 1.91388 0
    endloop
  endfacet
  facet normal 0 0 -1
    outer loop
      vertex 0.292635 1.47118 0
      vertex 0.390181 1.96157 0
      vertex 0.435427 1.43541 0
    endloop
  endfacet
  facet normal 0 0 -1
    outer loop
      vertex 0.292635 1.47118 0
      vertex 0.196033 1.99037 0
      vertex 0.390181 1.96157 0
    endloop
  endfacet
  facet normal 0 0 -1
    outer loop
      vertex 0.147025 1.49278 0
      vertex 0.196033 1.99037 0
      vertex 0.292635 1.47118 0
    endloop
  endfacet
  facet normal 0 0 -1
    outer loop
      vertex 0 1.5 0
      vertex 0.196033 1.99037 0
      vertex 0.147025 1.49278 0
    endloop
  endfacet
  facet normal 0 0 -1
    outer loop
      vertex 0 1.5 0
      vertex 0 2 0
      vertex 0.196033 1.99037 0
    endloop
  endfacet
  facet normal 0 0 -1
    outer loop
      vertex -0.147025 1.49278 0
      vertex 0 2 0
      vertex 0 1.5 0
    endloop
  endfacet
  facet normal 0 0 -1
    outer loop
      vertex -0.147025 1.49278 0
      vertex -0.196033 1.99037 0
      vertex 0 2 0
    endloop
  endfacet
  facet normal 0 0 -1
    outer loop
      vertex -0.292635 1.47118 0
      vertex -0.196033 1.99037 0
      vertex -0.147025 1.49278 0
    endloop
  endfacet
  facet normal 0 0 -1
    outer loop
      vertex -0.292635 1.47118 0
      vertex -0.390181 1.96157 0
      vertex -0.196033 1.99037 0
    endloop
  endfacet
  facet normal 0 0 -1
    outer loop
      vertex -0.435427 1.43541 0
      vertex -0.390181 1.96157 0
      vertex -0.292635 1.47118 0
    endloop
  endfacet
  facet normal 0 0 -1
    outer loop
      vertex -0.580569 1.91388 0
      vertex -0.435427 1.43541 0
      vertex -0.574024 1.38582 0
    endloop
  endfacet
  facet normal 0 0 -1
    outer loop
      vertex -0.435427 1.43541 0
      vertex -0.580569 1.91388 0
      vertex -0.390181 1.96157 0
    endloop
  endfacet
  facet normal 0 0 -1
    outer loop
      vertex -0.765367 1.84776 0
      vertex -0.574024 1.38582 0
      vertex -0.707094 1.32288 0
    endloop
  endfacet
  facet normal 0 0 -1
    outer loop
      vertex -0.574024 1.38582 0
      vertex -0.765367 1.84776 0
      vertex -0.580569 1.91388 0
    endloop
  endfacet
  facet normal 0 0 -1
    outer loop
      vertex -0.942793 1.76384 0
      vertex -0.707094 1.32288 0
      vertex -0.833355 1.2472 0
    endloop
  endfacet
  facet normal 0 0 -1
    outer loop
      vertex -0.707094 1.32288 0
      vertex -0.942793 1.76384 0
      vertex -0.765367 1.84776 0
    endloop
  endfacet
  facet normal 0 0 -1
    outer loop
      vertex -1.11114 1.66294 0
      vertex -0.833355 1.2472 0
      vertex -0.95159 1.15952 0
    endloop
  endfacet
  facet normal 0 0 -1
    outer loop
      vertex -1.26879 1.54602 0
      vertex -0.95159 1.15952 0
      vertex -1.06066 1.06066 0
    endloop
  endfacet
  facet normal 0 0 -1
    outer loop
      vertex -0.833355 1.2472 0
      vertex -1.11114 1.66294 0
      vertex -0.942793 1.76384 0
    endloop
  endfacet
  facet normal 0 0 -1
    outer loop
      vertex -1.41421 1.41421 0
      vertex -1.06066 1.06066 0
      vertex -1.15952 0.95159 0
    endloop
  endfacet
  facet normal 0 0 -1
    outer loop
      vertex -1.54602 1.26879 0
      vertex -1.15952 0.95159 0
      vertex -1.2472 0.833355 0
    endloop
  endfacet
  facet normal 0 0 -1
    outer loop
      vertex -0.95159 1.15952 0
      vertex -1.26879 1.54602 0
      vertex -1.11114 1.66294 0
    endloop
  endfacet
  facet normal 0 0 -1
    outer loop
      vertex -1.66294 1.11114 0
      vertex -1.2472 0.833355 0
      vertex -1.32288 0.707094 0
    endloop
  endfacet
  facet normal 0 0 -1
    outer loop
      vertex -1.76384 0.942793 0
      vertex -1.32288 0.707094 0
      vertex -1.38582 0.574024 0
    endloop
  endfacet
  facet normal 0 0 -1
    outer loop
      vertex -1.06066 1.06066 0
      vertex -1.41421 1.41421 0
      vertex -1.26879 1.54602 0
    endloop
  endfacet
  facet normal 0 0 -1
    outer loop
      vertex -1.84776 0.765367 0
      vertex -1.38582 0.574024 0
      vertex -1.43541 0.435427 0
    endloop
  endfacet
  facet normal 0 0 -1
    outer loop
      vertex -1.91388 0.580569 0
      vertex -1.43541 0.435427 0
      vertex -1.47118 0.292635 0
    endloop
  endfacet
  facet normal 0 0 -1
    outer loop
      vertex -1.96157 0.390181 0
      vertex -1.47118 0.292635 0
      vertex -1.49278 0.147025 0
    endloop
  endfacet
  facet normal 0 0 -1
    outer loop
      vertex -1.15952 0.95159 0
      vertex -1.54602 1.26879 0
      vertex -1.41421 1.41421 0
    endloop
  endfacet
  facet normal 0 0 -1
    outer loop
      vertex -1.99037 0.196033 0
      vertex -1.49278 0.147025 0
      vertex -1.5 0 0
    endloop
  endfacet
  facet normal 0 0 -1
    outer loop
      vertex -1.91388 -0.580569 0
      vertex -1.43541 -0.435427 0
      vertex -1.84776 -0.765367 0
    endloop
  endfacet
  facet normal -0 0 -1
    outer loop
      vertex -1.43541 -0.435427 0
      vertex -1.91388 -0.580569 0
      vertex -1.47118 -0.292635 0
    endloop
  endfacet
  facet normal 0 0 -1
    outer loop
      vertex -1.2472 0.833355 0
      vertex -1.66294 1.11114 0
      vertex -1.54602 1.26879 0
    endloop
  endfacet
  facet normal 0 0 -1
    outer loop
      vertex -1.96157 -0.390181 0
      vertex -1.47118 -0.292635 0
      vertex -1.91388 -0.580569 0
    endloop
  endfacet
  facet normal 0 0 -1
    outer loop
      vertex -1.32288 0.707094 0
      vertex -1.76384 0.942793 0
      vertex -1.66294 1.11114 0
    endloop
  endfacet
  facet normal -0 0 -1
    outer loop
      vertex -1.47118 -0.292635 0
      vertex -1.96157 -0.390181 0
      vertex -1.49278 -0.147025 0
    endloop
  endfacet
  facet normal 0 0 -1
    outer loop
      vertex -1.38582 0.574024 0
      vertex -1.84776 0.765367 0
      vertex -1.76384 0.942793 0
    endloop
  endfacet
  facet normal 0 0 -1
    outer loop
      vertex -1.99037 -0.196033 0
      vertex -1.49278 -0.147025 0
      vertex -1.96157 -0.390181 0
    endloop
  endfacet
  facet normal 0 0 -1
    outer loop
      vertex -1.43541 0.435427 0
      vertex -1.91388 0.580569 0
      vertex -1.84776 0.765367 0
    endloop
  endfacet
  facet normal -0 0 -1
    outer loop
      vertex -1.49278 -0.147025 0
      vertex -1.99037 -0.196033 0
      vertex -1.5 0 0
    endloop
  endfacet
  facet normal 0 0 -1
    outer loop
      vertex -1.47118 0.292635 0
      vertex -1.96157 0.390181 0
      vertex -1.91388 0.580569 0
    endloop
  endfacet
  facet normal 0 0 -1
    outer loop
      vertex -2 0 0
      vertex -1.5 0 0
      vertex -1.99037 -0.196033 0
    endloop
  endfacet
  facet normal 0 0 -1
    outer loop
      vertex -1.49278 0.147025 0
      vertex -1.99037 0.196033 0
      vertex -1.96157 0.390181 0
    endloop
  endfacet
  facet normal 0 0 -1
    outer loop
      vertex -1.5 0 0
      vertex -2 0 0
      vertex -1.99037 0.196033 0
    endloop
  endfacet
  facet normal -0.941547 -0.336882 0
    outer loop
      vertex -1.84776 -0.765367 0
      vertex -1.91388 -0.580569 10
      vertex -1.91388 -0.580569 0
    endloop
  endfacet
  facet normal -0.941547 -0.336882 0
    outer loop
      vertex -1.91388 -0.580569 10
      vertex -1.84776 -0.765367 0
      vertex -1.84776 -0.765367 10
    endloop
  endfacet
  facet normal -0.146735 0.989176 0
    outer loop
      vertex -0.196033 1.99037 0
      vertex -0.390181 1.96157 10
      vertex -0.196033 1.99037 10
    endloop
  endfacet
  facet normal -0.146735 0.989176 0
    outer loop
      vertex -0.390181 1.96157 10
      vertex -0.196033 1.99037 0
      vertex -0.390181 1.96157 0
    endloop
  endfacet
  facet normal 0.146735 -0.989176 0
    outer loop
      vertex 0.196033 -1.99037 0
      vertex 0.390181 -1.96157 10
      vertex 0.196033 -1.99037 10
    endloop
  endfacet
  facet normal 0.146735 -0.989176 0
    outer loop
      vertex 0.390181 -1.96157 10
      vertex 0.196033 -1.99037 0
      vertex 0.390181 -1.96157 0
    endloop
  endfacet
  facet normal -0.740928 0.671584 0
    outer loop
      vertex -1.54602 1.26879 0
      vertex -1.41421 1.41421 10
      vertex -1.41421 1.41421 0
    endloop
  endfacet
  facet normal -0.740928 0.671584 0
    outer loop
      vertex -1.41421 1.41421 10
      vertex -1.54602 1.26879 0
      vertex -1.54602 1.26879 10
    endloop
  endfacet
  facet normal 0.427571 -0.903982 0
    outer loop
      vertex 0.765367 -1.84776 0
      vertex 0.942793 -1.76384 10
      vertex 0.765367 -1.84776 10
    endloop
  endfacet
  facet normal 0.427571 -0.903982 0
    outer loop
      vertex 0.942793 -1.76384 10
      vertex 0.765367 -1.84776 0
      vertex 0.942793 -1.76384 0
    endloop
  endfacet
  facet normal 0.80321 -0.595695 0
    outer loop
      vertex 1.54602 -1.26879 10
      vertex 1.66294 -1.11114 0
      vertex 1.66294 -1.11114 10
    endloop
  endfacet
  facet normal 0.80321 -0.595695 0
    outer loop
      vertex 1.66294 -1.11114 0
      vertex 1.54602 -1.26879 10
      vertex 1.54602 -1.26879 0
    endloop
  endfacet
  facet normal 0.336882 -0.941547 0
    outer loop
      vertex 0.580569 -1.91388 0
      vertex 0.765367 -1.84776 10
      vertex 0.580569 -1.91388 10
    endloop
  endfacet
  facet normal 0.336882 -0.941547 0
    outer loop
      vertex 0.765367 -1.84776 10
      vertex 0.580569 -1.91388 0
      vertex 0.765367 -1.84776 0
    endloop
  endfacet
  facet normal 0.989176 -0.146735 0
    outer loop
      vertex 1.96157 -0.390181 10
      vertex 1.99037 -0.196033 0
      vertex 1.99037 -0.196033 10
    endloop
  endfacet
  facet normal 0.989176 -0.146735 0
    outer loop
      vertex 1.99037 -0.196033 0
      vertex 1.96157 -0.390181 10
      vertex 1.96157 -0.390181 0
    endloop
  endfacet
  facet normal 0.671584 -0.740928 0
    outer loop
      vertex 1.26879 -1.54602 0
      vertex 1.41421 -1.41421 10
      vertex 1.26879 -1.54602 10
    endloop
  endfacet
  facet normal 0.671584 -0.740928 0
    outer loop
      vertex 1.41421 -1.41421 10
      vertex 1.26879 -1.54602 0
      vertex 1.41421 -1.41421 0
    endloop
  endfacet
  facet normal 0.0490652 0.998796 -0
    outer loop
      vertex 0.196033 1.99037 0
      vertex 0 2 10
      vertex 0.196033 1.99037 10
    endloop
  endfacet
  facet normal 0.0490652 0.998796 0
    outer loop
      vertex 0 2 10
      vertex 0.196033 1.99037 0
      vertex 0 2 0
    endloop
  endfacet
  facet normal 0.427571 0.903982 -0
    outer loop
      vertex 0.942793 1.76384 0
      vertex 0.765367 1.84776 10
      vertex 0.942793 1.76384 10
    endloop
  endfacet
  facet normal 0.427571 0.903982 0
    outer loop
      vertex 0.765367 1.84776 10
      vertex 0.942793 1.76384 0
      vertex 0.765367 1.84776 0
    endloop
  endfacet
  facet normal -0.427571 0.903982 0
    outer loop
      vertex -0.765367 1.84776 0
      vertex -0.942793 1.76384 10
      vertex -0.765367 1.84776 10
    endloop
  endfacet
  facet normal -0.427571 0.903982 0
    outer loop
      vertex -0.942793 1.76384 10
      vertex -0.765367 1.84776 0
      vertex -0.942793 1.76384 0
    endloop
  endfacet
  facet normal -0.857736 -0.51409 0
    outer loop
      vertex -1.66294 -1.11114 0
      vertex -1.76384 -0.942793 10
      vertex -1.76384 -0.942793 0
    endloop
  endfacet
  facet normal -0.857736 -0.51409 0
    outer loop
      vertex -1.76384 -0.942793 10
      vertex -1.66294 -1.11114 0
      vertex -1.66294 -1.11114 10
    endloop
  endfacet
  facet normal -0.242982 -0.970031 0
    outer loop
      vertex -0.580569 -1.91388 0
      vertex -0.390181 -1.96157 10
      vertex -0.580569 -1.91388 10
    endloop
  endfacet
  facet normal -0.242982 -0.970031 -0
    outer loop
      vertex -0.390181 -1.96157 10
      vertex -0.580569 -1.91388 0
      vertex -0.390181 -1.96157 0
    endloop
  endfacet
  facet normal 0.740928 -0.671584 0
    outer loop
      vertex 1.41421 -1.41421 10
      vertex 1.54602 -1.26879 0
      vertex 1.54602 -1.26879 10
    endloop
  endfacet
  facet normal 0.740928 -0.671584 0
    outer loop
      vertex 1.54602 -1.26879 0
      vertex 1.41421 -1.41421 10
      vertex 1.41421 -1.41421 0
    endloop
  endfacet
  facet normal -0.970031 -0.242982 0
    outer loop
      vertex -1.91388 -0.580569 0
      vertex -1.96157 -0.390181 10
      vertex -1.96157 -0.390181 0
    endloop
  endfacet
  facet normal -0.970031 -0.242982 0
    outer loop
      vertex -1.96157 -0.390181 10
      vertex -1.91388 -0.580569 0
      vertex -1.91388 -0.580569 10
    endloop
  endfacet
  facet normal -0.671584 -0.740928 0
    outer loop
      vertex -1.41421 -1.41421 0
      vertex -1.26879 -1.54602 10
      vertex -1.41421 -1.41421 10
    endloop
  endfacet
  facet normal -0.671584 -0.740928 -0
    outer loop
      vertex -1.26879 -1.54602 10
      vertex -1.41421 -1.41421 0
      vertex -1.26879 -1.54602 0
    endloop
  endfacet
  facet normal 0.970031 -0.242982 0
    outer loop
      vertex 1.91388 -0.580569 10
      vertex 1.96157 -0.390181 0
      vertex 1.96157 -0.390181 10
    endloop
  endfacet
  facet normal 0.970031 -0.242982 0
    outer loop
      vertex 1.96157 -0.390181 0
      vertex 1.91388 -0.580569 10
      vertex 1.91388 -0.580569 0
    endloop
  endfacet
  facet normal -0.336882 0.941547 0
    outer loop
      vertex -0.580569 1.91388 0
      vertex -0.765367 1.84776 10
      vertex -0.580569 1.91388 10
    endloop
  endfacet
  facet normal -0.336882 0.941547 0
    outer loop
      vertex -0.765367 1.84776 10
      vertex -0.580569 1.91388 0
      vertex -0.765367 1.84776 0
    endloop
  endfacet
  facet normal -0.595695 0.80321 0
    outer loop
      vertex -1.11114 1.66294 0
      vertex -1.26879 1.54602 10
      vertex -1.11114 1.66294 10
    endloop
  endfacet
  facet normal -0.595695 0.80321 0
    outer loop
      vertex -1.26879 1.54602 10
      vertex -1.11114 1.66294 0
      vertex -1.26879 1.54602 0
    endloop
  endfacet
  facet normal 0.242982 -0.970031 0
    outer loop
      vertex 0.390181 -1.96157 0
      vertex 0.580569 -1.91388 10
      vertex 0.390181 -1.96157 10
    endloop
  endfacet
  facet normal 0.242982 -0.970031 0
    outer loop
      vertex 0.580569 -1.91388 10
      vertex 0.390181 -1.96157 0
      vertex 0.580569 -1.91388 0
    endloop
  endfacet
  facet normal -0.242982 0.970031 0
    outer loop
      vertex -0.390181 1.96157 0
      vertex -0.580569 1.91388 10
      vertex -0.390181 1.96157 10
    endloop
  endfacet
  facet normal -0.242982 0.970031 0
    outer loop
      vertex -0.580569 1.91388 10
      vertex -0.390181 1.96157 0
      vertex -0.580569 1.91388 0
    endloop
  endfacet
  facet normal 0.80321 0.595695 0
    outer loop
      vertex 1.66294 1.11114 10
      vertex 1.54602 1.26879 0
      vertex 1.54602 1.26879 10
    endloop
  endfacet
  facet normal 0.80321 0.595695 0
    outer loop
      vertex 1.54602 1.26879 0
      vertex 1.66294 1.11114 10
      vertex 1.66294 1.11114 0
    endloop
  endfacet
  facet normal -0.857736 0.51409 0
    outer loop
      vertex -1.76384 0.942793 0
      vertex -1.66294 1.11114 10
      vertex -1.66294 1.11114 0
    endloop
  endfacet
  facet normal -0.857736 0.51409 0
    outer loop
      vertex -1.66294 1.11114 10
      vertex -1.76384 0.942793 0
      vertex -1.76384 0.942793 10
    endloop
  endfacet
  facet normal 0 0 1
    outer loop
      vertex 1.5 0 10
      vertex 2 0 10
      vertex 1.99037 0.196033 10
    endloop
  endfacet
  facet normal 0 0 1
    outer loop
      vertex 1.49278 0.147025 10
      vertex 1.99037 0.196033 10
      vertex 1.96157 0.390181 10
    endloop
  endfacet
  facet normal 0 0 1
    outer loop
      vertex 2 0 10
      vertex 1.5 0 10
      vertex 1.99037 -0.196033 10
    endloop
  endfacet
  facet normal 0 0 1
    outer loop
      vertex 1.47118 0.292635 10
      vertex 1.96157 0.390181 10
      vertex 1.91388 0.580569 10
    endloop
  endfacet
  facet normal -0 0 1
    outer loop
      vertex 1.49278 -0.147025 10
      vertex 1.99037 -0.196033 10
      vertex 1.5 0 10
    endloop
  endfacet
  facet normal 0 0 1
    outer loop
      vertex 1.43541 0.435427 10
      vertex 1.91388 0.580569 10
      vertex 1.84776 0.765367 10
    endloop
  endfacet
  facet normal 0 0 1
    outer loop
      vertex 1.99037 -0.196033 10
      vertex 1.49278 -0.147025 10
      vertex 1.96157 -0.390181 10
    endloop
  endfacet
  facet normal 0 0 1
    outer loop
      vertex 1.38582 0.574024 10
      vertex 1.84776 0.765367 10
      vertex 1.76384 0.942793 10
    endloop
  endfacet
  facet normal -0 0 1
    outer loop
      vertex 1.47118 -0.292635 10
      vertex 1.96157 -0.390181 10
      vertex 1.49278 -0.147025 10
    endloop
  endfacet
  facet normal 0 0 1
    outer loop
      vertex 1.32288 0.707094 10
      vertex 1.76384 0.942793 10
      vertex 1.66294 1.11114 10
    endloop
  endfacet
  facet normal 0 0 1
    outer loop
      vertex 1.96157 -0.390181 10
      vertex 1.47118 -0.292635 10
      vertex 1.91388 -0.580569 10
    endloop
  endfacet
  facet normal 0 0 1
    outer loop
      vertex 1.2472 0.833355 10
      vertex 1.66294 1.11114 10
      vertex 1.54602 1.26879 10
    endloop
  endfacet
  facet normal -0 0 1
    outer loop
      vertex 1.43541 -0.435427 10
      vertex 1.91388 -0.580569 10
      vertex 1.47118 -0.292635 10
    endloop
  endfacet
  facet normal 0 0 1
    outer loop
      vertex 1.91388 -0.580569 10
      vertex 1.43541 -0.435427 10
      vertex 1.84776 -0.765367 10
    endloop
  endfacet
  facet normal 0 0 1
    outer loop
      vertex 1.99037 0.196033 10
      vertex 1.49278 0.147025 10
      vertex 1.5 0 10
    endloop
  endfacet
  facet normal 0 0 1
    outer loop
      vertex 1.96157 0.390181 10
      vertex 1.47118 0.292635 10
      vertex 1.49278 0.147025 10
    endloop
  endfacet
  facet normal 0 0 1
    outer loop
      vertex 1.91388 0.580569 10
      vertex 1.43541 0.435427 10
      vertex 1.47118 0.292635 10
    endloop
  endfacet
  facet normal 0 0 1
    outer loop
      vertex 1.15952 0.95159 10
      vertex 1.54602 1.26879 10
      vertex 1.41421 1.41421 10
    endloop
  endfacet
  facet normal 0 0 1
    outer loop
      vertex 1.84776 0.765367 10
      vertex 1.38582 0.574024 10
      vertex 1.43541 0.435427 10
    endloop
  endfacet
  facet normal 0 0 1
    outer loop
      vertex 1.76384 0.942793 10
      vertex 1.32288 0.707094 10
      vertex 1.38582 0.574024 10
    endloop
  endfacet
  facet normal 0 0 1
    outer loop
      vertex 1.06066 1.06066 10
      vertex 1.41421 1.41421 10
      vertex 1.26879 1.54602 10
    endloop
  endfacet
  facet normal 0 0 1
    outer loop
      vertex 1.66294 1.11114 10
      vertex 1.2472 0.833355 10
      vertex 1.32288 0.707094 10
    endloop
  endfacet
  facet normal 0 0 1
    outer loop
      vertex 1.54602 1.26879 10
      vertex 1.15952 0.95159 10
      vertex 1.2472 0.833355 10
    endloop
  endfacet
  facet normal 0 0 1
    outer loop
      vertex 0.95159 1.15952 10
      vertex 1.26879 1.54602 10
      vertex 1.11114 1.66294 10
    endloop
  endfacet
  facet normal 0 0 1
    outer loop
      vertex 1.41421 1.41421 10
      vertex 1.06066 1.06066 10
      vertex 1.15952 0.95159 10
    endloop
  endfacet
  facet normal 0 0 1
    outer loop
      vertex 1.26879 1.54602 10
      vertex 0.95159 1.15952 10
      vertex 1.06066 1.06066 10
    endloop
  endfacet
  facet normal 0 0 1
    outer loop
      vertex 0.833355 1.2472 10
      vertex 1.11114 1.66294 10
      vertex 0.942793 1.76384 10
    endloop
  endfacet
  facet normal 0 0 1
    outer loop
      vertex 1.11114 1.66294 10
      vertex 0.833355 1.2472 10
      vertex 0.95159 1.15952 10
    endloop
  endfacet
  facet normal 0 0 1
    outer loop
      vertex 0.707094 1.32288 10
      vertex 0.942793 1.76384 10
      vertex 0.765367 1.84776 10
    endloop
  endfacet
  facet normal 0 0 1
    outer loop
      vertex 0.942793 1.76384 10
      vertex 0.707094 1.32288 10
      vertex 0.833355 1.2472 10
    endloop
  endfacet
  facet normal 0 0 1
    outer loop
      vertex 0.574024 1.38582 10
      vertex 0.765367 1.84776 10
      vertex 0.580569 1.91388 10
    endloop
  endfacet
  facet normal 0 0 1
    outer loop
      vertex 0.765367 1.84776 10
      vertex 0.574024 1.38582 10
      vertex 0.707094 1.32288 10
    endloop
  endfacet
  facet normal 0 0 1
    outer loop
      vertex 0.580569 1.91388 10
      vertex 0.435427 1.43541 10
      vertex 0.574024 1.38582 10
    endloop
  endfacet
  facet normal 0 0 1
    outer loop
      vertex 0.390181 1.96157 10
      vertex 0.435427 1.43541 10
      vertex 0.580569 1.91388 10
    endloop
  endfacet
  facet normal 0 0 1
    outer loop
      vertex 0.390181 1.96157 10
      vertex 0.292635 1.47118 10
      vertex 0.435427 1.43541 10
    endloop
  endfacet
  facet normal 0 0 1
    outer loop
      vertex 0.196033 1.99037 10
      vertex 0.292635 1.47118 10
      vertex 0.390181 1.96157 10
    endloop
  endfacet
  facet normal 0 0 1
    outer loop
      vertex 0.196033 1.99037 10
      vertex 0.147025 1.49278 10
      vertex 0.292635 1.47118 10
    endloop
  endfacet
  facet normal 0 0 1
    outer loop
      vertex 0 2 10
      vertex 0.147025 1.49278 10
      vertex 0.196033 1.99037 10
    endloop
  endfacet
  facet normal 0 0 1
    outer loop
      vertex 0 2 10
      vertex 0 1.5 10
      vertex 0.147025 1.49278 10
    endloop
  endfacet
  facet normal 0 0 1
    outer loop
      vertex 0 2 10
      vertex -0.147025 1.49278 10
      vertex 0 1.5 10
    endloop
  endfacet
  facet normal -0 0 1
    outer loop
      vertex -0.196033 1.99037 10
      vertex -0.147025 1.49278 10
      vertex 0 2 10
    endloop
  endfacet
  facet normal 0 0 1
    outer loop
      vertex -0.196033 1.99037 10
      vertex -0.292635 1.47118 10
      vertex -0.147025 1.49278 10
    endloop
  endfacet
  facet normal -0 0 1
    outer loop
      vertex -0.390181 1.96157 10
      vertex -0.292635 1.47118 10
      vertex -0.196033 1.99037 10
    endloop
  endfacet
  facet normal 0 0 1
    outer loop
      vertex -0.390181 1.96157 10
      vertex -0.435427 1.43541 10
      vertex -0.292635 1.47118 10
    endloop
  endfacet
  facet normal -0 0 1
    outer loop
      vertex -0.580569 1.91388 10
      vertex -0.435427 1.43541 10
      vertex -0.390181 1.96157 10
    endloop
  endfacet
  facet normal 0 0 1
    outer loop
      vertex -0.435427 1.43541 10
      vertex -0.580569 1.91388 10
      vertex -0.574024 1.38582 10
    endloop
  endfacet
  facet normal -0 0 1
    outer loop
      vertex -0.765367 1.84776 10
      vertex -0.574024 1.38582 10
      vertex -0.580569 1.91388 10
    endloop
  endfacet
  facet normal 0 0 1
    outer loop
      vertex -0.574024 1.38582 10
      vertex -0.765367 1.84776 10
      vertex -0.707094 1.32288 10
    endloop
  endfacet
  facet normal -0 0 1
    outer loop
      vertex -0.942793 1.76384 10
      vertex -0.707094 1.32288 10
      vertex -0.765367 1.84776 10
    endloop
  endfacet
  facet normal 0 0 1
    outer loop
      vertex -0.707094 1.32288 10
      vertex -0.942793 1.76384 10
      vertex -0.833355 1.2472 10
    endloop
  endfacet
  facet normal -0 0 1
    outer loop
      vertex -1.11114 1.66294 10
      vertex -0.833355 1.2472 10
      vertex -0.942793 1.76384 10
    endloop
  endfacet
  facet normal 0 0 1
    outer loop
      vertex -0.833355 1.2472 10
      vertex -1.11114 1.66294 10
      vertex -0.95159 1.15952 10
    endloop
  endfacet
  facet normal -0 0 1
    outer loop
      vertex -1.26879 1.54602 10
      vertex -0.95159 1.15952 10
      vertex -1.11114 1.66294 10
    endloop
  endfacet
  facet normal 0 0 1
    outer loop
      vertex -0.95159 1.15952 10
      vertex -1.26879 1.54602 10
      vertex -1.06066 1.06066 10
    endloop
  endfacet
  facet normal -0 0 1
    outer loop
      vertex -1.41421 1.41421 10
      vertex -1.06066 1.06066 10
      vertex -1.26879 1.54602 10
    endloop
  endfacet
  facet normal 0 0 1
    outer loop
      vertex -1.06066 1.06066 10
      vertex -1.41421 1.41421 10
      vertex -1.15952 0.95159 10
    endloop
  endfacet
  facet normal -0 0 1
    outer loop
      vertex -1.54602 1.26879 10
      vertex -1.15952 0.95159 10
      vertex -1.41421 1.41421 10
    endloop
  endfacet
  facet normal 0 0 1
    outer loop
      vertex -1.15952 0.95159 10
      vertex -1.54602 1.26879 10
      vertex -1.2472 0.833355 10
    endloop
  endfacet
  facet normal -0 0 1
    outer loop
      vertex -1.66294 1.11114 10
      vertex -1.2472 0.833355 10
      vertex -1.54602 1.26879 10
    endloop
  endfacet
  facet normal 0 0 1
    outer loop
      vertex -1.2472 0.833355 10
      vertex -1.66294 1.11114 10
      vertex -1.32288 0.707094 10
    endloop
  endfacet
  facet normal -0 0 1
    outer loop
      vertex -1.76384 0.942793 10
      vertex -1.32288 0.707094 10
      vertex -1.66294 1.11114 10
    endloop
  endfacet
  facet normal 0 0 1
    outer loop
      vertex -1.32288 0.707094 10
      vertex -1.76384 0.942793 10
      vertex -1.38582 0.574024 10
    endloop
  endfacet
  facet normal 0 0 1
    outer loop
      vertex -1.38582 0.574024 10
      vertex -1.84776 0.765367 10
      vertex -1.43541 0.435427 10
    endloop
  endfacet
  facet normal -0 0 1
    outer loop
      vertex -1.84776 0.765367 10
      vertex -1.38582 0.574024 10
      vertex -1.76384 0.942793 10
    endloop
  endfacet
  facet normal -0 0 1
    outer loop
      vertex 1.38582 -0.574024 10
      vertex 1.84776 -0.765367 10
      vertex 1.43541 -0.435427 10
    endloop
  endfacet
  facet normal 0 0 1
    outer loop
      vertex 1.84776 -0.765367 10
      vertex 1.38582 -0.574024 10
      vertex 1.76384 -0.942793 10
    endloop
  endfacet
  facet normal -0 0 1
    outer loop
      vertex 1.32288 -0.707094 10
      vertex 1.76384 -0.942793 10
      vertex 1.38582 -0.574024 10
    endloop
  endfacet
  facet normal 0 0 1
    outer loop
      vertex 1.76384 -0.942793 10
      vertex 1.32288 -0.707094 10
      vertex 1.66294 -1.11114 10
    endloop
  endfacet
  facet normal -0 0 1
    outer loop
      vertex 1.2472 -0.833355 10
      vertex 1.66294 -1.11114 10
      vertex 1.32288 -0.707094 10
    endloop
  endfacet
  facet normal 0 0 1
    outer loop
      vertex 1.66294 -1.11114 10
      vertex 1.2472 -0.833355 10
      vertex 1.54602 -1.26879 10
    endloop
  endfacet
  facet normal -0 0 1
    outer loop
      vertex 1.15952 -0.95159 10
      vertex 1.54602 -1.26879 10
      vertex 1.2472 -0.833355 10
    endloop
  endfacet
  facet normal 0 0 1
    outer loop
      vertex 1.54602 -1.26879 10
      vertex 1.15952 -0.95159 10
      vertex 1.41421 -1.41421 10
    endloop
  endfacet
  facet normal -0 0 1
    outer loop
      vertex 1.06066 -1.06066 10
      vertex 1.41421 -1.41421 10
      vertex 1.15952 -0.95159 10
    endloop
  endfacet
  facet normal 0 0 1
    outer loop
      vertex 1.41421 -1.41421 10
      vertex 1.06066 -1.06066 10
      vertex 1.26879 -1.54602 10
    endloop
  endfacet
  facet normal -0 0 1
    outer loop
      vertex 0.95159 -1.15952 10
      vertex 1.26879 -1.54602 10
      vertex 1.06066 -1.06066 10
    endloop
  endfacet
  facet normal 0 0 1
    outer loop
      vertex 1.26879 -1.54602 10
      vertex 0.95159 -1.15952 10
      vertex 1.11114 -1.66294 10
    endloop
  endfacet
  facet normal -0 0 1
    outer loop
      vertex 0.833355 -1.2472 10
      vertex 1.11114 -1.66294 10
      vertex 0.95159 -1.15952 10
    endloop
  endfacet
  facet normal 0 0 1
    outer loop
      vertex 1.11114 -1.66294 10
      vertex 0.833355 -1.2472 10
      vertex 0.942793 -1.76384 10
    endloop
  endfacet
  facet normal -0 0 1
    outer loop
      vertex 0.707094 -1.32288 10
      vertex 0.942793 -1.76384 10
      vertex 0.833355 -1.2472 10
    endloop
  endfacet
  facet normal 0 0 1
    outer loop
      vertex 0.942793 -1.76384 10
      vertex 0.707094 -1.32288 10
      vertex 0.765367 -1.84776 10
    endloop
  endfacet
  facet normal -0 0 1
    outer loop
      vertex 0.574024 -1.38582 10
      vertex 0.765367 -1.84776 10
      vertex 0.707094 -1.32288 10
    endloop
  endfacet
  facet normal 0 0 1
    outer loop
      vertex 0.765367 -1.84776 10
      vertex 0.574024 -1.38582 10
      vertex 0.580569 -1.91388 10
    endloop
  endfacet
  facet normal -0 0 1
    outer loop
      vertex 0.435427 -1.43541 10
      vertex 0.580569 -1.91388 10
      vertex 0.574024 -1.38582 10
    endloop
  endfacet
  facet normal 0 0 1
    outer loop
      vertex 0.435427 -1.43541 10
      vertex 0.390181 -1.96157 10
      vertex 0.580569 -1.91388 10
    endloop
  endfacet
  facet normal -0 0 1
    outer loop
      vertex 0.292635 -1.47118 10
      vertex 0.390181 -1.96157 10
      vertex 0.435427 -1.43541 10
    endloop
  endfacet
  facet normal 0 0 1
    outer loop
      vertex 0.292635 -1.47118 10
      vertex 0.196033 -1.99037 10
      vertex 0.390181 -1.96157 10
    endloop
  endfacet
  facet normal -0 0 1
    outer loop
      vertex 0.147025 -1.49278 10
      vertex 0.196033 -1.99037 10
      vertex 0.292635 -1.47118 10
    endloop
  endfacet
  facet normal -0 0 1
    outer loop
      vertex 0 -1.5 10
      vertex 0.196033 -1.99037 10
      vertex 0.147025 -1.49278 10
    endloop
  endfacet
  facet normal 0 0 1
    outer loop
      vertex 0 -1.5 10
      vertex 0 -2 10
      vertex 0.196033 -1.99037 10
    endloop
  endfacet
  facet normal 0 0 1
    outer loop
      vertex -0.147025 -1.49278 10
      vertex 0 -2 10
      vertex 0 -1.5 10
    endloop
  endfacet
  facet normal 0 0 1
    outer loop
      vertex -0.147025 -1.49278 10
      vertex -0.196033 -1.99037 10
      vertex 0 -2 10
    endloop
  endfacet
  facet normal 0 0 1
    outer loop
      vertex -0.292635 -1.47118 10
      vertex -0.196033 -1.99037 10
      vertex -0.147025 -1.49278 10
    endloop
  endfacet
  facet normal 0 0 1
    outer loop
      vertex -0.292635 -1.47118 10
      vertex -0.390181 -1.96157 10
      vertex -0.196033 -1.99037 10
    endloop
  endfacet
  facet normal 0 0 1
    outer loop
      vertex -0.435427 -1.43541 10
      vertex -0.390181 -1.96157 10
      vertex -0.292635 -1.47118 10
    endloop
  endfacet
  facet normal 0 0 1
    outer loop
      vertex -0.580569 -1.91388 10
      vertex -0.435427 -1.43541 10
      vertex -0.574024 -1.38582 10
    endloop
  endfacet
  facet normal 0 0 1
    outer loop
      vertex -0.435427 -1.43541 10
      vertex -0.580569 -1.91388 10
      vertex -0.390181 -1.96157 10
    endloop
  endfacet
  facet normal 0 0 1
    outer loop
      vertex -0.765367 -1.84776 10
      vertex -0.574024 -1.38582 10
      vertex -0.707094 -1.32288 10
    endloop
  endfacet
  facet normal 0 0 1
    outer loop
      vertex -0.574024 -1.38582 10
      vertex -0.765367 -1.84776 10
      vertex -0.580569 -1.91388 10
    endloop
  endfacet
  facet normal 0 0 1
    outer loop
      vertex -0.942793 -1.76384 10
      vertex -0.707094 -1.32288 10
      vertex -0.833355 -1.2472 10
    endloop
  endfacet
  facet normal 0 0 1
    outer loop
      vertex -0.707094 -1.32288 10
      vertex -0.942793 -1.76384 10
      vertex -0.765367 -1.84776 10
    endloop
  endfacet
  facet normal 0 0 1
    outer loop
      vertex -1.11114 -1.66294 10
      vertex -0.833355 -1.2472 10
      vertex -0.95159 -1.15952 10
    endloop
  endfacet
  facet normal 0 0 1
    outer loop
      vertex -1.26879 -1.54602 10
      vertex -0.95159 -1.15952 10
      vertex -1.06066 -1.06066 10
    endloop
  endfacet
  facet normal 0 0 1
    outer loop
      vertex -0.833355 -1.2472 10
      vertex -1.11114 -1.66294 10
      vertex -0.942793 -1.76384 10
    endloop
  endfacet
  facet normal 0 0 1
    outer loop
      vertex -1.41421 -1.41421 10
      vertex -1.06066 -1.06066 10
      vertex -1.15952 -0.95159 10
    endloop
  endfacet
  facet normal 0 0 1
    outer loop
      vertex -1.54602 -1.26879 10
      vertex -1.15952 -0.95159 10
      vertex -1.2472 -0.833355 10
    endloop
  endfacet
  facet normal 0 0 1
    outer loop
      vertex -0.95159 -1.15952 10
      vertex -1.26879 -1.54602 10
      vertex -1.11114 -1.66294 10
    endloop
  endfacet
  facet normal 0 0 1
    outer loop
      vertex -1.66294 -1.11114 10
      vertex -1.2472 -0.833355 10
      vertex -1.32288 -0.707094 10
    endloop
  endfacet
  facet normal 0 0 1
    outer loop
      vertex -1.76384 -0.942793 10
      vertex -1.32288 -0.707094 10
      vertex -1.38582 -0.574024 10
    endloop
  endfacet
  facet normal 0 0 1
    outer loop
      vertex -1.06066 -1.06066 10
      vertex -1.41421 -1.41421 10
      vertex -1.26879 -1.54602 10
    endloop
  endfacet
  facet normal 0 0 1
    outer loop
      vertex -1.84776 -0.765367 10
      vertex -1.38582 -0.574024 10
      vertex -1.43541 -0.435427 10
    endloop
  endfacet
  facet normal 0 0 1
    outer loop
      vertex -1.91388 -0.580569 10
      vertex -1.43541 -0.435427 10
      vertex -1.47118 -0.292635 10
    endloop
  endfacet
  facet normal 0 0 1
    outer loop
      vertex -1.96157 -0.390181 10
      vertex -1.47118 -0.292635 10
      vertex -1.49278 -0.147025 10
    endloop
  endfacet
  facet normal 0 0 1
    outer loop
      vertex -1.15952 -0.95159 10
      vertex -1.54602 -1.26879 10
      vertex -1.41421 -1.41421 10
    endloop
  endfacet
  facet normal 0 0 1
    outer loop
      vertex -1.99037 -0.196033 10
      vertex -1.49278 -0.147025 10
      vertex -1.5 0 10
    endloop
  endfacet
  facet normal -0 0 1
    outer loop
      vertex -1.91388 0.580569 10
      vertex -1.43541 0.435427 10
      vertex -1.84776 0.765367 10
    endloop
  endfacet
  facet normal 0 0 1
    outer loop
      vertex -1.43541 0.435427 10
      vertex -1.91388 0.580569 10
      vertex -1.47118 0.292635 10
    endloop
  endfacet
  facet normal 0 0 1
    outer loop
      vertex -1.2472 -0.833355 10
      vertex -1.66294 -1.11114 10
      vertex -1.54602 -1.26879 10
    endloop
  endfacet
  facet normal -0 0 1
    outer loop
      vertex -1.96157 0.390181 10
      vertex -1.47118 0.292635 10
      vertex -1.91388 0.580569 10
    endloop
  endfacet
  facet normal 0 0 1
    outer loop
      vertex -1.32288 -0.707094 10
      vertex -1.76384 -0.942793 10
      vertex -1.66294 -1.11114 10
    endloop
  endfacet
  facet normal 0 0 1
    outer loop
      vertex -1.47118 0.292635 10
      vertex -1.96157 0.390181 10
      vertex -1.49278 0.147025 10
    endloop
  endfacet
  facet normal 0 0 1
    outer loop
      vertex -1.38582 -0.574024 10
      vertex -1.84776 -0.765367 10
      vertex -1.76384 -0.942793 10
    endloop
  endfacet
  facet normal -0 0 1
    outer loop
      vertex -1.99037 0.196033 10
      vertex -1.49278 0.147025 10
      vertex -1.96157 0.390181 10
    endloop
  endfacet
  facet normal 0 0 1
    outer loop
      vertex -1.43541 -0.435427 10
      vertex -1.91388 -0.580569 10
      vertex -1.84776 -0.765367 10
    endloop
  endfacet
  facet normal 0 0 1
    outer loop
      vertex -1.49278 0.147025 10
      vertex -1.99037 0.196033 10
      vertex -1.5 0 10
    endloop
  endfacet
  facet normal 0 0 1
    outer loop
      vertex -1.47118 -0.292635 10
      vertex -1.96157 -0.390181 10
      vertex -1.91388 -0.580569 10
    endloop
  endfacet
  facet normal 0 0 1
    outer loop
      vertex -2 0 10
      vertex -1.5 0 10
      vertex -1.99037 0.196033 10
    endloop
  endfacet
  facet normal 0 0 1
    outer loop
      vertex -1.49278 -0.147025 10
      vertex -1.99037 -0.196033 10
      vertex -1.96157 -0.390181 10
    endloop
  endfacet
  facet normal 0 0 1
    outer loop
      vertex -1.5 0 10
      vertex -2 0 10
      vertex -1.99037 -0.196033 10
    endloop
  endfacet
  facet normal 0.146735 0.989176 -0
    outer loop
      vertex 0.390181 1.96157 0
      vertex 0.196033 1.99037 10
      vertex 0.390181 1.96157 10
    endloop
  endfacet
  facet normal 0.146735 0.989176 0
    outer loop
      vertex 0.196033 1.99037 10
      vertex 0.390181 1.96157 0
      vertex 0.196033 1.99037 0
    endloop
  endfacet
  facet normal 0.998796 -0.0490652 0
    outer loop
      vertex 1.99037 -0.196033 10
      vertex 2 0 0
      vertex 2 0 10
    endloop
  endfacet
  facet normal 0.998796 -0.0490652 0
    outer loop
      vertex 2 0 0
      vertex 1.99037 -0.196033 10
      vertex 1.99037 -0.196033 0
    endloop
  endfacet
  facet normal 0.903982 -0.427571 0
    outer loop
      vertex 1.76384 -0.942793 10
      vertex 1.84776 -0.765367 0
      vertex 1.84776 -0.765367 10
    endloop
  endfacet
  facet normal 0.903982 -0.427571 0
    outer loop
      vertex 1.84776 -0.765367 0
      vertex 1.76384 -0.942793 10
      vertex 1.76384 -0.942793 0
    endloop
  endfacet
  facet normal 0.242982 0.970031 -0
    outer loop
      vertex 0.580569 1.91388 0
      vertex 0.390181 1.96157 10
      vertex 0.580569 1.91388 10
    endloop
  endfacet
  facet normal 0.242982 0.970031 0
    outer loop
      vertex 0.390181 1.96157 10
      vertex 0.580569 1.91388 0
      vertex 0.390181 1.96157 0
    endloop
  endfacet
  facet normal 0.51409 0.857736 -0
    outer loop
      vertex 1.11114 1.66294 0
      vertex 0.942793 1.76384 10
      vertex 1.11114 1.66294 10
    endloop
  endfacet
  facet normal 0.51409 0.857736 0
    outer loop
      vertex 0.942793 1.76384 10
      vertex 1.11114 1.66294 0
      vertex 0.942793 1.76384 0
    endloop
  endfacet
  facet normal 0.595695 0.80321 -0
    outer loop
      vertex 1.26879 1.54602 0
      vertex 1.11114 1.66294 10
      vertex 1.26879 1.54602 10
    endloop
  endfacet
  facet normal 0.595695 0.80321 0
    outer loop
      vertex 1.11114 1.66294 10
      vertex 1.26879 1.54602 0
      vertex 1.11114 1.66294 0
    endloop
  endfacet
  facet normal 0.0490652 -0.998796 0
    outer loop
      vertex 0 -2 0
      vertex 0.196033 -1.99037 10
      vertex 0 -2 10
    endloop
  endfacet
  facet normal 0.0490652 -0.998796 0
    outer loop
      vertex 0.196033 -1.99037 10
      vertex 0 -2 0
      vertex 0.196033 -1.99037 0
    endloop
  endfacet
  facet normal 0.941547 0.336882 0
    outer loop
      vertex 1.91388 0.580569 10
      vertex 1.84776 0.765367 0
      vertex 1.84776 0.765367 10
    endloop
  endfacet
  facet normal 0.941547 0.336882 0
    outer loop
      vertex 1.84776 0.765367 0
      vertex 1.91388 0.580569 10
      vertex 1.91388 0.580569 0
    endloop
  endfacet
  facet normal 0.857736 -0.51409 0
    outer loop
      vertex 1.66294 -1.11114 10
      vertex 1.76384 -0.942793 0
      vertex 1.76384 -0.942793 10
    endloop
  endfacet
  facet normal 0.857736 -0.51409 0
    outer loop
      vertex 1.76384 -0.942793 0
      vertex 1.66294 -1.11114 10
      vertex 1.66294 -1.11114 0
    endloop
  endfacet
  facet normal -0.998796 0.0490652 0
    outer loop
      vertex -2 0 0
      vertex -1.99037 0.196033 10
      vertex -1.99037 0.196033 0
    endloop
  endfacet
  facet normal -0.998796 0.0490652 0
    outer loop
      vertex -1.99037 0.196033 10
      vertex -2 0 0
      vertex -2 0 10
    endloop
  endfacet
  facet normal 0.941547 -0.336882 0
    outer loop
      vertex 1.84776 -0.765367 10
      vertex 1.91388 -0.580569 0
      vertex 1.91388 -0.580569 10
    endloop
  endfacet
  facet normal 0.941547 -0.336882 0
    outer loop
      vertex 1.91388 -0.580569 0
      vertex 1.84776 -0.765367 10
      vertex 1.84776 -0.765367 0
    endloop
  endfacet
  facet normal 0.740928 0.671584 0
    outer loop
      vertex 1.54602 1.26879 10
      vertex 1.41421 1.41421 0
      vertex 1.41421 1.41421 10
    endloop
  endfacet
  facet normal 0.740928 0.671584 0
    outer loop
      vertex 1.41421 1.41421 0
      vertex 1.54602 1.26879 10
      vertex 1.54602 1.26879 0
    endloop
  endfacet
  facet normal 0.903982 0.427571 0
    outer loop
      vertex 1.84776 0.765367 10
      vertex 1.76384 0.942793 0
      vertex 1.76384 0.942793 10
    endloop
  endfacet
  facet normal 0.903982 0.427571 0
    outer loop
      vertex 1.76384 0.942793 0
      vertex 1.84776 0.765367 10
      vertex 1.84776 0.765367 0
    endloop
  endfacet
  facet normal 0.595695 -0.80321 0
    outer loop
      vertex 1.11114 -1.66294 0
      vertex 1.26879 -1.54602 10
      vertex 1.11114 -1.66294 10
    endloop
  endfacet
  facet normal 0.595695 -0.80321 0
    outer loop
      vertex 1.26879 -1.54602 10
      vertex 1.11114 -1.66294 0
      vertex 1.26879 -1.54602 0
    endloop
  endfacet
  facet normal 0.857736 0.51409 0
    outer loop
      vertex 1.76384 0.942793 10
      vertex 1.66294 1.11114 0
      vertex 1.66294 1.11114 10
    endloop
  endfacet
  facet normal 0.857736 0.51409 0
    outer loop
      vertex 1.66294 1.11114 0
      vertex 1.76384 0.942793 10
      vertex 1.76384 0.942793 0
    endloop
  endfacet
  facet normal -0.671584 0.740928 0
    outer loop
      vertex -1.26879 1.54602 0
      vertex -1.41421 1.41421 10
      vertex -1.26879 1.54602 10
    endloop
  endfacet
  facet normal -0.671584 0.740928 0
    outer loop
      vertex -1.41421 1.41421 10
      vertex -1.26879 1.54602 0
      vertex -1.41421 1.41421 0
    endloop
  endfacet
  facet normal -0.903982 0.427571 0
    outer loop
      vertex -1.84776 0.765367 0
      vertex -1.76384 0.942793 10
      vertex -1.76384 0.942793 0
    endloop
  endfacet
  facet normal -0.903982 0.427571 0
    outer loop
      vertex -1.76384 0.942793 10
      vertex -1.84776 0.765367 0
      vertex -1.84776 0.765367 10
    endloop
  endfacet
  facet normal 0.671584 0.740928 -0
    outer loop
      vertex 1.41421 1.41421 0
      vertex 1.26879 1.54602 10
      vertex 1.41421 1.41421 10
    endloop
  endfacet
  facet normal 0.671584 0.740928 0
    outer loop
      vertex 1.26879 1.54602 10
      vertex 1.41421 1.41421 0
      vertex 1.26879 1.54602 0
    endloop
  endfacet
  facet normal -0.0490652 0.998796 0
    outer loop
      vertex 0 2 0
      vertex -0.196033 1.99037 10
      vertex 0 2 10
    endloop
  endfacet
  facet normal -0.0490652 0.998796 0
    outer loop
      vertex -0.196033 1.99037 10
      vertex 0 2 0
      vertex -0.196033 1.99037 0
    endloop
  endfacet
  facet normal -0.740928 -0.671584 0
    outer loop
      vertex -1.41421 -1.41421 0
      vertex -1.54602 -1.26879 10
      vertex -1.54602 -1.26879 0
    endloop
  endfacet
  facet normal -0.740928 -0.671584 0
    outer loop
      vertex -1.54602 -1.26879 10
      vertex -1.41421 -1.41421 0
      vertex -1.41421 -1.41421 10
    endloop
  endfacet
  facet normal -0.595695 -0.80321 0
    outer loop
      vertex -1.26879 -1.54602 0
      vertex -1.11114 -1.66294 10
      vertex -1.26879 -1.54602 10
    endloop
  endfacet
  facet normal -0.595695 -0.80321 -0
    outer loop
      vertex -1.11114 -1.66294 10
      vertex -1.26879 -1.54602 0
      vertex -1.11114 -1.66294 0
    endloop
  endfacet
  facet normal -0.989176 -0.146735 0
    outer loop
      vertex -1.96157 -0.390181 0
      vertex -1.99037 -0.196033 10
      vertex -1.99037 -0.196033 0
    endloop
  endfacet
  facet normal -0.989176 -0.146735 0
    outer loop
      vertex -1.99037 -0.196033 10
      vertex -1.96157 -0.390181 0
      vertex -1.96157 -0.390181 10
    endloop
  endfacet
  facet normal -0.80321 -0.595695 0
    outer loop
      vertex -1.54602 -1.26879 0
      vertex -1.66294 -1.11114 10
      vertex -1.66294 -1.11114 0
    endloop
  endfacet
  facet normal -0.80321 -0.595695 0
    outer loop
      vertex -1.66294 -1.11114 10
      vertex -1.54602 -1.26879 0
      vertex -1.54602 -1.26879 10
    endloop
  endfacet
  facet normal -0.998796 -0.0490652 0
    outer loop
      vertex -1.99037 -0.196033 0
      vertex -2 0 10
      vertex -2 0 0
    endloop
  endfacet
  facet normal -0.998796 -0.0490652 0
    outer loop
      vertex -2 0 10
      vertex -1.99037 -0.196033 0
      vertex -1.99037 -0.196033 10
    endloop
  endfacet
  facet normal -0.970031 0.242982 0
    outer loop
      vertex -1.96157 0.390181 0
      vertex -1.91388 0.580569 10
      vertex -1.91388 0.580569 0
    endloop
  endfacet
  facet normal -0.970031 0.242982 0
    outer loop
      vertex -1.91388 0.580569 10
      vertex -1.96157 0.390181 0
      vertex -1.96157 0.390181 10
    endloop
  endfacet
  facet normal -0.80321 0.595695 0
    outer loop
      vertex -1.66294 1.11114 0
      vertex -1.54602 1.26879 10
      vertex -1.54602 1.26879 0
    endloop
  endfacet
  facet normal -0.80321 0.595695 0
    outer loop
      vertex -1.54602 1.26879 10
      vertex -1.66294 1.11114 0
      vertex -1.66294 1.11114 10
    endloop
  endfacet
  facet normal 0.51409 -0.857736 0
    outer loop
      vertex 0.942793 -1.76384 0
      vertex 1.11114 -1.66294 10
      vertex 0.942793 -1.76384 10
    endloop
  endfacet
  facet normal 0.51409 -0.857736 0
    outer loop
      vertex 1.11114 -1.66294 10
      vertex 0.942793 -1.76384 0
      vertex 1.11114 -1.66294 0
    endloop
  endfacet
  facet normal -0.427571 -0.903982 0
    outer loop
      vertex -0.942793 -1.76384 0
      vertex -0.765367 -1.84776 10
      vertex -0.942793 -1.76384 10
    endloop
  endfacet
  facet normal -0.427571 -0.903982 -0
    outer loop
      vertex -0.765367 -1.84776 10
      vertex -0.942793 -1.76384 0
      vertex -0.765367 -1.84776 0
    endloop
  endfacet
  facet normal -0.0490652 -0.998796 0
    outer loop
      vertex -0.196033 -1.99037 0
      vertex 0 -2 10
      vertex -0.196033 -1.99037 10
    endloop
  endfacet
  facet normal -0.0490652 -0.998796 -0
    outer loop
      vertex 0 -2 10
      vertex -0.196033 -1.99037 0
      vertex 0 -2 0
    endloop
  endfacet
  facet normal -0.146735 -0.989176 0
    outer loop
      vertex -0.390181 -1.96157 0
      vertex -0.196033 -1.99037 10
      vertex -0.390181 -1.96157 10
    endloop
  endfacet
  facet normal -0.146735 -0.989176 -0
    outer loop
      vertex -0.196033 -1.99037 10
      vertex -0.390181 -1.96157 0
      vertex -0.196033 -1.99037 0
    endloop
  endfacet
  facet normal -0.903982 -0.427571 0
    outer loop
      vertex -1.76384 -0.942793 0
      vertex -1.84776 -0.765367 10
      vertex -1.84776 -0.765367 0
    endloop
  endfacet
  facet normal -0.903982 -0.427571 0
    outer loop
      vertex -1.84776 -0.765367 10
      vertex -1.76384 -0.942793 0
      vertex -1.76384 -0.942793 10
    endloop
  endfacet
  facet normal -0.989176 0.146735 0
    outer loop
      vertex -1.99037 0.196033 0
      vertex -1.96157 0.390181 10
      vertex -1.96157 0.390181 0
    endloop
  endfacet
  facet normal -0.989176 0.146735 0
    outer loop
      vertex -1.96157 0.390181 10
      vertex -1.99037 0.196033 0
      vertex -1.99037 0.196033 10
    endloop
  endfacet
  facet normal -0.336882 -0.941547 0
    outer loop
      vertex -0.765367 -1.84776 0
      vertex -0.580569 -1.91388 10
      vertex -0.765367 -1.84776 10
    endloop
  endfacet
  facet normal -0.336882 -0.941547 -0
    outer loop
      vertex -0.580569 -1.91388 10
      vertex -0.765367 -1.84776 0
      vertex -0.580569 -1.91388 0
    endloop
  endfacet
  facet normal -0.989176 -0.146736 0
    outer loop
      vertex 1.49278 0.147025 0
      vertex 1.47118 0.292635 10
      vertex 1.47118 0.292635 0
    endloop
  endfacet
  facet normal -0.989176 -0.146736 0
    outer loop
      vertex 1.47118 0.292635 10
      vertex 1.49278 0.147025 0
      vertex 1.49278 0.147025 10
    endloop
  endfacet
  facet normal -0.998796 -0.0490482 0
    outer loop
      vertex 1.5 0 0
      vertex 1.49278 0.147025 10
      vertex 1.49278 0.147025 0
    endloop
  endfacet
  facet normal -0.998796 -0.0490482 0
    outer loop
      vertex 1.49278 0.147025 10
      vertex 1.5 0 0
      vertex 1.5 0 10
    endloop
  endfacet
  facet normal -0.970027 -0.242996 0
    outer loop
      vertex 1.47118 0.292635 0
      vertex 1.43541 0.435427 10
      vertex 1.43541 0.435427 0
    endloop
  endfacet
  facet normal -0.970027 -0.242996 0
    outer loop
      vertex 1.43541 0.435427 10
      vertex 1.47118 0.292635 0
      vertex 1.47118 0.292635 10
    endloop
  endfacet
  facet normal -0.427569 0.903983 0
    outer loop
      vertex 0.707094 -1.32288 0
      vertex 0.574024 -1.38582 10
      vertex 0.707094 -1.32288 10
    endloop
  endfacet
  facet normal -0.427569 0.903983 0
    outer loop
      vertex 0.574024 -1.38582 10
      vertex 0.707094 -1.32288 0
      vertex 0.574024 -1.38582 0
    endloop
  endfacet
  facet normal 0.59566 -0.803237 0
    outer loop
      vertex -0.95159 1.15952 0
      vertex -0.833355 1.2472 10
      vertex -0.95159 1.15952 10
    endloop
  endfacet
  facet normal 0.59566 -0.803237 0
    outer loop
      vertex -0.833355 1.2472 10
      vertex -0.95159 1.15952 0
      vertex -0.833355 1.2472 0
    endloop
  endfacet
  facet normal -0.242996 -0.970027 0
    outer loop
      vertex 0.292635 1.47118 0
      vertex 0.435427 1.43541 10
      vertex 0.292635 1.47118 10
    endloop
  endfacet
  facet normal -0.242996 -0.970027 -0
    outer loop
      vertex 0.435427 1.43541 10
      vertex 0.292635 1.47118 0
      vertex 0.435427 1.43541 0
    endloop
  endfacet
  facet normal 0.903983 -0.427569 0
    outer loop
      vertex -1.38582 0.574024 10
      vertex -1.32288 0.707094 0
      vertex -1.32288 0.707094 10
    endloop
  endfacet
  facet normal 0.903983 -0.427569 0
    outer loop
      vertex -1.32288 0.707094 0
      vertex -1.38582 0.574024 10
      vertex -1.38582 0.574024 0
    endloop
  endfacet
  facet normal 0.970027 -0.242996 0
    outer loop
      vertex -1.47118 0.292635 10
      vertex -1.43541 0.435427 0
      vertex -1.43541 0.435427 10
    endloop
  endfacet
  facet normal 0.970027 -0.242996 0
    outer loop
      vertex -1.43541 0.435427 0
      vertex -1.47118 0.292635 10
      vertex -1.47118 0.292635 0
    endloop
  endfacet
  facet normal -0.514113 0.857722 0
    outer loop
      vertex 0.833355 -1.2472 0
      vertex 0.707094 -1.32288 10
      vertex 0.833355 -1.2472 10
    endloop
  endfacet
  facet normal -0.514113 0.857722 0
    outer loop
      vertex 0.707094 -1.32288 10
      vertex 0.833355 -1.2472 0
      vertex 0.707094 -1.32288 0
    endloop
  endfacet
  facet normal -0.242996 0.970027 0
    outer loop
      vertex 0.435427 -1.43541 0
      vertex 0.292635 -1.47118 10
      vertex 0.435427 -1.43541 10
    endloop
  endfacet
  facet normal -0.242996 0.970027 0
    outer loop
      vertex 0.292635 -1.47118 10
      vertex 0.435427 -1.43541 0
      vertex 0.292635 -1.47118 0
    endloop
  endfacet
  facet normal -0.0490482 -0.998796 0
    outer loop
      vertex 0 1.5 0
      vertex 0.147025 1.49278 10
      vertex 0 1.5 10
    endloop
  endfacet
  facet normal -0.0490482 -0.998796 -0
    outer loop
      vertex 0.147025 1.49278 10
      vertex 0 1.5 0
      vertex 0.147025 1.49278 0
    endloop
  endfacet
  facet normal -0.146736 -0.989176 0
    outer loop
      vertex 0.147025 1.49278 0
      vertex 0.292635 1.47118 10
      vertex 0.147025 1.49278 10
    endloop
  endfacet
  facet normal -0.146736 -0.989176 -0
    outer loop
      vertex 0.292635 1.47118 10
      vertex 0.147025 1.49278 0
      vertex 0.292635 1.47118 0
    endloop
  endfacet
  facet normal -0.427569 -0.903983 0
    outer loop
      vertex 0.574024 1.38582 0
      vertex 0.707094 1.32288 10
      vertex 0.574024 1.38582 10
    endloop
  endfacet
  facet normal -0.427569 -0.903983 -0
    outer loop
      vertex 0.707094 1.32288 10
      vertex 0.574024 1.38582 0
      vertex 0.707094 1.32288 0
    endloop
  endfacet
  facet normal -0.146736 0.989176 0
    outer loop
      vertex 0.292635 -1.47118 0
      vertex 0.147025 -1.49278 10
      vertex 0.292635 -1.47118 10
    endloop
  endfacet
  facet normal -0.146736 0.989176 0
    outer loop
      vertex 0.147025 -1.49278 10
      vertex 0.292635 -1.47118 0
      vertex 0.147025 -1.49278 0
    endloop
  endfacet
  facet normal -0.803237 0.59566 0
    outer loop
      vertex 1.15952 -0.95159 0
      vertex 1.2472 -0.833355 10
      vertex 1.2472 -0.833355 0
    endloop
  endfacet
  facet normal -0.803237 0.59566 0
    outer loop
      vertex 1.2472 -0.833355 10
      vertex 1.15952 -0.95159 0
      vertex 1.15952 -0.95159 10
    endloop
  endfacet
  facet normal 0.740935 0.671577 0
    outer loop
      vertex -1.06066 -1.06066 10
      vertex -1.15952 -0.95159 0
      vertex -1.15952 -0.95159 10
    endloop
  endfacet
  facet normal 0.740935 0.671577 0
    outer loop
      vertex -1.15952 -0.95159 0
      vertex -1.06066 -1.06066 10
      vertex -1.06066 -1.06066 0
    endloop
  endfacet
  facet normal 0.514113 -0.857722 0
    outer loop
      vertex -0.833355 1.2472 0
      vertex -0.707094 1.32288 10
      vertex -0.833355 1.2472 10
    endloop
  endfacet
  facet normal 0.514113 -0.857722 0
    outer loop
      vertex -0.707094 1.32288 10
      vertex -0.833355 1.2472 0
      vertex -0.707094 1.32288 0
    endloop
  endfacet
  facet normal -0.989176 0.146736 0
    outer loop
      vertex 1.47118 -0.292635 0
      vertex 1.49278 -0.147025 10
      vertex 1.49278 -0.147025 0
    endloop
  endfacet
  facet normal -0.989176 0.146736 0
    outer loop
      vertex 1.49278 -0.147025 10
      vertex 1.47118 -0.292635 0
      vertex 1.47118 -0.292635 10
    endloop
  endfacet
  facet normal 0.146736 0.989176 -0
    outer loop
      vertex -0.147025 -1.49278 0
      vertex -0.292635 -1.47118 10
      vertex -0.147025 -1.49278 10
    endloop
  endfacet
  facet normal 0.146736 0.989176 0
    outer loop
      vertex -0.292635 -1.47118 10
      vertex -0.147025 -1.49278 0
      vertex -0.292635 -1.47118 0
    endloop
  endfacet
  facet normal -0.59566 0.803237 0
    outer loop
      vertex 0.95159 -1.15952 0
      vertex 0.833355 -1.2472 10
      vertex 0.95159 -1.15952 10
    endloop
  endfacet
  facet normal -0.59566 0.803237 0
    outer loop
      vertex 0.833355 -1.2472 10
      vertex 0.95159 -1.15952 0
      vertex 0.833355 -1.2472 0
    endloop
  endfacet
  facet normal 0.0490482 0.998796 -0
    outer loop
      vertex 0 -1.5 0
      vertex -0.147025 -1.49278 10
      vertex 0 -1.5 10
    endloop
  endfacet
  facet normal 0.0490482 0.998796 0
    outer loop
      vertex -0.147025 -1.49278 10
      vertex 0 -1.5 0
      vertex -0.147025 -1.49278 0
    endloop
  endfacet
  facet normal -0.59566 -0.803237 0
    outer loop
      vertex 0.833355 1.2472 0
      vertex 0.95159 1.15952 10
      vertex 0.833355 1.2472 10
    endloop
  endfacet
  facet normal -0.59566 -0.803237 -0
    outer loop
      vertex 0.95159 1.15952 10
      vertex 0.833355 1.2472 0
      vertex 0.95159 1.15952 0
    endloop
  endfacet
  facet normal -0.970027 0.242996 0
    outer loop
      vertex 1.43541 -0.435427 0
      vertex 1.47118 -0.292635 10
      vertex 1.47118 -0.292635 0
    endloop
  endfacet
  facet normal -0.970027 0.242996 0
    outer loop
      vertex 1.47118 -0.292635 10
      vertex 1.43541 -0.435427 0
      vertex 1.43541 -0.435427 10
    endloop
  endfacet
  facet normal 0.989176 -0.146736 0
    outer loop
      vertex -1.49278 0.147025 10
      vertex -1.47118 0.292635 0
      vertex -1.47118 0.292635 10
    endloop
  endfacet
  facet normal 0.989176 -0.146736 0
    outer loop
      vertex -1.47118 0.292635 0
      vertex -1.49278 0.147025 10
      vertex -1.49278 0.147025 0
    endloop
  endfacet
  facet normal 0.857722 -0.514113 0
    outer loop
      vertex -1.32288 0.707094 10
      vertex -1.2472 0.833355 0
      vertex -1.2472 0.833355 10
    endloop
  endfacet
  facet normal 0.857722 -0.514113 0
    outer loop
      vertex -1.2472 0.833355 0
      vertex -1.32288 0.707094 10
      vertex -1.32288 0.707094 0
    endloop
  endfacet
  facet normal 0.941546 0.336885 0
    outer loop
      vertex -1.38582 -0.574024 10
      vertex -1.43541 -0.435427 0
      vertex -1.43541 -0.435427 10
    endloop
  endfacet
  facet normal 0.941546 0.336885 0
    outer loop
      vertex -1.43541 -0.435427 0
      vertex -1.38582 -0.574024 10
      vertex -1.38582 -0.574024 0
    endloop
  endfacet
  facet normal 0.146736 -0.989176 0
    outer loop
      vertex -0.292635 1.47118 0
      vertex -0.147025 1.49278 10
      vertex -0.292635 1.47118 10
    endloop
  endfacet
  facet normal 0.146736 -0.989176 0
    outer loop
      vertex -0.147025 1.49278 10
      vertex -0.292635 1.47118 0
      vertex -0.147025 1.49278 0
    endloop
  endfacet
  facet normal -0.803237 -0.59566 0
    outer loop
      vertex 1.2472 0.833355 0
      vertex 1.15952 0.95159 10
      vertex 1.15952 0.95159 0
    endloop
  endfacet
  facet normal -0.803237 -0.59566 0
    outer loop
      vertex 1.15952 0.95159 10
      vertex 1.2472 0.833355 0
      vertex 1.2472 0.833355 10
    endloop
  endfacet
  facet normal 0.970027 0.242996 0
    outer loop
      vertex -1.43541 -0.435427 10
      vertex -1.47118 -0.292635 0
      vertex -1.47118 -0.292635 10
    endloop
  endfacet
  facet normal 0.970027 0.242996 0
    outer loop
      vertex -1.47118 -0.292635 0
      vertex -1.43541 -0.435427 10
      vertex -1.43541 -0.435427 0
    endloop
  endfacet
  facet normal 0.998796 0.0490482 0
    outer loop
      vertex -1.49278 -0.147025 10
      vertex -1.5 0 0
      vertex -1.5 0 10
    endloop
  endfacet
  facet normal 0.998796 0.0490482 0
    outer loop
      vertex -1.5 0 0
      vertex -1.49278 -0.147025 10
      vertex -1.49278 -0.147025 0
    endloop
  endfacet
  facet normal -0.514113 -0.857722 0
    outer loop
      vertex 0.707094 1.32288 0
      vertex 0.833355 1.2472 10
      vertex 0.707094 1.32288 10
    endloop
  endfacet
  facet normal -0.514113 -0.857722 -0
    outer loop
      vertex 0.833355 1.2472 10
      vertex 0.707094 1.32288 0
      vertex 0.833355 1.2472 0
    endloop
  endfacet
  facet normal -0.998796 0.0490482 0
    outer loop
      vertex 1.49278 -0.147025 0
      vertex 1.5 0 10
      vertex 1.5 0 0
    endloop
  endfacet
  facet normal -0.998796 0.0490482 0
    outer loop
      vertex 1.5 0 10
      vertex 1.49278 -0.147025 0
      vertex 1.49278 -0.147025 10
    endloop
  endfacet
  facet normal -0.903983 0.427569 0
    outer loop
      vertex 1.32288 -0.707094 0
      vertex 1.38582 -0.574024 10
      vertex 1.38582 -0.574024 0
    endloop
  endfacet
  facet normal -0.903983 0.427569 0
    outer loop
      vertex 1.38582 -0.574024 10
      vertex 1.32288 -0.707094 0
      vertex 1.32288 -0.707094 10
    endloop
  endfacet
  facet normal -0.740935 -0.671577 0
    outer loop
      vertex 1.15952 0.95159 0
      vertex 1.06066 1.06066 10
      vertex 1.06066 1.06066 0
    endloop
  endfacet
  facet normal -0.740935 -0.671577 0
    outer loop
      vertex 1.06066 1.06066 10
      vertex 1.15952 0.95159 0
      vertex 1.15952 0.95159 10
    endloop
  endfacet
  facet normal 0.0490482 -0.998796 0
    outer loop
      vertex -0.147025 1.49278 0
      vertex 0 1.5 10
      vertex -0.147025 1.49278 10
    endloop
  endfacet
  facet normal 0.0490482 -0.998796 0
    outer loop
      vertex 0 1.5 10
      vertex -0.147025 1.49278 0
      vertex 0 1.5 0
    endloop
  endfacet
  facet normal 0.740935 -0.671577 0
    outer loop
      vertex -1.15952 0.95159 10
      vertex -1.06066 1.06066 0
      vertex -1.06066 1.06066 10
    endloop
  endfacet
  facet normal 0.740935 -0.671577 0
    outer loop
      vertex -1.06066 1.06066 0
      vertex -1.15952 0.95159 10
      vertex -1.15952 0.95159 0
    endloop
  endfacet
  facet normal 0.671577 0.740935 -0
    outer loop
      vertex -0.95159 -1.15952 0
      vertex -1.06066 -1.06066 10
      vertex -0.95159 -1.15952 10
    endloop
  endfacet
  facet normal 0.671577 0.740935 0
    outer loop
      vertex -1.06066 -1.06066 10
      vertex -0.95159 -1.15952 0
      vertex -1.06066 -1.06066 0
    endloop
  endfacet
  facet normal -0.0490482 0.998796 0
    outer loop
      vertex 0.147025 -1.49278 0
      vertex 0 -1.5 10
      vertex 0.147025 -1.49278 10
    endloop
  endfacet
  facet normal -0.0490482 0.998796 0
    outer loop
      vertex 0 -1.5 10
      vertex 0.147025 -1.49278 0
      vertex 0 -1.5 0
    endloop
  endfacet
  facet normal -0.941546 -0.336885 0
    outer loop
      vertex 1.43541 0.435427 0
      vertex 1.38582 0.574024 10
      vertex 1.38582 0.574024 0
    endloop
  endfacet
  facet normal -0.941546 -0.336885 0
    outer loop
      vertex 1.38582 0.574024 10
      vertex 1.43541 0.435427 0
      vertex 1.43541 0.435427 10
    endloop
  endfacet
  facet normal -0.857722 0.514113 0
    outer loop
      vertex 1.2472 -0.833355 0
      vertex 1.32288 -0.707094 10
      vertex 1.32288 -0.707094 0
    endloop
  endfacet
  facet normal -0.857722 0.514113 0
    outer loop
      vertex 1.32288 -0.707094 10
      vertex 1.2472 -0.833355 0
      vertex 1.2472 -0.833355 10
    endloop
  endfacet
  facet normal 0.242996 -0.970027 0
    outer loop
      vertex -0.435427 1.43541 0
      vertex -0.292635 1.47118 10
      vertex -0.435427 1.43541 10
    endloop
  endfacet
  facet normal 0.242996 -0.970027 0
    outer loop
      vertex -0.292635 1.47118 10
      vertex -0.435427 1.43541 0
      vertex -0.292635 1.47118 0
    endloop
  endfacet
  facet normal -0.336885 0.941546 0
    outer loop
      vertex 0.574024 -1.38582 0
      vertex 0.435427 -1.43541 10
      vertex 0.574024 -1.38582 10
    endloop
  endfacet
  facet normal -0.336885 0.941546 0
    outer loop
      vertex 0.435427 -1.43541 10
      vertex 0.574024 -1.38582 0
      vertex 0.435427 -1.43541 0
    endloop
  endfacet
  facet normal 0.427569 -0.903983 0
    outer loop
      vertex -0.707094 1.32288 0
      vertex -0.574024 1.38582 10
      vertex -0.707094 1.32288 10
    endloop
  endfacet
  facet normal 0.427569 -0.903983 0
    outer loop
      vertex -0.574024 1.38582 10
      vertex -0.707094 1.32288 0
      vertex -0.574024 1.38582 0
    endloop
  endfacet
  facet normal -0.903983 -0.427569 0
    outer loop
      vertex 1.38582 0.574024 0
      vertex 1.32288 0.707094 10
      vertex 1.32288 0.707094 0
    endloop
  endfacet
  facet normal -0.903983 -0.427569 0
    outer loop
      vertex 1.32288 0.707094 10
      vertex 1.38582 0.574024 0
      vertex 1.38582 0.574024 10
    endloop
  endfacet
  facet normal 0.671577 -0.740935 0
    outer loop
      vertex -1.06066 1.06066 0
      vertex -0.95159 1.15952 10
      vertex -1.06066 1.06066 10
    endloop
  endfacet
  facet normal 0.671577 -0.740935 0
    outer loop
      vertex -0.95159 1.15952 10
      vertex -1.06066 1.06066 0
      vertex -0.95159 1.15952 0
    endloop
  endfacet
  facet normal -0.857722 -0.514113 0
    outer loop
      vertex 1.32288 0.707094 0
      vertex 1.2472 0.833355 10
      vertex 1.2472 0.833355 0
    endloop
  endfacet
  facet normal -0.857722 -0.514113 0
    outer loop
      vertex 1.2472 0.833355 10
      vertex 1.32288 0.707094 0
      vertex 1.32288 0.707094 10
    endloop
  endfacet
  facet normal -0.336885 -0.941546 0
    outer loop
      vertex 0.435427 1.43541 0
      vertex 0.574024 1.38582 10
      vertex 0.435427 1.43541 10
    endloop
  endfacet
  facet normal -0.336885 -0.941546 -0
    outer loop
      vertex 0.574024 1.38582 10
      vertex 0.435427 1.43541 0
      vertex 0.574024 1.38582 0
    endloop
  endfacet
  facet normal 0.336885 -0.941546 0
    outer loop
      vertex -0.574024 1.38582 0
      vertex -0.435427 1.43541 10
      vertex -0.574024 1.38582 10
    endloop
  endfacet
  facet normal 0.336885 -0.941546 0
    outer loop
      vertex -0.435427 1.43541 10
      vertex -0.574024 1.38582 0
      vertex -0.435427 1.43541 0
    endloop
  endfacet
  facet normal 0.857722 0.514113 0
    outer loop
      vertex -1.2472 -0.833355 10
      vertex -1.32288 -0.707094 0
      vertex -1.32288 -0.707094 10
    endloop
  endfacet
  facet normal 0.857722 0.514113 0
    outer loop
      vertex -1.32288 -0.707094 0
      vertex -1.2472 -0.833355 10
      vertex -1.2472 -0.833355 0
    endloop
  endfacet
  facet normal 0.514113 0.857722 -0
    outer loop
      vertex -0.707094 -1.32288 0
      vertex -0.833355 -1.2472 10
      vertex -0.707094 -1.32288 10
    endloop
  endfacet
  facet normal 0.514113 0.857722 0
    outer loop
      vertex -0.833355 -1.2472 10
      vertex -0.707094 -1.32288 0
      vertex -0.833355 -1.2472 0
    endloop
  endfacet
  facet normal -0.671577 -0.740935 0
    outer loop
      vertex 0.95159 1.15952 0
      vertex 1.06066 1.06066 10
      vertex 0.95159 1.15952 10
    endloop
  endfacet
  facet normal -0.671577 -0.740935 -0
    outer loop
      vertex 1.06066 1.06066 10
      vertex 0.95159 1.15952 0
      vertex 1.06066 1.06066 0
    endloop
  endfacet
  facet normal 0.427569 0.903983 -0
    outer loop
      vertex -0.574024 -1.38582 0
      vertex -0.707094 -1.32288 10
      vertex -0.574024 -1.38582 10
    endloop
  endfacet
  facet normal 0.427569 0.903983 0
    outer loop
      vertex -0.707094 -1.32288 10
      vertex -0.574024 -1.38582 0
      vertex -0.707094 -1.32288 0
    endloop
  endfacet
  facet normal 0.803237 0.59566 0
    outer loop
      vertex -1.15952 -0.95159 10
      vertex -1.2472 -0.833355 0
      vertex -1.2472 -0.833355 10
    endloop
  endfacet
  facet normal 0.803237 0.59566 0
    outer loop
      vertex -1.2472 -0.833355 0
      vertex -1.15952 -0.95159 10
      vertex -1.15952 -0.95159 0
    endloop
  endfacet
  facet normal 0.242996 0.970027 -0
    outer loop
      vertex -0.292635 -1.47118 0
      vertex -0.435427 -1.43541 10
      vertex -0.292635 -1.47118 10
    endloop
  endfacet
  facet normal 0.242996 0.970027 0
    outer loop
      vertex -0.435427 -1.43541 10
      vertex -0.292635 -1.47118 0
      vertex -0.435427 -1.43541 0
    endloop
  endfacet
  facet normal 0.989176 0.146736 0
    outer loop
      vertex -1.47118 -0.292635 10
      vertex -1.49278 -0.147025 0
      vertex -1.49278 -0.147025 10
    endloop
  endfacet
  facet normal 0.989176 0.146736 0
    outer loop
      vertex -1.49278 -0.147025 0
      vertex -1.47118 -0.292635 10
      vertex -1.47118 -0.292635 0
    endloop
  endfacet
  facet normal 0.59566 0.803237 -0
    outer loop
      vertex -0.833355 -1.2472 0
      vertex -0.95159 -1.15952 10
      vertex -0.833355 -1.2472 10
    endloop
  endfacet
  facet normal 0.59566 0.803237 0
    outer loop
      vertex -0.95159 -1.15952 10
      vertex -0.833355 -1.2472 0
      vertex -0.95159 -1.15952 0
    endloop
  endfacet
  facet normal 0.903983 0.427569 0
    outer loop
      vertex -1.32288 -0.707094 10
      vertex -1.38582 -0.574024 0
      vertex -1.38582 -0.574024 10
    endloop
  endfacet
  facet normal 0.903983 0.427569 0
    outer loop
      vertex -1.38582 -0.574024 0
      vertex -1.32288 -0.707094 10
      vertex -1.32288 -0.707094 0
    endloop
  endfacet
  facet normal 0.941546 -0.336885 0
    outer loop
      vertex -1.43541 0.435427 10
      vertex -1.38582 0.574024 0
      vertex -1.38582 0.574024 10
    endloop
  endfacet
  facet normal 0.941546 -0.336885 0
    outer loop
      vertex -1.38582 0.574024 0
      vertex -1.43541 0.435427 10
      vertex -1.43541 0.435427 0
    endloop
  endfacet
  facet normal -0.941546 0.336885 0
    outer loop
      vertex 1.38582 -0.574024 0
      vertex 1.43541 -0.435427 10
      vertex 1.43541 -0.435427 0
    endloop
  endfacet
  facet normal -0.941546 0.336885 0
    outer loop
      vertex 1.43541 -0.435427 10
      vertex 1.38582 -0.574024 0
      vertex 1.38582 -0.574024 10
    endloop
  endfacet
  facet normal 0.803237 -0.59566 0
    outer loop
      vertex -1.2472 0.833355 10
      vertex -1.15952 0.95159 0
      vertex -1.15952 0.95159 10
    endloop
  endfacet
  facet normal 0.803237 -0.59566 0
    outer loop
      vertex -1.15952 0.95159 0
      vertex -1.2472 0.833355 10
      vertex -1.2472 0.833355 0
    endloop
  endfacet
  facet normal 0.998796 -0.0490482 0
    outer loop
      vertex -1.5 0 10
      vertex -1.49278 0.147025 0
      vertex -1.49278 0.147025 10
    endloop
  endfacet
  facet normal 0.998796 -0.0490482 0
    outer loop
      vertex -1.49278 0.147025 0
      vertex -1.5 0 10
      vertex -1.5 0 0
    endloop
  endfacet
  facet normal 0.336885 0.941546 -0
    outer loop
      vertex -0.435427 -1.43541 0
      vertex -0.574024 -1.38582 10
      vertex -0.435427 -1.43541 10
    endloop
  endfacet
  facet normal 0.336885 0.941546 0
    outer loop
      vertex -0.574024 -1.38582 10
      vertex -0.435427 -1.43541 0
      vertex -0.574024 -1.38582 0
    endloop
  endfacet
  facet normal -0.740935 0.671577 0
    outer loop
      vertex 1.06066 -1.06066 0
      vertex 1.15952 -0.95159 10
      vertex 1.15952 -0.95159 0
    endloop
  endfacet
  facet normal -0.740935 0.671577 0
    outer loop
      vertex 1.15952 -0.95159 10
      vertex 1.06066 -1.06066 0
      vertex 1.06066 -1.06066 10
    endloop
  endfacet
  facet normal -0.671577 0.740935 0
    outer loop
      vertex 1.06066 -1.06066 0
      vertex 0.95159 -1.15952 10
      vertex 1.06066 -1.06066 10
    endloop
  endfacet
  facet normal -0.671577 0.740935 0
    outer loop
      vertex 0.95159 -1.15952 10
      vertex 1.06066 -1.06066 0
      vertex 0.95159 -1.15952 0
    endloop
  endfacet
endsolid OpenSCAD_Model
