solid OpenSCAD_Model
  facet normal 1 -0 0
    outer loop
      vertex 100 0 10
      vertex 100 200 0
      vertex 100 200 10
    endloop
  endfacet
  facet normal 1 0 0
    outer loop
      vertex 100 200 0
      vertex 100 0 10
      vertex 100 0 0
    endloop
  endfacet
  facet normal 0 0 1
    outer loop
      vertex 100 200 10
      vertex 98 198 10
      vertex 100 0 10
    endloop
  endfacet
  facet normal 0 0 1
    outer loop
      vertex 100 200 10
      vertex 2 198 10
      vertex 98 198 10
    endloop
  endfacet
  facet normal 0 0 1
    outer loop
      vertex 2 198 10
      vertex 0 200 10
      vertex 2 2 10
    endloop
  endfacet
  facet normal -0 0 1
    outer loop
      vertex 0 200 10
      vertex 2 198 10
      vertex 100 200 10
    endloop
  endfacet
  facet normal -0 0 1
    outer loop
      vertex 98 2 10
      vertex 100 0 10
      vertex 98 198 10
    endloop
  endfacet
  facet normal -0 0 1
    outer loop
      vertex 2 2 10
      vertex 100 0 10
      vertex 98 2 10
    endloop
  endfacet
  facet normal 0 0 1
    outer loop
      vertex 2 2 10
      vertex 0 0 10
      vertex 100 0 10
    endloop
  endfacet
  facet normal 0 0 1
    outer loop
      vertex 0 0 10
      vertex 2 2 10
      vertex 0 200 10
    endloop
  endfacet
  facet normal 0 0 -1
    outer loop
      vertex 100 0 0
      vertex 98 2 0
      vertex 100 200 0
    endloop
  endfacet
  facet normal 0 0 -1
    outer loop
      vertex 100 0 0
      vertex 2 2 0
      vertex 98 2 0
    endloop
  endfacet
  facet normal -0 0 -1
    outer loop
      vertex 2 2 0
      vertex 0 0 0
      vertex 2 198 0
    endloop
  endfacet
  facet normal 0 0 -1
    outer loop
      vertex 0 0 0
      vertex 2 2 0
      vertex 100 0 0
    endloop
  endfacet
  facet normal 0 0 -1
    outer loop
      vertex 98 198 0
      vertex 100 200 0
      vertex 98 2 0
    endloop
  endfacet
  facet normal 0 0 -1
    outer loop
      vertex 2 198 0
      vertex 100 200 0
      vertex 98 198 0
    endloop
  endfacet
  facet normal 0 0 -1
    outer loop
      vertex 2 198 0
      vertex 0 200 0
      vertex 100 200 0
    endloop
  endfacet
  facet normal 0 0 -1
    outer loop
      vertex 0 200 0
      vertex 2 198 0
      vertex 0 0 0
    endloop
  endfacet
  facet normal -1 0 0
    outer loop
      vertex 0 0 0
      vertex 0 200 10
      vertex 0 200 0
    endloop
  endfacet
  facet normal -1 -0 0
    outer loop
      vertex 0 200 10
      vertex 0 0 0
      vertex 0 0 10
    endloop
  endfacet
  facet normal 0 1 -0
    outer loop
      vertex 100 200 0
      vertex 0 200 10
      vertex 100 200 10
    endloop
  endfacet
  facet normal 0 1 0
    outer loop
      vertex 0 200 10
      vertex 100 200 0
      vertex 0 200 0
    endloop
  endfacet
  facet normal 0 -1 0
    outer loop
      vertex 0 0 0
      vertex 100 0 10
      vertex 0 0 10
    endloop
  endfacet
  facet normal 0 -1 -0
    outer loop
      vertex 100 0 10
      vertex 0 0 0
      vertex 100 0 0
    endloop
  endfacet
  facet normal -1 0 0
    outer loop
      vertex 98 2 0
      vertex 98 198 10
      vertex 98 198 0
    endloop
  endfacet
  facet normal -1 -0 0
    outer loop
      vertex 98 198 10
      vertex 98 2 0
      vertex 98 2 10
    endloop
  endfacet
  facet normal 1 -0 0
    outer loop
      vertex 2 2 10
      vertex 2 198 0
      vertex 2 198 10
    endloop
  endfacet
  facet normal 1 0 0
    outer loop
      vertex 2 198 0
      vertex 2 2 10
      vertex 2 2 0
    endloop
  endfacet
  facet normal 0 -1 0
    outer loop
      vertex 2 198 0
      vertex 98 198 10
      vertex 2 198 10
    endloop
  endfacet
  facet normal 0 -1 -0
    outer loop
      vertex 98 198 10
      vertex 2 198 0
      vertex 98 198 0
    endloop
  endfacet
  facet normal 0 1 -0
    outer loop
      vertex 98 2 0
      vertex 2 2 10
      vertex 98 2 10
    endloop
  endfacet
  facet normal 0 1 0
    outer loop
      vertex 2 2 10
      vertex 98 2 0
      vertex 2 2 0
    endloop
  endfacet
endsolid OpenSCAD_Model
