solid OpenSCAD_Model
  facet normal 0.98229 0.187369 0
    outer loop
      vertex 49.6057 6.26666 2
      vertex 48.4292 12.4345 0
      vertex 48.4292 12.4345 2
    endloop
  endfacet
  facet normal 0.98229 0.187369 0
    outer loop
      vertex 48.4292 12.4345 0
      vertex 49.6057 6.26666 2
      vertex 49.6057 6.26666 0
    endloop
  endfacet
  facet normal 0.998026 0.0627961 0
    outer loop
      vertex 50 0 2
      vertex 49.6057 6.26666 0
      vertex 49.6057 6.26666 2
    endloop
  endfacet
  facet normal 0.998026 0.0627961 0
    outer loop
      vertex 49.6057 6.26666 0
      vertex 50 0 2
      vertex 50 0 0
    endloop
  endfacet
  facet normal 0.951053 0.309028 0
    outer loop
      vertex 48.4292 12.4345 2
      vertex 46.4888 18.4062 0
      vertex 46.4888 18.4062 2
    endloop
  endfacet
  facet normal 0.951053 0.309028 0
    outer loop
      vertex 46.4888 18.4062 0
      vertex 48.4292 12.4345 2
      vertex 48.4292 12.4345 0
    endloop
  endfacet
  facet normal 0.844335 -0.535816 0
    outer loop
      vertex 40.4509 -29.3893 2
      vertex 43.8153 -24.0877 0
      vertex 43.8153 -24.0877 2
    endloop
  endfacet
  facet normal 0.844335 -0.535816 0
    outer loop
      vertex 43.8153 -24.0877 0
      vertex 40.4509 -29.3893 2
      vertex 40.4509 -29.3893 0
    endloop
  endfacet
  facet normal 0.36811 0.929782 -0
    outer loop
      vertex 21.289 45.2414 0
      vertex 15.4508 47.5528 2
      vertex 21.289 45.2414 2
    endloop
  endfacet
  facet normal 0.36811 0.929782 0
    outer loop
      vertex 15.4508 47.5528 2
      vertex 21.289 45.2414 0
      vertex 15.4508 47.5528 0
    endloop
  endfacet
  facet normal 0.951053 -0.309028 0
    outer loop
      vertex 46.4888 -18.4062 2
      vertex 48.4292 -12.4345 0
      vertex 48.4292 -12.4345 2
    endloop
  endfacet
  facet normal 0.951053 -0.309028 0
    outer loop
      vertex 48.4292 -12.4345 0
      vertex 46.4888 -18.4062 2
      vertex 46.4888 -18.4062 0
    endloop
  endfacet
  facet normal -0.98229 0.187369 0
    outer loop
      vertex -49.6057 6.26666 0
      vertex -48.4292 12.4345 2
      vertex -48.4292 12.4345 0
    endloop
  endfacet
  facet normal -0.98229 0.187369 0
    outer loop
      vertex -48.4292 12.4345 2
      vertex -49.6057 6.26666 0
      vertex -49.6057 6.26666 2
    endloop
  endfacet
  facet normal 0.998026 -0.0627961 0
    outer loop
      vertex 49.6057 -6.26666 2
      vertex 50 0 0
      vertex 50 0 2
    endloop
  endfacet
  facet normal 0.998026 -0.0627961 0
    outer loop
      vertex 50 0 0
      vertex 49.6057 -6.26666 2
      vertex 49.6057 -6.26666 0
    endloop
  endfacet
  facet normal 0.904828 0.425778 0
    outer loop
      vertex 46.4888 18.4062 2
      vertex 43.8153 24.0877 0
      vertex 43.8153 24.0877 2
    endloop
  endfacet
  facet normal 0.904828 0.425778 0
    outer loop
      vertex 43.8153 24.0877 0
      vertex 46.4888 18.4062 2
      vertex 46.4888 18.4062 0
    endloop
  endfacet
  facet normal -0.125322 0.992116 0
    outer loop
      vertex -3.13953 49.9013 0
      vertex -9.36907 49.1144 2
      vertex -3.13953 49.9013 2
    endloop
  endfacet
  facet normal -0.125322 0.992116 0
    outer loop
      vertex -9.36907 49.1144 2
      vertex -3.13953 49.9013 0
      vertex -9.36907 49.1144 0
    endloop
  endfacet
  facet normal -0.587779 -0.809022 0
    outer loop
      vertex -31.8712 -38.5257 0
      vertex -26.7913 -42.2164 2
      vertex -31.8712 -38.5257 2
    endloop
  endfacet
  facet normal -0.587779 -0.809022 -0
    outer loop
      vertex -26.7913 -42.2164 2
      vertex -31.8712 -38.5257 0
      vertex -26.7913 -42.2164 0
    endloop
  endfacet
  facet normal -0.904828 -0.425778 0
    outer loop
      vertex -43.8153 -24.0877 0
      vertex -46.4888 -18.4062 2
      vertex -46.4888 -18.4062 0
    endloop
  endfacet
  facet normal -0.904828 -0.425778 0
    outer loop
      vertex -46.4888 -18.4062 2
      vertex -43.8153 -24.0877 0
      vertex -43.8153 -24.0877 2
    endloop
  endfacet
  facet normal -0.998026 0.0627961 0
    outer loop
      vertex -50 0 0
      vertex -49.6057 6.26666 2
      vertex -49.6057 6.26666 0
    endloop
  endfacet
  facet normal -0.998026 0.0627961 0
    outer loop
      vertex -49.6057 6.26666 2
      vertex -50 0 0
      vertex -50 0 2
    endloop
  endfacet
  facet normal 0.587779 -0.809022 0
    outer loop
      vertex 26.7913 -42.2164 0
      vertex 31.8712 -38.5257 2
      vertex 26.7913 -42.2164 2
    endloop
  endfacet
  facet normal 0.587779 -0.809022 0
    outer loop
      vertex 31.8712 -38.5257 2
      vertex 26.7913 -42.2164 0
      vertex 31.8712 -38.5257 0
    endloop
  endfacet
  facet normal 0.904828 -0.425778 0
    outer loop
      vertex 43.8153 -24.0877 2
      vertex 46.4888 -18.4062 0
      vertex 46.4888 -18.4062 2
    endloop
  endfacet
  facet normal 0.904828 -0.425778 0
    outer loop
      vertex 46.4888 -18.4062 0
      vertex 43.8153 -24.0877 2
      vertex 43.8153 -24.0877 0
    endloop
  endfacet
  facet normal -0.684549 0.728967 0
    outer loop
      vertex -31.8712 38.5257 0
      vertex -36.4484 34.2274 2
      vertex -31.8712 38.5257 2
    endloop
  endfacet
  facet normal -0.684549 0.728967 0
    outer loop
      vertex -36.4484 34.2274 2
      vertex -31.8712 38.5257 0
      vertex -36.4484 34.2274 0
    endloop
  endfacet
  facet normal -0.770507 0.637431 0
    outer loop
      vertex -40.4509 29.3893 0
      vertex -36.4484 34.2274 2
      vertex -36.4484 34.2274 0
    endloop
  endfacet
  facet normal -0.770507 0.637431 0
    outer loop
      vertex -36.4484 34.2274 2
      vertex -40.4509 29.3893 0
      vertex -40.4509 29.3893 2
    endloop
  endfacet
  facet normal -0.951053 -0.309028 0
    outer loop
      vertex -46.4888 -18.4062 0
      vertex -48.4292 -12.4345 2
      vertex -48.4292 -12.4345 0
    endloop
  endfacet
  facet normal -0.951053 -0.309028 0
    outer loop
      vertex -48.4292 -12.4345 2
      vertex -46.4888 -18.4062 0
      vertex -46.4888 -18.4062 2
    endloop
  endfacet
  facet normal 0.587779 0.809022 -0
    outer loop
      vertex 31.8712 38.5257 0
      vertex 26.7913 42.2164 2
      vertex 31.8712 38.5257 2
    endloop
  endfacet
  facet normal 0.587779 0.809022 0
    outer loop
      vertex 26.7913 42.2164 2
      vertex 31.8712 38.5257 0
      vertex 26.7913 42.2164 0
    endloop
  endfacet
  facet normal 0.248701 -0.96858 0
    outer loop
      vertex 9.36907 -49.1144 0
      vertex 15.4508 -47.5528 2
      vertex 9.36907 -49.1144 2
    endloop
  endfacet
  facet normal 0.248701 -0.96858 0
    outer loop
      vertex 15.4508 -47.5528 2
      vertex 9.36907 -49.1144 0
      vertex 15.4508 -47.5528 0
    endloop
  endfacet
  facet normal -0.36811 0.929782 0
    outer loop
      vertex -15.4508 47.5528 0
      vertex -21.289 45.2414 2
      vertex -15.4508 47.5528 2
    endloop
  endfacet
  facet normal -0.36811 0.929782 0
    outer loop
      vertex -21.289 45.2414 2
      vertex -15.4508 47.5528 0
      vertex -21.289 45.2414 0
    endloop
  endfacet
  facet normal 0.844335 0.535816 0
    outer loop
      vertex 43.8153 24.0877 2
      vertex 40.4509 29.3893 0
      vertex 40.4509 29.3893 2
    endloop
  endfacet
  facet normal 0.844335 0.535816 0
    outer loop
      vertex 40.4509 29.3893 0
      vertex 43.8153 24.0877 2
      vertex 43.8153 24.0877 0
    endloop
  endfacet
  facet normal -0.248701 0.96858 0
    outer loop
      vertex -9.36907 49.1144 0
      vertex -15.4508 47.5528 2
      vertex -9.36907 49.1144 2
    endloop
  endfacet
  facet normal -0.248701 0.96858 0
    outer loop
      vertex -15.4508 47.5528 2
      vertex -9.36907 49.1144 0
      vertex -15.4508 47.5528 0
    endloop
  endfacet
  facet normal 0.125322 -0.992116 0
    outer loop
      vertex 3.13953 -49.9013 0
      vertex 9.36907 -49.1144 2
      vertex 3.13953 -49.9013 2
    endloop
  endfacet
  facet normal 0.125322 -0.992116 0
    outer loop
      vertex 9.36907 -49.1144 2
      vertex 3.13953 -49.9013 0
      vertex 9.36907 -49.1144 0
    endloop
  endfacet
  facet normal 0.481764 -0.876301 0
    outer loop
      vertex 21.289 -45.2414 0
      vertex 26.7913 -42.2164 2
      vertex 21.289 -45.2414 2
    endloop
  endfacet
  facet normal 0.481764 -0.876301 0
    outer loop
      vertex 26.7913 -42.2164 2
      vertex 21.289 -45.2414 0
      vertex 26.7913 -42.2164 0
    endloop
  endfacet
  facet normal 0.98229 -0.187369 0
    outer loop
      vertex 48.4292 -12.4345 2
      vertex 49.6057 -6.26666 0
      vertex 49.6057 -6.26666 2
    endloop
  endfacet
  facet normal 0.98229 -0.187369 0
    outer loop
      vertex 49.6057 -6.26666 0
      vertex 48.4292 -12.4345 2
      vertex 48.4292 -12.4345 0
    endloop
  endfacet
  facet normal -0.844335 0.535816 0
    outer loop
      vertex -43.8153 24.0877 0
      vertex -40.4509 29.3893 2
      vertex -40.4509 29.3893 0
    endloop
  endfacet
  facet normal -0.844335 0.535816 0
    outer loop
      vertex -40.4509 29.3893 2
      vertex -43.8153 24.0877 0
      vertex -43.8153 24.0877 2
    endloop
  endfacet
  facet normal 0.684549 0.728967 -0
    outer loop
      vertex 36.4484 34.2274 0
      vertex 31.8712 38.5257 2
      vertex 36.4484 34.2274 2
    endloop
  endfacet
  facet normal 0.684549 0.728967 0
    outer loop
      vertex 31.8712 38.5257 2
      vertex 36.4484 34.2274 0
      vertex 31.8712 38.5257 0
    endloop
  endfacet
  facet normal 0.36811 -0.929782 0
    outer loop
      vertex 15.4508 -47.5528 0
      vertex 21.289 -45.2414 2
      vertex 15.4508 -47.5528 2
    endloop
  endfacet
  facet normal 0.36811 -0.929782 0
    outer loop
      vertex 21.289 -45.2414 2
      vertex 15.4508 -47.5528 0
      vertex 21.289 -45.2414 0
    endloop
  endfacet
  facet normal -0.481764 -0.876301 0
    outer loop
      vertex -26.7913 -42.2164 0
      vertex -21.289 -45.2414 2
      vertex -26.7913 -42.2164 2
    endloop
  endfacet
  facet normal -0.481764 -0.876301 -0
    outer loop
      vertex -21.289 -45.2414 2
      vertex -26.7913 -42.2164 0
      vertex -21.289 -45.2414 0
    endloop
  endfacet
  facet normal 0.770507 0.637431 0
    outer loop
      vertex 40.4509 29.3893 2
      vertex 36.4484 34.2274 0
      vertex 36.4484 34.2274 2
    endloop
  endfacet
  facet normal 0.770507 0.637431 0
    outer loop
      vertex 36.4484 34.2274 0
      vertex 40.4509 29.3893 2
      vertex 40.4509 29.3893 0
    endloop
  endfacet
  facet normal 0.684549 -0.728967 0
    outer loop
      vertex 31.8712 -38.5257 0
      vertex 36.4484 -34.2274 2
      vertex 31.8712 -38.5257 2
    endloop
  endfacet
  facet normal 0.684549 -0.728967 0
    outer loop
      vertex 36.4484 -34.2274 2
      vertex 31.8712 -38.5257 0
      vertex 36.4484 -34.2274 0
    endloop
  endfacet
  facet normal 0.770507 -0.637431 0
    outer loop
      vertex 36.4484 -34.2274 2
      vertex 40.4509 -29.3893 0
      vertex 40.4509 -29.3893 2
    endloop
  endfacet
  facet normal 0.770507 -0.637431 0
    outer loop
      vertex 40.4509 -29.3893 0
      vertex 36.4484 -34.2274 2
      vertex 36.4484 -34.2274 0
    endloop
  endfacet
  facet normal -0.904828 0.425778 0
    outer loop
      vertex -46.4888 18.4062 0
      vertex -43.8153 24.0877 2
      vertex -43.8153 24.0877 0
    endloop
  endfacet
  facet normal -0.904828 0.425778 0
    outer loop
      vertex -43.8153 24.0877 2
      vertex -46.4888 18.4062 0
      vertex -46.4888 18.4062 2
    endloop
  endfacet
  facet normal 0.481764 0.876301 -0
    outer loop
      vertex 26.7913 42.2164 0
      vertex 21.289 45.2414 2
      vertex 26.7913 42.2164 2
    endloop
  endfacet
  facet normal 0.481764 0.876301 0
    outer loop
      vertex 21.289 45.2414 2
      vertex 26.7913 42.2164 0
      vertex 21.289 45.2414 0
    endloop
  endfacet
  facet normal -0.481764 0.876301 0
    outer loop
      vertex -21.289 45.2414 0
      vertex -26.7913 42.2164 2
      vertex -21.289 45.2414 2
    endloop
  endfacet
  facet normal -0.481764 0.876301 0
    outer loop
      vertex -26.7913 42.2164 2
      vertex -21.289 45.2414 0
      vertex -26.7913 42.2164 0
    endloop
  endfacet
  facet normal -0.125322 -0.992116 0
    outer loop
      vertex -9.36907 -49.1144 0
      vertex -3.13953 -49.9013 2
      vertex -9.36907 -49.1144 2
    endloop
  endfacet
  facet normal -0.125322 -0.992116 -0
    outer loop
      vertex -3.13953 -49.9013 2
      vertex -9.36907 -49.1144 0
      vertex -3.13953 -49.9013 0
    endloop
  endfacet
  facet normal -0.770507 -0.637431 0
    outer loop
      vertex -36.4484 -34.2274 0
      vertex -40.4509 -29.3893 2
      vertex -40.4509 -29.3893 0
    endloop
  endfacet
  facet normal -0.770507 -0.637431 0
    outer loop
      vertex -40.4509 -29.3893 2
      vertex -36.4484 -34.2274 0
      vertex -36.4484 -34.2274 2
    endloop
  endfacet
  facet normal -0.98229 -0.187369 0
    outer loop
      vertex -48.4292 -12.4345 0
      vertex -49.6057 -6.26666 2
      vertex -49.6057 -6.26666 0
    endloop
  endfacet
  facet normal -0.98229 -0.187369 0
    outer loop
      vertex -49.6057 -6.26666 2
      vertex -48.4292 -12.4345 0
      vertex -48.4292 -12.4345 2
    endloop
  endfacet
  facet normal -0.998026 -0.0627961 0
    outer loop
      vertex -49.6057 -6.26666 0
      vertex -50 0 2
      vertex -50 0 0
    endloop
  endfacet
  facet normal -0.998026 -0.0627961 0
    outer loop
      vertex -50 0 2
      vertex -49.6057 -6.26666 0
      vertex -49.6057 -6.26666 2
    endloop
  endfacet
  facet normal 0.125322 0.992116 -0
    outer loop
      vertex 9.36907 49.1144 0
      vertex 3.13953 49.9013 2
      vertex 9.36907 49.1144 2
    endloop
  endfacet
  facet normal 0.125322 0.992116 0
    outer loop
      vertex 3.13953 49.9013 2
      vertex 9.36907 49.1144 0
      vertex 3.13953 49.9013 0
    endloop
  endfacet
  facet normal -0.248701 -0.96858 0
    outer loop
      vertex -15.4508 -47.5528 0
      vertex -9.36907 -49.1144 2
      vertex -15.4508 -47.5528 2
    endloop
  endfacet
  facet normal -0.248701 -0.96858 -0
    outer loop
      vertex -9.36907 -49.1144 2
      vertex -15.4508 -47.5528 0
      vertex -9.36907 -49.1144 0
    endloop
  endfacet
  facet normal 0.248701 0.96858 -0
    outer loop
      vertex 15.4508 47.5528 0
      vertex 9.36907 49.1144 2
      vertex 15.4508 47.5528 2
    endloop
  endfacet
  facet normal 0.248701 0.96858 0
    outer loop
      vertex 9.36907 49.1144 2
      vertex 15.4508 47.5528 0
      vertex 9.36907 49.1144 0
    endloop
  endfacet
  facet normal -0.684549 -0.728967 0
    outer loop
      vertex -36.4484 -34.2274 0
      vertex -31.8712 -38.5257 2
      vertex -36.4484 -34.2274 2
    endloop
  endfacet
  facet normal -0.684549 -0.728967 -0
    outer loop
      vertex -31.8712 -38.5257 2
      vertex -36.4484 -34.2274 0
      vertex -31.8712 -38.5257 0
    endloop
  endfacet
  facet normal -0.587779 0.809022 0
    outer loop
      vertex -26.7913 42.2164 0
      vertex -31.8712 38.5257 2
      vertex -26.7913 42.2164 2
    endloop
  endfacet
  facet normal -0.587779 0.809022 0
    outer loop
      vertex -31.8712 38.5257 2
      vertex -26.7913 42.2164 0
      vertex -31.8712 38.5257 0
    endloop
  endfacet
  facet normal -0.951053 0.309028 0
    outer loop
      vertex -48.4292 12.4345 0
      vertex -46.4888 18.4062 2
      vertex -46.4888 18.4062 0
    endloop
  endfacet
  facet normal -0.951053 0.309028 0
    outer loop
      vertex -46.4888 18.4062 2
      vertex -48.4292 12.4345 0
      vertex -48.4292 12.4345 2
    endloop
  endfacet
  facet normal -0.36811 -0.929782 0
    outer loop
      vertex -21.289 -45.2414 0
      vertex -15.4508 -47.5528 2
      vertex -21.289 -45.2414 2
    endloop
  endfacet
  facet normal -0.36811 -0.929782 -0
    outer loop
      vertex -15.4508 -47.5528 2
      vertex -21.289 -45.2414 0
      vertex -15.4508 -47.5528 0
    endloop
  endfacet
  facet normal 0 -1 0
    outer loop
      vertex -3.13953 -49.9013 0
      vertex 3.13953 -49.9013 2
      vertex -3.13953 -49.9013 2
    endloop
  endfacet
  facet normal 0 -1 -0
    outer loop
      vertex 3.13953 -49.9013 2
      vertex -3.13953 -49.9013 0
      vertex 3.13953 -49.9013 0
    endloop
  endfacet
  facet normal -0.844335 -0.535816 0
    outer loop
      vertex -40.4509 -29.3893 0
      vertex -43.8153 -24.0877 2
      vertex -43.8153 -24.0877 0
    endloop
  endfacet
  facet normal -0.844335 -0.535816 0
    outer loop
      vertex -43.8153 -24.0877 2
      vertex -40.4509 -29.3893 0
      vertex -40.4509 -29.3893 2
    endloop
  endfacet
  facet normal 0 1 -0
    outer loop
      vertex 3.13953 49.9013 0
      vertex -3.13953 49.9013 2
      vertex 3.13953 49.9013 2
    endloop
  endfacet
  facet normal 0 1 0
    outer loop
      vertex -3.13953 49.9013 2
      vertex 3.13953 49.9013 0
      vertex -3.13953 49.9013 0
    endloop
  endfacet
  facet normal 0 0 -1
    outer loop
      vertex 45 0 0
      vertex 50 0 0
      vertex 49.6057 -6.26666 0
    endloop
  endfacet
  facet normal 0 0 -1
    outer loop
      vertex 44.6452 -5.63999 0
      vertex 49.6057 -6.26666 0
      vertex 48.4292 -12.4345 0
    endloop
  endfacet
  facet normal 0 0 -1
    outer loop
      vertex 50 0 0
      vertex 45 0 0
      vertex 49.6057 6.26666 0
    endloop
  endfacet
  facet normal 0 0 -1
    outer loop
      vertex 43.5862 -11.191 0
      vertex 48.4292 -12.4345 0
      vertex 46.4888 -18.4062 0
    endloop
  endfacet
  facet normal 0 0 -1
    outer loop
      vertex 44.6452 5.63999 0
      vertex 49.6057 6.26666 0
      vertex 45 0 0
    endloop
  endfacet
  facet normal -0 0 -1
    outer loop
      vertex 49.6057 6.26666 0
      vertex 44.6452 5.63999 0
      vertex 48.4292 12.4345 0
    endloop
  endfacet
  facet normal 0 0 -1
    outer loop
      vertex 49.6057 -6.26666 0
      vertex 44.6452 -5.63999 0
      vertex 45 0 0
    endloop
  endfacet
  facet normal 0 0 -1
    outer loop
      vertex 41.8399 -16.5656 0
      vertex 46.4888 -18.4062 0
      vertex 43.8153 -24.0877 0
    endloop
  endfacet
  facet normal 0 0 -1
    outer loop
      vertex 48.4292 -12.4345 0
      vertex 43.5862 -11.191 0
      vertex 44.6452 -5.63999 0
    endloop
  endfacet
  facet normal 0 0 -1
    outer loop
      vertex 46.4888 -18.4062 0
      vertex 41.8399 -16.5656 0
      vertex 43.5862 -11.191 0
    endloop
  endfacet
  facet normal 0 0 -1
    outer loop
      vertex 39.4338 -21.6789 0
      vertex 43.8153 -24.0877 0
      vertex 40.4509 -29.3893 0
    endloop
  endfacet
  facet normal 0 0 -1
    outer loop
      vertex 43.8153 -24.0877 0
      vertex 39.4338 -21.6789 0
      vertex 41.8399 -16.5656 0
    endloop
  endfacet
  facet normal 0 0 -1
    outer loop
      vertex 36.4058 -26.4503 0
      vertex 40.4509 -29.3893 0
      vertex 36.4484 -34.2274 0
    endloop
  endfacet
  facet normal 0 0 -1
    outer loop
      vertex 40.4509 -29.3893 0
      vertex 36.4058 -26.4503 0
      vertex 39.4338 -21.6789 0
    endloop
  endfacet
  facet normal 0 0 -1
    outer loop
      vertex 36.4484 -34.2274 0
      vertex 32.8036 -30.8046 0
      vertex 36.4058 -26.4503 0
    endloop
  endfacet
  facet normal 0 0 -1
    outer loop
      vertex 31.8712 -38.5257 0
      vertex 32.8036 -30.8046 0
      vertex 36.4484 -34.2274 0
    endloop
  endfacet
  facet normal 0 0 -1
    outer loop
      vertex 31.8712 -38.5257 0
      vertex 28.6841 -34.6731 0
      vertex 32.8036 -30.8046 0
    endloop
  endfacet
  facet normal 0 0 -1
    outer loop
      vertex 26.7913 -42.2164 0
      vertex 28.6841 -34.6731 0
      vertex 31.8712 -38.5257 0
    endloop
  endfacet
  facet normal 0 0 -1
    outer loop
      vertex 26.7913 -42.2164 0
      vertex 24.1122 -37.9948 0
      vertex 28.6841 -34.6731 0
    endloop
  endfacet
  facet normal 0 0 -1
    outer loop
      vertex 21.289 -45.2414 0
      vertex 24.1122 -37.9948 0
      vertex 26.7913 -42.2164 0
    endloop
  endfacet
  facet normal 0 0 -1
    outer loop
      vertex 21.289 -45.2414 0
      vertex 19.1601 -40.7172 0
      vertex 24.1122 -37.9948 0
    endloop
  endfacet
  facet normal 0 0 -1
    outer loop
      vertex 15.4508 -47.5528 0
      vertex 19.1601 -40.7172 0
      vertex 21.289 -45.2414 0
    endloop
  endfacet
  facet normal 0 0 -1
    outer loop
      vertex 15.4508 -47.5528 0
      vertex 13.9058 -42.7975 0
      vertex 19.1601 -40.7172 0
    endloop
  endfacet
  facet normal 0 0 -1
    outer loop
      vertex 9.36907 -49.1144 0
      vertex 13.9058 -42.7975 0
      vertex 15.4508 -47.5528 0
    endloop
  endfacet
  facet normal 0 0 -1
    outer loop
      vertex 9.36907 -49.1144 0
      vertex 8.43216 -44.2029 0
      vertex 13.9058 -42.7975 0
    endloop
  endfacet
  facet normal 0 0 -1
    outer loop
      vertex 3.13953 -49.9013 0
      vertex 8.43216 -44.2029 0
      vertex 9.36907 -49.1144 0
    endloop
  endfacet
  facet normal 0 0 -1
    outer loop
      vertex 3.13953 -49.9013 0
      vertex 2.82557 -44.9112 0
      vertex 8.43216 -44.2029 0
    endloop
  endfacet
  facet normal 0 0 -1
    outer loop
      vertex 3.13953 -49.9013 0
      vertex -2.82557 -44.9112 0
      vertex 2.82557 -44.9112 0
    endloop
  endfacet
  facet normal 0 0 -1
    outer loop
      vertex -3.13953 -49.9013 0
      vertex -2.82557 -44.9112 0
      vertex 3.13953 -49.9013 0
    endloop
  endfacet
  facet normal 0 0 -1
    outer loop
      vertex -3.13953 -49.9013 0
      vertex -8.43216 -44.2029 0
      vertex -2.82557 -44.9112 0
    endloop
  endfacet
  facet normal 0 0 -1
    outer loop
      vertex -9.36907 -49.1144 0
      vertex -8.43216 -44.2029 0
      vertex -3.13953 -49.9013 0
    endloop
  endfacet
  facet normal 0 0 -1
    outer loop
      vertex -9.36907 -49.1144 0
      vertex -13.9058 -42.7975 0
      vertex -8.43216 -44.2029 0
    endloop
  endfacet
  facet normal 0 0 -1
    outer loop
      vertex -15.4508 -47.5528 0
      vertex -13.9058 -42.7975 0
      vertex -9.36907 -49.1144 0
    endloop
  endfacet
  facet normal 0 0 -1
    outer loop
      vertex -15.4508 -47.5528 0
      vertex -19.1601 -40.7172 0
      vertex -13.9058 -42.7975 0
    endloop
  endfacet
  facet normal 0 0 -1
    outer loop
      vertex -21.289 -45.2414 0
      vertex -19.1601 -40.7172 0
      vertex -15.4508 -47.5528 0
    endloop
  endfacet
  facet normal 0 0 -1
    outer loop
      vertex -21.289 -45.2414 0
      vertex -24.1122 -37.9948 0
      vertex -19.1601 -40.7172 0
    endloop
  endfacet
  facet normal 0 0 -1
    outer loop
      vertex -26.7913 -42.2164 0
      vertex -24.1122 -37.9948 0
      vertex -21.289 -45.2414 0
    endloop
  endfacet
  facet normal 0 0 -1
    outer loop
      vertex -26.7913 -42.2164 0
      vertex -28.6841 -34.6731 0
      vertex -24.1122 -37.9948 0
    endloop
  endfacet
  facet normal 0 0 -1
    outer loop
      vertex -31.8712 -38.5257 0
      vertex -28.6841 -34.6731 0
      vertex -26.7913 -42.2164 0
    endloop
  endfacet
  facet normal 0 0 -1
    outer loop
      vertex -31.8712 -38.5257 0
      vertex -32.8036 -30.8046 0
      vertex -28.6841 -34.6731 0
    endloop
  endfacet
  facet normal 0 0 -1
    outer loop
      vertex -36.4484 -34.2274 0
      vertex -32.8036 -30.8046 0
      vertex -31.8712 -38.5257 0
    endloop
  endfacet
  facet normal -0 0 -1
    outer loop
      vertex -32.8036 -30.8046 0
      vertex -36.4484 -34.2274 0
      vertex -36.4058 -26.4503 0
    endloop
  endfacet
  facet normal 0 0 -1
    outer loop
      vertex -40.4509 -29.3893 0
      vertex -36.4058 -26.4503 0
      vertex -36.4484 -34.2274 0
    endloop
  endfacet
  facet normal -0 0 -1
    outer loop
      vertex -36.4058 -26.4503 0
      vertex -40.4509 -29.3893 0
      vertex -39.4338 -21.6789 0
    endloop
  endfacet
  facet normal 0 0 -1
    outer loop
      vertex -43.8153 -24.0877 0
      vertex -39.4338 -21.6789 0
      vertex -40.4509 -29.3893 0
    endloop
  endfacet
  facet normal -0 0 -1
    outer loop
      vertex -39.4338 -21.6789 0
      vertex -43.8153 -24.0877 0
      vertex -41.8399 -16.5656 0
    endloop
  endfacet
  facet normal 0 0 -1
    outer loop
      vertex -46.4888 -18.4062 0
      vertex -41.8399 -16.5656 0
      vertex -43.8153 -24.0877 0
    endloop
  endfacet
  facet normal -0 0 -1
    outer loop
      vertex -41.8399 -16.5656 0
      vertex -46.4888 -18.4062 0
      vertex -43.5862 -11.191 0
    endloop
  endfacet
  facet normal 0 0 -1
    outer loop
      vertex -48.4292 -12.4345 0
      vertex -43.5862 -11.191 0
      vertex -46.4888 -18.4062 0
    endloop
  endfacet
  facet normal -0 0 -1
    outer loop
      vertex -43.5862 -11.191 0
      vertex -48.4292 -12.4345 0
      vertex -44.6452 -5.63999 0
    endloop
  endfacet
  facet normal 0 0 -1
    outer loop
      vertex 43.5862 11.191 0
      vertex 48.4292 12.4345 0
      vertex 44.6452 5.63999 0
    endloop
  endfacet
  facet normal -0 0 -1
    outer loop
      vertex 48.4292 12.4345 0
      vertex 43.5862 11.191 0
      vertex 46.4888 18.4062 0
    endloop
  endfacet
  facet normal 0 0 -1
    outer loop
      vertex 41.8399 16.5656 0
      vertex 46.4888 18.4062 0
      vertex 43.5862 11.191 0
    endloop
  endfacet
  facet normal -0 0 -1
    outer loop
      vertex 46.4888 18.4062 0
      vertex 41.8399 16.5656 0
      vertex 43.8153 24.0877 0
    endloop
  endfacet
  facet normal 0 0 -1
    outer loop
      vertex 39.4338 21.6789 0
      vertex 43.8153 24.0877 0
      vertex 41.8399 16.5656 0
    endloop
  endfacet
  facet normal -0 0 -1
    outer loop
      vertex 43.8153 24.0877 0
      vertex 39.4338 21.6789 0
      vertex 40.4509 29.3893 0
    endloop
  endfacet
  facet normal 0 0 -1
    outer loop
      vertex 36.4058 26.4503 0
      vertex 40.4509 29.3893 0
      vertex 39.4338 21.6789 0
    endloop
  endfacet
  facet normal -0 0 -1
    outer loop
      vertex 40.4509 29.3893 0
      vertex 36.4058 26.4503 0
      vertex 36.4484 34.2274 0
    endloop
  endfacet
  facet normal 0 0 -1
    outer loop
      vertex 32.8036 30.8046 0
      vertex 36.4484 34.2274 0
      vertex 36.4058 26.4503 0
    endloop
  endfacet
  facet normal 0 0 -1
    outer loop
      vertex 32.8036 30.8046 0
      vertex 31.8712 38.5257 0
      vertex 36.4484 34.2274 0
    endloop
  endfacet
  facet normal 0 0 -1
    outer loop
      vertex 28.6841 34.6731 0
      vertex 31.8712 38.5257 0
      vertex 32.8036 30.8046 0
    endloop
  endfacet
  facet normal 0 0 -1
    outer loop
      vertex 28.6841 34.6731 0
      vertex 26.7913 42.2164 0
      vertex 31.8712 38.5257 0
    endloop
  endfacet
  facet normal 0 0 -1
    outer loop
      vertex 24.1122 37.9948 0
      vertex 26.7913 42.2164 0
      vertex 28.6841 34.6731 0
    endloop
  endfacet
  facet normal 0 0 -1
    outer loop
      vertex 24.1122 37.9948 0
      vertex 21.289 45.2414 0
      vertex 26.7913 42.2164 0
    endloop
  endfacet
  facet normal 0 0 -1
    outer loop
      vertex 19.1601 40.7172 0
      vertex 21.289 45.2414 0
      vertex 24.1122 37.9948 0
    endloop
  endfacet
  facet normal 0 0 -1
    outer loop
      vertex 19.1601 40.7172 0
      vertex 15.4508 47.5528 0
      vertex 21.289 45.2414 0
    endloop
  endfacet
  facet normal 0 0 -1
    outer loop
      vertex 13.9058 42.7975 0
      vertex 15.4508 47.5528 0
      vertex 19.1601 40.7172 0
    endloop
  endfacet
  facet normal 0 0 -1
    outer loop
      vertex 13.9058 42.7975 0
      vertex 9.36907 49.1144 0
      vertex 15.4508 47.5528 0
    endloop
  endfacet
  facet normal 0 0 -1
    outer loop
      vertex 8.43216 44.2029 0
      vertex 9.36907 49.1144 0
      vertex 13.9058 42.7975 0
    endloop
  endfacet
  facet normal 0 0 -1
    outer loop
      vertex 8.43216 44.2029 0
      vertex 3.13953 49.9013 0
      vertex 9.36907 49.1144 0
    endloop
  endfacet
  facet normal 0 0 -1
    outer loop
      vertex 2.82557 44.9112 0
      vertex 3.13953 49.9013 0
      vertex 8.43216 44.2029 0
    endloop
  endfacet
  facet normal 0 0 -1
    outer loop
      vertex -2.82557 44.9112 0
      vertex 3.13953 49.9013 0
      vertex 2.82557 44.9112 0
    endloop
  endfacet
  facet normal 0 0 -1
    outer loop
      vertex -2.82557 44.9112 0
      vertex -3.13953 49.9013 0
      vertex 3.13953 49.9013 0
    endloop
  endfacet
  facet normal 0 0 -1
    outer loop
      vertex -8.43216 44.2029 0
      vertex -3.13953 49.9013 0
      vertex -2.82557 44.9112 0
    endloop
  endfacet
  facet normal 0 0 -1
    outer loop
      vertex -8.43216 44.2029 0
      vertex -9.36907 49.1144 0
      vertex -3.13953 49.9013 0
    endloop
  endfacet
  facet normal 0 0 -1
    outer loop
      vertex -13.9058 42.7975 0
      vertex -9.36907 49.1144 0
      vertex -8.43216 44.2029 0
    endloop
  endfacet
  facet normal 0 0 -1
    outer loop
      vertex -13.9058 42.7975 0
      vertex -15.4508 47.5528 0
      vertex -9.36907 49.1144 0
    endloop
  endfacet
  facet normal 0 0 -1
    outer loop
      vertex -19.1601 40.7172 0
      vertex -15.4508 47.5528 0
      vertex -13.9058 42.7975 0
    endloop
  endfacet
  facet normal 0 0 -1
    outer loop
      vertex -19.1601 40.7172 0
      vertex -21.289 45.2414 0
      vertex -15.4508 47.5528 0
    endloop
  endfacet
  facet normal 0 0 -1
    outer loop
      vertex -24.1122 37.9948 0
      vertex -21.289 45.2414 0
      vertex -19.1601 40.7172 0
    endloop
  endfacet
  facet normal 0 0 -1
    outer loop
      vertex -24.1122 37.9948 0
      vertex -26.7913 42.2164 0
      vertex -21.289 45.2414 0
    endloop
  endfacet
  facet normal 0 0 -1
    outer loop
      vertex -28.6841 34.6731 0
      vertex -26.7913 42.2164 0
      vertex -24.1122 37.9948 0
    endloop
  endfacet
  facet normal 0 0 -1
    outer loop
      vertex -28.6841 34.6731 0
      vertex -31.8712 38.5257 0
      vertex -26.7913 42.2164 0
    endloop
  endfacet
  facet normal 0 0 -1
    outer loop
      vertex -32.8036 30.8046 0
      vertex -31.8712 38.5257 0
      vertex -28.6841 34.6731 0
    endloop
  endfacet
  facet normal 0 0 -1
    outer loop
      vertex -36.4484 34.2274 0
      vertex -32.8036 30.8046 0
      vertex -36.4058 26.4503 0
    endloop
  endfacet
  facet normal 0 0 -1
    outer loop
      vertex -32.8036 30.8046 0
      vertex -36.4484 34.2274 0
      vertex -31.8712 38.5257 0
    endloop
  endfacet
  facet normal 0 0 -1
    outer loop
      vertex -40.4509 29.3893 0
      vertex -36.4058 26.4503 0
      vertex -39.4338 21.6789 0
    endloop
  endfacet
  facet normal 0 0 -1
    outer loop
      vertex -36.4058 26.4503 0
      vertex -40.4509 29.3893 0
      vertex -36.4484 34.2274 0
    endloop
  endfacet
  facet normal 0 0 -1
    outer loop
      vertex -43.8153 24.0877 0
      vertex -39.4338 21.6789 0
      vertex -41.8399 16.5656 0
    endloop
  endfacet
  facet normal 0 0 -1
    outer loop
      vertex -46.4888 18.4062 0
      vertex -41.8399 16.5656 0
      vertex -43.5862 11.191 0
    endloop
  endfacet
  facet normal 0 0 -1
    outer loop
      vertex -39.4338 21.6789 0
      vertex -43.8153 24.0877 0
      vertex -40.4509 29.3893 0
    endloop
  endfacet
  facet normal 0 0 -1
    outer loop
      vertex -48.4292 12.4345 0
      vertex -43.5862 11.191 0
      vertex -44.6452 5.63999 0
    endloop
  endfacet
  facet normal 0 0 -1
    outer loop
      vertex -49.6057 6.26666 0
      vertex -44.6452 5.63999 0
      vertex -45 0 0
    endloop
  endfacet
  facet normal 0 0 -1
    outer loop
      vertex -49.6057 -6.26666 0
      vertex -44.6452 -5.63999 0
      vertex -48.4292 -12.4345 0
    endloop
  endfacet
  facet normal 0 0 -1
    outer loop
      vertex -41.8399 16.5656 0
      vertex -46.4888 18.4062 0
      vertex -43.8153 24.0877 0
    endloop
  endfacet
  facet normal -0 0 -1
    outer loop
      vertex -44.6452 -5.63999 0
      vertex -49.6057 -6.26666 0
      vertex -45 0 0
    endloop
  endfacet
  facet normal 0 0 -1
    outer loop
      vertex -43.5862 11.191 0
      vertex -48.4292 12.4345 0
      vertex -46.4888 18.4062 0
    endloop
  endfacet
  facet normal 0 0 -1
    outer loop
      vertex -50 0 0
      vertex -45 0 0
      vertex -49.6057 -6.26666 0
    endloop
  endfacet
  facet normal 0 0 -1
    outer loop
      vertex -44.6452 5.63999 0
      vertex -49.6057 6.26666 0
      vertex -48.4292 12.4345 0
    endloop
  endfacet
  facet normal 0 0 -1
    outer loop
      vertex -45 0 0
      vertex -50 0 0
      vertex -49.6057 6.26666 0
    endloop
  endfacet
  facet normal 0 0 1
    outer loop
      vertex 49.6057 6.26666 2
      vertex 49.6057 -6.26666 2
      vertex 50 0 2
    endloop
  endfacet
  facet normal 0 0 1
    outer loop
      vertex 48.4292 12.4345 2
      vertex 49.6057 -6.26666 2
      vertex 49.6057 6.26666 2
    endloop
  endfacet
  facet normal 0 0 1
    outer loop
      vertex 48.4292 12.4345 2
      vertex 48.4292 -12.4345 2
      vertex 49.6057 -6.26666 2
    endloop
  endfacet
  facet normal 0 0 1
    outer loop
      vertex 46.4888 18.4062 2
      vertex 48.4292 -12.4345 2
      vertex 48.4292 12.4345 2
    endloop
  endfacet
  facet normal 0 0 1
    outer loop
      vertex 46.4888 18.4062 2
      vertex 46.4888 -18.4062 2
      vertex 48.4292 -12.4345 2
    endloop
  endfacet
  facet normal 0 0 1
    outer loop
      vertex 43.8153 24.0877 2
      vertex 46.4888 -18.4062 2
      vertex 46.4888 18.4062 2
    endloop
  endfacet
  facet normal 0 0 1
    outer loop
      vertex 43.8153 24.0877 2
      vertex 43.8153 -24.0877 2
      vertex 46.4888 -18.4062 2
    endloop
  endfacet
  facet normal 0 0 1
    outer loop
      vertex 40.4509 29.3893 2
      vertex 43.8153 -24.0877 2
      vertex 43.8153 24.0877 2
    endloop
  endfacet
  facet normal 0 0 1
    outer loop
      vertex 40.4509 29.3893 2
      vertex 40.4509 -29.3893 2
      vertex 43.8153 -24.0877 2
    endloop
  endfacet
  facet normal 0 0 1
    outer loop
      vertex 36.4484 34.2274 2
      vertex 40.4509 -29.3893 2
      vertex 40.4509 29.3893 2
    endloop
  endfacet
  facet normal 0 0 1
    outer loop
      vertex 36.4484 34.2274 2
      vertex 36.4484 -34.2274 2
      vertex 40.4509 -29.3893 2
    endloop
  endfacet
  facet normal 0 0 1
    outer loop
      vertex 31.8712 38.5257 2
      vertex 36.4484 -34.2274 2
      vertex 36.4484 34.2274 2
    endloop
  endfacet
  facet normal 0 0 1
    outer loop
      vertex 31.8712 38.5257 2
      vertex 31.8712 -38.5257 2
      vertex 36.4484 -34.2274 2
    endloop
  endfacet
  facet normal 0 0 1
    outer loop
      vertex 26.7913 42.2164 2
      vertex 31.8712 -38.5257 2
      vertex 31.8712 38.5257 2
    endloop
  endfacet
  facet normal 0 0 1
    outer loop
      vertex 26.7913 42.2164 2
      vertex 26.7913 -42.2164 2
      vertex 31.8712 -38.5257 2
    endloop
  endfacet
  facet normal 0 0 1
    outer loop
      vertex 21.289 45.2414 2
      vertex 26.7913 -42.2164 2
      vertex 26.7913 42.2164 2
    endloop
  endfacet
  facet normal 0 0 1
    outer loop
      vertex 21.289 45.2414 2
      vertex 21.289 -45.2414 2
      vertex 26.7913 -42.2164 2
    endloop
  endfacet
  facet normal 0 0 1
    outer loop
      vertex 15.4508 47.5528 2
      vertex 21.289 -45.2414 2
      vertex 21.289 45.2414 2
    endloop
  endfacet
  facet normal 0 0 1
    outer loop
      vertex 15.4508 47.5528 2
      vertex 15.4508 -47.5528 2
      vertex 21.289 -45.2414 2
    endloop
  endfacet
  facet normal 0 0 1
    outer loop
      vertex 9.36907 49.1144 2
      vertex 15.4508 -47.5528 2
      vertex 15.4508 47.5528 2
    endloop
  endfacet
  facet normal 0 0 1
    outer loop
      vertex 9.36907 49.1144 2
      vertex 9.36907 -49.1144 2
      vertex 15.4508 -47.5528 2
    endloop
  endfacet
  facet normal 0 0 1
    outer loop
      vertex 3.13953 49.9013 2
      vertex 9.36907 -49.1144 2
      vertex 9.36907 49.1144 2
    endloop
  endfacet
  facet normal 0 0 1
    outer loop
      vertex 3.13953 49.9013 2
      vertex 3.13953 -49.9013 2
      vertex 9.36907 -49.1144 2
    endloop
  endfacet
  facet normal -0 0 1
    outer loop
      vertex -3.13953 49.9013 2
      vertex 3.13953 -49.9013 2
      vertex 3.13953 49.9013 2
    endloop
  endfacet
  facet normal 0 0 1
    outer loop
      vertex -3.13953 49.9013 2
      vertex -3.13953 -49.9013 2
      vertex 3.13953 -49.9013 2
    endloop
  endfacet
  facet normal -0 0 1
    outer loop
      vertex -9.36907 49.1144 2
      vertex -3.13953 -49.9013 2
      vertex -3.13953 49.9013 2
    endloop
  endfacet
  facet normal 0 0 1
    outer loop
      vertex -9.36907 49.1144 2
      vertex -9.36907 -49.1144 2
      vertex -3.13953 -49.9013 2
    endloop
  endfacet
  facet normal -0 0 1
    outer loop
      vertex -15.4508 47.5528 2
      vertex -9.36907 -49.1144 2
      vertex -9.36907 49.1144 2
    endloop
  endfacet
  facet normal 0 0 1
    outer loop
      vertex -15.4508 47.5528 2
      vertex -15.4508 -47.5528 2
      vertex -9.36907 -49.1144 2
    endloop
  endfacet
  facet normal -0 0 1
    outer loop
      vertex -21.289 45.2414 2
      vertex -15.4508 -47.5528 2
      vertex -15.4508 47.5528 2
    endloop
  endfacet
  facet normal 0 0 1
    outer loop
      vertex -21.289 45.2414 2
      vertex -21.289 -45.2414 2
      vertex -15.4508 -47.5528 2
    endloop
  endfacet
  facet normal -0 0 1
    outer loop
      vertex -26.7913 42.2164 2
      vertex -21.289 -45.2414 2
      vertex -21.289 45.2414 2
    endloop
  endfacet
  facet normal 0 0 1
    outer loop
      vertex -26.7913 42.2164 2
      vertex -26.7913 -42.2164 2
      vertex -21.289 -45.2414 2
    endloop
  endfacet
  facet normal -0 0 1
    outer loop
      vertex -31.8712 38.5257 2
      vertex -26.7913 -42.2164 2
      vertex -26.7913 42.2164 2
    endloop
  endfacet
  facet normal 0 0 1
    outer loop
      vertex -31.8712 38.5257 2
      vertex -31.8712 -38.5257 2
      vertex -26.7913 -42.2164 2
    endloop
  endfacet
  facet normal -0 0 1
    outer loop
      vertex -36.4484 34.2274 2
      vertex -31.8712 -38.5257 2
      vertex -31.8712 38.5257 2
    endloop
  endfacet
  facet normal 0 0 1
    outer loop
      vertex -36.4484 34.2274 2
      vertex -36.4484 -34.2274 2
      vertex -31.8712 -38.5257 2
    endloop
  endfacet
  facet normal -0 0 1
    outer loop
      vertex -40.4509 29.3893 2
      vertex -36.4484 -34.2274 2
      vertex -36.4484 34.2274 2
    endloop
  endfacet
  facet normal 0 0 1
    outer loop
      vertex -40.4509 29.3893 2
      vertex -40.4509 -29.3893 2
      vertex -36.4484 -34.2274 2
    endloop
  endfacet
  facet normal -0 0 1
    outer loop
      vertex -43.8153 24.0877 2
      vertex -40.4509 -29.3893 2
      vertex -40.4509 29.3893 2
    endloop
  endfacet
  facet normal 0 0 1
    outer loop
      vertex -43.8153 24.0877 2
      vertex -43.8153 -24.0877 2
      vertex -40.4509 -29.3893 2
    endloop
  endfacet
  facet normal -0 0 1
    outer loop
      vertex -46.4888 18.4062 2
      vertex -43.8153 -24.0877 2
      vertex -43.8153 24.0877 2
    endloop
  endfacet
  facet normal 0 0 1
    outer loop
      vertex -46.4888 18.4062 2
      vertex -46.4888 -18.4062 2
      vertex -43.8153 -24.0877 2
    endloop
  endfacet
  facet normal -0 0 1
    outer loop
      vertex -48.4292 12.4345 2
      vertex -46.4888 -18.4062 2
      vertex -46.4888 18.4062 2
    endloop
  endfacet
  facet normal 0 0 1
    outer loop
      vertex -48.4292 12.4345 2
      vertex -48.4292 -12.4345 2
      vertex -46.4888 -18.4062 2
    endloop
  endfacet
  facet normal -0 0 1
    outer loop
      vertex -49.6057 6.26666 2
      vertex -48.4292 -12.4345 2
      vertex -48.4292 12.4345 2
    endloop
  endfacet
  facet normal 0 0 1
    outer loop
      vertex -49.6057 6.26666 2
      vertex -49.6057 -6.26666 2
      vertex -48.4292 -12.4345 2
    endloop
  endfacet
  facet normal 0 -0 1
    outer loop
      vertex -49.6057 -6.26666 2
      vertex -49.6057 6.26666 2
      vertex -50 0 2
    endloop
  endfacet
  facet normal -0.368121 0.929778 0
    outer loop
      vertex 19.1601 -40.7172 0
      vertex 13.9058 -42.7975 1.2
      vertex 19.1601 -40.7172 1.2
    endloop
  endfacet
  facet normal -0.368121 0.929778 0
    outer loop
      vertex 13.9058 -42.7975 1.2
      vertex 19.1601 -40.7172 0
      vertex 13.9058 -42.7975 0
    endloop
  endfacet
  facet normal -0.770512 -0.637425 0
    outer loop
      vertex 36.4058 26.4503 0
      vertex 32.8036 30.8046 1.2
      vertex 32.8036 30.8046 0
    endloop
  endfacet
  facet normal -0.770512 -0.637425 0
    outer loop
      vertex 32.8036 30.8046 1.2
      vertex 36.4058 26.4503 0
      vertex 36.4058 26.4503 1.2
    endloop
  endfacet
  facet normal -0.481748 -0.87631 0
    outer loop
      vertex 19.1601 40.7172 0
      vertex 24.1122 37.9948 1.2
      vertex 19.1601 40.7172 1.2
    endloop
  endfacet
  facet normal -0.481748 -0.87631 -0
    outer loop
      vertex 24.1122 37.9948 1.2
      vertex 19.1601 40.7172 0
      vertex 24.1122 37.9948 0
    endloop
  endfacet
  facet normal 0.68455 0.728966 -0
    outer loop
      vertex -28.6841 -34.6731 0
      vertex -32.8036 -30.8046 1.2
      vertex -28.6841 -34.6731 1.2
    endloop
  endfacet
  facet normal 0.68455 0.728966 0
    outer loop
      vertex -32.8036 -30.8046 1.2
      vertex -28.6841 -34.6731 0
      vertex -32.8036 -30.8046 0
    endloop
  endfacet
  facet normal 0 -1 0
    outer loop
      vertex -2.82557 44.9112 0
      vertex 2.82557 44.9112 1.2
      vertex -2.82557 44.9112 1.2
    endloop
  endfacet
  facet normal 0 -1 -0
    outer loop
      vertex 2.82557 44.9112 1.2
      vertex -2.82557 44.9112 0
      vertex 2.82557 44.9112 0
    endloop
  endfacet
  facet normal -0.998027 -0.0627838 0
    outer loop
      vertex 45 0 0
      vertex 44.6452 5.63999 1.2
      vertex 44.6452 5.63999 0
    endloop
  endfacet
  facet normal -0.998027 -0.0627838 0
    outer loop
      vertex 44.6452 5.63999 1.2
      vertex 45 0 0
      vertex 45 0 1.2
    endloop
  endfacet
  facet normal 0.68455 -0.728966 0
    outer loop
      vertex -32.8036 30.8046 0
      vertex -28.6841 34.6731 1.2
      vertex -32.8036 30.8046 1.2
    endloop
  endfacet
  facet normal 0.68455 -0.728966 0
    outer loop
      vertex -28.6841 34.6731 1.2
      vertex -32.8036 30.8046 0
      vertex -28.6841 34.6731 0
    endloop
  endfacet
  facet normal -0.998027 0.0627838 0
    outer loop
      vertex 44.6452 -5.63999 0
      vertex 45 0 1.2
      vertex 45 0 0
    endloop
  endfacet
  facet normal -0.998027 0.0627838 0
    outer loop
      vertex 45 0 1.2
      vertex 44.6452 -5.63999 0
      vertex 44.6452 -5.63999 1.2
    endloop
  endfacet
  facet normal 0.770512 -0.637425 0
    outer loop
      vertex -36.4058 26.4503 1.2
      vertex -32.8036 30.8046 0
      vertex -32.8036 30.8046 1.2
    endloop
  endfacet
  facet normal 0.770512 -0.637425 0
    outer loop
      vertex -32.8036 30.8046 0
      vertex -36.4058 26.4503 1.2
      vertex -36.4058 26.4503 0
    endloop
  endfacet
  facet normal 0.998027 0.0627838 0
    outer loop
      vertex -44.6452 -5.63999 1.2
      vertex -45 0 0
      vertex -45 0 1.2
    endloop
  endfacet
  facet normal 0.998027 0.0627838 0
    outer loop
      vertex -45 0 0
      vertex -44.6452 -5.63999 1.2
      vertex -44.6452 -5.63999 0
    endloop
  endfacet
  facet normal 0.248691 -0.968583 0
    outer loop
      vertex -13.9058 42.7975 0
      vertex -8.43216 44.2029 1.2
      vertex -13.9058 42.7975 1.2
    endloop
  endfacet
  facet normal 0.248691 -0.968583 0
    outer loop
      vertex -8.43216 44.2029 1.2
      vertex -13.9058 42.7975 0
      vertex -8.43216 44.2029 0
    endloop
  endfacet
  facet normal -0.982284 -0.187396 0
    outer loop
      vertex 44.6452 5.63999 0
      vertex 43.5862 11.191 1.2
      vertex 43.5862 11.191 0
    endloop
  endfacet
  facet normal -0.982284 -0.187396 0
    outer loop
      vertex 43.5862 11.191 1.2
      vertex 44.6452 5.63999 0
      vertex 44.6452 5.63999 1.2
    endloop
  endfacet
  facet normal -0.125337 -0.992114 0
    outer loop
      vertex 2.82557 44.9112 0
      vertex 8.43216 44.2029 1.2
      vertex 2.82557 44.9112 1.2
    endloop
  endfacet
  facet normal -0.125337 -0.992114 -0
    outer loop
      vertex 8.43216 44.2029 1.2
      vertex 2.82557 44.9112 0
      vertex 8.43216 44.2029 0
    endloop
  endfacet
  facet normal 0.998027 -0.0627838 0
    outer loop
      vertex -45 0 1.2
      vertex -44.6452 5.63999 0
      vertex -44.6452 5.63999 1.2
    endloop
  endfacet
  facet normal 0.998027 -0.0627838 0
    outer loop
      vertex -44.6452 5.63999 0
      vertex -45 0 1.2
      vertex -45 0 0
    endloop
  endfacet
  facet normal -0.587788 -0.809015 0
    outer loop
      vertex 24.1122 37.9948 0
      vertex 28.6841 34.6731 1.2
      vertex 24.1122 37.9948 1.2
    endloop
  endfacet
  facet normal -0.587788 -0.809015 -0
    outer loop
      vertex 28.6841 34.6731 1.2
      vertex 24.1122 37.9948 0
      vertex 28.6841 34.6731 0
    endloop
  endfacet
  facet normal -0.368121 -0.929778 0
    outer loop
      vertex 13.9058 42.7975 0
      vertex 19.1601 40.7172 1.2
      vertex 13.9058 42.7975 1.2
    endloop
  endfacet
  facet normal -0.368121 -0.929778 -0
    outer loop
      vertex 19.1601 40.7172 1.2
      vertex 13.9058 42.7975 0
      vertex 19.1601 40.7172 0
    endloop
  endfacet
  facet normal 0.587788 -0.809015 0
    outer loop
      vertex -28.6841 34.6731 0
      vertex -24.1122 37.9948 1.2
      vertex -28.6841 34.6731 1.2
    endloop
  endfacet
  facet normal 0.587788 -0.809015 0
    outer loop
      vertex -24.1122 37.9948 1.2
      vertex -28.6841 34.6731 0
      vertex -24.1122 37.9948 0
    endloop
  endfacet
  facet normal -0.951057 -0.309015 0
    outer loop
      vertex 43.5862 11.191 0
      vertex 41.8399 16.5656 1.2
      vertex 41.8399 16.5656 0
    endloop
  endfacet
  facet normal -0.951057 -0.309015 0
    outer loop
      vertex 41.8399 16.5656 1.2
      vertex 43.5862 11.191 0
      vertex 43.5862 11.191 1.2
    endloop
  endfacet
  facet normal -0.951057 0.309015 0
    outer loop
      vertex 41.8399 -16.5656 0
      vertex 43.5862 -11.191 1.2
      vertex 43.5862 -11.191 0
    endloop
  endfacet
  facet normal -0.951057 0.309015 0
    outer loop
      vertex 43.5862 -11.191 1.2
      vertex 41.8399 -16.5656 0
      vertex 41.8399 -16.5656 1.2
    endloop
  endfacet
  facet normal 0.587788 0.809015 -0
    outer loop
      vertex -24.1122 -37.9948 0
      vertex -28.6841 -34.6731 1.2
      vertex -24.1122 -37.9948 1.2
    endloop
  endfacet
  facet normal 0.587788 0.809015 0
    outer loop
      vertex -28.6841 -34.6731 1.2
      vertex -24.1122 -37.9948 0
      vertex -28.6841 -34.6731 0
    endloop
  endfacet
  facet normal 0 1 -0
    outer loop
      vertex 2.82557 -44.9112 0
      vertex -2.82557 -44.9112 1.2
      vertex 2.82557 -44.9112 1.2
    endloop
  endfacet
  facet normal 0 1 0
    outer loop
      vertex -2.82557 -44.9112 1.2
      vertex 2.82557 -44.9112 0
      vertex -2.82557 -44.9112 0
    endloop
  endfacet
  facet normal -0.84433 -0.535824 0
    outer loop
      vertex 39.4338 21.6789 0
      vertex 36.4058 26.4503 1.2
      vertex 36.4058 26.4503 0
    endloop
  endfacet
  facet normal -0.84433 -0.535824 0
    outer loop
      vertex 36.4058 26.4503 1.2
      vertex 39.4338 21.6789 0
      vertex 39.4338 21.6789 1.2
    endloop
  endfacet
  facet normal -0.481748 0.87631 0
    outer loop
      vertex 24.1122 -37.9948 0
      vertex 19.1601 -40.7172 1.2
      vertex 24.1122 -37.9948 1.2
    endloop
  endfacet
  facet normal -0.481748 0.87631 0
    outer loop
      vertex 19.1601 -40.7172 1.2
      vertex 24.1122 -37.9948 0
      vertex 19.1601 -40.7172 0
    endloop
  endfacet
  facet normal -0.587788 0.809015 0
    outer loop
      vertex 28.6841 -34.6731 0
      vertex 24.1122 -37.9948 1.2
      vertex 28.6841 -34.6731 1.2
    endloop
  endfacet
  facet normal -0.587788 0.809015 0
    outer loop
      vertex 24.1122 -37.9948 1.2
      vertex 28.6841 -34.6731 0
      vertex 24.1122 -37.9948 0
    endloop
  endfacet
  facet normal 0.368121 0.929778 -0
    outer loop
      vertex -13.9058 -42.7975 0
      vertex -19.1601 -40.7172 1.2
      vertex -13.9058 -42.7975 1.2
    endloop
  endfacet
  facet normal 0.368121 0.929778 0
    outer loop
      vertex -19.1601 -40.7172 1.2
      vertex -13.9058 -42.7975 0
      vertex -19.1601 -40.7172 0
    endloop
  endfacet
  facet normal -0.248691 -0.968583 0
    outer loop
      vertex 8.43216 44.2029 0
      vertex 13.9058 42.7975 1.2
      vertex 8.43216 44.2029 1.2
    endloop
  endfacet
  facet normal -0.248691 -0.968583 -0
    outer loop
      vertex 13.9058 42.7975 1.2
      vertex 8.43216 44.2029 0
      vertex 13.9058 42.7975 0
    endloop
  endfacet
  facet normal -0.68455 0.728966 0
    outer loop
      vertex 32.8036 -30.8046 0
      vertex 28.6841 -34.6731 1.2
      vertex 32.8036 -30.8046 1.2
    endloop
  endfacet
  facet normal -0.68455 0.728966 0
    outer loop
      vertex 28.6841 -34.6731 1.2
      vertex 32.8036 -30.8046 0
      vertex 28.6841 -34.6731 0
    endloop
  endfacet
  facet normal -0.770512 0.637425 0
    outer loop
      vertex 32.8036 -30.8046 0
      vertex 36.4058 -26.4503 1.2
      vertex 36.4058 -26.4503 0
    endloop
  endfacet
  facet normal -0.770512 0.637425 0
    outer loop
      vertex 36.4058 -26.4503 1.2
      vertex 32.8036 -30.8046 0
      vertex 32.8036 -30.8046 1.2
    endloop
  endfacet
  facet normal -0.84433 0.535824 0
    outer loop
      vertex 36.4058 -26.4503 0
      vertex 39.4338 -21.6789 1.2
      vertex 39.4338 -21.6789 0
    endloop
  endfacet
  facet normal -0.84433 0.535824 0
    outer loop
      vertex 39.4338 -21.6789 1.2
      vertex 36.4058 -26.4503 0
      vertex 36.4058 -26.4503 1.2
    endloop
  endfacet
  facet normal -0.90483 0.425774 0
    outer loop
      vertex 39.4338 -21.6789 0
      vertex 41.8399 -16.5656 1.2
      vertex 41.8399 -16.5656 0
    endloop
  endfacet
  facet normal -0.90483 0.425774 0
    outer loop
      vertex 41.8399 -16.5656 1.2
      vertex 39.4338 -21.6789 0
      vertex 39.4338 -21.6789 1.2
    endloop
  endfacet
  facet normal 0.368121 -0.929778 0
    outer loop
      vertex -19.1601 40.7172 0
      vertex -13.9058 42.7975 1.2
      vertex -19.1601 40.7172 1.2
    endloop
  endfacet
  facet normal 0.368121 -0.929778 0
    outer loop
      vertex -13.9058 42.7975 1.2
      vertex -19.1601 40.7172 0
      vertex -13.9058 42.7975 0
    endloop
  endfacet
  facet normal 0.125337 -0.992114 0
    outer loop
      vertex -8.43216 44.2029 0
      vertex -2.82557 44.9112 1.2
      vertex -8.43216 44.2029 1.2
    endloop
  endfacet
  facet normal 0.125337 -0.992114 0
    outer loop
      vertex -2.82557 44.9112 1.2
      vertex -8.43216 44.2029 0
      vertex -2.82557 44.9112 0
    endloop
  endfacet
  facet normal -0.982284 0.187396 0
    outer loop
      vertex 43.5862 -11.191 0
      vertex 44.6452 -5.63999 1.2
      vertex 44.6452 -5.63999 0
    endloop
  endfacet
  facet normal -0.982284 0.187396 0
    outer loop
      vertex 44.6452 -5.63999 1.2
      vertex 43.5862 -11.191 0
      vertex 43.5862 -11.191 1.2
    endloop
  endfacet
  facet normal 0.951057 -0.309015 0
    outer loop
      vertex -43.5862 11.191 1.2
      vertex -41.8399 16.5656 0
      vertex -41.8399 16.5656 1.2
    endloop
  endfacet
  facet normal 0.951057 -0.309015 0
    outer loop
      vertex -41.8399 16.5656 0
      vertex -43.5862 11.191 1.2
      vertex -43.5862 11.191 0
    endloop
  endfacet
  facet normal -0.68455 -0.728966 0
    outer loop
      vertex 28.6841 34.6731 0
      vertex 32.8036 30.8046 1.2
      vertex 28.6841 34.6731 1.2
    endloop
  endfacet
  facet normal -0.68455 -0.728966 -0
    outer loop
      vertex 32.8036 30.8046 1.2
      vertex 28.6841 34.6731 0
      vertex 32.8036 30.8046 0
    endloop
  endfacet
  facet normal -0.125337 0.992114 0
    outer loop
      vertex 8.43216 -44.2029 0
      vertex 2.82557 -44.9112 1.2
      vertex 8.43216 -44.2029 1.2
    endloop
  endfacet
  facet normal -0.125337 0.992114 0
    outer loop
      vertex 2.82557 -44.9112 1.2
      vertex 8.43216 -44.2029 0
      vertex 2.82557 -44.9112 0
    endloop
  endfacet
  facet normal 0.770512 0.637425 0
    outer loop
      vertex -32.8036 -30.8046 1.2
      vertex -36.4058 -26.4503 0
      vertex -36.4058 -26.4503 1.2
    endloop
  endfacet
  facet normal 0.770512 0.637425 0
    outer loop
      vertex -36.4058 -26.4503 0
      vertex -32.8036 -30.8046 1.2
      vertex -32.8036 -30.8046 0
    endloop
  endfacet
  facet normal -0.90483 -0.425774 0
    outer loop
      vertex 41.8399 16.5656 0
      vertex 39.4338 21.6789 1.2
      vertex 39.4338 21.6789 0
    endloop
  endfacet
  facet normal -0.90483 -0.425774 0
    outer loop
      vertex 39.4338 21.6789 1.2
      vertex 41.8399 16.5656 0
      vertex 41.8399 16.5656 1.2
    endloop
  endfacet
  facet normal 0 0 -1
    outer loop
      vertex 44.6452 -5.63999 1.2
      vertex 44.6452 5.63999 1.2
      vertex 45 0 1.2
    endloop
  endfacet
  facet normal 0 0 -1
    outer loop
      vertex 43.5862 -11.191 1.2
      vertex 44.6452 5.63999 1.2
      vertex 44.6452 -5.63999 1.2
    endloop
  endfacet
  facet normal 0 0 -1
    outer loop
      vertex 43.5862 -11.191 1.2
      vertex 43.5862 11.191 1.2
      vertex 44.6452 5.63999 1.2
    endloop
  endfacet
  facet normal 0 0 -1
    outer loop
      vertex 41.8399 -16.5656 1.2
      vertex 43.5862 11.191 1.2
      vertex 43.5862 -11.191 1.2
    endloop
  endfacet
  facet normal 0 0 -1
    outer loop
      vertex 41.8399 -16.5656 1.2
      vertex 41.8399 16.5656 1.2
      vertex 43.5862 11.191 1.2
    endloop
  endfacet
  facet normal 0 0 -1
    outer loop
      vertex 39.4338 -21.6789 1.2
      vertex 41.8399 16.5656 1.2
      vertex 41.8399 -16.5656 1.2
    endloop
  endfacet
  facet normal 0 0 -1
    outer loop
      vertex 39.4338 -21.6789 1.2
      vertex 39.4338 21.6789 1.2
      vertex 41.8399 16.5656 1.2
    endloop
  endfacet
  facet normal 0 0 -1
    outer loop
      vertex 36.4058 -26.4503 1.2
      vertex 39.4338 21.6789 1.2
      vertex 39.4338 -21.6789 1.2
    endloop
  endfacet
  facet normal 0 0 -1
    outer loop
      vertex 36.4058 -26.4503 1.2
      vertex 36.4058 26.4503 1.2
      vertex 39.4338 21.6789 1.2
    endloop
  endfacet
  facet normal 0 0 -1
    outer loop
      vertex 32.8036 -30.8046 1.2
      vertex 36.4058 26.4503 1.2
      vertex 36.4058 -26.4503 1.2
    endloop
  endfacet
  facet normal 0 0 -1
    outer loop
      vertex 32.8036 -30.8046 1.2
      vertex 32.8036 30.8046 1.2
      vertex 36.4058 26.4503 1.2
    endloop
  endfacet
  facet normal 0 0 -1
    outer loop
      vertex 28.6841 -34.6731 1.2
      vertex 32.8036 30.8046 1.2
      vertex 32.8036 -30.8046 1.2
    endloop
  endfacet
  facet normal 0 0 -1
    outer loop
      vertex 28.6841 -34.6731 1.2
      vertex 28.6841 34.6731 1.2
      vertex 32.8036 30.8046 1.2
    endloop
  endfacet
  facet normal 0 0 -1
    outer loop
      vertex 24.1122 -37.9948 1.2
      vertex 28.6841 34.6731 1.2
      vertex 28.6841 -34.6731 1.2
    endloop
  endfacet
  facet normal 0 0 -1
    outer loop
      vertex 24.1122 -37.9948 1.2
      vertex 24.1122 37.9948 1.2
      vertex 28.6841 34.6731 1.2
    endloop
  endfacet
  facet normal 0 0 -1
    outer loop
      vertex 19.1601 -40.7172 1.2
      vertex 24.1122 37.9948 1.2
      vertex 24.1122 -37.9948 1.2
    endloop
  endfacet
  facet normal 0 0 -1
    outer loop
      vertex 19.1601 -40.7172 1.2
      vertex 19.1601 40.7172 1.2
      vertex 24.1122 37.9948 1.2
    endloop
  endfacet
  facet normal 0 0 -1
    outer loop
      vertex 13.9058 -42.7975 1.2
      vertex 19.1601 40.7172 1.2
      vertex 19.1601 -40.7172 1.2
    endloop
  endfacet
  facet normal 0 0 -1
    outer loop
      vertex 13.9058 -42.7975 1.2
      vertex 13.9058 42.7975 1.2
      vertex 19.1601 40.7172 1.2
    endloop
  endfacet
  facet normal 0 0 -1
    outer loop
      vertex 8.43216 -44.2029 1.2
      vertex 13.9058 42.7975 1.2
      vertex 13.9058 -42.7975 1.2
    endloop
  endfacet
  facet normal 0 0 -1
    outer loop
      vertex 8.43216 -44.2029 1.2
      vertex 8.43216 44.2029 1.2
      vertex 13.9058 42.7975 1.2
    endloop
  endfacet
  facet normal 0 0 -1
    outer loop
      vertex 2.82557 -44.9112 1.2
      vertex 8.43216 44.2029 1.2
      vertex 8.43216 -44.2029 1.2
    endloop
  endfacet
  facet normal 0 0 -1
    outer loop
      vertex 2.82557 -44.9112 1.2
      vertex 2.82557 44.9112 1.2
      vertex 8.43216 44.2029 1.2
    endloop
  endfacet
  facet normal 0 0 -1
    outer loop
      vertex -2.82557 -44.9112 1.2
      vertex 2.82557 44.9112 1.2
      vertex 2.82557 -44.9112 1.2
    endloop
  endfacet
  facet normal 0 0 -1
    outer loop
      vertex -2.82557 -44.9112 1.2
      vertex -2.82557 44.9112 1.2
      vertex 2.82557 44.9112 1.2
    endloop
  endfacet
  facet normal 0 0 -1
    outer loop
      vertex -8.43216 -44.2029 1.2
      vertex -2.82557 44.9112 1.2
      vertex -2.82557 -44.9112 1.2
    endloop
  endfacet
  facet normal 0 0 -1
    outer loop
      vertex -8.43216 -44.2029 1.2
      vertex -8.43216 44.2029 1.2
      vertex -2.82557 44.9112 1.2
    endloop
  endfacet
  facet normal 0 0 -1
    outer loop
      vertex -13.9058 -42.7975 1.2
      vertex -8.43216 44.2029 1.2
      vertex -8.43216 -44.2029 1.2
    endloop
  endfacet
  facet normal 0 0 -1
    outer loop
      vertex -13.9058 -42.7975 1.2
      vertex -13.9058 42.7975 1.2
      vertex -8.43216 44.2029 1.2
    endloop
  endfacet
  facet normal 0 0 -1
    outer loop
      vertex -19.1601 -40.7172 1.2
      vertex -13.9058 42.7975 1.2
      vertex -13.9058 -42.7975 1.2
    endloop
  endfacet
  facet normal 0 0 -1
    outer loop
      vertex -19.1601 -40.7172 1.2
      vertex -19.1601 40.7172 1.2
      vertex -13.9058 42.7975 1.2
    endloop
  endfacet
  facet normal 0 0 -1
    outer loop
      vertex -24.1122 -37.9948 1.2
      vertex -19.1601 40.7172 1.2
      vertex -19.1601 -40.7172 1.2
    endloop
  endfacet
  facet normal 0 0 -1
    outer loop
      vertex -24.1122 -37.9948 1.2
      vertex -24.1122 37.9948 1.2
      vertex -19.1601 40.7172 1.2
    endloop
  endfacet
  facet normal 0 0 -1
    outer loop
      vertex -28.6841 -34.6731 1.2
      vertex -24.1122 37.9948 1.2
      vertex -24.1122 -37.9948 1.2
    endloop
  endfacet
  facet normal 0 0 -1
    outer loop
      vertex -28.6841 -34.6731 1.2
      vertex -28.6841 34.6731 1.2
      vertex -24.1122 37.9948 1.2
    endloop
  endfacet
  facet normal 0 0 -1
    outer loop
      vertex -32.8036 -30.8046 1.2
      vertex -28.6841 34.6731 1.2
      vertex -28.6841 -34.6731 1.2
    endloop
  endfacet
  facet normal 0 0 -1
    outer loop
      vertex -32.8036 -30.8046 1.2
      vertex -32.8036 30.8046 1.2
      vertex -28.6841 34.6731 1.2
    endloop
  endfacet
  facet normal 0 0 -1
    outer loop
      vertex -36.4058 -26.4503 1.2
      vertex -32.8036 30.8046 1.2
      vertex -32.8036 -30.8046 1.2
    endloop
  endfacet
  facet normal 0 0 -1
    outer loop
      vertex -36.4058 -26.4503 1.2
      vertex -36.4058 26.4503 1.2
      vertex -32.8036 30.8046 1.2
    endloop
  endfacet
  facet normal 0 0 -1
    outer loop
      vertex -39.4338 -21.6789 1.2
      vertex -36.4058 26.4503 1.2
      vertex -36.4058 -26.4503 1.2
    endloop
  endfacet
  facet normal 0 0 -1
    outer loop
      vertex -39.4338 -21.6789 1.2
      vertex -39.4338 21.6789 1.2
      vertex -36.4058 26.4503 1.2
    endloop
  endfacet
  facet normal 0 0 -1
    outer loop
      vertex -41.8399 -16.5656 1.2
      vertex -39.4338 21.6789 1.2
      vertex -39.4338 -21.6789 1.2
    endloop
  endfacet
  facet normal 0 0 -1
    outer loop
      vertex -41.8399 -16.5656 1.2
      vertex -41.8399 16.5656 1.2
      vertex -39.4338 21.6789 1.2
    endloop
  endfacet
  facet normal 0 0 -1
    outer loop
      vertex -43.5862 -11.191 1.2
      vertex -41.8399 16.5656 1.2
      vertex -41.8399 -16.5656 1.2
    endloop
  endfacet
  facet normal 0 0 -1
    outer loop
      vertex -43.5862 -11.191 1.2
      vertex -43.5862 11.191 1.2
      vertex -41.8399 16.5656 1.2
    endloop
  endfacet
  facet normal 0 0 -1
    outer loop
      vertex -44.6452 -5.63999 1.2
      vertex -43.5862 11.191 1.2
      vertex -43.5862 -11.191 1.2
    endloop
  endfacet
  facet normal 0 0 -1
    outer loop
      vertex -44.6452 -5.63999 1.2
      vertex -44.6452 5.63999 1.2
      vertex -43.5862 11.191 1.2
    endloop
  endfacet
  facet normal 0 -0 -1
    outer loop
      vertex -44.6452 5.63999 1.2
      vertex -44.6452 -5.63999 1.2
      vertex -45 0 1.2
    endloop
  endfacet
  facet normal -0.248691 0.968583 0
    outer loop
      vertex 13.9058 -42.7975 0
      vertex 8.43216 -44.2029 1.2
      vertex 13.9058 -42.7975 1.2
    endloop
  endfacet
  facet normal -0.248691 0.968583 0
    outer loop
      vertex 8.43216 -44.2029 1.2
      vertex 13.9058 -42.7975 0
      vertex 8.43216 -44.2029 0
    endloop
  endfacet
  facet normal 0.248691 0.968583 -0
    outer loop
      vertex -8.43216 -44.2029 0
      vertex -13.9058 -42.7975 1.2
      vertex -8.43216 -44.2029 1.2
    endloop
  endfacet
  facet normal 0.248691 0.968583 0
    outer loop
      vertex -13.9058 -42.7975 1.2
      vertex -8.43216 -44.2029 0
      vertex -13.9058 -42.7975 0
    endloop
  endfacet
  facet normal 0.481748 0.87631 -0
    outer loop
      vertex -19.1601 -40.7172 0
      vertex -24.1122 -37.9948 1.2
      vertex -19.1601 -40.7172 1.2
    endloop
  endfacet
  facet normal 0.481748 0.87631 0
    outer loop
      vertex -24.1122 -37.9948 1.2
      vertex -19.1601 -40.7172 0
      vertex -24.1122 -37.9948 0
    endloop
  endfacet
  facet normal 0.481748 -0.87631 0
    outer loop
      vertex -24.1122 37.9948 0
      vertex -19.1601 40.7172 1.2
      vertex -24.1122 37.9948 1.2
    endloop
  endfacet
  facet normal 0.481748 -0.87631 0
    outer loop
      vertex -19.1601 40.7172 1.2
      vertex -24.1122 37.9948 0
      vertex -19.1601 40.7172 0
    endloop
  endfacet
  facet normal 0.84433 0.535824 0
    outer loop
      vertex -36.4058 -26.4503 1.2
      vertex -39.4338 -21.6789 0
      vertex -39.4338 -21.6789 1.2
    endloop
  endfacet
  facet normal 0.84433 0.535824 0
    outer loop
      vertex -39.4338 -21.6789 0
      vertex -36.4058 -26.4503 1.2
      vertex -36.4058 -26.4503 0
    endloop
  endfacet
  facet normal 0.125337 0.992114 -0
    outer loop
      vertex -2.82557 -44.9112 0
      vertex -8.43216 -44.2029 1.2
      vertex -2.82557 -44.9112 1.2
    endloop
  endfacet
  facet normal 0.125337 0.992114 0
    outer loop
      vertex -8.43216 -44.2029 1.2
      vertex -2.82557 -44.9112 0
      vertex -8.43216 -44.2029 0
    endloop
  endfacet
  facet normal 0.90483 0.425774 0
    outer loop
      vertex -39.4338 -21.6789 1.2
      vertex -41.8399 -16.5656 0
      vertex -41.8399 -16.5656 1.2
    endloop
  endfacet
  facet normal 0.90483 0.425774 0
    outer loop
      vertex -41.8399 -16.5656 0
      vertex -39.4338 -21.6789 1.2
      vertex -39.4338 -21.6789 0
    endloop
  endfacet
  facet normal 0.951057 0.309015 0
    outer loop
      vertex -41.8399 -16.5656 1.2
      vertex -43.5862 -11.191 0
      vertex -43.5862 -11.191 1.2
    endloop
  endfacet
  facet normal 0.951057 0.309015 0
    outer loop
      vertex -43.5862 -11.191 0
      vertex -41.8399 -16.5656 1.2
      vertex -41.8399 -16.5656 0
    endloop
  endfacet
  facet normal 0.982284 0.187396 0
    outer loop
      vertex -43.5862 -11.191 1.2
      vertex -44.6452 -5.63999 0
      vertex -44.6452 -5.63999 1.2
    endloop
  endfacet
  facet normal 0.982284 0.187396 0
    outer loop
      vertex -44.6452 -5.63999 0
      vertex -43.5862 -11.191 1.2
      vertex -43.5862 -11.191 0
    endloop
  endfacet
  facet normal 0.982284 -0.187396 0
    outer loop
      vertex -44.6452 5.63999 1.2
      vertex -43.5862 11.191 0
      vertex -43.5862 11.191 1.2
    endloop
  endfacet
  facet normal 0.982284 -0.187396 0
    outer loop
      vertex -43.5862 11.191 0
      vertex -44.6452 5.63999 1.2
      vertex -44.6452 5.63999 0
    endloop
  endfacet
  facet normal 0.90483 -0.425774 0
    outer loop
      vertex -41.8399 16.5656 1.2
      vertex -39.4338 21.6789 0
      vertex -39.4338 21.6789 1.2
    endloop
  endfacet
  facet normal 0.90483 -0.425774 0
    outer loop
      vertex -39.4338 21.6789 0
      vertex -41.8399 16.5656 1.2
      vertex -41.8399 16.5656 0
    endloop
  endfacet
  facet normal 0.84433 -0.535824 0
    outer loop
      vertex -39.4338 21.6789 1.2
      vertex -36.4058 26.4503 0
      vertex -36.4058 26.4503 1.2
    endloop
  endfacet
  facet normal 0.84433 -0.535824 0
    outer loop
      vertex -36.4058 26.4503 0
      vertex -39.4338 21.6789 1.2
      vertex -39.4338 21.6789 0
    endloop
  endfacet
endsolid OpenSCAD_Model
