solid OpenSCAD_Model
  facet normal 1 -0 0
    outer loop
      vertex 50 0 10
      vertex 50 30 0
      vertex 50 30 10
    endloop
  endfacet
  facet normal 1 0 0
    outer loop
      vertex 50 30 0
      vertex 50 0 10
      vertex 50 0 0
    endloop
  endfacet
  facet normal -0 0 1
    outer loop
      vertex 28.9231 10.7804 10
      vertex 50 0 10
      vertex 50 30 10
    endloop
  endfacet
  facet normal 0 0 1
    outer loop
      vertex 50 0 10
      vertex 28.9231 10.7804 10
      vertex 29 10 10
    endloop
  endfacet
  facet normal 0 0 1
    outer loop
      vertex 50 30 10
      vertex 28.6955 11.5307 10
      vertex 28.9231 10.7804 10
    endloop
  endfacet
  facet normal 0 0 1
    outer loop
      vertex 50 30 10
      vertex 28.3259 12.2223 10
      vertex 28.6955 11.5307 10
    endloop
  endfacet
  facet normal 0 0 1
    outer loop
      vertex 50 30 10
      vertex 27.8284 12.8284 10
      vertex 28.3259 12.2223 10
    endloop
  endfacet
  facet normal 0 0 1
    outer loop
      vertex 50 30 10
      vertex 27.2223 13.3259 10
      vertex 27.8284 12.8284 10
    endloop
  endfacet
  facet normal 0 0 1
    outer loop
      vertex 50 30 10
      vertex 26.5307 13.6955 10
      vertex 27.2223 13.3259 10
    endloop
  endfacet
  facet normal 0 0 1
    outer loop
      vertex 50 30 10
      vertex 25.7804 13.9231 10
      vertex 26.5307 13.6955 10
    endloop
  endfacet
  facet normal 0 0 1
    outer loop
      vertex 50 30 10
      vertex 25 14 10
      vertex 25.7804 13.9231 10
    endloop
  endfacet
  facet normal -0 0 1
    outer loop
      vertex 0 30 10
      vertex 25 14 10
      vertex 50 30 10
    endloop
  endfacet
  facet normal 0 0 1
    outer loop
      vertex 25 14 10
      vertex 0 30 10
      vertex 24.2196 13.9231 10
    endloop
  endfacet
  facet normal 0 0 1
    outer loop
      vertex 24.2196 13.9231 10
      vertex 0 30 10
      vertex 23.4693 13.6955 10
    endloop
  endfacet
  facet normal 0 0 1
    outer loop
      vertex 0 0 10
      vertex 21.0769 10.7804 10
      vertex 0 30 10
    endloop
  endfacet
  facet normal 0 0 1
    outer loop
      vertex 21.3045 11.5307 10
      vertex 0 30 10
      vertex 21.0769 10.7804 10
    endloop
  endfacet
  facet normal 0 0 1
    outer loop
      vertex 21.6741 12.2223 10
      vertex 0 30 10
      vertex 21.3045 11.5307 10
    endloop
  endfacet
  facet normal 0 0 1
    outer loop
      vertex 22.1716 12.8284 10
      vertex 0 30 10
      vertex 21.6741 12.2223 10
    endloop
  endfacet
  facet normal 0 0 1
    outer loop
      vertex 22.7777 13.3259 10
      vertex 0 30 10
      vertex 22.1716 12.8284 10
    endloop
  endfacet
  facet normal 0 0 1
    outer loop
      vertex 23.4693 13.6955 10
      vertex 0 30 10
      vertex 22.7777 13.3259 10
    endloop
  endfacet
  facet normal -0 0 1
    outer loop
      vertex 28.9231 9.21964 10
      vertex 50 0 10
      vertex 29 10 10
    endloop
  endfacet
  facet normal -0 0 1
    outer loop
      vertex 28.6955 8.46927 10
      vertex 50 0 10
      vertex 28.9231 9.21964 10
    endloop
  endfacet
  facet normal -0 0 1
    outer loop
      vertex 28.3259 7.77772 10
      vertex 50 0 10
      vertex 28.6955 8.46927 10
    endloop
  endfacet
  facet normal -0 0 1
    outer loop
      vertex 27.8284 7.17157 10
      vertex 50 0 10
      vertex 28.3259 7.77772 10
    endloop
  endfacet
  facet normal -0 0 1
    outer loop
      vertex 27.2223 6.67412 10
      vertex 50 0 10
      vertex 27.8284 7.17157 10
    endloop
  endfacet
  facet normal -0 0 1
    outer loop
      vertex 26.5307 6.30448 10
      vertex 50 0 10
      vertex 27.2223 6.67412 10
    endloop
  endfacet
  facet normal -0 0 1
    outer loop
      vertex 25.7804 6.07686 10
      vertex 50 0 10
      vertex 26.5307 6.30448 10
    endloop
  endfacet
  facet normal -0 0 1
    outer loop
      vertex 25 6 10
      vertex 50 0 10
      vertex 25.7804 6.07686 10
    endloop
  endfacet
  facet normal 0 0 1
    outer loop
      vertex 0 0 10
      vertex 25 6 10
      vertex 24.2196 6.07686 10
    endloop
  endfacet
  facet normal 0 0 1
    outer loop
      vertex 21.0769 10.7804 10
      vertex 0 0 10
      vertex 21 10 10
    endloop
  endfacet
  facet normal 0 0 1
    outer loop
      vertex 21 10 10
      vertex 0 0 10
      vertex 21.0769 9.21964 10
    endloop
  endfacet
  facet normal 0 0 1
    outer loop
      vertex 21.0769 9.21964 10
      vertex 0 0 10
      vertex 21.3045 8.46927 10
    endloop
  endfacet
  facet normal 0 0 1
    outer loop
      vertex 21.3045 8.46927 10
      vertex 0 0 10
      vertex 21.6741 7.77772 10
    endloop
  endfacet
  facet normal 0 0 1
    outer loop
      vertex 25 6 10
      vertex 0 0 10
      vertex 50 0 10
    endloop
  endfacet
  facet normal 0 0 1
    outer loop
      vertex 23.4693 6.30448 10
      vertex 0 0 10
      vertex 24.2196 6.07686 10
    endloop
  endfacet
  facet normal 0 0 1
    outer loop
      vertex 22.7777 6.67412 10
      vertex 0 0 10
      vertex 23.4693 6.30448 10
    endloop
  endfacet
  facet normal 0 0 1
    outer loop
      vertex 22.1716 7.17157 10
      vertex 0 0 10
      vertex 22.7777 6.67412 10
    endloop
  endfacet
  facet normal 0 0 1
    outer loop
      vertex 21.6741 7.77772 10
      vertex 0 0 10
      vertex 22.1716 7.17157 10
    endloop
  endfacet
  facet normal 0 0 -1
    outer loop
      vertex 28.9231 10.7804 0
      vertex 50 0 0
      vertex 29 10 0
    endloop
  endfacet
  facet normal 0 0 -1
    outer loop
      vertex 50 0 0
      vertex 28.9231 9.21964 0
      vertex 29 10 0
    endloop
  endfacet
  facet normal 0 0 -1
    outer loop
      vertex 50 0 0
      vertex 28.6955 8.46927 0
      vertex 28.9231 9.21964 0
    endloop
  endfacet
  facet normal 0 0 -1
    outer loop
      vertex 50 0 0
      vertex 28.3259 7.77772 0
      vertex 28.6955 8.46927 0
    endloop
  endfacet
  facet normal 0 0 -1
    outer loop
      vertex 50 0 0
      vertex 27.8284 7.17157 0
      vertex 28.3259 7.77772 0
    endloop
  endfacet
  facet normal 0 0 -1
    outer loop
      vertex 50 0 0
      vertex 27.2223 6.67412 0
      vertex 27.8284 7.17157 0
    endloop
  endfacet
  facet normal 0 0 -1
    outer loop
      vertex 50 0 0
      vertex 26.5307 6.30448 0
      vertex 27.2223 6.67412 0
    endloop
  endfacet
  facet normal 0 0 -1
    outer loop
      vertex 50 0 0
      vertex 25.7804 6.07686 0
      vertex 26.5307 6.30448 0
    endloop
  endfacet
  facet normal 0 0 -1
    outer loop
      vertex 50 0 0
      vertex 25 6 0
      vertex 25.7804 6.07686 0
    endloop
  endfacet
  facet normal 0 0 -1
    outer loop
      vertex 0 0 0
      vertex 25 6 0
      vertex 50 0 0
    endloop
  endfacet
  facet normal -0 0 -1
    outer loop
      vertex 21.0769 9.21964 0
      vertex 0 0 0
      vertex 21 10 0
    endloop
  endfacet
  facet normal -0 0 -1
    outer loop
      vertex 21.3045 8.46927 0
      vertex 0 0 0
      vertex 21.0769 9.21964 0
    endloop
  endfacet
  facet normal -0 0 -1
    outer loop
      vertex 21.6741 7.77772 0
      vertex 0 0 0
      vertex 21.3045 8.46927 0
    endloop
  endfacet
  facet normal -0 0 -1
    outer loop
      vertex 22.1716 7.17157 0
      vertex 0 0 0
      vertex 21.6741 7.77772 0
    endloop
  endfacet
  facet normal -0 0 -1
    outer loop
      vertex 22.7777 6.67412 0
      vertex 0 0 0
      vertex 22.1716 7.17157 0
    endloop
  endfacet
  facet normal -0 0 -1
    outer loop
      vertex 23.4693 6.30448 0
      vertex 0 0 0
      vertex 22.7777 6.67412 0
    endloop
  endfacet
  facet normal -0 0 -1
    outer loop
      vertex 24.2196 6.07686 0
      vertex 0 0 0
      vertex 23.4693 6.30448 0
    endloop
  endfacet
  facet normal -0 0 -1
    outer loop
      vertex 25 6 0
      vertex 0 0 0
      vertex 24.2196 6.07686 0
    endloop
  endfacet
  facet normal 0 0 -1
    outer loop
      vertex 50 0 0
      vertex 28.9231 10.7804 0
      vertex 50 30 0
    endloop
  endfacet
  facet normal 0 0 -1
    outer loop
      vertex 28.6955 11.5307 0
      vertex 50 30 0
      vertex 28.9231 10.7804 0
    endloop
  endfacet
  facet normal 0 0 -1
    outer loop
      vertex 28.3259 12.2223 0
      vertex 50 30 0
      vertex 28.6955 11.5307 0
    endloop
  endfacet
  facet normal 0 0 -1
    outer loop
      vertex 27.8284 12.8284 0
      vertex 50 30 0
      vertex 28.3259 12.2223 0
    endloop
  endfacet
  facet normal 0 0 -1
    outer loop
      vertex 27.2223 13.3259 0
      vertex 50 30 0
      vertex 27.8284 12.8284 0
    endloop
  endfacet
  facet normal 0 0 -1
    outer loop
      vertex 26.5307 13.6955 0
      vertex 50 30 0
      vertex 27.2223 13.3259 0
    endloop
  endfacet
  facet normal 0 0 -1
    outer loop
      vertex 25.7804 13.9231 0
      vertex 50 30 0
      vertex 26.5307 13.6955 0
    endloop
  endfacet
  facet normal 0 0 -1
    outer loop
      vertex 25 14 0
      vertex 50 30 0
      vertex 25.7804 13.9231 0
    endloop
  endfacet
  facet normal 0 0 -1
    outer loop
      vertex 0 30 0
      vertex 25 14 0
      vertex 24.2196 13.9231 0
    endloop
  endfacet
  facet normal 0 0 -1
    outer loop
      vertex 0 30 0
      vertex 24.2196 13.9231 0
      vertex 23.4693 13.6955 0
    endloop
  endfacet
  facet normal 0 0 -1
    outer loop
      vertex 0 30 0
      vertex 23.4693 13.6955 0
      vertex 22.7777 13.3259 0
    endloop
  endfacet
  facet normal 0 0 -1
    outer loop
      vertex 0 0 0
      vertex 21.0769 10.7804 0
      vertex 21 10 0
    endloop
  endfacet
  facet normal 0 0 -1
    outer loop
      vertex 0 30 0
      vertex 21.0769 10.7804 0
      vertex 0 0 0
    endloop
  endfacet
  facet normal 0 0 -1
    outer loop
      vertex 21.0769 10.7804 0
      vertex 0 30 0
      vertex 21.3045 11.5307 0
    endloop
  endfacet
  facet normal 0 0 -1
    outer loop
      vertex 21.3045 11.5307 0
      vertex 0 30 0
      vertex 21.6741 12.2223 0
    endloop
  endfacet
  facet normal 0 0 -1
    outer loop
      vertex 21.6741 12.2223 0
      vertex 0 30 0
      vertex 22.1716 12.8284 0
    endloop
  endfacet
  facet normal 0 0 -1
    outer loop
      vertex 22.1716 12.8284 0
      vertex 0 30 0
      vertex 22.7777 13.3259 0
    endloop
  endfacet
  facet normal 0 0 -1
    outer loop
      vertex 25 14 0
      vertex 0 30 0
      vertex 50 30 0
    endloop
  endfacet
  facet normal -1 0 0
    outer loop
      vertex 0 0 0
      vertex 0 30 10
      vertex 0 30 0
    endloop
  endfacet
  facet normal -1 -0 0
    outer loop
      vertex 0 30 10
      vertex 0 0 0
      vertex 0 0 10
    endloop
  endfacet
  facet normal 0 1 -0
    outer loop
      vertex 50 30 0
      vertex 0 30 10
      vertex 50 30 10
    endloop
  endfacet
  facet normal 0 1 0
    outer loop
      vertex 0 30 10
      vertex 50 30 0
      vertex 0 30 0
    endloop
  endfacet
  facet normal 0 -1 0
    outer loop
      vertex 0 0 0
      vertex 50 0 10
      vertex 0 0 10
    endloop
  endfacet
  facet normal 0 -1 -0
    outer loop
      vertex 50 0 10
      vertex 0 0 0
      vertex 50 0 0
    endloop
  endfacet
  facet normal -0.290307 0.956934 0
    outer loop
      vertex 26.5307 6.30448 0
      vertex 25.7804 6.07686 10
      vertex 26.5307 6.30448 10
    endloop
  endfacet
  facet normal -0.290307 0.956934 0
    outer loop
      vertex 25.7804 6.07686 10
      vertex 26.5307 6.30448 0
      vertex 25.7804 6.07686 0
    endloop
  endfacet
  facet normal -0.956941 -0.290283 0
    outer loop
      vertex 28.9231 10.7804 0
      vertex 28.6955 11.5307 10
      vertex 28.6955 11.5307 0
    endloop
  endfacet
  facet normal -0.956941 -0.290283 0
    outer loop
      vertex 28.6955 11.5307 10
      vertex 28.9231 10.7804 0
      vertex 28.9231 10.7804 10
    endloop
  endfacet
  facet normal -0.99518 -0.0980643 0
    outer loop
      vertex 29 10 0
      vertex 28.9231 10.7804 10
      vertex 28.9231 10.7804 0
    endloop
  endfacet
  facet normal -0.99518 -0.0980643 0
    outer loop
      vertex 28.9231 10.7804 10
      vertex 29 10 0
      vertex 29 10 10
    endloop
  endfacet
  facet normal -0.881957 -0.471329 0
    outer loop
      vertex 28.6955 11.5307 0
      vertex 28.3259 12.2223 10
      vertex 28.3259 12.2223 0
    endloop
  endfacet
  facet normal -0.881957 -0.471329 0
    outer loop
      vertex 28.3259 12.2223 10
      vertex 28.6955 11.5307 0
      vertex 28.6955 11.5307 10
    endloop
  endfacet
  facet normal 0.881943 0.471356 0
    outer loop
      vertex 21.6741 7.77772 10
      vertex 21.3045 8.46927 0
      vertex 21.3045 8.46927 10
    endloop
  endfacet
  facet normal 0.881943 0.471356 0
    outer loop
      vertex 21.3045 8.46927 0
      vertex 21.6741 7.77772 10
      vertex 21.6741 7.77772 0
    endloop
  endfacet
  facet normal -0.290283 -0.956941 0
    outer loop
      vertex 25.7804 13.9231 0
      vertex 26.5307 13.6955 10
      vertex 25.7804 13.9231 10
    endloop
  endfacet
  facet normal -0.290283 -0.956941 -0
    outer loop
      vertex 26.5307 13.6955 10
      vertex 25.7804 13.9231 0
      vertex 26.5307 13.6955 0
    endloop
  endfacet
  facet normal 0.0980643 -0.99518 0
    outer loop
      vertex 24.2196 13.9231 0
      vertex 25 14 10
      vertex 24.2196 13.9231 10
    endloop
  endfacet
  facet normal 0.0980643 -0.99518 0
    outer loop
      vertex 25 14 10
      vertex 24.2196 13.9231 0
      vertex 25 14 0
    endloop
  endfacet
  facet normal 0.471369 0.881936 -0
    outer loop
      vertex 23.4693 6.30448 0
      vertex 22.7777 6.67412 10
      vertex 23.4693 6.30448 10
    endloop
  endfacet
  facet normal 0.471369 0.881936 0
    outer loop
      vertex 22.7777 6.67412 10
      vertex 23.4693 6.30448 0
      vertex 22.7777 6.67412 0
    endloop
  endfacet
  facet normal 0.471329 -0.881957 0
    outer loop
      vertex 22.7777 13.3259 0
      vertex 23.4693 13.6955 10
      vertex 22.7777 13.3259 10
    endloop
  endfacet
  facet normal 0.471329 -0.881957 0
    outer loop
      vertex 23.4693 13.6955 10
      vertex 22.7777 13.3259 0
      vertex 23.4693 13.6955 0
    endloop
  endfacet
  facet normal -0.471369 0.881936 0
    outer loop
      vertex 27.2223 6.67412 0
      vertex 26.5307 6.30448 10
      vertex 27.2223 6.67412 10
    endloop
  endfacet
  facet normal -0.471369 0.881936 0
    outer loop
      vertex 26.5307 6.30448 10
      vertex 27.2223 6.67412 0
      vertex 26.5307 6.30448 0
    endloop
  endfacet
  facet normal 0.772956 -0.634459 0
    outer loop
      vertex 21.6741 12.2223 10
      vertex 22.1716 12.8284 0
      vertex 22.1716 12.8284 10
    endloop
  endfacet
  facet normal 0.772956 -0.634459 0
    outer loop
      vertex 22.1716 12.8284 0
      vertex 21.6741 12.2223 10
      vertex 21.6741 12.2223 0
    endloop
  endfacet
  facet normal -0.772956 -0.634459 0
    outer loop
      vertex 28.3259 12.2223 0
      vertex 27.8284 12.8284 10
      vertex 27.8284 12.8284 0
    endloop
  endfacet
  facet normal -0.772956 -0.634459 0
    outer loop
      vertex 27.8284 12.8284 10
      vertex 28.3259 12.2223 0
      vertex 28.3259 12.2223 10
    endloop
  endfacet
  facet normal -0.772982 0.634428 0
    outer loop
      vertex 27.8284 7.17157 0
      vertex 28.3259 7.77772 10
      vertex 28.3259 7.77772 0
    endloop
  endfacet
  facet normal -0.772982 0.634428 0
    outer loop
      vertex 28.3259 7.77772 10
      vertex 27.8284 7.17157 0
      vertex 27.8284 7.17157 10
    endloop
  endfacet
  facet normal 0.0980137 0.995185 -0
    outer loop
      vertex 25 6 0
      vertex 24.2196 6.07686 10
      vertex 25 6 10
    endloop
  endfacet
  facet normal 0.0980137 0.995185 0
    outer loop
      vertex 24.2196 6.07686 10
      vertex 25 6 0
      vertex 24.2196 6.07686 0
    endloop
  endfacet
  facet normal 0.290283 -0.956941 0
    outer loop
      vertex 23.4693 13.6955 0
      vertex 24.2196 13.9231 10
      vertex 23.4693 13.6955 10
    endloop
  endfacet
  facet normal 0.290283 -0.956941 0
    outer loop
      vertex 24.2196 13.9231 10
      vertex 23.4693 13.6955 0
      vertex 24.2196 13.9231 0
    endloop
  endfacet
  facet normal -0.634421 0.772988 0
    outer loop
      vertex 27.8284 7.17157 0
      vertex 27.2223 6.67412 10
      vertex 27.8284 7.17157 10
    endloop
  endfacet
  facet normal -0.634421 0.772988 0
    outer loop
      vertex 27.2223 6.67412 10
      vertex 27.8284 7.17157 0
      vertex 27.2223 6.67412 0
    endloop
  endfacet
  facet normal -0.99518 0.0980692 0
    outer loop
      vertex 28.9231 9.21964 0
      vertex 29 10 10
      vertex 29 10 0
    endloop
  endfacet
  facet normal -0.99518 0.0980692 0
    outer loop
      vertex 29 10 10
      vertex 28.9231 9.21964 0
      vertex 28.9231 9.21964 10
    endloop
  endfacet
  facet normal 0.290307 0.956934 -0
    outer loop
      vertex 24.2196 6.07686 0
      vertex 23.4693 6.30448 10
      vertex 24.2196 6.07686 10
    endloop
  endfacet
  facet normal 0.290307 0.956934 0
    outer loop
      vertex 23.4693 6.30448 10
      vertex 24.2196 6.07686 0
      vertex 23.4693 6.30448 0
    endloop
  endfacet
  facet normal -0.956948 0.290259 0
    outer loop
      vertex 28.6955 8.46927 0
      vertex 28.9231 9.21964 10
      vertex 28.9231 9.21964 0
    endloop
  endfacet
  facet normal -0.956948 0.290259 0
    outer loop
      vertex 28.9231 9.21964 10
      vertex 28.6955 8.46927 0
      vertex 28.6955 8.46927 10
    endloop
  endfacet
  facet normal 0.956948 0.290259 0
    outer loop
      vertex 21.3045 8.46927 10
      vertex 21.0769 9.21964 0
      vertex 21.0769 9.21964 10
    endloop
  endfacet
  facet normal 0.956948 0.290259 0
    outer loop
      vertex 21.0769 9.21964 0
      vertex 21.3045 8.46927 10
      vertex 21.3045 8.46927 0
    endloop
  endfacet
  facet normal -0.881943 0.471356 0
    outer loop
      vertex 28.3259 7.77772 0
      vertex 28.6955 8.46927 10
      vertex 28.6955 8.46927 0
    endloop
  endfacet
  facet normal -0.881943 0.471356 0
    outer loop
      vertex 28.6955 8.46927 10
      vertex 28.3259 7.77772 0
      vertex 28.3259 7.77772 10
    endloop
  endfacet
  facet normal 0.99518 -0.0980643 0
    outer loop
      vertex 21 10 10
      vertex 21.0769 10.7804 0
      vertex 21.0769 10.7804 10
    endloop
  endfacet
  facet normal 0.99518 -0.0980643 0
    outer loop
      vertex 21.0769 10.7804 0
      vertex 21 10 10
      vertex 21 10 0
    endloop
  endfacet
  facet normal -0.0980643 -0.99518 0
    outer loop
      vertex 25 14 0
      vertex 25.7804 13.9231 10
      vertex 25 14 10
    endloop
  endfacet
  facet normal -0.0980643 -0.99518 -0
    outer loop
      vertex 25.7804 13.9231 10
      vertex 25 14 0
      vertex 25.7804 13.9231 0
    endloop
  endfacet
  facet normal 0.634459 -0.772956 0
    outer loop
      vertex 22.1716 12.8284 0
      vertex 22.7777 13.3259 10
      vertex 22.1716 12.8284 10
    endloop
  endfacet
  facet normal 0.634459 -0.772956 0
    outer loop
      vertex 22.7777 13.3259 10
      vertex 22.1716 12.8284 0
      vertex 22.7777 13.3259 0
    endloop
  endfacet
  facet normal -0.634459 -0.772956 0
    outer loop
      vertex 27.2223 13.3259 0
      vertex 27.8284 12.8284 10
      vertex 27.2223 13.3259 10
    endloop
  endfacet
  facet normal -0.634459 -0.772956 -0
    outer loop
      vertex 27.8284 12.8284 10
      vertex 27.2223 13.3259 0
      vertex 27.8284 12.8284 0
    endloop
  endfacet
  facet normal -0.0980137 0.995185 0
    outer loop
      vertex 25.7804 6.07686 0
      vertex 25 6 10
      vertex 25.7804 6.07686 10
    endloop
  endfacet
  facet normal -0.0980137 0.995185 0
    outer loop
      vertex 25 6 10
      vertex 25.7804 6.07686 0
      vertex 25 6 0
    endloop
  endfacet
  facet normal -0.471329 -0.881957 0
    outer loop
      vertex 26.5307 13.6955 0
      vertex 27.2223 13.3259 10
      vertex 26.5307 13.6955 10
    endloop
  endfacet
  facet normal -0.471329 -0.881957 -0
    outer loop
      vertex 27.2223 13.3259 10
      vertex 26.5307 13.6955 0
      vertex 27.2223 13.3259 0
    endloop
  endfacet
  facet normal 0.772982 0.634428 0
    outer loop
      vertex 22.1716 7.17157 10
      vertex 21.6741 7.77772 0
      vertex 21.6741 7.77772 10
    endloop
  endfacet
  facet normal 0.772982 0.634428 0
    outer loop
      vertex 21.6741 7.77772 0
      vertex 22.1716 7.17157 10
      vertex 22.1716 7.17157 0
    endloop
  endfacet
  facet normal 0.634421 0.772988 -0
    outer loop
      vertex 22.7777 6.67412 0
      vertex 22.1716 7.17157 10
      vertex 22.7777 6.67412 10
    endloop
  endfacet
  facet normal 0.634421 0.772988 0
    outer loop
      vertex 22.1716 7.17157 10
      vertex 22.7777 6.67412 0
      vertex 22.1716 7.17157 0
    endloop
  endfacet
  facet normal 0.956941 -0.290283 0
    outer loop
      vertex 21.0769 10.7804 10
      vertex 21.3045 11.5307 0
      vertex 21.3045 11.5307 10
    endloop
  endfacet
  facet normal 0.956941 -0.290283 0
    outer loop
      vertex 21.3045 11.5307 0
      vertex 21.0769 10.7804 10
      vertex 21.0769 10.7804 0
    endloop
  endfacet
  facet normal 0.881957 -0.471329 0
    outer loop
      vertex 21.3045 11.5307 10
      vertex 21.6741 12.2223 0
      vertex 21.6741 12.2223 10
    endloop
  endfacet
  facet normal 0.881957 -0.471329 0
    outer loop
      vertex 21.6741 12.2223 0
      vertex 21.3045 11.5307 10
      vertex 21.3045 11.5307 0
    endloop
  endfacet
  facet normal 0.99518 0.0980692 0
    outer loop
      vertex 21.0769 9.21964 10
      vertex 21 10 0
      vertex 21 10 10
    endloop
  endfacet
  facet normal 0.99518 0.0980692 0
    outer loop
      vertex 21 10 0
      vertex 21.0769 9.21964 10
      vertex 21.0769 9.21964 0
    endloop
  endfacet
endsolid OpenSCAD_Model
