solid OpenSCAD_Model
  facet normal 1 -0 0
    outer loop
      vertex 50 0 3
      vertex 50 20 0
      vertex 50 20 3
    endloop
  endfacet
  facet normal 1 0 0
    outer loop
      vertex 50 20 0
      vertex 50 0 3
      vertex 50 0 0
    endloop
  endfacet
  facet normal 0 0 1
    outer loop
      vertex 50 20 3
      vertex 42.5 10 3
      vertex 50 0 3
    endloop
  endfacet
  facet normal 0 0 1
    outer loop
      vertex 50 20 3
      vertex 42.452 10.4877 3
      vertex 42.5 10 3
    endloop
  endfacet
  facet normal 0 0 1
    outer loop
      vertex 50 20 3
      vertex 42.3097 10.9567 3
      vertex 42.452 10.4877 3
    endloop
  endfacet
  facet normal 0 0 1
    outer loop
      vertex 50 20 3
      vertex 42.0787 11.3889 3
      vertex 42.3097 10.9567 3
    endloop
  endfacet
  facet normal 0 0 1
    outer loop
      vertex 50 20 3
      vertex 41.7678 11.7678 3
      vertex 42.0787 11.3889 3
    endloop
  endfacet
  facet normal 0 0 1
    outer loop
      vertex 50 20 3
      vertex 41.3889 12.0787 3
      vertex 41.7678 11.7678 3
    endloop
  endfacet
  facet normal 0 0 1
    outer loop
      vertex 50 20 3
      vertex 40.9567 12.3097 3
      vertex 41.3889 12.0787 3
    endloop
  endfacet
  facet normal 0 0 1
    outer loop
      vertex 50 20 3
      vertex 40.4877 12.452 3
      vertex 40.9567 12.3097 3
    endloop
  endfacet
  facet normal 0 0 1
    outer loop
      vertex 50 20 3
      vertex 40 12.5 3
      vertex 40.4877 12.452 3
    endloop
  endfacet
  facet normal 0 0 1
    outer loop
      vertex 50 20 3
      vertex 39.5123 12.452 3
      vertex 40 12.5 3
    endloop
  endfacet
  facet normal 0 0 1
    outer loop
      vertex 50 20 3
      vertex 39.0433 12.3097 3
      vertex 39.5123 12.452 3
    endloop
  endfacet
  facet normal 0 0 1
    outer loop
      vertex 10.9567 12.3097 3
      vertex 39.0433 12.3097 3
      vertex 50 20 3
    endloop
  endfacet
  facet normal 0 0 1
    outer loop
      vertex 37.548 10.4877 3
      vertex 12.5 10 3
      vertex 37.5 10 3
    endloop
  endfacet
  facet normal 0 0 1
    outer loop
      vertex 12.452 10.4877 3
      vertex 37.548 10.4877 3
      vertex 37.6903 10.9567 3
    endloop
  endfacet
  facet normal 0 0 1
    outer loop
      vertex 12.3097 10.9567 3
      vertex 37.6903 10.9567 3
      vertex 37.9213 11.3889 3
    endloop
  endfacet
  facet normal 0 0 1
    outer loop
      vertex 12.0787 11.3889 3
      vertex 37.9213 11.3889 3
      vertex 38.2322 11.7678 3
    endloop
  endfacet
  facet normal 0 0 1
    outer loop
      vertex 11.7678 11.7678 3
      vertex 38.2322 11.7678 3
      vertex 38.6111 12.0787 3
    endloop
  endfacet
  facet normal 0 0 1
    outer loop
      vertex 39.0433 12.3097 3
      vertex 10.9567 12.3097 3
      vertex 38.6111 12.0787 3
    endloop
  endfacet
  facet normal 0 0 1
    outer loop
      vertex 37.548 10.4877 3
      vertex 12.452 10.4877 3
      vertex 12.5 10 3
    endloop
  endfacet
  facet normal 0 0 1
    outer loop
      vertex 37.6903 10.9567 3
      vertex 12.3097 10.9567 3
      vertex 12.452 10.4877 3
    endloop
  endfacet
  facet normal 0 0 1
    outer loop
      vertex 37.9213 11.3889 3
      vertex 12.0787 11.3889 3
      vertex 12.3097 10.9567 3
    endloop
  endfacet
  facet normal 0 0 1
    outer loop
      vertex 38.2322 11.7678 3
      vertex 11.7678 11.7678 3
      vertex 12.0787 11.3889 3
    endloop
  endfacet
  facet normal 0 0 1
    outer loop
      vertex 38.6111 12.0787 3
      vertex 11.3889 12.0787 3
      vertex 11.7678 11.7678 3
    endloop
  endfacet
  facet normal 0 0 1
    outer loop
      vertex 38.6111 12.0787 3
      vertex 10.9567 12.3097 3
      vertex 11.3889 12.0787 3
    endloop
  endfacet
  facet normal -0 0 1
    outer loop
      vertex 0 20 3
      vertex 10.9567 12.3097 3
      vertex 50 20 3
    endloop
  endfacet
  facet normal 0 0 1
    outer loop
      vertex 10.9567 12.3097 3
      vertex 0 20 3
      vertex 10.4877 12.452 3
    endloop
  endfacet
  facet normal 0 0 1
    outer loop
      vertex 10.4877 12.452 3
      vertex 0 20 3
      vertex 10 12.5 3
    endloop
  endfacet
  facet normal 0 0 1
    outer loop
      vertex 7.54804 10.4877 3
      vertex 0 20 3
      vertex 7.5 10 3
    endloop
  endfacet
  facet normal 0 0 1
    outer loop
      vertex 7.6903 10.9567 3
      vertex 0 20 3
      vertex 7.54804 10.4877 3
    endloop
  endfacet
  facet normal 0 0 1
    outer loop
      vertex 7.92133 11.3889 3
      vertex 0 20 3
      vertex 7.6903 10.9567 3
    endloop
  endfacet
  facet normal 0 0 1
    outer loop
      vertex 8.23223 11.7678 3
      vertex 0 20 3
      vertex 7.92133 11.3889 3
    endloop
  endfacet
  facet normal 0 0 1
    outer loop
      vertex 8.61107 12.0787 3
      vertex 0 20 3
      vertex 8.23223 11.7678 3
    endloop
  endfacet
  facet normal 0 0 1
    outer loop
      vertex 9.04329 12.3097 3
      vertex 0 20 3
      vertex 8.61107 12.0787 3
    endloop
  endfacet
  facet normal 0 0 1
    outer loop
      vertex 9.51227 12.452 3
      vertex 0 20 3
      vertex 9.04329 12.3097 3
    endloop
  endfacet
  facet normal 0 0 1
    outer loop
      vertex 10 12.5 3
      vertex 0 20 3
      vertex 9.51227 12.452 3
    endloop
  endfacet
  facet normal -0 0 1
    outer loop
      vertex 42.452 9.51227 3
      vertex 50 0 3
      vertex 42.5 10 3
    endloop
  endfacet
  facet normal -0 0 1
    outer loop
      vertex 42.3097 9.04329 3
      vertex 50 0 3
      vertex 42.452 9.51227 3
    endloop
  endfacet
  facet normal -0 0 1
    outer loop
      vertex 42.0787 8.61107 3
      vertex 50 0 3
      vertex 42.3097 9.04329 3
    endloop
  endfacet
  facet normal -0 0 1
    outer loop
      vertex 41.7678 8.23223 3
      vertex 50 0 3
      vertex 42.0787 8.61107 3
    endloop
  endfacet
  facet normal -0 0 1
    outer loop
      vertex 41.3889 7.92133 3
      vertex 50 0 3
      vertex 41.7678 8.23223 3
    endloop
  endfacet
  facet normal -0 0 1
    outer loop
      vertex 40.9567 7.6903 3
      vertex 50 0 3
      vertex 41.3889 7.92133 3
    endloop
  endfacet
  facet normal -0 0 1
    outer loop
      vertex 40.4877 7.54804 3
      vertex 50 0 3
      vertex 40.9567 7.6903 3
    endloop
  endfacet
  facet normal -0 0 1
    outer loop
      vertex 40 7.5 3
      vertex 50 0 3
      vertex 40.4877 7.54804 3
    endloop
  endfacet
  facet normal 0 0 1
    outer loop
      vertex 39.5123 7.54804 3
      vertex 50 0 3
      vertex 40 7.5 3
    endloop
  endfacet
  facet normal 0 0 1
    outer loop
      vertex 39.0433 7.6903 3
      vertex 50 0 3
      vertex 39.5123 7.54804 3
    endloop
  endfacet
  facet normal 0 0 1
    outer loop
      vertex 10.9567 7.6903 3
      vertex 39.0433 7.6903 3
      vertex 38.6111 7.92133 3
    endloop
  endfacet
  facet normal -0 0 1
    outer loop
      vertex 12.5 10 3
      vertex 37.548 9.51227 3
      vertex 37.5 10 3
    endloop
  endfacet
  facet normal 0 0 1
    outer loop
      vertex 12.452 9.51227 3
      vertex 37.548 9.51227 3
      vertex 12.5 10 3
    endloop
  endfacet
  facet normal 0 0 1
    outer loop
      vertex 37.548 9.51227 3
      vertex 12.452 9.51227 3
      vertex 37.6903 9.04329 3
    endloop
  endfacet
  facet normal 0 0 1
    outer loop
      vertex 12.3097 9.04329 3
      vertex 37.6903 9.04329 3
      vertex 12.452 9.51227 3
    endloop
  endfacet
  facet normal 0 0 1
    outer loop
      vertex 37.6903 9.04329 3
      vertex 12.3097 9.04329 3
      vertex 37.9213 8.61107 3
    endloop
  endfacet
  facet normal 0 0 1
    outer loop
      vertex 12.0787 8.61107 3
      vertex 37.9213 8.61107 3
      vertex 12.3097 9.04329 3
    endloop
  endfacet
  facet normal 0 0 1
    outer loop
      vertex 37.9213 8.61107 3
      vertex 12.0787 8.61107 3
      vertex 38.2322 8.23223 3
    endloop
  endfacet
  facet normal 0 0 1
    outer loop
      vertex 11.7678 8.23223 3
      vertex 38.2322 8.23223 3
      vertex 12.0787 8.61107 3
    endloop
  endfacet
  facet normal 0 0 1
    outer loop
      vertex 38.2322 8.23223 3
      vertex 11.7678 8.23223 3
      vertex 38.6111 7.92133 3
    endloop
  endfacet
  facet normal 0 0 1
    outer loop
      vertex 11.3889 7.92133 3
      vertex 38.6111 7.92133 3
      vertex 11.7678 8.23223 3
    endloop
  endfacet
  facet normal 0 0 1
    outer loop
      vertex 10.9567 7.6903 3
      vertex 38.6111 7.92133 3
      vertex 11.3889 7.92133 3
    endloop
  endfacet
  facet normal 0 0 1
    outer loop
      vertex 39.0433 7.6903 3
      vertex 10.9567 7.6903 3
      vertex 50 0 3
    endloop
  endfacet
  facet normal 0 0 1
    outer loop
      vertex 0 0 3
      vertex 10.9567 7.6903 3
      vertex 10.4877 7.54804 3
    endloop
  endfacet
  facet normal 0 0 1
    outer loop
      vertex 0 0 3
      vertex 10.4877 7.54804 3
      vertex 10 7.5 3
    endloop
  endfacet
  facet normal 0 0 1
    outer loop
      vertex 0 0 3
      vertex 10 7.5 3
      vertex 9.51227 7.54804 3
    endloop
  endfacet
  facet normal 0 0 1
    outer loop
      vertex 0 0 3
      vertex 7.5 10 3
      vertex 0 20 3
    endloop
  endfacet
  facet normal 0 0 1
    outer loop
      vertex 7.5 10 3
      vertex 0 0 3
      vertex 7.54804 9.51227 3
    endloop
  endfacet
  facet normal 0 0 1
    outer loop
      vertex 7.54804 9.51227 3
      vertex 0 0 3
      vertex 7.6903 9.04329 3
    endloop
  endfacet
  facet normal 0 0 1
    outer loop
      vertex 10.9567 7.6903 3
      vertex 0 0 3
      vertex 50 0 3
    endloop
  endfacet
  facet normal 0 0 1
    outer loop
      vertex 9.04329 7.6903 3
      vertex 0 0 3
      vertex 9.51227 7.54804 3
    endloop
  endfacet
  facet normal 0 0 1
    outer loop
      vertex 8.61107 7.92133 3
      vertex 0 0 3
      vertex 9.04329 7.6903 3
    endloop
  endfacet
  facet normal 0 0 1
    outer loop
      vertex 8.23223 8.23223 3
      vertex 0 0 3
      vertex 8.61107 7.92133 3
    endloop
  endfacet
  facet normal 0 0 1
    outer loop
      vertex 7.92133 8.61107 3
      vertex 0 0 3
      vertex 8.23223 8.23223 3
    endloop
  endfacet
  facet normal 0 0 1
    outer loop
      vertex 7.6903 9.04329 3
      vertex 0 0 3
      vertex 7.92133 8.61107 3
    endloop
  endfacet
  facet normal 0 0 -1
    outer loop
      vertex 50 0 0
      vertex 42.5 10 0
      vertex 50 20 0
    endloop
  endfacet
  facet normal 0 0 -1
    outer loop
      vertex 50 0 0
      vertex 42.452 9.51227 0
      vertex 42.5 10 0
    endloop
  endfacet
  facet normal 0 0 -1
    outer loop
      vertex 50 0 0
      vertex 42.3097 9.04329 0
      vertex 42.452 9.51227 0
    endloop
  endfacet
  facet normal 0 0 -1
    outer loop
      vertex 50 0 0
      vertex 42.0787 8.61107 0
      vertex 42.3097 9.04329 0
    endloop
  endfacet
  facet normal 0 0 -1
    outer loop
      vertex 50 0 0
      vertex 41.7678 8.23223 0
      vertex 42.0787 8.61107 0
    endloop
  endfacet
  facet normal 0 0 -1
    outer loop
      vertex 50 0 0
      vertex 41.3889 7.92133 0
      vertex 41.7678 8.23223 0
    endloop
  endfacet
  facet normal 0 0 -1
    outer loop
      vertex 50 0 0
      vertex 40.9567 7.6903 0
      vertex 41.3889 7.92133 0
    endloop
  endfacet
  facet normal 0 0 -1
    outer loop
      vertex 50 0 0
      vertex 40.4877 7.54804 0
      vertex 40.9567 7.6903 0
    endloop
  endfacet
  facet normal 0 0 -1
    outer loop
      vertex 50 0 0
      vertex 40 7.5 0
      vertex 40.4877 7.54804 0
    endloop
  endfacet
  facet normal 0 0 -1
    outer loop
      vertex 50 0 0
      vertex 39.5123 7.54804 0
      vertex 40 7.5 0
    endloop
  endfacet
  facet normal 0 0 -1
    outer loop
      vertex 50 0 0
      vertex 39.0433 7.6903 0
      vertex 39.5123 7.54804 0
    endloop
  endfacet
  facet normal 0 0 -1
    outer loop
      vertex 10.9567 7.6903 0
      vertex 39.0433 7.6903 0
      vertex 50 0 0
    endloop
  endfacet
  facet normal 0 0 -1
    outer loop
      vertex 37.548 9.51227 0
      vertex 12.5 10 0
      vertex 37.5 10 0
    endloop
  endfacet
  facet normal 0 0 -1
    outer loop
      vertex 12.452 9.51227 0
      vertex 37.548 9.51227 0
      vertex 37.6903 9.04329 0
    endloop
  endfacet
  facet normal 0 0 -1
    outer loop
      vertex 12.3097 9.04329 0
      vertex 37.6903 9.04329 0
      vertex 37.9213 8.61107 0
    endloop
  endfacet
  facet normal 0 0 -1
    outer loop
      vertex 12.0787 8.61107 0
      vertex 37.9213 8.61107 0
      vertex 38.2322 8.23223 0
    endloop
  endfacet
  facet normal 0 0 -1
    outer loop
      vertex 11.7678 8.23223 0
      vertex 38.2322 8.23223 0
      vertex 38.6111 7.92133 0
    endloop
  endfacet
  facet normal 0 0 -1
    outer loop
      vertex 39.0433 7.6903 0
      vertex 10.9567 7.6903 0
      vertex 38.6111 7.92133 0
    endloop
  endfacet
  facet normal 0 0 -1
    outer loop
      vertex 37.548 9.51227 0
      vertex 12.452 9.51227 0
      vertex 12.5 10 0
    endloop
  endfacet
  facet normal 0 0 -1
    outer loop
      vertex 37.6903 9.04329 0
      vertex 12.3097 9.04329 0
      vertex 12.452 9.51227 0
    endloop
  endfacet
  facet normal 0 0 -1
    outer loop
      vertex 37.9213 8.61107 0
      vertex 12.0787 8.61107 0
      vertex 12.3097 9.04329 0
    endloop
  endfacet
  facet normal 0 0 -1
    outer loop
      vertex 38.2322 8.23223 0
      vertex 11.7678 8.23223 0
      vertex 12.0787 8.61107 0
    endloop
  endfacet
  facet normal 0 0 -1
    outer loop
      vertex 38.6111 7.92133 0
      vertex 11.3889 7.92133 0
      vertex 11.7678 8.23223 0
    endloop
  endfacet
  facet normal -0 0 -1
    outer loop
      vertex 38.6111 7.92133 0
      vertex 10.9567 7.6903 0
      vertex 11.3889 7.92133 0
    endloop
  endfacet
  facet normal 0 0 -1
    outer loop
      vertex 0 0 0
      vertex 10.9567 7.6903 0
      vertex 50 0 0
    endloop
  endfacet
  facet normal 0 0 -1
    outer loop
      vertex 10.9567 7.6903 0
      vertex 0 0 0
      vertex 10.4877 7.54804 0
    endloop
  endfacet
  facet normal 0 0 -1
    outer loop
      vertex 10.4877 7.54804 0
      vertex 0 0 0
      vertex 10 7.5 0
    endloop
  endfacet
  facet normal -0 0 -1
    outer loop
      vertex 7.54804 9.51227 0
      vertex 0 0 0
      vertex 7.5 10 0
    endloop
  endfacet
  facet normal -0 0 -1
    outer loop
      vertex 7.6903 9.04329 0
      vertex 0 0 0
      vertex 7.54804 9.51227 0
    endloop
  endfacet
  facet normal -0 0 -1
    outer loop
      vertex 7.92133 8.61107 0
      vertex 0 0 0
      vertex 7.6903 9.04329 0
    endloop
  endfacet
  facet normal -0 0 -1
    outer loop
      vertex 8.23223 8.23223 0
      vertex 0 0 0
      vertex 7.92133 8.61107 0
    endloop
  endfacet
  facet normal -0 0 -1
    outer loop
      vertex 8.61107 7.92133 0
      vertex 0 0 0
      vertex 8.23223 8.23223 0
    endloop
  endfacet
  facet normal -0 0 -1
    outer loop
      vertex 9.04329 7.6903 0
      vertex 0 0 0
      vertex 8.61107 7.92133 0
    endloop
  endfacet
  facet normal -0 0 -1
    outer loop
      vertex 9.51227 7.54804 0
      vertex 0 0 0
      vertex 9.04329 7.6903 0
    endloop
  endfacet
  facet normal -0 0 -1
    outer loop
      vertex 10 7.5 0
      vertex 0 0 0
      vertex 9.51227 7.54804 0
    endloop
  endfacet
  facet normal 0 0 -1
    outer loop
      vertex 42.452 10.4877 0
      vertex 50 20 0
      vertex 42.5 10 0
    endloop
  endfacet
  facet normal 0 0 -1
    outer loop
      vertex 42.3097 10.9567 0
      vertex 50 20 0
      vertex 42.452 10.4877 0
    endloop
  endfacet
  facet normal 0 0 -1
    outer loop
      vertex 42.0787 11.3889 0
      vertex 50 20 0
      vertex 42.3097 10.9567 0
    endloop
  endfacet
  facet normal 0 0 -1
    outer loop
      vertex 41.7678 11.7678 0
      vertex 50 20 0
      vertex 42.0787 11.3889 0
    endloop
  endfacet
  facet normal 0 0 -1
    outer loop
      vertex 41.3889 12.0787 0
      vertex 50 20 0
      vertex 41.7678 11.7678 0
    endloop
  endfacet
  facet normal 0 0 -1
    outer loop
      vertex 40.9567 12.3097 0
      vertex 50 20 0
      vertex 41.3889 12.0787 0
    endloop
  endfacet
  facet normal 0 0 -1
    outer loop
      vertex 40.4877 12.452 0
      vertex 50 20 0
      vertex 40.9567 12.3097 0
    endloop
  endfacet
  facet normal 0 0 -1
    outer loop
      vertex 40 12.5 0
      vertex 50 20 0
      vertex 40.4877 12.452 0
    endloop
  endfacet
  facet normal 0 0 -1
    outer loop
      vertex 39.5123 12.452 0
      vertex 50 20 0
      vertex 40 12.5 0
    endloop
  endfacet
  facet normal 0 0 -1
    outer loop
      vertex 39.0433 12.3097 0
      vertex 50 20 0
      vertex 39.5123 12.452 0
    endloop
  endfacet
  facet normal 0 0 -1
    outer loop
      vertex 10.9567 12.3097 0
      vertex 39.0433 12.3097 0
      vertex 38.6111 12.0787 0
    endloop
  endfacet
  facet normal 0 0 -1
    outer loop
      vertex 12.5 10 0
      vertex 37.548 10.4877 0
      vertex 37.5 10 0
    endloop
  endfacet
  facet normal 0 0 -1
    outer loop
      vertex 12.452 10.4877 0
      vertex 37.548 10.4877 0
      vertex 12.5 10 0
    endloop
  endfacet
  facet normal 0 0 -1
    outer loop
      vertex 37.548 10.4877 0
      vertex 12.452 10.4877 0
      vertex 37.6903 10.9567 0
    endloop
  endfacet
  facet normal 0 0 -1
    outer loop
      vertex 12.3097 10.9567 0
      vertex 37.6903 10.9567 0
      vertex 12.452 10.4877 0
    endloop
  endfacet
  facet normal 0 0 -1
    outer loop
      vertex 37.6903 10.9567 0
      vertex 12.3097 10.9567 0
      vertex 37.9213 11.3889 0
    endloop
  endfacet
  facet normal 0 0 -1
    outer loop
      vertex 12.0787 11.3889 0
      vertex 37.9213 11.3889 0
      vertex 12.3097 10.9567 0
    endloop
  endfacet
  facet normal 0 0 -1
    outer loop
      vertex 37.9213 11.3889 0
      vertex 12.0787 11.3889 0
      vertex 38.2322 11.7678 0
    endloop
  endfacet
  facet normal 0 0 -1
    outer loop
      vertex 11.7678 11.7678 0
      vertex 38.2322 11.7678 0
      vertex 12.0787 11.3889 0
    endloop
  endfacet
  facet normal 0 0 -1
    outer loop
      vertex 38.2322 11.7678 0
      vertex 11.7678 11.7678 0
      vertex 38.6111 12.0787 0
    endloop
  endfacet
  facet normal 0 0 -1
    outer loop
      vertex 11.3889 12.0787 0
      vertex 38.6111 12.0787 0
      vertex 11.7678 11.7678 0
    endloop
  endfacet
  facet normal 0 0 -1
    outer loop
      vertex 10.9567 12.3097 0
      vertex 38.6111 12.0787 0
      vertex 11.3889 12.0787 0
    endloop
  endfacet
  facet normal 0 0 -1
    outer loop
      vertex 39.0433 12.3097 0
      vertex 10.9567 12.3097 0
      vertex 50 20 0
    endloop
  endfacet
  facet normal 0 0 -1
    outer loop
      vertex 0 20 0
      vertex 10.9567 12.3097 0
      vertex 10.4877 12.452 0
    endloop
  endfacet
  facet normal 0 0 -1
    outer loop
      vertex 0 20 0
      vertex 10.4877 12.452 0
      vertex 10 12.5 0
    endloop
  endfacet
  facet normal 0 0 -1
    outer loop
      vertex 0 20 0
      vertex 10 12.5 0
      vertex 9.51227 12.452 0
    endloop
  endfacet
  facet normal 0 0 -1
    outer loop
      vertex 0 20 0
      vertex 7.5 10 0
      vertex 0 0 0
    endloop
  endfacet
  facet normal 0 0 -1
    outer loop
      vertex 7.5 10 0
      vertex 0 20 0
      vertex 7.54804 10.4877 0
    endloop
  endfacet
  facet normal 0 0 -1
    outer loop
      vertex 7.54804 10.4877 0
      vertex 0 20 0
      vertex 7.6903 10.9567 0
    endloop
  endfacet
  facet normal 0 0 -1
    outer loop
      vertex 10.9567 12.3097 0
      vertex 0 20 0
      vertex 50 20 0
    endloop
  endfacet
  facet normal 0 0 -1
    outer loop
      vertex 9.04329 12.3097 0
      vertex 0 20 0
      vertex 9.51227 12.452 0
    endloop
  endfacet
  facet normal 0 0 -1
    outer loop
      vertex 8.61107 12.0787 0
      vertex 0 20 0
      vertex 9.04329 12.3097 0
    endloop
  endfacet
  facet normal 0 0 -1
    outer loop
      vertex 8.23223 11.7678 0
      vertex 0 20 0
      vertex 8.61107 12.0787 0
    endloop
  endfacet
  facet normal 0 0 -1
    outer loop
      vertex 7.92133 11.3889 0
      vertex 0 20 0
      vertex 8.23223 11.7678 0
    endloop
  endfacet
  facet normal 0 0 -1
    outer loop
      vertex 7.6903 10.9567 0
      vertex 0 20 0
      vertex 7.92133 11.3889 0
    endloop
  endfacet
  facet normal -1 0 0
    outer loop
      vertex 0 0 0
      vertex 0 20 3
      vertex 0 20 0
    endloop
  endfacet
  facet normal -1 -0 0
    outer loop
      vertex 0 20 3
      vertex 0 0 0
      vertex 0 0 3
    endloop
  endfacet
  facet normal 0 1 -0
    outer loop
      vertex 50 20 0
      vertex 0 20 3
      vertex 50 20 3
    endloop
  endfacet
  facet normal 0 1 0
    outer loop
      vertex 0 20 3
      vertex 50 20 0
      vertex 0 20 0
    endloop
  endfacet
  facet normal 0 -1 0
    outer loop
      vertex 0 0 0
      vertex 50 0 3
      vertex 0 0 3
    endloop
  endfacet
  facet normal 0 -1 -0
    outer loop
      vertex 50 0 3
      vertex 0 0 0
      vertex 50 0 0
    endloop
  endfacet
  facet normal -0.290267 0.956946 0
    outer loop
      vertex 10.9567 7.6903 0
      vertex 10.4877 7.54804 3
      vertex 10.9567 7.6903 3
    endloop
  endfacet
  facet normal -0.290267 0.956946 0
    outer loop
      vertex 10.4877 7.54804 3
      vertex 10.9567 7.6903 0
      vertex 10.4877 7.54804 0
    endloop
  endfacet
  facet normal -0.956923 -0.290341 0
    outer loop
      vertex 12.452 10.4877 0
      vertex 12.3097 10.9567 3
      vertex 12.3097 10.9567 0
    endloop
  endfacet
  facet normal -0.956923 -0.290341 0
    outer loop
      vertex 12.3097 10.9567 3
      vertex 12.452 10.4877 0
      vertex 12.452 10.4877 3
    endloop
  endfacet
  facet normal -0.995192 -0.0979479 0
    outer loop
      vertex 12.5 10 0
      vertex 12.452 10.4877 3
      vertex 12.452 10.4877 0
    endloop
  endfacet
  facet normal -0.995192 -0.0979479 0
    outer loop
      vertex 12.452 10.4877 3
      vertex 12.5 10 0
      vertex 12.5 10 3
    endloop
  endfacet
  facet normal -0.881935 -0.471372 0
    outer loop
      vertex 12.3097 10.9567 0
      vertex 12.0787 11.3889 3
      vertex 12.0787 11.3889 0
    endloop
  endfacet
  facet normal -0.881935 -0.471372 0
    outer loop
      vertex 12.0787 11.3889 3
      vertex 12.3097 10.9567 0
      vertex 12.3097 10.9567 3
    endloop
  endfacet
  facet normal 0.881918 0.471402 0
    outer loop
      vertex 7.92133 8.61107 3
      vertex 7.6903 9.04329 0
      vertex 7.6903 9.04329 3
    endloop
  endfacet
  facet normal 0.881918 0.471402 0
    outer loop
      vertex 7.6903 9.04329 0
      vertex 7.92133 8.61107 3
      vertex 7.92133 8.61107 0
    endloop
  endfacet
  facet normal -0.290341 -0.956923 0
    outer loop
      vertex 10.4877 12.452 0
      vertex 10.9567 12.3097 3
      vertex 10.4877 12.452 3
    endloop
  endfacet
  facet normal -0.290341 -0.956923 -0
    outer loop
      vertex 10.9567 12.3097 3
      vertex 10.4877 12.452 0
      vertex 10.9567 12.3097 0
    endloop
  endfacet
  facet normal 0.0979419 -0.995192 0
    outer loop
      vertex 9.51227 12.452 0
      vertex 10 12.5 3
      vertex 9.51227 12.452 3
    endloop
  endfacet
  facet normal 0.0979419 -0.995192 0
    outer loop
      vertex 10 12.5 3
      vertex 9.51227 12.452 0
      vertex 10 12.5 0
    endloop
  endfacet
  facet normal 0.471402 0.881918 -0
    outer loop
      vertex 9.04329 7.6903 0
      vertex 8.61107 7.92133 3
      vertex 9.04329 7.6903 3
    endloop
  endfacet
  facet normal 0.471402 0.881918 0
    outer loop
      vertex 8.61107 7.92133 3
      vertex 9.04329 7.6903 0
      vertex 8.61107 7.92133 0
    endloop
  endfacet
  facet normal 0.471355 -0.881944 0
    outer loop
      vertex 8.61107 12.0787 0
      vertex 9.04329 12.3097 3
      vertex 8.61107 12.0787 3
    endloop
  endfacet
  facet normal 0.471355 -0.881944 0
    outer loop
      vertex 9.04329 12.3097 3
      vertex 8.61107 12.0787 0
      vertex 9.04329 12.3097 0
    endloop
  endfacet
  facet normal -0.471419 0.881909 0
    outer loop
      vertex 11.3889 7.92133 0
      vertex 10.9567 7.6903 3
      vertex 11.3889 7.92133 3
    endloop
  endfacet
  facet normal -0.471419 0.881909 0
    outer loop
      vertex 10.9567 7.6903 3
      vertex 11.3889 7.92133 0
      vertex 10.9567 7.6903 0
    endloop
  endfacet
  facet normal 0.773066 -0.634326 0
    outer loop
      vertex 7.92133 11.3889 3
      vertex 8.23223 11.7678 0
      vertex 8.23223 11.7678 3
    endloop
  endfacet
  facet normal 0.773066 -0.634326 0
    outer loop
      vertex 8.23223 11.7678 0
      vertex 7.92133 11.3889 3
      vertex 7.92133 11.3889 0
    endloop
  endfacet
  facet normal -0.773066 -0.634326 0
    outer loop
      vertex 12.0787 11.3889 0
      vertex 11.7678 11.7678 3
      vertex 11.7678 11.7678 0
    endloop
  endfacet
  facet normal -0.773066 -0.634326 0
    outer loop
      vertex 11.7678 11.7678 3
      vertex 12.0787 11.3889 0
      vertex 12.0787 11.3889 3
    endloop
  endfacet
  facet normal -0.773016 0.634386 0
    outer loop
      vertex 11.7678 8.23223 0
      vertex 12.0787 8.61107 3
      vertex 12.0787 8.61107 0
    endloop
  endfacet
  facet normal -0.773016 0.634386 0
    outer loop
      vertex 12.0787 8.61107 3
      vertex 11.7678 8.23223 0
      vertex 11.7678 8.23223 3
    endloop
  endfacet
  facet normal 0.0980228 0.995184 -0
    outer loop
      vertex 10 7.5 0
      vertex 9.51227 7.54804 3
      vertex 10 7.5 3
    endloop
  endfacet
  facet normal 0.0980228 0.995184 0
    outer loop
      vertex 9.51227 7.54804 3
      vertex 10 7.5 0
      vertex 9.51227 7.54804 0
    endloop
  endfacet
  facet normal 0.290353 -0.95692 0
    outer loop
      vertex 9.04329 12.3097 0
      vertex 9.51227 12.452 3
      vertex 9.04329 12.3097 3
    endloop
  endfacet
  facet normal 0.290353 -0.95692 0
    outer loop
      vertex 9.51227 12.452 3
      vertex 9.04329 12.3097 0
      vertex 9.51227 12.452 0
    endloop
  endfacet
  facet normal -0.634326 0.773066 0
    outer loop
      vertex 11.7678 8.23223 0
      vertex 11.3889 7.92133 3
      vertex 11.7678 8.23223 3
    endloop
  endfacet
  facet normal -0.634326 0.773066 0
    outer loop
      vertex 11.3889 7.92133 3
      vertex 11.7678 8.23223 0
      vertex 11.3889 7.92133 0
    endloop
  endfacet
  facet normal -0.995192 0.0979419 0
    outer loop
      vertex 12.452 9.51227 0
      vertex 12.5 10 3
      vertex 12.5 10 0
    endloop
  endfacet
  facet normal -0.995192 0.0979419 0
    outer loop
      vertex 12.5 10 3
      vertex 12.452 9.51227 0
      vertex 12.452 9.51227 3
    endloop
  endfacet
  facet normal 0.290278 0.956942 -0
    outer loop
      vertex 9.51227 7.54804 0
      vertex 9.04329 7.6903 3
      vertex 9.51227 7.54804 3
    endloop
  endfacet
  facet normal 0.290278 0.956942 0
    outer loop
      vertex 9.04329 7.6903 3
      vertex 9.51227 7.54804 0
      vertex 9.04329 7.6903 0
    endloop
  endfacet
  facet normal -0.95692 0.290353 0
    outer loop
      vertex 12.3097 9.04329 0
      vertex 12.452 9.51227 3
      vertex 12.452 9.51227 0
    endloop
  endfacet
  facet normal -0.95692 0.290353 0
    outer loop
      vertex 12.452 9.51227 3
      vertex 12.3097 9.04329 0
      vertex 12.3097 9.04329 3
    endloop
  endfacet
  facet normal 0.956942 0.290278 0
    outer loop
      vertex 7.6903 9.04329 3
      vertex 7.54804 9.51227 0
      vertex 7.54804 9.51227 3
    endloop
  endfacet
  facet normal 0.956942 0.290278 0
    outer loop
      vertex 7.54804 9.51227 0
      vertex 7.6903 9.04329 3
      vertex 7.6903 9.04329 0
    endloop
  endfacet
  facet normal -0.881944 0.471355 0
    outer loop
      vertex 12.0787 8.61107 0
      vertex 12.3097 9.04329 3
      vertex 12.3097 9.04329 0
    endloop
  endfacet
  facet normal -0.881944 0.471355 0
    outer loop
      vertex 12.3097 9.04329 3
      vertex 12.0787 8.61107 0
      vertex 12.0787 8.61107 3
    endloop
  endfacet
  facet normal 0.995184 -0.0980287 0
    outer loop
      vertex 7.5 10 3
      vertex 7.54804 10.4877 0
      vertex 7.54804 10.4877 3
    endloop
  endfacet
  facet normal 0.995184 -0.0980287 0
    outer loop
      vertex 7.54804 10.4877 0
      vertex 7.5 10 3
      vertex 7.5 10 0
    endloop
  endfacet
  facet normal -0.0979479 -0.995192 0
    outer loop
      vertex 10 12.5 0
      vertex 10.4877 12.452 3
      vertex 10 12.5 3
    endloop
  endfacet
  facet normal -0.0979479 -0.995192 -0
    outer loop
      vertex 10.4877 12.452 3
      vertex 10 12.5 0
      vertex 10.4877 12.452 0
    endloop
  endfacet
  facet normal 0.634386 -0.773016 0
    outer loop
      vertex 8.23223 11.7678 0
      vertex 8.61107 12.0787 3
      vertex 8.23223 11.7678 3
    endloop
  endfacet
  facet normal 0.634386 -0.773016 0
    outer loop
      vertex 8.61107 12.0787 3
      vertex 8.23223 11.7678 0
      vertex 8.61107 12.0787 0
    endloop
  endfacet
  facet normal -0.634326 -0.773066 0
    outer loop
      vertex 11.3889 12.0787 0
      vertex 11.7678 11.7678 3
      vertex 11.3889 12.0787 3
    endloop
  endfacet
  facet normal -0.634326 -0.773066 -0
    outer loop
      vertex 11.7678 11.7678 3
      vertex 11.3889 12.0787 0
      vertex 11.7678 11.7678 0
    endloop
  endfacet
  facet normal -0.0980287 0.995184 0
    outer loop
      vertex 10.4877 7.54804 0
      vertex 10 7.5 3
      vertex 10.4877 7.54804 3
    endloop
  endfacet
  facet normal -0.0980287 0.995184 0
    outer loop
      vertex 10 7.5 3
      vertex 10.4877 7.54804 0
      vertex 10 7.5 0
    endloop
  endfacet
  facet normal -0.471372 -0.881935 0
    outer loop
      vertex 10.9567 12.3097 0
      vertex 11.3889 12.0787 3
      vertex 10.9567 12.3097 3
    endloop
  endfacet
  facet normal -0.471372 -0.881935 -0
    outer loop
      vertex 11.3889 12.0787 3
      vertex 10.9567 12.3097 0
      vertex 11.3889 12.0787 0
    endloop
  endfacet
  facet normal 0.773016 0.634386 0
    outer loop
      vertex 8.23223 8.23223 3
      vertex 7.92133 8.61107 0
      vertex 7.92133 8.61107 3
    endloop
  endfacet
  facet normal 0.773016 0.634386 0
    outer loop
      vertex 7.92133 8.61107 0
      vertex 8.23223 8.23223 3
      vertex 8.23223 8.23223 0
    endloop
  endfacet
  facet normal 0.634386 0.773016 -0
    outer loop
      vertex 8.61107 7.92133 0
      vertex 8.23223 8.23223 3
      vertex 8.61107 7.92133 3
    endloop
  endfacet
  facet normal 0.634386 0.773016 0
    outer loop
      vertex 8.23223 8.23223 3
      vertex 8.61107 7.92133 0
      vertex 8.23223 8.23223 0
    endloop
  endfacet
  facet normal 0.956946 -0.290267 0
    outer loop
      vertex 7.54804 10.4877 3
      vertex 7.6903 10.9567 0
      vertex 7.6903 10.9567 3
    endloop
  endfacet
  facet normal 0.956946 -0.290267 0
    outer loop
      vertex 7.6903 10.9567 0
      vertex 7.54804 10.4877 3
      vertex 7.54804 10.4877 0
    endloop
  endfacet
  facet normal 0.881909 -0.471419 0
    outer loop
      vertex 7.6903 10.9567 3
      vertex 7.92133 11.3889 0
      vertex 7.92133 11.3889 3
    endloop
  endfacet
  facet normal 0.881909 -0.471419 0
    outer loop
      vertex 7.92133 11.3889 0
      vertex 7.6903 10.9567 3
      vertex 7.6903 10.9567 0
    endloop
  endfacet
  facet normal 0.995184 0.0980228 0
    outer loop
      vertex 7.54804 9.51227 3
      vertex 7.5 10 0
      vertex 7.5 10 3
    endloop
  endfacet
  facet normal 0.995184 0.0980228 0
    outer loop
      vertex 7.5 10 0
      vertex 7.54804 9.51227 3
      vertex 7.54804 9.51227 0
    endloop
  endfacet
  facet normal -0.290267 0.956946 0
    outer loop
      vertex 40.9567 7.6903 0
      vertex 40.4877 7.54804 3
      vertex 40.9567 7.6903 3
    endloop
  endfacet
  facet normal -0.290267 0.956946 0
    outer loop
      vertex 40.4877 7.54804 3
      vertex 40.9567 7.6903 0
      vertex 40.4877 7.54804 0
    endloop
  endfacet
  facet normal -0.956923 -0.290341 0
    outer loop
      vertex 42.452 10.4877 0
      vertex 42.3097 10.9567 3
      vertex 42.3097 10.9567 0
    endloop
  endfacet
  facet normal -0.956923 -0.290341 0
    outer loop
      vertex 42.3097 10.9567 3
      vertex 42.452 10.4877 0
      vertex 42.452 10.4877 3
    endloop
  endfacet
  facet normal -0.995192 -0.0979479 0
    outer loop
      vertex 42.5 10 0
      vertex 42.452 10.4877 3
      vertex 42.452 10.4877 0
    endloop
  endfacet
  facet normal -0.995192 -0.0979479 0
    outer loop
      vertex 42.452 10.4877 3
      vertex 42.5 10 0
      vertex 42.5 10 3
    endloop
  endfacet
  facet normal -0.881935 -0.471372 0
    outer loop
      vertex 42.3097 10.9567 0
      vertex 42.0787 11.3889 3
      vertex 42.0787 11.3889 0
    endloop
  endfacet
  facet normal -0.881935 -0.471372 0
    outer loop
      vertex 42.0787 11.3889 3
      vertex 42.3097 10.9567 0
      vertex 42.3097 10.9567 3
    endloop
  endfacet
  facet normal 0.290341 -0.956923 0
    outer loop
      vertex 39.0433 12.3097 0
      vertex 39.5123 12.452 3
      vertex 39.0433 12.3097 3
    endloop
  endfacet
  facet normal 0.290341 -0.956923 0
    outer loop
      vertex 39.5123 12.452 3
      vertex 39.0433 12.3097 0
      vertex 39.5123 12.452 0
    endloop
  endfacet
  facet normal 0.881935 -0.471372 0
    outer loop
      vertex 37.6903 10.9567 3
      vertex 37.9213 11.3889 0
      vertex 37.9213 11.3889 3
    endloop
  endfacet
  facet normal 0.881935 -0.471372 0
    outer loop
      vertex 37.9213 11.3889 0
      vertex 37.6903 10.9567 3
      vertex 37.6903 10.9567 0
    endloop
  endfacet
  facet normal 0.995192 0.0979419 0
    outer loop
      vertex 37.548 9.51227 3
      vertex 37.5 10 0
      vertex 37.5 10 3
    endloop
  endfacet
  facet normal 0.995192 0.0979419 0
    outer loop
      vertex 37.5 10 0
      vertex 37.548 9.51227 3
      vertex 37.548 9.51227 0
    endloop
  endfacet
  facet normal 0.0980287 0.995184 -0
    outer loop
      vertex 40 7.5 0
      vertex 39.5123 7.54804 3
      vertex 40 7.5 3
    endloop
  endfacet
  facet normal 0.0980287 0.995184 0
    outer loop
      vertex 39.5123 7.54804 3
      vertex 40 7.5 0
      vertex 39.5123 7.54804 0
    endloop
  endfacet
  facet normal 0.634326 0.773066 -0
    outer loop
      vertex 38.6111 7.92133 0
      vertex 38.2322 8.23223 3
      vertex 38.6111 7.92133 3
    endloop
  endfacet
  facet normal 0.634326 0.773066 0
    outer loop
      vertex 38.2322 8.23223 3
      vertex 38.6111 7.92133 0
      vertex 38.2322 8.23223 0
    endloop
  endfacet
  facet normal -0.773016 0.634386 0
    outer loop
      vertex 41.7678 8.23223 0
      vertex 42.0787 8.61107 3
      vertex 42.0787 8.61107 0
    endloop
  endfacet
  facet normal -0.773016 0.634386 0
    outer loop
      vertex 42.0787 8.61107 3
      vertex 41.7678 8.23223 0
      vertex 41.7678 8.23223 3
    endloop
  endfacet
  facet normal -0.471419 0.881909 0
    outer loop
      vertex 41.3889 7.92133 0
      vertex 40.9567 7.6903 3
      vertex 41.3889 7.92133 3
    endloop
  endfacet
  facet normal -0.471419 0.881909 0
    outer loop
      vertex 40.9567 7.6903 3
      vertex 41.3889 7.92133 0
      vertex 40.9567 7.6903 0
    endloop
  endfacet
  facet normal -0.773066 -0.634326 0
    outer loop
      vertex 42.0787 11.3889 0
      vertex 41.7678 11.7678 3
      vertex 41.7678 11.7678 0
    endloop
  endfacet
  facet normal -0.773066 -0.634326 0
    outer loop
      vertex 41.7678 11.7678 3
      vertex 42.0787 11.3889 0
      vertex 42.0787 11.3889 3
    endloop
  endfacet
  facet normal 0.471419 0.881909 -0
    outer loop
      vertex 39.0433 7.6903 0
      vertex 38.6111 7.92133 3
      vertex 39.0433 7.6903 3
    endloop
  endfacet
  facet normal 0.471419 0.881909 0
    outer loop
      vertex 38.6111 7.92133 3
      vertex 39.0433 7.6903 0
      vertex 38.6111 7.92133 0
    endloop
  endfacet
  facet normal -0.995192 0.0979419 0
    outer loop
      vertex 42.452 9.51227 0
      vertex 42.5 10 3
      vertex 42.5 10 0
    endloop
  endfacet
  facet normal -0.995192 0.0979419 0
    outer loop
      vertex 42.5 10 3
      vertex 42.452 9.51227 0
      vertex 42.452 9.51227 3
    endloop
  endfacet
  facet normal -0.95692 0.290353 0
    outer loop
      vertex 42.3097 9.04329 0
      vertex 42.452 9.51227 3
      vertex 42.452 9.51227 0
    endloop
  endfacet
  facet normal -0.95692 0.290353 0
    outer loop
      vertex 42.452 9.51227 3
      vertex 42.3097 9.04329 0
      vertex 42.3097 9.04329 3
    endloop
  endfacet
  facet normal -0.881944 0.471355 0
    outer loop
      vertex 42.0787 8.61107 0
      vertex 42.3097 9.04329 3
      vertex 42.3097 9.04329 0
    endloop
  endfacet
  facet normal -0.881944 0.471355 0
    outer loop
      vertex 42.3097 9.04329 3
      vertex 42.0787 8.61107 0
      vertex 42.0787 8.61107 3
    endloop
  endfacet
  facet normal 0.634326 -0.773066 0
    outer loop
      vertex 38.2322 11.7678 0
      vertex 38.6111 12.0787 3
      vertex 38.2322 11.7678 3
    endloop
  endfacet
  facet normal 0.634326 -0.773066 0
    outer loop
      vertex 38.6111 12.0787 3
      vertex 38.2322 11.7678 0
      vertex 38.6111 12.0787 0
    endloop
  endfacet
  facet normal 0.995192 -0.0979479 0
    outer loop
      vertex 37.5 10 3
      vertex 37.548 10.4877 0
      vertex 37.548 10.4877 3
    endloop
  endfacet
  facet normal 0.995192 -0.0979479 0
    outer loop
      vertex 37.548 10.4877 0
      vertex 37.5 10 3
      vertex 37.5 10 0
    endloop
  endfacet
  facet normal 0.95692 0.290353 0
    outer loop
      vertex 37.6903 9.04329 3
      vertex 37.548 9.51227 0
      vertex 37.548 9.51227 3
    endloop
  endfacet
  facet normal 0.95692 0.290353 0
    outer loop
      vertex 37.548 9.51227 0
      vertex 37.6903 9.04329 3
      vertex 37.6903 9.04329 0
    endloop
  endfacet
  facet normal -0.0980287 0.995184 0
    outer loop
      vertex 40.4877 7.54804 0
      vertex 40 7.5 3
      vertex 40.4877 7.54804 3
    endloop
  endfacet
  facet normal -0.0980287 0.995184 0
    outer loop
      vertex 40 7.5 3
      vertex 40.4877 7.54804 0
      vertex 40 7.5 0
    endloop
  endfacet
  facet normal -0.290341 -0.956923 0
    outer loop
      vertex 40.4877 12.452 0
      vertex 40.9567 12.3097 3
      vertex 40.4877 12.452 3
    endloop
  endfacet
  facet normal -0.290341 -0.956923 -0
    outer loop
      vertex 40.9567 12.3097 3
      vertex 40.4877 12.452 0
      vertex 40.9567 12.3097 0
    endloop
  endfacet
  facet normal -0.0979479 -0.995192 0
    outer loop
      vertex 40 12.5 0
      vertex 40.4877 12.452 3
      vertex 40 12.5 3
    endloop
  endfacet
  facet normal -0.0979479 -0.995192 -0
    outer loop
      vertex 40.4877 12.452 3
      vertex 40 12.5 0
      vertex 40.4877 12.452 0
    endloop
  endfacet
  facet normal 0.290267 0.956946 -0
    outer loop
      vertex 39.5123 7.54804 0
      vertex 39.0433 7.6903 3
      vertex 39.5123 7.54804 3
    endloop
  endfacet
  facet normal 0.290267 0.956946 0
    outer loop
      vertex 39.0433 7.6903 3
      vertex 39.5123 7.54804 0
      vertex 39.0433 7.6903 0
    endloop
  endfacet
  facet normal -0.634326 -0.773066 0
    outer loop
      vertex 41.3889 12.0787 0
      vertex 41.7678 11.7678 3
      vertex 41.3889 12.0787 3
    endloop
  endfacet
  facet normal -0.634326 -0.773066 -0
    outer loop
      vertex 41.7678 11.7678 3
      vertex 41.3889 12.0787 0
      vertex 41.7678 11.7678 0
    endloop
  endfacet
  facet normal 0.773066 -0.634326 0
    outer loop
      vertex 37.9213 11.3889 3
      vertex 38.2322 11.7678 0
      vertex 38.2322 11.7678 3
    endloop
  endfacet
  facet normal 0.773066 -0.634326 0
    outer loop
      vertex 38.2322 11.7678 0
      vertex 37.9213 11.3889 3
      vertex 37.9213 11.3889 0
    endloop
  endfacet
  facet normal -0.471372 -0.881935 0
    outer loop
      vertex 40.9567 12.3097 0
      vertex 41.3889 12.0787 3
      vertex 40.9567 12.3097 3
    endloop
  endfacet
  facet normal -0.471372 -0.881935 -0
    outer loop
      vertex 41.3889 12.0787 3
      vertex 40.9567 12.3097 0
      vertex 41.3889 12.0787 0
    endloop
  endfacet
  facet normal 0.471372 -0.881935 0
    outer loop
      vertex 38.6111 12.0787 0
      vertex 39.0433 12.3097 3
      vertex 38.6111 12.0787 3
    endloop
  endfacet
  facet normal 0.471372 -0.881935 0
    outer loop
      vertex 39.0433 12.3097 3
      vertex 38.6111 12.0787 0
      vertex 39.0433 12.3097 0
    endloop
  endfacet
  facet normal 0.0979479 -0.995192 0
    outer loop
      vertex 39.5123 12.452 0
      vertex 40 12.5 3
      vertex 39.5123 12.452 3
    endloop
  endfacet
  facet normal 0.0979479 -0.995192 0
    outer loop
      vertex 40 12.5 3
      vertex 39.5123 12.452 0
      vertex 40 12.5 0
    endloop
  endfacet
  facet normal -0.634326 0.773066 0
    outer loop
      vertex 41.7678 8.23223 0
      vertex 41.3889 7.92133 3
      vertex 41.7678 8.23223 3
    endloop
  endfacet
  facet normal -0.634326 0.773066 0
    outer loop
      vertex 41.3889 7.92133 3
      vertex 41.7678 8.23223 0
      vertex 41.3889 7.92133 0
    endloop
  endfacet
  facet normal 0.773016 0.634386 0
    outer loop
      vertex 38.2322 8.23223 3
      vertex 37.9213 8.61107 0
      vertex 37.9213 8.61107 3
    endloop
  endfacet
  facet normal 0.773016 0.634386 0
    outer loop
      vertex 37.9213 8.61107 0
      vertex 38.2322 8.23223 3
      vertex 38.2322 8.23223 0
    endloop
  endfacet
  facet normal 0.881944 0.471355 0
    outer loop
      vertex 37.9213 8.61107 3
      vertex 37.6903 9.04329 0
      vertex 37.6903 9.04329 3
    endloop
  endfacet
  facet normal 0.881944 0.471355 0
    outer loop
      vertex 37.6903 9.04329 0
      vertex 37.9213 8.61107 3
      vertex 37.9213 8.61107 0
    endloop
  endfacet
  facet normal 0.956923 -0.290341 0
    outer loop
      vertex 37.548 10.4877 3
      vertex 37.6903 10.9567 0
      vertex 37.6903 10.9567 3
    endloop
  endfacet
  facet normal 0.956923 -0.290341 0
    outer loop
      vertex 37.6903 10.9567 0
      vertex 37.548 10.4877 3
      vertex 37.548 10.4877 0
    endloop
  endfacet
endsolid OpenSCAD_Model
