solid OpenSCAD_Model
  facet normal 1 -0 0
    outer loop
      vertex 50 0 5
      vertex 50 30 0
      vertex 50 30 5
    endloop
  endfacet
  facet normal 1 0 0
    outer loop
      vertex 50 30 0
      vertex 50 0 5
      vertex 50 0 0
    endloop
  endfacet
  facet normal 0 0 -1
    outer loop
      vertex 42.9058 19.2539 0
      vertex 50 30 0
      vertex 50 0 0
    endloop
  endfacet
  facet normal 0 0 -1
    outer loop
      vertex 50 30 0
      vertex 42.9763 19.624 0
      vertex 43 20 0
    endloop
  endfacet
  facet normal 0 0 -1
    outer loop
      vertex 50 30 0
      vertex 42.9058 19.2539 0
      vertex 42.9763 19.624 0
    endloop
  endfacet
  facet normal 0 0 -1
    outer loop
      vertex 50 0 0
      vertex 42.7893 18.8956 0
      vertex 42.9058 19.2539 0
    endloop
  endfacet
  facet normal 0 0 -1
    outer loop
      vertex 50 0 0
      vertex 42.6289 18.5547 0
      vertex 42.7893 18.8956 0
    endloop
  endfacet
  facet normal 0 0 -1
    outer loop
      vertex 50 0 0
      vertex 42.4271 18.2366 0
      vertex 42.6289 18.5547 0
    endloop
  endfacet
  facet normal 0 0 -1
    outer loop
      vertex 50 0 0
      vertex 42.1869 17.9464 0
      vertex 42.4271 18.2366 0
    endloop
  endfacet
  facet normal 0 0 -1
    outer loop
      vertex 50 0 0
      vertex 41.9123 17.6885 0
      vertex 42.1869 17.9464 0
    endloop
  endfacet
  facet normal 0 0 -1
    outer loop
      vertex 50 0 0
      vertex 41.6075 17.467 0
      vertex 41.9123 17.6885 0
    endloop
  endfacet
  facet normal 0 0 -1
    outer loop
      vertex 50 0 0
      vertex 41.2773 17.2855 0
      vertex 41.6075 17.467 0
    endloop
  endfacet
  facet normal 0 0 -1
    outer loop
      vertex 50 0 0
      vertex 40.9271 17.1468 0
      vertex 41.2773 17.2855 0
    endloop
  endfacet
  facet normal 0 0 -1
    outer loop
      vertex 50 0 0
      vertex 40.5621 17.0531 0
      vertex 40.9271 17.1468 0
    endloop
  endfacet
  facet normal 0 0 -1
    outer loop
      vertex 50 0 0
      vertex 40.1884 17.0059 0
      vertex 40.5621 17.0531 0
    endloop
  endfacet
  facet normal 0 0 -1
    outer loop
      vertex 50 0 0
      vertex 39.8116 17.0059 0
      vertex 40.1884 17.0059 0
    endloop
  endfacet
  facet normal 0 0 -1
    outer loop
      vertex 50 0 0
      vertex 39.4379 17.0531 0
      vertex 39.8116 17.0059 0
    endloop
  endfacet
  facet normal 0 0 -1
    outer loop
      vertex 50 0 0
      vertex 39.0729 17.1468 0
      vertex 39.4379 17.0531 0
    endloop
  endfacet
  facet normal 0 0 -1
    outer loop
      vertex 50 0 0
      vertex 38.7227 17.2855 0
      vertex 39.0729 17.1468 0
    endloop
  endfacet
  facet normal 0 0 -1
    outer loop
      vertex 12.6289 8.55474 0
      vertex 38.7227 17.2855 0
      vertex 50 0 0
    endloop
  endfacet
  facet normal 0 -0 -1
    outer loop
      vertex 12.7893 8.89563 0
      vertex 38.7227 17.2855 0
      vertex 12.6289 8.55474 0
    endloop
  endfacet
  facet normal -0 0 -1
    outer loop
      vertex 38.7227 17.2855 0
      vertex 12.7893 8.89563 0
      vertex 38.3925 17.467 0
    endloop
  endfacet
  facet normal 0 -0 -1
    outer loop
      vertex 12.9057 9.25393 0
      vertex 38.3925 17.467 0
      vertex 12.7893 8.89563 0
    endloop
  endfacet
  facet normal 0 0 -1
    outer loop
      vertex 12.7893 11.1044 0
      vertex 37.2107 18.8956 0
      vertex 12.9057 10.7461 0
    endloop
  endfacet
  facet normal -0 0 -1
    outer loop
      vertex 37.3711 18.5547 0
      vertex 12.9057 10.7461 0
      vertex 37.2107 18.8956 0
    endloop
  endfacet
  facet normal 0 0 -1
    outer loop
      vertex 12.9057 10.7461 0
      vertex 37.3711 18.5547 0
      vertex 12.9763 10.376 0
    endloop
  endfacet
  facet normal -0 0 -1
    outer loop
      vertex 37.5729 18.2366 0
      vertex 12.9763 10.376 0
      vertex 37.3711 18.5547 0
    endloop
  endfacet
  facet normal 0 0 -1
    outer loop
      vertex 12.9763 10.376 0
      vertex 37.5729 18.2366 0
      vertex 13 10 0
    endloop
  endfacet
  facet normal -0 0 -1
    outer loop
      vertex 38.3925 17.467 0
      vertex 12.9057 9.25393 0
      vertex 38.0877 17.6885 0
    endloop
  endfacet
  facet normal -0 0 -1
    outer loop
      vertex 37.8131 17.9464 0
      vertex 13 10 0
      vertex 37.5729 18.2366 0
    endloop
  endfacet
  facet normal 0 -0 -1
    outer loop
      vertex 13 10 0
      vertex 37.8131 17.9464 0
      vertex 12.9763 9.624 0
    endloop
  endfacet
  facet normal -0 0 -1
    outer loop
      vertex 38.0877 17.6885 0
      vertex 12.9763 9.624 0
      vertex 37.8131 17.9464 0
    endloop
  endfacet
  facet normal 0 -0 -1
    outer loop
      vertex 12.9763 9.624 0
      vertex 38.0877 17.6885 0
      vertex 12.9057 9.25393 0
    endloop
  endfacet
  facet normal 0 0 -1
    outer loop
      vertex 50 0 0
      vertex 12.4271 8.23664 0
      vertex 12.6289 8.55474 0
    endloop
  endfacet
  facet normal 0 0 -1
    outer loop
      vertex 50 0 0
      vertex 12.1869 7.94636 0
      vertex 12.4271 8.23664 0
    endloop
  endfacet
  facet normal 0 0 -1
    outer loop
      vertex 50 0 0
      vertex 11.9123 7.68846 0
      vertex 12.1869 7.94636 0
    endloop
  endfacet
  facet normal 0 0 -1
    outer loop
      vertex 50 0 0
      vertex 11.6075 7.46702 0
      vertex 11.9123 7.68846 0
    endloop
  endfacet
  facet normal 0 0 -1
    outer loop
      vertex 50 0 0
      vertex 11.2773 7.28552 0
      vertex 11.6075 7.46702 0
    endloop
  endfacet
  facet normal 0 0 -1
    outer loop
      vertex 0 0 0
      vertex 11.2773 7.28552 0
      vertex 50 0 0
    endloop
  endfacet
  facet normal 0 0 -1
    outer loop
      vertex 11.2773 7.28552 0
      vertex 0 0 0
      vertex 10.9271 7.14683 0
    endloop
  endfacet
  facet normal 0 0 -1
    outer loop
      vertex 10.9271 7.14683 0
      vertex 0 0 0
      vertex 10.5621 7.05314 0
    endloop
  endfacet
  facet normal 0 0 -1
    outer loop
      vertex 10.5621 7.05314 0
      vertex 0 0 0
      vertex 10.1884 7.00592 0
    endloop
  endfacet
  facet normal -0 0 -1
    outer loop
      vertex 10.1884 7.00592 0
      vertex 0 0 0
      vertex 9.81163 7.00592 0
    endloop
  endfacet
  facet normal -0 0 -1
    outer loop
      vertex 7.02366 9.624 0
      vertex 0 0 0
      vertex 7 10 0
    endloop
  endfacet
  facet normal -0 0 -1
    outer loop
      vertex 7.09425 9.25393 0
      vertex 0 0 0
      vertex 7.02366 9.624 0
    endloop
  endfacet
  facet normal -0 0 -1
    outer loop
      vertex 7.21067 8.89563 0
      vertex 0 0 0
      vertex 7.09425 9.25393 0
    endloop
  endfacet
  facet normal -0 0 -1
    outer loop
      vertex 7.37108 8.55474 0
      vertex 0 0 0
      vertex 7.21067 8.89563 0
    endloop
  endfacet
  facet normal -0 0 -1
    outer loop
      vertex 7.57295 8.23664 0
      vertex 0 0 0
      vertex 7.37108 8.55474 0
    endloop
  endfacet
  facet normal -0 0 -1
    outer loop
      vertex 7.81309 7.94636 0
      vertex 0 0 0
      vertex 7.57295 8.23664 0
    endloop
  endfacet
  facet normal -0 0 -1
    outer loop
      vertex 8.08773 7.68846 0
      vertex 0 0 0
      vertex 7.81309 7.94636 0
    endloop
  endfacet
  facet normal -0 0 -1
    outer loop
      vertex 8.39252 7.46702 0
      vertex 0 0 0
      vertex 8.08773 7.68846 0
    endloop
  endfacet
  facet normal -0 0 -1
    outer loop
      vertex 8.72266 7.28552 0
      vertex 0 0 0
      vertex 8.39252 7.46702 0
    endloop
  endfacet
  facet normal -0 0 -1
    outer loop
      vertex 9.07295 7.14683 0
      vertex 0 0 0
      vertex 8.72266 7.28552 0
    endloop
  endfacet
  facet normal -0 0 -1
    outer loop
      vertex 9.43786 7.05314 0
      vertex 0 0 0
      vertex 9.07295 7.14683 0
    endloop
  endfacet
  facet normal -0 0 -1
    outer loop
      vertex 9.81163 7.00592 0
      vertex 0 0 0
      vertex 9.43786 7.05314 0
    endloop
  endfacet
  facet normal 0 0 -1
    outer loop
      vertex 42.9763 20.376 0
      vertex 50 30 0
      vertex 43 20 0
    endloop
  endfacet
  facet normal 0 0 -1
    outer loop
      vertex 42.9058 20.7461 0
      vertex 50 30 0
      vertex 42.9763 20.376 0
    endloop
  endfacet
  facet normal 0 0 -1
    outer loop
      vertex 42.7893 21.1044 0
      vertex 50 30 0
      vertex 42.9058 20.7461 0
    endloop
  endfacet
  facet normal 0 0 -1
    outer loop
      vertex 42.6289 21.4453 0
      vertex 50 30 0
      vertex 42.7893 21.1044 0
    endloop
  endfacet
  facet normal 0 0 -1
    outer loop
      vertex 42.4271 21.7634 0
      vertex 50 30 0
      vertex 42.6289 21.4453 0
    endloop
  endfacet
  facet normal 0 0 -1
    outer loop
      vertex 42.1869 22.0536 0
      vertex 50 30 0
      vertex 42.4271 21.7634 0
    endloop
  endfacet
  facet normal 0 0 -1
    outer loop
      vertex 41.9123 22.3115 0
      vertex 50 30 0
      vertex 42.1869 22.0536 0
    endloop
  endfacet
  facet normal 0 0 -1
    outer loop
      vertex 41.6075 22.533 0
      vertex 50 30 0
      vertex 41.9123 22.3115 0
    endloop
  endfacet
  facet normal 0 0 -1
    outer loop
      vertex 41.2773 22.7145 0
      vertex 50 30 0
      vertex 41.6075 22.533 0
    endloop
  endfacet
  facet normal 0 0 -1
    outer loop
      vertex 40.9271 22.8532 0
      vertex 50 30 0
      vertex 41.2773 22.7145 0
    endloop
  endfacet
  facet normal 0 0 -1
    outer loop
      vertex 40.5621 22.9469 0
      vertex 50 30 0
      vertex 40.9271 22.8532 0
    endloop
  endfacet
  facet normal 0 0 -1
    outer loop
      vertex 40.1884 22.9941 0
      vertex 50 30 0
      vertex 40.5621 22.9469 0
    endloop
  endfacet
  facet normal 0 0 -1
    outer loop
      vertex 39.8116 22.9941 0
      vertex 50 30 0
      vertex 40.1884 22.9941 0
    endloop
  endfacet
  facet normal 0 0 -1
    outer loop
      vertex 39.4379 22.9469 0
      vertex 50 30 0
      vertex 39.8116 22.9941 0
    endloop
  endfacet
  facet normal 0 0 -1
    outer loop
      vertex 39.0729 22.8532 0
      vertex 50 30 0
      vertex 39.4379 22.9469 0
    endloop
  endfacet
  facet normal 0 0 -1
    outer loop
      vertex 38.7227 22.7145 0
      vertex 50 30 0
      vertex 39.0729 22.8532 0
    endloop
  endfacet
  facet normal 0 0 -1
    outer loop
      vertex 0 30 0
      vertex 38.7227 22.7145 0
      vertex 38.3925 22.533 0
    endloop
  endfacet
  facet normal -0 0 -1
    outer loop
      vertex 37.2107 18.8956 0
      vertex 12.7893 11.1044 0
      vertex 37.0942 19.2539 0
    endloop
  endfacet
  facet normal 0 0 -1
    outer loop
      vertex 12.6289 11.4453 0
      vertex 37.0942 19.2539 0
      vertex 12.7893 11.1044 0
    endloop
  endfacet
  facet normal -0 0 -1
    outer loop
      vertex 37.0942 19.2539 0
      vertex 12.6289 11.4453 0
      vertex 37.0237 19.624 0
    endloop
  endfacet
  facet normal 0 0 -1
    outer loop
      vertex 12.4271 11.7634 0
      vertex 37.0237 19.624 0
      vertex 12.6289 11.4453 0
    endloop
  endfacet
  facet normal -0 0 -1
    outer loop
      vertex 37.0237 19.624 0
      vertex 12.4271 11.7634 0
      vertex 37 20 0
    endloop
  endfacet
  facet normal 0 0 -1
    outer loop
      vertex 12.1869 12.0536 0
      vertex 37 20 0
      vertex 12.4271 11.7634 0
    endloop
  endfacet
  facet normal -0 0 -1
    outer loop
      vertex 37 20 0
      vertex 12.1869 12.0536 0
      vertex 37.0237 20.376 0
    endloop
  endfacet
  facet normal 0 0 -1
    outer loop
      vertex 11.9123 12.3115 0
      vertex 37.0237 20.376 0
      vertex 12.1869 12.0536 0
    endloop
  endfacet
  facet normal -0 0 -1
    outer loop
      vertex 37.0237 20.376 0
      vertex 11.9123 12.3115 0
      vertex 37.0942 20.7461 0
    endloop
  endfacet
  facet normal 0 0 -1
    outer loop
      vertex 11.6075 12.533 0
      vertex 37.0942 20.7461 0
      vertex 11.9123 12.3115 0
    endloop
  endfacet
  facet normal -0 0 -1
    outer loop
      vertex 37.0942 20.7461 0
      vertex 11.6075 12.533 0
      vertex 37.2107 21.1044 0
    endloop
  endfacet
  facet normal 0 0 -1
    outer loop
      vertex 11.2773 12.7145 0
      vertex 37.2107 21.1044 0
      vertex 11.6075 12.533 0
    endloop
  endfacet
  facet normal -0 0 -1
    outer loop
      vertex 37.2107 21.1044 0
      vertex 11.2773 12.7145 0
      vertex 37.3711 21.4453 0
    endloop
  endfacet
  facet normal 0 0 -1
    outer loop
      vertex 0 30 0
      vertex 37.3711 21.4453 0
      vertex 11.2773 12.7145 0
    endloop
  endfacet
  facet normal 0 0 -1
    outer loop
      vertex 37.3711 21.4453 0
      vertex 0 30 0
      vertex 37.5729 21.7634 0
    endloop
  endfacet
  facet normal 0 0 -1
    outer loop
      vertex 37.5729 21.7634 0
      vertex 0 30 0
      vertex 37.8131 22.0536 0
    endloop
  endfacet
  facet normal 0 0 -1
    outer loop
      vertex 37.8131 22.0536 0
      vertex 0 30 0
      vertex 38.0877 22.3115 0
    endloop
  endfacet
  facet normal 0 0 -1
    outer loop
      vertex 38.0877 22.3115 0
      vertex 0 30 0
      vertex 38.3925 22.533 0
    endloop
  endfacet
  facet normal 0 0 -1
    outer loop
      vertex 0 30 0
      vertex 11.2773 12.7145 0
      vertex 10.9271 12.8532 0
    endloop
  endfacet
  facet normal 0 0 -1
    outer loop
      vertex 0 30 0
      vertex 10.9271 12.8532 0
      vertex 10.5621 12.9469 0
    endloop
  endfacet
  facet normal 0 0 -1
    outer loop
      vertex 0 30 0
      vertex 10.5621 12.9469 0
      vertex 10.1884 12.9941 0
    endloop
  endfacet
  facet normal 0 0 -1
    outer loop
      vertex 0 30 0
      vertex 10.1884 12.9941 0
      vertex 9.81163 12.9941 0
    endloop
  endfacet
  facet normal 0 0 -1
    outer loop
      vertex 0 30 0
      vertex 9.81163 12.9941 0
      vertex 9.43786 12.9469 0
    endloop
  endfacet
  facet normal 0 0 -1
    outer loop
      vertex 0 30 0
      vertex 9.43786 12.9469 0
      vertex 9.07295 12.8532 0
    endloop
  endfacet
  facet normal 0 0 -1
    outer loop
      vertex 0 30 0
      vertex 9.07295 12.8532 0
      vertex 8.72266 12.7145 0
    endloop
  endfacet
  facet normal 0 0 -1
    outer loop
      vertex 0 0 0
      vertex 7.02366 10.376 0
      vertex 7 10 0
    endloop
  endfacet
  facet normal 0 0 -1
    outer loop
      vertex 0 0 0
      vertex 7.09425 10.7461 0
      vertex 7.02366 10.376 0
    endloop
  endfacet
  facet normal 0 0 -1
    outer loop
      vertex 0 30 0
      vertex 7.09425 10.7461 0
      vertex 0 0 0
    endloop
  endfacet
  facet normal 0 0 -1
    outer loop
      vertex 7.09425 10.7461 0
      vertex 0 30 0
      vertex 7.21067 11.1044 0
    endloop
  endfacet
  facet normal 0 0 -1
    outer loop
      vertex 7.21067 11.1044 0
      vertex 0 30 0
      vertex 7.37108 11.4453 0
    endloop
  endfacet
  facet normal 0 0 -1
    outer loop
      vertex 38.7227 22.7145 0
      vertex 0 30 0
      vertex 50 30 0
    endloop
  endfacet
  facet normal 0 0 -1
    outer loop
      vertex 8.39252 12.533 0
      vertex 0 30 0
      vertex 8.72266 12.7145 0
    endloop
  endfacet
  facet normal 0 0 -1
    outer loop
      vertex 8.08773 12.3115 0
      vertex 0 30 0
      vertex 8.39252 12.533 0
    endloop
  endfacet
  facet normal 0 0 -1
    outer loop
      vertex 7.81309 12.0536 0
      vertex 0 30 0
      vertex 8.08773 12.3115 0
    endloop
  endfacet
  facet normal 0 0 -1
    outer loop
      vertex 7.57295 11.7634 0
      vertex 0 30 0
      vertex 7.81309 12.0536 0
    endloop
  endfacet
  facet normal 0 0 -1
    outer loop
      vertex 7.37108 11.4453 0
      vertex 0 30 0
      vertex 7.57295 11.7634 0
    endloop
  endfacet
  facet normal -1 0 0
    outer loop
      vertex 0 0 0
      vertex 0 30 5
      vertex 0 30 0
    endloop
  endfacet
  facet normal -1 -0 0
    outer loop
      vertex 0 30 5
      vertex 0 0 0
      vertex 0 0 5
    endloop
  endfacet
  facet normal 0 1 -0
    outer loop
      vertex 50 30 0
      vertex 0 30 5
      vertex 50 30 5
    endloop
  endfacet
  facet normal 0 1 0
    outer loop
      vertex 0 30 5
      vertex 50 30 0
      vertex 0 30 0
    endloop
  endfacet
  facet normal 0 -1 0
    outer loop
      vertex 0 0 0
      vertex 50 0 5
      vertex 0 0 5
    endloop
  endfacet
  facet normal 0 -1 -0
    outer loop
      vertex 50 0 5
      vertex 0 0 0
      vertex 50 0 0
    endloop
  endfacet
  facet normal -0.982287 -0.18738 0
    outer loop
      vertex 12.9763 10.376 0
      vertex 12.9057 10.7461 5
      vertex 12.9057 10.7461 0
    endloop
  endfacet
  facet normal -0.982287 -0.18738 0
    outer loop
      vertex 12.9057 10.7461 5
      vertex 12.9763 10.376 0
      vertex 12.9763 10.376 5
    endloop
  endfacet
  facet normal -0.998019 -0.0629071 0
    outer loop
      vertex 13 10 0
      vertex 12.9763 10.376 5
      vertex 12.9763 10.376 0
    endloop
  endfacet
  facet normal -0.998019 -0.0629071 0
    outer loop
      vertex 12.9763 10.376 5
      vertex 13 10 0
      vertex 13 10 5
    endloop
  endfacet
  facet normal -0.36823 -0.929735 0
    outer loop
      vertex 10.9271 12.8532 0
      vertex 11.2773 12.7145 5
      vertex 10.9271 12.8532 5
    endloop
  endfacet
  facet normal -0.36823 -0.929735 -0
    outer loop
      vertex 11.2773 12.7145 5
      vertex 10.9271 12.8532 0
      vertex 11.2773 12.7145 0
    endloop
  endfacet
  facet normal 0.368148 -0.929767 0
    outer loop
      vertex 8.72266 12.7145 0
      vertex 9.07295 12.8532 5
      vertex 8.72266 12.7145 5
    endloop
  endfacet
  facet normal 0.368148 -0.929767 0
    outer loop
      vertex 9.07295 12.8532 5
      vertex 8.72266 12.7145 0
      vertex 9.07295 12.8532 0
    endloop
  endfacet
  facet normal 0.58778 0.809021 -0
    outer loop
      vertex 8.39252 7.46702 0
      vertex 8.08773 7.68846 5
      vertex 8.39252 7.46702 5
    endloop
  endfacet
  facet normal 0.58778 0.809021 0
    outer loop
      vertex 8.08773 7.68846 5
      vertex 8.39252 7.46702 0
      vertex 8.08773 7.68846 0
    endloop
  endfacet
  facet normal -0.684594 -0.728924 0
    outer loop
      vertex 11.9123 12.3115 0
      vertex 12.1869 12.0536 5
      vertex 11.9123 12.3115 5
    endloop
  endfacet
  facet normal -0.684594 -0.728924 -0
    outer loop
      vertex 12.1869 12.0536 5
      vertex 11.9123 12.3115 0
      vertex 12.1869 12.0536 0
    endloop
  endfacet
  facet normal -0.587872 -0.808954 0
    outer loop
      vertex 11.6075 12.533 0
      vertex 11.9123 12.3115 5
      vertex 11.6075 12.533 5
    endloop
  endfacet
  facet normal -0.587872 -0.808954 -0
    outer loop
      vertex 11.9123 12.3115 5
      vertex 11.6075 12.533 0
      vertex 11.9123 12.3115 0
    endloop
  endfacet
  facet normal -0.998019 0.0629071 0
    outer loop
      vertex 12.9763 9.624 0
      vertex 13 10 5
      vertex 13 10 0
    endloop
  endfacet
  facet normal -0.998019 0.0629071 0
    outer loop
      vertex 13 10 5
      vertex 12.9763 9.624 0
      vertex 12.9763 9.624 5
    endloop
  endfacet
  facet normal -0.904838 0.425756 0
    outer loop
      vertex 12.6289 8.55474 0
      vertex 12.7893 8.89563 5
      vertex 12.7893 8.89563 0
    endloop
  endfacet
  facet normal -0.904838 0.425756 0
    outer loop
      vertex 12.7893 8.89563 5
      vertex 12.6289 8.55474 0
      vertex 12.6289 8.55474 5
    endloop
  endfacet
  facet normal 0.481762 0.876302 -0
    outer loop
      vertex 8.72266 7.28552 0
      vertex 8.39252 7.46702 5
      vertex 8.72266 7.28552 5
    endloop
  endfacet
  facet normal 0.481762 0.876302 0
    outer loop
      vertex 8.39252 7.46702 5
      vertex 8.72266 7.28552 0
      vertex 8.39252 7.46702 0
    endloop
  endfacet
  facet normal -0.587768 0.80903 0
    outer loop
      vertex 11.9123 7.68846 0
      vertex 11.6075 7.46702 5
      vertex 11.9123 7.68846 5
    endloop
  endfacet
  facet normal -0.587768 0.80903 0
    outer loop
      vertex 11.6075 7.46702 5
      vertex 11.9123 7.68846 0
      vertex 11.6075 7.46702 0
    endloop
  endfacet
  facet normal -0.481695 -0.876339 0
    outer loop
      vertex 11.2773 12.7145 0
      vertex 11.6075 12.533 5
      vertex 11.2773 12.7145 5
    endloop
  endfacet
  facet normal -0.481695 -0.876339 -0
    outer loop
      vertex 11.6075 12.533 5
      vertex 11.2773 12.7145 0
      vertex 11.6075 12.533 0
    endloop
  endfacet
  facet normal 0.587884 -0.808945 0
    outer loop
      vertex 8.08773 12.3115 0
      vertex 8.39252 12.533 5
      vertex 8.08773 12.3115 5
    endloop
  endfacet
  facet normal 0.587884 -0.808945 0
    outer loop
      vertex 8.39252 12.533 5
      vertex 8.08773 12.3115 0
      vertex 8.39252 12.533 0
    endloop
  endfacet
  facet normal -0.844415 0.53569 0
    outer loop
      vertex 12.4271 8.23664 0
      vertex 12.6289 8.55474 5
      vertex 12.6289 8.55474 0
    endloop
  endfacet
  facet normal -0.844415 0.53569 0
    outer loop
      vertex 12.6289 8.55474 5
      vertex 12.4271 8.23664 0
      vertex 12.4271 8.23664 5
    endloop
  endfacet
  facet normal 0.125286 -0.992121 0
    outer loop
      vertex 9.43786 12.9469 0
      vertex 9.81163 12.9941 5
      vertex 9.43786 12.9469 5
    endloop
  endfacet
  facet normal 0.125286 -0.992121 0
    outer loop
      vertex 9.81163 12.9941 5
      vertex 9.43786 12.9469 0
      vertex 9.81163 12.9941 0
    endloop
  endfacet
  facet normal 0.684541 0.728974 -0
    outer loop
      vertex 8.08773 7.68846 0
      vertex 7.81309 7.94636 5
      vertex 8.08773 7.68846 5
    endloop
  endfacet
  facet normal 0.684541 0.728974 0
    outer loop
      vertex 7.81309 7.94636 5
      vertex 8.08773 7.68846 0
      vertex 7.81309 7.94636 0
    endloop
  endfacet
  facet normal -0.770436 0.637518 0
    outer loop
      vertex 12.1869 7.94636 0
      vertex 12.4271 8.23664 5
      vertex 12.4271 8.23664 0
    endloop
  endfacet
  facet normal -0.770436 0.637518 0
    outer loop
      vertex 12.4271 8.23664 5
      vertex 12.1869 7.94636 0
      vertex 12.1869 7.94636 5
    endloop
  endfacet
  facet normal -0.951071 -0.308972 0
    outer loop
      vertex 12.9057 10.7461 0
      vertex 12.7893 11.1044 5
      vertex 12.7893 11.1044 0
    endloop
  endfacet
  facet normal -0.951071 -0.308972 0
    outer loop
      vertex 12.7893 11.1044 5
      vertex 12.9057 10.7461 0
      vertex 12.9057 10.7461 5
    endloop
  endfacet
  facet normal -0.248625 0.9686 0
    outer loop
      vertex 10.9271 7.14683 0
      vertex 10.5621 7.05314 5
      vertex 10.9271 7.14683 5
    endloop
  endfacet
  facet normal -0.248625 0.9686 0
    outer loop
      vertex 10.5621 7.05314 5
      vertex 10.9271 7.14683 0
      vertex 10.5621 7.05314 0
    endloop
  endfacet
  facet normal 0.481762 -0.876302 0
    outer loop
      vertex 8.39252 12.533 0
      vertex 8.72266 12.7145 5
      vertex 8.39252 12.533 5
    endloop
  endfacet
  facet normal 0.481762 -0.876302 0
    outer loop
      vertex 8.72266 12.7145 5
      vertex 8.39252 12.533 0
      vertex 8.72266 12.7145 0
    endloop
  endfacet
  facet normal -0.368207 0.929744 0
    outer loop
      vertex 11.2773 7.28552 0
      vertex 10.9271 7.14683 5
      vertex 11.2773 7.28552 5
    endloop
  endfacet
  facet normal -0.368207 0.929744 0
    outer loop
      vertex 10.9271 7.14683 5
      vertex 11.2773 7.28552 0
      vertex 10.9271 7.14683 0
    endloop
  endfacet
  facet normal 0.844331 -0.535822 0
    outer loop
      vertex 7.37108 11.4453 5
      vertex 7.57295 11.7634 0
      vertex 7.57295 11.7634 5
    endloop
  endfacet
  facet normal 0.844331 -0.535822 0
    outer loop
      vertex 7.57295 11.7634 0
      vertex 7.37108 11.4453 5
      vertex 7.37108 11.4453 0
    endloop
  endfacet
  facet normal 0.368125 0.929776 -0
    outer loop
      vertex 9.07295 7.14683 0
      vertex 8.72266 7.28552 5
      vertex 9.07295 7.14683 5
    endloop
  endfacet
  facet normal 0.368125 0.929776 0
    outer loop
      vertex 8.72266 7.28552 5
      vertex 9.07295 7.14683 0
      vertex 8.72266 7.28552 0
    endloop
  endfacet
  facet normal -0.844415 -0.53569 0
    outer loop
      vertex 12.6289 11.4453 0
      vertex 12.4271 11.7634 5
      vertex 12.4271 11.7634 0
    endloop
  endfacet
  facet normal -0.844415 -0.53569 0
    outer loop
      vertex 12.4271 11.7634 5
      vertex 12.6289 11.4453 0
      vertex 12.6289 11.4453 5
    endloop
  endfacet
  facet normal 0 1 -0
    outer loop
      vertex 10.1884 7.00592 0
      vertex 9.81163 7.00592 5
      vertex 10.1884 7.00592 5
    endloop
  endfacet
  facet normal 0 1 0
    outer loop
      vertex 9.81163 7.00592 5
      vertex 10.1884 7.00592 0
      vertex 9.81163 7.00592 0
    endloop
  endfacet
  facet normal 0 -1 0
    outer loop
      vertex 9.81163 12.9941 0
      vertex 10.1884 12.9941 5
      vertex 9.81163 12.9941 5
    endloop
  endfacet
  facet normal 0 -1 -0
    outer loop
      vertex 10.1884 12.9941 5
      vertex 9.81163 12.9941 0
      vertex 10.1884 12.9941 0
    endloop
  endfacet
  facet normal -0.951071 0.308972 0
    outer loop
      vertex 12.7893 8.89563 0
      vertex 12.9057 9.25393 5
      vertex 12.9057 9.25393 0
    endloop
  endfacet
  facet normal -0.951071 0.308972 0
    outer loop
      vertex 12.9057 9.25393 5
      vertex 12.7893 8.89563 0
      vertex 12.7893 8.89563 5
    endloop
  endfacet
  facet normal 0.248683 0.968585 -0
    outer loop
      vertex 9.43786 7.05314 0
      vertex 9.07295 7.14683 5
      vertex 9.43786 7.05314 5
    endloop
  endfacet
  facet normal 0.248683 0.968585 0
    outer loop
      vertex 9.07295 7.14683 5
      vertex 9.43786 7.05314 0
      vertex 9.07295 7.14683 0
    endloop
  endfacet
  facet normal 0.904828 0.425778 0
    outer loop
      vertex 7.37108 8.55474 5
      vertex 7.21067 8.89563 0
      vertex 7.21067 8.89563 5
    endloop
  endfacet
  facet normal 0.904828 0.425778 0
    outer loop
      vertex 7.21067 8.89563 0
      vertex 7.37108 8.55474 5
      vertex 7.37108 8.55474 0
    endloop
  endfacet
  facet normal -0.982285 0.187395 0
    outer loop
      vertex 12.9057 9.25393 0
      vertex 12.9763 9.624 5
      vertex 12.9763 9.624 0
    endloop
  endfacet
  facet normal -0.982285 0.187395 0
    outer loop
      vertex 12.9763 9.624 5
      vertex 12.9057 9.25393 0
      vertex 12.9057 9.25393 5
    endloop
  endfacet
  facet normal 0.248707 -0.968579 0
    outer loop
      vertex 9.07295 12.8532 0
      vertex 9.43786 12.9469 5
      vertex 9.07295 12.8532 5
    endloop
  endfacet
  facet normal 0.248707 -0.968579 0
    outer loop
      vertex 9.43786 12.9469 5
      vertex 9.07295 12.8532 0
      vertex 9.43786 12.9469 0
    endloop
  endfacet
  facet normal -0.125309 -0.992118 0
    outer loop
      vertex 10.1884 12.9941 0
      vertex 10.5621 12.9469 5
      vertex 10.1884 12.9941 5
    endloop
  endfacet
  facet normal -0.125309 -0.992118 -0
    outer loop
      vertex 10.5621 12.9469 5
      vertex 10.1884 12.9941 0
      vertex 10.5621 12.9469 0
    endloop
  endfacet
  facet normal -0.481695 0.876339 0
    outer loop
      vertex 11.6075 7.46702 0
      vertex 11.2773 7.28552 5
      vertex 11.6075 7.46702 5
    endloop
  endfacet
  facet normal -0.481695 0.876339 0
    outer loop
      vertex 11.2773 7.28552 5
      vertex 11.6075 7.46702 0
      vertex 11.2773 7.28552 0
    endloop
  endfacet
  facet normal -0.904843 -0.425746 0
    outer loop
      vertex 12.7893 11.1044 0
      vertex 12.6289 11.4453 5
      vertex 12.6289 11.4453 0
    endloop
  endfacet
  facet normal -0.904843 -0.425746 0
    outer loop
      vertex 12.6289 11.4453 5
      vertex 12.7893 11.1044 0
      vertex 12.7893 11.1044 5
    endloop
  endfacet
  facet normal 0.998026 -0.0628013 0
    outer loop
      vertex 7 10 5
      vertex 7.02366 10.376 0
      vertex 7.02366 10.376 5
    endloop
  endfacet
  facet normal 0.998026 -0.0628013 0
    outer loop
      vertex 7.02366 10.376 0
      vertex 7 10 5
      vertex 7 10 0
    endloop
  endfacet
  facet normal -0.684594 0.728924 0
    outer loop
      vertex 12.1869 7.94636 0
      vertex 11.9123 7.68846 5
      vertex 12.1869 7.94636 5
    endloop
  endfacet
  facet normal -0.684594 0.728924 0
    outer loop
      vertex 11.9123 7.68846 5
      vertex 12.1869 7.94636 0
      vertex 11.9123 7.68846 0
    endloop
  endfacet
  facet normal 0.98229 0.187369 0
    outer loop
      vertex 7.09425 9.25393 5
      vertex 7.02366 9.624 0
      vertex 7.02366 9.624 5
    endloop
  endfacet
  facet normal 0.98229 0.187369 0
    outer loop
      vertex 7.02366 9.624 0
      vertex 7.09425 9.25393 5
      vertex 7.09425 9.25393 0
    endloop
  endfacet
  facet normal 0.770428 -0.637528 0
    outer loop
      vertex 7.57295 11.7634 5
      vertex 7.81309 12.0536 0
      vertex 7.81309 12.0536 5
    endloop
  endfacet
  facet normal 0.770428 -0.637528 0
    outer loop
      vertex 7.81309 12.0536 0
      vertex 7.57295 11.7634 5
      vertex 7.57295 11.7634 0
    endloop
  endfacet
  facet normal -0.770349 -0.637622 0
    outer loop
      vertex 12.4271 11.7634 0
      vertex 12.1869 12.0536 5
      vertex 12.1869 12.0536 0
    endloop
  endfacet
  facet normal -0.770349 -0.637622 0
    outer loop
      vertex 12.1869 12.0536 5
      vertex 12.4271 11.7634 0
      vertex 12.4271 11.7634 5
    endloop
  endfacet
  facet normal 0.684541 -0.728974 0
    outer loop
      vertex 7.81309 12.0536 0
      vertex 8.08773 12.3115 5
      vertex 7.81309 12.0536 5
    endloop
  endfacet
  facet normal 0.684541 -0.728974 0
    outer loop
      vertex 8.08773 12.3115 5
      vertex 7.81309 12.0536 0
      vertex 8.08773 12.3115 0
    endloop
  endfacet
  facet normal 0.125338 0.992114 -0
    outer loop
      vertex 9.81163 7.00592 0
      vertex 9.43786 7.05314 5
      vertex 9.81163 7.00592 5
    endloop
  endfacet
  facet normal 0.125338 0.992114 0
    outer loop
      vertex 9.43786 7.05314 5
      vertex 9.81163 7.00592 0
      vertex 9.43786 7.05314 0
    endloop
  endfacet
  facet normal 0.951056 0.30902 0
    outer loop
      vertex 7.21067 8.89563 5
      vertex 7.09425 9.25393 0
      vertex 7.09425 9.25393 5
    endloop
  endfacet
  facet normal 0.951056 0.30902 0
    outer loop
      vertex 7.09425 9.25393 0
      vertex 7.21067 8.89563 5
      vertex 7.21067 8.89563 0
    endloop
  endfacet
  facet normal 0.998026 0.0628013 0
    outer loop
      vertex 7.02366 9.624 5
      vertex 7 10 0
      vertex 7 10 5
    endloop
  endfacet
  facet normal 0.998026 0.0628013 0
    outer loop
      vertex 7 10 0
      vertex 7.02366 9.624 5
      vertex 7.02366 9.624 0
    endloop
  endfacet
  facet normal -0.125361 0.992111 0
    outer loop
      vertex 10.5621 7.05314 0
      vertex 10.1884 7.00592 5
      vertex 10.5621 7.05314 5
    endloop
  endfacet
  facet normal -0.125361 0.992111 0
    outer loop
      vertex 10.1884 7.00592 5
      vertex 10.5621 7.05314 0
      vertex 10.1884 7.00592 0
    endloop
  endfacet
  facet normal 0.904833 -0.425768 0
    outer loop
      vertex 7.21067 11.1044 5
      vertex 7.37108 11.4453 0
      vertex 7.37108 11.4453 5
    endloop
  endfacet
  facet normal 0.904833 -0.425768 0
    outer loop
      vertex 7.37108 11.4453 0
      vertex 7.21067 11.1044 5
      vertex 7.21067 11.1044 0
    endloop
  endfacet
  facet normal -0.24865 -0.968593 0
    outer loop
      vertex 10.5621 12.9469 0
      vertex 10.9271 12.8532 5
      vertex 10.5621 12.9469 5
    endloop
  endfacet
  facet normal -0.24865 -0.968593 -0
    outer loop
      vertex 10.9271 12.8532 5
      vertex 10.5621 12.9469 0
      vertex 10.9271 12.8532 0
    endloop
  endfacet
  facet normal 0.982292 -0.187355 0
    outer loop
      vertex 7.02366 10.376 5
      vertex 7.09425 10.7461 0
      vertex 7.09425 10.7461 5
    endloop
  endfacet
  facet normal 0.982292 -0.187355 0
    outer loop
      vertex 7.09425 10.7461 0
      vertex 7.02366 10.376 5
      vertex 7.02366 10.376 0
    endloop
  endfacet
  facet normal 0.844331 0.535822 0
    outer loop
      vertex 7.57295 8.23664 5
      vertex 7.37108 8.55474 0
      vertex 7.37108 8.55474 5
    endloop
  endfacet
  facet normal 0.844331 0.535822 0
    outer loop
      vertex 7.37108 8.55474 0
      vertex 7.57295 8.23664 5
      vertex 7.57295 8.23664 0
    endloop
  endfacet
  facet normal 0.770514 0.637423 0
    outer loop
      vertex 7.81309 7.94636 5
      vertex 7.57295 8.23664 0
      vertex 7.57295 8.23664 5
    endloop
  endfacet
  facet normal 0.770514 0.637423 0
    outer loop
      vertex 7.57295 8.23664 0
      vertex 7.81309 7.94636 5
      vertex 7.81309 7.94636 0
    endloop
  endfacet
  facet normal 0.951056 -0.30902 0
    outer loop
      vertex 7.09425 10.7461 5
      vertex 7.21067 11.1044 0
      vertex 7.21067 11.1044 5
    endloop
  endfacet
  facet normal 0.951056 -0.30902 0
    outer loop
      vertex 7.21067 11.1044 0
      vertex 7.09425 10.7461 5
      vertex 7.09425 10.7461 0
    endloop
  endfacet
  facet normal -0.982336 -0.187124 0
    outer loop
      vertex 42.9763 20.376 0
      vertex 42.9058 20.7461 5
      vertex 42.9058 20.7461 0
    endloop
  endfacet
  facet normal -0.982336 -0.187124 0
    outer loop
      vertex 42.9058 20.7461 5
      vertex 42.9763 20.376 0
      vertex 42.9763 20.376 5
    endloop
  endfacet
  facet normal -0.998019 -0.0629071 0
    outer loop
      vertex 43 20 0
      vertex 42.9763 20.376 5
      vertex 42.9763 20.376 0
    endloop
  endfacet
  facet normal -0.998019 -0.0629071 0
    outer loop
      vertex 42.9763 20.376 5
      vertex 43 20 0
      vertex 43 20 5
    endloop
  endfacet
  facet normal -0.36823 -0.929735 0
    outer loop
      vertex 40.9271 22.8532 0
      vertex 41.2773 22.7145 5
      vertex 40.9271 22.8532 5
    endloop
  endfacet
  facet normal -0.36823 -0.929735 -0
    outer loop
      vertex 41.2773 22.7145 5
      vertex 40.9271 22.8532 0
      vertex 41.2773 22.7145 0
    endloop
  endfacet
  facet normal 0.36823 -0.929735 0
    outer loop
      vertex 38.7227 22.7145 0
      vertex 39.0729 22.8532 5
      vertex 38.7227 22.7145 5
    endloop
  endfacet
  facet normal 0.36823 -0.929735 0
    outer loop
      vertex 39.0729 22.8532 5
      vertex 38.7227 22.7145 0
      vertex 39.0729 22.8532 0
    endloop
  endfacet
  facet normal 0.587872 0.808954 -0
    outer loop
      vertex 38.3925 17.467 0
      vertex 38.0877 17.6885 5
      vertex 38.3925 17.467 5
    endloop
  endfacet
  facet normal 0.587872 0.808954 0
    outer loop
      vertex 38.0877 17.6885 5
      vertex 38.3925 17.467 0
      vertex 38.0877 17.6885 0
    endloop
  endfacet
  facet normal -0.684594 -0.728924 0
    outer loop
      vertex 41.9123 22.3115 0
      vertex 42.1869 22.0536 5
      vertex 41.9123 22.3115 5
    endloop
  endfacet
  facet normal -0.684594 -0.728924 -0
    outer loop
      vertex 42.1869 22.0536 5
      vertex 41.9123 22.3115 0
      vertex 42.1869 22.0536 0
    endloop
  endfacet
  facet normal -0.587872 -0.808954 0
    outer loop
      vertex 41.6075 22.533 0
      vertex 41.9123 22.3115 5
      vertex 41.6075 22.533 5
    endloop
  endfacet
  facet normal -0.587872 -0.808954 -0
    outer loop
      vertex 41.9123 22.3115 5
      vertex 41.6075 22.533 0
      vertex 41.9123 22.3115 0
    endloop
  endfacet
  facet normal -0.998019 0.0629071 0
    outer loop
      vertex 42.9763 19.624 0
      vertex 43 20 5
      vertex 43 20 0
    endloop
  endfacet
  facet normal -0.998019 0.0629071 0
    outer loop
      vertex 43 20 5
      vertex 42.9763 19.624 0
      vertex 42.9763 19.624 5
    endloop
  endfacet
  facet normal -0.904843 0.425746 0
    outer loop
      vertex 42.6289 18.5547 0
      vertex 42.7893 18.8956 5
      vertex 42.7893 18.8956 0
    endloop
  endfacet
  facet normal -0.904843 0.425746 0
    outer loop
      vertex 42.7893 18.8956 5
      vertex 42.6289 18.5547 0
      vertex 42.6289 18.5547 5
    endloop
  endfacet
  facet normal 0.481695 0.876339 -0
    outer loop
      vertex 38.7227 17.2855 0
      vertex 38.3925 17.467 5
      vertex 38.7227 17.2855 5
    endloop
  endfacet
  facet normal 0.481695 0.876339 0
    outer loop
      vertex 38.3925 17.467 5
      vertex 38.7227 17.2855 0
      vertex 38.3925 17.467 0
    endloop
  endfacet
  facet normal -0.587872 0.808954 0
    outer loop
      vertex 41.9123 17.6885 0
      vertex 41.6075 17.467 5
      vertex 41.9123 17.6885 5
    endloop
  endfacet
  facet normal -0.587872 0.808954 0
    outer loop
      vertex 41.6075 17.467 5
      vertex 41.9123 17.6885 0
      vertex 41.6075 17.467 0
    endloop
  endfacet
  facet normal -0.481695 -0.876339 0
    outer loop
      vertex 41.2773 22.7145 0
      vertex 41.6075 22.533 5
      vertex 41.2773 22.7145 5
    endloop
  endfacet
  facet normal -0.481695 -0.876339 -0
    outer loop
      vertex 41.6075 22.533 5
      vertex 41.2773 22.7145 0
      vertex 41.6075 22.533 0
    endloop
  endfacet
  facet normal 0.587872 -0.808954 0
    outer loop
      vertex 38.0877 22.3115 0
      vertex 38.3925 22.533 5
      vertex 38.0877 22.3115 5
    endloop
  endfacet
  facet normal 0.587872 -0.808954 0
    outer loop
      vertex 38.3925 22.533 5
      vertex 38.0877 22.3115 0
      vertex 38.3925 22.533 0
    endloop
  endfacet
  facet normal -0.844415 0.53569 0
    outer loop
      vertex 42.4271 18.2366 0
      vertex 42.6289 18.5547 5
      vertex 42.6289 18.5547 0
    endloop
  endfacet
  facet normal -0.844415 0.53569 0
    outer loop
      vertex 42.6289 18.5547 5
      vertex 42.4271 18.2366 0
      vertex 42.4271 18.2366 5
    endloop
  endfacet
  facet normal 0.125309 -0.992118 0
    outer loop
      vertex 39.4379 22.9469 0
      vertex 39.8116 22.9941 5
      vertex 39.4379 22.9469 5
    endloop
  endfacet
  facet normal 0.125309 -0.992118 0
    outer loop
      vertex 39.8116 22.9941 5
      vertex 39.4379 22.9469 0
      vertex 39.8116 22.9941 0
    endloop
  endfacet
  facet normal 0.684594 0.728924 -0
    outer loop
      vertex 38.0877 17.6885 0
      vertex 37.8131 17.9464 5
      vertex 38.0877 17.6885 5
    endloop
  endfacet
  facet normal 0.684594 0.728924 0
    outer loop
      vertex 37.8131 17.9464 5
      vertex 38.0877 17.6885 0
      vertex 37.8131 17.9464 0
    endloop
  endfacet
  facet normal -0.770349 0.637622 0
    outer loop
      vertex 42.1869 17.9464 0
      vertex 42.4271 18.2366 5
      vertex 42.4271 18.2366 0
    endloop
  endfacet
  facet normal -0.770349 0.637622 0
    outer loop
      vertex 42.4271 18.2366 5
      vertex 42.1869 17.9464 0
      vertex 42.1869 17.9464 5
    endloop
  endfacet
  facet normal -0.950993 -0.309212 0
    outer loop
      vertex 42.9058 20.7461 0
      vertex 42.7893 21.1044 5
      vertex 42.7893 21.1044 0
    endloop
  endfacet
  facet normal -0.950993 -0.309212 0
    outer loop
      vertex 42.7893 21.1044 5
      vertex 42.9058 20.7461 0
      vertex 42.9058 20.7461 5
    endloop
  endfacet
  facet normal -0.24865 0.968593 0
    outer loop
      vertex 40.9271 17.1468 0
      vertex 40.5621 17.0531 5
      vertex 40.9271 17.1468 5
    endloop
  endfacet
  facet normal -0.24865 0.968593 0
    outer loop
      vertex 40.5621 17.0531 5
      vertex 40.9271 17.1468 0
      vertex 40.5621 17.0531 0
    endloop
  endfacet
  facet normal 0.481695 -0.876339 0
    outer loop
      vertex 38.3925 22.533 0
      vertex 38.7227 22.7145 5
      vertex 38.3925 22.533 5
    endloop
  endfacet
  facet normal 0.481695 -0.876339 0
    outer loop
      vertex 38.7227 22.7145 5
      vertex 38.3925 22.533 0
      vertex 38.7227 22.7145 0
    endloop
  endfacet
  facet normal -0.36823 0.929735 0
    outer loop
      vertex 41.2773 17.2855 0
      vertex 40.9271 17.1468 5
      vertex 41.2773 17.2855 5
    endloop
  endfacet
  facet normal -0.36823 0.929735 0
    outer loop
      vertex 40.9271 17.1468 5
      vertex 41.2773 17.2855 0
      vertex 40.9271 17.1468 0
    endloop
  endfacet
  facet normal 0.844415 -0.53569 0
    outer loop
      vertex 37.3711 21.4453 5
      vertex 37.5729 21.7634 0
      vertex 37.5729 21.7634 5
    endloop
  endfacet
  facet normal 0.844415 -0.53569 0
    outer loop
      vertex 37.5729 21.7634 0
      vertex 37.3711 21.4453 5
      vertex 37.3711 21.4453 0
    endloop
  endfacet
  facet normal 0.36823 0.929735 -0
    outer loop
      vertex 39.0729 17.1468 0
      vertex 38.7227 17.2855 5
      vertex 39.0729 17.1468 5
    endloop
  endfacet
  facet normal 0.36823 0.929735 0
    outer loop
      vertex 38.7227 17.2855 5
      vertex 39.0729 17.1468 0
      vertex 38.7227 17.2855 0
    endloop
  endfacet
  facet normal -0.844415 -0.53569 0
    outer loop
      vertex 42.6289 21.4453 0
      vertex 42.4271 21.7634 5
      vertex 42.4271 21.7634 0
    endloop
  endfacet
  facet normal -0.844415 -0.53569 0
    outer loop
      vertex 42.4271 21.7634 5
      vertex 42.6289 21.4453 0
      vertex 42.6289 21.4453 5
    endloop
  endfacet
  facet normal 0 1 -0
    outer loop
      vertex 40.1884 17.0059 0
      vertex 39.8116 17.0059 5
      vertex 40.1884 17.0059 5
    endloop
  endfacet
  facet normal 0 1 0
    outer loop
      vertex 39.8116 17.0059 5
      vertex 40.1884 17.0059 0
      vertex 39.8116 17.0059 0
    endloop
  endfacet
  facet normal 0 -1 0
    outer loop
      vertex 39.8116 22.9941 0
      vertex 40.1884 22.9941 5
      vertex 39.8116 22.9941 5
    endloop
  endfacet
  facet normal 0 -1 -0
    outer loop
      vertex 40.1884 22.9941 5
      vertex 39.8116 22.9941 0
      vertex 40.1884 22.9941 0
    endloop
  endfacet
  facet normal -0.950993 0.309212 0
    outer loop
      vertex 42.7893 18.8956 0
      vertex 42.9058 19.2539 5
      vertex 42.9058 19.2539 0
    endloop
  endfacet
  facet normal -0.950993 0.309212 0
    outer loop
      vertex 42.9058 19.2539 5
      vertex 42.7893 18.8956 0
      vertex 42.7893 18.8956 5
    endloop
  endfacet
  facet normal 0.24865 0.968593 -0
    outer loop
      vertex 39.4379 17.0531 0
      vertex 39.0729 17.1468 5
      vertex 39.4379 17.0531 5
    endloop
  endfacet
  facet normal 0.24865 0.968593 0
    outer loop
      vertex 39.0729 17.1468 5
      vertex 39.4379 17.0531 0
      vertex 39.0729 17.1468 0
    endloop
  endfacet
  facet normal 0.904843 0.425746 0
    outer loop
      vertex 37.3711 18.5547 5
      vertex 37.2107 18.8956 0
      vertex 37.2107 18.8956 5
    endloop
  endfacet
  facet normal 0.904843 0.425746 0
    outer loop
      vertex 37.2107 18.8956 0
      vertex 37.3711 18.5547 5
      vertex 37.3711 18.5547 0
    endloop
  endfacet
  facet normal -0.982336 0.187124 0
    outer loop
      vertex 42.9058 19.2539 0
      vertex 42.9763 19.624 5
      vertex 42.9763 19.624 0
    endloop
  endfacet
  facet normal -0.982336 0.187124 0
    outer loop
      vertex 42.9763 19.624 5
      vertex 42.9058 19.2539 0
      vertex 42.9058 19.2539 5
    endloop
  endfacet
  facet normal 0.24865 -0.968593 0
    outer loop
      vertex 39.0729 22.8532 0
      vertex 39.4379 22.9469 5
      vertex 39.0729 22.8532 5
    endloop
  endfacet
  facet normal 0.24865 -0.968593 0
    outer loop
      vertex 39.4379 22.9469 5
      vertex 39.0729 22.8532 0
      vertex 39.4379 22.9469 0
    endloop
  endfacet
  facet normal -0.125309 -0.992118 0
    outer loop
      vertex 40.1884 22.9941 0
      vertex 40.5621 22.9469 5
      vertex 40.1884 22.9941 5
    endloop
  endfacet
  facet normal -0.125309 -0.992118 -0
    outer loop
      vertex 40.5621 22.9469 5
      vertex 40.1884 22.9941 0
      vertex 40.5621 22.9469 0
    endloop
  endfacet
  facet normal -0.481695 0.876339 0
    outer loop
      vertex 41.6075 17.467 0
      vertex 41.2773 17.2855 5
      vertex 41.6075 17.467 5
    endloop
  endfacet
  facet normal -0.481695 0.876339 0
    outer loop
      vertex 41.2773 17.2855 5
      vertex 41.6075 17.467 0
      vertex 41.2773 17.2855 0
    endloop
  endfacet
  facet normal -0.904843 -0.425746 0
    outer loop
      vertex 42.7893 21.1044 0
      vertex 42.6289 21.4453 5
      vertex 42.6289 21.4453 0
    endloop
  endfacet
  facet normal -0.904843 -0.425746 0
    outer loop
      vertex 42.6289 21.4453 5
      vertex 42.7893 21.1044 0
      vertex 42.7893 21.1044 5
    endloop
  endfacet
  facet normal 0.998019 -0.0629071 0
    outer loop
      vertex 37 20 5
      vertex 37.0237 20.376 0
      vertex 37.0237 20.376 5
    endloop
  endfacet
  facet normal 0.998019 -0.0629071 0
    outer loop
      vertex 37.0237 20.376 0
      vertex 37 20 5
      vertex 37 20 0
    endloop
  endfacet
  facet normal -0.684594 0.728924 0
    outer loop
      vertex 42.1869 17.9464 0
      vertex 41.9123 17.6885 5
      vertex 42.1869 17.9464 5
    endloop
  endfacet
  facet normal -0.684594 0.728924 0
    outer loop
      vertex 41.9123 17.6885 5
      vertex 42.1869 17.9464 0
      vertex 41.9123 17.6885 0
    endloop
  endfacet
  facet normal 0.982336 0.187124 0
    outer loop
      vertex 37.0942 19.2539 5
      vertex 37.0237 19.624 0
      vertex 37.0237 19.624 5
    endloop
  endfacet
  facet normal 0.982336 0.187124 0
    outer loop
      vertex 37.0237 19.624 0
      vertex 37.0942 19.2539 5
      vertex 37.0942 19.2539 0
    endloop
  endfacet
  facet normal 0.770349 -0.637622 0
    outer loop
      vertex 37.5729 21.7634 5
      vertex 37.8131 22.0536 0
      vertex 37.8131 22.0536 5
    endloop
  endfacet
  facet normal 0.770349 -0.637622 0
    outer loop
      vertex 37.8131 22.0536 0
      vertex 37.5729 21.7634 5
      vertex 37.5729 21.7634 0
    endloop
  endfacet
  facet normal -0.770349 -0.637622 0
    outer loop
      vertex 42.4271 21.7634 0
      vertex 42.1869 22.0536 5
      vertex 42.1869 22.0536 0
    endloop
  endfacet
  facet normal -0.770349 -0.637622 0
    outer loop
      vertex 42.1869 22.0536 5
      vertex 42.4271 21.7634 0
      vertex 42.4271 21.7634 5
    endloop
  endfacet
  facet normal 0.684594 -0.728924 0
    outer loop
      vertex 37.8131 22.0536 0
      vertex 38.0877 22.3115 5
      vertex 37.8131 22.0536 5
    endloop
  endfacet
  facet normal 0.684594 -0.728924 0
    outer loop
      vertex 38.0877 22.3115 5
      vertex 37.8131 22.0536 0
      vertex 38.0877 22.3115 0
    endloop
  endfacet
  facet normal 0.125309 0.992118 -0
    outer loop
      vertex 39.8116 17.0059 0
      vertex 39.4379 17.0531 5
      vertex 39.8116 17.0059 5
    endloop
  endfacet
  facet normal 0.125309 0.992118 0
    outer loop
      vertex 39.4379 17.0531 5
      vertex 39.8116 17.0059 0
      vertex 39.4379 17.0531 0
    endloop
  endfacet
  facet normal 0.950993 0.309212 0
    outer loop
      vertex 37.2107 18.8956 5
      vertex 37.0942 19.2539 0
      vertex 37.0942 19.2539 5
    endloop
  endfacet
  facet normal 0.950993 0.309212 0
    outer loop
      vertex 37.0942 19.2539 0
      vertex 37.2107 18.8956 5
      vertex 37.2107 18.8956 0
    endloop
  endfacet
  facet normal 0.998019 0.0629071 0
    outer loop
      vertex 37.0237 19.624 5
      vertex 37 20 0
      vertex 37 20 5
    endloop
  endfacet
  facet normal 0.998019 0.0629071 0
    outer loop
      vertex 37 20 0
      vertex 37.0237 19.624 5
      vertex 37.0237 19.624 0
    endloop
  endfacet
  facet normal -0.125309 0.992118 0
    outer loop
      vertex 40.5621 17.0531 0
      vertex 40.1884 17.0059 5
      vertex 40.5621 17.0531 5
    endloop
  endfacet
  facet normal -0.125309 0.992118 0
    outer loop
      vertex 40.1884 17.0059 5
      vertex 40.5621 17.0531 0
      vertex 40.1884 17.0059 0
    endloop
  endfacet
  facet normal 0.904843 -0.425746 0
    outer loop
      vertex 37.2107 21.1044 5
      vertex 37.3711 21.4453 0
      vertex 37.3711 21.4453 5
    endloop
  endfacet
  facet normal 0.904843 -0.425746 0
    outer loop
      vertex 37.3711 21.4453 0
      vertex 37.2107 21.1044 5
      vertex 37.2107 21.1044 0
    endloop
  endfacet
  facet normal -0.24865 -0.968593 0
    outer loop
      vertex 40.5621 22.9469 0
      vertex 40.9271 22.8532 5
      vertex 40.5621 22.9469 5
    endloop
  endfacet
  facet normal -0.24865 -0.968593 -0
    outer loop
      vertex 40.9271 22.8532 5
      vertex 40.5621 22.9469 0
      vertex 40.9271 22.8532 0
    endloop
  endfacet
  facet normal 0.982336 -0.187124 0
    outer loop
      vertex 37.0237 20.376 5
      vertex 37.0942 20.7461 0
      vertex 37.0942 20.7461 5
    endloop
  endfacet
  facet normal 0.982336 -0.187124 0
    outer loop
      vertex 37.0942 20.7461 0
      vertex 37.0237 20.376 5
      vertex 37.0237 20.376 0
    endloop
  endfacet
  facet normal 0.844415 0.53569 0
    outer loop
      vertex 37.5729 18.2366 5
      vertex 37.3711 18.5547 0
      vertex 37.3711 18.5547 5
    endloop
  endfacet
  facet normal 0.844415 0.53569 0
    outer loop
      vertex 37.3711 18.5547 0
      vertex 37.5729 18.2366 5
      vertex 37.5729 18.2366 0
    endloop
  endfacet
  facet normal 0.770349 0.637622 0
    outer loop
      vertex 37.8131 17.9464 5
      vertex 37.5729 18.2366 0
      vertex 37.5729 18.2366 5
    endloop
  endfacet
  facet normal 0.770349 0.637622 0
    outer loop
      vertex 37.5729 18.2366 0
      vertex 37.8131 17.9464 5
      vertex 37.8131 17.9464 0
    endloop
  endfacet
  facet normal 0.950993 -0.309212 0
    outer loop
      vertex 37.0942 20.7461 5
      vertex 37.2107 21.1044 0
      vertex 37.2107 21.1044 5
    endloop
  endfacet
  facet normal 0.950993 -0.309212 0
    outer loop
      vertex 37.2107 21.1044 0
      vertex 37.0942 20.7461 5
      vertex 37.0942 20.7461 0
    endloop
  endfacet
  facet normal 0 0 1
    outer loop
      vertex 42.9763 19.624 5
      vertex 50 30 5
      vertex 43 20 5
    endloop
  endfacet
  facet normal 0 0 1
    outer loop
      vertex 50 30 5
      vertex 42.9763 20.376 5
      vertex 43 20 5
    endloop
  endfacet
  facet normal 0 0 1
    outer loop
      vertex 50 30 5
      vertex 42.9058 20.7461 5
      vertex 42.9763 20.376 5
    endloop
  endfacet
  facet normal 0 0 1
    outer loop
      vertex 50 30 5
      vertex 42.7893 21.1044 5
      vertex 42.9058 20.7461 5
    endloop
  endfacet
  facet normal 0 0 1
    outer loop
      vertex 50 30 5
      vertex 42.6289 21.4453 5
      vertex 42.7893 21.1044 5
    endloop
  endfacet
  facet normal 0 0 1
    outer loop
      vertex 50 30 5
      vertex 42.4271 21.7634 5
      vertex 42.6289 21.4453 5
    endloop
  endfacet
  facet normal 0 0 1
    outer loop
      vertex 50 30 5
      vertex 42.1869 22.0536 5
      vertex 42.4271 21.7634 5
    endloop
  endfacet
  facet normal 0 0 1
    outer loop
      vertex 50 30 5
      vertex 41.9123 22.3115 5
      vertex 42.1869 22.0536 5
    endloop
  endfacet
  facet normal 0 0 1
    outer loop
      vertex 50 30 5
      vertex 41.6075 22.533 5
      vertex 41.9123 22.3115 5
    endloop
  endfacet
  facet normal 0 0 1
    outer loop
      vertex 50 30 5
      vertex 41.2773 22.7145 5
      vertex 41.6075 22.533 5
    endloop
  endfacet
  facet normal 0 0 1
    outer loop
      vertex 50 30 5
      vertex 40.9271 22.8532 5
      vertex 41.2773 22.7145 5
    endloop
  endfacet
  facet normal 0 0 1
    outer loop
      vertex 50 30 5
      vertex 40.5621 22.9469 5
      vertex 40.9271 22.8532 5
    endloop
  endfacet
  facet normal 0 0 1
    outer loop
      vertex 50 30 5
      vertex 40.1884 22.9941 5
      vertex 40.5621 22.9469 5
    endloop
  endfacet
  facet normal 0 0 1
    outer loop
      vertex 50 30 5
      vertex 39.8116 22.9941 5
      vertex 40.1884 22.9941 5
    endloop
  endfacet
  facet normal 0 0 1
    outer loop
      vertex 50 30 5
      vertex 39.4379 22.9469 5
      vertex 39.8116 22.9941 5
    endloop
  endfacet
  facet normal 0 0 1
    outer loop
      vertex 50 30 5
      vertex 39.0729 22.8532 5
      vertex 39.4379 22.9469 5
    endloop
  endfacet
  facet normal 0 0 1
    outer loop
      vertex 50 30 5
      vertex 38.7227 22.7145 5
      vertex 39.0729 22.8532 5
    endloop
  endfacet
  facet normal -0 0 1
    outer loop
      vertex 0 30 5
      vertex 38.7227 22.7145 5
      vertex 50 30 5
    endloop
  endfacet
  facet normal 0 0 1
    outer loop
      vertex 12.1869 12.0536 5
      vertex 37 20 5
      vertex 37.0237 20.376 5
    endloop
  endfacet
  facet normal 0 0 1
    outer loop
      vertex 11.9123 12.3115 5
      vertex 37.0237 20.376 5
      vertex 37.0942 20.7461 5
    endloop
  endfacet
  facet normal 0 0 1
    outer loop
      vertex 11.6075 12.533 5
      vertex 37.0942 20.7461 5
      vertex 37.2107 21.1044 5
    endloop
  endfacet
  facet normal 0 0 1
    outer loop
      vertex 11.2773 12.7145 5
      vertex 37.2107 21.1044 5
      vertex 37.3711 21.4453 5
    endloop
  endfacet
  facet normal 0 0 1
    outer loop
      vertex 0 30 5
      vertex 37.3711 21.4453 5
      vertex 37.5729 21.7634 5
    endloop
  endfacet
  facet normal 0 0 1
    outer loop
      vertex 0 30 5
      vertex 37.5729 21.7634 5
      vertex 37.8131 22.0536 5
    endloop
  endfacet
  facet normal 0 0 1
    outer loop
      vertex 0 30 5
      vertex 37.8131 22.0536 5
      vertex 38.0877 22.3115 5
    endloop
  endfacet
  facet normal 0 0 1
    outer loop
      vertex 0 30 5
      vertex 38.0877 22.3115 5
      vertex 38.3925 22.533 5
    endloop
  endfacet
  facet normal 0 0 1
    outer loop
      vertex 38.7227 22.7145 5
      vertex 0 30 5
      vertex 38.3925 22.533 5
    endloop
  endfacet
  facet normal 0 0 1
    outer loop
      vertex 37 20 5
      vertex 12.9763 10.376 5
      vertex 13 10 5
    endloop
  endfacet
  facet normal 0 0 1
    outer loop
      vertex 37 20 5
      vertex 12.9057 10.7461 5
      vertex 12.9763 10.376 5
    endloop
  endfacet
  facet normal 0 0 1
    outer loop
      vertex 37 20 5
      vertex 12.7893 11.1044 5
      vertex 12.9057 10.7461 5
    endloop
  endfacet
  facet normal 0 0 1
    outer loop
      vertex 37 20 5
      vertex 12.6289 11.4453 5
      vertex 12.7893 11.1044 5
    endloop
  endfacet
  facet normal 0 0 1
    outer loop
      vertex 37 20 5
      vertex 12.4271 11.7634 5
      vertex 12.6289 11.4453 5
    endloop
  endfacet
  facet normal 0 0 1
    outer loop
      vertex 37 20 5
      vertex 12.1869 12.0536 5
      vertex 12.4271 11.7634 5
    endloop
  endfacet
  facet normal 0 0 1
    outer loop
      vertex 37.0237 20.376 5
      vertex 11.9123 12.3115 5
      vertex 12.1869 12.0536 5
    endloop
  endfacet
  facet normal 0 0 1
    outer loop
      vertex 37.0942 20.7461 5
      vertex 11.6075 12.533 5
      vertex 11.9123 12.3115 5
    endloop
  endfacet
  facet normal 0 0 1
    outer loop
      vertex 37.3711 21.4453 5
      vertex 0 30 5
      vertex 11.2773 12.7145 5
    endloop
  endfacet
  facet normal 0 0 1
    outer loop
      vertex 37.2107 21.1044 5
      vertex 11.2773 12.7145 5
      vertex 11.6075 12.533 5
    endloop
  endfacet
  facet normal 0 0 1
    outer loop
      vertex 11.2773 12.7145 5
      vertex 0 30 5
      vertex 10.9271 12.8532 5
    endloop
  endfacet
  facet normal 0 0 1
    outer loop
      vertex 10.9271 12.8532 5
      vertex 0 30 5
      vertex 10.5621 12.9469 5
    endloop
  endfacet
  facet normal 0 0 1
    outer loop
      vertex 10.5621 12.9469 5
      vertex 0 30 5
      vertex 10.1884 12.9941 5
    endloop
  endfacet
  facet normal 0 0 1
    outer loop
      vertex 10.1884 12.9941 5
      vertex 0 30 5
      vertex 9.81163 12.9941 5
    endloop
  endfacet
  facet normal 0 0 1
    outer loop
      vertex 9.81163 12.9941 5
      vertex 0 30 5
      vertex 9.43786 12.9469 5
    endloop
  endfacet
  facet normal 0 0 1
    outer loop
      vertex 9.43786 12.9469 5
      vertex 0 30 5
      vertex 9.07295 12.8532 5
    endloop
  endfacet
  facet normal 0 0 1
    outer loop
      vertex 7.09425 10.7461 5
      vertex 0 0 5
      vertex 7.02366 10.376 5
    endloop
  endfacet
  facet normal 0 0 1
    outer loop
      vertex 0 0 5
      vertex 7.09425 10.7461 5
      vertex 0 30 5
    endloop
  endfacet
  facet normal 0 0 1
    outer loop
      vertex 7.21067 11.1044 5
      vertex 0 30 5
      vertex 7.09425 10.7461 5
    endloop
  endfacet
  facet normal 0 0 1
    outer loop
      vertex 7.37108 11.4453 5
      vertex 0 30 5
      vertex 7.21067 11.1044 5
    endloop
  endfacet
  facet normal 0 0 1
    outer loop
      vertex 7.57295 11.7634 5
      vertex 0 30 5
      vertex 7.37108 11.4453 5
    endloop
  endfacet
  facet normal 0 0 1
    outer loop
      vertex 7.81309 12.0536 5
      vertex 0 30 5
      vertex 7.57295 11.7634 5
    endloop
  endfacet
  facet normal 0 0 1
    outer loop
      vertex 8.08773 12.3115 5
      vertex 0 30 5
      vertex 7.81309 12.0536 5
    endloop
  endfacet
  facet normal 0 0 1
    outer loop
      vertex 8.39252 12.533 5
      vertex 0 30 5
      vertex 8.08773 12.3115 5
    endloop
  endfacet
  facet normal 0 0 1
    outer loop
      vertex 8.72266 12.7145 5
      vertex 0 30 5
      vertex 8.39252 12.533 5
    endloop
  endfacet
  facet normal 0 0 1
    outer loop
      vertex 9.07295 12.8532 5
      vertex 0 30 5
      vertex 8.72266 12.7145 5
    endloop
  endfacet
  facet normal 0 0 1
    outer loop
      vertex 42.9058 19.2539 5
      vertex 50 30 5
      vertex 42.9763 19.624 5
    endloop
  endfacet
  facet normal 0 0 1
    outer loop
      vertex 50 30 5
      vertex 42.9058 19.2539 5
      vertex 50 0 5
    endloop
  endfacet
  facet normal -0 0 1
    outer loop
      vertex 42.7893 18.8956 5
      vertex 50 0 5
      vertex 42.9058 19.2539 5
    endloop
  endfacet
  facet normal -0 0 1
    outer loop
      vertex 42.6289 18.5547 5
      vertex 50 0 5
      vertex 42.7893 18.8956 5
    endloop
  endfacet
  facet normal -0 0 1
    outer loop
      vertex 42.4271 18.2366 5
      vertex 50 0 5
      vertex 42.6289 18.5547 5
    endloop
  endfacet
  facet normal -0 0 1
    outer loop
      vertex 42.1869 17.9464 5
      vertex 50 0 5
      vertex 42.4271 18.2366 5
    endloop
  endfacet
  facet normal -0 0 1
    outer loop
      vertex 41.9123 17.6885 5
      vertex 50 0 5
      vertex 42.1869 17.9464 5
    endloop
  endfacet
  facet normal -0 0 1
    outer loop
      vertex 41.6075 17.467 5
      vertex 50 0 5
      vertex 41.9123 17.6885 5
    endloop
  endfacet
  facet normal -0 0 1
    outer loop
      vertex 41.2773 17.2855 5
      vertex 50 0 5
      vertex 41.6075 17.467 5
    endloop
  endfacet
  facet normal -0 0 1
    outer loop
      vertex 40.9271 17.1468 5
      vertex 50 0 5
      vertex 41.2773 17.2855 5
    endloop
  endfacet
  facet normal -0 0 1
    outer loop
      vertex 40.5621 17.0531 5
      vertex 50 0 5
      vertex 40.9271 17.1468 5
    endloop
  endfacet
  facet normal -0 0 1
    outer loop
      vertex 40.1884 17.0059 5
      vertex 50 0 5
      vertex 40.5621 17.0531 5
    endloop
  endfacet
  facet normal -0 0 1
    outer loop
      vertex 39.8116 17.0059 5
      vertex 50 0 5
      vertex 40.1884 17.0059 5
    endloop
  endfacet
  facet normal 0 0 1
    outer loop
      vertex 39.4379 17.0531 5
      vertex 50 0 5
      vertex 39.8116 17.0059 5
    endloop
  endfacet
  facet normal 0 0 1
    outer loop
      vertex 39.0729 17.1468 5
      vertex 50 0 5
      vertex 39.4379 17.0531 5
    endloop
  endfacet
  facet normal 0 0 1
    outer loop
      vertex 38.7227 17.2855 5
      vertex 50 0 5
      vertex 39.0729 17.1468 5
    endloop
  endfacet
  facet normal 0 0 1
    outer loop
      vertex 12.7893 8.89563 5
      vertex 38.7227 17.2855 5
      vertex 38.3925 17.467 5
    endloop
  endfacet
  facet normal 0 0 1
    outer loop
      vertex 12.9057 9.25393 5
      vertex 38.3925 17.467 5
      vertex 38.0877 17.6885 5
    endloop
  endfacet
  facet normal 0 0 1
    outer loop
      vertex 12.9763 9.624 5
      vertex 38.0877 17.6885 5
      vertex 37.8131 17.9464 5
    endloop
  endfacet
  facet normal 0 0 1
    outer loop
      vertex 13 10 5
      vertex 37.8131 17.9464 5
      vertex 37.5729 18.2366 5
    endloop
  endfacet
  facet normal 0 0 1
    outer loop
      vertex 13 10 5
      vertex 37.0237 19.624 5
      vertex 37 20 5
    endloop
  endfacet
  facet normal 0 0 1
    outer loop
      vertex 13 10 5
      vertex 37.0942 19.2539 5
      vertex 37.0237 19.624 5
    endloop
  endfacet
  facet normal 0 0 1
    outer loop
      vertex 13 10 5
      vertex 37.2107 18.8956 5
      vertex 37.0942 19.2539 5
    endloop
  endfacet
  facet normal 0 0 1
    outer loop
      vertex 13 10 5
      vertex 37.3711 18.5547 5
      vertex 37.2107 18.8956 5
    endloop
  endfacet
  facet normal 0 0 1
    outer loop
      vertex 13 10 5
      vertex 37.5729 18.2366 5
      vertex 37.3711 18.5547 5
    endloop
  endfacet
  facet normal 0 0 1
    outer loop
      vertex 37.8131 17.9464 5
      vertex 13 10 5
      vertex 12.9763 9.624 5
    endloop
  endfacet
  facet normal 0 0 1
    outer loop
      vertex 38.0877 17.6885 5
      vertex 12.9763 9.624 5
      vertex 12.9057 9.25393 5
    endloop
  endfacet
  facet normal 0 0 1
    outer loop
      vertex 38.3925 17.467 5
      vertex 12.9057 9.25393 5
      vertex 12.7893 8.89563 5
    endloop
  endfacet
  facet normal 0 0 1
    outer loop
      vertex 38.7227 17.2855 5
      vertex 12.7893 8.89563 5
      vertex 12.6289 8.55474 5
    endloop
  endfacet
  facet normal 0 0 1
    outer loop
      vertex 38.7227 17.2855 5
      vertex 12.6289 8.55474 5
      vertex 50 0 5
    endloop
  endfacet
  facet normal -0 0 1
    outer loop
      vertex 12.4271 8.23664 5
      vertex 50 0 5
      vertex 12.6289 8.55474 5
    endloop
  endfacet
  facet normal -0 0 1
    outer loop
      vertex 12.1869 7.94636 5
      vertex 50 0 5
      vertex 12.4271 8.23664 5
    endloop
  endfacet
  facet normal -0 0 1
    outer loop
      vertex 11.9123 7.68846 5
      vertex 50 0 5
      vertex 12.1869 7.94636 5
    endloop
  endfacet
  facet normal -0 0 1
    outer loop
      vertex 11.6075 7.46702 5
      vertex 50 0 5
      vertex 11.9123 7.68846 5
    endloop
  endfacet
  facet normal -0 0 1
    outer loop
      vertex 11.2773 7.28552 5
      vertex 50 0 5
      vertex 11.6075 7.46702 5
    endloop
  endfacet
  facet normal 0 0 1
    outer loop
      vertex 0 0 5
      vertex 11.2773 7.28552 5
      vertex 10.9271 7.14683 5
    endloop
  endfacet
  facet normal 0 0 1
    outer loop
      vertex 0 0 5
      vertex 10.9271 7.14683 5
      vertex 10.5621 7.05314 5
    endloop
  endfacet
  facet normal 0 0 1
    outer loop
      vertex 0 0 5
      vertex 10.5621 7.05314 5
      vertex 10.1884 7.00592 5
    endloop
  endfacet
  facet normal 0 0 1
    outer loop
      vertex 0 0 5
      vertex 10.1884 7.00592 5
      vertex 9.81163 7.00592 5
    endloop
  endfacet
  facet normal 0 0 1
    outer loop
      vertex 0 0 5
      vertex 9.81163 7.00592 5
      vertex 9.43786 7.05314 5
    endloop
  endfacet
  facet normal 0 0 1
    outer loop
      vertex 7.02366 10.376 5
      vertex 0 0 5
      vertex 7 10 5
    endloop
  endfacet
  facet normal 0 0 1
    outer loop
      vertex 7 10 5
      vertex 0 0 5
      vertex 7.02366 9.624 5
    endloop
  endfacet
  facet normal 0 0 1
    outer loop
      vertex 7.02366 9.624 5
      vertex 0 0 5
      vertex 7.09425 9.25393 5
    endloop
  endfacet
  facet normal 0 0 1
    outer loop
      vertex 11.2773 7.28552 5
      vertex 0 0 5
      vertex 50 0 5
    endloop
  endfacet
  facet normal 0 0 1
    outer loop
      vertex 9.07295 7.14683 5
      vertex 0 0 5
      vertex 9.43786 7.05314 5
    endloop
  endfacet
  facet normal 0 0 1
    outer loop
      vertex 8.72266 7.28552 5
      vertex 0 0 5
      vertex 9.07295 7.14683 5
    endloop
  endfacet
  facet normal 0 0 1
    outer loop
      vertex 8.39252 7.46702 5
      vertex 0 0 5
      vertex 8.72266 7.28552 5
    endloop
  endfacet
  facet normal 0 0 1
    outer loop
      vertex 8.08773 7.68846 5
      vertex 0 0 5
      vertex 8.39252 7.46702 5
    endloop
  endfacet
  facet normal 0 0 1
    outer loop
      vertex 7.81309 7.94636 5
      vertex 0 0 5
      vertex 8.08773 7.68846 5
    endloop
  endfacet
  facet normal 0 0 1
    outer loop
      vertex 7.57295 8.23664 5
      vertex 0 0 5
      vertex 7.81309 7.94636 5
    endloop
  endfacet
  facet normal 0 0 1
    outer loop
      vertex 7.37108 8.55474 5
      vertex 0 0 5
      vertex 7.57295 8.23664 5
    endloop
  endfacet
  facet normal 0 0 1
    outer loop
      vertex 7.21067 8.89563 5
      vertex 0 0 5
      vertex 7.37108 8.55474 5
    endloop
  endfacet
  facet normal 0 0 1
    outer loop
      vertex 7.09425 9.25393 5
      vertex 0 0 5
      vertex 7.21067 8.89563 5
    endloop
  endfacet
endsolid OpenSCAD_Model
