solid OpenSCAD_Model
  facet normal 0 0 -1
    outer loop
      vertex 27.8386 -10.1684 0
      vertex 50 0 0
      vertex 45.6773 -20.3368 0
    endloop
  endfacet
  facet normal -0 0 -1
    outer loop
      vertex 33.4565 37.1572 0
      vertex 12.7254 23.7764 0
      vertex 15.4508 47.5528 0
    endloop
  endfacet
  facet normal 0 0 -1
    outer loop
      vertex 45.6773 20.3368 0
      vertex 27.8386 10.1684 0
      vertex 21.7283 18.5786 0
    endloop
  endfacet
  facet normal -0 0 -1
    outer loop
      vertex 15.4508 47.5528 0
      vertex 2.38678 24.863 0
      vertex -5.22641 49.7261 0
    endloop
  endfacet
  facet normal 0 -0 -1
    outer loop
      vertex 45.6773 20.3368 0
      vertex 50 0 0
      vertex 27.8386 10.1684 0
    endloop
  endfacet
  facet normal 0 -0 -1
    outer loop
      vertex -25 43.3013 0
      vertex -15.2254 14.6946 0
      vertex -40.4508 29.3893 0
    endloop
  endfacet
  facet normal 0 0 -1
    outer loop
      vertex -48.9074 10.3956 0
      vertex -19.4537 -5.19778 0
      vertex -48.9074 -10.3956 0
    endloop
  endfacet
  facet normal 0 -0 -1
    outer loop
      vertex -19.4537 -5.19778 0
      vertex -15.2254 -14.6946 0
      vertex -40.4508 -29.3893 0
    endloop
  endfacet
  facet normal 0 -0 -1
    outer loop
      vertex -15.2254 -14.6946 0
      vertex -7.5 -21.6506 0
      vertex -25 -43.3013 0
    endloop
  endfacet
  facet normal 0 0 -1
    outer loop
      vertex -25 -43.3013 0
      vertex -7.5 -21.6506 0
      vertex -5.22641 -49.7261 0
    endloop
  endfacet
  facet normal -0 0 -1
    outer loop
      vertex 15.4508 -47.5528 0
      vertex -5.22641 -49.7261 0
      vertex 2.38678 -24.863 0
    endloop
  endfacet
  facet normal -0 0 -1
    outer loop
      vertex 2.38678 -24.863 0
      vertex -5.22641 -49.7261 0
      vertex -7.5 -21.6506 0
    endloop
  endfacet
  facet normal 0 0 -1
    outer loop
      vertex 12.7254 -23.7764 0
      vertex 21.7283 -18.5786 0
      vertex 33.4565 -37.1572 0
    endloop
  endfacet
  facet normal 0 0 -1
    outer loop
      vertex -25 43.3013 0
      vertex -7.5 21.6506 0
      vertex -15.2254 14.6946 0
    endloop
  endfacet
  facet normal 0 0 -1
    outer loop
      vertex -15.2254 -14.6946 0
      vertex -25 -43.3013 0
      vertex -40.4508 -29.3893 0
    endloop
  endfacet
  facet normal -0 0 -1
    outer loop
      vertex 50 0 0
      vertex 27.8386 -10.1684 0
      vertex 30 0 0
    endloop
  endfacet
  facet normal 0 0 -1
    outer loop
      vertex -19.4537 -5.19778 0
      vertex -40.4508 -29.3893 0
      vertex -48.9074 -10.3956 0
    endloop
  endfacet
  facet normal 0 0 -1
    outer loop
      vertex -19.4537 5.19778 0
      vertex -48.9074 10.3956 0
      vertex -40.4508 29.3893 0
    endloop
  endfacet
  facet normal 0 0 -1
    outer loop
      vertex -19.4537 -5.19778 0
      vertex -48.9074 10.3956 0
      vertex -19.4537 5.19778 0
    endloop
  endfacet
  facet normal -0 0 -1
    outer loop
      vertex -15.2254 14.6946 0
      vertex -19.4537 5.19778 0
      vertex -40.4508 29.3893 0
    endloop
  endfacet
  facet normal 0 0 -1
    outer loop
      vertex -25 43.3013 0
      vertex -5.22641 49.7261 0
      vertex -7.5 21.6506 0
    endloop
  endfacet
  facet normal -0 0 -1
    outer loop
      vertex 2.38678 24.863 0
      vertex -7.5 21.6506 0
      vertex -5.22641 49.7261 0
    endloop
  endfacet
  facet normal 0 0 -1
    outer loop
      vertex 12.7254 23.7764 0
      vertex 2.38678 24.863 0
      vertex 15.4508 47.5528 0
    endloop
  endfacet
  facet normal 0 0 -1
    outer loop
      vertex 21.7283 18.5786 0
      vertex 12.7254 23.7764 0
      vertex 33.4565 37.1572 0
    endloop
  endfacet
  facet normal -0 0 -1
    outer loop
      vertex 45.6773 20.3368 0
      vertex 21.7283 18.5786 0
      vertex 33.4565 37.1572 0
    endloop
  endfacet
  facet normal 0 0 -1
    outer loop
      vertex 27.8386 10.1684 0
      vertex 50 0 0
      vertex 30 0 0
    endloop
  endfacet
  facet normal 0 0 -1
    outer loop
      vertex 45.6773 -20.3368 0
      vertex 21.7283 -18.5786 0
      vertex 27.8386 -10.1684 0
    endloop
  endfacet
  facet normal -0 0 -1
    outer loop
      vertex 45.6773 -20.3368 0
      vertex 33.4565 -37.1572 0
      vertex 21.7283 -18.5786 0
    endloop
  endfacet
  facet normal -0 0 -1
    outer loop
      vertex 33.4565 -37.1572 0
      vertex 15.4508 -47.5528 0
      vertex 12.7254 -23.7764 0
    endloop
  endfacet
  facet normal 0 -0 -1
    outer loop
      vertex 12.7254 -23.7764 0
      vertex 15.4508 -47.5528 0
      vertex 2.38678 -24.863 0
    endloop
  endfacet
  facet normal 0 -0 1
    outer loop
      vertex 45.6773 -20.3368 100
      vertex 50 0 100
      vertex 27.8386 -10.1684 100
    endloop
  endfacet
  facet normal 0 0 1
    outer loop
      vertex 15.4508 47.5528 100
      vertex 12.7254 23.7764 100
      vertex 33.4565 37.1572 100
    endloop
  endfacet
  facet normal -0 0 1
    outer loop
      vertex 21.7283 18.5786 100
      vertex 27.8386 10.1684 100
      vertex 45.6773 20.3368 100
    endloop
  endfacet
  facet normal 0 0 1
    outer loop
      vertex -5.22641 49.7261 100
      vertex 2.38678 24.863 100
      vertex 15.4508 47.5528 100
    endloop
  endfacet
  facet normal -0 0 1
    outer loop
      vertex 27.8386 10.1684 100
      vertex 50 0 100
      vertex 45.6773 20.3368 100
    endloop
  endfacet
  facet normal -0 0 1
    outer loop
      vertex -40.4508 29.3893 100
      vertex -15.2254 14.6946 100
      vertex -25 43.3013 100
    endloop
  endfacet
  facet normal 0 0 1
    outer loop
      vertex -48.9074 -10.3956 100
      vertex -19.4537 -5.19778 100
      vertex -48.9074 10.3956 100
    endloop
  endfacet
  facet normal 0 0 1
    outer loop
      vertex -40.4508 -29.3893 100
      vertex -15.2254 -14.6946 100
      vertex -19.4537 -5.19778 100
    endloop
  endfacet
  facet normal 0 0 1
    outer loop
      vertex -25 -43.3013 100
      vertex -7.5 -21.6506 100
      vertex -15.2254 -14.6946 100
    endloop
  endfacet
  facet normal 0 0 1
    outer loop
      vertex -5.22641 -49.7261 100
      vertex -7.5 -21.6506 100
      vertex -25 -43.3013 100
    endloop
  endfacet
  facet normal 0 0 1
    outer loop
      vertex 2.38678 -24.863 100
      vertex -5.22641 -49.7261 100
      vertex 15.4508 -47.5528 100
    endloop
  endfacet
  facet normal 0 0 1
    outer loop
      vertex -7.5 -21.6506 100
      vertex -5.22641 -49.7261 100
      vertex 2.38678 -24.863 100
    endloop
  endfacet
  facet normal 0 0 1
    outer loop
      vertex 33.4565 -37.1572 100
      vertex 21.7283 -18.5786 100
      vertex 12.7254 -23.7764 100
    endloop
  endfacet
  facet normal 0 -0 1
    outer loop
      vertex -15.2254 14.6946 100
      vertex -7.5 21.6506 100
      vertex -25 43.3013 100
    endloop
  endfacet
  facet normal -0 0 1
    outer loop
      vertex -40.4508 -29.3893 100
      vertex -25 -43.3013 100
      vertex -15.2254 -14.6946 100
    endloop
  endfacet
  facet normal -0 0 1
    outer loop
      vertex 30 0 100
      vertex 27.8386 -10.1684 100
      vertex 50 0 100
    endloop
  endfacet
  facet normal -0 0 1
    outer loop
      vertex -48.9074 -10.3956 100
      vertex -40.4508 -29.3893 100
      vertex -19.4537 -5.19778 100
    endloop
  endfacet
  facet normal 0 0 1
    outer loop
      vertex -40.4508 29.3893 100
      vertex -48.9074 10.3956 100
      vertex -19.4537 5.19778 100
    endloop
  endfacet
  facet normal 0 0 1
    outer loop
      vertex -19.4537 5.19778 100
      vertex -48.9074 10.3956 100
      vertex -19.4537 -5.19778 100
    endloop
  endfacet
  facet normal 0 0 1
    outer loop
      vertex -40.4508 29.3893 100
      vertex -19.4537 5.19778 100
      vertex -15.2254 14.6946 100
    endloop
  endfacet
  facet normal 0 -0 1
    outer loop
      vertex -7.5 21.6506 100
      vertex -5.22641 49.7261 100
      vertex -25 43.3013 100
    endloop
  endfacet
  facet normal 0 0 1
    outer loop
      vertex -5.22641 49.7261 100
      vertex -7.5 21.6506 100
      vertex 2.38678 24.863 100
    endloop
  endfacet
  facet normal 0 0 1
    outer loop
      vertex 15.4508 47.5528 100
      vertex 2.38678 24.863 100
      vertex 12.7254 23.7764 100
    endloop
  endfacet
  facet normal 0 0 1
    outer loop
      vertex 33.4565 37.1572 100
      vertex 12.7254 23.7764 100
      vertex 21.7283 18.5786 100
    endloop
  endfacet
  facet normal 0 0 1
    outer loop
      vertex 33.4565 37.1572 100
      vertex 21.7283 18.5786 100
      vertex 45.6773 20.3368 100
    endloop
  endfacet
  facet normal 0 -0 1
    outer loop
      vertex 30 0 100
      vertex 50 0 100
      vertex 27.8386 10.1684 100
    endloop
  endfacet
  facet normal 0 0 1
    outer loop
      vertex 27.8386 -10.1684 100
      vertex 21.7283 -18.5786 100
      vertex 45.6773 -20.3368 100
    endloop
  endfacet
  facet normal 0 0 1
    outer loop
      vertex 21.7283 -18.5786 100
      vertex 33.4565 -37.1572 100
      vertex 45.6773 -20.3368 100
    endloop
  endfacet
  facet normal 0 0 1
    outer loop
      vertex 12.7254 -23.7764 100
      vertex 15.4508 -47.5528 100
      vertex 33.4565 -37.1572 100
    endloop
  endfacet
  facet normal -0 0 1
    outer loop
      vertex 2.38678 -24.863 100
      vertex 15.4508 -47.5528 100
      vertex 12.7254 -23.7764 100
    endloop
  endfacet
  facet normal 0.5 -0.866025 0
    outer loop
      vertex 33.4565 -37.1572 0
      vertex 15.4508 -47.5528 100
      vertex 15.4508 -47.5528 0
    endloop
  endfacet
  facet normal 0.5 -0.866025 0
    outer loop
      vertex 33.4565 -37.1572 0
      vertex 33.4565 -37.1572 100
      vertex 15.4508 -47.5528 100
    endloop
  endfacet
  facet normal 0.809016 -0.587787 0
    outer loop
      vertex 45.6773 -20.3368 0
      vertex 33.4565 -37.1572 100
      vertex 33.4565 -37.1572 0
    endloop
  endfacet
  facet normal 0.809016 -0.587787 0
    outer loop
      vertex 45.6773 -20.3368 0
      vertex 45.6773 -20.3368 100
      vertex 33.4565 -37.1572 100
    endloop
  endfacet
  facet normal 0.978148 -0.207911 0
    outer loop
      vertex 50 0 0
      vertex 45.6773 -20.3368 100
      vertex 45.6773 -20.3368 0
    endloop
  endfacet
  facet normal 0.978148 -0.207911 0
    outer loop
      vertex 50 0 0
      vertex 50 0 100
      vertex 45.6773 -20.3368 100
    endloop
  endfacet
  facet normal 0.978148 0.207911 0
    outer loop
      vertex 45.6773 20.3368 0
      vertex 50 0 100
      vertex 50 0 0
    endloop
  endfacet
  facet normal 0.978148 0.207911 -0
    outer loop
      vertex 45.6773 20.3368 0
      vertex 45.6773 20.3368 100
      vertex 50 0 100
    endloop
  endfacet
  facet normal 0.809016 0.587787 0
    outer loop
      vertex 33.4565 37.1572 0
      vertex 45.6773 20.3368 100
      vertex 45.6773 20.3368 0
    endloop
  endfacet
  facet normal 0.809016 0.587787 -0
    outer loop
      vertex 33.4565 37.1572 0
      vertex 33.4565 37.1572 100
      vertex 45.6773 20.3368 100
    endloop
  endfacet
  facet normal 0.5 0.866025 0
    outer loop
      vertex 15.4508 47.5528 0
      vertex 33.4565 37.1572 100
      vertex 33.4565 37.1572 0
    endloop
  endfacet
  facet normal 0.5 0.866025 -0
    outer loop
      vertex 15.4508 47.5528 0
      vertex 15.4508 47.5528 100
      vertex 33.4565 37.1572 100
    endloop
  endfacet
  facet normal 0.10453 0.994522 0
    outer loop
      vertex -5.22641 49.7261 0
      vertex 15.4508 47.5528 100
      vertex 15.4508 47.5528 0
    endloop
  endfacet
  facet normal 0.10453 0.994522 -0
    outer loop
      vertex -5.22641 49.7261 0
      vertex -5.22641 49.7261 100
      vertex 15.4508 47.5528 100
    endloop
  endfacet
  facet normal -0.309016 0.951057 0
    outer loop
      vertex -25 43.3013 0
      vertex -5.22641 49.7261 100
      vertex -5.22641 49.7261 0
    endloop
  endfacet
  facet normal -0.309016 0.951057 0
    outer loop
      vertex -25 43.3013 0
      vertex -25 43.3013 100
      vertex -5.22641 49.7261 100
    endloop
  endfacet
  facet normal -0.669132 0.743144 0
    outer loop
      vertex -40.4508 29.3893 0
      vertex -25 43.3013 100
      vertex -25 43.3013 0
    endloop
  endfacet
  facet normal -0.669132 0.743144 0
    outer loop
      vertex -40.4508 29.3893 0
      vertex -40.4508 29.3893 100
      vertex -25 43.3013 100
    endloop
  endfacet
  facet normal -0.913544 0.406739 0
    outer loop
      vertex -48.9074 10.3956 0
      vertex -40.4508 29.3893 100
      vertex -40.4508 29.3893 0
    endloop
  endfacet
  facet normal -0.913544 0.406739 0
    outer loop
      vertex -48.9074 10.3956 0
      vertex -48.9074 10.3956 100
      vertex -40.4508 29.3893 100
    endloop
  endfacet
  facet normal -1 0 0
    outer loop
      vertex -48.9074 -10.3956 0
      vertex -48.9074 10.3956 100
      vertex -48.9074 10.3956 0
    endloop
  endfacet
  facet normal -1 0 0
    outer loop
      vertex -48.9074 -10.3956 0
      vertex -48.9074 -10.3956 100
      vertex -48.9074 10.3956 100
    endloop
  endfacet
  facet normal -0.913544 -0.406739 0
    outer loop
      vertex -40.4508 -29.3893 0
      vertex -48.9074 -10.3956 100
      vertex -48.9074 -10.3956 0
    endloop
  endfacet
  facet normal -0.913544 -0.406739 0
    outer loop
      vertex -40.4508 -29.3893 0
      vertex -40.4508 -29.3893 100
      vertex -48.9074 -10.3956 100
    endloop
  endfacet
  facet normal -0.669132 -0.743144 0
    outer loop
      vertex -25 -43.3013 0
      vertex -40.4508 -29.3893 100
      vertex -40.4508 -29.3893 0
    endloop
  endfacet
  facet normal -0.669132 -0.743144 0
    outer loop
      vertex -25 -43.3013 0
      vertex -25 -43.3013 100
      vertex -40.4508 -29.3893 100
    endloop
  endfacet
  facet normal -0.309016 -0.951057 0
    outer loop
      vertex -5.22641 -49.7261 0
      vertex -25 -43.3013 100
      vertex -25 -43.3013 0
    endloop
  endfacet
  facet normal -0.309016 -0.951057 0
    outer loop
      vertex -5.22641 -49.7261 0
      vertex -5.22641 -49.7261 100
      vertex -25 -43.3013 100
    endloop
  endfacet
  facet normal 0.10453 -0.994522 0
    outer loop
      vertex 15.4508 -47.5528 0
      vertex -5.22641 -49.7261 100
      vertex -5.22641 -49.7261 0
    endloop
  endfacet
  facet normal 0.10453 -0.994522 0
    outer loop
      vertex 15.4508 -47.5528 0
      vertex 15.4508 -47.5528 100
      vertex -5.22641 -49.7261 100
    endloop
  endfacet
  facet normal 0.669132 0.743144 -0
    outer loop
      vertex -15.2254 -14.6946 0
      vertex -15.2254 -14.6946 100
      vertex -7.5 -21.6506 0
    endloop
  endfacet
  facet normal 0.669132 0.743144 0
    outer loop
      vertex -7.5 -21.6506 100
      vertex -7.5 -21.6506 0
      vertex -15.2254 -14.6946 100
    endloop
  endfacet
  facet normal 0.913544 0.40674 -0
    outer loop
      vertex -19.4537 -5.19778 0
      vertex -19.4537 -5.19778 100
      vertex -15.2254 -14.6946 0
    endloop
  endfacet
  facet normal 0.913544 0.40674 0
    outer loop
      vertex -15.2254 -14.6946 100
      vertex -15.2254 -14.6946 0
      vertex -19.4537 -5.19778 100
    endloop
  endfacet
  facet normal 1 0 -0
    outer loop
      vertex -19.4537 5.19778 0
      vertex -19.4537 5.19778 100
      vertex -19.4537 -5.19778 0
    endloop
  endfacet
  facet normal 1 -0 0
    outer loop
      vertex -19.4537 -5.19778 100
      vertex -19.4537 -5.19778 0
      vertex -19.4537 5.19778 100
    endloop
  endfacet
  facet normal 0.913544 -0.40674 0
    outer loop
      vertex -15.2254 14.6946 0
      vertex -15.2254 14.6946 100
      vertex -19.4537 5.19778 0
    endloop
  endfacet
  facet normal 0.913544 -0.40674 0
    outer loop
      vertex -19.4537 5.19778 100
      vertex -19.4537 5.19778 0
      vertex -15.2254 14.6946 100
    endloop
  endfacet
  facet normal 0.669132 -0.743144 0
    outer loop
      vertex -7.5 21.6506 0
      vertex -7.5 21.6506 100
      vertex -15.2254 14.6946 0
    endloop
  endfacet
  facet normal 0.669132 -0.743144 0
    outer loop
      vertex -15.2254 14.6946 100
      vertex -15.2254 14.6946 0
      vertex -7.5 21.6506 100
    endloop
  endfacet
  facet normal 0.309016 -0.951057 0
    outer loop
      vertex 2.38678 24.863 0
      vertex 2.38678 24.863 100
      vertex -7.5 21.6506 0
    endloop
  endfacet
  facet normal 0.309016 -0.951057 0
    outer loop
      vertex -7.5 21.6506 100
      vertex -7.5 21.6506 0
      vertex 2.38678 24.863 100
    endloop
  endfacet
  facet normal -0.104525 -0.994522 0
    outer loop
      vertex 12.7254 23.7764 0
      vertex 12.7254 23.7764 100
      vertex 2.38678 24.863 0
    endloop
  endfacet
  facet normal -0.104525 -0.994522 -0
    outer loop
      vertex 2.38678 24.863 100
      vertex 2.38678 24.863 0
      vertex 12.7254 23.7764 100
    endloop
  endfacet
  facet normal -0.499998 -0.866027 0
    outer loop
      vertex 21.7283 18.5786 0
      vertex 21.7283 18.5786 100
      vertex 12.7254 23.7764 0
    endloop
  endfacet
  facet normal -0.499998 -0.866027 -0
    outer loop
      vertex 12.7254 23.7764 100
      vertex 12.7254 23.7764 0
      vertex 21.7283 18.5786 100
    endloop
  endfacet
  facet normal -0.80902 -0.587781 0
    outer loop
      vertex 27.8386 10.1684 0
      vertex 27.8386 10.1684 100
      vertex 21.7283 18.5786 0
    endloop
  endfacet
  facet normal -0.80902 -0.587781 -0
    outer loop
      vertex 21.7283 18.5786 100
      vertex 21.7283 18.5786 0
      vertex 27.8386 10.1684 100
    endloop
  endfacet
  facet normal -0.978147 -0.207915 0
    outer loop
      vertex 30 0 0
      vertex 30 0 100
      vertex 27.8386 10.1684 0
    endloop
  endfacet
  facet normal -0.978147 -0.207915 -0
    outer loop
      vertex 27.8386 10.1684 100
      vertex 27.8386 10.1684 0
      vertex 30 0 100
    endloop
  endfacet
  facet normal -0.978147 0.207915 0
    outer loop
      vertex 27.8386 -10.1684 0
      vertex 27.8386 -10.1684 100
      vertex 30 0 0
    endloop
  endfacet
  facet normal -0.978147 0.207915 0
    outer loop
      vertex 30 0 100
      vertex 30 0 0
      vertex 27.8386 -10.1684 100
    endloop
  endfacet
  facet normal -0.80902 0.587781 0
    outer loop
      vertex 21.7283 -18.5786 0
      vertex 21.7283 -18.5786 100
      vertex 27.8386 -10.1684 0
    endloop
  endfacet
  facet normal -0.80902 0.587781 0
    outer loop
      vertex 27.8386 -10.1684 100
      vertex 27.8386 -10.1684 0
      vertex 21.7283 -18.5786 100
    endloop
  endfacet
  facet normal -0.499998 0.866027 0
    outer loop
      vertex 12.7254 -23.7764 0
      vertex 12.7254 -23.7764 100
      vertex 21.7283 -18.5786 0
    endloop
  endfacet
  facet normal -0.499998 0.866027 0
    outer loop
      vertex 21.7283 -18.5786 100
      vertex 21.7283 -18.5786 0
      vertex 12.7254 -23.7764 100
    endloop
  endfacet
  facet normal -0.104525 0.994522 0
    outer loop
      vertex 2.38678 -24.863 0
      vertex 2.38678 -24.863 100
      vertex 12.7254 -23.7764 0
    endloop
  endfacet
  facet normal -0.104525 0.994522 0
    outer loop
      vertex 12.7254 -23.7764 100
      vertex 12.7254 -23.7764 0
      vertex 2.38678 -24.863 100
    endloop
  endfacet
  facet normal 0.309016 0.951057 -0
    outer loop
      vertex -7.5 -21.6506 0
      vertex -7.5 -21.6506 100
      vertex 2.38678 -24.863 0
    endloop
  endfacet
  facet normal 0.309016 0.951057 0
    outer loop
      vertex 2.38678 -24.863 100
      vertex 2.38678 -24.863 0
      vertex -7.5 -21.6506 100
    endloop
  endfacet
endsolid OpenSCAD_Model
