solid OpenSCAD_Model
  facet normal 1 -0 0
    outer loop
      vertex 12 2 7
      vertex 12 42 2
      vertex 12 42 7
    endloop
  endfacet
  facet normal 1 0 0
    outer loop
      vertex 12 42 2
      vertex 12 2 7
      vertex 12 2 2
    endloop
  endfacet
  facet normal -0 0 1
    outer loop
      vertex 2 42 7
      vertex 12 2 7
      vertex 12 42 7
    endloop
  endfacet
  facet normal 0 0 1
    outer loop
      vertex 12 2 7
      vertex 2 42 7
      vertex 2 2 7
    endloop
  endfacet
  facet normal 0 0 -1
    outer loop
      vertex 2 2 2
      vertex 12 42 2
      vertex 12 2 2
    endloop
  endfacet
  facet normal -0 0 -1
    outer loop
      vertex 12 42 2
      vertex 2 2 2
      vertex 2 42 2
    endloop
  endfacet
  facet normal -1 0 0
    outer loop
      vertex 2 2 2
      vertex 2 42 7
      vertex 2 42 2
    endloop
  endfacet
  facet normal -1 -0 0
    outer loop
      vertex 2 42 7
      vertex 2 2 2
      vertex 2 2 7
    endloop
  endfacet
  facet normal 0 -1 0
    outer loop
      vertex 2 2 2
      vertex 12 2 7
      vertex 2 2 7
    endloop
  endfacet
  facet normal 0 -1 -0
    outer loop
      vertex 12 2 7
      vertex 2 2 2
      vertex 12 2 2
    endloop
  endfacet
  facet normal 0 1 -0
    outer loop
      vertex 12 42 2
      vertex 2 42 7
      vertex 12 42 7
    endloop
  endfacet
  facet normal 0 1 0
    outer loop
      vertex 2 42 7
      vertex 12 42 2
      vertex 2 42 2
    endloop
  endfacet
  facet normal 1 -0 0
    outer loop
      vertex 22 2 12
      vertex 22 42 7
      vertex 22 42 12
    endloop
  endfacet
  facet normal 1 0 0
    outer loop
      vertex 22 42 7
      vertex 22 2 12
      vertex 22 2 7
    endloop
  endfacet
  facet normal -0 0 1
    outer loop
      vertex 12 42 12
      vertex 22 2 12
      vertex 22 42 12
    endloop
  endfacet
  facet normal 0 0 1
    outer loop
      vertex 22 2 12
      vertex 12 42 12
      vertex 12 2 12
    endloop
  endfacet
  facet normal 0 0 -1
    outer loop
      vertex 12 2 7
      vertex 22 42 7
      vertex 22 2 7
    endloop
  endfacet
  facet normal -0 0 -1
    outer loop
      vertex 22 42 7
      vertex 12 2 7
      vertex 12 42 7
    endloop
  endfacet
  facet normal -1 0 0
    outer loop
      vertex 12 2 7
      vertex 12 42 12
      vertex 12 42 7
    endloop
  endfacet
  facet normal -1 -0 0
    outer loop
      vertex 12 42 12
      vertex 12 2 7
      vertex 12 2 12
    endloop
  endfacet
  facet normal 0 -1 0
    outer loop
      vertex 12 2 7
      vertex 22 2 12
      vertex 12 2 12
    endloop
  endfacet
  facet normal 0 -1 -0
    outer loop
      vertex 22 2 12
      vertex 12 2 7
      vertex 22 2 7
    endloop
  endfacet
  facet normal 0 1 -0
    outer loop
      vertex 22 42 7
      vertex 12 42 12
      vertex 22 42 12
    endloop
  endfacet
  facet normal 0 1 0
    outer loop
      vertex 12 42 12
      vertex 22 42 7
      vertex 12 42 7
    endloop
  endfacet
  facet normal 1 -0 0
    outer loop
      vertex 32 2 17
      vertex 32 42 12
      vertex 32 42 17
    endloop
  endfacet
  facet normal 1 0 0
    outer loop
      vertex 32 42 12
      vertex 32 2 17
      vertex 32 2 12
    endloop
  endfacet
  facet normal -0 0 1
    outer loop
      vertex 22 42 17
      vertex 32 2 17
      vertex 32 42 17
    endloop
  endfacet
  facet normal 0 0 1
    outer loop
      vertex 32 2 17
      vertex 22 42 17
      vertex 22 2 17
    endloop
  endfacet
  facet normal 0 0 -1
    outer loop
      vertex 22 2 12
      vertex 32 42 12
      vertex 32 2 12
    endloop
  endfacet
  facet normal -0 0 -1
    outer loop
      vertex 32 42 12
      vertex 22 2 12
      vertex 22 42 12
    endloop
  endfacet
  facet normal -1 0 0
    outer loop
      vertex 22 2 12
      vertex 22 42 17
      vertex 22 42 12
    endloop
  endfacet
  facet normal -1 -0 0
    outer loop
      vertex 22 42 17
      vertex 22 2 12
      vertex 22 2 17
    endloop
  endfacet
  facet normal 0 -1 0
    outer loop
      vertex 22 2 12
      vertex 32 2 17
      vertex 22 2 17
    endloop
  endfacet
  facet normal 0 -1 -0
    outer loop
      vertex 32 2 17
      vertex 22 2 12
      vertex 32 2 12
    endloop
  endfacet
  facet normal 0 1 -0
    outer loop
      vertex 32 42 12
      vertex 22 42 17
      vertex 32 42 17
    endloop
  endfacet
  facet normal 0 1 0
    outer loop
      vertex 22 42 17
      vertex 32 42 12
      vertex 22 42 12
    endloop
  endfacet
  facet normal 1 -0 0
    outer loop
      vertex 42 2 22
      vertex 42 42 17
      vertex 42 42 22
    endloop
  endfacet
  facet normal 1 0 0
    outer loop
      vertex 42 42 17
      vertex 42 2 22
      vertex 42 2 17
    endloop
  endfacet
  facet normal -0 0 1
    outer loop
      vertex 32 42 22
      vertex 42 2 22
      vertex 42 42 22
    endloop
  endfacet
  facet normal 0 0 1
    outer loop
      vertex 42 2 22
      vertex 32 42 22
      vertex 32 2 22
    endloop
  endfacet
  facet normal 0 0 -1
    outer loop
      vertex 32 2 17
      vertex 42 42 17
      vertex 42 2 17
    endloop
  endfacet
  facet normal -0 0 -1
    outer loop
      vertex 42 42 17
      vertex 32 2 17
      vertex 32 42 17
    endloop
  endfacet
  facet normal -1 0 0
    outer loop
      vertex 32 2 17
      vertex 32 42 22
      vertex 32 42 17
    endloop
  endfacet
  facet normal -1 -0 0
    outer loop
      vertex 32 42 22
      vertex 32 2 17
      vertex 32 2 22
    endloop
  endfacet
  facet normal 0 -1 0
    outer loop
      vertex 32 2 17
      vertex 42 2 22
      vertex 32 2 22
    endloop
  endfacet
  facet normal 0 -1 -0
    outer loop
      vertex 42 2 22
      vertex 32 2 17
      vertex 42 2 17
    endloop
  endfacet
  facet normal 0 1 -0
    outer loop
      vertex 42 42 17
      vertex 32 42 22
      vertex 42 42 22
    endloop
  endfacet
  facet normal 0 1 0
    outer loop
      vertex 32 42 22
      vertex 42 42 17
      vertex 32 42 17
    endloop
  endfacet
endsolid OpenSCAD_Model
