solid OpenSCAD_Model
  facet normal 0.663123 0.748511 -0
    outer loop
      vertex 5.45548 -6.58387 0
      vertex 5 -6.18035 2
      vertex 5.45548 -6.58387 2
    endloop
  endfacet
  facet normal 0.663123 0.748511 0
    outer loop
      vertex 5 -6.18035 2
      vertex 5.45548 -6.58387 0
      vertex 5 -6.18035 0
    endloop
  endfacet
  facet normal 0 0 -1
    outer loop
      vertex 6.69131 -7.43145 0
      vertex 5.45548 -6.58387 0
      vertex 6.81296 -7.29633 0
    endloop
  endfacet
  facet normal 0 0 -1
    outer loop
      vertex 5 -8.66025 0
      vertex 5.45548 -6.58387 0
      vertex 6.69131 -7.43145 0
    endloop
  endfacet
  facet normal 0 0 -1
    outer loop
      vertex 4.54452 -6.58387 0
      vertex 5.45548 -6.58387 0
      vertex 5 -8.66025 0
    endloop
  endfacet
  facet normal 0 0 -1
    outer loop
      vertex 5.45548 -6.58387 0
      vertex 4.54452 -6.58387 0
      vertex 5 -6.18035 0
    endloop
  endfacet
  facet normal 0 0 -1
    outer loop
      vertex 2.83684 -7.48013 0
      vertex 5 -8.66025 0
      vertex 3.09017 -9.51056 0
    endloop
  endfacet
  facet normal 0 0 -1
    outer loop
      vertex 5 -8.66025 0
      vertex 2.83684 -7.48013 0
      vertex 4.54452 -6.58387 0
    endloop
  endfacet
  facet normal 0 0 -1
    outer loop
      vertex 0.964293 -7.94167 0
      vertex 3.09017 -9.51056 0
      vertex 1.04528 -9.94522 0
    endloop
  endfacet
  facet normal 0 0 -1
    outer loop
      vertex 3.09017 -9.51056 0
      vertex 0.964293 -7.94167 0
      vertex 2.83684 -7.48013 0
    endloop
  endfacet
  facet normal 0 0 -1
    outer loop
      vertex 1.04528 -9.94522 0
      vertex -0.964293 -7.94167 0
      vertex 0.964293 -7.94167 0
    endloop
  endfacet
  facet normal 0 0 -1
    outer loop
      vertex -1.04528 -9.94522 0
      vertex -0.964293 -7.94167 0
      vertex 1.04528 -9.94522 0
    endloop
  endfacet
  facet normal 0 0 -1
    outer loop
      vertex -3.09017 -9.51056 0
      vertex -0.964293 -7.94167 0
      vertex -1.04528 -9.94522 0
    endloop
  endfacet
  facet normal -0 0 -1
    outer loop
      vertex -0.964293 -7.94167 0
      vertex -3.09017 -9.51056 0
      vertex -2.83684 -7.48013 0
    endloop
  endfacet
  facet normal 0 0 -1
    outer loop
      vertex -5 -8.66025 0
      vertex -2.83684 -7.48013 0
      vertex -3.09017 -9.51056 0
    endloop
  endfacet
  facet normal -0 0 -1
    outer loop
      vertex -2.83684 -7.48013 0
      vertex -5 -8.66025 0
      vertex -4.54452 -6.58387 0
    endloop
  endfacet
  facet normal 0 0 -1
    outer loop
      vertex -5.45548 -6.58387 0
      vertex -4.54452 -6.58387 0
      vertex -5 -8.66025 0
    endloop
  endfacet
  facet normal 0 0 -1
    outer loop
      vertex -4.54452 -6.58387 0
      vertex -5.45548 -6.58387 0
      vertex -5 -6.18035 0
    endloop
  endfacet
  facet normal 0 0 -1
    outer loop
      vertex -6.69131 -7.43145 0
      vertex -5.45548 -6.58387 0
      vertex -5 -8.66025 0
    endloop
  endfacet
  facet normal 0 0 -1
    outer loop
      vertex -5.45548 -6.58387 0
      vertex -6.69131 -7.43145 0
      vertex -6.81296 -7.29633 0
    endloop
  endfacet
  facet normal 0.464723 0.885456 -0
    outer loop
      vertex 6.81296 -7.29633 0
      vertex 5.45548 -6.58387 2
      vertex 6.81296 -7.29633 2
    endloop
  endfacet
  facet normal 0.464723 0.885456 0
    outer loop
      vertex 5.45548 -6.58387 2
      vertex 6.81296 -7.29633 0
      vertex 5.45548 -6.58387 0
    endloop
  endfacet
  facet normal 0 0 -1
    outer loop
      vertex -5.45548 -6.58387 2
      vertex -5.98809 -5.30498 2
      vertex -5 -6.18035 2
    endloop
  endfacet
  facet normal 0 0 -1
    outer loop
      vertex -6.81296 -7.29633 2
      vertex -5.98809 -5.30498 2
      vertex -5.45548 -6.58387 2
    endloop
  endfacet
  facet normal 0 0 -1
    outer loop
      vertex -8.09017 -5.87785 2
      vertex -5.98809 -5.30498 2
      vertex -6.81296 -7.29633 2
    endloop
  endfacet
  facet normal -0 0 -1
    outer loop
      vertex -5.98809 -5.30498 2
      vertex -8.09017 -5.87785 2
      vertex -7.08365 -3.71778 2
    endloop
  endfacet
  facet normal -0 0 -1
    outer loop
      vertex -7.08365 -3.71778 2
      vertex -9.13545 -4.06737 2
      vertex -7.76753 -1.91453 2
    endloop
  endfacet
  facet normal 0 0 -1
    outer loop
      vertex -9.13545 -4.06737 2
      vertex -7.08365 -3.71778 2
      vertex -8.09017 -5.87785 2
    endloop
  endfacet
  facet normal 0 0 -1
    outer loop
      vertex 8 0 2
      vertex 10 0 2
      vertex 9.78148 -2.07912 2
    endloop
  endfacet
  facet normal 0 0 -1
    outer loop
      vertex 7.76753 -1.91453 2
      vertex 9.78148 -2.07912 2
      vertex 9.13545 -4.06737 2
    endloop
  endfacet
  facet normal 0 0 -1
    outer loop
      vertex 10 0 2
      vertex 8 0 2
      vertex 9.78148 2.07912 2
    endloop
  endfacet
  facet normal 0 0 -1
    outer loop
      vertex 7.08365 -3.71778 2
      vertex 9.13545 -4.06737 2
      vertex 8.09017 -5.87785 2
    endloop
  endfacet
  facet normal 0 0 -1
    outer loop
      vertex 7.76753 1.91453 2
      vertex 9.78148 2.07912 2
      vertex 8 0 2
    endloop
  endfacet
  facet normal -0 0 -1
    outer loop
      vertex 9.78148 2.07912 2
      vertex 7.76753 1.91453 2
      vertex 9.13545 4.06737 2
    endloop
  endfacet
  facet normal 0 0 -1
    outer loop
      vertex 9.78148 -2.07912 2
      vertex 7.76753 -1.91453 2
      vertex 8 0 2
    endloop
  endfacet
  facet normal 0 0 -1
    outer loop
      vertex 9.13545 -4.06737 2
      vertex 7.08365 -3.71778 2
      vertex 7.76753 -1.91453 2
    endloop
  endfacet
  facet normal 0 0 -1
    outer loop
      vertex 5.98809 -5.30498 2
      vertex 8.09017 -5.87785 2
      vertex 6.81296 -7.29633 2
    endloop
  endfacet
  facet normal 0 0 -1
    outer loop
      vertex 8.09017 -5.87785 2
      vertex 5.98809 -5.30498 2
      vertex 7.08365 -3.71778 2
    endloop
  endfacet
  facet normal 0 0 -1
    outer loop
      vertex 5.45548 -6.58387 2
      vertex 5.98809 -5.30498 2
      vertex 6.81296 -7.29633 2
    endloop
  endfacet
  facet normal 0 0 -1
    outer loop
      vertex 5.98809 -5.30498 2
      vertex 5.45548 -6.58387 2
      vertex 5 -6.18035 2
    endloop
  endfacet
  facet normal 0 0 -1
    outer loop
      vertex 7.08365 3.71778 2
      vertex 9.13545 4.06737 2
      vertex 7.76753 1.91453 2
    endloop
  endfacet
  facet normal -0 0 -1
    outer loop
      vertex 9.13545 4.06737 2
      vertex 7.08365 3.71778 2
      vertex 8.09017 5.87785 2
    endloop
  endfacet
  facet normal 0 0 -1
    outer loop
      vertex 5.98809 5.30498 2
      vertex 8.09017 5.87785 2
      vertex 7.08365 3.71778 2
    endloop
  endfacet
  facet normal -0 0 -1
    outer loop
      vertex 8.09017 5.87785 2
      vertex 5.98809 5.30498 2
      vertex 6.69131 7.43145 2
    endloop
  endfacet
  facet normal 0 0 -1
    outer loop
      vertex 4.54452 6.58387 2
      vertex 6.69131 7.43145 2
      vertex 5.98809 5.30498 2
    endloop
  endfacet
  facet normal -0 0 -1
    outer loop
      vertex 6.69131 7.43145 2
      vertex 4.54452 6.58387 2
      vertex 5 8.66025 2
    endloop
  endfacet
  facet normal 0 0 -1
    outer loop
      vertex 2.83684 7.48013 2
      vertex 5 8.66025 2
      vertex 4.54452 6.58387 2
    endloop
  endfacet
  facet normal -0 0 -1
    outer loop
      vertex 5 8.66025 2
      vertex 2.83684 7.48013 2
      vertex 3.09017 9.51056 2
    endloop
  endfacet
  facet normal 0 0 -1
    outer loop
      vertex 0.964293 7.94167 2
      vertex 3.09017 9.51056 2
      vertex 2.83684 7.48013 2
    endloop
  endfacet
  facet normal -0 0 -1
    outer loop
      vertex 3.09017 9.51056 2
      vertex 0.964293 7.94167 2
      vertex 1.04528 9.94522 2
    endloop
  endfacet
  facet normal 0 0 -1
    outer loop
      vertex -0.964293 7.94167 2
      vertex 1.04528 9.94522 2
      vertex 0.964293 7.94167 2
    endloop
  endfacet
  facet normal 0 0 -1
    outer loop
      vertex -0.964293 7.94167 2
      vertex -1.04528 9.94522 2
      vertex 1.04528 9.94522 2
    endloop
  endfacet
  facet normal 0 0 -1
    outer loop
      vertex -3.09017 9.51056 2
      vertex -0.964293 7.94167 2
      vertex -2.83684 7.48013 2
    endloop
  endfacet
  facet normal 0 0 -1
    outer loop
      vertex -0.964293 7.94167 2
      vertex -3.09017 9.51056 2
      vertex -1.04528 9.94522 2
    endloop
  endfacet
  facet normal 0 0 -1
    outer loop
      vertex -5 8.66025 2
      vertex -2.83684 7.48013 2
      vertex -4.54452 6.58387 2
    endloop
  endfacet
  facet normal 0 0 -1
    outer loop
      vertex -2.83684 7.48013 2
      vertex -5 8.66025 2
      vertex -3.09017 9.51056 2
    endloop
  endfacet
  facet normal 0 0 -1
    outer loop
      vertex -6.69131 7.43145 2
      vertex -4.54452 6.58387 2
      vertex -5.98809 5.30498 2
    endloop
  endfacet
  facet normal 0 0 -1
    outer loop
      vertex -4.54452 6.58387 2
      vertex -6.69131 7.43145 2
      vertex -5 8.66025 2
    endloop
  endfacet
  facet normal 0 0 -1
    outer loop
      vertex -8.09017 5.87785 2
      vertex -5.98809 5.30498 2
      vertex -7.08365 3.71778 2
    endloop
  endfacet
  facet normal 0 0 -1
    outer loop
      vertex -9.13545 4.06737 2
      vertex -7.08365 3.71778 2
      vertex -7.76753 1.91453 2
    endloop
  endfacet
  facet normal 0 0 -1
    outer loop
      vertex -5.98809 5.30498 2
      vertex -8.09017 5.87785 2
      vertex -6.69131 7.43145 2
    endloop
  endfacet
  facet normal 0 0 -1
    outer loop
      vertex -9.78148 2.07912 2
      vertex -7.76753 1.91453 2
      vertex -8 0 2
    endloop
  endfacet
  facet normal 0 0 -1
    outer loop
      vertex -9.78148 -2.07912 2
      vertex -7.76753 -1.91453 2
      vertex -9.13545 -4.06737 2
    endloop
  endfacet
  facet normal -0 0 -1
    outer loop
      vertex -7.76753 -1.91453 2
      vertex -9.78148 -2.07912 2
      vertex -8 0 2
    endloop
  endfacet
  facet normal 0 0 -1
    outer loop
      vertex -7.08365 3.71778 2
      vertex -9.13545 4.06737 2
      vertex -8.09017 5.87785 2
    endloop
  endfacet
  facet normal 0 0 -1
    outer loop
      vertex -10 0 2
      vertex -8 0 2
      vertex -9.78148 -2.07912 2
    endloop
  endfacet
  facet normal 0 0 -1
    outer loop
      vertex -7.76753 1.91453 2
      vertex -9.78148 2.07912 2
      vertex -9.13545 4.06737 2
    endloop
  endfacet
  facet normal 0 0 -1
    outer loop
      vertex -8 0 2
      vertex -10 0 2
      vertex -9.78148 2.07912 2
    endloop
  endfacet
  facet normal -0.663123 0.748511 0
    outer loop
      vertex -5 -6.18035 0
      vertex -5.45548 -6.58387 2
      vertex -5 -6.18035 2
    endloop
  endfacet
  facet normal -0.663123 0.748511 0
    outer loop
      vertex -5.45548 -6.58387 2
      vertex -5 -6.18035 0
      vertex -5.45548 -6.58387 0
    endloop
  endfacet
  facet normal -0.464723 0.885456 0
    outer loop
      vertex -5.45548 -6.58387 0
      vertex -6.81296 -7.29633 2
      vertex -5.45548 -6.58387 2
    endloop
  endfacet
  facet normal -0.464723 0.885456 0
    outer loop
      vertex -6.81296 -7.29633 2
      vertex -5.45548 -6.58387 0
      vertex -6.81296 -7.29633 0
    endloop
  endfacet
  facet normal -0.743179 -0.669092 0
    outer loop
      vertex -6.81296 -7.29633 0
      vertex -6.69131 -7.43145 0
      vertex -6.81296 -7.29633 2
    endloop
  endfacet
  facet normal -0.743144 -0.669132 0
    outer loop
      vertex -6.81296 -7.29633 2
      vertex -8.09017 -5.87785 5
      vertex -8.09017 -5.87785 2
    endloop
  endfacet
  facet normal -0.743147 -0.669129 -2.95345e-06
    outer loop
      vertex -6.81296 -7.29633 2
      vertex -6.69131 -7.43145 5
      vertex -8.09017 -5.87785 5
    endloop
  endfacet
  facet normal -0.743179 -0.669092 -0
    outer loop
      vertex -6.69131 -7.43145 5
      vertex -6.81296 -7.29633 2
      vertex -6.69131 -7.43145 0
    endloop
  endfacet
  facet normal 0.951055 0.309021 0
    outer loop
      vertex 9.78148 2.07912 5
      vertex 9.13545 4.06737 2
      vertex 9.13545 4.06737 5
    endloop
  endfacet
  facet normal 0.951055 0.309021 0
    outer loop
      vertex 9.13545 4.06737 2
      vertex 9.78148 2.07912 5
      vertex 9.78148 2.07912 2
    endloop
  endfacet
  facet normal 0.994522 0.104526 0
    outer loop
      vertex 10 0 5
      vertex 9.78148 2.07912 2
      vertex 9.78148 2.07912 5
    endloop
  endfacet
  facet normal 0.994522 0.104526 0
    outer loop
      vertex 9.78148 2.07912 2
      vertex 10 0 5
      vertex 10 0 2
    endloop
  endfacet
  facet normal 0.866026 0.5 0
    outer loop
      vertex 9.13545 4.06737 5
      vertex 8.09017 5.87785 2
      vertex 8.09017 5.87785 5
    endloop
  endfacet
  facet normal 0.866026 0.5 0
    outer loop
      vertex 8.09017 5.87785 2
      vertex 9.13545 4.06737 5
      vertex 9.13545 4.06737 2
    endloop
  endfacet
  facet normal 0.951055 -0.309021 0
    outer loop
      vertex 9.13545 -4.06737 5
      vertex 9.78148 -2.07912 2
      vertex 9.78148 -2.07912 5
    endloop
  endfacet
  facet normal 0.951055 -0.309021 0
    outer loop
      vertex 9.78148 -2.07912 2
      vertex 9.13545 -4.06737 5
      vertex 9.13545 -4.06737 2
    endloop
  endfacet
  facet normal 0.587783 -0.809019 0
    outer loop
      vertex 5 -8.66025 0
      vertex 6.69131 -7.43145 5
      vertex 5 -8.66025 5
    endloop
  endfacet
  facet normal 0.587783 -0.809019 0
    outer loop
      vertex 6.69131 -7.43145 5
      vertex 5 -8.66025 0
      vertex 6.69131 -7.43145 0
    endloop
  endfacet
  facet normal 0.743144 -0.669132 0
    outer loop
      vertex 8.09017 -5.87785 5
      vertex 6.81296 -7.29633 2
      vertex 8.09017 -5.87785 2
    endloop
  endfacet
  facet normal 0.743147 -0.669129 -2.95345e-06
    outer loop
      vertex 6.69131 -7.43145 5
      vertex 6.81296 -7.29633 2
      vertex 8.09017 -5.87785 5
    endloop
  endfacet
  facet normal 0.743179 -0.669092 0
    outer loop
      vertex 6.69131 -7.43145 0
      vertex 6.81296 -7.29633 2
      vertex 6.69131 -7.43145 5
    endloop
  endfacet
  facet normal 0.743179 -0.669092 0
    outer loop
      vertex 6.81296 -7.29633 2
      vertex 6.69131 -7.43145 0
      vertex 6.81296 -7.29633 0
    endloop
  endfacet
  facet normal 0.994522 -0.104526 0
    outer loop
      vertex 9.78148 -2.07912 5
      vertex 10 0 2
      vertex 10 0 5
    endloop
  endfacet
  facet normal 0.994522 -0.104526 0
    outer loop
      vertex 10 0 2
      vertex 9.78148 -2.07912 5
      vertex 9.78148 -2.07912 2
    endloop
  endfacet
  facet normal -0.406736 -0.913546 0
    outer loop
      vertex -5 -8.66025 0
      vertex -3.09017 -9.51056 5
      vertex -5 -8.66025 5
    endloop
  endfacet
  facet normal -0.406736 -0.913546 -0
    outer loop
      vertex -3.09017 -9.51056 5
      vertex -5 -8.66025 0
      vertex -3.09017 -9.51056 0
    endloop
  endfacet
  facet normal 0.406736 0.913546 -0
    outer loop
      vertex 5 8.66025 2
      vertex 3.09017 9.51056 5
      vertex 5 8.66025 5
    endloop
  endfacet
  facet normal 0.406736 0.913546 0
    outer loop
      vertex 3.09017 9.51056 5
      vertex 5 8.66025 2
      vertex 3.09017 9.51056 2
    endloop
  endfacet
  facet normal 0.743147 0.669129 0
    outer loop
      vertex 8.09017 5.87785 5
      vertex 6.69131 7.43145 2
      vertex 6.69131 7.43145 5
    endloop
  endfacet
  facet normal 0.743147 0.669129 0
    outer loop
      vertex 6.69131 7.43145 2
      vertex 8.09017 5.87785 5
      vertex 8.09017 5.87785 2
    endloop
  endfacet
  facet normal -0.587783 -0.809019 0
    outer loop
      vertex -6.69131 -7.43145 0
      vertex -5 -8.66025 5
      vertex -6.69131 -7.43145 5
    endloop
  endfacet
  facet normal -0.587783 -0.809019 -0
    outer loop
      vertex -5 -8.66025 5
      vertex -6.69131 -7.43145 0
      vertex -5 -8.66025 0
    endloop
  endfacet
  facet normal -0.743147 0.669129 0
    outer loop
      vertex -8.09017 5.87785 2
      vertex -6.69131 7.43145 5
      vertex -6.69131 7.43145 2
    endloop
  endfacet
  facet normal -0.743147 0.669129 0
    outer loop
      vertex -6.69131 7.43145 5
      vertex -8.09017 5.87785 2
      vertex -8.09017 5.87785 5
    endloop
  endfacet
  facet normal 0 1 -0
    outer loop
      vertex 1.04528 9.94522 2
      vertex -1.04528 9.94522 5
      vertex 1.04528 9.94522 5
    endloop
  endfacet
  facet normal 0 1 0
    outer loop
      vertex -1.04528 9.94522 5
      vertex 1.04528 9.94522 2
      vertex -1.04528 9.94522 2
    endloop
  endfacet
  facet normal 0.406736 -0.913546 0
    outer loop
      vertex 3.09017 -9.51056 0
      vertex 5 -8.66025 5
      vertex 3.09017 -9.51056 5
    endloop
  endfacet
  facet normal 0.406736 -0.913546 0
    outer loop
      vertex 5 -8.66025 5
      vertex 3.09017 -9.51056 0
      vertex 5 -8.66025 0
    endloop
  endfacet
  facet normal 0.207914 -0.978147 0
    outer loop
      vertex 1.04528 -9.94522 0
      vertex 3.09017 -9.51056 5
      vertex 1.04528 -9.94522 5
    endloop
  endfacet
  facet normal 0.207914 -0.978147 0
    outer loop
      vertex 3.09017 -9.51056 5
      vertex 1.04528 -9.94522 0
      vertex 3.09017 -9.51056 0
    endloop
  endfacet
  facet normal -0.951055 0.309021 0
    outer loop
      vertex -9.78148 2.07912 2
      vertex -9.13545 4.06737 5
      vertex -9.13545 4.06737 2
    endloop
  endfacet
  facet normal -0.951055 0.309021 0
    outer loop
      vertex -9.13545 4.06737 5
      vertex -9.78148 2.07912 2
      vertex -9.78148 2.07912 5
    endloop
  endfacet
  facet normal -0.951055 -0.309021 0
    outer loop
      vertex -9.13545 -4.06737 2
      vertex -9.78148 -2.07912 5
      vertex -9.78148 -2.07912 2
    endloop
  endfacet
  facet normal -0.951055 -0.309021 0
    outer loop
      vertex -9.78148 -2.07912 5
      vertex -9.13545 -4.06737 2
      vertex -9.13545 -4.06737 5
    endloop
  endfacet
  facet normal -0.406736 0.913546 0
    outer loop
      vertex -3.09017 9.51056 2
      vertex -5 8.66025 5
      vertex -3.09017 9.51056 5
    endloop
  endfacet
  facet normal -0.406736 0.913546 0
    outer loop
      vertex -5 8.66025 5
      vertex -3.09017 9.51056 2
      vertex -5 8.66025 2
    endloop
  endfacet
  facet normal 0 0 1
    outer loop
      vertex 8 0 5
      vertex 10 0 5
      vertex 9.78148 2.07912 5
    endloop
  endfacet
  facet normal 0 0 1
    outer loop
      vertex 7.76753 1.91453 5
      vertex 9.78148 2.07912 5
      vertex 9.13545 4.06737 5
    endloop
  endfacet
  facet normal 0 0 1
    outer loop
      vertex 10 0 5
      vertex 8 0 5
      vertex 9.78148 -2.07912 5
    endloop
  endfacet
  facet normal 0 0 1
    outer loop
      vertex 7.08365 3.71778 5
      vertex 9.13545 4.06737 5
      vertex 8.09017 5.87785 5
    endloop
  endfacet
  facet normal -0 0 1
    outer loop
      vertex 7.76753 -1.91453 5
      vertex 9.78148 -2.07912 5
      vertex 8 0 5
    endloop
  endfacet
  facet normal 0 0 1
    outer loop
      vertex 9.78148 -2.07912 5
      vertex 7.76753 -1.91453 5
      vertex 9.13545 -4.06737 5
    endloop
  endfacet
  facet normal 0 0 1
    outer loop
      vertex 9.78148 2.07912 5
      vertex 7.76753 1.91453 5
      vertex 8 0 5
    endloop
  endfacet
  facet normal 0 0 1
    outer loop
      vertex 9.13545 4.06737 5
      vertex 7.08365 3.71778 5
      vertex 7.76753 1.91453 5
    endloop
  endfacet
  facet normal 0 0 1
    outer loop
      vertex 5.98809 5.30498 5
      vertex 8.09017 5.87785 5
      vertex 6.69131 7.43145 5
    endloop
  endfacet
  facet normal 0 0 1
    outer loop
      vertex 8.09017 5.87785 5
      vertex 5.98809 5.30498 5
      vertex 7.08365 3.71778 5
    endloop
  endfacet
  facet normal 0 0 1
    outer loop
      vertex 4.54452 6.58387 5
      vertex 6.69131 7.43145 5
      vertex 5 8.66025 5
    endloop
  endfacet
  facet normal 0 0 1
    outer loop
      vertex 6.69131 7.43145 5
      vertex 4.54452 6.58387 5
      vertex 5.98809 5.30498 5
    endloop
  endfacet
  facet normal 0 0 1
    outer loop
      vertex 2.83684 7.48013 5
      vertex 5 8.66025 5
      vertex 3.09017 9.51056 5
    endloop
  endfacet
  facet normal 0 0 1
    outer loop
      vertex 5 8.66025 5
      vertex 2.83684 7.48013 5
      vertex 4.54452 6.58387 5
    endloop
  endfacet
  facet normal 0 0 1
    outer loop
      vertex 0.964293 7.94167 5
      vertex 3.09017 9.51056 5
      vertex 1.04528 9.94522 5
    endloop
  endfacet
  facet normal 0 0 1
    outer loop
      vertex 3.09017 9.51056 5
      vertex 0.964293 7.94167 5
      vertex 2.83684 7.48013 5
    endloop
  endfacet
  facet normal 0 0 1
    outer loop
      vertex 1.04528 9.94522 5
      vertex -0.964293 7.94167 5
      vertex 0.964293 7.94167 5
    endloop
  endfacet
  facet normal -0 0 1
    outer loop
      vertex -1.04528 9.94522 5
      vertex -0.964293 7.94167 5
      vertex 1.04528 9.94522 5
    endloop
  endfacet
  facet normal -0 0 1
    outer loop
      vertex -3.09017 9.51056 5
      vertex -0.964293 7.94167 5
      vertex -1.04528 9.94522 5
    endloop
  endfacet
  facet normal 0 0 1
    outer loop
      vertex -0.964293 7.94167 5
      vertex -3.09017 9.51056 5
      vertex -2.83684 7.48013 5
    endloop
  endfacet
  facet normal -0 0 1
    outer loop
      vertex -5 8.66025 5
      vertex -2.83684 7.48013 5
      vertex -3.09017 9.51056 5
    endloop
  endfacet
  facet normal 0 0 1
    outer loop
      vertex -2.83684 7.48013 5
      vertex -5 8.66025 5
      vertex -4.54452 6.58387 5
    endloop
  endfacet
  facet normal -0 0 1
    outer loop
      vertex -6.69131 7.43145 5
      vertex -4.54452 6.58387 5
      vertex -5 8.66025 5
    endloop
  endfacet
  facet normal 0 0 1
    outer loop
      vertex -4.54452 6.58387 5
      vertex -6.69131 7.43145 5
      vertex -5.98809 5.30498 5
    endloop
  endfacet
  facet normal -0 0 1
    outer loop
      vertex -8.09017 5.87785 5
      vertex -5.98809 5.30498 5
      vertex -6.69131 7.43145 5
    endloop
  endfacet
  facet normal 0 0 1
    outer loop
      vertex -5.98809 5.30498 5
      vertex -8.09017 5.87785 5
      vertex -7.08365 3.71778 5
    endloop
  endfacet
  facet normal 0 0 1
    outer loop
      vertex -7.08365 3.71778 5
      vertex -9.13545 4.06737 5
      vertex -7.76753 1.91453 5
    endloop
  endfacet
  facet normal -0 0 1
    outer loop
      vertex -9.13545 4.06737 5
      vertex -7.08365 3.71778 5
      vertex -8.09017 5.87785 5
    endloop
  endfacet
  facet normal -0 0 1
    outer loop
      vertex 7.08365 -3.71778 5
      vertex 9.13545 -4.06737 5
      vertex 7.76753 -1.91453 5
    endloop
  endfacet
  facet normal 0 0 1
    outer loop
      vertex 9.13545 -4.06737 5
      vertex 7.08365 -3.71778 5
      vertex 8.09017 -5.87785 5
    endloop
  endfacet
  facet normal -0 0 1
    outer loop
      vertex 5.98809 -5.30498 5
      vertex 8.09017 -5.87785 5
      vertex 7.08365 -3.71778 5
    endloop
  endfacet
  facet normal 0 0 1
    outer loop
      vertex 8.09017 -5.87785 5
      vertex 5.98809 -5.30498 5
      vertex 6.69131 -7.43145 5
    endloop
  endfacet
  facet normal -0 0 1
    outer loop
      vertex 4.54452 -6.58387 5
      vertex 6.69131 -7.43145 5
      vertex 5.98809 -5.30498 5
    endloop
  endfacet
  facet normal 0 0 1
    outer loop
      vertex 6.69131 -7.43145 5
      vertex 4.54452 -6.58387 5
      vertex 5 -8.66025 5
    endloop
  endfacet
  facet normal -0 0 1
    outer loop
      vertex 2.83684 -7.48013 5
      vertex 5 -8.66025 5
      vertex 4.54452 -6.58387 5
    endloop
  endfacet
  facet normal 0 0 1
    outer loop
      vertex 5 -8.66025 5
      vertex 2.83684 -7.48013 5
      vertex 3.09017 -9.51056 5
    endloop
  endfacet
  facet normal -0 0 1
    outer loop
      vertex 0.964293 -7.94167 5
      vertex 3.09017 -9.51056 5
      vertex 2.83684 -7.48013 5
    endloop
  endfacet
  facet normal 0 0 1
    outer loop
      vertex 3.09017 -9.51056 5
      vertex 0.964293 -7.94167 5
      vertex 1.04528 -9.94522 5
    endloop
  endfacet
  facet normal -0 0 1
    outer loop
      vertex -0.964293 -7.94167 5
      vertex 1.04528 -9.94522 5
      vertex 0.964293 -7.94167 5
    endloop
  endfacet
  facet normal 0 0 1
    outer loop
      vertex -0.964293 -7.94167 5
      vertex -1.04528 -9.94522 5
      vertex 1.04528 -9.94522 5
    endloop
  endfacet
  facet normal 0 0 1
    outer loop
      vertex -3.09017 -9.51056 5
      vertex -0.964293 -7.94167 5
      vertex -2.83684 -7.48013 5
    endloop
  endfacet
  facet normal 0 0 1
    outer loop
      vertex -0.964293 -7.94167 5
      vertex -3.09017 -9.51056 5
      vertex -1.04528 -9.94522 5
    endloop
  endfacet
  facet normal 0 0 1
    outer loop
      vertex -5 -8.66025 5
      vertex -2.83684 -7.48013 5
      vertex -4.54452 -6.58387 5
    endloop
  endfacet
  facet normal 0 0 1
    outer loop
      vertex -2.83684 -7.48013 5
      vertex -5 -8.66025 5
      vertex -3.09017 -9.51056 5
    endloop
  endfacet
  facet normal 0 0 1
    outer loop
      vertex -6.69131 -7.43145 5
      vertex -4.54452 -6.58387 5
      vertex -5.98809 -5.30498 5
    endloop
  endfacet
  facet normal 0 0 1
    outer loop
      vertex -4.54452 -6.58387 5
      vertex -6.69131 -7.43145 5
      vertex -5 -8.66025 5
    endloop
  endfacet
  facet normal 0 0 1
    outer loop
      vertex -8.09017 -5.87785 5
      vertex -5.98809 -5.30498 5
      vertex -7.08365 -3.71778 5
    endloop
  endfacet
  facet normal 0 0 1
    outer loop
      vertex -9.13545 -4.06737 5
      vertex -7.08365 -3.71778 5
      vertex -7.76753 -1.91453 5
    endloop
  endfacet
  facet normal 0 0 1
    outer loop
      vertex -5.98809 -5.30498 5
      vertex -8.09017 -5.87785 5
      vertex -6.69131 -7.43145 5
    endloop
  endfacet
  facet normal 0 0 1
    outer loop
      vertex -9.78148 -2.07912 5
      vertex -7.76753 -1.91453 5
      vertex -8 0 5
    endloop
  endfacet
  facet normal -0 0 1
    outer loop
      vertex -9.78148 2.07912 5
      vertex -7.76753 1.91453 5
      vertex -9.13545 4.06737 5
    endloop
  endfacet
  facet normal 0 0 1
    outer loop
      vertex -7.76753 1.91453 5
      vertex -9.78148 2.07912 5
      vertex -8 0 5
    endloop
  endfacet
  facet normal 0 0 1
    outer loop
      vertex -7.08365 -3.71778 5
      vertex -9.13545 -4.06737 5
      vertex -8.09017 -5.87785 5
    endloop
  endfacet
  facet normal 0 0 1
    outer loop
      vertex -10 0 5
      vertex -8 0 5
      vertex -9.78148 2.07912 5
    endloop
  endfacet
  facet normal 0 0 1
    outer loop
      vertex -7.76753 -1.91453 5
      vertex -9.78148 -2.07912 5
      vertex -9.13545 -4.06737 5
    endloop
  endfacet
  facet normal 0 0 1
    outer loop
      vertex -8 0 5
      vertex -10 0 5
      vertex -9.78148 -2.07912 5
    endloop
  endfacet
  facet normal -0.207914 -0.978147 0
    outer loop
      vertex -3.09017 -9.51056 0
      vertex -1.04528 -9.94522 5
      vertex -3.09017 -9.51056 5
    endloop
  endfacet
  facet normal -0.207914 -0.978147 -0
    outer loop
      vertex -1.04528 -9.94522 5
      vertex -3.09017 -9.51056 0
      vertex -1.04528 -9.94522 0
    endloop
  endfacet
  facet normal 0.207914 0.978147 -0
    outer loop
      vertex 3.09017 9.51056 2
      vertex 1.04528 9.94522 5
      vertex 3.09017 9.51056 5
    endloop
  endfacet
  facet normal 0.207914 0.978147 0
    outer loop
      vertex 1.04528 9.94522 5
      vertex 3.09017 9.51056 2
      vertex 1.04528 9.94522 2
    endloop
  endfacet
  facet normal -0.994522 -0.104526 0
    outer loop
      vertex -9.78148 -2.07912 2
      vertex -10 0 5
      vertex -10 0 2
    endloop
  endfacet
  facet normal -0.994522 -0.104526 0
    outer loop
      vertex -10 0 5
      vertex -9.78148 -2.07912 2
      vertex -9.78148 -2.07912 5
    endloop
  endfacet
  facet normal -0.866026 -0.5 0
    outer loop
      vertex -8.09017 -5.87785 2
      vertex -9.13545 -4.06737 5
      vertex -9.13545 -4.06737 2
    endloop
  endfacet
  facet normal -0.866026 -0.5 0
    outer loop
      vertex -9.13545 -4.06737 5
      vertex -8.09017 -5.87785 2
      vertex -8.09017 -5.87785 5
    endloop
  endfacet
  facet normal -0.866026 0.5 0
    outer loop
      vertex -9.13545 4.06737 2
      vertex -8.09017 5.87785 5
      vertex -8.09017 5.87785 2
    endloop
  endfacet
  facet normal -0.866026 0.5 0
    outer loop
      vertex -8.09017 5.87785 5
      vertex -9.13545 4.06737 2
      vertex -9.13545 4.06737 5
    endloop
  endfacet
  facet normal 0.866026 -0.5 0
    outer loop
      vertex 8.09017 -5.87785 5
      vertex 9.13545 -4.06737 2
      vertex 9.13545 -4.06737 5
    endloop
  endfacet
  facet normal 0.866026 -0.5 0
    outer loop
      vertex 9.13545 -4.06737 2
      vertex 8.09017 -5.87785 5
      vertex 8.09017 -5.87785 2
    endloop
  endfacet
  facet normal 0.587783 0.809019 -0
    outer loop
      vertex 6.69131 7.43145 2
      vertex 5 8.66025 5
      vertex 6.69131 7.43145 5
    endloop
  endfacet
  facet normal 0.587783 0.809019 0
    outer loop
      vertex 5 8.66025 5
      vertex 6.69131 7.43145 2
      vertex 5 8.66025 2
    endloop
  endfacet
  facet normal -0.587783 0.809019 0
    outer loop
      vertex -5 8.66025 2
      vertex -6.69131 7.43145 5
      vertex -5 8.66025 5
    endloop
  endfacet
  facet normal -0.587783 0.809019 0
    outer loop
      vertex -6.69131 7.43145 5
      vertex -5 8.66025 2
      vertex -6.69131 7.43145 2
    endloop
  endfacet
  facet normal -0.207914 0.978147 0
    outer loop
      vertex -1.04528 9.94522 2
      vertex -3.09017 9.51056 5
      vertex -1.04528 9.94522 5
    endloop
  endfacet
  facet normal -0.207914 0.978147 0
    outer loop
      vertex -3.09017 9.51056 5
      vertex -1.04528 9.94522 2
      vertex -3.09017 9.51056 2
    endloop
  endfacet
  facet normal 0 -1 0
    outer loop
      vertex -1.04528 -9.94522 0
      vertex 1.04528 -9.94522 5
      vertex -1.04528 -9.94522 5
    endloop
  endfacet
  facet normal 0 -1 -0
    outer loop
      vertex 1.04528 -9.94522 5
      vertex -1.04528 -9.94522 0
      vertex 1.04528 -9.94522 0
    endloop
  endfacet
  facet normal -0.994522 0.104526 0
    outer loop
      vertex -10 0 2
      vertex -9.78148 2.07912 5
      vertex -9.78148 2.07912 2
    endloop
  endfacet
  facet normal -0.994522 0.104526 0
    outer loop
      vertex -9.78148 2.07912 5
      vertex -10 0 2
      vertex -10 0 5
    endloop
  endfacet
  facet normal 0.239315 0.970942 -0
    outer loop
      vertex -0.964293 -7.94167 0
      vertex -2.83684 -7.48013 5
      vertex -0.964293 -7.94167 5
    endloop
  endfacet
  facet normal 0.239315 0.970942 0
    outer loop
      vertex -2.83684 -7.48013 5
      vertex -0.964293 -7.94167 0
      vertex -2.83684 -7.48013 0
    endloop
  endfacet
  facet normal -0.663122 0.748511 0
    outer loop
      vertex 5 -6.18035 2
      vertex 5.98809 -5.30498 5
      vertex 5.98809 -5.30498 2
    endloop
  endfacet
  facet normal -0.663122 0.748511 9.49226e-08
    outer loop
      vertex 5.98809 -5.30498 5
      vertex 5 -6.18035 2
      vertex 4.54452 -6.58387 5
    endloop
  endfacet
  facet normal -0.663123 0.748511 0
    outer loop
      vertex 4.54452 -6.58387 0
      vertex 5 -6.18035 2
      vertex 5 -6.18035 0
    endloop
  endfacet
  facet normal -0.663123 0.748511 0
    outer loop
      vertex 5 -6.18035 2
      vertex 4.54452 -6.58387 0
      vertex 4.54452 -6.58387 5
    endloop
  endfacet
  facet normal -0.935017 -0.354604 0
    outer loop
      vertex 7.76753 1.91453 2
      vertex 7.08365 3.71778 5
      vertex 7.08365 3.71778 2
    endloop
  endfacet
  facet normal -0.935017 -0.354604 0
    outer loop
      vertex 7.08365 3.71778 5
      vertex 7.76753 1.91453 2
      vertex 7.76753 1.91453 5
    endloop
  endfacet
  facet normal -0.992709 -0.120539 0
    outer loop
      vertex 8 0 2
      vertex 7.76753 1.91453 5
      vertex 7.76753 1.91453 2
    endloop
  endfacet
  facet normal -0.992709 -0.120539 0
    outer loop
      vertex 7.76753 1.91453 5
      vertex 8 0 2
      vertex 8 0 5
    endloop
  endfacet
  facet normal -0.822985 -0.568063 0
    outer loop
      vertex 7.08365 3.71778 2
      vertex 5.98809 5.30498 5
      vertex 5.98809 5.30498 2
    endloop
  endfacet
  facet normal -0.822985 -0.568063 0
    outer loop
      vertex 5.98809 5.30498 5
      vertex 7.08365 3.71778 2
      vertex 7.08365 3.71778 5
    endloop
  endfacet
  facet normal 0.663122 0.748511 9.49226e-08
    outer loop
      vertex -4.54452 -6.58387 5
      vertex -5 -6.18035 2
      vertex -5.98809 -5.30498 5
    endloop
  endfacet
  facet normal 0.663123 0.748511 -0
    outer loop
      vertex -4.54452 -6.58387 0
      vertex -5 -6.18035 2
      vertex -4.54452 -6.58387 5
    endloop
  endfacet
  facet normal 0.663123 0.748511 0
    outer loop
      vertex -5 -6.18035 2
      vertex -4.54452 -6.58387 0
      vertex -5 -6.18035 0
    endloop
  endfacet
  facet normal 0.663122 0.748511 0
    outer loop
      vertex -5.98809 -5.30498 5
      vertex -5 -6.18035 2
      vertex -5.98809 -5.30498 2
    endloop
  endfacet
  facet normal -0.992709 0.120539 0
    outer loop
      vertex 7.76753 -1.91453 2
      vertex 8 0 5
      vertex 8 0 2
    endloop
  endfacet
  facet normal -0.992709 0.120539 0
    outer loop
      vertex 8 0 5
      vertex 7.76753 -1.91453 2
      vertex 7.76753 -1.91453 5
    endloop
  endfacet
  facet normal -0.663122 -0.748511 0
    outer loop
      vertex 4.54452 6.58387 2
      vertex 5.98809 5.30498 5
      vertex 4.54452 6.58387 5
    endloop
  endfacet
  facet normal -0.663122 -0.748511 -0
    outer loop
      vertex 5.98809 5.30498 5
      vertex 4.54452 6.58387 2
      vertex 5.98809 5.30498 2
    endloop
  endfacet
  facet normal 0.663122 -0.748511 0
    outer loop
      vertex -5.98809 5.30498 2
      vertex -4.54452 6.58387 5
      vertex -5.98809 5.30498 5
    endloop
  endfacet
  facet normal 0.663122 -0.748511 0
    outer loop
      vertex -4.54452 6.58387 5
      vertex -5.98809 5.30498 2
      vertex -4.54452 6.58387 2
    endloop
  endfacet
  facet normal -0.239315 0.970942 0
    outer loop
      vertex 2.83684 -7.48013 0
      vertex 0.964293 -7.94167 5
      vertex 2.83684 -7.48013 5
    endloop
  endfacet
  facet normal -0.239315 0.970942 0
    outer loop
      vertex 0.964293 -7.94167 5
      vertex 2.83684 -7.48013 0
      vertex 0.964293 -7.94167 0
    endloop
  endfacet
  facet normal -0.822985 0.568063 0
    outer loop
      vertex 5.98809 -5.30498 2
      vertex 7.08365 -3.71778 5
      vertex 7.08365 -3.71778 2
    endloop
  endfacet
  facet normal -0.822985 0.568063 0
    outer loop
      vertex 7.08365 -3.71778 5
      vertex 5.98809 -5.30498 2
      vertex 5.98809 -5.30498 5
    endloop
  endfacet
  facet normal -0.464723 -0.885456 0
    outer loop
      vertex 2.83684 7.48013 2
      vertex 4.54452 6.58387 5
      vertex 2.83684 7.48013 5
    endloop
  endfacet
  facet normal -0.464723 -0.885456 -0
    outer loop
      vertex 4.54452 6.58387 5
      vertex 2.83684 7.48013 2
      vertex 4.54452 6.58387 2
    endloop
  endfacet
  facet normal 0.992709 -0.120539 0
    outer loop
      vertex -8 0 5
      vertex -7.76753 1.91453 2
      vertex -7.76753 1.91453 5
    endloop
  endfacet
  facet normal 0.992709 -0.120539 0
    outer loop
      vertex -7.76753 1.91453 2
      vertex -8 0 5
      vertex -8 0 2
    endloop
  endfacet
  facet normal -0.935017 0.354604 0
    outer loop
      vertex 7.08365 -3.71778 2
      vertex 7.76753 -1.91453 5
      vertex 7.76753 -1.91453 2
    endloop
  endfacet
  facet normal -0.935017 0.354604 0
    outer loop
      vertex 7.76753 -1.91453 5
      vertex 7.08365 -3.71778 2
      vertex 7.08365 -3.71778 5
    endloop
  endfacet
  facet normal 0 -1 0
    outer loop
      vertex -0.964293 7.94167 2
      vertex 0.964293 7.94167 5
      vertex -0.964293 7.94167 5
    endloop
  endfacet
  facet normal 0 -1 -0
    outer loop
      vertex 0.964293 7.94167 5
      vertex -0.964293 7.94167 2
      vertex 0.964293 7.94167 2
    endloop
  endfacet
  facet normal 0.992709 0.120539 0
    outer loop
      vertex -7.76753 -1.91453 5
      vertex -8 0 2
      vertex -8 0 5
    endloop
  endfacet
  facet normal 0.992709 0.120539 0
    outer loop
      vertex -8 0 2
      vertex -7.76753 -1.91453 5
      vertex -7.76753 -1.91453 2
    endloop
  endfacet
  facet normal -0.464723 0.885456 0
    outer loop
      vertex 4.54452 -6.58387 0
      vertex 2.83684 -7.48013 5
      vertex 4.54452 -6.58387 5
    endloop
  endfacet
  facet normal -0.464723 0.885456 0
    outer loop
      vertex 2.83684 -7.48013 5
      vertex 4.54452 -6.58387 0
      vertex 2.83684 -7.48013 0
    endloop
  endfacet
  facet normal 0.464723 -0.885456 0
    outer loop
      vertex -4.54452 6.58387 2
      vertex -2.83684 7.48013 5
      vertex -4.54452 6.58387 5
    endloop
  endfacet
  facet normal 0.464723 -0.885456 0
    outer loop
      vertex -2.83684 7.48013 5
      vertex -4.54452 6.58387 2
      vertex -2.83684 7.48013 2
    endloop
  endfacet
  facet normal 0.239315 -0.970942 0
    outer loop
      vertex -2.83684 7.48013 2
      vertex -0.964293 7.94167 5
      vertex -2.83684 7.48013 5
    endloop
  endfacet
  facet normal 0.239315 -0.970942 0
    outer loop
      vertex -0.964293 7.94167 5
      vertex -2.83684 7.48013 2
      vertex -0.964293 7.94167 2
    endloop
  endfacet
  facet normal -0.239315 -0.970942 0
    outer loop
      vertex 0.964293 7.94167 2
      vertex 2.83684 7.48013 5
      vertex 0.964293 7.94167 5
    endloop
  endfacet
  facet normal -0.239315 -0.970942 -0
    outer loop
      vertex 2.83684 7.48013 5
      vertex 0.964293 7.94167 2
      vertex 2.83684 7.48013 2
    endloop
  endfacet
  facet normal 0 1 -0
    outer loop
      vertex 0.964293 -7.94167 0
      vertex -0.964293 -7.94167 5
      vertex 0.964293 -7.94167 5
    endloop
  endfacet
  facet normal 0 1 0
    outer loop
      vertex -0.964293 -7.94167 5
      vertex 0.964293 -7.94167 0
      vertex -0.964293 -7.94167 0
    endloop
  endfacet
  facet normal 0.935017 0.354604 0
    outer loop
      vertex -7.08365 -3.71778 5
      vertex -7.76753 -1.91453 2
      vertex -7.76753 -1.91453 5
    endloop
  endfacet
  facet normal 0.935017 0.354604 0
    outer loop
      vertex -7.76753 -1.91453 2
      vertex -7.08365 -3.71778 5
      vertex -7.08365 -3.71778 2
    endloop
  endfacet
  facet normal 0.822985 -0.568063 0
    outer loop
      vertex -7.08365 3.71778 5
      vertex -5.98809 5.30498 2
      vertex -5.98809 5.30498 5
    endloop
  endfacet
  facet normal 0.822985 -0.568063 0
    outer loop
      vertex -5.98809 5.30498 2
      vertex -7.08365 3.71778 5
      vertex -7.08365 3.71778 2
    endloop
  endfacet
  facet normal 0.822985 0.568063 0
    outer loop
      vertex -5.98809 -5.30498 5
      vertex -7.08365 -3.71778 2
      vertex -7.08365 -3.71778 5
    endloop
  endfacet
  facet normal 0.822985 0.568063 0
    outer loop
      vertex -7.08365 -3.71778 2
      vertex -5.98809 -5.30498 5
      vertex -5.98809 -5.30498 2
    endloop
  endfacet
  facet normal 0.464723 0.885456 -0
    outer loop
      vertex -2.83684 -7.48013 0
      vertex -4.54452 -6.58387 5
      vertex -2.83684 -7.48013 5
    endloop
  endfacet
  facet normal 0.464723 0.885456 0
    outer loop
      vertex -4.54452 -6.58387 5
      vertex -2.83684 -7.48013 0
      vertex -4.54452 -6.58387 0
    endloop
  endfacet
  facet normal 0.935017 -0.354604 0
    outer loop
      vertex -7.76753 1.91453 5
      vertex -7.08365 3.71778 2
      vertex -7.08365 3.71778 5
    endloop
  endfacet
  facet normal 0.935017 -0.354604 0
    outer loop
      vertex -7.08365 3.71778 2
      vertex -7.76753 1.91453 5
      vertex -7.76753 1.91453 2
    endloop
  endfacet
endsolid OpenSCAD_Model
