solid OpenSCAD_Model
  facet normal -0 0 -1
    outer loop
      vertex 10 0 0
      vertex 7.07106 -7.07106 0
      vertex 7.07106 7.07106 0
    endloop
  endfacet
  facet normal 0 0 -1
    outer loop
      vertex 7.07106 -7.07106 0
      vertex -7.07106 7.07106 0
      vertex 7.07106 7.07106 0
    endloop
  endfacet
  facet normal 0 0 -1
    outer loop
      vertex -7.07106 7.07106 0
      vertex 0 10 0
      vertex 7.07106 7.07106 0
    endloop
  endfacet
  facet normal 0 0 -1
    outer loop
      vertex 7.07106 -7.07106 0
      vertex -7.07106 -7.07106 0
      vertex -7.07106 7.07106 0
    endloop
  endfacet
  facet normal 0 -0 -1
    outer loop
      vertex -7.07106 7.07106 0
      vertex -7.07106 -7.07106 0
      vertex -10 0 0
    endloop
  endfacet
  facet normal -0 0 -1
    outer loop
      vertex 7.07106 -7.07106 0
      vertex 0 -10 0
      vertex -7.07106 -7.07106 0
    endloop
  endfacet
  facet normal 0 0 1
    outer loop
      vertex 7.07106 7.07106 5
      vertex 7.07106 -7.07106 5
      vertex 10 0 5
    endloop
  endfacet
  facet normal 0 0 1
    outer loop
      vertex 7.07106 7.07106 5
      vertex -7.07106 7.07106 5
      vertex 7.07106 -7.07106 5
    endloop
  endfacet
  facet normal 0 0 1
    outer loop
      vertex 7.07106 7.07106 5
      vertex 0 10 5
      vertex -7.07106 7.07106 5
    endloop
  endfacet
  facet normal 0 0 1
    outer loop
      vertex -7.07106 7.07106 5
      vertex -7.07106 -7.07106 5
      vertex 7.07106 -7.07106 5
    endloop
  endfacet
  facet normal -0 0 1
    outer loop
      vertex -10 0 5
      vertex -7.07106 -7.07106 5
      vertex -7.07106 7.07106 5
    endloop
  endfacet
  facet normal -0 0 1
    outer loop
      vertex -7.07106 -7.07106 5
      vertex 0 -10 5
      vertex 7.07106 -7.07106 5
    endloop
  endfacet
  facet normal 0.923879 -0.382685 0
    outer loop
      vertex 10 0 0
      vertex 7.07106 -7.07106 5
      vertex 7.07106 -7.07106 0
    endloop
  endfacet
  facet normal 0.923879 -0.382685 0
    outer loop
      vertex 10 0 0
      vertex 10 0 5
      vertex 7.07106 -7.07106 5
    endloop
  endfacet
  facet normal 0.923879 0.382685 0
    outer loop
      vertex 7.07106 7.07106 0
      vertex 10 0 5
      vertex 10 0 0
    endloop
  endfacet
  facet normal 0.923879 0.382685 -0
    outer loop
      vertex 7.07106 7.07106 0
      vertex 7.07106 7.07106 5
      vertex 10 0 5
    endloop
  endfacet
  facet normal 0.382685 0.923879 0
    outer loop
      vertex 0 10 0
      vertex 7.07106 7.07106 5
      vertex 7.07106 7.07106 0
    endloop
  endfacet
  facet normal 0.382685 0.923879 -0
    outer loop
      vertex 0 10 0
      vertex 0 10 5
      vertex 7.07106 7.07106 5
    endloop
  endfacet
  facet normal -0.382685 0.923879 0
    outer loop
      vertex -7.07106 7.07106 0
      vertex 0 10 5
      vertex 0 10 0
    endloop
  endfacet
  facet normal -0.382685 0.923879 0
    outer loop
      vertex -7.07106 7.07106 0
      vertex -7.07106 7.07106 5
      vertex 0 10 5
    endloop
  endfacet
  facet normal -0.923879 0.382685 0
    outer loop
      vertex -10 0 0
      vertex -7.07106 7.07106 5
      vertex -7.07106 7.07106 0
    endloop
  endfacet
  facet normal -0.923879 0.382685 0
    outer loop
      vertex -10 0 0
      vertex -10 0 5
      vertex -7.07106 7.07106 5
    endloop
  endfacet
  facet normal -0.923879 -0.382685 0
    outer loop
      vertex -7.07106 -7.07106 0
      vertex -10 0 5
      vertex -10 0 0
    endloop
  endfacet
  facet normal -0.923879 -0.382685 0
    outer loop
      vertex -7.07106 -7.07106 0
      vertex -7.07106 -7.07106 5
      vertex -10 0 5
    endloop
  endfacet
  facet normal -0.382685 -0.923879 0
    outer loop
      vertex 0 -10 0
      vertex -7.07106 -7.07106 5
      vertex -7.07106 -7.07106 0
    endloop
  endfacet
  facet normal -0.382685 -0.923879 0
    outer loop
      vertex 0 -10 0
      vertex 0 -10 5
      vertex -7.07106 -7.07106 5
    endloop
  endfacet
  facet normal 0.382685 -0.923879 0
    outer loop
      vertex 7.07106 -7.07106 0
      vertex 0 -10 5
      vertex 0 -10 0
    endloop
  endfacet
  facet normal 0.382685 -0.923879 0
    outer loop
      vertex 7.07106 -7.07106 0
      vertex 7.07106 -7.07106 5
      vertex 0 -10 5
    endloop
  endfacet
endsolid OpenSCAD_Model
