solid OpenSCAD_Model
  facet normal 1 -0 0
    outer loop
      vertex 10 0 10
      vertex 10 10 0
      vertex 10 10 10
    endloop
  endfacet
  facet normal 1 0 0
    outer loop
      vertex 10 10 0
      vertex 10 0 10
      vertex 10 0 0
    endloop
  endfacet
  facet normal -0 0 1
    outer loop
      vertex 0 10 10
      vertex 10 0 10
      vertex 10 10 10
    endloop
  endfacet
  facet normal 0 0 1
    outer loop
      vertex 10 0 10
      vertex 0 10 10
      vertex 0 0 10
    endloop
  endfacet
  facet normal 0 0 -1
    outer loop
      vertex 0 0 0
      vertex 10 10 0
      vertex 10 0 0
    endloop
  endfacet
  facet normal -0 0 -1
    outer loop
      vertex 10 10 0
      vertex 0 0 0
      vertex 0 10 0
    endloop
  endfacet
  facet normal -1 0 0
    outer loop
      vertex 0 0 0
      vertex 0 10 10
      vertex 0 10 0
    endloop
  endfacet
  facet normal -1 -0 0
    outer loop
      vertex 0 10 10
      vertex 0 0 0
      vertex 0 0 10
    endloop
  endfacet
  facet normal 0 1 -0
    outer loop
      vertex 10 10 0
      vertex 0 10 10
      vertex 10 10 10
    endloop
  endfacet
  facet normal 0 1 0
    outer loop
      vertex 0 10 10
      vertex 10 10 0
      vertex 0 10 0
    endloop
  endfacet
  facet normal 0 -1 0
    outer loop
      vertex 0 0 0
      vertex 10 0 10
      vertex 0 0 10
    endloop
  endfacet
  facet normal 0 -1 -0
    outer loop
      vertex 10 0 10
      vertex 0 0 0
      vertex 10 0 0
    endloop
  endfacet
  facet normal 0.908663 0.180744 -0.37638
    outer loop
      vertex 0.842651 5 7.77785
      vertex 0.469362 3.12335 5.97545
      vertex 0.0960732 5 5.97545
    endloop
  endfacet
  facet normal -0.38158 -0.0759004 -0.921214
    outer loop
      vertex 7.5664 6.06304 9.15735
      vertex 7.77785 5 9.15735
      vertex 5.97545 5 9.90393
    endloop
  endfacet
  facet normal 0.38158 0.0759004 -0.921214
    outer loop
      vertex 4.02455 5 9.90393
      vertex 2.4336 3.93696 9.15735
      vertex 2.22215 5 9.15735
    endloop
  endfacet
  facet normal 0.0758991 0.381581 -0.921214
    outer loop
      vertex 4.62671 4.0988 9.90393
      vertex 5 4.02455 9.90393
      vertex 3.93696 2.4336 9.15735
    endloop
  endfacet
  facet normal -0.700214 -0.139281 -0.700214
    outer loop
      vertex 8.84089 6.59095 7.77785
      vertex 9.15735 5 7.77785
      vertex 7.77785 5 9.15735
    endloop
  endfacet
  facet normal -0.908663 -0.180745 -0.376381
    outer loop
      vertex 9.53064 6.87665 5.97545
      vertex 9.15735 5 7.77785
      vertex 8.84089 6.59095 7.77785
    endloop
  endfacet
  facet normal 0.139281 -0.700214 -0.700214
    outer loop
      vertex 5 9.15735 7.77785
      vertex 5 7.77785 9.15735
      vertex 3.40905 8.84089 7.77785
    endloop
  endfacet
  facet normal 0.216146 -0.323488 0.921215
    outer loop
      vertex 4.31025 5.68975 0.0960732
      vertex 4.62671 5.9012 0.0960732
      vertex 3.03576 6.96424 0.842651
    endloop
  endfacet
  facet normal 0.139281 -0.700214 0.700215
    outer loop
      vertex 5 7.77785 0.842651
      vertex 5 9.15735 2.22215
      vertex 3.40905 8.84089 2.22215
    endloop
  endfacet
  facet normal -0.38158 0.0758989 0.921214
    outer loop
      vertex 7.5664 3.93696 0.842651
      vertex 5.97545 5 0.0960732
      vertex 5.9012 4.62671 0.0960732
    endloop
  endfacet
  facet normal 0.381581 -0.0758991 -0.921214
    outer loop
      vertex 4.0988 5.37329 9.90393
      vertex 4.02455 5 9.90393
      vertex 2.4336 6.06304 9.15735
    endloop
  endfacet
  facet normal -0.396639 -0.593614 -0.700214
    outer loop
      vertex 6.59095 8.84089 7.77785
      vertex 6.96424 6.96424 9.15735
      vertex 6.06304 7.5664 9.15735
    endloop
  endfacet
  facet normal -0.908663 0.180745 -0.376381
    outer loop
      vertex 9.15735 5 7.77785
      vertex 9.53064 3.12335 5.97545
      vertex 8.84089 3.40905 7.77785
    endloop
  endfacet
  facet normal 0.980785 0.19509 0
    outer loop
      vertex 0.469362 3.12335 5.97545
      vertex 0.0960732 5 4.02455
      vertex 0.0960732 5 5.97545
    endloop
  endfacet
  facet normal 0.980785 0.19509 0
    outer loop
      vertex 0.0960732 5 4.02455
      vertex 0.469362 3.12335 5.97545
      vertex 0.469362 3.12335 4.02455
    endloop
  endfacet
  facet normal 0.908664 0.180744 -0.37638
    outer loop
      vertex 0.842651 5 7.77785
      vertex 1.15911 3.40905 7.77785
      vertex 0.469362 3.12335 5.97545
    endloop
  endfacet
  facet normal 0.0759002 -0.381579 0.921215
    outer loop
      vertex 5 5.97545 0.0960732
      vertex 5 7.77785 0.842651
      vertex 3.93696 7.5664 0.842651
    endloop
  endfacet
  facet normal -0.980785 -0.195091 0
    outer loop
      vertex 9.90393 5 4.02455
      vertex 9.53064 6.87665 5.97545
      vertex 9.53064 6.87665 4.02455
    endloop
  endfacet
  facet normal -0.980785 -0.195091 0
    outer loop
      vertex 9.53064 6.87665 5.97545
      vertex 9.90393 5 4.02455
      vertex 9.90393 5 5.97545
    endloop
  endfacet
  facet normal -0.180744 0.908663 0.37638
    outer loop
      vertex 6.87665 0.469362 4.02455
      vertex 5 0.842651 2.22215
      vertex 5 0.0960732 4.02455
    endloop
  endfacet
  facet normal -0.700215 -0.13928 -0.700214
    outer loop
      vertex 8.84089 6.59095 7.77785
      vertex 7.77785 5 9.15735
      vertex 7.5664 6.06304 9.15735
    endloop
  endfacet
  facet normal -0.593614 0.396639 -0.700214
    outer loop
      vertex 7.5664 3.93696 9.15735
      vertex 8.84089 3.40905 7.77785
      vertex 6.96424 3.03576 9.15735
    endloop
  endfacet
  facet normal 0.323488 -0.216147 -0.921214
    outer loop
      vertex 3.03576 6.96424 9.15735
      vertex 4.0988 5.37329 9.90393
      vertex 2.4336 6.06304 9.15735
    endloop
  endfacet
  facet normal 0.908663 -0.180744 0.37638
    outer loop
      vertex 0.842651 5 2.22215
      vertex 0.469362 6.87665 4.02455
      vertex 0.0960732 5 4.02455
    endloop
  endfacet
  facet normal -0.13928 -0.700215 -0.700214
    outer loop
      vertex 6.59095 8.84089 7.77785
      vertex 6.06304 7.5664 9.15735
      vertex 5 7.77785 9.15735
    endloop
  endfacet
  facet normal 0.593614 0.396639 -0.700214
    outer loop
      vertex 2.4336 3.93696 9.15735
      vertex 3.03576 3.03576 9.15735
      vertex 1.15911 3.40905 7.77785
    endloop
  endfacet
  facet normal 0.13928 -0.700215 0.700214
    outer loop
      vertex 3.93696 7.5664 0.842651
      vertex 5 7.77785 0.842651
      vertex 3.40905 8.84089 2.22215
    endloop
  endfacet
  facet normal 0.216147 0.323489 -0.921214
    outer loop
      vertex 4.31025 4.31025 9.90393
      vertex 4.62671 4.0988 9.90393
      vertex 3.03576 3.03576 9.15735
    endloop
  endfacet
  facet normal -0.770327 0.514717 0.37638
    outer loop
      vertex 9.53064 3.12335 4.02455
      vertex 8.84089 3.40905 2.22215
      vertex 7.93969 2.06031 2.22215
    endloop
  endfacet
  facet normal -0.700214 0.139281 -0.700214
    outer loop
      vertex 9.15735 5 7.77785
      vertex 8.84089 3.40905 7.77785
      vertex 7.77785 5 9.15735
    endloop
  endfacet
  facet normal -0.770327 0.514717 -0.37638
    outer loop
      vertex 9.53064 3.12335 5.97545
      vertex 8.4676 1.5324 5.97545
      vertex 7.93969 2.06031 7.77785
    endloop
  endfacet
  facet normal -0.908663 0.180745 0.376381
    outer loop
      vertex 9.53064 3.12335 4.02455
      vertex 9.15735 5 2.22215
      vertex 8.84089 3.40905 2.22215
    endloop
  endfacet
  facet normal 0.700215 0.139281 0.700215
    outer loop
      vertex 1.15911 3.40905 2.22215
      vertex 2.22215 5 0.842651
      vertex 0.842651 5 2.22215
    endloop
  endfacet
  facet normal 0.323488 -0.216147 0.921215
    outer loop
      vertex 4.0988 5.37329 0.0960732
      vertex 3.03576 6.96424 0.842651
      vertex 2.4336 6.06304 0.842651
    endloop
  endfacet
  facet normal 0.38158 -0.0759004 -0.921214
    outer loop
      vertex 2.4336 6.06304 9.15735
      vertex 4.02455 5 9.90393
      vertex 2.22215 5 9.15735
    endloop
  endfacet
  facet normal 0.555571 -0.831469 0
    outer loop
      vertex 1.5324 8.4676 4.02455
      vertex 3.12335 9.53064 5.97545
      vertex 1.5324 8.4676 5.97545
    endloop
  endfacet
  facet normal 0.555571 -0.831469 0
    outer loop
      vertex 3.12335 9.53064 5.97545
      vertex 1.5324 8.4676 4.02455
      vertex 3.12335 9.53064 4.02455
    endloop
  endfacet
  facet normal -0.770327 -0.514717 0.37638
    outer loop
      vertex 9.53064 6.87665 4.02455
      vertex 8.4676 8.4676 4.02455
      vertex 7.93969 7.93969 2.22215
    endloop
  endfacet
  facet normal 0.180745 -0.908663 0.376381
    outer loop
      vertex 3.40905 8.84089 2.22215
      vertex 5 9.15735 2.22215
      vertex 3.12335 9.53064 4.02455
    endloop
  endfacet
  facet normal 0.83147 -0.55557 0
    outer loop
      vertex 0.469362 6.87665 5.97545
      vertex 1.5324 8.4676 4.02455
      vertex 1.5324 8.4676 5.97545
    endloop
  endfacet
  facet normal 0.83147 -0.55557 0
    outer loop
      vertex 1.5324 8.4676 4.02455
      vertex 0.469362 6.87665 5.97545
      vertex 0.469362 6.87665 4.02455
    endloop
  endfacet
  facet normal -0.593614 -0.396639 -0.700214
    outer loop
      vertex 8.84089 6.59095 7.77785
      vertex 7.5664 6.06304 9.15735
      vertex 6.96424 6.96424 9.15735
    endloop
  endfacet
  facet normal 0.908664 -0.180744 -0.37638
    outer loop
      vertex 1.15911 6.59095 7.77785
      vertex 0.842651 5 7.77785
      vertex 0.469362 6.87665 5.97545
    endloop
  endfacet
  facet normal -0.770327 -0.514717 -0.37638
    outer loop
      vertex 8.4676 8.4676 5.97545
      vertex 9.53064 6.87665 5.97545
      vertex 7.93969 7.93969 7.77785
    endloop
  endfacet
  facet normal -0.514717 -0.770327 -0.37638
    outer loop
      vertex 8.4676 8.4676 5.97545
      vertex 7.93969 7.93969 7.77785
      vertex 6.87665 9.53064 5.97545
    endloop
  endfacet
  facet normal -0.180745 -0.908663 -0.376381
    outer loop
      vertex 6.87665 9.53064 5.97545
      vertex 6.59095 8.84089 7.77785
      vertex 5 9.15735 7.77785
    endloop
  endfacet
  facet normal 0.13928 -0.700215 -0.700214
    outer loop
      vertex 5 7.77785 9.15735
      vertex 3.93696 7.5664 9.15735
      vertex 3.40905 8.84089 7.77785
    endloop
  endfacet
  facet normal -0.514717 -0.770327 0.37638
    outer loop
      vertex 7.93969 7.93969 2.22215
      vertex 8.4676 8.4676 4.02455
      vertex 6.87665 9.53064 4.02455
    endloop
  endfacet
  facet normal 0.381581 0.0758991 -0.921214
    outer loop
      vertex 4.02455 5 9.90393
      vertex 4.0988 4.62671 9.90393
      vertex 2.4336 3.93696 9.15735
    endloop
  endfacet
  facet normal 0.770328 0.514716 -0.37638
    outer loop
      vertex 2.06031 2.06031 7.77785
      vertex 1.5324 1.5324 5.97545
      vertex 0.469362 3.12335 5.97545
    endloop
  endfacet
  facet normal 0.180744 0.908663 -0.37638
    outer loop
      vertex 5 0.842651 7.77785
      vertex 5 0.0960732 5.97545
      vertex 3.12335 0.469362 5.97545
    endloop
  endfacet
  facet normal 0.55557 0.83147 -0
    outer loop
      vertex 3.12335 0.469362 4.02455
      vertex 1.5324 1.5324 5.97545
      vertex 3.12335 0.469362 5.97545
    endloop
  endfacet
  facet normal 0.55557 0.83147 0
    outer loop
      vertex 1.5324 1.5324 5.97545
      vertex 3.12335 0.469362 4.02455
      vertex 1.5324 1.5324 4.02455
    endloop
  endfacet
  facet normal -0.700214 -0.139281 0.700215
    outer loop
      vertex 9.15735 5 2.22215
      vertex 8.84089 6.59095 2.22215
      vertex 7.77785 5 0.842651
    endloop
  endfacet
  facet normal -0.980785 0.195091 0
    outer loop
      vertex 9.53064 3.12335 4.02455
      vertex 9.90393 5 5.97545
      vertex 9.90393 5 4.02455
    endloop
  endfacet
  facet normal -0.980785 0.195091 0
    outer loop
      vertex 9.90393 5 5.97545
      vertex 9.53064 3.12335 4.02455
      vertex 9.53064 3.12335 5.97545
    endloop
  endfacet
  facet normal 0.139281 0.700215 0.700215
    outer loop
      vertex 5 0.842651 2.22215
      vertex 5 2.22215 0.842651
      vertex 3.40905 1.15911 2.22215
    endloop
  endfacet
  facet normal -0.39664 0.593614 0.700213
    outer loop
      vertex 7.93969 2.06031 2.22215
      vertex 6.96424 3.03576 0.842651
      vertex 6.59095 1.15911 2.22215
    endloop
  endfacet
  facet normal -0.770327 0.514717 0.37638
    outer loop
      vertex 8.4676 1.5324 4.02455
      vertex 9.53064 3.12335 4.02455
      vertex 7.93969 2.06031 2.22215
    endloop
  endfacet
  facet normal -0.55557 0.83147 0
    outer loop
      vertex 8.4676 1.5324 4.02455
      vertex 6.87665 0.469362 5.97545
      vertex 8.4676 1.5324 5.97545
    endloop
  endfacet
  facet normal -0.55557 0.83147 0
    outer loop
      vertex 6.87665 0.469362 5.97545
      vertex 8.4676 1.5324 4.02455
      vertex 6.87665 0.469362 4.02455
    endloop
  endfacet
  facet normal -0.396639 0.593614 0.700214
    outer loop
      vertex 6.59095 1.15911 2.22215
      vertex 6.96424 3.03576 0.842651
      vertex 6.06304 2.4336 0.842651
    endloop
  endfacet
  facet normal 0.0759002 0.381579 0.921215
    outer loop
      vertex 5 2.22215 0.842651
      vertex 5 4.02455 0.0960732
      vertex 3.93696 2.4336 0.842651
    endloop
  endfacet
  facet normal 0.980785 -0.19509 0
    outer loop
      vertex 0.0960732 5 5.97545
      vertex 0.469362 6.87665 4.02455
      vertex 0.469362 6.87665 5.97545
    endloop
  endfacet
  facet normal 0.980785 -0.19509 0
    outer loop
      vertex 0.469362 6.87665 4.02455
      vertex 0.0960732 5 5.97545
      vertex 0.0960732 5 4.02455
    endloop
  endfacet
  facet normal 0.180744 0.908663 0.37638
    outer loop
      vertex 5 0.0960732 4.02455
      vertex 5 0.842651 2.22215
      vertex 3.12335 0.469362 4.02455
    endloop
  endfacet
  facet normal 0.908663 -0.180744 -0.37638
    outer loop
      vertex 0.469362 6.87665 5.97545
      vertex 0.842651 5 7.77785
      vertex 0.0960732 5 5.97545
    endloop
  endfacet
  facet normal -0.216147 -0.323489 -0.921214
    outer loop
      vertex 6.96424 6.96424 9.15735
      vertex 5.68975 5.68975 9.90393
      vertex 5.37329 5.9012 9.90393
    endloop
  endfacet
  facet normal -0.323489 -0.216147 -0.921214
    outer loop
      vertex 6.96424 6.96424 9.15735
      vertex 5.9012 5.37329 9.90393
      vertex 5.68975 5.68975 9.90393
    endloop
  endfacet
  facet normal 0.700215 -0.139281 -0.700214
    outer loop
      vertex 1.15911 6.59095 7.77785
      vertex 2.22215 5 9.15735
      vertex 0.842651 5 7.77785
    endloop
  endfacet
  facet normal -0.139281 -0.700214 -0.700214
    outer loop
      vertex 5 9.15735 7.77785
      vertex 6.59095 8.84089 7.77785
      vertex 5 7.77785 9.15735
    endloop
  endfacet
  facet normal -0.908663 0.180745 0.376381
    outer loop
      vertex 9.53064 3.12335 4.02455
      vertex 9.90393 5 4.02455
      vertex 9.15735 5 2.22215
    endloop
  endfacet
  facet normal -0.180745 -0.908663 0.376381
    outer loop
      vertex 6.59095 8.84089 2.22215
      vertex 6.87665 9.53064 4.02455
      vertex 5 9.15735 2.22215
    endloop
  endfacet
  facet normal -0.555571 -0.831469 0
    outer loop
      vertex 6.87665 9.53064 4.02455
      vertex 8.4676 8.4676 5.97545
      vertex 6.87665 9.53064 5.97545
    endloop
  endfacet
  facet normal -0.555571 -0.831469 -0
    outer loop
      vertex 8.4676 8.4676 5.97545
      vertex 6.87665 9.53064 4.02455
      vertex 8.4676 8.4676 4.02455
    endloop
  endfacet
  facet normal 0.514717 -0.770327 0.37638
    outer loop
      vertex 3.40905 8.84089 2.22215
      vertex 3.12335 9.53064 4.02455
      vertex 2.06031 7.93969 2.22215
    endloop
  endfacet
  facet normal 0.770328 -0.514717 0.37638
    outer loop
      vertex 1.15911 6.59095 2.22215
      vertex 2.06031 7.93969 2.22215
      vertex 0.469362 6.87665 4.02455
    endloop
  endfacet
  facet normal -0.514717 -0.770327 0.37638
    outer loop
      vertex 7.93969 7.93969 2.22215
      vertex 6.87665 9.53064 4.02455
      vertex 6.59095 8.84089 2.22215
    endloop
  endfacet
  facet normal 0.180745 -0.908663 0.376381
    outer loop
      vertex 5 9.15735 2.22215
      vertex 5 9.90393 4.02455
      vertex 3.12335 9.53064 4.02455
    endloop
  endfacet
  facet normal -0.323488 0.216147 -0.921214
    outer loop
      vertex 7.5664 3.93696 9.15735
      vertex 6.96424 3.03576 9.15735
      vertex 5.9012 4.62671 9.90393
    endloop
  endfacet
  facet normal -0.700215 0.13928 -0.700214
    outer loop
      vertex 7.77785 5 9.15735
      vertex 8.84089 3.40905 7.77785
      vertex 7.5664 3.93696 9.15735
    endloop
  endfacet
  facet normal -0.38158 0.0759004 -0.921214
    outer loop
      vertex 7.77785 5 9.15735
      vertex 7.5664 3.93696 9.15735
      vertex 5.97545 5 9.90393
    endloop
  endfacet
  facet normal -0.19509 0.980785 0
    outer loop
      vertex 6.87665 0.469362 4.02455
      vertex 5 0.0960732 5.97545
      vertex 6.87665 0.469362 5.97545
    endloop
  endfacet
  facet normal -0.19509 0.980785 0
    outer loop
      vertex 5 0.0960732 5.97545
      vertex 6.87665 0.469362 4.02455
      vertex 5 0.0960732 4.02455
    endloop
  endfacet
  facet normal 0.83147 0.55557 0
    outer loop
      vertex 1.5324 1.5324 5.97545
      vertex 0.469362 3.12335 4.02455
      vertex 0.469362 3.12335 5.97545
    endloop
  endfacet
  facet normal 0.83147 0.55557 0
    outer loop
      vertex 0.469362 3.12335 4.02455
      vertex 1.5324 1.5324 5.97545
      vertex 1.5324 1.5324 4.02455
    endloop
  endfacet
  facet normal 0.216147 0.323488 -0.921214
    outer loop
      vertex 4.62671 4.0988 9.90393
      vertex 3.93696 2.4336 9.15735
      vertex 3.03576 3.03576 9.15735
    endloop
  endfacet
  facet normal -0.770327 0.514717 -0.37638
    outer loop
      vertex 8.84089 3.40905 7.77785
      vertex 9.53064 3.12335 5.97545
      vertex 7.93969 2.06031 7.77785
    endloop
  endfacet
  facet normal -0.908663 0.180745 -0.376381
    outer loop
      vertex 9.90393 5 5.97545
      vertex 9.53064 3.12335 5.97545
      vertex 9.15735 5 7.77785
    endloop
  endfacet
  facet normal -0.908663 -0.180745 -0.376381
    outer loop
      vertex 9.53064 6.87665 5.97545
      vertex 9.90393 5 5.97545
      vertex 9.15735 5 7.77785
    endloop
  endfacet
  facet normal -0.323488 0.216147 0.921215
    outer loop
      vertex 6.96424 3.03576 0.842651
      vertex 7.5664 3.93696 0.842651
      vertex 5.9012 4.62671 0.0960732
    endloop
  endfacet
  facet normal -0.700214 0.139281 0.700215
    outer loop
      vertex 8.84089 3.40905 2.22215
      vertex 9.15735 5 2.22215
      vertex 7.77785 5 0.842651
    endloop
  endfacet
  facet normal -0.216146 0.323488 0.921215
    outer loop
      vertex 6.96424 3.03576 0.842651
      vertex 5.68975 4.31025 0.0960732
      vertex 5.37329 4.0988 0.0960732
    endloop
  endfacet
  facet normal -0.323488 0.216146 0.921215
    outer loop
      vertex 6.96424 3.03576 0.842651
      vertex 5.9012 4.62671 0.0960732
      vertex 5.68975 4.31025 0.0960732
    endloop
  endfacet
  facet normal -0.908663 -0.180745 0.376381
    outer loop
      vertex 9.90393 5 4.02455
      vertex 9.53064 6.87665 4.02455
      vertex 9.15735 5 2.22215
    endloop
  endfacet
  facet normal -0.514716 0.770328 0.37638
    outer loop
      vertex 8.4676 1.5324 4.02455
      vertex 7.93969 2.06031 2.22215
      vertex 6.87665 0.469362 4.02455
    endloop
  endfacet
  facet normal 0.19509 0.980785 -0
    outer loop
      vertex 5 0.0960732 4.02455
      vertex 3.12335 0.469362 5.97545
      vertex 5 0.0960732 5.97545
    endloop
  endfacet
  facet normal 0.19509 0.980785 0
    outer loop
      vertex 3.12335 0.469362 5.97545
      vertex 5 0.0960732 4.02455
      vertex 3.12335 0.469362 4.02455
    endloop
  endfacet
  facet normal -0.514717 0.770328 0.37638
    outer loop
      vertex 6.87665 0.469362 4.02455
      vertex 7.93969 2.06031 2.22215
      vertex 6.59095 1.15911 2.22215
    endloop
  endfacet
  facet normal -0.180744 0.908664 0.37638
    outer loop
      vertex 6.87665 0.469362 4.02455
      vertex 6.59095 1.15911 2.22215
      vertex 5 0.842651 2.22215
    endloop
  endfacet
  facet normal -0.831469 0.555571 0
    outer loop
      vertex 8.4676 1.5324 4.02455
      vertex 9.53064 3.12335 5.97545
      vertex 9.53064 3.12335 4.02455
    endloop
  endfacet
  facet normal -0.831469 0.555571 0
    outer loop
      vertex 9.53064 3.12335 5.97545
      vertex 8.4676 1.5324 4.02455
      vertex 8.4676 1.5324 5.97545
    endloop
  endfacet
  facet normal 0.0758989 0.38158 0.921214
    outer loop
      vertex 5 4.02455 0.0960732
      vertex 4.62671 4.0988 0.0960732
      vertex 3.93696 2.4336 0.842651
    endloop
  endfacet
  facet normal 0.700215 -0.139281 0.700215
    outer loop
      vertex 2.22215 5 0.842651
      vertex 1.15911 6.59095 2.22215
      vertex 0.842651 5 2.22215
    endloop
  endfacet
  facet normal 0.700215 0.13928 0.700214
    outer loop
      vertex 2.4336 3.93696 0.842651
      vertex 2.22215 5 0.842651
      vertex 1.15911 3.40905 2.22215
    endloop
  endfacet
  facet normal 0.593614 0.396639 0.700214
    outer loop
      vertex 3.03576 3.03576 0.842651
      vertex 2.4336 3.93696 0.842651
      vertex 1.15911 3.40905 2.22215
    endloop
  endfacet
  facet normal 0.39664 -0.593614 0.700213
    outer loop
      vertex 3.03576 6.96424 0.842651
      vertex 3.40905 8.84089 2.22215
      vertex 2.06031 7.93969 2.22215
    endloop
  endfacet
  facet normal 0.381579 -0.0759002 0.921215
    outer loop
      vertex 4.02455 5 0.0960732
      vertex 2.4336 6.06304 0.842651
      vertex 2.22215 5 0.842651
    endloop
  endfacet
  facet normal 0.908663 0.180744 0.37638
    outer loop
      vertex 0.469362 3.12335 4.02455
      vertex 0.842651 5 2.22215
      vertex 0.0960732 5 4.02455
    endloop
  endfacet
  facet normal 0.700215 0.139281 -0.700214
    outer loop
      vertex 2.22215 5 9.15735
      vertex 1.15911 3.40905 7.77785
      vertex 0.842651 5 7.77785
    endloop
  endfacet
  facet normal 0.700215 0.13928 -0.700214
    outer loop
      vertex 2.22215 5 9.15735
      vertex 2.4336 3.93696 9.15735
      vertex 1.15911 3.40905 7.77785
    endloop
  endfacet
  facet normal -0.323488 -0.216147 -0.921214
    outer loop
      vertex 6.96424 6.96424 9.15735
      vertex 7.5664 6.06304 9.15735
      vertex 5.9012 5.37329 9.90393
    endloop
  endfacet
  facet normal -0.381581 -0.0758991 -0.921214
    outer loop
      vertex 7.5664 6.06304 9.15735
      vertex 5.97545 5 9.90393
      vertex 5.9012 5.37329 9.90393
    endloop
  endfacet
  facet normal -0.593614 -0.396641 -0.700213
    outer loop
      vertex 7.93969 7.93969 7.77785
      vertex 8.84089 6.59095 7.77785
      vertex 6.96424 6.96424 9.15735
    endloop
  endfacet
  facet normal -0.770327 -0.514717 -0.37638
    outer loop
      vertex 9.53064 6.87665 5.97545
      vertex 8.84089 6.59095 7.77785
      vertex 7.93969 7.93969 7.77785
    endloop
  endfacet
  facet normal 0.180745 -0.908663 -0.376381
    outer loop
      vertex 5 9.15735 7.77785
      vertex 3.40905 8.84089 7.77785
      vertex 3.12335 9.53064 5.97545
    endloop
  endfacet
  facet normal 0.770328 -0.514717 -0.37638
    outer loop
      vertex 2.06031 7.93969 7.77785
      vertex 1.15911 6.59095 7.77785
      vertex 0.469362 6.87665 5.97545
    endloop
  endfacet
  facet normal 0.514717 -0.770327 -0.37638
    outer loop
      vertex 3.12335 9.53064 5.97545
      vertex 3.40905 8.84089 7.77785
      vertex 2.06031 7.93969 7.77785
    endloop
  endfacet
  facet normal 0.593614 -0.396641 -0.700213
    outer loop
      vertex 2.06031 7.93969 7.77785
      vertex 3.03576 6.96424 9.15735
      vertex 1.15911 6.59095 7.77785
    endloop
  endfacet
  facet normal 0.396641 -0.593614 -0.700213
    outer loop
      vertex 3.40905 8.84089 7.77785
      vertex 3.03576 6.96424 9.15735
      vertex 2.06031 7.93969 7.77785
    endloop
  endfacet
  facet normal -0.180745 -0.908663 0.376381
    outer loop
      vertex 6.87665 9.53064 4.02455
      vertex 5 9.90393 4.02455
      vertex 5 9.15735 2.22215
    endloop
  endfacet
  facet normal 0.323488 0.216147 -0.921214
    outer loop
      vertex 4.0988 4.62671 9.90393
      vertex 3.03576 3.03576 9.15735
      vertex 2.4336 3.93696 9.15735
    endloop
  endfacet
  facet normal -0.216147 -0.323488 -0.921214
    outer loop
      vertex 6.06304 7.5664 9.15735
      vertex 6.96424 6.96424 9.15735
      vertex 5.37329 5.9012 9.90393
    endloop
  endfacet
  facet normal 0.381579 0.0759002 0.921215
    outer loop
      vertex 2.4336 3.93696 0.842651
      vertex 4.02455 5 0.0960732
      vertex 2.22215 5 0.842651
    endloop
  endfacet
  facet normal 0.514717 0.770328 0.37638
    outer loop
      vertex 3.12335 0.469362 4.02455
      vertex 3.40905 1.15911 2.22215
      vertex 2.06031 2.06031 2.22215
    endloop
  endfacet
  facet normal -0.0759002 0.381579 0.921215
    outer loop
      vertex 6.06304 2.4336 0.842651
      vertex 5 4.02455 0.0960732
      vertex 5 2.22215 0.842651
    endloop
  endfacet
  facet normal 0.514716 0.770328 -0.37638
    outer loop
      vertex 2.06031 2.06031 7.77785
      vertex 3.12335 0.469362 5.97545
      vertex 1.5324 1.5324 5.97545
    endloop
  endfacet
  facet normal -0.180744 0.908663 -0.37638
    outer loop
      vertex 5 0.842651 7.77785
      vertex 6.87665 0.469362 5.97545
      vertex 5 0.0960732 5.97545
    endloop
  endfacet
  facet normal -0.180744 0.908664 -0.37638
    outer loop
      vertex 6.59095 1.15911 7.77785
      vertex 6.87665 0.469362 5.97545
      vertex 5 0.842651 7.77785
    endloop
  endfacet
  facet normal 0.0759004 0.38158 -0.921214
    outer loop
      vertex 5 4.02455 9.90393
      vertex 5 2.22215 9.15735
      vertex 3.93696 2.4336 9.15735
    endloop
  endfacet
  facet normal -0.13928 0.700215 0.700214
    outer loop
      vertex 6.59095 1.15911 2.22215
      vertex 6.06304 2.4336 0.842651
      vertex 5 2.22215 0.842651
    endloop
  endfacet
  facet normal -0.139281 0.700215 0.700215
    outer loop
      vertex 6.59095 1.15911 2.22215
      vertex 5 2.22215 0.842651
      vertex 5 0.842651 2.22215
    endloop
  endfacet
  facet normal 0.396639 0.593614 -0.700214
    outer loop
      vertex 3.93696 2.4336 9.15735
      vertex 3.40905 1.15911 7.77785
      vertex 3.03576 3.03576 9.15735
    endloop
  endfacet
  facet normal -0.514716 0.770328 -0.37638
    outer loop
      vertex 7.93969 2.06031 7.77785
      vertex 8.4676 1.5324 5.97545
      vertex 6.87665 0.469362 5.97545
    endloop
  endfacet
  facet normal -0.514717 0.770328 -0.37638
    outer loop
      vertex 7.93969 2.06031 7.77785
      vertex 6.87665 0.469362 5.97545
      vertex 6.59095 1.15911 7.77785
    endloop
  endfacet
  facet normal 0.13928 0.700215 -0.700214
    outer loop
      vertex 3.93696 2.4336 9.15735
      vertex 5 2.22215 9.15735
      vertex 3.40905 1.15911 7.77785
    endloop
  endfacet
  facet normal -0.216147 0.323488 0.921215
    outer loop
      vertex 6.06304 2.4336 0.842651
      vertex 6.96424 3.03576 0.842651
      vertex 5.37329 4.0988 0.0960732
    endloop
  endfacet
  facet normal -0.0758989 0.38158 0.921214
    outer loop
      vertex 6.06304 2.4336 0.842651
      vertex 5.37329 4.0988 0.0960732
      vertex 5 4.02455 0.0960732
    endloop
  endfacet
  facet normal -0.593614 0.396639 0.700214
    outer loop
      vertex 8.84089 3.40905 2.22215
      vertex 7.5664 3.93696 0.842651
      vertex 6.96424 3.03576 0.842651
    endloop
  endfacet
  facet normal -0.593614 0.39664 0.700213
    outer loop
      vertex 7.93969 2.06031 2.22215
      vertex 8.84089 3.40905 2.22215
      vertex 6.96424 3.03576 0.842651
    endloop
  endfacet
  facet normal 0.38158 -0.0758989 0.921214
    outer loop
      vertex 4.02455 5 0.0960732
      vertex 4.0988 5.37329 0.0960732
      vertex 2.4336 6.06304 0.842651
    endloop
  endfacet
  facet normal 0.0758989 -0.38158 0.921214
    outer loop
      vertex 4.62671 5.9012 0.0960732
      vertex 5 5.97545 0.0960732
      vertex 3.93696 7.5664 0.842651
    endloop
  endfacet
  facet normal 0.323488 0.216146 0.921215
    outer loop
      vertex 4.31025 4.31025 0.0960732
      vertex 4.0988 4.62671 0.0960732
      vertex 3.03576 3.03576 0.842651
    endloop
  endfacet
  facet normal 0.39664 0.593614 0.700213
    outer loop
      vertex 3.40905 1.15911 2.22215
      vertex 3.03576 3.03576 0.842651
      vertex 2.06031 2.06031 2.22215
    endloop
  endfacet
  facet normal 0.396639 -0.593614 0.700214
    outer loop
      vertex 3.93696 7.5664 0.842651
      vertex 3.40905 8.84089 2.22215
      vertex 3.03576 6.96424 0.842651
    endloop
  endfacet
  facet normal -0.39664 -0.593614 0.700213
    outer loop
      vertex 6.96424 6.96424 0.842651
      vertex 7.93969 7.93969 2.22215
      vertex 6.59095 8.84089 2.22215
    endloop
  endfacet
  facet normal 0.593614 -0.39664 0.700213
    outer loop
      vertex 3.03576 6.96424 0.842651
      vertex 2.06031 7.93969 2.22215
      vertex 1.15911 6.59095 2.22215
    endloop
  endfacet
  facet normal 0.908664 -0.180744 0.37638
    outer loop
      vertex 0.842651 5 2.22215
      vertex 1.15911 6.59095 2.22215
      vertex 0.469362 6.87665 4.02455
    endloop
  endfacet
  facet normal 0.770328 -0.514716 0.37638
    outer loop
      vertex 2.06031 7.93969 2.22215
      vertex 1.5324 8.4676 4.02455
      vertex 0.469362 6.87665 4.02455
    endloop
  endfacet
  facet normal 0.514717 -0.770327 0.37638
    outer loop
      vertex 2.06031 7.93969 2.22215
      vertex 3.12335 9.53064 4.02455
      vertex 1.5324 8.4676 4.02455
    endloop
  endfacet
  facet normal -0.396639 0.593614 -0.700214
    outer loop
      vertex 6.96424 3.03576 9.15735
      vertex 6.59095 1.15911 7.77785
      vertex 6.06304 2.4336 9.15735
    endloop
  endfacet
  facet normal 0.216147 -0.323488 -0.921214
    outer loop
      vertex 3.93696 7.5664 9.15735
      vertex 4.62671 5.9012 9.90393
      vertex 3.03576 6.96424 9.15735
    endloop
  endfacet
  facet normal -0.323489 0.216147 -0.921214
    outer loop
      vertex 5.9012 4.62671 9.90393
      vertex 6.96424 3.03576 9.15735
      vertex 5.68975 4.31025 9.90393
    endloop
  endfacet
  facet normal 0.323489 0.216147 -0.921214
    outer loop
      vertex 4.0988 4.62671 9.90393
      vertex 4.31025 4.31025 9.90393
      vertex 3.03576 3.03576 9.15735
    endloop
  endfacet
  facet normal 0.180745 -0.908663 -0.376381
    outer loop
      vertex 5 9.90393 5.97545
      vertex 5 9.15735 7.77785
      vertex 3.12335 9.53064 5.97545
    endloop
  endfacet
  facet normal -0.180745 -0.908663 -0.376381
    outer loop
      vertex 5 9.90393 5.97545
      vertex 6.87665 9.53064 5.97545
      vertex 5 9.15735 7.77785
    endloop
  endfacet
  facet normal -0.396641 -0.593614 -0.700213
    outer loop
      vertex 7.93969 7.93969 7.77785
      vertex 6.96424 6.96424 9.15735
      vertex 6.59095 8.84089 7.77785
    endloop
  endfacet
  facet normal -0.514717 -0.770327 -0.37638
    outer loop
      vertex 6.87665 9.53064 5.97545
      vertex 7.93969 7.93969 7.77785
      vertex 6.59095 8.84089 7.77785
    endloop
  endfacet
  facet normal 0.0758991 -0.381581 -0.921214
    outer loop
      vertex 5 5.97545 9.90393
      vertex 4.62671 5.9012 9.90393
      vertex 3.93696 7.5664 9.15735
    endloop
  endfacet
  facet normal 0.396639 -0.593614 -0.700214
    outer loop
      vertex 3.40905 8.84089 7.77785
      vertex 3.93696 7.5664 9.15735
      vertex 3.03576 6.96424 9.15735
    endloop
  endfacet
  facet normal -0.593614 -0.39664 0.700213
    outer loop
      vertex 8.84089 6.59095 2.22215
      vertex 7.93969 7.93969 2.22215
      vertex 6.96424 6.96424 0.842651
    endloop
  endfacet
  facet normal -0.593614 -0.396639 0.700214
    outer loop
      vertex 7.5664 6.06304 0.842651
      vertex 8.84089 6.59095 2.22215
      vertex 6.96424 6.96424 0.842651
    endloop
  endfacet
  facet normal -0.216147 -0.323488 0.921215
    outer loop
      vertex 6.96424 6.96424 0.842651
      vertex 6.06304 7.5664 0.842651
      vertex 5.37329 5.9012 0.0960732
    endloop
  endfacet
  facet normal -0.139281 -0.700214 0.700215
    outer loop
      vertex 6.59095 8.84089 2.22215
      vertex 5 9.15735 2.22215
      vertex 5 7.77785 0.842651
    endloop
  endfacet
  facet normal -0.831469 -0.555571 0
    outer loop
      vertex 9.53064 6.87665 4.02455
      vertex 8.4676 8.4676 5.97545
      vertex 8.4676 8.4676 4.02455
    endloop
  endfacet
  facet normal -0.831469 -0.555571 0
    outer loop
      vertex 8.4676 8.4676 5.97545
      vertex 9.53064 6.87665 4.02455
      vertex 9.53064 6.87665 5.97545
    endloop
  endfacet
  facet normal -0.216147 0.323489 -0.921214
    outer loop
      vertex 5.68975 4.31025 9.90393
      vertex 6.96424 3.03576 9.15735
      vertex 5.37329 4.0988 9.90393
    endloop
  endfacet
  facet normal -0.0758991 -0.381581 -0.921214
    outer loop
      vertex 6.06304 7.5664 9.15735
      vertex 5.37329 5.9012 9.90393
      vertex 5 5.97545 9.90393
    endloop
  endfacet
  facet normal -0.0759004 0.38158 -0.921214
    outer loop
      vertex 5 4.02455 9.90393
      vertex 6.06304 2.4336 9.15735
      vertex 5 2.22215 9.15735
    endloop
  endfacet
  facet normal -0.381581 0.0758991 -0.921214
    outer loop
      vertex 5.97545 5 9.90393
      vertex 7.5664 3.93696 9.15735
      vertex 5.9012 4.62671 9.90393
    endloop
  endfacet
  facet normal 0.514716 0.770328 0.37638
    outer loop
      vertex 3.12335 0.469362 4.02455
      vertex 2.06031 2.06031 2.22215
      vertex 1.5324 1.5324 4.02455
    endloop
  endfacet
  facet normal 0.908664 0.180744 0.37638
    outer loop
      vertex 1.15911 3.40905 2.22215
      vertex 0.842651 5 2.22215
      vertex 0.469362 3.12335 4.02455
    endloop
  endfacet
  facet normal 0.770328 0.514716 0.37638
    outer loop
      vertex 1.5324 1.5324 4.02455
      vertex 2.06031 2.06031 2.22215
      vertex 0.469362 3.12335 4.02455
    endloop
  endfacet
  facet normal 0.180744 0.908664 0.37638
    outer loop
      vertex 5 0.842651 2.22215
      vertex 3.40905 1.15911 2.22215
      vertex 3.12335 0.469362 4.02455
    endloop
  endfacet
  facet normal 0.593614 0.396641 -0.700213
    outer loop
      vertex 3.03576 3.03576 9.15735
      vertex 2.06031 2.06031 7.77785
      vertex 1.15911 3.40905 7.77785
    endloop
  endfacet
  facet normal 0.770328 0.514717 -0.37638
    outer loop
      vertex 1.15911 3.40905 7.77785
      vertex 2.06031 2.06031 7.77785
      vertex 0.469362 3.12335 5.97545
    endloop
  endfacet
  facet normal 0.13928 0.700215 0.700214
    outer loop
      vertex 5 2.22215 0.842651
      vertex 3.93696 2.4336 0.842651
      vertex 3.40905 1.15911 2.22215
    endloop
  endfacet
  facet normal 0.396639 0.593614 0.700214
    outer loop
      vertex 3.40905 1.15911 2.22215
      vertex 3.93696 2.4336 0.842651
      vertex 3.03576 3.03576 0.842651
    endloop
  endfacet
  facet normal -0.139281 0.700215 -0.700214
    outer loop
      vertex 5 2.22215 9.15735
      vertex 6.59095 1.15911 7.77785
      vertex 5 0.842651 7.77785
    endloop
  endfacet
  facet normal -0.593614 0.396641 -0.700213
    outer loop
      vertex 8.84089 3.40905 7.77785
      vertex 7.93969 2.06031 7.77785
      vertex 6.96424 3.03576 9.15735
    endloop
  endfacet
  facet normal -0.396641 0.593614 -0.700213
    outer loop
      vertex 6.96424 3.03576 9.15735
      vertex 7.93969 2.06031 7.77785
      vertex 6.59095 1.15911 7.77785
    endloop
  endfacet
  facet normal -0.13928 0.700215 -0.700214
    outer loop
      vertex 6.06304 2.4336 9.15735
      vertex 6.59095 1.15911 7.77785
      vertex 5 2.22215 9.15735
    endloop
  endfacet
  facet normal 0.323488 -0.216146 0.921215
    outer loop
      vertex 4.0988 5.37329 0.0960732
      vertex 4.31025 5.68975 0.0960732
      vertex 3.03576 6.96424 0.842651
    endloop
  endfacet
  facet normal 0.216147 0.323488 0.921215
    outer loop
      vertex 3.93696 2.4336 0.842651
      vertex 4.62671 4.0988 0.0960732
      vertex 3.03576 3.03576 0.842651
    endloop
  endfacet
  facet normal 0.700215 -0.13928 0.700214
    outer loop
      vertex 2.22215 5 0.842651
      vertex 2.4336 6.06304 0.842651
      vertex 1.15911 6.59095 2.22215
    endloop
  endfacet
  facet normal 0.593614 -0.396639 0.700214
    outer loop
      vertex 2.4336 6.06304 0.842651
      vertex 3.03576 6.96424 0.842651
      vertex 1.15911 6.59095 2.22215
    endloop
  endfacet
  facet normal 0.216146 0.323488 0.921215
    outer loop
      vertex 4.62671 4.0988 0.0960732
      vertex 4.31025 4.31025 0.0960732
      vertex 3.03576 3.03576 0.842651
    endloop
  endfacet
  facet normal 0.216147 -0.323488 0.921215
    outer loop
      vertex 4.62671 5.9012 0.0960732
      vertex 3.93696 7.5664 0.842651
      vertex 3.03576 6.96424 0.842651
    endloop
  endfacet
  facet normal 0.323489 -0.216147 -0.921214
    outer loop
      vertex 4.31025 5.68975 9.90393
      vertex 4.0988 5.37329 9.90393
      vertex 3.03576 6.96424 9.15735
    endloop
  endfacet
  facet normal 0.0759004 -0.38158 -0.921214
    outer loop
      vertex 5 7.77785 9.15735
      vertex 5 5.97545 9.90393
      vertex 3.93696 7.5664 9.15735
    endloop
  endfacet
  facet normal -0.0759004 -0.38158 -0.921214
    outer loop
      vertex 5 7.77785 9.15735
      vertex 6.06304 7.5664 9.15735
      vertex 5 5.97545 9.90393
    endloop
  endfacet
  facet normal -0.195091 -0.980785 0
    outer loop
      vertex 5 9.90393 4.02455
      vertex 6.87665 9.53064 5.97545
      vertex 5 9.90393 5.97545
    endloop
  endfacet
  facet normal -0.195091 -0.980785 -0
    outer loop
      vertex 6.87665 9.53064 5.97545
      vertex 5 9.90393 4.02455
      vertex 6.87665 9.53064 4.02455
    endloop
  endfacet
  facet normal 0.195091 -0.980785 0
    outer loop
      vertex 3.12335 9.53064 4.02455
      vertex 5 9.90393 5.97545
      vertex 3.12335 9.53064 5.97545
    endloop
  endfacet
  facet normal 0.195091 -0.980785 0
    outer loop
      vertex 5 9.90393 5.97545
      vertex 3.12335 9.53064 4.02455
      vertex 5 9.90393 4.02455
    endloop
  endfacet
  facet normal 0.514717 -0.770327 -0.37638
    outer loop
      vertex 3.12335 9.53064 5.97545
      vertex 2.06031 7.93969 7.77785
      vertex 1.5324 8.4676 5.97545
    endloop
  endfacet
  facet normal 0.770328 -0.514716 -0.37638
    outer loop
      vertex 1.5324 8.4676 5.97545
      vertex 2.06031 7.93969 7.77785
      vertex 0.469362 6.87665 5.97545
    endloop
  endfacet
  facet normal 0.593614 -0.396639 -0.700214
    outer loop
      vertex 3.03576 6.96424 9.15735
      vertex 2.4336 6.06304 9.15735
      vertex 1.15911 6.59095 7.77785
    endloop
  endfacet
  facet normal 0.700215 -0.13928 -0.700214
    outer loop
      vertex 2.4336 6.06304 9.15735
      vertex 2.22215 5 9.15735
      vertex 1.15911 6.59095 7.77785
    endloop
  endfacet
  facet normal 0.216147 -0.323489 -0.921214
    outer loop
      vertex 4.62671 5.9012 9.90393
      vertex 4.31025 5.68975 9.90393
      vertex 3.03576 6.96424 9.15735
    endloop
  endfacet
  facet normal -0.13928 -0.700215 0.700214
    outer loop
      vertex 6.06304 7.5664 0.842651
      vertex 6.59095 8.84089 2.22215
      vertex 5 7.77785 0.842651
    endloop
  endfacet
  facet normal -0.216146 -0.323488 0.921215
    outer loop
      vertex 5.68975 5.68975 0.0960732
      vertex 6.96424 6.96424 0.842651
      vertex 5.37329 5.9012 0.0960732
    endloop
  endfacet
  facet normal -0.381579 -0.0759002 0.921215
    outer loop
      vertex 7.77785 5 0.842651
      vertex 7.5664 6.06304 0.842651
      vertex 5.97545 5 0.0960732
    endloop
  endfacet
  facet normal -0.700215 -0.13928 0.700214
    outer loop
      vertex 7.77785 5 0.842651
      vertex 8.84089 6.59095 2.22215
      vertex 7.5664 6.06304 0.842651
    endloop
  endfacet
  facet normal -0.770327 -0.514717 0.37638
    outer loop
      vertex 8.84089 6.59095 2.22215
      vertex 9.53064 6.87665 4.02455
      vertex 7.93969 7.93969 2.22215
    endloop
  endfacet
  facet normal -0.908663 -0.180745 0.376381
    outer loop
      vertex 9.15735 5 2.22215
      vertex 9.53064 6.87665 4.02455
      vertex 8.84089 6.59095 2.22215
    endloop
  endfacet
  facet normal 0.770328 0.514717 0.37638
    outer loop
      vertex 2.06031 2.06031 2.22215
      vertex 1.15911 3.40905 2.22215
      vertex 0.469362 3.12335 4.02455
    endloop
  endfacet
  facet normal 0.593614 0.39664 0.700213
    outer loop
      vertex 2.06031 2.06031 2.22215
      vertex 3.03576 3.03576 0.842651
      vertex 1.15911 3.40905 2.22215
    endloop
  endfacet
  facet normal 0.396641 0.593614 -0.700213
    outer loop
      vertex 3.03576 3.03576 9.15735
      vertex 3.40905 1.15911 7.77785
      vertex 2.06031 2.06031 7.77785
    endloop
  endfacet
  facet normal 0.514717 0.770328 -0.37638
    outer loop
      vertex 3.40905 1.15911 7.77785
      vertex 3.12335 0.469362 5.97545
      vertex 2.06031 2.06031 7.77785
    endloop
  endfacet
  facet normal -0.216147 0.323488 -0.921214
    outer loop
      vertex 6.96424 3.03576 9.15735
      vertex 6.06304 2.4336 9.15735
      vertex 5.37329 4.0988 9.90393
    endloop
  endfacet
  facet normal -0.0758991 0.381581 -0.921214
    outer loop
      vertex 5.37329 4.0988 9.90393
      vertex 6.06304 2.4336 9.15735
      vertex 5 4.02455 9.90393
    endloop
  endfacet
  facet normal 0.38158 0.0758989 0.921214
    outer loop
      vertex 4.0988 4.62671 0.0960732
      vertex 4.02455 5 0.0960732
      vertex 2.4336 3.93696 0.842651
    endloop
  endfacet
  facet normal 0.323488 0.216147 0.921215
    outer loop
      vertex 3.03576 3.03576 0.842651
      vertex 4.0988 4.62671 0.0960732
      vertex 2.4336 3.93696 0.842651
    endloop
  endfacet
  facet normal 0 0 1
    outer loop
      vertex 5.9012 5.37329 0.0960732
      vertex 5.9012 4.62671 0.0960732
      vertex 5.97545 5 0.0960732
    endloop
  endfacet
  facet normal 0 0 1
    outer loop
      vertex 5.68975 5.68975 0.0960732
      vertex 5.9012 4.62671 0.0960732
      vertex 5.9012 5.37329 0.0960732
    endloop
  endfacet
  facet normal 0 0 1
    outer loop
      vertex 5.68975 5.68975 0.0960732
      vertex 5.68975 4.31025 0.0960732
      vertex 5.9012 4.62671 0.0960732
    endloop
  endfacet
  facet normal 0 0 1
    outer loop
      vertex 5.37329 5.9012 0.0960732
      vertex 5.68975 4.31025 0.0960732
      vertex 5.68975 5.68975 0.0960732
    endloop
  endfacet
  facet normal 0 0 1
    outer loop
      vertex 5.37329 5.9012 0.0960732
      vertex 5.37329 4.0988 0.0960732
      vertex 5.68975 4.31025 0.0960732
    endloop
  endfacet
  facet normal 0 0 1
    outer loop
      vertex 5 5.97545 0.0960732
      vertex 5.37329 4.0988 0.0960732
      vertex 5.37329 5.9012 0.0960732
    endloop
  endfacet
  facet normal 0 0 1
    outer loop
      vertex 5 5.97545 0.0960732
      vertex 5 4.02455 0.0960732
      vertex 5.37329 4.0988 0.0960732
    endloop
  endfacet
  facet normal -0 0 1
    outer loop
      vertex 4.62671 5.9012 0.0960732
      vertex 5 4.02455 0.0960732
      vertex 5 5.97545 0.0960732
    endloop
  endfacet
  facet normal 0 0 1
    outer loop
      vertex 4.62671 5.9012 0.0960732
      vertex 4.62671 4.0988 0.0960732
      vertex 5 4.02455 0.0960732
    endloop
  endfacet
  facet normal -0 0 1
    outer loop
      vertex 4.31025 5.68975 0.0960732
      vertex 4.62671 4.0988 0.0960732
      vertex 4.62671 5.9012 0.0960732
    endloop
  endfacet
  facet normal 0 0 1
    outer loop
      vertex 4.31025 5.68975 0.0960732
      vertex 4.31025 4.31025 0.0960732
      vertex 4.62671 4.0988 0.0960732
    endloop
  endfacet
  facet normal -0 0 1
    outer loop
      vertex 4.0988 5.37329 0.0960732
      vertex 4.31025 4.31025 0.0960732
      vertex 4.31025 5.68975 0.0960732
    endloop
  endfacet
  facet normal 0 0 1
    outer loop
      vertex 4.0988 5.37329 0.0960732
      vertex 4.0988 4.62671 0.0960732
      vertex 4.31025 4.31025 0.0960732
    endloop
  endfacet
  facet normal 0 -0 1
    outer loop
      vertex 4.0988 4.62671 0.0960732
      vertex 4.0988 5.37329 0.0960732
      vertex 4.02455 5 0.0960732
    endloop
  endfacet
  facet normal 0 0 -1
    outer loop
      vertex 5.9012 4.62671 9.90393
      vertex 5.9012 5.37329 9.90393
      vertex 5.97545 5 9.90393
    endloop
  endfacet
  facet normal 0 0 -1
    outer loop
      vertex 5.68975 4.31025 9.90393
      vertex 5.9012 5.37329 9.90393
      vertex 5.9012 4.62671 9.90393
    endloop
  endfacet
  facet normal 0 0 -1
    outer loop
      vertex 5.68975 4.31025 9.90393
      vertex 5.68975 5.68975 9.90393
      vertex 5.9012 5.37329 9.90393
    endloop
  endfacet
  facet normal 0 0 -1
    outer loop
      vertex 5.37329 4.0988 9.90393
      vertex 5.68975 5.68975 9.90393
      vertex 5.68975 4.31025 9.90393
    endloop
  endfacet
  facet normal 0 0 -1
    outer loop
      vertex 5.37329 4.0988 9.90393
      vertex 5.37329 5.9012 9.90393
      vertex 5.68975 5.68975 9.90393
    endloop
  endfacet
  facet normal 0 0 -1
    outer loop
      vertex 5 4.02455 9.90393
      vertex 5.37329 5.9012 9.90393
      vertex 5.37329 4.0988 9.90393
    endloop
  endfacet
  facet normal 0 0 -1
    outer loop
      vertex 5 4.02455 9.90393
      vertex 5 5.97545 9.90393
      vertex 5.37329 5.9012 9.90393
    endloop
  endfacet
  facet normal 0 0 -1
    outer loop
      vertex 4.62671 4.0988 9.90393
      vertex 5 5.97545 9.90393
      vertex 5 4.02455 9.90393
    endloop
  endfacet
  facet normal 0 0 -1
    outer loop
      vertex 4.62671 4.0988 9.90393
      vertex 4.62671 5.9012 9.90393
      vertex 5 5.97545 9.90393
    endloop
  endfacet
  facet normal 0 0 -1
    outer loop
      vertex 4.31025 4.31025 9.90393
      vertex 4.62671 5.9012 9.90393
      vertex 4.62671 4.0988 9.90393
    endloop
  endfacet
  facet normal 0 0 -1
    outer loop
      vertex 4.31025 4.31025 9.90393
      vertex 4.31025 5.68975 9.90393
      vertex 4.62671 5.9012 9.90393
    endloop
  endfacet
  facet normal 0 0 -1
    outer loop
      vertex 4.0988 4.62671 9.90393
      vertex 4.31025 5.68975 9.90393
      vertex 4.31025 4.31025 9.90393
    endloop
  endfacet
  facet normal 0 0 -1
    outer loop
      vertex 4.0988 4.62671 9.90393
      vertex 4.0988 5.37329 9.90393
      vertex 4.31025 5.68975 9.90393
    endloop
  endfacet
  facet normal 0 -0 -1
    outer loop
      vertex 4.0988 5.37329 9.90393
      vertex 4.0988 4.62671 9.90393
      vertex 4.02455 5 9.90393
    endloop
  endfacet
  facet normal -0.396639 -0.593614 0.700214
    outer loop
      vertex 6.96424 6.96424 0.842651
      vertex 6.59095 8.84089 2.22215
      vertex 6.06304 7.5664 0.842651
    endloop
  endfacet
  facet normal -0.0758989 -0.38158 0.921214
    outer loop
      vertex 5.37329 5.9012 0.0960732
      vertex 6.06304 7.5664 0.842651
      vertex 5 5.97545 0.0960732
    endloop
  endfacet
  facet normal -0.0759002 -0.381579 0.921215
    outer loop
      vertex 6.06304 7.5664 0.842651
      vertex 5 7.77785 0.842651
      vertex 5 5.97545 0.0960732
    endloop
  endfacet
  facet normal -0.323488 -0.216147 0.921215
    outer loop
      vertex 7.5664 6.06304 0.842651
      vertex 6.96424 6.96424 0.842651
      vertex 5.9012 5.37329 0.0960732
    endloop
  endfacet
  facet normal -0.38158 -0.0758989 0.921214
    outer loop
      vertex 5.97545 5 0.0960732
      vertex 7.5664 6.06304 0.842651
      vertex 5.9012 5.37329 0.0960732
    endloop
  endfacet
  facet normal -0.700215 0.13928 0.700214
    outer loop
      vertex 8.84089 3.40905 2.22215
      vertex 7.77785 5 0.842651
      vertex 7.5664 3.93696 0.842651
    endloop
  endfacet
  facet normal -0.381579 0.0759002 0.921215
    outer loop
      vertex 7.5664 3.93696 0.842651
      vertex 7.77785 5 0.842651
      vertex 5.97545 5 0.0960732
    endloop
  endfacet
  facet normal 0.139281 0.700215 -0.700214
    outer loop
      vertex 5 2.22215 9.15735
      vertex 5 0.842651 7.77785
      vertex 3.40905 1.15911 7.77785
    endloop
  endfacet
  facet normal 0.180744 0.908664 -0.37638
    outer loop
      vertex 3.40905 1.15911 7.77785
      vertex 5 0.842651 7.77785
      vertex 3.12335 0.469362 5.97545
    endloop
  endfacet
  facet normal -0.323488 -0.216146 0.921215
    outer loop
      vertex 5.9012 5.37329 0.0960732
      vertex 6.96424 6.96424 0.842651
      vertex 5.68975 5.68975 0.0960732
    endloop
  endfacet
endsolid OpenSCAD_Model
