solid OpenSCAD_Model
  facet normal 1 -0 0
    outer loop
      vertex 100 0 30
      vertex 100 50 0
      vertex 100 50 30
    endloop
  endfacet
  facet normal 1 0 0
    outer loop
      vertex 100 50 0
      vertex 100 0 30
      vertex 100 0 0
    endloop
  endfacet
  facet normal -0 0 1
    outer loop
      vertex 0 50 30
      vertex 100 0 30
      vertex 100 50 30
    endloop
  endfacet
  facet normal 0 0 1
    outer loop
      vertex 100 0 30
      vertex 0 50 30
      vertex 0 0 30
    endloop
  endfacet
  facet normal 0 0 -1
    outer loop
      vertex 0 0 0
      vertex 100 50 0
      vertex 100 0 0
    endloop
  endfacet
  facet normal -0 0 -1
    outer loop
      vertex 100 50 0
      vertex 0 0 0
      vertex 0 50 0
    endloop
  endfacet
  facet normal -1 0 0
    outer loop
      vertex 0 0 0
      vertex 0 50 30
      vertex 0 50 0
    endloop
  endfacet
  facet normal -1 -0 0
    outer loop
      vertex 0 50 30
      vertex 0 0 0
      vertex 0 0 30
    endloop
  endfacet
  facet normal 0 1 -0
    outer loop
      vertex 100 50 0
      vertex 0 50 30
      vertex 100 50 30
    endloop
  endfacet
  facet normal 0 1 0
    outer loop
      vertex 0 50 30
      vertex 100 50 0
      vertex 0 50 0
    endloop
  endfacet
  facet normal 0 -1 0
    outer loop
      vertex 0 0 0
      vertex 100 0 30
      vertex 0 0 30
    endloop
  endfacet
  facet normal 0 -1 -0
    outer loop
      vertex 100 0 30
      vertex 0 0 0
      vertex 100 0 0
    endloop
  endfacet
  facet normal -1 0 0
    outer loop
      vertex 95 5 5
      vertex 95 45 25
      vertex 95 45 5
    endloop
  endfacet
  facet normal -1 -0 0
    outer loop
      vertex 95 45 25
      vertex 95 5 5
      vertex 95 5 25
    endloop
  endfacet
  facet normal 0 0 -1
    outer loop
      vertex 5 5 25
      vertex 95 45 25
      vertex 95 5 25
    endloop
  endfacet
  facet normal -0 0 -1
    outer loop
      vertex 95 45 25
      vertex 5 5 25
      vertex 5 45 25
    endloop
  endfacet
  facet normal -0 0 1
    outer loop
      vertex 5 45 5
      vertex 95 5 5
      vertex 95 45 5
    endloop
  endfacet
  facet normal 0 0 1
    outer loop
      vertex 95 5 5
      vertex 5 45 5
      vertex 5 5 5
    endloop
  endfacet
  facet normal 1 -0 0
    outer loop
      vertex 5 5 25
      vertex 5 45 5
      vertex 5 45 25
    endloop
  endfacet
  facet normal 1 0 0
    outer loop
      vertex 5 45 5
      vertex 5 5 25
      vertex 5 5 5
    endloop
  endfacet
  facet normal 0 -1 0
    outer loop
      vertex 5 45 5
      vertex 95 45 25
      vertex 5 45 25
    endloop
  endfacet
  facet normal 0 -1 -0
    outer loop
      vertex 95 45 25
      vertex 5 45 5
      vertex 95 45 5
    endloop
  endfacet
  facet normal 0 1 -0
    outer loop
      vertex 95 5 5
      vertex 5 5 25
      vertex 95 5 25
    endloop
  endfacet
  facet normal 0 1 0
    outer loop
      vertex 5 5 25
      vertex 95 5 5
      vertex 5 5 5
    endloop
  endfacet
endsolid OpenSCAD_Model
