solid OpenSCAD_Model
  facet normal 0 0 -1
    outer loop
      vertex -10 0 0
      vertex 5 8.66025 0
      vertex 10 0 0
    endloop
  endfacet
  facet normal 0 0 1
    outer loop
      vertex 10 0 5
      vertex 5 8.66025 5
      vertex -10 0 5
    endloop
  endfacet
  facet normal -0.5 0.866026 0
    outer loop
      vertex -10 0 0
      vertex 5 8.66025 5
      vertex 5 8.66025 0
    endloop
  endfacet
  facet normal -0.5 0.866026 0
    outer loop
      vertex -10 0 0
      vertex -10 0 5
      vertex 5 8.66025 5
    endloop
  endfacet
  facet normal 0 -1 0
    outer loop
      vertex 10 0 0
      vertex -10 0 5
      vertex -10 0 0
    endloop
  endfacet
  facet normal 0 -1 0
    outer loop
      vertex 10 0 0
      vertex 10 0 5
      vertex -10 0 5
    endloop
  endfacet
  facet normal 0.866025 0.5 0
    outer loop
      vertex 5 8.66025 0
      vertex 10 0 5
      vertex 10 0 0
    endloop
  endfacet
  facet normal 0.866025 0.5 -0
    outer loop
      vertex 5 8.66025 0
      vertex 5 8.66025 5
      vertex 10 0 5
    endloop
  endfacet
endsolid OpenSCAD_Model
