solid OpenSCAD_Model
  facet normal 1 0 0
    outer loop
      vertex 50 30 20
      vertex 50 15 15
      vertex 50 30 15
    endloop
  endfacet
  facet normal 1 -0 0
    outer loop
      vertex 50 0 20
      vertex 50 15 15
      vertex 50 30 20
    endloop
  endfacet
  facet normal 1 0 0
    outer loop
      vertex 50 0 0
      vertex 50 15 15
      vertex 50 0 20
    endloop
  endfacet
  facet normal 1 0 0
    outer loop
      vertex 50 15 15
      vertex 50 0 0
      vertex 50 15 0
    endloop
  endfacet
  facet normal -0 0 1
    outer loop
      vertex 0 30 20
      vertex 50 0 20
      vertex 50 30 20
    endloop
  endfacet
  facet normal 0 0 1
    outer loop
      vertex 50 0 20
      vertex 0 30 20
      vertex 0 0 20
    endloop
  endfacet
  facet normal 0 0 -1
    outer loop
      vertex 50 0 0
      vertex 25 15 0
      vertex 50 15 0
    endloop
  endfacet
  facet normal 0 0 -1
    outer loop
      vertex 22.9836 20.3136 0
      vertex 25 15 0
      vertex 23 20 0
    endloop
  endfacet
  facet normal 0 0 -1
    outer loop
      vertex 25 15 0
      vertex 22.9836 19.6864 0
      vertex 23 20 0
    endloop
  endfacet
  facet normal 0 0 -1
    outer loop
      vertex 25 15 0
      vertex 22.9344 19.3763 0
      vertex 22.9836 19.6864 0
    endloop
  endfacet
  facet normal 0 0 -1
    outer loop
      vertex 25 15 0
      vertex 22.8532 19.0729 0
      vertex 22.9344 19.3763 0
    endloop
  endfacet
  facet normal 0 0 -1
    outer loop
      vertex 25 15 0
      vertex 22.7406 18.7798 0
      vertex 22.8532 19.0729 0
    endloop
  endfacet
  facet normal 0 0 -1
    outer loop
      vertex 25 15 0
      vertex 22.5981 18.5 0
      vertex 22.7406 18.7798 0
    endloop
  endfacet
  facet normal 0 0 -1
    outer loop
      vertex 25 15 0
      vertex 22.4271 18.2366 0
      vertex 22.5981 18.5 0
    endloop
  endfacet
  facet normal 0 0 -1
    outer loop
      vertex 25 15 0
      vertex 22.2294 17.9926 0
      vertex 22.4271 18.2366 0
    endloop
  endfacet
  facet normal 0 0 -1
    outer loop
      vertex 25 15 0
      vertex 22.0074 17.7706 0
      vertex 22.2294 17.9926 0
    endloop
  endfacet
  facet normal 0 0 -1
    outer loop
      vertex 25 15 0
      vertex 21.7634 17.5729 0
      vertex 22.0074 17.7706 0
    endloop
  endfacet
  facet normal 0 0 -1
    outer loop
      vertex 25 15 0
      vertex 21.5 17.4019 0
      vertex 21.7634 17.5729 0
    endloop
  endfacet
  facet normal 0 0 -1
    outer loop
      vertex 25 15 0
      vertex 21.2202 17.2594 0
      vertex 21.5 17.4019 0
    endloop
  endfacet
  facet normal 0 0 -1
    outer loop
      vertex 0 0 0
      vertex 25 15 0
      vertex 50 0 0
    endloop
  endfacet
  facet normal 0 0 -1
    outer loop
      vertex 25 15 0
      vertex 20.9271 17.1468 0
      vertex 21.2202 17.2594 0
    endloop
  endfacet
  facet normal 0 0 -1
    outer loop
      vertex 25 15 0
      vertex 20.6237 17.0656 0
      vertex 20.9271 17.1468 0
    endloop
  endfacet
  facet normal 0 -0 -1
    outer loop
      vertex 19.3763 17.0656 0
      vertex 25 15 0
      vertex 0 0 0
    endloop
  endfacet
  facet normal 0 0 -1
    outer loop
      vertex 25 15 0
      vertex 20.3136 17.0164 0
      vertex 20.6237 17.0656 0
    endloop
  endfacet
  facet normal 0 0 -1
    outer loop
      vertex 25 15 0
      vertex 20 17 0
      vertex 20.3136 17.0164 0
    endloop
  endfacet
  facet normal 0 0 -1
    outer loop
      vertex 25 15 0
      vertex 19.6864 17.0164 0
      vertex 20 17 0
    endloop
  endfacet
  facet normal 0 0 -1
    outer loop
      vertex 25 15 0
      vertex 19.3763 17.0656 0
      vertex 19.6864 17.0164 0
    endloop
  endfacet
  facet normal -0 0 -1
    outer loop
      vertex 19.3763 17.0656 0
      vertex 0 0 0
      vertex 19.0729 17.1468 0
    endloop
  endfacet
  facet normal -0 0 -1
    outer loop
      vertex 19.0729 17.1468 0
      vertex 0 0 0
      vertex 18.7798 17.2594 0
    endloop
  endfacet
  facet normal 0 0 -1
    outer loop
      vertex 17.0656 19.3763 0
      vertex 0 30 0
      vertex 17.0164 19.6864 0
    endloop
  endfacet
  facet normal 0 0 -1
    outer loop
      vertex 17.1468 19.0729 0
      vertex 0 30 0
      vertex 17.0656 19.3763 0
    endloop
  endfacet
  facet normal 0 0 -1
    outer loop
      vertex 0 30 0
      vertex 17.1468 19.0729 0
      vertex 0 0 0
    endloop
  endfacet
  facet normal -0 0 -1
    outer loop
      vertex 17.2594 18.7798 0
      vertex 0 0 0
      vertex 17.1468 19.0729 0
    endloop
  endfacet
  facet normal -0 0 -1
    outer loop
      vertex 17.4019 18.5 0
      vertex 0 0 0
      vertex 17.2594 18.7798 0
    endloop
  endfacet
  facet normal -0 0 -1
    outer loop
      vertex 17.5729 18.2366 0
      vertex 0 0 0
      vertex 17.4019 18.5 0
    endloop
  endfacet
  facet normal -0 0 -1
    outer loop
      vertex 17.7706 17.9926 0
      vertex 0 0 0
      vertex 17.5729 18.2366 0
    endloop
  endfacet
  facet normal -0 0 -1
    outer loop
      vertex 17.9926 17.7706 0
      vertex 0 0 0
      vertex 17.7706 17.9926 0
    endloop
  endfacet
  facet normal -0 0 -1
    outer loop
      vertex 18.2366 17.5729 0
      vertex 0 0 0
      vertex 17.9926 17.7706 0
    endloop
  endfacet
  facet normal -0 0 -1
    outer loop
      vertex 18.5 17.4019 0
      vertex 0 0 0
      vertex 18.2366 17.5729 0
    endloop
  endfacet
  facet normal -0 0 -1
    outer loop
      vertex 18.7798 17.2594 0
      vertex 0 0 0
      vertex 18.5 17.4019 0
    endloop
  endfacet
  facet normal 0 0 -1
    outer loop
      vertex 25 15 0
      vertex 22.9836 20.3136 0
      vertex 25 30 0
    endloop
  endfacet
  facet normal 0 0 -1
    outer loop
      vertex 22.9344 20.6237 0
      vertex 25 30 0
      vertex 22.9836 20.3136 0
    endloop
  endfacet
  facet normal 0 0 -1
    outer loop
      vertex 22.8532 20.9271 0
      vertex 25 30 0
      vertex 22.9344 20.6237 0
    endloop
  endfacet
  facet normal 0 0 -1
    outer loop
      vertex 22.7406 21.2202 0
      vertex 25 30 0
      vertex 22.8532 20.9271 0
    endloop
  endfacet
  facet normal 0 0 -1
    outer loop
      vertex 22.5981 21.5 0
      vertex 25 30 0
      vertex 22.7406 21.2202 0
    endloop
  endfacet
  facet normal 0 0 -1
    outer loop
      vertex 22.4271 21.7634 0
      vertex 25 30 0
      vertex 22.5981 21.5 0
    endloop
  endfacet
  facet normal 0 0 -1
    outer loop
      vertex 22.2294 22.0074 0
      vertex 25 30 0
      vertex 22.4271 21.7634 0
    endloop
  endfacet
  facet normal 0 0 -1
    outer loop
      vertex 22.0074 22.2294 0
      vertex 25 30 0
      vertex 22.2294 22.0074 0
    endloop
  endfacet
  facet normal 0 0 -1
    outer loop
      vertex 21.7634 22.4271 0
      vertex 25 30 0
      vertex 22.0074 22.2294 0
    endloop
  endfacet
  facet normal 0 0 -1
    outer loop
      vertex 21.5 22.5981 0
      vertex 25 30 0
      vertex 21.7634 22.4271 0
    endloop
  endfacet
  facet normal 0 0 -1
    outer loop
      vertex 21.2202 22.7406 0
      vertex 25 30 0
      vertex 21.5 22.5981 0
    endloop
  endfacet
  facet normal 0 0 -1
    outer loop
      vertex 20.9271 22.8532 0
      vertex 25 30 0
      vertex 21.2202 22.7406 0
    endloop
  endfacet
  facet normal 0 0 -1
    outer loop
      vertex 20.6237 22.9344 0
      vertex 25 30 0
      vertex 20.9271 22.8532 0
    endloop
  endfacet
  facet normal 0 0 -1
    outer loop
      vertex 20.3136 22.9836 0
      vertex 25 30 0
      vertex 20.6237 22.9344 0
    endloop
  endfacet
  facet normal 0 0 -1
    outer loop
      vertex 20 23 0
      vertex 25 30 0
      vertex 20.3136 22.9836 0
    endloop
  endfacet
  facet normal 0 0 -1
    outer loop
      vertex 19.6864 22.9836 0
      vertex 25 30 0
      vertex 20 23 0
    endloop
  endfacet
  facet normal 0 0 -1
    outer loop
      vertex 19.3763 22.9344 0
      vertex 25 30 0
      vertex 19.6864 22.9836 0
    endloop
  endfacet
  facet normal 0 0 -1
    outer loop
      vertex 19.0729 22.8532 0
      vertex 25 30 0
      vertex 19.3763 22.9344 0
    endloop
  endfacet
  facet normal 0 0 -1
    outer loop
      vertex 18.7798 22.7406 0
      vertex 25 30 0
      vertex 19.0729 22.8532 0
    endloop
  endfacet
  facet normal 0 0 -1
    outer loop
      vertex 18.5 22.5981 0
      vertex 25 30 0
      vertex 18.7798 22.7406 0
    endloop
  endfacet
  facet normal 0 0 -1
    outer loop
      vertex 0 30 0
      vertex 18.5 22.5981 0
      vertex 18.2366 22.4271 0
    endloop
  endfacet
  facet normal 0 0 -1
    outer loop
      vertex 0 30 0
      vertex 18.2366 22.4271 0
      vertex 17.9926 22.2294 0
    endloop
  endfacet
  facet normal 0 0 -1
    outer loop
      vertex 0 30 0
      vertex 17.9926 22.2294 0
      vertex 17.7706 22.0074 0
    endloop
  endfacet
  facet normal 0 0 -1
    outer loop
      vertex 17.0164 19.6864 0
      vertex 0 30 0
      vertex 17 20 0
    endloop
  endfacet
  facet normal 0 0 -1
    outer loop
      vertex 17 20 0
      vertex 0 30 0
      vertex 17.0164 20.3136 0
    endloop
  endfacet
  facet normal 0 0 -1
    outer loop
      vertex 17.0164 20.3136 0
      vertex 0 30 0
      vertex 17.0656 20.6237 0
    endloop
  endfacet
  facet normal 0 0 -1
    outer loop
      vertex 17.0656 20.6237 0
      vertex 0 30 0
      vertex 17.1468 20.9271 0
    endloop
  endfacet
  facet normal 0 0 -1
    outer loop
      vertex 17.1468 20.9271 0
      vertex 0 30 0
      vertex 17.2594 21.2202 0
    endloop
  endfacet
  facet normal 0 0 -1
    outer loop
      vertex 17.2594 21.2202 0
      vertex 0 30 0
      vertex 17.4019 21.5 0
    endloop
  endfacet
  facet normal 0 0 -1
    outer loop
      vertex 18.5 22.5981 0
      vertex 0 30 0
      vertex 25 30 0
    endloop
  endfacet
  facet normal 0 0 -1
    outer loop
      vertex 17.5729 21.7634 0
      vertex 0 30 0
      vertex 17.7706 22.0074 0
    endloop
  endfacet
  facet normal 0 0 -1
    outer loop
      vertex 17.4019 21.5 0
      vertex 0 30 0
      vertex 17.5729 21.7634 0
    endloop
  endfacet
  facet normal -1 0 0
    outer loop
      vertex 0 0 0
      vertex 0 30 20
      vertex 0 30 0
    endloop
  endfacet
  facet normal -1 -0 0
    outer loop
      vertex 0 30 20
      vertex 0 0 0
      vertex 0 0 20
    endloop
  endfacet
  facet normal 0 1 0
    outer loop
      vertex 25 30 15
      vertex 50 30 20
      vertex 50 30 15
    endloop
  endfacet
  facet normal 0 1 0
    outer loop
      vertex 50 30 20
      vertex 25 30 15
      vertex 0 30 20
    endloop
  endfacet
  facet normal 0 1 0
    outer loop
      vertex 0 30 0
      vertex 25 30 15
      vertex 25 30 0
    endloop
  endfacet
  facet normal 0 1 0
    outer loop
      vertex 25 30 15
      vertex 0 30 0
      vertex 0 30 20
    endloop
  endfacet
  facet normal 0 -1 0
    outer loop
      vertex 0 0 0
      vertex 50 0 20
      vertex 0 0 20
    endloop
  endfacet
  facet normal 0 -1 -0
    outer loop
      vertex 50 0 20
      vertex 0 0 0
      vertex 50 0 0
    endloop
  endfacet
  facet normal 0.987646 0.156699 0
    outer loop
      vertex 22.9836 20.3136 0
      vertex 22.9344 20.6237 -0.5
      vertex 22.9344 20.6237 0
    endloop
  endfacet
  facet normal 0.987646 0.156699 0
    outer loop
      vertex 22.9344 20.6237 -0.5
      vertex 22.9836 20.3136 0
      vertex 22.9836 20.3136 -0.5
    endloop
  endfacet
  facet normal 0.998635 0.0522246 0
    outer loop
      vertex 23 20 0
      vertex 22.9836 20.3136 -0.5
      vertex 22.9836 20.3136 0
    endloop
  endfacet
  facet normal 0.998635 0.0522246 0
    outer loop
      vertex 22.9836 20.3136 -0.5
      vertex 23 20 0
      vertex 23 20 -0.5
    endloop
  endfacet
  facet normal 0.966002 0.258534 0
    outer loop
      vertex 22.9344 20.6237 0
      vertex 22.8532 20.9271 -0.5
      vertex 22.8532 20.9271 0
    endloop
  endfacet
  facet normal 0.966002 0.258534 0
    outer loop
      vertex 22.8532 20.9271 -0.5
      vertex 22.9344 20.6237 0
      vertex 22.9344 20.6237 -0.5
    endloop
  endfacet
  facet normal -0.453826 0.891091 0
    outer loop
      vertex 18.7798 22.7406 -0.5
      vertex 18.5 22.5981 0
      vertex 18.7798 22.7406 0
    endloop
  endfacet
  facet normal -0.453826 0.891091 0
    outer loop
      vertex 18.5 22.5981 0
      vertex 18.7798 22.7406 -0.5
      vertex 18.5 22.5981 -0.5
    endloop
  endfacet
  facet normal -0.258534 0.966002 0
    outer loop
      vertex 19.3763 22.9344 -0.5
      vertex 19.0729 22.8532 0
      vertex 19.3763 22.9344 0
    endloop
  endfacet
  facet normal -0.258534 0.966002 0
    outer loop
      vertex 19.0729 22.8532 0
      vertex 19.3763 22.9344 -0.5
      vertex 19.0729 22.8532 -0.5
    endloop
  endfacet
  facet normal 0.998635 -0.0522246 0
    outer loop
      vertex 22.9836 19.6864 0
      vertex 23 20 -0.5
      vertex 23 20 0
    endloop
  endfacet
  facet normal 0.998635 -0.0522246 0
    outer loop
      vertex 23 20 -0.5
      vertex 22.9836 19.6864 0
      vertex 22.9836 19.6864 -0.5
    endloop
  endfacet
  facet normal 0.891091 -0.453826 0
    outer loop
      vertex 22.5981 18.5 0
      vertex 22.7406 18.7798 -0.5
      vertex 22.7406 18.7798 0
    endloop
  endfacet
  facet normal 0.891091 -0.453826 0
    outer loop
      vertex 22.7406 18.7798 -0.5
      vertex 22.5981 18.5 0
      vertex 22.5981 18.5 -0.5
    endloop
  endfacet
  facet normal 0.0522246 0.998635 -0
    outer loop
      vertex 20.3136 22.9836 -0.5
      vertex 20 23 0
      vertex 20.3136 22.9836 0
    endloop
  endfacet
  facet normal 0.0522246 0.998635 0
    outer loop
      vertex 20 23 0
      vertex 20.3136 22.9836 -0.5
      vertex 20 23 -0.5
    endloop
  endfacet
  facet normal -0.0522246 0.998635 0
    outer loop
      vertex 20 23 -0.5
      vertex 19.6864 22.9836 0
      vertex 20 23 0
    endloop
  endfacet
  facet normal -0.0522246 0.998635 0
    outer loop
      vertex 19.6864 22.9836 0
      vertex 20 23 -0.5
      vertex 19.6864 22.9836 -0.5
    endloop
  endfacet
  facet normal 0.838749 -0.544518 0
    outer loop
      vertex 22.4271 18.2366 0
      vertex 22.5981 18.5 -0.5
      vertex 22.5981 18.5 0
    endloop
  endfacet
  facet normal 0.838749 -0.544518 0
    outer loop
      vertex 22.5981 18.5 -0.5
      vertex 22.4271 18.2366 0
      vertex 22.4271 18.2366 -0.5
    endloop
  endfacet
  facet normal 0.987646 -0.156699 0
    outer loop
      vertex 22.9344 19.3763 0
      vertex 22.9836 19.6864 -0.5
      vertex 22.9836 19.6864 0
    endloop
  endfacet
  facet normal 0.987646 -0.156699 0
    outer loop
      vertex 22.9836 19.6864 -0.5
      vertex 22.9344 19.3763 0
      vertex 22.9344 19.3763 -0.5
    endloop
  endfacet
  facet normal -0.707107 0.707107 0
    outer loop
      vertex 17.7706 22.0074 -0.5
      vertex 17.9926 22.2294 0
      vertex 17.9926 22.2294 -0.5
    endloop
  endfacet
  facet normal -0.707107 0.707107 0
    outer loop
      vertex 17.9926 22.2294 0
      vertex 17.7706 22.0074 -0.5
      vertex 17.7706 22.0074 0
    endloop
  endfacet
  facet normal 0.358616 0.933485 -0
    outer loop
      vertex 21.2202 22.7406 -0.5
      vertex 20.9271 22.8532 0
      vertex 21.2202 22.7406 0
    endloop
  endfacet
  facet normal 0.358616 0.933485 0
    outer loop
      vertex 20.9271 22.8532 0
      vertex 21.2202 22.7406 -0.5
      vertex 20.9271 22.8532 -0.5
    endloop
  endfacet
  facet normal 0.933485 0.358616 0
    outer loop
      vertex 22.8532 20.9271 0
      vertex 22.7406 21.2202 -0.5
      vertex 22.7406 21.2202 0
    endloop
  endfacet
  facet normal 0.933485 0.358616 0
    outer loop
      vertex 22.7406 21.2202 -0.5
      vertex 22.8532 20.9271 0
      vertex 22.8532 20.9271 -0.5
    endloop
  endfacet
  facet normal -0.358616 -0.933485 0
    outer loop
      vertex 18.7798 17.2594 -0.5
      vertex 19.0729 17.1468 0
      vertex 18.7798 17.2594 0
    endloop
  endfacet
  facet normal -0.358616 -0.933485 -0
    outer loop
      vertex 19.0729 17.1468 0
      vertex 18.7798 17.2594 -0.5
      vertex 19.0729 17.1468 -0.5
    endloop
  endfacet
  facet normal -0.838749 0.544518 0
    outer loop
      vertex 17.4019 21.5 -0.5
      vertex 17.5729 21.7634 0
      vertex 17.5729 21.7634 -0.5
    endloop
  endfacet
  facet normal -0.838749 0.544518 0
    outer loop
      vertex 17.5729 21.7634 0
      vertex 17.4019 21.5 -0.5
      vertex 17.4019 21.5 0
    endloop
  endfacet
  facet normal -0.77697 -0.629537 0
    outer loop
      vertex 17.7706 17.9926 -0.5
      vertex 17.5729 18.2366 0
      vertex 17.5729 18.2366 -0.5
    endloop
  endfacet
  facet normal -0.77697 -0.629537 0
    outer loop
      vertex 17.5729 18.2366 0
      vertex 17.7706 17.9926 -0.5
      vertex 17.7706 17.9926 0
    endloop
  endfacet
  facet normal -0.891091 0.453826 0
    outer loop
      vertex 17.2594 21.2202 -0.5
      vertex 17.4019 21.5 0
      vertex 17.4019 21.5 -0.5
    endloop
  endfacet
  facet normal -0.891091 0.453826 0
    outer loop
      vertex 17.4019 21.5 0
      vertex 17.2594 21.2202 -0.5
      vertex 17.2594 21.2202 0
    endloop
  endfacet
  facet normal 0.966002 -0.258534 0
    outer loop
      vertex 22.8532 19.0729 0
      vertex 22.9344 19.3763 -0.5
      vertex 22.9344 19.3763 0
    endloop
  endfacet
  facet normal 0.966002 -0.258534 0
    outer loop
      vertex 22.9344 19.3763 -0.5
      vertex 22.8532 19.0729 0
      vertex 22.8532 19.0729 -0.5
    endloop
  endfacet
  facet normal -0.966002 -0.258534 0
    outer loop
      vertex 17.1468 19.0729 -0.5
      vertex 17.0656 19.3763 0
      vertex 17.0656 19.3763 -0.5
    endloop
  endfacet
  facet normal -0.966002 -0.258534 0
    outer loop
      vertex 17.0656 19.3763 0
      vertex 17.1468 19.0729 -0.5
      vertex 17.1468 19.0729 0
    endloop
  endfacet
  facet normal 0.933485 -0.358616 0
    outer loop
      vertex 22.7406 18.7798 0
      vertex 22.8532 19.0729 -0.5
      vertex 22.8532 19.0729 0
    endloop
  endfacet
  facet normal 0.933485 -0.358616 0
    outer loop
      vertex 22.8532 19.0729 -0.5
      vertex 22.7406 18.7798 0
      vertex 22.7406 18.7798 -0.5
    endloop
  endfacet
  facet normal 0.77697 0.629537 0
    outer loop
      vertex 22.4271 21.7634 0
      vertex 22.2294 22.0074 -0.5
      vertex 22.2294 22.0074 0
    endloop
  endfacet
  facet normal 0.77697 0.629537 0
    outer loop
      vertex 22.2294 22.0074 -0.5
      vertex 22.4271 21.7634 0
      vertex 22.4271 21.7634 -0.5
    endloop
  endfacet
  facet normal -0.933485 -0.358616 0
    outer loop
      vertex 17.2594 18.7798 -0.5
      vertex 17.1468 19.0729 0
      vertex 17.1468 19.0729 -0.5
    endloop
  endfacet
  facet normal -0.933485 -0.358616 0
    outer loop
      vertex 17.1468 19.0729 0
      vertex 17.2594 18.7798 -0.5
      vertex 17.2594 18.7798 0
    endloop
  endfacet
  facet normal 0.629537 -0.77697 0
    outer loop
      vertex 21.7634 17.5729 -0.5
      vertex 22.0074 17.7706 0
      vertex 21.7634 17.5729 0
    endloop
  endfacet
  facet normal 0.629537 -0.77697 0
    outer loop
      vertex 22.0074 17.7706 0
      vertex 21.7634 17.5729 -0.5
      vertex 22.0074 17.7706 -0.5
    endloop
  endfacet
  facet normal 0.544518 0.838749 -0
    outer loop
      vertex 21.7634 22.4271 -0.5
      vertex 21.5 22.5981 0
      vertex 21.7634 22.4271 0
    endloop
  endfacet
  facet normal 0.544518 0.838749 0
    outer loop
      vertex 21.5 22.5981 0
      vertex 21.7634 22.4271 -0.5
      vertex 21.5 22.5981 -0.5
    endloop
  endfacet
  facet normal 0.258534 0.966002 -0
    outer loop
      vertex 20.9271 22.8532 -0.5
      vertex 20.6237 22.9344 0
      vertex 20.9271 22.8532 0
    endloop
  endfacet
  facet normal 0.258534 0.966002 0
    outer loop
      vertex 20.6237 22.9344 0
      vertex 20.9271 22.8532 -0.5
      vertex 20.6237 22.9344 -0.5
    endloop
  endfacet
  facet normal -0.544518 0.838749 0
    outer loop
      vertex 18.5 22.5981 -0.5
      vertex 18.2366 22.4271 0
      vertex 18.5 22.5981 0
    endloop
  endfacet
  facet normal -0.544518 0.838749 0
    outer loop
      vertex 18.2366 22.4271 0
      vertex 18.5 22.5981 -0.5
      vertex 18.2366 22.4271 -0.5
    endloop
  endfacet
  facet normal 0.891091 0.453826 0
    outer loop
      vertex 22.7406 21.2202 0
      vertex 22.5981 21.5 -0.5
      vertex 22.5981 21.5 0
    endloop
  endfacet
  facet normal 0.891091 0.453826 0
    outer loop
      vertex 22.5981 21.5 -0.5
      vertex 22.7406 21.2202 0
      vertex 22.7406 21.2202 -0.5
    endloop
  endfacet
  facet normal -0.987646 0.156699 0
    outer loop
      vertex 17.0164 20.3136 -0.5
      vertex 17.0656 20.6237 0
      vertex 17.0656 20.6237 -0.5
    endloop
  endfacet
  facet normal -0.987646 0.156699 0
    outer loop
      vertex 17.0656 20.6237 0
      vertex 17.0164 20.3136 -0.5
      vertex 17.0164 20.3136 0
    endloop
  endfacet
  facet normal -0.987646 -0.156699 0
    outer loop
      vertex 17.0656 19.3763 -0.5
      vertex 17.0164 19.6864 0
      vertex 17.0164 19.6864 -0.5
    endloop
  endfacet
  facet normal -0.987646 -0.156699 0
    outer loop
      vertex 17.0164 19.6864 0
      vertex 17.0656 19.3763 -0.5
      vertex 17.0656 19.3763 0
    endloop
  endfacet
  facet normal -0.77697 0.629537 0
    outer loop
      vertex 17.5729 21.7634 -0.5
      vertex 17.7706 22.0074 0
      vertex 17.7706 22.0074 -0.5
    endloop
  endfacet
  facet normal -0.77697 0.629537 0
    outer loop
      vertex 17.7706 22.0074 0
      vertex 17.5729 21.7634 -0.5
      vertex 17.5729 21.7634 0
    endloop
  endfacet
  facet normal 0 0 -1
    outer loop
      vertex 22.9836 19.6864 -0.5
      vertex 22.9836 20.3136 -0.5
      vertex 23 20 -0.5
    endloop
  endfacet
  facet normal 0 0 -1
    outer loop
      vertex 22.9344 19.3763 -0.5
      vertex 22.9836 20.3136 -0.5
      vertex 22.9836 19.6864 -0.5
    endloop
  endfacet
  facet normal 0 0 -1
    outer loop
      vertex 22.9344 19.3763 -0.5
      vertex 22.9344 20.6237 -0.5
      vertex 22.9836 20.3136 -0.5
    endloop
  endfacet
  facet normal 0 0 -1
    outer loop
      vertex 22.8532 19.0729 -0.5
      vertex 22.9344 20.6237 -0.5
      vertex 22.9344 19.3763 -0.5
    endloop
  endfacet
  facet normal 0 0 -1
    outer loop
      vertex 22.8532 19.0729 -0.5
      vertex 22.8532 20.9271 -0.5
      vertex 22.9344 20.6237 -0.5
    endloop
  endfacet
  facet normal 0 0 -1
    outer loop
      vertex 22.7406 18.7798 -0.5
      vertex 22.8532 20.9271 -0.5
      vertex 22.8532 19.0729 -0.5
    endloop
  endfacet
  facet normal 0 0 -1
    outer loop
      vertex 22.7406 18.7798 -0.5
      vertex 22.7406 21.2202 -0.5
      vertex 22.8532 20.9271 -0.5
    endloop
  endfacet
  facet normal 0 0 -1
    outer loop
      vertex 22.5981 18.5 -0.5
      vertex 22.7406 21.2202 -0.5
      vertex 22.7406 18.7798 -0.5
    endloop
  endfacet
  facet normal 0 0 -1
    outer loop
      vertex 22.5981 18.5 -0.5
      vertex 22.5981 21.5 -0.5
      vertex 22.7406 21.2202 -0.5
    endloop
  endfacet
  facet normal 0 0 -1
    outer loop
      vertex 22.4271 18.2366 -0.5
      vertex 22.5981 21.5 -0.5
      vertex 22.5981 18.5 -0.5
    endloop
  endfacet
  facet normal 0 0 -1
    outer loop
      vertex 22.4271 18.2366 -0.5
      vertex 22.4271 21.7634 -0.5
      vertex 22.5981 21.5 -0.5
    endloop
  endfacet
  facet normal 0 0 -1
    outer loop
      vertex 22.2294 17.9926 -0.5
      vertex 22.4271 21.7634 -0.5
      vertex 22.4271 18.2366 -0.5
    endloop
  endfacet
  facet normal 0 0 -1
    outer loop
      vertex 22.2294 17.9926 -0.5
      vertex 22.2294 22.0074 -0.5
      vertex 22.4271 21.7634 -0.5
    endloop
  endfacet
  facet normal 0 0 -1
    outer loop
      vertex 22.0074 17.7706 -0.5
      vertex 22.2294 22.0074 -0.5
      vertex 22.2294 17.9926 -0.5
    endloop
  endfacet
  facet normal 0 0 -1
    outer loop
      vertex 22.0074 17.7706 -0.5
      vertex 22.0074 22.2294 -0.5
      vertex 22.2294 22.0074 -0.5
    endloop
  endfacet
  facet normal 0 0 -1
    outer loop
      vertex 21.7634 17.5729 -0.5
      vertex 22.0074 22.2294 -0.5
      vertex 22.0074 17.7706 -0.5
    endloop
  endfacet
  facet normal 0 0 -1
    outer loop
      vertex 21.7634 17.5729 -0.5
      vertex 21.7634 22.4271 -0.5
      vertex 22.0074 22.2294 -0.5
    endloop
  endfacet
  facet normal 0 0 -1
    outer loop
      vertex 21.5 17.4019 -0.5
      vertex 21.7634 22.4271 -0.5
      vertex 21.7634 17.5729 -0.5
    endloop
  endfacet
  facet normal 0 0 -1
    outer loop
      vertex 21.5 17.4019 -0.5
      vertex 21.5 22.5981 -0.5
      vertex 21.7634 22.4271 -0.5
    endloop
  endfacet
  facet normal 0 0 -1
    outer loop
      vertex 21.2202 17.2594 -0.5
      vertex 21.5 22.5981 -0.5
      vertex 21.5 17.4019 -0.5
    endloop
  endfacet
  facet normal 0 0 -1
    outer loop
      vertex 21.2202 17.2594 -0.5
      vertex 21.2202 22.7406 -0.5
      vertex 21.5 22.5981 -0.5
    endloop
  endfacet
  facet normal 0 0 -1
    outer loop
      vertex 20.9271 17.1468 -0.5
      vertex 21.2202 22.7406 -0.5
      vertex 21.2202 17.2594 -0.5
    endloop
  endfacet
  facet normal 0 0 -1
    outer loop
      vertex 20.9271 17.1468 -0.5
      vertex 20.9271 22.8532 -0.5
      vertex 21.2202 22.7406 -0.5
    endloop
  endfacet
  facet normal 0 0 -1
    outer loop
      vertex 20.6237 17.0656 -0.5
      vertex 20.9271 22.8532 -0.5
      vertex 20.9271 17.1468 -0.5
    endloop
  endfacet
  facet normal 0 0 -1
    outer loop
      vertex 20.6237 17.0656 -0.5
      vertex 20.6237 22.9344 -0.5
      vertex 20.9271 22.8532 -0.5
    endloop
  endfacet
  facet normal 0 0 -1
    outer loop
      vertex 20.3136 17.0164 -0.5
      vertex 20.6237 22.9344 -0.5
      vertex 20.6237 17.0656 -0.5
    endloop
  endfacet
  facet normal 0 0 -1
    outer loop
      vertex 20.3136 17.0164 -0.5
      vertex 20.3136 22.9836 -0.5
      vertex 20.6237 22.9344 -0.5
    endloop
  endfacet
  facet normal 0 0 -1
    outer loop
      vertex 20 17 -0.5
      vertex 20.3136 22.9836 -0.5
      vertex 20.3136 17.0164 -0.5
    endloop
  endfacet
  facet normal 0 0 -1
    outer loop
      vertex 20 17 -0.5
      vertex 20 23 -0.5
      vertex 20.3136 22.9836 -0.5
    endloop
  endfacet
  facet normal 0 0 -1
    outer loop
      vertex 19.6864 17.0164 -0.5
      vertex 20 23 -0.5
      vertex 20 17 -0.5
    endloop
  endfacet
  facet normal 0 0 -1
    outer loop
      vertex 19.6864 17.0164 -0.5
      vertex 19.6864 22.9836 -0.5
      vertex 20 23 -0.5
    endloop
  endfacet
  facet normal 0 0 -1
    outer loop
      vertex 19.3763 17.0656 -0.5
      vertex 19.6864 22.9836 -0.5
      vertex 19.6864 17.0164 -0.5
    endloop
  endfacet
  facet normal 0 0 -1
    outer loop
      vertex 19.3763 17.0656 -0.5
      vertex 19.3763 22.9344 -0.5
      vertex 19.6864 22.9836 -0.5
    endloop
  endfacet
  facet normal 0 0 -1
    outer loop
      vertex 19.0729 17.1468 -0.5
      vertex 19.3763 22.9344 -0.5
      vertex 19.3763 17.0656 -0.5
    endloop
  endfacet
  facet normal 0 0 -1
    outer loop
      vertex 19.0729 17.1468 -0.5
      vertex 19.0729 22.8532 -0.5
      vertex 19.3763 22.9344 -0.5
    endloop
  endfacet
  facet normal 0 0 -1
    outer loop
      vertex 18.7798 17.2594 -0.5
      vertex 19.0729 22.8532 -0.5
      vertex 19.0729 17.1468 -0.5
    endloop
  endfacet
  facet normal 0 0 -1
    outer loop
      vertex 18.7798 17.2594 -0.5
      vertex 18.7798 22.7406 -0.5
      vertex 19.0729 22.8532 -0.5
    endloop
  endfacet
  facet normal 0 0 -1
    outer loop
      vertex 18.5 17.4019 -0.5
      vertex 18.7798 22.7406 -0.5
      vertex 18.7798 17.2594 -0.5
    endloop
  endfacet
  facet normal 0 0 -1
    outer loop
      vertex 18.5 17.4019 -0.5
      vertex 18.5 22.5981 -0.5
      vertex 18.7798 22.7406 -0.5
    endloop
  endfacet
  facet normal 0 0 -1
    outer loop
      vertex 18.2366 17.5729 -0.5
      vertex 18.5 22.5981 -0.5
      vertex 18.5 17.4019 -0.5
    endloop
  endfacet
  facet normal 0 0 -1
    outer loop
      vertex 18.2366 17.5729 -0.5
      vertex 18.2366 22.4271 -0.5
      vertex 18.5 22.5981 -0.5
    endloop
  endfacet
  facet normal 0 0 -1
    outer loop
      vertex 17.9926 17.7706 -0.5
      vertex 18.2366 22.4271 -0.5
      vertex 18.2366 17.5729 -0.5
    endloop
  endfacet
  facet normal 0 0 -1
    outer loop
      vertex 17.9926 17.7706 -0.5
      vertex 17.9926 22.2294 -0.5
      vertex 18.2366 22.4271 -0.5
    endloop
  endfacet
  facet normal 0 0 -1
    outer loop
      vertex 17.7706 17.9926 -0.5
      vertex 17.9926 22.2294 -0.5
      vertex 17.9926 17.7706 -0.5
    endloop
  endfacet
  facet normal 0 0 -1
    outer loop
      vertex 17.7706 17.9926 -0.5
      vertex 17.7706 22.0074 -0.5
      vertex 17.9926 22.2294 -0.5
    endloop
  endfacet
  facet normal 0 0 -1
    outer loop
      vertex 17.5729 18.2366 -0.5
      vertex 17.7706 22.0074 -0.5
      vertex 17.7706 17.9926 -0.5
    endloop
  endfacet
  facet normal 0 0 -1
    outer loop
      vertex 17.5729 18.2366 -0.5
      vertex 17.5729 21.7634 -0.5
      vertex 17.7706 22.0074 -0.5
    endloop
  endfacet
  facet normal 0 0 -1
    outer loop
      vertex 17.4019 18.5 -0.5
      vertex 17.5729 21.7634 -0.5
      vertex 17.5729 18.2366 -0.5
    endloop
  endfacet
  facet normal 0 0 -1
    outer loop
      vertex 17.4019 18.5 -0.5
      vertex 17.4019 21.5 -0.5
      vertex 17.5729 21.7634 -0.5
    endloop
  endfacet
  facet normal 0 0 -1
    outer loop
      vertex 17.2594 18.7798 -0.5
      vertex 17.4019 21.5 -0.5
      vertex 17.4019 18.5 -0.5
    endloop
  endfacet
  facet normal 0 0 -1
    outer loop
      vertex 17.2594 18.7798 -0.5
      vertex 17.2594 21.2202 -0.5
      vertex 17.4019 21.5 -0.5
    endloop
  endfacet
  facet normal 0 0 -1
    outer loop
      vertex 17.1468 19.0729 -0.5
      vertex 17.2594 21.2202 -0.5
      vertex 17.2594 18.7798 -0.5
    endloop
  endfacet
  facet normal 0 0 -1
    outer loop
      vertex 17.1468 19.0729 -0.5
      vertex 17.1468 20.9271 -0.5
      vertex 17.2594 21.2202 -0.5
    endloop
  endfacet
  facet normal 0 0 -1
    outer loop
      vertex 17.0656 19.3763 -0.5
      vertex 17.1468 20.9271 -0.5
      vertex 17.1468 19.0729 -0.5
    endloop
  endfacet
  facet normal 0 0 -1
    outer loop
      vertex 17.0656 19.3763 -0.5
      vertex 17.0656 20.6237 -0.5
      vertex 17.1468 20.9271 -0.5
    endloop
  endfacet
  facet normal 0 0 -1
    outer loop
      vertex 17.0164 19.6864 -0.5
      vertex 17.0656 20.6237 -0.5
      vertex 17.0656 19.3763 -0.5
    endloop
  endfacet
  facet normal 0 0 -1
    outer loop
      vertex 17.0164 19.6864 -0.5
      vertex 17.0164 20.3136 -0.5
      vertex 17.0656 20.6237 -0.5
    endloop
  endfacet
  facet normal 0 -0 -1
    outer loop
      vertex 17.0164 20.3136 -0.5
      vertex 17.0164 19.6864 -0.5
      vertex 17 20 -0.5
    endloop
  endfacet
  facet normal -0.156699 -0.987646 0
    outer loop
      vertex 19.3763 17.0656 -0.5
      vertex 19.6864 17.0164 0
      vertex 19.3763 17.0656 0
    endloop
  endfacet
  facet normal -0.156699 -0.987646 -0
    outer loop
      vertex 19.6864 17.0164 0
      vertex 19.3763 17.0656 -0.5
      vertex 19.6864 17.0164 -0.5
    endloop
  endfacet
  facet normal 0.453826 0.891091 -0
    outer loop
      vertex 21.5 22.5981 -0.5
      vertex 21.2202 22.7406 0
      vertex 21.5 22.5981 0
    endloop
  endfacet
  facet normal 0.453826 0.891091 0
    outer loop
      vertex 21.2202 22.7406 0
      vertex 21.5 22.5981 -0.5
      vertex 21.2202 22.7406 -0.5
    endloop
  endfacet
  facet normal -0.453826 -0.891091 0
    outer loop
      vertex 18.5 17.4019 -0.5
      vertex 18.7798 17.2594 0
      vertex 18.5 17.4019 0
    endloop
  endfacet
  facet normal -0.453826 -0.891091 -0
    outer loop
      vertex 18.7798 17.2594 0
      vertex 18.5 17.4019 -0.5
      vertex 18.7798 17.2594 -0.5
    endloop
  endfacet
  facet normal 0.156699 -0.987646 0
    outer loop
      vertex 20.3136 17.0164 -0.5
      vertex 20.6237 17.0656 0
      vertex 20.3136 17.0164 0
    endloop
  endfacet
  facet normal 0.156699 -0.987646 0
    outer loop
      vertex 20.6237 17.0656 0
      vertex 20.3136 17.0164 -0.5
      vertex 20.6237 17.0656 -0.5
    endloop
  endfacet
  facet normal 0.258534 -0.966002 0
    outer loop
      vertex 20.6237 17.0656 -0.5
      vertex 20.9271 17.1468 0
      vertex 20.6237 17.0656 0
    endloop
  endfacet
  facet normal 0.258534 -0.966002 0
    outer loop
      vertex 20.9271 17.1468 0
      vertex 20.6237 17.0656 -0.5
      vertex 20.9271 17.1468 -0.5
    endloop
  endfacet
  facet normal -0.933485 0.358616 0
    outer loop
      vertex 17.1468 20.9271 -0.5
      vertex 17.2594 21.2202 0
      vertex 17.2594 21.2202 -0.5
    endloop
  endfacet
  facet normal -0.933485 0.358616 0
    outer loop
      vertex 17.2594 21.2202 0
      vertex 17.1468 20.9271 -0.5
      vertex 17.1468 20.9271 0
    endloop
  endfacet
  facet normal 0.707107 0.707107 0
    outer loop
      vertex 22.2294 22.0074 0
      vertex 22.0074 22.2294 -0.5
      vertex 22.0074 22.2294 0
    endloop
  endfacet
  facet normal 0.707107 0.707107 0
    outer loop
      vertex 22.0074 22.2294 -0.5
      vertex 22.2294 22.0074 0
      vertex 22.2294 22.0074 -0.5
    endloop
  endfacet
  facet normal -0.156699 0.987646 0
    outer loop
      vertex 19.6864 22.9836 -0.5
      vertex 19.3763 22.9344 0
      vertex 19.6864 22.9836 0
    endloop
  endfacet
  facet normal -0.156699 0.987646 0
    outer loop
      vertex 19.3763 22.9344 0
      vertex 19.6864 22.9836 -0.5
      vertex 19.3763 22.9344 -0.5
    endloop
  endfacet
  facet normal 0.838749 0.544518 0
    outer loop
      vertex 22.5981 21.5 0
      vertex 22.4271 21.7634 -0.5
      vertex 22.4271 21.7634 0
    endloop
  endfacet
  facet normal 0.838749 0.544518 0
    outer loop
      vertex 22.4271 21.7634 -0.5
      vertex 22.5981 21.5 0
      vertex 22.5981 21.5 -0.5
    endloop
  endfacet
  facet normal -0.358616 0.933485 0
    outer loop
      vertex 19.0729 22.8532 -0.5
      vertex 18.7798 22.7406 0
      vertex 19.0729 22.8532 0
    endloop
  endfacet
  facet normal -0.358616 0.933485 0
    outer loop
      vertex 18.7798 22.7406 0
      vertex 19.0729 22.8532 -0.5
      vertex 18.7798 22.7406 -0.5
    endloop
  endfacet
  facet normal -0.838749 -0.544518 0
    outer loop
      vertex 17.5729 18.2366 -0.5
      vertex 17.4019 18.5 0
      vertex 17.4019 18.5 -0.5
    endloop
  endfacet
  facet normal -0.838749 -0.544518 0
    outer loop
      vertex 17.4019 18.5 0
      vertex 17.5729 18.2366 -0.5
      vertex 17.5729 18.2366 0
    endloop
  endfacet
  facet normal 0.0522246 -0.998635 0
    outer loop
      vertex 20 17 -0.5
      vertex 20.3136 17.0164 0
      vertex 20 17 0
    endloop
  endfacet
  facet normal 0.0522246 -0.998635 0
    outer loop
      vertex 20.3136 17.0164 0
      vertex 20 17 -0.5
      vertex 20.3136 17.0164 -0.5
    endloop
  endfacet
  facet normal -0.707107 -0.707107 0
    outer loop
      vertex 17.9926 17.7706 -0.5
      vertex 17.7706 17.9926 0
      vertex 17.7706 17.9926 -0.5
    endloop
  endfacet
  facet normal -0.707107 -0.707107 0
    outer loop
      vertex 17.7706 17.9926 0
      vertex 17.9926 17.7706 -0.5
      vertex 17.9926 17.7706 0
    endloop
  endfacet
  facet normal -0.629537 -0.77697 0
    outer loop
      vertex 17.9926 17.7706 -0.5
      vertex 18.2366 17.5729 0
      vertex 17.9926 17.7706 0
    endloop
  endfacet
  facet normal -0.629537 -0.77697 -0
    outer loop
      vertex 18.2366 17.5729 0
      vertex 17.9926 17.7706 -0.5
      vertex 18.2366 17.5729 -0.5
    endloop
  endfacet
  facet normal -0.891091 -0.453826 0
    outer loop
      vertex 17.4019 18.5 -0.5
      vertex 17.2594 18.7798 0
      vertex 17.2594 18.7798 -0.5
    endloop
  endfacet
  facet normal -0.891091 -0.453826 0
    outer loop
      vertex 17.2594 18.7798 0
      vertex 17.4019 18.5 -0.5
      vertex 17.4019 18.5 0
    endloop
  endfacet
  facet normal -0.629537 0.77697 0
    outer loop
      vertex 18.2366 22.4271 -0.5
      vertex 17.9926 22.2294 0
      vertex 18.2366 22.4271 0
    endloop
  endfacet
  facet normal -0.629537 0.77697 0
    outer loop
      vertex 17.9926 22.2294 0
      vertex 18.2366 22.4271 -0.5
      vertex 17.9926 22.2294 -0.5
    endloop
  endfacet
  facet normal 0.629537 0.77697 -0
    outer loop
      vertex 22.0074 22.2294 -0.5
      vertex 21.7634 22.4271 0
      vertex 22.0074 22.2294 0
    endloop
  endfacet
  facet normal 0.629537 0.77697 0
    outer loop
      vertex 21.7634 22.4271 0
      vertex 22.0074 22.2294 -0.5
      vertex 21.7634 22.4271 -0.5
    endloop
  endfacet
  facet normal -0.258534 -0.966002 0
    outer loop
      vertex 19.0729 17.1468 -0.5
      vertex 19.3763 17.0656 0
      vertex 19.0729 17.1468 0
    endloop
  endfacet
  facet normal -0.258534 -0.966002 -0
    outer loop
      vertex 19.3763 17.0656 0
      vertex 19.0729 17.1468 -0.5
      vertex 19.3763 17.0656 -0.5
    endloop
  endfacet
  facet normal 0.453826 -0.891091 0
    outer loop
      vertex 21.2202 17.2594 -0.5
      vertex 21.5 17.4019 0
      vertex 21.2202 17.2594 0
    endloop
  endfacet
  facet normal 0.453826 -0.891091 0
    outer loop
      vertex 21.5 17.4019 0
      vertex 21.2202 17.2594 -0.5
      vertex 21.5 17.4019 -0.5
    endloop
  endfacet
  facet normal 0.358616 -0.933485 0
    outer loop
      vertex 20.9271 17.1468 -0.5
      vertex 21.2202 17.2594 0
      vertex 20.9271 17.1468 0
    endloop
  endfacet
  facet normal 0.358616 -0.933485 0
    outer loop
      vertex 21.2202 17.2594 0
      vertex 20.9271 17.1468 -0.5
      vertex 21.2202 17.2594 -0.5
    endloop
  endfacet
  facet normal 0.544518 -0.838749 0
    outer loop
      vertex 21.5 17.4019 -0.5
      vertex 21.7634 17.5729 0
      vertex 21.5 17.4019 0
    endloop
  endfacet
  facet normal 0.544518 -0.838749 0
    outer loop
      vertex 21.7634 17.5729 0
      vertex 21.5 17.4019 -0.5
      vertex 21.7634 17.5729 -0.5
    endloop
  endfacet
  facet normal -0.544518 -0.838749 0
    outer loop
      vertex 18.2366 17.5729 -0.5
      vertex 18.5 17.4019 0
      vertex 18.2366 17.5729 0
    endloop
  endfacet
  facet normal -0.544518 -0.838749 -0
    outer loop
      vertex 18.5 17.4019 0
      vertex 18.2366 17.5729 -0.5
      vertex 18.5 17.4019 -0.5
    endloop
  endfacet
  facet normal 0.156699 0.987646 -0
    outer loop
      vertex 20.6237 22.9344 -0.5
      vertex 20.3136 22.9836 0
      vertex 20.6237 22.9344 0
    endloop
  endfacet
  facet normal 0.156699 0.987646 0
    outer loop
      vertex 20.3136 22.9836 0
      vertex 20.6237 22.9344 -0.5
      vertex 20.3136 22.9836 -0.5
    endloop
  endfacet
  facet normal -0.966002 0.258534 0
    outer loop
      vertex 17.0656 20.6237 -0.5
      vertex 17.1468 20.9271 0
      vertex 17.1468 20.9271 -0.5
    endloop
  endfacet
  facet normal -0.966002 0.258534 0
    outer loop
      vertex 17.1468 20.9271 0
      vertex 17.0656 20.6237 -0.5
      vertex 17.0656 20.6237 0
    endloop
  endfacet
  facet normal -0.998635 0.0522246 0
    outer loop
      vertex 17 20 -0.5
      vertex 17.0164 20.3136 0
      vertex 17.0164 20.3136 -0.5
    endloop
  endfacet
  facet normal -0.998635 0.0522246 0
    outer loop
      vertex 17.0164 20.3136 0
      vertex 17 20 -0.5
      vertex 17 20 0
    endloop
  endfacet
  facet normal -0.998635 -0.0522246 0
    outer loop
      vertex 17.0164 19.6864 -0.5
      vertex 17 20 0
      vertex 17 20 -0.5
    endloop
  endfacet
  facet normal -0.998635 -0.0522246 0
    outer loop
      vertex 17 20 0
      vertex 17.0164 19.6864 -0.5
      vertex 17.0164 19.6864 0
    endloop
  endfacet
  facet normal -0.0522246 -0.998635 0
    outer loop
      vertex 19.6864 17.0164 -0.5
      vertex 20 17 0
      vertex 19.6864 17.0164 0
    endloop
  endfacet
  facet normal -0.0522246 -0.998635 -0
    outer loop
      vertex 20 17 0
      vertex 19.6864 17.0164 -0.5
      vertex 20 17 -0.5
    endloop
  endfacet
  facet normal 0.77697 -0.629537 0
    outer loop
      vertex 22.2294 17.9926 0
      vertex 22.4271 18.2366 -0.5
      vertex 22.4271 18.2366 0
    endloop
  endfacet
  facet normal 0.77697 -0.629537 0
    outer loop
      vertex 22.4271 18.2366 -0.5
      vertex 22.2294 17.9926 0
      vertex 22.2294 17.9926 -0.5
    endloop
  endfacet
  facet normal 0.707107 -0.707107 0
    outer loop
      vertex 22.0074 17.7706 -0.5
      vertex 22.2294 17.9926 0
      vertex 22.0074 17.7706 0
    endloop
  endfacet
  facet normal 0.707107 -0.707107 0
    outer loop
      vertex 22.2294 17.9926 0
      vertex 22.0074 17.7706 -0.5
      vertex 22.2294 17.9926 -0.5
    endloop
  endfacet
  facet normal 0 0 -1
    outer loop
      vertex 25 15 15
      vertex 50 30 15
      vertex 50 15 15
    endloop
  endfacet
  facet normal -0 0 -1
    outer loop
      vertex 50 30 15
      vertex 25 15 15
      vertex 25 30 15
    endloop
  endfacet
  facet normal 1 -0 0
    outer loop
      vertex 25 15 15
      vertex 25 30 0
      vertex 25 30 15
    endloop
  endfacet
  facet normal 1 0 0
    outer loop
      vertex 25 30 0
      vertex 25 15 15
      vertex 25 15 0
    endloop
  endfacet
  facet normal 0 1 -0
    outer loop
      vertex 50 15 0
      vertex 25 15 15
      vertex 50 15 15
    endloop
  endfacet
  facet normal 0 1 0
    outer loop
      vertex 25 15 15
      vertex 50 15 0
      vertex 25 15 0
    endloop
  endfacet
endsolid OpenSCAD_Model
