solid OpenSCAD_Model
  facet normal -0.743147 -0.669129 0
    outer loop
      vertex -6.69131 -7.43145 0
      vertex -8.09017 -5.87785 100
      vertex -8.09017 -5.87785 0
    endloop
  endfacet
  facet normal -0.743147 -0.669129 0
    outer loop
      vertex -8.09017 -5.87785 100
      vertex -6.69131 -7.43145 0
      vertex -6.69131 -7.43145 100
    endloop
  endfacet
  facet normal 0.951055 0.309021 0
    outer loop
      vertex 9.78148 2.07912 50
      vertex 9.13545 4.06737 0
      vertex 9.13545 4.06737 50
    endloop
  endfacet
  facet normal 0.951055 0.309021 0
    outer loop
      vertex 9.13545 4.06737 0
      vertex 9.78148 2.07912 50
      vertex 9.78148 2.07912 0
    endloop
  endfacet
  facet normal 0.994521 0.104536 0
    outer loop
      vertex 9.91934 0.767376 100
      vertex 10 0 100
      vertex 9.91934 0.767376 50
    endloop
  endfacet
  facet normal 0.994523 0.104521 0
    outer loop
      vertex 9.91934 0.767376 50
      vertex 9.78148 2.07912 0
      vertex 9.78148 2.07912 50
    endloop
  endfacet
  facet normal 0.994522 0.104526 1.41738e-07
    outer loop
      vertex 9.91934 0.767376 50
      vertex 10 0 0
      vertex 9.78148 2.07912 0
    endloop
  endfacet
  facet normal 0.994521 0.104536 -0
    outer loop
      vertex 10 0 0
      vertex 9.91934 0.767376 50
      vertex 10 0 100
    endloop
  endfacet
  facet normal 0.866026 0.5 0
    outer loop
      vertex 9.13545 4.06737 50
      vertex 8.09017 5.87785 0
      vertex 8.09017 5.87785 50
    endloop
  endfacet
  facet normal 0.866026 0.5 0
    outer loop
      vertex 8.09017 5.87785 0
      vertex 9.13545 4.06737 50
      vertex 9.13545 4.06737 0
    endloop
  endfacet
  facet normal 0.951055 -0.309021 0
    outer loop
      vertex 9.13545 -4.06737 100
      vertex 9.78148 -2.07912 0
      vertex 9.78148 -2.07912 100
    endloop
  endfacet
  facet normal 0.951055 -0.309021 0
    outer loop
      vertex 9.78148 -2.07912 0
      vertex 9.13545 -4.06737 100
      vertex 9.13545 -4.06737 0
    endloop
  endfacet
  facet normal 0.587783 -0.809019 0
    outer loop
      vertex 5 -8.66025 0
      vertex 6.69131 -7.43145 100
      vertex 5 -8.66025 100
    endloop
  endfacet
  facet normal 0.587783 -0.809019 0
    outer loop
      vertex 6.69131 -7.43145 100
      vertex 5 -8.66025 0
      vertex 6.69131 -7.43145 0
    endloop
  endfacet
  facet normal 0.743147 -0.669129 0
    outer loop
      vertex 6.69131 -7.43145 100
      vertex 8.09017 -5.87785 0
      vertex 8.09017 -5.87785 100
    endloop
  endfacet
  facet normal 0.743147 -0.669129 0
    outer loop
      vertex 8.09017 -5.87785 0
      vertex 6.69131 -7.43145 100
      vertex 6.69131 -7.43145 0
    endloop
  endfacet
  facet normal 0.994522 -0.104526 0
    outer loop
      vertex 9.78148 -2.07912 100
      vertex 10 0 0
      vertex 10 0 100
    endloop
  endfacet
  facet normal 0.994522 -0.104526 0
    outer loop
      vertex 10 0 0
      vertex 9.78148 -2.07912 100
      vertex 9.78148 -2.07912 0
    endloop
  endfacet
  facet normal -0.406736 -0.913546 0
    outer loop
      vertex -5 -8.66025 0
      vertex -3.09017 -9.51056 100
      vertex -5 -8.66025 100
    endloop
  endfacet
  facet normal -0.406736 -0.913546 -0
    outer loop
      vertex -3.09017 -9.51056 100
      vertex -5 -8.66025 0
      vertex -3.09017 -9.51056 0
    endloop
  endfacet
  facet normal 0.406736 0.913546 -0
    outer loop
      vertex 5 8.66025 0
      vertex 3.09017 9.51056 50
      vertex 5 8.66025 50
    endloop
  endfacet
  facet normal 0.406736 0.913546 0
    outer loop
      vertex 3.09017 9.51056 50
      vertex 5 8.66025 0
      vertex 3.09017 9.51056 0
    endloop
  endfacet
  facet normal 0.743147 0.669129 0
    outer loop
      vertex 8.09017 5.87785 50
      vertex 6.69131 7.43145 0
      vertex 6.69131 7.43145 50
    endloop
  endfacet
  facet normal 0.743147 0.669129 0
    outer loop
      vertex 6.69131 7.43145 0
      vertex 8.09017 5.87785 50
      vertex 8.09017 5.87785 0
    endloop
  endfacet
  facet normal -0.587783 -0.809019 0
    outer loop
      vertex -6.69131 -7.43145 0
      vertex -5 -8.66025 100
      vertex -6.69131 -7.43145 100
    endloop
  endfacet
  facet normal -0.587783 -0.809019 -0
    outer loop
      vertex -5 -8.66025 100
      vertex -6.69131 -7.43145 0
      vertex -5 -8.66025 0
    endloop
  endfacet
  facet normal -0.743147 0.669129 0
    outer loop
      vertex -8.09017 5.87785 0
      vertex -6.69131 7.43145 50
      vertex -6.69131 7.43145 0
    endloop
  endfacet
  facet normal -0.743147 0.669129 0
    outer loop
      vertex -6.69131 7.43145 50
      vertex -8.09017 5.87785 0
      vertex -8.09017 5.87785 50
    endloop
  endfacet
  facet normal 0 1 -0
    outer loop
      vertex 1.04528 9.94522 0
      vertex -1.04528 9.94522 50
      vertex 1.04528 9.94522 50
    endloop
  endfacet
  facet normal 0 1 0
    outer loop
      vertex -1.04528 9.94522 50
      vertex 1.04528 9.94522 0
      vertex -1.04528 9.94522 0
    endloop
  endfacet
  facet normal 0.406736 -0.913546 0
    outer loop
      vertex 3.09017 -9.51056 0
      vertex 5 -8.66025 100
      vertex 3.09017 -9.51056 100
    endloop
  endfacet
  facet normal 0.406736 -0.913546 0
    outer loop
      vertex 5 -8.66025 100
      vertex 3.09017 -9.51056 0
      vertex 5 -8.66025 0
    endloop
  endfacet
  facet normal 0.207914 -0.978147 0
    outer loop
      vertex 1.04528 -9.94522 0
      vertex 3.09017 -9.51056 100
      vertex 1.04528 -9.94522 100
    endloop
  endfacet
  facet normal 0.207914 -0.978147 0
    outer loop
      vertex 3.09017 -9.51056 100
      vertex 1.04528 -9.94522 0
      vertex 3.09017 -9.51056 0
    endloop
  endfacet
  facet normal -0.951055 0.309021 0
    outer loop
      vertex -9.78148 2.07912 0
      vertex -9.13545 4.06737 50
      vertex -9.13545 4.06737 0
    endloop
  endfacet
  facet normal -0.951055 0.309021 0
    outer loop
      vertex -9.13545 4.06737 50
      vertex -9.78148 2.07912 0
      vertex -9.78148 2.07912 50
    endloop
  endfacet
  facet normal 0 0 -1
    outer loop
      vertex 9.78148 -2.07912 0
      vertex 9.78148 2.07912 0
      vertex 10 0 0
    endloop
  endfacet
  facet normal 0 0 -1
    outer loop
      vertex 9.13545 -4.06737 0
      vertex 9.78148 2.07912 0
      vertex 9.78148 -2.07912 0
    endloop
  endfacet
  facet normal 0 0 -1
    outer loop
      vertex 9.13545 -4.06737 0
      vertex 9.13545 4.06737 0
      vertex 9.78148 2.07912 0
    endloop
  endfacet
  facet normal 0 0 -1
    outer loop
      vertex 8.09017 -5.87785 0
      vertex 9.13545 4.06737 0
      vertex 9.13545 -4.06737 0
    endloop
  endfacet
  facet normal 0 0 -1
    outer loop
      vertex 8.09017 -5.87785 0
      vertex 8.09017 5.87785 0
      vertex 9.13545 4.06737 0
    endloop
  endfacet
  facet normal 0 0 -1
    outer loop
      vertex 6.69131 -7.43145 0
      vertex 8.09017 5.87785 0
      vertex 8.09017 -5.87785 0
    endloop
  endfacet
  facet normal 0 0 -1
    outer loop
      vertex 6.69131 -7.43145 0
      vertex 6.69131 7.43145 0
      vertex 8.09017 5.87785 0
    endloop
  endfacet
  facet normal 0 0 -1
    outer loop
      vertex 5 -8.66025 0
      vertex 6.69131 7.43145 0
      vertex 6.69131 -7.43145 0
    endloop
  endfacet
  facet normal 0 0 -1
    outer loop
      vertex 5 -8.66025 0
      vertex 5 8.66025 0
      vertex 6.69131 7.43145 0
    endloop
  endfacet
  facet normal 0 0 -1
    outer loop
      vertex 3.09017 -9.51056 0
      vertex 5 8.66025 0
      vertex 5 -8.66025 0
    endloop
  endfacet
  facet normal 0 0 -1
    outer loop
      vertex 3.09017 -9.51056 0
      vertex 3.09017 9.51056 0
      vertex 5 8.66025 0
    endloop
  endfacet
  facet normal 0 0 -1
    outer loop
      vertex 1.04528 -9.94522 0
      vertex 3.09017 9.51056 0
      vertex 3.09017 -9.51056 0
    endloop
  endfacet
  facet normal 0 0 -1
    outer loop
      vertex 1.04528 -9.94522 0
      vertex 1.04528 9.94522 0
      vertex 3.09017 9.51056 0
    endloop
  endfacet
  facet normal 0 0 -1
    outer loop
      vertex -1.04528 -9.94522 0
      vertex 1.04528 9.94522 0
      vertex 1.04528 -9.94522 0
    endloop
  endfacet
  facet normal 0 0 -1
    outer loop
      vertex -1.04528 -9.94522 0
      vertex -1.04528 9.94522 0
      vertex 1.04528 9.94522 0
    endloop
  endfacet
  facet normal 0 0 -1
    outer loop
      vertex -3.09017 -9.51056 0
      vertex -1.04528 9.94522 0
      vertex -1.04528 -9.94522 0
    endloop
  endfacet
  facet normal 0 0 -1
    outer loop
      vertex -3.09017 -9.51056 0
      vertex -3.09017 9.51056 0
      vertex -1.04528 9.94522 0
    endloop
  endfacet
  facet normal 0 0 -1
    outer loop
      vertex -5 -8.66025 0
      vertex -3.09017 9.51056 0
      vertex -3.09017 -9.51056 0
    endloop
  endfacet
  facet normal 0 0 -1
    outer loop
      vertex -5 -8.66025 0
      vertex -5 8.66025 0
      vertex -3.09017 9.51056 0
    endloop
  endfacet
  facet normal 0 0 -1
    outer loop
      vertex -6.69131 -7.43145 0
      vertex -5 8.66025 0
      vertex -5 -8.66025 0
    endloop
  endfacet
  facet normal 0 0 -1
    outer loop
      vertex -6.69131 -7.43145 0
      vertex -6.69131 7.43145 0
      vertex -5 8.66025 0
    endloop
  endfacet
  facet normal 0 0 -1
    outer loop
      vertex -8.09017 -5.87785 0
      vertex -6.69131 7.43145 0
      vertex -6.69131 -7.43145 0
    endloop
  endfacet
  facet normal 0 0 -1
    outer loop
      vertex -8.09017 -5.87785 0
      vertex -8.09017 5.87785 0
      vertex -6.69131 7.43145 0
    endloop
  endfacet
  facet normal 0 0 -1
    outer loop
      vertex -9.13545 -4.06737 0
      vertex -8.09017 5.87785 0
      vertex -8.09017 -5.87785 0
    endloop
  endfacet
  facet normal 0 0 -1
    outer loop
      vertex -9.13545 -4.06737 0
      vertex -9.13545 4.06737 0
      vertex -8.09017 5.87785 0
    endloop
  endfacet
  facet normal 0 0 -1
    outer loop
      vertex -9.78148 -2.07912 0
      vertex -9.13545 4.06737 0
      vertex -9.13545 -4.06737 0
    endloop
  endfacet
  facet normal 0 0 -1
    outer loop
      vertex -9.78148 -2.07912 0
      vertex -9.78148 2.07912 0
      vertex -9.13545 4.06737 0
    endloop
  endfacet
  facet normal 0 -0 -1
    outer loop
      vertex -9.78148 2.07912 0
      vertex -9.78148 -2.07912 0
      vertex -10 0 0
    endloop
  endfacet
  facet normal -0.951055 -0.309021 0
    outer loop
      vertex -9.13545 -4.06737 0
      vertex -9.78148 -2.07912 100
      vertex -9.78148 -2.07912 0
    endloop
  endfacet
  facet normal -0.951055 -0.309021 0
    outer loop
      vertex -9.78148 -2.07912 100
      vertex -9.13545 -4.06737 0
      vertex -9.13545 -4.06737 100
    endloop
  endfacet
  facet normal -0.406736 0.913546 0
    outer loop
      vertex -3.09017 9.51056 0
      vertex -5 8.66025 50
      vertex -3.09017 9.51056 50
    endloop
  endfacet
  facet normal -0.406736 0.913546 0
    outer loop
      vertex -5 8.66025 50
      vertex -3.09017 9.51056 0
      vertex -5 8.66025 0
    endloop
  endfacet
  facet normal 0 0 1
    outer loop
      vertex 14.6722 15.1187 100
      vertex 14.6722 8.88132 100
      vertex 15 12 100
    endloop
  endfacet
  facet normal 0 0 1
    outer loop
      vertex 13.7032 18.101 100
      vertex 14.6722 8.88132 100
      vertex 14.6722 15.1187 100
    endloop
  endfacet
  facet normal 0 0 1
    outer loop
      vertex 13.7032 18.101 100
      vertex 13.7032 5.89895 100
      vertex 14.6722 8.88132 100
    endloop
  endfacet
  facet normal 0 0 1
    outer loop
      vertex 12.1353 20.8168 100
      vertex 13.7032 5.89895 100
      vertex 13.7032 18.101 100
    endloop
  endfacet
  facet normal 0 0 1
    outer loop
      vertex 12.1353 20.8168 100
      vertex 12.1353 3.18322 100
      vertex 13.7032 5.89895 100
    endloop
  endfacet
  facet normal 0 0 1
    outer loop
      vertex 10.037 23.1472 100
      vertex 12.1353 3.18322 100
      vertex 12.1353 20.8168 100
    endloop
  endfacet
  facet normal 0 0 1
    outer loop
      vertex 9.91934 0.767376 100
      vertex 12.1353 3.18322 100
      vertex 10.037 23.1472 100
    endloop
  endfacet
  facet normal 0 0 1
    outer loop
      vertex 12.1353 3.18322 100
      vertex 9.91934 0.767376 100
      vertex 10.037 0.852827 100
    endloop
  endfacet
  facet normal 0 0 1
    outer loop
      vertex -9.91934 0.767376 100
      vertex 9.91934 0.767376 100
      vertex 10.037 23.1472 100
    endloop
  endfacet
  facet normal 0 -0 1
    outer loop
      vertex 9.13545 -4.06737 100
      vertex 9.91934 0.767376 100
      vertex -9.91934 0.767376 100
    endloop
  endfacet
  facet normal 0 0 1
    outer loop
      vertex 9.91934 0.767376 100
      vertex 9.13545 -4.06737 100
      vertex 9.78148 -2.07912 100
    endloop
  endfacet
  facet normal 0 0 1
    outer loop
      vertex -9.91934 0.767376 100
      vertex 10.037 23.1472 100
      vertex 7.5 24.9904 100
    endloop
  endfacet
  facet normal 0 0 1
    outer loop
      vertex 9.13545 -4.06737 100
      vertex -9.91934 0.767376 100
      vertex 8.09017 -5.87785 100
    endloop
  endfacet
  facet normal 0 0 1
    outer loop
      vertex 8.09017 -5.87785 100
      vertex -9.91934 0.767376 100
      vertex 6.69131 -7.43145 100
    endloop
  endfacet
  facet normal 0 0 1
    outer loop
      vertex -9.91934 0.767376 100
      vertex 7.5 24.9904 100
      vertex 4.63525 26.2658 100
    endloop
  endfacet
  facet normal 0 0 1
    outer loop
      vertex 6.69131 -7.43145 100
      vertex -9.91934 0.767376 100
      vertex 5 -8.66025 100
    endloop
  endfacet
  facet normal 0 0 1
    outer loop
      vertex -9.91934 0.767376 100
      vertex 4.63525 26.2658 100
      vertex 1.56793 26.9178 100
    endloop
  endfacet
  facet normal 0 0 1
    outer loop
      vertex 5 -8.66025 100
      vertex -9.91934 0.767376 100
      vertex 3.09017 -9.51056 100
    endloop
  endfacet
  facet normal 0 0 1
    outer loop
      vertex 3.09017 -9.51056 100
      vertex -9.91934 0.767376 100
      vertex 1.04528 -9.94522 100
    endloop
  endfacet
  facet normal 0 0 1
    outer loop
      vertex -9.91934 0.767376 100
      vertex 1.56793 26.9178 100
      vertex -1.56793 26.9178 100
    endloop
  endfacet
  facet normal 0 0 1
    outer loop
      vertex 1.04528 -9.94522 100
      vertex -9.91934 0.767376 100
      vertex -1.04528 -9.94522 100
    endloop
  endfacet
  facet normal 0 0 1
    outer loop
      vertex -9.91934 0.767376 100
      vertex -1.56793 26.9178 100
      vertex -4.63525 26.2658 100
    endloop
  endfacet
  facet normal 0 0 1
    outer loop
      vertex -1.04528 -9.94522 100
      vertex -9.91934 0.767376 100
      vertex -3.09017 -9.51056 100
    endloop
  endfacet
  facet normal 0 0 1
    outer loop
      vertex -3.09017 -9.51056 100
      vertex -9.91934 0.767376 100
      vertex -5 -8.66025 100
    endloop
  endfacet
  facet normal 0 0 1
    outer loop
      vertex -9.91934 0.767376 100
      vertex -4.63525 26.2658 100
      vertex -7.5 24.9904 100
    endloop
  endfacet
  facet normal 0 0 1
    outer loop
      vertex -5 -8.66025 100
      vertex -9.91934 0.767376 100
      vertex -6.69131 -7.43145 100
    endloop
  endfacet
  facet normal 0 0 1
    outer loop
      vertex -6.69131 -7.43145 100
      vertex -9.91934 0.767376 100
      vertex -8.09017 -5.87785 100
    endloop
  endfacet
  facet normal 0 0 1
    outer loop
      vertex -8.09017 -5.87785 100
      vertex -9.91934 0.767376 100
      vertex -9.13545 -4.06737 100
    endloop
  endfacet
  facet normal 0 0 1
    outer loop
      vertex -9.13545 -4.06737 100
      vertex -9.91934 0.767376 100
      vertex -9.78148 -2.07912 100
    endloop
  endfacet
  facet normal -0 0 1
    outer loop
      vertex -10.037 23.1472 100
      vertex -9.91934 0.767376 100
      vertex -7.5 24.9904 100
    endloop
  endfacet
  facet normal -0 0 1
    outer loop
      vertex -12.1353 20.8168 100
      vertex -9.91934 0.767376 100
      vertex -10.037 23.1472 100
    endloop
  endfacet
  facet normal -0 0 1
    outer loop
      vertex -12.1353 3.18322 100
      vertex -9.91934 0.767376 100
      vertex -12.1353 20.8168 100
    endloop
  endfacet
  facet normal 0 0 1
    outer loop
      vertex -9.91934 0.767376 100
      vertex -12.1353 3.18322 100
      vertex -10.037 0.852827 100
    endloop
  endfacet
  facet normal -0 0 1
    outer loop
      vertex -13.7032 18.101 100
      vertex -12.1353 3.18322 100
      vertex -12.1353 20.8168 100
    endloop
  endfacet
  facet normal 0 0 1
    outer loop
      vertex -13.7032 18.101 100
      vertex -13.7032 5.89895 100
      vertex -12.1353 3.18322 100
    endloop
  endfacet
  facet normal -0 0 1
    outer loop
      vertex -14.6722 15.1187 100
      vertex -13.7032 5.89895 100
      vertex -13.7032 18.101 100
    endloop
  endfacet
  facet normal 0 0 1
    outer loop
      vertex -14.6722 15.1187 100
      vertex -14.6722 8.88132 100
      vertex -13.7032 5.89895 100
    endloop
  endfacet
  facet normal 0 -0 1
    outer loop
      vertex -14.6722 8.88132 100
      vertex -14.6722 15.1187 100
      vertex -15 12 100
    endloop
  endfacet
  facet normal 0 0 1
    outer loop
      vertex 10 0 100
      vertex 9.91934 0.767376 100
      vertex 9.78148 -2.07912 100
    endloop
  endfacet
  facet normal 0 0 1
    outer loop
      vertex -9.78148 -2.07912 100
      vertex -9.91934 0.767376 100
      vertex -10 0 100
    endloop
  endfacet
  facet normal -0.207914 -0.978147 0
    outer loop
      vertex -3.09017 -9.51056 0
      vertex -1.04528 -9.94522 100
      vertex -3.09017 -9.51056 100
    endloop
  endfacet
  facet normal -0.207914 -0.978147 -0
    outer loop
      vertex -1.04528 -9.94522 100
      vertex -3.09017 -9.51056 0
      vertex -1.04528 -9.94522 0
    endloop
  endfacet
  facet normal 0.207914 0.978147 -0
    outer loop
      vertex 3.09017 9.51056 0
      vertex 1.04528 9.94522 50
      vertex 3.09017 9.51056 50
    endloop
  endfacet
  facet normal 0.207914 0.978147 0
    outer loop
      vertex 1.04528 9.94522 50
      vertex 3.09017 9.51056 0
      vertex 1.04528 9.94522 0
    endloop
  endfacet
  facet normal -0.994522 -0.104526 0
    outer loop
      vertex -9.78148 -2.07912 0
      vertex -10 0 100
      vertex -10 0 0
    endloop
  endfacet
  facet normal -0.994522 -0.104526 0
    outer loop
      vertex -10 0 100
      vertex -9.78148 -2.07912 0
      vertex -9.78148 -2.07912 100
    endloop
  endfacet
  facet normal -0.994523 0.104521 0
    outer loop
      vertex -9.78148 2.07912 0
      vertex -9.91934 0.767376 50
      vertex -9.78148 2.07912 50
    endloop
  endfacet
  facet normal -0.994522 0.104526 1.41738e-07
    outer loop
      vertex -10 0 0
      vertex -9.91934 0.767376 50
      vertex -9.78148 2.07912 0
    endloop
  endfacet
  facet normal -0.994521 0.104536 0
    outer loop
      vertex -10 0 100
      vertex -9.91934 0.767376 50
      vertex -10 0 0
    endloop
  endfacet
  facet normal -0.994521 0.104536 0
    outer loop
      vertex -9.91934 0.767376 50
      vertex -10 0 100
      vertex -9.91934 0.767376 100
    endloop
  endfacet
  facet normal -0.866026 -0.5 0
    outer loop
      vertex -8.09017 -5.87785 0
      vertex -9.13545 -4.06737 100
      vertex -9.13545 -4.06737 0
    endloop
  endfacet
  facet normal -0.866026 -0.5 0
    outer loop
      vertex -9.13545 -4.06737 100
      vertex -8.09017 -5.87785 0
      vertex -8.09017 -5.87785 100
    endloop
  endfacet
  facet normal -0.866026 0.5 0
    outer loop
      vertex -9.13545 4.06737 0
      vertex -8.09017 5.87785 50
      vertex -8.09017 5.87785 0
    endloop
  endfacet
  facet normal -0.866026 0.5 0
    outer loop
      vertex -8.09017 5.87785 50
      vertex -9.13545 4.06737 0
      vertex -9.13545 4.06737 50
    endloop
  endfacet
  facet normal 0.866026 -0.5 0
    outer loop
      vertex 8.09017 -5.87785 100
      vertex 9.13545 -4.06737 0
      vertex 9.13545 -4.06737 100
    endloop
  endfacet
  facet normal 0.866026 -0.5 0
    outer loop
      vertex 9.13545 -4.06737 0
      vertex 8.09017 -5.87785 100
      vertex 8.09017 -5.87785 0
    endloop
  endfacet
  facet normal 0.587783 0.809019 -0
    outer loop
      vertex 6.69131 7.43145 0
      vertex 5 8.66025 50
      vertex 6.69131 7.43145 50
    endloop
  endfacet
  facet normal 0.587783 0.809019 0
    outer loop
      vertex 5 8.66025 50
      vertex 6.69131 7.43145 0
      vertex 5 8.66025 0
    endloop
  endfacet
  facet normal -0.587783 0.809019 0
    outer loop
      vertex -5 8.66025 0
      vertex -6.69131 7.43145 50
      vertex -5 8.66025 50
    endloop
  endfacet
  facet normal -0.587783 0.809019 0
    outer loop
      vertex -6.69131 7.43145 50
      vertex -5 8.66025 0
      vertex -6.69131 7.43145 0
    endloop
  endfacet
  facet normal -0.207914 0.978147 0
    outer loop
      vertex -1.04528 9.94522 0
      vertex -3.09017 9.51056 50
      vertex -1.04528 9.94522 50
    endloop
  endfacet
  facet normal -0.207914 0.978147 0
    outer loop
      vertex -3.09017 9.51056 50
      vertex -1.04528 9.94522 0
      vertex -3.09017 9.51056 0
    endloop
  endfacet
  facet normal 0 -1 0
    outer loop
      vertex -1.04528 -9.94522 0
      vertex 1.04528 -9.94522 100
      vertex -1.04528 -9.94522 100
    endloop
  endfacet
  facet normal 0 -1 -0
    outer loop
      vertex 1.04528 -9.94522 100
      vertex -1.04528 -9.94522 0
      vertex 1.04528 -9.94522 0
    endloop
  endfacet
  facet normal -0.587777 0.809023 0
    outer loop
      vertex -7.5 24.9904 50
      vertex -10.037 23.1472 100
      vertex -7.5 24.9904 100
    endloop
  endfacet
  facet normal -0.587777 0.809023 0
    outer loop
      vertex -10.037 23.1472 100
      vertex -7.5 24.9904 50
      vertex -10.037 23.1472 50
    endloop
  endfacet
  facet normal 0.587777 0.809023 -0
    outer loop
      vertex 10.037 23.1472 50
      vertex 7.5 24.9904 100
      vertex 10.037 23.1472 100
    endloop
  endfacet
  facet normal 0.587777 0.809023 0
    outer loop
      vertex 7.5 24.9904 100
      vertex 10.037 23.1472 50
      vertex 7.5 24.9904 50
    endloop
  endfacet
  facet normal -0.951059 -0.309008 0
    outer loop
      vertex -13.7032 5.89895 50
      vertex -14.6722 8.88132 100
      vertex -14.6722 8.88132 50
    endloop
  endfacet
  facet normal -0.951059 -0.309008 0
    outer loop
      vertex -14.6722 8.88132 100
      vertex -13.7032 5.89895 50
      vertex -13.7032 5.89895 100
    endloop
  endfacet
  facet normal 0.994521 -0.104533 0
    outer loop
      vertex 14.6722 8.88132 100
      vertex 15 12 50
      vertex 15 12 100
    endloop
  endfacet
  facet normal 0.994521 -0.104533 0
    outer loop
      vertex 15 12 50
      vertex 14.6722 8.88132 100
      vertex 14.6722 8.88132 50
    endloop
  endfacet
  facet normal 0.743144 -0.669131 0
    outer loop
      vertex 10.037 0.852827 100
      vertex 12.1353 3.18322 50
      vertex 12.1353 3.18322 100
    endloop
  endfacet
  facet normal 0.743144 -0.669131 0
    outer loop
      vertex 12.1353 3.18322 50
      vertex 10.037 0.852827 100
      vertex 10.037 0.852827 50
    endloop
  endfacet
  facet normal 0.866035 0.499984 0
    outer loop
      vertex 13.7032 18.101 100
      vertex 12.1353 20.8168 50
      vertex 12.1353 20.8168 100
    endloop
  endfacet
  facet normal 0.866035 0.499984 0
    outer loop
      vertex 12.1353 20.8168 50
      vertex 13.7032 18.101 100
      vertex 13.7032 18.101 50
    endloop
  endfacet
  facet normal -0.866035 0.499984 0
    outer loop
      vertex -13.7032 18.101 50
      vertex -12.1353 20.8168 100
      vertex -12.1353 20.8168 50
    endloop
  endfacet
  facet normal -0.866035 0.499984 0
    outer loop
      vertex -12.1353 20.8168 100
      vertex -13.7032 18.101 50
      vertex -13.7032 18.101 100
    endloop
  endfacet
  facet normal 0.587632 -0.809128 0
    outer loop
      vertex 9.91934 0.767376 50
      vertex 10.037 0.852827 100
      vertex 9.91934 0.767376 100
    endloop
  endfacet
  facet normal 0.587632 -0.809128 0
    outer loop
      vertex 10.037 0.852827 100
      vertex 9.91934 0.767376 50
      vertex 10.037 0.852827 50
    endloop
  endfacet
  facet normal -0.587632 -0.809128 0
    outer loop
      vertex -10.037 0.852827 50
      vertex -9.91934 0.767376 100
      vertex -10.037 0.852827 100
    endloop
  endfacet
  facet normal -0.587632 -0.809128 -0
    outer loop
      vertex -9.91934 0.767376 100
      vertex -10.037 0.852827 50
      vertex -9.91934 0.767376 50
    endloop
  endfacet
  facet normal 0.994522 0.104532 0
    outer loop
      vertex 15 12 100
      vertex 14.6722 15.1187 50
      vertex 14.6722 15.1187 100
    endloop
  endfacet
  facet normal 0.994522 0.104532 0
    outer loop
      vertex 14.6722 15.1187 50
      vertex 15 12 100
      vertex 15 12 50
    endloop
  endfacet
  facet normal -0.951057 0.309015 0
    outer loop
      vertex -14.6722 15.1187 50
      vertex -13.7032 18.101 100
      vertex -13.7032 18.101 50
    endloop
  endfacet
  facet normal -0.951057 0.309015 0
    outer loop
      vertex -13.7032 18.101 100
      vertex -14.6722 15.1187 50
      vertex -14.6722 15.1187 100
    endloop
  endfacet
  facet normal 0.951057 0.309015 0
    outer loop
      vertex 14.6722 15.1187 100
      vertex 13.7032 18.101 50
      vertex 13.7032 18.101 100
    endloop
  endfacet
  facet normal 0.951057 0.309015 0
    outer loop
      vertex 13.7032 18.101 50
      vertex 14.6722 15.1187 100
      vertex 14.6722 15.1187 50
    endloop
  endfacet
  facet normal -0.866029 -0.499993 0
    outer loop
      vertex -12.1353 3.18322 50
      vertex -13.7032 5.89895 100
      vertex -13.7032 5.89895 50
    endloop
  endfacet
  facet normal -0.866029 -0.499993 0
    outer loop
      vertex -13.7032 5.89895 100
      vertex -12.1353 3.18322 50
      vertex -12.1353 3.18322 100
    endloop
  endfacet
  facet normal 0.951059 -0.309008 0
    outer loop
      vertex 13.7032 5.89895 100
      vertex 14.6722 8.88132 50
      vertex 14.6722 8.88132 100
    endloop
  endfacet
  facet normal 0.951059 -0.309008 0
    outer loop
      vertex 14.6722 8.88132 50
      vertex 13.7032 5.89895 100
      vertex 13.7032 5.89895 50
    endloop
  endfacet
  facet normal 0.207918 0.978146 -0
    outer loop
      vertex 4.63525 26.2658 50
      vertex 1.56793 26.9178 100
      vertex 4.63525 26.2658 100
    endloop
  endfacet
  facet normal 0.207918 0.978146 0
    outer loop
      vertex 1.56793 26.9178 100
      vertex 4.63525 26.2658 50
      vertex 1.56793 26.9178 50
    endloop
  endfacet
  facet normal -0.743145 0.66913 0
    outer loop
      vertex -12.1353 20.8168 50
      vertex -10.037 23.1472 100
      vertex -10.037 23.1472 50
    endloop
  endfacet
  facet normal -0.743145 0.66913 0
    outer loop
      vertex -10.037 23.1472 100
      vertex -12.1353 20.8168 50
      vertex -12.1353 20.8168 100
    endloop
  endfacet
  facet normal -0.994522 0.104532 0
    outer loop
      vertex -15 12 50
      vertex -14.6722 15.1187 100
      vertex -14.6722 15.1187 50
    endloop
  endfacet
  facet normal -0.994522 0.104532 0
    outer loop
      vertex -14.6722 15.1187 100
      vertex -15 12 50
      vertex -15 12 100
    endloop
  endfacet
  facet normal 0.866029 -0.499993 0
    outer loop
      vertex 12.1353 3.18322 100
      vertex 13.7032 5.89895 50
      vertex 13.7032 5.89895 100
    endloop
  endfacet
  facet normal 0.866029 -0.499993 0
    outer loop
      vertex 13.7032 5.89895 50
      vertex 12.1353 3.18322 100
      vertex 12.1353 3.18322 50
    endloop
  endfacet
  facet normal -0.994521 -0.104533 0
    outer loop
      vertex -14.6722 8.88132 50
      vertex -15 12 100
      vertex -15 12 50
    endloop
  endfacet
  facet normal -0.994521 -0.104533 0
    outer loop
      vertex -15 12 100
      vertex -14.6722 8.88132 50
      vertex -14.6722 8.88132 100
    endloop
  endfacet
  facet normal 0.743145 0.66913 0
    outer loop
      vertex 12.1353 20.8168 100
      vertex 10.037 23.1472 50
      vertex 10.037 23.1472 100
    endloop
  endfacet
  facet normal 0.743145 0.66913 0
    outer loop
      vertex 10.037 23.1472 50
      vertex 12.1353 20.8168 100
      vertex 12.1353 20.8168 50
    endloop
  endfacet
  facet normal 0.406718 0.913554 -0
    outer loop
      vertex 7.5 24.9904 50
      vertex 4.63525 26.2658 100
      vertex 7.5 24.9904 100
    endloop
  endfacet
  facet normal 0.406718 0.913554 0
    outer loop
      vertex 4.63525 26.2658 100
      vertex 7.5 24.9904 50
      vertex 4.63525 26.2658 50
    endloop
  endfacet
  facet normal -0.743144 -0.669131 0
    outer loop
      vertex -10.037 0.852827 50
      vertex -12.1353 3.18322 100
      vertex -12.1353 3.18322 50
    endloop
  endfacet
  facet normal -0.743144 -0.669131 0
    outer loop
      vertex -12.1353 3.18322 100
      vertex -10.037 0.852827 50
      vertex -10.037 0.852827 100
    endloop
  endfacet
  facet normal -0.406718 0.913554 0
    outer loop
      vertex -4.63525 26.2658 50
      vertex -7.5 24.9904 100
      vertex -4.63525 26.2658 100
    endloop
  endfacet
  facet normal -0.406718 0.913554 0
    outer loop
      vertex -7.5 24.9904 100
      vertex -4.63525 26.2658 50
      vertex -7.5 24.9904 50
    endloop
  endfacet
  facet normal 0 1 -0
    outer loop
      vertex 1.56793 26.9178 50
      vertex -1.56793 26.9178 100
      vertex 1.56793 26.9178 100
    endloop
  endfacet
  facet normal 0 1 0
    outer loop
      vertex -1.56793 26.9178 100
      vertex 1.56793 26.9178 50
      vertex -1.56793 26.9178 50
    endloop
  endfacet
  facet normal -0.207918 0.978146 0
    outer loop
      vertex -1.56793 26.9178 50
      vertex -4.63525 26.2658 100
      vertex -1.56793 26.9178 100
    endloop
  endfacet
  facet normal -0.207918 0.978146 0
    outer loop
      vertex -4.63525 26.2658 100
      vertex -1.56793 26.9178 50
      vertex -4.63525 26.2658 50
    endloop
  endfacet
  facet normal 0 0 -1
    outer loop
      vertex 6.69131 7.43145 50
      vertex 15 12 50
      vertex 14.6722 8.88132 50
    endloop
  endfacet
  facet normal 0 0 -1
    outer loop
      vertex 8.09017 5.87785 50
      vertex 14.6722 8.88132 50
      vertex 13.7032 5.89895 50
    endloop
  endfacet
  facet normal 0 0 -1
    outer loop
      vertex 5 8.66025 50
      vertex 15 12 50
      vertex 6.69131 7.43145 50
    endloop
  endfacet
  facet normal 0 0 -1
    outer loop
      vertex 9.13545 4.06737 50
      vertex 13.7032 5.89895 50
      vertex 12.1353 3.18322 50
    endloop
  endfacet
  facet normal 0 0 -1
    outer loop
      vertex 14.6722 8.88132 50
      vertex 8.09017 5.87785 50
      vertex 6.69131 7.43145 50
    endloop
  endfacet
  facet normal 0 0 -1
    outer loop
      vertex 9.78148 2.07912 50
      vertex 12.1353 3.18322 50
      vertex 10.037 0.852827 50
    endloop
  endfacet
  facet normal 0 0 -1
    outer loop
      vertex 9.13545 4.06737 50
      vertex 12.1353 3.18322 50
      vertex 9.78148 2.07912 50
    endloop
  endfacet
  facet normal 0 0 -1
    outer loop
      vertex 9.78148 2.07912 50
      vertex 10.037 0.852827 50
      vertex 9.91934 0.767376 50
    endloop
  endfacet
  facet normal 0 0 -1
    outer loop
      vertex 13.7032 5.89895 50
      vertex 9.13545 4.06737 50
      vertex 8.09017 5.87785 50
    endloop
  endfacet
  facet normal -0 0 -1
    outer loop
      vertex 15 12 50
      vertex 5 8.66025 50
      vertex 14.6722 15.1187 50
    endloop
  endfacet
  facet normal -0 0 -1
    outer loop
      vertex 14.6722 15.1187 50
      vertex 5 8.66025 50
      vertex 13.7032 18.101 50
    endloop
  endfacet
  facet normal 0 0 -1
    outer loop
      vertex 3.09017 9.51056 50
      vertex 13.7032 18.101 50
      vertex 5 8.66025 50
    endloop
  endfacet
  facet normal -0 0 -1
    outer loop
      vertex 13.7032 18.101 50
      vertex 3.09017 9.51056 50
      vertex 12.1353 20.8168 50
    endloop
  endfacet
  facet normal -0 0 -1
    outer loop
      vertex 12.1353 20.8168 50
      vertex 3.09017 9.51056 50
      vertex 10.037 23.1472 50
    endloop
  endfacet
  facet normal -0 0 -1
    outer loop
      vertex 10.037 23.1472 50
      vertex 3.09017 9.51056 50
      vertex 7.5 24.9904 50
    endloop
  endfacet
  facet normal 0 0 -1
    outer loop
      vertex 1.04528 9.94522 50
      vertex 7.5 24.9904 50
      vertex 3.09017 9.51056 50
    endloop
  endfacet
  facet normal -0 0 -1
    outer loop
      vertex 7.5 24.9904 50
      vertex 1.04528 9.94522 50
      vertex 4.63525 26.2658 50
    endloop
  endfacet
  facet normal -0 0 -1
    outer loop
      vertex 4.63525 26.2658 50
      vertex 1.04528 9.94522 50
      vertex 1.56793 26.9178 50
    endloop
  endfacet
  facet normal 0 0 -1
    outer loop
      vertex -1.04528 9.94522 50
      vertex 1.56793 26.9178 50
      vertex 1.04528 9.94522 50
    endloop
  endfacet
  facet normal 0 0 -1
    outer loop
      vertex -1.04528 9.94522 50
      vertex -1.56793 26.9178 50
      vertex 1.56793 26.9178 50
    endloop
  endfacet
  facet normal 0 0 -1
    outer loop
      vertex -7.5 24.9904 50
      vertex -1.04528 9.94522 50
      vertex -3.09017 9.51056 50
    endloop
  endfacet
  facet normal 0 0 -1
    outer loop
      vertex -1.04528 9.94522 50
      vertex -4.63525 26.2658 50
      vertex -1.56793 26.9178 50
    endloop
  endfacet
  facet normal 0 0 -1
    outer loop
      vertex -13.7032 18.101 50
      vertex -3.09017 9.51056 50
      vertex -5 8.66025 50
    endloop
  endfacet
  facet normal 0 0 -1
    outer loop
      vertex -15 12 50
      vertex -5 8.66025 50
      vertex -6.69131 7.43145 50
    endloop
  endfacet
  facet normal 0 0 -1
    outer loop
      vertex -1.04528 9.94522 50
      vertex -7.5 24.9904 50
      vertex -4.63525 26.2658 50
    endloop
  endfacet
  facet normal 0 0 -1
    outer loop
      vertex -14.6722 8.88132 50
      vertex -6.69131 7.43145 50
      vertex -8.09017 5.87785 50
    endloop
  endfacet
  facet normal 0 0 -1
    outer loop
      vertex -13.7032 5.89895 50
      vertex -8.09017 5.87785 50
      vertex -9.13545 4.06737 50
    endloop
  endfacet
  facet normal 0 0 -1
    outer loop
      vertex -12.1353 3.18322 50
      vertex -9.13545 4.06737 50
      vertex -9.78148 2.07912 50
    endloop
  endfacet
  facet normal 0 0 -1
    outer loop
      vertex -10.037 0.852827 50
      vertex -9.78148 2.07912 50
      vertex -9.91934 0.767376 50
    endloop
  endfacet
  facet normal -0 0 -1
    outer loop
      vertex -9.78148 2.07912 50
      vertex -10.037 0.852827 50
      vertex -12.1353 3.18322 50
    endloop
  endfacet
  facet normal 0 0 -1
    outer loop
      vertex -3.09017 9.51056 50
      vertex -10.037 23.1472 50
      vertex -7.5 24.9904 50
    endloop
  endfacet
  facet normal -0 0 -1
    outer loop
      vertex -9.13545 4.06737 50
      vertex -12.1353 3.18322 50
      vertex -13.7032 5.89895 50
    endloop
  endfacet
  facet normal 0 0 -1
    outer loop
      vertex -3.09017 9.51056 50
      vertex -12.1353 20.8168 50
      vertex -10.037 23.1472 50
    endloop
  endfacet
  facet normal 0 0 -1
    outer loop
      vertex -8.09017 5.87785 50
      vertex -13.7032 5.89895 50
      vertex -14.6722 8.88132 50
    endloop
  endfacet
  facet normal 0 0 -1
    outer loop
      vertex -3.09017 9.51056 50
      vertex -13.7032 18.101 50
      vertex -12.1353 20.8168 50
    endloop
  endfacet
  facet normal 0 0 -1
    outer loop
      vertex -6.69131 7.43145 50
      vertex -14.6722 8.88132 50
      vertex -15 12 50
    endloop
  endfacet
  facet normal 0 0 -1
    outer loop
      vertex -5 8.66025 50
      vertex -14.6722 15.1187 50
      vertex -13.7032 18.101 50
    endloop
  endfacet
  facet normal 0 0 -1
    outer loop
      vertex -5 8.66025 50
      vertex -15 12 50
      vertex -14.6722 15.1187 50
    endloop
  endfacet
  facet normal 0 0 -1
    outer loop
      vertex 15 14 35
      vertex 25 24 35
      vertex 25 14 35
    endloop
  endfacet
  facet normal -0 0 -1
    outer loop
      vertex 25 24 35
      vertex 15 14 35
      vertex 15 24 35
    endloop
  endfacet
  facet normal -1 0 0
    outer loop
      vertex 15 14 35
      vertex 15 24 75
      vertex 15 24 35
    endloop
  endfacet
  facet normal -1 -0 0
    outer loop
      vertex 15 24 75
      vertex 15 14 35
      vertex 15 14 75
    endloop
  endfacet
  facet normal 0 -1 0
    outer loop
      vertex 15 14 35
      vertex 25 14 75
      vertex 15 14 75
    endloop
  endfacet
  facet normal 0 -1 -0
    outer loop
      vertex 25 14 75
      vertex 15 14 35
      vertex 25 14 35
    endloop
  endfacet
  facet normal -0 0 1
    outer loop
      vertex 15 24 75
      vertex 25 14 75
      vertex 25 24 75
    endloop
  endfacet
  facet normal 0 0 1
    outer loop
      vertex 25 14 75
      vertex 15 24 75
      vertex 15 14 75
    endloop
  endfacet
  facet normal 0 1 -0
    outer loop
      vertex 25 24 35
      vertex 15 24 75
      vertex 25 24 75
    endloop
  endfacet
  facet normal 0 1 0
    outer loop
      vertex 15 24 75
      vertex 25 24 35
      vertex 15 24 35
    endloop
  endfacet
  facet normal 1 -0 0
    outer loop
      vertex 25 14 75
      vertex 25 24 35
      vertex 25 24 75
    endloop
  endfacet
  facet normal 1 0 0
    outer loop
      vertex 25 24 35
      vertex 25 14 75
      vertex 25 14 35
    endloop
  endfacet
endsolid OpenSCAD_Model
