solid OpenSCAD_Model
  facet normal 0.831467 0.555574 0
    outer loop
      vertex 4.6194 1.91342 20
      vertex 3.53553 3.53553 0
      vertex 3.53553 3.53553 20
    endloop
  endfacet
  facet normal 0.831467 0.555574 0
    outer loop
      vertex 3.53553 3.53553 0
      vertex 4.6194 1.91342 20
      vertex 4.6194 1.91342 0
    endloop
  endfacet
  facet normal 0.980786 0.195089 0
    outer loop
      vertex 5 0 20
      vertex 4.6194 1.91342 0
      vertex 4.6194 1.91342 20
    endloop
  endfacet
  facet normal 0.980786 0.195089 0
    outer loop
      vertex 4.6194 1.91342 0
      vertex 5 0 20
      vertex 5 0 0
    endloop
  endfacet
  facet normal -0.980786 0.195089 0
    outer loop
      vertex -5 0 0
      vertex -4.6194 1.91342 20
      vertex -4.6194 1.91342 0
    endloop
  endfacet
  facet normal -0.980786 0.195089 0
    outer loop
      vertex -4.6194 1.91342 20
      vertex -5 0 0
      vertex -5 0 20
    endloop
  endfacet
  facet normal -0.980786 -0.195089 0
    outer loop
      vertex -4.6194 -1.91342 0
      vertex -5 0 20
      vertex -5 0 0
    endloop
  endfacet
  facet normal -0.980786 -0.195089 0
    outer loop
      vertex -5 0 20
      vertex -4.6194 -1.91342 0
      vertex -4.6194 -1.91342 20
    endloop
  endfacet
  facet normal -0.195089 0.980786 0
    outer loop
      vertex 0 5 0
      vertex -1.91342 4.6194 20
      vertex 0 5 20
    endloop
  endfacet
  facet normal -0.195089 0.980786 0
    outer loop
      vertex -1.91342 4.6194 20
      vertex 0 5 0
      vertex -1.91342 4.6194 0
    endloop
  endfacet
  facet normal 0 0 1
    outer loop
      vertex 3.5 0 20
      vertex 5 0 20
      vertex 4.6194 1.91342 20
    endloop
  endfacet
  facet normal 0 0 1
    outer loop
      vertex 2.94439 1.89224 20
      vertex 4.6194 1.91342 20
      vertex 3.53553 3.53553 20
    endloop
  endfacet
  facet normal 0 0 1
    outer loop
      vertex 5 0 20
      vertex 3.5 0 20
      vertex 4.6194 -1.91342 20
    endloop
  endfacet
  facet normal -0 0 1
    outer loop
      vertex 2.94439 -1.89224 20
      vertex 4.6194 -1.91342 20
      vertex 3.5 0 20
    endloop
  endfacet
  facet normal 0 0 1
    outer loop
      vertex 4.6194 1.91342 20
      vertex 2.94439 1.89224 20
      vertex 3.5 0 20
    endloop
  endfacet
  facet normal 0 0 1
    outer loop
      vertex 1.45395 3.18371 20
      vertex 3.53553 3.53553 20
      vertex 1.91342 4.6194 20
    endloop
  endfacet
  facet normal 0 0 1
    outer loop
      vertex 3.53553 3.53553 20
      vertex 1.45395 3.18371 20
      vertex 2.94439 1.89224 20
    endloop
  endfacet
  facet normal 0 0 1
    outer loop
      vertex 0 5 20
      vertex 1.45395 3.18371 20
      vertex 1.91342 4.6194 20
    endloop
  endfacet
  facet normal 0 0 1
    outer loop
      vertex 0 5 20
      vertex -0.498101 3.46437 20
      vertex 1.45395 3.18371 20
    endloop
  endfacet
  facet normal -0 0 1
    outer loop
      vertex -1.91342 4.6194 20
      vertex -0.498101 3.46437 20
      vertex 0 5 20
    endloop
  endfacet
  facet normal 0 0 1
    outer loop
      vertex -1.91342 4.6194 20
      vertex -2.29201 2.64512 20
      vertex -0.498101 3.46437 20
    endloop
  endfacet
  facet normal -0 0 1
    outer loop
      vertex -3.53553 3.53553 20
      vertex -2.29201 2.64512 20
      vertex -1.91342 4.6194 20
    endloop
  endfacet
  facet normal 0 0 1
    outer loop
      vertex -2.29201 2.64512 20
      vertex -4.6194 1.91342 20
      vertex -3.35822 0.986063 20
    endloop
  endfacet
  facet normal 0 0 1
    outer loop
      vertex -4.6194 1.91342 20
      vertex -2.29201 2.64512 20
      vertex -3.53553 3.53553 20
    endloop
  endfacet
  facet normal 0 0 1
    outer loop
      vertex 4.6194 -1.91342 20
      vertex 2.94439 -1.89224 20
      vertex 3.53553 -3.53553 20
    endloop
  endfacet
  facet normal -0 0 1
    outer loop
      vertex 1.45395 -3.18371 20
      vertex 3.53553 -3.53553 20
      vertex 2.94439 -1.89224 20
    endloop
  endfacet
  facet normal 0 0 1
    outer loop
      vertex 3.53553 -3.53553 20
      vertex 1.45395 -3.18371 20
      vertex 1.91342 -4.6194 20
    endloop
  endfacet
  facet normal 0 0 1
    outer loop
      vertex 1.45395 -3.18371 20
      vertex 0 -5 20
      vertex 1.91342 -4.6194 20
    endloop
  endfacet
  facet normal -0 0 1
    outer loop
      vertex -0.498101 -3.46437 20
      vertex 0 -5 20
      vertex 1.45395 -3.18371 20
    endloop
  endfacet
  facet normal 0 0 1
    outer loop
      vertex -0.498101 -3.46437 20
      vertex -1.91342 -4.6194 20
      vertex 0 -5 20
    endloop
  endfacet
  facet normal 0 0 1
    outer loop
      vertex -2.29201 -2.64512 20
      vertex -1.91342 -4.6194 20
      vertex -0.498101 -3.46437 20
    endloop
  endfacet
  facet normal -0 0 1
    outer loop
      vertex -4.6194 -1.91342 20
      vertex -2.29201 -2.64512 20
      vertex -3.35822 -0.986063 20
    endloop
  endfacet
  facet normal 0 0 1
    outer loop
      vertex -2.29201 -2.64512 20
      vertex -3.53553 -3.53553 20
      vertex -1.91342 -4.6194 20
    endloop
  endfacet
  facet normal 0 0 1
    outer loop
      vertex -5 0 20
      vertex -3.35822 0.986063 20
      vertex -4.6194 1.91342 20
    endloop
  endfacet
  facet normal 0 0 1
    outer loop
      vertex -3.35822 0.986063 20
      vertex -5 0 20
      vertex -3.35822 -0.986063 20
    endloop
  endfacet
  facet normal 0 0 1
    outer loop
      vertex -2.29201 -2.64512 20
      vertex -4.6194 -1.91342 20
      vertex -3.53553 -3.53553 20
    endloop
  endfacet
  facet normal 0 0 1
    outer loop
      vertex -3.35822 -0.986063 20
      vertex -5 0 20
      vertex -4.6194 -1.91342 20
    endloop
  endfacet
  facet normal 0.195089 -0.980786 0
    outer loop
      vertex 0 -5 0
      vertex 1.91342 -4.6194 20
      vertex 0 -5 20
    endloop
  endfacet
  facet normal 0.195089 -0.980786 0
    outer loop
      vertex 1.91342 -4.6194 20
      vertex 0 -5 0
      vertex 1.91342 -4.6194 0
    endloop
  endfacet
  facet normal 0.831467 -0.555574 0
    outer loop
      vertex 3.53553 -3.53553 20
      vertex 4.6194 -1.91342 0
      vertex 4.6194 -1.91342 20
    endloop
  endfacet
  facet normal 0.831467 -0.555574 0
    outer loop
      vertex 4.6194 -1.91342 0
      vertex 3.53553 -3.53553 20
      vertex 3.53553 -3.53553 0
    endloop
  endfacet
  facet normal 0.555574 0.831467 -0
    outer loop
      vertex 3.53553 3.53553 0
      vertex 1.91342 4.6194 20
      vertex 3.53553 3.53553 20
    endloop
  endfacet
  facet normal 0.555574 0.831467 0
    outer loop
      vertex 1.91342 4.6194 20
      vertex 3.53553 3.53553 0
      vertex 1.91342 4.6194 0
    endloop
  endfacet
  facet normal 0.980786 -0.195089 0
    outer loop
      vertex 4.6194 -1.91342 20
      vertex 5 0 0
      vertex 5 0 20
    endloop
  endfacet
  facet normal 0.980786 -0.195089 0
    outer loop
      vertex 5 0 0
      vertex 4.6194 -1.91342 20
      vertex 4.6194 -1.91342 0
    endloop
  endfacet
  facet normal -0.831467 0.555574 0
    outer loop
      vertex -4.6194 1.91342 0
      vertex -3.53553 3.53553 20
      vertex -3.53553 3.53553 0
    endloop
  endfacet
  facet normal -0.831467 0.555574 0
    outer loop
      vertex -3.53553 3.53553 20
      vertex -4.6194 1.91342 0
      vertex -4.6194 1.91342 20
    endloop
  endfacet
  facet normal 0.555574 -0.831467 0
    outer loop
      vertex 1.91342 -4.6194 0
      vertex 3.53553 -3.53553 20
      vertex 1.91342 -4.6194 20
    endloop
  endfacet
  facet normal 0.555574 -0.831467 0
    outer loop
      vertex 3.53553 -3.53553 20
      vertex 1.91342 -4.6194 0
      vertex 3.53553 -3.53553 0
    endloop
  endfacet
  facet normal 0.195089 0.980786 -0
    outer loop
      vertex 1.91342 4.6194 0
      vertex 0 5 20
      vertex 1.91342 4.6194 20
    endloop
  endfacet
  facet normal 0.195089 0.980786 0
    outer loop
      vertex 0 5 20
      vertex 1.91342 4.6194 0
      vertex 0 5 0
    endloop
  endfacet
  facet normal -0.555574 0.831467 0
    outer loop
      vertex -1.91342 4.6194 0
      vertex -3.53553 3.53553 20
      vertex -1.91342 4.6194 20
    endloop
  endfacet
  facet normal -0.555574 0.831467 0
    outer loop
      vertex -3.53553 3.53553 20
      vertex -1.91342 4.6194 0
      vertex -3.53553 3.53553 0
    endloop
  endfacet
  facet normal 0 0 -1
    outer loop
      vertex 3.5 0 0
      vertex 5 0 0
      vertex 4.6194 -1.91342 0
    endloop
  endfacet
  facet normal 0 0 -1
    outer loop
      vertex 2.94439 -1.89224 0
      vertex 4.6194 -1.91342 0
      vertex 3.53553 -3.53553 0
    endloop
  endfacet
  facet normal 0 0 -1
    outer loop
      vertex 5 0 0
      vertex 3.5 0 0
      vertex 4.6194 1.91342 0
    endloop
  endfacet
  facet normal 0 0 -1
    outer loop
      vertex 2.94439 1.89224 0
      vertex 4.6194 1.91342 0
      vertex 3.5 0 0
    endloop
  endfacet
  facet normal 0 0 -1
    outer loop
      vertex 4.6194 -1.91342 0
      vertex 2.94439 -1.89224 0
      vertex 3.5 0 0
    endloop
  endfacet
  facet normal 0 0 -1
    outer loop
      vertex 1.45395 -3.18371 0
      vertex 3.53553 -3.53553 0
      vertex 1.91342 -4.6194 0
    endloop
  endfacet
  facet normal 0 0 -1
    outer loop
      vertex 3.53553 -3.53553 0
      vertex 1.45395 -3.18371 0
      vertex 2.94439 -1.89224 0
    endloop
  endfacet
  facet normal 0 0 -1
    outer loop
      vertex 0 -5 0
      vertex 1.45395 -3.18371 0
      vertex 1.91342 -4.6194 0
    endloop
  endfacet
  facet normal 0 0 -1
    outer loop
      vertex 0 -5 0
      vertex -0.498101 -3.46437 0
      vertex 1.45395 -3.18371 0
    endloop
  endfacet
  facet normal 0 0 -1
    outer loop
      vertex -1.91342 -4.6194 0
      vertex -0.498101 -3.46437 0
      vertex 0 -5 0
    endloop
  endfacet
  facet normal 0 0 -1
    outer loop
      vertex -1.91342 -4.6194 0
      vertex -2.29201 -2.64512 0
      vertex -0.498101 -3.46437 0
    endloop
  endfacet
  facet normal 0 0 -1
    outer loop
      vertex -3.53553 -3.53553 0
      vertex -2.29201 -2.64512 0
      vertex -1.91342 -4.6194 0
    endloop
  endfacet
  facet normal 0 0 -1
    outer loop
      vertex -2.29201 -2.64512 0
      vertex -4.6194 -1.91342 0
      vertex -3.35822 -0.986063 0
    endloop
  endfacet
  facet normal 0 0 -1
    outer loop
      vertex -4.6194 -1.91342 0
      vertex -2.29201 -2.64512 0
      vertex -3.53553 -3.53553 0
    endloop
  endfacet
  facet normal -0 0 -1
    outer loop
      vertex 4.6194 1.91342 0
      vertex 2.94439 1.89224 0
      vertex 3.53553 3.53553 0
    endloop
  endfacet
  facet normal 0 0 -1
    outer loop
      vertex 1.45395 3.18371 0
      vertex 3.53553 3.53553 0
      vertex 2.94439 1.89224 0
    endloop
  endfacet
  facet normal -0 0 -1
    outer loop
      vertex 3.53553 3.53553 0
      vertex 1.45395 3.18371 0
      vertex 1.91342 4.6194 0
    endloop
  endfacet
  facet normal 0 0 -1
    outer loop
      vertex 1.45395 3.18371 0
      vertex 0 5 0
      vertex 1.91342 4.6194 0
    endloop
  endfacet
  facet normal 0 0 -1
    outer loop
      vertex -0.498101 3.46437 0
      vertex 0 5 0
      vertex 1.45395 3.18371 0
    endloop
  endfacet
  facet normal 0 0 -1
    outer loop
      vertex -0.498101 3.46437 0
      vertex -1.91342 4.6194 0
      vertex 0 5 0
    endloop
  endfacet
  facet normal 0 0 -1
    outer loop
      vertex -2.29201 2.64512 0
      vertex -1.91342 4.6194 0
      vertex -0.498101 3.46437 0
    endloop
  endfacet
  facet normal 0 0 -1
    outer loop
      vertex -4.6194 1.91342 0
      vertex -2.29201 2.64512 0
      vertex -3.35822 0.986063 0
    endloop
  endfacet
  facet normal 0 0 -1
    outer loop
      vertex -2.29201 2.64512 0
      vertex -3.53553 3.53553 0
      vertex -1.91342 4.6194 0
    endloop
  endfacet
  facet normal 0 0 -1
    outer loop
      vertex -5 0 0
      vertex -3.35822 -0.986063 0
      vertex -4.6194 -1.91342 0
    endloop
  endfacet
  facet normal 0 0 -1
    outer loop
      vertex -3.35822 -0.986063 0
      vertex -5 0 0
      vertex -3.35822 0.986063 0
    endloop
  endfacet
  facet normal -0 0 -1
    outer loop
      vertex -2.29201 2.64512 0
      vertex -4.6194 1.91342 0
      vertex -3.53553 3.53553 0
    endloop
  endfacet
  facet normal -0 0 -1
    outer loop
      vertex -3.35822 0.986063 0
      vertex -5 0 0
      vertex -4.6194 1.91342 0
    endloop
  endfacet
  facet normal -0.831467 -0.555574 0
    outer loop
      vertex -3.53553 -3.53553 0
      vertex -4.6194 -1.91342 20
      vertex -4.6194 -1.91342 0
    endloop
  endfacet
  facet normal -0.831467 -0.555574 0
    outer loop
      vertex -4.6194 -1.91342 20
      vertex -3.53553 -3.53553 0
      vertex -3.53553 -3.53553 20
    endloop
  endfacet
  facet normal -0.195089 -0.980786 0
    outer loop
      vertex -1.91342 -4.6194 0
      vertex 0 -5 20
      vertex -1.91342 -4.6194 20
    endloop
  endfacet
  facet normal -0.195089 -0.980786 -0
    outer loop
      vertex 0 -5 20
      vertex -1.91342 -4.6194 0
      vertex 0 -5 0
    endloop
  endfacet
  facet normal -0.555574 -0.831467 0
    outer loop
      vertex -3.53553 -3.53553 0
      vertex -1.91342 -4.6194 20
      vertex -3.53553 -3.53553 20
    endloop
  endfacet
  facet normal -0.555574 -0.831467 -0
    outer loop
      vertex -1.91342 -4.6194 20
      vertex -3.53553 -3.53553 0
      vertex -1.91342 -4.6194 0
    endloop
  endfacet
  facet normal -0.65486 -0.75575 0
    outer loop
      vertex 1.45395 3.18371 0
      vertex 2.94439 1.89224 20
      vertex 1.45395 3.18371 20
    endloop
  endfacet
  facet normal -0.65486 -0.75575 -0
    outer loop
      vertex 2.94439 1.89224 20
      vertex 1.45395 3.18371 0
      vertex 2.94439 1.89224 0
    endloop
  endfacet
  facet normal -0.959493 -0.281732 0
    outer loop
      vertex 3.5 0 0
      vertex 2.94439 1.89224 20
      vertex 2.94439 1.89224 0
    endloop
  endfacet
  facet normal -0.959493 -0.281732 0
    outer loop
      vertex 2.94439 1.89224 20
      vertex 3.5 0 0
      vertex 3.5 0 20
    endloop
  endfacet
  facet normal -0.142314 -0.989822 0
    outer loop
      vertex -0.498101 3.46437 0
      vertex 1.45395 3.18371 20
      vertex -0.498101 3.46437 20
    endloop
  endfacet
  facet normal -0.142314 -0.989822 -0
    outer loop
      vertex 1.45395 3.18371 20
      vertex -0.498101 3.46437 0
      vertex 1.45395 3.18371 0
    endloop
  endfacet
  facet normal 0.415415 -0.909632 0
    outer loop
      vertex -2.29201 2.64512 0
      vertex -0.498101 3.46437 20
      vertex -2.29201 2.64512 20
    endloop
  endfacet
  facet normal 0.415415 -0.909632 0
    outer loop
      vertex -0.498101 3.46437 20
      vertex -2.29201 2.64512 0
      vertex -0.498101 3.46437 0
    endloop
  endfacet
  facet normal 1 -0 0
    outer loop
      vertex -3.35822 -0.986063 20
      vertex -3.35822 0.986063 0
      vertex -3.35822 0.986063 20
    endloop
  endfacet
  facet normal 1 0 0
    outer loop
      vertex -3.35822 0.986063 0
      vertex -3.35822 -0.986063 20
      vertex -3.35822 -0.986063 0
    endloop
  endfacet
  facet normal -0.142314 0.989822 0
    outer loop
      vertex 1.45395 -3.18371 0
      vertex -0.498101 -3.46437 20
      vertex 1.45395 -3.18371 20
    endloop
  endfacet
  facet normal -0.142314 0.989822 0
    outer loop
      vertex -0.498101 -3.46437 20
      vertex 1.45395 -3.18371 0
      vertex -0.498101 -3.46437 0
    endloop
  endfacet
  facet normal -0.65486 0.75575 0
    outer loop
      vertex 2.94439 -1.89224 0
      vertex 1.45395 -3.18371 20
      vertex 2.94439 -1.89224 20
    endloop
  endfacet
  facet normal -0.65486 0.75575 0
    outer loop
      vertex 1.45395 -3.18371 20
      vertex 2.94439 -1.89224 0
      vertex 1.45395 -3.18371 0
    endloop
  endfacet
  facet normal 0.841254 0.54064 0
    outer loop
      vertex -2.29201 -2.64512 20
      vertex -3.35822 -0.986063 0
      vertex -3.35822 -0.986063 20
    endloop
  endfacet
  facet normal 0.841254 0.54064 0
    outer loop
      vertex -3.35822 -0.986063 0
      vertex -2.29201 -2.64512 20
      vertex -2.29201 -2.64512 0
    endloop
  endfacet
  facet normal -0.959493 0.281732 0
    outer loop
      vertex 2.94439 -1.89224 0
      vertex 3.5 0 20
      vertex 3.5 0 0
    endloop
  endfacet
  facet normal -0.959493 0.281732 0
    outer loop
      vertex 3.5 0 20
      vertex 2.94439 -1.89224 0
      vertex 2.94439 -1.89224 20
    endloop
  endfacet
  facet normal 0.841254 -0.54064 0
    outer loop
      vertex -3.35822 0.986063 20
      vertex -2.29201 2.64512 0
      vertex -2.29201 2.64512 20
    endloop
  endfacet
  facet normal 0.841254 -0.54064 0
    outer loop
      vertex -2.29201 2.64512 0
      vertex -3.35822 0.986063 20
      vertex -3.35822 0.986063 0
    endloop
  endfacet
  facet normal 0.415415 0.909632 -0
    outer loop
      vertex -0.498101 -3.46437 0
      vertex -2.29201 -2.64512 20
      vertex -0.498101 -3.46437 20
    endloop
  endfacet
  facet normal 0.415415 0.909632 0
    outer loop
      vertex -2.29201 -2.64512 20
      vertex -0.498101 -3.46437 0
      vertex -2.29201 -2.64512 0
    endloop
  endfacet
  facet normal 0.222525 0.974927 -0
    outer loop
      vertex 1.24698 1.56366 20
      vertex -0.445042 1.94986 22
      vertex 1.24698 1.56366 22
    endloop
  endfacet
  facet normal 0.222525 0.974927 0
    outer loop
      vertex -0.445042 1.94986 22
      vertex 1.24698 1.56366 20
      vertex -0.445042 1.94986 20
    endloop
  endfacet
  facet normal 0.900969 0.433884 0
    outer loop
      vertex 2 0 22
      vertex 1.24698 1.56366 20
      vertex 1.24698 1.56366 22
    endloop
  endfacet
  facet normal 0.900969 0.433884 0
    outer loop
      vertex 1.24698 1.56366 20
      vertex 2 0 22
      vertex 2 0 20
    endloop
  endfacet
  facet normal 0.900969 -0.433884 0
    outer loop
      vertex 1.24698 -1.56366 22
      vertex 2 0 20
      vertex 2 0 22
    endloop
  endfacet
  facet normal 0.900969 -0.433884 0
    outer loop
      vertex 2 0 20
      vertex 1.24698 -1.56366 22
      vertex 1.24698 -1.56366 20
    endloop
  endfacet
  facet normal 0 0 1
    outer loop
      vertex 1.24698 1.56366 22
      vertex 1.5 0 22
      vertex 2 0 22
    endloop
  endfacet
  facet normal 0 0 1
    outer loop
      vertex 1.24698 1.56366 22
      vertex 0.463525 1.42658 22
      vertex 1.5 0 22
    endloop
  endfacet
  facet normal 0 0 1
    outer loop
      vertex -0.445042 1.94986 22
      vertex 0.463525 1.42658 22
      vertex 1.24698 1.56366 22
    endloop
  endfacet
  facet normal 0 0 1
    outer loop
      vertex -0.445042 1.94986 22
      vertex -1.21352 0.881678 22
      vertex 0.463525 1.42658 22
    endloop
  endfacet
  facet normal 0 0 1
    outer loop
      vertex -1.21352 0.881678 22
      vertex -1.80194 0.867767 22
      vertex -1.21352 -0.881678 22
    endloop
  endfacet
  facet normal 0 0 1
    outer loop
      vertex -1.80194 0.867767 22
      vertex -1.21352 0.881678 22
      vertex -0.445042 1.94986 22
    endloop
  endfacet
  facet normal -0 0 1
    outer loop
      vertex 1.5 0 22
      vertex 1.24698 -1.56366 22
      vertex 2 0 22
    endloop
  endfacet
  facet normal -0 0 1
    outer loop
      vertex 0.463525 -1.42658 22
      vertex 1.24698 -1.56366 22
      vertex 1.5 0 22
    endloop
  endfacet
  facet normal 0 0 1
    outer loop
      vertex 0.463525 -1.42658 22
      vertex -0.445042 -1.94986 22
      vertex 1.24698 -1.56366 22
    endloop
  endfacet
  facet normal 0 0 1
    outer loop
      vertex -1.21352 -0.881678 22
      vertex -0.445042 -1.94986 22
      vertex 0.463525 -1.42658 22
    endloop
  endfacet
  facet normal 0 0 1
    outer loop
      vertex -1.21352 -0.881678 22
      vertex -1.80194 -0.867767 22
      vertex -0.445042 -1.94986 22
    endloop
  endfacet
  facet normal -0 0 1
    outer loop
      vertex -1.80194 -0.867767 22
      vertex -1.21352 -0.881678 22
      vertex -1.80194 0.867767 22
    endloop
  endfacet
  facet normal -0.623491 -0.781831 0
    outer loop
      vertex -1.80194 -0.867767 20
      vertex -0.445042 -1.94986 22
      vertex -1.80194 -0.867767 22
    endloop
  endfacet
  facet normal -0.623491 -0.781831 -0
    outer loop
      vertex -0.445042 -1.94986 22
      vertex -1.80194 -0.867767 20
      vertex -0.445042 -1.94986 20
    endloop
  endfacet
  facet normal 0.222525 -0.974927 0
    outer loop
      vertex -0.445042 -1.94986 20
      vertex 1.24698 -1.56366 22
      vertex -0.445042 -1.94986 22
    endloop
  endfacet
  facet normal 0.222525 -0.974927 0
    outer loop
      vertex 1.24698 -1.56366 22
      vertex -0.445042 -1.94986 20
      vertex 1.24698 -1.56366 20
    endloop
  endfacet
  facet normal 0 0 -1
    outer loop
      vertex 1.24698 -1.56366 20
      vertex 1.5 0 20
      vertex 2 0 20
    endloop
  endfacet
  facet normal 0 0 -1
    outer loop
      vertex 1.24698 -1.56366 20
      vertex 0.463525 -1.42658 20
      vertex 1.5 0 20
    endloop
  endfacet
  facet normal 0 0 -1
    outer loop
      vertex -0.445042 -1.94986 20
      vertex 0.463525 -1.42658 20
      vertex 1.24698 -1.56366 20
    endloop
  endfacet
  facet normal 0 0 -1
    outer loop
      vertex -0.445042 -1.94986 20
      vertex -1.21352 -0.881678 20
      vertex 0.463525 -1.42658 20
    endloop
  endfacet
  facet normal 0 0 -1
    outer loop
      vertex -1.21352 -0.881678 20
      vertex -1.80194 -0.867767 20
      vertex -1.21352 0.881678 20
    endloop
  endfacet
  facet normal 0 0 -1
    outer loop
      vertex -1.80194 -0.867767 20
      vertex -1.21352 -0.881678 20
      vertex -0.445042 -1.94986 20
    endloop
  endfacet
  facet normal 0 0 -1
    outer loop
      vertex 1.5 0 20
      vertex 1.24698 1.56366 20
      vertex 2 0 20
    endloop
  endfacet
  facet normal 0 0 -1
    outer loop
      vertex 0.463525 1.42658 20
      vertex 1.24698 1.56366 20
      vertex 1.5 0 20
    endloop
  endfacet
  facet normal 0 0 -1
    outer loop
      vertex 0.463525 1.42658 20
      vertex -0.445042 1.94986 20
      vertex 1.24698 1.56366 20
    endloop
  endfacet
  facet normal 0 0 -1
    outer loop
      vertex -1.21352 0.881678 20
      vertex -0.445042 1.94986 20
      vertex 0.463525 1.42658 20
    endloop
  endfacet
  facet normal -0 0 -1
    outer loop
      vertex -1.21352 0.881678 20
      vertex -1.80194 0.867767 20
      vertex -0.445042 1.94986 20
    endloop
  endfacet
  facet normal 0 0 -1
    outer loop
      vertex -1.80194 0.867767 20
      vertex -1.21352 0.881678 20
      vertex -1.80194 -0.867767 20
    endloop
  endfacet
  facet normal -1 0 0
    outer loop
      vertex -1.80194 -0.867767 20
      vertex -1.80194 0.867767 22
      vertex -1.80194 0.867767 20
    endloop
  endfacet
  facet normal -1 -0 0
    outer loop
      vertex -1.80194 0.867767 22
      vertex -1.80194 -0.867767 20
      vertex -1.80194 -0.867767 22
    endloop
  endfacet
  facet normal -0.623491 0.781831 0
    outer loop
      vertex -0.445042 1.94986 20
      vertex -1.80194 0.867767 22
      vertex -0.445042 1.94986 22
    endloop
  endfacet
  facet normal -0.623491 0.781831 0
    outer loop
      vertex -1.80194 0.867767 22
      vertex -0.445042 1.94986 20
      vertex -1.80194 0.867767 20
    endloop
  endfacet
  facet normal 0.309015 0.951057 -0
    outer loop
      vertex 0.463525 -1.42658 20
      vertex -1.21352 -0.881678 22
      vertex 0.463525 -1.42658 22
    endloop
  endfacet
  facet normal 0.309015 0.951057 0
    outer loop
      vertex -1.21352 -0.881678 22
      vertex 0.463525 -1.42658 20
      vertex -1.21352 -0.881678 20
    endloop
  endfacet
  facet normal 0.309015 -0.951057 0
    outer loop
      vertex -1.21352 0.881678 20
      vertex 0.463525 1.42658 22
      vertex -1.21352 0.881678 22
    endloop
  endfacet
  facet normal 0.309015 -0.951057 0
    outer loop
      vertex 0.463525 1.42658 22
      vertex -1.21352 0.881678 20
      vertex 0.463525 1.42658 20
    endloop
  endfacet
  facet normal -0.809016 -0.587787 0
    outer loop
      vertex 1.5 0 20
      vertex 0.463525 1.42658 22
      vertex 0.463525 1.42658 20
    endloop
  endfacet
  facet normal -0.809016 -0.587787 0
    outer loop
      vertex 0.463525 1.42658 22
      vertex 1.5 0 20
      vertex 1.5 0 22
    endloop
  endfacet
  facet normal 1 -0 0
    outer loop
      vertex -1.21352 -0.881678 22
      vertex -1.21352 0.881678 20
      vertex -1.21352 0.881678 22
    endloop
  endfacet
  facet normal 1 0 0
    outer loop
      vertex -1.21352 0.881678 20
      vertex -1.21352 -0.881678 22
      vertex -1.21352 -0.881678 20
    endloop
  endfacet
  facet normal -0.809016 0.587787 0
    outer loop
      vertex 0.463525 -1.42658 20
      vertex 1.5 0 22
      vertex 1.5 0 20
    endloop
  endfacet
  facet normal -0.809016 0.587787 0
    outer loop
      vertex 1.5 0 22
      vertex 0.463525 -1.42658 20
      vertex 0.463525 -1.42658 22
    endloop
  endfacet
  facet normal 0.222525 0.974927 -0
    outer loop
      vertex 1.24698 1.56366 -20
      vertex -0.445042 1.94986 -18
      vertex 1.24698 1.56366 -18
    endloop
  endfacet
  facet normal 0.222525 0.974927 0
    outer loop
      vertex -0.445042 1.94986 -18
      vertex 1.24698 1.56366 -20
      vertex -0.445042 1.94986 -20
    endloop
  endfacet
  facet normal 0.900969 0.433884 0
    outer loop
      vertex 2 0 -18
      vertex 1.24698 1.56366 -20
      vertex 1.24698 1.56366 -18
    endloop
  endfacet
  facet normal 0.900969 0.433884 0
    outer loop
      vertex 1.24698 1.56366 -20
      vertex 2 0 -18
      vertex 2 0 -20
    endloop
  endfacet
  facet normal 0.900969 -0.433884 0
    outer loop
      vertex 1.24698 -1.56366 -18
      vertex 2 0 -20
      vertex 2 0 -18
    endloop
  endfacet
  facet normal 0.900969 -0.433884 0
    outer loop
      vertex 2 0 -20
      vertex 1.24698 -1.56366 -18
      vertex 1.24698 -1.56366 -20
    endloop
  endfacet
  facet normal 0 0 1
    outer loop
      vertex 0.5 0 -18
      vertex 2 0 -18
      vertex 1.24698 1.56366 -18
    endloop
  endfacet
  facet normal 0 0 1
    outer loop
      vertex 2 0 -18
      vertex 0.5 0 -18
      vertex 1.24698 -1.56366 -18
    endloop
  endfacet
  facet normal 0 0 1
    outer loop
      vertex 1.24698 1.56366 -18
      vertex 0.154508 0.475528 -18
      vertex 0.5 0 -18
    endloop
  endfacet
  facet normal 0 0 1
    outer loop
      vertex -0.445042 1.94986 -18
      vertex 0.154508 0.475528 -18
      vertex 1.24698 1.56366 -18
    endloop
  endfacet
  facet normal -0 0 1
    outer loop
      vertex -1.80194 0.867767 -18
      vertex -0.404508 0.293892 -18
      vertex -0.445042 1.94986 -18
    endloop
  endfacet
  facet normal 0 0 1
    outer loop
      vertex 0.154508 0.475528 -18
      vertex -0.445042 1.94986 -18
      vertex -0.404508 0.293892 -18
    endloop
  endfacet
  facet normal -0 0 1
    outer loop
      vertex 0.154508 -0.475528 -18
      vertex 1.24698 -1.56366 -18
      vertex 0.5 0 -18
    endloop
  endfacet
  facet normal 0 0 1
    outer loop
      vertex -0.445042 -1.94986 -18
      vertex 0.154508 -0.475528 -18
      vertex -0.404508 -0.293892 -18
    endloop
  endfacet
  facet normal 0 0 1
    outer loop
      vertex 0.154508 -0.475528 -18
      vertex -0.445042 -1.94986 -18
      vertex 1.24698 -1.56366 -18
    endloop
  endfacet
  facet normal 0 0 1
    outer loop
      vertex -0.404508 0.293892 -18
      vertex -1.80194 0.867767 -18
      vertex -0.404508 -0.293892 -18
    endloop
  endfacet
  facet normal 0 0 1
    outer loop
      vertex -1.80194 -0.867767 -18
      vertex -0.404508 -0.293892 -18
      vertex -1.80194 0.867767 -18
    endloop
  endfacet
  facet normal 0 0 1
    outer loop
      vertex -0.404508 -0.293892 -18
      vertex -1.80194 -0.867767 -18
      vertex -0.445042 -1.94986 -18
    endloop
  endfacet
  facet normal -0.623491 -0.781831 0
    outer loop
      vertex -1.80194 -0.867767 -20
      vertex -0.445042 -1.94986 -18
      vertex -1.80194 -0.867767 -18
    endloop
  endfacet
  facet normal -0.623491 -0.781831 -0
    outer loop
      vertex -0.445042 -1.94986 -18
      vertex -1.80194 -0.867767 -20
      vertex -0.445042 -1.94986 -20
    endloop
  endfacet
  facet normal 0.222525 -0.974927 0
    outer loop
      vertex -0.445042 -1.94986 -20
      vertex 1.24698 -1.56366 -18
      vertex -0.445042 -1.94986 -18
    endloop
  endfacet
  facet normal 0.222525 -0.974927 0
    outer loop
      vertex 1.24698 -1.56366 -18
      vertex -0.445042 -1.94986 -20
      vertex 1.24698 -1.56366 -20
    endloop
  endfacet
  facet normal 0 0 -1
    outer loop
      vertex 0.5 0 -20
      vertex 2 0 -20
      vertex 1.24698 -1.56366 -20
    endloop
  endfacet
  facet normal 0 0 -1
    outer loop
      vertex 2 0 -20
      vertex 0.5 0 -20
      vertex 1.24698 1.56366 -20
    endloop
  endfacet
  facet normal 0 0 -1
    outer loop
      vertex 1.24698 -1.56366 -20
      vertex 0.154508 -0.475528 -20
      vertex 0.5 0 -20
    endloop
  endfacet
  facet normal 0 0 -1
    outer loop
      vertex -0.445042 -1.94986 -20
      vertex 0.154508 -0.475528 -20
      vertex 1.24698 -1.56366 -20
    endloop
  endfacet
  facet normal 0 0 -1
    outer loop
      vertex -1.80194 -0.867767 -20
      vertex -0.404508 -0.293892 -20
      vertex -0.445042 -1.94986 -20
    endloop
  endfacet
  facet normal -0 0 -1
    outer loop
      vertex 0.154508 -0.475528 -20
      vertex -0.445042 -1.94986 -20
      vertex -0.404508 -0.293892 -20
    endloop
  endfacet
  facet normal 0 0 -1
    outer loop
      vertex 0.154508 0.475528 -20
      vertex 1.24698 1.56366 -20
      vertex 0.5 0 -20
    endloop
  endfacet
  facet normal 0 0 -1
    outer loop
      vertex -0.445042 1.94986 -20
      vertex 0.154508 0.475528 -20
      vertex -0.404508 0.293892 -20
    endloop
  endfacet
  facet normal 0 0 -1
    outer loop
      vertex 0.154508 0.475528 -20
      vertex -0.445042 1.94986 -20
      vertex 1.24698 1.56366 -20
    endloop
  endfacet
  facet normal -0 0 -1
    outer loop
      vertex -0.404508 -0.293892 -20
      vertex -1.80194 -0.867767 -20
      vertex -0.404508 0.293892 -20
    endloop
  endfacet
  facet normal 0 0 -1
    outer loop
      vertex -1.80194 0.867767 -20
      vertex -0.404508 0.293892 -20
      vertex -1.80194 -0.867767 -20
    endloop
  endfacet
  facet normal 0 0 -1
    outer loop
      vertex -0.404508 0.293892 -20
      vertex -1.80194 0.867767 -20
      vertex -0.445042 1.94986 -20
    endloop
  endfacet
  facet normal -1 0 0
    outer loop
      vertex -1.80194 -0.867767 -20
      vertex -1.80194 0.867767 -18
      vertex -1.80194 0.867767 -20
    endloop
  endfacet
  facet normal -1 -0 0
    outer loop
      vertex -1.80194 0.867767 -18
      vertex -1.80194 -0.867767 -20
      vertex -1.80194 -0.867767 -18
    endloop
  endfacet
  facet normal -0.623491 0.781831 0
    outer loop
      vertex -0.445042 1.94986 -20
      vertex -1.80194 0.867767 -18
      vertex -0.445042 1.94986 -18
    endloop
  endfacet
  facet normal -0.623491 0.781831 0
    outer loop
      vertex -1.80194 0.867767 -18
      vertex -0.445042 1.94986 -20
      vertex -1.80194 0.867767 -20
    endloop
  endfacet
  facet normal 0.309018 0.951056 -0
    outer loop
      vertex 0.154508 -0.475528 -20
      vertex -0.404508 -0.293892 -18
      vertex 0.154508 -0.475528 -18
    endloop
  endfacet
  facet normal 0.309018 0.951056 0
    outer loop
      vertex -0.404508 -0.293892 -18
      vertex 0.154508 -0.475528 -20
      vertex -0.404508 -0.293892 -20
    endloop
  endfacet
  facet normal 0.309018 -0.951056 0
    outer loop
      vertex -0.404508 0.293892 -20
      vertex 0.154508 0.475528 -18
      vertex -0.404508 0.293892 -18
    endloop
  endfacet
  facet normal 0.309018 -0.951056 0
    outer loop
      vertex 0.154508 0.475528 -18
      vertex -0.404508 0.293892 -20
      vertex 0.154508 0.475528 -20
    endloop
  endfacet
  facet normal -0.809016 -0.587786 0
    outer loop
      vertex 0.5 0 -20
      vertex 0.154508 0.475528 -18
      vertex 0.154508 0.475528 -20
    endloop
  endfacet
  facet normal -0.809016 -0.587786 0
    outer loop
      vertex 0.154508 0.475528 -18
      vertex 0.5 0 -20
      vertex 0.5 0 -18
    endloop
  endfacet
  facet normal 1 -0 0
    outer loop
      vertex -0.404508 -0.293892 -18
      vertex -0.404508 0.293892 -20
      vertex -0.404508 0.293892 -18
    endloop
  endfacet
  facet normal 1 0 0
    outer loop
      vertex -0.404508 0.293892 -20
      vertex -0.404508 -0.293892 -18
      vertex -0.404508 -0.293892 -20
    endloop
  endfacet
  facet normal -0.809016 0.587786 0
    outer loop
      vertex 0.154508 -0.475528 -20
      vertex 0.5 0 -18
      vertex 0.5 0 -20
    endloop
  endfacet
  facet normal -0.809016 0.587786 0
    outer loop
      vertex 0.5 0 -18
      vertex 0.154508 -0.475528 -20
      vertex 0.154508 -0.475528 -18
    endloop
  endfacet
endsolid OpenSCAD_Model
