solid OpenSCAD_Model
  facet normal 1 -0 0
    outer loop
      vertex 20 0 10
      vertex 20 5 0
      vertex 20 5 10
    endloop
  endfacet
  facet normal 1 0 0
    outer loop
      vertex 20 5 0
      vertex 20 0 10
      vertex 20 0 0
    endloop
  endfacet
  facet normal -0 0 1
    outer loop
      vertex 0 5 10
      vertex 20 0 10
      vertex 20 5 10
    endloop
  endfacet
  facet normal 0 0 1
    outer loop
      vertex 20 0 10
      vertex 0 5 10
      vertex 0 0 10
    endloop
  endfacet
  facet normal 0 0 -1
    outer loop
      vertex 20 0 0
      vertex 0.606217 0.349999 0
      vertex 20 5 0
    endloop
  endfacet
  facet normal 0 -0 -1
    outer loop
      vertex 0.606217 0.349999 0
      vertex 20 0 0
      vertex 0.569431 0 0
    endloop
  endfacet
  facet normal 0 0 -1
    outer loop
      vertex 0 5 0
      vertex 0.606217 0.349999 0
      vertex 0 0.619905 0
    endloop
  endfacet
  facet normal 0 0 -1
    outer loop
      vertex 0.606217 0.349999 0
      vertex 0 5 0
      vertex 20 5 0
    endloop
  endfacet
  facet normal 0 0 -1
    outer loop
      vertex 0 0 0
      vertex 0.606217 0.349999 0
      vertex 0.569431 0 0
    endloop
  endfacet
  facet normal -0 0 -1
    outer loop
      vertex 0.606217 0.349999 0
      vertex 0 0 0
      vertex 0 0.619905 0
    endloop
  endfacet
  facet normal -1 0 0
    outer loop
      vertex 0 0.619905 0
      vertex 0 5 10
      vertex 0 5 0
    endloop
  endfacet
  facet normal -1 0 0
    outer loop
      vertex 0 0 10
      vertex 0 0.619905 0
      vertex 0 0 0
    endloop
  endfacet
  facet normal -1 0 0
    outer loop
      vertex 0 0.619905 0
      vertex 0 0 10
      vertex 0 5 10
    endloop
  endfacet
  facet normal 0 1 -0
    outer loop
      vertex 20 5 0
      vertex 0 5 10
      vertex 20 5 10
    endloop
  endfacet
  facet normal 0 1 0
    outer loop
      vertex 0 5 10
      vertex 20 5 0
      vertex 0 5 0
    endloop
  endfacet
  facet normal 0 -1 0
    outer loop
      vertex 0.569431 0 0
      vertex 0 0 10
      vertex 0 0 0
    endloop
  endfacet
  facet normal 0 -1 0
    outer loop
      vertex 0 0 10
      vertex 0.569431 0 0
      vertex 20 0 10
    endloop
  endfacet
  facet normal 0 -1 -0
    outer loop
      vertex 20 0 10
      vertex 0.569431 0 0
      vertex 20 0 0
    endloop
  endfacet
endsolid OpenSCAD_Model
