solid OpenSCAD_Model
  facet normal 0.989176 0.146736 0
    outer loop
      vertex 19.9037 1.96034 10
      vertex 19.6157 3.90181 0
      vertex 19.6157 3.90181 10
    endloop
  endfacet
  facet normal 0.989176 0.146736 0
    outer loop
      vertex 19.6157 3.90181 0
      vertex 19.9037 1.96034 10
      vertex 19.9037 1.96034 0
    endloop
  endfacet
  facet normal 0.998796 0.049065 0
    outer loop
      vertex 20 0 10
      vertex 19.9037 1.96034 0
      vertex 19.9037 1.96034 10
    endloop
  endfacet
  facet normal 0.998796 0.049065 0
    outer loop
      vertex 19.9037 1.96034 0
      vertex 20 0 10
      vertex 20 0 0
    endloop
  endfacet
  facet normal 0.998796 -0.049065 0
    outer loop
      vertex 19.9037 -1.96034 10
      vertex 20 0 0
      vertex 20 0 10
    endloop
  endfacet
  facet normal 0.998796 -0.049065 0
    outer loop
      vertex 20 0 0
      vertex 19.9037 -1.96034 10
      vertex 19.9037 -1.96034 0
    endloop
  endfacet
  facet normal 0.427571 -0.903982 0
    outer loop
      vertex 7.65367 -18.4776 0
      vertex 9.42793 -17.6384 10
      vertex 7.65367 -18.4776 10
    endloop
  endfacet
  facet normal 0.427571 -0.903982 0
    outer loop
      vertex 9.42793 -17.6384 10
      vertex 7.65367 -18.4776 0
      vertex 9.42793 -17.6384 0
    endloop
  endfacet
  facet normal 0.595695 -0.80321 0
    outer loop
      vertex 11.1114 -16.6294 0
      vertex 12.6879 -15.4602 10
      vertex 11.1114 -16.6294 10
    endloop
  endfacet
  facet normal 0.595695 -0.80321 0
    outer loop
      vertex 12.6879 -15.4602 10
      vertex 11.1114 -16.6294 0
      vertex 12.6879 -15.4602 0
    endloop
  endfacet
  facet normal 0.80321 0.595695 0
    outer loop
      vertex 16.6294 11.1114 10
      vertex 15.4602 12.6879 0
      vertex 15.4602 12.6879 10
    endloop
  endfacet
  facet normal 0.80321 0.595695 0
    outer loop
      vertex 15.4602 12.6879 0
      vertex 16.6294 11.1114 10
      vertex 16.6294 11.1114 0
    endloop
  endfacet
  facet normal -0.941547 0.336882 0
    outer loop
      vertex -19.1388 5.80569 0
      vertex -18.4776 7.65367 10
      vertex -18.4776 7.65367 0
    endloop
  endfacet
  facet normal -0.941547 0.336882 0
    outer loop
      vertex -18.4776 7.65367 10
      vertex -19.1388 5.80569 0
      vertex -19.1388 5.80569 10
    endloop
  endfacet
  facet normal 0.671584 0.740928 -0
    outer loop
      vertex 14.1421 14.1421 0
      vertex 12.6879 15.4602 10
      vertex 14.1421 14.1421 10
    endloop
  endfacet
  facet normal 0.671584 0.740928 0
    outer loop
      vertex 12.6879 15.4602 10
      vertex 14.1421 14.1421 0
      vertex 12.6879 15.4602 0
    endloop
  endfacet
  facet normal -0.336882 0.941547 0
    outer loop
      vertex -5.80569 19.1388 0
      vertex -7.65367 18.4776 10
      vertex -5.80569 19.1388 10
    endloop
  endfacet
  facet normal -0.336882 0.941547 0
    outer loop
      vertex -7.65367 18.4776 10
      vertex -5.80569 19.1388 0
      vertex -7.65367 18.4776 0
    endloop
  endfacet
  facet normal 0.336882 0.941547 -0
    outer loop
      vertex 7.65367 18.4776 0
      vertex 5.80569 19.1388 10
      vertex 7.65367 18.4776 10
    endloop
  endfacet
  facet normal 0.336882 0.941547 0
    outer loop
      vertex 5.80569 19.1388 10
      vertex 7.65367 18.4776 0
      vertex 5.80569 19.1388 0
    endloop
  endfacet
  facet normal 0.903982 0.427571 0
    outer loop
      vertex 18.4776 7.65367 10
      vertex 17.6384 9.42793 0
      vertex 17.6384 9.42793 10
    endloop
  endfacet
  facet normal 0.903982 0.427571 0
    outer loop
      vertex 17.6384 9.42793 0
      vertex 18.4776 7.65367 10
      vertex 18.4776 7.65367 0
    endloop
  endfacet
  facet normal 0.51409 -0.857736 0
    outer loop
      vertex 9.42793 -17.6384 0
      vertex 11.1114 -16.6294 10
      vertex 9.42793 -17.6384 10
    endloop
  endfacet
  facet normal 0.51409 -0.857736 0
    outer loop
      vertex 11.1114 -16.6294 10
      vertex 9.42793 -17.6384 0
      vertex 11.1114 -16.6294 0
    endloop
  endfacet
  facet normal 0.049065 -0.998796 0
    outer loop
      vertex 0 -20 0
      vertex 1.96034 -19.9037 10
      vertex 0 -20 10
    endloop
  endfacet
  facet normal 0.049065 -0.998796 0
    outer loop
      vertex 1.96034 -19.9037 10
      vertex 0 -20 0
      vertex 1.96034 -19.9037 0
    endloop
  endfacet
  facet normal 0.989176 -0.146736 0
    outer loop
      vertex 19.6157 -3.90181 10
      vertex 19.9037 -1.96034 0
      vertex 19.9037 -1.96034 10
    endloop
  endfacet
  facet normal 0.989176 -0.146736 0
    outer loop
      vertex 19.9037 -1.96034 0
      vertex 19.6157 -3.90181 10
      vertex 19.6157 -3.90181 0
    endloop
  endfacet
  facet normal -0.51409 0.857736 0
    outer loop
      vertex -9.42793 17.6384 0
      vertex -11.1114 16.6294 10
      vertex -9.42793 17.6384 10
    endloop
  endfacet
  facet normal -0.51409 0.857736 0
    outer loop
      vertex -11.1114 16.6294 10
      vertex -9.42793 17.6384 0
      vertex -11.1114 16.6294 0
    endloop
  endfacet
  facet normal 0.242982 -0.970031 0
    outer loop
      vertex 3.90181 -19.6157 0
      vertex 5.80569 -19.1388 10
      vertex 3.90181 -19.6157 10
    endloop
  endfacet
  facet normal 0.242982 -0.970031 0
    outer loop
      vertex 5.80569 -19.1388 10
      vertex 3.90181 -19.6157 0
      vertex 5.80569 -19.1388 0
    endloop
  endfacet
  facet normal -0.595695 -0.80321 0
    outer loop
      vertex -12.6879 -15.4602 0
      vertex -11.1114 -16.6294 10
      vertex -12.6879 -15.4602 10
    endloop
  endfacet
  facet normal -0.595695 -0.80321 -0
    outer loop
      vertex -11.1114 -16.6294 10
      vertex -12.6879 -15.4602 0
      vertex -11.1114 -16.6294 0
    endloop
  endfacet
  facet normal 0.146736 0.989176 -0
    outer loop
      vertex 3.90181 19.6157 0
      vertex 1.96034 19.9037 10
      vertex 3.90181 19.6157 10
    endloop
  endfacet
  facet normal 0.146736 0.989176 0
    outer loop
      vertex 1.96034 19.9037 10
      vertex 3.90181 19.6157 0
      vertex 1.96034 19.9037 0
    endloop
  endfacet
  facet normal 0.80321 -0.595695 0
    outer loop
      vertex 15.4602 -12.6879 10
      vertex 16.6294 -11.1114 0
      vertex 16.6294 -11.1114 10
    endloop
  endfacet
  facet normal 0.80321 -0.595695 0
    outer loop
      vertex 16.6294 -11.1114 0
      vertex 15.4602 -12.6879 10
      vertex 15.4602 -12.6879 0
    endloop
  endfacet
  facet normal -0.740928 0.671584 0
    outer loop
      vertex -15.4602 12.6879 0
      vertex -14.1421 14.1421 10
      vertex -14.1421 14.1421 0
    endloop
  endfacet
  facet normal -0.740928 0.671584 0
    outer loop
      vertex -14.1421 14.1421 10
      vertex -15.4602 12.6879 0
      vertex -15.4602 12.6879 10
    endloop
  endfacet
  facet normal 0.941547 -0.336882 0
    outer loop
      vertex 18.4776 -7.65367 10
      vertex 19.1388 -5.80569 0
      vertex 19.1388 -5.80569 10
    endloop
  endfacet
  facet normal 0.941547 -0.336882 0
    outer loop
      vertex 19.1388 -5.80569 0
      vertex 18.4776 -7.65367 10
      vertex 18.4776 -7.65367 0
    endloop
  endfacet
  facet normal 0.51409 0.857736 -0
    outer loop
      vertex 11.1114 16.6294 0
      vertex 9.42793 17.6384 10
      vertex 11.1114 16.6294 10
    endloop
  endfacet
  facet normal 0.51409 0.857736 0
    outer loop
      vertex 9.42793 17.6384 10
      vertex 11.1114 16.6294 0
      vertex 9.42793 17.6384 0
    endloop
  endfacet
  facet normal 0.595695 0.80321 -0
    outer loop
      vertex 12.6879 15.4602 0
      vertex 11.1114 16.6294 10
      vertex 12.6879 15.4602 10
    endloop
  endfacet
  facet normal 0.595695 0.80321 0
    outer loop
      vertex 11.1114 16.6294 10
      vertex 12.6879 15.4602 0
      vertex 11.1114 16.6294 0
    endloop
  endfacet
  facet normal -0.989176 -0.146736 0
    outer loop
      vertex -19.6157 -3.90181 0
      vertex -19.9037 -1.96034 10
      vertex -19.9037 -1.96034 0
    endloop
  endfacet
  facet normal -0.989176 -0.146736 0
    outer loop
      vertex -19.9037 -1.96034 10
      vertex -19.6157 -3.90181 0
      vertex -19.6157 -3.90181 10
    endloop
  endfacet
  facet normal -0.336882 -0.941547 0
    outer loop
      vertex -7.65367 -18.4776 0
      vertex -5.80569 -19.1388 10
      vertex -7.65367 -18.4776 10
    endloop
  endfacet
  facet normal -0.336882 -0.941547 -0
    outer loop
      vertex -5.80569 -19.1388 10
      vertex -7.65367 -18.4776 0
      vertex -5.80569 -19.1388 0
    endloop
  endfacet
  facet normal 0.970031 0.242982 0
    outer loop
      vertex 19.6157 3.90181 10
      vertex 19.1388 5.80569 0
      vertex 19.1388 5.80569 10
    endloop
  endfacet
  facet normal 0.970031 0.242982 0
    outer loop
      vertex 19.1388 5.80569 0
      vertex 19.6157 3.90181 10
      vertex 19.6157 3.90181 0
    endloop
  endfacet
  facet normal -0.049065 0.998796 0
    outer loop
      vertex 0 20 0
      vertex -1.96034 19.9037 10
      vertex 0 20 10
    endloop
  endfacet
  facet normal -0.049065 0.998796 0
    outer loop
      vertex -1.96034 19.9037 10
      vertex 0 20 0
      vertex -1.96034 19.9037 0
    endloop
  endfacet
  facet normal -0.903982 -0.427571 0
    outer loop
      vertex -17.6384 -9.42793 0
      vertex -18.4776 -7.65367 10
      vertex -18.4776 -7.65367 0
    endloop
  endfacet
  facet normal -0.903982 -0.427571 0
    outer loop
      vertex -18.4776 -7.65367 10
      vertex -17.6384 -9.42793 0
      vertex -17.6384 -9.42793 10
    endloop
  endfacet
  facet normal -0.80321 -0.595695 0
    outer loop
      vertex -15.4602 -12.6879 0
      vertex -16.6294 -11.1114 10
      vertex -16.6294 -11.1114 0
    endloop
  endfacet
  facet normal -0.80321 -0.595695 0
    outer loop
      vertex -16.6294 -11.1114 10
      vertex -15.4602 -12.6879 0
      vertex -15.4602 -12.6879 10
    endloop
  endfacet
  facet normal 0.740928 -0.671584 0
    outer loop
      vertex 14.1421 -14.1421 10
      vertex 15.4602 -12.6879 0
      vertex 15.4602 -12.6879 10
    endloop
  endfacet
  facet normal 0.740928 -0.671584 0
    outer loop
      vertex 15.4602 -12.6879 0
      vertex 14.1421 -14.1421 10
      vertex 14.1421 -14.1421 0
    endloop
  endfacet
  facet normal -0.998796 0.049065 0
    outer loop
      vertex -20 0 0
      vertex -19.9037 1.96034 10
      vertex -19.9037 1.96034 0
    endloop
  endfacet
  facet normal -0.998796 0.049065 0
    outer loop
      vertex -19.9037 1.96034 10
      vertex -20 0 0
      vertex -20 0 10
    endloop
  endfacet
  facet normal -0.51409 -0.857736 0
    outer loop
      vertex -11.1114 -16.6294 0
      vertex -9.42793 -17.6384 10
      vertex -11.1114 -16.6294 10
    endloop
  endfacet
  facet normal -0.51409 -0.857736 -0
    outer loop
      vertex -9.42793 -17.6384 10
      vertex -11.1114 -16.6294 0
      vertex -9.42793 -17.6384 0
    endloop
  endfacet
  facet normal 0.941547 0.336882 0
    outer loop
      vertex 19.1388 5.80569 10
      vertex 18.4776 7.65367 0
      vertex 18.4776 7.65367 10
    endloop
  endfacet
  facet normal 0.941547 0.336882 0
    outer loop
      vertex 18.4776 7.65367 0
      vertex 19.1388 5.80569 10
      vertex 19.1388 5.80569 0
    endloop
  endfacet
  facet normal -0.903982 0.427571 0
    outer loop
      vertex -18.4776 7.65367 0
      vertex -17.6384 9.42793 10
      vertex -17.6384 9.42793 0
    endloop
  endfacet
  facet normal -0.903982 0.427571 0
    outer loop
      vertex -17.6384 9.42793 10
      vertex -18.4776 7.65367 0
      vertex -18.4776 7.65367 10
    endloop
  endfacet
  facet normal -0.857736 -0.51409 0
    outer loop
      vertex -16.6294 -11.1114 0
      vertex -17.6384 -9.42793 10
      vertex -17.6384 -9.42793 0
    endloop
  endfacet
  facet normal -0.857736 -0.51409 0
    outer loop
      vertex -17.6384 -9.42793 10
      vertex -16.6294 -11.1114 0
      vertex -16.6294 -11.1114 10
    endloop
  endfacet
  facet normal -0.427571 -0.903982 0
    outer loop
      vertex -9.42793 -17.6384 0
      vertex -7.65367 -18.4776 10
      vertex -9.42793 -17.6384 10
    endloop
  endfacet
  facet normal -0.427571 -0.903982 -0
    outer loop
      vertex -7.65367 -18.4776 10
      vertex -9.42793 -17.6384 0
      vertex -7.65367 -18.4776 0
    endloop
  endfacet
  facet normal 0.857736 0.51409 0
    outer loop
      vertex 17.6384 9.42793 10
      vertex 16.6294 11.1114 0
      vertex 16.6294 11.1114 10
    endloop
  endfacet
  facet normal 0.857736 0.51409 0
    outer loop
      vertex 16.6294 11.1114 0
      vertex 17.6384 9.42793 10
      vertex 17.6384 9.42793 0
    endloop
  endfacet
  facet normal 0.740928 0.671584 0
    outer loop
      vertex 15.4602 12.6879 10
      vertex 14.1421 14.1421 0
      vertex 14.1421 14.1421 10
    endloop
  endfacet
  facet normal 0.740928 0.671584 0
    outer loop
      vertex 14.1421 14.1421 0
      vertex 15.4602 12.6879 10
      vertex 15.4602 12.6879 0
    endloop
  endfacet
  facet normal -0.941547 -0.336882 0
    outer loop
      vertex -18.4776 -7.65367 0
      vertex -19.1388 -5.80569 10
      vertex -19.1388 -5.80569 0
    endloop
  endfacet
  facet normal -0.941547 -0.336882 0
    outer loop
      vertex -19.1388 -5.80569 10
      vertex -18.4776 -7.65367 0
      vertex -18.4776 -7.65367 10
    endloop
  endfacet
  facet normal -0.740928 -0.671584 0
    outer loop
      vertex -14.1421 -14.1421 0
      vertex -15.4602 -12.6879 10
      vertex -15.4602 -12.6879 0
    endloop
  endfacet
  facet normal -0.740928 -0.671584 0
    outer loop
      vertex -15.4602 -12.6879 10
      vertex -14.1421 -14.1421 0
      vertex -14.1421 -14.1421 10
    endloop
  endfacet
  facet normal -0.989176 0.146736 0
    outer loop
      vertex -19.9037 1.96034 0
      vertex -19.6157 3.90181 10
      vertex -19.6157 3.90181 0
    endloop
  endfacet
  facet normal -0.989176 0.146736 0
    outer loop
      vertex -19.6157 3.90181 10
      vertex -19.9037 1.96034 0
      vertex -19.9037 1.96034 10
    endloop
  endfacet
  facet normal 0 0 1
    outer loop
      vertex 19.9037 1.96034 10
      vertex 19.9037 -1.96034 10
      vertex 20 0 10
    endloop
  endfacet
  facet normal 0 0 1
    outer loop
      vertex 19.6157 3.90181 10
      vertex 19.9037 -1.96034 10
      vertex 19.9037 1.96034 10
    endloop
  endfacet
  facet normal 0 0 1
    outer loop
      vertex 19.6157 3.90181 10
      vertex 19.6157 -3.90181 10
      vertex 19.9037 -1.96034 10
    endloop
  endfacet
  facet normal 0 0 1
    outer loop
      vertex 19.1388 5.80569 10
      vertex 19.6157 -3.90181 10
      vertex 19.6157 3.90181 10
    endloop
  endfacet
  facet normal 0 0 1
    outer loop
      vertex 19.1388 5.80569 10
      vertex 19.1388 -5.80569 10
      vertex 19.6157 -3.90181 10
    endloop
  endfacet
  facet normal 0 0 1
    outer loop
      vertex 18.4776 7.65367 10
      vertex 19.1388 -5.80569 10
      vertex 19.1388 5.80569 10
    endloop
  endfacet
  facet normal 0 0 1
    outer loop
      vertex 18.4776 7.65367 10
      vertex 18.4776 -7.65367 10
      vertex 19.1388 -5.80569 10
    endloop
  endfacet
  facet normal 0 0 1
    outer loop
      vertex 17.6384 9.42793 10
      vertex 18.4776 -7.65367 10
      vertex 18.4776 7.65367 10
    endloop
  endfacet
  facet normal 0 0 1
    outer loop
      vertex 17.6384 9.42793 10
      vertex 17.6384 -9.42793 10
      vertex 18.4776 -7.65367 10
    endloop
  endfacet
  facet normal 0 0 1
    outer loop
      vertex 16.6294 11.1114 10
      vertex 17.6384 -9.42793 10
      vertex 17.6384 9.42793 10
    endloop
  endfacet
  facet normal 0 0 1
    outer loop
      vertex 16.6294 11.1114 10
      vertex 16.6294 -11.1114 10
      vertex 17.6384 -9.42793 10
    endloop
  endfacet
  facet normal 0 0 1
    outer loop
      vertex 15.4602 12.6879 10
      vertex 16.6294 -11.1114 10
      vertex 16.6294 11.1114 10
    endloop
  endfacet
  facet normal 0 0 1
    outer loop
      vertex 15.4602 12.6879 10
      vertex 15.4602 -12.6879 10
      vertex 16.6294 -11.1114 10
    endloop
  endfacet
  facet normal 0 0 1
    outer loop
      vertex 14.1421 14.1421 10
      vertex 15.4602 -12.6879 10
      vertex 15.4602 12.6879 10
    endloop
  endfacet
  facet normal 0 0 1
    outer loop
      vertex 14.1421 14.1421 10
      vertex 14.1421 -14.1421 10
      vertex 15.4602 -12.6879 10
    endloop
  endfacet
  facet normal 0 0 1
    outer loop
      vertex 12.6879 15.4602 10
      vertex 14.1421 -14.1421 10
      vertex 14.1421 14.1421 10
    endloop
  endfacet
  facet normal 0 0 1
    outer loop
      vertex 12.6879 15.4602 10
      vertex 12.6879 -15.4602 10
      vertex 14.1421 -14.1421 10
    endloop
  endfacet
  facet normal 0 0 1
    outer loop
      vertex 11.1114 16.6294 10
      vertex 12.6879 -15.4602 10
      vertex 12.6879 15.4602 10
    endloop
  endfacet
  facet normal 0 0 1
    outer loop
      vertex 11.1114 16.6294 10
      vertex 11.1114 -16.6294 10
      vertex 12.6879 -15.4602 10
    endloop
  endfacet
  facet normal 0 0 1
    outer loop
      vertex 9.42793 17.6384 10
      vertex 11.1114 -16.6294 10
      vertex 11.1114 16.6294 10
    endloop
  endfacet
  facet normal 0 0 1
    outer loop
      vertex 9.42793 17.6384 10
      vertex 9.42793 -17.6384 10
      vertex 11.1114 -16.6294 10
    endloop
  endfacet
  facet normal 0 0 1
    outer loop
      vertex 7.65367 18.4776 10
      vertex 9.42793 -17.6384 10
      vertex 9.42793 17.6384 10
    endloop
  endfacet
  facet normal 0 0 1
    outer loop
      vertex 7.65367 18.4776 10
      vertex 7.65367 -18.4776 10
      vertex 9.42793 -17.6384 10
    endloop
  endfacet
  facet normal 0 0 1
    outer loop
      vertex 5.80569 19.1388 10
      vertex 7.65367 -18.4776 10
      vertex 7.65367 18.4776 10
    endloop
  endfacet
  facet normal 0 0 1
    outer loop
      vertex 5.80569 19.1388 10
      vertex 5.80569 -19.1388 10
      vertex 7.65367 -18.4776 10
    endloop
  endfacet
  facet normal 0 0 1
    outer loop
      vertex 3.90181 19.6157 10
      vertex 5.80569 -19.1388 10
      vertex 5.80569 19.1388 10
    endloop
  endfacet
  facet normal 0 0 1
    outer loop
      vertex 3.90181 19.6157 10
      vertex 3.90181 -19.6157 10
      vertex 5.80569 -19.1388 10
    endloop
  endfacet
  facet normal 0 0 1
    outer loop
      vertex 1.96034 19.9037 10
      vertex 3.90181 -19.6157 10
      vertex 3.90181 19.6157 10
    endloop
  endfacet
  facet normal 0 0 1
    outer loop
      vertex 1.96034 19.9037 10
      vertex 1.96034 -19.9037 10
      vertex 3.90181 -19.6157 10
    endloop
  endfacet
  facet normal 0 0 1
    outer loop
      vertex 0 20 10
      vertex 1.96034 -19.9037 10
      vertex 1.96034 19.9037 10
    endloop
  endfacet
  facet normal 0 0 1
    outer loop
      vertex 0 20 10
      vertex 0 -20 10
      vertex 1.96034 -19.9037 10
    endloop
  endfacet
  facet normal -0 0 1
    outer loop
      vertex -1.96034 19.9037 10
      vertex 0 -20 10
      vertex 0 20 10
    endloop
  endfacet
  facet normal 0 0 1
    outer loop
      vertex -1.96034 19.9037 10
      vertex -1.96034 -19.9037 10
      vertex 0 -20 10
    endloop
  endfacet
  facet normal -0 0 1
    outer loop
      vertex -3.90181 19.6157 10
      vertex -1.96034 -19.9037 10
      vertex -1.96034 19.9037 10
    endloop
  endfacet
  facet normal 0 0 1
    outer loop
      vertex -3.90181 19.6157 10
      vertex -3.90181 -19.6157 10
      vertex -1.96034 -19.9037 10
    endloop
  endfacet
  facet normal -0 0 1
    outer loop
      vertex -5.80569 19.1388 10
      vertex -3.90181 -19.6157 10
      vertex -3.90181 19.6157 10
    endloop
  endfacet
  facet normal 0 0 1
    outer loop
      vertex -5.80569 19.1388 10
      vertex -5.80569 -19.1388 10
      vertex -3.90181 -19.6157 10
    endloop
  endfacet
  facet normal -0 0 1
    outer loop
      vertex -7.65367 18.4776 10
      vertex -5.80569 -19.1388 10
      vertex -5.80569 19.1388 10
    endloop
  endfacet
  facet normal 0 0 1
    outer loop
      vertex -7.65367 18.4776 10
      vertex -7.65367 -18.4776 10
      vertex -5.80569 -19.1388 10
    endloop
  endfacet
  facet normal -0 0 1
    outer loop
      vertex -9.42793 17.6384 10
      vertex -7.65367 -18.4776 10
      vertex -7.65367 18.4776 10
    endloop
  endfacet
  facet normal 0 0 1
    outer loop
      vertex -9.42793 17.6384 10
      vertex -9.42793 -17.6384 10
      vertex -7.65367 -18.4776 10
    endloop
  endfacet
  facet normal -0 0 1
    outer loop
      vertex -11.1114 16.6294 10
      vertex -9.42793 -17.6384 10
      vertex -9.42793 17.6384 10
    endloop
  endfacet
  facet normal 0 0 1
    outer loop
      vertex -11.1114 16.6294 10
      vertex -11.1114 -16.6294 10
      vertex -9.42793 -17.6384 10
    endloop
  endfacet
  facet normal -0 0 1
    outer loop
      vertex -12.6879 15.4602 10
      vertex -11.1114 -16.6294 10
      vertex -11.1114 16.6294 10
    endloop
  endfacet
  facet normal 0 0 1
    outer loop
      vertex -12.6879 15.4602 10
      vertex -12.6879 -15.4602 10
      vertex -11.1114 -16.6294 10
    endloop
  endfacet
  facet normal -0 0 1
    outer loop
      vertex -14.1421 14.1421 10
      vertex -12.6879 -15.4602 10
      vertex -12.6879 15.4602 10
    endloop
  endfacet
  facet normal 0 0 1
    outer loop
      vertex -14.1421 14.1421 10
      vertex -14.1421 -14.1421 10
      vertex -12.6879 -15.4602 10
    endloop
  endfacet
  facet normal -0 0 1
    outer loop
      vertex -15.4602 12.6879 10
      vertex -14.1421 -14.1421 10
      vertex -14.1421 14.1421 10
    endloop
  endfacet
  facet normal 0 0 1
    outer loop
      vertex -15.4602 12.6879 10
      vertex -15.4602 -12.6879 10
      vertex -14.1421 -14.1421 10
    endloop
  endfacet
  facet normal -0 0 1
    outer loop
      vertex -16.6294 11.1114 10
      vertex -15.4602 -12.6879 10
      vertex -15.4602 12.6879 10
    endloop
  endfacet
  facet normal 0 0 1
    outer loop
      vertex -16.6294 11.1114 10
      vertex -16.6294 -11.1114 10
      vertex -15.4602 -12.6879 10
    endloop
  endfacet
  facet normal -0 0 1
    outer loop
      vertex -17.6384 9.42793 10
      vertex -16.6294 -11.1114 10
      vertex -16.6294 11.1114 10
    endloop
  endfacet
  facet normal 0 0 1
    outer loop
      vertex -17.6384 9.42793 10
      vertex -17.6384 -9.42793 10
      vertex -16.6294 -11.1114 10
    endloop
  endfacet
  facet normal -0 0 1
    outer loop
      vertex -18.4776 7.65367 10
      vertex -17.6384 -9.42793 10
      vertex -17.6384 9.42793 10
    endloop
  endfacet
  facet normal 0 0 1
    outer loop
      vertex -18.4776 7.65367 10
      vertex -18.4776 -7.65367 10
      vertex -17.6384 -9.42793 10
    endloop
  endfacet
  facet normal -0 0 1
    outer loop
      vertex -19.1388 5.80569 10
      vertex -18.4776 -7.65367 10
      vertex -18.4776 7.65367 10
    endloop
  endfacet
  facet normal 0 0 1
    outer loop
      vertex -19.1388 5.80569 10
      vertex -19.1388 -5.80569 10
      vertex -18.4776 -7.65367 10
    endloop
  endfacet
  facet normal -0 0 1
    outer loop
      vertex -19.6157 3.90181 10
      vertex -19.1388 -5.80569 10
      vertex -19.1388 5.80569 10
    endloop
  endfacet
  facet normal 0 0 1
    outer loop
      vertex -19.6157 3.90181 10
      vertex -19.6157 -3.90181 10
      vertex -19.1388 -5.80569 10
    endloop
  endfacet
  facet normal -0 0 1
    outer loop
      vertex -19.9037 1.96034 10
      vertex -19.6157 -3.90181 10
      vertex -19.6157 3.90181 10
    endloop
  endfacet
  facet normal 0 0 1
    outer loop
      vertex -19.9037 1.96034 10
      vertex -19.9037 -1.96034 10
      vertex -19.6157 -3.90181 10
    endloop
  endfacet
  facet normal 0 -0 1
    outer loop
      vertex -19.9037 -1.96034 10
      vertex -19.9037 1.96034 10
      vertex -20 0 10
    endloop
  endfacet
  facet normal -0.049065 -0.998796 0
    outer loop
      vertex -1.96034 -19.9037 0
      vertex 0 -20 10
      vertex -1.96034 -19.9037 10
    endloop
  endfacet
  facet normal -0.049065 -0.998796 -0
    outer loop
      vertex 0 -20 10
      vertex -1.96034 -19.9037 0
      vertex 0 -20 0
    endloop
  endfacet
  facet normal 0.970031 -0.242982 0
    outer loop
      vertex 19.1388 -5.80569 10
      vertex 19.6157 -3.90181 0
      vertex 19.6157 -3.90181 10
    endloop
  endfacet
  facet normal 0.970031 -0.242982 0
    outer loop
      vertex 19.6157 -3.90181 0
      vertex 19.1388 -5.80569 10
      vertex 19.1388 -5.80569 0
    endloop
  endfacet
  facet normal -0.970031 -0.242982 0
    outer loop
      vertex -19.1388 -5.80569 0
      vertex -19.6157 -3.90181 10
      vertex -19.6157 -3.90181 0
    endloop
  endfacet
  facet normal -0.970031 -0.242982 0
    outer loop
      vertex -19.6157 -3.90181 10
      vertex -19.1388 -5.80569 0
      vertex -19.1388 -5.80569 10
    endloop
  endfacet
  facet normal -0.146736 -0.989176 0
    outer loop
      vertex -3.90181 -19.6157 0
      vertex -1.96034 -19.9037 10
      vertex -3.90181 -19.6157 10
    endloop
  endfacet
  facet normal -0.146736 -0.989176 -0
    outer loop
      vertex -1.96034 -19.9037 10
      vertex -3.90181 -19.6157 0
      vertex -1.96034 -19.9037 0
    endloop
  endfacet
  facet normal 0.427571 0.903982 -0
    outer loop
      vertex 9.42793 17.6384 0
      vertex 7.65367 18.4776 10
      vertex 9.42793 17.6384 10
    endloop
  endfacet
  facet normal 0.427571 0.903982 0
    outer loop
      vertex 7.65367 18.4776 10
      vertex 9.42793 17.6384 0
      vertex 7.65367 18.4776 0
    endloop
  endfacet
  facet normal 0.146736 -0.989176 0
    outer loop
      vertex 1.96034 -19.9037 0
      vertex 3.90181 -19.6157 10
      vertex 1.96034 -19.9037 10
    endloop
  endfacet
  facet normal 0.146736 -0.989176 0
    outer loop
      vertex 3.90181 -19.6157 10
      vertex 1.96034 -19.9037 0
      vertex 3.90181 -19.6157 0
    endloop
  endfacet
  facet normal 0.049065 0.998796 -0
    outer loop
      vertex 1.96034 19.9037 0
      vertex 0 20 10
      vertex 1.96034 19.9037 10
    endloop
  endfacet
  facet normal 0.049065 0.998796 0
    outer loop
      vertex 0 20 10
      vertex 1.96034 19.9037 0
      vertex 0 20 0
    endloop
  endfacet
  facet normal -0.671584 0.740928 0
    outer loop
      vertex -12.6879 15.4602 0
      vertex -14.1421 14.1421 10
      vertex -12.6879 15.4602 10
    endloop
  endfacet
  facet normal -0.671584 0.740928 0
    outer loop
      vertex -14.1421 14.1421 10
      vertex -12.6879 15.4602 0
      vertex -14.1421 14.1421 0
    endloop
  endfacet
  facet normal -0.998796 -0.049065 0
    outer loop
      vertex -19.9037 -1.96034 0
      vertex -20 0 10
      vertex -20 0 0
    endloop
  endfacet
  facet normal -0.998796 -0.049065 0
    outer loop
      vertex -20 0 10
      vertex -19.9037 -1.96034 0
      vertex -19.9037 -1.96034 10
    endloop
  endfacet
  facet normal -0.595695 0.80321 0
    outer loop
      vertex -11.1114 16.6294 0
      vertex -12.6879 15.4602 10
      vertex -11.1114 16.6294 10
    endloop
  endfacet
  facet normal -0.595695 0.80321 0
    outer loop
      vertex -12.6879 15.4602 10
      vertex -11.1114 16.6294 0
      vertex -12.6879 15.4602 0
    endloop
  endfacet
  facet normal -0.242982 -0.970031 0
    outer loop
      vertex -5.80569 -19.1388 0
      vertex -3.90181 -19.6157 10
      vertex -5.80569 -19.1388 10
    endloop
  endfacet
  facet normal -0.242982 -0.970031 -0
    outer loop
      vertex -3.90181 -19.6157 10
      vertex -5.80569 -19.1388 0
      vertex -3.90181 -19.6157 0
    endloop
  endfacet
  facet normal -0.242982 0.970031 0
    outer loop
      vertex -3.90181 19.6157 0
      vertex -5.80569 19.1388 10
      vertex -3.90181 19.6157 10
    endloop
  endfacet
  facet normal -0.242982 0.970031 0
    outer loop
      vertex -5.80569 19.1388 10
      vertex -3.90181 19.6157 0
      vertex -5.80569 19.1388 0
    endloop
  endfacet
  facet normal -0.146736 0.989176 0
    outer loop
      vertex -1.96034 19.9037 0
      vertex -3.90181 19.6157 10
      vertex -1.96034 19.9037 10
    endloop
  endfacet
  facet normal -0.146736 0.989176 0
    outer loop
      vertex -3.90181 19.6157 10
      vertex -1.96034 19.9037 0
      vertex -3.90181 19.6157 0
    endloop
  endfacet
  facet normal -0.80321 0.595695 0
    outer loop
      vertex -16.6294 11.1114 0
      vertex -15.4602 12.6879 10
      vertex -15.4602 12.6879 0
    endloop
  endfacet
  facet normal -0.80321 0.595695 0
    outer loop
      vertex -15.4602 12.6879 10
      vertex -16.6294 11.1114 0
      vertex -16.6294 11.1114 10
    endloop
  endfacet
  facet normal -0.671584 -0.740928 0
    outer loop
      vertex -14.1421 -14.1421 0
      vertex -12.6879 -15.4602 10
      vertex -14.1421 -14.1421 10
    endloop
  endfacet
  facet normal -0.671584 -0.740928 -0
    outer loop
      vertex -12.6879 -15.4602 10
      vertex -14.1421 -14.1421 0
      vertex -12.6879 -15.4602 0
    endloop
  endfacet
  facet normal 0.242982 0.970031 -0
    outer loop
      vertex 5.80569 19.1388 0
      vertex 3.90181 19.6157 10
      vertex 5.80569 19.1388 10
    endloop
  endfacet
  facet normal 0.242982 0.970031 0
    outer loop
      vertex 3.90181 19.6157 10
      vertex 5.80569 19.1388 0
      vertex 3.90181 19.6157 0
    endloop
  endfacet
  facet normal 0 0 -1
    outer loop
      vertex 19.9037 -1.96034 0
      vertex 19.9037 1.96034 0
      vertex 20 0 0
    endloop
  endfacet
  facet normal 0 0 -1
    outer loop
      vertex 19.6157 -3.90181 0
      vertex 19.9037 1.96034 0
      vertex 19.9037 -1.96034 0
    endloop
  endfacet
  facet normal 0 0 -1
    outer loop
      vertex 19.6157 -3.90181 0
      vertex 19.6157 3.90181 0
      vertex 19.9037 1.96034 0
    endloop
  endfacet
  facet normal 0 0 -1
    outer loop
      vertex 19.1388 -5.80569 0
      vertex 19.6157 3.90181 0
      vertex 19.6157 -3.90181 0
    endloop
  endfacet
  facet normal 0 0 -1
    outer loop
      vertex 19.1388 -5.80569 0
      vertex 19.1388 5.80569 0
      vertex 19.6157 3.90181 0
    endloop
  endfacet
  facet normal 0 0 -1
    outer loop
      vertex 18.4776 -7.65367 0
      vertex 19.1388 5.80569 0
      vertex 19.1388 -5.80569 0
    endloop
  endfacet
  facet normal 0 0 -1
    outer loop
      vertex 18.4776 -7.65367 0
      vertex 18.4776 7.65367 0
      vertex 19.1388 5.80569 0
    endloop
  endfacet
  facet normal 0 0 -1
    outer loop
      vertex 17.6384 -9.42793 0
      vertex 18.4776 7.65367 0
      vertex 18.4776 -7.65367 0
    endloop
  endfacet
  facet normal 0 0 -1
    outer loop
      vertex 17.6384 -9.42793 0
      vertex 17.6384 9.42793 0
      vertex 18.4776 7.65367 0
    endloop
  endfacet
  facet normal 0 0 -1
    outer loop
      vertex 16.6294 -11.1114 0
      vertex 17.6384 9.42793 0
      vertex 17.6384 -9.42793 0
    endloop
  endfacet
  facet normal 0 0 -1
    outer loop
      vertex 16.6294 -11.1114 0
      vertex 16.6294 11.1114 0
      vertex 17.6384 9.42793 0
    endloop
  endfacet
  facet normal 0 0 -1
    outer loop
      vertex 15.4602 -12.6879 0
      vertex 16.6294 11.1114 0
      vertex 16.6294 -11.1114 0
    endloop
  endfacet
  facet normal 0 0 -1
    outer loop
      vertex 15.4602 -12.6879 0
      vertex 15.4602 12.6879 0
      vertex 16.6294 11.1114 0
    endloop
  endfacet
  facet normal 0 0 -1
    outer loop
      vertex 14.1421 -14.1421 0
      vertex 15.4602 12.6879 0
      vertex 15.4602 -12.6879 0
    endloop
  endfacet
  facet normal 0 0 -1
    outer loop
      vertex 14.1421 -14.1421 0
      vertex 14.1421 14.1421 0
      vertex 15.4602 12.6879 0
    endloop
  endfacet
  facet normal 0 0 -1
    outer loop
      vertex 12.6879 -15.4602 0
      vertex 14.1421 14.1421 0
      vertex 14.1421 -14.1421 0
    endloop
  endfacet
  facet normal 0 0 -1
    outer loop
      vertex 12.6879 -15.4602 0
      vertex 12.6879 15.4602 0
      vertex 14.1421 14.1421 0
    endloop
  endfacet
  facet normal 0 0 -1
    outer loop
      vertex 11.1114 -16.6294 0
      vertex 12.6879 15.4602 0
      vertex 12.6879 -15.4602 0
    endloop
  endfacet
  facet normal 0 0 -1
    outer loop
      vertex 11.1114 -16.6294 0
      vertex 11.1114 16.6294 0
      vertex 12.6879 15.4602 0
    endloop
  endfacet
  facet normal 0 0 -1
    outer loop
      vertex 9.42793 -17.6384 0
      vertex 11.1114 16.6294 0
      vertex 11.1114 -16.6294 0
    endloop
  endfacet
  facet normal 0 0 -1
    outer loop
      vertex 9.42793 -17.6384 0
      vertex 9.42793 17.6384 0
      vertex 11.1114 16.6294 0
    endloop
  endfacet
  facet normal 0 0 -1
    outer loop
      vertex 7.65367 -18.4776 0
      vertex 9.42793 17.6384 0
      vertex 9.42793 -17.6384 0
    endloop
  endfacet
  facet normal 0 0 -1
    outer loop
      vertex 7.65367 -18.4776 0
      vertex 7.65367 18.4776 0
      vertex 9.42793 17.6384 0
    endloop
  endfacet
  facet normal 0 0 -1
    outer loop
      vertex 5.80569 -19.1388 0
      vertex 7.65367 18.4776 0
      vertex 7.65367 -18.4776 0
    endloop
  endfacet
  facet normal 0 0 -1
    outer loop
      vertex 5.80569 -19.1388 0
      vertex 5.80569 19.1388 0
      vertex 7.65367 18.4776 0
    endloop
  endfacet
  facet normal 0 0 -1
    outer loop
      vertex 3.90181 -19.6157 0
      vertex 5.80569 19.1388 0
      vertex 5.80569 -19.1388 0
    endloop
  endfacet
  facet normal 0 0 -1
    outer loop
      vertex 3.90181 -19.6157 0
      vertex 3.90181 19.6157 0
      vertex 5.80569 19.1388 0
    endloop
  endfacet
  facet normal 0 0 -1
    outer loop
      vertex 1.96034 -19.9037 0
      vertex 3.90181 19.6157 0
      vertex 3.90181 -19.6157 0
    endloop
  endfacet
  facet normal 0 0 -1
    outer loop
      vertex 1.96034 -19.9037 0
      vertex 1.96034 19.9037 0
      vertex 3.90181 19.6157 0
    endloop
  endfacet
  facet normal 0 0 -1
    outer loop
      vertex 0 -20 0
      vertex 1.96034 19.9037 0
      vertex 1.96034 -19.9037 0
    endloop
  endfacet
  facet normal 0 0 -1
    outer loop
      vertex 0 -20 0
      vertex 0 20 0
      vertex 1.96034 19.9037 0
    endloop
  endfacet
  facet normal 0 0 -1
    outer loop
      vertex -1.96034 -19.9037 0
      vertex 0 20 0
      vertex 0 -20 0
    endloop
  endfacet
  facet normal 0 0 -1
    outer loop
      vertex -1.96034 -19.9037 0
      vertex -1.96034 19.9037 0
      vertex 0 20 0
    endloop
  endfacet
  facet normal 0 0 -1
    outer loop
      vertex -3.90181 -19.6157 0
      vertex -1.96034 19.9037 0
      vertex -1.96034 -19.9037 0
    endloop
  endfacet
  facet normal 0 0 -1
    outer loop
      vertex -3.90181 -19.6157 0
      vertex -3.90181 19.6157 0
      vertex -1.96034 19.9037 0
    endloop
  endfacet
  facet normal 0 0 -1
    outer loop
      vertex -5.80569 -19.1388 0
      vertex -3.90181 19.6157 0
      vertex -3.90181 -19.6157 0
    endloop
  endfacet
  facet normal 0 0 -1
    outer loop
      vertex -5.80569 -19.1388 0
      vertex -5.80569 19.1388 0
      vertex -3.90181 19.6157 0
    endloop
  endfacet
  facet normal 0 0 -1
    outer loop
      vertex -7.65367 -18.4776 0
      vertex -5.80569 19.1388 0
      vertex -5.80569 -19.1388 0
    endloop
  endfacet
  facet normal 0 0 -1
    outer loop
      vertex -7.65367 -18.4776 0
      vertex -7.65367 18.4776 0
      vertex -5.80569 19.1388 0
    endloop
  endfacet
  facet normal 0 0 -1
    outer loop
      vertex -9.42793 -17.6384 0
      vertex -7.65367 18.4776 0
      vertex -7.65367 -18.4776 0
    endloop
  endfacet
  facet normal 0 0 -1
    outer loop
      vertex -9.42793 -17.6384 0
      vertex -9.42793 17.6384 0
      vertex -7.65367 18.4776 0
    endloop
  endfacet
  facet normal 0 0 -1
    outer loop
      vertex -11.1114 -16.6294 0
      vertex -9.42793 17.6384 0
      vertex -9.42793 -17.6384 0
    endloop
  endfacet
  facet normal 0 0 -1
    outer loop
      vertex -11.1114 -16.6294 0
      vertex -11.1114 16.6294 0
      vertex -9.42793 17.6384 0
    endloop
  endfacet
  facet normal 0 0 -1
    outer loop
      vertex -12.6879 -15.4602 0
      vertex -11.1114 16.6294 0
      vertex -11.1114 -16.6294 0
    endloop
  endfacet
  facet normal 0 0 -1
    outer loop
      vertex -12.6879 -15.4602 0
      vertex -12.6879 15.4602 0
      vertex -11.1114 16.6294 0
    endloop
  endfacet
  facet normal 0 0 -1
    outer loop
      vertex -14.1421 -14.1421 0
      vertex -12.6879 15.4602 0
      vertex -12.6879 -15.4602 0
    endloop
  endfacet
  facet normal 0 0 -1
    outer loop
      vertex -14.1421 -14.1421 0
      vertex -14.1421 14.1421 0
      vertex -12.6879 15.4602 0
    endloop
  endfacet
  facet normal 0 0 -1
    outer loop
      vertex -15.4602 -12.6879 0
      vertex -14.1421 14.1421 0
      vertex -14.1421 -14.1421 0
    endloop
  endfacet
  facet normal 0 0 -1
    outer loop
      vertex -15.4602 -12.6879 0
      vertex -15.4602 12.6879 0
      vertex -14.1421 14.1421 0
    endloop
  endfacet
  facet normal 0 0 -1
    outer loop
      vertex -16.6294 -11.1114 0
      vertex -15.4602 12.6879 0
      vertex -15.4602 -12.6879 0
    endloop
  endfacet
  facet normal 0 0 -1
    outer loop
      vertex -16.6294 -11.1114 0
      vertex -16.6294 11.1114 0
      vertex -15.4602 12.6879 0
    endloop
  endfacet
  facet normal 0 0 -1
    outer loop
      vertex -17.6384 -9.42793 0
      vertex -16.6294 11.1114 0
      vertex -16.6294 -11.1114 0
    endloop
  endfacet
  facet normal 0 0 -1
    outer loop
      vertex -17.6384 -9.42793 0
      vertex -17.6384 9.42793 0
      vertex -16.6294 11.1114 0
    endloop
  endfacet
  facet normal 0 0 -1
    outer loop
      vertex -18.4776 -7.65367 0
      vertex -17.6384 9.42793 0
      vertex -17.6384 -9.42793 0
    endloop
  endfacet
  facet normal 0 0 -1
    outer loop
      vertex -18.4776 -7.65367 0
      vertex -18.4776 7.65367 0
      vertex -17.6384 9.42793 0
    endloop
  endfacet
  facet normal 0 0 -1
    outer loop
      vertex -19.1388 -5.80569 0
      vertex -18.4776 7.65367 0
      vertex -18.4776 -7.65367 0
    endloop
  endfacet
  facet normal 0 0 -1
    outer loop
      vertex -19.1388 -5.80569 0
      vertex -19.1388 5.80569 0
      vertex -18.4776 7.65367 0
    endloop
  endfacet
  facet normal 0 0 -1
    outer loop
      vertex -19.6157 -3.90181 0
      vertex -19.1388 5.80569 0
      vertex -19.1388 -5.80569 0
    endloop
  endfacet
  facet normal 0 0 -1
    outer loop
      vertex -19.6157 -3.90181 0
      vertex -19.6157 3.90181 0
      vertex -19.1388 5.80569 0
    endloop
  endfacet
  facet normal 0 0 -1
    outer loop
      vertex -19.9037 -1.96034 0
      vertex -19.6157 3.90181 0
      vertex -19.6157 -3.90181 0
    endloop
  endfacet
  facet normal 0 0 -1
    outer loop
      vertex -19.9037 -1.96034 0
      vertex -19.9037 1.96034 0
      vertex -19.6157 3.90181 0
    endloop
  endfacet
  facet normal 0 -0 -1
    outer loop
      vertex -19.9037 1.96034 0
      vertex -19.9037 -1.96034 0
      vertex -20 0 0
    endloop
  endfacet
  facet normal 0.671584 -0.740928 0
    outer loop
      vertex 12.6879 -15.4602 0
      vertex 14.1421 -14.1421 10
      vertex 12.6879 -15.4602 10
    endloop
  endfacet
  facet normal 0.671584 -0.740928 0
    outer loop
      vertex 14.1421 -14.1421 10
      vertex 12.6879 -15.4602 0
      vertex 14.1421 -14.1421 0
    endloop
  endfacet
  facet normal 0.336882 -0.941547 0
    outer loop
      vertex 5.80569 -19.1388 0
      vertex 7.65367 -18.4776 10
      vertex 5.80569 -19.1388 10
    endloop
  endfacet
  facet normal 0.336882 -0.941547 0
    outer loop
      vertex 7.65367 -18.4776 10
      vertex 5.80569 -19.1388 0
      vertex 7.65367 -18.4776 0
    endloop
  endfacet
  facet normal 0.903982 -0.427571 0
    outer loop
      vertex 17.6384 -9.42793 10
      vertex 18.4776 -7.65367 0
      vertex 18.4776 -7.65367 10
    endloop
  endfacet
  facet normal 0.903982 -0.427571 0
    outer loop
      vertex 18.4776 -7.65367 0
      vertex 17.6384 -9.42793 10
      vertex 17.6384 -9.42793 0
    endloop
  endfacet
  facet normal 0.857736 -0.51409 0
    outer loop
      vertex 16.6294 -11.1114 10
      vertex 17.6384 -9.42793 0
      vertex 17.6384 -9.42793 10
    endloop
  endfacet
  facet normal 0.857736 -0.51409 0
    outer loop
      vertex 17.6384 -9.42793 0
      vertex 16.6294 -11.1114 10
      vertex 16.6294 -11.1114 0
    endloop
  endfacet
  facet normal -0.427571 0.903982 0
    outer loop
      vertex -7.65367 18.4776 0
      vertex -9.42793 17.6384 10
      vertex -7.65367 18.4776 10
    endloop
  endfacet
  facet normal -0.427571 0.903982 0
    outer loop
      vertex -9.42793 17.6384 10
      vertex -7.65367 18.4776 0
      vertex -9.42793 17.6384 0
    endloop
  endfacet
  facet normal -0.970031 0.242982 0
    outer loop
      vertex -19.6157 3.90181 0
      vertex -19.1388 5.80569 10
      vertex -19.1388 5.80569 0
    endloop
  endfacet
  facet normal -0.970031 0.242982 0
    outer loop
      vertex -19.1388 5.80569 10
      vertex -19.6157 3.90181 0
      vertex -19.6157 3.90181 10
    endloop
  endfacet
  facet normal -0.857736 0.51409 0
    outer loop
      vertex -17.6384 9.42793 0
      vertex -16.6294 11.1114 10
      vertex -16.6294 11.1114 0
    endloop
  endfacet
  facet normal -0.857736 0.51409 0
    outer loop
      vertex -16.6294 11.1114 10
      vertex -17.6384 9.42793 0
      vertex -17.6384 9.42793 10
    endloop
  endfacet
endsolid OpenSCAD_Model
