solid OpenSCAD_Model
  facet normal 0.956941 0.290281 0
    outer loop
      vertex 0.980784 0.19509 0.2
      vertex 0.923879 0.382683 0.0999994
      vertex 0.923879 0.382683 0.2
    endloop
  endfacet
  facet normal 0.956941 0.290281 0
    outer loop
      vertex 0.923879 0.382683 0.0999994
      vertex 0.980784 0.19509 0.2
      vertex 0.980784 0.19509 0.0999994
    endloop
  endfacet
  facet normal 0.995184 0.0980238 0
    outer loop
      vertex 1 0 0.2
      vertex 0.980784 0.19509 0.0999994
      vertex 0.980784 0.19509 0.2
    endloop
  endfacet
  facet normal 0.995184 0.0980238 0
    outer loop
      vertex 0.980784 0.19509 0.0999994
      vertex 1 0 0.2
      vertex 1 0 0.0999994
    endloop
  endfacet
  facet normal 0.881923 0.471393 0
    outer loop
      vertex 0.923879 0.382683 0.2
      vertex 0.83147 0.55557 0.0999994
      vertex 0.83147 0.55557 0.2
    endloop
  endfacet
  facet normal 0.881923 0.471393 0
    outer loop
      vertex 0.83147 0.55557 0.0999994
      vertex 0.923879 0.382683 0.2
      vertex 0.923879 0.382683 0.0999994
    endloop
  endfacet
  facet normal -0.634393 0.773011 0
    outer loop
      vertex -0.55557 0.83147 0.0999994
      vertex -0.707107 0.707107 0.2
      vertex -0.55557 0.83147 0.2
    endloop
  endfacet
  facet normal -0.634393 0.773011 0
    outer loop
      vertex -0.707107 0.707107 0.2
      vertex -0.55557 0.83147 0.0999994
      vertex -0.707107 0.707107 0.0999994
    endloop
  endfacet
  facet normal 0 0 1
    outer loop
      vertex 0.980784 0.19509 0.2
      vertex 0.980784 -0.19509 0.2
      vertex 1 0 0.2
    endloop
  endfacet
  facet normal 0 0 1
    outer loop
      vertex 0.923879 0.382683 0.2
      vertex 0.980784 -0.19509 0.2
      vertex 0.980784 0.19509 0.2
    endloop
  endfacet
  facet normal 0 0 1
    outer loop
      vertex 0.923879 0.382683 0.2
      vertex 0.923879 -0.382683 0.2
      vertex 0.980784 -0.19509 0.2
    endloop
  endfacet
  facet normal 0 0 1
    outer loop
      vertex 0.83147 0.55557 0.2
      vertex 0.923879 -0.382683 0.2
      vertex 0.923879 0.382683 0.2
    endloop
  endfacet
  facet normal 0 0 1
    outer loop
      vertex 0.83147 0.55557 0.2
      vertex 0.83147 -0.55557 0.2
      vertex 0.923879 -0.382683 0.2
    endloop
  endfacet
  facet normal 0 0 1
    outer loop
      vertex 0.707107 0.707107 0.2
      vertex 0.83147 -0.55557 0.2
      vertex 0.83147 0.55557 0.2
    endloop
  endfacet
  facet normal 0 0 1
    outer loop
      vertex 0.707107 0.707107 0.2
      vertex 0.707107 -0.707107 0.2
      vertex 0.83147 -0.55557 0.2
    endloop
  endfacet
  facet normal 0 0 1
    outer loop
      vertex 0.55557 0.83147 0.2
      vertex 0.707107 -0.707107 0.2
      vertex 0.707107 0.707107 0.2
    endloop
  endfacet
  facet normal 0 0 1
    outer loop
      vertex 0.55557 0.83147 0.2
      vertex 0.55557 -0.83147 0.2
      vertex 0.707107 -0.707107 0.2
    endloop
  endfacet
  facet normal 0 0 1
    outer loop
      vertex 0.382683 0.923879 0.2
      vertex 0.55557 -0.83147 0.2
      vertex 0.55557 0.83147 0.2
    endloop
  endfacet
  facet normal 0 0 1
    outer loop
      vertex 0.382683 0.923879 0.2
      vertex 0.382683 -0.923879 0.2
      vertex 0.55557 -0.83147 0.2
    endloop
  endfacet
  facet normal 0 0 1
    outer loop
      vertex 0.19509 0.980784 0.2
      vertex 0.382683 -0.923879 0.2
      vertex 0.382683 0.923879 0.2
    endloop
  endfacet
  facet normal 0 0 1
    outer loop
      vertex 0.19509 0.980784 0.2
      vertex 0.19509 -0.980784 0.2
      vertex 0.382683 -0.923879 0.2
    endloop
  endfacet
  facet normal 0 0 1
    outer loop
      vertex 0 1 0.2
      vertex 0.19509 -0.980784 0.2
      vertex 0.19509 0.980784 0.2
    endloop
  endfacet
  facet normal 0 0 1
    outer loop
      vertex 0 1 0.2
      vertex 0 -1 0.2
      vertex 0.19509 -0.980784 0.2
    endloop
  endfacet
  facet normal -0 0 1
    outer loop
      vertex -0.19509 0.980784 0.2
      vertex 0 -1 0.2
      vertex 0 1 0.2
    endloop
  endfacet
  facet normal 0 0 1
    outer loop
      vertex -0.19509 0.980784 0.2
      vertex -0.19509 -0.980784 0.2
      vertex 0 -1 0.2
    endloop
  endfacet
  facet normal -0 0 1
    outer loop
      vertex -0.382683 0.923879 0.2
      vertex -0.19509 -0.980784 0.2
      vertex -0.19509 0.980784 0.2
    endloop
  endfacet
  facet normal 0 0 1
    outer loop
      vertex -0.382683 0.923879 0.2
      vertex -0.382683 -0.923879 0.2
      vertex -0.19509 -0.980784 0.2
    endloop
  endfacet
  facet normal -0 0 1
    outer loop
      vertex -0.55557 0.83147 0.2
      vertex -0.382683 -0.923879 0.2
      vertex -0.382683 0.923879 0.2
    endloop
  endfacet
  facet normal 0 0 1
    outer loop
      vertex -0.55557 0.83147 0.2
      vertex -0.55557 -0.83147 0.2
      vertex -0.382683 -0.923879 0.2
    endloop
  endfacet
  facet normal -0 0 1
    outer loop
      vertex -0.707107 0.707107 0.2
      vertex -0.55557 -0.83147 0.2
      vertex -0.55557 0.83147 0.2
    endloop
  endfacet
  facet normal 0 0 1
    outer loop
      vertex -0.707107 0.707107 0.2
      vertex -0.707107 -0.707107 0.2
      vertex -0.55557 -0.83147 0.2
    endloop
  endfacet
  facet normal -0 0 1
    outer loop
      vertex -0.83147 0.55557 0.2
      vertex -0.707107 -0.707107 0.2
      vertex -0.707107 0.707107 0.2
    endloop
  endfacet
  facet normal 0 0 1
    outer loop
      vertex -0.83147 0.55557 0.2
      vertex -0.83147 -0.55557 0.2
      vertex -0.707107 -0.707107 0.2
    endloop
  endfacet
  facet normal -0 0 1
    outer loop
      vertex -0.923879 0.382683 0.2
      vertex -0.83147 -0.55557 0.2
      vertex -0.83147 0.55557 0.2
    endloop
  endfacet
  facet normal 0 0 1
    outer loop
      vertex -0.923879 0.382683 0.2
      vertex -0.923879 -0.382683 0.2
      vertex -0.83147 -0.55557 0.2
    endloop
  endfacet
  facet normal -0 0 1
    outer loop
      vertex -0.980784 0.19509 0.2
      vertex -0.923879 -0.382683 0.2
      vertex -0.923879 0.382683 0.2
    endloop
  endfacet
  facet normal 0 0 1
    outer loop
      vertex -0.980784 0.19509 0.2
      vertex -0.980784 -0.19509 0.2
      vertex -0.923879 -0.382683 0.2
    endloop
  endfacet
  facet normal 0 -0 1
    outer loop
      vertex -0.980784 -0.19509 0.2
      vertex -0.980784 0.19509 0.2
      vertex -1 0 0.2
    endloop
  endfacet
  facet normal 0.290281 0.956941 -0
    outer loop
      vertex 0.382683 0.923879 0.0999994
      vertex 0.19509 0.980784 0.2
      vertex 0.382683 0.923879 0.2
    endloop
  endfacet
  facet normal 0.290281 0.956941 0
    outer loop
      vertex 0.19509 0.980784 0.2
      vertex 0.382683 0.923879 0.0999994
      vertex 0.19509 0.980784 0.0999994
    endloop
  endfacet
  facet normal 0.773011 0.634393 0
    outer loop
      vertex 0.83147 0.55557 0.2
      vertex 0.707107 0.707107 0.0999994
      vertex 0.707107 0.707107 0.2
    endloop
  endfacet
  facet normal 0.773011 0.634393 0
    outer loop
      vertex 0.707107 0.707107 0.0999994
      vertex 0.83147 0.55557 0.2
      vertex 0.83147 0.55557 0.0999994
    endloop
  endfacet
  facet normal -0.773011 0.634393 0
    outer loop
      vertex -0.83147 0.55557 0.0999994
      vertex -0.707107 0.707107 0.2
      vertex -0.707107 0.707107 0.0999994
    endloop
  endfacet
  facet normal -0.773011 0.634393 0
    outer loop
      vertex -0.707107 0.707107 0.2
      vertex -0.83147 0.55557 0.0999994
      vertex -0.83147 0.55557 0.2
    endloop
  endfacet
  facet normal 0 0 -1
    outer loop
      vertex -10 14.9 0
      vertex 10 15 0
      vertex 10 14.9 0
    endloop
  endfacet
  facet normal -0 0 -1
    outer loop
      vertex 10 15 0
      vertex -10 14.9 0
      vertex -10 15 0
    endloop
  endfacet
  facet normal -0.881923 -0.471393 0
    outer loop
      vertex -0.83147 -0.55557 0.0999994
      vertex -0.923879 -0.382683 0.2
      vertex -0.923879 -0.382683 0.0999994
    endloop
  endfacet
  facet normal -0.881923 -0.471393 0
    outer loop
      vertex -0.923879 -0.382683 0.2
      vertex -0.83147 -0.55557 0.0999994
      vertex -0.83147 -0.55557 0.2
    endloop
  endfacet
  facet normal 0.881923 -0.471393 0
    outer loop
      vertex 0.83147 -0.55557 0.2
      vertex 0.923879 -0.382683 0.0999994
      vertex 0.923879 -0.382683 0.2
    endloop
  endfacet
  facet normal 0.881923 -0.471393 0
    outer loop
      vertex 0.923879 -0.382683 0.0999994
      vertex 0.83147 -0.55557 0.2
      vertex 0.83147 -0.55557 0.0999994
    endloop
  endfacet
  facet normal -0.290281 0.956941 0
    outer loop
      vertex -0.19509 0.980784 0.0999994
      vertex -0.382683 0.923879 0.2
      vertex -0.19509 0.980784 0.2
    endloop
  endfacet
  facet normal -0.290281 0.956941 0
    outer loop
      vertex -0.382683 0.923879 0.2
      vertex -0.19509 0.980784 0.0999994
      vertex -0.382683 0.923879 0.0999994
    endloop
  endfacet
  facet normal 0.290281 -0.956941 0
    outer loop
      vertex 0.19509 -0.980784 0.0999994
      vertex 0.382683 -0.923879 0.2
      vertex 0.19509 -0.980784 0.2
    endloop
  endfacet
  facet normal 0.290281 -0.956941 0
    outer loop
      vertex 0.382683 -0.923879 0.2
      vertex 0.19509 -0.980784 0.0999994
      vertex 0.382683 -0.923879 0.0999994
    endloop
  endfacet
  facet normal 0.0980238 0.995184 -0
    outer loop
      vertex 0.19509 0.980784 0.0999994
      vertex 0 1 0.2
      vertex 0.19509 0.980784 0.2
    endloop
  endfacet
  facet normal 0.0980238 0.995184 0
    outer loop
      vertex 0 1 0.2
      vertex 0.19509 0.980784 0.0999994
      vertex 0 1 0.0999994
    endloop
  endfacet
  facet normal 0.634393 0.773011 -0
    outer loop
      vertex 0.707107 0.707107 0.0999994
      vertex 0.55557 0.83147 0.2
      vertex 0.707107 0.707107 0.2
    endloop
  endfacet
  facet normal 0.634393 0.773011 0
    outer loop
      vertex 0.55557 0.83147 0.2
      vertex 0.707107 0.707107 0.0999994
      vertex 0.55557 0.83147 0.0999994
    endloop
  endfacet
  facet normal -0.0980238 0.995184 0
    outer loop
      vertex 0 1 0.0999994
      vertex -0.19509 0.980784 0.2
      vertex 0 1 0.2
    endloop
  endfacet
  facet normal -0.0980238 0.995184 0
    outer loop
      vertex -0.19509 0.980784 0.2
      vertex 0 1 0.0999994
      vertex -0.19509 0.980784 0.0999994
    endloop
  endfacet
  facet normal 0.634393 -0.773011 0
    outer loop
      vertex 0.55557 -0.83147 0.0999994
      vertex 0.707107 -0.707107 0.2
      vertex 0.55557 -0.83147 0.2
    endloop
  endfacet
  facet normal 0.634393 -0.773011 0
    outer loop
      vertex 0.707107 -0.707107 0.2
      vertex 0.55557 -0.83147 0.0999994
      vertex 0.707107 -0.707107 0.0999994
    endloop
  endfacet
  facet normal 0.471393 -0.881923 0
    outer loop
      vertex 0.382683 -0.923879 0.0999994
      vertex 0.55557 -0.83147 0.2
      vertex 0.382683 -0.923879 0.2
    endloop
  endfacet
  facet normal 0.471393 -0.881923 0
    outer loop
      vertex 0.55557 -0.83147 0.2
      vertex 0.382683 -0.923879 0.0999994
      vertex 0.55557 -0.83147 0.0999994
    endloop
  endfacet
  facet normal -0.634393 -0.773011 0
    outer loop
      vertex -0.707107 -0.707107 0.0999994
      vertex -0.55557 -0.83147 0.2
      vertex -0.707107 -0.707107 0.2
    endloop
  endfacet
  facet normal -0.634393 -0.773011 -0
    outer loop
      vertex -0.55557 -0.83147 0.2
      vertex -0.707107 -0.707107 0.0999994
      vertex -0.55557 -0.83147 0.0999994
    endloop
  endfacet
  facet normal 0.773011 -0.634393 0
    outer loop
      vertex 0.707107 -0.707107 0.2
      vertex 0.83147 -0.55557 0.0999994
      vertex 0.83147 -0.55557 0.2
    endloop
  endfacet
  facet normal 0.773011 -0.634393 0
    outer loop
      vertex 0.83147 -0.55557 0.0999994
      vertex 0.707107 -0.707107 0.2
      vertex 0.707107 -0.707107 0.0999994
    endloop
  endfacet
  facet normal 0.995184 -0.0980238 0
    outer loop
      vertex 0.980784 -0.19509 0.2
      vertex 1 0 0.0999994
      vertex 1 0 0.2
    endloop
  endfacet
  facet normal 0.995184 -0.0980238 0
    outer loop
      vertex 1 0 0.0999994
      vertex 0.980784 -0.19509 0.2
      vertex 0.980784 -0.19509 0.0999994
    endloop
  endfacet
  facet normal 0.956941 -0.290281 0
    outer loop
      vertex 0.923879 -0.382683 0.2
      vertex 0.980784 -0.19509 0.0999994
      vertex 0.980784 -0.19509 0.2
    endloop
  endfacet
  facet normal 0.956941 -0.290281 0
    outer loop
      vertex 0.980784 -0.19509 0.0999994
      vertex 0.923879 -0.382683 0.2
      vertex 0.923879 -0.382683 0.0999994
    endloop
  endfacet
  facet normal -0.471393 0.881923 0
    outer loop
      vertex -0.382683 0.923879 0.0999994
      vertex -0.55557 0.83147 0.2
      vertex -0.382683 0.923879 0.2
    endloop
  endfacet
  facet normal -0.471393 0.881923 0
    outer loop
      vertex -0.55557 0.83147 0.2
      vertex -0.382683 0.923879 0.0999994
      vertex -0.55557 0.83147 0.0999994
    endloop
  endfacet
  facet normal 0.471393 0.881923 -0
    outer loop
      vertex 0.55557 0.83147 0.0999994
      vertex 0.382683 0.923879 0.2
      vertex 0.55557 0.83147 0.2
    endloop
  endfacet
  facet normal 0.471393 0.881923 0
    outer loop
      vertex 0.382683 0.923879 0.2
      vertex 0.55557 0.83147 0.0999994
      vertex 0.382683 0.923879 0.0999994
    endloop
  endfacet
  facet normal -0.956941 0.290281 0
    outer loop
      vertex -0.980784 0.19509 0.0999994
      vertex -0.923879 0.382683 0.2
      vertex -0.923879 0.382683 0.0999994
    endloop
  endfacet
  facet normal -0.956941 0.290281 0
    outer loop
      vertex -0.923879 0.382683 0.2
      vertex -0.980784 0.19509 0.0999994
      vertex -0.980784 0.19509 0.2
    endloop
  endfacet
  facet normal 0.0980238 -0.995184 0
    outer loop
      vertex 0 -1 0.0999994
      vertex 0.19509 -0.980784 0.2
      vertex 0 -1 0.2
    endloop
  endfacet
  facet normal 0.0980238 -0.995184 0
    outer loop
      vertex 0.19509 -0.980784 0.2
      vertex 0 -1 0.0999994
      vertex 0.19509 -0.980784 0.0999994
    endloop
  endfacet
  facet normal -0.881923 0.471393 0
    outer loop
      vertex -0.923879 0.382683 0.0999994
      vertex -0.83147 0.55557 0.2
      vertex -0.83147 0.55557 0.0999994
    endloop
  endfacet
  facet normal -0.881923 0.471393 0
    outer loop
      vertex -0.83147 0.55557 0.2
      vertex -0.923879 0.382683 0.0999994
      vertex -0.923879 0.382683 0.2
    endloop
  endfacet
  facet normal -0.956941 -0.290281 0
    outer loop
      vertex -0.923879 -0.382683 0.0999994
      vertex -0.980784 -0.19509 0.2
      vertex -0.980784 -0.19509 0.0999994
    endloop
  endfacet
  facet normal -0.956941 -0.290281 0
    outer loop
      vertex -0.980784 -0.19509 0.2
      vertex -0.923879 -0.382683 0.0999994
      vertex -0.923879 -0.382683 0.2
    endloop
  endfacet
  facet normal -0.995184 -0.0980238 0
    outer loop
      vertex -0.980784 -0.19509 0.0999994
      vertex -1 0 0.2
      vertex -1 0 0.0999994
    endloop
  endfacet
  facet normal -0.995184 -0.0980238 0
    outer loop
      vertex -1 0 0.2
      vertex -0.980784 -0.19509 0.0999994
      vertex -0.980784 -0.19509 0.2
    endloop
  endfacet
  facet normal -0.773011 -0.634393 0
    outer loop
      vertex -0.707107 -0.707107 0.0999994
      vertex -0.83147 -0.55557 0.2
      vertex -0.83147 -0.55557 0.0999994
    endloop
  endfacet
  facet normal -0.773011 -0.634393 0
    outer loop
      vertex -0.83147 -0.55557 0.2
      vertex -0.707107 -0.707107 0.0999994
      vertex -0.707107 -0.707107 0.2
    endloop
  endfacet
  facet normal -0.471393 -0.881923 0
    outer loop
      vertex -0.55557 -0.83147 0.0999994
      vertex -0.382683 -0.923879 0.2
      vertex -0.55557 -0.83147 0.2
    endloop
  endfacet
  facet normal -0.471393 -0.881923 -0
    outer loop
      vertex -0.382683 -0.923879 0.2
      vertex -0.55557 -0.83147 0.0999994
      vertex -0.382683 -0.923879 0.0999994
    endloop
  endfacet
  facet normal -0.995184 0.0980238 0
    outer loop
      vertex -1 0 0.0999994
      vertex -0.980784 0.19509 0.2
      vertex -0.980784 0.19509 0.0999994
    endloop
  endfacet
  facet normal -0.995184 0.0980238 0
    outer loop
      vertex -0.980784 0.19509 0.2
      vertex -1 0 0.0999994
      vertex -1 0 0.2
    endloop
  endfacet
  facet normal -0.0980238 -0.995184 0
    outer loop
      vertex -0.19509 -0.980784 0.0999994
      vertex 0 -1 0.2
      vertex -0.19509 -0.980784 0.2
    endloop
  endfacet
  facet normal -0.0980238 -0.995184 -0
    outer loop
      vertex 0 -1 0.2
      vertex -0.19509 -0.980784 0.0999994
      vertex 0 -1 0.0999994
    endloop
  endfacet
  facet normal -0.290281 -0.956941 0
    outer loop
      vertex -0.382683 -0.923879 0.0999994
      vertex -0.19509 -0.980784 0.2
      vertex -0.382683 -0.923879 0.2
    endloop
  endfacet
  facet normal -0.290281 -0.956941 -0
    outer loop
      vertex -0.19509 -0.980784 0.2
      vertex -0.382683 -0.923879 0.0999994
      vertex -0.19509 -0.980784 0.0999994
    endloop
  endfacet
  facet normal 1 -0 0
    outer loop
      vertex 10 14.9 0.0999994
      vertex 10 15 0
      vertex 10 15 0.0999994
    endloop
  endfacet
  facet normal 1 0 0
    outer loop
      vertex 10 15 0
      vertex 10 14.9 0.0999994
      vertex 10 14.9 0
    endloop
  endfacet
  facet normal -0 0 1
    outer loop
      vertex -10 15 0.0999994
      vertex 10 14.9 0.0999994
      vertex 10 15 0.0999994
    endloop
  endfacet
  facet normal 0 0 1
    outer loop
      vertex 10 14.9 0.0999994
      vertex -10 15 0.0999994
      vertex -10 14.9 0.0999994
    endloop
  endfacet
  facet normal 0 0 -1
    outer loop
      vertex -10 -15.1 0.0999994
      vertex -9.51227 -15.048 0.0999994
      vertex -9.34097 -15.1 0.0999994
    endloop
  endfacet
  facet normal -0 0 -1
    outer loop
      vertex -9.51227 -15.048 0.0999994
      vertex -10 -15.1 0.0999994
      vertex -10 -15 0.0999994
    endloop
  endfacet
  facet normal 0 0 -1
    outer loop
      vertex 0.980784 -0.19509 0.0999994
      vertex 0.980784 0.19509 0.0999994
      vertex 1 0 0.0999994
    endloop
  endfacet
  facet normal 0 0 -1
    outer loop
      vertex 0.923879 -0.382683 0.0999994
      vertex 0.980784 0.19509 0.0999994
      vertex 0.980784 -0.19509 0.0999994
    endloop
  endfacet
  facet normal 0 0 -1
    outer loop
      vertex 0.923879 -0.382683 0.0999994
      vertex 0.923879 0.382683 0.0999994
      vertex 0.980784 0.19509 0.0999994
    endloop
  endfacet
  facet normal 0 0 -1
    outer loop
      vertex 0.83147 -0.55557 0.0999994
      vertex 0.923879 0.382683 0.0999994
      vertex 0.923879 -0.382683 0.0999994
    endloop
  endfacet
  facet normal 0 0 -1
    outer loop
      vertex 0.83147 -0.55557 0.0999994
      vertex 0.83147 0.55557 0.0999994
      vertex 0.923879 0.382683 0.0999994
    endloop
  endfacet
  facet normal 0 0 -1
    outer loop
      vertex 0.707107 -0.707107 0.0999994
      vertex 0.83147 0.55557 0.0999994
      vertex 0.83147 -0.55557 0.0999994
    endloop
  endfacet
  facet normal 0 0 -1
    outer loop
      vertex 0.707107 -0.707107 0.0999994
      vertex 0.707107 0.707107 0.0999994
      vertex 0.83147 0.55557 0.0999994
    endloop
  endfacet
  facet normal 0 0 -1
    outer loop
      vertex 0.55557 -0.83147 0.0999994
      vertex 0.707107 0.707107 0.0999994
      vertex 0.707107 -0.707107 0.0999994
    endloop
  endfacet
  facet normal 0 0 -1
    outer loop
      vertex 0.55557 -0.83147 0.0999994
      vertex 0.55557 0.83147 0.0999994
      vertex 0.707107 0.707107 0.0999994
    endloop
  endfacet
  facet normal 0 0 -1
    outer loop
      vertex 0.382683 -0.923879 0.0999994
      vertex 0.55557 0.83147 0.0999994
      vertex 0.55557 -0.83147 0.0999994
    endloop
  endfacet
  facet normal 0 0 -1
    outer loop
      vertex 0.382683 -0.923879 0.0999994
      vertex 0.382683 0.923879 0.0999994
      vertex 0.55557 0.83147 0.0999994
    endloop
  endfacet
  facet normal 0 0 -1
    outer loop
      vertex 0.19509 -0.980784 0.0999994
      vertex 0.382683 0.923879 0.0999994
      vertex 0.382683 -0.923879 0.0999994
    endloop
  endfacet
  facet normal 0 0 -1
    outer loop
      vertex 0.19509 -0.980784 0.0999994
      vertex 0.19509 0.980784 0.0999994
      vertex 0.382683 0.923879 0.0999994
    endloop
  endfacet
  facet normal 0 0 -1
    outer loop
      vertex 0 -1 0.0999994
      vertex 0.19509 0.980784 0.0999994
      vertex 0.19509 -0.980784 0.0999994
    endloop
  endfacet
  facet normal 0 0 -1
    outer loop
      vertex 0 -1 0.0999994
      vertex 0 1 0.0999994
      vertex 0.19509 0.980784 0.0999994
    endloop
  endfacet
  facet normal 0 0 -1
    outer loop
      vertex -0.19509 -0.980784 0.0999994
      vertex 0 1 0.0999994
      vertex 0 -1 0.0999994
    endloop
  endfacet
  facet normal 0 0 -1
    outer loop
      vertex -0.19509 -0.980784 0.0999994
      vertex -0.19509 0.980784 0.0999994
      vertex 0 1 0.0999994
    endloop
  endfacet
  facet normal 0 0 -1
    outer loop
      vertex -0.382683 -0.923879 0.0999994
      vertex -0.19509 0.980784 0.0999994
      vertex -0.19509 -0.980784 0.0999994
    endloop
  endfacet
  facet normal 0 0 -1
    outer loop
      vertex -0.382683 -0.923879 0.0999994
      vertex -0.382683 0.923879 0.0999994
      vertex -0.19509 0.980784 0.0999994
    endloop
  endfacet
  facet normal 0 0 -1
    outer loop
      vertex -0.55557 -0.83147 0.0999994
      vertex -0.382683 0.923879 0.0999994
      vertex -0.382683 -0.923879 0.0999994
    endloop
  endfacet
  facet normal 0 0 -1
    outer loop
      vertex -0.55557 -0.83147 0.0999994
      vertex -0.55557 0.83147 0.0999994
      vertex -0.382683 0.923879 0.0999994
    endloop
  endfacet
  facet normal 0 0 -1
    outer loop
      vertex -0.707107 -0.707107 0.0999994
      vertex -0.55557 0.83147 0.0999994
      vertex -0.55557 -0.83147 0.0999994
    endloop
  endfacet
  facet normal 0 0 -1
    outer loop
      vertex -0.707107 -0.707107 0.0999994
      vertex -0.707107 0.707107 0.0999994
      vertex -0.55557 0.83147 0.0999994
    endloop
  endfacet
  facet normal 0 0 -1
    outer loop
      vertex -0.83147 -0.55557 0.0999994
      vertex -0.707107 0.707107 0.0999994
      vertex -0.707107 -0.707107 0.0999994
    endloop
  endfacet
  facet normal 0 0 -1
    outer loop
      vertex -0.83147 -0.55557 0.0999994
      vertex -0.83147 0.55557 0.0999994
      vertex -0.707107 0.707107 0.0999994
    endloop
  endfacet
  facet normal 0 0 -1
    outer loop
      vertex -0.923879 -0.382683 0.0999994
      vertex -0.83147 0.55557 0.0999994
      vertex -0.83147 -0.55557 0.0999994
    endloop
  endfacet
  facet normal 0 0 -1
    outer loop
      vertex -0.923879 -0.382683 0.0999994
      vertex -0.923879 0.382683 0.0999994
      vertex -0.83147 0.55557 0.0999994
    endloop
  endfacet
  facet normal 0 0 -1
    outer loop
      vertex -0.980784 -0.19509 0.0999994
      vertex -0.923879 0.382683 0.0999994
      vertex -0.923879 -0.382683 0.0999994
    endloop
  endfacet
  facet normal 0 0 -1
    outer loop
      vertex -0.980784 -0.19509 0.0999994
      vertex -0.980784 0.19509 0.0999994
      vertex -0.923879 0.382683 0.0999994
    endloop
  endfacet
  facet normal 0 -0 -1
    outer loop
      vertex -0.980784 0.19509 0.0999994
      vertex -0.980784 -0.19509 0.0999994
      vertex -1 0 0.0999994
    endloop
  endfacet
  facet normal 1 -0 0
    outer loop
      vertex -10 -15.1 0.0999994
      vertex -10 -15 0
      vertex -10 -15 0.0999994
    endloop
  endfacet
  facet normal 1 0 0
    outer loop
      vertex -10 -15 0
      vertex -10 -15.1 0.0999994
      vertex -10 -15.1 0
    endloop
  endfacet
  facet normal -1 0 0
    outer loop
      vertex -10 14.9 0
      vertex -10 15 0.0999994
      vertex -10 15 0
    endloop
  endfacet
  facet normal -1 -0 0
    outer loop
      vertex -10 15 0.0999994
      vertex -10 14.9 0
      vertex -10 14.9 0.0999994
    endloop
  endfacet
  facet normal 0 1 -0
    outer loop
      vertex 10 15 0
      vertex -10 15 0.0999994
      vertex 10 15 0.0999994
    endloop
  endfacet
  facet normal 0 1 0
    outer loop
      vertex -10 15 0.0999994
      vertex 10 15 0
      vertex -10 15 0
    endloop
  endfacet
  facet normal 0.956946 0.290267 0
    outer loop
      vertex -7.54804 -17.0123 30.1
      vertex -7.6903 -16.5433 0
      vertex -7.6903 -16.5433 30.1
    endloop
  endfacet
  facet normal 0.956946 0.290267 0
    outer loop
      vertex -7.6903 -16.5433 0
      vertex -7.54804 -17.0123 30.1
      vertex -7.54804 -17.0123 0
    endloop
  endfacet
  facet normal 0.995184 0.0980287 0
    outer loop
      vertex -7.5 -17.5 30.1
      vertex -7.54804 -17.0123 0
      vertex -7.54804 -17.0123 30.1
    endloop
  endfacet
  facet normal 0.995184 0.0980287 0
    outer loop
      vertex -7.54804 -17.0123 0
      vertex -7.5 -17.5 30.1
      vertex -7.5 -17.5 0
    endloop
  endfacet
  facet normal 0.881909 0.471419 0
    outer loop
      vertex -7.6903 -16.5433 30.1
      vertex -7.92133 -16.1111 0
      vertex -7.92133 -16.1111 30.1
    endloop
  endfacet
  facet normal 0.881909 0.471419 0
    outer loop
      vertex -7.92133 -16.1111 0
      vertex -7.6903 -16.5433 30.1
      vertex -7.6903 -16.5433 0
    endloop
  endfacet
  facet normal -0.634326 0.773066 0
    outer loop
      vertex -11.3889 -15.4213 0
      vertex -11.7678 -15.7322 30.1
      vertex -11.3889 -15.4213 30.1
    endloop
  endfacet
  facet normal -0.634326 0.773066 0
    outer loop
      vertex -11.7678 -15.7322 30.1
      vertex -11.3889 -15.4213 0
      vertex -11.7678 -15.7322 0
    endloop
  endfacet
  facet normal 0.995184 -0.0980287 0
    outer loop
      vertex -7.54804 -17.9877 30.1
      vertex -7.5 -17.5 0
      vertex -7.5 -17.5 30.1
    endloop
  endfacet
  facet normal 0.995184 -0.0980287 0
    outer loop
      vertex -7.5 -17.5 0
      vertex -7.54804 -17.9877 30.1
      vertex -7.54804 -17.9877 0
    endloop
  endfacet
  facet normal 0.290353 0.95692 -7.46116e-07
    outer loop
      vertex -9.04329 -15.1903 30.1
      vertex -9.34097 -15.1 0.0999994
      vertex -9.51227 -15.048 30.1
    endloop
  endfacet
  facet normal 0.290284 0.956941 -0
    outer loop
      vertex -9.04329 -15.1903 0
      vertex -9.34097 -15.1 0.0999994
      vertex -9.04329 -15.1903 30.1
    endloop
  endfacet
  facet normal 0.290284 0.956941 0
    outer loop
      vertex -9.34097 -15.1 0.0999994
      vertex -9.04329 -15.1903 0
      vertex -9.34097 -15.1 0
    endloop
  endfacet
  facet normal 0.290472 0.956883 0
    outer loop
      vertex -9.51227 -15.048 30.1
      vertex -9.34097 -15.1 0.0999994
      vertex -9.51227 -15.048 0.0999994
    endloop
  endfacet
  facet normal 0 0 1
    outer loop
      vertex -7.54804 -17.0123 30.1
      vertex -7.54804 -17.9877 30.1
      vertex -7.5 -17.5 30.1
    endloop
  endfacet
  facet normal 0 0 1
    outer loop
      vertex -7.6903 -16.5433 30.1
      vertex -7.54804 -17.9877 30.1
      vertex -7.54804 -17.0123 30.1
    endloop
  endfacet
  facet normal 0 0 1
    outer loop
      vertex -7.6903 -16.5433 30.1
      vertex -7.6903 -18.4567 30.1
      vertex -7.54804 -17.9877 30.1
    endloop
  endfacet
  facet normal 0 0 1
    outer loop
      vertex -7.92133 -16.1111 30.1
      vertex -7.6903 -18.4567 30.1
      vertex -7.6903 -16.5433 30.1
    endloop
  endfacet
  facet normal 0 0 1
    outer loop
      vertex -7.92133 -16.1111 30.1
      vertex -7.92133 -18.8889 30.1
      vertex -7.6903 -18.4567 30.1
    endloop
  endfacet
  facet normal 0 0 1
    outer loop
      vertex -8.23223 -15.7322 30.1
      vertex -7.92133 -18.8889 30.1
      vertex -7.92133 -16.1111 30.1
    endloop
  endfacet
  facet normal 0 0 1
    outer loop
      vertex -8.23223 -15.7322 30.1
      vertex -8.23223 -19.2678 30.1
      vertex -7.92133 -18.8889 30.1
    endloop
  endfacet
  facet normal 0 0 1
    outer loop
      vertex -8.61107 -15.4213 30.1
      vertex -8.23223 -19.2678 30.1
      vertex -8.23223 -15.7322 30.1
    endloop
  endfacet
  facet normal 0 0 1
    outer loop
      vertex -8.61107 -15.4213 30.1
      vertex -8.61107 -19.5787 30.1
      vertex -8.23223 -19.2678 30.1
    endloop
  endfacet
  facet normal 0 0 1
    outer loop
      vertex -9.04329 -15.1903 30.1
      vertex -8.61107 -19.5787 30.1
      vertex -8.61107 -15.4213 30.1
    endloop
  endfacet
  facet normal 0 0 1
    outer loop
      vertex -9.04329 -15.1903 30.1
      vertex -9.04329 -19.8097 30.1
      vertex -8.61107 -19.5787 30.1
    endloop
  endfacet
  facet normal 0 0 1
    outer loop
      vertex -9.51227 -15.048 30.1
      vertex -9.04329 -19.8097 30.1
      vertex -9.04329 -15.1903 30.1
    endloop
  endfacet
  facet normal 0 0 1
    outer loop
      vertex -9.51227 -15.048 30.1
      vertex -9.51227 -19.952 30.1
      vertex -9.04329 -19.8097 30.1
    endloop
  endfacet
  facet normal 0 0 1
    outer loop
      vertex -10 -15 30.1
      vertex -9.51227 -19.952 30.1
      vertex -9.51227 -15.048 30.1
    endloop
  endfacet
  facet normal 0 0 1
    outer loop
      vertex -10 -15 30.1
      vertex -10 -20 30.1
      vertex -9.51227 -19.952 30.1
    endloop
  endfacet
  facet normal -0 0 1
    outer loop
      vertex -10.4877 -15.048 30.1
      vertex -10 -20 30.1
      vertex -10 -15 30.1
    endloop
  endfacet
  facet normal 0 0 1
    outer loop
      vertex -10.4877 -15.048 30.1
      vertex -10.4877 -19.952 30.1
      vertex -10 -20 30.1
    endloop
  endfacet
  facet normal -0 0 1
    outer loop
      vertex -10.9567 -15.1903 30.1
      vertex -10.4877 -19.952 30.1
      vertex -10.4877 -15.048 30.1
    endloop
  endfacet
  facet normal 0 0 1
    outer loop
      vertex -10.9567 -15.1903 30.1
      vertex -10.9567 -19.8097 30.1
      vertex -10.4877 -19.952 30.1
    endloop
  endfacet
  facet normal -0 0 1
    outer loop
      vertex -11.3889 -15.4213 30.1
      vertex -10.9567 -19.8097 30.1
      vertex -10.9567 -15.1903 30.1
    endloop
  endfacet
  facet normal 0 0 1
    outer loop
      vertex -11.3889 -15.4213 30.1
      vertex -11.3889 -19.5787 30.1
      vertex -10.9567 -19.8097 30.1
    endloop
  endfacet
  facet normal -0 0 1
    outer loop
      vertex -11.7678 -15.7322 30.1
      vertex -11.3889 -19.5787 30.1
      vertex -11.3889 -15.4213 30.1
    endloop
  endfacet
  facet normal 0 0 1
    outer loop
      vertex -11.7678 -15.7322 30.1
      vertex -11.7678 -19.2678 30.1
      vertex -11.3889 -19.5787 30.1
    endloop
  endfacet
  facet normal -0 0 1
    outer loop
      vertex -12.0787 -16.1111 30.1
      vertex -11.7678 -19.2678 30.1
      vertex -11.7678 -15.7322 30.1
    endloop
  endfacet
  facet normal 0 0 1
    outer loop
      vertex -12.0787 -16.1111 30.1
      vertex -12.0787 -18.8889 30.1
      vertex -11.7678 -19.2678 30.1
    endloop
  endfacet
  facet normal -0 0 1
    outer loop
      vertex -12.3097 -16.5433 30.1
      vertex -12.0787 -18.8889 30.1
      vertex -12.0787 -16.1111 30.1
    endloop
  endfacet
  facet normal 0 0 1
    outer loop
      vertex -12.3097 -16.5433 30.1
      vertex -12.3097 -18.4567 30.1
      vertex -12.0787 -18.8889 30.1
    endloop
  endfacet
  facet normal -0 0 1
    outer loop
      vertex -12.452 -17.0123 30.1
      vertex -12.3097 -18.4567 30.1
      vertex -12.3097 -16.5433 30.1
    endloop
  endfacet
  facet normal 0 0 1
    outer loop
      vertex -12.452 -17.0123 30.1
      vertex -12.452 -17.9877 30.1
      vertex -12.3097 -18.4567 30.1
    endloop
  endfacet
  facet normal 0 -0 1
    outer loop
      vertex -12.452 -17.9877 30.1
      vertex -12.452 -17.0123 30.1
      vertex -12.5 -17.5 30.1
    endloop
  endfacet
  facet normal -0.995192 0.0979479 0
    outer loop
      vertex -12.5 -17.5 0
      vertex -12.452 -17.0123 30.1
      vertex -12.452 -17.0123 0
    endloop
  endfacet
  facet normal -0.995192 0.0979479 0
    outer loop
      vertex -12.452 -17.0123 30.1
      vertex -12.5 -17.5 0
      vertex -12.5 -17.5 30.1
    endloop
  endfacet
  facet normal 0.0979419 0.995192 -0
    outer loop
      vertex -9.51227 -15.048 0.0999994
      vertex -10 -15 30.1
      vertex -9.51227 -15.048 30.1
    endloop
  endfacet
  facet normal 0.0979419 0.995192 0
    outer loop
      vertex -10 -15 30.1
      vertex -9.51227 -15.048 0.0999994
      vertex -10 -15 0.0999994
    endloop
  endfacet
  facet normal -0.773066 0.634326 0
    outer loop
      vertex -12.0787 -16.1111 0
      vertex -11.7678 -15.7322 30.1
      vertex -11.7678 -15.7322 0
    endloop
  endfacet
  facet normal -0.773066 0.634326 0
    outer loop
      vertex -11.7678 -15.7322 30.1
      vertex -12.0787 -16.1111 0
      vertex -12.0787 -16.1111 30.1
    endloop
  endfacet
  facet normal 0.773066 -0.634326 0
    outer loop
      vertex -8.23223 -19.2678 30.1
      vertex -7.92133 -18.8889 0
      vertex -7.92133 -18.8889 30.1
    endloop
  endfacet
  facet normal 0.773066 -0.634326 0
    outer loop
      vertex -7.92133 -18.8889 0
      vertex -8.23223 -19.2678 30.1
      vertex -8.23223 -19.2678 0
    endloop
  endfacet
  facet normal 0.773066 0.634326 0
    outer loop
      vertex -7.92133 -16.1111 30.1
      vertex -8.23223 -15.7322 0
      vertex -8.23223 -15.7322 30.1
    endloop
  endfacet
  facet normal 0.773066 0.634326 0
    outer loop
      vertex -8.23223 -15.7322 0
      vertex -7.92133 -16.1111 30.1
      vertex -7.92133 -16.1111 0
    endloop
  endfacet
  facet normal -0.956923 0.290341 0
    outer loop
      vertex -12.452 -17.0123 0
      vertex -12.3097 -16.5433 30.1
      vertex -12.3097 -16.5433 0
    endloop
  endfacet
  facet normal -0.956923 0.290341 0
    outer loop
      vertex -12.3097 -16.5433 30.1
      vertex -12.452 -17.0123 0
      vertex -12.452 -17.0123 30.1
    endloop
  endfacet
  facet normal 0.634386 -0.773016 0
    outer loop
      vertex -8.61107 -19.5787 0
      vertex -8.23223 -19.2678 30.1
      vertex -8.61107 -19.5787 30.1
    endloop
  endfacet
  facet normal 0.634386 -0.773016 0
    outer loop
      vertex -8.23223 -19.2678 30.1
      vertex -8.61107 -19.5787 0
      vertex -8.23223 -19.2678 0
    endloop
  endfacet
  facet normal -0.956923 -0.290341 0
    outer loop
      vertex -12.3097 -18.4567 0
      vertex -12.452 -17.9877 30.1
      vertex -12.452 -17.9877 0
    endloop
  endfacet
  facet normal -0.956923 -0.290341 0
    outer loop
      vertex -12.452 -17.9877 30.1
      vertex -12.3097 -18.4567 0
      vertex -12.3097 -18.4567 30.1
    endloop
  endfacet
  facet normal 0.956946 -0.290267 0
    outer loop
      vertex -7.6903 -18.4567 30.1
      vertex -7.54804 -17.9877 0
      vertex -7.54804 -17.9877 30.1
    endloop
  endfacet
  facet normal 0.956946 -0.290267 0
    outer loop
      vertex -7.54804 -17.9877 0
      vertex -7.6903 -18.4567 30.1
      vertex -7.6903 -18.4567 0
    endloop
  endfacet
  facet normal 0.471355 -0.881944 0
    outer loop
      vertex -9.04329 -19.8097 0
      vertex -8.61107 -19.5787 30.1
      vertex -9.04329 -19.8097 30.1
    endloop
  endfacet
  facet normal 0.471355 -0.881944 0
    outer loop
      vertex -8.61107 -19.5787 30.1
      vertex -9.04329 -19.8097 0
      vertex -8.61107 -19.5787 0
    endloop
  endfacet
  facet normal 0.881909 -0.471419 0
    outer loop
      vertex -7.92133 -18.8889 30.1
      vertex -7.6903 -18.4567 0
      vertex -7.6903 -18.4567 30.1
    endloop
  endfacet
  facet normal 0.881909 -0.471419 0
    outer loop
      vertex -7.6903 -18.4567 0
      vertex -7.92133 -18.8889 30.1
      vertex -7.92133 -18.8889 0
    endloop
  endfacet
  facet normal -0.0979479 0.995192 0
    outer loop
      vertex -10 -15 0.0999994
      vertex -10.4877 -15.048 30.1
      vertex -10 -15 30.1
    endloop
  endfacet
  facet normal -0.0979479 0.995192 0
    outer loop
      vertex -10.4877 -15.048 0
      vertex -10 -15 0.0999994
      vertex -10 -15 0
    endloop
  endfacet
  facet normal -0.0979479 0.995192 0
    outer loop
      vertex -10 -15 0.0999994
      vertex -10.4877 -15.048 0
      vertex -10.4877 -15.048 30.1
    endloop
  endfacet
  facet normal 0.290353 -0.95692 0
    outer loop
      vertex -9.51227 -19.952 0
      vertex -9.04329 -19.8097 30.1
      vertex -9.51227 -19.952 30.1
    endloop
  endfacet
  facet normal 0.290353 -0.95692 0
    outer loop
      vertex -9.04329 -19.8097 30.1
      vertex -9.51227 -19.952 0
      vertex -9.04329 -19.8097 0
    endloop
  endfacet
  facet normal -0.881935 0.471372 0
    outer loop
      vertex -12.3097 -16.5433 0
      vertex -12.0787 -16.1111 30.1
      vertex -12.0787 -16.1111 0
    endloop
  endfacet
  facet normal -0.881935 0.471372 0
    outer loop
      vertex -12.0787 -16.1111 30.1
      vertex -12.3097 -16.5433 0
      vertex -12.3097 -16.5433 30.1
    endloop
  endfacet
  facet normal -0.290341 0.956923 0
    outer loop
      vertex -10.4877 -15.048 0
      vertex -10.9567 -15.1903 30.1
      vertex -10.4877 -15.048 30.1
    endloop
  endfacet
  facet normal -0.290341 0.956923 0
    outer loop
      vertex -10.9567 -15.1903 30.1
      vertex -10.4877 -15.048 0
      vertex -10.9567 -15.1903 0
    endloop
  endfacet
  facet normal -0.471372 0.881935 0
    outer loop
      vertex -10.9567 -15.1903 0
      vertex -11.3889 -15.4213 30.1
      vertex -10.9567 -15.1903 30.1
    endloop
  endfacet
  facet normal -0.471372 0.881935 0
    outer loop
      vertex -11.3889 -15.4213 30.1
      vertex -10.9567 -15.1903 0
      vertex -11.3889 -15.4213 0
    endloop
  endfacet
  facet normal 0.0979419 -0.995192 0
    outer loop
      vertex -10 -20 0
      vertex -9.51227 -19.952 30.1
      vertex -10 -20 30.1
    endloop
  endfacet
  facet normal 0.0979419 -0.995192 0
    outer loop
      vertex -9.51227 -19.952 30.1
      vertex -10 -20 0
      vertex -9.51227 -19.952 0
    endloop
  endfacet
  facet normal 0.634386 0.773016 -0
    outer loop
      vertex -8.23223 -15.7322 0
      vertex -8.61107 -15.4213 30.1
      vertex -8.23223 -15.7322 30.1
    endloop
  endfacet
  facet normal 0.634386 0.773016 0
    outer loop
      vertex -8.61107 -15.4213 30.1
      vertex -8.23223 -15.7322 0
      vertex -8.61107 -15.4213 0
    endloop
  endfacet
  facet normal -0.995192 -0.0979479 0
    outer loop
      vertex -12.452 -17.9877 0
      vertex -12.5 -17.5 30.1
      vertex -12.5 -17.5 0
    endloop
  endfacet
  facet normal -0.995192 -0.0979479 0
    outer loop
      vertex -12.5 -17.5 30.1
      vertex -12.452 -17.9877 0
      vertex -12.452 -17.9877 30.1
    endloop
  endfacet
  facet normal 0.471355 0.881944 -0
    outer loop
      vertex -8.61107 -15.4213 0
      vertex -9.04329 -15.1903 30.1
      vertex -8.61107 -15.4213 30.1
    endloop
  endfacet
  facet normal 0.471355 0.881944 0
    outer loop
      vertex -9.04329 -15.1903 30.1
      vertex -8.61107 -15.4213 0
      vertex -9.04329 -15.1903 0
    endloop
  endfacet
  facet normal -0.881935 -0.471372 0
    outer loop
      vertex -12.0787 -18.8889 0
      vertex -12.3097 -18.4567 30.1
      vertex -12.3097 -18.4567 0
    endloop
  endfacet
  facet normal -0.881935 -0.471372 0
    outer loop
      vertex -12.3097 -18.4567 30.1
      vertex -12.0787 -18.8889 0
      vertex -12.0787 -18.8889 30.1
    endloop
  endfacet
  facet normal -0.634326 -0.773066 0
    outer loop
      vertex -11.7678 -19.2678 0
      vertex -11.3889 -19.5787 30.1
      vertex -11.7678 -19.2678 30.1
    endloop
  endfacet
  facet normal -0.634326 -0.773066 -0
    outer loop
      vertex -11.3889 -19.5787 30.1
      vertex -11.7678 -19.2678 0
      vertex -11.3889 -19.5787 0
    endloop
  endfacet
  facet normal -0.773066 -0.634326 0
    outer loop
      vertex -11.7678 -19.2678 0
      vertex -12.0787 -18.8889 30.1
      vertex -12.0787 -18.8889 0
    endloop
  endfacet
  facet normal -0.773066 -0.634326 0
    outer loop
      vertex -12.0787 -18.8889 30.1
      vertex -11.7678 -19.2678 0
      vertex -11.7678 -19.2678 30.1
    endloop
  endfacet
  facet normal -0.471372 -0.881935 0
    outer loop
      vertex -11.3889 -19.5787 0
      vertex -10.9567 -19.8097 30.1
      vertex -11.3889 -19.5787 30.1
    endloop
  endfacet
  facet normal -0.471372 -0.881935 -0
    outer loop
      vertex -10.9567 -19.8097 30.1
      vertex -11.3889 -19.5787 0
      vertex -10.9567 -19.8097 0
    endloop
  endfacet
  facet normal 0 0 -1
    outer loop
      vertex -7.54804 -17.9877 0
      vertex -7.54804 -17.0123 0
      vertex -7.5 -17.5 0
    endloop
  endfacet
  facet normal 0 0 -1
    outer loop
      vertex -10 -15.1 0
      vertex -7.54804 -17.9877 0
      vertex -7.6903 -18.4567 0
    endloop
  endfacet
  facet normal 0 0 -1
    outer loop
      vertex -7.54804 -17.9877 0
      vertex -10 -15.1 0
      vertex -7.54804 -17.0123 0
    endloop
  endfacet
  facet normal 0 0 -1
    outer loop
      vertex -10 -15.1 0
      vertex -7.6903 -18.4567 0
      vertex -7.92133 -18.8889 0
    endloop
  endfacet
  facet normal 0 0 -1
    outer loop
      vertex -7.54804 -17.0123 0
      vertex -10 -15.1 0
      vertex -7.6903 -16.5433 0
    endloop
  endfacet
  facet normal 0 0 -1
    outer loop
      vertex -10 -15.1 0
      vertex -7.92133 -18.8889 0
      vertex -8.23223 -19.2678 0
    endloop
  endfacet
  facet normal 0 0 -1
    outer loop
      vertex -7.6903 -16.5433 0
      vertex -10 -15.1 0
      vertex -7.92133 -16.1111 0
    endloop
  endfacet
  facet normal 0 0 -1
    outer loop
      vertex -10 -15.1 0
      vertex -8.23223 -19.2678 0
      vertex -8.61107 -19.5787 0
    endloop
  endfacet
  facet normal 0 0 -1
    outer loop
      vertex -7.92133 -16.1111 0
      vertex -10 -15.1 0
      vertex -8.23223 -15.7322 0
    endloop
  endfacet
  facet normal 0 0 -1
    outer loop
      vertex -10 -15.1 0
      vertex -8.61107 -19.5787 0
      vertex -9.04329 -19.8097 0
    endloop
  endfacet
  facet normal 0 0 -1
    outer loop
      vertex -8.23223 -15.7322 0
      vertex -10 -15.1 0
      vertex -8.61107 -15.4213 0
    endloop
  endfacet
  facet normal 0 0 -1
    outer loop
      vertex -8.61107 -15.4213 0
      vertex -10 -15.1 0
      vertex -9.04329 -15.1903 0
    endloop
  endfacet
  facet normal 0 0 -1
    outer loop
      vertex -10 -15.1 0
      vertex -9.04329 -19.8097 0
      vertex -9.51227 -19.952 0
    endloop
  endfacet
  facet normal 0 0 -1
    outer loop
      vertex -10 -15.1 0
      vertex -9.51227 -19.952 0
      vertex -10 -20 0
    endloop
  endfacet
  facet normal 0 0 -1
    outer loop
      vertex -9.04329 -15.1903 0
      vertex -10 -15.1 0
      vertex -9.34097 -15.1 0
    endloop
  endfacet
  facet normal 0 0 -1
    outer loop
      vertex -10.4877 -19.952 0
      vertex -10 -15.1 0
      vertex -10 -20 0
    endloop
  endfacet
  facet normal 0 0 -1
    outer loop
      vertex -10.9567 -19.8097 0
      vertex -10 -15.1 0
      vertex -10.4877 -19.952 0
    endloop
  endfacet
  facet normal 0 0 -1
    outer loop
      vertex -10 -15.1 0
      vertex -10.4877 -15.048 0
      vertex -10 -15 0
    endloop
  endfacet
  facet normal 0 0 -1
    outer loop
      vertex -11.3889 -19.5787 0
      vertex -10 -15.1 0
      vertex -10.9567 -19.8097 0
    endloop
  endfacet
  facet normal -0 0 -1
    outer loop
      vertex -10 -15.1 0
      vertex -10.9567 -15.1903 0
      vertex -10.4877 -15.048 0
    endloop
  endfacet
  facet normal 0 0 -1
    outer loop
      vertex -11.7678 -19.2678 0
      vertex -10 -15.1 0
      vertex -11.3889 -19.5787 0
    endloop
  endfacet
  facet normal 0 0 -1
    outer loop
      vertex -10 -15.1 0
      vertex -11.3889 -15.4213 0
      vertex -10.9567 -15.1903 0
    endloop
  endfacet
  facet normal 0 0 -1
    outer loop
      vertex -12.0787 -18.8889 0
      vertex -10 -15.1 0
      vertex -11.7678 -19.2678 0
    endloop
  endfacet
  facet normal 0 0 -1
    outer loop
      vertex -10 -15.1 0
      vertex -11.7678 -15.7322 0
      vertex -11.3889 -15.4213 0
    endloop
  endfacet
  facet normal 0 0 -1
    outer loop
      vertex -12.3097 -18.4567 0
      vertex -10 -15.1 0
      vertex -12.0787 -18.8889 0
    endloop
  endfacet
  facet normal 0 0 -1
    outer loop
      vertex -10 -15.1 0
      vertex -12.0787 -16.1111 0
      vertex -11.7678 -15.7322 0
    endloop
  endfacet
  facet normal 0 0 -1
    outer loop
      vertex -12.452 -17.9877 0
      vertex -10 -15.1 0
      vertex -12.3097 -18.4567 0
    endloop
  endfacet
  facet normal 0 0 -1
    outer loop
      vertex -10 -15.1 0
      vertex -12.3097 -16.5433 0
      vertex -12.0787 -16.1111 0
    endloop
  endfacet
  facet normal 0 0 -1
    outer loop
      vertex -12.452 -17.0123 0
      vertex -10 -15.1 0
      vertex -12.452 -17.9877 0
    endloop
  endfacet
  facet normal 0 0 -1
    outer loop
      vertex -10 -15.1 0
      vertex -12.452 -17.0123 0
      vertex -12.3097 -16.5433 0
    endloop
  endfacet
  facet normal 0 -0 -1
    outer loop
      vertex -12.452 -17.0123 0
      vertex -12.452 -17.9877 0
      vertex -12.5 -17.5 0
    endloop
  endfacet
  facet normal -0.0979479 -0.995192 0
    outer loop
      vertex -10.4877 -19.952 0
      vertex -10 -20 30.1
      vertex -10.4877 -19.952 30.1
    endloop
  endfacet
  facet normal -0.0979479 -0.995192 -0
    outer loop
      vertex -10 -20 30.1
      vertex -10.4877 -19.952 0
      vertex -10 -20 0
    endloop
  endfacet
  facet normal -0.290341 -0.956923 0
    outer loop
      vertex -10.9567 -19.8097 0
      vertex -10.4877 -19.952 30.1
      vertex -10.9567 -19.8097 30.1
    endloop
  endfacet
  facet normal -0.290341 -0.956923 -0
    outer loop
      vertex -10.4877 -19.952 30.1
      vertex -10.9567 -19.8097 0
      vertex -10.4877 -19.952 0
    endloop
  endfacet
  facet normal 0 -1 0
    outer loop
      vertex -10 14.9 0
      vertex 10 14.9 0.0999994
      vertex -10 14.9 0.0999994
    endloop
  endfacet
  facet normal 0 -1 -0
    outer loop
      vertex 10 14.9 0.0999994
      vertex -10 14.9 0
      vertex 10 14.9 0
    endloop
  endfacet
  facet normal 0 1 -0
    outer loop
      vertex -9.34097 -15.1 0
      vertex -10 -15.1 0.0999994
      vertex -9.34097 -15.1 0.0999994
    endloop
  endfacet
  facet normal 0 1 0
    outer loop
      vertex -10 -15.1 0.0999994
      vertex -9.34097 -15.1 0
      vertex -10 -15.1 0
    endloop
  endfacet
endsolid OpenSCAD_Model
