solid OpenSCAD_Model
  facet normal 0.0980187 0.995185 -0
    outer loop
      vertex 1.9509 9.80785 0
      vertex 0 10 70
      vertex 1.9509 9.80785 70
    endloop
  endfacet
  facet normal 0.0980187 0.995185 0
    outer loop
      vertex 0 10 70
      vertex 1.9509 9.80785 0
      vertex 0 10 0
    endloop
  endfacet
  facet normal 0.956941 0.290281 0
    outer loop
      vertex 9.80785 1.9509 70
      vertex 9.2388 3.82683 0
      vertex 9.2388 3.82683 70
    endloop
  endfacet
  facet normal 0.956941 0.290281 0
    outer loop
      vertex 9.2388 3.82683 0
      vertex 9.80785 1.9509 70
      vertex 9.80785 1.9509 0
    endloop
  endfacet
  facet normal 0.995185 0.0980187 0
    outer loop
      vertex 10 0 70
      vertex 9.80785 1.9509 0
      vertex 9.80785 1.9509 70
    endloop
  endfacet
  facet normal 0.995185 0.0980187 0
    outer loop
      vertex 9.80785 1.9509 0
      vertex 10 0 70
      vertex 10 0 0
    endloop
  endfacet
  facet normal 0.634393 -0.773011 0
    outer loop
      vertex 5.5557 -8.3147 0
      vertex 7.07107 -7.07107 70
      vertex 5.5557 -8.3147 70
    endloop
  endfacet
  facet normal 0.634393 -0.773011 0
    outer loop
      vertex 7.07107 -7.07107 70
      vertex 5.5557 -8.3147 0
      vertex 7.07107 -7.07107 0
    endloop
  endfacet
  facet normal 0.290281 -0.956941 0
    outer loop
      vertex 1.9509 -9.80785 0
      vertex 3.82683 -9.2388 70
      vertex 1.9509 -9.80785 70
    endloop
  endfacet
  facet normal 0.290281 -0.956941 0
    outer loop
      vertex 3.82683 -9.2388 70
      vertex 1.9509 -9.80785 0
      vertex 3.82683 -9.2388 0
    endloop
  endfacet
  facet normal 0.0980187 -0.995185 0
    outer loop
      vertex 0 -10 0
      vertex 1.9509 -9.80785 70
      vertex 0 -10 70
    endloop
  endfacet
  facet normal 0.0980187 -0.995185 0
    outer loop
      vertex 1.9509 -9.80785 70
      vertex 0 -10 0
      vertex 1.9509 -9.80785 0
    endloop
  endfacet
  facet normal -0.995185 0.0980187 0
    outer loop
      vertex -10 0 0
      vertex -9.80785 1.9509 70
      vertex -9.80785 1.9509 0
    endloop
  endfacet
  facet normal -0.995185 0.0980187 0
    outer loop
      vertex -9.80785 1.9509 70
      vertex -10 0 0
      vertex -10 0 70
    endloop
  endfacet
  facet normal -0.634393 -0.773011 0
    outer loop
      vertex -7.07107 -7.07107 0
      vertex -5.5557 -8.3147 70
      vertex -7.07107 -7.07107 70
    endloop
  endfacet
  facet normal -0.634393 -0.773011 -0
    outer loop
      vertex -5.5557 -8.3147 70
      vertex -7.07107 -7.07107 0
      vertex -5.5557 -8.3147 0
    endloop
  endfacet
  facet normal 0.290281 0.956941 -0
    outer loop
      vertex 3.82683 9.2388 0
      vertex 1.9509 9.80785 70
      vertex 3.82683 9.2388 70
    endloop
  endfacet
  facet normal 0.290281 0.956941 0
    outer loop
      vertex 1.9509 9.80785 70
      vertex 3.82683 9.2388 0
      vertex 1.9509 9.80785 0
    endloop
  endfacet
  facet normal -0.634393 0.773011 0
    outer loop
      vertex -5.5557 8.3147 0
      vertex -7.07107 7.07107 70
      vertex -5.5557 8.3147 70
    endloop
  endfacet
  facet normal -0.634393 0.773011 0
    outer loop
      vertex -7.07107 7.07107 70
      vertex -5.5557 8.3147 0
      vertex -7.07107 7.07107 0
    endloop
  endfacet
  facet normal 0.956941 -0.290281 0
    outer loop
      vertex 9.2388 -3.82683 70
      vertex 9.80785 -1.9509 0
      vertex 9.80785 -1.9509 70
    endloop
  endfacet
  facet normal 0.956941 -0.290281 0
    outer loop
      vertex 9.80785 -1.9509 0
      vertex 9.2388 -3.82683 70
      vertex 9.2388 -3.82683 0
    endloop
  endfacet
  facet normal -0.773011 0.634393 0
    outer loop
      vertex -8.3147 5.5557 0
      vertex -7.07107 7.07107 70
      vertex -7.07107 7.07107 0
    endloop
  endfacet
  facet normal -0.773011 0.634393 0
    outer loop
      vertex -7.07107 7.07107 70
      vertex -8.3147 5.5557 0
      vertex -8.3147 5.5557 70
    endloop
  endfacet
  facet normal -0.881921 -0.471397 0
    outer loop
      vertex -8.3147 -5.5557 0
      vertex -9.2388 -3.82683 70
      vertex -9.2388 -3.82683 0
    endloop
  endfacet
  facet normal -0.881921 -0.471397 0
    outer loop
      vertex -9.2388 -3.82683 70
      vertex -8.3147 -5.5557 0
      vertex -8.3147 -5.5557 70
    endloop
  endfacet
  facet normal 0.881921 0.471397 0
    outer loop
      vertex 9.2388 3.82683 70
      vertex 8.3147 5.5557 0
      vertex 8.3147 5.5557 70
    endloop
  endfacet
  facet normal 0.881921 0.471397 0
    outer loop
      vertex 8.3147 5.5557 0
      vertex 9.2388 3.82683 70
      vertex 9.2388 3.82683 0
    endloop
  endfacet
  facet normal 0 0 -1
    outer loop
      vertex 7 0 0
      vertex 10 0 0
      vertex 9.80785 -1.9509 0
    endloop
  endfacet
  facet normal 0 0 -1
    outer loop
      vertex 6.8655 -1.36563 0
      vertex 9.80785 -1.9509 0
      vertex 9.2388 -3.82683 0
    endloop
  endfacet
  facet normal 0 0 -1
    outer loop
      vertex 10 0 0
      vertex 7 0 0
      vertex 9.80785 1.9509 0
    endloop
  endfacet
  facet normal 0 0 -1
    outer loop
      vertex 6.46716 -2.67878 0
      vertex 9.2388 -3.82683 0
      vertex 8.3147 -5.5557 0
    endloop
  endfacet
  facet normal 0 0 -1
    outer loop
      vertex 6.8655 1.36563 0
      vertex 9.80785 1.9509 0
      vertex 7 0 0
    endloop
  endfacet
  facet normal 0 0 -1
    outer loop
      vertex 5.82029 -3.88899 0
      vertex 8.3147 -5.5557 0
      vertex 7.07107 -7.07107 0
    endloop
  endfacet
  facet normal -0 0 -1
    outer loop
      vertex 9.80785 1.9509 0
      vertex 6.8655 1.36563 0
      vertex 9.2388 3.82683 0
    endloop
  endfacet
  facet normal 0 0 -1
    outer loop
      vertex 6.46716 2.67878 0
      vertex 9.2388 3.82683 0
      vertex 6.8655 1.36563 0
    endloop
  endfacet
  facet normal 0 0 -1
    outer loop
      vertex 9.80785 -1.9509 0
      vertex 6.8655 -1.36563 0
      vertex 7 0 0
    endloop
  endfacet
  facet normal 0 0 -1
    outer loop
      vertex 9.2388 -3.82683 0
      vertex 6.46716 -2.67878 0
      vertex 6.8655 -1.36563 0
    endloop
  endfacet
  facet normal 0 0 -1
    outer loop
      vertex 8.3147 -5.5557 0
      vertex 5.82029 -3.88899 0
      vertex 6.46716 -2.67878 0
    endloop
  endfacet
  facet normal 0 0 -1
    outer loop
      vertex 4.94975 -4.94975 0
      vertex 7.07107 -7.07107 0
      vertex 5.5557 -8.3147 0
    endloop
  endfacet
  facet normal 0 0 -1
    outer loop
      vertex 7.07107 -7.07107 0
      vertex 4.94975 -4.94975 0
      vertex 5.82029 -3.88899 0
    endloop
  endfacet
  facet normal 0 0 -1
    outer loop
      vertex 5.5557 -8.3147 0
      vertex 3.88899 -5.82029 0
      vertex 4.94975 -4.94975 0
    endloop
  endfacet
  facet normal 0 0 -1
    outer loop
      vertex 3.82683 -9.2388 0
      vertex 3.88899 -5.82029 0
      vertex 5.5557 -8.3147 0
    endloop
  endfacet
  facet normal 0 0 -1
    outer loop
      vertex 3.82683 -9.2388 0
      vertex 2.67878 -6.46716 0
      vertex 3.88899 -5.82029 0
    endloop
  endfacet
  facet normal 0 0 -1
    outer loop
      vertex 1.9509 -9.80785 0
      vertex 2.67878 -6.46716 0
      vertex 3.82683 -9.2388 0
    endloop
  endfacet
  facet normal 0 0 -1
    outer loop
      vertex 1.9509 -9.80785 0
      vertex 1.36563 -6.8655 0
      vertex 2.67878 -6.46716 0
    endloop
  endfacet
  facet normal 0 0 -1
    outer loop
      vertex 0 -10 0
      vertex 1.36563 -6.8655 0
      vertex 1.9509 -9.80785 0
    endloop
  endfacet
  facet normal 0 0 -1
    outer loop
      vertex 0 -10 0
      vertex 0 -7 0
      vertex 1.36563 -6.8655 0
    endloop
  endfacet
  facet normal 0 0 -1
    outer loop
      vertex 0 -10 0
      vertex -1.36563 -6.8655 0
      vertex 0 -7 0
    endloop
  endfacet
  facet normal 0 0 -1
    outer loop
      vertex -1.9509 -9.80785 0
      vertex -1.36563 -6.8655 0
      vertex 0 -10 0
    endloop
  endfacet
  facet normal 0 0 -1
    outer loop
      vertex -1.9509 -9.80785 0
      vertex -2.67878 -6.46716 0
      vertex -1.36563 -6.8655 0
    endloop
  endfacet
  facet normal 0 0 -1
    outer loop
      vertex -3.82683 -9.2388 0
      vertex -2.67878 -6.46716 0
      vertex -1.9509 -9.80785 0
    endloop
  endfacet
  facet normal 0 0 -1
    outer loop
      vertex -3.82683 -9.2388 0
      vertex -3.88899 -5.82029 0
      vertex -2.67878 -6.46716 0
    endloop
  endfacet
  facet normal 0 0 -1
    outer loop
      vertex -5.5557 -8.3147 0
      vertex -3.88899 -5.82029 0
      vertex -3.82683 -9.2388 0
    endloop
  endfacet
  facet normal -0 0 -1
    outer loop
      vertex -3.88899 -5.82029 0
      vertex -5.5557 -8.3147 0
      vertex -4.94975 -4.94975 0
    endloop
  endfacet
  facet normal 0 0 -1
    outer loop
      vertex -7.07107 -7.07107 0
      vertex -4.94975 -4.94975 0
      vertex -5.5557 -8.3147 0
    endloop
  endfacet
  facet normal -0 0 -1
    outer loop
      vertex -4.94975 -4.94975 0
      vertex -7.07107 -7.07107 0
      vertex -5.82029 -3.88899 0
    endloop
  endfacet
  facet normal 0 0 -1
    outer loop
      vertex -8.3147 -5.5557 0
      vertex -5.82029 -3.88899 0
      vertex -7.07107 -7.07107 0
    endloop
  endfacet
  facet normal 0 0 -1
    outer loop
      vertex -9.2388 -3.82683 0
      vertex -6.46716 -2.67878 0
      vertex -8.3147 -5.5557 0
    endloop
  endfacet
  facet normal -0 0 -1
    outer loop
      vertex -5.82029 -3.88899 0
      vertex -8.3147 -5.5557 0
      vertex -6.46716 -2.67878 0
    endloop
  endfacet
  facet normal -0 0 -1
    outer loop
      vertex 9.2388 3.82683 0
      vertex 6.46716 2.67878 0
      vertex 8.3147 5.5557 0
    endloop
  endfacet
  facet normal 0 0 -1
    outer loop
      vertex 5.82029 3.88899 0
      vertex 8.3147 5.5557 0
      vertex 6.46716 2.67878 0
    endloop
  endfacet
  facet normal -0 0 -1
    outer loop
      vertex 8.3147 5.5557 0
      vertex 5.82029 3.88899 0
      vertex 7.07107 7.07107 0
    endloop
  endfacet
  facet normal 0 0 -1
    outer loop
      vertex 4.94975 4.94975 0
      vertex 7.07107 7.07107 0
      vertex 5.82029 3.88899 0
    endloop
  endfacet
  facet normal -0 0 -1
    outer loop
      vertex 7.07107 7.07107 0
      vertex 4.94975 4.94975 0
      vertex 5.5557 8.3147 0
    endloop
  endfacet
  facet normal 0 0 -1
    outer loop
      vertex 3.88899 5.82029 0
      vertex 5.5557 8.3147 0
      vertex 4.94975 4.94975 0
    endloop
  endfacet
  facet normal 0 0 -1
    outer loop
      vertex 3.88899 5.82029 0
      vertex 3.82683 9.2388 0
      vertex 5.5557 8.3147 0
    endloop
  endfacet
  facet normal 0 0 -1
    outer loop
      vertex 2.67878 6.46716 0
      vertex 3.82683 9.2388 0
      vertex 3.88899 5.82029 0
    endloop
  endfacet
  facet normal 0 0 -1
    outer loop
      vertex 2.67878 6.46716 0
      vertex 1.9509 9.80785 0
      vertex 3.82683 9.2388 0
    endloop
  endfacet
  facet normal 0 0 -1
    outer loop
      vertex 1.36563 6.8655 0
      vertex 1.9509 9.80785 0
      vertex 2.67878 6.46716 0
    endloop
  endfacet
  facet normal 0 0 -1
    outer loop
      vertex 0 7 0
      vertex 1.9509 9.80785 0
      vertex 1.36563 6.8655 0
    endloop
  endfacet
  facet normal 0 0 -1
    outer loop
      vertex 0 7 0
      vertex 0 10 0
      vertex 1.9509 9.80785 0
    endloop
  endfacet
  facet normal 0 0 -1
    outer loop
      vertex -1.36563 6.8655 0
      vertex 0 10 0
      vertex 0 7 0
    endloop
  endfacet
  facet normal 0 0 -1
    outer loop
      vertex -1.36563 6.8655 0
      vertex -1.9509 9.80785 0
      vertex 0 10 0
    endloop
  endfacet
  facet normal 0 0 -1
    outer loop
      vertex -2.67878 6.46716 0
      vertex -1.9509 9.80785 0
      vertex -1.36563 6.8655 0
    endloop
  endfacet
  facet normal 0 0 -1
    outer loop
      vertex -2.67878 6.46716 0
      vertex -3.82683 9.2388 0
      vertex -1.9509 9.80785 0
    endloop
  endfacet
  facet normal 0 0 -1
    outer loop
      vertex -3.88899 5.82029 0
      vertex -3.82683 9.2388 0
      vertex -2.67878 6.46716 0
    endloop
  endfacet
  facet normal 0 0 -1
    outer loop
      vertex -5.5557 8.3147 0
      vertex -3.88899 5.82029 0
      vertex -4.94975 4.94975 0
    endloop
  endfacet
  facet normal 0 0 -1
    outer loop
      vertex -3.88899 5.82029 0
      vertex -5.5557 8.3147 0
      vertex -3.82683 9.2388 0
    endloop
  endfacet
  facet normal 0 0 -1
    outer loop
      vertex -7.07107 7.07107 0
      vertex -4.94975 4.94975 0
      vertex -5.82029 3.88899 0
    endloop
  endfacet
  facet normal 0 0 -1
    outer loop
      vertex -8.3147 5.5557 0
      vertex -5.82029 3.88899 0
      vertex -6.46716 2.67878 0
    endloop
  endfacet
  facet normal 0 0 -1
    outer loop
      vertex -9.2388 3.82683 0
      vertex -6.46716 2.67878 0
      vertex -6.8655 1.36563 0
    endloop
  endfacet
  facet normal 0 0 -1
    outer loop
      vertex -4.94975 4.94975 0
      vertex -7.07107 7.07107 0
      vertex -5.5557 8.3147 0
    endloop
  endfacet
  facet normal 0 0 -1
    outer loop
      vertex -9.80785 1.9509 0
      vertex -6.8655 1.36563 0
      vertex -7 0 0
    endloop
  endfacet
  facet normal -0 0 -1
    outer loop
      vertex -6.46716 -2.67878 0
      vertex -9.2388 -3.82683 0
      vertex -6.8655 -1.36563 0
    endloop
  endfacet
  facet normal 0 0 -1
    outer loop
      vertex -9.80785 -1.9509 0
      vertex -6.8655 -1.36563 0
      vertex -9.2388 -3.82683 0
    endloop
  endfacet
  facet normal 0 0 -1
    outer loop
      vertex -5.82029 3.88899 0
      vertex -8.3147 5.5557 0
      vertex -7.07107 7.07107 0
    endloop
  endfacet
  facet normal -0 0 -1
    outer loop
      vertex -6.8655 -1.36563 0
      vertex -9.80785 -1.9509 0
      vertex -7 0 0
    endloop
  endfacet
  facet normal 0 0 -1
    outer loop
      vertex -6.46716 2.67878 0
      vertex -9.2388 3.82683 0
      vertex -8.3147 5.5557 0
    endloop
  endfacet
  facet normal 0 0 -1
    outer loop
      vertex -10 0 0
      vertex -7 0 0
      vertex -9.80785 -1.9509 0
    endloop
  endfacet
  facet normal 0 0 -1
    outer loop
      vertex -6.8655 1.36563 0
      vertex -9.80785 1.9509 0
      vertex -9.2388 3.82683 0
    endloop
  endfacet
  facet normal 0 0 -1
    outer loop
      vertex -7 0 0
      vertex -10 0 0
      vertex -9.80785 1.9509 0
    endloop
  endfacet
  facet normal -0.471397 0.881921 0
    outer loop
      vertex -3.82683 9.2388 0
      vertex -5.5557 8.3147 70
      vertex -3.82683 9.2388 70
    endloop
  endfacet
  facet normal -0.471397 0.881921 0
    outer loop
      vertex -5.5557 8.3147 70
      vertex -3.82683 9.2388 0
      vertex -5.5557 8.3147 0
    endloop
  endfacet
  facet normal 0.634393 0.773011 -0
    outer loop
      vertex 7.07107 7.07107 0
      vertex 5.5557 8.3147 70
      vertex 7.07107 7.07107 70
    endloop
  endfacet
  facet normal 0.634393 0.773011 0
    outer loop
      vertex 5.5557 8.3147 70
      vertex 7.07107 7.07107 0
      vertex 5.5557 8.3147 0
    endloop
  endfacet
  facet normal 0.471397 0.881921 -0
    outer loop
      vertex 5.5557 8.3147 0
      vertex 3.82683 9.2388 70
      vertex 5.5557 8.3147 70
    endloop
  endfacet
  facet normal 0.471397 0.881921 0
    outer loop
      vertex 3.82683 9.2388 70
      vertex 5.5557 8.3147 0
      vertex 3.82683 9.2388 0
    endloop
  endfacet
  facet normal 0.773011 0.634393 0
    outer loop
      vertex 8.3147 5.5557 70
      vertex 7.07107 7.07107 0
      vertex 7.07107 7.07107 70
    endloop
  endfacet
  facet normal 0.773011 0.634393 0
    outer loop
      vertex 7.07107 7.07107 0
      vertex 8.3147 5.5557 70
      vertex 8.3147 5.5557 0
    endloop
  endfacet
  facet normal 0.881921 -0.471397 0
    outer loop
      vertex 8.3147 -5.5557 70
      vertex 9.2388 -3.82683 0
      vertex 9.2388 -3.82683 70
    endloop
  endfacet
  facet normal 0.881921 -0.471397 0
    outer loop
      vertex 9.2388 -3.82683 0
      vertex 8.3147 -5.5557 70
      vertex 8.3147 -5.5557 0
    endloop
  endfacet
  facet normal 0.773011 -0.634393 0
    outer loop
      vertex 7.07107 -7.07107 70
      vertex 8.3147 -5.5557 0
      vertex 8.3147 -5.5557 70
    endloop
  endfacet
  facet normal 0.773011 -0.634393 0
    outer loop
      vertex 8.3147 -5.5557 0
      vertex 7.07107 -7.07107 70
      vertex 7.07107 -7.07107 0
    endloop
  endfacet
  facet normal 0.471397 -0.881921 0
    outer loop
      vertex 3.82683 -9.2388 0
      vertex 5.5557 -8.3147 70
      vertex 3.82683 -9.2388 70
    endloop
  endfacet
  facet normal 0.471397 -0.881921 0
    outer loop
      vertex 5.5557 -8.3147 70
      vertex 3.82683 -9.2388 0
      vertex 5.5557 -8.3147 0
    endloop
  endfacet
  facet normal -0.956941 0.290281 0
    outer loop
      vertex -9.80785 1.9509 0
      vertex -9.2388 3.82683 70
      vertex -9.2388 3.82683 0
    endloop
  endfacet
  facet normal -0.956941 0.290281 0
    outer loop
      vertex -9.2388 3.82683 70
      vertex -9.80785 1.9509 0
      vertex -9.80785 1.9509 70
    endloop
  endfacet
  facet normal 0.995185 -0.0980187 0
    outer loop
      vertex 9.80785 -1.9509 70
      vertex 10 0 0
      vertex 10 0 70
    endloop
  endfacet
  facet normal 0.995185 -0.0980187 0
    outer loop
      vertex 10 0 0
      vertex 9.80785 -1.9509 70
      vertex 9.80785 -1.9509 0
    endloop
  endfacet
  facet normal -0.290281 0.956941 0
    outer loop
      vertex -1.9509 9.80785 0
      vertex -3.82683 9.2388 70
      vertex -1.9509 9.80785 70
    endloop
  endfacet
  facet normal -0.290281 0.956941 0
    outer loop
      vertex -3.82683 9.2388 70
      vertex -1.9509 9.80785 0
      vertex -3.82683 9.2388 0
    endloop
  endfacet
  facet normal -0.0980187 0.995185 0
    outer loop
      vertex 0 10 0
      vertex -1.9509 9.80785 70
      vertex 0 10 70
    endloop
  endfacet
  facet normal -0.0980187 0.995185 0
    outer loop
      vertex -1.9509 9.80785 70
      vertex 0 10 0
      vertex -1.9509 9.80785 0
    endloop
  endfacet
  facet normal -0.881921 0.471397 0
    outer loop
      vertex -9.2388 3.82683 0
      vertex -8.3147 5.5557 70
      vertex -8.3147 5.5557 0
    endloop
  endfacet
  facet normal -0.881921 0.471397 0
    outer loop
      vertex -8.3147 5.5557 70
      vertex -9.2388 3.82683 0
      vertex -9.2388 3.82683 70
    endloop
  endfacet
  facet normal -0.956941 -0.290281 0
    outer loop
      vertex -9.2388 -3.82683 0
      vertex -9.80785 -1.9509 70
      vertex -9.80785 -1.9509 0
    endloop
  endfacet
  facet normal -0.956941 -0.290281 0
    outer loop
      vertex -9.80785 -1.9509 70
      vertex -9.2388 -3.82683 0
      vertex -9.2388 -3.82683 70
    endloop
  endfacet
  facet normal -0.995185 -0.0980187 0
    outer loop
      vertex -9.80785 -1.9509 0
      vertex -10 0 70
      vertex -10 0 0
    endloop
  endfacet
  facet normal -0.995185 -0.0980187 0
    outer loop
      vertex -10 0 70
      vertex -9.80785 -1.9509 0
      vertex -9.80785 -1.9509 70
    endloop
  endfacet
  facet normal -0.773011 -0.634393 0
    outer loop
      vertex -7.07107 -7.07107 0
      vertex -8.3147 -5.5557 70
      vertex -8.3147 -5.5557 0
    endloop
  endfacet
  facet normal -0.773011 -0.634393 0
    outer loop
      vertex -8.3147 -5.5557 70
      vertex -7.07107 -7.07107 0
      vertex -7.07107 -7.07107 70
    endloop
  endfacet
  facet normal -0.471397 -0.881921 0
    outer loop
      vertex -5.5557 -8.3147 0
      vertex -3.82683 -9.2388 70
      vertex -5.5557 -8.3147 70
    endloop
  endfacet
  facet normal -0.471397 -0.881921 -0
    outer loop
      vertex -3.82683 -9.2388 70
      vertex -5.5557 -8.3147 0
      vertex -3.82683 -9.2388 0
    endloop
  endfacet
  facet normal -0.0980187 -0.995185 0
    outer loop
      vertex -1.9509 -9.80785 0
      vertex 0 -10 70
      vertex -1.9509 -9.80785 70
    endloop
  endfacet
  facet normal -0.0980187 -0.995185 -0
    outer loop
      vertex 0 -10 70
      vertex -1.9509 -9.80785 0
      vertex 0 -10 0
    endloop
  endfacet
  facet normal -0.290281 -0.956941 0
    outer loop
      vertex -3.82683 -9.2388 0
      vertex -1.9509 -9.80785 70
      vertex -3.82683 -9.2388 70
    endloop
  endfacet
  facet normal -0.290281 -0.956941 -0
    outer loop
      vertex -1.9509 -9.80785 70
      vertex -3.82683 -9.2388 0
      vertex -1.9509 -9.80785 0
    endloop
  endfacet
  facet normal 0 0 1
    outer loop
      vertex 7 0 70
      vertex 10 0 70
      vertex 9.80785 1.9509 70
    endloop
  endfacet
  facet normal 0 0 1
    outer loop
      vertex 6.8655 1.36563 70
      vertex 9.80785 1.9509 70
      vertex 9.2388 3.82683 70
    endloop
  endfacet
  facet normal 0 0 1
    outer loop
      vertex 10 0 70
      vertex 7 0 70
      vertex 9.80785 -1.9509 70
    endloop
  endfacet
  facet normal 0 0 1
    outer loop
      vertex 6.46716 2.67878 70
      vertex 9.2388 3.82683 70
      vertex 8.3147 5.5557 70
    endloop
  endfacet
  facet normal -0 0 1
    outer loop
      vertex 6.8655 -1.36563 70
      vertex 9.80785 -1.9509 70
      vertex 7 0 70
    endloop
  endfacet
  facet normal 0 0 1
    outer loop
      vertex 5.82029 3.88899 70
      vertex 8.3147 5.5557 70
      vertex 7.07107 7.07107 70
    endloop
  endfacet
  facet normal 0 0 1
    outer loop
      vertex 9.80785 -1.9509 70
      vertex 6.8655 -1.36563 70
      vertex 9.2388 -3.82683 70
    endloop
  endfacet
  facet normal -0 0 1
    outer loop
      vertex 6.46716 -2.67878 70
      vertex 9.2388 -3.82683 70
      vertex 6.8655 -1.36563 70
    endloop
  endfacet
  facet normal 0 0 1
    outer loop
      vertex 9.80785 1.9509 70
      vertex 6.8655 1.36563 70
      vertex 7 0 70
    endloop
  endfacet
  facet normal 0 0 1
    outer loop
      vertex 9.2388 3.82683 70
      vertex 6.46716 2.67878 70
      vertex 6.8655 1.36563 70
    endloop
  endfacet
  facet normal 0 0 1
    outer loop
      vertex 8.3147 5.5557 70
      vertex 5.82029 3.88899 70
      vertex 6.46716 2.67878 70
    endloop
  endfacet
  facet normal 0 0 1
    outer loop
      vertex 4.94975 4.94975 70
      vertex 7.07107 7.07107 70
      vertex 5.5557 8.3147 70
    endloop
  endfacet
  facet normal 0 0 1
    outer loop
      vertex 7.07107 7.07107 70
      vertex 4.94975 4.94975 70
      vertex 5.82029 3.88899 70
    endloop
  endfacet
  facet normal 0 0 1
    outer loop
      vertex 5.5557 8.3147 70
      vertex 3.88899 5.82029 70
      vertex 4.94975 4.94975 70
    endloop
  endfacet
  facet normal 0 0 1
    outer loop
      vertex 3.82683 9.2388 70
      vertex 3.88899 5.82029 70
      vertex 5.5557 8.3147 70
    endloop
  endfacet
  facet normal 0 0 1
    outer loop
      vertex 3.82683 9.2388 70
      vertex 2.67878 6.46716 70
      vertex 3.88899 5.82029 70
    endloop
  endfacet
  facet normal 0 0 1
    outer loop
      vertex 1.9509 9.80785 70
      vertex 2.67878 6.46716 70
      vertex 3.82683 9.2388 70
    endloop
  endfacet
  facet normal 0 0 1
    outer loop
      vertex 1.9509 9.80785 70
      vertex 1.36563 6.8655 70
      vertex 2.67878 6.46716 70
    endloop
  endfacet
  facet normal 0 0 1
    outer loop
      vertex 0 10 70
      vertex 1.36563 6.8655 70
      vertex 1.9509 9.80785 70
    endloop
  endfacet
  facet normal 0 0 1
    outer loop
      vertex 0 10 70
      vertex 0 7 70
      vertex 1.36563 6.8655 70
    endloop
  endfacet
  facet normal 0 0 1
    outer loop
      vertex 0 10 70
      vertex -1.36563 6.8655 70
      vertex 0 7 70
    endloop
  endfacet
  facet normal -0 0 1
    outer loop
      vertex -1.9509 9.80785 70
      vertex -1.36563 6.8655 70
      vertex 0 10 70
    endloop
  endfacet
  facet normal 0 0 1
    outer loop
      vertex -1.9509 9.80785 70
      vertex -2.67878 6.46716 70
      vertex -1.36563 6.8655 70
    endloop
  endfacet
  facet normal -0 0 1
    outer loop
      vertex -3.82683 9.2388 70
      vertex -2.67878 6.46716 70
      vertex -1.9509 9.80785 70
    endloop
  endfacet
  facet normal 0 0 1
    outer loop
      vertex -3.82683 9.2388 70
      vertex -3.88899 5.82029 70
      vertex -2.67878 6.46716 70
    endloop
  endfacet
  facet normal -0 0 1
    outer loop
      vertex -5.5557 8.3147 70
      vertex -3.88899 5.82029 70
      vertex -3.82683 9.2388 70
    endloop
  endfacet
  facet normal 0 0 1
    outer loop
      vertex -3.88899 5.82029 70
      vertex -5.5557 8.3147 70
      vertex -4.94975 4.94975 70
    endloop
  endfacet
  facet normal -0 0 1
    outer loop
      vertex -7.07107 7.07107 70
      vertex -4.94975 4.94975 70
      vertex -5.5557 8.3147 70
    endloop
  endfacet
  facet normal 0 0 1
    outer loop
      vertex -4.94975 4.94975 70
      vertex -7.07107 7.07107 70
      vertex -5.82029 3.88899 70
    endloop
  endfacet
  facet normal -0 0 1
    outer loop
      vertex -8.3147 5.5557 70
      vertex -5.82029 3.88899 70
      vertex -7.07107 7.07107 70
    endloop
  endfacet
  facet normal -0 0 1
    outer loop
      vertex -9.2388 3.82683 70
      vertex -6.46716 2.67878 70
      vertex -8.3147 5.5557 70
    endloop
  endfacet
  facet normal 0 0 1
    outer loop
      vertex -5.82029 3.88899 70
      vertex -8.3147 5.5557 70
      vertex -6.46716 2.67878 70
    endloop
  endfacet
  facet normal 0 0 1
    outer loop
      vertex 9.2388 -3.82683 70
      vertex 6.46716 -2.67878 70
      vertex 8.3147 -5.5557 70
    endloop
  endfacet
  facet normal -0 0 1
    outer loop
      vertex 5.82029 -3.88899 70
      vertex 8.3147 -5.5557 70
      vertex 6.46716 -2.67878 70
    endloop
  endfacet
  facet normal 0 0 1
    outer loop
      vertex 8.3147 -5.5557 70
      vertex 5.82029 -3.88899 70
      vertex 7.07107 -7.07107 70
    endloop
  endfacet
  facet normal -0 0 1
    outer loop
      vertex 4.94975 -4.94975 70
      vertex 7.07107 -7.07107 70
      vertex 5.82029 -3.88899 70
    endloop
  endfacet
  facet normal 0 0 1
    outer loop
      vertex 7.07107 -7.07107 70
      vertex 4.94975 -4.94975 70
      vertex 5.5557 -8.3147 70
    endloop
  endfacet
  facet normal -0 0 1
    outer loop
      vertex 3.88899 -5.82029 70
      vertex 5.5557 -8.3147 70
      vertex 4.94975 -4.94975 70
    endloop
  endfacet
  facet normal 0 0 1
    outer loop
      vertex 3.88899 -5.82029 70
      vertex 3.82683 -9.2388 70
      vertex 5.5557 -8.3147 70
    endloop
  endfacet
  facet normal -0 0 1
    outer loop
      vertex 2.67878 -6.46716 70
      vertex 3.82683 -9.2388 70
      vertex 3.88899 -5.82029 70
    endloop
  endfacet
  facet normal 0 0 1
    outer loop
      vertex 2.67878 -6.46716 70
      vertex 1.9509 -9.80785 70
      vertex 3.82683 -9.2388 70
    endloop
  endfacet
  facet normal -0 0 1
    outer loop
      vertex 1.36563 -6.8655 70
      vertex 1.9509 -9.80785 70
      vertex 2.67878 -6.46716 70
    endloop
  endfacet
  facet normal -0 0 1
    outer loop
      vertex 0 -7 70
      vertex 1.9509 -9.80785 70
      vertex 1.36563 -6.8655 70
    endloop
  endfacet
  facet normal 0 0 1
    outer loop
      vertex 0 -7 70
      vertex 0 -10 70
      vertex 1.9509 -9.80785 70
    endloop
  endfacet
  facet normal 0 0 1
    outer loop
      vertex -1.36563 -6.8655 70
      vertex 0 -10 70
      vertex 0 -7 70
    endloop
  endfacet
  facet normal 0 0 1
    outer loop
      vertex -1.36563 -6.8655 70
      vertex -1.9509 -9.80785 70
      vertex 0 -10 70
    endloop
  endfacet
  facet normal 0 0 1
    outer loop
      vertex -2.67878 -6.46716 70
      vertex -1.9509 -9.80785 70
      vertex -1.36563 -6.8655 70
    endloop
  endfacet
  facet normal 0 0 1
    outer loop
      vertex -2.67878 -6.46716 70
      vertex -3.82683 -9.2388 70
      vertex -1.9509 -9.80785 70
    endloop
  endfacet
  facet normal 0 0 1
    outer loop
      vertex -3.88899 -5.82029 70
      vertex -3.82683 -9.2388 70
      vertex -2.67878 -6.46716 70
    endloop
  endfacet
  facet normal 0 0 1
    outer loop
      vertex -5.5557 -8.3147 70
      vertex -3.88899 -5.82029 70
      vertex -4.94975 -4.94975 70
    endloop
  endfacet
  facet normal 0 0 1
    outer loop
      vertex -3.88899 -5.82029 70
      vertex -5.5557 -8.3147 70
      vertex -3.82683 -9.2388 70
    endloop
  endfacet
  facet normal 0 0 1
    outer loop
      vertex -7.07107 -7.07107 70
      vertex -4.94975 -4.94975 70
      vertex -5.82029 -3.88899 70
    endloop
  endfacet
  facet normal 0 0 1
    outer loop
      vertex -8.3147 -5.5557 70
      vertex -5.82029 -3.88899 70
      vertex -6.46716 -2.67878 70
    endloop
  endfacet
  facet normal 0 0 1
    outer loop
      vertex -9.2388 -3.82683 70
      vertex -6.46716 -2.67878 70
      vertex -6.8655 -1.36563 70
    endloop
  endfacet
  facet normal 0 0 1
    outer loop
      vertex -4.94975 -4.94975 70
      vertex -7.07107 -7.07107 70
      vertex -5.5557 -8.3147 70
    endloop
  endfacet
  facet normal 0 0 1
    outer loop
      vertex -9.80785 -1.9509 70
      vertex -6.8655 -1.36563 70
      vertex -7 0 70
    endloop
  endfacet
  facet normal 0 0 1
    outer loop
      vertex -6.46716 2.67878 70
      vertex -9.2388 3.82683 70
      vertex -6.8655 1.36563 70
    endloop
  endfacet
  facet normal -0 0 1
    outer loop
      vertex -9.80785 1.9509 70
      vertex -6.8655 1.36563 70
      vertex -9.2388 3.82683 70
    endloop
  endfacet
  facet normal 0 0 1
    outer loop
      vertex -5.82029 -3.88899 70
      vertex -8.3147 -5.5557 70
      vertex -7.07107 -7.07107 70
    endloop
  endfacet
  facet normal 0 0 1
    outer loop
      vertex -6.8655 1.36563 70
      vertex -9.80785 1.9509 70
      vertex -7 0 70
    endloop
  endfacet
  facet normal 0 0 1
    outer loop
      vertex -6.46716 -2.67878 70
      vertex -9.2388 -3.82683 70
      vertex -8.3147 -5.5557 70
    endloop
  endfacet
  facet normal 0 0 1
    outer loop
      vertex -10 0 70
      vertex -7 0 70
      vertex -9.80785 1.9509 70
    endloop
  endfacet
  facet normal 0 0 1
    outer loop
      vertex -6.8655 -1.36563 70
      vertex -9.80785 -1.9509 70
      vertex -9.2388 -3.82683 70
    endloop
  endfacet
  facet normal 0 0 1
    outer loop
      vertex -7 0 70
      vertex -10 0 70
      vertex -9.80785 -1.9509 70
    endloop
  endfacet
  facet normal 0.0980187 0.995185 -0
    outer loop
      vertex 1.9509 9.80785 -50
      vertex 0 10 -40
      vertex 1.9509 9.80785 -40
    endloop
  endfacet
  facet normal 0.0980187 0.995185 0
    outer loop
      vertex 0 10 -40
      vertex 1.9509 9.80785 -50
      vertex 0 10 -50
    endloop
  endfacet
  facet normal 0.956941 0.290281 0
    outer loop
      vertex 9.80785 1.9509 -40
      vertex 9.2388 3.82683 -50
      vertex 9.2388 3.82683 -40
    endloop
  endfacet
  facet normal 0.956941 0.290281 0
    outer loop
      vertex 9.2388 3.82683 -50
      vertex 9.80785 1.9509 -40
      vertex 9.80785 1.9509 -50
    endloop
  endfacet
  facet normal 0.995185 0.0980187 0
    outer loop
      vertex 10 0 -40
      vertex 9.80785 1.9509 -50
      vertex 9.80785 1.9509 -40
    endloop
  endfacet
  facet normal 0.995185 0.0980187 0
    outer loop
      vertex 9.80785 1.9509 -50
      vertex 10 0 -40
      vertex 10 0 -50
    endloop
  endfacet
  facet normal 0.634393 -0.773011 0
    outer loop
      vertex 5.5557 -8.3147 -50
      vertex 7.07107 -7.07107 -40
      vertex 5.5557 -8.3147 -40
    endloop
  endfacet
  facet normal 0.634393 -0.773011 0
    outer loop
      vertex 7.07107 -7.07107 -40
      vertex 5.5557 -8.3147 -50
      vertex 7.07107 -7.07107 -50
    endloop
  endfacet
  facet normal 0.290281 -0.956941 0
    outer loop
      vertex 1.9509 -9.80785 -50
      vertex 3.82683 -9.2388 -40
      vertex 1.9509 -9.80785 -40
    endloop
  endfacet
  facet normal 0.290281 -0.956941 0
    outer loop
      vertex 3.82683 -9.2388 -40
      vertex 1.9509 -9.80785 -50
      vertex 3.82683 -9.2388 -50
    endloop
  endfacet
  facet normal 0.0980187 -0.995185 0
    outer loop
      vertex 0 -10 -50
      vertex 1.9509 -9.80785 -40
      vertex 0 -10 -40
    endloop
  endfacet
  facet normal 0.0980187 -0.995185 0
    outer loop
      vertex 1.9509 -9.80785 -40
      vertex 0 -10 -50
      vertex 1.9509 -9.80785 -50
    endloop
  endfacet
  facet normal -0.995185 0.0980187 0
    outer loop
      vertex -10 0 -50
      vertex -9.80785 1.9509 -40
      vertex -9.80785 1.9509 -50
    endloop
  endfacet
  facet normal -0.995185 0.0980187 0
    outer loop
      vertex -9.80785 1.9509 -40
      vertex -10 0 -50
      vertex -10 0 -40
    endloop
  endfacet
  facet normal -0.634393 -0.773011 0
    outer loop
      vertex -7.07107 -7.07107 -50
      vertex -5.5557 -8.3147 -40
      vertex -7.07107 -7.07107 -40
    endloop
  endfacet
  facet normal -0.634393 -0.773011 -0
    outer loop
      vertex -5.5557 -8.3147 -40
      vertex -7.07107 -7.07107 -50
      vertex -5.5557 -8.3147 -50
    endloop
  endfacet
  facet normal 0.290281 0.956941 -0
    outer loop
      vertex 3.82683 9.2388 -50
      vertex 1.9509 9.80785 -40
      vertex 3.82683 9.2388 -40
    endloop
  endfacet
  facet normal 0.290281 0.956941 0
    outer loop
      vertex 1.9509 9.80785 -40
      vertex 3.82683 9.2388 -50
      vertex 1.9509 9.80785 -50
    endloop
  endfacet
  facet normal -0.634393 0.773011 0
    outer loop
      vertex -5.5557 8.3147 -50
      vertex -7.07107 7.07107 -40
      vertex -5.5557 8.3147 -40
    endloop
  endfacet
  facet normal -0.634393 0.773011 0
    outer loop
      vertex -7.07107 7.07107 -40
      vertex -5.5557 8.3147 -50
      vertex -7.07107 7.07107 -50
    endloop
  endfacet
  facet normal 0.956941 -0.290281 0
    outer loop
      vertex 9.2388 -3.82683 -40
      vertex 9.80785 -1.9509 -50
      vertex 9.80785 -1.9509 -40
    endloop
  endfacet
  facet normal 0.956941 -0.290281 0
    outer loop
      vertex 9.80785 -1.9509 -50
      vertex 9.2388 -3.82683 -40
      vertex 9.2388 -3.82683 -50
    endloop
  endfacet
  facet normal -0.773011 0.634393 0
    outer loop
      vertex -8.3147 5.5557 -50
      vertex -7.07107 7.07107 -40
      vertex -7.07107 7.07107 -50
    endloop
  endfacet
  facet normal -0.773011 0.634393 0
    outer loop
      vertex -7.07107 7.07107 -40
      vertex -8.3147 5.5557 -50
      vertex -8.3147 5.5557 -40
    endloop
  endfacet
  facet normal -0.881921 -0.471397 0
    outer loop
      vertex -8.3147 -5.5557 -50
      vertex -9.2388 -3.82683 -40
      vertex -9.2388 -3.82683 -50
    endloop
  endfacet
  facet normal -0.881921 -0.471397 0
    outer loop
      vertex -9.2388 -3.82683 -40
      vertex -8.3147 -5.5557 -50
      vertex -8.3147 -5.5557 -40
    endloop
  endfacet
  facet normal 0.881921 0.471397 0
    outer loop
      vertex 9.2388 3.82683 -40
      vertex 8.3147 5.5557 -50
      vertex 8.3147 5.5557 -40
    endloop
  endfacet
  facet normal 0.881921 0.471397 0
    outer loop
      vertex 8.3147 5.5557 -50
      vertex 9.2388 3.82683 -40
      vertex 9.2388 3.82683 -50
    endloop
  endfacet
  facet normal 0 0 -1
    outer loop
      vertex 7 0 -50
      vertex 10 0 -50
      vertex 9.80785 -1.9509 -50
    endloop
  endfacet
  facet normal 0 0 -1
    outer loop
      vertex 6.8655 -1.36563 -50
      vertex 9.80785 -1.9509 -50
      vertex 9.2388 -3.82683 -50
    endloop
  endfacet
  facet normal 0 0 -1
    outer loop
      vertex 10 0 -50
      vertex 7 0 -50
      vertex 9.80785 1.9509 -50
    endloop
  endfacet
  facet normal 0 0 -1
    outer loop
      vertex 6.46716 -2.67878 -50
      vertex 9.2388 -3.82683 -50
      vertex 8.3147 -5.5557 -50
    endloop
  endfacet
  facet normal 0 0 -1
    outer loop
      vertex 6.8655 1.36563 -50
      vertex 9.80785 1.9509 -50
      vertex 7 0 -50
    endloop
  endfacet
  facet normal 0 0 -1
    outer loop
      vertex 5.82029 -3.88899 -50
      vertex 8.3147 -5.5557 -50
      vertex 7.07107 -7.07107 -50
    endloop
  endfacet
  facet normal -0 0 -1
    outer loop
      vertex 9.80785 1.9509 -50
      vertex 6.8655 1.36563 -50
      vertex 9.2388 3.82683 -50
    endloop
  endfacet
  facet normal 0 0 -1
    outer loop
      vertex 6.46716 2.67878 -50
      vertex 9.2388 3.82683 -50
      vertex 6.8655 1.36563 -50
    endloop
  endfacet
  facet normal 0 0 -1
    outer loop
      vertex 9.80785 -1.9509 -50
      vertex 6.8655 -1.36563 -50
      vertex 7 0 -50
    endloop
  endfacet
  facet normal 0 0 -1
    outer loop
      vertex 9.2388 -3.82683 -50
      vertex 6.46716 -2.67878 -50
      vertex 6.8655 -1.36563 -50
    endloop
  endfacet
  facet normal 0 0 -1
    outer loop
      vertex 8.3147 -5.5557 -50
      vertex 5.82029 -3.88899 -50
      vertex 6.46716 -2.67878 -50
    endloop
  endfacet
  facet normal 0 0 -1
    outer loop
      vertex 4.94975 -4.94975 -50
      vertex 7.07107 -7.07107 -50
      vertex 5.5557 -8.3147 -50
    endloop
  endfacet
  facet normal 0 0 -1
    outer loop
      vertex 7.07107 -7.07107 -50
      vertex 4.94975 -4.94975 -50
      vertex 5.82029 -3.88899 -50
    endloop
  endfacet
  facet normal 0 0 -1
    outer loop
      vertex 5.5557 -8.3147 -50
      vertex 3.88899 -5.82029 -50
      vertex 4.94975 -4.94975 -50
    endloop
  endfacet
  facet normal 0 0 -1
    outer loop
      vertex 3.82683 -9.2388 -50
      vertex 3.88899 -5.82029 -50
      vertex 5.5557 -8.3147 -50
    endloop
  endfacet
  facet normal 0 0 -1
    outer loop
      vertex 3.82683 -9.2388 -50
      vertex 2.67878 -6.46716 -50
      vertex 3.88899 -5.82029 -50
    endloop
  endfacet
  facet normal 0 0 -1
    outer loop
      vertex 1.9509 -9.80785 -50
      vertex 2.67878 -6.46716 -50
      vertex 3.82683 -9.2388 -50
    endloop
  endfacet
  facet normal 0 0 -1
    outer loop
      vertex 1.9509 -9.80785 -50
      vertex 1.36563 -6.8655 -50
      vertex 2.67878 -6.46716 -50
    endloop
  endfacet
  facet normal 0 0 -1
    outer loop
      vertex 0 -10 -50
      vertex 1.36563 -6.8655 -50
      vertex 1.9509 -9.80785 -50
    endloop
  endfacet
  facet normal 0 0 -1
    outer loop
      vertex 0 -10 -50
      vertex 0 -7 -50
      vertex 1.36563 -6.8655 -50
    endloop
  endfacet
  facet normal 0 0 -1
    outer loop
      vertex 0 -10 -50
      vertex -1.36563 -6.8655 -50
      vertex 0 -7 -50
    endloop
  endfacet
  facet normal 0 0 -1
    outer loop
      vertex -1.9509 -9.80785 -50
      vertex -1.36563 -6.8655 -50
      vertex 0 -10 -50
    endloop
  endfacet
  facet normal 0 0 -1
    outer loop
      vertex -1.9509 -9.80785 -50
      vertex -2.67878 -6.46716 -50
      vertex -1.36563 -6.8655 -50
    endloop
  endfacet
  facet normal 0 0 -1
    outer loop
      vertex -3.82683 -9.2388 -50
      vertex -2.67878 -6.46716 -50
      vertex -1.9509 -9.80785 -50
    endloop
  endfacet
  facet normal 0 0 -1
    outer loop
      vertex -3.82683 -9.2388 -50
      vertex -3.88899 -5.82029 -50
      vertex -2.67878 -6.46716 -50
    endloop
  endfacet
  facet normal 0 0 -1
    outer loop
      vertex -5.5557 -8.3147 -50
      vertex -3.88899 -5.82029 -50
      vertex -3.82683 -9.2388 -50
    endloop
  endfacet
  facet normal -0 0 -1
    outer loop
      vertex -3.88899 -5.82029 -50
      vertex -5.5557 -8.3147 -50
      vertex -4.94975 -4.94975 -50
    endloop
  endfacet
  facet normal 0 0 -1
    outer loop
      vertex -7.07107 -7.07107 -50
      vertex -4.94975 -4.94975 -50
      vertex -5.5557 -8.3147 -50
    endloop
  endfacet
  facet normal -0 0 -1
    outer loop
      vertex -4.94975 -4.94975 -50
      vertex -7.07107 -7.07107 -50
      vertex -5.82029 -3.88899 -50
    endloop
  endfacet
  facet normal 0 0 -1
    outer loop
      vertex -8.3147 -5.5557 -50
      vertex -5.82029 -3.88899 -50
      vertex -7.07107 -7.07107 -50
    endloop
  endfacet
  facet normal 0 0 -1
    outer loop
      vertex -9.2388 -3.82683 -50
      vertex -6.46716 -2.67878 -50
      vertex -8.3147 -5.5557 -50
    endloop
  endfacet
  facet normal -0 0 -1
    outer loop
      vertex -5.82029 -3.88899 -50
      vertex -8.3147 -5.5557 -50
      vertex -6.46716 -2.67878 -50
    endloop
  endfacet
  facet normal -0 0 -1
    outer loop
      vertex 9.2388 3.82683 -50
      vertex 6.46716 2.67878 -50
      vertex 8.3147 5.5557 -50
    endloop
  endfacet
  facet normal 0 0 -1
    outer loop
      vertex 5.82029 3.88899 -50
      vertex 8.3147 5.5557 -50
      vertex 6.46716 2.67878 -50
    endloop
  endfacet
  facet normal -0 0 -1
    outer loop
      vertex 8.3147 5.5557 -50
      vertex 5.82029 3.88899 -50
      vertex 7.07107 7.07107 -50
    endloop
  endfacet
  facet normal 0 0 -1
    outer loop
      vertex 4.94975 4.94975 -50
      vertex 7.07107 7.07107 -50
      vertex 5.82029 3.88899 -50
    endloop
  endfacet
  facet normal -0 0 -1
    outer loop
      vertex 7.07107 7.07107 -50
      vertex 4.94975 4.94975 -50
      vertex 5.5557 8.3147 -50
    endloop
  endfacet
  facet normal 0 0 -1
    outer loop
      vertex 3.88899 5.82029 -50
      vertex 5.5557 8.3147 -50
      vertex 4.94975 4.94975 -50
    endloop
  endfacet
  facet normal 0 0 -1
    outer loop
      vertex 3.88899 5.82029 -50
      vertex 3.82683 9.2388 -50
      vertex 5.5557 8.3147 -50
    endloop
  endfacet
  facet normal 0 0 -1
    outer loop
      vertex 2.67878 6.46716 -50
      vertex 3.82683 9.2388 -50
      vertex 3.88899 5.82029 -50
    endloop
  endfacet
  facet normal 0 0 -1
    outer loop
      vertex 2.67878 6.46716 -50
      vertex 1.9509 9.80785 -50
      vertex 3.82683 9.2388 -50
    endloop
  endfacet
  facet normal 0 0 -1
    outer loop
      vertex 1.36563 6.8655 -50
      vertex 1.9509 9.80785 -50
      vertex 2.67878 6.46716 -50
    endloop
  endfacet
  facet normal 0 0 -1
    outer loop
      vertex 0 7 -50
      vertex 1.9509 9.80785 -50
      vertex 1.36563 6.8655 -50
    endloop
  endfacet
  facet normal 0 0 -1
    outer loop
      vertex 0 7 -50
      vertex 0 10 -50
      vertex 1.9509 9.80785 -50
    endloop
  endfacet
  facet normal 0 0 -1
    outer loop
      vertex -1.36563 6.8655 -50
      vertex 0 10 -50
      vertex 0 7 -50
    endloop
  endfacet
  facet normal 0 0 -1
    outer loop
      vertex -1.36563 6.8655 -50
      vertex -1.9509 9.80785 -50
      vertex 0 10 -50
    endloop
  endfacet
  facet normal 0 0 -1
    outer loop
      vertex -2.67878 6.46716 -50
      vertex -1.9509 9.80785 -50
      vertex -1.36563 6.8655 -50
    endloop
  endfacet
  facet normal 0 0 -1
    outer loop
      vertex -2.67878 6.46716 -50
      vertex -3.82683 9.2388 -50
      vertex -1.9509 9.80785 -50
    endloop
  endfacet
  facet normal 0 0 -1
    outer loop
      vertex -3.88899 5.82029 -50
      vertex -3.82683 9.2388 -50
      vertex -2.67878 6.46716 -50
    endloop
  endfacet
  facet normal 0 0 -1
    outer loop
      vertex -5.5557 8.3147 -50
      vertex -3.88899 5.82029 -50
      vertex -4.94975 4.94975 -50
    endloop
  endfacet
  facet normal 0 0 -1
    outer loop
      vertex -3.88899 5.82029 -50
      vertex -5.5557 8.3147 -50
      vertex -3.82683 9.2388 -50
    endloop
  endfacet
  facet normal 0 0 -1
    outer loop
      vertex -7.07107 7.07107 -50
      vertex -4.94975 4.94975 -50
      vertex -5.82029 3.88899 -50
    endloop
  endfacet
  facet normal 0 0 -1
    outer loop
      vertex -8.3147 5.5557 -50
      vertex -5.82029 3.88899 -50
      vertex -6.46716 2.67878 -50
    endloop
  endfacet
  facet normal 0 0 -1
    outer loop
      vertex -9.2388 3.82683 -50
      vertex -6.46716 2.67878 -50
      vertex -6.8655 1.36563 -50
    endloop
  endfacet
  facet normal 0 0 -1
    outer loop
      vertex -4.94975 4.94975 -50
      vertex -7.07107 7.07107 -50
      vertex -5.5557 8.3147 -50
    endloop
  endfacet
  facet normal 0 0 -1
    outer loop
      vertex -9.80785 1.9509 -50
      vertex -6.8655 1.36563 -50
      vertex -7 0 -50
    endloop
  endfacet
  facet normal -0 0 -1
    outer loop
      vertex -6.46716 -2.67878 -50
      vertex -9.2388 -3.82683 -50
      vertex -6.8655 -1.36563 -50
    endloop
  endfacet
  facet normal 0 0 -1
    outer loop
      vertex -9.80785 -1.9509 -50
      vertex -6.8655 -1.36563 -50
      vertex -9.2388 -3.82683 -50
    endloop
  endfacet
  facet normal 0 0 -1
    outer loop
      vertex -5.82029 3.88899 -50
      vertex -8.3147 5.5557 -50
      vertex -7.07107 7.07107 -50
    endloop
  endfacet
  facet normal -0 0 -1
    outer loop
      vertex -6.8655 -1.36563 -50
      vertex -9.80785 -1.9509 -50
      vertex -7 0 -50
    endloop
  endfacet
  facet normal 0 0 -1
    outer loop
      vertex -6.46716 2.67878 -50
      vertex -9.2388 3.82683 -50
      vertex -8.3147 5.5557 -50
    endloop
  endfacet
  facet normal 0 0 -1
    outer loop
      vertex -10 0 -50
      vertex -7 0 -50
      vertex -9.80785 -1.9509 -50
    endloop
  endfacet
  facet normal 0 0 -1
    outer loop
      vertex -6.8655 1.36563 -50
      vertex -9.80785 1.9509 -50
      vertex -9.2388 3.82683 -50
    endloop
  endfacet
  facet normal 0 0 -1
    outer loop
      vertex -7 0 -50
      vertex -10 0 -50
      vertex -9.80785 1.9509 -50
    endloop
  endfacet
  facet normal -0.471397 0.881921 0
    outer loop
      vertex -3.82683 9.2388 -50
      vertex -5.5557 8.3147 -40
      vertex -3.82683 9.2388 -40
    endloop
  endfacet
  facet normal -0.471397 0.881921 0
    outer loop
      vertex -5.5557 8.3147 -40
      vertex -3.82683 9.2388 -50
      vertex -5.5557 8.3147 -50
    endloop
  endfacet
  facet normal 0.634393 0.773011 -0
    outer loop
      vertex 7.07107 7.07107 -50
      vertex 5.5557 8.3147 -40
      vertex 7.07107 7.07107 -40
    endloop
  endfacet
  facet normal 0.634393 0.773011 0
    outer loop
      vertex 5.5557 8.3147 -40
      vertex 7.07107 7.07107 -50
      vertex 5.5557 8.3147 -50
    endloop
  endfacet
  facet normal 0.471397 0.881921 -0
    outer loop
      vertex 5.5557 8.3147 -50
      vertex 3.82683 9.2388 -40
      vertex 5.5557 8.3147 -40
    endloop
  endfacet
  facet normal 0.471397 0.881921 0
    outer loop
      vertex 3.82683 9.2388 -40
      vertex 5.5557 8.3147 -50
      vertex 3.82683 9.2388 -50
    endloop
  endfacet
  facet normal 0.773011 0.634393 0
    outer loop
      vertex 8.3147 5.5557 -40
      vertex 7.07107 7.07107 -50
      vertex 7.07107 7.07107 -40
    endloop
  endfacet
  facet normal 0.773011 0.634393 0
    outer loop
      vertex 7.07107 7.07107 -50
      vertex 8.3147 5.5557 -40
      vertex 8.3147 5.5557 -50
    endloop
  endfacet
  facet normal 0.881921 -0.471397 0
    outer loop
      vertex 8.3147 -5.5557 -40
      vertex 9.2388 -3.82683 -50
      vertex 9.2388 -3.82683 -40
    endloop
  endfacet
  facet normal 0.881921 -0.471397 0
    outer loop
      vertex 9.2388 -3.82683 -50
      vertex 8.3147 -5.5557 -40
      vertex 8.3147 -5.5557 -50
    endloop
  endfacet
  facet normal 0.773011 -0.634393 0
    outer loop
      vertex 7.07107 -7.07107 -40
      vertex 8.3147 -5.5557 -50
      vertex 8.3147 -5.5557 -40
    endloop
  endfacet
  facet normal 0.773011 -0.634393 0
    outer loop
      vertex 8.3147 -5.5557 -50
      vertex 7.07107 -7.07107 -40
      vertex 7.07107 -7.07107 -50
    endloop
  endfacet
  facet normal 0.471397 -0.881921 0
    outer loop
      vertex 3.82683 -9.2388 -50
      vertex 5.5557 -8.3147 -40
      vertex 3.82683 -9.2388 -40
    endloop
  endfacet
  facet normal 0.471397 -0.881921 0
    outer loop
      vertex 5.5557 -8.3147 -40
      vertex 3.82683 -9.2388 -50
      vertex 5.5557 -8.3147 -50
    endloop
  endfacet
  facet normal -0.956941 0.290281 0
    outer loop
      vertex -9.80785 1.9509 -50
      vertex -9.2388 3.82683 -40
      vertex -9.2388 3.82683 -50
    endloop
  endfacet
  facet normal -0.956941 0.290281 0
    outer loop
      vertex -9.2388 3.82683 -40
      vertex -9.80785 1.9509 -50
      vertex -9.80785 1.9509 -40
    endloop
  endfacet
  facet normal 0.995185 -0.0980187 0
    outer loop
      vertex 9.80785 -1.9509 -40
      vertex 10 0 -50
      vertex 10 0 -40
    endloop
  endfacet
  facet normal 0.995185 -0.0980187 0
    outer loop
      vertex 10 0 -50
      vertex 9.80785 -1.9509 -40
      vertex 9.80785 -1.9509 -50
    endloop
  endfacet
  facet normal -0.290281 0.956941 0
    outer loop
      vertex -1.9509 9.80785 -50
      vertex -3.82683 9.2388 -40
      vertex -1.9509 9.80785 -40
    endloop
  endfacet
  facet normal -0.290281 0.956941 0
    outer loop
      vertex -3.82683 9.2388 -40
      vertex -1.9509 9.80785 -50
      vertex -3.82683 9.2388 -50
    endloop
  endfacet
  facet normal 0 0 1
    outer loop
      vertex 7 0 -40
      vertex 10 0 -40
      vertex 9.80785 1.9509 -40
    endloop
  endfacet
  facet normal 0 0 1
    outer loop
      vertex 6.8655 1.36563 -40
      vertex 9.80785 1.9509 -40
      vertex 9.2388 3.82683 -40
    endloop
  endfacet
  facet normal 0 0 1
    outer loop
      vertex 10 0 -40
      vertex 7 0 -40
      vertex 9.80785 -1.9509 -40
    endloop
  endfacet
  facet normal 0 0 1
    outer loop
      vertex 6.46716 2.67878 -40
      vertex 9.2388 3.82683 -40
      vertex 8.3147 5.5557 -40
    endloop
  endfacet
  facet normal -0 0 1
    outer loop
      vertex 6.8655 -1.36563 -40
      vertex 9.80785 -1.9509 -40
      vertex 7 0 -40
    endloop
  endfacet
  facet normal 0 0 1
    outer loop
      vertex 5.82029 3.88899 -40
      vertex 8.3147 5.5557 -40
      vertex 7.07107 7.07107 -40
    endloop
  endfacet
  facet normal 0 0 1
    outer loop
      vertex 9.80785 -1.9509 -40
      vertex 6.8655 -1.36563 -40
      vertex 9.2388 -3.82683 -40
    endloop
  endfacet
  facet normal -0 0 1
    outer loop
      vertex 6.46716 -2.67878 -40
      vertex 9.2388 -3.82683 -40
      vertex 6.8655 -1.36563 -40
    endloop
  endfacet
  facet normal 0 0 1
    outer loop
      vertex 9.80785 1.9509 -40
      vertex 6.8655 1.36563 -40
      vertex 7 0 -40
    endloop
  endfacet
  facet normal 0 0 1
    outer loop
      vertex 9.2388 3.82683 -40
      vertex 6.46716 2.67878 -40
      vertex 6.8655 1.36563 -40
    endloop
  endfacet
  facet normal 0 0 1
    outer loop
      vertex 8.3147 5.5557 -40
      vertex 5.82029 3.88899 -40
      vertex 6.46716 2.67878 -40
    endloop
  endfacet
  facet normal 0 0 1
    outer loop
      vertex 4.94975 4.94975 -40
      vertex 7.07107 7.07107 -40
      vertex 5.5557 8.3147 -40
    endloop
  endfacet
  facet normal 0 0 1
    outer loop
      vertex 7.07107 7.07107 -40
      vertex 4.94975 4.94975 -40
      vertex 5.82029 3.88899 -40
    endloop
  endfacet
  facet normal 0 0 1
    outer loop
      vertex 5.5557 8.3147 -40
      vertex 3.88899 5.82029 -40
      vertex 4.94975 4.94975 -40
    endloop
  endfacet
  facet normal 0 0 1
    outer loop
      vertex 3.82683 9.2388 -40
      vertex 3.88899 5.82029 -40
      vertex 5.5557 8.3147 -40
    endloop
  endfacet
  facet normal 0 0 1
    outer loop
      vertex 3.82683 9.2388 -40
      vertex 2.67878 6.46716 -40
      vertex 3.88899 5.82029 -40
    endloop
  endfacet
  facet normal 0 0 1
    outer loop
      vertex 1.9509 9.80785 -40
      vertex 2.67878 6.46716 -40
      vertex 3.82683 9.2388 -40
    endloop
  endfacet
  facet normal 0 0 1
    outer loop
      vertex 1.9509 9.80785 -40
      vertex 1.36563 6.8655 -40
      vertex 2.67878 6.46716 -40
    endloop
  endfacet
  facet normal 0 0 1
    outer loop
      vertex 0 10 -40
      vertex 1.36563 6.8655 -40
      vertex 1.9509 9.80785 -40
    endloop
  endfacet
  facet normal 0 0 1
    outer loop
      vertex 0 10 -40
      vertex 0 7 -40
      vertex 1.36563 6.8655 -40
    endloop
  endfacet
  facet normal 0 0 1
    outer loop
      vertex 0 10 -40
      vertex -1.36563 6.8655 -40
      vertex 0 7 -40
    endloop
  endfacet
  facet normal -0 0 1
    outer loop
      vertex -1.9509 9.80785 -40
      vertex -1.36563 6.8655 -40
      vertex 0 10 -40
    endloop
  endfacet
  facet normal 0 0 1
    outer loop
      vertex -1.9509 9.80785 -40
      vertex -2.67878 6.46716 -40
      vertex -1.36563 6.8655 -40
    endloop
  endfacet
  facet normal -0 0 1
    outer loop
      vertex -3.82683 9.2388 -40
      vertex -2.67878 6.46716 -40
      vertex -1.9509 9.80785 -40
    endloop
  endfacet
  facet normal 0 0 1
    outer loop
      vertex -3.82683 9.2388 -40
      vertex -3.88899 5.82029 -40
      vertex -2.67878 6.46716 -40
    endloop
  endfacet
  facet normal -0 0 1
    outer loop
      vertex -5.5557 8.3147 -40
      vertex -3.88899 5.82029 -40
      vertex -3.82683 9.2388 -40
    endloop
  endfacet
  facet normal 0 0 1
    outer loop
      vertex -3.88899 5.82029 -40
      vertex -5.5557 8.3147 -40
      vertex -4.94975 4.94975 -40
    endloop
  endfacet
  facet normal -0 0 1
    outer loop
      vertex -7.07107 7.07107 -40
      vertex -4.94975 4.94975 -40
      vertex -5.5557 8.3147 -40
    endloop
  endfacet
  facet normal 0 0 1
    outer loop
      vertex -4.94975 4.94975 -40
      vertex -7.07107 7.07107 -40
      vertex -5.82029 3.88899 -40
    endloop
  endfacet
  facet normal -0 0 1
    outer loop
      vertex -8.3147 5.5557 -40
      vertex -5.82029 3.88899 -40
      vertex -7.07107 7.07107 -40
    endloop
  endfacet
  facet normal -0 0 1
    outer loop
      vertex -9.2388 3.82683 -40
      vertex -6.46716 2.67878 -40
      vertex -8.3147 5.5557 -40
    endloop
  endfacet
  facet normal 0 0 1
    outer loop
      vertex -5.82029 3.88899 -40
      vertex -8.3147 5.5557 -40
      vertex -6.46716 2.67878 -40
    endloop
  endfacet
  facet normal 0 0 1
    outer loop
      vertex 9.2388 -3.82683 -40
      vertex 6.46716 -2.67878 -40
      vertex 8.3147 -5.5557 -40
    endloop
  endfacet
  facet normal -0 0 1
    outer loop
      vertex 5.82029 -3.88899 -40
      vertex 8.3147 -5.5557 -40
      vertex 6.46716 -2.67878 -40
    endloop
  endfacet
  facet normal 0 0 1
    outer loop
      vertex 8.3147 -5.5557 -40
      vertex 5.82029 -3.88899 -40
      vertex 7.07107 -7.07107 -40
    endloop
  endfacet
  facet normal -0 0 1
    outer loop
      vertex 4.94975 -4.94975 -40
      vertex 7.07107 -7.07107 -40
      vertex 5.82029 -3.88899 -40
    endloop
  endfacet
  facet normal 0 0 1
    outer loop
      vertex 7.07107 -7.07107 -40
      vertex 4.94975 -4.94975 -40
      vertex 5.5557 -8.3147 -40
    endloop
  endfacet
  facet normal -0 0 1
    outer loop
      vertex 3.88899 -5.82029 -40
      vertex 5.5557 -8.3147 -40
      vertex 4.94975 -4.94975 -40
    endloop
  endfacet
  facet normal 0 0 1
    outer loop
      vertex 3.88899 -5.82029 -40
      vertex 3.82683 -9.2388 -40
      vertex 5.5557 -8.3147 -40
    endloop
  endfacet
  facet normal -0 0 1
    outer loop
      vertex 2.67878 -6.46716 -40
      vertex 3.82683 -9.2388 -40
      vertex 3.88899 -5.82029 -40
    endloop
  endfacet
  facet normal 0 0 1
    outer loop
      vertex 2.67878 -6.46716 -40
      vertex 1.9509 -9.80785 -40
      vertex 3.82683 -9.2388 -40
    endloop
  endfacet
  facet normal -0 0 1
    outer loop
      vertex 1.36563 -6.8655 -40
      vertex 1.9509 -9.80785 -40
      vertex 2.67878 -6.46716 -40
    endloop
  endfacet
  facet normal -0 0 1
    outer loop
      vertex 0 -7 -40
      vertex 1.9509 -9.80785 -40
      vertex 1.36563 -6.8655 -40
    endloop
  endfacet
  facet normal 0 0 1
    outer loop
      vertex 0 -7 -40
      vertex 0 -10 -40
      vertex 1.9509 -9.80785 -40
    endloop
  endfacet
  facet normal 0 0 1
    outer loop
      vertex -1.36563 -6.8655 -40
      vertex 0 -10 -40
      vertex 0 -7 -40
    endloop
  endfacet
  facet normal 0 0 1
    outer loop
      vertex -1.36563 -6.8655 -40
      vertex -1.9509 -9.80785 -40
      vertex 0 -10 -40
    endloop
  endfacet
  facet normal 0 0 1
    outer loop
      vertex -2.67878 -6.46716 -40
      vertex -1.9509 -9.80785 -40
      vertex -1.36563 -6.8655 -40
    endloop
  endfacet
  facet normal 0 0 1
    outer loop
      vertex -2.67878 -6.46716 -40
      vertex -3.82683 -9.2388 -40
      vertex -1.9509 -9.80785 -40
    endloop
  endfacet
  facet normal 0 0 1
    outer loop
      vertex -3.88899 -5.82029 -40
      vertex -3.82683 -9.2388 -40
      vertex -2.67878 -6.46716 -40
    endloop
  endfacet
  facet normal 0 0 1
    outer loop
      vertex -5.5557 -8.3147 -40
      vertex -3.88899 -5.82029 -40
      vertex -4.94975 -4.94975 -40
    endloop
  endfacet
  facet normal 0 0 1
    outer loop
      vertex -3.88899 -5.82029 -40
      vertex -5.5557 -8.3147 -40
      vertex -3.82683 -9.2388 -40
    endloop
  endfacet
  facet normal 0 0 1
    outer loop
      vertex -7.07107 -7.07107 -40
      vertex -4.94975 -4.94975 -40
      vertex -5.82029 -3.88899 -40
    endloop
  endfacet
  facet normal 0 0 1
    outer loop
      vertex -8.3147 -5.5557 -40
      vertex -5.82029 -3.88899 -40
      vertex -6.46716 -2.67878 -40
    endloop
  endfacet
  facet normal 0 0 1
    outer loop
      vertex -9.2388 -3.82683 -40
      vertex -6.46716 -2.67878 -40
      vertex -6.8655 -1.36563 -40
    endloop
  endfacet
  facet normal 0 0 1
    outer loop
      vertex -4.94975 -4.94975 -40
      vertex -7.07107 -7.07107 -40
      vertex -5.5557 -8.3147 -40
    endloop
  endfacet
  facet normal 0 0 1
    outer loop
      vertex -9.80785 -1.9509 -40
      vertex -6.8655 -1.36563 -40
      vertex -7 0 -40
    endloop
  endfacet
  facet normal 0 0 1
    outer loop
      vertex -6.46716 2.67878 -40
      vertex -9.2388 3.82683 -40
      vertex -6.8655 1.36563 -40
    endloop
  endfacet
  facet normal -0 0 1
    outer loop
      vertex -9.80785 1.9509 -40
      vertex -6.8655 1.36563 -40
      vertex -9.2388 3.82683 -40
    endloop
  endfacet
  facet normal 0 0 1
    outer loop
      vertex -5.82029 -3.88899 -40
      vertex -8.3147 -5.5557 -40
      vertex -7.07107 -7.07107 -40
    endloop
  endfacet
  facet normal 0 0 1
    outer loop
      vertex -6.8655 1.36563 -40
      vertex -9.80785 1.9509 -40
      vertex -7 0 -40
    endloop
  endfacet
  facet normal 0 0 1
    outer loop
      vertex -6.46716 -2.67878 -40
      vertex -9.2388 -3.82683 -40
      vertex -8.3147 -5.5557 -40
    endloop
  endfacet
  facet normal 0 0 1
    outer loop
      vertex -10 0 -40
      vertex -7 0 -40
      vertex -9.80785 1.9509 -40
    endloop
  endfacet
  facet normal 0 0 1
    outer loop
      vertex -6.8655 -1.36563 -40
      vertex -9.80785 -1.9509 -40
      vertex -9.2388 -3.82683 -40
    endloop
  endfacet
  facet normal 0 0 1
    outer loop
      vertex -7 0 -40
      vertex -10 0 -40
      vertex -9.80785 -1.9509 -40
    endloop
  endfacet
  facet normal -0.0980187 0.995185 0
    outer loop
      vertex 0 10 -50
      vertex -1.9509 9.80785 -40
      vertex 0 10 -40
    endloop
  endfacet
  facet normal -0.0980187 0.995185 0
    outer loop
      vertex -1.9509 9.80785 -40
      vertex 0 10 -50
      vertex -1.9509 9.80785 -50
    endloop
  endfacet
  facet normal -0.881921 0.471397 0
    outer loop
      vertex -9.2388 3.82683 -50
      vertex -8.3147 5.5557 -40
      vertex -8.3147 5.5557 -50
    endloop
  endfacet
  facet normal -0.881921 0.471397 0
    outer loop
      vertex -8.3147 5.5557 -40
      vertex -9.2388 3.82683 -50
      vertex -9.2388 3.82683 -40
    endloop
  endfacet
  facet normal -0.956941 -0.290281 0
    outer loop
      vertex -9.2388 -3.82683 -50
      vertex -9.80785 -1.9509 -40
      vertex -9.80785 -1.9509 -50
    endloop
  endfacet
  facet normal -0.956941 -0.290281 0
    outer loop
      vertex -9.80785 -1.9509 -40
      vertex -9.2388 -3.82683 -50
      vertex -9.2388 -3.82683 -40
    endloop
  endfacet
  facet normal -0.995185 -0.0980187 0
    outer loop
      vertex -9.80785 -1.9509 -50
      vertex -10 0 -40
      vertex -10 0 -50
    endloop
  endfacet
  facet normal -0.995185 -0.0980187 0
    outer loop
      vertex -10 0 -40
      vertex -9.80785 -1.9509 -50
      vertex -9.80785 -1.9509 -40
    endloop
  endfacet
  facet normal -0.773011 -0.634393 0
    outer loop
      vertex -7.07107 -7.07107 -50
      vertex -8.3147 -5.5557 -40
      vertex -8.3147 -5.5557 -50
    endloop
  endfacet
  facet normal -0.773011 -0.634393 0
    outer loop
      vertex -8.3147 -5.5557 -40
      vertex -7.07107 -7.07107 -50
      vertex -7.07107 -7.07107 -40
    endloop
  endfacet
  facet normal -0.471397 -0.881921 0
    outer loop
      vertex -5.5557 -8.3147 -50
      vertex -3.82683 -9.2388 -40
      vertex -5.5557 -8.3147 -40
    endloop
  endfacet
  facet normal -0.471397 -0.881921 -0
    outer loop
      vertex -3.82683 -9.2388 -40
      vertex -5.5557 -8.3147 -50
      vertex -3.82683 -9.2388 -50
    endloop
  endfacet
  facet normal -0.0980187 -0.995185 0
    outer loop
      vertex -1.9509 -9.80785 -50
      vertex 0 -10 -40
      vertex -1.9509 -9.80785 -40
    endloop
  endfacet
  facet normal -0.0980187 -0.995185 -0
    outer loop
      vertex 0 -10 -40
      vertex -1.9509 -9.80785 -50
      vertex 0 -10 -50
    endloop
  endfacet
  facet normal -0.290281 -0.956941 0
    outer loop
      vertex -3.82683 -9.2388 -50
      vertex -1.9509 -9.80785 -40
      vertex -3.82683 -9.2388 -40
    endloop
  endfacet
  facet normal -0.290281 -0.956941 -0
    outer loop
      vertex -1.9509 -9.80785 -40
      vertex -3.82683 -9.2388 -50
      vertex -1.9509 -9.80785 -50
    endloop
  endfacet
  facet normal -0.0980151 -0.995185 0
    outer loop
      vertex 0 7 0
      vertex 1.36563 6.8655 70
      vertex 0 7 70
    endloop
  endfacet
  facet normal -0.0980151 -0.995185 -0
    outer loop
      vertex 1.36563 6.8655 70
      vertex 0 7 0
      vertex 1.36563 6.8655 0
    endloop
  endfacet
  facet normal -0.95694 -0.290285 0
    outer loop
      vertex 6.8655 1.36563 0
      vertex 6.46716 2.67878 70
      vertex 6.46716 2.67878 0
    endloop
  endfacet
  facet normal -0.95694 -0.290285 0
    outer loop
      vertex 6.46716 2.67878 70
      vertex 6.8655 1.36563 0
      vertex 6.8655 1.36563 70
    endloop
  endfacet
  facet normal -0.995185 -0.0980151 0
    outer loop
      vertex 7 0 0
      vertex 6.8655 1.36563 70
      vertex 6.8655 1.36563 0
    endloop
  endfacet
  facet normal -0.995185 -0.0980151 0
    outer loop
      vertex 6.8655 1.36563 70
      vertex 7 0 0
      vertex 7 0 70
    endloop
  endfacet
  facet normal -0.881921 -0.471396 0
    outer loop
      vertex 6.46716 2.67878 0
      vertex 5.82029 3.88899 70
      vertex 5.82029 3.88899 0
    endloop
  endfacet
  facet normal -0.881921 -0.471396 0
    outer loop
      vertex 5.82029 3.88899 70
      vertex 6.46716 2.67878 0
      vertex 6.46716 2.67878 70
    endloop
  endfacet
  facet normal 0.634392 -0.773012 0
    outer loop
      vertex -4.94975 4.94975 0
      vertex -3.88899 5.82029 70
      vertex -4.94975 4.94975 70
    endloop
  endfacet
  facet normal 0.634392 -0.773012 0
    outer loop
      vertex -3.88899 5.82029 70
      vertex -4.94975 4.94975 0
      vertex -3.88899 5.82029 0
    endloop
  endfacet
  facet normal -0.773012 -0.634392 0
    outer loop
      vertex 5.82029 3.88899 0
      vertex 4.94975 4.94975 70
      vertex 4.94975 4.94975 0
    endloop
  endfacet
  facet normal -0.773012 -0.634392 0
    outer loop
      vertex 4.94975 4.94975 70
      vertex 5.82029 3.88899 0
      vertex 5.82029 3.88899 70
    endloop
  endfacet
  facet normal 0.773012 -0.634392 0
    outer loop
      vertex -5.82029 3.88899 70
      vertex -4.94975 4.94975 0
      vertex -4.94975 4.94975 70
    endloop
  endfacet
  facet normal 0.773012 -0.634392 0
    outer loop
      vertex -4.94975 4.94975 0
      vertex -5.82029 3.88899 70
      vertex -5.82029 3.88899 0
    endloop
  endfacet
  facet normal 0.881921 0.471396 0
    outer loop
      vertex -5.82029 -3.88899 70
      vertex -6.46716 -2.67878 0
      vertex -6.46716 -2.67878 70
    endloop
  endfacet
  facet normal 0.881921 0.471396 0
    outer loop
      vertex -6.46716 -2.67878 0
      vertex -5.82029 -3.88899 70
      vertex -5.82029 -3.88899 0
    endloop
  endfacet
  facet normal -0.881921 0.471396 0
    outer loop
      vertex 5.82029 -3.88899 0
      vertex 6.46716 -2.67878 70
      vertex 6.46716 -2.67878 0
    endloop
  endfacet
  facet normal -0.881921 0.471396 0
    outer loop
      vertex 6.46716 -2.67878 70
      vertex 5.82029 -3.88899 0
      vertex 5.82029 -3.88899 70
    endloop
  endfacet
  facet normal 0.290285 -0.95694 0
    outer loop
      vertex -2.67878 6.46716 0
      vertex -1.36563 6.8655 70
      vertex -2.67878 6.46716 70
    endloop
  endfacet
  facet normal 0.290285 -0.95694 0
    outer loop
      vertex -1.36563 6.8655 70
      vertex -2.67878 6.46716 0
      vertex -1.36563 6.8655 0
    endloop
  endfacet
  facet normal -0.290285 0.95694 0
    outer loop
      vertex 2.67878 -6.46716 0
      vertex 1.36563 -6.8655 70
      vertex 2.67878 -6.46716 70
    endloop
  endfacet
  facet normal -0.290285 0.95694 0
    outer loop
      vertex 1.36563 -6.8655 70
      vertex 2.67878 -6.46716 0
      vertex 1.36563 -6.8655 0
    endloop
  endfacet
  facet normal -0.634392 -0.773012 0
    outer loop
      vertex 3.88899 5.82029 0
      vertex 4.94975 4.94975 70
      vertex 3.88899 5.82029 70
    endloop
  endfacet
  facet normal -0.634392 -0.773012 -0
    outer loop
      vertex 4.94975 4.94975 70
      vertex 3.88899 5.82029 0
      vertex 4.94975 4.94975 0
    endloop
  endfacet
  facet normal 0.0980151 -0.995185 0
    outer loop
      vertex -1.36563 6.8655 0
      vertex 0 7 70
      vertex -1.36563 6.8655 70
    endloop
  endfacet
  facet normal 0.0980151 -0.995185 0
    outer loop
      vertex 0 7 70
      vertex -1.36563 6.8655 0
      vertex 0 7 0
    endloop
  endfacet
  facet normal -0.634392 0.773012 0
    outer loop
      vertex 4.94975 -4.94975 0
      vertex 3.88899 -5.82029 70
      vertex 4.94975 -4.94975 70
    endloop
  endfacet
  facet normal -0.634392 0.773012 0
    outer loop
      vertex 3.88899 -5.82029 70
      vertex 4.94975 -4.94975 0
      vertex 3.88899 -5.82029 0
    endloop
  endfacet
  facet normal -0.471396 0.881921 0
    outer loop
      vertex 3.88899 -5.82029 0
      vertex 2.67878 -6.46716 70
      vertex 3.88899 -5.82029 70
    endloop
  endfacet
  facet normal -0.471396 0.881921 0
    outer loop
      vertex 2.67878 -6.46716 70
      vertex 3.88899 -5.82029 0
      vertex 2.67878 -6.46716 0
    endloop
  endfacet
  facet normal 0.634392 0.773012 -0
    outer loop
      vertex -3.88899 -5.82029 0
      vertex -4.94975 -4.94975 70
      vertex -3.88899 -5.82029 70
    endloop
  endfacet
  facet normal 0.634392 0.773012 0
    outer loop
      vertex -4.94975 -4.94975 70
      vertex -3.88899 -5.82029 0
      vertex -4.94975 -4.94975 0
    endloop
  endfacet
  facet normal -0.773012 0.634392 0
    outer loop
      vertex 4.94975 -4.94975 0
      vertex 5.82029 -3.88899 70
      vertex 5.82029 -3.88899 0
    endloop
  endfacet
  facet normal -0.773012 0.634392 0
    outer loop
      vertex 5.82029 -3.88899 70
      vertex 4.94975 -4.94975 0
      vertex 4.94975 -4.94975 70
    endloop
  endfacet
  facet normal 0.995185 -0.0980151 0
    outer loop
      vertex -7 0 70
      vertex -6.8655 1.36563 0
      vertex -6.8655 1.36563 70
    endloop
  endfacet
  facet normal 0.995185 -0.0980151 0
    outer loop
      vertex -6.8655 1.36563 0
      vertex -7 0 70
      vertex -7 0 0
    endloop
  endfacet
  facet normal 0.471396 -0.881921 0
    outer loop
      vertex -3.88899 5.82029 0
      vertex -2.67878 6.46716 70
      vertex -3.88899 5.82029 70
    endloop
  endfacet
  facet normal 0.471396 -0.881921 0
    outer loop
      vertex -2.67878 6.46716 70
      vertex -3.88899 5.82029 0
      vertex -2.67878 6.46716 0
    endloop
  endfacet
  facet normal -0.471396 -0.881921 0
    outer loop
      vertex 2.67878 6.46716 0
      vertex 3.88899 5.82029 70
      vertex 2.67878 6.46716 70
    endloop
  endfacet
  facet normal -0.471396 -0.881921 -0
    outer loop
      vertex 3.88899 5.82029 70
      vertex 2.67878 6.46716 0
      vertex 3.88899 5.82029 0
    endloop
  endfacet
  facet normal -0.290285 -0.95694 0
    outer loop
      vertex 1.36563 6.8655 0
      vertex 2.67878 6.46716 70
      vertex 1.36563 6.8655 70
    endloop
  endfacet
  facet normal -0.290285 -0.95694 -0
    outer loop
      vertex 2.67878 6.46716 70
      vertex 1.36563 6.8655 0
      vertex 2.67878 6.46716 0
    endloop
  endfacet
  facet normal 0.95694 -0.290285 0
    outer loop
      vertex -6.8655 1.36563 70
      vertex -6.46716 2.67878 0
      vertex -6.46716 2.67878 70
    endloop
  endfacet
  facet normal 0.95694 -0.290285 0
    outer loop
      vertex -6.46716 2.67878 0
      vertex -6.8655 1.36563 70
      vertex -6.8655 1.36563 0
    endloop
  endfacet
  facet normal -0.0980151 0.995185 0
    outer loop
      vertex 1.36563 -6.8655 0
      vertex 0 -7 70
      vertex 1.36563 -6.8655 70
    endloop
  endfacet
  facet normal -0.0980151 0.995185 0
    outer loop
      vertex 0 -7 70
      vertex 1.36563 -6.8655 0
      vertex 0 -7 0
    endloop
  endfacet
  facet normal 0.881921 -0.471396 0
    outer loop
      vertex -6.46716 2.67878 70
      vertex -5.82029 3.88899 0
      vertex -5.82029 3.88899 70
    endloop
  endfacet
  facet normal 0.881921 -0.471396 0
    outer loop
      vertex -5.82029 3.88899 0
      vertex -6.46716 2.67878 70
      vertex -6.46716 2.67878 0
    endloop
  endfacet
  facet normal -0.95694 0.290285 0
    outer loop
      vertex 6.46716 -2.67878 0
      vertex 6.8655 -1.36563 70
      vertex 6.8655 -1.36563 0
    endloop
  endfacet
  facet normal -0.95694 0.290285 0
    outer loop
      vertex 6.8655 -1.36563 70
      vertex 6.46716 -2.67878 0
      vertex 6.46716 -2.67878 70
    endloop
  endfacet
  facet normal -0.995185 0.0980151 0
    outer loop
      vertex 6.8655 -1.36563 0
      vertex 7 0 70
      vertex 7 0 0
    endloop
  endfacet
  facet normal -0.995185 0.0980151 0
    outer loop
      vertex 7 0 70
      vertex 6.8655 -1.36563 0
      vertex 6.8655 -1.36563 70
    endloop
  endfacet
  facet normal 0.95694 0.290285 0
    outer loop
      vertex -6.46716 -2.67878 70
      vertex -6.8655 -1.36563 0
      vertex -6.8655 -1.36563 70
    endloop
  endfacet
  facet normal 0.95694 0.290285 0
    outer loop
      vertex -6.8655 -1.36563 0
      vertex -6.46716 -2.67878 70
      vertex -6.46716 -2.67878 0
    endloop
  endfacet
  facet normal 0.995185 0.0980151 0
    outer loop
      vertex -6.8655 -1.36563 70
      vertex -7 0 0
      vertex -7 0 70
    endloop
  endfacet
  facet normal 0.995185 0.0980151 0
    outer loop
      vertex -7 0 0
      vertex -6.8655 -1.36563 70
      vertex -6.8655 -1.36563 0
    endloop
  endfacet
  facet normal 0.773012 0.634392 0
    outer loop
      vertex -4.94975 -4.94975 70
      vertex -5.82029 -3.88899 0
      vertex -5.82029 -3.88899 70
    endloop
  endfacet
  facet normal 0.773012 0.634392 0
    outer loop
      vertex -5.82029 -3.88899 0
      vertex -4.94975 -4.94975 70
      vertex -4.94975 -4.94975 0
    endloop
  endfacet
  facet normal 0.471396 0.881921 -0
    outer loop
      vertex -2.67878 -6.46716 0
      vertex -3.88899 -5.82029 70
      vertex -2.67878 -6.46716 70
    endloop
  endfacet
  facet normal 0.471396 0.881921 0
    outer loop
      vertex -3.88899 -5.82029 70
      vertex -2.67878 -6.46716 0
      vertex -3.88899 -5.82029 0
    endloop
  endfacet
  facet normal 0.0980151 0.995185 -0
    outer loop
      vertex 0 -7 0
      vertex -1.36563 -6.8655 70
      vertex 0 -7 70
    endloop
  endfacet
  facet normal 0.0980151 0.995185 0
    outer loop
      vertex -1.36563 -6.8655 70
      vertex 0 -7 0
      vertex -1.36563 -6.8655 0
    endloop
  endfacet
  facet normal 0.290285 0.95694 -0
    outer loop
      vertex -1.36563 -6.8655 0
      vertex -2.67878 -6.46716 70
      vertex -1.36563 -6.8655 70
    endloop
  endfacet
  facet normal 0.290285 0.95694 0
    outer loop
      vertex -2.67878 -6.46716 70
      vertex -1.36563 -6.8655 0
      vertex -2.67878 -6.46716 0
    endloop
  endfacet
  facet normal -0.0980151 -0.995185 0
    outer loop
      vertex 0 7 -50
      vertex 1.36563 6.8655 -40
      vertex 0 7 -40
    endloop
  endfacet
  facet normal -0.0980151 -0.995185 -0
    outer loop
      vertex 1.36563 6.8655 -40
      vertex 0 7 -50
      vertex 1.36563 6.8655 -50
    endloop
  endfacet
  facet normal -0.95694 -0.290285 0
    outer loop
      vertex 6.8655 1.36563 -50
      vertex 6.46716 2.67878 -40
      vertex 6.46716 2.67878 -50
    endloop
  endfacet
  facet normal -0.95694 -0.290285 0
    outer loop
      vertex 6.46716 2.67878 -40
      vertex 6.8655 1.36563 -50
      vertex 6.8655 1.36563 -40
    endloop
  endfacet
  facet normal -0.995185 -0.0980151 0
    outer loop
      vertex 7 0 -50
      vertex 6.8655 1.36563 -40
      vertex 6.8655 1.36563 -50
    endloop
  endfacet
  facet normal -0.995185 -0.0980151 0
    outer loop
      vertex 6.8655 1.36563 -40
      vertex 7 0 -50
      vertex 7 0 -40
    endloop
  endfacet
  facet normal -0.881921 -0.471396 0
    outer loop
      vertex 6.46716 2.67878 -50
      vertex 5.82029 3.88899 -40
      vertex 5.82029 3.88899 -50
    endloop
  endfacet
  facet normal -0.881921 -0.471396 0
    outer loop
      vertex 5.82029 3.88899 -40
      vertex 6.46716 2.67878 -50
      vertex 6.46716 2.67878 -40
    endloop
  endfacet
  facet normal 0.634392 -0.773012 0
    outer loop
      vertex -4.94975 4.94975 -50
      vertex -3.88899 5.82029 -40
      vertex -4.94975 4.94975 -40
    endloop
  endfacet
  facet normal 0.634392 -0.773012 0
    outer loop
      vertex -3.88899 5.82029 -40
      vertex -4.94975 4.94975 -50
      vertex -3.88899 5.82029 -50
    endloop
  endfacet
  facet normal -0.773012 -0.634392 0
    outer loop
      vertex 5.82029 3.88899 -50
      vertex 4.94975 4.94975 -40
      vertex 4.94975 4.94975 -50
    endloop
  endfacet
  facet normal -0.773012 -0.634392 0
    outer loop
      vertex 4.94975 4.94975 -40
      vertex 5.82029 3.88899 -50
      vertex 5.82029 3.88899 -40
    endloop
  endfacet
  facet normal 0.773012 -0.634392 0
    outer loop
      vertex -5.82029 3.88899 -40
      vertex -4.94975 4.94975 -50
      vertex -4.94975 4.94975 -40
    endloop
  endfacet
  facet normal 0.773012 -0.634392 0
    outer loop
      vertex -4.94975 4.94975 -50
      vertex -5.82029 3.88899 -40
      vertex -5.82029 3.88899 -50
    endloop
  endfacet
  facet normal 0.881921 0.471396 0
    outer loop
      vertex -5.82029 -3.88899 -40
      vertex -6.46716 -2.67878 -50
      vertex -6.46716 -2.67878 -40
    endloop
  endfacet
  facet normal 0.881921 0.471396 0
    outer loop
      vertex -6.46716 -2.67878 -50
      vertex -5.82029 -3.88899 -40
      vertex -5.82029 -3.88899 -50
    endloop
  endfacet
  facet normal -0.881921 0.471396 0
    outer loop
      vertex 5.82029 -3.88899 -50
      vertex 6.46716 -2.67878 -40
      vertex 6.46716 -2.67878 -50
    endloop
  endfacet
  facet normal -0.881921 0.471396 0
    outer loop
      vertex 6.46716 -2.67878 -40
      vertex 5.82029 -3.88899 -50
      vertex 5.82029 -3.88899 -40
    endloop
  endfacet
  facet normal 0.290285 -0.95694 0
    outer loop
      vertex -2.67878 6.46716 -50
      vertex -1.36563 6.8655 -40
      vertex -2.67878 6.46716 -40
    endloop
  endfacet
  facet normal 0.290285 -0.95694 0
    outer loop
      vertex -1.36563 6.8655 -40
      vertex -2.67878 6.46716 -50
      vertex -1.36563 6.8655 -50
    endloop
  endfacet
  facet normal -0.290285 0.95694 0
    outer loop
      vertex 2.67878 -6.46716 -50
      vertex 1.36563 -6.8655 -40
      vertex 2.67878 -6.46716 -40
    endloop
  endfacet
  facet normal -0.290285 0.95694 0
    outer loop
      vertex 1.36563 -6.8655 -40
      vertex 2.67878 -6.46716 -50
      vertex 1.36563 -6.8655 -50
    endloop
  endfacet
  facet normal -0.634392 -0.773012 0
    outer loop
      vertex 3.88899 5.82029 -50
      vertex 4.94975 4.94975 -40
      vertex 3.88899 5.82029 -40
    endloop
  endfacet
  facet normal -0.634392 -0.773012 -0
    outer loop
      vertex 4.94975 4.94975 -40
      vertex 3.88899 5.82029 -50
      vertex 4.94975 4.94975 -50
    endloop
  endfacet
  facet normal -0.634392 0.773012 0
    outer loop
      vertex 4.94975 -4.94975 -50
      vertex 3.88899 -5.82029 -40
      vertex 4.94975 -4.94975 -40
    endloop
  endfacet
  facet normal -0.634392 0.773012 0
    outer loop
      vertex 3.88899 -5.82029 -40
      vertex 4.94975 -4.94975 -50
      vertex 3.88899 -5.82029 -50
    endloop
  endfacet
  facet normal -0.471396 0.881921 0
    outer loop
      vertex 3.88899 -5.82029 -50
      vertex 2.67878 -6.46716 -40
      vertex 3.88899 -5.82029 -40
    endloop
  endfacet
  facet normal -0.471396 0.881921 0
    outer loop
      vertex 2.67878 -6.46716 -40
      vertex 3.88899 -5.82029 -50
      vertex 2.67878 -6.46716 -50
    endloop
  endfacet
  facet normal 0.634392 0.773012 -0
    outer loop
      vertex -3.88899 -5.82029 -50
      vertex -4.94975 -4.94975 -40
      vertex -3.88899 -5.82029 -40
    endloop
  endfacet
  facet normal 0.634392 0.773012 0
    outer loop
      vertex -4.94975 -4.94975 -40
      vertex -3.88899 -5.82029 -50
      vertex -4.94975 -4.94975 -50
    endloop
  endfacet
  facet normal -0.773012 0.634392 0
    outer loop
      vertex 4.94975 -4.94975 -50
      vertex 5.82029 -3.88899 -40
      vertex 5.82029 -3.88899 -50
    endloop
  endfacet
  facet normal -0.773012 0.634392 0
    outer loop
      vertex 5.82029 -3.88899 -40
      vertex 4.94975 -4.94975 -50
      vertex 4.94975 -4.94975 -40
    endloop
  endfacet
  facet normal 0.995185 -0.0980151 0
    outer loop
      vertex -7 0 -40
      vertex -6.8655 1.36563 -50
      vertex -6.8655 1.36563 -40
    endloop
  endfacet
  facet normal 0.995185 -0.0980151 0
    outer loop
      vertex -6.8655 1.36563 -50
      vertex -7 0 -40
      vertex -7 0 -50
    endloop
  endfacet
  facet normal 0.471396 -0.881921 0
    outer loop
      vertex -3.88899 5.82029 -50
      vertex -2.67878 6.46716 -40
      vertex -3.88899 5.82029 -40
    endloop
  endfacet
  facet normal 0.471396 -0.881921 0
    outer loop
      vertex -2.67878 6.46716 -40
      vertex -3.88899 5.82029 -50
      vertex -2.67878 6.46716 -50
    endloop
  endfacet
  facet normal -0.471396 -0.881921 0
    outer loop
      vertex 2.67878 6.46716 -50
      vertex 3.88899 5.82029 -40
      vertex 2.67878 6.46716 -40
    endloop
  endfacet
  facet normal -0.471396 -0.881921 -0
    outer loop
      vertex 3.88899 5.82029 -40
      vertex 2.67878 6.46716 -50
      vertex 3.88899 5.82029 -50
    endloop
  endfacet
  facet normal -0.290285 -0.95694 0
    outer loop
      vertex 1.36563 6.8655 -50
      vertex 2.67878 6.46716 -40
      vertex 1.36563 6.8655 -40
    endloop
  endfacet
  facet normal -0.290285 -0.95694 -0
    outer loop
      vertex 2.67878 6.46716 -40
      vertex 1.36563 6.8655 -50
      vertex 2.67878 6.46716 -50
    endloop
  endfacet
  facet normal 0.95694 -0.290285 0
    outer loop
      vertex -6.8655 1.36563 -40
      vertex -6.46716 2.67878 -50
      vertex -6.46716 2.67878 -40
    endloop
  endfacet
  facet normal 0.95694 -0.290285 0
    outer loop
      vertex -6.46716 2.67878 -50
      vertex -6.8655 1.36563 -40
      vertex -6.8655 1.36563 -50
    endloop
  endfacet
  facet normal -0.0980151 0.995185 0
    outer loop
      vertex 1.36563 -6.8655 -50
      vertex 0 -7 -40
      vertex 1.36563 -6.8655 -40
    endloop
  endfacet
  facet normal -0.0980151 0.995185 0
    outer loop
      vertex 0 -7 -40
      vertex 1.36563 -6.8655 -50
      vertex 0 -7 -50
    endloop
  endfacet
  facet normal 0.0980151 -0.995185 0
    outer loop
      vertex -1.36563 6.8655 -50
      vertex 0 7 -40
      vertex -1.36563 6.8655 -40
    endloop
  endfacet
  facet normal 0.0980151 -0.995185 0
    outer loop
      vertex 0 7 -40
      vertex -1.36563 6.8655 -50
      vertex 0 7 -50
    endloop
  endfacet
  facet normal 0.881921 -0.471396 0
    outer loop
      vertex -6.46716 2.67878 -40
      vertex -5.82029 3.88899 -50
      vertex -5.82029 3.88899 -40
    endloop
  endfacet
  facet normal 0.881921 -0.471396 0
    outer loop
      vertex -5.82029 3.88899 -50
      vertex -6.46716 2.67878 -40
      vertex -6.46716 2.67878 -50
    endloop
  endfacet
  facet normal -0.95694 0.290285 0
    outer loop
      vertex 6.46716 -2.67878 -50
      vertex 6.8655 -1.36563 -40
      vertex 6.8655 -1.36563 -50
    endloop
  endfacet
  facet normal -0.95694 0.290285 0
    outer loop
      vertex 6.8655 -1.36563 -40
      vertex 6.46716 -2.67878 -50
      vertex 6.46716 -2.67878 -40
    endloop
  endfacet
  facet normal -0.995185 0.0980151 0
    outer loop
      vertex 6.8655 -1.36563 -50
      vertex 7 0 -40
      vertex 7 0 -50
    endloop
  endfacet
  facet normal -0.995185 0.0980151 0
    outer loop
      vertex 7 0 -40
      vertex 6.8655 -1.36563 -50
      vertex 6.8655 -1.36563 -40
    endloop
  endfacet
  facet normal 0.95694 0.290285 0
    outer loop
      vertex -6.46716 -2.67878 -40
      vertex -6.8655 -1.36563 -50
      vertex -6.8655 -1.36563 -40
    endloop
  endfacet
  facet normal 0.95694 0.290285 0
    outer loop
      vertex -6.8655 -1.36563 -50
      vertex -6.46716 -2.67878 -40
      vertex -6.46716 -2.67878 -50
    endloop
  endfacet
  facet normal 0.995185 0.0980151 0
    outer loop
      vertex -6.8655 -1.36563 -40
      vertex -7 0 -50
      vertex -7 0 -40
    endloop
  endfacet
  facet normal 0.995185 0.0980151 0
    outer loop
      vertex -7 0 -50
      vertex -6.8655 -1.36563 -40
      vertex -6.8655 -1.36563 -50
    endloop
  endfacet
  facet normal 0.773012 0.634392 0
    outer loop
      vertex -4.94975 -4.94975 -40
      vertex -5.82029 -3.88899 -50
      vertex -5.82029 -3.88899 -40
    endloop
  endfacet
  facet normal 0.773012 0.634392 0
    outer loop
      vertex -5.82029 -3.88899 -50
      vertex -4.94975 -4.94975 -40
      vertex -4.94975 -4.94975 -50
    endloop
  endfacet
  facet normal 0.471396 0.881921 -0
    outer loop
      vertex -2.67878 -6.46716 -50
      vertex -3.88899 -5.82029 -40
      vertex -2.67878 -6.46716 -40
    endloop
  endfacet
  facet normal 0.471396 0.881921 0
    outer loop
      vertex -3.88899 -5.82029 -40
      vertex -2.67878 -6.46716 -50
      vertex -3.88899 -5.82029 -50
    endloop
  endfacet
  facet normal 0.0980151 0.995185 -0
    outer loop
      vertex 0 -7 -50
      vertex -1.36563 -6.8655 -40
      vertex 0 -7 -40
    endloop
  endfacet
  facet normal 0.0980151 0.995185 0
    outer loop
      vertex -1.36563 -6.8655 -40
      vertex 0 -7 -50
      vertex -1.36563 -6.8655 -50
    endloop
  endfacet
  facet normal 0.290285 0.95694 -0
    outer loop
      vertex -1.36563 -6.8655 -50
      vertex -2.67878 -6.46716 -40
      vertex -1.36563 -6.8655 -40
    endloop
  endfacet
  facet normal 0.290285 0.95694 0
    outer loop
      vertex -2.67878 -6.46716 -40
      vertex -1.36563 -6.8655 -50
      vertex -2.67878 -6.46716 -50
    endloop
  endfacet
endsolid OpenSCAD_Model
