solid OpenSCAD_Model
  facet normal -0.707107 -0.707107 -0
    outer loop
      vertex -14.1421 0 5
      vertex -14.1421 0 -5
      vertex 0 -14.1421 5
    endloop
  endfacet
  facet normal -0.707108 0.707106 0
    outer loop
      vertex 14.1421 28.2843 5
      vertex 14.1421 28.2843 -5
      vertex -14.1421 0 5
    endloop
  endfacet
  facet normal 0 0 1
    outer loop
      vertex -14.1421 0 5
      vertex 28.2843 14.1421 5
      vertex 14.1421 28.2843 5
    endloop
  endfacet
  facet normal -0.707107 -0.707107 -0
    outer loop
      vertex 0 -14.1421 5
      vertex -14.1421 0 -5
      vertex 0 -14.1421 -5
    endloop
  endfacet
  facet normal 0 -0 1
    outer loop
      vertex 0 -14.1421 5
      vertex 28.2843 14.1421 5
      vertex -14.1421 0 5
    endloop
  endfacet
  facet normal 0.707107 0.707107 0
    outer loop
      vertex 28.2843 14.1421 5
      vertex 28.2843 14.1421 -5
      vertex 14.1421 28.2843 5
    endloop
  endfacet
  facet normal 0 -0 -1
    outer loop
      vertex 14.1421 28.2843 -5
      vertex 28.2843 14.1421 -5
      vertex -14.1421 0 -5
    endloop
  endfacet
  facet normal -0.707108 0.707106 0
    outer loop
      vertex -14.1421 0 5
      vertex 14.1421 28.2843 -5
      vertex -14.1421 0 -5
    endloop
  endfacet
  facet normal 0.707107 0.707107 0
    outer loop
      vertex 14.1421 28.2843 5
      vertex 28.2843 14.1421 -5
      vertex 14.1421 28.2843 -5
    endloop
  endfacet
  facet normal 0 0 -1
    outer loop
      vertex -14.1421 0 -5
      vertex 28.2843 14.1421 -5
      vertex 0 -14.1421 -5
    endloop
  endfacet
  facet normal 0.707106 -0.707108 0
    outer loop
      vertex 0 -14.1421 5
      vertex 28.2843 14.1421 -5
      vertex 28.2843 14.1421 5
    endloop
  endfacet
  facet normal 0.707106 -0.707108 0
    outer loop
      vertex 0 -14.1421 -5
      vertex 28.2843 14.1421 -5
      vertex 0 -14.1421 5
    endloop
  endfacet
endsolid OpenSCAD_Model
