solid OpenSCAD_Model
  facet normal 1 -0 0
    outer loop
      vertex 100 0 100
      vertex 100 100 0
      vertex 100 100 100
    endloop
  endfacet
  facet normal 1 0 0
    outer loop
      vertex 100 100 0
      vertex 100 0 100
      vertex 100 0 0
    endloop
  endfacet
  facet normal -0 0 1
    outer loop
      vertex 0 100 100
      vertex 100 0 100
      vertex 100 100 100
    endloop
  endfacet
  facet normal 0 0 1
    outer loop
      vertex 100 0 100
      vertex 0 100 100
      vertex 0 0 100
    endloop
  endfacet
  facet normal 0 0 -1
    outer loop
      vertex 100 0 0
      vertex 70.7107 70.7107 0
      vertex 100 100 0
    endloop
  endfacet
  facet normal 0 -0 -1
    outer loop
      vertex 70.7107 70.7107 0
      vertex 100 0 0
      vertex 0 0 0
    endloop
  endfacet
  facet normal -0 0 -1
    outer loop
      vertex 100 100 0
      vertex 70.7107 70.7107 0
      vertex 41.4214 100 0
    endloop
  endfacet
  facet normal -1 0 0
    outer loop
      vertex 0 0 99.9
      vertex 0 100 100
      vertex 0 100 99.9
    endloop
  endfacet
  facet normal -1 -0 0
    outer loop
      vertex 0 100 100
      vertex 0 0 99.9
      vertex 0 0 100
    endloop
  endfacet
  facet normal 0 1 0
    outer loop
      vertex 100 100 100
      vertex 41.4214 100 99.9
      vertex 0 100 100
    endloop
  endfacet
  facet normal 0 1 -0
    outer loop
      vertex 100 100 0
      vertex 41.4214 100 99.9
      vertex 100 100 100
    endloop
  endfacet
  facet normal 0 1 0
    outer loop
      vertex 41.4214 100 99.9
      vertex 100 100 0
      vertex 41.4214 100 0
    endloop
  endfacet
  facet normal 0 1 0
    outer loop
      vertex 0 100 100
      vertex 41.4214 100 99.9
      vertex 0 100 99.9
    endloop
  endfacet
  facet normal 0 -1 0
    outer loop
      vertex 0 0 99.9
      vertex 100 0 100
      vertex 0 0 100
    endloop
  endfacet
  facet normal 0 -1 0
    outer loop
      vertex 0 0 0
      vertex 100 0 100
      vertex 0 0 99.9
    endloop
  endfacet
  facet normal 0 -1 -0
    outer loop
      vertex 100 0 100
      vertex 0 0 0
      vertex 100 0 0
    endloop
  endfacet
  facet normal 0 0 -1
    outer loop
      vertex 0 0 99.9
      vertex 41.4214 100 99.9
      vertex 70.7107 70.7107 99.9
    endloop
  endfacet
  facet normal -0 0 -1
    outer loop
      vertex 41.4214 100 99.9
      vertex 0 0 99.9
      vertex 0 100 99.9
    endloop
  endfacet
  facet normal -0.707107 0.707107 0
    outer loop
      vertex 0 0 0
      vertex 70.7107 70.7107 99.9
      vertex 70.7107 70.7107 0
    endloop
  endfacet
  facet normal -0.707107 0.707107 0
    outer loop
      vertex 70.7107 70.7107 99.9
      vertex 0 0 0
      vertex 0 0 99.9
    endloop
  endfacet
  facet normal -0.707107 -0.707107 0
    outer loop
      vertex 70.7107 70.7107 0
      vertex 41.4214 100 99.9
      vertex 41.4214 100 0
    endloop
  endfacet
  facet normal -0.707107 -0.707107 0
    outer loop
      vertex 41.4214 100 99.9
      vertex 70.7107 70.7107 0
      vertex 70.7107 70.7107 99.9
    endloop
  endfacet
endsolid OpenSCAD_Model
