solid OpenSCAD_Model
  facet normal -0.555576 0.831465 0
    outer loop
      vertex -7.65367 18.4776 0
      vertex -14.1421 14.1421 5
      vertex -7.65367 18.4776 5
    endloop
  endfacet
  facet normal -0.555576 0.831465 0
    outer loop
      vertex -14.1421 14.1421 5
      vertex -7.65367 18.4776 0
      vertex -14.1421 14.1421 0
    endloop
  endfacet
  facet normal 0.831465 0.555576 0
    outer loop
      vertex 18.4776 7.65367 5
      vertex 14.1421 14.1421 0
      vertex 14.1421 14.1421 5
    endloop
  endfacet
  facet normal 0.831465 0.555576 0
    outer loop
      vertex 14.1421 14.1421 0
      vertex 18.4776 7.65367 5
      vertex 18.4776 7.65367 0
    endloop
  endfacet
  facet normal 0.980786 0.195089 0
    outer loop
      vertex 20 0 5
      vertex 18.4776 7.65367 0
      vertex 18.4776 7.65367 5
    endloop
  endfacet
  facet normal 0.980786 0.195089 0
    outer loop
      vertex 18.4776 7.65367 0
      vertex 20 0 5
      vertex 20 0 0
    endloop
  endfacet
  facet normal -0.831465 0.555576 0
    outer loop
      vertex -18.4776 7.65367 0
      vertex -14.1421 14.1421 5
      vertex -14.1421 14.1421 0
    endloop
  endfacet
  facet normal -0.831465 0.555576 0
    outer loop
      vertex -14.1421 14.1421 5
      vertex -18.4776 7.65367 0
      vertex -18.4776 7.65367 5
    endloop
  endfacet
  facet normal -0.195089 -0.980786 0
    outer loop
      vertex -7.65367 -18.4776 0
      vertex 0 -20 5
      vertex -7.65367 -18.4776 5
    endloop
  endfacet
  facet normal -0.195089 -0.980786 -0
    outer loop
      vertex 0 -20 5
      vertex -7.65367 -18.4776 0
      vertex 0 -20 0
    endloop
  endfacet
  facet normal 0.195089 -0.980786 0
    outer loop
      vertex 0 -20 0
      vertex 7.65367 -18.4776 5
      vertex 0 -20 5
    endloop
  endfacet
  facet normal 0.195089 -0.980786 0
    outer loop
      vertex 7.65367 -18.4776 5
      vertex 0 -20 0
      vertex 7.65367 -18.4776 0
    endloop
  endfacet
  facet normal 0.555576 -0.831465 0
    outer loop
      vertex 7.65367 -18.4776 0
      vertex 14.1421 -14.1421 5
      vertex 7.65367 -18.4776 5
    endloop
  endfacet
  facet normal 0.555576 -0.831465 0
    outer loop
      vertex 14.1421 -14.1421 5
      vertex 7.65367 -18.4776 0
      vertex 14.1421 -14.1421 0
    endloop
  endfacet
  facet normal 0.831465 -0.555576 0
    outer loop
      vertex 14.1421 -14.1421 5
      vertex 18.4776 -7.65367 0
      vertex 18.4776 -7.65367 5
    endloop
  endfacet
  facet normal 0.831465 -0.555576 0
    outer loop
      vertex 18.4776 -7.65367 0
      vertex 14.1421 -14.1421 5
      vertex 14.1421 -14.1421 0
    endloop
  endfacet
  facet normal -0.980786 0.195089 0
    outer loop
      vertex -20 0 0
      vertex -18.4776 7.65367 5
      vertex -18.4776 7.65367 0
    endloop
  endfacet
  facet normal -0.980786 0.195089 0
    outer loop
      vertex -18.4776 7.65367 5
      vertex -20 0 0
      vertex -20 0 5
    endloop
  endfacet
  facet normal 0.980786 -0.195089 0
    outer loop
      vertex 18.4776 -7.65367 5
      vertex 20 0 0
      vertex 20 0 5
    endloop
  endfacet
  facet normal 0.980786 -0.195089 0
    outer loop
      vertex 20 0 0
      vertex 18.4776 -7.65367 5
      vertex 18.4776 -7.65367 0
    endloop
  endfacet
  facet normal 0 0 -1
    outer loop
      vertex 18.4776 -7.65367 0
      vertex 18.5 0 0
      vertex 20 0 0
    endloop
  endfacet
  facet normal 0 0 -1
    outer loop
      vertex 18.4776 -7.65367 0
      vertex 17.0918 -7.07964 0
      vertex 18.5 0 0
    endloop
  endfacet
  facet normal 0 0 -1
    outer loop
      vertex 14.1421 -14.1421 0
      vertex 17.0918 -7.07964 0
      vertex 18.4776 -7.65367 0
    endloop
  endfacet
  facet normal 0 0 -1
    outer loop
      vertex 14.1421 -14.1421 0
      vertex 13.0815 -13.0815 0
      vertex 17.0918 -7.07964 0
    endloop
  endfacet
  facet normal 0 0 -1
    outer loop
      vertex 7.65367 -18.4776 0
      vertex 13.0815 -13.0815 0
      vertex 14.1421 -14.1421 0
    endloop
  endfacet
  facet normal 0 0 -1
    outer loop
      vertex 7.65367 -18.4776 0
      vertex 7.07964 -17.0918 0
      vertex 13.0815 -13.0815 0
    endloop
  endfacet
  facet normal 0 0 -1
    outer loop
      vertex 0 -20 0
      vertex 7.07964 -17.0918 0
      vertex 7.65367 -18.4776 0
    endloop
  endfacet
  facet normal 0 0 -1
    outer loop
      vertex 0 -20 0
      vertex 0 -18.5 0
      vertex 7.07964 -17.0918 0
    endloop
  endfacet
  facet normal 0 0 -1
    outer loop
      vertex 0 -20 0
      vertex -7.07964 -17.0918 0
      vertex 0 -18.5 0
    endloop
  endfacet
  facet normal 0 0 -1
    outer loop
      vertex -7.65367 -18.4776 0
      vertex -7.07964 -17.0918 0
      vertex 0 -20 0
    endloop
  endfacet
  facet normal 0 0 -1
    outer loop
      vertex -7.65367 -18.4776 0
      vertex -13.0815 -13.0815 0
      vertex -7.07964 -17.0918 0
    endloop
  endfacet
  facet normal 0 0 -1
    outer loop
      vertex -14.1421 -14.1421 0
      vertex -13.0815 -13.0815 0
      vertex -7.65367 -18.4776 0
    endloop
  endfacet
  facet normal 0 0 -1
    outer loop
      vertex -14.1421 -14.1421 0
      vertex -17.0918 -7.07964 0
      vertex -13.0815 -13.0815 0
    endloop
  endfacet
  facet normal 0 0 -1
    outer loop
      vertex -18.4776 -7.65367 0
      vertex -17.0918 -7.07964 0
      vertex -14.1421 -14.1421 0
    endloop
  endfacet
  facet normal 0 0 -1
    outer loop
      vertex -18.4776 -7.65367 0
      vertex -18.5 0 0
      vertex -17.0918 -7.07964 0
    endloop
  endfacet
  facet normal -0 -0 -1
    outer loop
      vertex -18.5 0 0
      vertex -18.4776 -7.65367 0
      vertex -20 0 0
    endloop
  endfacet
  facet normal 0 0 -1
    outer loop
      vertex 18.5 0 0
      vertex 18.4776 7.65367 0
      vertex 20 0 0
    endloop
  endfacet
  facet normal 0 0 -1
    outer loop
      vertex 17.0918 7.07964 0
      vertex 18.4776 7.65367 0
      vertex 18.5 0 0
    endloop
  endfacet
  facet normal 0 0 -1
    outer loop
      vertex 17.0918 7.07964 0
      vertex 14.1421 14.1421 0
      vertex 18.4776 7.65367 0
    endloop
  endfacet
  facet normal 0 0 -1
    outer loop
      vertex 13.0815 13.0815 0
      vertex 14.1421 14.1421 0
      vertex 17.0918 7.07964 0
    endloop
  endfacet
  facet normal 0 0 -1
    outer loop
      vertex 13.0815 13.0815 0
      vertex 7.65367 18.4776 0
      vertex 14.1421 14.1421 0
    endloop
  endfacet
  facet normal 0 0 -1
    outer loop
      vertex 7.07964 17.0918 0
      vertex 7.65367 18.4776 0
      vertex 13.0815 13.0815 0
    endloop
  endfacet
  facet normal 0 0 -1
    outer loop
      vertex 0 18.5 0
      vertex 7.65367 18.4776 0
      vertex 7.07964 17.0918 0
    endloop
  endfacet
  facet normal 0 0 -1
    outer loop
      vertex 0 18.5 0
      vertex 0 20 0
      vertex 7.65367 18.4776 0
    endloop
  endfacet
  facet normal 0 0 -1
    outer loop
      vertex -7.07964 17.0918 0
      vertex 0 20 0
      vertex 0 18.5 0
    endloop
  endfacet
  facet normal 0 0 -1
    outer loop
      vertex -7.07964 17.0918 0
      vertex -7.65367 18.4776 0
      vertex 0 20 0
    endloop
  endfacet
  facet normal 0 0 -1
    outer loop
      vertex -13.0815 13.0815 0
      vertex -7.65367 18.4776 0
      vertex -7.07964 17.0918 0
    endloop
  endfacet
  facet normal 0 0 -1
    outer loop
      vertex -13.0815 13.0815 0
      vertex -14.1421 14.1421 0
      vertex -7.65367 18.4776 0
    endloop
  endfacet
  facet normal 0 0 -1
    outer loop
      vertex -17.0918 7.07964 0
      vertex -14.1421 14.1421 0
      vertex -13.0815 13.0815 0
    endloop
  endfacet
  facet normal 0 0 -1
    outer loop
      vertex -17.0918 7.07964 0
      vertex -18.4776 7.65367 0
      vertex -14.1421 14.1421 0
    endloop
  endfacet
  facet normal 0 0 -1
    outer loop
      vertex -18.5 0 0
      vertex -18.4776 7.65367 0
      vertex -17.0918 7.07964 0
    endloop
  endfacet
  facet normal 0 0 -1
    outer loop
      vertex -18.4776 7.65367 0
      vertex -18.5 0 0
      vertex -20 0 0
    endloop
  endfacet
  facet normal -0.195089 0.980786 0
    outer loop
      vertex 0 20 0
      vertex -7.65367 18.4776 5
      vertex 0 20 5
    endloop
  endfacet
  facet normal -0.195089 0.980786 0
    outer loop
      vertex -7.65367 18.4776 5
      vertex 0 20 0
      vertex -7.65367 18.4776 0
    endloop
  endfacet
  facet normal 0.195089 0.980786 -0
    outer loop
      vertex 7.65367 18.4776 0
      vertex 0 20 5
      vertex 7.65367 18.4776 5
    endloop
  endfacet
  facet normal 0.195089 0.980786 0
    outer loop
      vertex 0 20 5
      vertex 7.65367 18.4776 0
      vertex 0 20 0
    endloop
  endfacet
  facet normal 0.555576 0.831465 -0
    outer loop
      vertex 14.1421 14.1421 0
      vertex 7.65367 18.4776 5
      vertex 14.1421 14.1421 5
    endloop
  endfacet
  facet normal 0.555576 0.831465 0
    outer loop
      vertex 7.65367 18.4776 5
      vertex 14.1421 14.1421 0
      vertex 7.65367 18.4776 0
    endloop
  endfacet
  facet normal -0.831465 -0.555576 0
    outer loop
      vertex -14.1421 -14.1421 0
      vertex -18.4776 -7.65367 5
      vertex -18.4776 -7.65367 0
    endloop
  endfacet
  facet normal -0.831465 -0.555576 0
    outer loop
      vertex -18.4776 -7.65367 5
      vertex -14.1421 -14.1421 0
      vertex -14.1421 -14.1421 5
    endloop
  endfacet
  facet normal 0 0 1
    outer loop
      vertex 18.4776 7.65367 5
      vertex 18.5 0 5
      vertex 20 0 5
    endloop
  endfacet
  facet normal 0 0 1
    outer loop
      vertex 18.4776 7.65367 5
      vertex 17.0918 7.07964 5
      vertex 18.5 0 5
    endloop
  endfacet
  facet normal 0 0 1
    outer loop
      vertex 14.1421 14.1421 5
      vertex 17.0918 7.07964 5
      vertex 18.4776 7.65367 5
    endloop
  endfacet
  facet normal 0 0 1
    outer loop
      vertex 14.1421 14.1421 5
      vertex 13.0815 13.0815 5
      vertex 17.0918 7.07964 5
    endloop
  endfacet
  facet normal 0 0 1
    outer loop
      vertex 7.65367 18.4776 5
      vertex 13.0815 13.0815 5
      vertex 14.1421 14.1421 5
    endloop
  endfacet
  facet normal 0 0 1
    outer loop
      vertex 7.65367 18.4776 5
      vertex 7.07964 17.0918 5
      vertex 13.0815 13.0815 5
    endloop
  endfacet
  facet normal 0 0 1
    outer loop
      vertex 0 20 5
      vertex 7.07964 17.0918 5
      vertex 7.65367 18.4776 5
    endloop
  endfacet
  facet normal 0 0 1
    outer loop
      vertex 0 20 5
      vertex 0 18.5 5
      vertex 7.07964 17.0918 5
    endloop
  endfacet
  facet normal 0 0 1
    outer loop
      vertex 0 20 5
      vertex -7.07964 17.0918 5
      vertex 0 18.5 5
    endloop
  endfacet
  facet normal -0 0 1
    outer loop
      vertex -7.65367 18.4776 5
      vertex -7.07964 17.0918 5
      vertex 0 20 5
    endloop
  endfacet
  facet normal 0 0 1
    outer loop
      vertex -7.65367 18.4776 5
      vertex -13.0815 13.0815 5
      vertex -7.07964 17.0918 5
    endloop
  endfacet
  facet normal -0 0 1
    outer loop
      vertex -14.1421 14.1421 5
      vertex -13.0815 13.0815 5
      vertex -7.65367 18.4776 5
    endloop
  endfacet
  facet normal 0 0 1
    outer loop
      vertex -14.1421 14.1421 5
      vertex -17.0918 7.07964 5
      vertex -13.0815 13.0815 5
    endloop
  endfacet
  facet normal -0 0 1
    outer loop
      vertex -18.4776 7.65367 5
      vertex -17.0918 7.07964 5
      vertex -14.1421 14.1421 5
    endloop
  endfacet
  facet normal 0 0 1
    outer loop
      vertex -18.4776 7.65367 5
      vertex -18.5 0 5
      vertex -17.0918 7.07964 5
    endloop
  endfacet
  facet normal 0 -0 1
    outer loop
      vertex -18.5 0 5
      vertex -18.4776 7.65367 5
      vertex -20 0 5
    endloop
  endfacet
  facet normal -0 0 1
    outer loop
      vertex 18.5 0 5
      vertex 18.4776 -7.65367 5
      vertex 20 0 5
    endloop
  endfacet
  facet normal -0 0 1
    outer loop
      vertex 17.0918 -7.07964 5
      vertex 18.4776 -7.65367 5
      vertex 18.5 0 5
    endloop
  endfacet
  facet normal 0 0 1
    outer loop
      vertex 17.0918 -7.07964 5
      vertex 14.1421 -14.1421 5
      vertex 18.4776 -7.65367 5
    endloop
  endfacet
  facet normal -0 0 1
    outer loop
      vertex 13.0815 -13.0815 5
      vertex 14.1421 -14.1421 5
      vertex 17.0918 -7.07964 5
    endloop
  endfacet
  facet normal 0 0 1
    outer loop
      vertex 13.0815 -13.0815 5
      vertex 7.65367 -18.4776 5
      vertex 14.1421 -14.1421 5
    endloop
  endfacet
  facet normal -0 0 1
    outer loop
      vertex 7.07964 -17.0918 5
      vertex 7.65367 -18.4776 5
      vertex 13.0815 -13.0815 5
    endloop
  endfacet
  facet normal 0 0 1
    outer loop
      vertex 0 -18.5 5
      vertex 7.65367 -18.4776 5
      vertex 7.07964 -17.0918 5
    endloop
  endfacet
  facet normal -0 0 1
    outer loop
      vertex 0 -18.5 5
      vertex 0 -20 5
      vertex 7.65367 -18.4776 5
    endloop
  endfacet
  facet normal 0 0 1
    outer loop
      vertex -7.07964 -17.0918 5
      vertex 0 -20 5
      vertex 0 -18.5 5
    endloop
  endfacet
  facet normal 0 0 1
    outer loop
      vertex -7.07964 -17.0918 5
      vertex -7.65367 -18.4776 5
      vertex 0 -20 5
    endloop
  endfacet
  facet normal 0 0 1
    outer loop
      vertex -13.0815 -13.0815 5
      vertex -7.65367 -18.4776 5
      vertex -7.07964 -17.0918 5
    endloop
  endfacet
  facet normal 0 0 1
    outer loop
      vertex -13.0815 -13.0815 5
      vertex -14.1421 -14.1421 5
      vertex -7.65367 -18.4776 5
    endloop
  endfacet
  facet normal 0 0 1
    outer loop
      vertex -17.0918 -7.07964 5
      vertex -14.1421 -14.1421 5
      vertex -13.0815 -13.0815 5
    endloop
  endfacet
  facet normal 0 0 1
    outer loop
      vertex -17.0918 -7.07964 5
      vertex -18.4776 -7.65367 5
      vertex -14.1421 -14.1421 5
    endloop
  endfacet
  facet normal 0 0 1
    outer loop
      vertex -18.5 0 5
      vertex -18.4776 -7.65367 5
      vertex -17.0918 -7.07964 5
    endloop
  endfacet
  facet normal 0 0 1
    outer loop
      vertex -18.4776 -7.65367 5
      vertex -18.5 0 5
      vertex -20 0 5
    endloop
  endfacet
  facet normal -0.980786 -0.195089 0
    outer loop
      vertex -18.4776 -7.65367 0
      vertex -20 0 5
      vertex -20 0 0
    endloop
  endfacet
  facet normal -0.980786 -0.195089 0
    outer loop
      vertex -20 0 5
      vertex -18.4776 -7.65367 0
      vertex -18.4776 -7.65367 5
    endloop
  endfacet
  facet normal -0.555576 -0.831465 0
    outer loop
      vertex -14.1421 -14.1421 0
      vertex -7.65367 -18.4776 5
      vertex -14.1421 -14.1421 5
    endloop
  endfacet
  facet normal -0.555576 -0.831465 -0
    outer loop
      vertex -7.65367 -18.4776 5
      vertex -14.1421 -14.1421 0
      vertex -7.65367 -18.4776 0
    endloop
  endfacet
  facet normal 0.555569 -0.831471 0
    outer loop
      vertex -13.0815 13.0815 0
      vertex -7.07964 17.0918 5
      vertex -13.0815 13.0815 5
    endloop
  endfacet
  facet normal 0.555569 -0.831471 0
    outer loop
      vertex -7.07964 17.0918 5
      vertex -13.0815 13.0815 0
      vertex -7.07964 17.0918 0
    endloop
  endfacet
  facet normal -0.831471 -0.555569 0
    outer loop
      vertex 17.0918 7.07964 0
      vertex 13.0815 13.0815 5
      vertex 13.0815 13.0815 0
    endloop
  endfacet
  facet normal -0.831471 -0.555569 0
    outer loop
      vertex 13.0815 13.0815 5
      vertex 17.0918 7.07964 0
      vertex 17.0918 7.07964 5
    endloop
  endfacet
  facet normal -0.980786 -0.195087 0
    outer loop
      vertex 18.5 0 0
      vertex 17.0918 7.07964 5
      vertex 17.0918 7.07964 0
    endloop
  endfacet
  facet normal -0.980786 -0.195087 0
    outer loop
      vertex 17.0918 7.07964 5
      vertex 18.5 0 0
      vertex 18.5 0 5
    endloop
  endfacet
  facet normal 0.831471 -0.555569 0
    outer loop
      vertex -17.0918 7.07964 5
      vertex -13.0815 13.0815 0
      vertex -13.0815 13.0815 5
    endloop
  endfacet
  facet normal 0.831471 -0.555569 0
    outer loop
      vertex -13.0815 13.0815 0
      vertex -17.0918 7.07964 5
      vertex -17.0918 7.07964 0
    endloop
  endfacet
  facet normal 0.195087 0.980786 -0
    outer loop
      vertex 0 -18.5 0
      vertex -7.07964 -17.0918 5
      vertex 0 -18.5 5
    endloop
  endfacet
  facet normal 0.195087 0.980786 0
    outer loop
      vertex -7.07964 -17.0918 5
      vertex 0 -18.5 0
      vertex -7.07964 -17.0918 0
    endloop
  endfacet
  facet normal -0.195087 0.980786 0
    outer loop
      vertex 7.07964 -17.0918 0
      vertex 0 -18.5 5
      vertex 7.07964 -17.0918 5
    endloop
  endfacet
  facet normal -0.195087 0.980786 0
    outer loop
      vertex 0 -18.5 5
      vertex 7.07964 -17.0918 0
      vertex 0 -18.5 0
    endloop
  endfacet
  facet normal -0.555569 0.831471 0
    outer loop
      vertex 13.0815 -13.0815 0
      vertex 7.07964 -17.0918 5
      vertex 13.0815 -13.0815 5
    endloop
  endfacet
  facet normal -0.555569 0.831471 0
    outer loop
      vertex 7.07964 -17.0918 5
      vertex 13.0815 -13.0815 0
      vertex 7.07964 -17.0918 0
    endloop
  endfacet
  facet normal -0.831471 0.555569 0
    outer loop
      vertex 13.0815 -13.0815 0
      vertex 17.0918 -7.07964 5
      vertex 17.0918 -7.07964 0
    endloop
  endfacet
  facet normal -0.831471 0.555569 0
    outer loop
      vertex 17.0918 -7.07964 5
      vertex 13.0815 -13.0815 0
      vertex 13.0815 -13.0815 5
    endloop
  endfacet
  facet normal 0.980786 -0.195087 0
    outer loop
      vertex -18.5 0 5
      vertex -17.0918 7.07964 0
      vertex -17.0918 7.07964 5
    endloop
  endfacet
  facet normal 0.980786 -0.195087 0
    outer loop
      vertex -17.0918 7.07964 0
      vertex -18.5 0 5
      vertex -18.5 0 0
    endloop
  endfacet
  facet normal -0.980786 0.195087 0
    outer loop
      vertex 17.0918 -7.07964 0
      vertex 18.5 0 5
      vertex 18.5 0 0
    endloop
  endfacet
  facet normal -0.980786 0.195087 0
    outer loop
      vertex 18.5 0 5
      vertex 17.0918 -7.07964 0
      vertex 17.0918 -7.07964 5
    endloop
  endfacet
  facet normal 0.195087 -0.980786 0
    outer loop
      vertex -7.07964 17.0918 0
      vertex 0 18.5 5
      vertex -7.07964 17.0918 5
    endloop
  endfacet
  facet normal 0.195087 -0.980786 0
    outer loop
      vertex 0 18.5 5
      vertex -7.07964 17.0918 0
      vertex 0 18.5 0
    endloop
  endfacet
  facet normal -0.195087 -0.980786 0
    outer loop
      vertex 0 18.5 0
      vertex 7.07964 17.0918 5
      vertex 0 18.5 5
    endloop
  endfacet
  facet normal -0.195087 -0.980786 -0
    outer loop
      vertex 7.07964 17.0918 5
      vertex 0 18.5 0
      vertex 7.07964 17.0918 0
    endloop
  endfacet
  facet normal -0.555569 -0.831471 0
    outer loop
      vertex 7.07964 17.0918 0
      vertex 13.0815 13.0815 5
      vertex 7.07964 17.0918 5
    endloop
  endfacet
  facet normal -0.555569 -0.831471 -0
    outer loop
      vertex 13.0815 13.0815 5
      vertex 7.07964 17.0918 0
      vertex 13.0815 13.0815 0
    endloop
  endfacet
  facet normal 0.831471 0.555569 0
    outer loop
      vertex -13.0815 -13.0815 5
      vertex -17.0918 -7.07964 0
      vertex -17.0918 -7.07964 5
    endloop
  endfacet
  facet normal 0.831471 0.555569 0
    outer loop
      vertex -17.0918 -7.07964 0
      vertex -13.0815 -13.0815 5
      vertex -13.0815 -13.0815 0
    endloop
  endfacet
  facet normal 0.980786 0.195087 0
    outer loop
      vertex -17.0918 -7.07964 5
      vertex -18.5 0 0
      vertex -18.5 0 5
    endloop
  endfacet
  facet normal 0.980786 0.195087 0
    outer loop
      vertex -18.5 0 0
      vertex -17.0918 -7.07964 5
      vertex -17.0918 -7.07964 0
    endloop
  endfacet
  facet normal 0.555569 0.831471 -0
    outer loop
      vertex -7.07964 -17.0918 0
      vertex -13.0815 -13.0815 5
      vertex -7.07964 -17.0918 5
    endloop
  endfacet
  facet normal 0.555569 0.831471 0
    outer loop
      vertex -13.0815 -13.0815 5
      vertex -7.07964 -17.0918 0
      vertex -13.0815 -13.0815 0
    endloop
  endfacet
endsolid OpenSCAD_Model
