solid OpenSCAD_Model
  facet normal 0.629316 -0.777149 0
    outer loop
      vertex 5.87785 -8.09017 0
      vertex 6.69131 -7.43145 5
      vertex 5.87785 -8.09017 5
    endloop
  endfacet
  facet normal 0.629316 -0.777149 0
    outer loop
      vertex 6.69131 -7.43145 5
      vertex 5.87785 -8.09017 0
      vertex 6.69131 -7.43145 0
    endloop
  endfacet
  facet normal 0.987689 0.156431 0
    outer loop
      vertex 9.94522 1.04528 5
      vertex 9.78148 2.07912 0
      vertex 9.78148 2.07912 5
    endloop
  endfacet
  facet normal 0.987689 0.156431 0
    outer loop
      vertex 9.78148 2.07912 0
      vertex 9.94522 1.04528 5
      vertex 9.94522 1.04528 0
    endloop
  endfacet
  facet normal 0.99863 0.0523352 0
    outer loop
      vertex 10 0 5
      vertex 9.94522 1.04528 0
      vertex 9.94522 1.04528 5
    endloop
  endfacet
  facet normal 0.99863 0.0523352 0
    outer loop
      vertex 9.94522 1.04528 0
      vertex 10 0 5
      vertex 10 0 0
    endloop
  endfacet
  facet normal 0.965923 0.258828 0
    outer loop
      vertex 9.78148 2.07912 5
      vertex 9.51056 3.09017 0
      vertex 9.51056 3.09017 5
    endloop
  endfacet
  facet normal 0.965923 0.258828 0
    outer loop
      vertex 9.51056 3.09017 0
      vertex 9.78148 2.07912 5
      vertex 9.78148 2.07912 0
    endloop
  endfacet
  facet normal 0.99863 -0.0523352 0
    outer loop
      vertex 9.94522 -1.04528 5
      vertex 10 0 0
      vertex 10 0 5
    endloop
  endfacet
  facet normal 0.99863 -0.0523352 0
    outer loop
      vertex 10 0 0
      vertex 9.94522 -1.04528 5
      vertex 9.94522 -1.04528 0
    endloop
  endfacet
  facet normal 0.777149 0.629316 0
    outer loop
      vertex 8.09017 5.87785 5
      vertex 7.43145 6.69131 0
      vertex 7.43145 6.69131 5
    endloop
  endfacet
  facet normal 0.777149 0.629316 0
    outer loop
      vertex 7.43145 6.69131 0
      vertex 8.09017 5.87785 5
      vertex 8.09017 5.87785 0
    endloop
  endfacet
  facet normal -0.453991 -0.891006 0
    outer loop
      vertex -5 -8.66025 0
      vertex -4.06737 -9.13545 5
      vertex -5 -8.66025 5
    endloop
  endfacet
  facet normal -0.453991 -0.891006 -0
    outer loop
      vertex -4.06737 -9.13545 5
      vertex -5 -8.66025 0
      vertex -4.06737 -9.13545 0
    endloop
  endfacet
  facet normal -0.987689 -0.156431 0
    outer loop
      vertex -9.78148 -2.07912 0
      vertex -9.94522 -1.04528 5
      vertex -9.94522 -1.04528 0
    endloop
  endfacet
  facet normal -0.987689 -0.156431 0
    outer loop
      vertex -9.94522 -1.04528 5
      vertex -9.78148 -2.07912 0
      vertex -9.78148 -2.07912 5
    endloop
  endfacet
  facet normal -0.965923 0.258828 0
    outer loop
      vertex -9.78148 2.07912 0
      vertex -9.51056 3.09017 5
      vertex -9.51056 3.09017 0
    endloop
  endfacet
  facet normal -0.965923 0.258828 0
    outer loop
      vertex -9.51056 3.09017 5
      vertex -9.78148 2.07912 0
      vertex -9.78148 2.07912 5
    endloop
  endfacet
  facet normal -0.544637 -0.838672 0
    outer loop
      vertex -5.87785 -8.09017 0
      vertex -5 -8.66025 5
      vertex -5.87785 -8.09017 5
    endloop
  endfacet
  facet normal -0.544637 -0.838672 -0
    outer loop
      vertex -5 -8.66025 5
      vertex -5.87785 -8.09017 0
      vertex -5 -8.66025 0
    endloop
  endfacet
  facet normal 0.258828 0.965923 -0
    outer loop
      vertex 3.09017 9.51056 0
      vertex 2.07912 9.78148 5
      vertex 3.09017 9.51056 5
    endloop
  endfacet
  facet normal 0.258828 0.965923 0
    outer loop
      vertex 2.07912 9.78148 5
      vertex 3.09017 9.51056 0
      vertex 2.07912 9.78148 0
    endloop
  endfacet
  facet normal 0.891006 0.453991 0
    outer loop
      vertex 9.13545 4.06737 5
      vertex 8.66025 5 0
      vertex 8.66025 5 5
    endloop
  endfacet
  facet normal 0.891006 0.453991 0
    outer loop
      vertex 8.66025 5 0
      vertex 9.13545 4.06737 5
      vertex 9.13545 4.06737 0
    endloop
  endfacet
  facet normal 0.0523352 -0.99863 0
    outer loop
      vertex 0 -10 0
      vertex 1.04528 -9.94522 5
      vertex 0 -10 5
    endloop
  endfacet
  facet normal 0.0523352 -0.99863 0
    outer loop
      vertex 1.04528 -9.94522 5
      vertex 0 -10 0
      vertex 1.04528 -9.94522 0
    endloop
  endfacet
  facet normal 0.358366 0.933581 -0
    outer loop
      vertex 4.06737 9.13545 0
      vertex 3.09017 9.51056 5
      vertex 4.06737 9.13545 5
    endloop
  endfacet
  facet normal 0.358366 0.933581 0
    outer loop
      vertex 3.09017 9.51056 5
      vertex 4.06737 9.13545 0
      vertex 3.09017 9.51056 0
    endloop
  endfacet
  facet normal 0.987689 -0.156431 0
    outer loop
      vertex 9.78148 -2.07912 5
      vertex 9.94522 -1.04528 0
      vertex 9.94522 -1.04528 5
    endloop
  endfacet
  facet normal 0.987689 -0.156431 0
    outer loop
      vertex 9.94522 -1.04528 0
      vertex 9.78148 -2.07912 5
      vertex 9.78148 -2.07912 0
    endloop
  endfacet
  facet normal 0.358366 -0.933581 0
    outer loop
      vertex 3.09017 -9.51056 0
      vertex 4.06737 -9.13545 5
      vertex 3.09017 -9.51056 5
    endloop
  endfacet
  facet normal 0.358366 -0.933581 0
    outer loop
      vertex 4.06737 -9.13545 5
      vertex 3.09017 -9.51056 0
      vertex 4.06737 -9.13545 0
    endloop
  endfacet
  facet normal -0.933581 0.358366 0
    outer loop
      vertex -9.51056 3.09017 0
      vertex -9.13545 4.06737 5
      vertex -9.13545 4.06737 0
    endloop
  endfacet
  facet normal -0.933581 0.358366 0
    outer loop
      vertex -9.13545 4.06737 5
      vertex -9.51056 3.09017 0
      vertex -9.51056 3.09017 5
    endloop
  endfacet
  facet normal -0.258828 0.965923 0
    outer loop
      vertex -2.07912 9.78148 0
      vertex -3.09017 9.51056 5
      vertex -2.07912 9.78148 5
    endloop
  endfacet
  facet normal -0.258828 0.965923 0
    outer loop
      vertex -3.09017 9.51056 5
      vertex -2.07912 9.78148 0
      vertex -3.09017 9.51056 0
    endloop
  endfacet
  facet normal 0 0 1
    outer loop
      vertex 9.94522 1.04528 5
      vertex 9.94522 -1.04528 5
      vertex 10 0 5
    endloop
  endfacet
  facet normal 0 0 1
    outer loop
      vertex 9.78148 2.07912 5
      vertex 9.94522 -1.04528 5
      vertex 9.94522 1.04528 5
    endloop
  endfacet
  facet normal 0 0 1
    outer loop
      vertex 9.78148 2.07912 5
      vertex 9.78148 -2.07912 5
      vertex 9.94522 -1.04528 5
    endloop
  endfacet
  facet normal 0 0 1
    outer loop
      vertex 9.51056 3.09017 5
      vertex 9.78148 -2.07912 5
      vertex 9.78148 2.07912 5
    endloop
  endfacet
  facet normal 0 0 1
    outer loop
      vertex 9.51056 3.09017 5
      vertex 9.51056 -3.09017 5
      vertex 9.78148 -2.07912 5
    endloop
  endfacet
  facet normal 0 0 1
    outer loop
      vertex 9.13545 4.06737 5
      vertex 9.51056 -3.09017 5
      vertex 9.51056 3.09017 5
    endloop
  endfacet
  facet normal 0 0 1
    outer loop
      vertex 9.13545 4.06737 5
      vertex 9.13545 -4.06737 5
      vertex 9.51056 -3.09017 5
    endloop
  endfacet
  facet normal 0 0 1
    outer loop
      vertex 8.66025 5 5
      vertex 9.13545 -4.06737 5
      vertex 9.13545 4.06737 5
    endloop
  endfacet
  facet normal 0 0 1
    outer loop
      vertex 8.66025 5 5
      vertex 8.66025 -5 5
      vertex 9.13545 -4.06737 5
    endloop
  endfacet
  facet normal 0 0 1
    outer loop
      vertex 8.09017 5.87785 5
      vertex 8.66025 -5 5
      vertex 8.66025 5 5
    endloop
  endfacet
  facet normal 0 0 1
    outer loop
      vertex 8.09017 5.87785 5
      vertex 8.09017 -5.87785 5
      vertex 8.66025 -5 5
    endloop
  endfacet
  facet normal 0 0 1
    outer loop
      vertex 7.43145 6.69131 5
      vertex 8.09017 -5.87785 5
      vertex 8.09017 5.87785 5
    endloop
  endfacet
  facet normal 0 0 1
    outer loop
      vertex 7.43145 6.69131 5
      vertex 7.43145 -6.69131 5
      vertex 8.09017 -5.87785 5
    endloop
  endfacet
  facet normal 0 0 1
    outer loop
      vertex 6.69131 7.43145 5
      vertex 7.43145 -6.69131 5
      vertex 7.43145 6.69131 5
    endloop
  endfacet
  facet normal 0 0 1
    outer loop
      vertex 6.69131 7.43145 5
      vertex 6.69131 -7.43145 5
      vertex 7.43145 -6.69131 5
    endloop
  endfacet
  facet normal 0 0 1
    outer loop
      vertex 5.87785 8.09017 5
      vertex 6.69131 -7.43145 5
      vertex 6.69131 7.43145 5
    endloop
  endfacet
  facet normal 0 0 1
    outer loop
      vertex 5.87785 8.09017 5
      vertex 5.87785 -8.09017 5
      vertex 6.69131 -7.43145 5
    endloop
  endfacet
  facet normal 0 0 1
    outer loop
      vertex 5 8.66025 5
      vertex 5.87785 -8.09017 5
      vertex 5.87785 8.09017 5
    endloop
  endfacet
  facet normal 0 0 1
    outer loop
      vertex 5 8.66025 5
      vertex 5 -8.66025 5
      vertex 5.87785 -8.09017 5
    endloop
  endfacet
  facet normal 0 0 1
    outer loop
      vertex 4.06737 9.13545 5
      vertex 5 -8.66025 5
      vertex 5 8.66025 5
    endloop
  endfacet
  facet normal 0 0 1
    outer loop
      vertex 4.06737 9.13545 5
      vertex 4.06737 -9.13545 5
      vertex 5 -8.66025 5
    endloop
  endfacet
  facet normal 0 0 1
    outer loop
      vertex 3.09017 9.51056 5
      vertex 4.06737 -9.13545 5
      vertex 4.06737 9.13545 5
    endloop
  endfacet
  facet normal 0 0 1
    outer loop
      vertex 3.09017 9.51056 5
      vertex 3.09017 -9.51056 5
      vertex 4.06737 -9.13545 5
    endloop
  endfacet
  facet normal 0 0 1
    outer loop
      vertex 2.07912 9.78148 5
      vertex 3.09017 -9.51056 5
      vertex 3.09017 9.51056 5
    endloop
  endfacet
  facet normal 0 0 1
    outer loop
      vertex 2.07912 9.78148 5
      vertex 2.07912 -9.78148 5
      vertex 3.09017 -9.51056 5
    endloop
  endfacet
  facet normal 0 0 1
    outer loop
      vertex 1.04528 9.94522 5
      vertex 2.07912 -9.78148 5
      vertex 2.07912 9.78148 5
    endloop
  endfacet
  facet normal 0 0 1
    outer loop
      vertex 1.04528 9.94522 5
      vertex 1.04528 -9.94522 5
      vertex 2.07912 -9.78148 5
    endloop
  endfacet
  facet normal 0 0 1
    outer loop
      vertex 0 10 5
      vertex 1.04528 -9.94522 5
      vertex 1.04528 9.94522 5
    endloop
  endfacet
  facet normal 0 0 1
    outer loop
      vertex 0 10 5
      vertex 0 -10 5
      vertex 1.04528 -9.94522 5
    endloop
  endfacet
  facet normal -0 0 1
    outer loop
      vertex -1.04528 9.94522 5
      vertex 0 -10 5
      vertex 0 10 5
    endloop
  endfacet
  facet normal 0 0 1
    outer loop
      vertex -1.04528 9.94522 5
      vertex -1.04528 -9.94522 5
      vertex 0 -10 5
    endloop
  endfacet
  facet normal -0 0 1
    outer loop
      vertex -2.07912 9.78148 5
      vertex -1.04528 -9.94522 5
      vertex -1.04528 9.94522 5
    endloop
  endfacet
  facet normal 0 0 1
    outer loop
      vertex -2.07912 9.78148 5
      vertex -2.07912 -9.78148 5
      vertex -1.04528 -9.94522 5
    endloop
  endfacet
  facet normal -0 0 1
    outer loop
      vertex -3.09017 9.51056 5
      vertex -2.07912 -9.78148 5
      vertex -2.07912 9.78148 5
    endloop
  endfacet
  facet normal 0 0 1
    outer loop
      vertex -3.09017 9.51056 5
      vertex -3.09017 -9.51056 5
      vertex -2.07912 -9.78148 5
    endloop
  endfacet
  facet normal -0 0 1
    outer loop
      vertex -4.06737 9.13545 5
      vertex -3.09017 -9.51056 5
      vertex -3.09017 9.51056 5
    endloop
  endfacet
  facet normal 0 0 1
    outer loop
      vertex -4.06737 9.13545 5
      vertex -4.06737 -9.13545 5
      vertex -3.09017 -9.51056 5
    endloop
  endfacet
  facet normal -0 0 1
    outer loop
      vertex -5 8.66025 5
      vertex -4.06737 -9.13545 5
      vertex -4.06737 9.13545 5
    endloop
  endfacet
  facet normal 0 0 1
    outer loop
      vertex -5 8.66025 5
      vertex -5 -8.66025 5
      vertex -4.06737 -9.13545 5
    endloop
  endfacet
  facet normal -0 0 1
    outer loop
      vertex -5.87785 8.09017 5
      vertex -5 -8.66025 5
      vertex -5 8.66025 5
    endloop
  endfacet
  facet normal 0 0 1
    outer loop
      vertex -5.87785 8.09017 5
      vertex -5.87785 -8.09017 5
      vertex -5 -8.66025 5
    endloop
  endfacet
  facet normal -0 0 1
    outer loop
      vertex -6.69131 7.43145 5
      vertex -5.87785 -8.09017 5
      vertex -5.87785 8.09017 5
    endloop
  endfacet
  facet normal 0 0 1
    outer loop
      vertex -6.69131 7.43145 5
      vertex -6.69131 -7.43145 5
      vertex -5.87785 -8.09017 5
    endloop
  endfacet
  facet normal -0 0 1
    outer loop
      vertex -7.43145 6.69131 5
      vertex -6.69131 -7.43145 5
      vertex -6.69131 7.43145 5
    endloop
  endfacet
  facet normal 0 0 1
    outer loop
      vertex -7.43145 6.69131 5
      vertex -7.43145 -6.69131 5
      vertex -6.69131 -7.43145 5
    endloop
  endfacet
  facet normal -0 0 1
    outer loop
      vertex -8.09017 5.87785 5
      vertex -7.43145 -6.69131 5
      vertex -7.43145 6.69131 5
    endloop
  endfacet
  facet normal 0 0 1
    outer loop
      vertex -8.09017 5.87785 5
      vertex -8.09017 -5.87785 5
      vertex -7.43145 -6.69131 5
    endloop
  endfacet
  facet normal -0 0 1
    outer loop
      vertex -8.66025 5 5
      vertex -8.09017 -5.87785 5
      vertex -8.09017 5.87785 5
    endloop
  endfacet
  facet normal 0 0 1
    outer loop
      vertex -8.66025 5 5
      vertex -8.66025 -5 5
      vertex -8.09017 -5.87785 5
    endloop
  endfacet
  facet normal -0 0 1
    outer loop
      vertex -9.13545 4.06737 5
      vertex -8.66025 -5 5
      vertex -8.66025 5 5
    endloop
  endfacet
  facet normal 0 0 1
    outer loop
      vertex -9.13545 4.06737 5
      vertex -9.13545 -4.06737 5
      vertex -8.66025 -5 5
    endloop
  endfacet
  facet normal -0 0 1
    outer loop
      vertex -9.51056 3.09017 5
      vertex -9.13545 -4.06737 5
      vertex -9.13545 4.06737 5
    endloop
  endfacet
  facet normal 0 0 1
    outer loop
      vertex -9.51056 3.09017 5
      vertex -9.51056 -3.09017 5
      vertex -9.13545 -4.06737 5
    endloop
  endfacet
  facet normal -0 0 1
    outer loop
      vertex -9.78148 2.07912 5
      vertex -9.51056 -3.09017 5
      vertex -9.51056 3.09017 5
    endloop
  endfacet
  facet normal 0 0 1
    outer loop
      vertex -9.78148 2.07912 5
      vertex -9.78148 -2.07912 5
      vertex -9.51056 -3.09017 5
    endloop
  endfacet
  facet normal -0 0 1
    outer loop
      vertex -9.94522 1.04528 5
      vertex -9.78148 -2.07912 5
      vertex -9.78148 2.07912 5
    endloop
  endfacet
  facet normal 0 0 1
    outer loop
      vertex -9.94522 1.04528 5
      vertex -9.94522 -1.04528 5
      vertex -9.78148 -2.07912 5
    endloop
  endfacet
  facet normal 0 -0 1
    outer loop
      vertex -9.94522 -1.04528 5
      vertex -9.94522 1.04528 5
      vertex -10 0 5
    endloop
  endfacet
  facet normal -0.707107 0.707107 0
    outer loop
      vertex -7.43145 6.69131 0
      vertex -6.69131 7.43145 5
      vertex -6.69131 7.43145 0
    endloop
  endfacet
  facet normal -0.707107 0.707107 0
    outer loop
      vertex -6.69131 7.43145 5
      vertex -7.43145 6.69131 0
      vertex -7.43145 6.69131 5
    endloop
  endfacet
  facet normal -0.965923 -0.258828 0
    outer loop
      vertex -9.51056 -3.09017 0
      vertex -9.78148 -2.07912 5
      vertex -9.78148 -2.07912 0
    endloop
  endfacet
  facet normal -0.965923 -0.258828 0
    outer loop
      vertex -9.78148 -2.07912 5
      vertex -9.51056 -3.09017 0
      vertex -9.51056 -3.09017 5
    endloop
  endfacet
  facet normal -0.544637 0.838672 0
    outer loop
      vertex -5 8.66025 0
      vertex -5.87785 8.09017 5
      vertex -5 8.66025 5
    endloop
  endfacet
  facet normal -0.544637 0.838672 0
    outer loop
      vertex -5.87785 8.09017 5
      vertex -5 8.66025 0
      vertex -5.87785 8.09017 0
    endloop
  endfacet
  facet normal -0.629316 0.777149 0
    outer loop
      vertex -5.87785 8.09017 0
      vertex -6.69131 7.43145 5
      vertex -5.87785 8.09017 5
    endloop
  endfacet
  facet normal -0.629316 0.777149 0
    outer loop
      vertex -6.69131 7.43145 5
      vertex -5.87785 8.09017 0
      vertex -6.69131 7.43145 0
    endloop
  endfacet
  facet normal -0.629316 -0.777149 0
    outer loop
      vertex -6.69131 -7.43145 0
      vertex -5.87785 -8.09017 5
      vertex -6.69131 -7.43145 5
    endloop
  endfacet
  facet normal -0.629316 -0.777149 -0
    outer loop
      vertex -5.87785 -8.09017 5
      vertex -6.69131 -7.43145 0
      vertex -5.87785 -8.09017 0
    endloop
  endfacet
  facet normal 0.629316 0.777149 -0
    outer loop
      vertex 6.69131 7.43145 0
      vertex 5.87785 8.09017 5
      vertex 6.69131 7.43145 5
    endloop
  endfacet
  facet normal 0.629316 0.777149 0
    outer loop
      vertex 5.87785 8.09017 5
      vertex 6.69131 7.43145 0
      vertex 5.87785 8.09017 0
    endloop
  endfacet
  facet normal 0.544637 0.838672 -0
    outer loop
      vertex 5.87785 8.09017 0
      vertex 5 8.66025 5
      vertex 5.87785 8.09017 5
    endloop
  endfacet
  facet normal 0.544637 0.838672 0
    outer loop
      vertex 5 8.66025 5
      vertex 5.87785 8.09017 0
      vertex 5 8.66025 0
    endloop
  endfacet
  facet normal 0.838672 0.544637 0
    outer loop
      vertex 8.66025 5 5
      vertex 8.09017 5.87785 0
      vertex 8.09017 5.87785 5
    endloop
  endfacet
  facet normal 0.838672 0.544637 0
    outer loop
      vertex 8.09017 5.87785 0
      vertex 8.66025 5 5
      vertex 8.66025 5 0
    endloop
  endfacet
  facet normal -0.156431 -0.987689 0
    outer loop
      vertex -2.07912 -9.78148 0
      vertex -1.04528 -9.94522 5
      vertex -2.07912 -9.78148 5
    endloop
  endfacet
  facet normal -0.156431 -0.987689 -0
    outer loop
      vertex -1.04528 -9.94522 5
      vertex -2.07912 -9.78148 0
      vertex -1.04528 -9.94522 0
    endloop
  endfacet
  facet normal 0.156431 -0.987689 0
    outer loop
      vertex 1.04528 -9.94522 0
      vertex 2.07912 -9.78148 5
      vertex 1.04528 -9.94522 5
    endloop
  endfacet
  facet normal 0.156431 -0.987689 0
    outer loop
      vertex 2.07912 -9.78148 5
      vertex 1.04528 -9.94522 0
      vertex 2.07912 -9.78148 0
    endloop
  endfacet
  facet normal -0.453991 0.891006 0
    outer loop
      vertex -4.06737 9.13545 0
      vertex -5 8.66025 5
      vertex -4.06737 9.13545 5
    endloop
  endfacet
  facet normal -0.453991 0.891006 0
    outer loop
      vertex -5 8.66025 5
      vertex -4.06737 9.13545 0
      vertex -5 8.66025 0
    endloop
  endfacet
  facet normal -0.358366 0.933581 0
    outer loop
      vertex -3.09017 9.51056 0
      vertex -4.06737 9.13545 5
      vertex -3.09017 9.51056 5
    endloop
  endfacet
  facet normal -0.358366 0.933581 0
    outer loop
      vertex -4.06737 9.13545 5
      vertex -3.09017 9.51056 0
      vertex -4.06737 9.13545 0
    endloop
  endfacet
  facet normal 0.453991 0.891006 -0
    outer loop
      vertex 5 8.66025 0
      vertex 4.06737 9.13545 5
      vertex 5 8.66025 5
    endloop
  endfacet
  facet normal 0.453991 0.891006 0
    outer loop
      vertex 4.06737 9.13545 5
      vertex 5 8.66025 0
      vertex 4.06737 9.13545 0
    endloop
  endfacet
  facet normal 0.838672 -0.544637 0
    outer loop
      vertex 8.09017 -5.87785 5
      vertex 8.66025 -5 0
      vertex 8.66025 -5 5
    endloop
  endfacet
  facet normal 0.838672 -0.544637 0
    outer loop
      vertex 8.66025 -5 0
      vertex 8.09017 -5.87785 5
      vertex 8.09017 -5.87785 0
    endloop
  endfacet
  facet normal 0.453991 -0.891006 0
    outer loop
      vertex 4.06737 -9.13545 0
      vertex 5 -8.66025 5
      vertex 4.06737 -9.13545 5
    endloop
  endfacet
  facet normal 0.453991 -0.891006 0
    outer loop
      vertex 5 -8.66025 5
      vertex 4.06737 -9.13545 0
      vertex 5 -8.66025 0
    endloop
  endfacet
  facet normal 0.777149 -0.629316 0
    outer loop
      vertex 7.43145 -6.69131 5
      vertex 8.09017 -5.87785 0
      vertex 8.09017 -5.87785 5
    endloop
  endfacet
  facet normal 0.777149 -0.629316 0
    outer loop
      vertex 8.09017 -5.87785 0
      vertex 7.43145 -6.69131 5
      vertex 7.43145 -6.69131 0
    endloop
  endfacet
  facet normal -0.156431 0.987689 0
    outer loop
      vertex -1.04528 9.94522 0
      vertex -2.07912 9.78148 5
      vertex -1.04528 9.94522 5
    endloop
  endfacet
  facet normal -0.156431 0.987689 0
    outer loop
      vertex -2.07912 9.78148 5
      vertex -1.04528 9.94522 0
      vertex -2.07912 9.78148 0
    endloop
  endfacet
  facet normal 0.965923 -0.258828 0
    outer loop
      vertex 9.51056 -3.09017 5
      vertex 9.78148 -2.07912 0
      vertex 9.78148 -2.07912 5
    endloop
  endfacet
  facet normal 0.965923 -0.258828 0
    outer loop
      vertex 9.78148 -2.07912 0
      vertex 9.51056 -3.09017 5
      vertex 9.51056 -3.09017 0
    endloop
  endfacet
  facet normal 0.933581 0.358366 0
    outer loop
      vertex 9.51056 3.09017 5
      vertex 9.13545 4.06737 0
      vertex 9.13545 4.06737 5
    endloop
  endfacet
  facet normal 0.933581 0.358366 0
    outer loop
      vertex 9.13545 4.06737 0
      vertex 9.51056 3.09017 5
      vertex 9.51056 3.09017 0
    endloop
  endfacet
  facet normal 0.933581 -0.358366 0
    outer loop
      vertex 9.13545 -4.06737 5
      vertex 9.51056 -3.09017 0
      vertex 9.51056 -3.09017 5
    endloop
  endfacet
  facet normal 0.933581 -0.358366 0
    outer loop
      vertex 9.51056 -3.09017 0
      vertex 9.13545 -4.06737 5
      vertex 9.13545 -4.06737 0
    endloop
  endfacet
  facet normal -0.0523352 0.99863 0
    outer loop
      vertex 0 10 0
      vertex -1.04528 9.94522 5
      vertex 0 10 5
    endloop
  endfacet
  facet normal -0.0523352 0.99863 0
    outer loop
      vertex -1.04528 9.94522 5
      vertex 0 10 0
      vertex -1.04528 9.94522 0
    endloop
  endfacet
  facet normal -0.777149 -0.629316 0
    outer loop
      vertex -7.43145 -6.69131 0
      vertex -8.09017 -5.87785 5
      vertex -8.09017 -5.87785 0
    endloop
  endfacet
  facet normal -0.777149 -0.629316 0
    outer loop
      vertex -8.09017 -5.87785 5
      vertex -7.43145 -6.69131 0
      vertex -7.43145 -6.69131 5
    endloop
  endfacet
  facet normal 0.707107 0.707107 0
    outer loop
      vertex 7.43145 6.69131 5
      vertex 6.69131 7.43145 0
      vertex 6.69131 7.43145 5
    endloop
  endfacet
  facet normal 0.707107 0.707107 0
    outer loop
      vertex 6.69131 7.43145 0
      vertex 7.43145 6.69131 5
      vertex 7.43145 6.69131 0
    endloop
  endfacet
  facet normal -0.933581 -0.358366 0
    outer loop
      vertex -9.13545 -4.06737 0
      vertex -9.51056 -3.09017 5
      vertex -9.51056 -3.09017 0
    endloop
  endfacet
  facet normal -0.933581 -0.358366 0
    outer loop
      vertex -9.51056 -3.09017 5
      vertex -9.13545 -4.06737 0
      vertex -9.13545 -4.06737 5
    endloop
  endfacet
  facet normal -0.987689 0.156431 0
    outer loop
      vertex -9.94522 1.04528 0
      vertex -9.78148 2.07912 5
      vertex -9.78148 2.07912 0
    endloop
  endfacet
  facet normal -0.987689 0.156431 0
    outer loop
      vertex -9.78148 2.07912 5
      vertex -9.94522 1.04528 0
      vertex -9.94522 1.04528 5
    endloop
  endfacet
  facet normal 0.0523352 0.99863 -0
    outer loop
      vertex 1.04528 9.94522 0
      vertex 0 10 5
      vertex 1.04528 9.94522 5
    endloop
  endfacet
  facet normal 0.0523352 0.99863 0
    outer loop
      vertex 0 10 5
      vertex 1.04528 9.94522 0
      vertex 0 10 0
    endloop
  endfacet
  facet normal -0.838672 0.544637 0
    outer loop
      vertex -8.66025 5 0
      vertex -8.09017 5.87785 5
      vertex -8.09017 5.87785 0
    endloop
  endfacet
  facet normal -0.838672 0.544637 0
    outer loop
      vertex -8.09017 5.87785 5
      vertex -8.66025 5 0
      vertex -8.66025 5 5
    endloop
  endfacet
  facet normal -0.891006 -0.453991 0
    outer loop
      vertex -8.66025 -5 0
      vertex -9.13545 -4.06737 5
      vertex -9.13545 -4.06737 0
    endloop
  endfacet
  facet normal -0.891006 -0.453991 0
    outer loop
      vertex -9.13545 -4.06737 5
      vertex -8.66025 -5 0
      vertex -8.66025 -5 5
    endloop
  endfacet
  facet normal 0.258828 -0.965923 0
    outer loop
      vertex 2.07912 -9.78148 0
      vertex 3.09017 -9.51056 5
      vertex 2.07912 -9.78148 5
    endloop
  endfacet
  facet normal 0.258828 -0.965923 0
    outer loop
      vertex 3.09017 -9.51056 5
      vertex 2.07912 -9.78148 0
      vertex 3.09017 -9.51056 0
    endloop
  endfacet
  facet normal -0.777149 0.629316 0
    outer loop
      vertex -8.09017 5.87785 0
      vertex -7.43145 6.69131 5
      vertex -7.43145 6.69131 0
    endloop
  endfacet
  facet normal -0.777149 0.629316 0
    outer loop
      vertex -7.43145 6.69131 5
      vertex -8.09017 5.87785 0
      vertex -8.09017 5.87785 5
    endloop
  endfacet
  facet normal -0.258828 -0.965923 0
    outer loop
      vertex -3.09017 -9.51056 0
      vertex -2.07912 -9.78148 5
      vertex -3.09017 -9.51056 5
    endloop
  endfacet
  facet normal -0.258828 -0.965923 -0
    outer loop
      vertex -2.07912 -9.78148 5
      vertex -3.09017 -9.51056 0
      vertex -2.07912 -9.78148 0
    endloop
  endfacet
  facet normal 0.891006 -0.453991 0
    outer loop
      vertex 8.66025 -5 5
      vertex 9.13545 -4.06737 0
      vertex 9.13545 -4.06737 5
    endloop
  endfacet
  facet normal 0.891006 -0.453991 0
    outer loop
      vertex 9.13545 -4.06737 0
      vertex 8.66025 -5 5
      vertex 8.66025 -5 0
    endloop
  endfacet
  facet normal -0.99863 -0.0523352 0
    outer loop
      vertex -9.94522 -1.04528 0
      vertex -10 0 5
      vertex -10 0 0
    endloop
  endfacet
  facet normal -0.99863 -0.0523352 0
    outer loop
      vertex -10 0 5
      vertex -9.94522 -1.04528 0
      vertex -9.94522 -1.04528 5
    endloop
  endfacet
  facet normal 0.156431 0.987689 -0
    outer loop
      vertex 2.07912 9.78148 0
      vertex 1.04528 9.94522 5
      vertex 2.07912 9.78148 5
    endloop
  endfacet
  facet normal 0.156431 0.987689 0
    outer loop
      vertex 1.04528 9.94522 5
      vertex 2.07912 9.78148 0
      vertex 1.04528 9.94522 0
    endloop
  endfacet
  facet normal -0.838672 -0.544637 0
    outer loop
      vertex -8.09017 -5.87785 0
      vertex -8.66025 -5 5
      vertex -8.66025 -5 0
    endloop
  endfacet
  facet normal -0.838672 -0.544637 0
    outer loop
      vertex -8.66025 -5 5
      vertex -8.09017 -5.87785 0
      vertex -8.09017 -5.87785 5
    endloop
  endfacet
  facet normal -0.891006 0.453991 0
    outer loop
      vertex -9.13545 4.06737 0
      vertex -8.66025 5 5
      vertex -8.66025 5 0
    endloop
  endfacet
  facet normal -0.891006 0.453991 0
    outer loop
      vertex -8.66025 5 5
      vertex -9.13545 4.06737 0
      vertex -9.13545 4.06737 5
    endloop
  endfacet
  facet normal 0.544637 -0.838672 0
    outer loop
      vertex 5 -8.66025 0
      vertex 5.87785 -8.09017 5
      vertex 5 -8.66025 5
    endloop
  endfacet
  facet normal 0.544637 -0.838672 0
    outer loop
      vertex 5.87785 -8.09017 5
      vertex 5 -8.66025 0
      vertex 5.87785 -8.09017 0
    endloop
  endfacet
  facet normal -0.707107 -0.707107 0
    outer loop
      vertex -6.69131 -7.43145 0
      vertex -7.43145 -6.69131 5
      vertex -7.43145 -6.69131 0
    endloop
  endfacet
  facet normal -0.707107 -0.707107 0
    outer loop
      vertex -7.43145 -6.69131 5
      vertex -6.69131 -7.43145 0
      vertex -6.69131 -7.43145 5
    endloop
  endfacet
  facet normal -0.358366 -0.933581 0
    outer loop
      vertex -4.06737 -9.13545 0
      vertex -3.09017 -9.51056 5
      vertex -4.06737 -9.13545 5
    endloop
  endfacet
  facet normal -0.358366 -0.933581 -0
    outer loop
      vertex -3.09017 -9.51056 5
      vertex -4.06737 -9.13545 0
      vertex -3.09017 -9.51056 0
    endloop
  endfacet
  facet normal -0.0523352 -0.99863 0
    outer loop
      vertex -1.04528 -9.94522 0
      vertex 0 -10 5
      vertex -1.04528 -9.94522 5
    endloop
  endfacet
  facet normal -0.0523352 -0.99863 -0
    outer loop
      vertex 0 -10 5
      vertex -1.04528 -9.94522 0
      vertex 0 -10 0
    endloop
  endfacet
  facet normal -0.99863 0.0523352 0
    outer loop
      vertex -10 0 0
      vertex -9.94522 1.04528 5
      vertex -9.94522 1.04528 0
    endloop
  endfacet
  facet normal -0.99863 0.0523352 0
    outer loop
      vertex -9.94522 1.04528 5
      vertex -10 0 0
      vertex -10 0 5
    endloop
  endfacet
  facet normal 0.707107 -0.707107 0
    outer loop
      vertex 6.69131 -7.43145 5
      vertex 7.43145 -6.69131 0
      vertex 7.43145 -6.69131 5
    endloop
  endfacet
  facet normal 0.707107 -0.707107 0
    outer loop
      vertex 7.43145 -6.69131 0
      vertex 6.69131 -7.43145 5
      vertex 6.69131 -7.43145 0
    endloop
  endfacet
  facet normal 0 0 -1
    outer loop
      vertex 9.94522 -1.04528 0
      vertex 9.94522 1.04528 0
      vertex 10 0 0
    endloop
  endfacet
  facet normal 0 0 -1
    outer loop
      vertex 9.78148 -2.07912 0
      vertex 9.94522 1.04528 0
      vertex 9.94522 -1.04528 0
    endloop
  endfacet
  facet normal 0 0 -1
    outer loop
      vertex 9.78148 -2.07912 0
      vertex 9.78148 2.07912 0
      vertex 9.94522 1.04528 0
    endloop
  endfacet
  facet normal 0 0 -1
    outer loop
      vertex 9.51056 -3.09017 0
      vertex 9.78148 2.07912 0
      vertex 9.78148 -2.07912 0
    endloop
  endfacet
  facet normal 0 0 -1
    outer loop
      vertex 9.51056 -3.09017 0
      vertex 9.51056 3.09017 0
      vertex 9.78148 2.07912 0
    endloop
  endfacet
  facet normal 0 0 -1
    outer loop
      vertex 9.13545 -4.06737 0
      vertex 9.51056 3.09017 0
      vertex 9.51056 -3.09017 0
    endloop
  endfacet
  facet normal 0 0 -1
    outer loop
      vertex 9.13545 -4.06737 0
      vertex 9.13545 4.06737 0
      vertex 9.51056 3.09017 0
    endloop
  endfacet
  facet normal 0 0 -1
    outer loop
      vertex 8.66025 -5 0
      vertex 9.13545 4.06737 0
      vertex 9.13545 -4.06737 0
    endloop
  endfacet
  facet normal 0 0 -1
    outer loop
      vertex 8.66025 -5 0
      vertex 8.66025 5 0
      vertex 9.13545 4.06737 0
    endloop
  endfacet
  facet normal 0 0 -1
    outer loop
      vertex 8.09017 -5.87785 0
      vertex 8.66025 5 0
      vertex 8.66025 -5 0
    endloop
  endfacet
  facet normal 0 0 -1
    outer loop
      vertex 8.09017 -5.87785 0
      vertex 8.09017 5.87785 0
      vertex 8.66025 5 0
    endloop
  endfacet
  facet normal 0 0 -1
    outer loop
      vertex 7.43145 -6.69131 0
      vertex 8.09017 5.87785 0
      vertex 8.09017 -5.87785 0
    endloop
  endfacet
  facet normal 0 0 -1
    outer loop
      vertex 7.43145 -6.69131 0
      vertex 7.43145 6.69131 0
      vertex 8.09017 5.87785 0
    endloop
  endfacet
  facet normal 0 0 -1
    outer loop
      vertex 6.69131 -7.43145 0
      vertex 7.43145 6.69131 0
      vertex 7.43145 -6.69131 0
    endloop
  endfacet
  facet normal 0 0 -1
    outer loop
      vertex 6.69131 -7.43145 0
      vertex 6.69131 7.43145 0
      vertex 7.43145 6.69131 0
    endloop
  endfacet
  facet normal 0 0 -1
    outer loop
      vertex 5.87785 -8.09017 0
      vertex 6.69131 7.43145 0
      vertex 6.69131 -7.43145 0
    endloop
  endfacet
  facet normal 0 0 -1
    outer loop
      vertex 5.87785 -8.09017 0
      vertex 5.87785 8.09017 0
      vertex 6.69131 7.43145 0
    endloop
  endfacet
  facet normal 0 0 -1
    outer loop
      vertex 5 -8.66025 0
      vertex 5.87785 8.09017 0
      vertex 5.87785 -8.09017 0
    endloop
  endfacet
  facet normal 0 0 -1
    outer loop
      vertex 5 -8.66025 0
      vertex 5 8.66025 0
      vertex 5.87785 8.09017 0
    endloop
  endfacet
  facet normal 0 0 -1
    outer loop
      vertex 4.06737 -9.13545 0
      vertex 5 8.66025 0
      vertex 5 -8.66025 0
    endloop
  endfacet
  facet normal 0 0 -1
    outer loop
      vertex 4.06737 -9.13545 0
      vertex 4.06737 9.13545 0
      vertex 5 8.66025 0
    endloop
  endfacet
  facet normal 0 0 -1
    outer loop
      vertex 3.09017 -9.51056 0
      vertex 4.06737 9.13545 0
      vertex 4.06737 -9.13545 0
    endloop
  endfacet
  facet normal 0 0 -1
    outer loop
      vertex 3.09017 -9.51056 0
      vertex 3.09017 9.51056 0
      vertex 4.06737 9.13545 0
    endloop
  endfacet
  facet normal 0 0 -1
    outer loop
      vertex 2.07912 -9.78148 0
      vertex 3.09017 9.51056 0
      vertex 3.09017 -9.51056 0
    endloop
  endfacet
  facet normal 0 0 -1
    outer loop
      vertex 2.07912 -9.78148 0
      vertex 2.07912 9.78148 0
      vertex 3.09017 9.51056 0
    endloop
  endfacet
  facet normal 0 0 -1
    outer loop
      vertex 1.04528 -9.94522 0
      vertex 2.07912 9.78148 0
      vertex 2.07912 -9.78148 0
    endloop
  endfacet
  facet normal 0 0 -1
    outer loop
      vertex 1.04528 -9.94522 0
      vertex 1.04528 9.94522 0
      vertex 2.07912 9.78148 0
    endloop
  endfacet
  facet normal 0 0 -1
    outer loop
      vertex 0 -10 0
      vertex 1.04528 9.94522 0
      vertex 1.04528 -9.94522 0
    endloop
  endfacet
  facet normal 0 0 -1
    outer loop
      vertex 0 -10 0
      vertex 0 10 0
      vertex 1.04528 9.94522 0
    endloop
  endfacet
  facet normal 0 0 -1
    outer loop
      vertex -1.04528 -9.94522 0
      vertex 0 10 0
      vertex 0 -10 0
    endloop
  endfacet
  facet normal 0 0 -1
    outer loop
      vertex -1.04528 -9.94522 0
      vertex -1.04528 9.94522 0
      vertex 0 10 0
    endloop
  endfacet
  facet normal 0 0 -1
    outer loop
      vertex -2.07912 -9.78148 0
      vertex -1.04528 9.94522 0
      vertex -1.04528 -9.94522 0
    endloop
  endfacet
  facet normal 0 0 -1
    outer loop
      vertex -2.07912 -9.78148 0
      vertex -2.07912 9.78148 0
      vertex -1.04528 9.94522 0
    endloop
  endfacet
  facet normal 0 0 -1
    outer loop
      vertex -3.09017 -9.51056 0
      vertex -2.07912 9.78148 0
      vertex -2.07912 -9.78148 0
    endloop
  endfacet
  facet normal 0 0 -1
    outer loop
      vertex -3.09017 -9.51056 0
      vertex -3.09017 9.51056 0
      vertex -2.07912 9.78148 0
    endloop
  endfacet
  facet normal 0 0 -1
    outer loop
      vertex -4.06737 -9.13545 0
      vertex -3.09017 9.51056 0
      vertex -3.09017 -9.51056 0
    endloop
  endfacet
  facet normal 0 0 -1
    outer loop
      vertex -4.06737 -9.13545 0
      vertex -4.06737 9.13545 0
      vertex -3.09017 9.51056 0
    endloop
  endfacet
  facet normal 0 0 -1
    outer loop
      vertex -5 -8.66025 0
      vertex -4.06737 9.13545 0
      vertex -4.06737 -9.13545 0
    endloop
  endfacet
  facet normal 0 0 -1
    outer loop
      vertex -5 -8.66025 0
      vertex -5 8.66025 0
      vertex -4.06737 9.13545 0
    endloop
  endfacet
  facet normal 0 0 -1
    outer loop
      vertex -5.87785 -8.09017 0
      vertex -5 8.66025 0
      vertex -5 -8.66025 0
    endloop
  endfacet
  facet normal 0 0 -1
    outer loop
      vertex -5.87785 -8.09017 0
      vertex -5.87785 8.09017 0
      vertex -5 8.66025 0
    endloop
  endfacet
  facet normal 0 0 -1
    outer loop
      vertex -6.69131 -7.43145 0
      vertex -5.87785 8.09017 0
      vertex -5.87785 -8.09017 0
    endloop
  endfacet
  facet normal 0 0 -1
    outer loop
      vertex -6.69131 -7.43145 0
      vertex -6.69131 7.43145 0
      vertex -5.87785 8.09017 0
    endloop
  endfacet
  facet normal 0 0 -1
    outer loop
      vertex -7.43145 -6.69131 0
      vertex -6.69131 7.43145 0
      vertex -6.69131 -7.43145 0
    endloop
  endfacet
  facet normal 0 0 -1
    outer loop
      vertex -7.43145 -6.69131 0
      vertex -7.43145 6.69131 0
      vertex -6.69131 7.43145 0
    endloop
  endfacet
  facet normal 0 0 -1
    outer loop
      vertex -8.09017 -5.87785 0
      vertex -7.43145 6.69131 0
      vertex -7.43145 -6.69131 0
    endloop
  endfacet
  facet normal 0 0 -1
    outer loop
      vertex -8.09017 -5.87785 0
      vertex -8.09017 5.87785 0
      vertex -7.43145 6.69131 0
    endloop
  endfacet
  facet normal 0 0 -1
    outer loop
      vertex -8.66025 -5 0
      vertex -8.09017 5.87785 0
      vertex -8.09017 -5.87785 0
    endloop
  endfacet
  facet normal 0 0 -1
    outer loop
      vertex -8.66025 -5 0
      vertex -8.66025 5 0
      vertex -8.09017 5.87785 0
    endloop
  endfacet
  facet normal 0 0 -1
    outer loop
      vertex -9.13545 -4.06737 0
      vertex -8.66025 5 0
      vertex -8.66025 -5 0
    endloop
  endfacet
  facet normal 0 0 -1
    outer loop
      vertex -9.13545 -4.06737 0
      vertex -9.13545 4.06737 0
      vertex -8.66025 5 0
    endloop
  endfacet
  facet normal 0 0 -1
    outer loop
      vertex -9.51056 -3.09017 0
      vertex -9.13545 4.06737 0
      vertex -9.13545 -4.06737 0
    endloop
  endfacet
  facet normal 0 0 -1
    outer loop
      vertex -9.51056 -3.09017 0
      vertex -9.51056 3.09017 0
      vertex -9.13545 4.06737 0
    endloop
  endfacet
  facet normal 0 0 -1
    outer loop
      vertex -9.78148 -2.07912 0
      vertex -9.51056 3.09017 0
      vertex -9.51056 -3.09017 0
    endloop
  endfacet
  facet normal 0 0 -1
    outer loop
      vertex -9.78148 -2.07912 0
      vertex -9.78148 2.07912 0
      vertex -9.51056 3.09017 0
    endloop
  endfacet
  facet normal 0 0 -1
    outer loop
      vertex -9.94522 -1.04528 0
      vertex -9.78148 2.07912 0
      vertex -9.78148 -2.07912 0
    endloop
  endfacet
  facet normal 0 0 -1
    outer loop
      vertex -9.94522 -1.04528 0
      vertex -9.94522 1.04528 0
      vertex -9.78148 2.07912 0
    endloop
  endfacet
  facet normal 0 -0 -1
    outer loop
      vertex -9.94522 1.04528 0
      vertex -9.94522 -1.04528 0
      vertex -10 0 0
    endloop
  endfacet
endsolid OpenSCAD_Model
