solid OpenSCAD_Model
  facet normal -0.951057 -0.309017 0
    outer loop
      vertex -2.42705 -1.76336 0
      vertex -3 0 20
      vertex -3 0 0
    endloop
  endfacet
  facet normal -0.951057 -0.309017 0
    outer loop
      vertex -3 0 20
      vertex -2.42705 -1.76336 0
      vertex -2.42705 -1.76336 20
    endloop
  endfacet
  facet normal 0.587784 0.809018 -0
    outer loop
      vertex 2.42705 1.76336 0
      vertex 0.927051 2.85317 20
      vertex 2.42705 1.76336 20
    endloop
  endfacet
  facet normal 0.587784 0.809018 0
    outer loop
      vertex 0.927051 2.85317 20
      vertex 2.42705 1.76336 0
      vertex 0.927051 2.85317 0
    endloop
  endfacet
  facet normal 0.951057 0.309017 0
    outer loop
      vertex 3 0 20
      vertex 2.42705 1.76336 0
      vertex 2.42705 1.76336 20
    endloop
  endfacet
  facet normal 0.951057 0.309017 0
    outer loop
      vertex 2.42705 1.76336 0
      vertex 3 0 20
      vertex 3 0 0
    endloop
  endfacet
  facet normal 0 1 -0
    outer loop
      vertex 0.927051 2.85317 0
      vertex -0.927051 2.85317 20
      vertex 0.927051 2.85317 20
    endloop
  endfacet
  facet normal 0 1 0
    outer loop
      vertex -0.927051 2.85317 20
      vertex 0.927051 2.85317 0
      vertex -0.927051 2.85317 0
    endloop
  endfacet
  facet normal 0.587784 -0.809018 0
    outer loop
      vertex 0.927051 -2.85317 0
      vertex 2.42705 -1.76336 20
      vertex 0.927051 -2.85317 20
    endloop
  endfacet
  facet normal 0.587784 -0.809018 0
    outer loop
      vertex 2.42705 -1.76336 20
      vertex 0.927051 -2.85317 0
      vertex 2.42705 -1.76336 0
    endloop
  endfacet
  facet normal 0 0 1
    outer loop
      vertex 2.4 0 20
      vertex 3 0 20
      vertex 2.42705 1.76336 20
    endloop
  endfacet
  facet normal 0 0 1
    outer loop
      vertex 3 0 20
      vertex 2.4 0 20
      vertex 2.42705 -1.76336 20
    endloop
  endfacet
  facet normal 0 0 1
    outer loop
      vertex 2.42705 1.76336 20
      vertex 1.69706 1.69706 20
      vertex 2.4 0 20
    endloop
  endfacet
  facet normal 0 0 1
    outer loop
      vertex 0.927051 2.85317 20
      vertex 1.69706 1.69706 20
      vertex 2.42705 1.76336 20
    endloop
  endfacet
  facet normal 0 0 1
    outer loop
      vertex 0.927051 2.85317 20
      vertex 0 2.4 20
      vertex 1.69706 1.69706 20
    endloop
  endfacet
  facet normal -0 0 1
    outer loop
      vertex -0.927051 2.85317 20
      vertex 0 2.4 20
      vertex 0.927051 2.85317 20
    endloop
  endfacet
  facet normal 0 0 1
    outer loop
      vertex -0.927051 2.85317 20
      vertex -1.69706 1.69706 20
      vertex 0 2.4 20
    endloop
  endfacet
  facet normal 0 0 1
    outer loop
      vertex -1.69706 1.69706 20
      vertex -2.42705 1.76336 20
      vertex -2.4 0 20
    endloop
  endfacet
  facet normal -0 0 1
    outer loop
      vertex -2.42705 1.76336 20
      vertex -1.69706 1.69706 20
      vertex -0.927051 2.85317 20
    endloop
  endfacet
  facet normal -0 0 1
    outer loop
      vertex 1.69706 -1.69706 20
      vertex 2.42705 -1.76336 20
      vertex 2.4 0 20
    endloop
  endfacet
  facet normal 0 0 1
    outer loop
      vertex 1.69706 -1.69706 20
      vertex 0.927051 -2.85317 20
      vertex 2.42705 -1.76336 20
    endloop
  endfacet
  facet normal -0 0 1
    outer loop
      vertex 0 -2.4 20
      vertex 0.927051 -2.85317 20
      vertex 1.69706 -1.69706 20
    endloop
  endfacet
  facet normal 0 0 1
    outer loop
      vertex 0 -2.4 20
      vertex -0.927051 -2.85317 20
      vertex 0.927051 -2.85317 20
    endloop
  endfacet
  facet normal 0 0 1
    outer loop
      vertex -1.69706 -1.69706 20
      vertex -0.927051 -2.85317 20
      vertex 0 -2.4 20
    endloop
  endfacet
  facet normal 0 0 1
    outer loop
      vertex -1.69706 -1.69706 20
      vertex -2.42705 -1.76336 20
      vertex -0.927051 -2.85317 20
    endloop
  endfacet
  facet normal 0 0 1
    outer loop
      vertex -2.4 0 20
      vertex -2.42705 -1.76336 20
      vertex -1.69706 -1.69706 20
    endloop
  endfacet
  facet normal 0 0 1
    outer loop
      vertex -3 0 20
      vertex -2.4 0 20
      vertex -2.42705 1.76336 20
    endloop
  endfacet
  facet normal 0 0 1
    outer loop
      vertex -2.4 0 20
      vertex -3 0 20
      vertex -2.42705 -1.76336 20
    endloop
  endfacet
  facet normal -0.587784 -0.809018 0
    outer loop
      vertex -2.42705 -1.76336 0
      vertex -0.927051 -2.85317 20
      vertex -2.42705 -1.76336 20
    endloop
  endfacet
  facet normal -0.587784 -0.809018 -0
    outer loop
      vertex -0.927051 -2.85317 20
      vertex -2.42705 -1.76336 0
      vertex -0.927051 -2.85317 0
    endloop
  endfacet
  facet normal 0.951057 -0.309017 0
    outer loop
      vertex 2.42705 -1.76336 20
      vertex 3 0 0
      vertex 3 0 20
    endloop
  endfacet
  facet normal 0.951057 -0.309017 0
    outer loop
      vertex 3 0 0
      vertex 2.42705 -1.76336 20
      vertex 2.42705 -1.76336 0
    endloop
  endfacet
  facet normal -0.587784 0.809018 0
    outer loop
      vertex -0.927051 2.85317 0
      vertex -2.42705 1.76336 20
      vertex -0.927051 2.85317 20
    endloop
  endfacet
  facet normal -0.587784 0.809018 0
    outer loop
      vertex -2.42705 1.76336 20
      vertex -0.927051 2.85317 0
      vertex -2.42705 1.76336 0
    endloop
  endfacet
  facet normal 0 -1 0
    outer loop
      vertex -0.927051 -2.85317 0
      vertex 0.927051 -2.85317 20
      vertex -0.927051 -2.85317 20
    endloop
  endfacet
  facet normal 0 -1 -0
    outer loop
      vertex 0.927051 -2.85317 20
      vertex -0.927051 -2.85317 0
      vertex 0.927051 -2.85317 0
    endloop
  endfacet
  facet normal -0.951057 0.309017 0
    outer loop
      vertex -3 0 0
      vertex -2.42705 1.76336 20
      vertex -2.42705 1.76336 0
    endloop
  endfacet
  facet normal -0.951057 0.309017 0
    outer loop
      vertex -2.42705 1.76336 20
      vertex -3 0 0
      vertex -3 0 20
    endloop
  endfacet
  facet normal 0 0 -1
    outer loop
      vertex 2.4 0 0
      vertex 3 0 0
      vertex 2.42705 -1.76336 0
    endloop
  endfacet
  facet normal 0 0 -1
    outer loop
      vertex 3 0 0
      vertex 2.4 0 0
      vertex 2.42705 1.76336 0
    endloop
  endfacet
  facet normal 0 0 -1
    outer loop
      vertex 2.42705 -1.76336 0
      vertex 1.69706 -1.69706 0
      vertex 2.4 0 0
    endloop
  endfacet
  facet normal 0 0 -1
    outer loop
      vertex 0.927051 -2.85317 0
      vertex 1.69706 -1.69706 0
      vertex 2.42705 -1.76336 0
    endloop
  endfacet
  facet normal 0 0 -1
    outer loop
      vertex 0.927051 -2.85317 0
      vertex 0 -2.4 0
      vertex 1.69706 -1.69706 0
    endloop
  endfacet
  facet normal 0 0 -1
    outer loop
      vertex -0.927051 -2.85317 0
      vertex 0 -2.4 0
      vertex 0.927051 -2.85317 0
    endloop
  endfacet
  facet normal 0 0 -1
    outer loop
      vertex -0.927051 -2.85317 0
      vertex -1.69706 -1.69706 0
      vertex 0 -2.4 0
    endloop
  endfacet
  facet normal -0 0 -1
    outer loop
      vertex -1.69706 -1.69706 0
      vertex -2.42705 -1.76336 0
      vertex -2.4 0 0
    endloop
  endfacet
  facet normal 0 0 -1
    outer loop
      vertex -2.42705 -1.76336 0
      vertex -1.69706 -1.69706 0
      vertex -0.927051 -2.85317 0
    endloop
  endfacet
  facet normal 0 0 -1
    outer loop
      vertex 1.69706 1.69706 0
      vertex 2.42705 1.76336 0
      vertex 2.4 0 0
    endloop
  endfacet
  facet normal 0 0 -1
    outer loop
      vertex 1.69706 1.69706 0
      vertex 0.927051 2.85317 0
      vertex 2.42705 1.76336 0
    endloop
  endfacet
  facet normal 0 0 -1
    outer loop
      vertex 0 2.4 0
      vertex 0.927051 2.85317 0
      vertex 1.69706 1.69706 0
    endloop
  endfacet
  facet normal 0 0 -1
    outer loop
      vertex 0 2.4 0
      vertex -0.927051 2.85317 0
      vertex 0.927051 2.85317 0
    endloop
  endfacet
  facet normal 0 0 -1
    outer loop
      vertex -1.69706 1.69706 0
      vertex -0.927051 2.85317 0
      vertex 0 2.4 0
    endloop
  endfacet
  facet normal 0 0 -1
    outer loop
      vertex -1.69706 1.69706 0
      vertex -2.42705 1.76336 0
      vertex -0.927051 2.85317 0
    endloop
  endfacet
  facet normal 0 0 -1
    outer loop
      vertex -2.4 0 0
      vertex -2.42705 1.76336 0
      vertex -1.69706 1.69706 0
    endloop
  endfacet
  facet normal 0 0 -1
    outer loop
      vertex -3 0 0
      vertex -2.4 0 0
      vertex -2.42705 -1.76336 0
    endloop
  endfacet
  facet normal 0 0 -1
    outer loop
      vertex -2.4 0 0
      vertex -3 0 0
      vertex -2.42705 1.76336 0
    endloop
  endfacet
  facet normal 0.923881 0.382681 0
    outer loop
      vertex -1.69706 -1.69706 20
      vertex -2.4 0 0
      vertex -2.4 0 20
    endloop
  endfacet
  facet normal 0.923881 0.382681 0
    outer loop
      vertex -2.4 0 0
      vertex -1.69706 -1.69706 20
      vertex -1.69706 -1.69706 0
    endloop
  endfacet
  facet normal -0.382681 -0.923881 0
    outer loop
      vertex 0 2.4 0
      vertex 1.69706 1.69706 20
      vertex 0 2.4 20
    endloop
  endfacet
  facet normal -0.382681 -0.923881 -0
    outer loop
      vertex 1.69706 1.69706 20
      vertex 0 2.4 0
      vertex 1.69706 1.69706 0
    endloop
  endfacet
  facet normal -0.923881 -0.382681 0
    outer loop
      vertex 2.4 0 0
      vertex 1.69706 1.69706 20
      vertex 1.69706 1.69706 0
    endloop
  endfacet
  facet normal -0.923881 -0.382681 0
    outer loop
      vertex 1.69706 1.69706 20
      vertex 2.4 0 0
      vertex 2.4 0 20
    endloop
  endfacet
  facet normal -0.923881 0.382681 0
    outer loop
      vertex 1.69706 -1.69706 0
      vertex 2.4 0 20
      vertex 2.4 0 0
    endloop
  endfacet
  facet normal -0.923881 0.382681 0
    outer loop
      vertex 2.4 0 20
      vertex 1.69706 -1.69706 0
      vertex 1.69706 -1.69706 20
    endloop
  endfacet
  facet normal 0.382681 0.923881 -0
    outer loop
      vertex 0 -2.4 0
      vertex -1.69706 -1.69706 20
      vertex 0 -2.4 20
    endloop
  endfacet
  facet normal 0.382681 0.923881 0
    outer loop
      vertex -1.69706 -1.69706 20
      vertex 0 -2.4 0
      vertex -1.69706 -1.69706 0
    endloop
  endfacet
  facet normal 0.382681 -0.923881 0
    outer loop
      vertex -1.69706 1.69706 0
      vertex 0 2.4 20
      vertex -1.69706 1.69706 20
    endloop
  endfacet
  facet normal 0.382681 -0.923881 0
    outer loop
      vertex 0 2.4 20
      vertex -1.69706 1.69706 0
      vertex 0 2.4 0
    endloop
  endfacet
  facet normal 0.923881 -0.382681 0
    outer loop
      vertex -2.4 0 20
      vertex -1.69706 1.69706 0
      vertex -1.69706 1.69706 20
    endloop
  endfacet
  facet normal 0.923881 -0.382681 0
    outer loop
      vertex -1.69706 1.69706 0
      vertex -2.4 0 20
      vertex -2.4 0 0
    endloop
  endfacet
  facet normal -0.382681 0.923881 0
    outer loop
      vertex 1.69706 -1.69706 0
      vertex 0 -2.4 20
      vertex 1.69706 -1.69706 20
    endloop
  endfacet
  facet normal -0.382681 0.923881 0
    outer loop
      vertex 0 -2.4 20
      vertex 1.69706 -1.69706 0
      vertex 0 -2.4 0
    endloop
  endfacet
endsolid OpenSCAD_Model
