solid OpenSCAD_Model
  facet normal 0 0 -1
    outer loop
      vertex 9.91445 1.30526 20
      vertex 75 0 20
      vertex 10 0 20
    endloop
  endfacet
  facet normal 0 0 -1
    outer loop
      vertex 9.65926 2.58819 20
      vertex 75 0 20
      vertex 9.91445 1.30526 20
    endloop
  endfacet
  facet normal 0 0 -1
    outer loop
      vertex 9.2388 3.82683 20
      vertex 75 0 20
      vertex 9.65926 2.58819 20
    endloop
  endfacet
  facet normal 0 0 -1
    outer loop
      vertex 8.66025 5 20
      vertex 75 0 20
      vertex 9.2388 3.82683 20
    endloop
  endfacet
  facet normal 0 0 -1
    outer loop
      vertex 7.93353 6.08761 20
      vertex 75 0 20
      vertex 8.66025 5 20
    endloop
  endfacet
  facet normal 0 0 -1
    outer loop
      vertex 7.07107 7.07107 20
      vertex 75 0 20
      vertex 7.93353 6.08761 20
    endloop
  endfacet
  facet normal 0 0 -1
    outer loop
      vertex 75 0 20
      vertex 7.07107 7.07107 20
      vertex 75 100 20
    endloop
  endfacet
  facet normal 0 0 -1
    outer loop
      vertex 6.08761 7.93353 20
      vertex 75 100 20
      vertex 7.07107 7.07107 20
    endloop
  endfacet
  facet normal 0 0 -1
    outer loop
      vertex 5 8.66025 20
      vertex 75 100 20
      vertex 6.08761 7.93353 20
    endloop
  endfacet
  facet normal 0 0 -1
    outer loop
      vertex 0 100 20
      vertex 5 8.66025 20
      vertex 3.82683 9.2388 20
    endloop
  endfacet
  facet normal 0 0 -1
    outer loop
      vertex 0 100 20
      vertex 3.82683 9.2388 20
      vertex 2.58819 9.65926 20
    endloop
  endfacet
  facet normal 0 0 -1
    outer loop
      vertex 0 100 20
      vertex 2.58819 9.65926 20
      vertex 1.30526 9.91445 20
    endloop
  endfacet
  facet normal 0 0 -1
    outer loop
      vertex 0 100 20
      vertex 1.30526 9.91445 20
      vertex 0 10 20
    endloop
  endfacet
  facet normal 0 0 -1
    outer loop
      vertex 5 8.66025 20
      vertex 0 100 20
      vertex 75 100 20
    endloop
  endfacet
  facet normal -1 0 0
    outer loop
      vertex 0 10 30
      vertex 0 100 20
      vertex 0 10 20
    endloop
  endfacet
  facet normal -1 0 0
    outer loop
      vertex 0 100 20
      vertex 0 10 30
      vertex 0 100 60
    endloop
  endfacet
  facet normal -1 0 0
    outer loop
      vertex 0 0 60
      vertex 0 10 30
      vertex 0 0 30
    endloop
  endfacet
  facet normal -1 0 0
    outer loop
      vertex 0 10 30
      vertex 0 0 60
      vertex 0 100 60
    endloop
  endfacet
  facet normal 0 -1 0
    outer loop
      vertex 10 0 30
      vertex 0 0 60
      vertex 0 0 30
    endloop
  endfacet
  facet normal 0 -1 0
    outer loop
      vertex 0 0 60
      vertex 10 0 30
      vertex 75 0 60
    endloop
  endfacet
  facet normal 0 -1 0
    outer loop
      vertex 75 0 20
      vertex 10 0 30
      vertex 10 0 20
    endloop
  endfacet
  facet normal 0 -1 0
    outer loop
      vertex 10 0 30
      vertex 75 0 20
      vertex 75 0 60
    endloop
  endfacet
  facet normal 1 -0 0
    outer loop
      vertex 75 0 60
      vertex 75 100 20
      vertex 75 100 60
    endloop
  endfacet
  facet normal 1 0 0
    outer loop
      vertex 75 100 20
      vertex 75 0 60
      vertex 75 0 20
    endloop
  endfacet
  facet normal -0 0 1
    outer loop
      vertex 0 100 60
      vertex 75 0 60
      vertex 75 100 60
    endloop
  endfacet
  facet normal 0 0 1
    outer loop
      vertex 75 0 60
      vertex 0 100 60
      vertex 0 0 60
    endloop
  endfacet
  facet normal 0 1 -0
    outer loop
      vertex 75 100 20
      vertex 0 100 60
      vertex 75 100 60
    endloop
  endfacet
  facet normal 0 1 0
    outer loop
      vertex 0 100 60
      vertex 75 100 20
      vertex 0 100 20
    endloop
  endfacet
  facet normal -0.980785 -0.19509 0
    outer loop
      vertex 9.91445 1.30526 20
      vertex 9.65926 2.58819 30
      vertex 9.65926 2.58819 20
    endloop
  endfacet
  facet normal -0.980785 -0.19509 0
    outer loop
      vertex 9.65926 2.58819 30
      vertex 9.91445 1.30526 20
      vertex 9.91445 1.30526 30
    endloop
  endfacet
  facet normal -0.997859 -0.0654022 0
    outer loop
      vertex 10 0 20
      vertex 9.91445 1.30526 30
      vertex 9.91445 1.30526 20
    endloop
  endfacet
  facet normal -0.997859 -0.0654022 0
    outer loop
      vertex 9.91445 1.30526 30
      vertex 10 0 20
      vertex 10 0 30
    endloop
  endfacet
  facet normal -0.946931 -0.321438 0
    outer loop
      vertex 9.65926 2.58819 20
      vertex 9.2388 3.82683 30
      vertex 9.2388 3.82683 20
    endloop
  endfacet
  facet normal -0.946931 -0.321438 0
    outer loop
      vertex 9.2388 3.82683 30
      vertex 9.65926 2.58819 20
      vertex 9.65926 2.58819 30
    endloop
  endfacet
  facet normal -0.321438 -0.946931 0
    outer loop
      vertex 2.58819 9.65926 20
      vertex 3.82683 9.2388 30
      vertex 2.58819 9.65926 30
    endloop
  endfacet
  facet normal -0.321438 -0.946931 -0
    outer loop
      vertex 3.82683 9.2388 30
      vertex 2.58819 9.65926 20
      vertex 3.82683 9.2388 20
    endloop
  endfacet
  facet normal -0.19509 -0.980785 0
    outer loop
      vertex 1.30526 9.91445 20
      vertex 2.58819 9.65926 30
      vertex 1.30526 9.91445 30
    endloop
  endfacet
  facet normal -0.19509 -0.980785 -0
    outer loop
      vertex 2.58819 9.65926 30
      vertex 1.30526 9.91445 20
      vertex 2.58819 9.65926 20
    endloop
  endfacet
  facet normal -0.896871 -0.442293 0
    outer loop
      vertex 9.2388 3.82683 20
      vertex 8.66025 5 30
      vertex 8.66025 5 20
    endloop
  endfacet
  facet normal -0.896871 -0.442293 0
    outer loop
      vertex 8.66025 5 30
      vertex 9.2388 3.82683 20
      vertex 9.2388 3.82683 30
    endloop
  endfacet
  facet normal -0.659341 -0.751844 0
    outer loop
      vertex 6.08761 7.93353 20
      vertex 7.07107 7.07107 30
      vertex 6.08761 7.93353 30
    endloop
  endfacet
  facet normal -0.659341 -0.751844 -0
    outer loop
      vertex 7.07107 7.07107 30
      vertex 6.08761 7.93353 20
      vertex 7.07107 7.07107 20
    endloop
  endfacet
  facet normal -0.751844 -0.659341 0
    outer loop
      vertex 7.93353 6.08761 20
      vertex 7.07107 7.07107 30
      vertex 7.07107 7.07107 20
    endloop
  endfacet
  facet normal -0.751844 -0.659341 0
    outer loop
      vertex 7.07107 7.07107 30
      vertex 7.93353 6.08761 20
      vertex 7.93353 6.08761 30
    endloop
  endfacet
  facet normal 0 0 -1
    outer loop
      vertex 0 0 30
      vertex 9.91445 1.30526 30
      vertex 10 0 30
    endloop
  endfacet
  facet normal -0 0 -1
    outer loop
      vertex 9.91445 1.30526 30
      vertex 0 0 30
      vertex 9.65926 2.58819 30
    endloop
  endfacet
  facet normal -0 0 -1
    outer loop
      vertex 9.65926 2.58819 30
      vertex 0 0 30
      vertex 9.2388 3.82683 30
    endloop
  endfacet
  facet normal -0 0 -1
    outer loop
      vertex 9.2388 3.82683 30
      vertex 0 0 30
      vertex 8.66025 5 30
    endloop
  endfacet
  facet normal -0 0 -1
    outer loop
      vertex 8.66025 5 30
      vertex 0 0 30
      vertex 7.93353 6.08761 30
    endloop
  endfacet
  facet normal -0 0 -1
    outer loop
      vertex 7.93353 6.08761 30
      vertex 0 0 30
      vertex 7.07107 7.07107 30
    endloop
  endfacet
  facet normal -0 0 -1
    outer loop
      vertex 7.07107 7.07107 30
      vertex 0 0 30
      vertex 6.08761 7.93353 30
    endloop
  endfacet
  facet normal -0 0 -1
    outer loop
      vertex 6.08761 7.93353 30
      vertex 0 0 30
      vertex 5 8.66025 30
    endloop
  endfacet
  facet normal -0 0 -1
    outer loop
      vertex 5 8.66025 30
      vertex 0 0 30
      vertex 3.82683 9.2388 30
    endloop
  endfacet
  facet normal -0 0 -1
    outer loop
      vertex 3.82683 9.2388 30
      vertex 0 0 30
      vertex 2.58819 9.65926 30
    endloop
  endfacet
  facet normal -0 0 -1
    outer loop
      vertex 2.58819 9.65926 30
      vertex 0 0 30
      vertex 1.30526 9.91445 30
    endloop
  endfacet
  facet normal -0 0 -1
    outer loop
      vertex 1.30526 9.91445 30
      vertex 0 0 30
      vertex 0 10 30
    endloop
  endfacet
  facet normal -0.555571 -0.831469 0
    outer loop
      vertex 5 8.66025 20
      vertex 6.08761 7.93353 30
      vertex 5 8.66025 30
    endloop
  endfacet
  facet normal -0.555571 -0.831469 -0
    outer loop
      vertex 6.08761 7.93353 30
      vertex 5 8.66025 20
      vertex 6.08761 7.93353 20
    endloop
  endfacet
  facet normal -0.442293 -0.896871 0
    outer loop
      vertex 3.82683 9.2388 20
      vertex 5 8.66025 30
      vertex 3.82683 9.2388 30
    endloop
  endfacet
  facet normal -0.442293 -0.896871 -0
    outer loop
      vertex 5 8.66025 30
      vertex 3.82683 9.2388 20
      vertex 5 8.66025 20
    endloop
  endfacet
  facet normal -0.0654022 -0.997859 0
    outer loop
      vertex 0 10 20
      vertex 1.30526 9.91445 30
      vertex 0 10 30
    endloop
  endfacet
  facet normal -0.0654022 -0.997859 -0
    outer loop
      vertex 1.30526 9.91445 30
      vertex 0 10 20
      vertex 1.30526 9.91445 20
    endloop
  endfacet
  facet normal -0.831469 -0.555571 0
    outer loop
      vertex 8.66025 5 20
      vertex 7.93353 6.08761 30
      vertex 7.93353 6.08761 20
    endloop
  endfacet
  facet normal -0.831469 -0.555571 0
    outer loop
      vertex 7.93353 6.08761 30
      vertex 8.66025 5 20
      vertex 8.66025 5 30
    endloop
  endfacet
endsolid OpenSCAD_Model
