solid OpenSCAD_Model
  facet normal 1 -0 0
    outer loop
      vertex 50 0 20
      vertex 50 30 0
      vertex 50 30 20
    endloop
  endfacet
  facet normal 1 0 0
    outer loop
      vertex 50 30 0
      vertex 50 0 20
      vertex 50 0 0
    endloop
  endfacet
  facet normal 0 0 1
    outer loop
      vertex 32.0126 15.2929 20
      vertex 31.5 14.098 20
      vertex 31.5056 14 20
    endloop
  endfacet
  facet normal 0 0 1
    outer loop
      vertex 31.638 15.0761 20
      vertex 31.4834 14.1951 20
      vertex 31.5 14.098 20
    endloop
  endfacet
  facet normal 0 0 1
    outer loop
      vertex 31.638 15.0761 20
      vertex 31.4558 14.2903 20
      vertex 31.4834 14.1951 20
    endloop
  endfacet
  facet normal 0 0 1
    outer loop
      vertex 31.311 14.5556 20
      vertex 31.5313 15.0431 20
      vertex 31.4214 15.0192 20
    endloop
  endfacet
  facet normal 0 0 1
    outer loop
      vertex 31.638 15.0761 20
      vertex 31.4177 14.3827 20
      vertex 31.4558 14.2903 20
    endloop
  endfacet
  facet normal 0 0 1
    outer loop
      vertex 31.638 15.0761 20
      vertex 31.3692 14.4714 20
      vertex 31.4177 14.3827 20
    endloop
  endfacet
  facet normal 0 0 1
    outer loop
      vertex 31.5313 15.0431 20
      vertex 31.311 14.5556 20
      vertex 31.3692 14.4714 20
    endloop
  endfacet
  facet normal 0 0 1
    outer loop
      vertex 31.2434 14.6344 20
      vertex 31.4214 15.0192 20
      vertex 31.3093 15.0048 20
    endloop
  endfacet
  facet normal 0 0 1
    outer loop
      vertex 31.4214 15.0192 20
      vertex 31.2434 14.6344 20
      vertex 31.311 14.5556 20
    endloop
  endfacet
  facet normal 0 0 1
    outer loop
      vertex 31.1673 14.7071 20
      vertex 31.3093 15.0048 20
      vertex 31.1962 15 20
    endloop
  endfacet
  facet normal 0 0 1
    outer loop
      vertex 31.3093 15.0048 20
      vertex 31.1673 14.7071 20
      vertex 31.2434 14.6344 20
    endloop
  endfacet
  facet normal 0 0 1
    outer loop
      vertex 31.1962 15 20
      vertex 31.0834 14.773 20
      vertex 31.1673 14.7071 20
    endloop
  endfacet
  facet normal 0 0 1
    outer loop
      vertex 31.083 15.0048 20
      vertex 31.0834 14.773 20
      vertex 31.1962 15 20
    endloop
  endfacet
  facet normal 0 0 1
    outer loop
      vertex 31.083 15.0048 20
      vertex 30.9924 14.8315 20
      vertex 31.0834 14.773 20
    endloop
  endfacet
  facet normal 0 0 1
    outer loop
      vertex 30.9709 15.0192 20
      vertex 30.9924 14.8315 20
      vertex 31.083 15.0048 20
    endloop
  endfacet
  facet normal 0 0 1
    outer loop
      vertex 30.9709 15.0192 20
      vertex 30.8952 14.8819 20
      vertex 30.9924 14.8315 20
    endloop
  endfacet
  facet normal 0 0 1
    outer loop
      vertex 30.861 15.0431 20
      vertex 30.8952 14.8819 20
      vertex 30.9709 15.0192 20
    endloop
  endfacet
  facet normal 0 0 1
    outer loop
      vertex 30.861 15.0431 20
      vertex 30.7927 14.9239 20
      vertex 30.8952 14.8819 20
    endloop
  endfacet
  facet normal 0 0 1
    outer loop
      vertex 30.7543 15.0761 20
      vertex 30.7927 14.9239 20
      vertex 30.861 15.0431 20
    endloop
  endfacet
  facet normal 0 0 1
    outer loop
      vertex 30.7543 15.0761 20
      vertex 30.686 14.9569 20
      vertex 30.7927 14.9239 20
    endloop
  endfacet
  facet normal 0 0 1
    outer loop
      vertex 30.6518 15.1181 20
      vertex 30.686 14.9569 20
      vertex 30.7543 15.0761 20
    endloop
  endfacet
  facet normal 0 0 1
    outer loop
      vertex 30.6518 15.1181 20
      vertex 30.5761 14.9808 20
      vertex 30.686 14.9569 20
    endloop
  endfacet
  facet normal 0 0 1
    outer loop
      vertex 30.5546 15.1685 20
      vertex 30.5761 14.9808 20
      vertex 30.6518 15.1181 20
    endloop
  endfacet
  facet normal 0 0 1
    outer loop
      vertex 30.5546 15.1685 20
      vertex 30.464 14.9952 20
      vertex 30.5761 14.9808 20
    endloop
  endfacet
  facet normal 0 0 1
    outer loop
      vertex 30.4636 15.227 20
      vertex 30.464 14.9952 20
      vertex 30.5546 15.1685 20
    endloop
  endfacet
  facet normal 0 0 1
    outer loop
      vertex 30.3509 15 20
      vertex 30.4636 15.227 20
      vertex 30.3797 15.2929 20
    endloop
  endfacet
  facet normal 0 0 1
    outer loop
      vertex 30.4636 15.227 20
      vertex 30.3509 15 20
      vertex 30.464 14.9952 20
    endloop
  endfacet
  facet normal 0 0 1
    outer loop
      vertex 30.2377 14.9952 20
      vertex 30.3797 15.2929 20
      vertex 30.3036 15.3656 20
    endloop
  endfacet
  facet normal 0 0 1
    outer loop
      vertex 30.3797 15.2929 20
      vertex 30.2377 14.9952 20
      vertex 30.3509 15 20
    endloop
  endfacet
  facet normal 0 0 1
    outer loop
      vertex 30.1256 14.9808 20
      vertex 30.3036 15.3656 20
      vertex 30.2361 15.4444 20
    endloop
  endfacet
  facet normal 0 0 1
    outer loop
      vertex 30.0157 14.9569 20
      vertex 30.2361 15.4444 20
      vertex 30.1778 15.5286 20
    endloop
  endfacet
  facet normal 0 0 1
    outer loop
      vertex 29.909 14.9239 20
      vertex 30.1778 15.5286 20
      vertex 30.1539 15.5724 20
    endloop
  endfacet
  facet normal 0 0 1
    outer loop
      vertex 29.909 14.9239 20
      vertex 30.1539 15.5724 20
      vertex 30.1293 15.6173 20
    endloop
  endfacet
  facet normal 0 0 1
    outer loop
      vertex 30.3036 15.3656 20
      vertex 30.1256 14.9808 20
      vertex 30.2377 14.9952 20
    endloop
  endfacet
  facet normal 0 0 1
    outer loop
      vertex 29.8065 14.8819 20
      vertex 30.1293 15.6173 20
      vertex 30.11 15.6642 20
    endloop
  endfacet
  facet normal 0 0 1
    outer loop
      vertex 29.8065 14.8819 20
      vertex 30.11 15.6642 20
      vertex 30.0912 15.7097 20
    endloop
  endfacet
  facet normal 0 0 1
    outer loop
      vertex 29.7093 14.8315 20
      vertex 30.0912 15.7097 20
      vertex 30.0776 15.7565 20
    endloop
  endfacet
  facet normal 0 0 1
    outer loop
      vertex 29.7093 14.8315 20
      vertex 30.0776 15.7565 20
      vertex 30.0636 15.8049 20
    endloop
  endfacet
  facet normal 0 0 1
    outer loop
      vertex 29.6183 14.773 20
      vertex 30.0636 15.8049 20
      vertex 30.0552 15.8543 20
    endloop
  endfacet
  facet normal 0 0 1
    outer loop
      vertex 29.6183 14.773 20
      vertex 30.0552 15.8543 20
      vertex 30.047 15.902 20
    endloop
  endfacet
  facet normal 0 0 1
    outer loop
      vertex 30.2361 15.4444 20
      vertex 30.0157 14.9569 20
      vertex 30.1256 14.9808 20
    endloop
  endfacet
  facet normal 0 0 1
    outer loop
      vertex 29.5344 14.7071 20
      vertex 30.047 15.902 20
      vertex 30.0415 16 20
    endloop
  endfacet
  facet normal 0 0 1
    outer loop
      vertex 50 30 20
      vertex 32.3509 16 20
      vertex 50 0 20
    endloop
  endfacet
  facet normal 0 0 1
    outer loop
      vertex 50 30 20
      vertex 32.3453 16.098 20
      vertex 32.3509 16 20
    endloop
  endfacet
  facet normal 0 0 1
    outer loop
      vertex 50 30 20
      vertex 32.3287 16.1951 20
      vertex 32.3453 16.098 20
    endloop
  endfacet
  facet normal 0 0 1
    outer loop
      vertex 50 30 20
      vertex 32.3011 16.2903 20
      vertex 32.3287 16.1951 20
    endloop
  endfacet
  facet normal 0 0 1
    outer loop
      vertex 50 30 20
      vertex 32.263 16.3827 20
      vertex 32.3011 16.2903 20
    endloop
  endfacet
  facet normal 0 0 1
    outer loop
      vertex 50 30 20
      vertex 32.2145 16.4714 20
      vertex 32.263 16.3827 20
    endloop
  endfacet
  facet normal 0 0 1
    outer loop
      vertex 50 30 20
      vertex 32.1562 16.5556 20
      vertex 32.2145 16.4714 20
    endloop
  endfacet
  facet normal 0 0 1
    outer loop
      vertex 50 30 20
      vertex 32.0887 16.6344 20
      vertex 32.1562 16.5556 20
    endloop
  endfacet
  facet normal 0 0 1
    outer loop
      vertex 50 30 20
      vertex 32.0126 16.7071 20
      vertex 32.0887 16.6344 20
    endloop
  endfacet
  facet normal 0 0 1
    outer loop
      vertex 50 30 20
      vertex 31.9287 16.773 20
      vertex 32.0126 16.7071 20
    endloop
  endfacet
  facet normal 0 0 1
    outer loop
      vertex 50 30 20
      vertex 31.8377 16.8315 20
      vertex 31.9287 16.773 20
    endloop
  endfacet
  facet normal 0 0 1
    outer loop
      vertex 50 30 20
      vertex 31.7405 16.8819 20
      vertex 31.8377 16.8315 20
    endloop
  endfacet
  facet normal 0 0 1
    outer loop
      vertex 50 30 20
      vertex 31.638 16.9239 20
      vertex 31.7405 16.8819 20
    endloop
  endfacet
  facet normal 0 0 1
    outer loop
      vertex 50 30 20
      vertex 31.5313 16.9569 20
      vertex 31.638 16.9239 20
    endloop
  endfacet
  facet normal 0 0 1
    outer loop
      vertex 50 30 20
      vertex 31.4214 16.9808 20
      vertex 31.5313 16.9569 20
    endloop
  endfacet
  facet normal 0 0 1
    outer loop
      vertex 50 30 20
      vertex 31.3093 16.9952 20
      vertex 31.4214 16.9808 20
    endloop
  endfacet
  facet normal 0 0 1
    outer loop
      vertex 50 30 20
      vertex 31.1962 17 20
      vertex 31.3093 16.9952 20
    endloop
  endfacet
  facet normal 0 0 1
    outer loop
      vertex 50 30 20
      vertex 31.083 16.9952 20
      vertex 31.1962 17 20
    endloop
  endfacet
  facet normal 0 0 1
    outer loop
      vertex 50 30 20
      vertex 30.9709 16.9808 20
      vertex 31.083 16.9952 20
    endloop
  endfacet
  facet normal -0 0 1
    outer loop
      vertex 0 30 20
      vertex 30.9709 16.9808 20
      vertex 50 30 20
    endloop
  endfacet
  facet normal 0 0 1
    outer loop
      vertex 30.9709 16.9808 20
      vertex 0 30 20
      vertex 30.861 16.9569 20
    endloop
  endfacet
  facet normal 0 0 1
    outer loop
      vertex 30.861 16.9569 20
      vertex 0 30 20
      vertex 30.7543 16.9239 20
    endloop
  endfacet
  facet normal 0 0 1
    outer loop
      vertex 30.7543 16.9239 20
      vertex 0 30 20
      vertex 30.6518 16.8819 20
    endloop
  endfacet
  facet normal 0 0 1
    outer loop
      vertex 30.6518 16.8819 20
      vertex 0 30 20
      vertex 30.5546 16.8315 20
    endloop
  endfacet
  facet normal 0 0 1
    outer loop
      vertex 30.1778 16.4714 20
      vertex 30.1293 16.3827 20
      vertex 30.1539 16.4276 20
    endloop
  endfacet
  facet normal 0 0 1
    outer loop
      vertex 29.3908 14.5556 20
      vertex 30.0552 16.1457 20
      vertex 30.0636 16.1951 20
    endloop
  endfacet
  facet normal 0 0 1
    outer loop
      vertex 30.1778 15.5286 20
      vertex 29.909 14.9239 20
      vertex 30.0157 14.9569 20
    endloop
  endfacet
  facet normal 0 0 1
    outer loop
      vertex 29.4583 14.6344 20
      vertex 30.0415 16 20
      vertex 30.047 16.098 20
    endloop
  endfacet
  facet normal 0 0 1
    outer loop
      vertex 30.1293 15.6173 20
      vertex 29.8065 14.8819 20
      vertex 29.909 14.9239 20
    endloop
  endfacet
  facet normal 0 0 1
    outer loop
      vertex 30.0552 16.1457 20
      vertex 29.3908 14.5556 20
      vertex 30.047 16.098 20
    endloop
  endfacet
  facet normal 0 0 1
    outer loop
      vertex 30.0912 15.7097 20
      vertex 29.7093 14.8315 20
      vertex 29.8065 14.8819 20
    endloop
  endfacet
  facet normal 0 0 1
    outer loop
      vertex 30.0636 15.8049 20
      vertex 29.6183 14.773 20
      vertex 29.7093 14.8315 20
    endloop
  endfacet
  facet normal 0 0 1
    outer loop
      vertex 29.3325 14.4714 20
      vertex 30.0636 16.1951 20
      vertex 30.0776 16.2435 20
    endloop
  endfacet
  facet normal 0 0 1
    outer loop
      vertex 29.3325 14.4714 20
      vertex 30.0776 16.2435 20
      vertex 30.0912 16.2903 20
    endloop
  endfacet
  facet normal 0 0 1
    outer loop
      vertex 30.047 15.902 20
      vertex 29.5344 14.7071 20
      vertex 29.6183 14.773 20
    endloop
  endfacet
  facet normal 0 0 1
    outer loop
      vertex 30.0415 16 20
      vertex 29.4583 14.6344 20
      vertex 29.5344 14.7071 20
    endloop
  endfacet
  facet normal 0 0 1
    outer loop
      vertex 30.047 16.098 20
      vertex 29.3908 14.5556 20
      vertex 29.4583 14.6344 20
    endloop
  endfacet
  facet normal 0 0 1
    outer loop
      vertex 30.0636 16.1951 20
      vertex 29.3325 14.4714 20
      vertex 29.3908 14.5556 20
    endloop
  endfacet
  facet normal 0 0 1
    outer loop
      vertex 0 30 20
      vertex 30.0912 16.2903 20
      vertex 30.11 16.3358 20
    endloop
  endfacet
  facet normal 0 0 1
    outer loop
      vertex 0 30 20
      vertex 30.11 16.3358 20
      vertex 30.1293 16.3827 20
    endloop
  endfacet
  facet normal 0 0 1
    outer loop
      vertex 30.0912 16.2903 20
      vertex 29.303 14.4174 20
      vertex 29.3325 14.4714 20
    endloop
  endfacet
  facet normal 0 0 1
    outer loop
      vertex 30.0912 16.2903 20
      vertex 29.284 14.3827 20
      vertex 29.303 14.4174 20
    endloop
  endfacet
  facet normal 0 0 1
    outer loop
      vertex 29.284 14.3827 20
      vertex 29.2459 14.2903 20
      vertex 29.2691 14.3465 20
    endloop
  endfacet
  facet normal 0 0 1
    outer loop
      vertex 29.2017 14.098 20
      vertex 0 30 20
      vertex 29.1962 14 20
    endloop
  endfacet
  facet normal 0 0 1
    outer loop
      vertex 29.2118 14.1569 20
      vertex 0 30 20
      vertex 29.2017 14.098 20
    endloop
  endfacet
  facet normal 0 0 1
    outer loop
      vertex 29.2183 14.1951 20
      vertex 0 30 20
      vertex 29.2118 14.1569 20
    endloop
  endfacet
  facet normal 0 0 1
    outer loop
      vertex 29.2292 14.2325 20
      vertex 0 30 20
      vertex 29.2183 14.1951 20
    endloop
  endfacet
  facet normal 0 0 1
    outer loop
      vertex 29.2459 14.2903 20
      vertex 0 30 20
      vertex 29.2292 14.2325 20
    endloop
  endfacet
  facet normal 0 0 1
    outer loop
      vertex 29.284 14.3827 20
      vertex 0 30 20
      vertex 29.2459 14.2903 20
    endloop
  endfacet
  facet normal 0 0 1
    outer loop
      vertex 30.0912 16.2903 20
      vertex 0 30 20
      vertex 29.284 14.3827 20
    endloop
  endfacet
  facet normal 0 0 1
    outer loop
      vertex 30.1778 16.4714 20
      vertex 0 30 20
      vertex 30.1293 16.3827 20
    endloop
  endfacet
  facet normal 0 0 1
    outer loop
      vertex 30.2361 16.5556 20
      vertex 0 30 20
      vertex 30.1778 16.4714 20
    endloop
  endfacet
  facet normal 0 0 1
    outer loop
      vertex 30.3036 16.6344 20
      vertex 0 30 20
      vertex 30.2361 16.5556 20
    endloop
  endfacet
  facet normal 0 0 1
    outer loop
      vertex 30.3797 16.7071 20
      vertex 0 30 20
      vertex 30.3036 16.6344 20
    endloop
  endfacet
  facet normal 0 0 1
    outer loop
      vertex 30.4636 16.773 20
      vertex 0 30 20
      vertex 30.3797 16.7071 20
    endloop
  endfacet
  facet normal 0 0 1
    outer loop
      vertex 30.5546 16.8315 20
      vertex 0 30 20
      vertex 30.4636 16.773 20
    endloop
  endfacet
  facet normal -0 0 1
    outer loop
      vertex 32.3453 15.902 20
      vertex 50 0 20
      vertex 32.3509 16 20
    endloop
  endfacet
  facet normal -0 0 1
    outer loop
      vertex 32.3287 15.8049 20
      vertex 50 0 20
      vertex 32.3453 15.902 20
    endloop
  endfacet
  facet normal -0 0 1
    outer loop
      vertex 32.3011 15.7097 20
      vertex 50 0 20
      vertex 32.3287 15.8049 20
    endloop
  endfacet
  facet normal -0 0 1
    outer loop
      vertex 32.263 15.6173 20
      vertex 50 0 20
      vertex 32.3011 15.7097 20
    endloop
  endfacet
  facet normal 0 0 1
    outer loop
      vertex 31.4558 13.7097 20
      vertex 32.263 15.6173 20
      vertex 32.2145 15.5286 20
    endloop
  endfacet
  facet normal 0 0 1
    outer loop
      vertex 31.4834 13.8049 20
      vertex 32.2145 15.5286 20
      vertex 32.1562 15.4444 20
    endloop
  endfacet
  facet normal 0 0 1
    outer loop
      vertex 31.5 13.902 20
      vertex 32.1562 15.4444 20
      vertex 32.0887 15.3656 20
    endloop
  endfacet
  facet normal 0 0 1
    outer loop
      vertex 31.5056 14 20
      vertex 32.0887 15.3656 20
      vertex 32.0126 15.2929 20
    endloop
  endfacet
  facet normal 0 0 1
    outer loop
      vertex 31.5 14.098 20
      vertex 32.0126 15.2929 20
      vertex 31.9287 15.227 20
    endloop
  endfacet
  facet normal 0 0 1
    outer loop
      vertex 31.5 14.098 20
      vertex 31.9287 15.227 20
      vertex 31.8377 15.1685 20
    endloop
  endfacet
  facet normal 0 0 1
    outer loop
      vertex 31.5 14.098 20
      vertex 31.8377 15.1685 20
      vertex 31.7405 15.1181 20
    endloop
  endfacet
  facet normal 0 0 1
    outer loop
      vertex 31.5 14.098 20
      vertex 31.7405 15.1181 20
      vertex 31.638 15.0761 20
    endloop
  endfacet
  facet normal 0 0 1
    outer loop
      vertex 31.3692 14.4714 20
      vertex 31.638 15.0761 20
      vertex 31.5313 15.0431 20
    endloop
  endfacet
  facet normal 0 0 1
    outer loop
      vertex 32.0887 15.3656 20
      vertex 31.5056 14 20
      vertex 31.5 13.902 20
    endloop
  endfacet
  facet normal 0 0 1
    outer loop
      vertex 32.1562 15.4444 20
      vertex 31.5 13.902 20
      vertex 31.4834 13.8049 20
    endloop
  endfacet
  facet normal 0 0 1
    outer loop
      vertex 32.2145 15.5286 20
      vertex 31.4834 13.8049 20
      vertex 31.4558 13.7097 20
    endloop
  endfacet
  facet normal 0 0 1
    outer loop
      vertex 32.263 15.6173 20
      vertex 31.4558 13.7097 20
      vertex 50 0 20
    endloop
  endfacet
  facet normal -0 0 1
    outer loop
      vertex 31.4177 13.6173 20
      vertex 50 0 20
      vertex 31.4558 13.7097 20
    endloop
  endfacet
  facet normal -0 0 1
    outer loop
      vertex 31.3692 13.5286 20
      vertex 50 0 20
      vertex 31.4177 13.6173 20
    endloop
  endfacet
  facet normal -0 0 1
    outer loop
      vertex 31.311 13.4444 20
      vertex 50 0 20
      vertex 31.3692 13.5286 20
    endloop
  endfacet
  facet normal -0 0 1
    outer loop
      vertex 31.2434 13.3656 20
      vertex 50 0 20
      vertex 31.311 13.4444 20
    endloop
  endfacet
  facet normal -0 0 1
    outer loop
      vertex 31.1673 13.2929 20
      vertex 50 0 20
      vertex 31.2434 13.3656 20
    endloop
  endfacet
  facet normal -0 0 1
    outer loop
      vertex 31.0834 13.227 20
      vertex 50 0 20
      vertex 31.1673 13.2929 20
    endloop
  endfacet
  facet normal -0 0 1
    outer loop
      vertex 30.9924 13.1685 20
      vertex 50 0 20
      vertex 31.0834 13.227 20
    endloop
  endfacet
  facet normal -0 0 1
    outer loop
      vertex 30.8952 13.1181 20
      vertex 50 0 20
      vertex 30.9924 13.1685 20
    endloop
  endfacet
  facet normal -0 0 1
    outer loop
      vertex 30.7927 13.0761 20
      vertex 50 0 20
      vertex 30.8952 13.1181 20
    endloop
  endfacet
  facet normal -0 0 1
    outer loop
      vertex 30.686 13.0431 20
      vertex 50 0 20
      vertex 30.7927 13.0761 20
    endloop
  endfacet
  facet normal -0 0 1
    outer loop
      vertex 30.5761 13.0192 20
      vertex 50 0 20
      vertex 30.686 13.0431 20
    endloop
  endfacet
  facet normal -0 0 1
    outer loop
      vertex 30.464 13.0048 20
      vertex 50 0 20
      vertex 30.5761 13.0192 20
    endloop
  endfacet
  facet normal -0 0 1
    outer loop
      vertex 30.3509 13 20
      vertex 50 0 20
      vertex 30.464 13.0048 20
    endloop
  endfacet
  facet normal 0 0 1
    outer loop
      vertex 30.2377 13.0048 20
      vertex 50 0 20
      vertex 30.3509 13 20
    endloop
  endfacet
  facet normal 0 0 1
    outer loop
      vertex 30.1256 13.0192 20
      vertex 50 0 20
      vertex 30.2377 13.0048 20
    endloop
  endfacet
  facet normal 0 0 1
    outer loop
      vertex 0 0 20
      vertex 30.1256 13.0192 20
      vertex 30.0157 13.0431 20
    endloop
  endfacet
  facet normal 0 0 1
    outer loop
      vertex 0 0 20
      vertex 30.0157 13.0431 20
      vertex 29.909 13.0761 20
    endloop
  endfacet
  facet normal 0 0 1
    outer loop
      vertex 0 0 20
      vertex 29.909 13.0761 20
      vertex 29.8065 13.1181 20
    endloop
  endfacet
  facet normal 0 0 1
    outer loop
      vertex 0 0 20
      vertex 29.8065 13.1181 20
      vertex 29.7093 13.1685 20
    endloop
  endfacet
  facet normal 0 0 1
    outer loop
      vertex 0 0 20
      vertex 29.7093 13.1685 20
      vertex 29.6183 13.227 20
    endloop
  endfacet
  facet normal 0 0 1
    outer loop
      vertex 29.284 13.6173 20
      vertex 29.3325 13.5286 20
      vertex 29.303 13.5826 20
    endloop
  endfacet
  facet normal 0 0 1
    outer loop
      vertex 29.2459 13.7097 20
      vertex 29.284 13.6173 20
      vertex 29.2691 13.6535 20
    endloop
  endfacet
  facet normal 0 0 1
    outer loop
      vertex 0 0 20
      vertex 29.1962 14 20
      vertex 0 30 20
    endloop
  endfacet
  facet normal 0 0 1
    outer loop
      vertex 29.1962 14 20
      vertex 0 0 20
      vertex 29.2017 13.902 20
    endloop
  endfacet
  facet normal 0 0 1
    outer loop
      vertex 29.2017 13.902 20
      vertex 0 0 20
      vertex 29.2118 13.8431 20
    endloop
  endfacet
  facet normal 0 0 1
    outer loop
      vertex 29.2118 13.8431 20
      vertex 0 0 20
      vertex 29.2183 13.8049 20
    endloop
  endfacet
  facet normal 0 0 1
    outer loop
      vertex 29.2183 13.8049 20
      vertex 0 0 20
      vertex 29.2292 13.7675 20
    endloop
  endfacet
  facet normal 0 0 1
    outer loop
      vertex 29.2292 13.7675 20
      vertex 0 0 20
      vertex 29.2459 13.7097 20
    endloop
  endfacet
  facet normal 0 0 1
    outer loop
      vertex 29.2459 13.7097 20
      vertex 0 0 20
      vertex 29.284 13.6173 20
    endloop
  endfacet
  facet normal 0 0 1
    outer loop
      vertex 29.284 13.6173 20
      vertex 0 0 20
      vertex 29.3325 13.5286 20
    endloop
  endfacet
  facet normal 0 0 1
    outer loop
      vertex 29.3325 13.5286 20
      vertex 0 0 20
      vertex 29.3908 13.4444 20
    endloop
  endfacet
  facet normal 0 0 1
    outer loop
      vertex 29.3908 13.4444 20
      vertex 0 0 20
      vertex 29.4583 13.3656 20
    endloop
  endfacet
  facet normal 0 0 1
    outer loop
      vertex 29.4583 13.3656 20
      vertex 0 0 20
      vertex 29.5344 13.2929 20
    endloop
  endfacet
  facet normal 0 0 1
    outer loop
      vertex 29.5344 13.2929 20
      vertex 0 0 20
      vertex 29.6183 13.227 20
    endloop
  endfacet
  facet normal 0 0 1
    outer loop
      vertex 30.1256 13.0192 20
      vertex 0 0 20
      vertex 50 0 20
    endloop
  endfacet
  facet normal 0 0 -1
    outer loop
      vertex 0 0 0
      vertex 50 30 0
      vertex 50 0 0
    endloop
  endfacet
  facet normal -0 0 -1
    outer loop
      vertex 50 30 0
      vertex 0 0 0
      vertex 0 30 0
    endloop
  endfacet
  facet normal -1 0 0
    outer loop
      vertex 0 0 0
      vertex 0 30 20
      vertex 0 30 0
    endloop
  endfacet
  facet normal -1 -0 0
    outer loop
      vertex 0 30 20
      vertex 0 0 0
      vertex 0 0 20
    endloop
  endfacet
  facet normal 0 1 -0
    outer loop
      vertex 50 30 0
      vertex 0 30 20
      vertex 50 30 20
    endloop
  endfacet
  facet normal 0 1 0
    outer loop
      vertex 0 30 20
      vertex 50 30 0
      vertex 0 30 0
    endloop
  endfacet
  facet normal 0 -1 0
    outer loop
      vertex 0 0 0
      vertex 50 0 20
      vertex 0 0 20
    endloop
  endfacet
  facet normal 0 -1 -0
    outer loop
      vertex 50 0 20
      vertex 0 0 0
      vertex 50 0 0
    endloop
  endfacet
  facet normal -0.839987 -0.243367 0.484968
    outer loop
      vertex 31.4834 14.1951 20
      vertex 24.8287 14.2903 8.52153
      vertex 24.8494 14.1951 8.50961
    endloop
  endfacet
  facet normal -0.839955 -0.243516 0.484949
    outer loop
      vertex 24.8287 14.2903 8.52153
      vertex 31.4834 14.1951 20
      vertex 31.4558 14.2903 20
    endloop
  endfacet
  facet normal -0.865005 -0.0484706 0.499416
    outer loop
      vertex 31.5056 14 20
      vertex 24.8619 14.098 8.50241
      vertex 24.866 14 8.5
    endloop
  endfacet
  facet normal -0.864968 -0.0494267 0.499387
    outer loop
      vertex 24.8619 14.098 8.50241
      vertex 31.5056 14 20
      vertex 31.5 14.098 20
    endloop
  endfacet
  facet normal 0.500007 9.37628e-06 0.866022
    outer loop
      vertex 24.6694 14.6344 8.61349
      vertex 23.3876 14.7071 9.35355
      vertex 23.1506 14.1951 9.49039
    endloop
  endfacet
  facet normal 0.506744 -0 0.862096
    outer loop
      vertex 23.1381 13.902 9.49759
      vertex 23.1381 14.098 9.49759
      vertex 23.134 14 9.5
    endloop
  endfacet
  facet normal 0.499527 -0.00275954 0.866294
    outer loop
      vertex 24.2514 14.9569 8.85486
      vertex 24.169 14.9808 8.90245
      vertex 24.0849 14.9952 8.95099
    endloop
  endfacet
  facet normal 0.498503 0.0010332 0.866887
    outer loop
      vertex 23.2799 14.5556 9.41573
      vertex 23.2362 14.4714 9.44096
      vertex 23.1999 14.3827 9.46194
    endloop
  endfacet
  facet normal 0.496005 -0.00477474 0.868307
    outer loop
      vertex 24.6694 14.6344 8.61349
      vertex 24.6124 14.7071 8.64645
      vertex 24.5494 14.773 8.6828
    endloop
  endfacet
  facet normal 0.500007 -9.37628e-06 0.866022
    outer loop
      vertex 23.3876 13.2929 9.35355
      vertex 24.6694 13.3656 8.61349
      vertex 23.1506 13.8049 9.49039
    endloop
  endfacet
  facet normal 0.500481 -0.000327022 0.865747
    outer loop
      vertex 24.8287 13.7097 8.52153
      vertex 24.8619 13.902 8.50241
      vertex 24.6694 13.3656 8.61349
    endloop
  endfacet
  facet normal 0.500003 8.74931e-05 0.866024
    outer loop
      vertex 24.0849 13.0048 8.95099
      vertex 24.6694 13.3656 8.61349
      vertex 23.3876 13.2929 9.35355
    endloop
  endfacet
  facet normal 0.497868 -0.0013691 0.867252
    outer loop
      vertex 24.7638 14.4714 8.55904
      vertex 24.7201 14.5556 8.58426
      vertex 24.6694 14.6344 8.61349
    endloop
  endfacet
  facet normal 0.500375 -1.16529e-05 0.865809
    outer loop
      vertex 24.8287 14.2903 8.52153
      vertex 24.8001 14.3827 8.53806
      vertex 24.7638 14.4714 8.55904
    endloop
  endfacet
  facet normal 0.499824 0.00176005 0.866125
    outer loop
      vertex 24.0849 14.9952 8.95099
      vertex 23.831 14.9808 9.09754
      vertex 23.7486 14.9569 9.14514
    endloop
  endfacet
  facet normal -0.210966 -0.969875 0.1218
    outer loop
      vertex 24.2514 14.9569 8.85486
      vertex 30.5761 14.9808 20
      vertex 24.169 14.9808 8.90245
    endloop
  endfacet
  facet normal -0.210922 -0.969888 0.121775
    outer loop
      vertex 30.5761 14.9808 20
      vertex 24.2514 14.9569 8.85486
      vertex 30.686 14.9569 20
    endloop
  endfacet
  facet normal -0.856625 -0.146949 0.49457
    outer loop
      vertex 31.5 14.098 20
      vertex 24.8494 14.1951 8.50961
      vertex 24.8619 14.098 8.50241
    endloop
  endfacet
  facet normal -0.856686 -0.146457 0.49461
    outer loop
      vertex 24.8494 14.1951 8.50961
      vertex 31.5 14.098 20
      vertex 31.4834 14.1951 20
    endloop
  endfacet
  facet normal 0.500481 0.000327022 0.865747
    outer loop
      vertex 24.8619 14.098 8.50241
      vertex 24.8287 14.2903 8.52153
      vertex 24.6694 14.6344 8.61349
    endloop
  endfacet
  facet normal 0.815479 0.336639 -0.470816
    outer loop
      vertex 29.2459 13.7097 20
      vertex 29.2691 13.6535 20
      vertex 23.1713 13.7097 9.47847
    endloop
  endfacet
  facet normal 0.500027 3.41732e-05 0.86601
    outer loop
      vertex 24.3314 13.0761 8.80866
      vertex 24.6694 13.3656 8.61349
      vertex 24.0849 13.0048 8.95099
    endloop
  endfacet
  facet normal 0.815479 -0.336639 -0.470816
    outer loop
      vertex 29.2691 14.3465 20
      vertex 29.2459 14.2903 20
      vertex 23.1713 14.2903 9.47847
    endloop
  endfacet
  facet normal 0.500009 0 0.86602
    outer loop
      vertex 23.1506 14.1951 9.49039
      vertex 24.6694 13.3656 8.61349
      vertex 24.6694 14.6344 8.61349
    endloop
  endfacet
  facet normal 0.500009 0 0.86602
    outer loop
      vertex 24.6694 13.3656 8.61349
      vertex 23.1506 14.1951 9.49039
      vertex 23.1506 13.8049 9.49039
    endloop
  endfacet
  facet normal 0.500003 -8.74931e-05 0.866024
    outer loop
      vertex 24.6694 14.6344 8.61349
      vertex 24.0849 14.9952 8.95099
      vertex 23.3876 14.7071 9.35355
    endloop
  endfacet
  facet normal 0.641893 -0.67129 -0.370597
    outer loop
      vertex 23.3876 14.7071 9.35355
      vertex 29.4583 14.6344 20
      vertex 23.3306 14.6344 9.38651
    endloop
  endfacet
  facet normal 0.641624 -0.671631 -0.370446
    outer loop
      vertex 29.4583 14.6344 20
      vertex 23.3876 14.7071 9.35355
      vertex 29.5344 14.7071 20
    endloop
  endfacet
  facet normal 0.499948 4.53807e-05 0.866055
    outer loop
      vertex 23.3876 14.7071 9.35355
      vertex 23.2799 14.5556 9.41573
      vertex 23.1506 14.1951 9.49039
    endloop
  endfacet
  facet normal 0.499888 -0.00067705 0.86609
    outer loop
      vertex 24.3314 14.9239 8.80866
      vertex 24.2514 14.9569 8.85486
      vertex 24.0849 14.9952 8.95099
    endloop
  endfacet
  facet normal -0.742863 -0.514011 0.42889
    outer loop
      vertex 31.3692 14.4714 20
      vertex 24.7201 14.5556 8.58426
      vertex 24.7638 14.4714 8.55904
    endloop
  endfacet
  facet normal -0.743067 -0.513616 0.429011
    outer loop
      vertex 24.7201 14.5556 8.58426
      vertex 31.3692 14.4714 20
      vertex 31.311 14.5556 20
    endloop
  endfacet
  facet normal -0.782962 -0.427345 0.452047
    outer loop
      vertex 31.4177 14.3827 20
      vertex 24.7638 14.4714 8.55904
      vertex 24.8001 14.3827 8.53806
    endloop
  endfacet
  facet normal -0.782707 -0.427974 0.451893
    outer loop
      vertex 24.7638 14.4714 8.55904
      vertex 31.4177 14.3827 20
      vertex 31.3692 14.4714 20
    endloop
  endfacet
  facet normal 0.498716 -0.00165567 0.866764
    outer loop
      vertex 24.6694 14.6344 8.61349
      vertex 24.5494 14.773 8.6828
      vertex 24.4811 14.8315 8.72221
    endloop
  endfacet
  facet normal 0.500194 0.000225366 0.865913
    outer loop
      vertex 24.6694 14.6344 8.61349
      vertex 24.4811 14.8315 8.72221
      vertex 24.3314 14.9239 8.80866
    endloop
  endfacet
  facet normal 0.210954 -0.969878 -0.121795
    outer loop
      vertex 23.831 14.9808 9.09754
      vertex 30.0157 14.9569 20
      vertex 23.7486 14.9569 9.14514
    endloop
  endfacet
  facet normal 0.210922 -0.969888 -0.121777
    outer loop
      vertex 30.0157 14.9569 20
      vertex 23.831 14.9808 9.09754
      vertex 30.1256 14.9808 20
    endloop
  endfacet
  facet normal 0.500115 -0.000449304 0.865959
    outer loop
      vertex 24.0849 14.9952 8.95099
      vertex 23.4506 14.773 9.3172
      vertex 23.3876 14.7071 9.35355
    endloop
  endfacet
  facet normal 0.499798 0 0.866142
    outer loop
      vertex 24.6694 14.6344 8.61349
      vertex 24.8619 13.902 8.50241
      vertex 24.8619 14.098 8.50241
    endloop
  endfacet
  facet normal 0.499798 0 0.866142
    outer loop
      vertex 24.8619 13.902 8.50241
      vertex 24.6694 14.6344 8.61349
      vertex 24.6694 13.3656 8.61349
    endloop
  endfacet
  facet normal 0.498412 0.000949663 0.86694
    outer loop
      vertex 24.7638 13.5286 8.55904
      vertex 24.8287 13.7097 8.52153
      vertex 24.6694 13.3656 8.61349
    endloop
  endfacet
  facet normal 0.498876 -4.22783e-05 0.866674
    outer loop
      vertex 24.8619 14.098 8.50241
      vertex 24.8494 14.1951 8.50961
      vertex 24.8287 14.2903 8.52153
    endloop
  endfacet
  facet normal 0.499122 0 0.866532
    outer loop
      vertex 23.1381 14.098 9.49759
      vertex 23.1506 13.8049 9.49039
      vertex 23.1506 14.1951 9.49039
    endloop
  endfacet
  facet normal 0.499122 0 0.866532
    outer loop
      vertex 23.1506 13.8049 9.49039
      vertex 23.1381 14.098 9.49759
      vertex 23.1381 13.902 9.49759
    endloop
  endfacet
  facet normal -0.742863 0.514011 0.42889
    outer loop
      vertex 24.7201 13.4444 8.58426
      vertex 31.3692 13.5286 20
      vertex 24.7638 13.5286 8.55904
    endloop
  endfacet
  facet normal -0.743067 0.513616 0.429011
    outer loop
      vertex 31.3692 13.5286 20
      vertex 24.7201 13.4444 8.58426
      vertex 31.311 13.4444 20
    endloop
  endfacet
  facet normal -0.291262 0.941748 0.16816
    outer loop
      vertex 24.3314 13.0761 8.80866
      vertex 30.686 13.0431 20
      vertex 30.7927 13.0761 20
    endloop
  endfacet
  facet normal -0.291327 0.941721 0.168196
    outer loop
      vertex 30.686 13.0431 20
      vertex 24.3314 13.0761 8.80866
      vertex 24.2514 13.0431 8.85486
    endloop
  endfacet
  facet normal 0.498716 0.00165567 0.866764
    outer loop
      vertex 24.5494 13.227 8.6828
      vertex 24.6694 13.3656 8.61349
      vertex 24.4811 13.1685 8.72221
    endloop
  endfacet
  facet normal 0.695535 -0.595795 -0.401572
    outer loop
      vertex 23.2799 14.5556 9.41573
      vertex 29.4583 14.6344 20
      vertex 29.3908 14.5556 20
    endloop
  endfacet
  facet normal 0.69528 -0.596195 -0.40142
    outer loop
      vertex 29.4583 14.6344 20
      vertex 23.2799 14.5556 9.41573
      vertex 23.3306 14.6344 9.38651
    endloop
  endfacet
  facet normal 0.500027 -3.41732e-05 0.86601
    outer loop
      vertex 24.6694 14.6344 8.61349
      vertex 24.3314 14.9239 8.80866
      vertex 24.0849 14.9952 8.95099
    endloop
  endfacet
  facet normal 0.498412 -0.000949663 0.86694
    outer loop
      vertex 24.8287 14.2903 8.52153
      vertex 24.7638 14.4714 8.55904
      vertex 24.6694 14.6344 8.61349
    endloop
  endfacet
  facet normal -0.515989 -0.803122 0.297909
    outer loop
      vertex 24.5494 14.773 8.6828
      vertex 30.9924 14.8315 20
      vertex 24.4811 14.8315 8.72221
    endloop
  endfacet
  facet normal -0.516185 -0.802955 0.29802
    outer loop
      vertex 30.9924 14.8315 20
      vertex 24.5494 14.773 8.6828
      vertex 31.0834 14.773 20
    endloop
  endfacet
  facet normal 0.50011 -0.000364358 0.865962
    outer loop
      vertex 23.5918 14.8819 9.2357
      vertex 23.5189 14.8315 9.27778
      vertex 23.4506 14.773 9.3172
    endloop
  endfacet
  facet normal 0.499946 0 0.866056
    outer loop
      vertex 24.0849 14.9952 8.95099
      vertex 24 15 9
      vertex 23.9151 14.9952 9.04901
    endloop
  endfacet
  facet normal 0.51597 -0.80314 -0.297894
    outer loop
      vertex 23.5189 14.8315 9.27778
      vertex 29.6183 14.773 20
      vertex 23.4506 14.773 9.3172
    endloop
  endfacet
  facet normal 0.516186 -0.802956 -0.298016
    outer loop
      vertex 29.6183 14.773 20
      vertex 23.5189 14.8315 9.27778
      vertex 29.7093 14.8315 20
    endloop
  endfacet
  facet normal 0.291326 -0.941721 -0.168198
    outer loop
      vertex 23.7486 14.9569 9.14514
      vertex 29.909 14.9239 20
      vertex 23.6686 14.9239 9.19134
    endloop
  endfacet
  facet normal 0.291262 -0.941747 -0.168161
    outer loop
      vertex 29.909 14.9239 20
      vertex 23.7486 14.9569 9.14514
      vertex 30.0157 14.9569 20
    endloop
  endfacet
  facet normal 0.506744 0 0.862096
    outer loop
      vertex 24.866 14 8.5
      vertex 24.8619 14.098 8.50241
      vertex 24.8619 13.902 8.50241
    endloop
  endfacet
  facet normal -0.865005 0.0484706 0.499416
    outer loop
      vertex 24.8619 13.902 8.50241
      vertex 31.5056 14 20
      vertex 24.866 14 8.5
    endloop
  endfacet
  facet normal -0.864968 0.0494267 0.499387
    outer loop
      vertex 31.5056 14 20
      vertex 24.8619 13.902 8.50241
      vertex 31.5 13.902 20
    endloop
  endfacet
  facet normal 0.498876 4.22783e-05 0.866674
    outer loop
      vertex 24.8494 13.8049 8.50961
      vertex 24.8619 13.902 8.50241
      vertex 24.8287 13.7097 8.52153
    endloop
  endfacet
  facet normal 0.497868 0.0013691 0.867252
    outer loop
      vertex 24.7201 13.4444 8.58426
      vertex 24.7638 13.5286 8.55904
      vertex 24.6694 13.3656 8.61349
    endloop
  endfacet
  facet normal 0.856769 0.145785 -0.494665
    outer loop
      vertex 29.2183 13.8049 20
      vertex 23.1381 13.902 9.49759
      vertex 29.2118 13.8431 20
    endloop
  endfacet
  facet normal 0.856625 0.146949 -0.49457
    outer loop
      vertex 23.1381 13.902 9.49759
      vertex 29.2183 13.8049 20
      vertex 23.1506 13.8049 9.49039
    endloop
  endfacet
  facet normal 0.782834 0.427659 -0.451972
    outer loop
      vertex 29.303 13.5826 20
      vertex 29.3325 13.5286 20
      vertex 23.2362 13.5286 9.44096
    endloop
  endfacet
  facet normal 0.516186 0.802956 -0.298016
    outer loop
      vertex 23.5189 13.1685 9.27778
      vertex 29.6183 13.227 20
      vertex 29.7093 13.1685 20
    endloop
  endfacet
  facet normal 0.51597 0.80314 -0.297894
    outer loop
      vertex 29.6183 13.227 20
      vertex 23.5189 13.1685 9.27778
      vertex 23.4506 13.227 9.3172
    endloop
  endfacet
  facet normal 0.499926 -0.000568213 0.866068
    outer loop
      vertex 23.7486 13.0431 9.14514
      vertex 24.0849 13.0048 8.95099
      vertex 23.5918 13.1181 9.2357
    endloop
  endfacet
  facet normal 0.581807 0.740722 -0.335905
    outer loop
      vertex 23.4506 13.227 9.3172
      vertex 29.5344 13.2929 20
      vertex 29.6183 13.227 20
    endloop
  endfacet
  facet normal 0.581475 0.741067 -0.335719
    outer loop
      vertex 29.5344 13.2929 20
      vertex 23.4506 13.227 9.3172
      vertex 23.3876 13.2929 9.35355
    endloop
  endfacet
  facet normal 0.85663 0.146892 -0.494578
    outer loop
      vertex 29.2017 13.902 20
      vertex 29.2118 13.8431 20
      vertex 23.1381 13.902 9.49759
    endloop
  endfacet
  facet normal -0.641625 0.671632 0.370442
    outer loop
      vertex 24.6694 13.3656 8.61349
      vertex 31.1673 13.2929 20
      vertex 31.2434 13.3656 20
    endloop
  endfacet
  facet normal -0.641895 0.67129 0.370594
    outer loop
      vertex 31.1673 13.2929 20
      vertex 24.6694 13.3656 8.61349
      vertex 24.6124 13.2929 8.64645
    endloop
  endfacet
  facet normal -0.782962 0.427345 0.452047
    outer loop
      vertex 24.7638 13.5286 8.55904
      vertex 31.4177 13.6173 20
      vertex 24.8001 13.6173 8.53806
    endloop
  endfacet
  facet normal -0.782707 0.427974 0.451893
    outer loop
      vertex 31.4177 13.6173 20
      vertex 24.7638 13.5286 8.55904
      vertex 31.3692 13.5286 20
    endloop
  endfacet
  facet normal -0.0423894 0.998801 0.0244734
    outer loop
      vertex 24.0849 13.0048 8.95099
      vertex 30.3509 13 20
      vertex 30.464 13.0048 20
    endloop
  endfacet
  facet normal -0.0423535 0.998803 0.024453
    outer loop
      vertex 30.3509 13 20
      vertex 24.0849 13.0048 8.95099
      vertex 24 13 9
    endloop
  endfacet
  facet normal 0.499888 0.00067705 0.86609
    outer loop
      vertex 24.2514 13.0431 8.85486
      vertex 24.3314 13.0761 8.80866
      vertex 24.0849 13.0048 8.95099
    endloop
  endfacet
  facet normal 0.839693 -0.244723 -0.484795
    outer loop
      vertex 23.1506 14.1951 9.49039
      vertex 29.2292 14.2325 20
      vertex 29.2183 14.1951 20
    endloop
  endfacet
  facet normal 0.839986 -0.243367 -0.484969
    outer loop
      vertex 29.2292 14.2325 20
      vertex 23.1506 14.1951 9.49039
      vertex 23.1713 14.2903 9.47847
    endloop
  endfacet
  facet normal -0.641895 -0.67129 0.370594
    outer loop
      vertex 24.6694 14.6344 8.61349
      vertex 31.1673 14.7071 20
      vertex 24.6124 14.7071 8.64645
    endloop
  endfacet
  facet normal -0.641625 -0.671632 0.370442
    outer loop
      vertex 31.1673 14.7071 20
      vertex 24.6694 14.6344 8.61349
      vertex 31.2434 14.6344 20
    endloop
  endfacet
  facet normal -0.581476 -0.741067 0.335716
    outer loop
      vertex 24.6124 14.7071 8.64645
      vertex 31.0834 14.773 20
      vertex 24.5494 14.773 8.6828
    endloop
  endfacet
  facet normal -0.581807 -0.740723 0.335903
    outer loop
      vertex 31.0834 14.773 20
      vertex 24.6124 14.7071 8.64645
      vertex 31.1673 14.7071 20
    endloop
  endfacet
  facet normal -0.444871 -0.857973 0.256849
    outer loop
      vertex 24.4811 14.8315 8.72221
      vertex 30.8952 14.8819 20
      vertex 24.4082 14.8819 8.7643
    endloop
  endfacet
  facet normal -0.444874 -0.857971 0.256851
    outer loop
      vertex 30.8952 14.8819 20
      vertex 24.4811 14.8315 8.72221
      vertex 30.9924 14.8315 20
    endloop
  endfacet
  facet normal 0.500749 0.00142532 0.865592
    outer loop
      vertex 24.4811 14.8315 8.72221
      vertex 24.4082 14.8819 8.7643
      vertex 24.3314 14.9239 8.80866
    endloop
  endfacet
  facet normal 0.499926 0.000568213 0.866068
    outer loop
      vertex 24.0849 14.9952 8.95099
      vertex 23.7486 14.9569 9.14514
      vertex 23.5918 14.8819 9.2357
    endloop
  endfacet
  facet normal 0.500077 -0.000307843 0.865981
    outer loop
      vertex 24.0849 14.9952 8.95099
      vertex 23.5918 14.8819 9.2357
      vertex 23.4506 14.773 9.3172
    endloop
  endfacet
  facet normal 0.127045 -0.989181 -0.0733504
    outer loop
      vertex 23.9151 14.9952 9.04901
      vertex 30.1256 14.9808 20
      vertex 23.831 14.9808 9.09754
    endloop
  endfacet
  facet normal 0.127067 -0.989177 -0.0733624
    outer loop
      vertex 30.1256 14.9808 20
      vertex 23.9151 14.9952 9.04901
      vertex 30.2377 14.9952 20
    endloop
  endfacet
  facet normal 0.499946 -0.00109376 0.866056
    outer loop
      vertex 24.0849 14.9952 8.95099
      vertex 23.9151 14.9952 9.04901
      vertex 23.831 14.9808 9.09754
    endloop
  endfacet
  facet normal -0.856625 0.146949 0.49457
    outer loop
      vertex 24.8494 13.8049 8.50961
      vertex 31.5 13.902 20
      vertex 24.8619 13.902 8.50241
    endloop
  endfacet
  facet normal -0.856686 0.146457 0.49461
    outer loop
      vertex 31.5 13.902 20
      vertex 24.8494 13.8049 8.50961
      vertex 31.4834 13.8049 20
    endloop
  endfacet
  facet normal -0.815479 -0.336638 0.470817
    outer loop
      vertex 31.4558 14.2903 20
      vertex 24.8001 14.3827 8.53806
      vertex 24.8287 14.2903 8.52153
    endloop
  endfacet
  facet normal -0.815584 -0.336296 0.470881
    outer loop
      vertex 24.8001 14.3827 8.53806
      vertex 31.4558 14.2903 20
      vertex 31.4177 14.3827 20
    endloop
  endfacet
  facet normal 0.865004 0.0485461 -0.499412
    outer loop
      vertex 29.2017 13.902 20
      vertex 23.134 14 9.5
      vertex 29.1962 14 20
    endloop
  endfacet
  facet normal 0.865006 0.0484706 -0.499414
    outer loop
      vertex 23.134 14 9.5
      vertex 29.2017 13.902 20
      vertex 23.1381 13.902 9.49759
    endloop
  endfacet
  facet normal 0.500644 0.000287437 0.865653
    outer loop
      vertex 23.1999 13.6173 9.46194
      vertex 23.2799 13.4444 9.41573
      vertex 23.1506 13.8049 9.49039
    endloop
  endfacet
  facet normal 0.499948 -4.53807e-05 0.866055
    outer loop
      vertex 23.2799 13.4444 9.41573
      vertex 23.3876 13.2929 9.35355
      vertex 23.1506 13.8049 9.49039
    endloop
  endfacet
  facet normal 0.840125 0.242735 -0.485046
    outer loop
      vertex 29.2292 13.7675 20
      vertex 29.2459 13.7097 20
      vertex 23.1713 13.7097 9.47847
    endloop
  endfacet
  facet normal 0.839693 0.244723 -0.484795
    outer loop
      vertex 29.2292 13.7675 20
      vertex 23.1506 13.8049 9.49039
      vertex 29.2183 13.8049 20
    endloop
  endfacet
  facet normal 0.839986 0.243367 -0.484969
    outer loop
      vertex 23.1506 13.8049 9.49039
      vertex 29.2292 13.7675 20
      vertex 23.1713 13.7097 9.47847
    endloop
  endfacet
  facet normal 0.127067 0.989177 -0.0733624
    outer loop
      vertex 23.9151 13.0048 9.04901
      vertex 30.1256 13.0192 20
      vertex 30.2377 13.0048 20
    endloop
  endfacet
  facet normal 0.127045 0.989181 -0.0733504
    outer loop
      vertex 30.1256 13.0192 20
      vertex 23.9151 13.0048 9.04901
      vertex 23.831 13.0192 9.09754
    endloop
  endfacet
  facet normal 0.641624 0.671631 -0.370446
    outer loop
      vertex 23.3876 13.2929 9.35355
      vertex 29.4583 13.3656 20
      vertex 29.5344 13.2929 20
    endloop
  endfacet
  facet normal 0.641893 0.67129 -0.370597
    outer loop
      vertex 29.4583 13.3656 20
      vertex 23.3876 13.2929 9.35355
      vertex 23.3306 13.3656 9.38651
    endloop
  endfacet
  facet normal 0.500077 0.000307843 0.865981
    outer loop
      vertex 23.5918 13.1181 9.2357
      vertex 24.0849 13.0048 8.95099
      vertex 23.4506 13.227 9.3172
    endloop
  endfacet
  facet normal 0.370389 0.903926 -0.213845
    outer loop
      vertex 23.6686 13.0761 9.19134
      vertex 29.8065 13.1181 20
      vertex 29.909 13.0761 20
    endloop
  endfacet
  facet normal 0.370652 0.903783 -0.213994
    outer loop
      vertex 29.8065 13.1181 20
      vertex 23.6686 13.0761 9.19134
      vertex 23.5918 13.1181 9.2357
    endloop
  endfacet
  facet normal -0.444874 0.857971 0.256851
    outer loop
      vertex 24.4811 13.1685 8.72221
      vertex 30.8952 13.1181 20
      vertex 30.9924 13.1685 20
    endloop
  endfacet
  facet normal -0.444871 0.857973 0.256849
    outer loop
      vertex 30.8952 13.1181 20
      vertex 24.4811 13.1685 8.72221
      vertex 24.4082 13.1181 8.7643
    endloop
  endfacet
  facet normal -0.516185 0.802955 0.29802
    outer loop
      vertex 24.5494 13.227 8.6828
      vertex 30.9924 13.1685 20
      vertex 31.0834 13.227 20
    endloop
  endfacet
  facet normal -0.515989 0.803122 0.297909
    outer loop
      vertex 30.9924 13.1685 20
      vertex 24.5494 13.227 8.6828
      vertex 24.4811 13.1685 8.72221
    endloop
  endfacet
  facet normal -0.695258 0.596228 0.401409
    outer loop
      vertex 24.6694 13.3656 8.61349
      vertex 31.311 13.4444 20
      vertex 24.7201 13.4444 8.58426
    endloop
  endfacet
  facet normal -0.695171 0.596365 0.401357
    outer loop
      vertex 31.311 13.4444 20
      vertex 24.6694 13.3656 8.61349
      vertex 31.2434 13.3656 20
    endloop
  endfacet
  facet normal -0.210922 0.969888 0.121775
    outer loop
      vertex 24.2514 13.0431 8.85486
      vertex 30.5761 13.0192 20
      vertex 30.686 13.0431 20
    endloop
  endfacet
  facet normal -0.210966 0.969875 0.1218
    outer loop
      vertex 30.5761 13.0192 20
      vertex 24.2514 13.0431 8.85486
      vertex 24.169 13.0192 8.90245
    endloop
  endfacet
  facet normal 0.500749 -0.00142532 0.865592
    outer loop
      vertex 24.4082 13.1181 8.7643
      vertex 24.4811 13.1685 8.72221
      vertex 24.3314 13.0761 8.80866
    endloop
  endfacet
  facet normal 0.500194 -0.000225366 0.865913
    outer loop
      vertex 24.4811 13.1685 8.72221
      vertex 24.6694 13.3656 8.61349
      vertex 24.3314 13.0761 8.80866
    endloop
  endfacet
  facet normal -0.370389 0.903926 0.213846
    outer loop
      vertex 24.4082 13.1181 8.7643
      vertex 30.7927 13.0761 20
      vertex 30.8952 13.1181 20
    endloop
  endfacet
  facet normal -0.370652 0.903783 0.213995
    outer loop
      vertex 30.7927 13.0761 20
      vertex 24.4082 13.1181 8.7643
      vertex 24.3314 13.0761 8.80866
    endloop
  endfacet
  facet normal 0.499527 0.00275954 0.866294
    outer loop
      vertex 24.169 13.0192 8.90245
      vertex 24.2514 13.0431 8.85486
      vertex 24.0849 13.0048 8.95099
    endloop
  endfacet
  facet normal 0.856769 -0.145785 -0.494665
    outer loop
      vertex 23.1381 14.098 9.49759
      vertex 29.2183 14.1951 20
      vertex 29.2118 14.1569 20
    endloop
  endfacet
  facet normal 0.856625 -0.146949 -0.49457
    outer loop
      vertex 29.2183 14.1951 20
      vertex 23.1381 14.098 9.49759
      vertex 23.1506 14.1951 9.49039
    endloop
  endfacet
  facet normal 0.865004 -0.0485461 -0.499412
    outer loop
      vertex 23.134 14 9.5
      vertex 29.2017 14.098 20
      vertex 29.1962 14 20
    endloop
  endfacet
  facet normal 0.865006 -0.0484706 -0.499414
    outer loop
      vertex 29.2017 14.098 20
      vertex 23.134 14 9.5
      vertex 23.1381 14.098 9.49759
    endloop
  endfacet
  facet normal 0.581475 -0.741067 -0.335719
    outer loop
      vertex 23.4506 14.773 9.3172
      vertex 29.5344 14.7071 20
      vertex 23.3876 14.7071 9.35355
    endloop
  endfacet
  facet normal 0.581807 -0.740722 -0.335905
    outer loop
      vertex 29.5344 14.7071 20
      vertex 23.4506 14.773 9.3172
      vertex 29.6183 14.773 20
    endloop
  endfacet
  facet normal 0.782834 -0.427659 -0.451972
    outer loop
      vertex 29.3325 14.4714 20
      vertex 29.303 14.4174 20
      vertex 23.2362 14.4714 9.44096
    endloop
  endfacet
  facet normal 0.782507 -0.428462 -0.451777
    outer loop
      vertex 23.1999 14.3827 9.46194
      vertex 29.303 14.4174 20
      vertex 29.284 14.3827 20
    endloop
  endfacet
  facet normal 0.782964 -0.427345 -0.452045
    outer loop
      vertex 29.303 14.4174 20
      vertex 23.1999 14.3827 9.46194
      vertex 23.2362 14.4714 9.44096
    endloop
  endfacet
  facet normal 0.500644 -0.000287437 0.865653
    outer loop
      vertex 23.2799 14.5556 9.41573
      vertex 23.1999 14.3827 9.46194
      vertex 23.1506 14.1951 9.49039
    endloop
  endfacet
  facet normal -0.291327 -0.941721 0.168196
    outer loop
      vertex 24.3314 14.9239 8.80866
      vertex 30.686 14.9569 20
      vertex 24.2514 14.9569 8.85486
    endloop
  endfacet
  facet normal -0.291262 -0.941748 0.16816
    outer loop
      vertex 30.686 14.9569 20
      vertex 24.3314 14.9239 8.80866
      vertex 30.7927 14.9239 20
    endloop
  endfacet
  facet normal -0.0423535 -0.998803 0.024453
    outer loop
      vertex 24.0849 14.9952 8.95099
      vertex 30.3509 15 20
      vertex 24 15 9
    endloop
  endfacet
  facet normal -0.0423894 -0.998801 0.0244734
    outer loop
      vertex 30.3509 15 20
      vertex 24.0849 14.9952 8.95099
      vertex 30.464 14.9952 20
    endloop
  endfacet
  facet normal -0.695258 -0.596228 0.401409
    outer loop
      vertex 31.311 14.5556 20
      vertex 24.6694 14.6344 8.61349
      vertex 24.7201 14.5556 8.58426
    endloop
  endfacet
  facet normal -0.695171 -0.596365 0.401357
    outer loop
      vertex 24.6694 14.6344 8.61349
      vertex 31.311 14.5556 20
      vertex 31.2434 14.6344 20
    endloop
  endfacet
  facet normal 0.499889 0.000671387 0.866089
    outer loop
      vertex 23.7486 14.9569 9.14514
      vertex 23.6686 14.9239 9.19134
      vertex 23.5918 14.8819 9.2357
    endloop
  endfacet
  facet normal 0.0423535 -0.998803 -0.024453
    outer loop
      vertex 24 15 9
      vertex 30.2377 14.9952 20
      vertex 23.9151 14.9952 9.04901
    endloop
  endfacet
  facet normal 0.0423521 -0.998803 -0.0244522
    outer loop
      vertex 30.2377 14.9952 20
      vertex 24 15 9
      vertex 30.3509 15 20
    endloop
  endfacet
  facet normal 0.500375 1.16529e-05 0.865809
    outer loop
      vertex 24.8001 13.6173 8.53806
      vertex 24.8287 13.7097 8.52153
      vertex 24.7638 13.5286 8.55904
    endloop
  endfacet
  facet normal 0.695535 0.595795 -0.401572
    outer loop
      vertex 29.4583 13.3656 20
      vertex 23.2799 13.4444 9.41573
      vertex 29.3908 13.4444 20
    endloop
  endfacet
  facet normal 0.69528 0.596195 -0.40142
    outer loop
      vertex 23.2799 13.4444 9.41573
      vertex 29.4583 13.3656 20
      vertex 23.3306 13.3656 9.38651
    endloop
  endfacet
  facet normal 0.815747 0.335763 -0.470977
    outer loop
      vertex 29.284 13.6173 20
      vertex 23.1713 13.7097 9.47847
      vertex 29.2691 13.6535 20
    endloop
  endfacet
  facet normal 0.815481 0.336638 -0.470814
    outer loop
      vertex 23.1713 13.7097 9.47847
      vertex 29.284 13.6173 20
      vertex 23.1999 13.6173 9.46194
    endloop
  endfacet
  facet normal 0.503651 0.00134272 0.863906
    outer loop
      vertex 23.1713 13.7097 9.47847
      vertex 23.1999 13.6173 9.46194
      vertex 23.1506 13.8049 9.49039
    endloop
  endfacet
  facet normal 0.499946 0 0.866056
    outer loop
      vertex 24 13 9
      vertex 24.0849 13.0048 8.95099
      vertex 23.9151 13.0048 9.04901
    endloop
  endfacet
  facet normal 0.499946 0.00109376 0.866056
    outer loop
      vertex 23.9151 13.0048 9.04901
      vertex 24.0849 13.0048 8.95099
      vertex 23.831 13.0192 9.09754
    endloop
  endfacet
  facet normal 0.50011 0.000364358 0.865962
    outer loop
      vertex 23.5189 13.1685 9.27778
      vertex 23.5918 13.1181 9.2357
      vertex 23.4506 13.227 9.3172
    endloop
  endfacet
  facet normal -0.581807 0.740723 0.335903
    outer loop
      vertex 24.6124 13.2929 8.64645
      vertex 31.0834 13.227 20
      vertex 31.1673 13.2929 20
    endloop
  endfacet
  facet normal -0.581476 0.741067 0.335716
    outer loop
      vertex 31.0834 13.227 20
      vertex 24.6124 13.2929 8.64645
      vertex 24.5494 13.227 8.6828
    endloop
  endfacet
  facet normal 0.496005 0.00477474 0.868307
    outer loop
      vertex 24.6124 13.2929 8.64645
      vertex 24.6694 13.3656 8.61349
      vertex 24.5494 13.227 8.6828
    endloop
  endfacet
  facet normal -0.127067 0.989178 0.073361
    outer loop
      vertex 24.169 13.0192 8.90245
      vertex 30.464 13.0048 20
      vertex 30.5761 13.0192 20
    endloop
  endfacet
  facet normal -0.127039 0.989182 0.0733457
    outer loop
      vertex 30.464 13.0048 20
      vertex 24.169 13.0192 8.90245
      vertex 24.0849 13.0048 8.95099
    endloop
  endfacet
  facet normal 0.85663 -0.146892 -0.494578
    outer loop
      vertex 29.2118 14.1569 20
      vertex 29.2017 14.098 20
      vertex 23.1381 14.098 9.49759
    endloop
  endfacet
  facet normal 0.506221 -0.00592112 0.862383
    outer loop
      vertex 23.3876 14.7071 9.35355
      vertex 23.3306 14.6344 9.38651
      vertex 23.2799 14.5556 9.41573
    endloop
  endfacet
  facet normal 0.815747 -0.335763 -0.470977
    outer loop
      vertex 23.1713 14.2903 9.47847
      vertex 29.284 14.3827 20
      vertex 29.2691 14.3465 20
    endloop
  endfacet
  facet normal 0.815481 -0.336638 -0.470814
    outer loop
      vertex 29.284 14.3827 20
      vertex 23.1713 14.2903 9.47847
      vertex 23.1999 14.3827 9.46194
    endloop
  endfacet
  facet normal 0.503651 -0.00134272 0.863906
    outer loop
      vertex 23.1999 14.3827 9.46194
      vertex 23.1713 14.2903 9.47847
      vertex 23.1506 14.1951 9.49039
    endloop
  endfacet
  facet normal 0.742729 -0.514265 -0.428818
    outer loop
      vertex 23.2362 14.4714 9.44096
      vertex 29.3908 14.5556 20
      vertex 29.3325 14.4714 20
    endloop
  endfacet
  facet normal 0.742841 -0.514049 -0.428884
    outer loop
      vertex 29.3908 14.5556 20
      vertex 23.2362 14.4714 9.44096
      vertex 23.2799 14.5556 9.41573
    endloop
  endfacet
  facet normal -0.370652 -0.903783 0.213995
    outer loop
      vertex 24.4082 14.8819 8.7643
      vertex 30.7927 14.9239 20
      vertex 24.3314 14.9239 8.80866
    endloop
  endfacet
  facet normal -0.370389 -0.903926 0.213846
    outer loop
      vertex 30.7927 14.9239 20
      vertex 24.4082 14.8819 8.7643
      vertex 30.8952 14.8819 20
    endloop
  endfacet
  facet normal -0.127039 -0.989182 0.0733457
    outer loop
      vertex 24.169 14.9808 8.90245
      vertex 30.464 14.9952 20
      vertex 24.0849 14.9952 8.95099
    endloop
  endfacet
  facet normal -0.127067 -0.989178 0.073361
    outer loop
      vertex 30.464 14.9952 20
      vertex 24.169 14.9808 8.90245
      vertex 30.5761 14.9808 20
    endloop
  endfacet
  facet normal -0.815479 0.336638 0.470817
    outer loop
      vertex 24.8001 13.6173 8.53806
      vertex 31.4558 13.7097 20
      vertex 24.8287 13.7097 8.52153
    endloop
  endfacet
  facet normal -0.815584 0.336296 0.470881
    outer loop
      vertex 31.4558 13.7097 20
      vertex 24.8001 13.6173 8.53806
      vertex 31.4177 13.6173 20
    endloop
  endfacet
  facet normal -0.839987 0.243367 0.484968
    outer loop
      vertex 24.8287 13.7097 8.52153
      vertex 31.4834 13.8049 20
      vertex 24.8494 13.8049 8.50961
    endloop
  endfacet
  facet normal -0.839955 0.243516 0.484949
    outer loop
      vertex 31.4834 13.8049 20
      vertex 24.8287 13.7097 8.52153
      vertex 31.4558 13.7097 20
    endloop
  endfacet
  facet normal 0.742729 0.514265 -0.428818
    outer loop
      vertex 29.3908 13.4444 20
      vertex 23.2362 13.5286 9.44096
      vertex 29.3325 13.5286 20
    endloop
  endfacet
  facet normal 0.742841 0.514049 -0.428884
    outer loop
      vertex 23.2362 13.5286 9.44096
      vertex 29.3908 13.4444 20
      vertex 23.2799 13.4444 9.41573
    endloop
  endfacet
  facet normal 0.506221 0.00592112 0.862383
    outer loop
      vertex 23.3306 13.3656 9.38651
      vertex 23.3876 13.2929 9.35355
      vertex 23.2799 13.4444 9.41573
    endloop
  endfacet
  facet normal 0.498503 -0.0010332 0.866887
    outer loop
      vertex 23.2362 13.5286 9.44096
      vertex 23.2799 13.4444 9.41573
      vertex 23.1999 13.6173 9.46194
    endloop
  endfacet
  facet normal 0.782507 0.428462 -0.451777
    outer loop
      vertex 29.303 13.5826 20
      vertex 23.1999 13.6173 9.46194
      vertex 29.284 13.6173 20
    endloop
  endfacet
  facet normal 0.782964 0.427345 -0.452045
    outer loop
      vertex 23.1999 13.6173 9.46194
      vertex 29.303 13.5826 20
      vertex 23.2362 13.5286 9.44096
    endloop
  endfacet
  facet normal 0.210922 0.969888 -0.121777
    outer loop
      vertex 23.831 13.0192 9.09754
      vertex 30.0157 13.0431 20
      vertex 30.1256 13.0192 20
    endloop
  endfacet
  facet normal 0.210954 0.969878 -0.121795
    outer loop
      vertex 30.0157 13.0431 20
      vertex 23.831 13.0192 9.09754
      vertex 23.7486 13.0431 9.14514
    endloop
  endfacet
  facet normal 0.499824 -0.00176005 0.866125
    outer loop
      vertex 23.831 13.0192 9.09754
      vertex 24.0849 13.0048 8.95099
      vertex 23.7486 13.0431 9.14514
    endloop
  endfacet
  facet normal 0.500115 0.000449304 0.865959
    outer loop
      vertex 23.4506 13.227 9.3172
      vertex 24.0849 13.0048 8.95099
      vertex 23.3876 13.2929 9.35355
    endloop
  endfacet
  facet normal 0.370652 -0.903783 -0.213994
    outer loop
      vertex 23.6686 14.9239 9.19134
      vertex 29.8065 14.8819 20
      vertex 23.5918 14.8819 9.2357
    endloop
  endfacet
  facet normal 0.370389 -0.903926 -0.213845
    outer loop
      vertex 29.8065 14.8819 20
      vertex 23.6686 14.9239 9.19134
      vertex 29.909 14.9239 20
    endloop
  endfacet
  facet normal 0.840125 -0.242735 -0.485046
    outer loop
      vertex 29.2459 14.2903 20
      vertex 29.2292 14.2325 20
      vertex 23.1713 14.2903 9.47847
    endloop
  endfacet
  facet normal 0.499889 -0.000671387 0.866089
    outer loop
      vertex 23.6686 13.0761 9.19134
      vertex 23.7486 13.0431 9.14514
      vertex 23.5918 13.1181 9.2357
    endloop
  endfacet
  facet normal 0.291262 0.941747 -0.168161
    outer loop
      vertex 23.7486 13.0431 9.14514
      vertex 29.909 13.0761 20
      vertex 30.0157 13.0431 20
    endloop
  endfacet
  facet normal 0.291326 0.941721 -0.168198
    outer loop
      vertex 29.909 13.0761 20
      vertex 23.7486 13.0431 9.14514
      vertex 23.6686 13.0761 9.19134
    endloop
  endfacet
  facet normal 0.0423521 0.998803 -0.0244522
    outer loop
      vertex 24 13 9
      vertex 30.2377 13.0048 20
      vertex 30.3509 13 20
    endloop
  endfacet
  facet normal 0.0423535 0.998803 -0.024453
    outer loop
      vertex 30.2377 13.0048 20
      vertex 24 13 9
      vertex 23.9151 13.0048 9.04901
    endloop
  endfacet
  facet normal 0.444893 -0.85796 -0.256856
    outer loop
      vertex 23.5918 14.8819 9.2357
      vertex 29.7093 14.8315 20
      vertex 23.5189 14.8315 9.27778
    endloop
  endfacet
  facet normal 0.444875 -0.857973 -0.256846
    outer loop
      vertex 29.7093 14.8315 20
      vertex 23.5918 14.8819 9.2357
      vertex 29.8065 14.8819 20
    endloop
  endfacet
  facet normal 0.444875 0.857973 -0.256846
    outer loop
      vertex 23.5918 13.1181 9.2357
      vertex 29.7093 13.1685 20
      vertex 29.8065 13.1181 20
    endloop
  endfacet
  facet normal 0.444893 0.85796 -0.256856
    outer loop
      vertex 29.7093 13.1685 20
      vertex 23.5918 13.1181 9.2357
      vertex 23.5189 13.1685 9.27778
    endloop
  endfacet
  facet normal -0.840008 -0.243271 0.48498
    outer loop
      vertex 32.3287 16.1951 20
      vertex 26.8287 16.2903 10.5215
      vertex 26.8494 16.1951 10.5096
    endloop
  endfacet
  facet normal -0.839956 -0.243517 0.484947
    outer loop
      vertex 26.8287 16.2903 10.5215
      vertex 32.3287 16.1951 20
      vertex 32.3011 16.2903 20
    endloop
  endfacet
  facet normal -0.865007 -0.0484197 0.499418
    outer loop
      vertex 32.3509 16 20
      vertex 26.8619 16.098 10.5024
      vertex 26.866 16 10.5
    endloop
  endfacet
  facet normal -0.864969 -0.0494268 0.499386
    outer loop
      vertex 26.8619 16.098 10.5024
      vertex 32.3509 16 20
      vertex 32.3453 16.098 20
    endloop
  endfacet
  facet normal 0.500024 -6.87397e-05 0.866012
    outer loop
      vertex 26.6694 16.6344 10.6135
      vertex 25.3876 16.7071 11.3536
      vertex 25.1506 16.1951 11.4904
    endloop
  endfacet
  facet normal 0.505179 -0 0.863014
    outer loop
      vertex 25.1381 15.902 11.4976
      vertex 25.1381 16.098 11.4976
      vertex 25.134 16 11.5
    endloop
  endfacet
  facet normal 0.498647 -0.00711585 0.866776
    outer loop
      vertex 26.2514 16.9569 10.8549
      vertex 26.169 16.9808 10.9025
      vertex 26.0849 16.9952 10.951
    endloop
  endfacet
  facet normal 0.508679 -0.00531438 0.86094
    outer loop
      vertex 25.2799 16.5556 11.4157
      vertex 25.2362 16.4714 11.441
      vertex 25.1999 16.3827 11.4619
    endloop
  endfacet
  facet normal 0.502004 0.00220467 0.864862
    outer loop
      vertex 26.6694 16.6344 10.6135
      vertex 26.6124 16.7071 10.6464
      vertex 26.5494 16.773 10.6828
    endloop
  endfacet
  facet normal 0.500024 6.87397e-05 0.866012
    outer loop
      vertex 25.3876 15.2929 11.3536
      vertex 26.6694 15.3656 10.6135
      vertex 25.1506 15.8049 11.4904
    endloop
  endfacet
  facet normal 0.500973 -0.000530291 0.865463
    outer loop
      vertex 26.8287 15.7097 10.5215
      vertex 26.8619 15.902 10.5024
      vertex 26.6694 15.3656 10.6135
    endloop
  endfacet
  facet normal 0.500025 3.92816e-05 0.866011
    outer loop
      vertex 26.0849 15.0048 10.951
      vertex 26.6694 15.3656 10.6135
      vertex 25.3876 15.2929 11.3536
    endloop
  endfacet
  facet normal 0.490829 -0.0070405 0.871227
    outer loop
      vertex 26.7638 16.4714 10.559
      vertex 26.7201 16.5556 10.5843
      vertex 26.6694 16.6344 10.6135
    endloop
  endfacet
  facet normal 0.489451 -0.00516402 0.872015
    outer loop
      vertex 26.8287 16.2903 10.5215
      vertex 26.8001 16.3827 10.5381
      vertex 26.7638 16.4714 10.559
    endloop
  endfacet
  facet normal 0.499664 0.0024913 0.866216
    outer loop
      vertex 26.0849 16.9952 10.951
      vertex 25.831 16.9808 11.0975
      vertex 25.7486 16.9569 11.1451
    endloop
  endfacet
  facet normal -0.210955 -0.969878 0.121794
    outer loop
      vertex 26.2514 16.9569 10.8549
      vertex 31.4214 16.9808 20
      vertex 26.169 16.9808 10.9025
    endloop
  endfacet
  facet normal -0.210922 -0.969888 0.121775
    outer loop
      vertex 31.4214 16.9808 20
      vertex 26.2514 16.9569 10.8549
      vertex 31.5313 16.9569 20
    endloop
  endfacet
  facet normal -0.856626 -0.146949 0.494569
    outer loop
      vertex 32.3453 16.098 20
      vertex 26.8494 16.1951 10.5096
      vertex 26.8619 16.098 10.5024
    endloop
  endfacet
  facet normal -0.856686 -0.146457 0.49461
    outer loop
      vertex 26.8494 16.1951 10.5096
      vertex 32.3453 16.098 20
      vertex 32.3287 16.1951 20
    endloop
  endfacet
  facet normal 0.500973 0.000530291 0.865463
    outer loop
      vertex 26.8619 16.098 10.5024
      vertex 26.8287 16.2903 10.5215
      vertex 26.6694 16.6344 10.6135
    endloop
  endfacet
  facet normal 0.815394 0.33691 -0.470769
    outer loop
      vertex 30.0912 15.7097 20
      vertex 30.11 15.6642 20
      vertex 25.1713 15.7097 11.4785
    endloop
  endfacet
  facet normal 0.499878 0.00035551 0.866095
    outer loop
      vertex 26.3314 15.0761 10.8087
      vertex 26.6694 15.3656 10.6135
      vertex 26.0849 15.0048 10.951
    endloop
  endfacet
  facet normal 0.839838 -0.244055 -0.484881
    outer loop
      vertex 30.0912 16.2903 20
      vertex 30.0776 16.2435 20
      vertex 25.1713 16.2903 11.4785
    endloop
  endfacet
  facet normal 0.500009 0 0.86602
    outer loop
      vertex 25.1506 16.1951 11.4904
      vertex 26.6694 15.3656 10.6135
      vertex 26.6694 16.6344 10.6135
    endloop
  endfacet
  facet normal 0.500009 0 0.86602
    outer loop
      vertex 26.6694 15.3656 10.6135
      vertex 25.1506 16.1951 11.4904
      vertex 25.1506 15.8049 11.4904
    endloop
  endfacet
  facet normal 0.500025 -3.92816e-05 0.866011
    outer loop
      vertex 26.6694 16.6344 10.6135
      vertex 26.0849 16.9952 10.951
      vertex 25.3876 16.7071 11.3536
    endloop
  endfacet
  facet normal 0.642025 -0.671122 -0.370673
    outer loop
      vertex 25.3876 16.7071 11.3536
      vertex 30.3036 16.6344 20
      vertex 25.3306 16.6344 11.3865
    endloop
  endfacet
  facet normal 0.641623 -0.67163 -0.370449
    outer loop
      vertex 30.3036 16.6344 20
      vertex 25.3876 16.7071 11.3536
      vertex 30.3797 16.7071 20
    endloop
  endfacet
  facet normal 0.498768 0.000705575 0.866735
    outer loop
      vertex 25.3876 16.7071 11.3536
      vertex 25.2799 16.5556 11.4157
      vertex 25.1506 16.1951 11.4904
    endloop
  endfacet
  facet normal 0.499623 -0.00153254 0.866242
    outer loop
      vertex 26.3314 16.9239 10.8087
      vertex 26.2514 16.9569 10.8549
      vertex 26.0849 16.9952 10.951
    endloop
  endfacet
  facet normal -0.742709 -0.514311 0.428798
    outer loop
      vertex 32.2145 16.4714 20
      vertex 26.7201 16.5556 10.5843
      vertex 26.7638 16.4714 10.559
    endloop
  endfacet
  facet normal -0.742732 -0.514267 0.428812
    outer loop
      vertex 26.7201 16.5556 10.5843
      vertex 32.2145 16.4714 20
      vertex 32.1562 16.5556 20
    endloop
  endfacet
  facet normal -0.783098 -0.427011 0.452127
    outer loop
      vertex 32.263 16.3827 20
      vertex 26.7638 16.4714 10.559
      vertex 26.8001 16.3827 10.5381
    endloop
  endfacet
  facet normal -0.782708 -0.427975 0.451891
    outer loop
      vertex 26.7638 16.4714 10.559
      vertex 32.263 16.3827 20
      vertex 32.2145 16.4714 20
    endloop
  endfacet
  facet normal 0.498503 -0.0018391 0.866886
    outer loop
      vertex 26.6694 16.6344 10.6135
      vertex 26.5494 16.773 10.6828
      vertex 26.4811 16.8315 10.7222
    endloop
  endfacet
  facet normal 0.500821 0.00111242 0.86555
    outer loop
      vertex 26.6694 16.6344 10.6135
      vertex 26.4811 16.8315 10.7222
      vertex 26.3314 16.9239 10.8087
    endloop
  endfacet
  facet normal 0.210954 -0.969878 -0.121795
    outer loop
      vertex 25.831 16.9808 11.0975
      vertex 30.861 16.9569 20
      vertex 25.7486 16.9569 11.1451
    endloop
  endfacet
  facet normal 0.210922 -0.969888 -0.121777
    outer loop
      vertex 30.861 16.9569 20
      vertex 25.831 16.9808 11.0975
      vertex 30.9709 16.9808 20
    endloop
  endfacet
  facet normal 0.49984 0.000558268 0.866118
    outer loop
      vertex 26.0849 16.9952 10.951
      vertex 25.4506 16.773 11.3172
      vertex 25.3876 16.7071 11.3536
    endloop
  endfacet
  facet normal 0.499865 0 0.866103
    outer loop
      vertex 26.6694 16.6344 10.6135
      vertex 26.8619 15.902 10.5024
      vertex 26.8619 16.098 10.5024
    endloop
  endfacet
  facet normal 0.499865 0 0.866103
    outer loop
      vertex 26.8619 15.902 10.5024
      vertex 26.6694 16.6344 10.6135
      vertex 26.6694 15.3656 10.6135
    endloop
  endfacet
  facet normal 0.499479 0.000392145 0.866326
    outer loop
      vertex 26.7638 15.5286 10.559
      vertex 26.8287 15.7097 10.5215
      vertex 26.6694 15.3656 10.6135
    endloop
  endfacet
  facet normal -0.783098 0.427011 0.452127
    outer loop
      vertex 26.7638 15.5286 10.559
      vertex 32.263 15.6173 20
      vertex 26.8001 15.6173 10.5381
    endloop
  endfacet
  facet normal -0.782708 0.427975 0.451891
    outer loop
      vertex 32.263 15.6173 20
      vertex 26.7638 15.5286 10.559
      vertex 32.2145 15.5286 20
    endloop
  endfacet
  facet normal 0.497331 -0.000306831 0.867561
    outer loop
      vertex 26.8619 16.098 10.5024
      vertex 26.8494 16.1951 10.5096
      vertex 26.8287 16.2903 10.5215
    endloop
  endfacet
  facet normal 0.499122 0 0.866532
    outer loop
      vertex 25.1381 16.098 11.4976
      vertex 25.1506 15.8049 11.4904
      vertex 25.1506 16.1951 11.4904
    endloop
  endfacet
  facet normal 0.499122 0 0.866532
    outer loop
      vertex 25.1506 15.8049 11.4904
      vertex 25.1381 16.098 11.4976
      vertex 25.1381 15.902 11.4976
    endloop
  endfacet
  facet normal -0.742709 0.514311 0.428798
    outer loop
      vertex 26.7201 15.4444 10.5843
      vertex 32.2145 15.5286 20
      vertex 26.7638 15.5286 10.559
    endloop
  endfacet
  facet normal -0.742732 0.514267 0.428812
    outer loop
      vertex 32.2145 15.5286 20
      vertex 26.7201 15.4444 10.5843
      vertex 32.1562 15.4444 20
    endloop
  endfacet
  facet normal -0.291262 0.941748 0.16816
    outer loop
      vertex 26.3314 15.0761 10.8087
      vertex 31.5313 15.0431 20
      vertex 31.638 15.0761 20
    endloop
  endfacet
  facet normal -0.291326 0.941721 0.168197
    outer loop
      vertex 31.5313 15.0431 20
      vertex 26.3314 15.0761 10.8087
      vertex 26.2514 15.0431 10.8549
    endloop
  endfacet
  facet normal 0.498503 0.0018391 0.866886
    outer loop
      vertex 26.5494 15.227 10.6828
      vertex 26.6694 15.3656 10.6135
      vertex 26.4811 15.1685 10.7222
    endloop
  endfacet
  facet normal 0.695535 -0.595795 -0.401572
    outer loop
      vertex 25.2799 16.5556 11.4157
      vertex 30.3036 16.6344 20
      vertex 30.2361 16.5556 20
    endloop
  endfacet
  facet normal 0.695322 -0.596129 -0.401444
    outer loop
      vertex 30.3036 16.6344 20
      vertex 25.2799 16.5556 11.4157
      vertex 25.3306 16.6344 11.3865
    endloop
  endfacet
  facet normal 0.499878 -0.00035551 0.866095
    outer loop
      vertex 26.6694 16.6344 10.6135
      vertex 26.3314 16.9239 10.8087
      vertex 26.0849 16.9952 10.951
    endloop
  endfacet
  facet normal 0.499479 -0.000392145 0.866326
    outer loop
      vertex 26.8287 16.2903 10.5215
      vertex 26.7638 16.4714 10.559
      vertex 26.6694 16.6344 10.6135
    endloop
  endfacet
  facet normal -0.51601 -0.803104 0.297922
    outer loop
      vertex 26.5494 16.773 10.6828
      vertex 31.8377 16.8315 20
      vertex 26.4811 16.8315 10.7222
    endloop
  endfacet
  facet normal -0.516185 -0.802955 0.29802
    outer loop
      vertex 31.8377 16.8315 20
      vertex 26.5494 16.773 10.6828
      vertex 31.9287 16.773 20
    endloop
  endfacet
  facet normal 0.501824 -0.00333435 0.864963
    outer loop
      vertex 25.5918 16.8819 11.2357
      vertex 25.5189 16.8315 11.2778
      vertex 25.4506 16.773 11.3172
    endloop
  endfacet
  facet normal 0.49987 0 0.866101
    outer loop
      vertex 26.0849 16.9952 10.951
      vertex 26 17 11
      vertex 25.9151 16.9952 11.049
    endloop
  endfacet
  facet normal 0.291326 -0.941721 -0.168197
    outer loop
      vertex 25.7486 16.9569 11.1451
      vertex 30.7543 16.9239 20
      vertex 25.6686 16.9239 11.1913
    endloop
  endfacet
  facet normal 0.291262 -0.941747 -0.168161
    outer loop
      vertex 30.7543 16.9239 20
      vertex 25.7486 16.9569 11.1451
      vertex 30.861 16.9569 20
    endloop
  endfacet
  facet normal 0.505179 0 0.863014
    outer loop
      vertex 26.866 16 10.5
      vertex 26.8619 16.098 10.5024
      vertex 26.8619 15.902 10.5024
    endloop
  endfacet
  facet normal -0.865007 0.0484197 0.499418
    outer loop
      vertex 26.8619 15.902 10.5024
      vertex 32.3509 16 20
      vertex 26.866 16 10.5
    endloop
  endfacet
  facet normal -0.864969 0.0494268 0.499386
    outer loop
      vertex 32.3509 16 20
      vertex 26.8619 15.902 10.5024
      vertex 32.3453 15.902 20
    endloop
  endfacet
  facet normal 0.490829 0.0070405 0.871227
    outer loop
      vertex 26.7201 15.4444 10.5843
      vertex 26.7638 15.5286 10.559
      vertex 26.6694 15.3656 10.6135
    endloop
  endfacet
  facet normal 0.85678 0.145687 -0.494675
    outer loop
      vertex 30.0636 15.8049 20
      vertex 25.1381 15.902 11.4976
      vertex 30.0552 15.8543 20
    endloop
  endfacet
  facet normal 0.856625 0.146949 -0.494571
    outer loop
      vertex 25.1381 15.902 11.4976
      vertex 30.0636 15.8049 20
      vertex 25.1506 15.8049 11.4904
    endloop
  endfacet
  facet normal 0.695535 0.595795 -0.401572
    outer loop
      vertex 30.3036 15.3656 20
      vertex 25.2799 15.4444 11.4157
      vertex 30.2361 15.4444 20
    endloop
  endfacet
  facet normal 0.695322 0.596129 -0.401444
    outer loop
      vertex 25.2799 15.4444 11.4157
      vertex 30.3036 15.3656 20
      vertex 25.3306 15.3656 11.3865
    endloop
  endfacet
  facet normal 0.444875 0.857973 -0.256845
    outer loop
      vertex 25.5918 15.1181 11.2357
      vertex 30.5546 15.1685 20
      vertex 30.6518 15.1181 20
    endloop
  endfacet
  facet normal 0.444854 0.857987 -0.256833
    outer loop
      vertex 30.5546 15.1685 20
      vertex 25.5918 15.1181 11.2357
      vertex 25.5189 15.1685 11.2778
    endloop
  endfacet
  facet normal 0.499747 -0.00152797 0.86617
    outer loop
      vertex 25.7486 15.0431 11.1451
      vertex 26.0849 15.0048 10.951
      vertex 25.5918 15.1181 11.2357
    endloop
  endfacet
  facet normal 0.370389 0.903926 -0.213844
    outer loop
      vertex 25.6686 15.0761 11.1913
      vertex 30.6518 15.1181 20
      vertex 30.7543 15.0761 20
    endloop
  endfacet
  facet normal 0.370584 0.90382 -0.213954
    outer loop
      vertex 30.6518 15.1181 20
      vertex 25.6686 15.0761 11.1913
      vertex 25.5918 15.1181 11.2357
    endloop
  endfacet
  facet normal 0.856583 0.147253 -0.494552
    outer loop
      vertex 30.047 15.902 20
      vertex 30.0552 15.8543 20
      vertex 25.1381 15.902 11.4976
    endloop
  endfacet
  facet normal -0.641625 0.671632 0.370442
    outer loop
      vertex 26.6694 15.3656 10.6135
      vertex 32.0126 15.2929 20
      vertex 32.0887 15.3656 20
    endloop
  endfacet
  facet normal -0.642028 0.671122 0.370668
    outer loop
      vertex 32.0126 15.2929 20
      vertex 26.6694 15.3656 10.6135
      vertex 26.6124 15.2929 10.6464
    endloop
  endfacet
  facet normal -0.815382 0.336954 0.47076
    outer loop
      vertex 26.8001 15.6173 10.5381
      vertex 32.3011 15.7097 20
      vertex 26.8287 15.7097 10.5215
    endloop
  endfacet
  facet normal -0.815583 0.336295 0.470883
    outer loop
      vertex 32.3011 15.7097 20
      vertex 26.8001 15.6173 10.5381
      vertex 32.263 15.6173 20
    endloop
  endfacet
  facet normal -0.0423894 0.998801 0.0244734
    outer loop
      vertex 26.0849 15.0048 10.951
      vertex 31.1962 15 20
      vertex 31.3093 15.0048 20
    endloop
  endfacet
  facet normal -0.0423557 0.998803 0.0244543
    outer loop
      vertex 31.1962 15 20
      vertex 26.0849 15.0048 10.951
      vertex 26 15 11
    endloop
  endfacet
  facet normal 0.499623 0.00153254 0.866242
    outer loop
      vertex 26.2514 15.0431 10.8549
      vertex 26.3314 15.0761 10.8087
      vertex 26.0849 15.0048 10.951
    endloop
  endfacet
  facet normal 0.840069 -0.242995 -0.485012
    outer loop
      vertex 25.1506 16.1951 11.4904
      vertex 30.0776 16.2435 20
      vertex 30.0636 16.1951 20
    endloop
  endfacet
  facet normal 0.84001 -0.243271 -0.484976
    outer loop
      vertex 30.0776 16.2435 20
      vertex 25.1506 16.1951 11.4904
      vertex 25.1713 16.2903 11.4785
    endloop
  endfacet
  facet normal -0.642028 -0.671122 0.370668
    outer loop
      vertex 26.6694 16.6344 10.6135
      vertex 32.0126 16.7071 20
      vertex 26.6124 16.7071 10.6464
    endloop
  endfacet
  facet normal -0.641625 -0.671632 0.370442
    outer loop
      vertex 32.0126 16.7071 20
      vertex 26.6694 16.6344 10.6135
      vertex 32.0887 16.6344 20
    endloop
  endfacet
  facet normal -0.581367 -0.741182 0.335653
    outer loop
      vertex 26.6124 16.7071 10.6464
      vertex 31.9287 16.773 20
      vertex 26.5494 16.773 10.6828
    endloop
  endfacet
  facet normal -0.581808 -0.740723 0.3359
    outer loop
      vertex 31.9287 16.773 20
      vertex 26.6124 16.7071 10.6464
      vertex 32.0126 16.7071 20
    endloop
  endfacet
  facet normal -0.444851 -0.857987 0.256838
    outer loop
      vertex 26.4811 16.8315 10.7222
      vertex 31.7405 16.8819 20
      vertex 26.4082 16.8819 10.7643
    endloop
  endfacet
  facet normal -0.444874 -0.857971 0.256851
    outer loop
      vertex 31.7405 16.8819 20
      vertex 26.4811 16.8315 10.7222
      vertex 31.8377 16.8315 20
    endloop
  endfacet
  facet normal 0.502024 0.00372059 0.864846
    outer loop
      vertex 26.4811 16.8315 10.7222
      vertex 26.4082 16.8819 10.7643
      vertex 26.3314 16.9239 10.8087
    endloop
  endfacet
  facet normal 0.499747 0.00152797 0.86617
    outer loop
      vertex 26.0849 16.9952 10.951
      vertex 25.7486 16.9569 11.1451
      vertex 25.5918 16.8819 11.2357
    endloop
  endfacet
  facet normal 0.500059 -0.000275413 0.865991
    outer loop
      vertex 26.0849 16.9952 10.951
      vertex 25.5918 16.8819 11.2357
      vertex 25.4506 16.773 11.3172
    endloop
  endfacet
  facet normal 0.127065 -0.989178 -0.0733614
    outer loop
      vertex 25.9151 16.9952 11.049
      vertex 30.9709 16.9808 20
      vertex 25.831 16.9808 11.0975
    endloop
  endfacet
  facet normal 0.127067 -0.989177 -0.0733624
    outer loop
      vertex 30.9709 16.9808 20
      vertex 25.9151 16.9952 11.049
      vertex 31.083 16.9952 20
    endloop
  endfacet
  facet normal 0.499868 -0.0023024 0.866098
    outer loop
      vertex 26.0849 16.9952 10.951
      vertex 25.9151 16.9952 11.049
      vertex 25.831 16.9808 11.0975
    endloop
  endfacet
  facet normal 0.497331 0.000306831 0.867561
    outer loop
      vertex 26.8494 15.8049 10.5096
      vertex 26.8619 15.902 10.5024
      vertex 26.8287 15.7097 10.5215
    endloop
  endfacet
  facet normal -0.815382 -0.336954 0.47076
    outer loop
      vertex 32.3011 16.2903 20
      vertex 26.8001 16.3827 10.5381
      vertex 26.8287 16.2903 10.5215
    endloop
  endfacet
  facet normal -0.815583 -0.336295 0.470883
    outer loop
      vertex 26.8001 16.3827 10.5381
      vertex 32.3011 16.2903 20
      vertex 32.263 16.3827 20
    endloop
  endfacet
  facet normal 0.865003 0.0485461 -0.499412
    outer loop
      vertex 30.047 15.902 20
      vertex 25.134 16 11.5
      vertex 30.0415 16 20
    endloop
  endfacet
  facet normal 0.865008 0.0484197 -0.499416
    outer loop
      vertex 25.134 16 11.5
      vertex 30.047 15.902 20
      vertex 25.1381 15.902 11.4976
    endloop
  endfacet
  facet normal 0.815766 0.335699 -0.470991
    outer loop
      vertex 30.1293 15.6173 20
      vertex 25.1713 15.7097 11.4785
      vertex 30.11 15.6642 20
    endloop
  endfacet
  facet normal 0.815384 0.336954 -0.470755
    outer loop
      vertex 25.1713 15.7097 11.4785
      vertex 30.1293 15.6173 20
      vertex 25.1999 15.6173 11.4619
    endloop
  endfacet
  facet normal 0.498768 -0.000705575 0.866735
    outer loop
      vertex 25.2799 15.4444 11.4157
      vertex 25.3876 15.2929 11.3536
      vertex 25.1506 15.8049 11.4904
    endloop
  endfacet
  facet normal 0.839838 0.244055 -0.484881
    outer loop
      vertex 30.0776 15.7565 20
      vertex 30.0912 15.7097 20
      vertex 25.1713 15.7097 11.4785
    endloop
  endfacet
  facet normal 0.840069 0.242995 -0.485012
    outer loop
      vertex 30.0776 15.7565 20
      vertex 25.1506 15.8049 11.4904
      vertex 30.0636 15.8049 20
    endloop
  endfacet
  facet normal 0.84001 0.243271 -0.484976
    outer loop
      vertex 25.1506 15.8049 11.4904
      vertex 30.0776 15.7565 20
      vertex 25.1713 15.7097 11.4785
    endloop
  endfacet
  facet normal 0.127067 0.989177 -0.0733624
    outer loop
      vertex 25.9151 15.0048 11.049
      vertex 30.9709 15.0192 20
      vertex 31.083 15.0048 20
    endloop
  endfacet
  facet normal 0.127065 0.989178 -0.0733614
    outer loop
      vertex 30.9709 15.0192 20
      vertex 25.9151 15.0048 11.049
      vertex 25.831 15.0192 11.0975
    endloop
  endfacet
  facet normal 0.500059 0.000275413 0.865991
    outer loop
      vertex 25.5918 15.1181 11.2357
      vertex 26.0849 15.0048 10.951
      vertex 25.4506 15.227 11.3172
    endloop
  endfacet
  facet normal -0.444874 0.857971 0.256851
    outer loop
      vertex 26.4811 15.1685 10.7222
      vertex 31.7405 15.1181 20
      vertex 31.8377 15.1685 20
    endloop
  endfacet
  facet normal -0.444851 0.857987 0.256838
    outer loop
      vertex 31.7405 15.1181 20
      vertex 26.4811 15.1685 10.7222
      vertex 26.4082 15.1181 10.7643
    endloop
  endfacet
  facet normal -0.516185 0.802955 0.29802
    outer loop
      vertex 26.5494 15.227 10.6828
      vertex 31.8377 15.1685 20
      vertex 31.9287 15.227 20
    endloop
  endfacet
  facet normal -0.51601 0.803104 0.297922
    outer loop
      vertex 31.8377 15.1685 20
      vertex 26.5494 15.227 10.6828
      vertex 26.4811 15.1685 10.7222
    endloop
  endfacet
  facet normal -0.695324 0.596129 0.401441
    outer loop
      vertex 26.6694 15.3656 10.6135
      vertex 32.1562 15.4444 20
      vertex 26.7201 15.4444 10.5843
    endloop
  endfacet
  facet normal -0.695536 0.595796 0.401568
    outer loop
      vertex 32.1562 15.4444 20
      vertex 26.6694 15.3656 10.6135
      vertex 32.0887 15.3656 20
    endloop
  endfacet
  facet normal -0.210922 0.969888 0.121775
    outer loop
      vertex 26.2514 15.0431 10.8549
      vertex 31.4214 15.0192 20
      vertex 31.5313 15.0431 20
    endloop
  endfacet
  facet normal -0.210955 0.969878 0.121794
    outer loop
      vertex 31.4214 15.0192 20
      vertex 26.2514 15.0431 10.8549
      vertex 26.169 15.0192 10.9025
    endloop
  endfacet
  facet normal 0.502024 -0.00372059 0.864846
    outer loop
      vertex 26.4082 15.1181 10.7643
      vertex 26.4811 15.1685 10.7222
      vertex 26.3314 15.0761 10.8087
    endloop
  endfacet
  facet normal 0.500821 -0.00111242 0.86555
    outer loop
      vertex 26.4811 15.1685 10.7222
      vertex 26.6694 15.3656 10.6135
      vertex 26.3314 15.0761 10.8087
    endloop
  endfacet
  facet normal -0.370389 0.903926 0.213847
    outer loop
      vertex 26.4082 15.1181 10.7643
      vertex 31.638 15.0761 20
      vertex 31.7405 15.1181 20
    endloop
  endfacet
  facet normal -0.370583 0.90382 0.213956
    outer loop
      vertex 31.638 15.0761 20
      vertex 26.4082 15.1181 10.7643
      vertex 26.3314 15.0761 10.8087
    endloop
  endfacet
  facet normal 0.498647 0.00711585 0.866776
    outer loop
      vertex 26.169 15.0192 10.9025
      vertex 26.2514 15.0431 10.8549
      vertex 26.0849 15.0048 10.951
    endloop
  endfacet
  facet normal 0.85678 -0.145687 -0.494675
    outer loop
      vertex 25.1381 16.098 11.4976
      vertex 30.0636 16.1951 20
      vertex 30.0552 16.1457 20
    endloop
  endfacet
  facet normal 0.856625 -0.146949 -0.494571
    outer loop
      vertex 30.0636 16.1951 20
      vertex 25.1381 16.098 11.4976
      vertex 25.1506 16.1951 11.4904
    endloop
  endfacet
  facet normal 0.581364 -0.741182 -0.335657
    outer loop
      vertex 25.4506 16.773 11.3172
      vertex 30.3797 16.7071 20
      vertex 25.3876 16.7071 11.3536
    endloop
  endfacet
  facet normal 0.581807 -0.740722 -0.335905
    outer loop
      vertex 30.3797 16.7071 20
      vertex 25.4506 16.773 11.3172
      vertex 30.4636 16.773 20
    endloop
  endfacet
  facet normal 0.782999 -0.427253 -0.45207
    outer loop
      vertex 30.1778 16.4714 20
      vertex 30.1539 16.4276 20
      vertex 25.2362 16.4714 11.441
    endloop
  endfacet
  facet normal 0.782421 -0.428676 -0.451724
    outer loop
      vertex 25.1999 16.3827 11.4619
      vertex 30.1539 16.4276 20
      vertex 30.1293 16.3827 20
    endloop
  endfacet
  facet normal 0.783099 -0.427011 -0.452126
    outer loop
      vertex 30.1539 16.4276 20
      vertex 25.1999 16.3827 11.4619
      vertex 25.2362 16.4714 11.441
    endloop
  endfacet
  facet normal 0.49959 0.000312622 0.866262
    outer loop
      vertex 25.2799 16.5556 11.4157
      vertex 25.1999 16.3827 11.4619
      vertex 25.1506 16.1951 11.4904
    endloop
  endfacet
  facet normal -0.291326 -0.941721 0.168197
    outer loop
      vertex 26.3314 16.9239 10.8087
      vertex 31.5313 16.9569 20
      vertex 26.2514 16.9569 10.8549
    endloop
  endfacet
  facet normal -0.291262 -0.941748 0.16816
    outer loop
      vertex 31.5313 16.9569 20
      vertex 26.3314 16.9239 10.8087
      vertex 31.638 16.9239 20
    endloop
  endfacet
  facet normal -0.0423557 -0.998803 0.0244543
    outer loop
      vertex 26.0849 16.9952 10.951
      vertex 31.1962 17 20
      vertex 26 17 11
    endloop
  endfacet
  facet normal -0.0423894 -0.998801 0.0244734
    outer loop
      vertex 31.1962 17 20
      vertex 26.0849 16.9952 10.951
      vertex 31.3093 16.9952 20
    endloop
  endfacet
  facet normal -0.695324 -0.596129 0.401441
    outer loop
      vertex 32.1562 16.5556 20
      vertex 26.6694 16.6344 10.6135
      vertex 26.7201 16.5556 10.5843
    endloop
  endfacet
  facet normal -0.695536 -0.595796 0.401568
    outer loop
      vertex 26.6694 16.6344 10.6135
      vertex 32.1562 16.5556 20
      vertex 32.0887 16.6344 20
    endloop
  endfacet
  facet normal 0.498846 0.00403108 0.866681
    outer loop
      vertex 25.7486 16.9569 11.1451
      vertex 25.6686 16.9239 11.1913
      vertex 25.5918 16.8819 11.2357
    endloop
  endfacet
  facet normal 0.0423557 -0.998803 -0.0244542
    outer loop
      vertex 26 17 11
      vertex 31.083 16.9952 20
      vertex 25.9151 16.9952 11.049
    endloop
  endfacet
  facet normal 0.0423521 -0.998803 -0.0244522
    outer loop
      vertex 31.083 16.9952 20
      vertex 26 17 11
      vertex 31.1962 17 20
    endloop
  endfacet
  facet normal -0.840008 0.243271 0.48498
    outer loop
      vertex 26.8287 15.7097 10.5215
      vertex 32.3287 15.8049 20
      vertex 26.8494 15.8049 10.5096
    endloop
  endfacet
  facet normal -0.839956 0.243517 0.484947
    outer loop
      vertex 32.3287 15.8049 20
      vertex 26.8287 15.7097 10.5215
      vertex 32.3011 15.7097 20
    endloop
  endfacet
  facet normal 0.489451 0.00516402 0.872015
    outer loop
      vertex 26.8001 15.6173 10.5381
      vertex 26.8287 15.7097 10.5215
      vertex 26.7638 15.5286 10.559
    endloop
  endfacet
  facet normal 0.503613 0.00389226 0.86392
    outer loop
      vertex 25.3306 15.3656 11.3865
      vertex 25.3876 15.2929 11.3536
      vertex 25.2799 15.4444 11.4157
    endloop
  endfacet
  facet normal 0.508679 0.00531438 0.86094
    outer loop
      vertex 25.2362 15.5286 11.441
      vertex 25.2799 15.4444 11.4157
      vertex 25.1999 15.6173 11.4619
    endloop
  endfacet
  facet normal 0.782421 0.428676 -0.451724
    outer loop
      vertex 30.1539 15.5724 20
      vertex 25.1999 15.6173 11.4619
      vertex 30.1293 15.6173 20
    endloop
  endfacet
  facet normal 0.783099 0.427011 -0.452126
    outer loop
      vertex 25.1999 15.6173 11.4619
      vertex 30.1539 15.5724 20
      vertex 25.2362 15.5286 11.441
    endloop
  endfacet
  facet normal 0.49987 0 0.866101
    outer loop
      vertex 26 15 11
      vertex 26.0849 15.0048 10.951
      vertex 25.9151 15.0048 11.049
    endloop
  endfacet
  facet normal 0.499868 0.0023024 0.866098
    outer loop
      vertex 25.9151 15.0048 11.049
      vertex 26.0849 15.0048 10.951
      vertex 25.831 15.0192 11.0975
    endloop
  endfacet
  facet normal 0.501824 0.00333435 0.864963
    outer loop
      vertex 25.5189 15.1685 11.2778
      vertex 25.5918 15.1181 11.2357
      vertex 25.4506 15.227 11.3172
    endloop
  endfacet
  facet normal -0.581808 0.740723 0.3359
    outer loop
      vertex 26.6124 15.2929 10.6464
      vertex 31.9287 15.227 20
      vertex 32.0126 15.2929 20
    endloop
  endfacet
  facet normal -0.581367 0.741182 0.335653
    outer loop
      vertex 31.9287 15.227 20
      vertex 26.6124 15.2929 10.6464
      vertex 26.5494 15.227 10.6828
    endloop
  endfacet
  facet normal 0.502004 -0.00220467 0.864862
    outer loop
      vertex 26.6124 15.2929 10.6464
      vertex 26.6694 15.3656 10.6135
      vertex 26.5494 15.227 10.6828
    endloop
  endfacet
  facet normal -0.127067 0.989178 0.0733613
    outer loop
      vertex 26.169 15.0192 10.9025
      vertex 31.3093 15.0048 20
      vertex 31.4214 15.0192 20
    endloop
  endfacet
  facet normal -0.127065 0.989178 0.0733605
    outer loop
      vertex 31.3093 15.0048 20
      vertex 26.169 15.0192 10.9025
      vertex 26.0849 15.0048 10.951
    endloop
  endfacet
  facet normal 0.856583 -0.147253 -0.494552
    outer loop
      vertex 30.0552 16.1457 20
      vertex 30.047 16.098 20
      vertex 25.1381 16.098 11.4976
    endloop
  endfacet
  facet normal 0.865003 -0.0485461 -0.499412
    outer loop
      vertex 25.134 16 11.5
      vertex 30.047 16.098 20
      vertex 30.0415 16 20
    endloop
  endfacet
  facet normal 0.865008 -0.0484197 -0.499416
    outer loop
      vertex 30.047 16.098 20
      vertex 25.134 16 11.5
      vertex 25.1381 16.098 11.4976
    endloop
  endfacet
  facet normal 0.370584 -0.90382 -0.213954
    outer loop
      vertex 25.6686 16.9239 11.1913
      vertex 30.6518 16.8819 20
      vertex 25.5918 16.8819 11.2357
    endloop
  endfacet
  facet normal 0.370389 -0.903926 -0.213844
    outer loop
      vertex 30.6518 16.8819 20
      vertex 25.6686 16.9239 11.1913
      vertex 30.7543 16.9239 20
    endloop
  endfacet
  facet normal 0.503613 -0.00389226 0.86392
    outer loop
      vertex 25.3876 16.7071 11.3536
      vertex 25.3306 16.6344 11.3865
      vertex 25.2799 16.5556 11.4157
    endloop
  endfacet
  facet normal 0.815766 -0.335699 -0.470991
    outer loop
      vertex 25.1713 16.2903 11.4785
      vertex 30.1293 16.3827 20
      vertex 30.11 16.3358 20
    endloop
  endfacet
  facet normal 0.815384 -0.336954 -0.470755
    outer loop
      vertex 30.1293 16.3827 20
      vertex 25.1713 16.2903 11.4785
      vertex 25.1999 16.3827 11.4619
    endloop
  endfacet
  facet normal 0.510378 -0.00348207 0.859943
    outer loop
      vertex 25.1999 16.3827 11.4619
      vertex 25.1713 16.2903 11.4785
      vertex 25.1506 16.1951 11.4904
    endloop
  endfacet
  facet normal 0.742729 -0.514265 -0.42882
    outer loop
      vertex 25.2362 16.4714 11.441
      vertex 30.2361 16.5556 20
      vertex 30.1778 16.4714 20
    endloop
  endfacet
  facet normal 0.742705 -0.514311 -0.428805
    outer loop
      vertex 30.2361 16.5556 20
      vertex 25.2362 16.4714 11.441
      vertex 25.2799 16.5556 11.4157
    endloop
  endfacet
  facet normal -0.370583 -0.90382 0.213956
    outer loop
      vertex 26.4082 16.8819 10.7643
      vertex 31.638 16.9239 20
      vertex 26.3314 16.9239 10.8087
    endloop
  endfacet
  facet normal -0.370389 -0.903926 0.213847
    outer loop
      vertex 31.638 16.9239 20
      vertex 26.4082 16.8819 10.7643
      vertex 31.7405 16.8819 20
    endloop
  endfacet
  facet normal -0.127065 -0.989178 0.0733605
    outer loop
      vertex 26.169 16.9808 10.9025
      vertex 31.3093 16.9952 20
      vertex 26.0849 16.9952 10.951
    endloop
  endfacet
  facet normal -0.127067 -0.989178 0.0733613
    outer loop
      vertex 31.3093 16.9952 20
      vertex 26.169 16.9808 10.9025
      vertex 31.4214 16.9808 20
    endloop
  endfacet
  facet normal -0.856626 0.146949 0.494569
    outer loop
      vertex 26.8494 15.8049 10.5096
      vertex 32.3453 15.902 20
      vertex 26.8619 15.902 10.5024
    endloop
  endfacet
  facet normal -0.856686 0.146457 0.49461
    outer loop
      vertex 32.3453 15.902 20
      vertex 26.8494 15.8049 10.5096
      vertex 32.3287 15.8049 20
    endloop
  endfacet
  facet normal 0.782999 0.427253 -0.45207
    outer loop
      vertex 30.1539 15.5724 20
      vertex 30.1778 15.5286 20
      vertex 25.2362 15.5286 11.441
    endloop
  endfacet
  facet normal 0.641623 0.67163 -0.370449
    outer loop
      vertex 25.3876 15.2929 11.3536
      vertex 30.3036 15.3656 20
      vertex 30.3797 15.2929 20
    endloop
  endfacet
  facet normal 0.642025 0.671122 -0.370673
    outer loop
      vertex 30.3036 15.3656 20
      vertex 25.3876 15.2929 11.3536
      vertex 25.3306 15.3656 11.3865
    endloop
  endfacet
  facet normal 0.510378 0.00348207 0.859943
    outer loop
      vertex 25.1713 15.7097 11.4785
      vertex 25.1999 15.6173 11.4619
      vertex 25.1506 15.8049 11.4904
    endloop
  endfacet
  facet normal 0.49959 -0.000312622 0.866262
    outer loop
      vertex 25.1999 15.6173 11.4619
      vertex 25.2799 15.4444 11.4157
      vertex 25.1506 15.8049 11.4904
    endloop
  endfacet
  facet normal 0.499664 -0.0024913 0.866216
    outer loop
      vertex 25.831 15.0192 11.0975
      vertex 26.0849 15.0048 10.951
      vertex 25.7486 15.0431 11.1451
    endloop
  endfacet
  facet normal 0.581807 0.740722 -0.335905
    outer loop
      vertex 25.4506 15.227 11.3172
      vertex 30.3797 15.2929 20
      vertex 30.4636 15.227 20
    endloop
  endfacet
  facet normal 0.581364 0.741182 -0.335657
    outer loop
      vertex 30.3797 15.2929 20
      vertex 25.4506 15.227 11.3172
      vertex 25.3876 15.2929 11.3536
    endloop
  endfacet
  facet normal 0.49984 -0.000558268 0.866118
    outer loop
      vertex 25.4506 15.227 11.3172
      vertex 26.0849 15.0048 10.951
      vertex 25.3876 15.2929 11.3536
    endloop
  endfacet
  facet normal 0.815394 -0.33691 -0.470769
    outer loop
      vertex 30.11 16.3358 20
      vertex 30.0912 16.2903 20
      vertex 25.1713 16.2903 11.4785
    endloop
  endfacet
  facet normal 0.742729 0.514265 -0.42882
    outer loop
      vertex 30.2361 15.4444 20
      vertex 25.2362 15.5286 11.441
      vertex 30.1778 15.5286 20
    endloop
  endfacet
  facet normal 0.742705 0.514311 -0.428805
    outer loop
      vertex 25.2362 15.5286 11.441
      vertex 30.2361 15.4444 20
      vertex 25.2799 15.4444 11.4157
    endloop
  endfacet
  facet normal 0.498846 -0.00403108 0.866681
    outer loop
      vertex 25.6686 15.0761 11.1913
      vertex 25.7486 15.0431 11.1451
      vertex 25.5918 15.1181 11.2357
    endloop
  endfacet
  facet normal 0.291262 0.941747 -0.168161
    outer loop
      vertex 25.7486 15.0431 11.1451
      vertex 30.7543 15.0761 20
      vertex 30.861 15.0431 20
    endloop
  endfacet
  facet normal 0.291326 0.941721 -0.168197
    outer loop
      vertex 30.7543 15.0761 20
      vertex 25.7486 15.0431 11.1451
      vertex 25.6686 15.0761 11.1913
    endloop
  endfacet
  facet normal 0.210922 0.969888 -0.121777
    outer loop
      vertex 25.831 15.0192 11.0975
      vertex 30.861 15.0431 20
      vertex 30.9709 15.0192 20
    endloop
  endfacet
  facet normal 0.210954 0.969878 -0.121795
    outer loop
      vertex 30.861 15.0431 20
      vertex 25.831 15.0192 11.0975
      vertex 25.7486 15.0431 11.1451
    endloop
  endfacet
  facet normal 0.0423521 0.998803 -0.0244522
    outer loop
      vertex 26 15 11
      vertex 31.083 15.0048 20
      vertex 31.1962 15 20
    endloop
  endfacet
  facet normal 0.0423557 0.998803 -0.0244542
    outer loop
      vertex 31.083 15.0048 20
      vertex 26 15 11
      vertex 25.9151 15.0048 11.049
    endloop
  endfacet
  facet normal 0.444854 -0.857987 -0.256833
    outer loop
      vertex 25.5918 16.8819 11.2357
      vertex 30.5546 16.8315 20
      vertex 25.5189 16.8315 11.2778
    endloop
  endfacet
  facet normal 0.444875 -0.857973 -0.256845
    outer loop
      vertex 30.5546 16.8315 20
      vertex 25.5918 16.8819 11.2357
      vertex 30.6518 16.8819 20
    endloop
  endfacet
  facet normal 0.516012 -0.803104 -0.297919
    outer loop
      vertex 25.5189 16.8315 11.2778
      vertex 30.4636 16.773 20
      vertex 25.4506 16.773 11.3172
    endloop
  endfacet
  facet normal 0.516186 -0.802956 -0.298016
    outer loop
      vertex 30.4636 16.773 20
      vertex 25.5189 16.8315 11.2778
      vertex 30.5546 16.8315 20
    endloop
  endfacet
  facet normal 0.516186 0.802956 -0.298016
    outer loop
      vertex 25.5189 15.1685 11.2778
      vertex 30.4636 15.227 20
      vertex 30.5546 15.1685 20
    endloop
  endfacet
  facet normal 0.516012 0.803104 -0.297919
    outer loop
      vertex 30.4636 15.227 20
      vertex 25.5189 15.1685 11.2778
      vertex 25.4506 15.227 11.3172
    endloop
  endfacet
endsolid OpenSCAD_Model
