solid OpenSCAD_Model
  facet normal 1 -0 0
    outer loop
      vertex 50 0 20
      vertex 50 30 0
      vertex 50 30 20
    endloop
  endfacet
  facet normal 1 0 0
    outer loop
      vertex 50 30 0
      vertex 50 0 20
      vertex 50 0 0
    endloop
  endfacet
  facet normal -0 0 1
    outer loop
      vertex 0 30 20
      vertex 50 0 20
      vertex 50 30 20
    endloop
  endfacet
  facet normal 0 0 1
    outer loop
      vertex 50 0 20
      vertex 0 30 20
      vertex 0 0 20
    endloop
  endfacet
  facet normal 0 0 -1
    outer loop
      vertex 50 0 0
      vertex 37.5 7.5 0
      vertex 50 30 0
    endloop
  endfacet
  facet normal 0 0 -1
    outer loop
      vertex 50 0 0
      vertex 12.5 7.5 0
      vertex 37.5 7.5 0
    endloop
  endfacet
  facet normal -0 0 -1
    outer loop
      vertex 12.5 7.5 0
      vertex 0 0 0
      vertex 12.5 22.5 0
    endloop
  endfacet
  facet normal 0 0 -1
    outer loop
      vertex 0 0 0
      vertex 12.5 7.5 0
      vertex 50 0 0
    endloop
  endfacet
  facet normal 0 0 -1
    outer loop
      vertex 37.5 22.5 0
      vertex 50 30 0
      vertex 37.5 7.5 0
    endloop
  endfacet
  facet normal 0 0 -1
    outer loop
      vertex 12.5 22.5 0
      vertex 50 30 0
      vertex 37.5 22.5 0
    endloop
  endfacet
  facet normal 0 0 -1
    outer loop
      vertex 12.5 22.5 0
      vertex 0 30 0
      vertex 50 30 0
    endloop
  endfacet
  facet normal 0 0 -1
    outer loop
      vertex 0 30 0
      vertex 12.5 22.5 0
      vertex 0 0 0
    endloop
  endfacet
  facet normal -1 0 0
    outer loop
      vertex 0 0 0
      vertex 0 30 20
      vertex 0 30 0
    endloop
  endfacet
  facet normal -1 -0 0
    outer loop
      vertex 0 30 20
      vertex 0 0 0
      vertex 0 0 20
    endloop
  endfacet
  facet normal 0 1 -0
    outer loop
      vertex 50 30 0
      vertex 0 30 20
      vertex 50 30 20
    endloop
  endfacet
  facet normal 0 1 0
    outer loop
      vertex 0 30 20
      vertex 50 30 0
      vertex 0 30 0
    endloop
  endfacet
  facet normal 0 -1 0
    outer loop
      vertex 0 0 0
      vertex 50 0 20
      vertex 0 0 20
    endloop
  endfacet
  facet normal 0 -1 -0
    outer loop
      vertex 50 0 20
      vertex 0 0 0
      vertex 50 0 0
    endloop
  endfacet
  facet normal -1 0 0
    outer loop
      vertex 37.5 7.5 0
      vertex 37.5 22.5 10
      vertex 37.5 22.5 0
    endloop
  endfacet
  facet normal -1 -0 0
    outer loop
      vertex 37.5 22.5 10
      vertex 37.5 7.5 0
      vertex 37.5 7.5 10
    endloop
  endfacet
  facet normal 0 0 -1
    outer loop
      vertex 12.5 7.5 10
      vertex 37.5 22.5 10
      vertex 37.5 7.5 10
    endloop
  endfacet
  facet normal -0 0 -1
    outer loop
      vertex 37.5 22.5 10
      vertex 12.5 7.5 10
      vertex 12.5 22.5 10
    endloop
  endfacet
  facet normal 1 -0 0
    outer loop
      vertex 12.5 7.5 10
      vertex 12.5 22.5 0
      vertex 12.5 22.5 10
    endloop
  endfacet
  facet normal 1 0 0
    outer loop
      vertex 12.5 22.5 0
      vertex 12.5 7.5 10
      vertex 12.5 7.5 0
    endloop
  endfacet
  facet normal 0 -1 0
    outer loop
      vertex 12.5 22.5 0
      vertex 37.5 22.5 10
      vertex 12.5 22.5 10
    endloop
  endfacet
  facet normal 0 -1 -0
    outer loop
      vertex 37.5 22.5 10
      vertex 12.5 22.5 0
      vertex 37.5 22.5 0
    endloop
  endfacet
  facet normal 0 1 -0
    outer loop
      vertex 37.5 7.5 0
      vertex 12.5 7.5 10
      vertex 37.5 7.5 10
    endloop
  endfacet
  facet normal 0 1 0
    outer loop
      vertex 12.5 7.5 10
      vertex 37.5 7.5 0
      vertex 12.5 7.5 0
    endloop
  endfacet
endsolid OpenSCAD_Model
