solid OpenSCAD_Model
  facet normal -0.956941 -0.290281 0
    outer loop
      vertex 0.980784 0.19509 0
      vertex 0.923879 0.382683 20
      vertex 0.923879 0.382683 0
    endloop
  endfacet
  facet normal -0.956941 -0.290281 0
    outer loop
      vertex 0.923879 0.382683 20
      vertex 0.980784 0.19509 0
      vertex 0.980784 0.19509 20
    endloop
  endfacet
  facet normal -0.995184 -0.0980238 0
    outer loop
      vertex 1 0 0
      vertex 0.980784 0.19509 20
      vertex 0.980784 0.19509 0
    endloop
  endfacet
  facet normal -0.995184 -0.0980238 0
    outer loop
      vertex 0.980784 0.19509 20
      vertex 1 0 0
      vertex 1 0 20
    endloop
  endfacet
  facet normal -0.881923 -0.471393 0
    outer loop
      vertex 0.923879 0.382683 0
      vertex 0.83147 0.55557 20
      vertex 0.83147 0.55557 0
    endloop
  endfacet
  facet normal -0.881923 -0.471393 0
    outer loop
      vertex 0.83147 0.55557 20
      vertex 0.923879 0.382683 0
      vertex 0.923879 0.382683 20
    endloop
  endfacet
  facet normal 0 0 1
    outer loop
      vertex 49.8049 29.0192 20
      vertex 50 1 20
      vertex 50 29 20
    endloop
  endfacet
  facet normal 0 0 1
    outer loop
      vertex 49.8049 29.0192 20
      vertex 49.8049 0.980784 20
      vertex 50 1 20
    endloop
  endfacet
  facet normal 0 0 1
    outer loop
      vertex 49.6173 29.0761 20
      vertex 49.8049 0.980784 20
      vertex 49.8049 29.0192 20
    endloop
  endfacet
  facet normal 0 0 1
    outer loop
      vertex 49.6173 29.0761 20
      vertex 49.6173 0.923879 20
      vertex 49.8049 0.980784 20
    endloop
  endfacet
  facet normal 0 0 1
    outer loop
      vertex 49.4444 29.1685 20
      vertex 49.6173 0.923879 20
      vertex 49.6173 29.0761 20
    endloop
  endfacet
  facet normal 0 0 1
    outer loop
      vertex 49.4444 29.1685 20
      vertex 49.4444 0.83147 20
      vertex 49.6173 0.923879 20
    endloop
  endfacet
  facet normal 0 0 1
    outer loop
      vertex 49.2929 29.2929 20
      vertex 49.4444 0.83147 20
      vertex 49.4444 29.1685 20
    endloop
  endfacet
  facet normal 0 0 1
    outer loop
      vertex 49.2929 29.2929 20
      vertex 49.2929 0.707107 20
      vertex 49.4444 0.83147 20
    endloop
  endfacet
  facet normal 0 0 1
    outer loop
      vertex 49.1685 29.4444 20
      vertex 49.2929 0.707107 20
      vertex 49.2929 29.2929 20
    endloop
  endfacet
  facet normal 0 0 1
    outer loop
      vertex 49.1685 29.4444 20
      vertex 49.1685 0.55557 20
      vertex 49.2929 0.707107 20
    endloop
  endfacet
  facet normal 0 0 1
    outer loop
      vertex 0.83147 29.4444 20
      vertex 49.1685 29.4444 20
      vertex 49.0761 29.6173 20
    endloop
  endfacet
  facet normal 0 0 1
    outer loop
      vertex 49.1685 29.4444 20
      vertex 0.83147 29.4444 20
      vertex 49.1685 0.55557 20
    endloop
  endfacet
  facet normal 0 0 1
    outer loop
      vertex 0.923879 29.6173 20
      vertex 49.0761 29.6173 20
      vertex 49.0192 29.8049 20
    endloop
  endfacet
  facet normal 0 0 1
    outer loop
      vertex 0.83147 0.55557 20
      vertex 49.1685 0.55557 20
      vertex 0.83147 29.4444 20
    endloop
  endfacet
  facet normal 0 0 1
    outer loop
      vertex 0.980784 29.8049 20
      vertex 49.0192 29.8049 20
      vertex 49 30 20
    endloop
  endfacet
  facet normal 0 0 1
    outer loop
      vertex 49.1685 0.55557 20
      vertex 0.83147 0.55557 20
      vertex 49.0761 0.382683 20
    endloop
  endfacet
  facet normal 0 0 1
    outer loop
      vertex 0.980784 29.8049 20
      vertex 49 30 20
      vertex 1 30 20
    endloop
  endfacet
  facet normal 0 0 1
    outer loop
      vertex 49.0192 29.8049 20
      vertex 0.980784 29.8049 20
      vertex 0.923879 29.6173 20
    endloop
  endfacet
  facet normal 0 0 1
    outer loop
      vertex 49.0761 29.6173 20
      vertex 0.923879 29.6173 20
      vertex 0.83147 29.4444 20
    endloop
  endfacet
  facet normal 0 0 1
    outer loop
      vertex 49 0 20
      vertex 0.980784 0.19509 20
      vertex 1 0 20
    endloop
  endfacet
  facet normal 0 -0 1
    outer loop
      vertex 0.923879 0.382683 20
      vertex 49.0761 0.382683 20
      vertex 0.83147 0.55557 20
    endloop
  endfacet
  facet normal 0 0 1
    outer loop
      vertex 49.0192 0.19509 20
      vertex 0.980784 0.19509 20
      vertex 49 0 20
    endloop
  endfacet
  facet normal 0 0 1
    outer loop
      vertex 49.0761 0.382683 20
      vertex 0.923879 0.382683 20
      vertex 49.0192 0.19509 20
    endloop
  endfacet
  facet normal 0 -0 1
    outer loop
      vertex 0.980784 0.19509 20
      vertex 49.0192 0.19509 20
      vertex 0.923879 0.382683 20
    endloop
  endfacet
  facet normal -0 0 1
    outer loop
      vertex 0.707107 29.2929 20
      vertex 0.83147 0.55557 20
      vertex 0.83147 29.4444 20
    endloop
  endfacet
  facet normal 0 0 1
    outer loop
      vertex 0.707107 29.2929 20
      vertex 0.707107 0.707107 20
      vertex 0.83147 0.55557 20
    endloop
  endfacet
  facet normal -0 0 1
    outer loop
      vertex 0.55557 29.1685 20
      vertex 0.707107 0.707107 20
      vertex 0.707107 29.2929 20
    endloop
  endfacet
  facet normal 0 0 1
    outer loop
      vertex 0.55557 29.1685 20
      vertex 0.55557 0.83147 20
      vertex 0.707107 0.707107 20
    endloop
  endfacet
  facet normal -0 0 1
    outer loop
      vertex 0.382683 29.0761 20
      vertex 0.55557 0.83147 20
      vertex 0.55557 29.1685 20
    endloop
  endfacet
  facet normal 0 0 1
    outer loop
      vertex 0.382683 29.0761 20
      vertex 0.382683 0.923879 20
      vertex 0.55557 0.83147 20
    endloop
  endfacet
  facet normal -0 0 1
    outer loop
      vertex 0.19509 29.0192 20
      vertex 0.382683 0.923879 20
      vertex 0.382683 29.0761 20
    endloop
  endfacet
  facet normal 0 0 1
    outer loop
      vertex 0.19509 29.0192 20
      vertex 0.19509 0.980784 20
      vertex 0.382683 0.923879 20
    endloop
  endfacet
  facet normal -0 0 1
    outer loop
      vertex 0 29 20
      vertex 0.19509 0.980784 20
      vertex 0.19509 29.0192 20
    endloop
  endfacet
  facet normal 0 0 1
    outer loop
      vertex 0.19509 0.980784 20
      vertex 0 29 20
      vertex 0 1 20
    endloop
  endfacet
  facet normal -0.290281 -0.956941 0
    outer loop
      vertex 0.19509 0.980784 0
      vertex 0.382683 0.923879 20
      vertex 0.19509 0.980784 20
    endloop
  endfacet
  facet normal -0.290281 -0.956941 -0
    outer loop
      vertex 0.382683 0.923879 20
      vertex 0.19509 0.980784 0
      vertex 0.382683 0.923879 0
    endloop
  endfacet
  facet normal -0.773011 -0.634393 0
    outer loop
      vertex 0.83147 0.55557 0
      vertex 0.707107 0.707107 20
      vertex 0.707107 0.707107 0
    endloop
  endfacet
  facet normal -0.773011 -0.634393 0
    outer loop
      vertex 0.707107 0.707107 20
      vertex 0.83147 0.55557 0
      vertex 0.83147 0.55557 20
    endloop
  endfacet
  facet normal 0 0 -1
    outer loop
      vertex 49.8049 0.980784 0
      vertex 50 29 0
      vertex 50 1 0
    endloop
  endfacet
  facet normal 0 0 -1
    outer loop
      vertex 49.8049 0.980784 0
      vertex 49.8049 29.0192 0
      vertex 50 29 0
    endloop
  endfacet
  facet normal 0 0 -1
    outer loop
      vertex 49.6173 0.923879 0
      vertex 49.8049 29.0192 0
      vertex 49.8049 0.980784 0
    endloop
  endfacet
  facet normal 0 0 -1
    outer loop
      vertex 49.6173 0.923879 0
      vertex 49.6173 29.0761 0
      vertex 49.8049 29.0192 0
    endloop
  endfacet
  facet normal 0 0 -1
    outer loop
      vertex 49.4444 0.83147 0
      vertex 49.6173 29.0761 0
      vertex 49.6173 0.923879 0
    endloop
  endfacet
  facet normal 0 0 -1
    outer loop
      vertex 49.4444 0.83147 0
      vertex 49.4444 29.1685 0
      vertex 49.6173 29.0761 0
    endloop
  endfacet
  facet normal 0 0 -1
    outer loop
      vertex 49.2929 0.707107 0
      vertex 49.4444 29.1685 0
      vertex 49.4444 0.83147 0
    endloop
  endfacet
  facet normal 0 0 -1
    outer loop
      vertex 49.2929 0.707107 0
      vertex 49.2929 29.2929 0
      vertex 49.4444 29.1685 0
    endloop
  endfacet
  facet normal 0 0 -1
    outer loop
      vertex 49.1685 0.55557 0
      vertex 49.2929 29.2929 0
      vertex 49.2929 0.707107 0
    endloop
  endfacet
  facet normal 0 0 -1
    outer loop
      vertex 49.1685 0.55557 0
      vertex 49.1685 29.4444 0
      vertex 49.2929 29.2929 0
    endloop
  endfacet
  facet normal 0 0 -1
    outer loop
      vertex 0.83147 0.55557 0
      vertex 49.1685 0.55557 0
      vertex 49.0761 0.382683 0
    endloop
  endfacet
  facet normal 0 0 -1
    outer loop
      vertex 49.1685 0.55557 0
      vertex 0.83147 0.55557 0
      vertex 49.1685 29.4444 0
    endloop
  endfacet
  facet normal 0 0 -1
    outer loop
      vertex 0.923879 0.382683 0
      vertex 49.0761 0.382683 0
      vertex 49.0192 0.19509 0
    endloop
  endfacet
  facet normal 0 0 -1
    outer loop
      vertex 0.83147 29.4444 0
      vertex 49.1685 29.4444 0
      vertex 0.83147 0.55557 0
    endloop
  endfacet
  facet normal 0 0 -1
    outer loop
      vertex 0.980784 0.19509 0
      vertex 49.0192 0.19509 0
      vertex 49 0 0
    endloop
  endfacet
  facet normal 0 0 -1
    outer loop
      vertex 49.1685 29.4444 0
      vertex 0.83147 29.4444 0
      vertex 49.0761 29.6173 0
    endloop
  endfacet
  facet normal 0 0 -1
    outer loop
      vertex 0.980784 0.19509 0
      vertex 49 0 0
      vertex 1 0 0
    endloop
  endfacet
  facet normal 0 0 -1
    outer loop
      vertex 49.0192 0.19509 0
      vertex 0.980784 0.19509 0
      vertex 0.923879 0.382683 0
    endloop
  endfacet
  facet normal 0 0 -1
    outer loop
      vertex 49.0761 0.382683 0
      vertex 0.923879 0.382683 0
      vertex 0.83147 0.55557 0
    endloop
  endfacet
  facet normal -0 0 -1
    outer loop
      vertex 49 30 0
      vertex 0.980784 29.8049 0
      vertex 1 30 0
    endloop
  endfacet
  facet normal 0 -0 -1
    outer loop
      vertex 0.923879 29.6173 0
      vertex 49.0761 29.6173 0
      vertex 0.83147 29.4444 0
    endloop
  endfacet
  facet normal 0 0 -1
    outer loop
      vertex 49.0192 29.8049 0
      vertex 0.980784 29.8049 0
      vertex 49 30 0
    endloop
  endfacet
  facet normal 0 0 -1
    outer loop
      vertex 49.0761 29.6173 0
      vertex 0.923879 29.6173 0
      vertex 49.0192 29.8049 0
    endloop
  endfacet
  facet normal 0 -0 -1
    outer loop
      vertex 0.980784 29.8049 0
      vertex 49.0192 29.8049 0
      vertex 0.923879 29.6173 0
    endloop
  endfacet
  facet normal 0 0 -1
    outer loop
      vertex 0.707107 0.707107 0
      vertex 0.83147 29.4444 0
      vertex 0.83147 0.55557 0
    endloop
  endfacet
  facet normal 0 0 -1
    outer loop
      vertex 0.707107 0.707107 0
      vertex 0.707107 29.2929 0
      vertex 0.83147 29.4444 0
    endloop
  endfacet
  facet normal 0 0 -1
    outer loop
      vertex 0.55557 0.83147 0
      vertex 0.707107 29.2929 0
      vertex 0.707107 0.707107 0
    endloop
  endfacet
  facet normal 0 0 -1
    outer loop
      vertex 0.55557 0.83147 0
      vertex 0.55557 29.1685 0
      vertex 0.707107 29.2929 0
    endloop
  endfacet
  facet normal 0 0 -1
    outer loop
      vertex 0.382683 0.923879 0
      vertex 0.55557 29.1685 0
      vertex 0.55557 0.83147 0
    endloop
  endfacet
  facet normal 0 0 -1
    outer loop
      vertex 0.382683 0.923879 0
      vertex 0.382683 29.0761 0
      vertex 0.55557 29.1685 0
    endloop
  endfacet
  facet normal 0 0 -1
    outer loop
      vertex 0.19509 0.980784 0
      vertex 0.382683 29.0761 0
      vertex 0.382683 0.923879 0
    endloop
  endfacet
  facet normal 0 0 -1
    outer loop
      vertex 0.19509 0.980784 0
      vertex 0.19509 29.0192 0
      vertex 0.382683 29.0761 0
    endloop
  endfacet
  facet normal 0 0 -1
    outer loop
      vertex 0 1 0
      vertex 0.19509 29.0192 0
      vertex 0.19509 0.980784 0
    endloop
  endfacet
  facet normal 0 0 -1
    outer loop
      vertex 0.19509 29.0192 0
      vertex 0 1 0
      vertex 0 29 0
    endloop
  endfacet
  facet normal -0.0980238 -0.995184 0
    outer loop
      vertex 0 1 0
      vertex 0.19509 0.980784 20
      vertex 0 1 20
    endloop
  endfacet
  facet normal -0.0980238 -0.995184 -0
    outer loop
      vertex 0.19509 0.980784 20
      vertex 0 1 0
      vertex 0.19509 0.980784 0
    endloop
  endfacet
  facet normal -0.634393 -0.773011 0
    outer loop
      vertex 0.55557 0.83147 0
      vertex 0.707107 0.707107 20
      vertex 0.55557 0.83147 20
    endloop
  endfacet
  facet normal -0.634393 -0.773011 -0
    outer loop
      vertex 0.707107 0.707107 20
      vertex 0.55557 0.83147 0
      vertex 0.707107 0.707107 0
    endloop
  endfacet
  facet normal -0.471393 -0.881923 0
    outer loop
      vertex 0.382683 0.923879 0
      vertex 0.55557 0.83147 20
      vertex 0.382683 0.923879 20
    endloop
  endfacet
  facet normal -0.471393 -0.881923 -0
    outer loop
      vertex 0.55557 0.83147 20
      vertex 0.382683 0.923879 0
      vertex 0.55557 0.83147 0
    endloop
  endfacet
  facet normal -0.290258 0.956948 0
    outer loop
      vertex 0.382683 29.0761 0
      vertex 0.19509 29.0192 20
      vertex 0.382683 29.0761 20
    endloop
  endfacet
  facet normal -0.290258 0.956948 0
    outer loop
      vertex 0.19509 29.0192 20
      vertex 0.382683 29.0761 0
      vertex 0.19509 29.0192 0
    endloop
  endfacet
  facet normal -0.471357 0.881943 0
    outer loop
      vertex 0.55557 29.1685 0
      vertex 0.382683 29.0761 20
      vertex 0.55557 29.1685 20
    endloop
  endfacet
  facet normal -0.471357 0.881943 0
    outer loop
      vertex 0.382683 29.0761 20
      vertex 0.55557 29.1685 0
      vertex 0.382683 29.0761 0
    endloop
  endfacet
  facet normal -0.772935 0.634485 0
    outer loop
      vertex 0.707107 29.2929 0
      vertex 0.83147 29.4444 20
      vertex 0.83147 29.4444 0
    endloop
  endfacet
  facet normal -0.772935 0.634485 0
    outer loop
      vertex 0.83147 29.4444 20
      vertex 0.707107 29.2929 0
      vertex 0.707107 29.2929 20
    endloop
  endfacet
  facet normal -0.634505 0.772918 0
    outer loop
      vertex 0.707107 29.2929 0
      vertex 0.55557 29.1685 20
      vertex 0.707107 29.2929 20
    endloop
  endfacet
  facet normal -0.634505 0.772918 0
    outer loop
      vertex 0.55557 29.1685 20
      vertex 0.707107 29.2929 0
      vertex 0.55557 29.1685 0
    endloop
  endfacet
  facet normal -0.995185 0.0980188 0
    outer loop
      vertex 0.980784 29.8049 0
      vertex 1 30 20
      vertex 1 30 0
    endloop
  endfacet
  facet normal -0.995185 0.0980188 0
    outer loop
      vertex 1 30 20
      vertex 0.980784 29.8049 0
      vertex 0.980784 29.8049 20
    endloop
  endfacet
  facet normal -0.956944 0.290271 0
    outer loop
      vertex 0.923879 29.6173 0
      vertex 0.980784 29.8049 20
      vertex 0.980784 29.8049 0
    endloop
  endfacet
  facet normal -0.956944 0.290271 0
    outer loop
      vertex 0.980784 29.8049 20
      vertex 0.923879 29.6173 0
      vertex 0.923879 29.6173 20
    endloop
  endfacet
  facet normal -0.881938 0.471365 0
    outer loop
      vertex 0.83147 29.4444 0
      vertex 0.923879 29.6173 20
      vertex 0.923879 29.6173 0
    endloop
  endfacet
  facet normal -0.881938 0.471365 0
    outer loop
      vertex 0.923879 29.6173 20
      vertex 0.83147 29.4444 0
      vertex 0.83147 29.4444 20
    endloop
  endfacet
  facet normal -0.0979429 0.995192 0
    outer loop
      vertex 0.19509 29.0192 0
      vertex 0 29 20
      vertex 0.19509 29.0192 20
    endloop
  endfacet
  facet normal -0.0979429 0.995192 0
    outer loop
      vertex 0 29 20
      vertex 0.19509 29.0192 0
      vertex 0 29 0
    endloop
  endfacet
  facet normal 0.290271 -0.956944 0
    outer loop
      vertex 49.6173 0.923879 0
      vertex 49.8049 0.980784 20
      vertex 49.6173 0.923879 20
    endloop
  endfacet
  facet normal 0.290271 -0.956944 0
    outer loop
      vertex 49.8049 0.980784 20
      vertex 49.6173 0.923879 0
      vertex 49.8049 0.980784 0
    endloop
  endfacet
  facet normal 0.0980188 -0.995185 0
    outer loop
      vertex 49.8049 0.980784 0
      vertex 50 1 20
      vertex 49.8049 0.980784 20
    endloop
  endfacet
  facet normal 0.0980188 -0.995185 0
    outer loop
      vertex 50 1 20
      vertex 49.8049 0.980784 0
      vertex 50 1 0
    endloop
  endfacet
  facet normal 0.881943 -0.471357 0
    outer loop
      vertex 49.0761 0.382683 20
      vertex 49.1685 0.55557 0
      vertex 49.1685 0.55557 20
    endloop
  endfacet
  facet normal 0.881943 -0.471357 0
    outer loop
      vertex 49.1685 0.55557 0
      vertex 49.0761 0.382683 20
      vertex 49.0761 0.382683 0
    endloop
  endfacet
  facet normal 0.471365 -0.881938 0
    outer loop
      vertex 49.4444 0.83147 0
      vertex 49.6173 0.923879 20
      vertex 49.4444 0.83147 20
    endloop
  endfacet
  facet normal 0.471365 -0.881938 0
    outer loop
      vertex 49.6173 0.923879 20
      vertex 49.4444 0.83147 0
      vertex 49.6173 0.923879 0
    endloop
  endfacet
  facet normal 0.634485 -0.772935 0
    outer loop
      vertex 49.2929 0.707107 0
      vertex 49.4444 0.83147 20
      vertex 49.2929 0.707107 20
    endloop
  endfacet
  facet normal 0.634485 -0.772935 0
    outer loop
      vertex 49.4444 0.83147 20
      vertex 49.2929 0.707107 0
      vertex 49.4444 0.83147 0
    endloop
  endfacet
  facet normal 0.772918 -0.634505 0
    outer loop
      vertex 49.1685 0.55557 20
      vertex 49.2929 0.707107 0
      vertex 49.2929 0.707107 20
    endloop
  endfacet
  facet normal 0.772918 -0.634505 0
    outer loop
      vertex 49.2929 0.707107 0
      vertex 49.1685 0.55557 20
      vertex 49.1685 0.55557 0
    endloop
  endfacet
  facet normal 0.995192 -0.0979429 0
    outer loop
      vertex 49 0 20
      vertex 49.0192 0.19509 0
      vertex 49.0192 0.19509 20
    endloop
  endfacet
  facet normal 0.995192 -0.0979429 0
    outer loop
      vertex 49.0192 0.19509 0
      vertex 49 0 20
      vertex 49 0 0
    endloop
  endfacet
  facet normal 0.956948 -0.290258 0
    outer loop
      vertex 49.0192 0.19509 20
      vertex 49.0761 0.382683 0
      vertex 49.0761 0.382683 20
    endloop
  endfacet
  facet normal 0.956948 -0.290258 0
    outer loop
      vertex 49.0761 0.382683 0
      vertex 49.0192 0.19509 20
      vertex 49.0192 0.19509 0
    endloop
  endfacet
  facet normal 0.881957 0.471329 0
    outer loop
      vertex 49.1685 29.4444 20
      vertex 49.0761 29.6173 0
      vertex 49.0761 29.6173 20
    endloop
  endfacet
  facet normal 0.881957 0.471329 0
    outer loop
      vertex 49.0761 29.6173 0
      vertex 49.1685 29.4444 20
      vertex 49.1685 29.4444 0
    endloop
  endfacet
  facet normal 0.471329 0.881957 -0
    outer loop
      vertex 49.6173 29.0761 0
      vertex 49.4444 29.1685 20
      vertex 49.6173 29.0761 20
    endloop
  endfacet
  facet normal 0.471329 0.881957 0
    outer loop
      vertex 49.4444 29.1685 20
      vertex 49.6173 29.0761 0
      vertex 49.4444 29.1685 0
    endloop
  endfacet
  facet normal 0.097938 0.995193 -0
    outer loop
      vertex 50 29 0
      vertex 49.8049 29.0192 20
      vertex 50 29 20
    endloop
  endfacet
  facet normal 0.097938 0.995193 0
    outer loop
      vertex 49.8049 29.0192 20
      vertex 50 29 0
      vertex 49.8049 29.0192 0
    endloop
  endfacet
  facet normal 0.290248 0.956951 -0
    outer loop
      vertex 49.8049 29.0192 0
      vertex 49.6173 29.0761 20
      vertex 49.8049 29.0192 20
    endloop
  endfacet
  facet normal 0.290248 0.956951 0
    outer loop
      vertex 49.6173 29.0761 20
      vertex 49.8049 29.0192 0
      vertex 49.6173 29.0761 0
    endloop
  endfacet
  facet normal 0.956951 0.290248 0
    outer loop
      vertex 49.0761 29.6173 20
      vertex 49.0192 29.8049 0
      vertex 49.0192 29.8049 20
    endloop
  endfacet
  facet normal 0.956951 0.290248 0
    outer loop
      vertex 49.0192 29.8049 0
      vertex 49.0761 29.6173 20
      vertex 49.0761 29.6173 0
    endloop
  endfacet
  facet normal 0.772842 0.634598 0
    outer loop
      vertex 49.2929 29.2929 20
      vertex 49.1685 29.4444 0
      vertex 49.1685 29.4444 20
    endloop
  endfacet
  facet normal 0.772842 0.634598 0
    outer loop
      vertex 49.1685 29.4444 0
      vertex 49.2929 29.2929 20
      vertex 49.2929 29.2929 0
    endloop
  endfacet
  facet normal 0.634598 0.772842 -0
    outer loop
      vertex 49.4444 29.1685 0
      vertex 49.2929 29.2929 20
      vertex 49.4444 29.1685 20
    endloop
  endfacet
  facet normal 0.634598 0.772842 0
    outer loop
      vertex 49.2929 29.2929 20
      vertex 49.4444 29.1685 0
      vertex 49.2929 29.2929 0
    endloop
  endfacet
  facet normal 0.995193 0.097938 0
    outer loop
      vertex 49.0192 29.8049 20
      vertex 49 30 0
      vertex 49 30 20
    endloop
  endfacet
  facet normal 0.995193 0.097938 0
    outer loop
      vertex 49 30 0
      vertex 49.0192 29.8049 20
      vertex 49.0192 29.8049 0
    endloop
  endfacet
  facet normal 1 -0 0
    outer loop
      vertex 50 1 20
      vertex 50 29 0
      vertex 50 29 20
    endloop
  endfacet
  facet normal 1 0 0
    outer loop
      vertex 50 29 0
      vertex 50 1 20
      vertex 50 1 0
    endloop
  endfacet
  facet normal -1 0 0
    outer loop
      vertex 0 1 0
      vertex 0 29 20
      vertex 0 29 0
    endloop
  endfacet
  facet normal -1 -0 0
    outer loop
      vertex 0 29 20
      vertex 0 1 0
      vertex 0 1 20
    endloop
  endfacet
  facet normal 0 1 -0
    outer loop
      vertex 49 30 0
      vertex 1 30 20
      vertex 49 30 20
    endloop
  endfacet
  facet normal 0 1 0
    outer loop
      vertex 1 30 20
      vertex 49 30 0
      vertex 1 30 0
    endloop
  endfacet
  facet normal 0 -1 0
    outer loop
      vertex 1 0 0
      vertex 49 0 20
      vertex 1 0 20
    endloop
  endfacet
  facet normal 0 -1 -0
    outer loop
      vertex 49 0 20
      vertex 1 0 0
      vertex 49 0 0
    endloop
  endfacet
  facet normal -1 0 0
    outer loop
      vertex 48 2 2
      vertex 48 28 18
      vertex 48 28 2
    endloop
  endfacet
  facet normal -1 -0 0
    outer loop
      vertex 48 28 18
      vertex 48 2 2
      vertex 48 2 18
    endloop
  endfacet
  facet normal 0 0 -1
    outer loop
      vertex 2 2 18
      vertex 48 28 18
      vertex 48 2 18
    endloop
  endfacet
  facet normal -0 0 -1
    outer loop
      vertex 48 28 18
      vertex 2 2 18
      vertex 2 28 18
    endloop
  endfacet
  facet normal -0 0 1
    outer loop
      vertex 2 28 2
      vertex 48 2 2
      vertex 48 28 2
    endloop
  endfacet
  facet normal 0 0 1
    outer loop
      vertex 48 2 2
      vertex 2 28 2
      vertex 2 2 2
    endloop
  endfacet
  facet normal 1 -0 0
    outer loop
      vertex 2 2 18
      vertex 2 28 2
      vertex 2 28 18
    endloop
  endfacet
  facet normal 1 0 0
    outer loop
      vertex 2 28 2
      vertex 2 2 18
      vertex 2 2 2
    endloop
  endfacet
  facet normal 0 -1 0
    outer loop
      vertex 2 28 2
      vertex 48 28 18
      vertex 2 28 18
    endloop
  endfacet
  facet normal 0 -1 -0
    outer loop
      vertex 48 28 18
      vertex 2 28 2
      vertex 48 28 2
    endloop
  endfacet
  facet normal 0 1 -0
    outer loop
      vertex 48 2 2
      vertex 2 2 18
      vertex 48 2 18
    endloop
  endfacet
  facet normal 0 1 0
    outer loop
      vertex 2 2 18
      vertex 48 2 2
      vertex 2 2 2
    endloop
  endfacet
endsolid OpenSCAD_Model
