solid OpenSCAD_Model
  facet normal -0.743149 -0.669126 0
    outer loop
      vertex -13.3826 -14.8629 0
      vertex -16.1803 -11.7557 30
      vertex -16.1803 -11.7557 0
    endloop
  endfacet
  facet normal -0.743149 -0.669126 0
    outer loop
      vertex -16.1803 -11.7557 30
      vertex -13.3826 -14.8629 0
      vertex -13.3826 -14.8629 30
    endloop
  endfacet
  facet normal 0.951053 0.309029 0
    outer loop
      vertex 19.563 4.15823 30
      vertex 18.2709 8.13473 0
      vertex 18.2709 8.13473 30
    endloop
  endfacet
  facet normal 0.951053 0.309029 0
    outer loop
      vertex 18.2709 8.13473 0
      vertex 19.563 4.15823 30
      vertex 19.563 4.15823 0
    endloop
  endfacet
  facet normal 0.994523 0.104517 0
    outer loop
      vertex 20 0 30
      vertex 19.563 4.15823 0
      vertex 19.563 4.15823 30
    endloop
  endfacet
  facet normal 0.994523 0.104517 0
    outer loop
      vertex 19.563 4.15823 0
      vertex 20 0 30
      vertex 20 0 0
    endloop
  endfacet
  facet normal 0.866022 0.500006 0
    outer loop
      vertex 18.2709 8.13473 30
      vertex 16.1803 11.7557 0
      vertex 16.1803 11.7557 30
    endloop
  endfacet
  facet normal 0.866022 0.500006 0
    outer loop
      vertex 16.1803 11.7557 0
      vertex 18.2709 8.13473 30
      vertex 18.2709 8.13473 0
    endloop
  endfacet
  facet normal 0.951053 -0.309029 0
    outer loop
      vertex 18.2709 -8.13473 30
      vertex 19.563 -4.15823 0
      vertex 19.563 -4.15823 30
    endloop
  endfacet
  facet normal 0.951053 -0.309029 0
    outer loop
      vertex 19.563 -4.15823 0
      vertex 18.2709 -8.13473 30
      vertex 18.2709 -8.13473 0
    endloop
  endfacet
  facet normal 0.587785 -0.809017 0
    outer loop
      vertex 10 -17.3205 0
      vertex 13.3826 -14.8629 30
      vertex 10 -17.3205 30
    endloop
  endfacet
  facet normal 0.587785 -0.809017 0
    outer loop
      vertex 13.3826 -14.8629 30
      vertex 10 -17.3205 0
      vertex 13.3826 -14.8629 0
    endloop
  endfacet
  facet normal 0.743149 -0.669126 0
    outer loop
      vertex 13.3826 -14.8629 30
      vertex 16.1803 -11.7557 0
      vertex 16.1803 -11.7557 30
    endloop
  endfacet
  facet normal 0.743149 -0.669126 0
    outer loop
      vertex 16.1803 -11.7557 0
      vertex 13.3826 -14.8629 30
      vertex 13.3826 -14.8629 0
    endloop
  endfacet
  facet normal 0.994523 -0.104517 0
    outer loop
      vertex 19.563 -4.15823 30
      vertex 20 0 0
      vertex 20 0 30
    endloop
  endfacet
  facet normal 0.994523 -0.104517 0
    outer loop
      vertex 20 0 0
      vertex 19.563 -4.15823 30
      vertex 19.563 -4.15823 0
    endloop
  endfacet
  facet normal -0.406732 -0.913547 0
    outer loop
      vertex -10 -17.3205 0
      vertex -6.18034 -19.0211 30
      vertex -10 -17.3205 30
    endloop
  endfacet
  facet normal -0.406732 -0.913547 -0
    outer loop
      vertex -6.18034 -19.0211 30
      vertex -10 -17.3205 0
      vertex -6.18034 -19.0211 0
    endloop
  endfacet
  facet normal 0.406732 0.913547 -0
    outer loop
      vertex 10 17.3205 0
      vertex 6.18034 19.0211 30
      vertex 10 17.3205 30
    endloop
  endfacet
  facet normal 0.406732 0.913547 0
    outer loop
      vertex 6.18034 19.0211 30
      vertex 10 17.3205 0
      vertex 6.18034 19.0211 0
    endloop
  endfacet
  facet normal 0.743149 0.669126 0
    outer loop
      vertex 16.1803 11.7557 30
      vertex 13.3826 14.8629 0
      vertex 13.3826 14.8629 30
    endloop
  endfacet
  facet normal 0.743149 0.669126 0
    outer loop
      vertex 13.3826 14.8629 0
      vertex 16.1803 11.7557 30
      vertex 16.1803 11.7557 0
    endloop
  endfacet
  facet normal -0.587785 -0.809017 0
    outer loop
      vertex -13.3826 -14.8629 0
      vertex -10 -17.3205 30
      vertex -13.3826 -14.8629 30
    endloop
  endfacet
  facet normal -0.587785 -0.809017 -0
    outer loop
      vertex -10 -17.3205 30
      vertex -13.3826 -14.8629 0
      vertex -10 -17.3205 0
    endloop
  endfacet
  facet normal -0.743149 0.669126 0
    outer loop
      vertex -16.1803 11.7557 0
      vertex -13.3826 14.8629 30
      vertex -13.3826 14.8629 0
    endloop
  endfacet
  facet normal -0.743149 0.669126 0
    outer loop
      vertex -13.3826 14.8629 30
      vertex -16.1803 11.7557 0
      vertex -16.1803 11.7557 30
    endloop
  endfacet
  facet normal 0 1 -0
    outer loop
      vertex 2.09057 19.8904 0
      vertex -2.09057 19.8904 30
      vertex 2.09057 19.8904 30
    endloop
  endfacet
  facet normal 0 1 0
    outer loop
      vertex -2.09057 19.8904 30
      vertex 2.09057 19.8904 0
      vertex -2.09057 19.8904 0
    endloop
  endfacet
  facet normal 0.406732 -0.913547 0
    outer loop
      vertex 6.18034 -19.0211 0
      vertex 10 -17.3205 30
      vertex 6.18034 -19.0211 30
    endloop
  endfacet
  facet normal 0.406732 -0.913547 0
    outer loop
      vertex 10 -17.3205 30
      vertex 6.18034 -19.0211 0
      vertex 10 -17.3205 0
    endloop
  endfacet
  facet normal 0.20791 -0.978148 0
    outer loop
      vertex 2.09057 -19.8904 0
      vertex 6.18034 -19.0211 30
      vertex 2.09057 -19.8904 30
    endloop
  endfacet
  facet normal 0.20791 -0.978148 0
    outer loop
      vertex 6.18034 -19.0211 30
      vertex 2.09057 -19.8904 0
      vertex 6.18034 -19.0211 0
    endloop
  endfacet
  facet normal -0.951053 0.309029 0
    outer loop
      vertex -19.563 4.15823 0
      vertex -18.2709 8.13473 30
      vertex -18.2709 8.13473 0
    endloop
  endfacet
  facet normal -0.951053 0.309029 0
    outer loop
      vertex -18.2709 8.13473 30
      vertex -19.563 4.15823 0
      vertex -19.563 4.15823 30
    endloop
  endfacet
  facet normal 0 0 -1
    outer loop
      vertex 18 0 0
      vertex 20 0 0
      vertex 19.563 -4.15823 0
    endloop
  endfacet
  facet normal 0 0 -1
    outer loop
      vertex 17.6067 -3.74241 0
      vertex 19.563 -4.15823 0
      vertex 18.2709 -8.13473 0
    endloop
  endfacet
  facet normal 0 0 -1
    outer loop
      vertex 20 0 0
      vertex 18 0 0
      vertex 19.563 4.15823 0
    endloop
  endfacet
  facet normal 0 0 -1
    outer loop
      vertex 17.6067 3.74241 0
      vertex 19.563 4.15823 0
      vertex 18 0 0
    endloop
  endfacet
  facet normal 0 0 -1
    outer loop
      vertex 19.563 -4.15823 0
      vertex 17.6067 -3.74241 0
      vertex 18 0 0
    endloop
  endfacet
  facet normal 0 0 -1
    outer loop
      vertex 18.2709 -8.13473 0
      vertex 16.4438 -7.32126 0
      vertex 17.6067 -3.74241 0
    endloop
  endfacet
  facet normal 0 0 -1
    outer loop
      vertex 16.1803 -11.7557 0
      vertex 16.4438 -7.32126 0
      vertex 18.2709 -8.13473 0
    endloop
  endfacet
  facet normal 0 0 -1
    outer loop
      vertex 16.1803 -11.7557 0
      vertex 14.5623 -10.5801 0
      vertex 16.4438 -7.32126 0
    endloop
  endfacet
  facet normal 0 0 -1
    outer loop
      vertex 13.3826 -14.8629 0
      vertex 14.5623 -10.5801 0
      vertex 16.1803 -11.7557 0
    endloop
  endfacet
  facet normal 0 0 -1
    outer loop
      vertex 13.3826 -14.8629 0
      vertex 12.0444 -13.3766 0
      vertex 14.5623 -10.5801 0
    endloop
  endfacet
  facet normal 0 0 -1
    outer loop
      vertex 10 -17.3205 0
      vertex 12.0444 -13.3766 0
      vertex 13.3826 -14.8629 0
    endloop
  endfacet
  facet normal 0 0 -1
    outer loop
      vertex 10 -17.3205 0
      vertex 9 -15.5885 0
      vertex 12.0444 -13.3766 0
    endloop
  endfacet
  facet normal 0 0 -1
    outer loop
      vertex 6.18034 -19.0211 0
      vertex 9 -15.5885 0
      vertex 10 -17.3205 0
    endloop
  endfacet
  facet normal 0 0 -1
    outer loop
      vertex 6.18034 -19.0211 0
      vertex 5.56231 -17.119 0
      vertex 9 -15.5885 0
    endloop
  endfacet
  facet normal 0 0 -1
    outer loop
      vertex 2.09057 -19.8904 0
      vertex 5.56231 -17.119 0
      vertex 6.18034 -19.0211 0
    endloop
  endfacet
  facet normal 0 0 -1
    outer loop
      vertex 2.09057 -19.8904 0
      vertex 1.88151 -17.9014 0
      vertex 5.56231 -17.119 0
    endloop
  endfacet
  facet normal 0 0 -1
    outer loop
      vertex 2.09057 -19.8904 0
      vertex -1.88151 -17.9014 0
      vertex 1.88151 -17.9014 0
    endloop
  endfacet
  facet normal 0 0 -1
    outer loop
      vertex -2.09057 -19.8904 0
      vertex -1.88151 -17.9014 0
      vertex 2.09057 -19.8904 0
    endloop
  endfacet
  facet normal 0 0 -1
    outer loop
      vertex -2.09057 -19.8904 0
      vertex -5.56231 -17.119 0
      vertex -1.88151 -17.9014 0
    endloop
  endfacet
  facet normal 0 0 -1
    outer loop
      vertex -6.18034 -19.0211 0
      vertex -5.56231 -17.119 0
      vertex -2.09057 -19.8904 0
    endloop
  endfacet
  facet normal 0 0 -1
    outer loop
      vertex -6.18034 -19.0211 0
      vertex -9 -15.5885 0
      vertex -5.56231 -17.119 0
    endloop
  endfacet
  facet normal 0 0 -1
    outer loop
      vertex -10 -17.3205 0
      vertex -9 -15.5885 0
      vertex -6.18034 -19.0211 0
    endloop
  endfacet
  facet normal 0 0 -1
    outer loop
      vertex -10 -17.3205 0
      vertex -12.0444 -13.3766 0
      vertex -9 -15.5885 0
    endloop
  endfacet
  facet normal 0 0 -1
    outer loop
      vertex -13.3826 -14.8629 0
      vertex -12.0444 -13.3766 0
      vertex -10 -17.3205 0
    endloop
  endfacet
  facet normal 0 0 -1
    outer loop
      vertex -13.3826 -14.8629 0
      vertex -14.5623 -10.5801 0
      vertex -12.0444 -13.3766 0
    endloop
  endfacet
  facet normal 0 0 -1
    outer loop
      vertex -16.1803 -11.7557 0
      vertex -14.5623 -10.5801 0
      vertex -13.3826 -14.8629 0
    endloop
  endfacet
  facet normal 0 0 -1
    outer loop
      vertex -16.1803 -11.7557 0
      vertex -16.4438 -7.32126 0
      vertex -14.5623 -10.5801 0
    endloop
  endfacet
  facet normal 0 0 -1
    outer loop
      vertex -18.2709 -8.13473 0
      vertex -16.4438 -7.32126 0
      vertex -16.1803 -11.7557 0
    endloop
  endfacet
  facet normal 0 0 -1
    outer loop
      vertex -19.563 -4.15823 0
      vertex -17.6067 -3.74241 0
      vertex -18.2709 -8.13473 0
    endloop
  endfacet
  facet normal -0 0 -1
    outer loop
      vertex -16.4438 -7.32126 0
      vertex -18.2709 -8.13473 0
      vertex -17.6067 -3.74241 0
    endloop
  endfacet
  facet normal -0 0 -1
    outer loop
      vertex 19.563 4.15823 0
      vertex 17.6067 3.74241 0
      vertex 18.2709 8.13473 0
    endloop
  endfacet
  facet normal 0 0 -1
    outer loop
      vertex 16.4438 7.32126 0
      vertex 18.2709 8.13473 0
      vertex 17.6067 3.74241 0
    endloop
  endfacet
  facet normal 0 0 -1
    outer loop
      vertex 16.4438 7.32126 0
      vertex 16.1803 11.7557 0
      vertex 18.2709 8.13473 0
    endloop
  endfacet
  facet normal 0 0 -1
    outer loop
      vertex 14.5623 10.5801 0
      vertex 16.1803 11.7557 0
      vertex 16.4438 7.32126 0
    endloop
  endfacet
  facet normal 0 0 -1
    outer loop
      vertex 14.5623 10.5801 0
      vertex 13.3826 14.8629 0
      vertex 16.1803 11.7557 0
    endloop
  endfacet
  facet normal 0 0 -1
    outer loop
      vertex 12.0444 13.3766 0
      vertex 13.3826 14.8629 0
      vertex 14.5623 10.5801 0
    endloop
  endfacet
  facet normal 0 0 -1
    outer loop
      vertex 12.0444 13.3766 0
      vertex 10 17.3205 0
      vertex 13.3826 14.8629 0
    endloop
  endfacet
  facet normal 0 0 -1
    outer loop
      vertex 9 15.5885 0
      vertex 10 17.3205 0
      vertex 12.0444 13.3766 0
    endloop
  endfacet
  facet normal 0 0 -1
    outer loop
      vertex 9 15.5885 0
      vertex 6.18034 19.0211 0
      vertex 10 17.3205 0
    endloop
  endfacet
  facet normal 0 0 -1
    outer loop
      vertex 5.56231 17.119 0
      vertex 6.18034 19.0211 0
      vertex 9 15.5885 0
    endloop
  endfacet
  facet normal 0 0 -1
    outer loop
      vertex 5.56231 17.119 0
      vertex 2.09057 19.8904 0
      vertex 6.18034 19.0211 0
    endloop
  endfacet
  facet normal 0 0 -1
    outer loop
      vertex 1.88151 17.9014 0
      vertex 2.09057 19.8904 0
      vertex 5.56231 17.119 0
    endloop
  endfacet
  facet normal 0 0 -1
    outer loop
      vertex -1.88151 17.9014 0
      vertex 2.09057 19.8904 0
      vertex 1.88151 17.9014 0
    endloop
  endfacet
  facet normal 0 0 -1
    outer loop
      vertex -1.88151 17.9014 0
      vertex -2.09057 19.8904 0
      vertex 2.09057 19.8904 0
    endloop
  endfacet
  facet normal 0 0 -1
    outer loop
      vertex -5.56231 17.119 0
      vertex -2.09057 19.8904 0
      vertex -1.88151 17.9014 0
    endloop
  endfacet
  facet normal 0 0 -1
    outer loop
      vertex -5.56231 17.119 0
      vertex -6.18034 19.0211 0
      vertex -2.09057 19.8904 0
    endloop
  endfacet
  facet normal 0 0 -1
    outer loop
      vertex -9 15.5885 0
      vertex -6.18034 19.0211 0
      vertex -5.56231 17.119 0
    endloop
  endfacet
  facet normal 0 0 -1
    outer loop
      vertex -9 15.5885 0
      vertex -10 17.3205 0
      vertex -6.18034 19.0211 0
    endloop
  endfacet
  facet normal 0 0 -1
    outer loop
      vertex -12.0444 13.3766 0
      vertex -10 17.3205 0
      vertex -9 15.5885 0
    endloop
  endfacet
  facet normal 0 0 -1
    outer loop
      vertex -12.0444 13.3766 0
      vertex -13.3826 14.8629 0
      vertex -10 17.3205 0
    endloop
  endfacet
  facet normal 0 0 -1
    outer loop
      vertex -14.5623 10.5801 0
      vertex -13.3826 14.8629 0
      vertex -12.0444 13.3766 0
    endloop
  endfacet
  facet normal 0 0 -1
    outer loop
      vertex -14.5623 10.5801 0
      vertex -16.1803 11.7557 0
      vertex -13.3826 14.8629 0
    endloop
  endfacet
  facet normal 0 0 -1
    outer loop
      vertex -16.4438 7.32126 0
      vertex -16.1803 11.7557 0
      vertex -14.5623 10.5801 0
    endloop
  endfacet
  facet normal 0 0 -1
    outer loop
      vertex -18.2709 8.13473 0
      vertex -16.4438 7.32126 0
      vertex -17.6067 3.74241 0
    endloop
  endfacet
  facet normal 0 0 -1
    outer loop
      vertex -16.4438 7.32126 0
      vertex -18.2709 8.13473 0
      vertex -16.1803 11.7557 0
    endloop
  endfacet
  facet normal 0 0 -1
    outer loop
      vertex -19.563 4.15823 0
      vertex -17.6067 3.74241 0
      vertex -18 0 0
    endloop
  endfacet
  facet normal -0 0 -1
    outer loop
      vertex -17.6067 -3.74241 0
      vertex -19.563 -4.15823 0
      vertex -18 0 0
    endloop
  endfacet
  facet normal 0 0 -1
    outer loop
      vertex -20 0 0
      vertex -18 0 0
      vertex -19.563 -4.15823 0
    endloop
  endfacet
  facet normal 0 0 -1
    outer loop
      vertex -17.6067 3.74241 0
      vertex -19.563 4.15823 0
      vertex -18.2709 8.13473 0
    endloop
  endfacet
  facet normal 0 0 -1
    outer loop
      vertex -18 0 0
      vertex -20 0 0
      vertex -19.563 4.15823 0
    endloop
  endfacet
  facet normal -0.951053 -0.309029 0
    outer loop
      vertex -18.2709 -8.13473 0
      vertex -19.563 -4.15823 30
      vertex -19.563 -4.15823 0
    endloop
  endfacet
  facet normal -0.951053 -0.309029 0
    outer loop
      vertex -19.563 -4.15823 30
      vertex -18.2709 -8.13473 0
      vertex -18.2709 -8.13473 30
    endloop
  endfacet
  facet normal -0.406732 0.913547 0
    outer loop
      vertex -6.18034 19.0211 0
      vertex -10 17.3205 30
      vertex -6.18034 19.0211 30
    endloop
  endfacet
  facet normal -0.406732 0.913547 0
    outer loop
      vertex -10 17.3205 30
      vertex -6.18034 19.0211 0
      vertex -10 17.3205 0
    endloop
  endfacet
  facet normal 0 0 1
    outer loop
      vertex 18 0 30
      vertex 20 0 30
      vertex 19.563 4.15823 30
    endloop
  endfacet
  facet normal 0 0 1
    outer loop
      vertex 17.6067 3.74241 30
      vertex 19.563 4.15823 30
      vertex 18.2709 8.13473 30
    endloop
  endfacet
  facet normal 0 0 1
    outer loop
      vertex 20 0 30
      vertex 18 0 30
      vertex 19.563 -4.15823 30
    endloop
  endfacet
  facet normal -0 0 1
    outer loop
      vertex 17.6067 -3.74241 30
      vertex 19.563 -4.15823 30
      vertex 18 0 30
    endloop
  endfacet
  facet normal 0 0 1
    outer loop
      vertex 19.563 4.15823 30
      vertex 17.6067 3.74241 30
      vertex 18 0 30
    endloop
  endfacet
  facet normal 0 0 1
    outer loop
      vertex 18.2709 8.13473 30
      vertex 16.4438 7.32126 30
      vertex 17.6067 3.74241 30
    endloop
  endfacet
  facet normal 0 0 1
    outer loop
      vertex 16.1803 11.7557 30
      vertex 16.4438 7.32126 30
      vertex 18.2709 8.13473 30
    endloop
  endfacet
  facet normal 0 0 1
    outer loop
      vertex 16.1803 11.7557 30
      vertex 14.5623 10.5801 30
      vertex 16.4438 7.32126 30
    endloop
  endfacet
  facet normal 0 0 1
    outer loop
      vertex 13.3826 14.8629 30
      vertex 14.5623 10.5801 30
      vertex 16.1803 11.7557 30
    endloop
  endfacet
  facet normal 0 0 1
    outer loop
      vertex 13.3826 14.8629 30
      vertex 12.0444 13.3766 30
      vertex 14.5623 10.5801 30
    endloop
  endfacet
  facet normal 0 0 1
    outer loop
      vertex 10 17.3205 30
      vertex 12.0444 13.3766 30
      vertex 13.3826 14.8629 30
    endloop
  endfacet
  facet normal 0 0 1
    outer loop
      vertex 10 17.3205 30
      vertex 9 15.5885 30
      vertex 12.0444 13.3766 30
    endloop
  endfacet
  facet normal 0 0 1
    outer loop
      vertex 6.18034 19.0211 30
      vertex 9 15.5885 30
      vertex 10 17.3205 30
    endloop
  endfacet
  facet normal 0 0 1
    outer loop
      vertex 6.18034 19.0211 30
      vertex 5.56231 17.119 30
      vertex 9 15.5885 30
    endloop
  endfacet
  facet normal 0 0 1
    outer loop
      vertex 2.09057 19.8904 30
      vertex 5.56231 17.119 30
      vertex 6.18034 19.0211 30
    endloop
  endfacet
  facet normal 0 0 1
    outer loop
      vertex 2.09057 19.8904 30
      vertex 1.88151 17.9014 30
      vertex 5.56231 17.119 30
    endloop
  endfacet
  facet normal 0 0 1
    outer loop
      vertex 2.09057 19.8904 30
      vertex -1.88151 17.9014 30
      vertex 1.88151 17.9014 30
    endloop
  endfacet
  facet normal -0 0 1
    outer loop
      vertex -2.09057 19.8904 30
      vertex -1.88151 17.9014 30
      vertex 2.09057 19.8904 30
    endloop
  endfacet
  facet normal 0 0 1
    outer loop
      vertex -2.09057 19.8904 30
      vertex -5.56231 17.119 30
      vertex -1.88151 17.9014 30
    endloop
  endfacet
  facet normal -0 0 1
    outer loop
      vertex -6.18034 19.0211 30
      vertex -5.56231 17.119 30
      vertex -2.09057 19.8904 30
    endloop
  endfacet
  facet normal 0 0 1
    outer loop
      vertex -6.18034 19.0211 30
      vertex -9 15.5885 30
      vertex -5.56231 17.119 30
    endloop
  endfacet
  facet normal -0 0 1
    outer loop
      vertex -10 17.3205 30
      vertex -9 15.5885 30
      vertex -6.18034 19.0211 30
    endloop
  endfacet
  facet normal 0 0 1
    outer loop
      vertex -10 17.3205 30
      vertex -12.0444 13.3766 30
      vertex -9 15.5885 30
    endloop
  endfacet
  facet normal -0 0 1
    outer loop
      vertex -13.3826 14.8629 30
      vertex -12.0444 13.3766 30
      vertex -10 17.3205 30
    endloop
  endfacet
  facet normal 0 0 1
    outer loop
      vertex -13.3826 14.8629 30
      vertex -14.5623 10.5801 30
      vertex -12.0444 13.3766 30
    endloop
  endfacet
  facet normal -0 0 1
    outer loop
      vertex -16.1803 11.7557 30
      vertex -14.5623 10.5801 30
      vertex -13.3826 14.8629 30
    endloop
  endfacet
  facet normal 0 0 1
    outer loop
      vertex -16.1803 11.7557 30
      vertex -16.4438 7.32126 30
      vertex -14.5623 10.5801 30
    endloop
  endfacet
  facet normal -0 0 1
    outer loop
      vertex -18.2709 8.13473 30
      vertex -16.4438 7.32126 30
      vertex -16.1803 11.7557 30
    endloop
  endfacet
  facet normal -0 0 1
    outer loop
      vertex -19.563 4.15823 30
      vertex -17.6067 3.74241 30
      vertex -18.2709 8.13473 30
    endloop
  endfacet
  facet normal 0 0 1
    outer loop
      vertex -16.4438 7.32126 30
      vertex -18.2709 8.13473 30
      vertex -17.6067 3.74241 30
    endloop
  endfacet
  facet normal 0 0 1
    outer loop
      vertex 19.563 -4.15823 30
      vertex 17.6067 -3.74241 30
      vertex 18.2709 -8.13473 30
    endloop
  endfacet
  facet normal -0 0 1
    outer loop
      vertex 16.4438 -7.32126 30
      vertex 18.2709 -8.13473 30
      vertex 17.6067 -3.74241 30
    endloop
  endfacet
  facet normal 0 0 1
    outer loop
      vertex 16.4438 -7.32126 30
      vertex 16.1803 -11.7557 30
      vertex 18.2709 -8.13473 30
    endloop
  endfacet
  facet normal -0 0 1
    outer loop
      vertex 14.5623 -10.5801 30
      vertex 16.1803 -11.7557 30
      vertex 16.4438 -7.32126 30
    endloop
  endfacet
  facet normal 0 0 1
    outer loop
      vertex 14.5623 -10.5801 30
      vertex 13.3826 -14.8629 30
      vertex 16.1803 -11.7557 30
    endloop
  endfacet
  facet normal -0 0 1
    outer loop
      vertex 12.0444 -13.3766 30
      vertex 13.3826 -14.8629 30
      vertex 14.5623 -10.5801 30
    endloop
  endfacet
  facet normal 0 0 1
    outer loop
      vertex 12.0444 -13.3766 30
      vertex 10 -17.3205 30
      vertex 13.3826 -14.8629 30
    endloop
  endfacet
  facet normal -0 0 1
    outer loop
      vertex 9 -15.5885 30
      vertex 10 -17.3205 30
      vertex 12.0444 -13.3766 30
    endloop
  endfacet
  facet normal 0 0 1
    outer loop
      vertex 9 -15.5885 30
      vertex 6.18034 -19.0211 30
      vertex 10 -17.3205 30
    endloop
  endfacet
  facet normal -0 0 1
    outer loop
      vertex 5.56231 -17.119 30
      vertex 6.18034 -19.0211 30
      vertex 9 -15.5885 30
    endloop
  endfacet
  facet normal 0 0 1
    outer loop
      vertex 5.56231 -17.119 30
      vertex 2.09057 -19.8904 30
      vertex 6.18034 -19.0211 30
    endloop
  endfacet
  facet normal -0 0 1
    outer loop
      vertex 1.88151 -17.9014 30
      vertex 2.09057 -19.8904 30
      vertex 5.56231 -17.119 30
    endloop
  endfacet
  facet normal -0 0 1
    outer loop
      vertex -1.88151 -17.9014 30
      vertex 2.09057 -19.8904 30
      vertex 1.88151 -17.9014 30
    endloop
  endfacet
  facet normal 0 0 1
    outer loop
      vertex -1.88151 -17.9014 30
      vertex -2.09057 -19.8904 30
      vertex 2.09057 -19.8904 30
    endloop
  endfacet
  facet normal 0 0 1
    outer loop
      vertex -5.56231 -17.119 30
      vertex -2.09057 -19.8904 30
      vertex -1.88151 -17.9014 30
    endloop
  endfacet
  facet normal 0 0 1
    outer loop
      vertex -5.56231 -17.119 30
      vertex -6.18034 -19.0211 30
      vertex -2.09057 -19.8904 30
    endloop
  endfacet
  facet normal 0 0 1
    outer loop
      vertex -9 -15.5885 30
      vertex -6.18034 -19.0211 30
      vertex -5.56231 -17.119 30
    endloop
  endfacet
  facet normal 0 0 1
    outer loop
      vertex -9 -15.5885 30
      vertex -10 -17.3205 30
      vertex -6.18034 -19.0211 30
    endloop
  endfacet
  facet normal 0 0 1
    outer loop
      vertex -12.0444 -13.3766 30
      vertex -10 -17.3205 30
      vertex -9 -15.5885 30
    endloop
  endfacet
  facet normal 0 0 1
    outer loop
      vertex -12.0444 -13.3766 30
      vertex -13.3826 -14.8629 30
      vertex -10 -17.3205 30
    endloop
  endfacet
  facet normal 0 0 1
    outer loop
      vertex -14.5623 -10.5801 30
      vertex -13.3826 -14.8629 30
      vertex -12.0444 -13.3766 30
    endloop
  endfacet
  facet normal 0 0 1
    outer loop
      vertex -14.5623 -10.5801 30
      vertex -16.1803 -11.7557 30
      vertex -13.3826 -14.8629 30
    endloop
  endfacet
  facet normal 0 0 1
    outer loop
      vertex -16.4438 -7.32126 30
      vertex -16.1803 -11.7557 30
      vertex -14.5623 -10.5801 30
    endloop
  endfacet
  facet normal 0 0 1
    outer loop
      vertex -18.2709 -8.13473 30
      vertex -16.4438 -7.32126 30
      vertex -17.6067 -3.74241 30
    endloop
  endfacet
  facet normal 0 0 1
    outer loop
      vertex -16.4438 -7.32126 30
      vertex -18.2709 -8.13473 30
      vertex -16.1803 -11.7557 30
    endloop
  endfacet
  facet normal 0 0 1
    outer loop
      vertex -19.563 -4.15823 30
      vertex -17.6067 -3.74241 30
      vertex -18 0 30
    endloop
  endfacet
  facet normal 0 0 1
    outer loop
      vertex -17.6067 3.74241 30
      vertex -19.563 4.15823 30
      vertex -18 0 30
    endloop
  endfacet
  facet normal 0 0 1
    outer loop
      vertex -20 0 30
      vertex -18 0 30
      vertex -19.563 4.15823 30
    endloop
  endfacet
  facet normal 0 0 1
    outer loop
      vertex -17.6067 -3.74241 30
      vertex -19.563 -4.15823 30
      vertex -18.2709 -8.13473 30
    endloop
  endfacet
  facet normal 0 0 1
    outer loop
      vertex -18 0 30
      vertex -20 0 30
      vertex -19.563 -4.15823 30
    endloop
  endfacet
  facet normal -0.20791 -0.978148 0
    outer loop
      vertex -6.18034 -19.0211 0
      vertex -2.09057 -19.8904 30
      vertex -6.18034 -19.0211 30
    endloop
  endfacet
  facet normal -0.20791 -0.978148 -0
    outer loop
      vertex -2.09057 -19.8904 30
      vertex -6.18034 -19.0211 0
      vertex -2.09057 -19.8904 0
    endloop
  endfacet
  facet normal 0.20791 0.978148 -0
    outer loop
      vertex 6.18034 19.0211 0
      vertex 2.09057 19.8904 30
      vertex 6.18034 19.0211 30
    endloop
  endfacet
  facet normal 0.20791 0.978148 0
    outer loop
      vertex 2.09057 19.8904 30
      vertex 6.18034 19.0211 0
      vertex 2.09057 19.8904 0
    endloop
  endfacet
  facet normal -0.994523 -0.104517 0
    outer loop
      vertex -19.563 -4.15823 0
      vertex -20 0 30
      vertex -20 0 0
    endloop
  endfacet
  facet normal -0.994523 -0.104517 0
    outer loop
      vertex -20 0 30
      vertex -19.563 -4.15823 0
      vertex -19.563 -4.15823 30
    endloop
  endfacet
  facet normal -0.994523 0.104517 0
    outer loop
      vertex -20 0 0
      vertex -19.563 4.15823 30
      vertex -19.563 4.15823 0
    endloop
  endfacet
  facet normal -0.994523 0.104517 0
    outer loop
      vertex -19.563 4.15823 30
      vertex -20 0 0
      vertex -20 0 30
    endloop
  endfacet
  facet normal -0.866022 -0.500006 0
    outer loop
      vertex -16.1803 -11.7557 0
      vertex -18.2709 -8.13473 30
      vertex -18.2709 -8.13473 0
    endloop
  endfacet
  facet normal -0.866022 -0.500006 0
    outer loop
      vertex -18.2709 -8.13473 30
      vertex -16.1803 -11.7557 0
      vertex -16.1803 -11.7557 30
    endloop
  endfacet
  facet normal -0.866022 0.500006 0
    outer loop
      vertex -18.2709 8.13473 0
      vertex -16.1803 11.7557 30
      vertex -16.1803 11.7557 0
    endloop
  endfacet
  facet normal -0.866022 0.500006 0
    outer loop
      vertex -16.1803 11.7557 30
      vertex -18.2709 8.13473 0
      vertex -18.2709 8.13473 30
    endloop
  endfacet
  facet normal 0.866022 -0.500006 0
    outer loop
      vertex 16.1803 -11.7557 30
      vertex 18.2709 -8.13473 0
      vertex 18.2709 -8.13473 30
    endloop
  endfacet
  facet normal 0.866022 -0.500006 0
    outer loop
      vertex 18.2709 -8.13473 0
      vertex 16.1803 -11.7557 30
      vertex 16.1803 -11.7557 0
    endloop
  endfacet
  facet normal 0.587785 0.809017 -0
    outer loop
      vertex 13.3826 14.8629 0
      vertex 10 17.3205 30
      vertex 13.3826 14.8629 30
    endloop
  endfacet
  facet normal 0.587785 0.809017 0
    outer loop
      vertex 10 17.3205 30
      vertex 13.3826 14.8629 0
      vertex 10 17.3205 0
    endloop
  endfacet
  facet normal -0.587785 0.809017 0
    outer loop
      vertex -10 17.3205 0
      vertex -13.3826 14.8629 30
      vertex -10 17.3205 30
    endloop
  endfacet
  facet normal -0.587785 0.809017 0
    outer loop
      vertex -13.3826 14.8629 30
      vertex -10 17.3205 0
      vertex -13.3826 14.8629 0
    endloop
  endfacet
  facet normal -0.20791 0.978148 0
    outer loop
      vertex -2.09057 19.8904 0
      vertex -6.18034 19.0211 30
      vertex -2.09057 19.8904 30
    endloop
  endfacet
  facet normal -0.20791 0.978148 0
    outer loop
      vertex -6.18034 19.0211 30
      vertex -2.09057 19.8904 0
      vertex -6.18034 19.0211 0
    endloop
  endfacet
  facet normal 0 -1 0
    outer loop
      vertex -2.09057 -19.8904 0
      vertex 2.09057 -19.8904 30
      vertex -2.09057 -19.8904 30
    endloop
  endfacet
  facet normal 0 -1 -0
    outer loop
      vertex 2.09057 -19.8904 30
      vertex -2.09057 -19.8904 0
      vertex 2.09057 -19.8904 0
    endloop
  endfacet
  facet normal 0.406724 0.913551 -0
    outer loop
      vertex -5.56231 -17.119 0
      vertex -9 -15.5885 30
      vertex -5.56231 -17.119 30
    endloop
  endfacet
  facet normal 0.406724 0.913551 0
    outer loop
      vertex -9 -15.5885 30
      vertex -5.56231 -17.119 0
      vertex -9 -15.5885 0
    endloop
  endfacet
  facet normal 0.951052 0.309032 0
    outer loop
      vertex -16.4438 -7.32126 30
      vertex -17.6067 -3.74241 0
      vertex -17.6067 -3.74241 30
    endloop
  endfacet
  facet normal 0.951052 0.309032 0
    outer loop
      vertex -17.6067 -3.74241 0
      vertex -16.4438 -7.32126 30
      vertex -16.4438 -7.32126 0
    endloop
  endfacet
  facet normal -0.951052 -0.309032 0
    outer loop
      vertex 17.6067 3.74241 0
      vertex 16.4438 7.32126 30
      vertex 16.4438 7.32126 0
    endloop
  endfacet
  facet normal -0.951052 -0.309032 0
    outer loop
      vertex 16.4438 7.32126 30
      vertex 17.6067 3.74241 0
      vertex 17.6067 3.74241 30
    endloop
  endfacet
  facet normal -0.994523 -0.104517 0
    outer loop
      vertex 18 0 0
      vertex 17.6067 3.74241 30
      vertex 17.6067 3.74241 0
    endloop
  endfacet
  facet normal -0.994523 -0.104517 0
    outer loop
      vertex 17.6067 3.74241 30
      vertex 18 0 0
      vertex 18 0 30
    endloop
  endfacet
  facet normal -0.866025 -0.500002 0
    outer loop
      vertex 16.4438 7.32126 0
      vertex 14.5623 10.5801 30
      vertex 14.5623 10.5801 0
    endloop
  endfacet
  facet normal -0.866025 -0.500002 0
    outer loop
      vertex 14.5623 10.5801 30
      vertex 16.4438 7.32126 0
      vertex 16.4438 7.32126 30
    endloop
  endfacet
  facet normal -0.587788 0.809015 0
    outer loop
      vertex 12.0444 -13.3766 0
      vertex 9 -15.5885 30
      vertex 12.0444 -13.3766 30
    endloop
  endfacet
  facet normal -0.587788 0.809015 0
    outer loop
      vertex 9 -15.5885 30
      vertex 12.0444 -13.3766 0
      vertex 9 -15.5885 0
    endloop
  endfacet
  facet normal -0.406724 -0.913551 0
    outer loop
      vertex 5.56231 17.119 0
      vertex 9 15.5885 30
      vertex 5.56231 17.119 30
    endloop
  endfacet
  facet normal -0.406724 -0.913551 -0
    outer loop
      vertex 9 15.5885 30
      vertex 5.56231 17.119 0
      vertex 9 15.5885 0
    endloop
  endfacet
  facet normal -0.994523 0.104517 0
    outer loop
      vertex 17.6067 -3.74241 0
      vertex 18 0 30
      vertex 18 0 0
    endloop
  endfacet
  facet normal -0.994523 0.104517 0
    outer loop
      vertex 18 0 30
      vertex 17.6067 -3.74241 0
      vertex 17.6067 -3.74241 30
    endloop
  endfacet
  facet normal -0.743155 -0.669119 0
    outer loop
      vertex 14.5623 10.5801 0
      vertex 12.0444 13.3766 30
      vertex 12.0444 13.3766 0
    endloop
  endfacet
  facet normal -0.743155 -0.669119 0
    outer loop
      vertex 12.0444 13.3766 30
      vertex 14.5623 10.5801 0
      vertex 14.5623 10.5801 30
    endloop
  endfacet
  facet normal 0.866025 -0.500002 0
    outer loop
      vertex -16.4438 7.32126 30
      vertex -14.5623 10.5801 0
      vertex -14.5623 10.5801 30
    endloop
  endfacet
  facet normal 0.866025 -0.500002 0
    outer loop
      vertex -14.5623 10.5801 0
      vertex -16.4438 7.32126 30
      vertex -16.4438 7.32126 0
    endloop
  endfacet
  facet normal -0.743155 0.669119 0
    outer loop
      vertex 12.0444 -13.3766 0
      vertex 14.5623 -10.5801 30
      vertex 14.5623 -10.5801 0
    endloop
  endfacet
  facet normal -0.743155 0.669119 0
    outer loop
      vertex 14.5623 -10.5801 30
      vertex 12.0444 -13.3766 0
      vertex 12.0444 -13.3766 30
    endloop
  endfacet
  facet normal 0.743155 -0.669119 0
    outer loop
      vertex -14.5623 10.5801 30
      vertex -12.0444 13.3766 0
      vertex -12.0444 13.3766 30
    endloop
  endfacet
  facet normal 0.743155 -0.669119 0
    outer loop
      vertex -12.0444 13.3766 0
      vertex -14.5623 10.5801 30
      vertex -14.5623 10.5801 0
    endloop
  endfacet
  facet normal -0.866025 0.500002 0
    outer loop
      vertex 14.5623 -10.5801 0
      vertex 16.4438 -7.32126 30
      vertex 16.4438 -7.32126 0
    endloop
  endfacet
  facet normal -0.866025 0.500002 0
    outer loop
      vertex 16.4438 -7.32126 30
      vertex 14.5623 -10.5801 0
      vertex 14.5623 -10.5801 30
    endloop
  endfacet
  facet normal 0.587788 -0.809015 0
    outer loop
      vertex -12.0444 13.3766 0
      vertex -9 15.5885 30
      vertex -12.0444 13.3766 30
    endloop
  endfacet
  facet normal 0.587788 -0.809015 0
    outer loop
      vertex -9 15.5885 30
      vertex -12.0444 13.3766 0
      vertex -9 15.5885 0
    endloop
  endfacet
  facet normal -0.951052 0.309032 0
    outer loop
      vertex 16.4438 -7.32126 0
      vertex 17.6067 -3.74241 30
      vertex 17.6067 -3.74241 0
    endloop
  endfacet
  facet normal -0.951052 0.309032 0
    outer loop
      vertex 17.6067 -3.74241 30
      vertex 16.4438 -7.32126 0
      vertex 16.4438 -7.32126 30
    endloop
  endfacet
  facet normal 0 -1 0
    outer loop
      vertex -1.88151 17.9014 0
      vertex 1.88151 17.9014 30
      vertex -1.88151 17.9014 30
    endloop
  endfacet
  facet normal 0 -1 -0
    outer loop
      vertex 1.88151 17.9014 30
      vertex -1.88151 17.9014 0
      vertex 1.88151 17.9014 0
    endloop
  endfacet
  facet normal 0.587788 0.809015 -0
    outer loop
      vertex -9 -15.5885 0
      vertex -12.0444 -13.3766 30
      vertex -9 -15.5885 30
    endloop
  endfacet
  facet normal 0.587788 0.809015 0
    outer loop
      vertex -12.0444 -13.3766 30
      vertex -9 -15.5885 0
      vertex -12.0444 -13.3766 0
    endloop
  endfacet
  facet normal 0.866025 0.500002 0
    outer loop
      vertex -14.5623 -10.5801 30
      vertex -16.4438 -7.32126 0
      vertex -16.4438 -7.32126 30
    endloop
  endfacet
  facet normal 0.866025 0.500002 0
    outer loop
      vertex -16.4438 -7.32126 0
      vertex -14.5623 -10.5801 30
      vertex -14.5623 -10.5801 0
    endloop
  endfacet
  facet normal 0.406724 -0.913551 0
    outer loop
      vertex -9 15.5885 0
      vertex -5.56231 17.119 30
      vertex -9 15.5885 30
    endloop
  endfacet
  facet normal 0.406724 -0.913551 0
    outer loop
      vertex -5.56231 17.119 30
      vertex -9 15.5885 0
      vertex -5.56231 17.119 0
    endloop
  endfacet
  facet normal 0.994523 0.104517 0
    outer loop
      vertex -17.6067 -3.74241 30
      vertex -18 0 0
      vertex -18 0 30
    endloop
  endfacet
  facet normal 0.994523 0.104517 0
    outer loop
      vertex -18 0 0
      vertex -17.6067 -3.74241 30
      vertex -17.6067 -3.74241 0
    endloop
  endfacet
  facet normal 0.743155 0.669119 0
    outer loop
      vertex -12.0444 -13.3766 30
      vertex -14.5623 -10.5801 0
      vertex -14.5623 -10.5801 30
    endloop
  endfacet
  facet normal 0.743155 0.669119 0
    outer loop
      vertex -14.5623 -10.5801 0
      vertex -12.0444 -13.3766 30
      vertex -12.0444 -13.3766 0
    endloop
  endfacet
  facet normal -0.207917 0.978146 0
    outer loop
      vertex 5.56231 -17.119 0
      vertex 1.88151 -17.9014 30
      vertex 5.56231 -17.119 30
    endloop
  endfacet
  facet normal -0.207917 0.978146 0
    outer loop
      vertex 1.88151 -17.9014 30
      vertex 5.56231 -17.119 0
      vertex 1.88151 -17.9014 0
    endloop
  endfacet
  facet normal 0.994523 -0.104517 0
    outer loop
      vertex -18 0 30
      vertex -17.6067 3.74241 0
      vertex -17.6067 3.74241 30
    endloop
  endfacet
  facet normal 0.994523 -0.104517 0
    outer loop
      vertex -17.6067 3.74241 0
      vertex -18 0 30
      vertex -18 0 0
    endloop
  endfacet
  facet normal -0.207917 -0.978146 0
    outer loop
      vertex 1.88151 17.9014 0
      vertex 5.56231 17.119 30
      vertex 1.88151 17.9014 30
    endloop
  endfacet
  facet normal -0.207917 -0.978146 -0
    outer loop
      vertex 5.56231 17.119 30
      vertex 1.88151 17.9014 0
      vertex 5.56231 17.119 0
    endloop
  endfacet
  facet normal -0.587788 -0.809015 0
    outer loop
      vertex 9 15.5885 0
      vertex 12.0444 13.3766 30
      vertex 9 15.5885 30
    endloop
  endfacet
  facet normal -0.587788 -0.809015 -0
    outer loop
      vertex 12.0444 13.3766 30
      vertex 9 15.5885 0
      vertex 12.0444 13.3766 0
    endloop
  endfacet
  facet normal 0.207917 -0.978146 0
    outer loop
      vertex -5.56231 17.119 0
      vertex -1.88151 17.9014 30
      vertex -5.56231 17.119 30
    endloop
  endfacet
  facet normal 0.207917 -0.978146 0
    outer loop
      vertex -1.88151 17.9014 30
      vertex -5.56231 17.119 0
      vertex -1.88151 17.9014 0
    endloop
  endfacet
  facet normal -0.406724 0.913551 0
    outer loop
      vertex 9 -15.5885 0
      vertex 5.56231 -17.119 30
      vertex 9 -15.5885 30
    endloop
  endfacet
  facet normal -0.406724 0.913551 0
    outer loop
      vertex 5.56231 -17.119 30
      vertex 9 -15.5885 0
      vertex 5.56231 -17.119 0
    endloop
  endfacet
  facet normal 0 1 -0
    outer loop
      vertex 1.88151 -17.9014 0
      vertex -1.88151 -17.9014 30
      vertex 1.88151 -17.9014 30
    endloop
  endfacet
  facet normal 0 1 0
    outer loop
      vertex -1.88151 -17.9014 30
      vertex 1.88151 -17.9014 0
      vertex -1.88151 -17.9014 0
    endloop
  endfacet
  facet normal 0.207917 0.978146 -0
    outer loop
      vertex -1.88151 -17.9014 0
      vertex -5.56231 -17.119 30
      vertex -1.88151 -17.9014 30
    endloop
  endfacet
  facet normal 0.207917 0.978146 0
    outer loop
      vertex -5.56231 -17.119 30
      vertex -1.88151 -17.9014 0
      vertex -5.56231 -17.119 0
    endloop
  endfacet
  facet normal 0.951052 -0.309032 0
    outer loop
      vertex -17.6067 3.74241 30
      vertex -16.4438 7.32126 0
      vertex -16.4438 7.32126 30
    endloop
  endfacet
  facet normal 0.951052 -0.309032 0
    outer loop
      vertex -16.4438 7.32126 0
      vertex -17.6067 3.74241 30
      vertex -17.6067 3.74241 0
    endloop
  endfacet
  facet normal 0.831467 0.555574 0
    outer loop
      vertex 4.6194 1.91342 20
      vertex 3.53553 3.53553 10
      vertex 3.53553 3.53553 20
    endloop
  endfacet
  facet normal 0.831467 0.555574 0
    outer loop
      vertex 3.53553 3.53553 10
      vertex 4.6194 1.91342 20
      vertex 4.6194 1.91342 10
    endloop
  endfacet
  facet normal 0.980786 0.195089 0
    outer loop
      vertex 5 0 20
      vertex 4.6194 1.91342 10
      vertex 4.6194 1.91342 20
    endloop
  endfacet
  facet normal 0.980786 0.195089 0
    outer loop
      vertex 4.6194 1.91342 10
      vertex 5 0 20
      vertex 5 0 10
    endloop
  endfacet
  facet normal -0.980786 0.195089 0
    outer loop
      vertex -5 0 10
      vertex -4.6194 1.91342 20
      vertex -4.6194 1.91342 10
    endloop
  endfacet
  facet normal -0.980786 0.195089 0
    outer loop
      vertex -4.6194 1.91342 20
      vertex -5 0 10
      vertex -5 0 20
    endloop
  endfacet
  facet normal -0.980786 -0.195089 0
    outer loop
      vertex -4.6194 -1.91342 10
      vertex -5 0 20
      vertex -5 0 10
    endloop
  endfacet
  facet normal -0.980786 -0.195089 0
    outer loop
      vertex -5 0 20
      vertex -4.6194 -1.91342 10
      vertex -4.6194 -1.91342 20
    endloop
  endfacet
  facet normal -0.195089 0.980786 0
    outer loop
      vertex 0 5 10
      vertex -1.91342 4.6194 20
      vertex 0 5 20
    endloop
  endfacet
  facet normal -0.195089 0.980786 0
    outer loop
      vertex -1.91342 4.6194 20
      vertex 0 5 10
      vertex -1.91342 4.6194 10
    endloop
  endfacet
  facet normal 0.195089 -0.980786 0
    outer loop
      vertex 0 -5 10
      vertex 1.91342 -4.6194 20
      vertex 0 -5 20
    endloop
  endfacet
  facet normal 0.195089 -0.980786 0
    outer loop
      vertex 1.91342 -4.6194 20
      vertex 0 -5 10
      vertex 1.91342 -4.6194 10
    endloop
  endfacet
  facet normal 0.831467 -0.555574 0
    outer loop
      vertex 3.53553 -3.53553 20
      vertex 4.6194 -1.91342 10
      vertex 4.6194 -1.91342 20
    endloop
  endfacet
  facet normal 0.831467 -0.555574 0
    outer loop
      vertex 4.6194 -1.91342 10
      vertex 3.53553 -3.53553 20
      vertex 3.53553 -3.53553 10
    endloop
  endfacet
  facet normal 0.555574 0.831467 -0
    outer loop
      vertex 3.53553 3.53553 10
      vertex 1.91342 4.6194 20
      vertex 3.53553 3.53553 20
    endloop
  endfacet
  facet normal 0.555574 0.831467 0
    outer loop
      vertex 1.91342 4.6194 20
      vertex 3.53553 3.53553 10
      vertex 1.91342 4.6194 10
    endloop
  endfacet
  facet normal 0.980786 -0.195089 0
    outer loop
      vertex 4.6194 -1.91342 20
      vertex 5 0 10
      vertex 5 0 20
    endloop
  endfacet
  facet normal 0.980786 -0.195089 0
    outer loop
      vertex 5 0 10
      vertex 4.6194 -1.91342 20
      vertex 4.6194 -1.91342 10
    endloop
  endfacet
  facet normal -0.831467 0.555574 0
    outer loop
      vertex -4.6194 1.91342 10
      vertex -3.53553 3.53553 20
      vertex -3.53553 3.53553 10
    endloop
  endfacet
  facet normal -0.831467 0.555574 0
    outer loop
      vertex -3.53553 3.53553 20
      vertex -4.6194 1.91342 10
      vertex -4.6194 1.91342 20
    endloop
  endfacet
  facet normal 0.555574 -0.831467 0
    outer loop
      vertex 1.91342 -4.6194 10
      vertex 3.53553 -3.53553 20
      vertex 1.91342 -4.6194 20
    endloop
  endfacet
  facet normal 0.555574 -0.831467 0
    outer loop
      vertex 3.53553 -3.53553 20
      vertex 1.91342 -4.6194 10
      vertex 3.53553 -3.53553 10
    endloop
  endfacet
  facet normal 0.195089 0.980786 -0
    outer loop
      vertex 1.91342 4.6194 10
      vertex 0 5 20
      vertex 1.91342 4.6194 20
    endloop
  endfacet
  facet normal 0.195089 0.980786 0
    outer loop
      vertex 0 5 20
      vertex 1.91342 4.6194 10
      vertex 0 5 10
    endloop
  endfacet
  facet normal -0.555574 0.831467 0
    outer loop
      vertex -1.91342 4.6194 10
      vertex -3.53553 3.53553 20
      vertex -1.91342 4.6194 20
    endloop
  endfacet
  facet normal -0.555574 0.831467 0
    outer loop
      vertex -3.53553 3.53553 20
      vertex -1.91342 4.6194 10
      vertex -3.53553 3.53553 10
    endloop
  endfacet
  facet normal 0 0 -1
    outer loop
      vertex 4.6194 -1.91342 10
      vertex 4.6194 1.91342 10
      vertex 5 0 10
    endloop
  endfacet
  facet normal 0 0 -1
    outer loop
      vertex 3.53553 -3.53553 10
      vertex 4.6194 1.91342 10
      vertex 4.6194 -1.91342 10
    endloop
  endfacet
  facet normal 0 0 -1
    outer loop
      vertex 3.53553 -3.53553 10
      vertex 3.53553 3.53553 10
      vertex 4.6194 1.91342 10
    endloop
  endfacet
  facet normal 0 0 -1
    outer loop
      vertex 1.91342 -4.6194 10
      vertex 3.53553 3.53553 10
      vertex 3.53553 -3.53553 10
    endloop
  endfacet
  facet normal 0 0 -1
    outer loop
      vertex 1.91342 -4.6194 10
      vertex 1.91342 4.6194 10
      vertex 3.53553 3.53553 10
    endloop
  endfacet
  facet normal 0 0 -1
    outer loop
      vertex 0 -5 10
      vertex 1.91342 4.6194 10
      vertex 1.91342 -4.6194 10
    endloop
  endfacet
  facet normal 0 0 -1
    outer loop
      vertex 0 -5 10
      vertex 0 5 10
      vertex 1.91342 4.6194 10
    endloop
  endfacet
  facet normal 0 0 -1
    outer loop
      vertex -1.91342 -4.6194 10
      vertex 0 5 10
      vertex 0 -5 10
    endloop
  endfacet
  facet normal 0 0 -1
    outer loop
      vertex -1.91342 -4.6194 10
      vertex -1.91342 4.6194 10
      vertex 0 5 10
    endloop
  endfacet
  facet normal 0 0 -1
    outer loop
      vertex -3.53553 -3.53553 10
      vertex -1.91342 4.6194 10
      vertex -1.91342 -4.6194 10
    endloop
  endfacet
  facet normal 0 0 -1
    outer loop
      vertex -3.53553 -3.53553 10
      vertex -3.53553 3.53553 10
      vertex -1.91342 4.6194 10
    endloop
  endfacet
  facet normal 0 0 -1
    outer loop
      vertex -4.6194 -1.91342 10
      vertex -3.53553 3.53553 10
      vertex -3.53553 -3.53553 10
    endloop
  endfacet
  facet normal 0 0 -1
    outer loop
      vertex -4.6194 -1.91342 10
      vertex -4.6194 1.91342 10
      vertex -3.53553 3.53553 10
    endloop
  endfacet
  facet normal 0 -0 -1
    outer loop
      vertex -4.6194 1.91342 10
      vertex -4.6194 -1.91342 10
      vertex -5 0 10
    endloop
  endfacet
  facet normal -0.831467 -0.555574 0
    outer loop
      vertex -3.53553 -3.53553 10
      vertex -4.6194 -1.91342 20
      vertex -4.6194 -1.91342 10
    endloop
  endfacet
  facet normal -0.831467 -0.555574 0
    outer loop
      vertex -4.6194 -1.91342 20
      vertex -3.53553 -3.53553 10
      vertex -3.53553 -3.53553 20
    endloop
  endfacet
  facet normal -0.195089 -0.980786 0
    outer loop
      vertex -1.91342 -4.6194 10
      vertex 0 -5 20
      vertex -1.91342 -4.6194 20
    endloop
  endfacet
  facet normal -0.195089 -0.980786 -0
    outer loop
      vertex 0 -5 20
      vertex -1.91342 -4.6194 10
      vertex 0 -5 10
    endloop
  endfacet
  facet normal -0.555574 -0.831467 0
    outer loop
      vertex -3.53553 -3.53553 10
      vertex -1.91342 -4.6194 20
      vertex -3.53553 -3.53553 20
    endloop
  endfacet
  facet normal -0.555574 -0.831467 -0
    outer loop
      vertex -1.91342 -4.6194 20
      vertex -3.53553 -3.53553 10
      vertex -1.91342 -4.6194 10
    endloop
  endfacet
  facet normal 0 0 1
    outer loop
      vertex 4.6194 1.91342 20
      vertex 4.6194 -1.91342 20
      vertex 5 0 20
    endloop
  endfacet
  facet normal 0 0 1
    outer loop
      vertex 3.53553 3.53553 20
      vertex 4.6194 -1.91342 20
      vertex 4.6194 1.91342 20
    endloop
  endfacet
  facet normal 0 0 1
    outer loop
      vertex 3.53553 3.53553 20
      vertex 3.53553 -3.53553 20
      vertex 4.6194 -1.91342 20
    endloop
  endfacet
  facet normal 0 0 1
    outer loop
      vertex 1.91342 4.6194 20
      vertex 3.53553 -3.53553 20
      vertex 3.53553 3.53553 20
    endloop
  endfacet
  facet normal 0 0 1
    outer loop
      vertex 1.91342 4.6194 20
      vertex 1.91342 -4.6194 20
      vertex 3.53553 -3.53553 20
    endloop
  endfacet
  facet normal 0 0 1
    outer loop
      vertex 0 5 20
      vertex 1.91342 -4.6194 20
      vertex 1.91342 4.6194 20
    endloop
  endfacet
  facet normal 0 0 1
    outer loop
      vertex 0 5 20
      vertex 0 -5 20
      vertex 1.91342 -4.6194 20
    endloop
  endfacet
  facet normal -0 0 1
    outer loop
      vertex -1.91342 4.6194 20
      vertex 0 -5 20
      vertex 0 5 20
    endloop
  endfacet
  facet normal 0 0 1
    outer loop
      vertex -1.91342 4.6194 20
      vertex -1.91342 -4.6194 20
      vertex 0 -5 20
    endloop
  endfacet
  facet normal -0 0 1
    outer loop
      vertex -3.53553 3.53553 20
      vertex -1.91342 -4.6194 20
      vertex -1.91342 4.6194 20
    endloop
  endfacet
  facet normal 0 0 1
    outer loop
      vertex -3.53553 3.53553 20
      vertex -3.53553 -3.53553 20
      vertex -1.91342 -4.6194 20
    endloop
  endfacet
  facet normal -0 0 1
    outer loop
      vertex -4.6194 1.91342 20
      vertex -3.53553 -3.53553 20
      vertex -3.53553 3.53553 20
    endloop
  endfacet
  facet normal 0 0 1
    outer loop
      vertex -4.6194 1.91342 20
      vertex -4.6194 -1.91342 20
      vertex -3.53553 -3.53553 20
    endloop
  endfacet
  facet normal 0 -0 1
    outer loop
      vertex -4.6194 -1.91342 20
      vertex -4.6194 1.91342 20
      vertex -5 0 20
    endloop
  endfacet
endsolid OpenSCAD_Model
