solid OpenSCAD_Model
  facet normal 0.222507 -0.974931 0
    outer loop
      vertex 49.5888 -1.80143 10.7654
      vertex 49.5888 -1.80143 -0.765367
      vertex 51.1521 -1.44464 10.7654
    endloop
  endfacet
  facet normal -0.623483 0.781837 0
    outer loop
      vertex -1.66477 25.8017 -0.765367
      vertex -0.411165 26.8014 10.7654
      vertex -0.411165 26.8014 -0.765367
    endloop
  endfacet
  facet normal 0 -1 0
    outer loop
      vertex -0.411165 -1.80143 10.7654
      vertex 49.5888 -1.80143 -0.765367
      vertex 49.5888 -1.80143 10.7654
    endloop
  endfacet
  facet normal -1 0 0
    outer loop
      vertex -1.66477 -0.801713 10.7654
      vertex -1.66477 25.8017 10.7654
      vertex -1.66477 -0.801713 -0.765367
    endloop
  endfacet
  facet normal 0.669333 -0.322369 0.669381
    outer loop
      vertex 50.7654 0 11.8478
      vertex 50.4772 -0.598388 11.8478
      vertex 51.1521 -1.44464 10.7654
    endloop
  endfacet
  facet normal 0 -0.716029 0.698071
    outer loop
      vertex -0.17031 -0.746177 11.8478
      vertex 49.5888 -1.80143 10.7654
      vertex 49.8297 -0.746177 11.8478
    endloop
  endfacet
  facet normal -0.74294 0 0.669358
    outer loop
      vertex -0.689572 25.3321 11.8478
      vertex -1.66477 25.8017 10.7654
      vertex -0.689572 -0.33208 11.8478
    endloop
  endfacet
  facet normal 0 0.716044 -0.698055
    outer loop
      vertex -0.17031 25.7462 -1.84776
      vertex 49.5888 26.8014 -0.765367
      vertex 49.8297 25.7462 -1.84776
    endloop
  endfacet
  facet normal -0.463213 -0.580852 -0.669361
    outer loop
      vertex -1.66477 -0.801713 -0.765367
      vertex -0.689572 -0.33208 -1.84776
      vertex -0.17031 -0.746177 -1.84776
    endloop
  endfacet
  facet normal 0 0 -1
    outer loop
      vertex -0.689572 -0.33208 -1.84776
      vertex 50.4772 25.5984 -1.84776
      vertex -0.17031 -0.746177 -1.84776
    endloop
  endfacet
  facet normal -0.463222 0.580858 0.66935
    outer loop
      vertex -0.689572 25.3321 11.8478
      vertex -0.17031 25.7462 11.8478
      vertex -1.66477 25.8017 10.7654
    endloop
  endfacet
  facet normal 0.669363 -0.322347 0.669363
    outer loop
      vertex 51.1521 -1.44464 10.7654
      vertex 51.8478 0 10.7654
      vertex 50.7654 0 11.8478
    endloop
  endfacet
  facet normal -0.742938 0 -0.669361
    outer loop
      vertex -0.689572 -0.33208 -1.84776
      vertex -1.66477 25.8017 -0.765367
      vertex -0.689572 25.3321 -1.84776
    endloop
  endfacet
  facet normal -0.46322 0.580857 -0.669352
    outer loop
      vertex -0.689572 25.3321 -1.84776
      vertex -1.66477 25.8017 -0.765367
      vertex -0.17031 25.7462 -1.84776
    endloop
  endfacet
  facet normal 0 -0.716027 -0.698073
    outer loop
      vertex -0.411165 -1.80143 -0.765367
      vertex 49.8297 -0.746177 -1.84776
      vertex 49.5888 -1.80143 -0.765367
    endloop
  endfacet
  facet normal -0.62349 -0.781831 0
    outer loop
      vertex -1.66477 -0.801713 10.7654
      vertex -0.411165 -1.80143 -0.765367
      vertex -0.411165 -1.80143 10.7654
    endloop
  endfacet
  facet normal 0.669361 -0.322346 -0.669365
    outer loop
      vertex 51.1521 -1.44464 -0.765367
      vertex 50.7654 0 -1.84776
      vertex 51.8478 0 -0.765367
    endloop
  endfacet
  facet normal 0.16532 -0.724307 0.669365
    outer loop
      vertex 51.1521 -1.44464 10.7654
      vertex 50.4772 -0.598388 11.8478
      vertex 49.8297 -0.746177 11.8478
    endloop
  endfacet
  facet normal 0.707107 -0 0.707107
    outer loop
      vertex 50.7654 0 11.8478
      vertex 51.8478 25 10.7654
      vertex 50.7654 25 11.8478
    endloop
  endfacet
  facet normal -1 0 0
    outer loop
      vertex -1.66477 -0.801713 -0.765367
      vertex -1.66477 25.8017 10.7654
      vertex -1.66477 25.8017 -0.765367
    endloop
  endfacet
  facet normal 0 0 1
    outer loop
      vertex -0.689572 -0.33208 11.8478
      vertex 50.4772 25.5984 11.8478
      vertex -0.689572 25.3321 11.8478
    endloop
  endfacet
  facet normal 0.165335 0.724318 0.669348
    outer loop
      vertex 49.8297 25.7462 11.8478
      vertex 50.4772 25.5984 11.8478
      vertex 51.1521 26.4446 10.7654
    endloop
  endfacet
  facet normal -0.62349 -0.781831 0
    outer loop
      vertex -1.66477 -0.801713 -0.765367
      vertex -0.411165 -1.80143 -0.765367
      vertex -1.66477 -0.801713 10.7654
    endloop
  endfacet
  facet normal -0.463214 -0.580851 -0.669362
    outer loop
      vertex -1.66477 -0.801713 -0.765367
      vertex -0.17031 -0.746177 -1.84776
      vertex -0.411165 -1.80143 -0.765367
    endloop
  endfacet
  facet normal -0.74294 0 0.669358
    outer loop
      vertex -0.689572 -0.33208 11.8478
      vertex -1.66477 25.8017 10.7654
      vertex -1.66477 -0.801713 10.7654
    endloop
  endfacet
  facet normal -0.463215 -0.580854 0.669359
    outer loop
      vertex -1.66477 -0.801713 10.7654
      vertex -0.17031 -0.746177 11.8478
      vertex -0.689572 -0.33208 11.8478
    endloop
  endfacet
  facet normal 0 0.716044 -0.698055
    outer loop
      vertex -0.411165 26.8014 -0.765367
      vertex 49.5888 26.8014 -0.765367
      vertex -0.17031 25.7462 -1.84776
    endloop
  endfacet
  facet normal 0.669344 0.322368 0.669371
    outer loop
      vertex 51.1521 26.4446 10.7654
      vertex 50.4772 25.5984 11.8478
      vertex 50.7654 25 11.8478
    endloop
  endfacet
  facet normal 0 -0.716027 -0.698073
    outer loop
      vertex -0.17031 -0.746177 -1.84776
      vertex 49.8297 -0.746177 -1.84776
      vertex -0.411165 -1.80143 -0.765367
    endloop
  endfacet
  facet normal 0.222507 -0.974931 0
    outer loop
      vertex 51.1521 -1.44464 10.7654
      vertex 49.5888 -1.80143 -0.765367
      vertex 51.1521 -1.44464 -0.765367
    endloop
  endfacet
  facet normal 0.165309 -0.724313 -0.66936
    outer loop
      vertex 49.5888 -1.80143 -0.765367
      vertex 49.8297 -0.746177 -1.84776
      vertex 51.1521 -1.44464 -0.765367
    endloop
  endfacet
  facet normal 0 0 -1
    outer loop
      vertex 49.8297 -0.746177 -1.84776
      vertex 50.4772 25.5984 -1.84776
      vertex 50.4772 -0.598388 -1.84776
    endloop
  endfacet
  facet normal -0.463215 -0.580853 0.669359
    outer loop
      vertex -0.411165 -1.80143 10.7654
      vertex -0.17031 -0.746177 11.8478
      vertex -1.66477 -0.801713 10.7654
    endloop
  endfacet
  facet normal 0 -0.716029 0.698071
    outer loop
      vertex -0.411165 -1.80143 10.7654
      vertex 49.5888 -1.80143 10.7654
      vertex -0.17031 -0.746177 11.8478
    endloop
  endfacet
  facet normal 0 -1 0
    outer loop
      vertex -0.411165 -1.80143 -0.765367
      vertex 49.5888 -1.80143 -0.765367
      vertex -0.411165 -1.80143 10.7654
    endloop
  endfacet
  facet normal 0.16531 -0.724315 0.669358
    outer loop
      vertex 49.8297 -0.746177 11.8478
      vertex 49.5888 -1.80143 10.7654
      vertex 51.1521 -1.44464 10.7654
    endloop
  endfacet
  facet normal -0.742938 0 -0.669361
    outer loop
      vertex -1.66477 -0.801713 -0.765367
      vertex -1.66477 25.8017 -0.765367
      vertex -0.689572 -0.33208 -1.84776
    endloop
  endfacet
  facet normal 0 1 0
    outer loop
      vertex -0.411165 26.8014 -0.765367
      vertex -0.411165 26.8014 10.7654
      vertex 49.5888 26.8014 -0.765367
    endloop
  endfacet
  facet normal 0 0 -1
    outer loop
      vertex -0.17031 -0.746177 -1.84776
      vertex 50.4772 25.5984 -1.84776
      vertex 49.8297 -0.746177 -1.84776
    endloop
  endfacet
  facet normal 0.900969 -0.433883 0
    outer loop
      vertex 51.1521 -1.44464 10.7654
      vertex 51.8478 0 -0.765367
      vertex 51.8478 0 10.7654
    endloop
  endfacet
  facet normal 0 0 -1
    outer loop
      vertex -0.689572 25.3321 -1.84776
      vertex 50.4772 25.5984 -1.84776
      vertex -0.689572 -0.33208 -1.84776
    endloop
  endfacet
  facet normal 1 -0 0
    outer loop
      vertex 51.8478 0 10.7654
      vertex 51.8478 25 -0.765367
      vertex 51.8478 25 10.7654
    endloop
  endfacet
  facet normal 0.900969 -0.433883 0
    outer loop
      vertex 51.1521 -1.44464 -0.765367
      vertex 51.8478 0 -0.765367
      vertex 51.1521 -1.44464 10.7654
    endloop
  endfacet
  facet normal 0.900965 0.433893 -0
    outer loop
      vertex 51.8478 25 -0.765367
      vertex 51.1521 26.4446 10.7654
      vertex 51.8478 25 10.7654
    endloop
  endfacet
  facet normal 0.165318 0.724333 0.669337
    outer loop
      vertex 49.8297 25.7462 11.8478
      vertex 51.1521 26.4446 10.7654
      vertex 49.5888 26.8014 10.7654
    endloop
  endfacet
  facet normal 0.707107 -0 0.707107
    outer loop
      vertex 51.8478 0 10.7654
      vertex 51.8478 25 10.7654
      vertex 50.7654 0 11.8478
    endloop
  endfacet
  facet normal -0.463217 0.580865 -0.669347
    outer loop
      vertex -1.66477 25.8017 -0.765367
      vertex -0.411165 26.8014 -0.765367
      vertex -0.17031 25.7462 -1.84776
    endloop
  endfacet
  facet normal -0.463218 0.580867 0.669345
    outer loop
      vertex -1.66477 25.8017 10.7654
      vertex -0.17031 25.7462 11.8478
      vertex -0.411165 26.8014 10.7654
    endloop
  endfacet
  facet normal 1 0 0
    outer loop
      vertex 51.8478 0 -0.765367
      vertex 51.8478 25 -0.765367
      vertex 51.8478 0 10.7654
    endloop
  endfacet
  facet normal 0.165318 0.72433 -0.66934
    outer loop
      vertex 49.8297 25.7462 -1.84776
      vertex 49.5888 26.8014 -0.765367
      vertex 51.1521 26.4446 -0.765367
    endloop
  endfacet
  facet normal 0 0 1
    outer loop
      vertex 50.7654 25 11.8478
      vertex 50.4772 25.5984 11.8478
      vertex 50.7654 0 11.8478
    endloop
  endfacet
  facet normal 0 -0 -1
    outer loop
      vertex -0.17031 25.7462 -1.84776
      vertex 50.4772 25.5984 -1.84776
      vertex -0.689572 25.3321 -1.84776
    endloop
  endfacet
  facet normal 0.669331 -0.322368 -0.669384
    outer loop
      vertex 51.1521 -1.44464 -0.765367
      vertex 50.4772 -0.598388 -1.84776
      vertex 50.7654 0 -1.84776
    endloop
  endfacet
  facet normal 0.707104 0 -0.707109
    outer loop
      vertex 50.7654 0 -1.84776
      vertex 50.7654 25 -1.84776
      vertex 51.8478 0 -0.765367
    endloop
  endfacet
  facet normal 0.222513 0.97493 0
    outer loop
      vertex 49.5888 26.8014 -0.765367
      vertex 51.1521 26.4446 10.7654
      vertex 51.1521 26.4446 -0.765367
    endloop
  endfacet
  facet normal 0 1 -0
    outer loop
      vertex 49.5888 26.8014 -0.765367
      vertex -0.411165 26.8014 10.7654
      vertex 49.5888 26.8014 10.7654
    endloop
  endfacet
  facet normal 0.669359 0.322354 -0.669363
    outer loop
      vertex 51.8478 25 -0.765367
      vertex 50.7654 25 -1.84776
      vertex 51.1521 26.4446 -0.765367
    endloop
  endfacet
  facet normal 0.707104 0 -0.707109
    outer loop
      vertex 51.8478 0 -0.765367
      vertex 50.7654 25 -1.84776
      vertex 51.8478 25 -0.765367
    endloop
  endfacet
  facet normal 0.165319 -0.724305 -0.669367
    outer loop
      vertex 49.8297 -0.746177 -1.84776
      vertex 50.4772 -0.598388 -1.84776
      vertex 51.1521 -1.44464 -0.765367
    endloop
  endfacet
  facet normal 0 0 -1
    outer loop
      vertex 50.4772 -0.598388 -1.84776
      vertex 50.4772 25.5984 -1.84776
      vertex 50.7654 0 -1.84776
    endloop
  endfacet
  facet normal 0.669361 0.322355 0.669361
    outer loop
      vertex 51.8478 25 10.7654
      vertex 51.1521 26.4446 10.7654
      vertex 50.7654 25 11.8478
    endloop
  endfacet
  facet normal 0.900965 0.433893 -0
    outer loop
      vertex 51.1521 26.4446 -0.765367
      vertex 51.1521 26.4446 10.7654
      vertex 51.8478 25 -0.765367
    endloop
  endfacet
  facet normal 0.222513 0.97493 0
    outer loop
      vertex 49.5888 26.8014 10.7654
      vertex 51.1521 26.4446 10.7654
      vertex 49.5888 26.8014 -0.765367
    endloop
  endfacet
  facet normal 0 -0 1
    outer loop
      vertex 50.4772 -0.598388 11.8478
      vertex 50.4772 25.5984 11.8478
      vertex 49.8297 -0.746177 11.8478
    endloop
  endfacet
  facet normal 0 0 -1
    outer loop
      vertex 50.7654 0 -1.84776
      vertex 50.4772 25.5984 -1.84776
      vertex 50.7654 25 -1.84776
    endloop
  endfacet
  facet normal 0.669342 0.322367 -0.669374
    outer loop
      vertex 50.7654 25 -1.84776
      vertex 50.4772 25.5984 -1.84776
      vertex 51.1521 26.4446 -0.765367
    endloop
  endfacet
  facet normal -0.623483 0.781837 0
    outer loop
      vertex -1.66477 25.8017 10.7654
      vertex -0.411165 26.8014 10.7654
      vertex -1.66477 25.8017 -0.765367
    endloop
  endfacet
  facet normal 0 0 1
    outer loop
      vertex 50.7654 0 11.8478
      vertex 50.4772 25.5984 11.8478
      vertex 50.4772 -0.598388 11.8478
    endloop
  endfacet
  facet normal 0 0.716046 0.698053
    outer loop
      vertex 49.5888 26.8014 10.7654
      vertex -0.17031 25.7462 11.8478
      vertex 49.8297 25.7462 11.8478
    endloop
  endfacet
  facet normal -0 0.716046 0.698053
    outer loop
      vertex -0.411165 26.8014 10.7654
      vertex -0.17031 25.7462 11.8478
      vertex 49.5888 26.8014 10.7654
    endloop
  endfacet
  facet normal -0 -0 -1
    outer loop
      vertex 49.8297 25.7462 -1.84776
      vertex 50.4772 25.5984 -1.84776
      vertex -0.17031 25.7462 -1.84776
    endloop
  endfacet
  facet normal 0.165334 0.724316 -0.669351
    outer loop
      vertex 51.1521 26.4446 -0.765367
      vertex 50.4772 25.5984 -1.84776
      vertex 49.8297 25.7462 -1.84776
    endloop
  endfacet
  facet normal 0 0 1
    outer loop
      vertex -0.689572 25.3321 11.8478
      vertex 50.4772 25.5984 11.8478
      vertex -0.17031 25.7462 11.8478
    endloop
  endfacet
  facet normal -0 0 1
    outer loop
      vertex -0.17031 25.7462 11.8478
      vertex 50.4772 25.5984 11.8478
      vertex 49.8297 25.7462 11.8478
    endloop
  endfacet
  facet normal 0 -0 1
    outer loop
      vertex -0.17031 -0.746177 11.8478
      vertex 50.4772 25.5984 11.8478
      vertex -0.689572 -0.33208 11.8478
    endloop
  endfacet
  facet normal 0 -0 1
    outer loop
      vertex 49.8297 -0.746177 11.8478
      vertex 50.4772 25.5984 11.8478
      vertex -0.17031 -0.746177 11.8478
    endloop
  endfacet
endsolid OpenSCAD_Model
