solid OpenSCAD_Model
  facet normal -0 -0 -1
    outer loop
      vertex 49.6057 6.26666 0
      vertex 50 0 0
      vertex 48.4292 12.4345 0
    endloop
  endfacet
  facet normal -0 0 -1
    outer loop
      vertex 26.7913 -42.2164 0
      vertex 21.289 -45.2414 0
      vertex 46.4888 -18.4062 0
    endloop
  endfacet
  facet normal -0 0 -1
    outer loop
      vertex 50 0 0
      vertex 49.6057 -6.26666 0
      vertex 48.4292 12.4345 0
    endloop
  endfacet
  facet normal 0 0 -1
    outer loop
      vertex 46.4888 18.4062 0
      vertex 40.4509 29.3893 0
      vertex 43.8153 24.0877 0
    endloop
  endfacet
  facet normal 0 0 -1
    outer loop
      vertex 46.4888 18.4062 0
      vertex 31.8712 38.5257 0
      vertex 40.4509 29.3893 0
    endloop
  endfacet
  facet normal 0 0 -1
    outer loop
      vertex 40.4509 29.3893 0
      vertex 31.8712 38.5257 0
      vertex 36.4484 34.2274 0
    endloop
  endfacet
  facet normal 0 0 -1
    outer loop
      vertex 46.4888 18.4062 0
      vertex 15.4508 47.5528 0
      vertex 31.8712 38.5257 0
    endloop
  endfacet
  facet normal 0 0 -1
    outer loop
      vertex 31.8712 38.5257 0
      vertex 21.289 45.2414 0
      vertex 26.7913 42.2164 0
    endloop
  endfacet
  facet normal 0 0 -1
    outer loop
      vertex 31.8712 38.5257 0
      vertex 15.4508 47.5528 0
      vertex 21.289 45.2414 0
    endloop
  endfacet
  facet normal 0 0 -1
    outer loop
      vertex -26.7913 -42.2164 0
      vertex -36.4484 -34.2274 0
      vertex -21.289 -45.2414 0
    endloop
  endfacet
  facet normal 0 0 -1
    outer loop
      vertex 15.4508 47.5528 0
      vertex 3.13953 49.9013 0
      vertex 9.36907 49.1144 0
    endloop
  endfacet
  facet normal 0 0 -1
    outer loop
      vertex -15.4508 47.5528 0
      vertex -3.13953 49.9013 0
      vertex 3.13953 49.9013 0
    endloop
  endfacet
  facet normal 0 0 -1
    outer loop
      vertex 15.4508 47.5528 0
      vertex -15.4508 47.5528 0
      vertex 3.13953 49.9013 0
    endloop
  endfacet
  facet normal 0 0 -1
    outer loop
      vertex -3.13953 49.9013 0
      vertex -15.4508 47.5528 0
      vertex -9.36907 49.1144 0
    endloop
  endfacet
  facet normal 0 0 -1
    outer loop
      vertex -48.4292 -12.4345 0
      vertex -49.6057 -6.26666 0
      vertex -21.289 -45.2414 0
    endloop
  endfacet
  facet normal 0 0 -1
    outer loop
      vertex -15.4508 47.5528 0
      vertex -26.7913 42.2164 0
      vertex -21.289 45.2414 0
    endloop
  endfacet
  facet normal 0 0 -1
    outer loop
      vertex -15.4508 47.5528 0
      vertex -36.4484 34.2274 0
      vertex -26.7913 42.2164 0
    endloop
  endfacet
  facet normal 0 0 -1
    outer loop
      vertex -26.7913 42.2164 0
      vertex -36.4484 34.2274 0
      vertex -31.8712 38.5257 0
    endloop
  endfacet
  facet normal 0 0 -1
    outer loop
      vertex -15.4508 47.5528 0
      vertex -43.8153 24.0877 0
      vertex -36.4484 34.2274 0
    endloop
  endfacet
  facet normal 0 0 -1
    outer loop
      vertex -36.4484 34.2274 0
      vertex -43.8153 24.0877 0
      vertex -40.4509 29.3893 0
    endloop
  endfacet
  facet normal 0 0 -1
    outer loop
      vertex -15.4508 47.5528 0
      vertex -48.4292 12.4345 0
      vertex -43.8153 24.0877 0
    endloop
  endfacet
  facet normal 0 0 -1
    outer loop
      vertex -43.8153 24.0877 0
      vertex -48.4292 12.4345 0
      vertex -46.4888 18.4062 0
    endloop
  endfacet
  facet normal 0 0 -1
    outer loop
      vertex -15.4508 47.5528 0
      vertex -49.6057 6.26666 0
      vertex -48.4292 12.4345 0
    endloop
  endfacet
  facet normal 0 0 -1
    outer loop
      vertex -21.289 -45.2414 0
      vertex -49.6057 -6.26666 0
      vertex -49.6057 6.26666 0
    endloop
  endfacet
  facet normal 0 -0 -1
    outer loop
      vertex -49.6057 6.26666 0
      vertex -49.6057 -6.26666 0
      vertex -50 0 0
    endloop
  endfacet
  facet normal 0 0 -1
    outer loop
      vertex -43.8153 -24.0877 0
      vertex -21.289 -45.2414 0
      vertex -36.4484 -34.2274 0
    endloop
  endfacet
  facet normal 0 0 -1
    outer loop
      vertex -43.8153 -24.0877 0
      vertex -48.4292 -12.4345 0
      vertex -21.289 -45.2414 0
    endloop
  endfacet
  facet normal 0 0 -1
    outer loop
      vertex -48.4292 -12.4345 0
      vertex -43.8153 -24.0877 0
      vertex -46.4888 -18.4062 0
    endloop
  endfacet
  facet normal 0 0 -1
    outer loop
      vertex -21.289 -45.2414 0
      vertex -49.6057 6.26666 0
      vertex -15.4508 47.5528 0
    endloop
  endfacet
  facet normal 0 0 -1
    outer loop
      vertex -43.8153 -24.0877 0
      vertex -36.4484 -34.2274 0
      vertex -40.4509 -29.3893 0
    endloop
  endfacet
  facet normal 0 0 -1
    outer loop
      vertex -21.289 -45.2414 0
      vertex -15.4508 47.5528 0
      vertex -9.36907 -49.1144 0
    endloop
  endfacet
  facet normal 0 0 -1
    outer loop
      vertex -36.4484 -34.2274 0
      vertex -26.7913 -42.2164 0
      vertex -31.8712 -38.5257 0
    endloop
  endfacet
  facet normal 0 0 -1
    outer loop
      vertex -15.4508 -47.5528 0
      vertex -21.289 -45.2414 0
      vertex -9.36907 -49.1144 0
    endloop
  endfacet
  facet normal 0 0 -1
    outer loop
      vertex -9.36907 -49.1144 0
      vertex -15.4508 47.5528 0
      vertex 9.36907 -49.1144 0
    endloop
  endfacet
  facet normal 0 0 -1
    outer loop
      vertex 9.36907 -49.1144 0
      vertex -15.4508 47.5528 0
      vertex 15.4508 47.5528 0
    endloop
  endfacet
  facet normal -0 0 -1
    outer loop
      vertex 21.289 -45.2414 0
      vertex 9.36907 -49.1144 0
      vertex 15.4508 47.5528 0
    endloop
  endfacet
  facet normal 0 0 -1
    outer loop
      vertex -9.36907 -49.1144 0
      vertex 3.13953 -49.9013 0
      vertex -3.13953 -49.9013 0
    endloop
  endfacet
  facet normal 0 0 -1
    outer loop
      vertex -9.36907 -49.1144 0
      vertex 9.36907 -49.1144 0
      vertex 3.13953 -49.9013 0
    endloop
  endfacet
  facet normal 0 0 -1
    outer loop
      vertex 21.289 -45.2414 0
      vertex 15.4508 -47.5528 0
      vertex 9.36907 -49.1144 0
    endloop
  endfacet
  facet normal -0 0 -1
    outer loop
      vertex 46.4888 18.4062 0
      vertex 21.289 -45.2414 0
      vertex 15.4508 47.5528 0
    endloop
  endfacet
  facet normal -0 0 -1
    outer loop
      vertex 46.4888 -18.4062 0
      vertex 21.289 -45.2414 0
      vertex 46.4888 18.4062 0
    endloop
  endfacet
  facet normal -0 0 -1
    outer loop
      vertex 48.4292 12.4345 0
      vertex 46.4888 -18.4062 0
      vertex 46.4888 18.4062 0
    endloop
  endfacet
  facet normal 0 0 -1
    outer loop
      vertex 26.7913 -42.2164 0
      vertex 36.4484 -34.2274 0
      vertex 31.8712 -38.5257 0
    endloop
  endfacet
  facet normal 0 0 -1
    outer loop
      vertex 46.4888 -18.4062 0
      vertex 43.8153 -24.0877 0
      vertex 36.4484 -34.2274 0
    endloop
  endfacet
  facet normal 0 0 -1
    outer loop
      vertex 36.4484 -34.2274 0
      vertex 43.8153 -24.0877 0
      vertex 40.4509 -29.3893 0
    endloop
  endfacet
  facet normal 0 0 -1
    outer loop
      vertex 26.7913 -42.2164 0
      vertex 46.4888 -18.4062 0
      vertex 36.4484 -34.2274 0
    endloop
  endfacet
  facet normal 0 -0 -1
    outer loop
      vertex 48.4292 12.4345 0
      vertex 49.6057 -6.26666 0
      vertex 46.4888 -18.4062 0
    endloop
  endfacet
  facet normal 0 0 -1
    outer loop
      vertex 46.4888 -18.4062 0
      vertex 49.6057 -6.26666 0
      vertex 48.4292 -12.4345 0
    endloop
  endfacet
  facet normal 0 0 1
    outer loop
      vertex 48.4292 12.4345 10
      vertex 50 0 10
      vertex 49.6057 6.26666 10
    endloop
  endfacet
  facet normal 0 0 1
    outer loop
      vertex 46.4888 -18.4062 10
      vertex 21.289 -45.2414 10
      vertex 26.7913 -42.2164 10
    endloop
  endfacet
  facet normal 0 0 1
    outer loop
      vertex 48.4292 12.4345 10
      vertex 49.6057 -6.26666 10
      vertex 50 0 10
    endloop
  endfacet
  facet normal 0 0 1
    outer loop
      vertex 43.8153 24.0877 10
      vertex 40.4509 29.3893 10
      vertex 46.4888 18.4062 10
    endloop
  endfacet
  facet normal 0 0 1
    outer loop
      vertex 40.4509 29.3893 10
      vertex 31.8712 38.5257 10
      vertex 46.4888 18.4062 10
    endloop
  endfacet
  facet normal 0 0 1
    outer loop
      vertex 36.4484 34.2274 10
      vertex 31.8712 38.5257 10
      vertex 40.4509 29.3893 10
    endloop
  endfacet
  facet normal 0 0 1
    outer loop
      vertex 31.8712 38.5257 10
      vertex 15.4508 47.5528 10
      vertex 46.4888 18.4062 10
    endloop
  endfacet
  facet normal 0 0 1
    outer loop
      vertex 26.7913 42.2164 10
      vertex 21.289 45.2414 10
      vertex 31.8712 38.5257 10
    endloop
  endfacet
  facet normal 0 0 1
    outer loop
      vertex 21.289 45.2414 10
      vertex 15.4508 47.5528 10
      vertex 31.8712 38.5257 10
    endloop
  endfacet
  facet normal 0 0 1
    outer loop
      vertex -21.289 -45.2414 10
      vertex -36.4484 -34.2274 10
      vertex -26.7913 -42.2164 10
    endloop
  endfacet
  facet normal 0 0 1
    outer loop
      vertex 9.36907 49.1144 10
      vertex 3.13953 49.9013 10
      vertex 15.4508 47.5528 10
    endloop
  endfacet
  facet normal 0 0 1
    outer loop
      vertex 3.13953 49.9013 10
      vertex -3.13953 49.9013 10
      vertex -15.4508 47.5528 10
    endloop
  endfacet
  facet normal 0 0 1
    outer loop
      vertex 3.13953 49.9013 10
      vertex -15.4508 47.5528 10
      vertex 15.4508 47.5528 10
    endloop
  endfacet
  facet normal -0 0 1
    outer loop
      vertex -9.36907 49.1144 10
      vertex -15.4508 47.5528 10
      vertex -3.13953 49.9013 10
    endloop
  endfacet
  facet normal 0 0 1
    outer loop
      vertex -21.289 -45.2414 10
      vertex -49.6057 -6.26666 10
      vertex -48.4292 -12.4345 10
    endloop
  endfacet
  facet normal -0 0 1
    outer loop
      vertex -21.289 45.2414 10
      vertex -26.7913 42.2164 10
      vertex -15.4508 47.5528 10
    endloop
  endfacet
  facet normal -0 0 1
    outer loop
      vertex -26.7913 42.2164 10
      vertex -36.4484 34.2274 10
      vertex -15.4508 47.5528 10
    endloop
  endfacet
  facet normal -0 0 1
    outer loop
      vertex -31.8712 38.5257 10
      vertex -36.4484 34.2274 10
      vertex -26.7913 42.2164 10
    endloop
  endfacet
  facet normal -0 0 1
    outer loop
      vertex -36.4484 34.2274 10
      vertex -43.8153 24.0877 10
      vertex -15.4508 47.5528 10
    endloop
  endfacet
  facet normal -0 0 1
    outer loop
      vertex -40.4509 29.3893 10
      vertex -43.8153 24.0877 10
      vertex -36.4484 34.2274 10
    endloop
  endfacet
  facet normal -0 0 1
    outer loop
      vertex -43.8153 24.0877 10
      vertex -48.4292 12.4345 10
      vertex -15.4508 47.5528 10
    endloop
  endfacet
  facet normal -0 0 1
    outer loop
      vertex -46.4888 18.4062 10
      vertex -48.4292 12.4345 10
      vertex -43.8153 24.0877 10
    endloop
  endfacet
  facet normal -0 0 1
    outer loop
      vertex -48.4292 12.4345 10
      vertex -49.6057 6.26666 10
      vertex -15.4508 47.5528 10
    endloop
  endfacet
  facet normal 0 0 1
    outer loop
      vertex -49.6057 6.26666 10
      vertex -49.6057 -6.26666 10
      vertex -21.289 -45.2414 10
    endloop
  endfacet
  facet normal -0 0 1
    outer loop
      vertex -50 0 10
      vertex -49.6057 -6.26666 10
      vertex -49.6057 6.26666 10
    endloop
  endfacet
  facet normal -0 -0 1
    outer loop
      vertex -36.4484 -34.2274 10
      vertex -21.289 -45.2414 10
      vertex -43.8153 -24.0877 10
    endloop
  endfacet
  facet normal 0 0 1
    outer loop
      vertex -21.289 -45.2414 10
      vertex -48.4292 -12.4345 10
      vertex -43.8153 -24.0877 10
    endloop
  endfacet
  facet normal -0 -0 1
    outer loop
      vertex -46.4888 -18.4062 10
      vertex -43.8153 -24.0877 10
      vertex -48.4292 -12.4345 10
    endloop
  endfacet
  facet normal 0 0 1
    outer loop
      vertex -15.4508 47.5528 10
      vertex -49.6057 6.26666 10
      vertex -21.289 -45.2414 10
    endloop
  endfacet
  facet normal -0 -0 1
    outer loop
      vertex -40.4509 -29.3893 10
      vertex -36.4484 -34.2274 10
      vertex -43.8153 -24.0877 10
    endloop
  endfacet
  facet normal 0 0 1
    outer loop
      vertex -9.36907 -49.1144 10
      vertex -15.4508 47.5528 10
      vertex -21.289 -45.2414 10
    endloop
  endfacet
  facet normal -0 -0 1
    outer loop
      vertex -31.8712 -38.5257 10
      vertex -26.7913 -42.2164 10
      vertex -36.4484 -34.2274 10
    endloop
  endfacet
  facet normal 0 0 1
    outer loop
      vertex -9.36907 -49.1144 10
      vertex -21.289 -45.2414 10
      vertex -15.4508 -47.5528 10
    endloop
  endfacet
  facet normal 0 0 1
    outer loop
      vertex 9.36907 -49.1144 10
      vertex -15.4508 47.5528 10
      vertex -9.36907 -49.1144 10
    endloop
  endfacet
  facet normal 0 0 1
    outer loop
      vertex 15.4508 47.5528 10
      vertex -15.4508 47.5528 10
      vertex 9.36907 -49.1144 10
    endloop
  endfacet
  facet normal 0 0 1
    outer loop
      vertex 15.4508 47.5528 10
      vertex 9.36907 -49.1144 10
      vertex 21.289 -45.2414 10
    endloop
  endfacet
  facet normal 0 -0 1
    outer loop
      vertex -3.13953 -49.9013 10
      vertex 3.13953 -49.9013 10
      vertex -9.36907 -49.1144 10
    endloop
  endfacet
  facet normal 0 -0 1
    outer loop
      vertex 3.13953 -49.9013 10
      vertex 9.36907 -49.1144 10
      vertex -9.36907 -49.1144 10
    endloop
  endfacet
  facet normal 0 0 1
    outer loop
      vertex 9.36907 -49.1144 10
      vertex 15.4508 -47.5528 10
      vertex 21.289 -45.2414 10
    endloop
  endfacet
  facet normal 0 0 1
    outer loop
      vertex 15.4508 47.5528 10
      vertex 21.289 -45.2414 10
      vertex 46.4888 18.4062 10
    endloop
  endfacet
  facet normal 0 0 1
    outer loop
      vertex 46.4888 18.4062 10
      vertex 21.289 -45.2414 10
      vertex 46.4888 -18.4062 10
    endloop
  endfacet
  facet normal 0 0 1
    outer loop
      vertex 46.4888 18.4062 10
      vertex 46.4888 -18.4062 10
      vertex 48.4292 12.4345 10
    endloop
  endfacet
  facet normal 0 -0 1
    outer loop
      vertex 31.8712 -38.5257 10
      vertex 36.4484 -34.2274 10
      vertex 26.7913 -42.2164 10
    endloop
  endfacet
  facet normal 0 0 1
    outer loop
      vertex 36.4484 -34.2274 10
      vertex 43.8153 -24.0877 10
      vertex 46.4888 -18.4062 10
    endloop
  endfacet
  facet normal 0 -0 1
    outer loop
      vertex 40.4509 -29.3893 10
      vertex 43.8153 -24.0877 10
      vertex 36.4484 -34.2274 10
    endloop
  endfacet
  facet normal 0 -0 1
    outer loop
      vertex 36.4484 -34.2274 10
      vertex 46.4888 -18.4062 10
      vertex 26.7913 -42.2164 10
    endloop
  endfacet
  facet normal 0 0 1
    outer loop
      vertex 46.4888 -18.4062 10
      vertex 49.6057 -6.26666 10
      vertex 48.4292 12.4345 10
    endloop
  endfacet
  facet normal 0 -0 1
    outer loop
      vertex 48.4292 -12.4345 10
      vertex 49.6057 -6.26666 10
      vertex 46.4888 -18.4062 10
    endloop
  endfacet
  facet normal 0.998026 0.0627961 0
    outer loop
      vertex 49.6057 6.26666 0
      vertex 50 0 10
      vertex 50 0 0
    endloop
  endfacet
  facet normal 0.998026 0.0627961 -0
    outer loop
      vertex 49.6057 6.26666 0
      vertex 49.6057 6.26666 10
      vertex 50 0 10
    endloop
  endfacet
  facet normal 0.98229 0.187369 0
    outer loop
      vertex 48.4292 12.4345 0
      vertex 49.6057 6.26666 10
      vertex 49.6057 6.26666 0
    endloop
  endfacet
  facet normal 0.98229 0.187369 -0
    outer loop
      vertex 48.4292 12.4345 0
      vertex 48.4292 12.4345 10
      vertex 49.6057 6.26666 10
    endloop
  endfacet
  facet normal 0.951053 0.309028 0
    outer loop
      vertex 46.4888 18.4062 0
      vertex 48.4292 12.4345 10
      vertex 48.4292 12.4345 0
    endloop
  endfacet
  facet normal 0.951053 0.309028 -0
    outer loop
      vertex 46.4888 18.4062 0
      vertex 46.4888 18.4062 10
      vertex 48.4292 12.4345 10
    endloop
  endfacet
  facet normal 0.904828 0.425778 0
    outer loop
      vertex 43.8153 24.0877 0
      vertex 46.4888 18.4062 10
      vertex 46.4888 18.4062 0
    endloop
  endfacet
  facet normal 0.904828 0.425778 -0
    outer loop
      vertex 43.8153 24.0877 0
      vertex 43.8153 24.0877 10
      vertex 46.4888 18.4062 10
    endloop
  endfacet
  facet normal 0.844335 0.535816 0
    outer loop
      vertex 40.4509 29.3893 0
      vertex 43.8153 24.0877 10
      vertex 43.8153 24.0877 0
    endloop
  endfacet
  facet normal 0.844335 0.535816 -0
    outer loop
      vertex 40.4509 29.3893 0
      vertex 40.4509 29.3893 10
      vertex 43.8153 24.0877 10
    endloop
  endfacet
  facet normal 0.770507 0.637431 0
    outer loop
      vertex 36.4484 34.2274 0
      vertex 40.4509 29.3893 10
      vertex 40.4509 29.3893 0
    endloop
  endfacet
  facet normal 0.770507 0.637431 -0
    outer loop
      vertex 36.4484 34.2274 0
      vertex 36.4484 34.2274 10
      vertex 40.4509 29.3893 10
    endloop
  endfacet
  facet normal 0.684549 0.728967 0
    outer loop
      vertex 31.8712 38.5257 0
      vertex 36.4484 34.2274 10
      vertex 36.4484 34.2274 0
    endloop
  endfacet
  facet normal 0.684549 0.728967 -0
    outer loop
      vertex 31.8712 38.5257 0
      vertex 31.8712 38.5257 10
      vertex 36.4484 34.2274 10
    endloop
  endfacet
  facet normal 0.587779 0.809022 0
    outer loop
      vertex 26.7913 42.2164 0
      vertex 31.8712 38.5257 10
      vertex 31.8712 38.5257 0
    endloop
  endfacet
  facet normal 0.587779 0.809022 -0
    outer loop
      vertex 26.7913 42.2164 0
      vertex 26.7913 42.2164 10
      vertex 31.8712 38.5257 10
    endloop
  endfacet
  facet normal 0.481764 0.876301 0
    outer loop
      vertex 21.289 45.2414 0
      vertex 26.7913 42.2164 10
      vertex 26.7913 42.2164 0
    endloop
  endfacet
  facet normal 0.481764 0.876301 -0
    outer loop
      vertex 21.289 45.2414 0
      vertex 21.289 45.2414 10
      vertex 26.7913 42.2164 10
    endloop
  endfacet
  facet normal 0.36811 0.929782 0
    outer loop
      vertex 15.4508 47.5528 0
      vertex 21.289 45.2414 10
      vertex 21.289 45.2414 0
    endloop
  endfacet
  facet normal 0.36811 0.929782 -0
    outer loop
      vertex 15.4508 47.5528 0
      vertex 15.4508 47.5528 10
      vertex 21.289 45.2414 10
    endloop
  endfacet
  facet normal 0.248701 0.96858 0
    outer loop
      vertex 9.36907 49.1144 0
      vertex 15.4508 47.5528 10
      vertex 15.4508 47.5528 0
    endloop
  endfacet
  facet normal 0.248701 0.96858 -0
    outer loop
      vertex 9.36907 49.1144 0
      vertex 9.36907 49.1144 10
      vertex 15.4508 47.5528 10
    endloop
  endfacet
  facet normal 0.125322 0.992116 0
    outer loop
      vertex 3.13953 49.9013 0
      vertex 9.36907 49.1144 10
      vertex 9.36907 49.1144 0
    endloop
  endfacet
  facet normal 0.125322 0.992116 -0
    outer loop
      vertex 3.13953 49.9013 0
      vertex 3.13953 49.9013 10
      vertex 9.36907 49.1144 10
    endloop
  endfacet
  facet normal 0 1 0
    outer loop
      vertex -3.13953 49.9013 0
      vertex 3.13953 49.9013 10
      vertex 3.13953 49.9013 0
    endloop
  endfacet
  facet normal 0 1 0
    outer loop
      vertex -3.13953 49.9013 0
      vertex -3.13953 49.9013 10
      vertex 3.13953 49.9013 10
    endloop
  endfacet
  facet normal -0.125322 0.992116 0
    outer loop
      vertex -9.36907 49.1144 0
      vertex -3.13953 49.9013 10
      vertex -3.13953 49.9013 0
    endloop
  endfacet
  facet normal -0.125322 0.992116 0
    outer loop
      vertex -9.36907 49.1144 0
      vertex -9.36907 49.1144 10
      vertex -3.13953 49.9013 10
    endloop
  endfacet
  facet normal -0.248701 0.96858 0
    outer loop
      vertex -15.4508 47.5528 0
      vertex -9.36907 49.1144 10
      vertex -9.36907 49.1144 0
    endloop
  endfacet
  facet normal -0.248701 0.96858 0
    outer loop
      vertex -15.4508 47.5528 0
      vertex -15.4508 47.5528 10
      vertex -9.36907 49.1144 10
    endloop
  endfacet
  facet normal -0.36811 0.929782 0
    outer loop
      vertex -21.289 45.2414 0
      vertex -15.4508 47.5528 10
      vertex -15.4508 47.5528 0
    endloop
  endfacet
  facet normal -0.36811 0.929782 0
    outer loop
      vertex -21.289 45.2414 0
      vertex -21.289 45.2414 10
      vertex -15.4508 47.5528 10
    endloop
  endfacet
  facet normal -0.481764 0.876301 0
    outer loop
      vertex -26.7913 42.2164 0
      vertex -21.289 45.2414 10
      vertex -21.289 45.2414 0
    endloop
  endfacet
  facet normal -0.481764 0.876301 0
    outer loop
      vertex -26.7913 42.2164 0
      vertex -26.7913 42.2164 10
      vertex -21.289 45.2414 10
    endloop
  endfacet
  facet normal -0.587779 0.809022 0
    outer loop
      vertex -31.8712 38.5257 0
      vertex -26.7913 42.2164 10
      vertex -26.7913 42.2164 0
    endloop
  endfacet
  facet normal -0.587779 0.809022 0
    outer loop
      vertex -31.8712 38.5257 0
      vertex -31.8712 38.5257 10
      vertex -26.7913 42.2164 10
    endloop
  endfacet
  facet normal -0.684549 0.728967 0
    outer loop
      vertex -36.4484 34.2274 0
      vertex -31.8712 38.5257 10
      vertex -31.8712 38.5257 0
    endloop
  endfacet
  facet normal -0.684549 0.728967 0
    outer loop
      vertex -36.4484 34.2274 0
      vertex -36.4484 34.2274 10
      vertex -31.8712 38.5257 10
    endloop
  endfacet
  facet normal -0.770507 0.637431 0
    outer loop
      vertex -40.4509 29.3893 0
      vertex -36.4484 34.2274 10
      vertex -36.4484 34.2274 0
    endloop
  endfacet
  facet normal -0.770507 0.637431 0
    outer loop
      vertex -40.4509 29.3893 0
      vertex -40.4509 29.3893 10
      vertex -36.4484 34.2274 10
    endloop
  endfacet
  facet normal -0.844335 0.535816 0
    outer loop
      vertex -43.8153 24.0877 0
      vertex -40.4509 29.3893 10
      vertex -40.4509 29.3893 0
    endloop
  endfacet
  facet normal -0.844335 0.535816 0
    outer loop
      vertex -43.8153 24.0877 0
      vertex -43.8153 24.0877 10
      vertex -40.4509 29.3893 10
    endloop
  endfacet
  facet normal -0.904828 0.425778 0
    outer loop
      vertex -46.4888 18.4062 0
      vertex -43.8153 24.0877 10
      vertex -43.8153 24.0877 0
    endloop
  endfacet
  facet normal -0.904828 0.425778 0
    outer loop
      vertex -46.4888 18.4062 0
      vertex -46.4888 18.4062 10
      vertex -43.8153 24.0877 10
    endloop
  endfacet
  facet normal -0.951053 0.309028 0
    outer loop
      vertex -48.4292 12.4345 0
      vertex -46.4888 18.4062 10
      vertex -46.4888 18.4062 0
    endloop
  endfacet
  facet normal -0.951053 0.309028 0
    outer loop
      vertex -48.4292 12.4345 0
      vertex -48.4292 12.4345 10
      vertex -46.4888 18.4062 10
    endloop
  endfacet
  facet normal -0.98229 0.187369 0
    outer loop
      vertex -49.6057 6.26666 0
      vertex -48.4292 12.4345 10
      vertex -48.4292 12.4345 0
    endloop
  endfacet
  facet normal -0.98229 0.187369 0
    outer loop
      vertex -49.6057 6.26666 0
      vertex -49.6057 6.26666 10
      vertex -48.4292 12.4345 10
    endloop
  endfacet
  facet normal -0.998026 0.0627961 0
    outer loop
      vertex -50 0 0
      vertex -49.6057 6.26666 10
      vertex -49.6057 6.26666 0
    endloop
  endfacet
  facet normal -0.998026 0.0627961 0
    outer loop
      vertex -50 0 0
      vertex -50 0 10
      vertex -49.6057 6.26666 10
    endloop
  endfacet
  facet normal -0.998026 -0.0627961 0
    outer loop
      vertex -49.6057 -6.26666 0
      vertex -50 0 10
      vertex -50 0 0
    endloop
  endfacet
  facet normal -0.998026 -0.0627961 0
    outer loop
      vertex -49.6057 -6.26666 0
      vertex -49.6057 -6.26666 10
      vertex -50 0 10
    endloop
  endfacet
  facet normal -0.98229 -0.187369 0
    outer loop
      vertex -48.4292 -12.4345 0
      vertex -49.6057 -6.26666 10
      vertex -49.6057 -6.26666 0
    endloop
  endfacet
  facet normal -0.98229 -0.187369 0
    outer loop
      vertex -48.4292 -12.4345 0
      vertex -48.4292 -12.4345 10
      vertex -49.6057 -6.26666 10
    endloop
  endfacet
  facet normal -0.951053 -0.309028 0
    outer loop
      vertex -46.4888 -18.4062 0
      vertex -48.4292 -12.4345 10
      vertex -48.4292 -12.4345 0
    endloop
  endfacet
  facet normal -0.951053 -0.309028 0
    outer loop
      vertex -46.4888 -18.4062 0
      vertex -46.4888 -18.4062 10
      vertex -48.4292 -12.4345 10
    endloop
  endfacet
  facet normal -0.904828 -0.425778 0
    outer loop
      vertex -43.8153 -24.0877 0
      vertex -46.4888 -18.4062 10
      vertex -46.4888 -18.4062 0
    endloop
  endfacet
  facet normal -0.904828 -0.425778 0
    outer loop
      vertex -43.8153 -24.0877 0
      vertex -43.8153 -24.0877 10
      vertex -46.4888 -18.4062 10
    endloop
  endfacet
  facet normal -0.844335 -0.535816 0
    outer loop
      vertex -40.4509 -29.3893 0
      vertex -43.8153 -24.0877 10
      vertex -43.8153 -24.0877 0
    endloop
  endfacet
  facet normal -0.844335 -0.535816 0
    outer loop
      vertex -40.4509 -29.3893 0
      vertex -40.4509 -29.3893 10
      vertex -43.8153 -24.0877 10
    endloop
  endfacet
  facet normal -0.770507 -0.637431 0
    outer loop
      vertex -36.4484 -34.2274 0
      vertex -40.4509 -29.3893 10
      vertex -40.4509 -29.3893 0
    endloop
  endfacet
  facet normal -0.770507 -0.637431 0
    outer loop
      vertex -36.4484 -34.2274 0
      vertex -36.4484 -34.2274 10
      vertex -40.4509 -29.3893 10
    endloop
  endfacet
  facet normal -0.684549 -0.728967 0
    outer loop
      vertex -31.8712 -38.5257 0
      vertex -36.4484 -34.2274 10
      vertex -36.4484 -34.2274 0
    endloop
  endfacet
  facet normal -0.684549 -0.728967 0
    outer loop
      vertex -31.8712 -38.5257 0
      vertex -31.8712 -38.5257 10
      vertex -36.4484 -34.2274 10
    endloop
  endfacet
  facet normal -0.587779 -0.809022 0
    outer loop
      vertex -26.7913 -42.2164 0
      vertex -31.8712 -38.5257 10
      vertex -31.8712 -38.5257 0
    endloop
  endfacet
  facet normal -0.587779 -0.809022 0
    outer loop
      vertex -26.7913 -42.2164 0
      vertex -26.7913 -42.2164 10
      vertex -31.8712 -38.5257 10
    endloop
  endfacet
  facet normal -0.481764 -0.876301 0
    outer loop
      vertex -21.289 -45.2414 0
      vertex -26.7913 -42.2164 10
      vertex -26.7913 -42.2164 0
    endloop
  endfacet
  facet normal -0.481764 -0.876301 0
    outer loop
      vertex -21.289 -45.2414 0
      vertex -21.289 -45.2414 10
      vertex -26.7913 -42.2164 10
    endloop
  endfacet
  facet normal -0.36811 -0.929782 0
    outer loop
      vertex -15.4508 -47.5528 0
      vertex -21.289 -45.2414 10
      vertex -21.289 -45.2414 0
    endloop
  endfacet
  facet normal -0.36811 -0.929782 0
    outer loop
      vertex -15.4508 -47.5528 0
      vertex -15.4508 -47.5528 10
      vertex -21.289 -45.2414 10
    endloop
  endfacet
  facet normal -0.248701 -0.96858 0
    outer loop
      vertex -9.36907 -49.1144 0
      vertex -15.4508 -47.5528 10
      vertex -15.4508 -47.5528 0
    endloop
  endfacet
  facet normal -0.248701 -0.96858 0
    outer loop
      vertex -9.36907 -49.1144 0
      vertex -9.36907 -49.1144 10
      vertex -15.4508 -47.5528 10
    endloop
  endfacet
  facet normal -0.125322 -0.992116 0
    outer loop
      vertex -3.13953 -49.9013 0
      vertex -9.36907 -49.1144 10
      vertex -9.36907 -49.1144 0
    endloop
  endfacet
  facet normal -0.125322 -0.992116 0
    outer loop
      vertex -3.13953 -49.9013 0
      vertex -3.13953 -49.9013 10
      vertex -9.36907 -49.1144 10
    endloop
  endfacet
  facet normal 0 -1 0
    outer loop
      vertex 3.13953 -49.9013 0
      vertex -3.13953 -49.9013 10
      vertex -3.13953 -49.9013 0
    endloop
  endfacet
  facet normal 0 -1 0
    outer loop
      vertex 3.13953 -49.9013 0
      vertex 3.13953 -49.9013 10
      vertex -3.13953 -49.9013 10
    endloop
  endfacet
  facet normal 0.125322 -0.992116 0
    outer loop
      vertex 9.36907 -49.1144 0
      vertex 3.13953 -49.9013 10
      vertex 3.13953 -49.9013 0
    endloop
  endfacet
  facet normal 0.125322 -0.992116 0
    outer loop
      vertex 9.36907 -49.1144 0
      vertex 9.36907 -49.1144 10
      vertex 3.13953 -49.9013 10
    endloop
  endfacet
  facet normal 0.248701 -0.96858 0
    outer loop
      vertex 15.4508 -47.5528 0
      vertex 9.36907 -49.1144 10
      vertex 9.36907 -49.1144 0
    endloop
  endfacet
  facet normal 0.248701 -0.96858 0
    outer loop
      vertex 15.4508 -47.5528 0
      vertex 15.4508 -47.5528 10
      vertex 9.36907 -49.1144 10
    endloop
  endfacet
  facet normal 0.36811 -0.929782 0
    outer loop
      vertex 21.289 -45.2414 0
      vertex 15.4508 -47.5528 10
      vertex 15.4508 -47.5528 0
    endloop
  endfacet
  facet normal 0.36811 -0.929782 0
    outer loop
      vertex 21.289 -45.2414 0
      vertex 21.289 -45.2414 10
      vertex 15.4508 -47.5528 10
    endloop
  endfacet
  facet normal 0.481764 -0.876301 0
    outer loop
      vertex 26.7913 -42.2164 0
      vertex 21.289 -45.2414 10
      vertex 21.289 -45.2414 0
    endloop
  endfacet
  facet normal 0.481764 -0.876301 0
    outer loop
      vertex 26.7913 -42.2164 0
      vertex 26.7913 -42.2164 10
      vertex 21.289 -45.2414 10
    endloop
  endfacet
  facet normal 0.587779 -0.809022 0
    outer loop
      vertex 31.8712 -38.5257 0
      vertex 26.7913 -42.2164 10
      vertex 26.7913 -42.2164 0
    endloop
  endfacet
  facet normal 0.587779 -0.809022 0
    outer loop
      vertex 31.8712 -38.5257 0
      vertex 31.8712 -38.5257 10
      vertex 26.7913 -42.2164 10
    endloop
  endfacet
  facet normal 0.684549 -0.728967 0
    outer loop
      vertex 36.4484 -34.2274 0
      vertex 31.8712 -38.5257 10
      vertex 31.8712 -38.5257 0
    endloop
  endfacet
  facet normal 0.684549 -0.728967 0
    outer loop
      vertex 36.4484 -34.2274 0
      vertex 36.4484 -34.2274 10
      vertex 31.8712 -38.5257 10
    endloop
  endfacet
  facet normal 0.770507 -0.637431 0
    outer loop
      vertex 40.4509 -29.3893 0
      vertex 36.4484 -34.2274 10
      vertex 36.4484 -34.2274 0
    endloop
  endfacet
  facet normal 0.770507 -0.637431 0
    outer loop
      vertex 40.4509 -29.3893 0
      vertex 40.4509 -29.3893 10
      vertex 36.4484 -34.2274 10
    endloop
  endfacet
  facet normal 0.844335 -0.535816 0
    outer loop
      vertex 43.8153 -24.0877 0
      vertex 40.4509 -29.3893 10
      vertex 40.4509 -29.3893 0
    endloop
  endfacet
  facet normal 0.844335 -0.535816 0
    outer loop
      vertex 43.8153 -24.0877 0
      vertex 43.8153 -24.0877 10
      vertex 40.4509 -29.3893 10
    endloop
  endfacet
  facet normal 0.904828 -0.425778 0
    outer loop
      vertex 46.4888 -18.4062 0
      vertex 43.8153 -24.0877 10
      vertex 43.8153 -24.0877 0
    endloop
  endfacet
  facet normal 0.904828 -0.425778 0
    outer loop
      vertex 46.4888 -18.4062 0
      vertex 46.4888 -18.4062 10
      vertex 43.8153 -24.0877 10
    endloop
  endfacet
  facet normal 0.951053 -0.309028 0
    outer loop
      vertex 48.4292 -12.4345 0
      vertex 46.4888 -18.4062 10
      vertex 46.4888 -18.4062 0
    endloop
  endfacet
  facet normal 0.951053 -0.309028 0
    outer loop
      vertex 48.4292 -12.4345 0
      vertex 48.4292 -12.4345 10
      vertex 46.4888 -18.4062 10
    endloop
  endfacet
  facet normal 0.98229 -0.187369 0
    outer loop
      vertex 49.6057 -6.26666 0
      vertex 48.4292 -12.4345 10
      vertex 48.4292 -12.4345 0
    endloop
  endfacet
  facet normal 0.98229 -0.187369 0
    outer loop
      vertex 49.6057 -6.26666 0
      vertex 49.6057 -6.26666 10
      vertex 48.4292 -12.4345 10
    endloop
  endfacet
  facet normal 0.998026 -0.0627961 0
    outer loop
      vertex 50 0 0
      vertex 49.6057 -6.26666 10
      vertex 49.6057 -6.26666 0
    endloop
  endfacet
  facet normal 0.998026 -0.0627961 0
    outer loop
      vertex 50 0 0
      vertex 50 0 10
      vertex 49.6057 -6.26666 10
    endloop
  endfacet
endsolid OpenSCAD_Model
