solid OpenSCAD_Model
  facet normal 1 -0 0
    outer loop
      vertex 1000 -500 200
      vertex 1000 -249.689 0
      vertex 1000 -249.689 200
    endloop
  endfacet
  facet normal 1 0 0
    outer loop
      vertex 1000 -249.689 0
      vertex 1000 -500 200
      vertex 1000 -500 0
    endloop
  endfacet
  facet normal 0 0 1
    outer loop
      vertex 500 1000 200
      vertex 249.689 1000 200
      vertex 500 901.302 200
    endloop
  endfacet
  facet normal 0 0 1
    outer loop
      vertex 741.782 836.516 200
      vertex 500 901.302 200
      vertex 716.237 741.181 200
    endloop
  endfacet
  facet normal 0 0 1
    outer loop
      vertex 933.013 616.025 200
      vertex 716.237 741.181 200
      vertex 883.664 530.55 200
    endloop
  endfacet
  facet normal 0 0 1
    outer loop
      vertex 1060.66 353.553 200
      vertex 883.664 530.55 200
      vertex 990.87 283.763 200
    endloop
  endfacet
  facet normal 0 0 1
    outer loop
      vertex 990.87 283.763 200
      vertex 1030.55 17.6381 200
      vertex 1116.03 66.9873 200
    endloop
  endfacet
  facet normal -0 0 1
    outer loop
      vertex 200 53.5898 200
      vertex 1030.55 17.6381 200
      vertex 990.87 283.763 200
    endloop
  endfacet
  facet normal 0 0 1
    outer loop
      vertex 1030.55 17.6381 200
      vertex 207.055 0 200
      vertex 1000 -249.689 200
    endloop
  endfacet
  facet normal 0 0 1
    outer loop
      vertex 179.315 103.528 200
      vertex 990.87 283.763 200
      vertex 883.664 530.55 200
    endloop
  endfacet
  facet normal 0 0 1
    outer loop
      vertex 146.41 146.41 200
      vertex 883.664 530.55 200
      vertex 716.237 741.181 200
    endloop
  endfacet
  facet normal 0 0 1
    outer loop
      vertex 146.41 146.41 200
      vertex 716.237 741.181 200
      vertex 500 901.302 200
    endloop
  endfacet
  facet normal 0 0 1
    outer loop
      vertex 146.41 146.41 200
      vertex 500 901.302 200
      vertex 249.689 1000 200
    endloop
  endfacet
  facet normal -0 0 1
    outer loop
      vertex -17.6381 1030.55 200
      vertex 249.689 1000 200
      vertex 224.144 1095.34 200
    endloop
  endfacet
  facet normal 0 0 1
    outer loop
      vertex 1030.55 17.6381 200
      vertex 200 53.5898 200
      vertex 207.055 0 200
    endloop
  endfacet
  facet normal -0 0 1
    outer loop
      vertex 179.315 -103.528 200
      vertex 1000 -249.689 200
      vertex 200 -53.5898 200
    endloop
  endfacet
  facet normal 0 0 1
    outer loop
      vertex 1000 -249.689 200
      vertex 179.315 -103.528 200
      vertex 1000 -500 200
    endloop
  endfacet
  facet normal -0 0 1
    outer loop
      vertex 146.41 -146.41 200
      vertex 1000 -500 200
      vertex 179.315 -103.528 200
    endloop
  endfacet
  facet normal 0 0 1
    outer loop
      vertex 0 -500 200
      vertex 146.41 -146.41 200
      vertex 103.528 -179.315 200
    endloop
  endfacet
  facet normal 0 0 1
    outer loop
      vertex 0 -500 200
      vertex 103.528 -179.315 200
      vertex 53.5898 -200 200
    endloop
  endfacet
  facet normal 0 0 1
    outer loop
      vertex 0 -500 200
      vertex 53.5898 -200 200
      vertex 0 -200 200
    endloop
  endfacet
  facet normal 0 0 1
    outer loop
      vertex 146.41 -146.41 200
      vertex 0 -500 200
      vertex 1000 -500 200
    endloop
  endfacet
  facet normal 0 0 1
    outer loop
      vertex 1095.34 -224.144 200
      vertex 1030.55 17.6381 200
      vertex 1000 -249.689 200
    endloop
  endfacet
  facet normal 0 0 1
    outer loop
      vertex 103.528 -179.315 200
      vertex 51.7638 -193.185 200
      vertex 53.5898 -200 200
    endloop
  endfacet
  facet normal 0 0 1
    outer loop
      vertex 146.41 -146.41 200
      vertex 100 -173.205 200
      vertex 103.528 -179.315 200
    endloop
  endfacet
  facet normal 0 0 1
    outer loop
      vertex 179.315 -103.528 200
      vertex 141.421 -141.421 200
      vertex 146.41 -146.41 200
    endloop
  endfacet
  facet normal 0 0 1
    outer loop
      vertex 200 -53.5898 200
      vertex 173.205 -100 200
      vertex 179.315 -103.528 200
    endloop
  endfacet
  facet normal 0 0 1
    outer loop
      vertex 207.055 0 200
      vertex 193.185 -51.7638 200
      vertex 200 -53.5898 200
    endloop
  endfacet
  facet normal 0 0 1
    outer loop
      vertex 1000 -249.689 200
      vertex 207.055 0 200
      vertex 200 -53.5898 200
    endloop
  endfacet
  facet normal 0 0 1
    outer loop
      vertex 990.87 283.763 200
      vertex 179.315 103.528 200
      vertex 200 53.5898 200
    endloop
  endfacet
  facet normal 0 0 1
    outer loop
      vertex 200 53.5898 200
      vertex 179.315 103.528 200
      vertex 193.185 51.7638 200
    endloop
  endfacet
  facet normal 0 0 1
    outer loop
      vertex 883.664 530.55 200
      vertex 146.41 146.41 200
      vertex 179.315 103.528 200
    endloop
  endfacet
  facet normal 0 0 1
    outer loop
      vertex 179.315 103.528 200
      vertex 146.41 146.41 200
      vertex 173.205 100 200
    endloop
  endfacet
  facet normal 0 0 1
    outer loop
      vertex 249.689 1000 200
      vertex -17.6381 1030.55 200
      vertex 146.41 146.41 200
    endloop
  endfacet
  facet normal -0 0 1
    outer loop
      vertex -283.763 990.87 200
      vertex 146.41 146.41 200
      vertex -17.6381 1030.55 200
    endloop
  endfacet
  facet normal 0 0 1
    outer loop
      vertex -283.763 990.87 200
      vertex -17.6381 1030.55 200
      vertex -66.9873 1116.03 200
    endloop
  endfacet
  facet normal 0 0 1
    outer loop
      vertex 146.41 146.41 200
      vertex -283.763 990.87 200
      vertex 141.421 141.421 200
    endloop
  endfacet
  facet normal 0 0 1
    outer loop
      vertex -565.685 848.528 200
      vertex -283.763 990.87 200
      vertex -353.553 1060.66 200
    endloop
  endfacet
  facet normal 0 0 1
    outer loop
      vertex -283.763 990.87 200
      vertex -565.685 848.528 200
      vertex 141.421 141.421 200
    endloop
  endfacet
  facet normal 0 0 1
    outer loop
      vertex 207.055 0 200
      vertex 200 53.5898 200
      vertex 200 0 200
    endloop
  endfacet
  facet normal -0 0 -1
    outer loop
      vertex 1095.34 -224.144 0
      vertex 1000 -249.689 0
      vertex 1030.55 17.6381 0
    endloop
  endfacet
  facet normal 0 0 -1
    outer loop
      vertex 1030.55 17.6381 0
      vertex 990.87 283.763 0
      vertex 1116.03 66.9873 0
    endloop
  endfacet
  facet normal 0 0 -1
    outer loop
      vertex 207.055 0 0
      vertex 1030.55 17.6381 0
      vertex 1000 -249.689 0
    endloop
  endfacet
  facet normal 0 0 -1
    outer loop
      vertex 179.315 -103.528 0
      vertex 1000 -249.689 0
      vertex 1000 -500 0
    endloop
  endfacet
  facet normal 0 -0 -1
    outer loop
      vertex 207.055 0 0
      vertex 1000 -249.689 0
      vertex 200 -53.5898 0
    endloop
  endfacet
  facet normal 0 0 -1
    outer loop
      vertex 1030.55 17.6381 0
      vertex 200 53.5898 0
      vertex 990.87 283.763 0
    endloop
  endfacet
  facet normal -0 0 -1
    outer loop
      vertex 990.87 283.763 0
      vertex 179.315 103.528 0
      vertex 883.664 530.55 0
    endloop
  endfacet
  facet normal 0 0 -1
    outer loop
      vertex 500 901.302 0
      vertex 249.689 1000 0
      vertex 500 1000 0
    endloop
  endfacet
  facet normal 0 0 -1
    outer loop
      vertex 146.41 146.41 0
      vertex 883.664 530.55 0
      vertex 179.315 103.528 0
    endloop
  endfacet
  facet normal -0 0 -1
    outer loop
      vertex 883.664 530.55 0
      vertex 146.41 146.41 0
      vertex 716.237 741.181 0
    endloop
  endfacet
  facet normal 0 0 -1
    outer loop
      vertex 179.315 103.528 0
      vertex 990.87 283.763 0
      vertex 200 53.5898 0
    endloop
  endfacet
  facet normal 0 0 -1
    outer loop
      vertex 200 53.5898 0
      vertex 1030.55 17.6381 0
      vertex 207.055 0 0
    endloop
  endfacet
  facet normal 0 0 -1
    outer loop
      vertex 1000 -249.689 0
      vertex 179.315 -103.528 0
      vertex 200 -53.5898 0
    endloop
  endfacet
  facet normal 0 0 -1
    outer loop
      vertex 1000 -500 0
      vertex 146.41 -146.41 0
      vertex 179.315 -103.528 0
    endloop
  endfacet
  facet normal 0 0 -1
    outer loop
      vertex 0 -500 0
      vertex 146.41 -146.41 0
      vertex 1000 -500 0
    endloop
  endfacet
  facet normal 0 0 -1
    outer loop
      vertex 146.41 -146.41 0
      vertex 0 -500 0
      vertex 103.528 -179.315 0
    endloop
  endfacet
  facet normal 0 0 -1
    outer loop
      vertex 103.528 -179.315 0
      vertex 0 -500 0
      vertex 53.5898 -200 0
    endloop
  endfacet
  facet normal -0 0 -1
    outer loop
      vertex 53.5898 -200 0
      vertex 0 -500 0
      vertex 0 -200 0
    endloop
  endfacet
  facet normal -0 0 -1
    outer loop
      vertex 1060.66 353.553 0
      vertex 990.87 283.763 0
      vertex 883.664 530.55 0
    endloop
  endfacet
  facet normal -0 0 -1
    outer loop
      vertex 933.013 616.025 0
      vertex 883.664 530.55 0
      vertex 716.237 741.181 0
    endloop
  endfacet
  facet normal -0 0 -1
    outer loop
      vertex 741.782 836.516 0
      vertex 716.237 741.181 0
      vertex 500 901.302 0
    endloop
  endfacet
  facet normal 0 0 -1
    outer loop
      vertex 200 53.5898 0
      vertex 207.055 0 0
      vertex 200 0 0
    endloop
  endfacet
  facet normal -0 0 -1
    outer loop
      vertex 716.237 741.181 0
      vertex 146.41 146.41 0
      vertex 500 901.302 0
    endloop
  endfacet
  facet normal 0 0 -1
    outer loop
      vertex 179.315 103.528 0
      vertex 200 53.5898 0
      vertex 193.185 51.7638 0
    endloop
  endfacet
  facet normal -0 0 -1
    outer loop
      vertex 500 901.302 0
      vertex 146.41 146.41 0
      vertex 249.689 1000 0
    endloop
  endfacet
  facet normal 0 0 -1
    outer loop
      vertex 146.41 146.41 0
      vertex 179.315 103.528 0
      vertex 173.205 100 0
    endloop
  endfacet
  facet normal 0 0 -1
    outer loop
      vertex -17.6381 1030.55 0
      vertex 249.689 1000 0
      vertex 146.41 146.41 0
    endloop
  endfacet
  facet normal 0 0 -1
    outer loop
      vertex -283.763 990.87 0
      vertex 146.41 146.41 0
      vertex 141.421 141.421 0
    endloop
  endfacet
  facet normal 0 0 -1
    outer loop
      vertex 249.689 1000 0
      vertex -17.6381 1030.55 0
      vertex 224.144 1095.34 0
    endloop
  endfacet
  facet normal 0 0 -1
    outer loop
      vertex 146.41 146.41 0
      vertex -283.763 990.87 0
      vertex -17.6381 1030.55 0
    endloop
  endfacet
  facet normal -0 0 -1
    outer loop
      vertex -17.6381 1030.55 0
      vertex -283.763 990.87 0
      vertex -66.9873 1116.03 0
    endloop
  endfacet
  facet normal 0 0 -1
    outer loop
      vertex -565.685 848.528 0
      vertex -283.763 990.87 0
      vertex 141.421 141.421 0
    endloop
  endfacet
  facet normal -0 0 -1
    outer loop
      vertex -283.763 990.87 0
      vertex -565.685 848.528 0
      vertex -353.553 1060.66 0
    endloop
  endfacet
  facet normal 0 0 -1
    outer loop
      vertex 207.055 0 0
      vertex 200 -53.5898 0
      vertex 193.185 -51.7638 0
    endloop
  endfacet
  facet normal 0 0 -1
    outer loop
      vertex 200 -53.5898 0
      vertex 179.315 -103.528 0
      vertex 173.205 -100 0
    endloop
  endfacet
  facet normal 0 0 -1
    outer loop
      vertex 179.315 -103.528 0
      vertex 146.41 -146.41 0
      vertex 141.421 -141.421 0
    endloop
  endfacet
  facet normal 0 0 -1
    outer loop
      vertex 146.41 -146.41 0
      vertex 103.528 -179.315 0
      vertex 100 -173.205 0
    endloop
  endfacet
  facet normal 0 0 -1
    outer loop
      vertex 103.528 -179.315 0
      vertex 53.5898 -200 0
      vertex 51.7638 -193.185 0
    endloop
  endfacet
  facet normal -1 0 0
    outer loop
      vertex 0 -500 0
      vertex 0 -200 200
      vertex 0 -200 0
    endloop
  endfacet
  facet normal -1 -0 0
    outer loop
      vertex 0 -200 200
      vertex 0 -500 0
      vertex 0 -500 200
    endloop
  endfacet
  facet normal 0 1 -0
    outer loop
      vertex 53.5898 -200 0
      vertex 0 -200 200
      vertex 53.5898 -200 200
    endloop
  endfacet
  facet normal 0 1 0
    outer loop
      vertex 0 -200 200
      vertex 53.5898 -200 0
      vertex 0 -200 0
    endloop
  endfacet
  facet normal 0 -1 0
    outer loop
      vertex 0 -500 0
      vertex 1000 -500 200
      vertex 0 -500 200
    endloop
  endfacet
  facet normal 0 -1 -0
    outer loop
      vertex 1000 -500 200
      vertex 0 -500 0
      vertex 1000 -500 0
    endloop
  endfacet
  facet normal -0.965928 -0.258809 0
    outer loop
      vertex 53.5898 -200 0
      vertex 51.7638 -193.185 200
      vertex 51.7638 -193.185 0
    endloop
  endfacet
  facet normal -0.965928 -0.258809 0
    outer loop
      vertex 51.7638 -193.185 200
      vertex 53.5898 -200 0
      vertex 53.5898 -200 200
    endloop
  endfacet
  facet normal -0.258816 0.965927 0
    outer loop
      vertex 103.528 -179.315 0
      vertex 51.7638 -193.185 200
      vertex 103.528 -179.315 200
    endloop
  endfacet
  facet normal -0.258816 0.965927 0
    outer loop
      vertex 51.7638 -193.185 200
      vertex 103.528 -179.315 0
      vertex 51.7638 -193.185 0
    endloop
  endfacet
  facet normal 0.258807 -0.965929 0
    outer loop
      vertex 1000 -249.689 0
      vertex 1095.34 -224.144 200
      vertex 1000 -249.689 200
    endloop
  endfacet
  facet normal 0.258807 -0.965929 0
    outer loop
      vertex 1095.34 -224.144 200
      vertex 1000 -249.689 0
      vertex 1095.34 -224.144 0
    endloop
  endfacet
  facet normal 0.965921 0.258836 0
    outer loop
      vertex 1095.34 -224.144 200
      vertex 1030.55 17.6381 0
      vertex 1030.55 17.6381 200
    endloop
  endfacet
  facet normal 0.965921 0.258836 0
    outer loop
      vertex 1030.55 17.6381 0
      vertex 1095.34 -224.144 200
      vertex 1095.34 -224.144 0
    endloop
  endfacet
  facet normal -0.866001 -0.500041 0
    outer loop
      vertex 103.528 -179.315 0
      vertex 100 -173.205 200
      vertex 100 -173.205 0
    endloop
  endfacet
  facet normal -0.866001 -0.500041 0
    outer loop
      vertex 100 -173.205 200
      vertex 103.528 -179.315 0
      vertex 103.528 -179.315 200
    endloop
  endfacet
  facet normal -0.500002 0.866024 0
    outer loop
      vertex 146.41 -146.41 0
      vertex 100 -173.205 200
      vertex 146.41 -146.41 200
    endloop
  endfacet
  facet normal -0.500002 0.866024 0
    outer loop
      vertex 100 -173.205 200
      vertex 146.41 -146.41 0
      vertex 100 -173.205 0
    endloop
  endfacet
  facet normal 0.499979 -0.866037 0
    outer loop
      vertex 1030.55 17.6381 0
      vertex 1116.03 66.9873 200
      vertex 1030.55 17.6381 200
    endloop
  endfacet
  facet normal 0.499979 -0.866037 0
    outer loop
      vertex 1116.03 66.9873 200
      vertex 1030.55 17.6381 0
      vertex 1116.03 66.9873 0
    endloop
  endfacet
  facet normal 0.866018 0.500013 0
    outer loop
      vertex 1116.03 66.9873 200
      vertex 990.87 283.763 0
      vertex 990.87 283.763 200
    endloop
  endfacet
  facet normal 0.866018 0.500013 0
    outer loop
      vertex 990.87 283.763 0
      vertex 1116.03 66.9873 200
      vertex 1116.03 66.9873 0
    endloop
  endfacet
  facet normal -0.707107 -0.707107 0
    outer loop
      vertex 146.41 -146.41 0
      vertex 141.421 -141.421 200
      vertex 141.421 -141.421 0
    endloop
  endfacet
  facet normal -0.707107 -0.707107 0
    outer loop
      vertex 141.421 -141.421 200
      vertex 146.41 -146.41 0
      vertex 146.41 -146.41 200
    endloop
  endfacet
  facet normal -0.707097 0.707116 0
    outer loop
      vertex 141.421 -141.421 0
      vertex 179.315 -103.528 200
      vertex 179.315 -103.528 0
    endloop
  endfacet
  facet normal -0.707097 0.707116 0
    outer loop
      vertex 179.315 -103.528 200
      vertex 141.421 -141.421 0
      vertex 141.421 -141.421 200
    endloop
  endfacet
  facet normal 0.707107 -0.707107 0
    outer loop
      vertex 990.87 283.763 200
      vertex 1060.66 353.553 0
      vertex 1060.66 353.553 200
    endloop
  endfacet
  facet normal 0.707107 -0.707107 0
    outer loop
      vertex 1060.66 353.553 0
      vertex 990.87 283.763 200
      vertex 990.87 283.763 0
    endloop
  endfacet
  facet normal 0.707109 0.707105 0
    outer loop
      vertex 1060.66 353.553 200
      vertex 883.664 530.55 0
      vertex 883.664 530.55 200
    endloop
  endfacet
  facet normal 0.707109 0.707105 0
    outer loop
      vertex 883.664 530.55 0
      vertex 1060.66 353.553 200
      vertex 1060.66 353.553 0
    endloop
  endfacet
  facet normal -0.500041 -0.866001 0
    outer loop
      vertex 173.205 -100 0
      vertex 179.315 -103.528 200
      vertex 173.205 -100 200
    endloop
  endfacet
  facet normal -0.500041 -0.866001 -0
    outer loop
      vertex 179.315 -103.528 200
      vertex 173.205 -100 0
      vertex 179.315 -103.528 0
    endloop
  endfacet
  facet normal -0.866025 0.500001 0
    outer loop
      vertex 173.205 -100 0
      vertex 200 -53.5898 200
      vertex 200 -53.5898 0
    endloop
  endfacet
  facet normal -0.866025 0.500001 0
    outer loop
      vertex 200 -53.5898 200
      vertex 173.205 -100 0
      vertex 173.205 -100 200
    endloop
  endfacet
  facet normal 0.866025 -0.5 0
    outer loop
      vertex 883.664 530.55 200
      vertex 933.013 616.025 0
      vertex 933.013 616.025 200
    endloop
  endfacet
  facet normal 0.866025 -0.5 0
    outer loop
      vertex 933.013 616.025 0
      vertex 883.664 530.55 200
      vertex 883.664 530.55 0
    endloop
  endfacet
  facet normal 0.500001 0.866025 -0
    outer loop
      vertex 933.013 616.025 0
      vertex 716.237 741.181 200
      vertex 933.013 616.025 200
    endloop
  endfacet
  facet normal 0.500001 0.866025 0
    outer loop
      vertex 716.237 741.181 200
      vertex 933.013 616.025 0
      vertex 716.237 741.181 0
    endloop
  endfacet
  facet normal -0.258809 -0.965928 0
    outer loop
      vertex 193.185 -51.7638 0
      vertex 200 -53.5898 200
      vertex 193.185 -51.7638 200
    endloop
  endfacet
  facet normal -0.258809 -0.965928 -0
    outer loop
      vertex 200 -53.5898 200
      vertex 193.185 -51.7638 0
      vertex 200 -53.5898 0
    endloop
  endfacet
  facet normal -0.965926 0.258818 0
    outer loop
      vertex 193.185 -51.7638 0
      vertex 207.055 0 200
      vertex 207.055 0 0
    endloop
  endfacet
  facet normal -0.965926 0.258818 0
    outer loop
      vertex 207.055 0 200
      vertex 193.185 -51.7638 0
      vertex 193.185 -51.7638 200
    endloop
  endfacet
  facet normal 0.965926 -0.25882 0
    outer loop
      vertex 716.237 741.181 200
      vertex 741.782 836.516 0
      vertex 741.782 836.516 200
    endloop
  endfacet
  facet normal 0.965926 -0.25882 0
    outer loop
      vertex 741.782 836.516 0
      vertex 716.237 741.181 200
      vertex 716.237 741.181 0
    endloop
  endfacet
  facet normal 0.258822 0.965925 -0
    outer loop
      vertex 741.782 836.516 0
      vertex 500 901.302 200
      vertex 741.782 836.516 200
    endloop
  endfacet
  facet normal 0.258822 0.965925 0
    outer loop
      vertex 500 901.302 200
      vertex 741.782 836.516 0
      vertex 500 901.302 0
    endloop
  endfacet
  facet normal 0 -1 0
    outer loop
      vertex 200 0 0
      vertex 207.055 0 200
      vertex 200 0 200
    endloop
  endfacet
  facet normal 0 -1 -0
    outer loop
      vertex 207.055 0 200
      vertex 200 0 0
      vertex 207.055 0 0
    endloop
  endfacet
  facet normal -1 0 0
    outer loop
      vertex 200 0 0
      vertex 200 53.5898 200
      vertex 200 53.5898 0
    endloop
  endfacet
  facet normal -1 -0 0
    outer loop
      vertex 200 53.5898 200
      vertex 200 0 0
      vertex 200 0 200
    endloop
  endfacet
  facet normal 1 -0 0
    outer loop
      vertex 500 901.302 200
      vertex 500 1000 0
      vertex 500 1000 200
    endloop
  endfacet
  facet normal 1 0 0
    outer loop
      vertex 500 1000 0
      vertex 500 901.302 200
      vertex 500 901.302 0
    endloop
  endfacet
  facet normal 0 1 -0
    outer loop
      vertex 500 1000 0
      vertex 249.689 1000 200
      vertex 500 1000 200
    endloop
  endfacet
  facet normal 0 1 0
    outer loop
      vertex 249.689 1000 200
      vertex 500 1000 0
      vertex 249.689 1000 0
    endloop
  endfacet
  facet normal 0.258809 -0.965928 0
    outer loop
      vertex 193.185 51.7638 0
      vertex 200 53.5898 200
      vertex 193.185 51.7638 200
    endloop
  endfacet
  facet normal 0.258809 -0.965928 0
    outer loop
      vertex 200 53.5898 200
      vertex 193.185 51.7638 0
      vertex 200 53.5898 0
    endloop
  endfacet
  facet normal -0.965927 -0.258816 0
    outer loop
      vertex 193.185 51.7638 0
      vertex 179.315 103.528 200
      vertex 179.315 103.528 0
    endloop
  endfacet
  facet normal -0.965927 -0.258816 0
    outer loop
      vertex 179.315 103.528 200
      vertex 193.185 51.7638 0
      vertex 193.185 51.7638 200
    endloop
  endfacet
  facet normal 0.965929 0.258807 0
    outer loop
      vertex 249.689 1000 200
      vertex 224.144 1095.34 0
      vertex 224.144 1095.34 200
    endloop
  endfacet
  facet normal 0.965929 0.258807 0
    outer loop
      vertex 224.144 1095.34 0
      vertex 249.689 1000 200
      vertex 249.689 1000 0
    endloop
  endfacet
  facet normal -0.258836 0.965921 0
    outer loop
      vertex 224.144 1095.34 0
      vertex -17.6381 1030.55 200
      vertex 224.144 1095.34 200
    endloop
  endfacet
  facet normal -0.258836 0.965921 0
    outer loop
      vertex -17.6381 1030.55 200
      vertex 224.144 1095.34 0
      vertex -17.6381 1030.55 0
    endloop
  endfacet
  facet normal 0.500041 -0.866001 0
    outer loop
      vertex 173.205 100 0
      vertex 179.315 103.528 200
      vertex 173.205 100 200
    endloop
  endfacet
  facet normal 0.500041 -0.866001 0
    outer loop
      vertex 179.315 103.528 200
      vertex 173.205 100 0
      vertex 179.315 103.528 0
    endloop
  endfacet
  facet normal -0.866024 -0.500002 0
    outer loop
      vertex 173.205 100 0
      vertex 146.41 146.41 200
      vertex 146.41 146.41 0
    endloop
  endfacet
  facet normal -0.866024 -0.500002 0
    outer loop
      vertex 146.41 146.41 200
      vertex 173.205 100 0
      vertex 173.205 100 200
    endloop
  endfacet
  facet normal 0.866037 0.499979 0
    outer loop
      vertex -17.6381 1030.55 200
      vertex -66.9873 1116.03 0
      vertex -66.9873 1116.03 200
    endloop
  endfacet
  facet normal 0.866037 0.499979 0
    outer loop
      vertex -66.9873 1116.03 0
      vertex -17.6381 1030.55 200
      vertex -17.6381 1030.55 0
    endloop
  endfacet
  facet normal -0.500013 0.866018 0
    outer loop
      vertex -66.9873 1116.03 0
      vertex -283.763 990.87 200
      vertex -66.9873 1116.03 200
    endloop
  endfacet
  facet normal -0.500013 0.866018 0
    outer loop
      vertex -283.763 990.87 200
      vertex -66.9873 1116.03 0
      vertex -283.763 990.87 0
    endloop
  endfacet
  facet normal 0.707107 -0.707107 0
    outer loop
      vertex 141.421 141.421 200
      vertex 146.41 146.41 0
      vertex 146.41 146.41 200
    endloop
  endfacet
  facet normal 0.707107 -0.707107 0
    outer loop
      vertex 146.41 146.41 0
      vertex 141.421 141.421 200
      vertex 141.421 141.421 0
    endloop
  endfacet
  facet normal -0.707107 -0.707106 0
    outer loop
      vertex 141.421 141.421 0
      vertex -565.685 848.528 200
      vertex -565.685 848.528 0
    endloop
  endfacet
  facet normal -0.707107 -0.707106 0
    outer loop
      vertex -565.685 848.528 200
      vertex 141.421 141.421 0
      vertex 141.421 141.421 200
    endloop
  endfacet
  facet normal 0.707107 0.707107 -0
    outer loop
      vertex -283.763 990.87 0
      vertex -353.553 1060.66 200
      vertex -283.763 990.87 200
    endloop
  endfacet
  facet normal 0.707107 0.707107 0
    outer loop
      vertex -353.553 1060.66 200
      vertex -283.763 990.87 0
      vertex -353.553 1060.66 0
    endloop
  endfacet
  facet normal -0.707107 0.707107 0
    outer loop
      vertex -565.685 848.528 0
      vertex -353.553 1060.66 200
      vertex -353.553 1060.66 0
    endloop
  endfacet
  facet normal -0.707107 0.707107 0
    outer loop
      vertex -353.553 1060.66 200
      vertex -565.685 848.528 0
      vertex -565.685 848.528 200
    endloop
  endfacet
endsolid OpenSCAD_Model
