solid OpenSCAD_Model
  facet normal 1 -0 0
    outer loop
      vertex 100 0 -27
      vertex 100 10 -30
      vertex 100 10 -27
    endloop
  endfacet
  facet normal 1 0 0
    outer loop
      vertex 100 10 -30
      vertex 100 0 -27
      vertex 100 0 -30
    endloop
  endfacet
  facet normal -0 0 1
    outer loop
      vertex 0 10 -27
      vertex 100 0 -27
      vertex 100 10 -27
    endloop
  endfacet
  facet normal 0 0 1
    outer loop
      vertex 100 0 -27
      vertex 0 10 -27
      vertex 0 0 -27
    endloop
  endfacet
  facet normal 0 0 -1
    outer loop
      vertex 0 0 -30
      vertex 100 10 -30
      vertex 100 0 -30
    endloop
  endfacet
  facet normal -0 0 -1
    outer loop
      vertex 100 10 -30
      vertex 0 0 -30
      vertex 0 10 -30
    endloop
  endfacet
  facet normal -1 0 0
    outer loop
      vertex 0 0 -30
      vertex 0 10 -27
      vertex 0 10 -30
    endloop
  endfacet
  facet normal -1 -0 0
    outer loop
      vertex 0 10 -27
      vertex 0 0 -30
      vertex 0 0 -27
    endloop
  endfacet
  facet normal 0 1 -0
    outer loop
      vertex 100 10 -30
      vertex 0 10 -27
      vertex 100 10 -27
    endloop
  endfacet
  facet normal 0 1 0
    outer loop
      vertex 0 10 -27
      vertex 100 10 -30
      vertex 0 10 -30
    endloop
  endfacet
  facet normal 0 -1 0
    outer loop
      vertex 0 0 -30
      vertex 100 0 -27
      vertex 0 0 -27
    endloop
  endfacet
  facet normal 0 -1 -0
    outer loop
      vertex 100 0 -27
      vertex 0 0 -30
      vertex 100 0 -30
    endloop
  endfacet
  facet normal 1 -0 0
    outer loop
      vertex 100 10 3
      vertex 100 20 0
      vertex 100 20 3
    endloop
  endfacet
  facet normal 1 0 0
    outer loop
      vertex 100 20 0
      vertex 100 10 3
      vertex 100 10 0
    endloop
  endfacet
  facet normal -0 0 1
    outer loop
      vertex 0 20 3
      vertex 59.781 19.8338 3
      vertex 60.0297 20 3
    endloop
  endfacet
  facet normal 0 0 1
    outer loop
      vertex 0 20 3
      vertex 57.3223 17.6777 3
      vertex 59.781 19.8338 3
    endloop
  endfacet
  facet normal 0 0 1
    outer loop
      vertex 0 20 3
      vertex 55.1662 15.219 3
      vertex 57.3223 17.6777 3
    endloop
  endfacet
  facet normal 0 0 1
    outer loop
      vertex 0 20 3
      vertex 53.3494 12.5 3
      vertex 55.1662 15.219 3
    endloop
  endfacet
  facet normal 0 0 1
    outer loop
      vertex 0 20 3
      vertex 52.1165 10 3
      vertex 53.3494 12.5 3
    endloop
  endfacet
  facet normal 0 0 1
    outer loop
      vertex 52.1165 10 3
      vertex 0 20 3
      vertex 0 10 3
    endloop
  endfacet
  facet normal -0 0 1
    outer loop
      vertex 96.6506 12.5 3
      vertex 100 10 3
      vertex 100 20 3
    endloop
  endfacet
  facet normal 0 0 1
    outer loop
      vertex 100 10 3
      vertex 96.6506 12.5 3
      vertex 97.8835 10 3
    endloop
  endfacet
  facet normal 0 0 1
    outer loop
      vertex 100 20 3
      vertex 94.8338 15.219 3
      vertex 96.6506 12.5 3
    endloop
  endfacet
  facet normal 0 0 1
    outer loop
      vertex 100 20 3
      vertex 92.6777 17.6777 3
      vertex 94.8338 15.219 3
    endloop
  endfacet
  facet normal 0 0 1
    outer loop
      vertex 100 20 3
      vertex 90.219 19.8338 3
      vertex 92.6777 17.6777 3
    endloop
  endfacet
  facet normal 0 -0 1
    outer loop
      vertex 90.219 19.8338 3
      vertex 100 20 3
      vertex 89.9704 20 3
    endloop
  endfacet
  facet normal 0 0 -1
    outer loop
      vertex 96.6506 12.5 0
      vertex 100 10 0
      vertex 97.8835 10 0
    endloop
  endfacet
  facet normal 0 0 -1
    outer loop
      vertex 100 10 0
      vertex 96.6506 12.5 0
      vertex 100 20 0
    endloop
  endfacet
  facet normal 0 0 -1
    outer loop
      vertex 94.8338 15.219 0
      vertex 100 20 0
      vertex 96.6506 12.5 0
    endloop
  endfacet
  facet normal 0 0 -1
    outer loop
      vertex 92.6777 17.6777 0
      vertex 100 20 0
      vertex 94.8338 15.219 0
    endloop
  endfacet
  facet normal 0 0 -1
    outer loop
      vertex 90.219 19.8338 0
      vertex 100 20 0
      vertex 92.6777 17.6777 0
    endloop
  endfacet
  facet normal -0 0 -1
    outer loop
      vertex 100 20 0
      vertex 90.219 19.8338 0
      vertex 89.9704 20 0
    endloop
  endfacet
  facet normal 0 0 -1
    outer loop
      vertex 59.781 19.8338 0
      vertex 60 20 0
      vertex 60.0297 20 0
    endloop
  endfacet
  facet normal 0 0 -1
    outer loop
      vertex 0 20 0
      vertex 52.1165 10 0
      vertex 0 10 0
    endloop
  endfacet
  facet normal 0 0 -1
    outer loop
      vertex 52.1165 10 0
      vertex 0 20 0
      vertex 53.3494 12.5 0
    endloop
  endfacet
  facet normal 0 0 -1
    outer loop
      vertex 53.3494 12.5 0
      vertex 0 20 0
      vertex 55.1662 15.219 0
    endloop
  endfacet
  facet normal 0 0 -1
    outer loop
      vertex 55.1662 15.219 0
      vertex 0 20 0
      vertex 57.3223 17.6777 0
    endloop
  endfacet
  facet normal 0 0 -1
    outer loop
      vertex 57.3223 17.6777 0
      vertex 0 20 0
      vertex 59.781 19.8338 0
    endloop
  endfacet
  facet normal 0 0 -1
    outer loop
      vertex 59.781 19.8338 0
      vertex 0 20 0
      vertex 60 20 0
    endloop
  endfacet
  facet normal -1 0 0
    outer loop
      vertex 0 10 0
      vertex 0 20 0.0999994
      vertex 0 20 0
    endloop
  endfacet
  facet normal -1 -0 0
    outer loop
      vertex 0 20 0.0999994
      vertex 0 10 0
      vertex 0 20 3
    endloop
  endfacet
  facet normal -1 -0 0
    outer loop
      vertex 0 20 3
      vertex 0 10 0
      vertex 0 10 3
    endloop
  endfacet
  facet normal 0 1 0
    outer loop
      vertex 60.0297 20 3
      vertex 60 20 0.0999994
      vertex 0 20 3
    endloop
  endfacet
  facet normal 0 1 -0
    outer loop
      vertex 60.0297 20 0
      vertex 60 20 0.0999994
      vertex 60.0297 20 3
    endloop
  endfacet
  facet normal 0 1 0
    outer loop
      vertex 60 20 0.0999994
      vertex 60.0297 20 0
      vertex 60 20 0
    endloop
  endfacet
  facet normal 0 1 0
    outer loop
      vertex 0 20 3
      vertex 60 20 0.0999994
      vertex 0 20 0.0999994
    endloop
  endfacet
  facet normal 0 1 -0
    outer loop
      vertex 100 20 0
      vertex 89.9704 20 3
      vertex 100 20 3
    endloop
  endfacet
  facet normal 0 1 0
    outer loop
      vertex 89.9704 20 3
      vertex 100 20 0
      vertex 89.9704 20 0
    endloop
  endfacet
  facet normal 0 1 -0
    outer loop
      vertex 60 20 0
      vertex 0 20 0.0999994
      vertex 60 20 0.0999994
    endloop
  endfacet
  facet normal 0 1 0
    outer loop
      vertex 0 20 0.0999994
      vertex 60 20 0
      vertex 0 20 0
    endloop
  endfacet
  facet normal 0 -1 0
    outer loop
      vertex 0 10 0
      vertex 52.1165 10 3
      vertex 0 10 3
    endloop
  endfacet
  facet normal 0 -1 -0
    outer loop
      vertex 52.1165 10 3
      vertex 0 10 0
      vertex 52.1165 10 0
    endloop
  endfacet
  facet normal 0 -1 0
    outer loop
      vertex 97.8835 10 0
      vertex 100 10 3
      vertex 97.8835 10 3
    endloop
  endfacet
  facet normal 0 -1 -0
    outer loop
      vertex 100 10 3
      vertex 97.8835 10 0
      vertex 100 10 0
    endloop
  endfacet
  facet normal 0 0 1
    outer loop
      vertex 190 5 3
      vertex 100 0 3
      vertex 190 0 3
    endloop
  endfacet
  facet normal 0 0 1
    outer loop
      vertex 190 5 3
      vertex 99.7861 3.26315 3
      vertex 100 0 3
    endloop
  endfacet
  facet normal 0 -0 1
    outer loop
      vertex 99.7861 3.26315 3
      vertex 190 5 3
      vertex 99.4406 5 3
    endloop
  endfacet
  facet normal 0 0 -1
    outer loop
      vertex 100 0 0
      vertex 190 5 0
      vertex 190 0 0
    endloop
  endfacet
  facet normal 0 0 -1
    outer loop
      vertex 99.7861 3.26315 0
      vertex 190 5 0
      vertex 100 0 0
    endloop
  endfacet
  facet normal -0 0 -1
    outer loop
      vertex 190 5 0
      vertex 99.7861 3.26315 0
      vertex 99.4406 5 0
    endloop
  endfacet
  facet normal 0 1 -0
    outer loop
      vertex 190 5 0
      vertex 99.4406 5 3
      vertex 190 5 3
    endloop
  endfacet
  facet normal 0 1 0
    outer loop
      vertex 99.4406 5 3
      vertex 190 5 0
      vertex 99.4406 5 0
    endloop
  endfacet
  facet normal 0 -1 0
    outer loop
      vertex 100 0 0
      vertex 190 0 3
      vertex 100 0 3
    endloop
  endfacet
  facet normal 0 -1 -0
    outer loop
      vertex 190 0 3
      vertex 100 0 0
      vertex 190 0 0
    endloop
  endfacet
  facet normal 1 -0 0
    outer loop
      vertex 190 0 3
      vertex 190 5 0
      vertex 190 5 3
    endloop
  endfacet
  facet normal 1 0 0
    outer loop
      vertex 190 5 0
      vertex 190 0 3
      vertex 190 0 0
    endloop
  endfacet
  facet normal -0.997858 -0.0654098 0
    outer loop
      vertex 100 0 0
      vertex 99.7861 3.26315 3
      vertex 99.7861 3.26315 0
    endloop
  endfacet
  facet normal -0.997858 -0.0654098 0
    outer loop
      vertex 99.7861 3.26315 3
      vertex 100 0 0
      vertex 100 0 3
    endloop
  endfacet
  facet normal 0.896868 -0.442299 0
    outer loop
      vertex 52.1165 10 3
      vertex 53.3494 12.5 0
      vertex 53.3494 12.5 3
    endloop
  endfacet
  facet normal 0.896868 -0.442299 0
    outer loop
      vertex 53.3494 12.5 0
      vertex 52.1165 10 3
      vertex 52.1165 10 0
    endloop
  endfacet
  facet normal -0.55578 -0.831329 0
    outer loop
      vertex 89.9704 20 0
      vertex 90.219 19.8338 3
      vertex 89.9704 20 3
    endloop
  endfacet
  facet normal -0.55578 -0.831329 -0
    outer loop
      vertex 90.219 19.8338 3
      vertex 89.9704 20 0
      vertex 90.219 19.8338 0
    endloop
  endfacet
  facet normal -0.659325 -0.751858 0
    outer loop
      vertex 90.219 19.8338 0
      vertex 92.6777 17.6777 3
      vertex 90.219 19.8338 3
    endloop
  endfacet
  facet normal -0.659325 -0.751858 -0
    outer loop
      vertex 92.6777 17.6777 3
      vertex 90.219 19.8338 0
      vertex 92.6777 17.6777 0
    endloop
  endfacet
  facet normal 0.751858 -0.659325 0
    outer loop
      vertex 55.1662 15.219 3
      vertex 57.3223 17.6777 0
      vertex 57.3223 17.6777 3
    endloop
  endfacet
  facet normal 0.751858 -0.659325 0
    outer loop
      vertex 57.3223 17.6777 0
      vertex 55.1662 15.219 3
      vertex 55.1662 15.219 0
    endloop
  endfacet
  facet normal -0.751858 -0.659325 0
    outer loop
      vertex 94.8338 15.219 0
      vertex 92.6777 17.6777 3
      vertex 92.6777 17.6777 0
    endloop
  endfacet
  facet normal -0.751858 -0.659325 0
    outer loop
      vertex 92.6777 17.6777 3
      vertex 94.8338 15.219 0
      vertex 94.8338 15.219 3
    endloop
  endfacet
  facet normal -0.896868 -0.442299 0
    outer loop
      vertex 97.8835 10 0
      vertex 96.6506 12.5 3
      vertex 96.6506 12.5 0
    endloop
  endfacet
  facet normal -0.896868 -0.442299 0
    outer loop
      vertex 96.6506 12.5 3
      vertex 97.8835 10 0
      vertex 97.8835 10 3
    endloop
  endfacet
  facet normal -0.831466 -0.555575 0
    outer loop
      vertex 96.6506 12.5 0
      vertex 94.8338 15.219 3
      vertex 94.8338 15.219 0
    endloop
  endfacet
  facet normal -0.831466 -0.555575 0
    outer loop
      vertex 94.8338 15.219 3
      vertex 96.6506 12.5 0
      vertex 96.6506 12.5 3
    endloop
  endfacet
  facet normal 0.659325 -0.751858 0
    outer loop
      vertex 57.3223 17.6777 0
      vertex 59.781 19.8338 3
      vertex 57.3223 17.6777 3
    endloop
  endfacet
  facet normal 0.659325 -0.751858 0
    outer loop
      vertex 59.781 19.8338 3
      vertex 57.3223 17.6777 0
      vertex 59.781 19.8338 0
    endloop
  endfacet
  facet normal -0.980783 -0.195101 0
    outer loop
      vertex 99.7861 3.26315 0
      vertex 99.4406 5 3
      vertex 99.4406 5 0
    endloop
  endfacet
  facet normal -0.980783 -0.195101 0
    outer loop
      vertex 99.4406 5 3
      vertex 99.7861 3.26315 0
      vertex 99.7861 3.26315 3
    endloop
  endfacet
  facet normal 0.831466 -0.555575 0
    outer loop
      vertex 53.3494 12.5 3
      vertex 55.1662 15.219 0
      vertex 55.1662 15.219 3
    endloop
  endfacet
  facet normal 0.831466 -0.555575 0
    outer loop
      vertex 55.1662 15.219 0
      vertex 53.3494 12.5 3
      vertex 53.3494 12.5 0
    endloop
  endfacet
  facet normal 0.555626 -0.831433 0
    outer loop
      vertex 59.781 19.8338 0
      vertex 60.0297 20 3
      vertex 59.781 19.8338 3
    endloop
  endfacet
  facet normal 0.555626 -0.831433 0
    outer loop
      vertex 60.0297 20 3
      vertex 59.781 19.8338 0
      vertex 60.0297 20 0
    endloop
  endfacet
endsolid OpenSCAD_Model
