solid OpenSCAD_Model
  facet normal -0 0 1
    outer loop
      vertex 0 100 100
      vertex 180 0 100
      vertex 180 100 100
    endloop
  endfacet
  facet normal 0 0 1
    outer loop
      vertex 180 0 100
      vertex 0 100 100
      vertex 0 0 100
    endloop
  endfacet
  facet normal 0 0 -1
    outer loop
      vertex 0 0 0
      vertex 180 100 0
      vertex 180 0 0
    endloop
  endfacet
  facet normal -0 0 -1
    outer loop
      vertex 180 100 0
      vertex 0 0 0
      vertex 0 100 0
    endloop
  endfacet
  facet normal -1 0 0
    outer loop
      vertex 0 0 0
      vertex 0 100 100
      vertex 0 100 0
    endloop
  endfacet
  facet normal -1 -0 0
    outer loop
      vertex 0 100 100
      vertex 0 0 0
      vertex 0 0 100
    endloop
  endfacet
  facet normal 0 1 -0
    outer loop
      vertex 180 100 0
      vertex 0 100 100
      vertex 180 100 100
    endloop
  endfacet
  facet normal 0 1 0
    outer loop
      vertex 0 100 100
      vertex 180 100 0
      vertex 0 100 0
    endloop
  endfacet
  facet normal 0 -1 0
    outer loop
      vertex 0 0 0
      vertex 180 0 100
      vertex 0 0 100
    endloop
  endfacet
  facet normal 0 -1 -0
    outer loop
      vertex 180 0 100
      vertex 0 0 0
      vertex 180 0 0
    endloop
  endfacet
  facet normal 1 -0 0
    outer loop
      vertex 180 0 100
      vertex 180 100 0
      vertex 180 100 100
    endloop
  endfacet
  facet normal 1 0 0
    outer loop
      vertex 180 100 0
      vertex 180 0 100
      vertex 180 0 0
    endloop
  endfacet
endsolid OpenSCAD_Model
