solid OpenSCAD_Model
  facet normal 0.998027 0.0627883 0
    outer loop
      vertex 2 0 10
      vertex 1.98423 0.250666 0
      vertex 1.98423 0.250666 10
    endloop
  endfacet
  facet normal 0.998027 0.0627883 0
    outer loop
      vertex 1.98423 0.250666 0
      vertex 2 0 10
      vertex 2 0 0
    endloop
  endfacet
  facet normal 0.98229 0.187369 0
    outer loop
      vertex 1.98423 0.250666 10
      vertex 1.93717 0.49738 0
      vertex 1.93717 0.49738 10
    endloop
  endfacet
  facet normal 0.98229 0.187369 0
    outer loop
      vertex 1.93717 0.49738 0
      vertex 1.98423 0.250666 10
      vertex 1.98423 0.250666 0
    endloop
  endfacet
  facet normal 0.951049 0.309041 0
    outer loop
      vertex 1.93717 0.49738 10
      vertex 1.85955 0.736249 0
      vertex 1.85955 0.736249 10
    endloop
  endfacet
  facet normal 0.951049 0.309041 0
    outer loop
      vertex 1.85955 0.736249 0
      vertex 1.93717 0.49738 10
      vertex 1.93717 0.49738 0
    endloop
  endfacet
  facet normal 0.904826 0.425781 0
    outer loop
      vertex 1.85955 0.736249 10
      vertex 1.75261 0.963507 0
      vertex 1.75261 0.963507 10
    endloop
  endfacet
  facet normal 0.904826 0.425781 0
    outer loop
      vertex 1.75261 0.963507 0
      vertex 1.85955 0.736249 10
      vertex 1.85955 0.736249 0
    endloop
  endfacet
  facet normal 0.844327 0.535829 0
    outer loop
      vertex 1.75261 0.963507 10
      vertex 1.61803 1.17557 0
      vertex 1.61803 1.17557 10
    endloop
  endfacet
  facet normal 0.844327 0.535829 0
    outer loop
      vertex 1.61803 1.17557 0
      vertex 1.75261 0.963507 10
      vertex 1.75261 0.963507 0
    endloop
  endfacet
  facet normal 0.77052 0.637415 0
    outer loop
      vertex 1.61803 1.17557 10
      vertex 1.45794 1.36909 0
      vertex 1.45794 1.36909 10
    endloop
  endfacet
  facet normal 0.77052 0.637415 0
    outer loop
      vertex 1.45794 1.36909 0
      vertex 1.61803 1.17557 10
      vertex 1.61803 1.17557 0
    endloop
  endfacet
  facet normal 0.684562 0.728955 -0
    outer loop
      vertex 1.45794 1.36909 0
      vertex 1.27485 1.54103 10
      vertex 1.45794 1.36909 10
    endloop
  endfacet
  facet normal 0.684562 0.728955 0
    outer loop
      vertex 1.27485 1.54103 10
      vertex 1.45794 1.36909 0
      vertex 1.27485 1.54103 0
    endloop
  endfacet
  facet normal 0.587776 0.809024 -0
    outer loop
      vertex 1.27485 1.54103 0
      vertex 1.07165 1.68866 10
      vertex 1.27485 1.54103 10
    endloop
  endfacet
  facet normal 0.587776 0.809024 0
    outer loop
      vertex 1.07165 1.68866 10
      vertex 1.27485 1.54103 0
      vertex 1.07165 1.68866 0
    endloop
  endfacet
  facet normal 0.481735 0.876317 -0
    outer loop
      vertex 1.07165 1.68866 0
      vertex 0.851559 1.80965 10
      vertex 1.07165 1.68866 10
    endloop
  endfacet
  facet normal 0.481735 0.876317 0
    outer loop
      vertex 0.851559 1.80965 10
      vertex 1.07165 1.68866 0
      vertex 0.851559 1.80965 0
    endloop
  endfacet
  facet normal 0.368128 0.929775 -0
    outer loop
      vertex 0.851559 1.80965 0
      vertex 0.618034 1.90211 10
      vertex 0.851559 1.80965 10
    endloop
  endfacet
  facet normal 0.368128 0.929775 0
    outer loop
      vertex 0.618034 1.90211 10
      vertex 0.851559 1.80965 0
      vertex 0.618034 1.90211 0
    endloop
  endfacet
  facet normal 0.248685 0.968584 -0
    outer loop
      vertex 0.618034 1.90211 0
      vertex 0.374763 1.96457 10
      vertex 0.618034 1.90211 10
    endloop
  endfacet
  facet normal 0.248685 0.968584 0
    outer loop
      vertex 0.374763 1.96457 10
      vertex 0.618034 1.90211 0
      vertex 0.374763 1.96457 0
    endloop
  endfacet
  facet normal 0.125337 0.992114 -0
    outer loop
      vertex 0.374763 1.96457 0
      vertex 0.125581 1.99605 10
      vertex 0.374763 1.96457 10
    endloop
  endfacet
  facet normal 0.125337 0.992114 0
    outer loop
      vertex 0.125581 1.99605 10
      vertex 0.374763 1.96457 0
      vertex 0.125581 1.99605 0
    endloop
  endfacet
  facet normal 0 1 -0
    outer loop
      vertex 0.125581 1.99605 0
      vertex -0.125581 1.99605 10
      vertex 0.125581 1.99605 10
    endloop
  endfacet
  facet normal 0 1 0
    outer loop
      vertex -0.125581 1.99605 10
      vertex 0.125581 1.99605 0
      vertex -0.125581 1.99605 0
    endloop
  endfacet
  facet normal -0.125337 0.992114 0
    outer loop
      vertex -0.125581 1.99605 0
      vertex -0.374763 1.96457 10
      vertex -0.125581 1.99605 10
    endloop
  endfacet
  facet normal -0.125337 0.992114 0
    outer loop
      vertex -0.374763 1.96457 10
      vertex -0.125581 1.99605 0
      vertex -0.374763 1.96457 0
    endloop
  endfacet
  facet normal -0.248685 0.968584 0
    outer loop
      vertex -0.374763 1.96457 0
      vertex -0.618034 1.90211 10
      vertex -0.374763 1.96457 10
    endloop
  endfacet
  facet normal -0.248685 0.968584 0
    outer loop
      vertex -0.618034 1.90211 10
      vertex -0.374763 1.96457 0
      vertex -0.618034 1.90211 0
    endloop
  endfacet
  facet normal -0.368128 0.929775 0
    outer loop
      vertex -0.618034 1.90211 0
      vertex -0.851559 1.80965 10
      vertex -0.618034 1.90211 10
    endloop
  endfacet
  facet normal -0.368128 0.929775 0
    outer loop
      vertex -0.851559 1.80965 10
      vertex -0.618034 1.90211 0
      vertex -0.851559 1.80965 0
    endloop
  endfacet
  facet normal -0.481735 0.876317 0
    outer loop
      vertex -0.851559 1.80965 0
      vertex -1.07165 1.68866 10
      vertex -0.851559 1.80965 10
    endloop
  endfacet
  facet normal -0.481735 0.876317 0
    outer loop
      vertex -1.07165 1.68866 10
      vertex -0.851559 1.80965 0
      vertex -1.07165 1.68866 0
    endloop
  endfacet
  facet normal -0.587776 0.809024 0
    outer loop
      vertex -1.07165 1.68866 0
      vertex -1.27485 1.54103 10
      vertex -1.07165 1.68866 10
    endloop
  endfacet
  facet normal -0.587776 0.809024 0
    outer loop
      vertex -1.27485 1.54103 10
      vertex -1.07165 1.68866 0
      vertex -1.27485 1.54103 0
    endloop
  endfacet
  facet normal -0.684562 0.728955 0
    outer loop
      vertex -1.27485 1.54103 0
      vertex -1.45794 1.36909 10
      vertex -1.27485 1.54103 10
    endloop
  endfacet
  facet normal -0.684562 0.728955 0
    outer loop
      vertex -1.45794 1.36909 10
      vertex -1.27485 1.54103 0
      vertex -1.45794 1.36909 0
    endloop
  endfacet
  facet normal -0.77052 0.637415 0
    outer loop
      vertex -1.61803 1.17557 0
      vertex -1.45794 1.36909 10
      vertex -1.45794 1.36909 0
    endloop
  endfacet
  facet normal -0.77052 0.637415 0
    outer loop
      vertex -1.45794 1.36909 10
      vertex -1.61803 1.17557 0
      vertex -1.61803 1.17557 10
    endloop
  endfacet
  facet normal -0.844327 0.535829 0
    outer loop
      vertex -1.75261 0.963507 0
      vertex -1.61803 1.17557 10
      vertex -1.61803 1.17557 0
    endloop
  endfacet
  facet normal -0.844327 0.535829 0
    outer loop
      vertex -1.61803 1.17557 10
      vertex -1.75261 0.963507 0
      vertex -1.75261 0.963507 10
    endloop
  endfacet
  facet normal -0.904826 0.425781 0
    outer loop
      vertex -1.85955 0.736249 0
      vertex -1.75261 0.963507 10
      vertex -1.75261 0.963507 0
    endloop
  endfacet
  facet normal -0.904826 0.425781 0
    outer loop
      vertex -1.75261 0.963507 10
      vertex -1.85955 0.736249 0
      vertex -1.85955 0.736249 10
    endloop
  endfacet
  facet normal -0.951049 0.309041 0
    outer loop
      vertex -1.93717 0.49738 0
      vertex -1.85955 0.736249 10
      vertex -1.85955 0.736249 0
    endloop
  endfacet
  facet normal -0.951049 0.309041 0
    outer loop
      vertex -1.85955 0.736249 10
      vertex -1.93717 0.49738 0
      vertex -1.93717 0.49738 10
    endloop
  endfacet
  facet normal -0.98229 0.187369 0
    outer loop
      vertex -1.98423 0.250666 0
      vertex -1.93717 0.49738 10
      vertex -1.93717 0.49738 0
    endloop
  endfacet
  facet normal -0.98229 0.187369 0
    outer loop
      vertex -1.93717 0.49738 10
      vertex -1.98423 0.250666 0
      vertex -1.98423 0.250666 10
    endloop
  endfacet
  facet normal -0.998027 0.0627883 0
    outer loop
      vertex -2 -0 0
      vertex -1.98423 0.250666 10
      vertex -1.98423 0.250666 0
    endloop
  endfacet
  facet normal -0.998027 0.0627883 0
    outer loop
      vertex -1.98423 0.250666 10
      vertex -2 -0 0
      vertex -2 -0 10
    endloop
  endfacet
  facet normal -0.998027 -0.0627883 0
    outer loop
      vertex -1.98423 -0.250666 0
      vertex -2 -0 10
      vertex -2 -0 0
    endloop
  endfacet
  facet normal -0.998027 -0.0627883 0
    outer loop
      vertex -2 -0 10
      vertex -1.98423 -0.250666 0
      vertex -1.98423 -0.250666 10
    endloop
  endfacet
  facet normal -0.98229 -0.187369 0
    outer loop
      vertex -1.93717 -0.49738 0
      vertex -1.98423 -0.250666 10
      vertex -1.98423 -0.250666 0
    endloop
  endfacet
  facet normal -0.98229 -0.187369 0
    outer loop
      vertex -1.98423 -0.250666 10
      vertex -1.93717 -0.49738 0
      vertex -1.93717 -0.49738 10
    endloop
  endfacet
  facet normal -0.951049 -0.309041 0
    outer loop
      vertex -1.85955 -0.736249 0
      vertex -1.93717 -0.49738 10
      vertex -1.93717 -0.49738 0
    endloop
  endfacet
  facet normal -0.951049 -0.309041 0
    outer loop
      vertex -1.93717 -0.49738 10
      vertex -1.85955 -0.736249 0
      vertex -1.85955 -0.736249 10
    endloop
  endfacet
  facet normal -0.904826 -0.425781 0
    outer loop
      vertex -1.75261 -0.963507 0
      vertex -1.85955 -0.736249 10
      vertex -1.85955 -0.736249 0
    endloop
  endfacet
  facet normal -0.904826 -0.425781 0
    outer loop
      vertex -1.85955 -0.736249 10
      vertex -1.75261 -0.963507 0
      vertex -1.75261 -0.963507 10
    endloop
  endfacet
  facet normal -0.844327 -0.535829 0
    outer loop
      vertex -1.61803 -1.17557 0
      vertex -1.75261 -0.963507 10
      vertex -1.75261 -0.963507 0
    endloop
  endfacet
  facet normal -0.844327 -0.535829 0
    outer loop
      vertex -1.75261 -0.963507 10
      vertex -1.61803 -1.17557 0
      vertex -1.61803 -1.17557 10
    endloop
  endfacet
  facet normal -0.77052 -0.637415 0
    outer loop
      vertex -1.45794 -1.36909 0
      vertex -1.61803 -1.17557 10
      vertex -1.61803 -1.17557 0
    endloop
  endfacet
  facet normal -0.77052 -0.637415 0
    outer loop
      vertex -1.61803 -1.17557 10
      vertex -1.45794 -1.36909 0
      vertex -1.45794 -1.36909 10
    endloop
  endfacet
  facet normal -0.684562 -0.728955 0
    outer loop
      vertex -1.45794 -1.36909 0
      vertex -1.27485 -1.54103 10
      vertex -1.45794 -1.36909 10
    endloop
  endfacet
  facet normal -0.684562 -0.728955 -0
    outer loop
      vertex -1.27485 -1.54103 10
      vertex -1.45794 -1.36909 0
      vertex -1.27485 -1.54103 0
    endloop
  endfacet
  facet normal -0.587776 -0.809024 0
    outer loop
      vertex -1.27485 -1.54103 0
      vertex -1.07165 -1.68866 10
      vertex -1.27485 -1.54103 10
    endloop
  endfacet
  facet normal -0.587776 -0.809024 -0
    outer loop
      vertex -1.07165 -1.68866 10
      vertex -1.27485 -1.54103 0
      vertex -1.07165 -1.68866 0
    endloop
  endfacet
  facet normal -0.481735 -0.876317 0
    outer loop
      vertex -1.07165 -1.68866 0
      vertex -0.851559 -1.80965 10
      vertex -1.07165 -1.68866 10
    endloop
  endfacet
  facet normal -0.481735 -0.876317 -0
    outer loop
      vertex -0.851559 -1.80965 10
      vertex -1.07165 -1.68866 0
      vertex -0.851559 -1.80965 0
    endloop
  endfacet
  facet normal -0.368128 -0.929775 0
    outer loop
      vertex -0.851559 -1.80965 0
      vertex -0.618034 -1.90211 10
      vertex -0.851559 -1.80965 10
    endloop
  endfacet
  facet normal -0.368128 -0.929775 -0
    outer loop
      vertex -0.618034 -1.90211 10
      vertex -0.851559 -1.80965 0
      vertex -0.618034 -1.90211 0
    endloop
  endfacet
  facet normal -0.248685 -0.968584 0
    outer loop
      vertex -0.618034 -1.90211 0
      vertex -0.374763 -1.96457 10
      vertex -0.618034 -1.90211 10
    endloop
  endfacet
  facet normal -0.248685 -0.968584 -0
    outer loop
      vertex -0.374763 -1.96457 10
      vertex -0.618034 -1.90211 0
      vertex -0.374763 -1.96457 0
    endloop
  endfacet
  facet normal -0.125337 -0.992114 0
    outer loop
      vertex -0.374763 -1.96457 0
      vertex -0.125581 -1.99605 10
      vertex -0.374763 -1.96457 10
    endloop
  endfacet
  facet normal -0.125337 -0.992114 -0
    outer loop
      vertex -0.125581 -1.99605 10
      vertex -0.374763 -1.96457 0
      vertex -0.125581 -1.99605 0
    endloop
  endfacet
  facet normal 0 -1 0
    outer loop
      vertex -0.125581 -1.99605 0
      vertex 0.125581 -1.99605 10
      vertex -0.125581 -1.99605 10
    endloop
  endfacet
  facet normal 0 -1 -0
    outer loop
      vertex 0.125581 -1.99605 10
      vertex -0.125581 -1.99605 0
      vertex 0.125581 -1.99605 0
    endloop
  endfacet
  facet normal 0.125337 -0.992114 0
    outer loop
      vertex 0.125581 -1.99605 0
      vertex 0.374763 -1.96457 10
      vertex 0.125581 -1.99605 10
    endloop
  endfacet
  facet normal 0.125337 -0.992114 0
    outer loop
      vertex 0.374763 -1.96457 10
      vertex 0.125581 -1.99605 0
      vertex 0.374763 -1.96457 0
    endloop
  endfacet
  facet normal 0.248685 -0.968584 0
    outer loop
      vertex 0.374763 -1.96457 0
      vertex 0.618034 -1.90211 10
      vertex 0.374763 -1.96457 10
    endloop
  endfacet
  facet normal 0.248685 -0.968584 0
    outer loop
      vertex 0.618034 -1.90211 10
      vertex 0.374763 -1.96457 0
      vertex 0.618034 -1.90211 0
    endloop
  endfacet
  facet normal 0.368128 -0.929775 0
    outer loop
      vertex 0.618034 -1.90211 0
      vertex 0.851559 -1.80965 10
      vertex 0.618034 -1.90211 10
    endloop
  endfacet
  facet normal 0.368128 -0.929775 0
    outer loop
      vertex 0.851559 -1.80965 10
      vertex 0.618034 -1.90211 0
      vertex 0.851559 -1.80965 0
    endloop
  endfacet
  facet normal 0.481735 -0.876317 0
    outer loop
      vertex 0.851559 -1.80965 0
      vertex 1.07165 -1.68866 10
      vertex 0.851559 -1.80965 10
    endloop
  endfacet
  facet normal 0.481735 -0.876317 0
    outer loop
      vertex 1.07165 -1.68866 10
      vertex 0.851559 -1.80965 0
      vertex 1.07165 -1.68866 0
    endloop
  endfacet
  facet normal 0.587776 -0.809024 0
    outer loop
      vertex 1.07165 -1.68866 0
      vertex 1.27485 -1.54103 10
      vertex 1.07165 -1.68866 10
    endloop
  endfacet
  facet normal 0.587776 -0.809024 0
    outer loop
      vertex 1.27485 -1.54103 10
      vertex 1.07165 -1.68866 0
      vertex 1.27485 -1.54103 0
    endloop
  endfacet
  facet normal 0.684562 -0.728955 0
    outer loop
      vertex 1.27485 -1.54103 0
      vertex 1.45794 -1.36909 10
      vertex 1.27485 -1.54103 10
    endloop
  endfacet
  facet normal 0.684562 -0.728955 0
    outer loop
      vertex 1.45794 -1.36909 10
      vertex 1.27485 -1.54103 0
      vertex 1.45794 -1.36909 0
    endloop
  endfacet
  facet normal 0.77052 -0.637415 0
    outer loop
      vertex 1.45794 -1.36909 10
      vertex 1.61803 -1.17557 0
      vertex 1.61803 -1.17557 10
    endloop
  endfacet
  facet normal 0.77052 -0.637415 0
    outer loop
      vertex 1.61803 -1.17557 0
      vertex 1.45794 -1.36909 10
      vertex 1.45794 -1.36909 0
    endloop
  endfacet
  facet normal 0.844327 -0.535829 0
    outer loop
      vertex 1.61803 -1.17557 10
      vertex 1.75261 -0.963507 0
      vertex 1.75261 -0.963507 10
    endloop
  endfacet
  facet normal 0.844327 -0.535829 0
    outer loop
      vertex 1.75261 -0.963507 0
      vertex 1.61803 -1.17557 10
      vertex 1.61803 -1.17557 0
    endloop
  endfacet
  facet normal 0.904826 -0.425781 0
    outer loop
      vertex 1.75261 -0.963507 10
      vertex 1.85955 -0.736249 0
      vertex 1.85955 -0.736249 10
    endloop
  endfacet
  facet normal 0.904826 -0.425781 0
    outer loop
      vertex 1.85955 -0.736249 0
      vertex 1.75261 -0.963507 10
      vertex 1.75261 -0.963507 0
    endloop
  endfacet
  facet normal 0.951049 -0.309041 0
    outer loop
      vertex 1.85955 -0.736249 10
      vertex 1.93717 -0.49738 0
      vertex 1.93717 -0.49738 10
    endloop
  endfacet
  facet normal 0.951049 -0.309041 0
    outer loop
      vertex 1.93717 -0.49738 0
      vertex 1.85955 -0.736249 10
      vertex 1.85955 -0.736249 0
    endloop
  endfacet
  facet normal 0.98229 -0.187369 0
    outer loop
      vertex 1.93717 -0.49738 10
      vertex 1.98423 -0.250666 0
      vertex 1.98423 -0.250666 10
    endloop
  endfacet
  facet normal 0.98229 -0.187369 0
    outer loop
      vertex 1.98423 -0.250666 0
      vertex 1.93717 -0.49738 10
      vertex 1.93717 -0.49738 0
    endloop
  endfacet
  facet normal 0.998027 -0.0627883 0
    outer loop
      vertex 1.98423 -0.250666 10
      vertex 2 0 0
      vertex 2 0 10
    endloop
  endfacet
  facet normal 0.998027 -0.0627883 0
    outer loop
      vertex 2 0 0
      vertex 1.98423 -0.250666 10
      vertex 1.98423 -0.250666 0
    endloop
  endfacet
  facet normal 0 0 -1
    outer loop
      vertex 1.98423 -0.250666 0
      vertex 1.98423 0.250666 0
      vertex 2 0 0
    endloop
  endfacet
  facet normal 0 0 -1
    outer loop
      vertex 1.93717 -0.49738 0
      vertex 1.98423 0.250666 0
      vertex 1.98423 -0.250666 0
    endloop
  endfacet
  facet normal 0 0 -1
    outer loop
      vertex 1.93717 -0.49738 0
      vertex 1.93717 0.49738 0
      vertex 1.98423 0.250666 0
    endloop
  endfacet
  facet normal 0 0 -1
    outer loop
      vertex 1.85955 -0.736249 0
      vertex 1.93717 0.49738 0
      vertex 1.93717 -0.49738 0
    endloop
  endfacet
  facet normal 0 0 -1
    outer loop
      vertex 1.85955 -0.736249 0
      vertex 1.85955 0.736249 0
      vertex 1.93717 0.49738 0
    endloop
  endfacet
  facet normal 0 0 -1
    outer loop
      vertex 1.75261 -0.963507 0
      vertex 1.85955 0.736249 0
      vertex 1.85955 -0.736249 0
    endloop
  endfacet
  facet normal 0 0 -1
    outer loop
      vertex 1.75261 -0.963507 0
      vertex 1.75261 0.963507 0
      vertex 1.85955 0.736249 0
    endloop
  endfacet
  facet normal 0 0 -1
    outer loop
      vertex 1.61803 -1.17557 0
      vertex 1.75261 0.963507 0
      vertex 1.75261 -0.963507 0
    endloop
  endfacet
  facet normal 0 0 -1
    outer loop
      vertex 1.61803 -1.17557 0
      vertex 1.61803 1.17557 0
      vertex 1.75261 0.963507 0
    endloop
  endfacet
  facet normal 0 0 -1
    outer loop
      vertex 1.45794 -1.36909 0
      vertex 1.61803 1.17557 0
      vertex 1.61803 -1.17557 0
    endloop
  endfacet
  facet normal 0 0 -1
    outer loop
      vertex 1.45794 -1.36909 0
      vertex 1.45794 1.36909 0
      vertex 1.61803 1.17557 0
    endloop
  endfacet
  facet normal 0 0 -1
    outer loop
      vertex 1.27485 -1.54103 0
      vertex 1.45794 1.36909 0
      vertex 1.45794 -1.36909 0
    endloop
  endfacet
  facet normal 0 0 -1
    outer loop
      vertex 1.27485 -1.54103 0
      vertex 1.27485 1.54103 0
      vertex 1.45794 1.36909 0
    endloop
  endfacet
  facet normal 0 0 -1
    outer loop
      vertex 1.07165 -1.68866 0
      vertex 1.27485 1.54103 0
      vertex 1.27485 -1.54103 0
    endloop
  endfacet
  facet normal 0 0 -1
    outer loop
      vertex 1.07165 -1.68866 0
      vertex 1.07165 1.68866 0
      vertex 1.27485 1.54103 0
    endloop
  endfacet
  facet normal 0 0 -1
    outer loop
      vertex 0.851559 -1.80965 0
      vertex 1.07165 1.68866 0
      vertex 1.07165 -1.68866 0
    endloop
  endfacet
  facet normal 0 0 -1
    outer loop
      vertex 0.851559 -1.80965 0
      vertex 0.851559 1.80965 0
      vertex 1.07165 1.68866 0
    endloop
  endfacet
  facet normal 0 0 -1
    outer loop
      vertex 0.618034 -1.90211 0
      vertex 0.851559 1.80965 0
      vertex 0.851559 -1.80965 0
    endloop
  endfacet
  facet normal 0 0 -1
    outer loop
      vertex 0.618034 -1.90211 0
      vertex 0.618034 1.90211 0
      vertex 0.851559 1.80965 0
    endloop
  endfacet
  facet normal 0 0 -1
    outer loop
      vertex 0.374763 -1.96457 0
      vertex 0.618034 1.90211 0
      vertex 0.618034 -1.90211 0
    endloop
  endfacet
  facet normal 0 0 -1
    outer loop
      vertex 0.374763 -1.96457 0
      vertex 0.374763 1.96457 0
      vertex 0.618034 1.90211 0
    endloop
  endfacet
  facet normal 0 0 -1
    outer loop
      vertex 0.125581 -1.99605 0
      vertex 0.374763 1.96457 0
      vertex 0.374763 -1.96457 0
    endloop
  endfacet
  facet normal 0 0 -1
    outer loop
      vertex 0.125581 -1.99605 0
      vertex 0.125581 1.99605 0
      vertex 0.374763 1.96457 0
    endloop
  endfacet
  facet normal 0 0 -1
    outer loop
      vertex -0.125581 -1.99605 0
      vertex 0.125581 1.99605 0
      vertex 0.125581 -1.99605 0
    endloop
  endfacet
  facet normal 0 0 -1
    outer loop
      vertex -0.125581 -1.99605 0
      vertex -0.125581 1.99605 0
      vertex 0.125581 1.99605 0
    endloop
  endfacet
  facet normal 0 0 -1
    outer loop
      vertex -0.374763 -1.96457 0
      vertex -0.125581 1.99605 0
      vertex -0.125581 -1.99605 0
    endloop
  endfacet
  facet normal 0 0 -1
    outer loop
      vertex -0.374763 -1.96457 0
      vertex -0.374763 1.96457 0
      vertex -0.125581 1.99605 0
    endloop
  endfacet
  facet normal 0 0 -1
    outer loop
      vertex -0.618034 -1.90211 0
      vertex -0.374763 1.96457 0
      vertex -0.374763 -1.96457 0
    endloop
  endfacet
  facet normal 0 0 -1
    outer loop
      vertex -0.618034 -1.90211 0
      vertex -0.618034 1.90211 0
      vertex -0.374763 1.96457 0
    endloop
  endfacet
  facet normal 0 0 -1
    outer loop
      vertex -0.851559 -1.80965 0
      vertex -0.618034 1.90211 0
      vertex -0.618034 -1.90211 0
    endloop
  endfacet
  facet normal 0 0 -1
    outer loop
      vertex -0.851559 -1.80965 0
      vertex -0.851559 1.80965 0
      vertex -0.618034 1.90211 0
    endloop
  endfacet
  facet normal 0 0 -1
    outer loop
      vertex -1.07165 -1.68866 0
      vertex -0.851559 1.80965 0
      vertex -0.851559 -1.80965 0
    endloop
  endfacet
  facet normal 0 0 -1
    outer loop
      vertex -1.07165 -1.68866 0
      vertex -1.07165 1.68866 0
      vertex -0.851559 1.80965 0
    endloop
  endfacet
  facet normal 0 0 -1
    outer loop
      vertex -1.27485 -1.54103 0
      vertex -1.07165 1.68866 0
      vertex -1.07165 -1.68866 0
    endloop
  endfacet
  facet normal 0 0 -1
    outer loop
      vertex -1.27485 -1.54103 0
      vertex -1.27485 1.54103 0
      vertex -1.07165 1.68866 0
    endloop
  endfacet
  facet normal 0 0 -1
    outer loop
      vertex -1.45794 -1.36909 0
      vertex -1.27485 1.54103 0
      vertex -1.27485 -1.54103 0
    endloop
  endfacet
  facet normal 0 0 -1
    outer loop
      vertex -1.45794 -1.36909 0
      vertex -1.45794 1.36909 0
      vertex -1.27485 1.54103 0
    endloop
  endfacet
  facet normal 0 0 -1
    outer loop
      vertex -1.61803 -1.17557 0
      vertex -1.45794 1.36909 0
      vertex -1.45794 -1.36909 0
    endloop
  endfacet
  facet normal 0 0 -1
    outer loop
      vertex -1.61803 -1.17557 0
      vertex -1.61803 1.17557 0
      vertex -1.45794 1.36909 0
    endloop
  endfacet
  facet normal 0 0 -1
    outer loop
      vertex -1.75261 -0.963507 0
      vertex -1.61803 1.17557 0
      vertex -1.61803 -1.17557 0
    endloop
  endfacet
  facet normal 0 0 -1
    outer loop
      vertex -1.75261 -0.963507 0
      vertex -1.75261 0.963507 0
      vertex -1.61803 1.17557 0
    endloop
  endfacet
  facet normal 0 0 -1
    outer loop
      vertex -1.85955 -0.736249 0
      vertex -1.75261 0.963507 0
      vertex -1.75261 -0.963507 0
    endloop
  endfacet
  facet normal 0 0 -1
    outer loop
      vertex -1.85955 -0.736249 0
      vertex -1.85955 0.736249 0
      vertex -1.75261 0.963507 0
    endloop
  endfacet
  facet normal 0 0 -1
    outer loop
      vertex -1.93717 -0.49738 0
      vertex -1.85955 0.736249 0
      vertex -1.85955 -0.736249 0
    endloop
  endfacet
  facet normal 0 0 -1
    outer loop
      vertex -1.93717 -0.49738 0
      vertex -1.93717 0.49738 0
      vertex -1.85955 0.736249 0
    endloop
  endfacet
  facet normal 0 0 -1
    outer loop
      vertex -1.98423 -0.250666 0
      vertex -1.93717 0.49738 0
      vertex -1.93717 -0.49738 0
    endloop
  endfacet
  facet normal 0 0 -1
    outer loop
      vertex -1.98423 -0.250666 0
      vertex -1.98423 0.250666 0
      vertex -1.93717 0.49738 0
    endloop
  endfacet
  facet normal 0 -0 -1
    outer loop
      vertex -1.98423 0.250666 0
      vertex -1.98423 -0.250666 0
      vertex -2 -0 0
    endloop
  endfacet
  facet normal 0 0 1
    outer loop
      vertex 1.98423 0.250666 10
      vertex 1.98423 -0.250666 10
      vertex 2 0 10
    endloop
  endfacet
  facet normal 0 0 1
    outer loop
      vertex 1.93717 0.49738 10
      vertex 1.98423 -0.250666 10
      vertex 1.98423 0.250666 10
    endloop
  endfacet
  facet normal 0 0 1
    outer loop
      vertex 1.93717 0.49738 10
      vertex 1.93717 -0.49738 10
      vertex 1.98423 -0.250666 10
    endloop
  endfacet
  facet normal 0 0 1
    outer loop
      vertex 1.85955 0.736249 10
      vertex 1.93717 -0.49738 10
      vertex 1.93717 0.49738 10
    endloop
  endfacet
  facet normal 0 0 1
    outer loop
      vertex 1.85955 0.736249 10
      vertex 1.85955 -0.736249 10
      vertex 1.93717 -0.49738 10
    endloop
  endfacet
  facet normal 0 0 1
    outer loop
      vertex 1.75261 0.963507 10
      vertex 1.85955 -0.736249 10
      vertex 1.85955 0.736249 10
    endloop
  endfacet
  facet normal 0 0 1
    outer loop
      vertex 1.75261 0.963507 10
      vertex 1.75261 -0.963507 10
      vertex 1.85955 -0.736249 10
    endloop
  endfacet
  facet normal 0 0 1
    outer loop
      vertex 1.61803 1.17557 10
      vertex 1.75261 -0.963507 10
      vertex 1.75261 0.963507 10
    endloop
  endfacet
  facet normal 0 0 1
    outer loop
      vertex 1.61803 1.17557 10
      vertex 1.61803 -1.17557 10
      vertex 1.75261 -0.963507 10
    endloop
  endfacet
  facet normal 0 0 1
    outer loop
      vertex 1.45794 1.36909 10
      vertex 1.61803 -1.17557 10
      vertex 1.61803 1.17557 10
    endloop
  endfacet
  facet normal 0 0 1
    outer loop
      vertex 1.45794 1.36909 10
      vertex 1.45794 -1.36909 10
      vertex 1.61803 -1.17557 10
    endloop
  endfacet
  facet normal 0 0 1
    outer loop
      vertex 1.27485 1.54103 10
      vertex 1.45794 -1.36909 10
      vertex 1.45794 1.36909 10
    endloop
  endfacet
  facet normal 0 0 1
    outer loop
      vertex 1.27485 1.54103 10
      vertex 1.27485 -1.54103 10
      vertex 1.45794 -1.36909 10
    endloop
  endfacet
  facet normal 0 0 1
    outer loop
      vertex 1.07165 1.68866 10
      vertex 1.27485 -1.54103 10
      vertex 1.27485 1.54103 10
    endloop
  endfacet
  facet normal 0 0 1
    outer loop
      vertex 1.07165 1.68866 10
      vertex 1.07165 -1.68866 10
      vertex 1.27485 -1.54103 10
    endloop
  endfacet
  facet normal 0 0 1
    outer loop
      vertex 0.851559 1.80965 10
      vertex 1.07165 -1.68866 10
      vertex 1.07165 1.68866 10
    endloop
  endfacet
  facet normal 0 0 1
    outer loop
      vertex 0.851559 1.80965 10
      vertex 0.851559 -1.80965 10
      vertex 1.07165 -1.68866 10
    endloop
  endfacet
  facet normal 0 0 1
    outer loop
      vertex 0.618034 1.90211 10
      vertex 0.851559 -1.80965 10
      vertex 0.851559 1.80965 10
    endloop
  endfacet
  facet normal 0 0 1
    outer loop
      vertex 0.618034 1.90211 10
      vertex 0.618034 -1.90211 10
      vertex 0.851559 -1.80965 10
    endloop
  endfacet
  facet normal 0 0 1
    outer loop
      vertex 0.374763 1.96457 10
      vertex 0.618034 -1.90211 10
      vertex 0.618034 1.90211 10
    endloop
  endfacet
  facet normal 0 0 1
    outer loop
      vertex 0.374763 1.96457 10
      vertex 0.374763 -1.96457 10
      vertex 0.618034 -1.90211 10
    endloop
  endfacet
  facet normal 0 0 1
    outer loop
      vertex 0.125581 1.99605 10
      vertex 0.374763 -1.96457 10
      vertex 0.374763 1.96457 10
    endloop
  endfacet
  facet normal 0 0 1
    outer loop
      vertex 0.125581 1.99605 10
      vertex 0.125581 -1.99605 10
      vertex 0.374763 -1.96457 10
    endloop
  endfacet
  facet normal -0 0 1
    outer loop
      vertex -0.125581 1.99605 10
      vertex 0.125581 -1.99605 10
      vertex 0.125581 1.99605 10
    endloop
  endfacet
  facet normal 0 0 1
    outer loop
      vertex -0.125581 1.99605 10
      vertex -0.125581 -1.99605 10
      vertex 0.125581 -1.99605 10
    endloop
  endfacet
  facet normal -0 0 1
    outer loop
      vertex -0.374763 1.96457 10
      vertex -0.125581 -1.99605 10
      vertex -0.125581 1.99605 10
    endloop
  endfacet
  facet normal 0 0 1
    outer loop
      vertex -0.374763 1.96457 10
      vertex -0.374763 -1.96457 10
      vertex -0.125581 -1.99605 10
    endloop
  endfacet
  facet normal -0 0 1
    outer loop
      vertex -0.618034 1.90211 10
      vertex -0.374763 -1.96457 10
      vertex -0.374763 1.96457 10
    endloop
  endfacet
  facet normal 0 0 1
    outer loop
      vertex -0.618034 1.90211 10
      vertex -0.618034 -1.90211 10
      vertex -0.374763 -1.96457 10
    endloop
  endfacet
  facet normal -0 0 1
    outer loop
      vertex -0.851559 1.80965 10
      vertex -0.618034 -1.90211 10
      vertex -0.618034 1.90211 10
    endloop
  endfacet
  facet normal 0 0 1
    outer loop
      vertex -0.851559 1.80965 10
      vertex -0.851559 -1.80965 10
      vertex -0.618034 -1.90211 10
    endloop
  endfacet
  facet normal -0 0 1
    outer loop
      vertex -1.07165 1.68866 10
      vertex -0.851559 -1.80965 10
      vertex -0.851559 1.80965 10
    endloop
  endfacet
  facet normal 0 0 1
    outer loop
      vertex -1.07165 1.68866 10
      vertex -1.07165 -1.68866 10
      vertex -0.851559 -1.80965 10
    endloop
  endfacet
  facet normal -0 0 1
    outer loop
      vertex -1.27485 1.54103 10
      vertex -1.07165 -1.68866 10
      vertex -1.07165 1.68866 10
    endloop
  endfacet
  facet normal 0 0 1
    outer loop
      vertex -1.27485 1.54103 10
      vertex -1.27485 -1.54103 10
      vertex -1.07165 -1.68866 10
    endloop
  endfacet
  facet normal -0 0 1
    outer loop
      vertex -1.45794 1.36909 10
      vertex -1.27485 -1.54103 10
      vertex -1.27485 1.54103 10
    endloop
  endfacet
  facet normal 0 0 1
    outer loop
      vertex -1.45794 1.36909 10
      vertex -1.45794 -1.36909 10
      vertex -1.27485 -1.54103 10
    endloop
  endfacet
  facet normal -0 0 1
    outer loop
      vertex -1.61803 1.17557 10
      vertex -1.45794 -1.36909 10
      vertex -1.45794 1.36909 10
    endloop
  endfacet
  facet normal 0 0 1
    outer loop
      vertex -1.61803 1.17557 10
      vertex -1.61803 -1.17557 10
      vertex -1.45794 -1.36909 10
    endloop
  endfacet
  facet normal -0 0 1
    outer loop
      vertex -1.75261 0.963507 10
      vertex -1.61803 -1.17557 10
      vertex -1.61803 1.17557 10
    endloop
  endfacet
  facet normal 0 0 1
    outer loop
      vertex -1.75261 0.963507 10
      vertex -1.75261 -0.963507 10
      vertex -1.61803 -1.17557 10
    endloop
  endfacet
  facet normal -0 0 1
    outer loop
      vertex -1.85955 0.736249 10
      vertex -1.75261 -0.963507 10
      vertex -1.75261 0.963507 10
    endloop
  endfacet
  facet normal 0 0 1
    outer loop
      vertex -1.85955 0.736249 10
      vertex -1.85955 -0.736249 10
      vertex -1.75261 -0.963507 10
    endloop
  endfacet
  facet normal -0 0 1
    outer loop
      vertex -1.93717 0.49738 10
      vertex -1.85955 -0.736249 10
      vertex -1.85955 0.736249 10
    endloop
  endfacet
  facet normal 0 0 1
    outer loop
      vertex -1.93717 0.49738 10
      vertex -1.93717 -0.49738 10
      vertex -1.85955 -0.736249 10
    endloop
  endfacet
  facet normal -0 0 1
    outer loop
      vertex -1.98423 0.250666 10
      vertex -1.93717 -0.49738 10
      vertex -1.93717 0.49738 10
    endloop
  endfacet
  facet normal 0 0 1
    outer loop
      vertex -1.98423 0.250666 10
      vertex -1.98423 -0.250666 10
      vertex -1.93717 -0.49738 10
    endloop
  endfacet
  facet normal 0 -0 1
    outer loop
      vertex -1.98423 -0.250666 10
      vertex -1.98423 0.250666 10
      vertex -2 -0 10
    endloop
  endfacet
endsolid OpenSCAD_Model
