solid OpenSCAD_Model
  facet normal 0 -1 0
    outer loop
      vertex 17.7487 0 1.98952
      vertex 18 0 0
      vertex 17.9369 0 1.00267
    endloop
  endfacet
  facet normal 0 -1 0
    outer loop
      vertex 2.25133 0 1.98952
      vertex 2.25133 0 -1.98952
      vertex 2.98955 0 -3.85403
    endloop
  endfacet
  facet normal 0 -1 0
    outer loop
      vertex 17.7487 0 1.98952
      vertex 17.4382 0 2.945
      vertex 17.0105 0 3.85403
    endloop
  endfacet
  facet normal 0 -1 0
    outer loop
      vertex 17.0105 0 3.85403
      vertex 16.4721 0 4.70228
      vertex 15.0994 0 6.16411
    endloop
  endfacet
  facet normal 0 -1 0
    outer loop
      vertex 16.4721 0 4.70228
      vertex 15.8317 0 5.47638
      vertex 15.0994 0 6.16411
    endloop
  endfacet
  facet normal 0 -1 0
    outer loop
      vertex 13.4062 0 7.23862
      vertex 15.0994 0 6.16411
      vertex 14.2866 0 6.75462
    endloop
  endfacet
  facet normal 0 -1 0
    outer loop
      vertex 17.0105 0 3.85403
      vertex 15.0994 0 6.16411
      vertex 13.4062 0 7.23862
    endloop
  endfacet
  facet normal 0 -1 0
    outer loop
      vertex 10.5023 0 7.98421
      vertex 13.4062 0 7.23862
      vertex 12.4721 0 7.60845
    endloop
  endfacet
  facet normal 0 -1 -0
    outer loop
      vertex 9.49768 0 7.98421
      vertex 6.59377 0 7.23862
      vertex 10.5023 0 7.98421
    endloop
  endfacet
  facet normal 0 -1 0
    outer loop
      vertex 12.4721 0 7.60845
      vertex 11.4991 0 7.8583
      vertex 10.5023 0 7.98421
    endloop
  endfacet
  facet normal 0 -1 -0
    outer loop
      vertex 7.52786 0 7.60845
      vertex 6.59377 0 7.23862
      vertex 9.49768 0 7.98421
    endloop
  endfacet
  facet normal 0 -1 0
    outer loop
      vertex 6.59377 0 7.23862
      vertex 13.4062 0 7.23862
      vertex 10.5023 0 7.98421
    endloop
  endfacet
  facet normal 0 -1 0
    outer loop
      vertex 9.49768 0 7.98421
      vertex 8.50095 0 7.8583
      vertex 7.52786 0 7.60845
    endloop
  endfacet
  facet normal 0 -1 0
    outer loop
      vertex 17.7487 0 -1.98952
      vertex 13.4062 0 7.23862
      vertex 6.59377 0 7.23862
    endloop
  endfacet
  facet normal 0 -1 0
    outer loop
      vertex 2.98955 0 3.85403
      vertex 6.59377 0 7.23862
      vertex 4.16825 0 5.47638
    endloop
  endfacet
  facet normal 0 -1 0
    outer loop
      vertex 6.59377 0 7.23862
      vertex 5.71339 0 6.75462
      vertex 4.16825 0 5.47638
    endloop
  endfacet
  facet normal 0 -1 0
    outer loop
      vertex 5.71339 0 6.75462
      vertex 4.90061 0 6.16411
      vertex 4.16825 0 5.47638
    endloop
  endfacet
  facet normal 0 -1 0
    outer loop
      vertex 2.98955 0 -3.85403
      vertex 17.7487 0 -1.98952
      vertex 2.98955 0 3.85403
    endloop
  endfacet
  facet normal 0 -1 0
    outer loop
      vertex 4.16825 0 5.47638
      vertex 3.52786 0 4.70228
      vertex 2.98955 0 3.85403
    endloop
  endfacet
  facet normal 0 -1 0
    outer loop
      vertex 2 0 0
      vertex 2.25133 0 -1.98952
      vertex 2.25133 0 1.98952
    endloop
  endfacet
  facet normal 0 -1 0
    outer loop
      vertex 2.98955 0 3.85403
      vertex 2.56179 0 2.945
      vertex 2.25133 0 1.98952
    endloop
  endfacet
  facet normal 0 -1 0
    outer loop
      vertex 2.25133 0 1.98952
      vertex 2.98955 0 -3.85403
      vertex 2.98955 0 3.85403
    endloop
  endfacet
  facet normal 0 -1 0
    outer loop
      vertex 2.25133 0 1.98952
      vertex 2.06308 0 1.00267
      vertex 2 0 0
    endloop
  endfacet
  facet normal 0 -1 0
    outer loop
      vertex 2.98955 0 -3.85403
      vertex 14.2866 0 -6.75462
      vertex 17.7487 0 -1.98952
    endloop
  endfacet
  facet normal 0 -1 0
    outer loop
      vertex 2 0 0
      vertex 2.06308 0 -1.00267
      vertex 2.25133 0 -1.98952
    endloop
  endfacet
  facet normal 0 -1 0
    outer loop
      vertex 4.16825 0 -5.47638
      vertex 6.59377 0 -7.23862
      vertex 2.98955 0 -3.85403
    endloop
  endfacet
  facet normal 0 -1 0
    outer loop
      vertex 2.25133 0 -1.98952
      vertex 2.56179 0 -2.945
      vertex 2.98955 0 -3.85403
    endloop
  endfacet
  facet normal 0 -1 0
    outer loop
      vertex 5.71339 0 -6.75462
      vertex 6.59377 0 -7.23862
      vertex 4.16825 0 -5.47638
    endloop
  endfacet
  facet normal 0 -1 0
    outer loop
      vertex 2.98955 0 -3.85403
      vertex 3.52786 0 -4.70228
      vertex 4.16825 0 -5.47638
    endloop
  endfacet
  facet normal 0 -1 0
    outer loop
      vertex 6.59377 0 -7.23862
      vertex 14.2866 0 -6.75462
      vertex 2.98955 0 -3.85403
    endloop
  endfacet
  facet normal 0 -1 0
    outer loop
      vertex 4.16825 0 -5.47638
      vertex 4.90061 0 -6.16411
      vertex 5.71339 0 -6.75462
    endloop
  endfacet
  facet normal 0 -1 0
    outer loop
      vertex 7.52786 0 -7.60845
      vertex 8.50095 0 -7.8583
      vertex 6.59377 0 -7.23862
    endloop
  endfacet
  facet normal 0 -1 0
    outer loop
      vertex 8.50095 0 -7.8583
      vertex 11.4991 0 -7.8583
      vertex 14.2866 0 -6.75462
    endloop
  endfacet
  facet normal 0 -1 0
    outer loop
      vertex 11.4991 0 -7.8583
      vertex 12.4721 0 -7.60845
      vertex 14.2866 0 -6.75462
    endloop
  endfacet
  facet normal 0 -1 0
    outer loop
      vertex 12.4721 0 -7.60845
      vertex 13.4062 0 -7.23862
      vertex 14.2866 0 -6.75462
    endloop
  endfacet
  facet normal 0 -1 0
    outer loop
      vertex 8.50095 0 -7.8583
      vertex 9.49768 0 -7.98421
      vertex 10.5023 0 -7.98421
    endloop
  endfacet
  facet normal 0 -1 0
    outer loop
      vertex 8.50095 0 -7.8583
      vertex 10.5023 0 -7.98421
      vertex 11.4991 0 -7.8583
    endloop
  endfacet
  facet normal 0 -1 0
    outer loop
      vertex 8.50095 0 -7.8583
      vertex 14.2866 0 -6.75462
      vertex 6.59377 0 -7.23862
    endloop
  endfacet
  facet normal 0 -1 0
    outer loop
      vertex 2.98955 0 3.85403
      vertex 17.7487 0 -1.98952
      vertex 6.59377 0 7.23862
    endloop
  endfacet
  facet normal -0 -1 0
    outer loop
      vertex 17.0105 0 -3.85403
      vertex 17.7487 0 -1.98952
      vertex 14.2866 0 -6.75462
    endloop
  endfacet
  facet normal 0 -1 0
    outer loop
      vertex 17.7487 0 -1.98952
      vertex 17.0105 0 3.85403
      vertex 13.4062 0 7.23862
    endloop
  endfacet
  facet normal 0 -1 0
    outer loop
      vertex 16.4721 0 -4.70228
      vertex 15.0994 0 -6.16411
      vertex 15.8317 0 -5.47638
    endloop
  endfacet
  facet normal 0 -1 0
    outer loop
      vertex 14.2866 0 -6.75462
      vertex 15.0994 0 -6.16411
      vertex 16.4721 0 -4.70228
    endloop
  endfacet
  facet normal 0 -1 0
    outer loop
      vertex 14.2866 0 -6.75462
      vertex 16.4721 0 -4.70228
      vertex 17.0105 0 -3.85403
    endloop
  endfacet
  facet normal -0 -1 -0
    outer loop
      vertex 17.7487 0 1.98952
      vertex 17.0105 0 3.85403
      vertex 17.7487 0 -1.98952
    endloop
  endfacet
  facet normal 0 -1 0
    outer loop
      vertex 17.0105 0 -3.85403
      vertex 17.4382 0 -2.945
      vertex 17.7487 0 -1.98952
    endloop
  endfacet
  facet normal 0 -1 0
    outer loop
      vertex 17.7487 0 1.98952
      vertex 17.7487 0 -1.98952
      vertex 18 0 0
    endloop
  endfacet
  facet normal 0 -1 0
    outer loop
      vertex 17.7487 0 -1.98952
      vertex 17.9369 0 -1.00267
      vertex 18 0 0
    endloop
  endfacet
  facet normal -0.109389 0.993999 9.81159e-06
    outer loop
      vertex 17.8292 1.96306 1.00267
      vertex 17.8919 1.96997 0
      vertex 17.6421 1.94246 1.98952
    endloop
  endfacet
  facet normal -0.109442 0.993993 0
    outer loop
      vertex 2.97159 0.327184 -3.85403
      vertex 2.23781 0.246392 -1.98952
      vertex 2.23781 0.246392 1.98952
    endloop
  endfacet
  facet normal -0.109383 0.994 2.15806e-05
    outer loop
      vertex 16.9083 1.86167 3.85403
      vertex 17.3335 1.90848 2.945
      vertex 17.6421 1.94246 1.98952
    endloop
  endfacet
  facet normal -0.109414 0.993996 2.19006e-05
    outer loop
      vertex 15.0087 1.65252 6.16411
      vertex 16.3732 1.80275 4.70228
      vertex 16.9083 1.86167 3.85403
    endloop
  endfacet
  facet normal -0.10954 0.993982 -9.69631e-05
    outer loop
      vertex 15.0087 1.65252 6.16411
      vertex 15.7366 1.73267 5.47638
      vertex 16.3732 1.80275 4.70228
    endloop
  endfacet
  facet normal -0.109407 0.993997 6.1119e-05
    outer loop
      vertex 14.2008 1.56356 6.75462
      vertex 15.0087 1.65252 6.16411
      vertex 13.3257 1.46721 7.23862
    endloop
  endfacet
  facet normal -0.109451 0.993992 -8.30298e-06
    outer loop
      vertex 13.3257 1.46721 7.23862
      vertex 15.0087 1.65252 6.16411
      vertex 16.9083 1.86167 3.85403
    endloop
  endfacet
  facet normal -0.109441 0.993993 8.21189e-07
    outer loop
      vertex 12.3972 1.36498 7.60845
      vertex 13.3257 1.46721 7.23862
      vertex 10.4392 1.1494 7.98421
    endloop
  endfacet
  facet normal -0.109445 0.993993 8.76949e-06
    outer loop
      vertex 10.4392 1.1494 7.98421
      vertex 6.55416 0.721639 7.23862
      vertex 9.44062 1.03945 7.98421
    endloop
  endfacet
  facet normal -0.109443 0.993993 -1.22974e-05
    outer loop
      vertex 10.4392 1.1494 7.98421
      vertex 11.43 1.25849 7.8583
      vertex 12.3972 1.36498 7.60845
    endloop
  endfacet
  facet normal -0.109444 0.993993 4.05196e-06
    outer loop
      vertex 9.44062 1.03945 7.98421
      vertex 6.55416 0.721639 7.23862
      vertex 7.48265 0.823869 7.60845
    endloop
  endfacet
  facet normal -0.109442 0.993993 -5.42675e-06
    outer loop
      vertex 10.4392 1.1494 7.98421
      vertex 13.3257 1.46721 7.23862
      vertex 6.55416 0.721639 7.23862
    endloop
  endfacet
  facet normal -0.109444 0.993993 5.02219e-06
    outer loop
      vertex 7.48265 0.823869 7.60845
      vertex 8.44989 0.930366 7.8583
      vertex 9.44062 1.03945 7.98421
    endloop
  endfacet
  facet normal -0.109442 0.993993 -1.31698e-07
    outer loop
      vertex 6.55416 0.721639 7.23862
      vertex 13.3257 1.46721 7.23862
      vertex 17.6421 1.94246 -1.98952
    endloop
  endfacet
  facet normal -0.109442 0.993993 -8.76801e-08
    outer loop
      vertex 4.14321 0.456184 5.47638
      vertex 6.55416 0.721639 7.23862
      vertex 2.97159 0.327184 3.85403
    endloop
  endfacet
  facet normal -0.109443 0.993993 1.13249e-06
    outer loop
      vertex 4.14321 0.456184 5.47638
      vertex 5.67907 0.625288 6.75462
      vertex 6.55416 0.721639 7.23862
    endloop
  endfacet
  facet normal -0.109444 0.993993 1.8416e-06
    outer loop
      vertex 4.14321 0.456184 5.47638
      vertex 4.87117 0.536335 6.16411
      vertex 5.67907 0.625288 6.75462
    endloop
  endfacet
  facet normal -0.109442 0.993993 0
    outer loop
      vertex 2.97159 0.327184 3.85403
      vertex 17.6421 1.94246 -1.98952
      vertex 2.97159 0.327184 -3.85403
    endloop
  endfacet
  facet normal -0.109435 0.993994 -5.31465e-06
    outer loop
      vertex 2.97159 0.327184 3.85403
      vertex 3.50667 0.386099 4.70228
      vertex 4.14321 0.456184 5.47638
    endloop
  endfacet
  facet normal -0.109446 0.993993 0
    outer loop
      vertex 2.23781 0.246392 1.98952
      vertex 2.23781 0.246392 -1.98952
      vertex 1.98799 0.218885 0
    endloop
  endfacet
  facet normal -0.109442 0.993993 -3.14459e-07
    outer loop
      vertex 2.23781 0.246392 1.98952
      vertex 2.5464 0.280369 2.945
      vertex 2.97159 0.327184 3.85403
    endloop
  endfacet
  facet normal -0.109442 0.993993 0
    outer loop
      vertex 2.97159 0.327184 3.85403
      vertex 2.97159 0.327184 -3.85403
      vertex 2.23781 0.246392 1.98952
    endloop
  endfacet
  facet normal -0.109442 0.993993 -5.40536e-07
    outer loop
      vertex 1.98799 0.218885 0
      vertex 2.05069 0.225789 1.00267
      vertex 2.23781 0.246392 1.98952
    endloop
  endfacet
  facet normal -0.109442 0.993993 -1.08655e-07
    outer loop
      vertex 17.6421 1.94246 -1.98952
      vertex 14.2008 1.56356 -6.75462
      vertex 2.97159 0.327184 -3.85403
    endloop
  endfacet
  facet normal -0.109442 0.993993 5.40536e-07
    outer loop
      vertex 2.23781 0.246392 -1.98952
      vertex 2.05069 0.225789 -1.00267
      vertex 1.98799 0.218885 0
    endloop
  endfacet
  facet normal -0.109442 0.993993 8.76801e-08
    outer loop
      vertex 2.97159 0.327184 -3.85403
      vertex 6.55416 0.721639 -7.23862
      vertex 4.14321 0.456184 -5.47638
    endloop
  endfacet
  facet normal -0.109442 0.993993 3.14459e-07
    outer loop
      vertex 2.97159 0.327184 -3.85403
      vertex 2.5464 0.280369 -2.945
      vertex 2.23781 0.246392 -1.98952
    endloop
  endfacet
  facet normal -0.109443 0.993993 -1.13249e-06
    outer loop
      vertex 4.14321 0.456184 -5.47638
      vertex 6.55416 0.721639 -7.23862
      vertex 5.67907 0.625288 -6.75462
    endloop
  endfacet
  facet normal -0.109435 0.993994 5.31465e-06
    outer loop
      vertex 4.14321 0.456184 -5.47638
      vertex 3.50667 0.386099 -4.70228
      vertex 2.97159 0.327184 -3.85403
    endloop
  endfacet
  facet normal -0.109442 0.993993 5.20641e-07
    outer loop
      vertex 2.97159 0.327184 -3.85403
      vertex 14.2008 1.56356 -6.75462
      vertex 6.55416 0.721639 -7.23862
    endloop
  endfacet
  facet normal -0.109444 0.993993 -1.8416e-06
    outer loop
      vertex 5.67907 0.625288 -6.75462
      vertex 4.87117 0.536335 -6.16411
      vertex 4.14321 0.456184 -5.47638
    endloop
  endfacet
  facet normal -0.109444 0.993993 -3.5918e-06
    outer loop
      vertex 6.55416 0.721639 -7.23862
      vertex 8.44989 0.930366 -7.8583
      vertex 7.48265 0.823869 -7.60845
    endloop
  endfacet
  facet normal -0.109443 0.993993 7.19908e-06
    outer loop
      vertex 14.2008 1.56356 -6.75462
      vertex 11.43 1.25849 -7.8583
      vertex 8.44989 0.930366 -7.8583
    endloop
  endfacet
  facet normal -0.109439 0.993993 -3.21092e-06
    outer loop
      vertex 14.2008 1.56356 -6.75462
      vertex 12.3972 1.36498 -7.60845
      vertex 11.43 1.25849 -7.8583
    endloop
  endfacet
  facet normal -0.109443 0.993993 3.93627e-06
    outer loop
      vertex 14.2008 1.56356 -6.75462
      vertex 13.3257 1.46721 -7.23862
      vertex 12.3972 1.36498 -7.60845
    endloop
  endfacet
  facet normal -0.109445 0.993993 -1.31454e-05
    outer loop
      vertex 10.4392 1.1494 -7.98421
      vertex 9.44062 1.03945 -7.98421
      vertex 8.44989 0.930366 -7.8583
    endloop
  endfacet
  facet normal -0.109443 0.993993 1.34024e-05
    outer loop
      vertex 11.43 1.25849 -7.8583
      vertex 10.4392 1.1494 -7.98421
      vertex 8.44989 0.930366 -7.8583
    endloop
  endfacet
  facet normal -0.109442 0.993993 9.36692e-07
    outer loop
      vertex 6.55416 0.721639 -7.23862
      vertex 14.2008 1.56356 -6.75462
      vertex 8.44989 0.930366 -7.8583
    endloop
  endfacet
  facet normal -0.109442 0.993993 -2.34918e-07
    outer loop
      vertex 6.55416 0.721639 7.23862
      vertex 17.6421 1.94246 -1.98952
      vertex 2.97159 0.327184 3.85403
    endloop
  endfacet
  facet normal -0.109449 0.993992 4.8319e-06
    outer loop
      vertex 14.2008 1.56356 -6.75462
      vertex 17.6421 1.94246 -1.98952
      vertex 16.9083 1.86167 -3.85403
    endloop
  endfacet
  facet normal -0.109444 0.993993 -8.88542e-07
    outer loop
      vertex 13.3257 1.46721 7.23862
      vertex 16.9083 1.86167 3.85403
      vertex 17.6421 1.94246 -1.98952
    endloop
  endfacet
  facet normal -0.10954 0.993982 9.69631e-05
    outer loop
      vertex 15.7366 1.73267 -5.47638
      vertex 15.0087 1.65252 -6.16411
      vertex 16.3732 1.80275 -4.70228
    endloop
  endfacet
  facet normal -0.10948 0.993989 4.00047e-05
    outer loop
      vertex 16.3732 1.80275 -4.70228
      vertex 15.0087 1.65252 -6.16411
      vertex 14.2008 1.56356 -6.75462
    endloop
  endfacet
  facet normal -0.109434 0.993994 -9.6645e-06
    outer loop
      vertex 16.9083 1.86167 -3.85403
      vertex 16.3732 1.80275 -4.70228
      vertex 14.2008 1.56356 -6.75462
    endloop
  endfacet
  facet normal -0.109437 0.993994 0
    outer loop
      vertex 17.6421 1.94246 -1.98952
      vertex 16.9083 1.86167 3.85403
      vertex 17.6421 1.94246 1.98952
    endloop
  endfacet
  facet normal -0.109383 0.994 -2.15806e-05
    outer loop
      vertex 17.6421 1.94246 -1.98952
      vertex 17.3335 1.90848 -2.945
      vertex 16.9083 1.86167 -3.85403
    endloop
  endfacet
  facet normal -0.109466 0.993991 0
    outer loop
      vertex 17.8919 1.96997 0
      vertex 17.6421 1.94246 -1.98952
      vertex 17.6421 1.94246 1.98952
    endloop
  endfacet
  facet normal -0.109389 0.993999 -9.81159e-06
    outer loop
      vertex 17.8919 1.96997 0
      vertex 17.8292 1.96306 -1.00267
      vertex 17.6421 1.94246 -1.98952
    endloop
  endfacet
  facet normal 0.980873 0.0538292 -0.18706
    outer loop
      vertex 17.7487 0 -1.98952
      vertex 17.6421 1.94246 -1.98952
      vertex 17.9369 0 -1.00267
    endloop
  endfacet
  facet normal 0.980868 0.0538137 -0.187089
    outer loop
      vertex 17.6421 1.94246 -1.98952
      vertex 17.8292 1.96306 -1.00267
      vertex 17.9369 0 -1.00267
    endloop
  endfacet
  facet normal 0.949751 0.0521037 -0.308638
    outer loop
      vertex 17.4382 0 -2.945
      vertex 17.3335 1.90848 -2.945
      vertex 17.7487 0 -1.98952
    endloop
  endfacet
  facet normal 0.949761 0.0521218 -0.308606
    outer loop
      vertex 17.3335 1.90848 -2.945
      vertex 17.6421 1.94246 -1.98952
      vertex 17.7487 0 -1.98952
    endloop
  endfacet
  facet normal 0.903735 0.0496123 -0.425209
    outer loop
      vertex 17.0105 0 -3.85403
      vertex 16.9083 1.86167 -3.85403
      vertex 17.4382 0 -2.945
    endloop
  endfacet
  facet normal 0.90371 0.0495779 -0.425265
    outer loop
      vertex 16.9083 1.86167 -3.85403
      vertex 17.3335 1.90848 -2.945
      vertex 17.4382 0 -2.945
    endloop
  endfacet
  facet normal 0.843386 0.0462687 -0.535313
    outer loop
      vertex 16.4721 0 -4.70228
      vertex 16.3732 1.80275 -4.70228
      vertex 17.0105 0 -3.85403
    endloop
  endfacet
  facet normal 0.843414 0.0463009 -0.535265
    outer loop
      vertex 16.3732 1.80275 -4.70228
      vertex 16.9083 1.86167 -3.85403
      vertex 17.0105 0 -3.85403
    endloop
  endfacet
  facet normal 0.769821 0.0422527 -0.63686
    outer loop
      vertex 15.8317 0 -5.47638
      vertex 15.7366 1.73267 -5.47638
      vertex 16.4721 0 -4.70228
    endloop
  endfacet
  facet normal 0.7698 0.0422317 -0.636887
    outer loop
      vertex 15.7366 1.73267 -5.47638
      vertex 16.3732 1.80275 -4.70228
      vertex 16.4721 0 -4.70228
    endloop
  endfacet
  facet normal 0.684093 0.0375471 -0.728428
    outer loop
      vertex 15.0994 0 -6.16411
      vertex 15.0087 1.65252 -6.16411
      vertex 15.8317 0 -5.47638
    endloop
  endfacet
  facet normal 0.684094 0.0375474 -0.728427
    outer loop
      vertex 15.0087 1.65252 -6.16411
      vertex 15.7366 1.73267 -5.47638
      vertex 15.8317 0 -5.47638
    endloop
  endfacet
  facet normal 0.587464 0.032237 -0.808608
    outer loop
      vertex 14.2866 0 -6.75462
      vertex 14.2008 1.56356 -6.75462
      vertex 15.0994 0 -6.16411
    endloop
  endfacet
  facet normal 0.587472 0.0322439 -0.808602
    outer loop
      vertex 14.2008 1.56356 -6.75462
      vertex 15.0087 1.65252 -6.16411
      vertex 15.0994 0 -6.16411
    endloop
  endfacet
  facet normal 0.481582 0.0264225 -0.876002
    outer loop
      vertex 13.4062 0 -7.23862
      vertex 13.3257 1.46721 -7.23862
      vertex 14.2866 0 -6.75462
    endloop
  endfacet
  facet normal 0.481588 0.026427 -0.875999
    outer loop
      vertex 13.3257 1.46721 -7.23862
      vertex 14.2008 1.56356 -6.75462
      vertex 14.2866 0 -6.75462
    endloop
  endfacet
  facet normal 0.368044 0.0201955 -0.929589
    outer loop
      vertex 12.4721 0 -7.60845
      vertex 12.3972 1.36498 -7.60845
      vertex 13.4062 0 -7.23862
    endloop
  endfacet
  facet normal 0.368041 0.020193 -0.92959
    outer loop
      vertex 12.3972 1.36498 -7.60845
      vertex 13.3257 1.46721 -7.23862
      vertex 13.4062 0 -7.23862
    endloop
  endfacet
  facet normal 0.248691 0.0136549 -0.968487
    outer loop
      vertex 11.4991 0 -7.8583
      vertex 11.43 1.25849 -7.8583
      vertex 12.4721 0 -7.60845
    endloop
  endfacet
  facet normal 0.248681 0.0136458 -0.968489
    outer loop
      vertex 11.43 1.25849 -7.8583
      vertex 12.3972 1.36498 -7.60845
      vertex 12.4721 0 -7.60845
    endloop
  endfacet
  facet normal 0.125315 0.00687959 -0.992093
    outer loop
      vertex 10.5023 0 -7.98421
      vertex 10.4392 1.1494 -7.98421
      vertex 11.4991 0 -7.8583
    endloop
  endfacet
  facet normal 0.125317 0.00688077 -0.992093
    outer loop
      vertex 10.4392 1.1494 -7.98421
      vertex 11.43 1.25849 -7.8583
      vertex 11.4991 0 -7.8583
    endloop
  endfacet
  facet normal 0 0 -1
    outer loop
      vertex 9.49768 0 -7.98421
      vertex 9.44062 1.03945 -7.98421
      vertex 10.5023 0 -7.98421
    endloop
  endfacet
  facet normal 0 0 -1
    outer loop
      vertex 9.44062 1.03945 -7.98421
      vertex 10.4392 1.1494 -7.98421
      vertex 10.5023 0 -7.98421
    endloop
  endfacet
  facet normal -0.125324 -0.00687799 -0.992092
    outer loop
      vertex 8.50095 0 -7.8583
      vertex 8.44989 0.930366 -7.8583
      vertex 9.49768 0 -7.98421
    endloop
  endfacet
  facet normal -0.125326 -0.00687967 -0.992092
    outer loop
      vertex 8.44989 0.930366 -7.8583
      vertex 9.44062 1.03945 -7.98421
      vertex 9.49768 0 -7.98421
    endloop
  endfacet
  facet normal -0.248669 -0.0136458 -0.968492
    outer loop
      vertex 7.52786 0 -7.60845
      vertex 7.48265 0.823869 -7.60845
      vertex 8.50095 0 -7.8583
    endloop
  endfacet
  facet normal -0.248671 -0.0136475 -0.968492
    outer loop
      vertex 7.48265 0.823869 -7.60845
      vertex 8.44989 0.930366 -7.8583
      vertex 8.50095 0 -7.8583
    endloop
  endfacet
  facet normal -0.368047 -0.0202017 -0.929588
    outer loop
      vertex 6.59377 0 -7.23862
      vertex 6.55416 0.721639 -7.23862
      vertex 7.52786 0 -7.60845
    endloop
  endfacet
  facet normal -0.368044 -0.0201965 -0.929589
    outer loop
      vertex 6.55416 0.721639 -7.23862
      vertex 7.48265 0.823869 -7.60845
      vertex 7.52786 0 -7.60845
    endloop
  endfacet
  facet normal -0.481591 -0.0264329 -0.875998
    outer loop
      vertex 5.71339 0 -6.75462
      vertex 5.67907 0.625288 -6.75462
      vertex 6.59377 0 -7.23862
    endloop
  endfacet
  facet normal -0.481591 -0.026434 -0.875997
    outer loop
      vertex 5.67907 0.625288 -6.75462
      vertex 6.55416 0.721639 -7.23862
      vertex 6.59377 0 -7.23862
    endloop
  endfacet
  facet normal -0.587474 -0.032247 -0.808601
    outer loop
      vertex 4.90061 0 -6.16411
      vertex 4.87117 0.536335 -6.16411
      vertex 5.71339 0 -6.75462
    endloop
  endfacet
  facet normal -0.587472 -0.0322444 -0.808601
    outer loop
      vertex 4.87117 0.536335 -6.16411
      vertex 5.67907 0.625288 -6.75462
      vertex 5.71339 0 -6.75462
    endloop
  endfacet
  facet normal -0.684063 -0.0375483 -0.728455
    outer loop
      vertex 4.16825 0 -5.47638
      vertex 4.14321 0.456184 -5.47638
      vertex 4.90061 0 -6.16411
    endloop
  endfacet
  facet normal -0.684064 -0.037549 -0.728455
    outer loop
      vertex 4.14321 0.456184 -5.47638
      vertex 4.87117 0.536335 -6.16411
      vertex 4.90061 0 -6.16411
    endloop
  endfacet
  facet normal -0.769826 -0.0422498 -0.636854
    outer loop
      vertex 3.52786 0 -4.70228
      vertex 3.50667 0.386099 -4.70228
      vertex 4.16825 0 -5.47638
    endloop
  endfacet
  facet normal -0.769827 -0.0422559 -0.636852
    outer loop
      vertex 3.50667 0.386099 -4.70228
      vertex 4.14321 0.456184 -5.47638
      vertex 4.16825 0 -5.47638
    endloop
  endfacet
  facet normal -0.843425 -0.0462978 -0.535248
    outer loop
      vertex 2.98955 0 -3.85403
      vertex 2.97159 0.327184 -3.85403
      vertex 3.52786 0 -4.70228
    endloop
  endfacet
  facet normal -0.843424 -0.046289 -0.535251
    outer loop
      vertex 2.97159 0.327184 -3.85403
      vertex 3.50667 0.386099 -4.70228
      vertex 3.52786 0 -4.70228
    endloop
  endfacet
  facet normal -0.903712 -0.0496065 -0.425257
    outer loop
      vertex 2.56179 0 -2.945
      vertex 2.5464 0.280369 -2.945
      vertex 2.98955 0 -3.85403
    endloop
  endfacet
  facet normal -0.903712 -0.0496072 -0.425257
    outer loop
      vertex 2.5464 0.280369 -2.945
      vertex 2.97159 0.327184 -3.85403
      vertex 2.98955 0 -3.85403
    endloop
  endfacet
  facet normal -0.949762 -0.0521153 -0.308602
    outer loop
      vertex 2.25133 0 -1.98952
      vertex 2.23781 0.246392 -1.98952
      vertex 2.56179 0 -2.945
    endloop
  endfacet
  facet normal -0.949763 -0.0521343 -0.308597
    outer loop
      vertex 2.23781 0.246392 -1.98952
      vertex 2.5464 0.280369 -2.945
      vertex 2.56179 0 -2.945
    endloop
  endfacet
  facet normal -0.980864 -0.0538241 -0.187108
    outer loop
      vertex 2.06308 0 -1.00267
      vertex 2.05069 0.225789 -1.00267
      vertex 2.25133 0 -1.98952
    endloop
  endfacet
  facet normal -0.980864 -0.0538219 -0.187109
    outer loop
      vertex 2.05069 0.225789 -1.00267
      vertex 2.23781 0.246392 -1.98952
      vertex 2.25133 0 -1.98952
    endloop
  endfacet
  facet normal -0.996534 -0.0546788 -0.062694
    outer loop
      vertex 2 0 0
      vertex 1.98799 0.218885 0
      vertex 2.06308 0 -1.00267
    endloop
  endfacet
  facet normal -0.996534 -0.054684 -0.0626928
    outer loop
      vertex 1.98799 0.218885 0
      vertex 2.05069 0.225789 -1.00267
      vertex 2.06308 0 -1.00267
    endloop
  endfacet
  facet normal -0.996534 -0.054684 0.0626939
    outer loop
      vertex 2.06308 0 1.00267
      vertex 2.05069 0.225789 1.00267
      vertex 2 0 0
    endloop
  endfacet
  facet normal -0.996534 -0.0546788 0.0626928
    outer loop
      vertex 2.05069 0.225789 1.00267
      vertex 1.98799 0.218885 0
      vertex 2 0 0
    endloop
  endfacet
  facet normal -0.980864 -0.0538219 0.187108
    outer loop
      vertex 2.25133 0 1.98952
      vertex 2.23781 0.246392 1.98952
      vertex 2.06308 0 1.00267
    endloop
  endfacet
  facet normal -0.980864 -0.0538241 0.187109
    outer loop
      vertex 2.23781 0.246392 1.98952
      vertex 2.05069 0.225789 1.00267
      vertex 2.06308 0 1.00267
    endloop
  endfacet
  facet normal -0.949761 -0.0521343 0.308602
    outer loop
      vertex 2.56179 0 2.945
      vertex 2.5464 0.280369 2.945
      vertex 2.25133 0 1.98952
    endloop
  endfacet
  facet normal -0.949764 -0.0521154 0.308597
    outer loop
      vertex 2.5464 0.280369 2.945
      vertex 2.23781 0.246392 1.98952
      vertex 2.25133 0 1.98952
    endloop
  endfacet
  facet normal -0.903712 -0.0496072 0.425257
    outer loop
      vertex 2.98955 0 3.85403
      vertex 2.97159 0.327184 3.85403
      vertex 2.56179 0 2.945
    endloop
  endfacet
  facet normal -0.903712 -0.0496065 0.425257
    outer loop
      vertex 2.97159 0.327184 3.85403
      vertex 2.5464 0.280369 2.945
      vertex 2.56179 0 2.945
    endloop
  endfacet
  facet normal -0.843425 -0.0462891 0.535248
    outer loop
      vertex 3.52786 0 4.70228
      vertex 3.50667 0.386099 4.70228
      vertex 2.98955 0 3.85403
    endloop
  endfacet
  facet normal -0.843423 -0.0462978 0.535251
    outer loop
      vertex 3.50667 0.386099 4.70228
      vertex 2.97159 0.327184 3.85403
      vertex 2.98955 0 3.85403
    endloop
  endfacet
  facet normal -0.769826 -0.0422558 0.636854
    outer loop
      vertex 4.16825 0 5.47638
      vertex 4.14321 0.456184 5.47638
      vertex 3.52786 0 4.70228
    endloop
  endfacet
  facet normal -0.769828 -0.0422499 0.636852
    outer loop
      vertex 4.14321 0.456184 5.47638
      vertex 3.50667 0.386099 4.70228
      vertex 3.52786 0 4.70228
    endloop
  endfacet
  facet normal -0.684063 -0.037549 0.728455
    outer loop
      vertex 4.90061 0 6.16411
      vertex 4.87117 0.536335 6.16411
      vertex 4.16825 0 5.47638
    endloop
  endfacet
  facet normal -0.684064 -0.0375483 0.728455
    outer loop
      vertex 4.87117 0.536335 6.16411
      vertex 4.14321 0.456184 5.47638
      vertex 4.16825 0 5.47638
    endloop
  endfacet
  facet normal -0.587474 -0.0322445 0.808601
    outer loop
      vertex 5.71339 0 6.75462
      vertex 5.67907 0.625288 6.75462
      vertex 4.90061 0 6.16411
    endloop
  endfacet
  facet normal -0.587472 -0.032247 0.808602
    outer loop
      vertex 5.67907 0.625288 6.75462
      vertex 4.87117 0.536335 6.16411
      vertex 4.90061 0 6.16411
    endloop
  endfacet
  facet normal -0.481591 -0.026434 0.875998
    outer loop
      vertex 6.59377 0 7.23862
      vertex 6.55416 0.721639 7.23862
      vertex 5.71339 0 6.75462
    endloop
  endfacet
  facet normal -0.481591 -0.026433 0.875997
    outer loop
      vertex 6.55416 0.721639 7.23862
      vertex 5.67907 0.625288 6.75462
      vertex 5.71339 0 6.75462
    endloop
  endfacet
  facet normal -0.368047 -0.0201967 0.929588
    outer loop
      vertex 7.52786 0 7.60845
      vertex 7.48265 0.823869 7.60845
      vertex 6.59377 0 7.23862
    endloop
  endfacet
  facet normal -0.368044 -0.0202015 0.929589
    outer loop
      vertex 7.48265 0.823869 7.60845
      vertex 6.55416 0.721639 7.23862
      vertex 6.59377 0 7.23862
    endloop
  endfacet
  facet normal -0.248669 -0.0136474 0.968492
    outer loop
      vertex 8.50095 0 7.8583
      vertex 8.44989 0.930366 7.8583
      vertex 7.52786 0 7.60845
    endloop
  endfacet
  facet normal -0.248671 -0.0136459 0.968492
    outer loop
      vertex 8.44989 0.930366 7.8583
      vertex 7.48265 0.823869 7.60845
      vertex 7.52786 0 7.60845
    endloop
  endfacet
  facet normal -0.125324 -0.00687959 0.992092
    outer loop
      vertex 9.49768 0 7.98421
      vertex 9.44062 1.03945 7.98421
      vertex 8.50095 0 7.8583
    endloop
  endfacet
  facet normal -0.125326 -0.00687808 0.992092
    outer loop
      vertex 9.44062 1.03945 7.98421
      vertex 8.44989 0.930366 7.8583
      vertex 8.50095 0 7.8583
    endloop
  endfacet
  facet normal 0 0 1
    outer loop
      vertex 10.5023 0 7.98421
      vertex 10.4392 1.1494 7.98421
      vertex 9.49768 0 7.98421
    endloop
  endfacet
  facet normal 0 0 1
    outer loop
      vertex 10.4392 1.1494 7.98421
      vertex 9.44062 1.03945 7.98421
      vertex 9.49768 0 7.98421
    endloop
  endfacet
  facet normal 0.125315 0.0068807 0.992093
    outer loop
      vertex 11.4991 0 7.8583
      vertex 11.43 1.25849 7.8583
      vertex 10.5023 0 7.98421
    endloop
  endfacet
  facet normal 0.125317 0.00687967 0.992093
    outer loop
      vertex 11.43 1.25849 7.8583
      vertex 10.4392 1.1494 7.98421
      vertex 10.5023 0 7.98421
    endloop
  endfacet
  facet normal 0.248691 0.0136463 0.968487
    outer loop
      vertex 12.4721 0 7.60845
      vertex 12.3972 1.36498 7.60845
      vertex 11.4991 0 7.8583
    endloop
  endfacet
  facet normal 0.24868 0.0136543 0.96849
    outer loop
      vertex 12.3972 1.36498 7.60845
      vertex 11.43 1.25849 7.8583
      vertex 11.4991 0 7.8583
    endloop
  endfacet
  facet normal 0.368044 0.0201931 0.929589
    outer loop
      vertex 13.4062 0 7.23862
      vertex 13.3257 1.46721 7.23862
      vertex 12.4721 0 7.60845
    endloop
  endfacet
  facet normal 0.368041 0.0201954 0.92959
    outer loop
      vertex 13.3257 1.46721 7.23862
      vertex 12.3972 1.36498 7.60845
      vertex 12.4721 0 7.60845
    endloop
  endfacet
  facet normal 0.481582 0.0264267 0.876002
    outer loop
      vertex 14.2866 0 6.75462
      vertex 14.2008 1.56356 6.75462
      vertex 13.4062 0 7.23862
    endloop
  endfacet
  facet normal 0.481588 0.0264228 0.875999
    outer loop
      vertex 14.2008 1.56356 6.75462
      vertex 13.3257 1.46721 7.23862
      vertex 13.4062 0 7.23862
    endloop
  endfacet
  facet normal 0.587464 0.0322435 0.808608
    outer loop
      vertex 15.0994 0 6.16411
      vertex 15.0087 1.65252 6.16411
      vertex 14.2866 0 6.75462
    endloop
  endfacet
  facet normal 0.587473 0.0322374 0.808601
    outer loop
      vertex 15.0087 1.65252 6.16411
      vertex 14.2008 1.56356 6.75462
      vertex 14.2866 0 6.75462
    endloop
  endfacet
  facet normal 0.684093 0.0375474 0.728428
    outer loop
      vertex 15.8317 0 5.47638
      vertex 15.7366 1.73267 5.47638
      vertex 15.0994 0 6.16411
    endloop
  endfacet
  facet normal 0.684094 0.0375471 0.728427
    outer loop
      vertex 15.7366 1.73267 5.47638
      vertex 15.0087 1.65252 6.16411
      vertex 15.0994 0 6.16411
    endloop
  endfacet
  facet normal 0.769821 0.0422329 0.63686
    outer loop
      vertex 16.4721 0 4.70228
      vertex 16.3732 1.80275 4.70228
      vertex 15.8317 0 5.47638
    endloop
  endfacet
  facet normal 0.769798 0.0422514 0.636887
    outer loop
      vertex 16.3732 1.80275 4.70228
      vertex 15.7366 1.73267 5.47638
      vertex 15.8317 0 5.47638
    endloop
  endfacet
  facet normal 0.843385 0.0462992 0.535312
    outer loop
      vertex 17.0105 0 3.85403
      vertex 16.9083 1.86167 3.85403
      vertex 16.4721 0 4.70228
    endloop
  endfacet
  facet normal 0.843416 0.0462703 0.535265
    outer loop
      vertex 16.9083 1.86167 3.85403
      vertex 16.3732 1.80275 4.70228
      vertex 16.4721 0 4.70228
    endloop
  endfacet
  facet normal 0.903736 0.0495793 0.425209
    outer loop
      vertex 17.4382 0 2.945
      vertex 17.3335 1.90848 2.945
      vertex 17.0105 0 3.85403
    endloop
  endfacet
  facet normal 0.903708 0.0496108 0.425265
    outer loop
      vertex 17.3335 1.90848 2.945
      vertex 16.9083 1.86167 3.85403
      vertex 17.0105 0 3.85403
    endloop
  endfacet
  facet normal 0.94975 0.0521212 0.308638
    outer loop
      vertex 17.7487 0 1.98952
      vertex 17.6421 1.94246 1.98952
      vertex 17.4382 0 2.945
    endloop
  endfacet
  facet normal 0.949762 0.0521043 0.308606
    outer loop
      vertex 17.6421 1.94246 1.98952
      vertex 17.3335 1.90848 2.945
      vertex 17.4382 0 2.945
    endloop
  endfacet
  facet normal 0.980873 0.053814 0.18706
    outer loop
      vertex 17.9369 0 1.00267
      vertex 17.8292 1.96306 1.00267
      vertex 17.7487 0 1.98952
    endloop
  endfacet
  facet normal 0.980867 0.0538289 0.187089
    outer loop
      vertex 17.8292 1.96306 1.00267
      vertex 17.6421 1.94246 1.98952
      vertex 17.7487 0 1.98952
    endloop
  endfacet
  facet normal 0.996532 0.0546836 0.0627137
    outer loop
      vertex 18 0 0
      vertex 17.8919 1.96997 0
      vertex 17.9369 0 1.00267
    endloop
  endfacet
  facet normal 0.996534 0.0546732 0.0626931
    outer loop
      vertex 17.8919 1.96997 0
      vertex 17.8292 1.96306 1.00267
      vertex 17.9369 0 1.00267
    endloop
  endfacet
  facet normal 0.996533 0.0546731 -0.0627138
    outer loop
      vertex 17.9369 0 -1.00267
      vertex 17.8292 1.96306 -1.00267
      vertex 18 0 0
    endloop
  endfacet
  facet normal 0.996534 0.0546837 -0.0626931
    outer loop
      vertex 17.8292 1.96306 -1.00267
      vertex 17.8919 1.96997 0
      vertex 18 0 0
    endloop
  endfacet
endsolid OpenSCAD_Model
