solid OpenSCAD_Model
  facet normal -0.90866 0.295241 0.295245
    outer loop
      vertex -6.61803 -0 1.17557
      vertex -5.3541 3.88998 1.17557
      vertex -7 -0 0
    endloop
  endfacet
  facet normal -0.90866 0.295241 0.295245
    outer loop
      vertex -5.3541 3.88998 1.17557
      vertex -5.66312 4.1145 0
      vertex -7 -0 0
    endloop
  endfacet
  facet normal -0.577349 0.187592 0.794655
    outer loop
      vertex -5.61803 -0 1.90211
      vertex -4.54508 3.3022 1.90211
      vertex -6.61803 -0 1.17557
    endloop
  endfacet
  facet normal -0.577349 0.187592 0.794656
    outer loop
      vertex -4.54508 3.3022 1.90211
      vertex -5.3541 3.88998 1.17557
      vertex -6.61803 -0 1.17557
    endloop
  endfacet
  facet normal 0 -0 1
    outer loop
      vertex -4.38197 -0 1.90211
      vertex -3.54508 2.57565 1.90211
      vertex -5.61803 -0 1.90211
    endloop
  endfacet
  facet normal 0 0 1
    outer loop
      vertex -3.54508 2.57565 1.90211
      vertex -4.54508 3.3022 1.90211
      vertex -5.61803 -0 1.90211
    endloop
  endfacet
  facet normal 0.577349 -0.187593 0.794655
    outer loop
      vertex -3.38197 -0 1.17557
      vertex -2.73607 1.98787 1.17557
      vertex -4.38197 -0 1.90211
    endloop
  endfacet
  facet normal 0.577351 -0.187595 0.794653
    outer loop
      vertex -2.73607 1.98787 1.17557
      vertex -3.54508 2.57565 1.90211
      vertex -4.38197 -0 1.90211
    endloop
  endfacet
  facet normal 0.90866 -0.295241 0.295245
    outer loop
      vertex -3 -0 0
      vertex -2.42705 1.76336 0
      vertex -3.38197 -0 1.17557
    endloop
  endfacet
  facet normal 0.90866 -0.295242 0.295243
    outer loop
      vertex -2.42705 1.76336 0
      vertex -2.73607 1.98787 1.17557
      vertex -3.38197 -0 1.17557
    endloop
  endfacet
  facet normal 0.90866 -0.295242 -0.295245
    outer loop
      vertex -3.38197 -0 -1.17557
      vertex -2.73607 1.98787 -1.17557
      vertex -3 -0 0
    endloop
  endfacet
  facet normal 0.908661 -0.295241 -0.295243
    outer loop
      vertex -2.73607 1.98787 -1.17557
      vertex -2.42705 1.76336 0
      vertex -3 -0 0
    endloop
  endfacet
  facet normal 0.577349 -0.187594 -0.794655
    outer loop
      vertex -4.38197 -0 -1.90211
      vertex -3.54508 2.57565 -1.90211
      vertex -3.38197 -0 -1.17557
    endloop
  endfacet
  facet normal 0.577352 -0.187594 -0.794653
    outer loop
      vertex -3.54508 2.57565 -1.90211
      vertex -2.73607 1.98787 -1.17557
      vertex -3.38197 -0 -1.17557
    endloop
  endfacet
  facet normal 0 0 -1
    outer loop
      vertex -5.61803 -0 -1.90211
      vertex -4.54508 3.3022 -1.90211
      vertex -4.38197 -0 -1.90211
    endloop
  endfacet
  facet normal 0 0 -1
    outer loop
      vertex -4.54508 3.3022 -1.90211
      vertex -3.54508 2.57565 -1.90211
      vertex -4.38197 -0 -1.90211
    endloop
  endfacet
  facet normal -0.577349 0.187592 -0.794656
    outer loop
      vertex -6.61803 -0 -1.17557
      vertex -5.3541 3.88998 -1.17557
      vertex -5.61803 -0 -1.90211
    endloop
  endfacet
  facet normal -0.577349 0.187592 -0.794656
    outer loop
      vertex -5.3541 3.88998 -1.17557
      vertex -4.54508 3.3022 -1.90211
      vertex -5.61803 -0 -1.90211
    endloop
  endfacet
  facet normal -0.90866 0.295241 -0.295245
    outer loop
      vertex -7 -0 0
      vertex -5.66312 4.1145 0
      vertex -6.61803 -0 -1.17557
    endloop
  endfacet
  facet normal -0.90866 0.295241 -0.295245
    outer loop
      vertex -5.66312 4.1145 0
      vertex -5.3541 3.88998 -1.17557
      vertex -6.61803 -0 -1.17557
    endloop
  endfacet
  facet normal -0.561582 0.772952 0.295247
    outer loop
      vertex -5.3541 3.88998 1.17557
      vertex -2.04508 6.29412 1.17557
      vertex -5.66312 4.1145 0
    endloop
  endfacet
  facet normal -0.561582 0.772951 0.29525
    outer loop
      vertex -2.04508 6.29412 1.17557
      vertex -2.16312 6.6574 0
      vertex -5.66312 4.1145 0
    endloop
  endfacet
  facet normal -0.356822 0.491123 0.794655
    outer loop
      vertex -4.54508 3.3022 1.90211
      vertex -1.73607 5.34307 1.90211
      vertex -5.3541 3.88998 1.17557
    endloop
  endfacet
  facet normal -0.356823 0.491126 0.794653
    outer loop
      vertex -1.73607 5.34307 1.90211
      vertex -2.04508 6.29412 1.17557
      vertex -5.3541 3.88998 1.17557
    endloop
  endfacet
  facet normal 0 -0 1
    outer loop
      vertex -3.54508 2.57565 1.90211
      vertex -1.3541 4.1675 1.90211
      vertex -4.54508 3.3022 1.90211
    endloop
  endfacet
  facet normal 0 0 1
    outer loop
      vertex -1.3541 4.1675 1.90211
      vertex -1.73607 5.34307 1.90211
      vertex -4.54508 3.3022 1.90211
    endloop
  endfacet
  facet normal 0.356822 -0.491126 0.794653
    outer loop
      vertex -2.73607 1.98787 1.17557
      vertex -1.04508 3.21644 1.17557
      vertex -3.54508 2.57565 1.90211
    endloop
  endfacet
  facet normal 0.356822 -0.49112 0.794657
    outer loop
      vertex -1.04508 3.21644 1.17557
      vertex -1.3541 4.1675 1.90211
      vertex -3.54508 2.57565 1.90211
    endloop
  endfacet
  facet normal 0.561582 -0.772954 0.295241
    outer loop
      vertex -2.42705 1.76336 0
      vertex -0.927051 2.85317 0
      vertex -2.73607 1.98787 1.17557
    endloop
  endfacet
  facet normal 0.561582 -0.772955 0.295239
    outer loop
      vertex -0.927051 2.85317 0
      vertex -1.04508 3.21644 1.17557
      vertex -2.73607 1.98787 1.17557
    endloop
  endfacet
  facet normal 0.561582 -0.772955 -0.295241
    outer loop
      vertex -2.73607 1.98787 -1.17557
      vertex -1.04508 3.21644 -1.17557
      vertex -2.42705 1.76336 0
    endloop
  endfacet
  facet normal 0.561583 -0.772955 -0.295239
    outer loop
      vertex -1.04508 3.21644 -1.17557
      vertex -0.927051 2.85317 0
      vertex -2.42705 1.76336 0
    endloop
  endfacet
  facet normal 0.356825 -0.491124 -0.794653
    outer loop
      vertex -3.54508 2.57565 -1.90211
      vertex -1.3541 4.1675 -1.90211
      vertex -2.73607 1.98787 -1.17557
    endloop
  endfacet
  facet normal 0.356819 -0.491122 -0.794657
    outer loop
      vertex -1.3541 4.1675 -1.90211
      vertex -1.04508 3.21644 -1.17557
      vertex -2.73607 1.98787 -1.17557
    endloop
  endfacet
  facet normal 0 0 -1
    outer loop
      vertex -4.54508 3.3022 -1.90211
      vertex -1.73607 5.34307 -1.90211
      vertex -3.54508 2.57565 -1.90211
    endloop
  endfacet
  facet normal 0 -0 -1
    outer loop
      vertex -1.73607 5.34307 -1.90211
      vertex -1.3541 4.1675 -1.90211
      vertex -3.54508 2.57565 -1.90211
    endloop
  endfacet
  facet normal -0.356822 0.491124 -0.794655
    outer loop
      vertex -5.3541 3.88998 -1.17557
      vertex -2.04508 6.29412 -1.17557
      vertex -4.54508 3.3022 -1.90211
    endloop
  endfacet
  facet normal -0.356824 0.491125 -0.794652
    outer loop
      vertex -2.04508 6.29412 -1.17557
      vertex -1.73607 5.34307 -1.90211
      vertex -4.54508 3.3022 -1.90211
    endloop
  endfacet
  facet normal -0.561583 0.772952 -0.295247
    outer loop
      vertex -5.66312 4.1145 0
      vertex -2.16312 6.6574 0
      vertex -5.3541 3.88998 -1.17557
    endloop
  endfacet
  facet normal -0.561581 0.772951 -0.29525
    outer loop
      vertex -2.16312 6.6574 0
      vertex -2.04508 6.29412 -1.17557
      vertex -5.3541 3.88998 -1.17557
    endloop
  endfacet
  facet normal -0 0.955421 0.295248
    outer loop
      vertex -2.04508 6.29412 1.17557
      vertex 2.04508 6.29412 1.17557
      vertex -2.16312 6.6574 0
    endloop
  endfacet
  facet normal 0 0.955421 0.295248
    outer loop
      vertex 2.04508 6.29412 1.17557
      vertex 2.16312 6.6574 0
      vertex -2.16312 6.6574 0
    endloop
  endfacet
  facet normal -0 0.607063 0.794653
    outer loop
      vertex -1.73607 5.34307 1.90211
      vertex 1.73607 5.34307 1.90211
      vertex -2.04508 6.29412 1.17557
    endloop
  endfacet
  facet normal 0 0.607063 0.794653
    outer loop
      vertex 1.73607 5.34307 1.90211
      vertex 2.04508 6.29412 1.17557
      vertex -2.04508 6.29412 1.17557
    endloop
  endfacet
  facet normal 0 -0 1
    outer loop
      vertex -1.3541 4.1675 1.90211
      vertex 1.3541 4.1675 1.90211
      vertex -1.73607 5.34307 1.90211
    endloop
  endfacet
  facet normal 0 -0 1
    outer loop
      vertex 1.3541 4.1675 1.90211
      vertex 1.73607 5.34307 1.90211
      vertex -1.73607 5.34307 1.90211
    endloop
  endfacet
  facet normal 0 -0.607059 0.794657
    outer loop
      vertex -1.04508 3.21644 1.17557
      vertex 1.04508 3.21644 1.17557
      vertex -1.3541 4.1675 1.90211
    endloop
  endfacet
  facet normal 0 -0.607059 0.794657
    outer loop
      vertex 1.04508 3.21644 1.17557
      vertex 1.3541 4.1675 1.90211
      vertex -1.3541 4.1675 1.90211
    endloop
  endfacet
  facet normal 0 -0.955423 0.295241
    outer loop
      vertex -0.927051 2.85317 0
      vertex 0.927051 2.85317 0
      vertex -1.04508 3.21644 1.17557
    endloop
  endfacet
  facet normal 0 -0.955423 0.295241
    outer loop
      vertex 0.927051 2.85317 0
      vertex 1.04508 3.21644 1.17557
      vertex -1.04508 3.21644 1.17557
    endloop
  endfacet
  facet normal 0 -0.955423 -0.295241
    outer loop
      vertex -1.04508 3.21644 -1.17557
      vertex 1.04508 3.21644 -1.17557
      vertex -0.927051 2.85317 0
    endloop
  endfacet
  facet normal 0 -0.955423 -0.295241
    outer loop
      vertex 1.04508 3.21644 -1.17557
      vertex 0.927051 2.85317 0
      vertex -0.927051 2.85317 0
    endloop
  endfacet
  facet normal 0 -0.607059 -0.794657
    outer loop
      vertex -1.3541 4.1675 -1.90211
      vertex 1.3541 4.1675 -1.90211
      vertex -1.04508 3.21644 -1.17557
    endloop
  endfacet
  facet normal 0 -0.607059 -0.794657
    outer loop
      vertex 1.3541 4.1675 -1.90211
      vertex 1.04508 3.21644 -1.17557
      vertex -1.04508 3.21644 -1.17557
    endloop
  endfacet
  facet normal 0 0 -1
    outer loop
      vertex -1.73607 5.34307 -1.90211
      vertex 1.73607 5.34307 -1.90211
      vertex -1.3541 4.1675 -1.90211
    endloop
  endfacet
  facet normal 0 0 -1
    outer loop
      vertex 1.73607 5.34307 -1.90211
      vertex 1.3541 4.1675 -1.90211
      vertex -1.3541 4.1675 -1.90211
    endloop
  endfacet
  facet normal 0 0.607063 -0.794653
    outer loop
      vertex -2.04508 6.29412 -1.17557
      vertex 2.04508 6.29412 -1.17557
      vertex -1.73607 5.34307 -1.90211
    endloop
  endfacet
  facet normal 0 0.607063 -0.794653
    outer loop
      vertex 2.04508 6.29412 -1.17557
      vertex 1.73607 5.34307 -1.90211
      vertex -1.73607 5.34307 -1.90211
    endloop
  endfacet
  facet normal 0 0.955421 -0.295248
    outer loop
      vertex -2.16312 6.6574 0
      vertex 2.16312 6.6574 0
      vertex -2.04508 6.29412 -1.17557
    endloop
  endfacet
  facet normal 0 0.955421 -0.295248
    outer loop
      vertex 2.16312 6.6574 0
      vertex 2.04508 6.29412 -1.17557
      vertex -2.04508 6.29412 -1.17557
    endloop
  endfacet
  facet normal 0.561581 0.772951 0.29525
    outer loop
      vertex 2.04508 6.29412 1.17557
      vertex 5.3541 3.88998 1.17557
      vertex 2.16312 6.6574 0
    endloop
  endfacet
  facet normal 0.561583 0.772952 0.295247
    outer loop
      vertex 5.3541 3.88998 1.17557
      vertex 5.66312 4.1145 0
      vertex 2.16312 6.6574 0
    endloop
  endfacet
  facet normal 0.356824 0.491125 0.794652
    outer loop
      vertex 1.73607 5.34307 1.90211
      vertex 4.54508 3.3022 1.90211
      vertex 2.04508 6.29412 1.17557
    endloop
  endfacet
  facet normal 0.356822 0.491124 0.794655
    outer loop
      vertex 4.54508 3.3022 1.90211
      vertex 5.3541 3.88998 1.17557
      vertex 2.04508 6.29412 1.17557
    endloop
  endfacet
  facet normal -0 0 1
    outer loop
      vertex 1.3541 4.1675 1.90211
      vertex 3.54508 2.57565 1.90211
      vertex 1.73607 5.34307 1.90211
    endloop
  endfacet
  facet normal 0 -0 1
    outer loop
      vertex 3.54508 2.57565 1.90211
      vertex 4.54508 3.3022 1.90211
      vertex 1.73607 5.34307 1.90211
    endloop
  endfacet
  facet normal -0.356819 -0.491122 0.794657
    outer loop
      vertex 1.04508 3.21644 1.17557
      vertex 2.73607 1.98787 1.17557
      vertex 1.3541 4.1675 1.90211
    endloop
  endfacet
  facet normal -0.356825 -0.491124 0.794653
    outer loop
      vertex 2.73607 1.98787 1.17557
      vertex 3.54508 2.57565 1.90211
      vertex 1.3541 4.1675 1.90211
    endloop
  endfacet
  facet normal -0.561583 -0.772955 0.295239
    outer loop
      vertex 0.927051 2.85317 0
      vertex 2.42705 1.76336 0
      vertex 1.04508 3.21644 1.17557
    endloop
  endfacet
  facet normal -0.561582 -0.772955 0.295241
    outer loop
      vertex 2.42705 1.76336 0
      vertex 2.73607 1.98787 1.17557
      vertex 1.04508 3.21644 1.17557
    endloop
  endfacet
  facet normal -0.561582 -0.772955 -0.295239
    outer loop
      vertex 1.04508 3.21644 -1.17557
      vertex 2.73607 1.98787 -1.17557
      vertex 0.927051 2.85317 0
    endloop
  endfacet
  facet normal -0.561582 -0.772954 -0.295241
    outer loop
      vertex 2.73607 1.98787 -1.17557
      vertex 2.42705 1.76336 0
      vertex 0.927051 2.85317 0
    endloop
  endfacet
  facet normal -0.356822 -0.49112 -0.794657
    outer loop
      vertex 1.3541 4.1675 -1.90211
      vertex 3.54508 2.57565 -1.90211
      vertex 1.04508 3.21644 -1.17557
    endloop
  endfacet
  facet normal -0.356822 -0.491126 -0.794653
    outer loop
      vertex 3.54508 2.57565 -1.90211
      vertex 2.73607 1.98787 -1.17557
      vertex 1.04508 3.21644 -1.17557
    endloop
  endfacet
  facet normal 0 -0 -1
    outer loop
      vertex 1.73607 5.34307 -1.90211
      vertex 4.54508 3.3022 -1.90211
      vertex 1.3541 4.1675 -1.90211
    endloop
  endfacet
  facet normal -0 0 -1
    outer loop
      vertex 4.54508 3.3022 -1.90211
      vertex 3.54508 2.57565 -1.90211
      vertex 1.3541 4.1675 -1.90211
    endloop
  endfacet
  facet normal 0.356823 0.491126 -0.794653
    outer loop
      vertex 2.04508 6.29412 -1.17557
      vertex 5.3541 3.88998 -1.17557
      vertex 1.73607 5.34307 -1.90211
    endloop
  endfacet
  facet normal 0.356822 0.491123 -0.794655
    outer loop
      vertex 5.3541 3.88998 -1.17557
      vertex 4.54508 3.3022 -1.90211
      vertex 1.73607 5.34307 -1.90211
    endloop
  endfacet
  facet normal 0.561582 0.772951 -0.29525
    outer loop
      vertex 2.16312 6.6574 0
      vertex 5.66312 4.1145 0
      vertex 2.04508 6.29412 -1.17557
    endloop
  endfacet
  facet normal 0.561582 0.772952 -0.295247
    outer loop
      vertex 5.66312 4.1145 0
      vertex 5.3541 3.88998 -1.17557
      vertex 2.04508 6.29412 -1.17557
    endloop
  endfacet
  facet normal 0.90866 0.295241 0.295245
    outer loop
      vertex 5.3541 3.88998 1.17557
      vertex 6.61803 0 1.17557
      vertex 5.66312 4.1145 0
    endloop
  endfacet
  facet normal 0.90866 0.295241 0.295245
    outer loop
      vertex 6.61803 0 1.17557
      vertex 7 0 0
      vertex 5.66312 4.1145 0
    endloop
  endfacet
  facet normal 0.577349 0.187592 0.794656
    outer loop
      vertex 4.54508 3.3022 1.90211
      vertex 5.61803 0 1.90211
      vertex 5.3541 3.88998 1.17557
    endloop
  endfacet
  facet normal 0.577349 0.187592 0.794656
    outer loop
      vertex 5.61803 0 1.90211
      vertex 6.61803 0 1.17557
      vertex 5.3541 3.88998 1.17557
    endloop
  endfacet
  facet normal -0 0 1
    outer loop
      vertex 3.54508 2.57565 1.90211
      vertex 4.38197 0 1.90211
      vertex 4.54508 3.3022 1.90211
    endloop
  endfacet
  facet normal 0 0 1
    outer loop
      vertex 4.38197 0 1.90211
      vertex 5.61803 0 1.90211
      vertex 4.54508 3.3022 1.90211
    endloop
  endfacet
  facet normal -0.577352 -0.187594 0.794653
    outer loop
      vertex 2.73607 1.98787 1.17557
      vertex 3.38197 0 1.17557
      vertex 3.54508 2.57565 1.90211
    endloop
  endfacet
  facet normal -0.577349 -0.187594 0.794655
    outer loop
      vertex 3.38197 0 1.17557
      vertex 4.38197 0 1.90211
      vertex 3.54508 2.57565 1.90211
    endloop
  endfacet
  facet normal -0.908661 -0.295241 0.295243
    outer loop
      vertex 2.42705 1.76336 0
      vertex 3 0 0
      vertex 2.73607 1.98787 1.17557
    endloop
  endfacet
  facet normal -0.90866 -0.295242 0.295245
    outer loop
      vertex 3 0 0
      vertex 3.38197 0 1.17557
      vertex 2.73607 1.98787 1.17557
    endloop
  endfacet
  facet normal -0.90866 -0.295242 -0.295243
    outer loop
      vertex 2.73607 1.98787 -1.17557
      vertex 3.38197 0 -1.17557
      vertex 2.42705 1.76336 0
    endloop
  endfacet
  facet normal -0.90866 -0.295241 -0.295245
    outer loop
      vertex 3.38197 0 -1.17557
      vertex 3 0 0
      vertex 2.42705 1.76336 0
    endloop
  endfacet
  facet normal -0.577351 -0.187595 -0.794653
    outer loop
      vertex 3.54508 2.57565 -1.90211
      vertex 4.38197 0 -1.90211
      vertex 2.73607 1.98787 -1.17557
    endloop
  endfacet
  facet normal -0.577349 -0.187593 -0.794655
    outer loop
      vertex 4.38197 0 -1.90211
      vertex 3.38197 0 -1.17557
      vertex 2.73607 1.98787 -1.17557
    endloop
  endfacet
  facet normal 0 -0 -1
    outer loop
      vertex 4.54508 3.3022 -1.90211
      vertex 5.61803 0 -1.90211
      vertex 3.54508 2.57565 -1.90211
    endloop
  endfacet
  facet normal 0 0 -1
    outer loop
      vertex 5.61803 0 -1.90211
      vertex 4.38197 0 -1.90211
      vertex 3.54508 2.57565 -1.90211
    endloop
  endfacet
  facet normal 0.577349 0.187592 -0.794656
    outer loop
      vertex 5.3541 3.88998 -1.17557
      vertex 6.61803 0 -1.17557
      vertex 4.54508 3.3022 -1.90211
    endloop
  endfacet
  facet normal 0.577349 0.187592 -0.794655
    outer loop
      vertex 6.61803 0 -1.17557
      vertex 5.61803 0 -1.90211
      vertex 4.54508 3.3022 -1.90211
    endloop
  endfacet
  facet normal 0.90866 0.295241 -0.295245
    outer loop
      vertex 5.66312 4.1145 0
      vertex 7 0 0
      vertex 5.3541 3.88998 -1.17557
    endloop
  endfacet
  facet normal 0.90866 0.295241 -0.295245
    outer loop
      vertex 7 0 0
      vertex 6.61803 0 -1.17557
      vertex 5.3541 3.88998 -1.17557
    endloop
  endfacet
  facet normal 0.90866 -0.295241 0.295245
    outer loop
      vertex 6.61803 0 1.17557
      vertex 5.3541 -3.88998 1.17557
      vertex 7 0 0
    endloop
  endfacet
  facet normal 0.90866 -0.295241 0.295245
    outer loop
      vertex 5.3541 -3.88998 1.17557
      vertex 5.66312 -4.1145 0
      vertex 7 0 0
    endloop
  endfacet
  facet normal 0.577349 -0.187592 0.794655
    outer loop
      vertex 5.61803 0 1.90211
      vertex 4.54508 -3.3022 1.90211
      vertex 6.61803 0 1.17557
    endloop
  endfacet
  facet normal 0.577349 -0.187592 0.794656
    outer loop
      vertex 4.54508 -3.3022 1.90211
      vertex 5.3541 -3.88998 1.17557
      vertex 6.61803 0 1.17557
    endloop
  endfacet
  facet normal -0 0 1
    outer loop
      vertex 4.38197 0 1.90211
      vertex 3.54508 -2.57565 1.90211
      vertex 5.61803 0 1.90211
    endloop
  endfacet
  facet normal -0 0 1
    outer loop
      vertex 3.54508 -2.57565 1.90211
      vertex 4.54508 -3.3022 1.90211
      vertex 5.61803 0 1.90211
    endloop
  endfacet
  facet normal -0.577349 0.187593 0.794655
    outer loop
      vertex 3.38197 0 1.17557
      vertex 2.73607 -1.98787 1.17557
      vertex 4.38197 0 1.90211
    endloop
  endfacet
  facet normal -0.577351 0.187595 0.794653
    outer loop
      vertex 2.73607 -1.98787 1.17557
      vertex 3.54508 -2.57565 1.90211
      vertex 4.38197 0 1.90211
    endloop
  endfacet
  facet normal -0.90866 0.295241 0.295245
    outer loop
      vertex 3 0 0
      vertex 2.42705 -1.76336 0
      vertex 3.38197 0 1.17557
    endloop
  endfacet
  facet normal -0.90866 0.295242 0.295243
    outer loop
      vertex 2.42705 -1.76336 0
      vertex 2.73607 -1.98787 1.17557
      vertex 3.38197 0 1.17557
    endloop
  endfacet
  facet normal -0.90866 0.295242 -0.295245
    outer loop
      vertex 3.38197 0 -1.17557
      vertex 2.73607 -1.98787 -1.17557
      vertex 3 0 0
    endloop
  endfacet
  facet normal -0.908661 0.295241 -0.295243
    outer loop
      vertex 2.73607 -1.98787 -1.17557
      vertex 2.42705 -1.76336 0
      vertex 3 0 0
    endloop
  endfacet
  facet normal -0.577349 0.187594 -0.794655
    outer loop
      vertex 4.38197 0 -1.90211
      vertex 3.54508 -2.57565 -1.90211
      vertex 3.38197 0 -1.17557
    endloop
  endfacet
  facet normal -0.577352 0.187594 -0.794653
    outer loop
      vertex 3.54508 -2.57565 -1.90211
      vertex 2.73607 -1.98787 -1.17557
      vertex 3.38197 0 -1.17557
    endloop
  endfacet
  facet normal -0 0 -1
    outer loop
      vertex 5.61803 0 -1.90211
      vertex 4.54508 -3.3022 -1.90211
      vertex 4.38197 0 -1.90211
    endloop
  endfacet
  facet normal 0 0 -1
    outer loop
      vertex 4.54508 -3.3022 -1.90211
      vertex 3.54508 -2.57565 -1.90211
      vertex 4.38197 0 -1.90211
    endloop
  endfacet
  facet normal 0.577349 -0.187592 -0.794656
    outer loop
      vertex 6.61803 0 -1.17557
      vertex 5.3541 -3.88998 -1.17557
      vertex 5.61803 0 -1.90211
    endloop
  endfacet
  facet normal 0.577349 -0.187592 -0.794656
    outer loop
      vertex 5.3541 -3.88998 -1.17557
      vertex 4.54508 -3.3022 -1.90211
      vertex 5.61803 0 -1.90211
    endloop
  endfacet
  facet normal 0.90866 -0.295241 -0.295245
    outer loop
      vertex 7 0 0
      vertex 5.66312 -4.1145 0
      vertex 6.61803 0 -1.17557
    endloop
  endfacet
  facet normal 0.90866 -0.295241 -0.295245
    outer loop
      vertex 5.66312 -4.1145 0
      vertex 5.3541 -3.88998 -1.17557
      vertex 6.61803 0 -1.17557
    endloop
  endfacet
  facet normal 0.561582 -0.772952 0.295247
    outer loop
      vertex 5.3541 -3.88998 1.17557
      vertex 2.04508 -6.29412 1.17557
      vertex 5.66312 -4.1145 0
    endloop
  endfacet
  facet normal 0.561582 -0.772951 0.29525
    outer loop
      vertex 2.04508 -6.29412 1.17557
      vertex 2.16312 -6.6574 0
      vertex 5.66312 -4.1145 0
    endloop
  endfacet
  facet normal 0.356822 -0.491123 0.794655
    outer loop
      vertex 4.54508 -3.3022 1.90211
      vertex 1.73607 -5.34307 1.90211
      vertex 5.3541 -3.88998 1.17557
    endloop
  endfacet
  facet normal 0.356823 -0.491126 0.794653
    outer loop
      vertex 1.73607 -5.34307 1.90211
      vertex 2.04508 -6.29412 1.17557
      vertex 5.3541 -3.88998 1.17557
    endloop
  endfacet
  facet normal 0 0 1
    outer loop
      vertex 3.54508 -2.57565 1.90211
      vertex 1.3541 -4.1675 1.90211
      vertex 4.54508 -3.3022 1.90211
    endloop
  endfacet
  facet normal -0 0 1
    outer loop
      vertex 1.3541 -4.1675 1.90211
      vertex 1.73607 -5.34307 1.90211
      vertex 4.54508 -3.3022 1.90211
    endloop
  endfacet
  facet normal -0.356822 0.491126 0.794653
    outer loop
      vertex 2.73607 -1.98787 1.17557
      vertex 1.04508 -3.21644 1.17557
      vertex 3.54508 -2.57565 1.90211
    endloop
  endfacet
  facet normal -0.356822 0.49112 0.794657
    outer loop
      vertex 1.04508 -3.21644 1.17557
      vertex 1.3541 -4.1675 1.90211
      vertex 3.54508 -2.57565 1.90211
    endloop
  endfacet
  facet normal -0.561582 0.772954 0.295241
    outer loop
      vertex 2.42705 -1.76336 0
      vertex 0.927051 -2.85317 0
      vertex 2.73607 -1.98787 1.17557
    endloop
  endfacet
  facet normal -0.561582 0.772955 0.295239
    outer loop
      vertex 0.927051 -2.85317 0
      vertex 1.04508 -3.21644 1.17557
      vertex 2.73607 -1.98787 1.17557
    endloop
  endfacet
  facet normal -0.561582 0.772955 -0.295241
    outer loop
      vertex 2.73607 -1.98787 -1.17557
      vertex 1.04508 -3.21644 -1.17557
      vertex 2.42705 -1.76336 0
    endloop
  endfacet
  facet normal -0.561583 0.772955 -0.295239
    outer loop
      vertex 1.04508 -3.21644 -1.17557
      vertex 0.927051 -2.85317 0
      vertex 2.42705 -1.76336 0
    endloop
  endfacet
  facet normal -0.356825 0.491124 -0.794653
    outer loop
      vertex 3.54508 -2.57565 -1.90211
      vertex 1.3541 -4.1675 -1.90211
      vertex 2.73607 -1.98787 -1.17557
    endloop
  endfacet
  facet normal -0.356819 0.491122 -0.794657
    outer loop
      vertex 1.3541 -4.1675 -1.90211
      vertex 1.04508 -3.21644 -1.17557
      vertex 2.73607 -1.98787 -1.17557
    endloop
  endfacet
  facet normal -0 0 -1
    outer loop
      vertex 4.54508 -3.3022 -1.90211
      vertex 1.73607 -5.34307 -1.90211
      vertex 3.54508 -2.57565 -1.90211
    endloop
  endfacet
  facet normal 0 0 -1
    outer loop
      vertex 1.73607 -5.34307 -1.90211
      vertex 1.3541 -4.1675 -1.90211
      vertex 3.54508 -2.57565 -1.90211
    endloop
  endfacet
  facet normal 0.356822 -0.491124 -0.794655
    outer loop
      vertex 5.3541 -3.88998 -1.17557
      vertex 2.04508 -6.29412 -1.17557
      vertex 4.54508 -3.3022 -1.90211
    endloop
  endfacet
  facet normal 0.356824 -0.491125 -0.794652
    outer loop
      vertex 2.04508 -6.29412 -1.17557
      vertex 1.73607 -5.34307 -1.90211
      vertex 4.54508 -3.3022 -1.90211
    endloop
  endfacet
  facet normal 0.561583 -0.772952 -0.295247
    outer loop
      vertex 5.66312 -4.1145 0
      vertex 2.16312 -6.6574 0
      vertex 5.3541 -3.88998 -1.17557
    endloop
  endfacet
  facet normal 0.561581 -0.772951 -0.29525
    outer loop
      vertex 2.16312 -6.6574 0
      vertex 2.04508 -6.29412 -1.17557
      vertex 5.3541 -3.88998 -1.17557
    endloop
  endfacet
  facet normal 0 -0.955421 0.295248
    outer loop
      vertex 2.04508 -6.29412 1.17557
      vertex -2.04508 -6.29412 1.17557
      vertex 2.16312 -6.6574 0
    endloop
  endfacet
  facet normal 0 -0.955421 0.295248
    outer loop
      vertex -2.04508 -6.29412 1.17557
      vertex -2.16312 -6.6574 0
      vertex 2.16312 -6.6574 0
    endloop
  endfacet
  facet normal 0 -0.607063 0.794653
    outer loop
      vertex 1.73607 -5.34307 1.90211
      vertex -1.73607 -5.34307 1.90211
      vertex 2.04508 -6.29412 1.17557
    endloop
  endfacet
  facet normal 0 -0.607063 0.794653
    outer loop
      vertex -1.73607 -5.34307 1.90211
      vertex -2.04508 -6.29412 1.17557
      vertex 2.04508 -6.29412 1.17557
    endloop
  endfacet
  facet normal 0 0 1
    outer loop
      vertex 1.3541 -4.1675 1.90211
      vertex -1.3541 -4.1675 1.90211
      vertex 1.73607 -5.34307 1.90211
    endloop
  endfacet
  facet normal 0 0 1
    outer loop
      vertex -1.3541 -4.1675 1.90211
      vertex -1.73607 -5.34307 1.90211
      vertex 1.73607 -5.34307 1.90211
    endloop
  endfacet
  facet normal 0 0.607059 0.794657
    outer loop
      vertex 1.04508 -3.21644 1.17557
      vertex -1.04508 -3.21644 1.17557
      vertex 1.3541 -4.1675 1.90211
    endloop
  endfacet
  facet normal 0 0.607059 0.794657
    outer loop
      vertex -1.04508 -3.21644 1.17557
      vertex -1.3541 -4.1675 1.90211
      vertex 1.3541 -4.1675 1.90211
    endloop
  endfacet
  facet normal 0 0.955423 0.295241
    outer loop
      vertex 0.927051 -2.85317 0
      vertex -0.927051 -2.85317 0
      vertex 1.04508 -3.21644 1.17557
    endloop
  endfacet
  facet normal 0 0.955423 0.295241
    outer loop
      vertex -0.927051 -2.85317 0
      vertex -1.04508 -3.21644 1.17557
      vertex 1.04508 -3.21644 1.17557
    endloop
  endfacet
  facet normal 0 0.955423 -0.295241
    outer loop
      vertex 1.04508 -3.21644 -1.17557
      vertex -1.04508 -3.21644 -1.17557
      vertex 0.927051 -2.85317 0
    endloop
  endfacet
  facet normal 0 0.955423 -0.295241
    outer loop
      vertex -1.04508 -3.21644 -1.17557
      vertex -0.927051 -2.85317 0
      vertex 0.927051 -2.85317 0
    endloop
  endfacet
  facet normal 0 0.607059 -0.794657
    outer loop
      vertex 1.3541 -4.1675 -1.90211
      vertex -1.3541 -4.1675 -1.90211
      vertex 1.04508 -3.21644 -1.17557
    endloop
  endfacet
  facet normal 0 0.607059 -0.794657
    outer loop
      vertex -1.3541 -4.1675 -1.90211
      vertex -1.04508 -3.21644 -1.17557
      vertex 1.04508 -3.21644 -1.17557
    endloop
  endfacet
  facet normal 0 0 -1
    outer loop
      vertex 1.73607 -5.34307 -1.90211
      vertex -1.73607 -5.34307 -1.90211
      vertex 1.3541 -4.1675 -1.90211
    endloop
  endfacet
  facet normal 0 0 -1
    outer loop
      vertex -1.73607 -5.34307 -1.90211
      vertex -1.3541 -4.1675 -1.90211
      vertex 1.3541 -4.1675 -1.90211
    endloop
  endfacet
  facet normal -0 -0.607063 -0.794653
    outer loop
      vertex 2.04508 -6.29412 -1.17557
      vertex -2.04508 -6.29412 -1.17557
      vertex 1.73607 -5.34307 -1.90211
    endloop
  endfacet
  facet normal 0 -0.607063 -0.794653
    outer loop
      vertex -2.04508 -6.29412 -1.17557
      vertex -1.73607 -5.34307 -1.90211
      vertex 1.73607 -5.34307 -1.90211
    endloop
  endfacet
  facet normal -0 -0.955421 -0.295248
    outer loop
      vertex 2.16312 -6.6574 0
      vertex -2.16312 -6.6574 0
      vertex 2.04508 -6.29412 -1.17557
    endloop
  endfacet
  facet normal 0 -0.955421 -0.295248
    outer loop
      vertex -2.16312 -6.6574 0
      vertex -2.04508 -6.29412 -1.17557
      vertex 2.04508 -6.29412 -1.17557
    endloop
  endfacet
  facet normal -0.561581 -0.772951 0.29525
    outer loop
      vertex -2.04508 -6.29412 1.17557
      vertex -5.3541 -3.88998 1.17557
      vertex -2.16312 -6.6574 0
    endloop
  endfacet
  facet normal -0.561583 -0.772952 0.295247
    outer loop
      vertex -5.3541 -3.88998 1.17557
      vertex -5.66312 -4.1145 0
      vertex -2.16312 -6.6574 0
    endloop
  endfacet
  facet normal -0.356824 -0.491125 0.794652
    outer loop
      vertex -1.73607 -5.34307 1.90211
      vertex -4.54508 -3.3022 1.90211
      vertex -2.04508 -6.29412 1.17557
    endloop
  endfacet
  facet normal -0.356822 -0.491124 0.794655
    outer loop
      vertex -4.54508 -3.3022 1.90211
      vertex -5.3541 -3.88998 1.17557
      vertex -2.04508 -6.29412 1.17557
    endloop
  endfacet
  facet normal 0 0 1
    outer loop
      vertex -1.3541 -4.1675 1.90211
      vertex -3.54508 -2.57565 1.90211
      vertex -1.73607 -5.34307 1.90211
    endloop
  endfacet
  facet normal 0 0 1
    outer loop
      vertex -3.54508 -2.57565 1.90211
      vertex -4.54508 -3.3022 1.90211
      vertex -1.73607 -5.34307 1.90211
    endloop
  endfacet
  facet normal 0.356819 0.491122 0.794657
    outer loop
      vertex -1.04508 -3.21644 1.17557
      vertex -2.73607 -1.98787 1.17557
      vertex -1.3541 -4.1675 1.90211
    endloop
  endfacet
  facet normal 0.356825 0.491124 0.794653
    outer loop
      vertex -2.73607 -1.98787 1.17557
      vertex -3.54508 -2.57565 1.90211
      vertex -1.3541 -4.1675 1.90211
    endloop
  endfacet
  facet normal 0.561583 0.772955 0.295239
    outer loop
      vertex -0.927051 -2.85317 0
      vertex -2.42705 -1.76336 0
      vertex -1.04508 -3.21644 1.17557
    endloop
  endfacet
  facet normal 0.561582 0.772955 0.295241
    outer loop
      vertex -2.42705 -1.76336 0
      vertex -2.73607 -1.98787 1.17557
      vertex -1.04508 -3.21644 1.17557
    endloop
  endfacet
  facet normal 0.561582 0.772955 -0.295239
    outer loop
      vertex -1.04508 -3.21644 -1.17557
      vertex -2.73607 -1.98787 -1.17557
      vertex -0.927051 -2.85317 0
    endloop
  endfacet
  facet normal 0.561582 0.772954 -0.295241
    outer loop
      vertex -2.73607 -1.98787 -1.17557
      vertex -2.42705 -1.76336 0
      vertex -0.927051 -2.85317 0
    endloop
  endfacet
  facet normal 0.356822 0.49112 -0.794657
    outer loop
      vertex -1.3541 -4.1675 -1.90211
      vertex -3.54508 -2.57565 -1.90211
      vertex -1.04508 -3.21644 -1.17557
    endloop
  endfacet
  facet normal 0.356822 0.491126 -0.794653
    outer loop
      vertex -3.54508 -2.57565 -1.90211
      vertex -2.73607 -1.98787 -1.17557
      vertex -1.04508 -3.21644 -1.17557
    endloop
  endfacet
  facet normal 0 0 -1
    outer loop
      vertex -1.73607 -5.34307 -1.90211
      vertex -4.54508 -3.3022 -1.90211
      vertex -1.3541 -4.1675 -1.90211
    endloop
  endfacet
  facet normal 0 0 -1
    outer loop
      vertex -4.54508 -3.3022 -1.90211
      vertex -3.54508 -2.57565 -1.90211
      vertex -1.3541 -4.1675 -1.90211
    endloop
  endfacet
  facet normal -0.356823 -0.491126 -0.794653
    outer loop
      vertex -2.04508 -6.29412 -1.17557
      vertex -5.3541 -3.88998 -1.17557
      vertex -1.73607 -5.34307 -1.90211
    endloop
  endfacet
  facet normal -0.356822 -0.491123 -0.794655
    outer loop
      vertex -5.3541 -3.88998 -1.17557
      vertex -4.54508 -3.3022 -1.90211
      vertex -1.73607 -5.34307 -1.90211
    endloop
  endfacet
  facet normal -0.561582 -0.772951 -0.29525
    outer loop
      vertex -2.16312 -6.6574 0
      vertex -5.66312 -4.1145 0
      vertex -2.04508 -6.29412 -1.17557
    endloop
  endfacet
  facet normal -0.561582 -0.772952 -0.295247
    outer loop
      vertex -5.66312 -4.1145 0
      vertex -5.3541 -3.88998 -1.17557
      vertex -2.04508 -6.29412 -1.17557
    endloop
  endfacet
  facet normal -0.90866 -0.295241 0.295245
    outer loop
      vertex -5.3541 -3.88998 1.17557
      vertex -6.61803 -0 1.17557
      vertex -5.66312 -4.1145 0
    endloop
  endfacet
  facet normal -0.90866 -0.295241 0.295245
    outer loop
      vertex -6.61803 -0 1.17557
      vertex -7 -0 0
      vertex -5.66312 -4.1145 0
    endloop
  endfacet
  facet normal -0.577349 -0.187592 0.794656
    outer loop
      vertex -4.54508 -3.3022 1.90211
      vertex -5.61803 -0 1.90211
      vertex -5.3541 -3.88998 1.17557
    endloop
  endfacet
  facet normal -0.577349 -0.187592 0.794656
    outer loop
      vertex -5.61803 -0 1.90211
      vertex -6.61803 -0 1.17557
      vertex -5.3541 -3.88998 1.17557
    endloop
  endfacet
  facet normal 0 0 1
    outer loop
      vertex -3.54508 -2.57565 1.90211
      vertex -4.38197 -0 1.90211
      vertex -4.54508 -3.3022 1.90211
    endloop
  endfacet
  facet normal 0 0 1
    outer loop
      vertex -4.38197 -0 1.90211
      vertex -5.61803 -0 1.90211
      vertex -4.54508 -3.3022 1.90211
    endloop
  endfacet
  facet normal 0.577352 0.187594 0.794653
    outer loop
      vertex -2.73607 -1.98787 1.17557
      vertex -3.38197 -0 1.17557
      vertex -3.54508 -2.57565 1.90211
    endloop
  endfacet
  facet normal 0.577349 0.187594 0.794655
    outer loop
      vertex -3.38197 -0 1.17557
      vertex -4.38197 -0 1.90211
      vertex -3.54508 -2.57565 1.90211
    endloop
  endfacet
  facet normal 0.908661 0.295241 0.295243
    outer loop
      vertex -2.42705 -1.76336 0
      vertex -3 -0 0
      vertex -2.73607 -1.98787 1.17557
    endloop
  endfacet
  facet normal 0.90866 0.295242 0.295245
    outer loop
      vertex -3 -0 0
      vertex -3.38197 -0 1.17557
      vertex -2.73607 -1.98787 1.17557
    endloop
  endfacet
  facet normal 0.90866 0.295242 -0.295243
    outer loop
      vertex -2.73607 -1.98787 -1.17557
      vertex -3.38197 -0 -1.17557
      vertex -2.42705 -1.76336 0
    endloop
  endfacet
  facet normal 0.90866 0.295241 -0.295245
    outer loop
      vertex -3.38197 -0 -1.17557
      vertex -3 -0 0
      vertex -2.42705 -1.76336 0
    endloop
  endfacet
  facet normal 0.577351 0.187595 -0.794653
    outer loop
      vertex -3.54508 -2.57565 -1.90211
      vertex -4.38197 -0 -1.90211
      vertex -2.73607 -1.98787 -1.17557
    endloop
  endfacet
  facet normal 0.577349 0.187593 -0.794655
    outer loop
      vertex -4.38197 -0 -1.90211
      vertex -3.38197 -0 -1.17557
      vertex -2.73607 -1.98787 -1.17557
    endloop
  endfacet
  facet normal 0 0 -1
    outer loop
      vertex -4.54508 -3.3022 -1.90211
      vertex -5.61803 -0 -1.90211
      vertex -3.54508 -2.57565 -1.90211
    endloop
  endfacet
  facet normal 0 0 -1
    outer loop
      vertex -5.61803 -0 -1.90211
      vertex -4.38197 -0 -1.90211
      vertex -3.54508 -2.57565 -1.90211
    endloop
  endfacet
  facet normal -0.577349 -0.187592 -0.794656
    outer loop
      vertex -5.3541 -3.88998 -1.17557
      vertex -6.61803 -0 -1.17557
      vertex -4.54508 -3.3022 -1.90211
    endloop
  endfacet
  facet normal -0.577349 -0.187592 -0.794655
    outer loop
      vertex -6.61803 -0 -1.17557
      vertex -5.61803 -0 -1.90211
      vertex -4.54508 -3.3022 -1.90211
    endloop
  endfacet
  facet normal -0.90866 -0.295241 -0.295245
    outer loop
      vertex -5.66312 -4.1145 0
      vertex -7 -0 0
      vertex -5.3541 -3.88998 -1.17557
    endloop
  endfacet
  facet normal -0.90866 -0.295241 -0.295245
    outer loop
      vertex -7 -0 0
      vertex -6.61803 -0 -1.17557
      vertex -5.3541 -3.88998 -1.17557
    endloop
  endfacet
endsolid OpenSCAD_Model
