solid OpenSCAD_Model
  facet normal 0 0 -1
    outer loop
      vertex 0 20 0
      vertex 17.3205 10 0
      vertex 0 0 0
    endloop
  endfacet
  facet normal 0 -0 -1
    outer loop
      vertex 17.3205 10 0
      vertex 20 0 0
      vertex 0 0 0
    endloop
  endfacet
  facet normal 0 0 1
    outer loop
      vertex 0 0 20
      vertex 17.3205 10 20
      vertex 0 20 20
    endloop
  endfacet
  facet normal 0 0 1
    outer loop
      vertex 0 0 20
      vertex 20 0 20
      vertex 17.3205 10 20
    endloop
  endfacet
  facet normal 0.5 0.866025 0
    outer loop
      vertex 0 20 0
      vertex 17.3205 10 20
      vertex 17.3205 10 0
    endloop
  endfacet
  facet normal 0.5 0.866025 -0
    outer loop
      vertex 0 20 0
      vertex 0 20 20
      vertex 17.3205 10 20
    endloop
  endfacet
  facet normal -1 0 0
    outer loop
      vertex 0 0 0
      vertex 0 20 20
      vertex 0 20 0
    endloop
  endfacet
  facet normal -1 0 0
    outer loop
      vertex 0 0 0
      vertex 0 0 20
      vertex 0 20 20
    endloop
  endfacet
  facet normal 0 -1 0
    outer loop
      vertex 20 0 0
      vertex 0 0 20
      vertex 0 0 0
    endloop
  endfacet
  facet normal 0 -1 0
    outer loop
      vertex 20 0 0
      vertex 20 0 20
      vertex 0 0 20
    endloop
  endfacet
  facet normal 0.965926 0.25882 0
    outer loop
      vertex 17.3205 10 0
      vertex 20 0 20
      vertex 20 0 0
    endloop
  endfacet
  facet normal 0.965926 0.25882 -0
    outer loop
      vertex 17.3205 10 0
      vertex 17.3205 10 20
      vertex 20 0 20
    endloop
  endfacet
endsolid OpenSCAD_Model
