solid OpenSCAD_Model
  facet normal -0.133335 0.76428 -0.630949
    outer loop
      vertex -43.3013 111.603 43.3013
      vertex 43.3013 111.603 25
      vertex -25 43.3013 -43.3013
    endloop
  endfacet
  facet normal 0 -0.0976074 0.995225
    outer loop
      vertex -100 0 100
      vertex -68.3013 -68.3013 93.3013
      vertex -50 0 100
    endloop
  endfacet
  facet normal 0.593861 -0.504898 0.626424
    outer loop
      vertex 68.3013 -68.3013 25
      vertex 100 0 50
      vertex 0 -86.6025 75
    endloop
  endfacet
  facet normal -0.894427 0 -0.447214
    outer loop
      vertex -100 0 50
      vertex -50 0 -50
      vertex -50 -50 -50
    endloop
  endfacet
  facet normal 0 0.108103 0.99414
    outer loop
      vertex -50 50 100
      vertex -43.3013 111.603 93.3013
      vertex -100 50 100
    endloop
  endfacet
  facet normal 0.619258 -0 0.785187
    outer loop
      vertex 100 0 50
      vertex 100 50 50
      vertex 68.3013 68.3013 75
    endloop
  endfacet
  facet normal 0 0 -1
    outer loop
      vertex -50 0 -50
      vertex 0 0 -50
      vertex -50 -50 -50
    endloop
  endfacet
  facet normal -0.866026 -0.5 -0
    outer loop
      vertex -68.3013 -68.3013 93.3013
      vertex -93.3013 -25 43.3013
      vertex -68.3013 -68.3013 43.3013
    endloop
  endfacet
  facet normal 0.0586654 0.10161 0.993093
    outer loop
      vertex 0 86.6025 93.3013
      vertex -43.3013 111.603 93.3013
      vertex -50 50 100
    endloop
  endfacet
  facet normal 0.171862 -0.297674 0.93907
    outer loop
      vertex 0 -86.6025 75
      vertex -25 -43.3013 93.3013
      vertex -68.3013 -68.3013 93.3013
    endloop
  endfacet
  facet normal 0.194654 0.337144 0.92111
    outer loop
      vertex 43.3013 111.603 75
      vertex -43.3013 111.603 93.3013
      vertex 0 86.6025 93.3013
    endloop
  endfacet
  facet normal 0.132788 0 0.991145
    outer loop
      vertex 0 86.6025 93.3013
      vertex -50 50 100
      vertex -50 0 100
    endloop
  endfacet
  facet normal -1 0 0
    outer loop
      vertex -100 50 50
      vertex -100 0 50
      vertex -100 50 100
    endloop
  endfacet
  facet normal -0.894427 -0 -0.447214
    outer loop
      vertex -100 50 50
      vertex -50 0 -50
      vertex -100 0 50
    endloop
  endfacet
  facet normal 0.152881 0 -0.988245
    outer loop
      vertex 0 0 -50
      vertex 43.3013 -61.6025 -43.3013
      vertex 0 -50 -50
    endloop
  endfacet
  facet normal 0.129409 0.224143 -0.965926
    outer loop
      vertex -25 43.3013 -43.3013
      vertex 18.3013 18.3013 -43.3013
      vertex 0 0 -50
    endloop
  endfacet
  facet normal 0.297673 0.17186 0.939071
    outer loop
      vertex 0 86.6025 93.3013
      vertex 68.3013 68.3013 75
      vertex 43.3013 111.603 75
    endloop
  endfacet
  facet normal 0.433013 -0.250001 0.866025
    outer loop
      vertex 0 -86.6025 75
      vertex 100 0 50
      vertex 25 -43.3013 75
    endloop
  endfacet
  facet normal 0 0 1
    outer loop
      vertex -100 0 100
      vertex -50 50 100
      vertex -100 50 100
    endloop
  endfacet
  facet normal 0 -0 1
    outer loop
      vertex -50 0 100
      vertex -50 50 100
      vertex -100 0 100
    endloop
  endfacet
  facet normal -0.735789 0.677211 0
    outer loop
      vertex -43.3013 111.603 93.3013
      vertex -43.3013 111.603 43.3013
      vertex -100 50 100
    endloop
  endfacet
  facet normal 0.735789 0.677211 0
    outer loop
      vertex 100 50 50
      vertex 100 50 0
      vertex 43.3013 111.603 75
    endloop
  endfacet
  facet normal -0.546668 -0.794923 -0.263157
    outer loop
      vertex 0 -86.6025 -43.3013
      vertex -68.3013 -68.3013 43.3013
      vertex -50 -50 -50
    endloop
  endfacet
  facet normal -1 -0 0
    outer loop
      vertex -100 50 100
      vertex -100 0 50
      vertex -100 0 100
    endloop
  endfacet
  facet normal 0.866026 -0.5 0
    outer loop
      vertex 93.3013 -25 -25
      vertex 93.3013 -25 25
      vertex 68.3013 -68.3013 -25
    endloop
  endfacet
  facet normal 0 0.152881 -0.988245
    outer loop
      vertex -25 43.3013 -43.3013
      vertex 0 0 -50
      vertex -50 0 -50
    endloop
  endfacet
  facet normal 0.246642 -0.0474662 0.967944
    outer loop
      vertex -25 -43.3013 93.3013
      vertex 68.3013 68.3013 75
      vertex 0 86.6025 93.3013
    endloop
  endfacet
  facet normal -0.836516 -0.482963 -0.258819
    outer loop
      vertex -68.3013 -68.3013 43.3013
      vertex -93.3013 -25 43.3013
      vertex -50 -50 -50
    endloop
  endfacet
  facet normal 0.258818 -0.965926 0
    outer loop
      vertex 0 -86.6025 75
      vertex 68.3013 -68.3013 -25
      vertex 68.3013 -68.3013 25
    endloop
  endfacet
  facet normal 0.0663937 -0.114997 0.991145
    outer loop
      vertex -68.3013 -68.3013 93.3013
      vertex -25 -43.3013 93.3013
      vertex -50 0 100
    endloop
  endfacet
  facet normal -0.258818 -0.965926 -0
    outer loop
      vertex 0 -86.6025 75
      vertex -68.3013 -68.3013 43.3013
      vertex 0 -86.6025 -43.3013
    endloop
  endfacet
  facet normal -0 -0.180022 -0.983663
    outer loop
      vertex 0 -50 -50
      vertex 0 -86.6025 -43.3013
      vertex -50 -50 -50
    endloop
  endfacet
  facet normal 0.866026 -0.5 0
    outer loop
      vertex 68.3013 -68.3013 -25
      vertex 93.3013 -25 25
      vertex 68.3013 -68.3013 25
    endloop
  endfacet
  facet normal 0.33715 -0.194654 0.921108
    outer loop
      vertex 25 -43.3013 75
      vertex -25 -43.3013 93.3013
      vertex 0 -86.6025 75
    endloop
  endfacet
  facet normal -0.669022 0.474729 -0.571876
    outer loop
      vertex -25 43.3013 -43.3013
      vertex -50 0 -50
      vertex -100 50 50
    endloop
  endfacet
  facet normal 0 0 -1
    outer loop
      vertex -50 -50 -50
      vertex 0 0 -50
      vertex 0 -50 -50
    endloop
  endfacet
  facet normal -0.641733 0.530409 -0.553937
    outer loop
      vertex -100 50 50
      vertex -43.3013 111.603 43.3013
      vertex -25 43.3013 -43.3013
    endloop
  endfacet
  facet normal -0.735789 0.677211 0
    outer loop
      vertex -100 50 100
      vertex -43.3013 111.603 43.3013
      vertex -100 50 50
    endloop
  endfacet
  facet normal 0.284294 0.0889489 -0.954602
    outer loop
      vertex 93.3013 -25 -25
      vertex 43.3013 -61.6025 -43.3013
      vertex 18.3013 18.3013 -43.3013
    endloop
  endfacet
  facet normal 0.965926 -0.258818 0
    outer loop
      vertex 100 0 0
      vertex 93.3013 -25 25
      vertex 93.3013 -25 -25
    endloop
  endfacet
  facet normal 0.965926 0 -0.258818
    outer loop
      vertex 93.3013 -25 -25
      vertex 100 50 0
      vertex 100 0 0
    endloop
  endfacet
  facet normal 0.246721 0.55069 -0.797414
    outer loop
      vertex 43.3013 111.603 25
      vertex 100 50 0
      vertex -25 43.3013 -43.3013
    endloop
  endfacet
  facet normal -0.258818 -0.965926 -0
    outer loop
      vertex -68.3013 -68.3013 93.3013
      vertex -68.3013 -68.3013 43.3013
      vertex 0 -86.6025 75
    endloop
  endfacet
  facet normal -0.61237 -0.353552 0.707109
    outer loop
      vertex -100 0 100
      vertex -93.3013 -25 93.3013
      vertex -68.3013 -68.3013 93.3013
    endloop
  endfacet
  facet normal -0.965926 -0.258818 0
    outer loop
      vertex -100 0 50
      vertex -93.3013 -25 43.3013
      vertex -100 0 100
    endloop
  endfacet
  facet normal -0.911897 -0.14107 -0.385413
    outer loop
      vertex -50 -50 -50
      vertex -93.3013 -25 43.3013
      vertex -100 0 50
    endloop
  endfacet
  facet normal 0.390137 -0.151372 0.908229
    outer loop
      vertex 100 0 50
      vertex 68.3013 68.3013 75
      vertex 25 -43.3013 75
    endloop
  endfacet
  facet normal 0.19688 -0.0378897 0.979695
    outer loop
      vertex -50 0 100
      vertex -25 -43.3013 93.3013
      vertex 0 86.6025 93.3013
    endloop
  endfacet
  facet normal 0.698795 0.403445 0.590693
    outer loop
      vertex 68.3013 68.3013 75
      vertex 100 50 50
      vertex 43.3013 111.603 75
    endloop
  endfacet
  facet normal 0.340708 -0.132193 0.930829
    outer loop
      vertex 25 -43.3013 75
      vertex 68.3013 68.3013 75
      vertex -25 -43.3013 93.3013
    endloop
  endfacet
  facet normal 0.258818 -0.965926 0
    outer loop
      vertex 0 -86.6025 -43.3013
      vertex 68.3013 -68.3013 -25
      vertex 0 -86.6025 75
    endloop
  endfacet
  facet normal 0.511553 -0.295345 -0.806898
    outer loop
      vertex 68.3013 -68.3013 -25
      vertex 43.3013 -61.6025 -43.3013
      vertex 93.3013 -25 -25
    endloop
  endfacet
  facet normal 0 1 0
    outer loop
      vertex -43.3013 111.603 93.3013
      vertex 43.3013 111.603 25
      vertex -43.3013 111.603 43.3013
    endloop
  endfacet
  facet normal 0 1 0
    outer loop
      vertex 43.3013 111.603 75
      vertex 43.3013 111.603 25
      vertex -43.3013 111.603 93.3013
    endloop
  endfacet
  facet normal -0.866026 -0.5 -0
    outer loop
      vertex -93.3013 -25 93.3013
      vertex -93.3013 -25 43.3013
      vertex -68.3013 -68.3013 93.3013
    endloop
  endfacet
  facet normal -0.965926 -0.258818 0
    outer loop
      vertex -100 0 100
      vertex -93.3013 -25 43.3013
      vertex -93.3013 -25 93.3013
    endloop
  endfacet
  facet normal 1 0 0
    outer loop
      vertex 100 0 0
      vertex 100 50 0
      vertex 100 0 50
    endloop
  endfacet
  facet normal 1 -0 0
    outer loop
      vertex 100 0 50
      vertex 100 50 0
      vertex 100 50 50
    endloop
  endfacet
  facet normal 0.965926 -0.258818 0
    outer loop
      vertex 100 0 50
      vertex 93.3013 -25 25
      vertex 100 0 0
    endloop
  endfacet
  facet normal 0.836516 -0.482963 0.25882
    outer loop
      vertex 68.3013 -68.3013 25
      vertex 93.3013 -25 25
      vertex 100 0 50
    endloop
  endfacet
  facet normal 0.369761 0.263926 -0.890853
    outer loop
      vertex 18.3013 18.3013 -43.3013
      vertex 100 50 0
      vertex 93.3013 -25 -25
    endloop
  endfacet
  facet normal 0.26761 0.0837289 -0.959882
    outer loop
      vertex 18.3013 18.3013 -43.3013
      vertex 43.3013 -61.6025 -43.3013
      vertex 0 0 -50
    endloop
  endfacet
  facet normal 0.353553 -0.612372 -0.707107
    outer loop
      vertex 0 -86.6025 -43.3013
      vertex 43.3013 -61.6025 -43.3013
      vertex 68.3013 -68.3013 -25
    endloop
  endfacet
  facet normal 0.103379 -0.179058 -0.978392
    outer loop
      vertex 0 -50 -50
      vertex 43.3013 -61.6025 -43.3013
      vertex 0 -86.6025 -43.3013
    endloop
  endfacet
  facet normal 0.267719 0.463704 -0.844574
    outer loop
      vertex -25 43.3013 -43.3013
      vertex 100 50 0
      vertex 18.3013 18.3013 -43.3013
    endloop
  endfacet
  facet normal 0.735789 0.677211 0
    outer loop
      vertex 43.3013 111.603 75
      vertex 100 50 0
      vertex 43.3013 111.603 25
    endloop
  endfacet
endsolid OpenSCAD_Model
