solid OpenSCAD_Model
  facet normal -0.906036 0 -0.4232
    outer loop
      vertex -0.0809011 -0.0587778 0
      vertex -0.0404501 0.0293884 -0.0866022
      vertex -0.0404501 -0.0293884 -0.0866022
    endloop
  endfacet
  facet normal 0.732998 -0.532556 0.4232
    outer loop
      vertex 0.0999994 0 0
      vertex 0.0499992 0 0.0866022
      vertex 0.0154505 -0.0475521 0.0866022
    endloop
  endfacet
  facet normal -0.279987 -0.861688 0.423202
    outer loop
      vertex 0.0154505 -0.0475521 0.0866022
      vertex -0.0404501 -0.0293884 0.0866022
      vertex -0.0809011 -0.0587778 0
    endloop
  endfacet
  facet normal 0 0 -1
    outer loop
      vertex -0.0404501 0.0293884 -0.0866022
      vertex 0.0154505 -0.0475521 -0.0866022
      vertex -0.0404501 -0.0293884 -0.0866022
    endloop
  endfacet
  facet normal 0.732998 0.532556 -0.4232
    outer loop
      vertex 0.0154505 0.0475521 -0.0866022
      vertex 0.0999994 0 0
      vertex 0.0499992 0 -0.0866022
    endloop
  endfacet
  facet normal -0.906036 -0 -0.4232
    outer loop
      vertex -0.0809011 0.0587778 0
      vertex -0.0404501 0.0293884 -0.0866022
      vertex -0.0809011 -0.0587778 0
    endloop
  endfacet
  facet normal -0 0 1
    outer loop
      vertex -0.0404501 0.0293884 0.0866022
      vertex 0.0499992 0 0.0866022
      vertex 0.0154505 0.0475521 0.0866022
    endloop
  endfacet
  facet normal -0.279987 0.861688 -0.423202
    outer loop
      vertex 0.0154505 0.0475521 -0.0866022
      vertex -0.0404501 0.0293884 -0.0866022
      vertex -0.0809011 0.0587778 0
    endloop
  endfacet
  facet normal -0.279985 -0.86169 0.423201
    outer loop
      vertex -0.0809011 -0.0587778 0
      vertex 0.030901 -0.0951052 0
      vertex 0.0154505 -0.0475521 0.0866022
    endloop
  endfacet
  facet normal 0 -0 -1
    outer loop
      vertex 0.0154505 0.0475521 -0.0866022
      vertex 0.0154505 -0.0475521 -0.0866022
      vertex -0.0404501 0.0293884 -0.0866022
    endloop
  endfacet
  facet normal 0.732998 -0.532557 0.423199
    outer loop
      vertex 0.030901 -0.0951052 0
      vertex 0.0999994 0 0
      vertex 0.0154505 -0.0475521 0.0866022
    endloop
  endfacet
  facet normal -0 0 -1
    outer loop
      vertex 0.0499992 0 -0.0866022
      vertex 0.0154505 -0.0475521 -0.0866022
      vertex 0.0154505 0.0475521 -0.0866022
    endloop
  endfacet
  facet normal 0.732998 0.532557 -0.423199
    outer loop
      vertex 0.030901 0.0951052 0
      vertex 0.0999994 0 0
      vertex 0.0154505 0.0475521 -0.0866022
    endloop
  endfacet
  facet normal -0.279985 0.86169 -0.423201
    outer loop
      vertex -0.0809011 0.0587778 0
      vertex 0.030901 0.0951052 0
      vertex 0.0154505 0.0475521 -0.0866022
    endloop
  endfacet
  facet normal -0.906036 0 0.4232
    outer loop
      vertex -0.0809011 -0.0587778 0
      vertex -0.0404501 0.0293884 0.0866022
      vertex -0.0809011 0.0587778 0
    endloop
  endfacet
  facet normal -0.906036 0 0.4232
    outer loop
      vertex -0.0404501 -0.0293884 0.0866022
      vertex -0.0404501 0.0293884 0.0866022
      vertex -0.0809011 -0.0587778 0
    endloop
  endfacet
  facet normal -0.279985 -0.86169 -0.423201
    outer loop
      vertex -0.0809011 -0.0587778 0
      vertex 0.0154505 -0.0475521 -0.0866022
      vertex 0.030901 -0.0951052 0
    endloop
  endfacet
  facet normal -0.279987 -0.861688 -0.423202
    outer loop
      vertex -0.0404501 -0.0293884 -0.0866022
      vertex 0.0154505 -0.0475521 -0.0866022
      vertex -0.0809011 -0.0587778 0
    endloop
  endfacet
  facet normal 0.732998 -0.532557 -0.423199
    outer loop
      vertex 0.0154505 -0.0475521 -0.0866022
      vertex 0.0999994 0 0
      vertex 0.030901 -0.0951052 0
    endloop
  endfacet
  facet normal 0.732998 -0.532556 -0.4232
    outer loop
      vertex 0.0499992 0 -0.0866022
      vertex 0.0999994 0 0
      vertex 0.0154505 -0.0475521 -0.0866022
    endloop
  endfacet
  facet normal 0.732998 0.532557 0.423199
    outer loop
      vertex 0.030901 0.0951052 0
      vertex 0.0154505 0.0475521 0.0866022
      vertex 0.0999994 0 0
    endloop
  endfacet
  facet normal -0.279985 0.86169 0.423201
    outer loop
      vertex -0.0809011 0.0587778 0
      vertex 0.0154505 0.0475521 0.0866022
      vertex 0.030901 0.0951052 0
    endloop
  endfacet
  facet normal 0.732998 0.532556 0.4232
    outer loop
      vertex 0.0154505 0.0475521 0.0866022
      vertex 0.0499992 0 0.0866022
      vertex 0.0999994 0 0
    endloop
  endfacet
  facet normal -0.279987 0.861688 0.423202
    outer loop
      vertex -0.0809011 0.0587778 0
      vertex -0.0404501 0.0293884 0.0866022
      vertex 0.0154505 0.0475521 0.0866022
    endloop
  endfacet
  facet normal 0 0 1
    outer loop
      vertex -0.0404501 -0.0293884 0.0866022
      vertex 0.0499992 0 0.0866022
      vertex -0.0404501 0.0293884 0.0866022
    endloop
  endfacet
  facet normal 0 -0 1
    outer loop
      vertex 0.0154505 -0.0475521 0.0866022
      vertex 0.0499992 0 0.0866022
      vertex -0.0404501 -0.0293884 0.0866022
    endloop
  endfacet
endsolid OpenSCAD_Model
