solid OpenSCAD_Model
  facet normal 1 -0 0
    outer loop
      vertex 100 0 20
      vertex 100 100 0
      vertex 100 100 20
    endloop
  endfacet
  facet normal 1 0 0
    outer loop
      vertex 100 100 0
      vertex 100 0 20
      vertex 100 0 0
    endloop
  endfacet
  facet normal -0 0 1
    outer loop
      vertex 0 100 20
      vertex 100 0 20
      vertex 100 100 20
    endloop
  endfacet
  facet normal 0 0 1
    outer loop
      vertex 100 0 20
      vertex 0 100 20
      vertex 0 0 20
    endloop
  endfacet
  facet normal 0 0 -1
    outer loop
      vertex 0 0 0
      vertex 100 100 0
      vertex 100 0 0
    endloop
  endfacet
  facet normal -0 0 -1
    outer loop
      vertex 100 100 0
      vertex 0 0 0
      vertex 0 100 0
    endloop
  endfacet
  facet normal -1 0 0
    outer loop
      vertex 0 0 0
      vertex 0 100 20
      vertex 0 100 0
    endloop
  endfacet
  facet normal -1 -0 0
    outer loop
      vertex 0 100 20
      vertex 0 0 0
      vertex 0 0 20
    endloop
  endfacet
  facet normal 0 1 -0
    outer loop
      vertex 100 100 0
      vertex 0 100 20
      vertex 100 100 20
    endloop
  endfacet
  facet normal 0 1 0
    outer loop
      vertex 0 100 20
      vertex 100 100 0
      vertex 0 100 0
    endloop
  endfacet
  facet normal 0 -1 0
    outer loop
      vertex 0 0 0
      vertex 100 0 20
      vertex 0 0 20
    endloop
  endfacet
  facet normal 0 -1 -0
    outer loop
      vertex 100 0 20
      vertex 0 0 0
      vertex 100 0 0
    endloop
  endfacet
  facet normal -1 0 0
    outer loop
      vertex 75 25 5
      vertex 75 75 15
      vertex 75 75 5
    endloop
  endfacet
  facet normal -1 -0 0
    outer loop
      vertex 75 75 15
      vertex 75 25 5
      vertex 75 25 15
    endloop
  endfacet
  facet normal 0 0 -1
    outer loop
      vertex 25 25 15
      vertex 75 75 15
      vertex 75 25 15
    endloop
  endfacet
  facet normal -0 0 -1
    outer loop
      vertex 75 75 15
      vertex 25 25 15
      vertex 25 75 15
    endloop
  endfacet
  facet normal -0 0 1
    outer loop
      vertex 25 75 5
      vertex 75 25 5
      vertex 75 75 5
    endloop
  endfacet
  facet normal 0 0 1
    outer loop
      vertex 75 25 5
      vertex 25 75 5
      vertex 25 25 5
    endloop
  endfacet
  facet normal 1 -0 0
    outer loop
      vertex 25 25 15
      vertex 25 75 5
      vertex 25 75 15
    endloop
  endfacet
  facet normal 1 0 0
    outer loop
      vertex 25 75 5
      vertex 25 25 15
      vertex 25 25 5
    endloop
  endfacet
  facet normal 0 -1 0
    outer loop
      vertex 25 75 5
      vertex 75 75 15
      vertex 25 75 15
    endloop
  endfacet
  facet normal 0 -1 -0
    outer loop
      vertex 75 75 15
      vertex 25 75 5
      vertex 75 75 5
    endloop
  endfacet
  facet normal 0 1 -0
    outer loop
      vertex 75 25 5
      vertex 25 25 15
      vertex 75 25 15
    endloop
  endfacet
  facet normal 0 1 0
    outer loop
      vertex 25 25 15
      vertex 75 25 5
      vertex 25 25 5
    endloop
  endfacet
endsolid OpenSCAD_Model
