solid OpenSCAD_Model
  facet normal -0.743143 -0.669133 0
    outer loop
      vertex -26.7652 -29.7258 0
      vertex -32.3607 -23.5114 70
      vertex -32.3607 -23.5114 0
    endloop
  endfacet
  facet normal -0.743143 -0.669133 0
    outer loop
      vertex -32.3607 -23.5114 70
      vertex -26.7652 -29.7258 0
      vertex -26.7652 -29.7258 70
    endloop
  endfacet
  facet normal 0.951056 0.309017 0
    outer loop
      vertex 39.1259 8.31647 70
      vertex 36.5418 16.2695 0
      vertex 36.5418 16.2695 70
    endloop
  endfacet
  facet normal 0.951056 0.309017 0
    outer loop
      vertex 36.5418 16.2695 0
      vertex 39.1259 8.31647 70
      vertex 39.1259 8.31647 0
    endloop
  endfacet
  facet normal 0.994522 0.104529 0
    outer loop
      vertex 40 0 70
      vertex 39.1259 8.31647 0
      vertex 39.1259 8.31647 70
    endloop
  endfacet
  facet normal 0.994522 0.104529 0
    outer loop
      vertex 39.1259 8.31647 0
      vertex 40 0 70
      vertex 40 0 0
    endloop
  endfacet
  facet normal 0.866026 0.499999 0
    outer loop
      vertex 36.5418 16.2695 70
      vertex 32.3607 23.5114 0
      vertex 32.3607 23.5114 70
    endloop
  endfacet
  facet normal 0.866026 0.499999 0
    outer loop
      vertex 32.3607 23.5114 0
      vertex 36.5418 16.2695 70
      vertex 36.5418 16.2695 0
    endloop
  endfacet
  facet normal 0.951056 -0.309017 0
    outer loop
      vertex 36.5418 -16.2695 70
      vertex 39.1259 -8.31647 0
      vertex 39.1259 -8.31647 70
    endloop
  endfacet
  facet normal 0.951056 -0.309017 0
    outer loop
      vertex 39.1259 -8.31647 0
      vertex 36.5418 -16.2695 70
      vertex 36.5418 -16.2695 0
    endloop
  endfacet
  facet normal 0.587785 -0.809017 0
    outer loop
      vertex 20 -34.641 0
      vertex 26.7652 -29.7258 70
      vertex 20 -34.641 70
    endloop
  endfacet
  facet normal 0.587785 -0.809017 0
    outer loop
      vertex 26.7652 -29.7258 70
      vertex 20 -34.641 0
      vertex 26.7652 -29.7258 0
    endloop
  endfacet
  facet normal 0.743143 -0.669133 0
    outer loop
      vertex 26.7652 -29.7258 70
      vertex 32.3607 -23.5114 0
      vertex 32.3607 -23.5114 70
    endloop
  endfacet
  facet normal 0.743143 -0.669133 0
    outer loop
      vertex 32.3607 -23.5114 0
      vertex 26.7652 -29.7258 70
      vertex 26.7652 -29.7258 0
    endloop
  endfacet
  facet normal 0.994522 -0.104529 0
    outer loop
      vertex 39.1259 -8.31647 70
      vertex 40 0 0
      vertex 40 0 70
    endloop
  endfacet
  facet normal 0.994522 -0.104529 0
    outer loop
      vertex 40 0 0
      vertex 39.1259 -8.31647 70
      vertex 39.1259 -8.31647 0
    endloop
  endfacet
  facet normal -0.406743 -0.913543 0
    outer loop
      vertex -20 -34.641 0
      vertex -12.3607 -38.0423 70
      vertex -20 -34.641 70
    endloop
  endfacet
  facet normal -0.406743 -0.913543 -0
    outer loop
      vertex -12.3607 -38.0423 70
      vertex -20 -34.641 0
      vertex -12.3607 -38.0423 0
    endloop
  endfacet
  facet normal 0.406743 0.913543 -0
    outer loop
      vertex 20 34.641 0
      vertex 12.3607 38.0423 70
      vertex 20 34.641 70
    endloop
  endfacet
  facet normal 0.406743 0.913543 0
    outer loop
      vertex 12.3607 38.0423 70
      vertex 20 34.641 0
      vertex 12.3607 38.0423 0
    endloop
  endfacet
  facet normal 0.743143 0.669133 0
    outer loop
      vertex 32.3607 23.5114 70
      vertex 26.7652 29.7258 0
      vertex 26.7652 29.7258 70
    endloop
  endfacet
  facet normal 0.743143 0.669133 0
    outer loop
      vertex 26.7652 29.7258 0
      vertex 32.3607 23.5114 70
      vertex 32.3607 23.5114 0
    endloop
  endfacet
  facet normal -0.587785 -0.809017 0
    outer loop
      vertex -26.7652 -29.7258 0
      vertex -20 -34.641 70
      vertex -26.7652 -29.7258 70
    endloop
  endfacet
  facet normal -0.587785 -0.809017 -0
    outer loop
      vertex -20 -34.641 70
      vertex -26.7652 -29.7258 0
      vertex -20 -34.641 0
    endloop
  endfacet
  facet normal -0.743143 0.669133 0
    outer loop
      vertex -32.3607 23.5114 0
      vertex -26.7652 29.7258 70
      vertex -26.7652 29.7258 0
    endloop
  endfacet
  facet normal -0.743143 0.669133 0
    outer loop
      vertex -26.7652 29.7258 70
      vertex -32.3607 23.5114 0
      vertex -32.3607 23.5114 70
    endloop
  endfacet
  facet normal 0 1 -0
    outer loop
      vertex 4.18114 39.7809 0
      vertex -4.18114 39.7809 70
      vertex 4.18114 39.7809 70
    endloop
  endfacet
  facet normal 0 1 0
    outer loop
      vertex -4.18114 39.7809 70
      vertex 4.18114 39.7809 0
      vertex -4.18114 39.7809 0
    endloop
  endfacet
  facet normal 0.406743 -0.913543 0
    outer loop
      vertex 12.3607 -38.0423 0
      vertex 20 -34.641 70
      vertex 12.3607 -38.0423 70
    endloop
  endfacet
  facet normal 0.406743 -0.913543 0
    outer loop
      vertex 20 -34.641 70
      vertex 12.3607 -38.0423 0
      vertex 20 -34.641 0
    endloop
  endfacet
  facet normal 0.207909 -0.978148 0
    outer loop
      vertex 4.18114 -39.7809 0
      vertex 12.3607 -38.0423 70
      vertex 4.18114 -39.7809 70
    endloop
  endfacet
  facet normal 0.207909 -0.978148 0
    outer loop
      vertex 12.3607 -38.0423 70
      vertex 4.18114 -39.7809 0
      vertex 12.3607 -38.0423 0
    endloop
  endfacet
  facet normal -0.951056 0.309017 0
    outer loop
      vertex -39.1259 8.31647 0
      vertex -36.5418 16.2695 70
      vertex -36.5418 16.2695 0
    endloop
  endfacet
  facet normal -0.951056 0.309017 0
    outer loop
      vertex -36.5418 16.2695 70
      vertex -39.1259 8.31647 0
      vertex -39.1259 8.31647 70
    endloop
  endfacet
  facet normal 0 0 -1
    outer loop
      vertex 37 0 0
      vertex 40 0 0
      vertex 39.1259 -8.31647 0
    endloop
  endfacet
  facet normal 0 0 -1
    outer loop
      vertex 40 0 0
      vertex 37 0 0
      vertex 39.1259 8.31647 0
    endloop
  endfacet
  facet normal 0 0 -1
    outer loop
      vertex 36.1915 -7.69273 0
      vertex 39.1259 -8.31647 0
      vertex 36.5418 -16.2695 0
    endloop
  endfacet
  facet normal 0 0 -1
    outer loop
      vertex 39.1259 -8.31647 0
      vertex 36.1915 -7.69273 0
      vertex 37 0 0
    endloop
  endfacet
  facet normal 0 0 -1
    outer loop
      vertex 36.5418 -16.2695 0
      vertex 33.8012 -15.0493 0
      vertex 36.1915 -7.69273 0
    endloop
  endfacet
  facet normal 0 0 -1
    outer loop
      vertex 32.3607 -23.5114 0
      vertex 33.8012 -15.0493 0
      vertex 36.5418 -16.2695 0
    endloop
  endfacet
  facet normal 0 0 -1
    outer loop
      vertex 32.3607 -23.5114 0
      vertex 29.9336 -21.7481 0
      vertex 33.8012 -15.0493 0
    endloop
  endfacet
  facet normal 0 0 -1
    outer loop
      vertex 26.7652 -29.7258 0
      vertex 29.9336 -21.7481 0
      vertex 32.3607 -23.5114 0
    endloop
  endfacet
  facet normal 0 0 -1
    outer loop
      vertex 26.7652 -29.7258 0
      vertex 24.7578 -27.4964 0
      vertex 29.9336 -21.7481 0
    endloop
  endfacet
  facet normal 0 0 -1
    outer loop
      vertex 20 -34.641 0
      vertex 24.7578 -27.4964 0
      vertex 26.7652 -29.7258 0
    endloop
  endfacet
  facet normal 0 0 -1
    outer loop
      vertex 20 -34.641 0
      vertex 18.5 -32.0429 0
      vertex 24.7578 -27.4964 0
    endloop
  endfacet
  facet normal 0 0 -1
    outer loop
      vertex 12.3607 -38.0423 0
      vertex 18.5 -32.0429 0
      vertex 20 -34.641 0
    endloop
  endfacet
  facet normal 0 0 -1
    outer loop
      vertex 12.3607 -38.0423 0
      vertex 11.4336 -35.1891 0
      vertex 18.5 -32.0429 0
    endloop
  endfacet
  facet normal 0 0 -1
    outer loop
      vertex 4.18114 -39.7809 0
      vertex 11.4336 -35.1891 0
      vertex 12.3607 -38.0423 0
    endloop
  endfacet
  facet normal 0 0 -1
    outer loop
      vertex 4.18114 -39.7809 0
      vertex 3.86755 -36.7973 0
      vertex 11.4336 -35.1891 0
    endloop
  endfacet
  facet normal 0 0 -1
    outer loop
      vertex 4.18114 -39.7809 0
      vertex -3.86755 -36.7973 0
      vertex 3.86755 -36.7973 0
    endloop
  endfacet
  facet normal 0 0 -1
    outer loop
      vertex -4.18114 -39.7809 0
      vertex -3.86755 -36.7973 0
      vertex 4.18114 -39.7809 0
    endloop
  endfacet
  facet normal 0 0 -1
    outer loop
      vertex -4.18114 -39.7809 0
      vertex -11.4336 -35.1891 0
      vertex -3.86755 -36.7973 0
    endloop
  endfacet
  facet normal 0 0 -1
    outer loop
      vertex -12.3607 -38.0423 0
      vertex -11.4336 -35.1891 0
      vertex -4.18114 -39.7809 0
    endloop
  endfacet
  facet normal 0 0 -1
    outer loop
      vertex -12.3607 -38.0423 0
      vertex -18.5 -32.0429 0
      vertex -11.4336 -35.1891 0
    endloop
  endfacet
  facet normal 0 0 -1
    outer loop
      vertex -20 -34.641 0
      vertex -18.5 -32.0429 0
      vertex -12.3607 -38.0423 0
    endloop
  endfacet
  facet normal 0 0 -1
    outer loop
      vertex -20 -34.641 0
      vertex -24.7578 -27.4964 0
      vertex -18.5 -32.0429 0
    endloop
  endfacet
  facet normal 0 0 -1
    outer loop
      vertex -26.7652 -29.7258 0
      vertex -24.7578 -27.4964 0
      vertex -20 -34.641 0
    endloop
  endfacet
  facet normal 0 0 -1
    outer loop
      vertex -26.7652 -29.7258 0
      vertex -29.9336 -21.7481 0
      vertex -24.7578 -27.4964 0
    endloop
  endfacet
  facet normal 0 0 -1
    outer loop
      vertex -32.3607 -23.5114 0
      vertex -29.9336 -21.7481 0
      vertex -26.7652 -29.7258 0
    endloop
  endfacet
  facet normal 0 0 -1
    outer loop
      vertex -32.3607 -23.5114 0
      vertex -33.8012 -15.0493 0
      vertex -29.9336 -21.7481 0
    endloop
  endfacet
  facet normal 0 0 -1
    outer loop
      vertex -36.5418 -16.2695 0
      vertex -33.8012 -15.0493 0
      vertex -32.3607 -23.5114 0
    endloop
  endfacet
  facet normal -0 0 -1
    outer loop
      vertex -33.8012 -15.0493 0
      vertex -36.5418 -16.2695 0
      vertex -36.1915 -7.69273 0
    endloop
  endfacet
  facet normal 0 0 -1
    outer loop
      vertex -39.1259 -8.31647 0
      vertex -36.1915 -7.69273 0
      vertex -36.5418 -16.2695 0
    endloop
  endfacet
  facet normal -0 0 -1
    outer loop
      vertex -36.1915 -7.69273 0
      vertex -39.1259 -8.31647 0
      vertex -37 0 0
    endloop
  endfacet
  facet normal 0 0 -1
    outer loop
      vertex 36.1915 7.69273 0
      vertex 39.1259 8.31647 0
      vertex 37 0 0
    endloop
  endfacet
  facet normal -0 0 -1
    outer loop
      vertex 39.1259 8.31647 0
      vertex 36.1915 7.69273 0
      vertex 36.5418 16.2695 0
    endloop
  endfacet
  facet normal 0 0 -1
    outer loop
      vertex 33.8012 15.0493 0
      vertex 36.5418 16.2695 0
      vertex 36.1915 7.69273 0
    endloop
  endfacet
  facet normal 0 0 -1
    outer loop
      vertex 33.8012 15.0493 0
      vertex 32.3607 23.5114 0
      vertex 36.5418 16.2695 0
    endloop
  endfacet
  facet normal 0 0 -1
    outer loop
      vertex 29.9336 21.7481 0
      vertex 32.3607 23.5114 0
      vertex 33.8012 15.0493 0
    endloop
  endfacet
  facet normal 0 0 -1
    outer loop
      vertex 29.9336 21.7481 0
      vertex 26.7652 29.7258 0
      vertex 32.3607 23.5114 0
    endloop
  endfacet
  facet normal 0 0 -1
    outer loop
      vertex 24.7578 27.4964 0
      vertex 26.7652 29.7258 0
      vertex 29.9336 21.7481 0
    endloop
  endfacet
  facet normal 0 0 -1
    outer loop
      vertex 24.7578 27.4964 0
      vertex 20 34.641 0
      vertex 26.7652 29.7258 0
    endloop
  endfacet
  facet normal 0 0 -1
    outer loop
      vertex 18.5 32.0429 0
      vertex 20 34.641 0
      vertex 24.7578 27.4964 0
    endloop
  endfacet
  facet normal 0 0 -1
    outer loop
      vertex 18.5 32.0429 0
      vertex 12.3607 38.0423 0
      vertex 20 34.641 0
    endloop
  endfacet
  facet normal 0 0 -1
    outer loop
      vertex 11.4336 35.1891 0
      vertex 12.3607 38.0423 0
      vertex 18.5 32.0429 0
    endloop
  endfacet
  facet normal 0 0 -1
    outer loop
      vertex 11.4336 35.1891 0
      vertex 4.18114 39.7809 0
      vertex 12.3607 38.0423 0
    endloop
  endfacet
  facet normal 0 0 -1
    outer loop
      vertex 3.86755 36.7973 0
      vertex 4.18114 39.7809 0
      vertex 11.4336 35.1891 0
    endloop
  endfacet
  facet normal 0 0 -1
    outer loop
      vertex -3.86755 36.7973 0
      vertex 4.18114 39.7809 0
      vertex 3.86755 36.7973 0
    endloop
  endfacet
  facet normal 0 0 -1
    outer loop
      vertex -3.86755 36.7973 0
      vertex -4.18114 39.7809 0
      vertex 4.18114 39.7809 0
    endloop
  endfacet
  facet normal 0 0 -1
    outer loop
      vertex -11.4336 35.1891 0
      vertex -4.18114 39.7809 0
      vertex -3.86755 36.7973 0
    endloop
  endfacet
  facet normal 0 0 -1
    outer loop
      vertex -11.4336 35.1891 0
      vertex -12.3607 38.0423 0
      vertex -4.18114 39.7809 0
    endloop
  endfacet
  facet normal 0 0 -1
    outer loop
      vertex -18.5 32.0429 0
      vertex -12.3607 38.0423 0
      vertex -11.4336 35.1891 0
    endloop
  endfacet
  facet normal 0 0 -1
    outer loop
      vertex -18.5 32.0429 0
      vertex -20 34.641 0
      vertex -12.3607 38.0423 0
    endloop
  endfacet
  facet normal 0 0 -1
    outer loop
      vertex -24.7578 27.4964 0
      vertex -20 34.641 0
      vertex -18.5 32.0429 0
    endloop
  endfacet
  facet normal 0 0 -1
    outer loop
      vertex -24.7578 27.4964 0
      vertex -26.7652 29.7258 0
      vertex -20 34.641 0
    endloop
  endfacet
  facet normal 0 0 -1
    outer loop
      vertex -29.9336 21.7481 0
      vertex -26.7652 29.7258 0
      vertex -24.7578 27.4964 0
    endloop
  endfacet
  facet normal 0 0 -1
    outer loop
      vertex -29.9336 21.7481 0
      vertex -32.3607 23.5114 0
      vertex -26.7652 29.7258 0
    endloop
  endfacet
  facet normal 0 0 -1
    outer loop
      vertex -33.8012 15.0493 0
      vertex -32.3607 23.5114 0
      vertex -29.9336 21.7481 0
    endloop
  endfacet
  facet normal 0 0 -1
    outer loop
      vertex -36.5418 16.2695 0
      vertex -33.8012 15.0493 0
      vertex -36.1915 7.69273 0
    endloop
  endfacet
  facet normal 0 0 -1
    outer loop
      vertex -33.8012 15.0493 0
      vertex -36.5418 16.2695 0
      vertex -32.3607 23.5114 0
    endloop
  endfacet
  facet normal 0 0 -1
    outer loop
      vertex -39.1259 8.31647 0
      vertex -36.1915 7.69273 0
      vertex -37 0 0
    endloop
  endfacet
  facet normal 0 0 -1
    outer loop
      vertex -40 0 0
      vertex -37 0 0
      vertex -39.1259 -8.31647 0
    endloop
  endfacet
  facet normal 0 0 -1
    outer loop
      vertex -36.1915 7.69273 0
      vertex -39.1259 8.31647 0
      vertex -36.5418 16.2695 0
    endloop
  endfacet
  facet normal 0 0 -1
    outer loop
      vertex -37 0 0
      vertex -40 0 0
      vertex -39.1259 8.31647 0
    endloop
  endfacet
  facet normal -0.951056 -0.309017 0
    outer loop
      vertex -36.5418 -16.2695 0
      vertex -39.1259 -8.31647 70
      vertex -39.1259 -8.31647 0
    endloop
  endfacet
  facet normal -0.951056 -0.309017 0
    outer loop
      vertex -39.1259 -8.31647 70
      vertex -36.5418 -16.2695 0
      vertex -36.5418 -16.2695 70
    endloop
  endfacet
  facet normal -0.406743 0.913543 0
    outer loop
      vertex -12.3607 38.0423 0
      vertex -20 34.641 70
      vertex -12.3607 38.0423 70
    endloop
  endfacet
  facet normal -0.406743 0.913543 0
    outer loop
      vertex -20 34.641 70
      vertex -12.3607 38.0423 0
      vertex -20 34.641 0
    endloop
  endfacet
  facet normal 0 0 1
    outer loop
      vertex 30 0 70
      vertex 40 0 70
      vertex 39.1259 8.31647 70
    endloop
  endfacet
  facet normal 0 0 1
    outer loop
      vertex 29.3444 6.23735 70
      vertex 39.1259 8.31647 70
      vertex 36.5418 16.2695 70
    endloop
  endfacet
  facet normal 0 0 1
    outer loop
      vertex 40 0 70
      vertex 30 0 70
      vertex 39.1259 -8.31647 70
    endloop
  endfacet
  facet normal 0 0 1
    outer loop
      vertex 27.4064 12.2021 70
      vertex 36.5418 16.2695 70
      vertex 32.3607 23.5114 70
    endloop
  endfacet
  facet normal -0 0 1
    outer loop
      vertex 29.3444 -6.23735 70
      vertex 39.1259 -8.31647 70
      vertex 30 0 70
    endloop
  endfacet
  facet normal 0 0 1
    outer loop
      vertex 39.1259 -8.31647 70
      vertex 29.3444 -6.23735 70
      vertex 36.5418 -16.2695 70
    endloop
  endfacet
  facet normal 0 0 1
    outer loop
      vertex 39.1259 8.31647 70
      vertex 29.3444 6.23735 70
      vertex 30 0 70
    endloop
  endfacet
  facet normal 0 0 1
    outer loop
      vertex 36.5418 16.2695 70
      vertex 27.4064 12.2021 70
      vertex 29.3444 6.23735 70
    endloop
  endfacet
  facet normal 0 0 1
    outer loop
      vertex 24.2705 17.6336 70
      vertex 32.3607 23.5114 70
      vertex 26.7652 29.7258 70
    endloop
  endfacet
  facet normal 0 0 1
    outer loop
      vertex 32.3607 23.5114 70
      vertex 24.2705 17.6336 70
      vertex 27.4064 12.2021 70
    endloop
  endfacet
  facet normal 0 0 1
    outer loop
      vertex 26.7652 29.7258 70
      vertex 20.0739 22.2943 70
      vertex 24.2705 17.6336 70
    endloop
  endfacet
  facet normal 0 0 1
    outer loop
      vertex 20 34.641 70
      vertex 20.0739 22.2943 70
      vertex 26.7652 29.7258 70
    endloop
  endfacet
  facet normal 0 0 1
    outer loop
      vertex 20 34.641 70
      vertex 15 25.9808 70
      vertex 20.0739 22.2943 70
    endloop
  endfacet
  facet normal 0 0 1
    outer loop
      vertex 12.3607 38.0423 70
      vertex 15 25.9808 70
      vertex 20 34.641 70
    endloop
  endfacet
  facet normal 0 0 1
    outer loop
      vertex 12.3607 38.0423 70
      vertex 9.27051 28.5317 70
      vertex 15 25.9808 70
    endloop
  endfacet
  facet normal 0 0 1
    outer loop
      vertex 4.18114 39.7809 70
      vertex 9.27051 28.5317 70
      vertex 12.3607 38.0423 70
    endloop
  endfacet
  facet normal 0 0 1
    outer loop
      vertex 4.18114 39.7809 70
      vertex 3.13585 29.8357 70
      vertex 9.27051 28.5317 70
    endloop
  endfacet
  facet normal 0 0 1
    outer loop
      vertex 4.18114 39.7809 70
      vertex -3.13585 29.8357 70
      vertex 3.13585 29.8357 70
    endloop
  endfacet
  facet normal -0 0 1
    outer loop
      vertex -4.18114 39.7809 70
      vertex -3.13585 29.8357 70
      vertex 4.18114 39.7809 70
    endloop
  endfacet
  facet normal 0 0 1
    outer loop
      vertex -4.18114 39.7809 70
      vertex -9.27051 28.5317 70
      vertex -3.13585 29.8357 70
    endloop
  endfacet
  facet normal -0 0 1
    outer loop
      vertex -12.3607 38.0423 70
      vertex -9.27051 28.5317 70
      vertex -4.18114 39.7809 70
    endloop
  endfacet
  facet normal 0 0 1
    outer loop
      vertex -12.3607 38.0423 70
      vertex -15 25.9808 70
      vertex -9.27051 28.5317 70
    endloop
  endfacet
  facet normal -0 0 1
    outer loop
      vertex -20 34.641 70
      vertex -15 25.9808 70
      vertex -12.3607 38.0423 70
    endloop
  endfacet
  facet normal 0 0 1
    outer loop
      vertex -20 34.641 70
      vertex -20.0739 22.2943 70
      vertex -15 25.9808 70
    endloop
  endfacet
  facet normal -0 0 1
    outer loop
      vertex -26.7652 29.7258 70
      vertex -20.0739 22.2943 70
      vertex -20 34.641 70
    endloop
  endfacet
  facet normal 0 0 1
    outer loop
      vertex -20.0739 22.2943 70
      vertex -26.7652 29.7258 70
      vertex -24.2705 17.6336 70
    endloop
  endfacet
  facet normal -0 0 1
    outer loop
      vertex -32.3607 23.5114 70
      vertex -24.2705 17.6336 70
      vertex -26.7652 29.7258 70
    endloop
  endfacet
  facet normal 0 0 1
    outer loop
      vertex -24.2705 17.6336 70
      vertex -32.3607 23.5114 70
      vertex -27.4064 12.2021 70
    endloop
  endfacet
  facet normal 0 0 1
    outer loop
      vertex -27.4064 12.2021 70
      vertex -36.5418 16.2695 70
      vertex -29.3444 6.23735 70
    endloop
  endfacet
  facet normal -0 0 1
    outer loop
      vertex -36.5418 16.2695 70
      vertex -27.4064 12.2021 70
      vertex -32.3607 23.5114 70
    endloop
  endfacet
  facet normal -0 0 1
    outer loop
      vertex 27.4064 -12.2021 70
      vertex 36.5418 -16.2695 70
      vertex 29.3444 -6.23735 70
    endloop
  endfacet
  facet normal 0 0 1
    outer loop
      vertex 36.5418 -16.2695 70
      vertex 27.4064 -12.2021 70
      vertex 32.3607 -23.5114 70
    endloop
  endfacet
  facet normal -0 0 1
    outer loop
      vertex 24.2705 -17.6336 70
      vertex 32.3607 -23.5114 70
      vertex 27.4064 -12.2021 70
    endloop
  endfacet
  facet normal 0 0 1
    outer loop
      vertex 32.3607 -23.5114 70
      vertex 24.2705 -17.6336 70
      vertex 26.7652 -29.7258 70
    endloop
  endfacet
  facet normal -0 0 1
    outer loop
      vertex 20.0739 -22.2943 70
      vertex 26.7652 -29.7258 70
      vertex 24.2705 -17.6336 70
    endloop
  endfacet
  facet normal 0 0 1
    outer loop
      vertex 20.0739 -22.2943 70
      vertex 20 -34.641 70
      vertex 26.7652 -29.7258 70
    endloop
  endfacet
  facet normal -0 0 1
    outer loop
      vertex 15 -25.9808 70
      vertex 20 -34.641 70
      vertex 20.0739 -22.2943 70
    endloop
  endfacet
  facet normal 0 0 1
    outer loop
      vertex 15 -25.9808 70
      vertex 12.3607 -38.0423 70
      vertex 20 -34.641 70
    endloop
  endfacet
  facet normal -0 0 1
    outer loop
      vertex 9.27051 -28.5317 70
      vertex 12.3607 -38.0423 70
      vertex 15 -25.9808 70
    endloop
  endfacet
  facet normal 0 0 1
    outer loop
      vertex 9.27051 -28.5317 70
      vertex 4.18114 -39.7809 70
      vertex 12.3607 -38.0423 70
    endloop
  endfacet
  facet normal -0 0 1
    outer loop
      vertex 3.13585 -29.8357 70
      vertex 4.18114 -39.7809 70
      vertex 9.27051 -28.5317 70
    endloop
  endfacet
  facet normal -0 0 1
    outer loop
      vertex -3.13585 -29.8357 70
      vertex 4.18114 -39.7809 70
      vertex 3.13585 -29.8357 70
    endloop
  endfacet
  facet normal 0 0 1
    outer loop
      vertex -3.13585 -29.8357 70
      vertex -4.18114 -39.7809 70
      vertex 4.18114 -39.7809 70
    endloop
  endfacet
  facet normal 0 0 1
    outer loop
      vertex -9.27051 -28.5317 70
      vertex -4.18114 -39.7809 70
      vertex -3.13585 -29.8357 70
    endloop
  endfacet
  facet normal 0 0 1
    outer loop
      vertex -9.27051 -28.5317 70
      vertex -12.3607 -38.0423 70
      vertex -4.18114 -39.7809 70
    endloop
  endfacet
  facet normal 0 0 1
    outer loop
      vertex -15 -25.9808 70
      vertex -12.3607 -38.0423 70
      vertex -9.27051 -28.5317 70
    endloop
  endfacet
  facet normal 0 0 1
    outer loop
      vertex -15 -25.9808 70
      vertex -20 -34.641 70
      vertex -12.3607 -38.0423 70
    endloop
  endfacet
  facet normal 0 0 1
    outer loop
      vertex -20.0739 -22.2943 70
      vertex -20 -34.641 70
      vertex -15 -25.9808 70
    endloop
  endfacet
  facet normal 0 0 1
    outer loop
      vertex -26.7652 -29.7258 70
      vertex -20.0739 -22.2943 70
      vertex -24.2705 -17.6336 70
    endloop
  endfacet
  facet normal 0 0 1
    outer loop
      vertex -20.0739 -22.2943 70
      vertex -26.7652 -29.7258 70
      vertex -20 -34.641 70
    endloop
  endfacet
  facet normal 0 0 1
    outer loop
      vertex -32.3607 -23.5114 70
      vertex -24.2705 -17.6336 70
      vertex -27.4064 -12.2021 70
    endloop
  endfacet
  facet normal 0 0 1
    outer loop
      vertex -36.5418 -16.2695 70
      vertex -27.4064 -12.2021 70
      vertex -29.3444 -6.23735 70
    endloop
  endfacet
  facet normal 0 0 1
    outer loop
      vertex -24.2705 -17.6336 70
      vertex -32.3607 -23.5114 70
      vertex -26.7652 -29.7258 70
    endloop
  endfacet
  facet normal 0 0 1
    outer loop
      vertex -39.1259 -8.31647 70
      vertex -29.3444 -6.23735 70
      vertex -30 0 70
    endloop
  endfacet
  facet normal -0 0 1
    outer loop
      vertex -39.1259 8.31647 70
      vertex -29.3444 6.23735 70
      vertex -36.5418 16.2695 70
    endloop
  endfacet
  facet normal 0 0 1
    outer loop
      vertex -29.3444 6.23735 70
      vertex -39.1259 8.31647 70
      vertex -30 0 70
    endloop
  endfacet
  facet normal 0 0 1
    outer loop
      vertex -27.4064 -12.2021 70
      vertex -36.5418 -16.2695 70
      vertex -32.3607 -23.5114 70
    endloop
  endfacet
  facet normal 0 0 1
    outer loop
      vertex -40 0 70
      vertex -30 0 70
      vertex -39.1259 8.31647 70
    endloop
  endfacet
  facet normal 0 0 1
    outer loop
      vertex -29.3444 -6.23735 70
      vertex -39.1259 -8.31647 70
      vertex -36.5418 -16.2695 70
    endloop
  endfacet
  facet normal 0 0 1
    outer loop
      vertex -30 0 70
      vertex -40 0 70
      vertex -39.1259 -8.31647 70
    endloop
  endfacet
  facet normal 0 0 1
    outer loop
      vertex 29.3444 6.23735 70
      vertex 29.3444 -6.23735 70
      vertex 30 0 70
    endloop
  endfacet
  facet normal 0 0 1
    outer loop
      vertex 27.4064 12.2021 70
      vertex 29.3444 -6.23735 70
      vertex 29.3444 6.23735 70
    endloop
  endfacet
  facet normal 0 0 1
    outer loop
      vertex 27.4064 12.2021 70
      vertex 27.4064 -12.2021 70
      vertex 29.3444 -6.23735 70
    endloop
  endfacet
  facet normal 0 0 1
    outer loop
      vertex 24.2705 17.6336 70
      vertex 27.4064 -12.2021 70
      vertex 27.4064 12.2021 70
    endloop
  endfacet
  facet normal 0 0 1
    outer loop
      vertex 24.2705 17.6336 70
      vertex 24.2705 -17.6336 70
      vertex 27.4064 -12.2021 70
    endloop
  endfacet
  facet normal 0 0 1
    outer loop
      vertex 20.0739 22.2943 70
      vertex 24.2705 -17.6336 70
      vertex 24.2705 17.6336 70
    endloop
  endfacet
  facet normal 0 0 1
    outer loop
      vertex 20.0739 22.2943 70
      vertex 20.0739 -22.2943 70
      vertex 24.2705 -17.6336 70
    endloop
  endfacet
  facet normal 0 0 1
    outer loop
      vertex 15 25.9808 70
      vertex 20.0739 -22.2943 70
      vertex 20.0739 22.2943 70
    endloop
  endfacet
  facet normal 0 0 1
    outer loop
      vertex 15 25.9808 70
      vertex 15 -25.9808 70
      vertex 20.0739 -22.2943 70
    endloop
  endfacet
  facet normal 0 0 1
    outer loop
      vertex 9.27051 28.5317 70
      vertex 15 -25.9808 70
      vertex 15 25.9808 70
    endloop
  endfacet
  facet normal 0 0 1
    outer loop
      vertex 9.27051 28.5317 70
      vertex 9.27051 -28.5317 70
      vertex 15 -25.9808 70
    endloop
  endfacet
  facet normal 0 0 1
    outer loop
      vertex 3.13585 29.8357 70
      vertex 9.27051 -28.5317 70
      vertex 9.27051 28.5317 70
    endloop
  endfacet
  facet normal 0 0 1
    outer loop
      vertex 3.13585 29.8357 70
      vertex 3.13585 -29.8357 70
      vertex 9.27051 -28.5317 70
    endloop
  endfacet
  facet normal -0 0 1
    outer loop
      vertex -3.13585 29.8357 70
      vertex 3.13585 -29.8357 70
      vertex 3.13585 29.8357 70
    endloop
  endfacet
  facet normal 0 0 1
    outer loop
      vertex -3.13585 29.8357 70
      vertex -3.13585 -29.8357 70
      vertex 3.13585 -29.8357 70
    endloop
  endfacet
  facet normal -0 0 1
    outer loop
      vertex -9.27051 28.5317 70
      vertex -3.13585 -29.8357 70
      vertex -3.13585 29.8357 70
    endloop
  endfacet
  facet normal 0 0 1
    outer loop
      vertex -9.27051 28.5317 70
      vertex -9.27051 -28.5317 70
      vertex -3.13585 -29.8357 70
    endloop
  endfacet
  facet normal -0 0 1
    outer loop
      vertex -15 25.9808 70
      vertex -9.27051 -28.5317 70
      vertex -9.27051 28.5317 70
    endloop
  endfacet
  facet normal 0 0 1
    outer loop
      vertex -15 25.9808 70
      vertex -15 -25.9808 70
      vertex -9.27051 -28.5317 70
    endloop
  endfacet
  facet normal -0 0 1
    outer loop
      vertex -20.0739 22.2943 70
      vertex -15 -25.9808 70
      vertex -15 25.9808 70
    endloop
  endfacet
  facet normal 0 0 1
    outer loop
      vertex -20.0739 22.2943 70
      vertex -20.0739 -22.2943 70
      vertex -15 -25.9808 70
    endloop
  endfacet
  facet normal -0 0 1
    outer loop
      vertex -24.2705 17.6336 70
      vertex -20.0739 -22.2943 70
      vertex -20.0739 22.2943 70
    endloop
  endfacet
  facet normal 0 0 1
    outer loop
      vertex -24.2705 17.6336 70
      vertex -24.2705 -17.6336 70
      vertex -20.0739 -22.2943 70
    endloop
  endfacet
  facet normal -0 0 1
    outer loop
      vertex -27.4064 12.2021 70
      vertex -24.2705 -17.6336 70
      vertex -24.2705 17.6336 70
    endloop
  endfacet
  facet normal 0 0 1
    outer loop
      vertex -27.4064 12.2021 70
      vertex -27.4064 -12.2021 70
      vertex -24.2705 -17.6336 70
    endloop
  endfacet
  facet normal -0 0 1
    outer loop
      vertex -29.3444 6.23735 70
      vertex -27.4064 -12.2021 70
      vertex -27.4064 12.2021 70
    endloop
  endfacet
  facet normal 0 0 1
    outer loop
      vertex -29.3444 6.23735 70
      vertex -29.3444 -6.23735 70
      vertex -27.4064 -12.2021 70
    endloop
  endfacet
  facet normal 0 -0 1
    outer loop
      vertex -29.3444 -6.23735 70
      vertex -29.3444 6.23735 70
      vertex -30 0 70
    endloop
  endfacet
  facet normal -0.207909 -0.978148 0
    outer loop
      vertex -12.3607 -38.0423 0
      vertex -4.18114 -39.7809 70
      vertex -12.3607 -38.0423 70
    endloop
  endfacet
  facet normal -0.207909 -0.978148 -0
    outer loop
      vertex -4.18114 -39.7809 70
      vertex -12.3607 -38.0423 0
      vertex -4.18114 -39.7809 0
    endloop
  endfacet
  facet normal 0.207909 0.978148 -0
    outer loop
      vertex 12.3607 38.0423 0
      vertex 4.18114 39.7809 70
      vertex 12.3607 38.0423 70
    endloop
  endfacet
  facet normal 0.207909 0.978148 0
    outer loop
      vertex 4.18114 39.7809 70
      vertex 12.3607 38.0423 0
      vertex 4.18114 39.7809 0
    endloop
  endfacet
  facet normal -0.994522 -0.104529 0
    outer loop
      vertex -39.1259 -8.31647 0
      vertex -40 0 70
      vertex -40 0 0
    endloop
  endfacet
  facet normal -0.994522 -0.104529 0
    outer loop
      vertex -40 0 70
      vertex -39.1259 -8.31647 0
      vertex -39.1259 -8.31647 70
    endloop
  endfacet
  facet normal -0.994522 0.104529 0
    outer loop
      vertex -40 0 0
      vertex -39.1259 8.31647 70
      vertex -39.1259 8.31647 0
    endloop
  endfacet
  facet normal -0.994522 0.104529 0
    outer loop
      vertex -39.1259 8.31647 70
      vertex -40 0 0
      vertex -40 0 70
    endloop
  endfacet
  facet normal -0.866026 -0.499999 0
    outer loop
      vertex -32.3607 -23.5114 0
      vertex -36.5418 -16.2695 70
      vertex -36.5418 -16.2695 0
    endloop
  endfacet
  facet normal -0.866026 -0.499999 0
    outer loop
      vertex -36.5418 -16.2695 70
      vertex -32.3607 -23.5114 0
      vertex -32.3607 -23.5114 70
    endloop
  endfacet
  facet normal -0.866026 0.499999 0
    outer loop
      vertex -36.5418 16.2695 0
      vertex -32.3607 23.5114 70
      vertex -32.3607 23.5114 0
    endloop
  endfacet
  facet normal -0.866026 0.499999 0
    outer loop
      vertex -32.3607 23.5114 70
      vertex -36.5418 16.2695 0
      vertex -36.5418 16.2695 70
    endloop
  endfacet
  facet normal 0.866026 -0.499999 0
    outer loop
      vertex 32.3607 -23.5114 70
      vertex 36.5418 -16.2695 0
      vertex 36.5418 -16.2695 70
    endloop
  endfacet
  facet normal 0.866026 -0.499999 0
    outer loop
      vertex 36.5418 -16.2695 0
      vertex 32.3607 -23.5114 70
      vertex 32.3607 -23.5114 0
    endloop
  endfacet
  facet normal 0.587785 0.809017 -0
    outer loop
      vertex 26.7652 29.7258 0
      vertex 20 34.641 70
      vertex 26.7652 29.7258 70
    endloop
  endfacet
  facet normal 0.587785 0.809017 0
    outer loop
      vertex 20 34.641 70
      vertex 26.7652 29.7258 0
      vertex 20 34.641 0
    endloop
  endfacet
  facet normal -0.587785 0.809017 0
    outer loop
      vertex -20 34.641 0
      vertex -26.7652 29.7258 70
      vertex -20 34.641 70
    endloop
  endfacet
  facet normal -0.587785 0.809017 0
    outer loop
      vertex -26.7652 29.7258 70
      vertex -20 34.641 0
      vertex -26.7652 29.7258 0
    endloop
  endfacet
  facet normal -0.207909 0.978148 0
    outer loop
      vertex -4.18114 39.7809 0
      vertex -12.3607 38.0423 70
      vertex -4.18114 39.7809 70
    endloop
  endfacet
  facet normal -0.207909 0.978148 0
    outer loop
      vertex -12.3607 38.0423 70
      vertex -4.18114 39.7809 0
      vertex -12.3607 38.0423 0
    endloop
  endfacet
  facet normal 0 -1 0
    outer loop
      vertex -4.18114 -39.7809 0
      vertex 4.18114 -39.7809 70
      vertex -4.18114 -39.7809 70
    endloop
  endfacet
  facet normal 0 -1 -0
    outer loop
      vertex 4.18114 -39.7809 70
      vertex -4.18114 -39.7809 0
      vertex 4.18114 -39.7809 0
    endloop
  endfacet
  facet normal 0.743144 -0.669131 0
    outer loop
      vertex -29.9336 21.7481 50
      vertex -24.7578 27.4964 0
      vertex -24.7578 27.4964 50
    endloop
  endfacet
  facet normal 0.743144 -0.669131 0
    outer loop
      vertex -24.7578 27.4964 0
      vertex -29.9336 21.7481 50
      vertex -29.9336 21.7481 0
    endloop
  endfacet
  facet normal -0.951056 -0.309018 0
    outer loop
      vertex 36.1915 7.69273 0
      vertex 33.8012 15.0493 50
      vertex 33.8012 15.0493 0
    endloop
  endfacet
  facet normal -0.951056 -0.309018 0
    outer loop
      vertex 33.8012 15.0493 50
      vertex 36.1915 7.69273 0
      vertex 36.1915 7.69273 50
    endloop
  endfacet
  facet normal -0.994522 -0.104524 0
    outer loop
      vertex 37 0 0
      vertex 36.1915 7.69273 50
      vertex 36.1915 7.69273 0
    endloop
  endfacet
  facet normal -0.994522 -0.104524 0
    outer loop
      vertex 36.1915 7.69273 50
      vertex 37 0 0
      vertex 37 0 50
    endloop
  endfacet
  facet normal -0.866023 -0.500004 0
    outer loop
      vertex 33.8012 15.0493 0
      vertex 29.9336 21.7481 50
      vertex 29.9336 21.7481 0
    endloop
  endfacet
  facet normal -0.866023 -0.500004 0
    outer loop
      vertex 29.9336 21.7481 50
      vertex 33.8012 15.0493 0
      vertex 33.8012 15.0493 50
    endloop
  endfacet
  facet normal -0.951056 0.309018 0
    outer loop
      vertex 33.8012 -15.0493 0
      vertex 36.1915 -7.69273 50
      vertex 36.1915 -7.69273 0
    endloop
  endfacet
  facet normal -0.951056 0.309018 0
    outer loop
      vertex 36.1915 -7.69273 50
      vertex 33.8012 -15.0493 0
      vertex 33.8012 -15.0493 50
    endloop
  endfacet
  facet normal 0.866023 0.500004 0
    outer loop
      vertex -29.9336 -21.7481 50
      vertex -33.8012 -15.0493 0
      vertex -33.8012 -15.0493 50
    endloop
  endfacet
  facet normal 0.866023 0.500004 0
    outer loop
      vertex -33.8012 -15.0493 0
      vertex -29.9336 -21.7481 50
      vertex -29.9336 -21.7481 0
    endloop
  endfacet
  facet normal -0.994522 0.104524 0
    outer loop
      vertex 36.1915 -7.69273 0
      vertex 37 0 50
      vertex 37 0 0
    endloop
  endfacet
  facet normal -0.994522 0.104524 0
    outer loop
      vertex 37 0 50
      vertex 36.1915 -7.69273 0
      vertex 36.1915 -7.69273 50
    endloop
  endfacet
  facet normal 0.58778 -0.809021 0
    outer loop
      vertex -24.7578 27.4964 0
      vertex -18.5 32.0429 50
      vertex -24.7578 27.4964 50
    endloop
  endfacet
  facet normal 0.58778 -0.809021 0
    outer loop
      vertex -18.5 32.0429 50
      vertex -24.7578 27.4964 0
      vertex -18.5 32.0429 0
    endloop
  endfacet
  facet normal -0.743144 -0.669131 0
    outer loop
      vertex 29.9336 21.7481 0
      vertex 24.7578 27.4964 50
      vertex 24.7578 27.4964 0
    endloop
  endfacet
  facet normal -0.743144 -0.669131 0
    outer loop
      vertex 24.7578 27.4964 50
      vertex 29.9336 21.7481 0
      vertex 29.9336 21.7481 50
    endloop
  endfacet
  facet normal -0.406741 -0.913544 0
    outer loop
      vertex 11.4336 35.1891 0
      vertex 18.5 32.0429 50
      vertex 11.4336 35.1891 50
    endloop
  endfacet
  facet normal -0.406741 -0.913544 -0
    outer loop
      vertex 18.5 32.0429 50
      vertex 11.4336 35.1891 0
      vertex 18.5 32.0429 0
    endloop
  endfacet
  facet normal 0 -1 0
    outer loop
      vertex -3.86755 36.7973 0
      vertex 3.86755 36.7973 50
      vertex -3.86755 36.7973 50
    endloop
  endfacet
  facet normal 0 -1 -0
    outer loop
      vertex 3.86755 36.7973 50
      vertex -3.86755 36.7973 0
      vertex 3.86755 36.7973 0
    endloop
  endfacet
  facet normal -0.743144 0.669131 0
    outer loop
      vertex 24.7578 -27.4964 0
      vertex 29.9336 -21.7481 50
      vertex 29.9336 -21.7481 0
    endloop
  endfacet
  facet normal -0.743144 0.669131 0
    outer loop
      vertex 29.9336 -21.7481 50
      vertex 24.7578 -27.4964 0
      vertex 24.7578 -27.4964 50
    endloop
  endfacet
  facet normal 0.20791 0.978148 -0
    outer loop
      vertex -3.86755 -36.7973 0
      vertex -11.4336 -35.1891 50
      vertex -3.86755 -36.7973 50
    endloop
  endfacet
  facet normal 0.20791 0.978148 0
    outer loop
      vertex -11.4336 -35.1891 50
      vertex -3.86755 -36.7973 0
      vertex -11.4336 -35.1891 0
    endloop
  endfacet
  facet normal -0.866023 0.500004 0
    outer loop
      vertex 29.9336 -21.7481 0
      vertex 33.8012 -15.0493 50
      vertex 33.8012 -15.0493 0
    endloop
  endfacet
  facet normal -0.866023 0.500004 0
    outer loop
      vertex 33.8012 -15.0493 50
      vertex 29.9336 -21.7481 0
      vertex 29.9336 -21.7481 50
    endloop
  endfacet
  facet normal 0.406741 0.913544 -0
    outer loop
      vertex -11.4336 -35.1891 0
      vertex -18.5 -32.0429 50
      vertex -11.4336 -35.1891 50
    endloop
  endfacet
  facet normal 0.406741 0.913544 0
    outer loop
      vertex -18.5 -32.0429 50
      vertex -11.4336 -35.1891 0
      vertex -18.5 -32.0429 0
    endloop
  endfacet
  facet normal 0.406741 -0.913544 0
    outer loop
      vertex -18.5 32.0429 0
      vertex -11.4336 35.1891 50
      vertex -18.5 32.0429 50
    endloop
  endfacet
  facet normal 0.406741 -0.913544 0
    outer loop
      vertex -11.4336 35.1891 50
      vertex -18.5 32.0429 0
      vertex -11.4336 35.1891 0
    endloop
  endfacet
  facet normal 0.951056 -0.309018 0
    outer loop
      vertex -36.1915 7.69273 50
      vertex -33.8012 15.0493 0
      vertex -33.8012 15.0493 50
    endloop
  endfacet
  facet normal 0.951056 -0.309018 0
    outer loop
      vertex -33.8012 15.0493 0
      vertex -36.1915 7.69273 50
      vertex -36.1915 7.69273 0
    endloop
  endfacet
  facet normal -0.20791 0.978148 0
    outer loop
      vertex 11.4336 -35.1891 0
      vertex 3.86755 -36.7973 50
      vertex 11.4336 -35.1891 50
    endloop
  endfacet
  facet normal -0.20791 0.978148 0
    outer loop
      vertex 3.86755 -36.7973 50
      vertex 11.4336 -35.1891 0
      vertex 3.86755 -36.7973 0
    endloop
  endfacet
  facet normal -0.20791 -0.978148 0
    outer loop
      vertex 3.86755 36.7973 0
      vertex 11.4336 35.1891 50
      vertex 3.86755 36.7973 50
    endloop
  endfacet
  facet normal -0.20791 -0.978148 -0
    outer loop
      vertex 11.4336 35.1891 50
      vertex 3.86755 36.7973 0
      vertex 11.4336 35.1891 0
    endloop
  endfacet
  facet normal -0.406741 0.913544 0
    outer loop
      vertex 18.5 -32.0429 0
      vertex 11.4336 -35.1891 50
      vertex 18.5 -32.0429 50
    endloop
  endfacet
  facet normal -0.406741 0.913544 0
    outer loop
      vertex 11.4336 -35.1891 50
      vertex 18.5 -32.0429 0
      vertex 11.4336 -35.1891 0
    endloop
  endfacet
  facet normal 0.951056 0.309018 0
    outer loop
      vertex -33.8012 -15.0493 50
      vertex -36.1915 -7.69273 0
      vertex -36.1915 -7.69273 50
    endloop
  endfacet
  facet normal 0.951056 0.309018 0
    outer loop
      vertex -36.1915 -7.69273 0
      vertex -33.8012 -15.0493 50
      vertex -33.8012 -15.0493 0
    endloop
  endfacet
  facet normal 0.994522 -0.104524 0
    outer loop
      vertex -37 0 50
      vertex -36.1915 7.69273 0
      vertex -36.1915 7.69273 50
    endloop
  endfacet
  facet normal 0.994522 -0.104524 0
    outer loop
      vertex -36.1915 7.69273 0
      vertex -37 0 50
      vertex -37 0 0
    endloop
  endfacet
  facet normal 0.20791 -0.978148 0
    outer loop
      vertex -11.4336 35.1891 0
      vertex -3.86755 36.7973 50
      vertex -11.4336 35.1891 50
    endloop
  endfacet
  facet normal 0.20791 -0.978148 0
    outer loop
      vertex -3.86755 36.7973 50
      vertex -11.4336 35.1891 0
      vertex -3.86755 36.7973 0
    endloop
  endfacet
  facet normal -0.58778 -0.809021 0
    outer loop
      vertex 18.5 32.0429 0
      vertex 24.7578 27.4964 50
      vertex 18.5 32.0429 50
    endloop
  endfacet
  facet normal -0.58778 -0.809021 -0
    outer loop
      vertex 24.7578 27.4964 50
      vertex 18.5 32.0429 0
      vertex 24.7578 27.4964 0
    endloop
  endfacet
  facet normal 0 0 -1
    outer loop
      vertex 36.1915 -7.69273 50
      vertex 36.1915 7.69273 50
      vertex 37 0 50
    endloop
  endfacet
  facet normal 0 0 -1
    outer loop
      vertex 33.8012 -15.0493 50
      vertex 36.1915 7.69273 50
      vertex 36.1915 -7.69273 50
    endloop
  endfacet
  facet normal 0 0 -1
    outer loop
      vertex 33.8012 -15.0493 50
      vertex 33.8012 15.0493 50
      vertex 36.1915 7.69273 50
    endloop
  endfacet
  facet normal 0 0 -1
    outer loop
      vertex 29.9336 -21.7481 50
      vertex 33.8012 15.0493 50
      vertex 33.8012 -15.0493 50
    endloop
  endfacet
  facet normal 0 0 -1
    outer loop
      vertex 29.9336 -21.7481 50
      vertex 29.9336 21.7481 50
      vertex 33.8012 15.0493 50
    endloop
  endfacet
  facet normal 0 0 -1
    outer loop
      vertex 24.7578 -27.4964 50
      vertex 29.9336 21.7481 50
      vertex 29.9336 -21.7481 50
    endloop
  endfacet
  facet normal 0 0 -1
    outer loop
      vertex 24.7578 -27.4964 50
      vertex 24.7578 27.4964 50
      vertex 29.9336 21.7481 50
    endloop
  endfacet
  facet normal 0 0 -1
    outer loop
      vertex 18.5 -32.0429 50
      vertex 24.7578 27.4964 50
      vertex 24.7578 -27.4964 50
    endloop
  endfacet
  facet normal 0 0 -1
    outer loop
      vertex 18.5 -32.0429 50
      vertex 18.5 32.0429 50
      vertex 24.7578 27.4964 50
    endloop
  endfacet
  facet normal 0 0 -1
    outer loop
      vertex 11.4336 -35.1891 50
      vertex 18.5 32.0429 50
      vertex 18.5 -32.0429 50
    endloop
  endfacet
  facet normal 0 0 -1
    outer loop
      vertex 11.4336 -35.1891 50
      vertex 11.4336 35.1891 50
      vertex 18.5 32.0429 50
    endloop
  endfacet
  facet normal 0 0 -1
    outer loop
      vertex 3.86755 -36.7973 50
      vertex 11.4336 35.1891 50
      vertex 11.4336 -35.1891 50
    endloop
  endfacet
  facet normal 0 0 -1
    outer loop
      vertex 3.86755 -36.7973 50
      vertex 3.86755 36.7973 50
      vertex 11.4336 35.1891 50
    endloop
  endfacet
  facet normal 0 0 -1
    outer loop
      vertex -3.86755 -36.7973 50
      vertex 3.86755 36.7973 50
      vertex 3.86755 -36.7973 50
    endloop
  endfacet
  facet normal 0 0 -1
    outer loop
      vertex -3.86755 -36.7973 50
      vertex -3.86755 36.7973 50
      vertex 3.86755 36.7973 50
    endloop
  endfacet
  facet normal 0 0 -1
    outer loop
      vertex -11.4336 -35.1891 50
      vertex -3.86755 36.7973 50
      vertex -3.86755 -36.7973 50
    endloop
  endfacet
  facet normal 0 0 -1
    outer loop
      vertex -11.4336 -35.1891 50
      vertex -11.4336 35.1891 50
      vertex -3.86755 36.7973 50
    endloop
  endfacet
  facet normal 0 0 -1
    outer loop
      vertex -18.5 -32.0429 50
      vertex -11.4336 35.1891 50
      vertex -11.4336 -35.1891 50
    endloop
  endfacet
  facet normal 0 0 -1
    outer loop
      vertex -18.5 -32.0429 50
      vertex -18.5 32.0429 50
      vertex -11.4336 35.1891 50
    endloop
  endfacet
  facet normal 0 0 -1
    outer loop
      vertex -24.7578 -27.4964 50
      vertex -18.5 32.0429 50
      vertex -18.5 -32.0429 50
    endloop
  endfacet
  facet normal 0 0 -1
    outer loop
      vertex -24.7578 -27.4964 50
      vertex -24.7578 27.4964 50
      vertex -18.5 32.0429 50
    endloop
  endfacet
  facet normal 0 0 -1
    outer loop
      vertex -29.9336 -21.7481 50
      vertex -24.7578 27.4964 50
      vertex -24.7578 -27.4964 50
    endloop
  endfacet
  facet normal 0 0 -1
    outer loop
      vertex -29.9336 -21.7481 50
      vertex -29.9336 21.7481 50
      vertex -24.7578 27.4964 50
    endloop
  endfacet
  facet normal 0 0 -1
    outer loop
      vertex -33.8012 -15.0493 50
      vertex -29.9336 21.7481 50
      vertex -29.9336 -21.7481 50
    endloop
  endfacet
  facet normal 0 0 -1
    outer loop
      vertex -33.8012 -15.0493 50
      vertex -33.8012 15.0493 50
      vertex -29.9336 21.7481 50
    endloop
  endfacet
  facet normal 0 0 -1
    outer loop
      vertex -36.1915 -7.69273 50
      vertex -33.8012 15.0493 50
      vertex -33.8012 -15.0493 50
    endloop
  endfacet
  facet normal 0 0 -1
    outer loop
      vertex -36.1915 -7.69273 50
      vertex -36.1915 7.69273 50
      vertex -33.8012 15.0493 50
    endloop
  endfacet
  facet normal 0 -0 -1
    outer loop
      vertex -36.1915 7.69273 50
      vertex -36.1915 -7.69273 50
      vertex -37 0 50
    endloop
  endfacet
  facet normal -0.58778 0.809021 0
    outer loop
      vertex 24.7578 -27.4964 0
      vertex 18.5 -32.0429 50
      vertex 24.7578 -27.4964 50
    endloop
  endfacet
  facet normal -0.58778 0.809021 0
    outer loop
      vertex 18.5 -32.0429 50
      vertex 24.7578 -27.4964 0
      vertex 18.5 -32.0429 0
    endloop
  endfacet
  facet normal 0.994522 0.104524 0
    outer loop
      vertex -36.1915 -7.69273 50
      vertex -37 0 0
      vertex -37 0 50
    endloop
  endfacet
  facet normal 0.994522 0.104524 0
    outer loop
      vertex -37 0 0
      vertex -36.1915 -7.69273 50
      vertex -36.1915 -7.69273 0
    endloop
  endfacet
  facet normal 0 1 -0
    outer loop
      vertex 3.86755 -36.7973 0
      vertex -3.86755 -36.7973 50
      vertex 3.86755 -36.7973 50
    endloop
  endfacet
  facet normal 0 1 0
    outer loop
      vertex -3.86755 -36.7973 50
      vertex 3.86755 -36.7973 0
      vertex -3.86755 -36.7973 0
    endloop
  endfacet
  facet normal 0.743144 0.669131 0
    outer loop
      vertex -24.7578 -27.4964 50
      vertex -29.9336 -21.7481 0
      vertex -29.9336 -21.7481 50
    endloop
  endfacet
  facet normal 0.743144 0.669131 0
    outer loop
      vertex -29.9336 -21.7481 0
      vertex -24.7578 -27.4964 50
      vertex -24.7578 -27.4964 0
    endloop
  endfacet
  facet normal 0.58778 0.809021 -0
    outer loop
      vertex -18.5 -32.0429 0
      vertex -24.7578 -27.4964 50
      vertex -18.5 -32.0429 50
    endloop
  endfacet
  facet normal 0.58778 0.809021 0
    outer loop
      vertex -24.7578 -27.4964 50
      vertex -18.5 -32.0429 0
      vertex -24.7578 -27.4964 0
    endloop
  endfacet
  facet normal 0.866023 -0.500004 0
    outer loop
      vertex -33.8012 15.0493 50
      vertex -29.9336 21.7481 0
      vertex -29.9336 21.7481 50
    endloop
  endfacet
  facet normal 0.866023 -0.500004 0
    outer loop
      vertex -29.9336 21.7481 0
      vertex -33.8012 15.0493 50
      vertex -33.8012 15.0493 0
    endloop
  endfacet
endsolid OpenSCAD_Model
