solid OpenSCAD_Model
  facet normal -0.40674 -0.913544 0
    outer loop
      vertex -12.5 -21.6506 0
      vertex -7.72542 -23.7764 3
      vertex -12.5 -21.6506 3
    endloop
  endfacet
  facet normal -0.40674 -0.913544 -0
    outer loop
      vertex -7.72542 -23.7764 3
      vertex -12.5 -21.6506 0
      vertex -7.72542 -23.7764 0
    endloop
  endfacet
  facet normal -0.951054 -0.309026 0
    outer loop
      vertex -22.8386 -10.1684 0
      vertex -24.4537 -5.19779 3
      vertex -24.4537 -5.19779 0
    endloop
  endfacet
  facet normal -0.951054 -0.309026 0
    outer loop
      vertex -24.4537 -5.19779 3
      vertex -22.8386 -10.1684 0
      vertex -22.8386 -10.1684 3
    endloop
  endfacet
  facet normal 0.951054 0.309026 0
    outer loop
      vertex 24.4537 5.19779 3
      vertex 22.8386 10.1684 0
      vertex 22.8386 10.1684 3
    endloop
  endfacet
  facet normal 0.951054 0.309026 0
    outer loop
      vertex 22.8386 10.1684 0
      vertex 24.4537 5.19779 3
      vertex 24.4537 5.19779 0
    endloop
  endfacet
  facet normal 0.994522 0.104527 0
    outer loop
      vertex 25 0 3
      vertex 24.4537 5.19779 0
      vertex 24.4537 5.19779 3
    endloop
  endfacet
  facet normal 0.994522 0.104527 0
    outer loop
      vertex 24.4537 5.19779 0
      vertex 25 0 3
      vertex 25 0 0
    endloop
  endfacet
  facet normal 0.866026 0.5 0
    outer loop
      vertex 22.8386 10.1684 3
      vertex 20.2254 14.6946 0
      vertex 20.2254 14.6946 3
    endloop
  endfacet
  facet normal 0.866026 0.5 0
    outer loop
      vertex 20.2254 14.6946 0
      vertex 22.8386 10.1684 3
      vertex 22.8386 10.1684 0
    endloop
  endfacet
  facet normal 0.58778 -0.809021 0
    outer loop
      vertex 12.5 -21.6506 0
      vertex 16.7283 -18.5786 3
      vertex 12.5 -21.6506 3
    endloop
  endfacet
  facet normal 0.58778 -0.809021 0
    outer loop
      vertex 16.7283 -18.5786 3
      vertex 12.5 -21.6506 0
      vertex 16.7283 -18.5786 0
    endloop
  endfacet
  facet normal 0.40674 0.913544 -0
    outer loop
      vertex 12.5 21.6506 0
      vertex 7.72542 23.7764 3
      vertex 12.5 21.6506 3
    endloop
  endfacet
  facet normal 0.40674 0.913544 0
    outer loop
      vertex 7.72542 23.7764 3
      vertex 12.5 21.6506 0
      vertex 7.72542 23.7764 0
    endloop
  endfacet
  facet normal 0.994522 -0.104527 0
    outer loop
      vertex 24.4537 -5.19779 3
      vertex 25 0 0
      vertex 25 0 3
    endloop
  endfacet
  facet normal 0.994522 -0.104527 0
    outer loop
      vertex 25 0 0
      vertex 24.4537 -5.19779 3
      vertex 24.4537 -5.19779 0
    endloop
  endfacet
  facet normal 0.743151 0.669123 0
    outer loop
      vertex 20.2254 14.6946 3
      vertex 16.7283 18.5786 0
      vertex 16.7283 18.5786 3
    endloop
  endfacet
  facet normal 0.743151 0.669123 0
    outer loop
      vertex 16.7283 18.5786 0
      vertex 20.2254 14.6946 3
      vertex 20.2254 14.6946 0
    endloop
  endfacet
  facet normal -0.866026 0.5 0
    outer loop
      vertex -22.8386 10.1684 0
      vertex -20.2254 14.6946 3
      vertex -20.2254 14.6946 0
    endloop
  endfacet
  facet normal -0.866026 0.5 0
    outer loop
      vertex -20.2254 14.6946 3
      vertex -22.8386 10.1684 0
      vertex -22.8386 10.1684 3
    endloop
  endfacet
  facet normal 0.743151 -0.669123 0
    outer loop
      vertex 16.7283 -18.5786 3
      vertex 20.2254 -14.6946 0
      vertex 20.2254 -14.6946 3
    endloop
  endfacet
  facet normal 0.743151 -0.669123 0
    outer loop
      vertex 20.2254 -14.6946 0
      vertex 16.7283 -18.5786 3
      vertex 16.7283 -18.5786 0
    endloop
  endfacet
  facet normal -0.743151 0.669123 0
    outer loop
      vertex -20.2254 14.6946 0
      vertex -16.7283 18.5786 3
      vertex -16.7283 18.5786 0
    endloop
  endfacet
  facet normal -0.743151 0.669123 0
    outer loop
      vertex -16.7283 18.5786 3
      vertex -20.2254 14.6946 0
      vertex -20.2254 14.6946 3
    endloop
  endfacet
  facet normal 0.866026 -0.5 0
    outer loop
      vertex 20.2254 -14.6946 3
      vertex 22.8386 -10.1684 0
      vertex 22.8386 -10.1684 3
    endloop
  endfacet
  facet normal 0.866026 -0.5 0
    outer loop
      vertex 22.8386 -10.1684 0
      vertex 20.2254 -14.6946 3
      vertex 20.2254 -14.6946 0
    endloop
  endfacet
  facet normal -0.58778 0.809021 0
    outer loop
      vertex -12.5 21.6506 0
      vertex -16.7283 18.5786 3
      vertex -12.5 21.6506 3
    endloop
  endfacet
  facet normal -0.58778 0.809021 0
    outer loop
      vertex -16.7283 18.5786 3
      vertex -12.5 21.6506 0
      vertex -16.7283 18.5786 0
    endloop
  endfacet
  facet normal 0 0 1
    outer loop
      vertex 24.4537 5.19779 3
      vertex 12.2268 2.5989 3
      vertex 12.5 0 3
    endloop
  endfacet
  facet normal 0 0 1
    outer loop
      vertex 16.7283 18.5786 3
      vertex 11.4193 5.08421 3
      vertex 12.2268 2.5989 3
    endloop
  endfacet
  facet normal 0 0 1
    outer loop
      vertex 16.7283 18.5786 3
      vertex 10.1127 7.34731 3
      vertex 11.4193 5.08421 3
    endloop
  endfacet
  facet normal 0 0 1
    outer loop
      vertex 16.7283 18.5786 3
      vertex 8.36413 9.28931 3
      vertex 10.1127 7.34731 3
    endloop
  endfacet
  facet normal 0 0 1
    outer loop
      vertex 6.25 10.8253 3
      vertex 12.5 21.6506 3
      vertex 7.72542 23.7764 3
    endloop
  endfacet
  facet normal 0 0 1
    outer loop
      vertex 12.5 21.6506 3
      vertex 6.25 10.8253 3
      vertex 8.36413 9.28931 3
    endloop
  endfacet
  facet normal 0 0 1
    outer loop
      vertex 7.72542 23.7764 3
      vertex 3.86271 11.8882 3
      vertex 6.25 10.8253 3
    endloop
  endfacet
  facet normal 0 0 1
    outer loop
      vertex 2.61321 24.863 3
      vertex 3.86271 11.8882 3
      vertex 7.72542 23.7764 3
    endloop
  endfacet
  facet normal 0 0 1
    outer loop
      vertex 2.61321 24.863 3
      vertex 1.30661 12.4315 3
      vertex 3.86271 11.8882 3
    endloop
  endfacet
  facet normal 0 0 1
    outer loop
      vertex 2.61321 24.863 3
      vertex -1.30661 12.4315 3
      vertex 1.30661 12.4315 3
    endloop
  endfacet
  facet normal -0 0 1
    outer loop
      vertex -2.61321 24.863 3
      vertex -1.30661 12.4315 3
      vertex 2.61321 24.863 3
    endloop
  endfacet
  facet normal 0 0 1
    outer loop
      vertex -2.61321 24.863 3
      vertex -3.86271 11.8882 3
      vertex -1.30661 12.4315 3
    endloop
  endfacet
  facet normal -0 0 1
    outer loop
      vertex -7.72542 23.7764 3
      vertex -3.86271 11.8882 3
      vertex -2.61321 24.863 3
    endloop
  endfacet
  facet normal 0 0 1
    outer loop
      vertex -3.86271 11.8882 3
      vertex -7.72542 23.7764 3
      vertex -6.25 10.8253 3
    endloop
  endfacet
  facet normal -0 0 1
    outer loop
      vertex -12.5 21.6506 3
      vertex -6.25 10.8253 3
      vertex -7.72542 23.7764 3
    endloop
  endfacet
  facet normal 0 0 1
    outer loop
      vertex -6.25 10.8253 3
      vertex -12.5 21.6506 3
      vertex -8.36413 9.28931 3
    endloop
  endfacet
  facet normal -0 0 1
    outer loop
      vertex -16.7283 18.5786 3
      vertex -8.36413 9.28931 3
      vertex -12.5 21.6506 3
    endloop
  endfacet
  facet normal 0 0 1
    outer loop
      vertex -8.36413 9.28931 3
      vertex -16.7283 18.5786 3
      vertex -10.1127 7.34731 3
    endloop
  endfacet
  facet normal -0 0 1
    outer loop
      vertex -20.2254 14.6946 3
      vertex -10.1127 7.34731 3
      vertex -16.7283 18.5786 3
    endloop
  endfacet
  facet normal 0 0 1
    outer loop
      vertex -10.1127 7.34731 3
      vertex -20.2254 14.6946 3
      vertex -11.4193 5.08421 3
    endloop
  endfacet
  facet normal -0 0 1
    outer loop
      vertex -22.8386 10.1684 3
      vertex -11.4193 5.08421 3
      vertex -20.2254 14.6946 3
    endloop
  endfacet
  facet normal 0 0 1
    outer loop
      vertex -11.4193 5.08421 3
      vertex -22.8386 10.1684 3
      vertex -12.2268 2.5989 3
    endloop
  endfacet
  facet normal 0 0 1
    outer loop
      vertex -12.5 0 3
      vertex -16.7283 -18.5786 3
      vertex -12.5 -21.6506 3
    endloop
  endfacet
  facet normal -0 0 1
    outer loop
      vertex -24.4537 5.19779 3
      vertex -12.2268 2.5989 3
      vertex -22.8386 10.1684 3
    endloop
  endfacet
  facet normal 0 0 1
    outer loop
      vertex -12.5 0 3
      vertex -20.2254 -14.6946 3
      vertex -16.7283 -18.5786 3
    endloop
  endfacet
  facet normal 0 0 1
    outer loop
      vertex -12.2268 2.5989 3
      vertex -24.4537 5.19779 3
      vertex -12.5 0 3
    endloop
  endfacet
  facet normal 0 0 1
    outer loop
      vertex -12.5 0 3
      vertex -22.8386 -10.1684 3
      vertex -20.2254 -14.6946 3
    endloop
  endfacet
  facet normal 0 0 1
    outer loop
      vertex -25 0 3
      vertex -12.5 0 3
      vertex -24.4537 5.19779 3
    endloop
  endfacet
  facet normal 0 0 1
    outer loop
      vertex -12.5 0 3
      vertex -24.4537 -5.19779 3
      vertex -22.8386 -10.1684 3
    endloop
  endfacet
  facet normal 0 0 1
    outer loop
      vertex -12.5 0 3
      vertex -25 0 3
      vertex -24.4537 -5.19779 3
    endloop
  endfacet
  facet normal 0 0 1
    outer loop
      vertex 12.5 0 3
      vertex 25 0 3
      vertex 24.4537 5.19779 3
    endloop
  endfacet
  facet normal 0 0 1
    outer loop
      vertex 12.2268 2.5989 3
      vertex 24.4537 5.19779 3
      vertex 22.8386 10.1684 3
    endloop
  endfacet
  facet normal 0 0 1
    outer loop
      vertex 25 0 3
      vertex 12.5 0 3
      vertex 24.4537 -5.19779 3
    endloop
  endfacet
  facet normal 0 0 1
    outer loop
      vertex 12.2268 2.5989 3
      vertex 22.8386 10.1684 3
      vertex 20.2254 14.6946 3
    endloop
  endfacet
  facet normal -0 0 1
    outer loop
      vertex 12.2268 -2.5989 3
      vertex 24.4537 -5.19779 3
      vertex 12.5 0 3
    endloop
  endfacet
  facet normal 0 0 1
    outer loop
      vertex 12.2268 2.5989 3
      vertex 20.2254 14.6946 3
      vertex 16.7283 18.5786 3
    endloop
  endfacet
  facet normal 0 0 1
    outer loop
      vertex 24.4537 -5.19779 3
      vertex 12.2268 -2.5989 3
      vertex 22.8386 -10.1684 3
    endloop
  endfacet
  facet normal 0 0 1
    outer loop
      vertex 8.36413 9.28931 3
      vertex 16.7283 18.5786 3
      vertex 12.5 21.6506 3
    endloop
  endfacet
  facet normal -0 0 1
    outer loop
      vertex 11.4193 -5.08421 3
      vertex 22.8386 -10.1684 3
      vertex 12.2268 -2.5989 3
    endloop
  endfacet
  facet normal 0 0 1
    outer loop
      vertex 22.8386 -10.1684 3
      vertex 11.4193 -5.08421 3
      vertex 20.2254 -14.6946 3
    endloop
  endfacet
  facet normal -0 0 1
    outer loop
      vertex 10.1127 -7.34731 3
      vertex 20.2254 -14.6946 3
      vertex 11.4193 -5.08421 3
    endloop
  endfacet
  facet normal 0 0 1
    outer loop
      vertex 20.2254 -14.6946 3
      vertex 10.1127 -7.34731 3
      vertex 16.7283 -18.5786 3
    endloop
  endfacet
  facet normal -0 0 1
    outer loop
      vertex 8.36413 -9.28931 3
      vertex 16.7283 -18.5786 3
      vertex 10.1127 -7.34731 3
    endloop
  endfacet
  facet normal 0 0 1
    outer loop
      vertex 16.7283 -18.5786 3
      vertex 8.36413 -9.28931 3
      vertex 12.5 -21.6506 3
    endloop
  endfacet
  facet normal -0 0 1
    outer loop
      vertex 6.25 -10.8253 3
      vertex 12.5 -21.6506 3
      vertex 8.36413 -9.28931 3
    endloop
  endfacet
  facet normal 0 0 1
    outer loop
      vertex 12.5 -21.6506 3
      vertex 6.25 -10.8253 3
      vertex 7.72542 -23.7764 3
    endloop
  endfacet
  facet normal -0 0 1
    outer loop
      vertex 3.86271 -11.8882 3
      vertex 7.72542 -23.7764 3
      vertex 6.25 -10.8253 3
    endloop
  endfacet
  facet normal 0 0 1
    outer loop
      vertex 3.86271 -11.8882 3
      vertex 2.61321 -24.863 3
      vertex 7.72542 -23.7764 3
    endloop
  endfacet
  facet normal -0 0 1
    outer loop
      vertex 1.30661 -12.4315 3
      vertex 2.61321 -24.863 3
      vertex 3.86271 -11.8882 3
    endloop
  endfacet
  facet normal -0 0 1
    outer loop
      vertex -1.30661 -12.4315 3
      vertex 2.61321 -24.863 3
      vertex 1.30661 -12.4315 3
    endloop
  endfacet
  facet normal 0 0 1
    outer loop
      vertex -1.30661 -12.4315 3
      vertex -2.61321 -24.863 3
      vertex 2.61321 -24.863 3
    endloop
  endfacet
  facet normal 0 0 1
    outer loop
      vertex -3.86271 -11.8882 3
      vertex -2.61321 -24.863 3
      vertex -1.30661 -12.4315 3
    endloop
  endfacet
  facet normal 0 0 1
    outer loop
      vertex -7.72542 -23.7764 3
      vertex -3.86271 -11.8882 3
      vertex -6.25 -10.8253 3
    endloop
  endfacet
  facet normal 0 0 1
    outer loop
      vertex -3.86271 -11.8882 3
      vertex -7.72542 -23.7764 3
      vertex -2.61321 -24.863 3
    endloop
  endfacet
  facet normal 0 0 1
    outer loop
      vertex -12.5 -21.6506 3
      vertex -6.25 -10.8253 3
      vertex -8.36413 -9.28931 3
    endloop
  endfacet
  facet normal 0 0 1
    outer loop
      vertex -12.5 -21.6506 3
      vertex -8.36413 -9.28931 3
      vertex -10.1127 -7.34731 3
    endloop
  endfacet
  facet normal 0 0 1
    outer loop
      vertex -12.5 -21.6506 3
      vertex -10.1127 -7.34731 3
      vertex -11.4193 -5.08421 3
    endloop
  endfacet
  facet normal 0 0 1
    outer loop
      vertex -12.5 -21.6506 3
      vertex -11.4193 -5.08421 3
      vertex -12.2268 -2.5989 3
    endloop
  endfacet
  facet normal 0 0 1
    outer loop
      vertex -6.25 -10.8253 3
      vertex -12.5 -21.6506 3
      vertex -7.72542 -23.7764 3
    endloop
  endfacet
  facet normal 0 0 1
    outer loop
      vertex -12.5 -21.6506 3
      vertex -12.2268 -2.5989 3
      vertex -12.5 0 3
    endloop
  endfacet
  facet normal 0.951054 -0.309026 0
    outer loop
      vertex 22.8386 -10.1684 3
      vertex 24.4537 -5.19779 0
      vertex 24.4537 -5.19779 3
    endloop
  endfacet
  facet normal 0.951054 -0.309026 0
    outer loop
      vertex 24.4537 -5.19779 0
      vertex 22.8386 -10.1684 3
      vertex 22.8386 -10.1684 0
    endloop
  endfacet
  facet normal 0 1 -0
    outer loop
      vertex 2.61321 24.863 0
      vertex -2.61321 24.863 3
      vertex 2.61321 24.863 3
    endloop
  endfacet
  facet normal 0 1 0
    outer loop
      vertex -2.61321 24.863 3
      vertex 2.61321 24.863 0
      vertex -2.61321 24.863 0
    endloop
  endfacet
  facet normal -0.58778 -0.809021 0
    outer loop
      vertex -16.7283 -18.5786 0
      vertex -12.5 -21.6506 3
      vertex -16.7283 -18.5786 3
    endloop
  endfacet
  facet normal -0.58778 -0.809021 -0
    outer loop
      vertex -12.5 -21.6506 3
      vertex -16.7283 -18.5786 0
      vertex -12.5 -21.6506 0
    endloop
  endfacet
  facet normal 0 0 -1
    outer loop
      vertex 24.4537 -5.19779 0
      vertex 12.2268 -2.5989 0
      vertex 12.5 0 0
    endloop
  endfacet
  facet normal 0 0 -1
    outer loop
      vertex 16.7283 -18.5786 0
      vertex 11.4193 -5.08421 0
      vertex 12.2268 -2.5989 0
    endloop
  endfacet
  facet normal 0 0 -1
    outer loop
      vertex 16.7283 -18.5786 0
      vertex 10.1127 -7.34731 0
      vertex 11.4193 -5.08421 0
    endloop
  endfacet
  facet normal 0 0 -1
    outer loop
      vertex 16.7283 -18.5786 0
      vertex 8.36413 -9.28931 0
      vertex 10.1127 -7.34731 0
    endloop
  endfacet
  facet normal 0 0 -1
    outer loop
      vertex 6.25 -10.8253 0
      vertex 12.5 -21.6506 0
      vertex 7.72542 -23.7764 0
    endloop
  endfacet
  facet normal 0 0 -1
    outer loop
      vertex 12.5 -21.6506 0
      vertex 6.25 -10.8253 0
      vertex 8.36413 -9.28931 0
    endloop
  endfacet
  facet normal 0 0 -1
    outer loop
      vertex 7.72542 -23.7764 0
      vertex 3.86271 -11.8882 0
      vertex 6.25 -10.8253 0
    endloop
  endfacet
  facet normal 0 0 -1
    outer loop
      vertex 2.61321 -24.863 0
      vertex 3.86271 -11.8882 0
      vertex 7.72542 -23.7764 0
    endloop
  endfacet
  facet normal 0 0 -1
    outer loop
      vertex 2.61321 -24.863 0
      vertex 1.30661 -12.4315 0
      vertex 3.86271 -11.8882 0
    endloop
  endfacet
  facet normal 0 0 -1
    outer loop
      vertex 2.61321 -24.863 0
      vertex -1.30661 -12.4315 0
      vertex 1.30661 -12.4315 0
    endloop
  endfacet
  facet normal 0 0 -1
    outer loop
      vertex -2.61321 -24.863 0
      vertex -1.30661 -12.4315 0
      vertex 2.61321 -24.863 0
    endloop
  endfacet
  facet normal 0 0 -1
    outer loop
      vertex -2.61321 -24.863 0
      vertex -3.86271 -11.8882 0
      vertex -1.30661 -12.4315 0
    endloop
  endfacet
  facet normal 0 0 -1
    outer loop
      vertex -7.72542 -23.7764 0
      vertex -3.86271 -11.8882 0
      vertex -2.61321 -24.863 0
    endloop
  endfacet
  facet normal -0 0 -1
    outer loop
      vertex -3.86271 -11.8882 0
      vertex -7.72542 -23.7764 0
      vertex -6.25 -10.8253 0
    endloop
  endfacet
  facet normal 0 0 -1
    outer loop
      vertex -12.5 -21.6506 0
      vertex -6.25 -10.8253 0
      vertex -7.72542 -23.7764 0
    endloop
  endfacet
  facet normal -0 0 -1
    outer loop
      vertex -6.25 -10.8253 0
      vertex -12.5 -21.6506 0
      vertex -8.36413 -9.28931 0
    endloop
  endfacet
  facet normal 0 0 -1
    outer loop
      vertex -16.7283 -18.5786 0
      vertex -8.36413 -9.28931 0
      vertex -12.5 -21.6506 0
    endloop
  endfacet
  facet normal -0 0 -1
    outer loop
      vertex -8.36413 -9.28931 0
      vertex -16.7283 -18.5786 0
      vertex -10.1127 -7.34731 0
    endloop
  endfacet
  facet normal 0 0 -1
    outer loop
      vertex -20.2254 -14.6946 0
      vertex -10.1127 -7.34731 0
      vertex -16.7283 -18.5786 0
    endloop
  endfacet
  facet normal -0 0 -1
    outer loop
      vertex -10.1127 -7.34731 0
      vertex -20.2254 -14.6946 0
      vertex -11.4193 -5.08421 0
    endloop
  endfacet
  facet normal 0 0 -1
    outer loop
      vertex -22.8386 -10.1684 0
      vertex -11.4193 -5.08421 0
      vertex -20.2254 -14.6946 0
    endloop
  endfacet
  facet normal -0 0 -1
    outer loop
      vertex -11.4193 -5.08421 0
      vertex -22.8386 -10.1684 0
      vertex -12.2268 -2.5989 0
    endloop
  endfacet
  facet normal 0 0 -1
    outer loop
      vertex -12.5 0 0
      vertex -16.7283 18.5786 0
      vertex -12.5 21.6506 0
    endloop
  endfacet
  facet normal 0 0 -1
    outer loop
      vertex -24.4537 -5.19779 0
      vertex -12.2268 -2.5989 0
      vertex -22.8386 -10.1684 0
    endloop
  endfacet
  facet normal 0 0 -1
    outer loop
      vertex -12.5 0 0
      vertex -20.2254 14.6946 0
      vertex -16.7283 18.5786 0
    endloop
  endfacet
  facet normal -0 0 -1
    outer loop
      vertex -12.2268 -2.5989 0
      vertex -24.4537 -5.19779 0
      vertex -12.5 0 0
    endloop
  endfacet
  facet normal 0 0 -1
    outer loop
      vertex -12.5 0 0
      vertex -22.8386 10.1684 0
      vertex -20.2254 14.6946 0
    endloop
  endfacet
  facet normal 0 0 -1
    outer loop
      vertex -25 0 0
      vertex -12.5 0 0
      vertex -24.4537 -5.19779 0
    endloop
  endfacet
  facet normal 0 0 -1
    outer loop
      vertex -12.5 0 0
      vertex -24.4537 5.19779 0
      vertex -22.8386 10.1684 0
    endloop
  endfacet
  facet normal 0 0 -1
    outer loop
      vertex -12.5 0 0
      vertex -25 0 0
      vertex -24.4537 5.19779 0
    endloop
  endfacet
  facet normal 0 0 -1
    outer loop
      vertex 12.5 0 0
      vertex 25 0 0
      vertex 24.4537 -5.19779 0
    endloop
  endfacet
  facet normal 0 0 -1
    outer loop
      vertex 12.2268 -2.5989 0
      vertex 24.4537 -5.19779 0
      vertex 22.8386 -10.1684 0
    endloop
  endfacet
  facet normal 0 0 -1
    outer loop
      vertex 25 0 0
      vertex 12.5 0 0
      vertex 24.4537 5.19779 0
    endloop
  endfacet
  facet normal 0 0 -1
    outer loop
      vertex 12.2268 -2.5989 0
      vertex 22.8386 -10.1684 0
      vertex 20.2254 -14.6946 0
    endloop
  endfacet
  facet normal 0 0 -1
    outer loop
      vertex 12.2268 2.5989 0
      vertex 24.4537 5.19779 0
      vertex 12.5 0 0
    endloop
  endfacet
  facet normal 0 0 -1
    outer loop
      vertex 12.2268 -2.5989 0
      vertex 20.2254 -14.6946 0
      vertex 16.7283 -18.5786 0
    endloop
  endfacet
  facet normal -0 0 -1
    outer loop
      vertex 24.4537 5.19779 0
      vertex 12.2268 2.5989 0
      vertex 22.8386 10.1684 0
    endloop
  endfacet
  facet normal 0 0 -1
    outer loop
      vertex 8.36413 -9.28931 0
      vertex 16.7283 -18.5786 0
      vertex 12.5 -21.6506 0
    endloop
  endfacet
  facet normal 0 0 -1
    outer loop
      vertex 11.4193 5.08421 0
      vertex 22.8386 10.1684 0
      vertex 12.2268 2.5989 0
    endloop
  endfacet
  facet normal -0 0 -1
    outer loop
      vertex 22.8386 10.1684 0
      vertex 11.4193 5.08421 0
      vertex 20.2254 14.6946 0
    endloop
  endfacet
  facet normal 0 0 -1
    outer loop
      vertex 10.1127 7.34731 0
      vertex 20.2254 14.6946 0
      vertex 11.4193 5.08421 0
    endloop
  endfacet
  facet normal -0 0 -1
    outer loop
      vertex 20.2254 14.6946 0
      vertex 10.1127 7.34731 0
      vertex 16.7283 18.5786 0
    endloop
  endfacet
  facet normal 0 0 -1
    outer loop
      vertex 8.36413 9.28931 0
      vertex 16.7283 18.5786 0
      vertex 10.1127 7.34731 0
    endloop
  endfacet
  facet normal -0 0 -1
    outer loop
      vertex 16.7283 18.5786 0
      vertex 8.36413 9.28931 0
      vertex 12.5 21.6506 0
    endloop
  endfacet
  facet normal 0 0 -1
    outer loop
      vertex 6.25 10.8253 0
      vertex 12.5 21.6506 0
      vertex 8.36413 9.28931 0
    endloop
  endfacet
  facet normal -0 0 -1
    outer loop
      vertex 12.5 21.6506 0
      vertex 6.25 10.8253 0
      vertex 7.72542 23.7764 0
    endloop
  endfacet
  facet normal 0 0 -1
    outer loop
      vertex 3.86271 11.8882 0
      vertex 7.72542 23.7764 0
      vertex 6.25 10.8253 0
    endloop
  endfacet
  facet normal 0 0 -1
    outer loop
      vertex 3.86271 11.8882 0
      vertex 2.61321 24.863 0
      vertex 7.72542 23.7764 0
    endloop
  endfacet
  facet normal 0 0 -1
    outer loop
      vertex 1.30661 12.4315 0
      vertex 2.61321 24.863 0
      vertex 3.86271 11.8882 0
    endloop
  endfacet
  facet normal 0 0 -1
    outer loop
      vertex -1.30661 12.4315 0
      vertex 2.61321 24.863 0
      vertex 1.30661 12.4315 0
    endloop
  endfacet
  facet normal 0 0 -1
    outer loop
      vertex -1.30661 12.4315 0
      vertex -2.61321 24.863 0
      vertex 2.61321 24.863 0
    endloop
  endfacet
  facet normal 0 0 -1
    outer loop
      vertex -3.86271 11.8882 0
      vertex -2.61321 24.863 0
      vertex -1.30661 12.4315 0
    endloop
  endfacet
  facet normal 0 0 -1
    outer loop
      vertex -7.72542 23.7764 0
      vertex -3.86271 11.8882 0
      vertex -6.25 10.8253 0
    endloop
  endfacet
  facet normal 0 0 -1
    outer loop
      vertex -3.86271 11.8882 0
      vertex -7.72542 23.7764 0
      vertex -2.61321 24.863 0
    endloop
  endfacet
  facet normal 0 0 -1
    outer loop
      vertex -12.5 21.6506 0
      vertex -6.25 10.8253 0
      vertex -8.36413 9.28931 0
    endloop
  endfacet
  facet normal 0 0 -1
    outer loop
      vertex -12.5 21.6506 0
      vertex -8.36413 9.28931 0
      vertex -10.1127 7.34731 0
    endloop
  endfacet
  facet normal 0 0 -1
    outer loop
      vertex -12.5 21.6506 0
      vertex -10.1127 7.34731 0
      vertex -11.4193 5.08421 0
    endloop
  endfacet
  facet normal 0 0 -1
    outer loop
      vertex -12.5 21.6506 0
      vertex -11.4193 5.08421 0
      vertex -12.2268 2.5989 0
    endloop
  endfacet
  facet normal 0 0 -1
    outer loop
      vertex -6.25 10.8253 0
      vertex -12.5 21.6506 0
      vertex -7.72542 23.7764 0
    endloop
  endfacet
  facet normal 0 0 -1
    outer loop
      vertex -12.5 21.6506 0
      vertex -12.2268 2.5989 0
      vertex -12.5 0 0
    endloop
  endfacet
  facet normal -0.40674 0.913544 0
    outer loop
      vertex -7.72542 23.7764 0
      vertex -12.5 21.6506 3
      vertex -7.72542 23.7764 3
    endloop
  endfacet
  facet normal -0.40674 0.913544 0
    outer loop
      vertex -12.5 21.6506 3
      vertex -7.72542 23.7764 0
      vertex -12.5 21.6506 0
    endloop
  endfacet
  facet normal -0.994522 -0.104527 0
    outer loop
      vertex -24.4537 -5.19779 0
      vertex -25 0 3
      vertex -25 0 0
    endloop
  endfacet
  facet normal -0.994522 -0.104527 0
    outer loop
      vertex -25 0 3
      vertex -24.4537 -5.19779 0
      vertex -24.4537 -5.19779 3
    endloop
  endfacet
  facet normal -0.743151 -0.669123 0
    outer loop
      vertex -16.7283 -18.5786 0
      vertex -20.2254 -14.6946 3
      vertex -20.2254 -14.6946 0
    endloop
  endfacet
  facet normal -0.743151 -0.669123 0
    outer loop
      vertex -20.2254 -14.6946 3
      vertex -16.7283 -18.5786 0
      vertex -16.7283 -18.5786 3
    endloop
  endfacet
  facet normal -0.866026 -0.5 0
    outer loop
      vertex -20.2254 -14.6946 0
      vertex -22.8386 -10.1684 3
      vertex -22.8386 -10.1684 0
    endloop
  endfacet
  facet normal -0.866026 -0.5 0
    outer loop
      vertex -22.8386 -10.1684 3
      vertex -20.2254 -14.6946 0
      vertex -20.2254 -14.6946 3
    endloop
  endfacet
  facet normal 0.207906 -0.978149 0
    outer loop
      vertex 2.61321 -24.863 0
      vertex 7.72542 -23.7764 3
      vertex 2.61321 -24.863 3
    endloop
  endfacet
  facet normal 0.207906 -0.978149 0
    outer loop
      vertex 7.72542 -23.7764 3
      vertex 2.61321 -24.863 0
      vertex 7.72542 -23.7764 0
    endloop
  endfacet
  facet normal -0.994522 0.104527 0
    outer loop
      vertex -25 0 0
      vertex -24.4537 5.19779 3
      vertex -24.4537 5.19779 0
    endloop
  endfacet
  facet normal -0.994522 0.104527 0
    outer loop
      vertex -24.4537 5.19779 3
      vertex -25 0 0
      vertex -25 0 3
    endloop
  endfacet
  facet normal 0.207906 0.978149 -0
    outer loop
      vertex 7.72542 23.7764 0
      vertex 2.61321 24.863 3
      vertex 7.72542 23.7764 3
    endloop
  endfacet
  facet normal 0.207906 0.978149 0
    outer loop
      vertex 2.61321 24.863 3
      vertex 7.72542 23.7764 0
      vertex 2.61321 24.863 0
    endloop
  endfacet
  facet normal 0.58778 0.809021 -0
    outer loop
      vertex 16.7283 18.5786 0
      vertex 12.5 21.6506 3
      vertex 16.7283 18.5786 3
    endloop
  endfacet
  facet normal 0.58778 0.809021 0
    outer loop
      vertex 12.5 21.6506 3
      vertex 16.7283 18.5786 0
      vertex 12.5 21.6506 0
    endloop
  endfacet
  facet normal -0.207906 0.978149 0
    outer loop
      vertex -2.61321 24.863 0
      vertex -7.72542 23.7764 3
      vertex -2.61321 24.863 3
    endloop
  endfacet
  facet normal -0.207906 0.978149 0
    outer loop
      vertex -7.72542 23.7764 3
      vertex -2.61321 24.863 0
      vertex -7.72542 23.7764 0
    endloop
  endfacet
  facet normal 0.40674 -0.913544 0
    outer loop
      vertex 7.72542 -23.7764 0
      vertex 12.5 -21.6506 3
      vertex 7.72542 -23.7764 3
    endloop
  endfacet
  facet normal 0.40674 -0.913544 0
    outer loop
      vertex 12.5 -21.6506 3
      vertex 7.72542 -23.7764 0
      vertex 12.5 -21.6506 0
    endloop
  endfacet
  facet normal 0 -1 0
    outer loop
      vertex -2.61321 -24.863 0
      vertex 2.61321 -24.863 3
      vertex -2.61321 -24.863 3
    endloop
  endfacet
  facet normal 0 -1 -0
    outer loop
      vertex 2.61321 -24.863 3
      vertex -2.61321 -24.863 0
      vertex 2.61321 -24.863 0
    endloop
  endfacet
  facet normal -0.207906 -0.978149 0
    outer loop
      vertex -7.72542 -23.7764 0
      vertex -2.61321 -24.863 3
      vertex -7.72542 -23.7764 3
    endloop
  endfacet
  facet normal -0.207906 -0.978149 -0
    outer loop
      vertex -2.61321 -24.863 3
      vertex -7.72542 -23.7764 0
      vertex -2.61321 -24.863 0
    endloop
  endfacet
  facet normal -0.951054 0.309026 0
    outer loop
      vertex -24.4537 5.19779 0
      vertex -22.8386 10.1684 3
      vertex -22.8386 10.1684 0
    endloop
  endfacet
  facet normal -0.951054 0.309026 0
    outer loop
      vertex -22.8386 10.1684 3
      vertex -24.4537 5.19779 0
      vertex -24.4537 5.19779 3
    endloop
  endfacet
  facet normal -0.951059 -0.309008 0
    outer loop
      vertex 12.2268 2.5989 0
      vertex 11.4193 5.08421 3
      vertex 11.4193 5.08421 0
    endloop
  endfacet
  facet normal -0.951059 -0.309008 0
    outer loop
      vertex 11.4193 5.08421 3
      vertex 12.2268 2.5989 0
      vertex 12.2268 2.5989 3
    endloop
  endfacet
  facet normal -0.99452 -0.104545 0
    outer loop
      vertex 12.5 0 0
      vertex 12.2268 2.5989 3
      vertex 12.2268 2.5989 0
    endloop
  endfacet
  facet normal -0.99452 -0.104545 0
    outer loop
      vertex 12.2268 2.5989 3
      vertex 12.5 0 0
      vertex 12.5 0 3
    endloop
  endfacet
  facet normal -0.866026 -0.5 0
    outer loop
      vertex 11.4193 5.08421 0
      vertex 10.1127 7.34731 3
      vertex 10.1127 7.34731 0
    endloop
  endfacet
  facet normal -0.866026 -0.5 0
    outer loop
      vertex 10.1127 7.34731 3
      vertex 11.4193 5.08421 0
      vertex 11.4193 5.08421 3
    endloop
  endfacet
  facet normal -0.587781 0.80902 0
    outer loop
      vertex 8.36413 -9.28931 0
      vertex 6.25 -10.8253 3
      vertex 8.36413 -9.28931 3
    endloop
  endfacet
  facet normal -0.587781 0.80902 0
    outer loop
      vertex 6.25 -10.8253 3
      vertex 8.36413 -9.28931 0
      vertex 6.25 -10.8253 0
    endloop
  endfacet
  facet normal 0.587781 -0.80902 0
    outer loop
      vertex -8.36413 9.28931 0
      vertex -6.25 10.8253 3
      vertex -8.36413 9.28931 3
    endloop
  endfacet
  facet normal 0.587781 -0.80902 0
    outer loop
      vertex -6.25 10.8253 3
      vertex -8.36413 9.28931 0
      vertex -6.25 10.8253 0
    endloop
  endfacet
  facet normal 0.743148 -0.669128 0
    outer loop
      vertex -10.1127 7.34731 3
      vertex -8.36413 9.28931 0
      vertex -8.36413 9.28931 3
    endloop
  endfacet
  facet normal 0.743148 -0.669128 0
    outer loop
      vertex -8.36413 9.28931 0
      vertex -10.1127 7.34731 3
      vertex -10.1127 7.34731 0
    endloop
  endfacet
  facet normal -0.207906 -0.978149 0
    outer loop
      vertex 1.30661 12.4315 0
      vertex 3.86271 11.8882 3
      vertex 1.30661 12.4315 3
    endloop
  endfacet
  facet normal -0.207906 -0.978149 -0
    outer loop
      vertex 3.86271 11.8882 3
      vertex 1.30661 12.4315 0
      vertex 3.86271 11.8882 0
    endloop
  endfacet
  facet normal 0.743148 0.669128 0
    outer loop
      vertex -8.36413 -9.28931 3
      vertex -10.1127 -7.34731 0
      vertex -10.1127 -7.34731 3
    endloop
  endfacet
  facet normal 0.743148 0.669128 0
    outer loop
      vertex -10.1127 -7.34731 0
      vertex -8.36413 -9.28931 3
      vertex -8.36413 -9.28931 0
    endloop
  endfacet
  facet normal 0.207906 0.978149 -0
    outer loop
      vertex -1.30661 -12.4315 0
      vertex -3.86271 -11.8882 3
      vertex -1.30661 -12.4315 3
    endloop
  endfacet
  facet normal 0.207906 0.978149 0
    outer loop
      vertex -3.86271 -11.8882 3
      vertex -1.30661 -12.4315 0
      vertex -3.86271 -11.8882 0
    endloop
  endfacet
  facet normal -0.99452 0.104545 0
    outer loop
      vertex 12.2268 -2.5989 0
      vertex 12.5 0 3
      vertex 12.5 0 0
    endloop
  endfacet
  facet normal -0.99452 0.104545 0
    outer loop
      vertex 12.5 0 3
      vertex 12.2268 -2.5989 0
      vertex 12.2268 -2.5989 3
    endloop
  endfacet
  facet normal 0 1 -0
    outer loop
      vertex 1.30661 -12.4315 0
      vertex -1.30661 -12.4315 3
      vertex 1.30661 -12.4315 3
    endloop
  endfacet
  facet normal 0 1 0
    outer loop
      vertex -1.30661 -12.4315 3
      vertex 1.30661 -12.4315 0
      vertex -1.30661 -12.4315 0
    endloop
  endfacet
  facet normal -0.743148 -0.669128 0
    outer loop
      vertex 10.1127 7.34731 0
      vertex 8.36413 9.28931 3
      vertex 8.36413 9.28931 0
    endloop
  endfacet
  facet normal -0.743148 -0.669128 0
    outer loop
      vertex 8.36413 9.28931 3
      vertex 10.1127 7.34731 0
      vertex 10.1127 7.34731 3
    endloop
  endfacet
  facet normal -0.866026 0.5 0
    outer loop
      vertex 10.1127 -7.34731 0
      vertex 11.4193 -5.08421 3
      vertex 11.4193 -5.08421 0
    endloop
  endfacet
  facet normal -0.866026 0.5 0
    outer loop
      vertex 11.4193 -5.08421 3
      vertex 10.1127 -7.34731 0
      vertex 10.1127 -7.34731 3
    endloop
  endfacet
  facet normal -0.951059 0.309008 0
    outer loop
      vertex 11.4193 -5.08421 0
      vertex 12.2268 -2.5989 3
      vertex 12.2268 -2.5989 0
    endloop
  endfacet
  facet normal -0.951059 0.309008 0
    outer loop
      vertex 12.2268 -2.5989 3
      vertex 11.4193 -5.08421 0
      vertex 11.4193 -5.08421 3
    endloop
  endfacet
  facet normal 0.99452 0.104545 0
    outer loop
      vertex -12.2268 -2.5989 3
      vertex -12.5 0 0
      vertex -12.5 0 3
    endloop
  endfacet
  facet normal 0.99452 0.104545 0
    outer loop
      vertex -12.5 0 0
      vertex -12.2268 -2.5989 3
      vertex -12.2268 -2.5989 0
    endloop
  endfacet
  facet normal -0.40674 0.913544 0
    outer loop
      vertex 6.25 -10.8253 0
      vertex 3.86271 -11.8882 3
      vertex 6.25 -10.8253 3
    endloop
  endfacet
  facet normal -0.40674 0.913544 0
    outer loop
      vertex 3.86271 -11.8882 3
      vertex 6.25 -10.8253 0
      vertex 3.86271 -11.8882 0
    endloop
  endfacet
  facet normal 0.40674 -0.913544 0
    outer loop
      vertex -6.25 10.8253 0
      vertex -3.86271 11.8882 3
      vertex -6.25 10.8253 3
    endloop
  endfacet
  facet normal 0.40674 -0.913544 0
    outer loop
      vertex -3.86271 11.8882 3
      vertex -6.25 10.8253 0
      vertex -3.86271 11.8882 0
    endloop
  endfacet
  facet normal 0.99452 -0.104545 0
    outer loop
      vertex -12.5 0 3
      vertex -12.2268 2.5989 0
      vertex -12.2268 2.5989 3
    endloop
  endfacet
  facet normal 0.99452 -0.104545 0
    outer loop
      vertex -12.2268 2.5989 0
      vertex -12.5 0 3
      vertex -12.5 0 0
    endloop
  endfacet
  facet normal 0 -1 0
    outer loop
      vertex -1.30661 12.4315 0
      vertex 1.30661 12.4315 3
      vertex -1.30661 12.4315 3
    endloop
  endfacet
  facet normal 0 -1 -0
    outer loop
      vertex 1.30661 12.4315 3
      vertex -1.30661 12.4315 0
      vertex 1.30661 12.4315 0
    endloop
  endfacet
  facet normal -0.743148 0.669128 0
    outer loop
      vertex 8.36413 -9.28931 0
      vertex 10.1127 -7.34731 3
      vertex 10.1127 -7.34731 0
    endloop
  endfacet
  facet normal -0.743148 0.669128 0
    outer loop
      vertex 10.1127 -7.34731 3
      vertex 8.36413 -9.28931 0
      vertex 8.36413 -9.28931 3
    endloop
  endfacet
  facet normal 0.951059 0.309008 0
    outer loop
      vertex -11.4193 -5.08421 3
      vertex -12.2268 -2.5989 0
      vertex -12.2268 -2.5989 3
    endloop
  endfacet
  facet normal 0.951059 0.309008 0
    outer loop
      vertex -12.2268 -2.5989 0
      vertex -11.4193 -5.08421 3
      vertex -11.4193 -5.08421 0
    endloop
  endfacet
  facet normal -0.207906 0.978149 0
    outer loop
      vertex 3.86271 -11.8882 0
      vertex 1.30661 -12.4315 3
      vertex 3.86271 -11.8882 3
    endloop
  endfacet
  facet normal -0.207906 0.978149 0
    outer loop
      vertex 1.30661 -12.4315 3
      vertex 3.86271 -11.8882 0
      vertex 1.30661 -12.4315 0
    endloop
  endfacet
  facet normal 0.207906 -0.978149 0
    outer loop
      vertex -3.86271 11.8882 0
      vertex -1.30661 12.4315 3
      vertex -3.86271 11.8882 3
    endloop
  endfacet
  facet normal 0.207906 -0.978149 0
    outer loop
      vertex -1.30661 12.4315 3
      vertex -3.86271 11.8882 0
      vertex -1.30661 12.4315 0
    endloop
  endfacet
  facet normal -0.587781 -0.80902 0
    outer loop
      vertex 6.25 10.8253 0
      vertex 8.36413 9.28931 3
      vertex 6.25 10.8253 3
    endloop
  endfacet
  facet normal -0.587781 -0.80902 -0
    outer loop
      vertex 8.36413 9.28931 3
      vertex 6.25 10.8253 0
      vertex 8.36413 9.28931 0
    endloop
  endfacet
  facet normal -0.40674 -0.913544 0
    outer loop
      vertex 3.86271 11.8882 0
      vertex 6.25 10.8253 3
      vertex 3.86271 11.8882 3
    endloop
  endfacet
  facet normal -0.40674 -0.913544 -0
    outer loop
      vertex 6.25 10.8253 3
      vertex 3.86271 11.8882 0
      vertex 6.25 10.8253 0
    endloop
  endfacet
  facet normal 0.866026 0.5 0
    outer loop
      vertex -10.1127 -7.34731 3
      vertex -11.4193 -5.08421 0
      vertex -11.4193 -5.08421 3
    endloop
  endfacet
  facet normal 0.866026 0.5 0
    outer loop
      vertex -11.4193 -5.08421 0
      vertex -10.1127 -7.34731 3
      vertex -10.1127 -7.34731 0
    endloop
  endfacet
  facet normal 0.866026 -0.5 0
    outer loop
      vertex -11.4193 5.08421 3
      vertex -10.1127 7.34731 0
      vertex -10.1127 7.34731 3
    endloop
  endfacet
  facet normal 0.866026 -0.5 0
    outer loop
      vertex -10.1127 7.34731 0
      vertex -11.4193 5.08421 3
      vertex -11.4193 5.08421 0
    endloop
  endfacet
  facet normal 0.587781 0.80902 -0
    outer loop
      vertex -6.25 -10.8253 0
      vertex -8.36413 -9.28931 3
      vertex -6.25 -10.8253 3
    endloop
  endfacet
  facet normal 0.587781 0.80902 0
    outer loop
      vertex -8.36413 -9.28931 3
      vertex -6.25 -10.8253 0
      vertex -8.36413 -9.28931 0
    endloop
  endfacet
  facet normal 0.40674 0.913544 -0
    outer loop
      vertex -3.86271 -11.8882 0
      vertex -6.25 -10.8253 3
      vertex -3.86271 -11.8882 3
    endloop
  endfacet
  facet normal 0.40674 0.913544 0
    outer loop
      vertex -6.25 -10.8253 3
      vertex -3.86271 -11.8882 0
      vertex -6.25 -10.8253 0
    endloop
  endfacet
  facet normal 0.951059 -0.309008 0
    outer loop
      vertex -12.2268 2.5989 3
      vertex -11.4193 5.08421 0
      vertex -11.4193 5.08421 3
    endloop
  endfacet
  facet normal 0.951059 -0.309008 0
    outer loop
      vertex -11.4193 5.08421 0
      vertex -12.2268 2.5989 3
      vertex -12.2268 2.5989 0
    endloop
  endfacet
endsolid OpenSCAD_Model
