solid OpenSCAD_Model
  facet normal 1 -0 0
    outer loop
      vertex 2.5 -0.5 0.5
      vertex 2.5 0.5 -0.5
      vertex 2.5 0.5 0.5
    endloop
  endfacet
  facet normal 1 0 0
    outer loop
      vertex 2.5 0.5 -0.5
      vertex 2.5 -0.5 0.5
      vertex 2.5 -0.5 -0.5
    endloop
  endfacet
  facet normal -0 0 1
    outer loop
      vertex 0.602456 2.16871 0.5
      vertex 1.60246 2.03803 0.5
      vertex 1.60246 2.16871 0.5
    endloop
  endfacet
  facet normal 0 0 1
    outer loop
      vertex 1.60246 2.03803 0.5
      vertex 1.48799 -0.0648584 0.5
      vertex 1.5 -0.281115 0.5
    endloop
  endfacet
  facet normal 0 0 1
    outer loop
      vertex 1.60246 2.03803 0.5
      vertex 1.45209 0.146168 0.5
      vertex 1.48799 -0.0648584 0.5
    endloop
  endfacet
  facet normal 0 0 1
    outer loop
      vertex 1.60246 2.03803 0.5
      vertex 1.39274 0.349433 0.5
      vertex 1.45209 0.146168 0.5
    endloop
  endfacet
  facet normal 0 0 1
    outer loop
      vertex 1.60246 2.03803 0.5
      vertex 1.31065 0.542493 0.5
      vertex 1.39274 0.349433 0.5
    endloop
  endfacet
  facet normal 0 0 1
    outer loop
      vertex 1.60246 2.03803 0.5
      vertex 1.20681 0.723029 0.5
      vertex 1.31065 0.542493 0.5
    endloop
  endfacet
  facet normal 0 0 1
    outer loop
      vertex 1.60246 2.03803 0.5
      vertex 1.08247 0.888872 0.5
      vertex 1.20681 0.723029 0.5
    endloop
  endfacet
  facet normal 0 0 1
    outer loop
      vertex 1.60246 2.03803 0.5
      vertex 0.939108 1.03803 0.5
      vertex 1.08247 0.888872 0.5
    endloop
  endfacet
  facet normal 0 0 1
    outer loop
      vertex 1.60246 2.03803 0.5
      vertex 0.778462 1.16871 0.5
      vertex 0.939108 1.03803 0.5
    endloop
  endfacet
  facet normal 0 0 1
    outer loop
      vertex 1.60246 2.03803 0.5
      vertex 0.602456 2.16871 0.5
      vertex 0.778462 1.16871 0.5
    endloop
  endfacet
  facet normal 0 0 1
    outer loop
      vertex 0.778462 1.16871 0.5
      vertex 0.602456 2.16871 0.5
      vertex 0.602456 1.16871 0.5
    endloop
  endfacet
  facet normal 0 0 1
    outer loop
      vertex 1.77846 2.03803 0.5
      vertex 1.60246 2.03803 0.5
      vertex 1.77846 1.88887 0.5
    endloop
  endfacet
  facet normal 0 0 1
    outer loop
      vertex 1.93911 1.88887 0.5
      vertex 1.77846 1.88887 0.5
      vertex 1.93911 1.72303 0.5
    endloop
  endfacet
  facet normal 0 0 1
    outer loop
      vertex 2.08247 1.72303 0.5
      vertex 1.93911 1.72303 0.5
      vertex 2.08247 1.54249 0.5
    endloop
  endfacet
  facet normal 0 0 1
    outer loop
      vertex 2.20681 1.54249 0.5
      vertex 2.08247 1.54249 0.5
      vertex 2.20681 1.34943 0.5
    endloop
  endfacet
  facet normal 0 0 1
    outer loop
      vertex 2.31065 1.34943 0.5
      vertex 2.20681 1.34943 0.5
      vertex 2.31065 1.14617 0.5
    endloop
  endfacet
  facet normal 0 0 1
    outer loop
      vertex 2.39274 1.14617 0.5
      vertex 2.31065 1.14617 0.5
      vertex 2.39274 0.935141 0.5
    endloop
  endfacet
  facet normal 0 0 1
    outer loop
      vertex 2.45209 0.935141 0.5
      vertex 2.39274 0.935141 0.5
      vertex 2.45209 0.718884 0.5
    endloop
  endfacet
  facet normal 0 0 1
    outer loop
      vertex 2.48799 0.718884 0.5
      vertex 2.45209 0.718884 0.5
      vertex 2.48799 0.5 0.5
    endloop
  endfacet
  facet normal -0 0 1
    outer loop
      vertex 2.48799 0.5 0.5
      vertex 2.5 -0.5 0.5
      vertex 2.5 0.5 0.5
    endloop
  endfacet
  facet normal 0 0 1
    outer loop
      vertex 1.5 -0.281115 0.5
      vertex 2.48799 0.5 0.5
      vertex 2.45209 0.718884 0.5
    endloop
  endfacet
  facet normal 0 0 1
    outer loop
      vertex 1.5 -0.281115 0.5
      vertex 2.45209 0.718884 0.5
      vertex 2.39274 0.935141 0.5
    endloop
  endfacet
  facet normal 0 0 1
    outer loop
      vertex 1.5 -0.281115 0.5
      vertex 2.39274 0.935141 0.5
      vertex 2.31065 1.14617 0.5
    endloop
  endfacet
  facet normal 0 0 1
    outer loop
      vertex 1.5 -0.281115 0.5
      vertex 2.31065 1.14617 0.5
      vertex 2.20681 1.34943 0.5
    endloop
  endfacet
  facet normal 0 0 1
    outer loop
      vertex 1.5 -0.281115 0.5
      vertex 2.20681 1.34943 0.5
      vertex 2.08247 1.54249 0.5
    endloop
  endfacet
  facet normal 0 0 1
    outer loop
      vertex 1.5 -0.281115 0.5
      vertex 2.08247 1.54249 0.5
      vertex 1.93911 1.72303 0.5
    endloop
  endfacet
  facet normal 0 0 1
    outer loop
      vertex 1.5 -0.281115 0.5
      vertex 1.93911 1.72303 0.5
      vertex 1.77846 1.88887 0.5
    endloop
  endfacet
  facet normal 0 0 1
    outer loop
      vertex 1.5 -0.281115 0.5
      vertex 1.77846 1.88887 0.5
      vertex 1.60246 2.03803 0.5
    endloop
  endfacet
  facet normal 0 0 1
    outer loop
      vertex 2.48799 0.5 0.5
      vertex 1.5 -0.281115 0.5
      vertex 2.5 -0.5 0.5
    endloop
  endfacet
  facet normal 0 0 1
    outer loop
      vertex 2.5 -0.5 0.5
      vertex 1.5 -0.281115 0.5
      vertex 1.5 -0.5 0.5
    endloop
  endfacet
  facet normal 0 0 1
    outer loop
      vertex 1.5 -0.281115 0.5
      vertex 1.48799 -0.0648584 0.5
      vertex 1.48799 -0.281115 0.5
    endloop
  endfacet
  facet normal 0 0 1
    outer loop
      vertex 1.48799 -0.0648584 0.5
      vertex 1.45209 0.146168 0.5
      vertex 1.45209 -0.0648584 0.5
    endloop
  endfacet
  facet normal 0 0 1
    outer loop
      vertex 1.45209 0.146168 0.5
      vertex 1.39274 0.349433 0.5
      vertex 1.39274 0.146168 0.5
    endloop
  endfacet
  facet normal 0 0 1
    outer loop
      vertex 1.39274 0.349433 0.5
      vertex 1.31065 0.542493 0.5
      vertex 1.31065 0.349433 0.5
    endloop
  endfacet
  facet normal 0 0 1
    outer loop
      vertex 1.31065 0.542493 0.5
      vertex 1.20681 0.723029 0.5
      vertex 1.20681 0.542493 0.5
    endloop
  endfacet
  facet normal 0 0 1
    outer loop
      vertex 1.20681 0.723029 0.5
      vertex 1.08247 0.888872 0.5
      vertex 1.08247 0.723029 0.5
    endloop
  endfacet
  facet normal 0 0 1
    outer loop
      vertex 1.08247 0.888872 0.5
      vertex 0.939108 1.03803 0.5
      vertex 0.939108 0.888872 0.5
    endloop
  endfacet
  facet normal 0 0 1
    outer loop
      vertex 0.939108 1.03803 0.5
      vertex 0.778462 1.16871 0.5
      vertex 0.778462 1.03803 0.5
    endloop
  endfacet
  facet normal 0 0 -1
    outer loop
      vertex 2.5 -0.5 -0.5
      vertex 2.48799 0.5 -0.5
      vertex 2.5 0.5 -0.5
    endloop
  endfacet
  facet normal 0 0 -1
    outer loop
      vertex 2.48799 0.5 -0.5
      vertex 2.45209 0.718884 -0.5
      vertex 2.48799 0.718884 -0.5
    endloop
  endfacet
  facet normal 0 0 -1
    outer loop
      vertex 1.48799 -0.0648584 -0.5
      vertex 2.48799 0.5 -0.5
      vertex 2.5 -0.5 -0.5
    endloop
  endfacet
  facet normal 0 0 -1
    outer loop
      vertex 2.45209 0.718884 -0.5
      vertex 2.39274 0.935141 -0.5
      vertex 2.45209 0.935141 -0.5
    endloop
  endfacet
  facet normal 0 0 -1
    outer loop
      vertex 1.45209 0.146168 -0.5
      vertex 2.48799 0.5 -0.5
      vertex 1.48799 -0.0648584 -0.5
    endloop
  endfacet
  facet normal 0 0 -1
    outer loop
      vertex 2.39274 0.935141 -0.5
      vertex 2.31065 1.14617 -0.5
      vertex 2.39274 1.14617 -0.5
    endloop
  endfacet
  facet normal -0 0 -1
    outer loop
      vertex 2.48799 0.5 -0.5
      vertex 1.39274 0.349433 -0.5
      vertex 2.45209 0.718884 -0.5
    endloop
  endfacet
  facet normal 0 0 -1
    outer loop
      vertex 2.31065 1.14617 -0.5
      vertex 2.20681 1.34943 -0.5
      vertex 2.31065 1.34943 -0.5
    endloop
  endfacet
  facet normal 0 0 -1
    outer loop
      vertex 1.31065 0.542493 -0.5
      vertex 2.45209 0.718884 -0.5
      vertex 1.39274 0.349433 -0.5
    endloop
  endfacet
  facet normal 0 0 -1
    outer loop
      vertex 2.20681 1.34943 -0.5
      vertex 2.08247 1.54249 -0.5
      vertex 2.20681 1.54249 -0.5
    endloop
  endfacet
  facet normal -0 0 -1
    outer loop
      vertex 2.45209 0.718884 -0.5
      vertex 1.31065 0.542493 -0.5
      vertex 2.39274 0.935141 -0.5
    endloop
  endfacet
  facet normal 0 0 -1
    outer loop
      vertex 2.08247 1.54249 -0.5
      vertex 1.93911 1.72303 -0.5
      vertex 2.08247 1.72303 -0.5
    endloop
  endfacet
  facet normal 0 0 -1
    outer loop
      vertex 1.20681 0.723029 -0.5
      vertex 2.31065 1.14617 -0.5
      vertex 1.31065 0.542493 -0.5
    endloop
  endfacet
  facet normal 0 0 -1
    outer loop
      vertex 1.93911 1.72303 -0.5
      vertex 1.77846 1.88887 -0.5
      vertex 1.93911 1.88887 -0.5
    endloop
  endfacet
  facet normal -0 0 -1
    outer loop
      vertex 2.31065 1.14617 -0.5
      vertex 1.20681 0.723029 -0.5
      vertex 2.20681 1.34943 -0.5
    endloop
  endfacet
  facet normal 0 0 -1
    outer loop
      vertex 1.77846 1.88887 -0.5
      vertex 1.60246 2.03803 -0.5
      vertex 1.77846 2.03803 -0.5
    endloop
  endfacet
  facet normal -0 0 -1
    outer loop
      vertex 2.20681 1.34943 -0.5
      vertex 1.20681 0.723029 -0.5
      vertex 2.08247 1.54249 -0.5
    endloop
  endfacet
  facet normal 0 0 -1
    outer loop
      vertex 1.5 -0.281115 -0.5
      vertex 2.5 -0.5 -0.5
      vertex 1.5 -0.5 -0.5
    endloop
  endfacet
  facet normal 0 0 -1
    outer loop
      vertex 1.48799 -0.0648584 -0.5
      vertex 2.5 -0.5 -0.5
      vertex 1.5 -0.281115 -0.5
    endloop
  endfacet
  facet normal 0 0 -1
    outer loop
      vertex 1.39274 0.349433 -0.5
      vertex 2.48799 0.5 -0.5
      vertex 1.45209 0.146168 -0.5
    endloop
  endfacet
  facet normal 0 0 -1
    outer loop
      vertex 1.48799 -0.0648584 -0.5
      vertex 1.5 -0.281115 -0.5
      vertex 1.48799 -0.281115 -0.5
    endloop
  endfacet
  facet normal -0 0 -1
    outer loop
      vertex 2.39274 0.935141 -0.5
      vertex 1.31065 0.542493 -0.5
      vertex 2.31065 1.14617 -0.5
    endloop
  endfacet
  facet normal 0 0 -1
    outer loop
      vertex 1.45209 0.146168 -0.5
      vertex 1.48799 -0.0648584 -0.5
      vertex 1.45209 -0.0648584 -0.5
    endloop
  endfacet
  facet normal 0 0 -1
    outer loop
      vertex 1.08247 0.888872 -0.5
      vertex 2.08247 1.54249 -0.5
      vertex 1.20681 0.723029 -0.5
    endloop
  endfacet
  facet normal 0 0 -1
    outer loop
      vertex 1.39274 0.349433 -0.5
      vertex 1.45209 0.146168 -0.5
      vertex 1.39274 0.146168 -0.5
    endloop
  endfacet
  facet normal -0 0 -1
    outer loop
      vertex 2.08247 1.54249 -0.5
      vertex 1.08247 0.888872 -0.5
      vertex 1.93911 1.72303 -0.5
    endloop
  endfacet
  facet normal 0 0 -1
    outer loop
      vertex 1.31065 0.542493 -0.5
      vertex 1.39274 0.349433 -0.5
      vertex 1.31065 0.349433 -0.5
    endloop
  endfacet
  facet normal 0 0 -1
    outer loop
      vertex 0.939108 1.03803 -0.5
      vertex 1.93911 1.72303 -0.5
      vertex 1.08247 0.888872 -0.5
    endloop
  endfacet
  facet normal 0 0 -1
    outer loop
      vertex 1.20681 0.723029 -0.5
      vertex 1.31065 0.542493 -0.5
      vertex 1.20681 0.542493 -0.5
    endloop
  endfacet
  facet normal -0 0 -1
    outer loop
      vertex 1.93911 1.72303 -0.5
      vertex 0.939108 1.03803 -0.5
      vertex 1.77846 1.88887 -0.5
    endloop
  endfacet
  facet normal 0 0 -1
    outer loop
      vertex 1.08247 0.888872 -0.5
      vertex 1.20681 0.723029 -0.5
      vertex 1.08247 0.723029 -0.5
    endloop
  endfacet
  facet normal -0 0 -1
    outer loop
      vertex 1.77846 1.88887 -0.5
      vertex 0.939108 1.03803 -0.5
      vertex 1.60246 2.03803 -0.5
    endloop
  endfacet
  facet normal 0 0 -1
    outer loop
      vertex 0.939108 1.03803 -0.5
      vertex 1.08247 0.888872 -0.5
      vertex 0.939108 0.888872 -0.5
    endloop
  endfacet
  facet normal 0 0 -1
    outer loop
      vertex 0.778462 1.16871 -0.5
      vertex 1.60246 2.03803 -0.5
      vertex 0.939108 1.03803 -0.5
    endloop
  endfacet
  facet normal 0 0 -1
    outer loop
      vertex 0.778462 1.16871 -0.5
      vertex 0.939108 1.03803 -0.5
      vertex 0.778462 1.03803 -0.5
    endloop
  endfacet
  facet normal 0 0 -1
    outer loop
      vertex 0.602456 2.16871 -0.5
      vertex 1.60246 2.03803 -0.5
      vertex 0.778462 1.16871 -0.5
    endloop
  endfacet
  facet normal 0 0 -1
    outer loop
      vertex 0.602456 2.16871 -0.5
      vertex 0.778462 1.16871 -0.5
      vertex 0.602456 1.16871 -0.5
    endloop
  endfacet
  facet normal 0 0 -1
    outer loop
      vertex 1.60246 2.03803 -0.5
      vertex 0.602456 2.16871 -0.5
      vertex 1.60246 2.16871 -0.5
    endloop
  endfacet
  facet normal -1 0 0
    outer loop
      vertex 1.5 -0.5 -0.5
      vertex 1.5 -0.281115 0.5
      vertex 1.5 -0.281115 -0.5
    endloop
  endfacet
  facet normal -1 -0 0
    outer loop
      vertex 1.5 -0.281115 0.5
      vertex 1.5 -0.5 -0.5
      vertex 1.5 -0.5 0.5
    endloop
  endfacet
  facet normal 0 1 -0
    outer loop
      vertex 2.5 0.5 -0.5
      vertex 2.48799 0.5 0.5
      vertex 2.5 0.5 0.5
    endloop
  endfacet
  facet normal 0 1 0
    outer loop
      vertex 2.48799 0.5 0.5
      vertex 2.5 0.5 -0.5
      vertex 2.48799 0.5 -0.5
    endloop
  endfacet
  facet normal 0 -1 0
    outer loop
      vertex 1.5 -0.5 -0.5
      vertex 2.5 -0.5 0.5
      vertex 1.5 -0.5 0.5
    endloop
  endfacet
  facet normal 0 -1 -0
    outer loop
      vertex 2.5 -0.5 0.5
      vertex 1.5 -0.5 -0.5
      vertex 2.5 -0.5 -0.5
    endloop
  endfacet
  facet normal 1 -0 0
    outer loop
      vertex 2.48799 0.5 0.5
      vertex 2.48799 0.718884 -0.5
      vertex 2.48799 0.718884 0.5
    endloop
  endfacet
  facet normal 1 0 0
    outer loop
      vertex 2.48799 0.718884 -0.5
      vertex 2.48799 0.5 0.5
      vertex 2.48799 0.5 -0.5
    endloop
  endfacet
  facet normal -1 0 0
    outer loop
      vertex 1.48799 -0.281115 -0.5
      vertex 1.48799 -0.0648584 0.5
      vertex 1.48799 -0.0648584 -0.5
    endloop
  endfacet
  facet normal -1 -0 0
    outer loop
      vertex 1.48799 -0.0648584 0.5
      vertex 1.48799 -0.281115 -0.5
      vertex 1.48799 -0.281115 0.5
    endloop
  endfacet
  facet normal 0 1 -0
    outer loop
      vertex 2.48799 0.718884 -0.5
      vertex 2.45209 0.718884 0.5
      vertex 2.48799 0.718884 0.5
    endloop
  endfacet
  facet normal 0 1 0
    outer loop
      vertex 2.45209 0.718884 0.5
      vertex 2.48799 0.718884 -0.5
      vertex 2.45209 0.718884 -0.5
    endloop
  endfacet
  facet normal 0 -1 0
    outer loop
      vertex 1.48799 -0.281115 -0.5
      vertex 1.5 -0.281115 0.5
      vertex 1.48799 -0.281115 0.5
    endloop
  endfacet
  facet normal 0 -1 -0
    outer loop
      vertex 1.5 -0.281115 0.5
      vertex 1.48799 -0.281115 -0.5
      vertex 1.5 -0.281115 -0.5
    endloop
  endfacet
  facet normal 1 -0 0
    outer loop
      vertex 2.45209 0.718884 0.5
      vertex 2.45209 0.935141 -0.5
      vertex 2.45209 0.935141 0.5
    endloop
  endfacet
  facet normal 1 0 0
    outer loop
      vertex 2.45209 0.935141 -0.5
      vertex 2.45209 0.718884 0.5
      vertex 2.45209 0.718884 -0.5
    endloop
  endfacet
  facet normal -1 0 0
    outer loop
      vertex 1.45209 -0.0648584 -0.5
      vertex 1.45209 0.146168 0.5
      vertex 1.45209 0.146168 -0.5
    endloop
  endfacet
  facet normal -1 -0 0
    outer loop
      vertex 1.45209 0.146168 0.5
      vertex 1.45209 -0.0648584 -0.5
      vertex 1.45209 -0.0648584 0.5
    endloop
  endfacet
  facet normal 0 1 -0
    outer loop
      vertex 2.45209 0.935141 -0.5
      vertex 2.39274 0.935141 0.5
      vertex 2.45209 0.935141 0.5
    endloop
  endfacet
  facet normal 0 1 0
    outer loop
      vertex 2.39274 0.935141 0.5
      vertex 2.45209 0.935141 -0.5
      vertex 2.39274 0.935141 -0.5
    endloop
  endfacet
  facet normal 0 -1 0
    outer loop
      vertex 1.45209 -0.0648584 -0.5
      vertex 1.48799 -0.0648584 0.5
      vertex 1.45209 -0.0648584 0.5
    endloop
  endfacet
  facet normal 0 -1 -0
    outer loop
      vertex 1.48799 -0.0648584 0.5
      vertex 1.45209 -0.0648584 -0.5
      vertex 1.48799 -0.0648584 -0.5
    endloop
  endfacet
  facet normal 1 -0 0
    outer loop
      vertex 2.39274 0.935141 0.5
      vertex 2.39274 1.14617 -0.5
      vertex 2.39274 1.14617 0.5
    endloop
  endfacet
  facet normal 1 0 0
    outer loop
      vertex 2.39274 1.14617 -0.5
      vertex 2.39274 0.935141 0.5
      vertex 2.39274 0.935141 -0.5
    endloop
  endfacet
  facet normal -1 0 0
    outer loop
      vertex 1.39274 0.146168 -0.5
      vertex 1.39274 0.349433 0.5
      vertex 1.39274 0.349433 -0.5
    endloop
  endfacet
  facet normal -1 -0 0
    outer loop
      vertex 1.39274 0.349433 0.5
      vertex 1.39274 0.146168 -0.5
      vertex 1.39274 0.146168 0.5
    endloop
  endfacet
  facet normal 0 1 -0
    outer loop
      vertex 2.39274 1.14617 -0.5
      vertex 2.31065 1.14617 0.5
      vertex 2.39274 1.14617 0.5
    endloop
  endfacet
  facet normal 0 1 0
    outer loop
      vertex 2.31065 1.14617 0.5
      vertex 2.39274 1.14617 -0.5
      vertex 2.31065 1.14617 -0.5
    endloop
  endfacet
  facet normal 0 -1 0
    outer loop
      vertex 1.39274 0.146168 -0.5
      vertex 1.45209 0.146168 0.5
      vertex 1.39274 0.146168 0.5
    endloop
  endfacet
  facet normal 0 -1 -0
    outer loop
      vertex 1.45209 0.146168 0.5
      vertex 1.39274 0.146168 -0.5
      vertex 1.45209 0.146168 -0.5
    endloop
  endfacet
  facet normal 1 -0 0
    outer loop
      vertex 2.31065 1.14617 0.5
      vertex 2.31065 1.34943 -0.5
      vertex 2.31065 1.34943 0.5
    endloop
  endfacet
  facet normal 1 0 0
    outer loop
      vertex 2.31065 1.34943 -0.5
      vertex 2.31065 1.14617 0.5
      vertex 2.31065 1.14617 -0.5
    endloop
  endfacet
  facet normal -1 0 0
    outer loop
      vertex 1.31065 0.349433 -0.5
      vertex 1.31065 0.542493 0.5
      vertex 1.31065 0.542493 -0.5
    endloop
  endfacet
  facet normal -1 -0 0
    outer loop
      vertex 1.31065 0.542493 0.5
      vertex 1.31065 0.349433 -0.5
      vertex 1.31065 0.349433 0.5
    endloop
  endfacet
  facet normal 0 1 -0
    outer loop
      vertex 2.31065 1.34943 -0.5
      vertex 2.20681 1.34943 0.5
      vertex 2.31065 1.34943 0.5
    endloop
  endfacet
  facet normal 0 1 0
    outer loop
      vertex 2.20681 1.34943 0.5
      vertex 2.31065 1.34943 -0.5
      vertex 2.20681 1.34943 -0.5
    endloop
  endfacet
  facet normal 0 -1 0
    outer loop
      vertex 1.31065 0.349433 -0.5
      vertex 1.39274 0.349433 0.5
      vertex 1.31065 0.349433 0.5
    endloop
  endfacet
  facet normal 0 -1 -0
    outer loop
      vertex 1.39274 0.349433 0.5
      vertex 1.31065 0.349433 -0.5
      vertex 1.39274 0.349433 -0.5
    endloop
  endfacet
  facet normal 1 -0 0
    outer loop
      vertex 2.20681 1.34943 0.5
      vertex 2.20681 1.54249 -0.5
      vertex 2.20681 1.54249 0.5
    endloop
  endfacet
  facet normal 1 0 0
    outer loop
      vertex 2.20681 1.54249 -0.5
      vertex 2.20681 1.34943 0.5
      vertex 2.20681 1.34943 -0.5
    endloop
  endfacet
  facet normal -1 0 0
    outer loop
      vertex 1.20681 0.542493 -0.5
      vertex 1.20681 0.723029 0.5
      vertex 1.20681 0.723029 -0.5
    endloop
  endfacet
  facet normal -1 -0 0
    outer loop
      vertex 1.20681 0.723029 0.5
      vertex 1.20681 0.542493 -0.5
      vertex 1.20681 0.542493 0.5
    endloop
  endfacet
  facet normal 0 1 -0
    outer loop
      vertex 2.20681 1.54249 -0.5
      vertex 2.08247 1.54249 0.5
      vertex 2.20681 1.54249 0.5
    endloop
  endfacet
  facet normal 0 1 0
    outer loop
      vertex 2.08247 1.54249 0.5
      vertex 2.20681 1.54249 -0.5
      vertex 2.08247 1.54249 -0.5
    endloop
  endfacet
  facet normal 0 -1 0
    outer loop
      vertex 1.20681 0.542493 -0.5
      vertex 1.31065 0.542493 0.5
      vertex 1.20681 0.542493 0.5
    endloop
  endfacet
  facet normal 0 -1 -0
    outer loop
      vertex 1.31065 0.542493 0.5
      vertex 1.20681 0.542493 -0.5
      vertex 1.31065 0.542493 -0.5
    endloop
  endfacet
  facet normal 1 -0 0
    outer loop
      vertex 2.08247 1.54249 0.5
      vertex 2.08247 1.72303 -0.5
      vertex 2.08247 1.72303 0.5
    endloop
  endfacet
  facet normal 1 0 0
    outer loop
      vertex 2.08247 1.72303 -0.5
      vertex 2.08247 1.54249 0.5
      vertex 2.08247 1.54249 -0.5
    endloop
  endfacet
  facet normal -1 0 0
    outer loop
      vertex 1.08247 0.723029 -0.5
      vertex 1.08247 0.888872 0.5
      vertex 1.08247 0.888872 -0.5
    endloop
  endfacet
  facet normal -1 -0 0
    outer loop
      vertex 1.08247 0.888872 0.5
      vertex 1.08247 0.723029 -0.5
      vertex 1.08247 0.723029 0.5
    endloop
  endfacet
  facet normal 0 1 -0
    outer loop
      vertex 2.08247 1.72303 -0.5
      vertex 1.93911 1.72303 0.5
      vertex 2.08247 1.72303 0.5
    endloop
  endfacet
  facet normal 0 1 0
    outer loop
      vertex 1.93911 1.72303 0.5
      vertex 2.08247 1.72303 -0.5
      vertex 1.93911 1.72303 -0.5
    endloop
  endfacet
  facet normal 0 -1 0
    outer loop
      vertex 1.08247 0.723029 -0.5
      vertex 1.20681 0.723029 0.5
      vertex 1.08247 0.723029 0.5
    endloop
  endfacet
  facet normal 0 -1 -0
    outer loop
      vertex 1.20681 0.723029 0.5
      vertex 1.08247 0.723029 -0.5
      vertex 1.20681 0.723029 -0.5
    endloop
  endfacet
  facet normal 1 -0 0
    outer loop
      vertex 1.93911 1.72303 0.5
      vertex 1.93911 1.88887 -0.5
      vertex 1.93911 1.88887 0.5
    endloop
  endfacet
  facet normal 1 0 0
    outer loop
      vertex 1.93911 1.88887 -0.5
      vertex 1.93911 1.72303 0.5
      vertex 1.93911 1.72303 -0.5
    endloop
  endfacet
  facet normal -1 0 0
    outer loop
      vertex 0.939108 0.888872 -0.5
      vertex 0.939108 1.03803 0.5
      vertex 0.939108 1.03803 -0.5
    endloop
  endfacet
  facet normal -1 -0 0
    outer loop
      vertex 0.939108 1.03803 0.5
      vertex 0.939108 0.888872 -0.5
      vertex 0.939108 0.888872 0.5
    endloop
  endfacet
  facet normal 0 1 -0
    outer loop
      vertex 1.93911 1.88887 -0.5
      vertex 1.77846 1.88887 0.5
      vertex 1.93911 1.88887 0.5
    endloop
  endfacet
  facet normal 0 1 0
    outer loop
      vertex 1.77846 1.88887 0.5
      vertex 1.93911 1.88887 -0.5
      vertex 1.77846 1.88887 -0.5
    endloop
  endfacet
  facet normal 0 -1 0
    outer loop
      vertex 0.939108 0.888872 -0.5
      vertex 1.08247 0.888872 0.5
      vertex 0.939108 0.888872 0.5
    endloop
  endfacet
  facet normal 0 -1 -0
    outer loop
      vertex 1.08247 0.888872 0.5
      vertex 0.939108 0.888872 -0.5
      vertex 1.08247 0.888872 -0.5
    endloop
  endfacet
  facet normal 1 -0 0
    outer loop
      vertex 1.77846 1.88887 0.5
      vertex 1.77846 2.03803 -0.5
      vertex 1.77846 2.03803 0.5
    endloop
  endfacet
  facet normal 1 0 0
    outer loop
      vertex 1.77846 2.03803 -0.5
      vertex 1.77846 1.88887 0.5
      vertex 1.77846 1.88887 -0.5
    endloop
  endfacet
  facet normal -1 0 0
    outer loop
      vertex 0.778462 1.03803 -0.5
      vertex 0.778462 1.16871 0.5
      vertex 0.778462 1.16871 -0.5
    endloop
  endfacet
  facet normal -1 -0 0
    outer loop
      vertex 0.778462 1.16871 0.5
      vertex 0.778462 1.03803 -0.5
      vertex 0.778462 1.03803 0.5
    endloop
  endfacet
  facet normal 0 1 -0
    outer loop
      vertex 1.77846 2.03803 -0.5
      vertex 1.60246 2.03803 0.5
      vertex 1.77846 2.03803 0.5
    endloop
  endfacet
  facet normal 0 1 0
    outer loop
      vertex 1.60246 2.03803 0.5
      vertex 1.77846 2.03803 -0.5
      vertex 1.60246 2.03803 -0.5
    endloop
  endfacet
  facet normal 0 -1 0
    outer loop
      vertex 0.778462 1.03803 -0.5
      vertex 0.939108 1.03803 0.5
      vertex 0.778462 1.03803 0.5
    endloop
  endfacet
  facet normal 0 -1 -0
    outer loop
      vertex 0.939108 1.03803 0.5
      vertex 0.778462 1.03803 -0.5
      vertex 0.939108 1.03803 -0.5
    endloop
  endfacet
  facet normal 1 -0 0
    outer loop
      vertex 1.60246 2.03803 0.5
      vertex 1.60246 2.16871 -0.5
      vertex 1.60246 2.16871 0.5
    endloop
  endfacet
  facet normal 1 0 0
    outer loop
      vertex 1.60246 2.16871 -0.5
      vertex 1.60246 2.03803 0.5
      vertex 1.60246 2.03803 -0.5
    endloop
  endfacet
  facet normal -1 0 0
    outer loop
      vertex 0.602456 1.16871 -0.5
      vertex 0.602456 2.16871 0.5
      vertex 0.602456 2.16871 -0.5
    endloop
  endfacet
  facet normal -1 -0 0
    outer loop
      vertex 0.602456 2.16871 0.5
      vertex 0.602456 1.16871 -0.5
      vertex 0.602456 1.16871 0.5
    endloop
  endfacet
  facet normal 0 1 -0
    outer loop
      vertex 1.60246 2.16871 -0.5
      vertex 0.602456 2.16871 0.5
      vertex 1.60246 2.16871 0.5
    endloop
  endfacet
  facet normal 0 1 0
    outer loop
      vertex 0.602456 2.16871 0.5
      vertex 1.60246 2.16871 -0.5
      vertex 0.602456 2.16871 -0.5
    endloop
  endfacet
  facet normal 0 -1 0
    outer loop
      vertex 0.602456 1.16871 -0.5
      vertex 0.778462 1.16871 0.5
      vertex 0.602456 1.16871 0.5
    endloop
  endfacet
  facet normal 0 -1 -0
    outer loop
      vertex 0.778462 1.16871 0.5
      vertex 0.602456 1.16871 -0.5
      vertex 0.778462 1.16871 -0.5
    endloop
  endfacet
endsolid OpenSCAD_Model
