solid OpenSCAD_Model
  facet normal 1 -0 0
    outer loop
      vertex 50 0 20
      vertex 50 30 0
      vertex 50 30 20
    endloop
  endfacet
  facet normal 1 0 0
    outer loop
      vertex 50 30 0
      vertex 50 0 20
      vertex 50 0 0
    endloop
  endfacet
  facet normal -0 0 1
    outer loop
      vertex 0 30 20
      vertex 50 0 20
      vertex 50 30 20
    endloop
  endfacet
  facet normal 0 0 1
    outer loop
      vertex 50 0 20
      vertex 0 30 20
      vertex 0 0 20
    endloop
  endfacet
  facet normal 0 0 -1
    outer loop
      vertex 0 0 0
      vertex 50 30 0
      vertex 50 0 0
    endloop
  endfacet
  facet normal -0 0 -1
    outer loop
      vertex 50 30 0
      vertex 0 0 0
      vertex 0 30 0
    endloop
  endfacet
  facet normal -1 0 0
    outer loop
      vertex 0 0 0
      vertex 0 30 20
      vertex 0 30 0
    endloop
  endfacet
  facet normal -1 -0 0
    outer loop
      vertex 0 30 20
      vertex 0 0 0
      vertex 0 0 20
    endloop
  endfacet
  facet normal 0 1 -0
    outer loop
      vertex 50 30 0
      vertex 0 30 20
      vertex 50 30 20
    endloop
  endfacet
  facet normal 0 1 0
    outer loop
      vertex 0 30 20
      vertex 50 30 0
      vertex 0 30 0
    endloop
  endfacet
  facet normal 0 -1 0
    outer loop
      vertex 0 0 0
      vertex 50 0 20
      vertex 0 0 20
    endloop
  endfacet
  facet normal 0 -1 -0
    outer loop
      vertex 50 0 20
      vertex 0 0 0
      vertex 50 0 0
    endloop
  endfacet
  facet normal -1 0 0
    outer loop
      vertex 45 5 5
      vertex 45 25 15
      vertex 45 25 5
    endloop
  endfacet
  facet normal -1 -0 0
    outer loop
      vertex 45 25 15
      vertex 45 5 5
      vertex 45 5 15
    endloop
  endfacet
  facet normal 0 0 -1
    outer loop
      vertex 5 5 15
      vertex 45 25 15
      vertex 45 5 15
    endloop
  endfacet
  facet normal -0 0 -1
    outer loop
      vertex 45 25 15
      vertex 5 5 15
      vertex 5 25 15
    endloop
  endfacet
  facet normal -0 0 1
    outer loop
      vertex 5 25 5
      vertex 45 5 5
      vertex 45 25 5
    endloop
  endfacet
  facet normal 0 0 1
    outer loop
      vertex 45 5 5
      vertex 5 25 5
      vertex 5 5 5
    endloop
  endfacet
  facet normal 1 -0 0
    outer loop
      vertex 5 5 15
      vertex 5 25 5
      vertex 5 25 15
    endloop
  endfacet
  facet normal 1 0 0
    outer loop
      vertex 5 25 5
      vertex 5 5 15
      vertex 5 5 5
    endloop
  endfacet
  facet normal 0 -1 0
    outer loop
      vertex 5 25 5
      vertex 45 25 15
      vertex 5 25 15
    endloop
  endfacet
  facet normal 0 -1 -0
    outer loop
      vertex 45 25 15
      vertex 5 25 5
      vertex 45 25 5
    endloop
  endfacet
  facet normal 0 1 -0
    outer loop
      vertex 45 5 5
      vertex 5 5 15
      vertex 45 5 15
    endloop
  endfacet
  facet normal 0 1 0
    outer loop
      vertex 5 5 15
      vertex 45 5 5
      vertex 5 5 5
    endloop
  endfacet
endsolid OpenSCAD_Model
