solid OpenSCAD_Model
  facet normal 1 -0 0
    outer loop
      vertex 5 0 0.5
      vertex 5 10 0
      vertex 5 10 0.5
    endloop
  endfacet
  facet normal 1 0 0
    outer loop
      vertex 5 10 0
      vertex 5 0 0.5
      vertex 5 0 0
    endloop
  endfacet
  facet normal -0 0 1
    outer loop
      vertex 0 10 0.5
      vertex 5 0 0.5
      vertex 5 10 0.5
    endloop
  endfacet
  facet normal 0 0 1
    outer loop
      vertex 5 0 0.5
      vertex 0 10 0.5
      vertex 0 0 0.5
    endloop
  endfacet
  facet normal 0 0 -1
    outer loop
      vertex 0 0 0
      vertex 5 10 0
      vertex 5 0 0
    endloop
  endfacet
  facet normal -0 0 -1
    outer loop
      vertex 5 10 0
      vertex 0 0 0
      vertex 0 10 0
    endloop
  endfacet
  facet normal -1 0 0
    outer loop
      vertex 0 0 0
      vertex 0 10 0.5
      vertex 0 10 0
    endloop
  endfacet
  facet normal -1 -0 0
    outer loop
      vertex 0 10 0.5
      vertex 0 0 0
      vertex 0 0 0.5
    endloop
  endfacet
  facet normal 0 1 -0
    outer loop
      vertex 5 10 0
      vertex 0 10 0.5
      vertex 5 10 0.5
    endloop
  endfacet
  facet normal 0 1 0
    outer loop
      vertex 0 10 0.5
      vertex 5 10 0
      vertex 0 10 0
    endloop
  endfacet
  facet normal 0 -1 0
    outer loop
      vertex 0 0 0
      vertex 5 0 0.5
      vertex 0 0 0.5
    endloop
  endfacet
  facet normal 0 -1 -0
    outer loop
      vertex 5 0 0.5
      vertex 0 0 0
      vertex 5 0 0
    endloop
  endfacet
  facet normal 1 -0 0
    outer loop
      vertex 12 0 0.5
      vertex 12 10 0
      vertex 12 10 0.5
    endloop
  endfacet
  facet normal 1 0 0
    outer loop
      vertex 12 10 0
      vertex 12 0 0.5
      vertex 12 0 0
    endloop
  endfacet
  facet normal -0 0 1
    outer loop
      vertex 7 10 0.5
      vertex 12 0 0.5
      vertex 12 10 0.5
    endloop
  endfacet
  facet normal 0 0 1
    outer loop
      vertex 12 0 0.5
      vertex 7 10 0.5
      vertex 7 0 0.5
    endloop
  endfacet
  facet normal 0 0 -1
    outer loop
      vertex 7 0 0
      vertex 12 10 0
      vertex 12 0 0
    endloop
  endfacet
  facet normal -0 0 -1
    outer loop
      vertex 12 10 0
      vertex 7 0 0
      vertex 7 10 0
    endloop
  endfacet
  facet normal -1 0 0
    outer loop
      vertex 7 0 0
      vertex 7 10 0.5
      vertex 7 10 0
    endloop
  endfacet
  facet normal -1 -0 0
    outer loop
      vertex 7 10 0.5
      vertex 7 0 0
      vertex 7 0 0.5
    endloop
  endfacet
  facet normal 0 1 -0
    outer loop
      vertex 12 10 0
      vertex 7 10 0.5
      vertex 12 10 0.5
    endloop
  endfacet
  facet normal 0 1 0
    outer loop
      vertex 7 10 0.5
      vertex 12 10 0
      vertex 7 10 0
    endloop
  endfacet
  facet normal 0 -1 0
    outer loop
      vertex 7 0 0
      vertex 12 0 0.5
      vertex 7 0 0.5
    endloop
  endfacet
  facet normal 0 -1 -0
    outer loop
      vertex 12 0 0.5
      vertex 7 0 0
      vertex 12 0 0
    endloop
  endfacet
  facet normal 1 -0 0
    outer loop
      vertex 19 0 0.5
      vertex 19 10 0
      vertex 19 10 0.5
    endloop
  endfacet
  facet normal 1 0 0
    outer loop
      vertex 19 10 0
      vertex 19 0 0.5
      vertex 19 0 0
    endloop
  endfacet
  facet normal -0 0 1
    outer loop
      vertex 14 10 0.5
      vertex 19 0 0.5
      vertex 19 10 0.5
    endloop
  endfacet
  facet normal 0 0 1
    outer loop
      vertex 19 0 0.5
      vertex 14 10 0.5
      vertex 14 0 0.5
    endloop
  endfacet
  facet normal 0 0 -1
    outer loop
      vertex 14 0 0
      vertex 19 10 0
      vertex 19 0 0
    endloop
  endfacet
  facet normal -0 0 -1
    outer loop
      vertex 19 10 0
      vertex 14 0 0
      vertex 14 10 0
    endloop
  endfacet
  facet normal -1 0 0
    outer loop
      vertex 14 0 0
      vertex 14 10 0.5
      vertex 14 10 0
    endloop
  endfacet
  facet normal -1 -0 0
    outer loop
      vertex 14 10 0.5
      vertex 14 0 0
      vertex 14 0 0.5
    endloop
  endfacet
  facet normal 0 1 -0
    outer loop
      vertex 19 10 0
      vertex 14 10 0.5
      vertex 19 10 0.5
    endloop
  endfacet
  facet normal 0 1 0
    outer loop
      vertex 14 10 0.5
      vertex 19 10 0
      vertex 14 10 0
    endloop
  endfacet
  facet normal 0 -1 0
    outer loop
      vertex 14 0 0
      vertex 19 0 0.5
      vertex 14 0 0.5
    endloop
  endfacet
  facet normal 0 -1 -0
    outer loop
      vertex 19 0 0.5
      vertex 14 0 0
      vertex 19 0 0
    endloop
  endfacet
  facet normal 1 -0 0
    outer loop
      vertex 26 0 0.5
      vertex 26 10 0
      vertex 26 10 0.5
    endloop
  endfacet
  facet normal 1 0 0
    outer loop
      vertex 26 10 0
      vertex 26 0 0.5
      vertex 26 0 0
    endloop
  endfacet
  facet normal -0 0 1
    outer loop
      vertex 21 10 0.5
      vertex 26 0 0.5
      vertex 26 10 0.5
    endloop
  endfacet
  facet normal 0 0 1
    outer loop
      vertex 26 0 0.5
      vertex 21 10 0.5
      vertex 21 0 0.5
    endloop
  endfacet
  facet normal 0 0 -1
    outer loop
      vertex 21 0 0
      vertex 26 10 0
      vertex 26 0 0
    endloop
  endfacet
  facet normal -0 0 -1
    outer loop
      vertex 26 10 0
      vertex 21 0 0
      vertex 21 10 0
    endloop
  endfacet
  facet normal -1 0 0
    outer loop
      vertex 21 0 0
      vertex 21 10 0.5
      vertex 21 10 0
    endloop
  endfacet
  facet normal -1 -0 0
    outer loop
      vertex 21 10 0.5
      vertex 21 0 0
      vertex 21 0 0.5
    endloop
  endfacet
  facet normal 0 1 -0
    outer loop
      vertex 26 10 0
      vertex 21 10 0.5
      vertex 26 10 0.5
    endloop
  endfacet
  facet normal 0 1 0
    outer loop
      vertex 21 10 0.5
      vertex 26 10 0
      vertex 21 10 0
    endloop
  endfacet
  facet normal 0 -1 0
    outer loop
      vertex 21 0 0
      vertex 26 0 0.5
      vertex 21 0 0.5
    endloop
  endfacet
  facet normal 0 -1 -0
    outer loop
      vertex 26 0 0.5
      vertex 21 0 0
      vertex 26 0 0
    endloop
  endfacet
  facet normal 1 -0 0
    outer loop
      vertex 33 0 0.5
      vertex 33 10 0
      vertex 33 10 0.5
    endloop
  endfacet
  facet normal 1 0 0
    outer loop
      vertex 33 10 0
      vertex 33 0 0.5
      vertex 33 0 0
    endloop
  endfacet
  facet normal -0 0 1
    outer loop
      vertex 28 10 0.5
      vertex 33 0 0.5
      vertex 33 10 0.5
    endloop
  endfacet
  facet normal 0 0 1
    outer loop
      vertex 33 0 0.5
      vertex 28 10 0.5
      vertex 28 0 0.5
    endloop
  endfacet
  facet normal 0 0 -1
    outer loop
      vertex 28 0 0
      vertex 33 10 0
      vertex 33 0 0
    endloop
  endfacet
  facet normal -0 0 -1
    outer loop
      vertex 33 10 0
      vertex 28 0 0
      vertex 28 10 0
    endloop
  endfacet
  facet normal -1 0 0
    outer loop
      vertex 28 0 0
      vertex 28 10 0.5
      vertex 28 10 0
    endloop
  endfacet
  facet normal -1 -0 0
    outer loop
      vertex 28 10 0.5
      vertex 28 0 0
      vertex 28 0 0.5
    endloop
  endfacet
  facet normal 0 1 -0
    outer loop
      vertex 33 10 0
      vertex 28 10 0.5
      vertex 33 10 0.5
    endloop
  endfacet
  facet normal 0 1 0
    outer loop
      vertex 28 10 0.5
      vertex 33 10 0
      vertex 28 10 0
    endloop
  endfacet
  facet normal 0 -1 0
    outer loop
      vertex 28 0 0
      vertex 33 0 0.5
      vertex 28 0 0.5
    endloop
  endfacet
  facet normal 0 -1 -0
    outer loop
      vertex 33 0 0.5
      vertex 28 0 0
      vertex 33 0 0
    endloop
  endfacet
  facet normal 1 -0 0
    outer loop
      vertex 40 0 0.5
      vertex 40 10 0
      vertex 40 10 0.5
    endloop
  endfacet
  facet normal 1 0 0
    outer loop
      vertex 40 10 0
      vertex 40 0 0.5
      vertex 40 0 0
    endloop
  endfacet
  facet normal -0 0 1
    outer loop
      vertex 35 10 0.5
      vertex 40 0 0.5
      vertex 40 10 0.5
    endloop
  endfacet
  facet normal 0 0 1
    outer loop
      vertex 40 0 0.5
      vertex 35 10 0.5
      vertex 35 0 0.5
    endloop
  endfacet
  facet normal 0 0 -1
    outer loop
      vertex 35 0 0
      vertex 40 10 0
      vertex 40 0 0
    endloop
  endfacet
  facet normal -0 0 -1
    outer loop
      vertex 40 10 0
      vertex 35 0 0
      vertex 35 10 0
    endloop
  endfacet
  facet normal -1 0 0
    outer loop
      vertex 35 0 0
      vertex 35 10 0.5
      vertex 35 10 0
    endloop
  endfacet
  facet normal -1 -0 0
    outer loop
      vertex 35 10 0.5
      vertex 35 0 0
      vertex 35 0 0.5
    endloop
  endfacet
  facet normal 0 1 -0
    outer loop
      vertex 40 10 0
      vertex 35 10 0.5
      vertex 40 10 0.5
    endloop
  endfacet
  facet normal 0 1 0
    outer loop
      vertex 35 10 0.5
      vertex 40 10 0
      vertex 35 10 0
    endloop
  endfacet
  facet normal 0 -1 0
    outer loop
      vertex 35 0 0
      vertex 40 0 0.5
      vertex 35 0 0.5
    endloop
  endfacet
  facet normal 0 -1 -0
    outer loop
      vertex 40 0 0.5
      vertex 35 0 0
      vertex 40 0 0
    endloop
  endfacet
  facet normal 1 -0 0
    outer loop
      vertex 47 0 0.5
      vertex 47 10 0
      vertex 47 10 0.5
    endloop
  endfacet
  facet normal 1 0 0
    outer loop
      vertex 47 10 0
      vertex 47 0 0.5
      vertex 47 0 0
    endloop
  endfacet
  facet normal -0 0 1
    outer loop
      vertex 42 10 0.5
      vertex 47 0 0.5
      vertex 47 10 0.5
    endloop
  endfacet
  facet normal 0 0 1
    outer loop
      vertex 47 0 0.5
      vertex 42 10 0.5
      vertex 42 0 0.5
    endloop
  endfacet
  facet normal 0 0 -1
    outer loop
      vertex 42 0 0
      vertex 47 10 0
      vertex 47 0 0
    endloop
  endfacet
  facet normal -0 0 -1
    outer loop
      vertex 47 10 0
      vertex 42 0 0
      vertex 42 10 0
    endloop
  endfacet
  facet normal -1 0 0
    outer loop
      vertex 42 0 0
      vertex 42 10 0.5
      vertex 42 10 0
    endloop
  endfacet
  facet normal -1 -0 0
    outer loop
      vertex 42 10 0.5
      vertex 42 0 0
      vertex 42 0 0.5
    endloop
  endfacet
  facet normal 0 1 -0
    outer loop
      vertex 47 10 0
      vertex 42 10 0.5
      vertex 47 10 0.5
    endloop
  endfacet
  facet normal 0 1 0
    outer loop
      vertex 42 10 0.5
      vertex 47 10 0
      vertex 42 10 0
    endloop
  endfacet
  facet normal 0 -1 0
    outer loop
      vertex 42 0 0
      vertex 47 0 0.5
      vertex 42 0 0.5
    endloop
  endfacet
  facet normal 0 -1 -0
    outer loop
      vertex 47 0 0.5
      vertex 42 0 0
      vertex 47 0 0
    endloop
  endfacet
  facet normal 1 -0 0
    outer loop
      vertex 54 0 0.5
      vertex 54 10 0
      vertex 54 10 0.5
    endloop
  endfacet
  facet normal 1 0 0
    outer loop
      vertex 54 10 0
      vertex 54 0 0.5
      vertex 54 0 0
    endloop
  endfacet
  facet normal -0 0 1
    outer loop
      vertex 49 10 0.5
      vertex 54 0 0.5
      vertex 54 10 0.5
    endloop
  endfacet
  facet normal 0 0 1
    outer loop
      vertex 54 0 0.5
      vertex 49 10 0.5
      vertex 49 0 0.5
    endloop
  endfacet
  facet normal 0 0 -1
    outer loop
      vertex 49 0 0
      vertex 54 10 0
      vertex 54 0 0
    endloop
  endfacet
  facet normal -0 0 -1
    outer loop
      vertex 54 10 0
      vertex 49 0 0
      vertex 49 10 0
    endloop
  endfacet
  facet normal -1 0 0
    outer loop
      vertex 49 0 0
      vertex 49 10 0.5
      vertex 49 10 0
    endloop
  endfacet
  facet normal -1 -0 0
    outer loop
      vertex 49 10 0.5
      vertex 49 0 0
      vertex 49 0 0.5
    endloop
  endfacet
  facet normal 0 1 -0
    outer loop
      vertex 54 10 0
      vertex 49 10 0.5
      vertex 54 10 0.5
    endloop
  endfacet
  facet normal 0 1 0
    outer loop
      vertex 49 10 0.5
      vertex 54 10 0
      vertex 49 10 0
    endloop
  endfacet
  facet normal 0 -1 0
    outer loop
      vertex 49 0 0
      vertex 54 0 0.5
      vertex 49 0 0.5
    endloop
  endfacet
  facet normal 0 -1 -0
    outer loop
      vertex 54 0 0.5
      vertex 49 0 0
      vertex 54 0 0
    endloop
  endfacet
  facet normal 1 -0 0
    outer loop
      vertex 61 0 0.5
      vertex 61 10 0
      vertex 61 10 0.5
    endloop
  endfacet
  facet normal 1 0 0
    outer loop
      vertex 61 10 0
      vertex 61 0 0.5
      vertex 61 0 0
    endloop
  endfacet
  facet normal -0 0 1
    outer loop
      vertex 56 10 0.5
      vertex 61 0 0.5
      vertex 61 10 0.5
    endloop
  endfacet
  facet normal 0 0 1
    outer loop
      vertex 61 0 0.5
      vertex 56 10 0.5
      vertex 56 0 0.5
    endloop
  endfacet
  facet normal 0 0 -1
    outer loop
      vertex 56 0 0
      vertex 61 10 0
      vertex 61 0 0
    endloop
  endfacet
  facet normal -0 0 -1
    outer loop
      vertex 61 10 0
      vertex 56 0 0
      vertex 56 10 0
    endloop
  endfacet
  facet normal -1 0 0
    outer loop
      vertex 56 0 0
      vertex 56 10 0.5
      vertex 56 10 0
    endloop
  endfacet
  facet normal -1 -0 0
    outer loop
      vertex 56 10 0.5
      vertex 56 0 0
      vertex 56 0 0.5
    endloop
  endfacet
  facet normal 0 1 -0
    outer loop
      vertex 61 10 0
      vertex 56 10 0.5
      vertex 61 10 0.5
    endloop
  endfacet
  facet normal 0 1 0
    outer loop
      vertex 56 10 0.5
      vertex 61 10 0
      vertex 56 10 0
    endloop
  endfacet
  facet normal 0 -1 0
    outer loop
      vertex 56 0 0
      vertex 61 0 0.5
      vertex 56 0 0.5
    endloop
  endfacet
  facet normal 0 -1 -0
    outer loop
      vertex 61 0 0.5
      vertex 56 0 0
      vertex 61 0 0
    endloop
  endfacet
  facet normal 1 -0 0
    outer loop
      vertex 68 0 0.5
      vertex 68 10 0
      vertex 68 10 0.5
    endloop
  endfacet
  facet normal 1 0 0
    outer loop
      vertex 68 10 0
      vertex 68 0 0.5
      vertex 68 0 0
    endloop
  endfacet
  facet normal -0 0 1
    outer loop
      vertex 63 10 0.5
      vertex 68 0 0.5
      vertex 68 10 0.5
    endloop
  endfacet
  facet normal 0 0 1
    outer loop
      vertex 68 0 0.5
      vertex 63 10 0.5
      vertex 63 0 0.5
    endloop
  endfacet
  facet normal 0 0 -1
    outer loop
      vertex 63 0 0
      vertex 68 10 0
      vertex 68 0 0
    endloop
  endfacet
  facet normal -0 0 -1
    outer loop
      vertex 68 10 0
      vertex 63 0 0
      vertex 63 10 0
    endloop
  endfacet
  facet normal -1 0 0
    outer loop
      vertex 63 0 0
      vertex 63 10 0.5
      vertex 63 10 0
    endloop
  endfacet
  facet normal -1 -0 0
    outer loop
      vertex 63 10 0.5
      vertex 63 0 0
      vertex 63 0 0.5
    endloop
  endfacet
  facet normal 0 1 -0
    outer loop
      vertex 68 10 0
      vertex 63 10 0.5
      vertex 68 10 0.5
    endloop
  endfacet
  facet normal 0 1 0
    outer loop
      vertex 63 10 0.5
      vertex 68 10 0
      vertex 63 10 0
    endloop
  endfacet
  facet normal 0 -1 0
    outer loop
      vertex 63 0 0
      vertex 68 0 0.5
      vertex 63 0 0.5
    endloop
  endfacet
  facet normal 0 -1 -0
    outer loop
      vertex 68 0 0.5
      vertex 63 0 0
      vertex 68 0 0
    endloop
  endfacet
endsolid OpenSCAD_Model
