solid OpenSCAD_Model
  facet normal 0 0 -1
    outer loop
      vertex 3.33333 3.33333 0
      vertex 50 0 0
      vertex 3.33333 0 0
    endloop
  endfacet
  facet normal 0 0 -1
    outer loop
      vertex 50 0 0
      vertex 3.33333 3.33333 0
      vertex 50 50 0
    endloop
  endfacet
  facet normal 0 0 -1
    outer loop
      vertex 0 50 0
      vertex 3.33333 3.33333 0
      vertex 0 0 0
    endloop
  endfacet
  facet normal 0 0 -1
    outer loop
      vertex 3.33333 3.33333 0
      vertex 0 50 0
      vertex 50 50 0
    endloop
  endfacet
  facet normal -1 0 0
    outer loop
      vertex 3.33333 0 0
      vertex 3.33333 3.33333 50
      vertex 3.33333 3.33333 0
    endloop
  endfacet
  facet normal -1 -0 0
    outer loop
      vertex 3.33333 3.33333 50
      vertex 3.33333 0 0
      vertex 3.33333 0 50
    endloop
  endfacet
  facet normal 0 0 1
    outer loop
      vertex 50 50 50
      vertex 3.33333 3.33333 50
      vertex 50 0 50
    endloop
  endfacet
  facet normal -0 0 1
    outer loop
      vertex 0 50 50
      vertex 3.33333 3.33333 50
      vertex 50 50 50
    endloop
  endfacet
  facet normal 0 0 1
    outer loop
      vertex 3.33333 3.33333 50
      vertex 0 50 50
      vertex 0 0 50
    endloop
  endfacet
  facet normal 0 0 1
    outer loop
      vertex 50 0 50
      vertex 3.33333 3.33333 50
      vertex 3.33333 0 50
    endloop
  endfacet
  facet normal 0.707107 -0.707107 0
    outer loop
      vertex 0 0 50
      vertex 3.33333 3.33333 0
      vertex 3.33333 3.33333 50
    endloop
  endfacet
  facet normal 0.707107 -0.707107 0
    outer loop
      vertex 3.33333 3.33333 0
      vertex 0 0 50
      vertex 0 0 0
    endloop
  endfacet
  facet normal 1 -0 0
    outer loop
      vertex 50 0 50
      vertex 50 50 0
      vertex 50 50 50
    endloop
  endfacet
  facet normal 1 0 0
    outer loop
      vertex 50 50 0
      vertex 50 0 50
      vertex 50 0 0
    endloop
  endfacet
  facet normal -1 0 0
    outer loop
      vertex 0 0 0
      vertex 0 50 50
      vertex 0 50 0
    endloop
  endfacet
  facet normal -1 -0 0
    outer loop
      vertex 0 50 50
      vertex 0 0 0
      vertex 0 0 50
    endloop
  endfacet
  facet normal 0 1 -0
    outer loop
      vertex 50 50 0
      vertex 0 50 50
      vertex 50 50 50
    endloop
  endfacet
  facet normal 0 1 0
    outer loop
      vertex 0 50 50
      vertex 50 50 0
      vertex 0 50 0
    endloop
  endfacet
  facet normal 0 -1 0
    outer loop
      vertex 3.33333 0 0
      vertex 50 0 50
      vertex 3.33333 0 50
    endloop
  endfacet
  facet normal 0 -1 -0
    outer loop
      vertex 50 0 50
      vertex 3.33333 0 0
      vertex 50 0 0
    endloop
  endfacet
endsolid OpenSCAD_Model
